<?xml version="1.0" standalone="no"?>
<!DOCTYPE svg PUBLIC "-//W3C//DTD SVG 20010904//EN"
 "http://www.w3.org/TR/2001/REC-SVG-20010904/DTD/svg10.dtd">
<svg version="1.0" xmlns="http://www.w3.org/2000/svg"
 width="260.000000pt" height="260.000000pt" viewBox="0 0 260.000000 260.000000"
 preserveAspectRatio="xMidYMid meet">
<metadata>
Created by potrace 1.11, written by Peter Selinger 2001-2013
</metadata>
<g transform="translate(0.000000,260.000000) scale(0.100000,-0.100000)"
fill="#000000" stroke="none">
<path d="M1236 1988 c-6 -28 -24 -122 -30 -162 -3 -16 -11 -53 -17 -82 -7 -30
-9 -57 -6 -61 8 -7 345 -9 352 -1 4 4 65 303 65 321 0 4 -81 7 -180 7 -178 0
-180 0 -184 -22z"/>
<path d="M1135 1440 c-2 -3 -6 -23 -9 -45 -4 -22 -11 -65 -16 -95 -11 -66 -20
-123 -26 -170 -2 -19 -9 -60 -14 -90 -13 -76 -18 -109 -25 -155 -4 -22 -15
-94 -26 -159 -11 -65 -18 -124 -16 -130 5 -11 330 -17 340 -6 3 3 8 23 11 45
4 23 8 50 10 60 2 11 7 42 10 68 4 26 11 71 17 100 5 29 12 70 14 92 3 22 7
51 10 65 3 14 7 41 10 60 3 19 7 46 10 60 3 14 7 39 9 55 8 56 18 120 22 140
2 11 7 40 10 65 l5 45 -171 0 c-95 0 -173 -2 -175 -5z"/>
</g>
</svg>
