<svg width="30" height="30" viewBox="0 0 30 30" fill="none" xmlns="http://www.w3.org/2000/svg">
<rect width="30" height="30" fill="white"/>
<path d="M30 30H22.5H15H7.5H0V22.5003V15.0005V7.49975V0H7.5H15H22.5H30V7.49975V14.9995V22.4992V30ZM0.252287 29.7477H7.62614H15H22.3739H29.7477V22.3741V15.0005V7.62589V0.252279H22.3739H15H7.62614H0.252287V7.62589V14.9995V22.3731V29.7477Z" fill="#4D4D4D"/>
<path d="M6.8 22.2V20.925H8.075V22.2H6.8Z" fill="#4D4D4D" stroke="white" stroke-width="0.1"/>
<path d="M6.8 20.825V19.55H8.075V20.825H6.8Z" fill="#4D4D4D" stroke="white" stroke-width="0.1"/>
<path d="M6.8 19.45V18.175H8.075V19.45H6.8Z" fill="#4D4D4D" stroke="white" stroke-width="0.1"/>
<path d="M6.8 18.075V16.8H8.075V18.075H6.8Z" fill="#4D4D4D" stroke="white" stroke-width="0.1"/>
<path d="M6.8 16.7V15.425H8.075V16.7H6.8Z" fill="#4D4D4D" stroke="white" stroke-width="0.1"/>
<path d="M6.8 15.325V14.05H8.075V15.325H6.8Z" fill="#4D4D4D" stroke="white" stroke-width="0.1"/>
<path d="M6.8 13.95V12.675H8.075V13.95H6.8Z" fill="#4D4D4D" stroke="white" stroke-width="0.1"/>
<path d="M5.425 22.2V20.925H6.7V22.2H5.425Z" fill="#4D4D4D" stroke="white" stroke-width="0.1"/>
<path d="M5.425 20.825V19.55H6.7V20.825H5.425Z" fill="#4D4D4D" stroke="white" stroke-width="0.1"/>
<path d="M5.425 19.45V18.175H6.7V19.45H5.425Z" fill="#4D4D4D" stroke="white" stroke-width="0.1"/>
<path d="M5.425 18.075V16.8H6.7V18.075H5.425Z" fill="#4D4D4D" stroke="white" stroke-width="0.1"/>
<path d="M5.425 16.7V15.425H6.7V16.7H5.425Z" fill="#4D4D4D" stroke="white" stroke-width="0.1"/>
<path d="M5.425 15.325V14.05H6.7V15.325H5.425Z" fill="#4D4D4D" stroke="white" stroke-width="0.1"/>
<path d="M5.425 13.95V12.675H6.7V13.95H5.425Z" fill="#4D4D4D" stroke="white" stroke-width="0.1"/>
<path d="M4.05 22.2V20.925H5.325V22.2H4.05Z" fill="#4D4D4D" stroke="white" stroke-width="0.1"/>
<path d="M4.05 20.825V19.55H5.325V20.825H4.05Z" fill="#4D4D4D" stroke="white" stroke-width="0.1"/>
<path d="M4.05 19.45V18.175H5.325V19.45H4.05Z" fill="#4D4D4D" stroke="white" stroke-width="0.1"/>
<path d="M4.05 18.075V16.8H5.325V18.075H4.05Z" fill="#4D4D4D" stroke="white" stroke-width="0.1"/>
<path d="M4.05 16.7V15.425H5.325V16.7H4.05Z" fill="#4D4D4D" stroke="white" stroke-width="0.1"/>
<path d="M4.05 15.325V14.05H5.325V15.325H4.05Z" fill="#4D4D4D" stroke="white" stroke-width="0.1"/>
<path d="M4.05 13.95V12.675H5.325V13.95H4.05Z" fill="#4D4D4D" stroke="white" stroke-width="0.1"/>
<path d="M14.05 12.575V11.3H15.325V12.575H14.05Z" fill="#4D4D4D" stroke="white" stroke-width="0.1"/>
<path d="M14.05 11.2V9.925H15.325V11.2H14.05Z" fill="#4D4D4D" stroke="white" stroke-width="0.1"/>
<path d="M14.05 9.825V8.55H15.325V9.825H14.05Z" fill="#4D4D4D" stroke="white" stroke-width="0.1"/>
<path d="M14.05 8.45V7.175H15.325V8.45H14.05Z" fill="#4D4D4D" stroke="white" stroke-width="0.1"/>
<path d="M14.05 7.075V5.8H15.325V7.075H14.05Z" fill="#4D4D4D" stroke="white" stroke-width="0.1"/>
<path d="M14.05 5.7V4.425H15.325V5.7H14.05Z" fill="#4D4D4D" stroke="white" stroke-width="0.1"/>
<path d="M14.05 4.325V3.05H15.325V4.325H14.05Z" fill="#4D4D4D" stroke="white" stroke-width="0.1"/>
<path d="M15.425 12.575V11.3H16.7V12.575H15.425Z" fill="#4D4D4D" stroke="white" stroke-width="0.1"/>
<path d="M15.425 11.2V9.925H16.7V11.2H15.425Z" fill="#4D4D4D" stroke="white" stroke-width="0.1"/>
<path d="M15.425 9.825V8.55H16.7V9.825H15.425Z" fill="#4D4D4D" stroke="white" stroke-width="0.1"/>
<path d="M15.425 8.45V7.175H16.7V8.45H15.425Z" fill="#4D4D4D" stroke="white" stroke-width="0.1"/>
<path d="M15.425 7.075V5.8H16.7V7.075H15.425Z" fill="#4D4D4D" stroke="white" stroke-width="0.1"/>
<path d="M15.425 5.7V4.425H16.7V5.7H15.425Z" fill="#4D4D4D" stroke="white" stroke-width="0.1"/>
<path d="M15.425 4.325V3.05H16.7V4.325H15.425Z" fill="#4D4D4D" stroke="white" stroke-width="0.1"/>
<path d="M16.8 12.575V11.3H18.075V12.575H16.8Z" fill="#4D4D4D" stroke="white" stroke-width="0.1"/>
<path d="M16.8 11.2V9.925H18.075V11.2H16.8Z" fill="#4D4D4D" stroke="white" stroke-width="0.1"/>
<path d="M16.8 9.825V8.55H18.075V9.825H16.8Z" fill="#4D4D4D" stroke="white" stroke-width="0.1"/>
<path d="M16.8 8.45V7.175H18.075V8.45H16.8Z" fill="#4D4D4D" stroke="white" stroke-width="0.1"/>
<path d="M16.8 7.075V5.8H18.075V7.075H16.8Z" fill="#4D4D4D" stroke="white" stroke-width="0.1"/>
<path d="M16.8 5.7V4.425H18.075V5.7H16.8Z" fill="#4D4D4D" stroke="white" stroke-width="0.1"/>
<path d="M16.8 4.325V3.05H18.075V4.325H16.8Z" fill="#4D4D4D" stroke="white" stroke-width="0.1"/>
<path d="M14.05 22.2V20.925H15.325V22.2H14.05Z" fill="#4D4D4D" stroke="white" stroke-width="0.1"/>
<path d="M14.05 20.825V19.55H15.325V20.825H14.05Z" fill="#4D4D4D" stroke="white" stroke-width="0.1"/>
<path d="M14.05 19.45V18.175H15.325V19.45H14.05Z" fill="#4D4D4D" stroke="white" stroke-width="0.1"/>
<path d="M14.05 18.075V16.8H15.325V18.075H14.05Z" fill="#4D4D4D" stroke="white" stroke-width="0.1"/>
<path d="M14.05 16.7V15.425H15.325V16.7H14.05Z" fill="#4D4D4D" stroke="white" stroke-width="0.1"/>
<path d="M14.05 15.325V14.05H15.325V15.325H14.05Z" fill="#4D4D4D" stroke="white" stroke-width="0.1"/>
<path d="M14.05 13.95V12.675H15.325V13.95H14.05Z" fill="#4D4D4D" stroke="white" stroke-width="0.1"/>
<path d="M15.425 22.2V20.925H16.7V22.2H15.425Z" fill="#4D4D4D" stroke="white" stroke-width="0.1"/>
<path d="M15.425 20.825V19.55H16.7V20.825H15.425Z" fill="#4D4D4D" stroke="white" stroke-width="0.1"/>
<path d="M15.425 19.45V18.175H16.7V19.45H15.425Z" fill="#4D4D4D" stroke="white" stroke-width="0.1"/>
<path d="M15.425 18.075V16.8H16.7V18.075H15.425Z" fill="#4D4D4D" stroke="white" stroke-width="0.1"/>
<path d="M15.425 16.7V15.425H16.7V16.7H15.425Z" fill="#4D4D4D" stroke="white" stroke-width="0.1"/>
<path d="M15.425 15.325V14.05H16.7V15.325H15.425Z" fill="#4D4D4D" stroke="white" stroke-width="0.1"/>
<path d="M15.425 13.95V12.675H16.7V13.95H15.425Z" fill="#4D4D4D" stroke="white" stroke-width="0.1"/>
<path d="M16.8 22.2V20.925H18.075V22.2H16.8Z" fill="#4D4D4D" stroke="white" stroke-width="0.1"/>
<path d="M16.8 20.825V19.55H18.075V20.825H16.8Z" fill="#4D4D4D" stroke="white" stroke-width="0.1"/>
<path d="M16.8 19.45V18.175H18.075V19.45H16.8Z" fill="#4D4D4D" stroke="white" stroke-width="0.1"/>
<path d="M16.8 18.075V16.8H18.075V18.075H16.8Z" fill="#4D4D4D" stroke="white" stroke-width="0.1"/>
<path d="M16.8 16.7V15.425H18.075V16.7H16.8Z" fill="#4D4D4D" stroke="white" stroke-width="0.1"/>
<path d="M16.8 15.325V14.05H18.075V15.325H16.8Z" fill="#4D4D4D" stroke="white" stroke-width="0.1"/>
<path d="M16.8 13.95V12.675H18.075V13.95H16.8Z" fill="#4D4D4D" stroke="white" stroke-width="0.1"/>
<path d="M13.1789 20.635C13.1789 20.873 13.1322 21.083 13.0389 21.265C12.9456 21.447 12.8219 21.601 12.6679 21.727C12.5139 21.8483 12.3342 21.9393 12.1289 22C11.9282 22.0653 11.7182 22.098 11.4989 22.098C11.2796 22.098 11.0672 22.0653 10.8619 22C10.6612 21.9393 10.4839 21.8483 10.3299 21.727C10.1759 21.601 10.0522 21.447 9.95891 21.265C9.86557 21.083 9.81891 20.873 9.81891 20.635C9.81891 20.3923 9.87724 20.166 9.99391 19.956C10.1152 19.7413 10.2926 19.5803 10.5259 19.473C10.4372 19.4263 10.3556 19.3657 10.2809 19.291C10.2062 19.2117 10.1409 19.1253 10.0849 19.032C10.0336 18.9387 9.99157 18.8407 9.95891 18.738C9.93091 18.6307 9.91691 18.5257 9.91691 18.423C9.91691 18.1943 9.95891 17.9937 10.0429 17.821C10.1316 17.6483 10.2482 17.5037 10.3929 17.387C10.5376 17.2703 10.7056 17.184 10.8969 17.128C11.0882 17.0673 11.2889 17.037 11.4989 17.037C11.7089 17.037 11.9096 17.0673 12.1009 17.128C12.2922 17.184 12.4602 17.2703 12.6049 17.387C12.7496 17.5037 12.8639 17.6483 12.9479 17.821C13.0366 17.9937 13.0809 18.1943 13.0809 18.423C13.0809 18.5257 13.0646 18.6307 13.0319 18.738C13.0039 18.8407 12.9619 18.9387 12.9059 19.032C12.8546 19.1253 12.7916 19.2117 12.7169 19.291C12.6422 19.3657 12.5606 19.4263 12.4719 19.473C12.7052 19.5803 12.8802 19.7413 12.9969 19.956C13.1182 20.166 13.1789 20.3923 13.1789 20.635ZM12.1989 18.437C12.1989 18.2597 12.1406 18.1103 12.0239 17.989C11.9072 17.8677 11.7322 17.807 11.4989 17.807C11.2609 17.807 11.0836 17.8677 10.9669 17.989C10.8549 18.1103 10.7989 18.2597 10.7989 18.437C10.7989 18.6143 10.8572 18.7683 10.9739 18.899C11.0906 19.025 11.2656 19.088 11.4989 19.088C11.7322 19.088 11.9072 19.025 12.0239 18.899C12.1406 18.7683 12.1989 18.6143 12.1989 18.437ZM12.2969 20.579C12.2969 20.3783 12.2292 20.208 12.0939 20.068C11.9586 19.928 11.7602 19.858 11.4989 19.858C11.2376 19.858 11.0392 19.928 10.9039 20.068C10.7686 20.208 10.7009 20.3783 10.7009 20.579C10.7009 20.803 10.7732 20.9827 10.9179 21.118C11.0672 21.2533 11.2609 21.321 11.4989 21.321C11.7369 21.321 11.9282 21.2533 12.0729 21.118C12.2222 20.9827 12.2969 20.803 12.2969 20.579Z" fill="#4D4D4D"/>
<path d="M14.2324 26.5C14.2324 26.308 14.2044 26.122 14.1484 25.942C14.0964 25.762 14.0124 25.608 13.8964 25.48C13.8164 25.4 13.7244 25.336 13.6204 25.288C13.5164 25.24 13.3944 25.216 13.2544 25.216C13.1144 25.216 12.9924 25.238 12.8884 25.282C12.7884 25.322 12.7004 25.378 12.6244 25.45C12.4844 25.578 12.3864 25.73 12.3304 25.906C12.2744 26.078 12.2464 26.276 12.2464 26.5C12.2464 26.708 12.2764 26.902 12.3364 27.082C12.3964 27.258 12.4944 27.412 12.6304 27.544C12.7064 27.616 12.7944 27.674 12.8944 27.718C12.9944 27.762 13.1104 27.784 13.2424 27.784C13.3704 27.784 13.4824 27.766 13.5784 27.73C13.6744 27.694 13.7604 27.642 13.8364 27.574C13.9764 27.45 14.0764 27.294 14.1364 27.106C14.2004 26.918 14.2324 26.716 14.2324 26.5ZM14.5384 26.506C14.5384 26.766 14.4984 27.01 14.4184 27.238C14.3384 27.462 14.2144 27.648 14.0464 27.796C13.9464 27.884 13.8304 27.952 13.6984 28C13.5704 28.052 13.4204 28.078 13.2484 28.078C13.1484 28.078 13.0464 28.064 12.9424 28.036C12.8424 28.008 12.7484 27.968 12.6604 27.916C12.5724 27.864 12.4924 27.8 12.4204 27.724C12.3484 27.648 12.2924 27.564 12.2524 27.472L12.2164 28H11.9524V23.668H12.2524V25.504C12.2924 25.42 12.3464 25.342 12.4144 25.27C12.4864 25.198 12.5664 25.136 12.6544 25.084C12.7424 25.032 12.8364 24.992 12.9364 24.964C13.0404 24.936 13.1464 24.922 13.2544 24.922C13.4304 24.922 13.5844 24.95 13.7164 25.006C13.8524 25.062 13.9704 25.138 14.0704 25.234C14.2304 25.386 14.3484 25.574 14.4244 25.798C14.5004 26.022 14.5384 26.258 14.5384 26.506ZM15.4863 28V25H15.8043V28H15.4863ZM15.4323 24.166V23.746H15.8523V24.166H15.4323ZM18.4369 27.97C18.3529 27.99 18.2689 28.006 18.1849 28.018C18.1049 28.034 18.0229 28.042 17.9389 28.042C17.6589 28.042 17.4589 27.962 17.3389 27.802C17.2229 27.638 17.1649 27.426 17.1649 27.166V25.276H16.5649V25H17.1649V24.172L17.4649 24.1V25H18.3949V25.276H17.4649V27.154C17.4649 27.242 17.4709 27.324 17.4829 27.4C17.4989 27.472 17.5249 27.536 17.5609 27.592C17.6009 27.644 17.6529 27.686 17.7169 27.718C17.7809 27.746 17.8629 27.76 17.9629 27.76C18.0429 27.76 18.1209 27.756 18.1969 27.748C18.2769 27.736 18.3569 27.722 18.4369 27.706V27.97Z" fill="#4D4D4D"/>
<path d="M20.8908 22V18.171L19.8198 18.948V17.996L21.0168 17.135H21.7658V22H20.8908ZM26.745 20.397C26.745 20.635 26.71 20.8567 26.64 21.062C26.57 21.2673 26.465 21.447 26.325 21.601C26.185 21.755 26.01 21.8763 25.8 21.965C25.59 22.049 25.3473 22.091 25.072 22.091C24.8387 22.091 24.6287 22.0537 24.442 21.979C24.26 21.8997 24.099 21.7923 23.959 21.657C23.819 21.517 23.7047 21.3537 23.616 21.167C23.5273 20.9803 23.4643 20.7773 23.427 20.558C23.399 20.3993 23.378 20.2477 23.364 20.103C23.3547 19.9537 23.35 19.802 23.35 19.648C23.35 19.4707 23.3547 19.2863 23.364 19.095C23.3733 18.899 23.3967 18.7077 23.434 18.521C23.4713 18.3343 23.525 18.157 23.595 17.989C23.665 17.8163 23.763 17.6623 23.889 17.527C24.0243 17.387 24.183 17.2703 24.365 17.177C24.547 17.0837 24.785 17.037 25.079 17.037C25.331 17.037 25.548 17.0743 25.73 17.149C25.912 17.219 26.066 17.3147 26.192 17.436C26.3273 17.5667 26.43 17.7137 26.5 17.877C26.57 18.0357 26.605 18.1873 26.605 18.332H25.723C25.709 18.1827 25.653 18.059 25.555 17.961C25.443 17.8443 25.2703 17.786 25.037 17.786C24.9203 17.786 24.8247 17.8047 24.75 17.842C24.68 17.8793 24.6147 17.926 24.554 17.982C24.4887 18.0427 24.4327 18.115 24.386 18.199C24.344 18.283 24.309 18.374 24.281 18.472C24.2577 18.57 24.2413 18.6727 24.232 18.78C24.2227 18.8827 24.218 18.9877 24.218 19.095C24.274 19.0297 24.3393 18.976 24.414 18.934C24.4887 18.8873 24.568 18.85 24.652 18.822C24.736 18.794 24.82 18.773 24.904 18.759C24.988 18.745 25.0673 18.738 25.142 18.738C25.4033 18.738 25.6343 18.7777 25.835 18.857C26.0357 18.9363 26.2037 19.0507 26.339 19.2C26.4743 19.3447 26.5747 19.5197 26.64 19.725C26.71 19.9257 26.745 20.1497 26.745 20.397ZM25.856 20.362C25.856 20.11 25.7907 19.8953 25.66 19.718C25.5293 19.5407 25.3287 19.452 25.058 19.452C24.82 19.452 24.6333 19.5407 24.498 19.718C24.3673 19.8907 24.302 20.1053 24.302 20.362C24.302 20.628 24.365 20.852 24.491 21.034C24.617 21.216 24.8107 21.307 25.072 21.307C25.338 21.307 25.534 21.2207 25.66 21.048C25.7907 20.8753 25.856 20.6467 25.856 20.362Z" fill="#4D4D4D"/>
</svg>
