<svg width="30" height="30" viewBox="0 0 30 30" fill="none" xmlns="http://www.w3.org/2000/svg">
<rect width="30" height="30" fill="white"/>
<path d="M30 30H22.5H15H7.5H0V22.5003V15.0005V7.49975V0H7.5H15H22.5H30V7.49975V14.9995V22.4992V30ZM0.252287 29.7477H7.62614H15H22.3739H29.7477V22.3741V15.0005V7.62589V0.252279H22.3739H15H7.62614H0.252287V7.62589V14.9995V22.3731V29.7477Z" fill="#4D4D4D"/>
<path d="M27 15.4509V15.2199V14.9889V14.758V14.527C26.924 12.9401 26.5313 11.4254 25.8856 10.0473C25.2399 8.66919 24.3401 7.42776 23.2536 6.38362C22.1671 5.33947 20.8929 4.49356 19.4956 3.90846C18.0983 3.32335 16.5778 3 14.9995 3C13.4213 3 11.9008 3.32335 10.5034 3.90846C9.1061 4.49356 7.83291 5.34043 6.74642 6.3865C5.65993 7.43258 4.76206 8.67593 4.11536 10.0569C3.46866 11.4379 3.07603 12.9555 3 14.5472V14.7782V15.0091V15.2401V15.4711C3.07603 17.058 3.46866 18.5727 4.1144 19.9508C4.76013 21.3289 5.65897 22.5722 6.74546 23.6164C7.83195 24.6605 9.1061 25.5064 10.5034 26.0915C11.9008 26.6767 13.4213 27 14.9995 27C16.5778 27 18.0983 26.6767 19.4956 26.0915C20.8929 25.5064 22.1671 24.6596 23.2536 23.6145C24.3401 22.5693 25.2389 21.325 25.8846 19.9441C26.5304 18.5602 26.924 17.0426 27 15.4509ZM15.0005 26.6709C13.3914 26.6709 11.8575 26.3437 10.462 25.7518C9.06568 25.16 7.80789 24.3045 6.75123 23.2478C5.69457 22.1911 4.83905 20.9334 4.2472 19.537C3.65536 18.1406 3.32816 16.6076 3.32816 14.9986C3.32816 13.3895 3.65536 11.8555 4.2472 10.4601C4.83905 9.06472 5.69457 7.80597 6.75123 6.74931C7.80789 5.69265 9.06568 4.83712 10.462 4.24528C11.8584 3.65343 13.3914 3.32624 15.0005 3.32624C16.6095 3.32624 18.1435 3.65343 19.5389 4.24528C20.9353 4.83712 22.1931 5.69265 23.2497 6.74931C24.3064 7.80597 25.1619 9.06376 25.7538 10.4601C26.3456 11.8565 26.6728 13.3895 26.6728 14.9986C26.6728 16.6076 26.3456 18.1416 25.7538 19.537C25.1619 20.9334 24.3064 22.1911 23.2497 23.2478C22.1931 24.3045 20.9353 25.16 19.5389 25.7518C18.1435 26.3437 16.6095 26.6709 15.0005 26.6709Z" fill="#4D4D4D"/>
<path d="M14.9976 15.0611C15.1564 15.447 15.3142 15.8272 15.499 16.1813C15.6837 16.5355 15.8984 16.8617 16.1707 17.1408C16.443 17.4199 16.776 17.6499 17.1975 17.8106C17.619 17.9713 18.13 18.0627 18.7623 18.0627C19.1954 18.0627 19.6371 17.9915 20.0595 17.8568C20.482 17.722 20.8843 17.5219 21.2394 17.2639C21.5945 17.006 21.9034 16.6904 22.1373 16.3228C22.3711 15.9552 22.5299 15.5356 22.5876 15.0708H22.5049H22.4221H22.3384H22.2556C22.1969 15.473 22.0478 15.8406 21.8332 16.1659C21.6185 16.4912 21.3366 16.7741 21.0132 17.006C20.6899 17.238 20.3242 17.4208 19.9412 17.545C19.5582 17.6691 19.1569 17.7345 18.7633 17.7345C18.7517 17.7355 18.7402 17.7355 18.7277 17.7355C18.7151 17.7355 18.7026 17.7365 18.6892 17.7365C18.6757 17.7365 18.6622 17.7365 18.6478 17.7374C18.6343 17.7374 18.6199 17.7374 18.6054 17.7374C18.0761 17.7374 17.6421 17.646 17.2793 17.4863C16.9165 17.3265 16.6249 17.0984 16.3805 16.827C16.1361 16.5557 15.9407 16.239 15.7704 15.9013C15.6 15.5635 15.4528 15.2064 15.3075 14.8523C15.1458 14.4568 14.986 14.067 14.7965 13.7052C14.6069 13.3433 14.3865 13.0084 14.1036 12.7226C13.8206 12.4368 13.4752 12.201 13.0354 12.0365C12.5956 11.8719 12.0595 11.7786 11.3965 11.7786C11.1068 11.7786 10.822 11.8065 10.5458 11.8613C10.2696 11.9162 10.003 11.9961 9.74895 12.1019C9.49489 12.2078 9.2543 12.3367 9.03103 12.4897C8.80777 12.6428 8.60279 12.8179 8.41898 13.0133C8.28233 13.1595 8.16107 13.3135 8.05521 13.4742C7.94935 13.6349 7.85986 13.8033 7.78672 13.9766C7.71358 14.1498 7.65584 14.3307 7.61542 14.5155C7.575 14.7003 7.54998 14.8898 7.54324 15.0842H7.59329H7.64333H7.69145H7.74149C7.79345 14.6656 7.93011 14.2701 8.13509 13.9131C8.34007 13.5551 8.61337 13.2356 8.93961 12.968C9.26585 12.7005 9.64309 12.4849 10.0579 12.3367C10.4726 12.1885 10.923 12.1067 11.3946 12.1067C11.4061 12.1067 11.4186 12.1058 11.4311 12.1058C11.4436 12.1058 11.4571 12.1048 11.4715 12.1048C11.486 12.1048 11.4995 12.1048 11.5139 12.1038C11.5283 12.1029 11.5428 12.1038 11.5572 12.1038C12.1125 12.1038 12.5686 12.202 12.9507 12.3714C13.3327 12.5407 13.6397 12.7804 13.8947 13.0633C14.1498 13.3462 14.3547 13.6725 14.5299 14.0151C14.705 14.3577 14.8552 14.7147 14.9976 15.0611Z" fill="#4D4D4D"/>
</svg>
