<svg width="94" height="30" viewBox="0 0 94 30" fill="none" xmlns="http://www.w3.org/2000/svg">
<rect width="94" height="30" fill="white"/>
<path fill-rule="evenodd" clip-rule="evenodd" d="M8.64975 3L3 16.5594H5.97896L7.16027 13.2723H12.9641L14.1968 16.5594H17.3812L11.6287 3H8.64975ZM10.0365 5.67079L12.091 10.8583H8.08478L10.0365 5.67079Z" fill="#231F20"/>
<path fill-rule="evenodd" clip-rule="evenodd" d="M23.8013 3C19.4356 3 17.4325 5.20854 17.4325 9.98515C17.4325 12.4505 18.1002 14.2481 19.487 15.3781C20.771 16.4053 22.0551 16.5594 23.6986 16.5594H28.4752V14.1968H23.8527C21.4387 14.1968 20.5142 13.1182 20.5142 10.0879C20.5142 6.74938 21.4387 5.31126 23.8527 5.31126H28.4752V3H23.8013Z" fill="#231F20"/>
<path fill-rule="evenodd" clip-rule="evenodd" d="M35.5111 3C31.1454 3 29.1936 5.20854 29.1936 9.98515C29.1936 12.4505 29.8613 14.2481 31.1967 15.3781C32.5321 16.4053 33.7648 16.5594 35.4597 16.5594H40.185V14.1968H35.5624C33.1485 14.1968 32.224 13.1182 32.224 10.0879C32.224 6.74938 33.1485 5.31126 35.5624 5.31126H40.185V3H35.5111Z" fill="#231F20"/>
<path fill-rule="evenodd" clip-rule="evenodd" d="M41.8806 3V11.0124C41.8806 12.81 42.0861 14.0427 43.1133 15.1213C44.2946 16.4053 45.5786 16.5594 47.5304 16.5594H51.1257V14.2995H47.7358C46.5545 14.2995 45.7841 14.1454 45.1677 13.375C44.7055 12.8614 44.7055 12.0396 44.7055 10.9097V3H41.8806Z" fill="#231F20"/>
<path fill-rule="evenodd" clip-rule="evenodd" d="M56.4159 3L50.7661 16.5594H53.7451L54.9264 13.2723H60.7816L62.0143 16.5594H65.1473L59.3948 3H56.4159ZM57.8026 5.67079L59.8057 10.8583H55.7995L57.8026 5.67079Z" fill="#231F20"/>
<path fill-rule="evenodd" clip-rule="evenodd" d="M66.2773 16.5594H69.2562V3H66.2773V16.5594Z" fill="#231F20"/>
<path fill-rule="evenodd" clip-rule="evenodd" d="M81.8391 3L78.3979 13.375L74.9567 3H70.8477V16.5594H73.6726L73.4158 5.87624L76.9598 16.5594H79.9387L83.4313 5.97896L83.1745 16.5594H85.948V15.0186V3H81.8391Z" fill="#231F20"/>
<path fill-rule="evenodd" clip-rule="evenodd" d="M38.1826 19.6924V24.1095C38.1826 25.034 38.2853 25.7017 38.8503 26.318C39.4153 26.883 40.0316 27.0371 40.8534 27.0371H43.216V25.8557H41.4184C40.802 25.8557 40.3398 25.753 40.0316 25.3421C39.7748 25.0853 39.7748 24.6231 39.7748 24.0581V19.6924H38.1826Z" fill="#231F20"/>
<path fill-rule="evenodd" clip-rule="evenodd" d="M43.9864 27.0371H45.63V19.6924H43.9864V27.0371Z" fill="#231F20"/>
<path fill-rule="evenodd" clip-rule="evenodd" d="M50.0978 19.6924C47.7352 19.6924 46.6566 20.9251 46.6566 23.5445C46.6566 24.8285 47.0161 25.8044 47.7352 26.4207C48.3515 26.883 48.9165 27.0371 49.6869 27.0371H53.3849V22.7227H49.7896V24.0067H51.8441V25.753H50.0978C48.8138 25.753 48.3515 25.034 48.3515 23.4418C48.3515 21.7982 48.8138 20.9764 50.0978 20.9764H53.3849V19.6924H50.0978Z" fill="#231F20"/>
<path fill-rule="evenodd" clip-rule="evenodd" d="M58.9326 19.6924V22.7227H56.1077V19.6924H54.6182V27.0371H56.1077V24.0067H58.9326V27.0371H60.5248V19.6924H58.9326Z" fill="#231F20"/>
<path fill-rule="evenodd" clip-rule="evenodd" d="M61.1925 19.6924V21.0278H63.6065V27.0371H65.1473V21.0278H67.5099V19.6924H61.1925Z" fill="#231F20"/>
<path fill-rule="evenodd" clip-rule="evenodd" d="M68.2289 27.0371H69.8725V19.6924H68.2289V27.0371Z" fill="#231F20"/>
<path fill-rule="evenodd" clip-rule="evenodd" d="M76.1386 19.6924L76.2413 24.9826L73.2624 19.6924H71.3106V27.0371H72.9028L72.8001 21.49L75.9332 27.0371H77.7822V19.6924H76.1386Z" fill="#231F20"/>
<path fill-rule="evenodd" clip-rule="evenodd" d="M82.1479 19.6924C79.8366 19.6924 78.7581 20.9251 78.7581 23.5445C78.7581 24.8285 79.1176 25.8044 79.8366 26.4207C80.453 26.883 81.018 27.0371 81.6857 27.0371H85.4864V22.7227H81.8397V24.0067H83.9456V25.753H82.1479C80.9152 25.753 80.453 25.034 80.453 23.4418C80.453 21.7982 80.9152 20.9764 82.1479 20.9764H85.4864V19.6924H82.1479Z" fill="#231F20"/>
</svg>
