<svg width="30" height="30" viewBox="0 0 30 30" fill="none" xmlns="http://www.w3.org/2000/svg">
<rect width="30" height="30" fill="white"/>
<path d="M30 30H22.5H15H7.5H0V22.5003V15.0005V7.49975V0H7.5H15H22.5H30V7.49975V14.9995V22.4992V30ZM0.252287 29.7477H7.62614H15H22.3739H29.7477V22.3741V15.0005V7.62589V0.252279H22.3739H15H7.62614H0.252287V7.62589V14.9995V22.3731V29.7477Z" fill="#4D4D4D"/>
<path d="M15.4613 23.9974C14.2513 23.9974 13.0973 23.7514 12.0463 23.3064C10.9953 22.8614 10.0503 22.2174 9.25534 21.4224C8.46034 20.6274 7.81634 19.6814 7.37134 18.6304C6.92634 17.5794 6.68134 16.4264 6.68134 15.2164C6.68134 14.0064 6.92734 12.8524 7.37234 11.8014C7.81734 10.7504 8.46134 9.80543 9.25634 9.01043C10.0513 8.21543 10.9973 7.57142 12.0473 7.12642C13.0973 6.68142 14.2513 6.43542 15.4613 6.43542C16.6713 6.43542 17.8263 6.68142 18.8763 7.12642C19.9263 7.57142 20.8733 8.21543 21.6683 9.01043C22.4633 9.80543 23.1073 10.7514 23.5523 11.8014C23.9973 12.8514 24.2433 14.0054 24.2433 15.2164C24.2433 16.4274 23.9973 17.5814 23.5523 18.6314C23.1073 19.6814 22.4633 20.6284 21.6683 21.4234C20.8733 22.2184 19.9273 22.8624 18.8763 23.3074C17.8253 23.7524 16.6723 23.9974 15.4613 23.9974ZM15.4613 6.68542C14.2853 6.68542 13.1643 6.92442 12.1443 7.35642C11.1243 7.78842 10.2043 8.41442 9.43234 9.18642C8.66034 9.95842 8.03434 10.8784 7.60234 11.8984C7.17034 12.9184 6.93134 14.0404 6.93134 15.2164C6.93134 16.3924 7.17034 17.5134 7.60234 18.5344C8.03434 19.5554 8.66034 20.4744 9.43234 21.2464C10.2043 22.0184 11.1243 22.6444 12.1443 23.0764C13.1643 23.5084 14.2853 23.7474 15.4613 23.7474C16.6373 23.7474 17.7583 23.5084 18.7793 23.0764C19.8003 22.6444 20.7193 22.0184 21.4913 21.2464C22.2633 20.4744 22.8893 19.5544 23.3213 18.5344C23.7533 17.5144 23.9923 16.3924 23.9923 15.2164C23.9923 14.0404 23.7533 12.9194 23.3213 11.8994C22.8893 10.8794 22.2633 9.95943 21.4913 9.18743C20.7193 8.41543 19.7993 7.78942 18.7793 7.35742C17.7593 6.92542 16.6373 6.68542 15.4613 6.68542Z" fill="#4D4D4D"/>
<path d="M24.0273 23.8654C24.0193 23.8654 24.0113 23.8644 24.0033 23.8634C23.9953 23.8624 23.9873 23.8594 23.9803 23.8564C23.9733 23.8534 23.9653 23.8494 23.9583 23.8454C23.9513 23.8414 23.9453 23.8354 23.9383 23.8294L23.3363 23.2274L22.7343 22.6254L22.1323 22.0234L21.5303 21.4214C21.5183 21.4094 21.5093 21.3954 21.5033 21.3804C21.4973 21.3654 21.4943 21.3494 21.4943 21.3334C21.4943 21.3174 21.4973 21.3014 21.5033 21.2864C21.5093 21.2714 21.5183 21.2574 21.5303 21.2454C21.5423 21.2334 21.5563 21.2244 21.5713 21.2184C21.5863 21.2124 21.6023 21.2094 21.6183 21.2094C21.6343 21.2094 21.6503 21.2124 21.6653 21.2184C21.6803 21.2244 21.6943 21.2334 21.7063 21.2454L22.3083 21.8474L22.9103 22.4494L23.5123 23.0514L24.1143 23.6534C24.1263 23.6654 24.1353 23.6794 24.1413 23.6944C24.1473 23.7094 24.1503 23.7254 24.1503 23.7414C24.1503 23.7574 24.1473 23.7734 24.1413 23.7884C24.1353 23.8034 24.1263 23.8174 24.1143 23.8294C24.1083 23.8354 24.1013 23.8404 24.0943 23.8454C24.0873 23.8504 24.0803 23.8534 24.0723 23.8564C24.0643 23.8594 24.0573 23.8614 24.0493 23.8634C24.0413 23.8654 24.0353 23.8654 24.0273 23.8654Z" fill="#4D4D4D"/>
<path d="M7.05333 24.0214C7.04533 24.0214 7.03733 24.0204 7.02933 24.0194C7.02133 24.0184 7.01333 24.0154 7.00633 24.0124C6.99933 24.0094 6.99133 24.0054 6.98433 24.0014C6.97733 23.9974 6.97133 23.9914 6.96433 23.9854C6.95233 23.9734 6.94333 23.9594 6.93733 23.9444C6.93133 23.9294 6.92833 23.9134 6.92833 23.8974C6.92833 23.8814 6.93133 23.8654 6.93733 23.8504C6.94333 23.8354 6.95233 23.8214 6.96433 23.8094L7.56633 23.2074L8.16833 22.6054L8.77033 22.0034L9.37233 21.4014C9.38433 21.3894 9.39833 21.3804 9.41333 21.3744C9.42833 21.3684 9.44433 21.3654 9.46033 21.3654C9.47633 21.3654 9.49233 21.3684 9.50733 21.3744C9.52233 21.3804 9.53633 21.3894 9.54833 21.4014C9.56033 21.4134 9.56933 21.4274 9.57533 21.4424C9.58133 21.4574 9.58433 21.4734 9.58433 21.4894C9.58433 21.5054 9.58133 21.5214 9.57533 21.5364C9.56933 21.5514 9.56133 21.5644 9.54933 21.5764L8.94733 22.1784L8.34533 22.7804L7.74333 23.3824L7.14133 23.9844C7.13533 23.9904 7.12833 23.9954 7.12133 24.0004C7.11433 24.0054 7.10733 24.0084 7.09933 24.0114C7.09133 24.0144 7.08433 24.0164 7.07633 24.0184C7.06833 24.0204 7.06133 24.0214 7.05333 24.0214Z" fill="#4D4D4D"/>
<path d="M5.82133 11.1454C5.81233 11.1464 5.80333 11.1464 5.79533 11.1444C5.78733 11.1424 5.77833 11.1404 5.77033 11.1364C5.76233 11.1324 5.75533 11.1284 5.74833 11.1224C5.74133 11.1164 5.73533 11.1114 5.72933 11.1044C5.43433 10.7824 5.23033 10.4024 5.11533 9.99044C5.00033 9.57844 4.97133 9.13644 5.02833 8.68844C5.08533 8.24044 5.22633 7.78844 5.44933 7.35844C5.67233 6.92844 5.97633 6.52044 6.35733 6.16044C6.71933 5.81944 7.12133 5.55244 7.54033 5.36044C7.95933 5.16844 8.39333 5.05344 8.82133 5.01444C9.24933 4.97544 9.66933 5.01544 10.0593 5.13444C10.4493 5.25344 10.8083 5.45144 11.1123 5.73244C11.1183 5.73844 11.1243 5.74444 11.1293 5.75144C11.1343 5.75844 11.1383 5.76544 11.1423 5.77344C11.1463 5.78144 11.1483 5.78944 11.1503 5.79744C11.1523 5.80544 11.1533 5.81444 11.1533 5.82244C11.1533 5.83044 11.1523 5.83844 11.1513 5.84644C11.1503 5.85444 11.1473 5.86244 11.1443 5.87044C11.1413 5.87844 11.1373 5.88544 11.1323 5.89244C11.1273 5.89944 11.1223 5.90544 11.1163 5.91144L9.81433 7.21144L8.51333 8.51044L7.21133 9.80944L5.90933 11.1084C5.90333 11.1144 5.89733 11.1194 5.89033 11.1244C5.88333 11.1294 5.87633 11.1324 5.86933 11.1354C5.86233 11.1384 5.85433 11.1404 5.84633 11.1424C5.83833 11.1444 5.82933 11.1454 5.82133 11.1454ZM9.13633 5.24944C8.91433 5.24944 8.68833 5.27244 8.46233 5.31844C8.23633 5.36444 8.01033 5.43344 7.78733 5.52544C7.56433 5.61744 7.34633 5.73144 7.13433 5.86744C6.92233 6.00344 6.72033 6.16244 6.52833 6.34244C6.18133 6.66944 5.90233 7.03944 5.69433 7.42844C5.48633 7.81744 5.35033 8.22544 5.28733 8.63044C5.22533 9.03544 5.23633 9.43644 5.32533 9.81244C5.41433 10.1884 5.58033 10.5374 5.82733 10.8374L7.08133 9.58544L8.33533 8.33344L9.58933 7.08144L10.8433 5.82944C10.7253 5.73144 10.5983 5.64644 10.4663 5.57344C10.3343 5.50044 10.1953 5.44144 10.0513 5.39344C9.90733 5.34544 9.75733 5.30844 9.60433 5.28444C9.45133 5.26044 9.29533 5.24944 9.13633 5.24944Z" fill="#4D4D4D"/>
<path d="M24.9863 11.2034C24.9783 11.2034 24.9693 11.2024 24.9613 11.2014C24.9533 11.2004 24.9453 11.1974 24.9383 11.1944C24.9313 11.1914 24.9233 11.1874 24.9173 11.1834C24.9113 11.1794 24.9043 11.1734 24.8983 11.1674L23.5993 9.86444L22.3003 8.56244L21.0013 7.26044L19.7013 5.95944C19.6953 5.95344 19.6893 5.94644 19.6853 5.93944C19.6813 5.93244 19.6763 5.92544 19.6733 5.91744C19.6703 5.90944 19.6683 5.90144 19.6663 5.89344C19.6643 5.88544 19.6643 5.87644 19.6643 5.86844C19.6643 5.86044 19.6653 5.85144 19.6673 5.84344C19.6693 5.83544 19.6723 5.82744 19.6753 5.81944C19.6783 5.81144 19.6833 5.80444 19.6883 5.79744C19.6933 5.79044 19.6983 5.78444 19.7053 5.77844C20.0283 5.48344 20.4083 5.28044 20.8203 5.16444C21.2323 5.04844 21.6753 5.02144 22.1223 5.07844C22.5693 5.13544 23.0223 5.27644 23.4523 5.49944C23.8823 5.72244 24.2903 6.02544 24.6493 6.40744C24.9903 6.76944 25.2573 7.17144 25.4493 7.58944C25.6413 8.00744 25.7573 8.44244 25.7963 8.87044C25.8353 9.29844 25.7963 9.71844 25.6773 10.1084C25.5583 10.4984 25.3593 10.8574 25.0793 11.1624C25.0733 11.1684 25.0673 11.1744 25.0613 11.1804C25.0553 11.1864 25.0493 11.1904 25.0423 11.1934C25.0353 11.1964 25.0273 11.1994 25.0183 11.2014C25.0093 11.2034 24.9983 11.2034 24.9863 11.2034ZM19.9723 5.87744L21.2243 7.13144L22.4763 8.38544L23.7283 9.63944L24.9803 10.8934C25.2143 10.6094 25.3763 10.2804 25.4693 9.92544C25.5623 9.57044 25.5843 9.18944 25.5393 8.80344C25.4943 8.41744 25.3803 8.02544 25.2013 7.64744C25.0223 7.26944 24.7773 6.90744 24.4673 6.57844C24.1403 6.23144 23.7713 5.95244 23.3823 5.74444C22.9933 5.53644 22.5853 5.39944 22.1803 5.33744C21.7753 5.27544 21.3733 5.28644 20.9983 5.37544C20.6233 5.46444 20.2733 5.63144 19.9723 5.87744Z" fill="#4D4D4D"/>
<path d="M15.8693 15.2644C15.8523 15.2644 15.8353 15.2604 15.8203 15.2544C15.8053 15.2484 15.7923 15.2384 15.7803 15.2274C15.7683 15.2164 15.7603 15.2024 15.7533 15.1874C15.7463 15.1724 15.7433 15.1564 15.7433 15.1384V13.7554V12.3744V10.9914V9.60842C15.7433 9.59142 15.7473 9.57442 15.7533 9.55942C15.7593 9.54442 15.7693 9.53142 15.7803 9.51942C15.7913 9.50742 15.8053 9.49942 15.8203 9.49242C15.8353 9.48542 15.8513 9.48242 15.8693 9.48242C15.8873 9.48242 15.9033 9.48642 15.9183 9.49242C15.9333 9.49842 15.9463 9.50842 15.9583 9.51942C15.9703 9.53042 15.9783 9.54442 15.9853 9.55942C15.9923 9.57442 15.9953 9.59042 15.9953 9.60842V10.9914V12.3744V13.7574V15.1404C15.9953 15.1574 15.9913 15.1744 15.9853 15.1894C15.9793 15.2044 15.9693 15.2174 15.9583 15.2294C15.9473 15.2414 15.9333 15.2494 15.9183 15.2564C15.9033 15.2634 15.8863 15.2644 15.8693 15.2644Z" fill="#4D4D4D"/>
<path d="M15.8543 15.2994H14.9363H14.0183H13.1003H12.1823C12.1653 15.2994 12.1483 15.2954 12.1333 15.2894C12.1183 15.2834 12.1053 15.2734 12.0933 15.2624C12.0813 15.2514 12.0733 15.2374 12.0663 15.2224C12.0593 15.2074 12.0563 15.1914 12.0563 15.1734C12.0563 15.1554 12.0603 15.1394 12.0663 15.1244C12.0723 15.1094 12.0823 15.0964 12.0933 15.0844C12.1043 15.0724 12.1183 15.0644 12.1333 15.0574C12.1483 15.0504 12.1643 15.0474 12.1823 15.0474H13.1003H14.0183H14.9363H15.8543C15.8713 15.0474 15.8883 15.0514 15.9033 15.0574C15.9183 15.0634 15.9313 15.0734 15.9433 15.0844C15.9553 15.0954 15.9633 15.1094 15.9703 15.1244C15.9773 15.1394 15.9803 15.1554 15.9803 15.1734C15.9803 15.1914 15.9763 15.2074 15.9703 15.2224C15.9643 15.2374 15.9543 15.2504 15.9433 15.2624C15.9323 15.2744 15.9183 15.2824 15.9033 15.2894C15.8883 15.2964 15.8723 15.2994 15.8543 15.2994Z" fill="#4D4D4D"/>
</svg>
