<svg width="30" height="30" viewBox="0 0 30 30" fill="none" xmlns="http://www.w3.org/2000/svg">
<rect width="30" height="30" fill="white"/>
<path d="M30 30H22.5H15H7.5H0V22.5003V15.0005V7.49975V0H7.5H15H22.5H30V7.49975V14.9995V22.4992V30ZM0.252287 29.7477H7.62614H15H22.3739H29.7477V22.3741V15.0005V7.62589V0.252279H22.3739H15H7.62614H0.252287V7.62589V14.9995V22.3731V29.7477Z" fill="#4D4D4D"/>
<path fill-rule="evenodd" clip-rule="evenodd" d="M6.76801 16.184C6.76801 15.024 7.00301 13.919 7.42801 12.914C7.85301 11.909 8.46801 11.004 9.22801 10.244C9.98801 9.484 10.893 8.869 11.898 8.444C12.903 8.019 14.008 7.784 15.168 7.784C16.328 7.784 17.433 8.019 18.438 8.444C19.443 8.869 20.348 9.484 21.108 10.244C21.868 11.004 22.483 11.909 22.908 12.914C23.333 13.919 23.568 15.024 23.568 16.184C23.568 17.344 23.333 18.449 22.908 19.454C22.483 20.459 21.868 21.364 21.108 22.124C20.348 22.884 19.443 23.499 18.438 23.924C17.433 24.349 16.328 24.584 15.168 24.584C14.008 24.584 12.903 24.349 11.898 23.924C10.893 23.499 9.98801 22.884 9.22801 22.124C8.46801 21.364 7.85301 20.459 7.42801 19.454C7.00301 18.449 6.76801 17.344 6.76801 16.184Z" fill="#4D4D4D"/>
<path d="M15.168 24.71C13.993 24.71 12.872 24.471 11.853 24.039C10.834 23.607 9.91501 22.982 9.14301 22.21C8.37101 21.438 7.74601 20.519 7.31401 19.5C6.88201 18.481 6.64301 17.36 6.64301 16.185C6.64301 15.01 6.88201 13.889 7.31401 12.87C7.74601 11.851 8.37101 10.932 9.14301 10.16C9.91501 9.38797 10.834 8.76297 11.853 8.33097C12.872 7.89897 13.993 7.65997 15.168 7.65997C16.343 7.65997 17.464 7.89897 18.483 8.33097C19.502 8.76297 20.421 9.38797 21.193 10.16C21.965 10.932 22.59 11.851 23.022 12.87C23.454 13.889 23.693 15.01 23.693 16.185C23.693 17.36 23.454 18.481 23.022 19.5C22.59 20.519 21.965 21.438 21.193 22.21C20.421 22.982 19.502 23.607 18.483 24.039C17.464 24.471 16.343 24.71 15.168 24.71ZM15.168 7.90897C14.027 7.90897 12.94 8.14097 11.95 8.55997C10.96 8.97897 10.068 9.58597 9.31901 10.335C8.57001 11.084 7.96301 11.976 7.54401 12.966C7.12501 13.956 6.89301 15.043 6.89301 16.184C6.89301 17.325 7.12501 18.412 7.54401 19.402C7.96301 20.392 8.57001 21.284 9.31901 22.033C10.068 22.782 10.96 23.389 11.95 23.808C12.94 24.227 14.027 24.459 15.168 24.459C16.309 24.459 17.396 24.227 18.386 23.808C19.376 23.389 20.268 22.782 21.017 22.033C21.766 21.284 22.373 20.392 22.792 19.402C23.211 18.412 23.443 17.325 23.443 16.184C23.443 15.043 23.211 13.956 22.792 12.966C22.373 11.976 21.766 11.084 21.017 10.335C20.268 9.58597 19.376 8.97897 18.386 8.55997C17.396 8.14097 16.309 7.90897 15.168 7.90897Z" fill="#4D4D4D"/>
<path fill-rule="evenodd" clip-rule="evenodd" d="M9.344 22.271L8.76 22.855L8.176 23.439L7.592 24.023L7.008 24.607" fill="black"/>
<path d="M7.007 24.733C6.999 24.733 6.991 24.732 6.983 24.731C6.975 24.73 6.967 24.727 6.96 24.724C6.953 24.721 6.946 24.717 6.939 24.712C6.932 24.707 6.926 24.702 6.919 24.696C6.907 24.684 6.898 24.67 6.892 24.655C6.886 24.64 6.883 24.624 6.883 24.608C6.883 24.592 6.886 24.576 6.892 24.561C6.898 24.546 6.907 24.532 6.919 24.52L7.503 23.936L8.087 23.352L8.671 22.768L9.255 22.184C9.267 22.172 9.281 22.163 9.296 22.157C9.311 22.151 9.327 22.148 9.343 22.148C9.359 22.148 9.375 22.151 9.39 22.157C9.405 22.163 9.419 22.172 9.431 22.184C9.443 22.196 9.452 22.21 9.458 22.225C9.464 22.24 9.467 22.256 9.467 22.272C9.467 22.288 9.464 22.304 9.458 22.319C9.452 22.334 9.443 22.348 9.431 22.36L8.847 22.944L8.263 23.528L7.68 24.112L7.096 24.696C7.09 24.702 7.083 24.707 7.076 24.712C7.069 24.717 7.062 24.72 7.054 24.723C7.046 24.726 7.039 24.728 7.031 24.73C7.023 24.732 7.016 24.733 7.007 24.733Z" fill="#4D4D4D"/>
<path fill-rule="evenodd" clip-rule="evenodd" d="M5.81201 12.112C5.53701 11.811 5.34701 11.456 5.23901 11.071C5.13201 10.687 5.10701 10.273 5.16201 9.854C5.21701 9.435 5.35101 9.012 5.56101 8.608C5.77101 8.205 6.05701 7.822 6.41601 7.484C6.75701 7.163 7.13501 6.91 7.52601 6.729C7.91801 6.548 8.32401 6.437 8.72401 6.4C9.12301 6.363 9.51601 6.398 9.88001 6.509C10.244 6.62 10.579 6.805 10.865 7.068L9.60201 8.33L8.33901 9.59L7.07501 10.851L5.81201 12.112Z" fill="#4D4D4D"/>
<path d="M5.81199 12.237C5.80499 12.235 5.79699 12.233 5.78899 12.231C5.78099 12.229 5.77199 12.226 5.76399 12.223C5.75599 12.22 5.74799 12.216 5.73999 12.212C5.73199 12.208 5.72599 12.202 5.71999 12.196C5.43299 11.883 5.23599 11.514 5.12299 11.114C5.00999 10.714 4.98399 10.284 5.03899 9.849C5.09399 9.414 5.23199 8.975 5.44799 8.557C5.66399 8.139 5.95999 7.742 6.33099 7.393C6.68199 7.062 7.07199 6.802 7.47799 6.616C7.88399 6.43 8.30699 6.316 8.72299 6.279C9.13899 6.242 9.54699 6.279 9.92599 6.395C10.305 6.511 10.654 6.704 10.95 6.977C10.956 6.983 10.962 6.989 10.967 6.996C10.972 7.003 10.976 7.01 10.98 7.018C10.984 7.026 10.986 7.034 10.988 7.042C10.99 7.05 10.991 7.059 10.991 7.067C10.991 7.075 10.99 7.084 10.989 7.092C10.988 7.1 10.985 7.108 10.982 7.116C10.979 7.124 10.975 7.131 10.97 7.138C10.965 7.145 10.96 7.151 10.954 7.157L9.68999 8.418L8.42699 9.679L7.16399 10.94L5.90099 12.201C5.89499 12.207 5.88899 12.212 5.88199 12.217C5.87499 12.222 5.86799 12.225 5.86099 12.228C5.85399 12.231 5.84599 12.233 5.83799 12.235C5.82999 12.237 5.81999 12.237 5.81199 12.237ZM9.02899 6.514C8.81399 6.514 8.59499 6.537 8.37599 6.581C8.15699 6.625 7.93699 6.694 7.72099 6.782C7.50499 6.87 7.29299 6.982 7.08899 7.114C6.88499 7.246 6.68799 7.4 6.50199 7.575C6.16599 7.892 5.89499 8.249 5.69399 8.626C5.49299 9.003 5.35899 9.398 5.29799 9.79C5.23699 10.183 5.24799 10.572 5.33399 10.936C5.41999 11.3 5.57999 11.638 5.81899 11.929L7.03499 10.715L8.24999 9.502L9.46599 8.288L10.682 7.074C10.567 6.98 10.445 6.898 10.317 6.828C10.189 6.758 10.054 6.699 9.91399 6.653C9.77399 6.607 9.62999 6.572 9.48199 6.549C9.33399 6.526 9.18299 6.514 9.02899 6.514Z" fill="#4D4D4D"/>
<path fill-rule="evenodd" clip-rule="evenodd" d="M19.368 7.11499C19.669 6.83899 20.024 6.64999 20.409 6.54199C20.794 6.43499 21.208 6.40999 21.627 6.46499C22.046 6.51999 22.469 6.65399 22.872 6.86399C23.275 7.07399 23.658 7.35999 23.996 7.71899C24.317 8.05999 24.57 8.43799 24.751 8.82899C24.932 9.22099 25.043 9.62698 25.08 10.027C25.117 10.426 25.082 10.819 24.971 11.183C24.86 11.547 24.675 11.882 24.412 12.168L23.151 10.905L21.89 9.64199L20.629 8.37899L19.368 7.11499Z" fill="#4D4D4D"/>
<path d="M24.412 12.293C24.404 12.293 24.395 12.292 24.387 12.291C24.379 12.29 24.371 12.287 24.364 12.284C24.357 12.281 24.349 12.277 24.343 12.273C24.337 12.269 24.33 12.263 24.324 12.257L23.063 10.994L21.802 9.73103L20.541 8.46803L19.28 7.20503C19.274 7.19903 19.269 7.19203 19.264 7.18503C19.259 7.17803 19.256 7.17103 19.252 7.16303C19.248 7.15503 19.247 7.14703 19.245 7.13903C19.243 7.13103 19.243 7.12203 19.243 7.11403C19.243 7.10503 19.244 7.09703 19.246 7.08903C19.248 7.08103 19.251 7.07303 19.254 7.06503C19.257 7.05703 19.262 7.05003 19.267 7.04303C19.272 7.03603 19.277 7.03003 19.284 7.02403C19.597 6.73803 19.966 6.54003 20.366 6.42703C20.766 6.31403 21.196 6.28803 21.631 6.34303C22.066 6.39803 22.505 6.53603 22.923 6.75203C23.341 6.96803 23.737 7.26303 24.086 7.63403C24.417 7.98503 24.677 8.37603 24.863 8.78203C25.049 9.18803 25.162 9.61103 25.2 10.026C25.237 10.441 25.199 10.85 25.084 11.229C24.969 11.608 24.775 11.957 24.503 12.253C24.497 12.26 24.491 12.266 24.483 12.272C24.475 12.278 24.468 12.283 24.46 12.287C24.452 12.291 24.444 12.294 24.435 12.295C24.426 12.296 24.42 12.296 24.412 12.293ZM19.551 7.12203L20.765 8.33803L21.979 9.55403L23.193 10.77L24.407 11.986C24.633 11.711 24.79 11.392 24.879 11.047C24.968 10.702 24.99 10.334 24.945 9.96003C24.901 9.58603 24.791 9.20603 24.617 8.84003C24.443 8.47403 24.206 8.12303 23.906 7.80503C23.589 7.46903 23.231 7.19803 22.855 6.99703C22.479 6.79603 22.083 6.66303 21.691 6.60203C21.299 6.54103 20.91 6.55203 20.546 6.63803C20.182 6.72403 19.842 6.88403 19.551 7.12203Z" fill="#4D4D4D"/>
<path d="M23.245 24.369C23.237 24.369 23.229 24.368 23.221 24.367C23.213 24.366 23.205 24.363 23.198 24.36C23.191 24.357 23.183 24.353 23.176 24.349C23.169 24.345 23.163 24.339 23.156 24.333L18.626 19.803L14.096 15.273L9.566 10.743L5.036 6.213C5.025 6.2 5.015 6.186 5.009 6.171C5.003 6.156 5 6.14 5 6.124C5 6.108 5.003 6.092 5.009 6.077C5.015 6.062 5.025 6.048 5.037 6.036C5.049 6.024 5.063 6.015 5.078 6.009C5.093 6.003 5.109 6 5.125 6C5.141 6 5.157 6.002 5.172 6.008C5.187 6.014 5.201 6.023 5.213 6.035L9.743 10.565L14.273 15.095L18.803 19.625L23.333 24.155C23.345 24.167 23.354 24.181 23.36 24.196C23.366 24.211 23.369 24.227 23.369 24.243C23.369 24.259 23.366 24.275 23.36 24.29C23.354 24.305 23.345 24.319 23.333 24.331C23.327 24.337 23.32 24.342 23.313 24.347C23.306 24.352 23.299 24.355 23.291 24.358C23.283 24.361 23.276 24.363 23.268 24.365C23.26 24.367 23.253 24.369 23.245 24.369Z" fill="white"/>
<path d="M23.506 24.627C23.498 24.627 23.49 24.626 23.482 24.625C23.474 24.624 23.466 24.621 23.459 24.618C23.452 24.615 23.444 24.611 23.437 24.607C23.43 24.603 23.424 24.597 23.417 24.591L22.833 24.007L22.249 23.423L21.665 22.839L21.081 22.255C21.069 22.243 21.06 22.229 21.054 22.214C21.048 22.199 21.045 22.183 21.045 22.167C21.045 22.151 21.048 22.135 21.054 22.12C21.06 22.105 21.069 22.091 21.081 22.079C21.093 22.067 21.107 22.058 21.122 22.052C21.137 22.046 21.153 22.043 21.169 22.043C21.185 22.043 21.201 22.046 21.216 22.052C21.231 22.058 21.245 22.067 21.257 22.079L21.841 22.663L22.425 23.247L23.009 23.831L23.593 24.415C23.605 24.427 23.614 24.441 23.62 24.456C23.626 24.471 23.629 24.487 23.629 24.503C23.629 24.519 23.626 24.535 23.62 24.55C23.614 24.565 23.605 24.579 23.593 24.591C23.587 24.597 23.58 24.602 23.573 24.607C23.566 24.612 23.559 24.615 23.551 24.618C23.543 24.621 23.536 24.623 23.528 24.625C23.52 24.627 23.515 24.627 23.506 24.627Z" fill="#4D4D4D"/>
</svg>
