<svg width="30" height="30" viewBox="0 0 30 30" fill="none" xmlns="http://www.w3.org/2000/svg">
<rect width="30" height="30" fill="white"/>
<path d="M30 30H22.5H15H7.5H0V22.5003V15.0005V7.49975V0H7.5H15H22.5H30V7.49975V14.9995V22.4992V30ZM0.252287 29.7477H7.62614H15H22.3739H29.7477V22.3741V15.0005V7.62589V0.252279H22.3739H15H7.62614H0.252287V7.62589V14.9995V22.3731V29.7477Z" fill="#4D4D4D"/>
<path d="M23.315 17.303C23.308 17.303 23.3 17.304 23.292 17.306C23.284 17.308 23.276 17.311 23.268 17.315C23.26 17.319 23.252 17.324 23.245 17.33C23.238 17.336 23.231 17.344 23.226 17.353L22.811 17.913L22.396 18.473L21.981 19.033L21.566 19.593L21.541 19.627L21.516 19.661L21.491 19.695L21.466 19.729L21.435 19.699L21.404 19.669L21.373 19.639L21.342 19.609L21.115 19.389L20.888 19.169L20.661 18.949L20.434 18.729C20.427 18.722 20.42 18.716 20.413 18.711C20.406 18.706 20.399 18.702 20.391 18.698C20.383 18.694 20.376 18.692 20.368 18.69C20.36 18.688 20.353 18.687 20.345 18.687C20.337 18.687 20.329 18.688 20.322 18.689C20.314 18.691 20.307 18.693 20.3 18.696C20.293 18.699 20.286 18.703 20.279 18.708C20.272 18.713 20.266 18.718 20.259 18.725C20.246 18.738 20.236 18.752 20.23 18.767C20.224 18.782 20.22 18.797 20.22 18.812C20.22 18.827 20.223 18.842 20.23 18.857C20.237 18.872 20.246 18.886 20.259 18.899L20.536 19.163L20.813 19.427L21.09 19.691L21.367 19.955H21.368H21.369H21.37H21.371L21.383 19.962L21.395 19.969L21.407 19.976L21.419 19.983L21.448 19.984L21.477 19.985L21.506 19.986L21.535 19.987L21.536 19.997L21.537 20.007L21.538 20.017L21.539 20.027L21.55 20.016L21.561 20.005L21.572 19.994L21.583 19.983L22.043 19.365L22.503 18.747L22.963 18.129L23.423 17.511C23.431 17.5 23.437 17.485 23.439 17.469C23.442 17.453 23.442 17.436 23.439 17.418C23.436 17.4 23.432 17.384 23.425 17.37C23.418 17.355 23.409 17.343 23.398 17.335C23.389 17.327 23.381 17.32 23.373 17.315C23.365 17.31 23.359 17.306 23.352 17.304C23.345 17.302 23.34 17.3 23.335 17.299C23.33 17.298 23.32 17.303 23.315 17.303Z" fill="#4D4D4D"/>
<path d="M26.496 18.596C26.496 17.986 26.381 17.402 26.169 16.868C25.958 16.333 25.651 15.847 25.267 15.43C24.883 15.013 24.423 14.666 23.906 14.409C23.389 14.152 22.815 13.986 22.203 13.932L22.169 13.929L22.135 13.926L22.101 13.923L22.067 13.92V13.886V13.852V13.818V13.784V12.766V11.748V10.729V9.711C22.067 9.691 22.064 9.672 22.059 9.657C22.053 9.641 22.045 9.628 22.035 9.618C22.025 9.608 22.011 9.6 21.996 9.594C21.98 9.589 21.962 9.586 21.942 9.586H20.924H19.906H18.888H17.87H17.859H17.848H17.837H17.826L17.817 9.58L17.808 9.574L17.799 9.568L17.79 9.562L17.068 9.081L16.343 8.598L15.621 8.117L14.899 7.636C14.896 7.634 14.893 7.632 14.888 7.63C14.883 7.628 14.879 7.626 14.873 7.625C14.867 7.624 14.861 7.622 14.854 7.621C14.847 7.62 14.839 7.62 14.831 7.62C14.823 7.62 14.815 7.621 14.808 7.621C14.801 7.621 14.795 7.623 14.789 7.625C14.783 7.627 14.778 7.628 14.774 7.63C14.77 7.632 14.766 7.634 14.763 7.636L14.02 8.124L13.277 8.612L12.533 9.1L11.79 9.588C11.785 9.591 11.78 9.595 11.775 9.6C11.77 9.605 11.765 9.611 11.761 9.618C11.757 9.625 11.754 9.634 11.751 9.645C11.748 9.656 11.747 9.668 11.747 9.683C11.747 9.689 11.748 9.696 11.751 9.705C11.754 9.713 11.758 9.723 11.764 9.733C11.77 9.743 11.776 9.754 11.785 9.765C11.794 9.776 11.803 9.787 11.814 9.798L12.517 10.268L13.22 10.738L13.923 11.208L14.626 11.678L14.643 11.689L14.66 11.7L14.677 11.711L14.694 11.722V11.742V11.762V11.782V11.802V12.338V12.874V13.41V13.946V13.984V14.022V14.06V14.098H14.656H14.618H14.58H14.542H13.779H13.016H12.253H11.49C11.47 14.098 11.451 14.101 11.436 14.106C11.421 14.111 11.407 14.119 11.397 14.13C11.387 14.141 11.379 14.154 11.373 14.169C11.367 14.184 11.365 14.203 11.365 14.223V14.849V15.475V16.101V16.727V16.764V16.801V16.838V16.875H11.327H11.289H11.251H11.213H10.642H10.071H9.5H8.93C8.91 16.875 8.891 16.878 8.876 16.883C8.861 16.888 8.847 16.896 8.837 16.907C8.827 16.918 8.819 16.931 8.813 16.946C8.807 16.961 8.805 16.98 8.805 17V17.316V17.632V17.948V18.264V18.302V18.34V18.378V18.416H8.767H8.729H8.692H8.654H7.987H7.32H6.653H5.986H5.948H5.911H5.873H5.836V18.378V18.34V18.302V18.264V17.329V16.394V15.459V14.524V14.486V14.448V14.41V14.372H5.873H5.911H5.949H5.987H6.489H6.991H7.493H7.995C8.015 14.372 8.034 14.369 8.049 14.364C8.064 14.359 8.078 14.351 8.088 14.34C8.098 14.329 8.106 14.316 8.112 14.301C8.118 14.286 8.12 14.267 8.12 14.247V12.466V10.687V8.906V7.125C8.12 7.105 8.117 7.086 8.112 7.071C8.107 7.056 8.098 7.042 8.087 7.032C8.076 7.022 8.064 7.013 8.048 7.008C8.032 7.003 8.015 7 7.994 7H6.777H5.56H4.342H3.125C3.105 7 3.086 7.003 3.071 7.008C3.056 7.013 3.042 7.021 3.032 7.032C3.022 7.043 3.013 7.055 3.008 7.071C3.003 7.087 3 7.104 3 7.125V8.906V10.687V12.468V14.249C3 14.269 3.003 14.288 3.008 14.303C3.013 14.318 3.021 14.332 3.032 14.342C3.043 14.352 3.056 14.36 3.071 14.366C3.086 14.372 3.105 14.374 3.125 14.374H3.71H4.295H4.88H5.463H5.501H5.539H5.577H5.613V14.412V14.45V14.488V14.526V15.537V16.548V17.559V18.57C5.613 18.59 5.616 18.609 5.621 18.624C5.626 18.64 5.634 18.653 5.645 18.663C5.656 18.673 5.669 18.681 5.684 18.687C5.7 18.692 5.718 18.695 5.738 18.695H6.467H7.196H7.925H8.654H8.692H8.73H8.768H8.806V18.732V18.769V18.806V18.843V19.152V19.461V19.77V20.079C8.806 20.099 8.809 20.117 8.814 20.133C8.819 20.149 8.827 20.162 8.838 20.172C8.849 20.182 8.862 20.19 8.877 20.196C8.892 20.202 8.911 20.204 8.931 20.204H10.155H11.379H12.603H13.827C13.847 20.204 13.866 20.201 13.881 20.196C13.896 20.191 13.91 20.183 13.92 20.172C13.93 20.161 13.938 20.148 13.944 20.133C13.95 20.118 13.952 20.099 13.952 20.079V19.783V19.487V19.191V18.895V18.857V18.819V18.781V18.743H13.99H14.028H14.066H14.104H14.833H15.562H16.291H17.02H17.055H17.09H17.125H17.16L17.162 18.778L17.164 18.813L17.166 18.848L17.168 18.883C17.208 19.496 17.367 20.075 17.62 20.6C17.873 21.125 18.221 21.595 18.641 21.988C19.061 22.381 19.552 22.698 20.092 22.916C20.632 23.134 21.22 23.254 21.833 23.254C22.476 23.254 23.089 23.123 23.647 22.887C24.205 22.651 24.707 22.309 25.13 21.886C25.553 21.463 25.894 20.961 26.131 20.403C26.365 19.852 26.496 19.239 26.496 18.596ZM3.4 14.125H3.363H3.325H3.288H3.25V14.088V14.051V14.014V13.977V12.333V10.687V9.044V7.4V7.362V7.325V7.287V7.25H3.288H3.326H3.363H3.401H4.488H5.573H6.66H7.747H7.785H7.823H7.861H7.899V7.288V7.326V7.364V7.402V9.046V10.69V12.334V13.978V14.015V14.052V14.089V14.126H7.859H7.822H7.784H7.747H6.66H5.573H4.487H3.4V14.125ZM12.313 9.836L12.267 9.805L12.221 9.774L12.175 9.743L12.129 9.712L12.175 9.681L12.221 9.65L12.267 9.619L12.313 9.588L12.918 9.175L13.523 8.762L14.128 8.349L14.733 7.936L14.754 7.922L14.775 7.908L14.796 7.894L14.817 7.88L14.838 7.894L14.859 7.908L14.88 7.922L14.901 7.936L15.52 8.342L16.139 8.748L16.758 9.154L17.377 9.56L17.424 9.591L17.471 9.622L17.518 9.653L17.565 9.684L17.518 9.716L17.471 9.748L17.423 9.776L17.376 9.808L16.778 10.214L16.18 10.62L15.582 11.026L14.983 11.43L14.973 11.436L14.963 11.442L14.953 11.448L14.943 11.454H14.931H14.919H14.907H14.895H14.881H14.867H14.853H14.839H14.825H14.811H14.803H14.789H14.778H14.767H14.756H14.745L14.736 11.448L14.727 11.442L14.718 11.436L14.709 11.43L14.111 11.031L13.513 10.632L12.915 10.233L12.313 9.836ZM13.701 17.303V17.929V18.555V19.181V19.807V19.845V19.883V19.921V19.959H13.663H13.625H13.587H13.549H12.462H11.375H10.288H9.205H9.167H9.13H9.092H9.055V19.921V19.883V19.845V19.807V19.181V18.555V17.929V17.303V17.265V17.228V17.19V17.152H9.093H9.131H9.169H9.207H10.294H11.381H12.468H13.555H13.593H13.631H13.669H13.707V17.19V17.228V17.266V17.303H13.701ZM17.187 18.499H17.152H17.117H17.082H17.047H16.311H15.573H14.837H14.101H14.063H14.025H13.987H13.949V18.461V18.423V18.385V18.347V18.01V17.673V17.338V17.001C13.949 16.986 13.946 16.973 13.94 16.961C13.934 16.949 13.926 16.939 13.915 16.93C13.904 16.921 13.891 16.915 13.876 16.91C13.861 16.905 13.843 16.903 13.824 16.903H13.308H12.792H12.276H11.763H11.725H11.687H11.649H11.613V16.866V16.828V16.791V16.754V16.197V15.64V15.083V14.526V14.488V14.45V14.412V14.374H11.651H11.689H11.727H11.765H12.535H13.305H14.075H14.845C14.865 14.374 14.884 14.371 14.899 14.366C14.914 14.361 14.928 14.353 14.938 14.342C14.948 14.331 14.956 14.318 14.962 14.303C14.968 14.288 14.97 14.269 14.97 14.249V14.235V14.221V14.207V14.193V13.602V13.011V12.42V11.829V11.809V11.789V11.769V11.749L14.987 11.738L15.004 11.727L15.021 11.716L15.038 11.705L15.733 11.244L16.428 10.783L17.123 10.322L17.818 9.861L17.827 9.855L17.836 9.849L17.845 9.843L17.854 9.837H17.865H17.876H17.887H17.898H18.847H19.796H20.745H21.694H21.732H21.77H21.808H21.846V9.874V9.911V9.948V9.985V10.934V11.883V12.832V13.781V13.817V13.853V13.889V13.925L21.81 13.926L21.774 13.927L21.738 13.928L21.702 13.929C21.104 13.949 20.532 14.085 20.008 14.316C19.484 14.547 19.008 14.872 18.603 15.27C18.198 15.668 17.863 16.139 17.622 16.66C17.38 17.181 17.232 17.753 17.198 18.354L17.193 18.393L17.191 18.428L17.189 18.463L17.187 18.499ZM21.832 23.01C21.224 23.01 20.643 22.886 20.116 22.663C19.588 22.439 19.112 22.116 18.713 21.716C18.314 21.316 17.99 20.841 17.766 20.313C17.542 19.785 17.419 19.205 17.419 18.597C17.419 17.989 17.543 17.408 17.766 16.881C17.99 16.353 18.313 15.877 18.713 15.478C19.113 15.079 19.588 14.755 20.116 14.531C20.644 14.307 21.224 14.184 21.832 14.184C22.44 14.184 23.021 14.308 23.548 14.531C24.076 14.755 24.552 15.078 24.951 15.478C25.35 15.878 25.674 16.353 25.898 16.881C26.122 17.409 26.245 17.989 26.245 18.597C26.245 19.205 26.121 19.786 25.898 20.313C25.674 20.841 25.351 21.317 24.951 21.716C24.551 22.115 24.076 22.439 23.548 22.663C23.02 22.887 22.44 23.01 21.832 23.01Z" fill="#4D4D4D"/>
</svg>
