<svg width="30" height="30" viewBox="0 0 30 30" fill="none" xmlns="http://www.w3.org/2000/svg">
<rect width="30" height="30" fill="white"/>
<path d="M30 30H22.5H15H7.5H0V22.5003V15.0005V7.49975V0H7.5H15H22.5H30V7.49975V14.9995V22.4992V30ZM0.252287 29.7477H7.62614H15H22.3739H29.7477V22.3741V15.0005V7.62589V0.252279H22.3739H15H7.62614H0.252287V7.62589V14.9995V22.3731V29.7477Z" fill="#4D4D4D"/>
<path d="M20.2297 11.5876H20.5384H20.848H21.1567H21.4664V11.5462V11.5047V11.4623V11.4208H21.1567H20.848H20.5384H20.2297V11.4623V11.5047V11.5462V11.5876Z" fill="#4D4D4D"/>
<path d="M19.8307 23.1457H20.3302H20.8296H21.329H21.8285C21.8368 23.1457 21.8478 23.1447 21.8589 23.141C21.87 23.1374 21.8819 23.1328 21.8921 23.1254C21.9022 23.118 21.9123 23.1079 21.9188 23.0941C21.9252 23.0802 21.9299 23.0646 21.9299 23.0443C21.9299 23.024 21.9262 23.0084 21.9188 22.9945C21.9123 22.9816 21.9031 22.9715 21.8921 22.9632C21.881 22.9549 21.87 22.9503 21.8589 22.9475C21.8478 22.9439 21.8368 22.9429 21.8285 22.9429H21.329H20.8296H20.3302H19.8307C19.8224 22.9429 19.8114 22.9439 19.8003 22.9475C19.7893 22.9512 19.7773 22.9558 19.7672 22.9632C19.757 22.9706 19.7469 22.9807 19.7404 22.9945C19.734 23.0074 19.7294 23.024 19.7294 23.0443C19.7294 23.0526 19.7303 23.0636 19.734 23.0747C19.7377 23.0858 19.7423 23.0977 19.7496 23.1079C19.757 23.118 19.7672 23.1281 19.781 23.1346C19.7948 23.141 19.8114 23.1457 19.8307 23.1457Z" fill="#4D4D4D"/>
<path d="M22.7859 10.4938V10.4478V10.4017V10.3556V10.3095V8.98261V7.65569V6.32877V5H18.2135H13.6412H9.06975H4.49832V8.05745V11.1149V14.1724V17.2298V17.2759V17.322V17.368V17.4141H4.45224H4.40617H4.3601H4.31402H3.98506H3.65701H3.32804H3V17.6205V17.8269V18.0333V18.2397L3.22668 18.5392L3.45337 18.8387L3.68005 19.1382L3.90673 19.4377H6.96971H10.0327H13.0957H16.1587H16.2047H16.2508H16.2969H16.3429V19.4837V19.5298V19.5759V19.622V20.7351V21.8482V22.9595V24.0727H18.7572H21.1715H23.5857H26V20.678V17.2833V13.8885V10.4938H25.2435H24.4869H23.7267H22.9702H22.9241H22.878H22.832H22.7859ZM4.66418 6.6347V6.31402V5.99335V5.67175V5.35108V5.30501V5.25893V5.21286V5.16679H4.71026H4.75633H4.8024H4.84848H9.24483H13.6412H18.0375H22.4339H22.48H22.526H22.5721H22.6182V5.21286V5.25893V5.30501V5.35108V5.67175V5.99243V6.3131V6.63377V6.67985V6.72592V6.772V6.81807H22.5721H22.526H22.48H22.4339H18.0375H13.6412H9.24483H4.84848H4.8024H4.75633H4.71026H4.66418V6.772V6.72592V6.67985V6.6347ZM4.66418 17.2298V14.7151V12.2004V9.6857V7.17007V7.124V7.07792V7.03185V6.98578H4.71026H4.75633H4.8024H4.84848H9.24483H13.6412H18.0375H22.4339H22.48H22.526H22.5721H22.6182V7.03185V7.07792V7.124V7.17007V7.94595V8.72184V9.49772V10.2736V10.3197V10.3657V10.4118V10.4579H22.5721H22.526H22.48H22.4339H20.9015H19.3691H17.8367H16.3042V12.1506V13.8434V15.5361V17.2289V17.275V17.321V17.3671V17.4132H16.2582H16.2121H16.166H16.12H13.3021H10.4851H7.66635H4.84848H4.8024H4.75633H4.71026H4.66418V17.3671V17.321V17.275V17.2298ZM16.3411 17.7652V18.0951V18.425V18.7548V19.0847V19.1308V19.1769V19.223V19.269H16.295H16.249H16.2029H16.1568H13.1335H10.1101H7.08674H4.0643H4.04034H4.01731H3.99427H3.97123L3.95741 19.2506L3.94359 19.2322L3.92977 19.2137L3.91595 19.1953L3.73718 18.9548L3.55841 18.7143L3.38057 18.472L3.2018 18.2315L3.19259 18.2195L3.18337 18.2075L3.17416 18.1955L3.16494 18.1835V18.1679V18.1522V18.1365V18.1218V18.0324V17.943V17.8536V17.7643V17.7182V17.6721V17.626V17.58H3.21102H3.25709H3.30317H3.34924H6.55044H9.75164H12.9528H16.154H16.2001H16.2462H16.2923H16.3383V17.626V17.6721V17.7182V17.7652H16.3411ZM25.7945 22.2952V22.661V23.0268V23.3926V23.7585V23.8045V23.8506V23.8967V23.9428H25.7484H25.7024H25.6563H25.6102H23.372H21.1337H18.8954H16.6572H16.6111H16.565H16.519H16.4729V23.8967V23.8506V23.8045V23.7585V23.3926V23.0268V22.661V22.2952V22.2491V22.203V22.1569V22.1109H16.519H16.565H16.6111H16.6572H18.8954H21.1337H23.372H25.6102H25.6563H25.7024H25.7484H25.7945V22.1569V22.203V22.2491V22.2952ZM25.7945 12.8067V15.0358V17.2648V19.4939V21.7229V21.769V21.8151V21.8611V21.9072H25.7484H25.7024H25.6563H25.6102H23.372H21.1337H18.8954H16.6572H16.6111H16.565H16.519H16.4729V21.8611V21.8151V21.769V21.7229V19.4948V17.2657V15.0367V12.8077V12.7616V12.7155V12.6694V12.6234H16.519H16.565H16.6111H16.6572H18.8954H21.1337H23.372H25.6102H25.6563H25.7024H25.7484H25.7945V12.6694V12.7155V12.7616V12.8067ZM25.7945 10.6597V10.7058V10.7518V10.7979V10.844V11.2006V11.5572V11.9138V12.2704H25.7715H25.7484H25.7254H25.7024V12.2935V12.3165V12.3395V12.3626H25.6858H25.6692H25.6526H25.636L25.6379 12.3856L25.6397 12.4087L25.6415 12.4317L25.6434 12.4547H23.3959H21.1484H18.901H16.6535H16.6074H16.5613H16.5153H16.4692V12.4087V12.3626V12.3165V12.2704V11.9138V11.5572V11.2015V10.8449V10.7988V10.7528V10.7067V10.6606H16.5153H16.5613H16.6074H16.6535H18.8917H21.13H23.3683H25.6065H25.6526H25.6987H25.7448H25.7945V10.6597Z" fill="#4D4D4D"/>
<path d="M13.1178 11.4687L13.1104 11.4392L13.1031 11.4097L13.0957 11.3802L13.0883 11.3508C13.0727 11.2872 13.0542 11.2254 13.0349 11.1637C13.0155 11.102 12.9925 11.0411 12.9676 10.9803C12.9427 10.9195 12.9151 10.8587 12.8856 10.7979C12.8561 10.7371 12.8229 10.6753 12.787 10.6127L12.7723 10.5869L12.7575 10.5611L12.7428 10.5353L12.728 10.5094L12.7455 10.4855L12.763 10.4615L12.7805 10.4376L12.7981 10.4136L12.8994 10.2763L13.0008 10.139L13.1021 10.0017L13.2035 9.86442L12.9989 9.65985L12.7944 9.45528L12.5898 9.25071L12.3852 9.04615L12.2378 9.14198L12.0904 9.23781L11.9429 9.33365L11.7955 9.42948L11.7715 9.44515L11.7476 9.46081L11.7236 9.47648L11.6997 9.49214L11.6757 9.47832L11.6517 9.4645L11.6278 9.45067L11.6038 9.43685C11.5412 9.40091 11.4794 9.36866 11.4186 9.33825C11.3578 9.30785 11.297 9.28112 11.2362 9.25624C11.1753 9.23136 11.1145 9.20925 11.0528 9.18898C10.991 9.1687 10.9293 9.1512 10.8657 9.13553L10.8362 9.12816L10.8067 9.12079L10.7773 9.11341L10.7524 9.10328L10.7469 9.07379L10.7413 9.0443L10.7358 9.01482L10.7303 8.98533L10.7008 8.81854L10.6713 8.65176L10.6418 8.48497L10.6151 8.31726H10.3276H10.0392H9.75074H9.46231L9.43283 8.48405L9.40334 8.65083L9.37385 8.81762L9.34437 8.98441L9.33884 9.0139L9.33331 9.04338L9.32778 9.07287L9.32225 9.10236L9.29276 9.10973L9.26328 9.1171L9.23379 9.12447L9.2043 9.13184C9.14072 9.14751 9.07898 9.16594 9.01724 9.18529C8.9555 9.20556 8.89469 9.22768 8.83387 9.25256C8.77305 9.27744 8.71223 9.30508 8.65142 9.33457C8.5906 9.36406 8.52886 9.39723 8.4662 9.43317L8.4404 9.44791L8.4146 9.46265L8.3934 9.47924L8.3676 9.49398L8.34364 9.47648L8.31969 9.45897L8.29573 9.44146L8.27085 9.42303L8.13355 9.32167L7.99625 9.22031L7.85895 9.11894L7.72073 9.01758L7.51616 9.22215L7.31159 9.42672L7.10703 9.63128L6.90246 9.83585L6.99829 9.98329L7.09413 10.1307L7.18996 10.2782L7.28579 10.4256L7.30146 10.4496L7.31712 10.4735L7.33279 10.4975L7.34845 10.5214L7.33371 10.5417L7.31989 10.5657L7.30606 10.5905L7.29224 10.6145C7.2563 10.6772 7.22405 10.7389 7.19364 10.7997C7.16324 10.8605 7.13651 10.9213 7.11163 10.9822C7.08675 11.043 7.06464 11.1038 7.04437 11.1655C7.02409 11.2273 7.00659 11.289 6.99 11.3526L6.98263 11.3821L6.97525 11.4116L6.96788 11.4411L6.96051 11.4687L6.93102 11.4742L6.90154 11.4798L6.87205 11.4853L6.84256 11.4908L6.67578 11.5203L6.50899 11.5498L6.3422 11.5793L6.17542 11.6088V11.8972V12.1856V12.474V12.7625L6.3422 12.7919L6.50899 12.8214L6.67578 12.8509L6.84256 12.8804L6.87205 12.8859L6.90154 12.8915L6.93102 12.897L6.96051 12.9025L6.96788 12.932L6.97525 12.9615L6.98263 12.991L6.99 13.0205C7.00566 13.084 7.02409 13.1458 7.04437 13.2075C7.06464 13.2693 7.08675 13.3301 7.11163 13.3909C7.13651 13.4517 7.16416 13.5125 7.19364 13.5734C7.22313 13.6342 7.2563 13.6959 7.29224 13.7586L7.30699 13.7844L7.32173 13.8102L7.33647 13.836L7.35122 13.8618L7.33371 13.8774L7.31528 13.9023L7.29777 13.9263L7.28026 13.9502L7.1789 14.0875L7.07754 14.2248L6.97618 14.3621L6.87481 14.4994L7.07938 14.704L7.28395 14.9086L7.48852 15.1131L7.69308 15.3177L7.84052 15.2219L7.98796 15.126L8.13539 15.0302L8.28283 14.9344L8.30679 14.9187L8.33074 14.903L8.3547 14.8874L8.37866 14.8717L8.40262 14.8855L8.42658 14.8994L8.45054 14.9132L8.47449 14.927C8.53715 14.9629 8.59889 14.9952 8.65971 15.0256C8.72053 15.056 8.78134 15.0827 8.84216 15.1076C8.90298 15.1325 8.9638 15.1546 9.02554 15.1749C9.08727 15.1951 9.14901 15.2127 9.21259 15.2283L9.24208 15.2357L9.27157 15.2431L9.30106 15.2504L9.33054 15.2578L9.33607 15.2873L9.3416 15.3168L9.34713 15.3463L9.35266 15.3758L9.38215 15.5425L9.41163 15.7093L9.44112 15.8761L9.47061 16.0429H9.75903H10.0475H10.3359H10.6243L10.6538 15.8761L10.6833 15.7093L10.7128 15.5425L10.7422 15.3758L10.7478 15.3463L10.7533 15.3168L10.7588 15.2873L10.7644 15.2578L10.7938 15.2504L10.8233 15.2431L10.8528 15.2357L10.8823 15.2283C10.9459 15.2127 11.0076 15.1942 11.0694 15.1749C11.1311 15.1546 11.1919 15.1325 11.2527 15.1076C11.3136 15.0827 11.3744 15.0551 11.4352 15.0256C11.496 14.9952 11.5577 14.9629 11.6204 14.927L11.6462 14.9123L11.672 14.8975L11.6978 14.8828L11.7236 14.868L11.7476 14.8855L11.7715 14.903L11.7955 14.9205L11.8194 14.9381L11.9567 15.0394L12.094 15.1408L12.2313 15.2421L12.3686 15.3435L12.5732 15.1389L12.7778 14.9344L12.9823 14.7298L13.1869 14.5252L13.0911 14.3778L12.9952 14.2304L12.8994 14.0829L12.8036 13.9355L12.7879 13.9115L12.7723 13.8876L12.7566 13.8636L12.7409 13.8397L12.7547 13.8157L12.7686 13.7917L12.7824 13.7678L12.7962 13.7438C12.8321 13.6812 12.8644 13.6194 12.8948 13.5586C12.9252 13.4978 12.9519 13.437 12.9768 13.3762C13.0017 13.3153 13.0238 13.2545 13.0441 13.1928C13.0644 13.131 13.0819 13.0693 13.0975 13.0057L13.1049 12.9762L13.1123 12.9467L13.1196 12.9173L13.127 12.8878L13.1565 12.8822L13.186 12.8767L13.2155 12.8712L13.245 12.8657L13.4118 12.8362L13.5785 12.8067L13.7453 12.7772L13.9121 12.7477V12.4593V12.1709V11.8824V11.594L13.7453 11.5645L13.5785 11.535L13.4118 11.5056L13.245 11.4761L13.2155 11.4705L13.186 11.465L13.1565 11.4595L13.1178 11.4687ZM13.737 11.7267V11.7645V11.8023V11.8401V11.8778V12.0207V12.1635V12.3063V12.4492V12.4851V12.521V12.557V12.5929L13.702 12.6012L13.667 12.6095L13.632 12.6178L13.597 12.6261L13.4385 12.6639L13.28 12.7016L13.1215 12.7394L12.963 12.7772L12.9602 12.7929L12.9575 12.8085L12.9547 12.8242L12.9519 12.8399C12.9307 12.9246 12.9077 13.0076 12.881 13.0905C12.8543 13.1734 12.8229 13.2573 12.7879 13.3402C12.7529 13.4232 12.7142 13.5061 12.6709 13.5881C12.6276 13.6701 12.5815 13.7512 12.5317 13.8314L12.5225 13.8433L12.5133 13.8553L12.5041 13.8673L12.4949 13.8793L12.5824 14.0037L12.67 14.1281L12.7575 14.2525L12.845 14.3769L12.8672 14.4082L12.8893 14.4395L12.9114 14.4709L12.9335 14.5022L12.9059 14.5298L12.8782 14.5575L12.8506 14.5851L12.8229 14.6128L12.7253 14.7104L12.6276 14.8081L12.5299 14.9058L12.4322 15.0035L12.4046 15.0311L12.3769 15.0588L12.3493 15.0864L12.3216 15.1141L12.2903 15.0919L12.259 15.0698L12.2277 15.0477L12.1963 15.0256L12.0719 14.9381L11.9494 14.8505L11.825 14.763L11.7015 14.6754L11.6923 14.6819L11.6831 14.6883L11.6739 14.6948L11.6646 14.7012C11.5817 14.7538 11.4979 14.8017 11.414 14.8459C11.3301 14.8901 11.2463 14.9298 11.1624 14.9657C11.0786 15.0016 10.9956 15.033 10.9127 15.0597C10.8298 15.0864 10.7478 15.1094 10.6667 15.127L10.6519 15.1297L10.6372 15.1325L10.6225 15.1353L10.6077 15.138L10.5782 15.2947L10.5487 15.4513L10.5192 15.608L10.4898 15.7646L10.4824 15.8024L10.475 15.8402L10.4676 15.878L10.4603 15.9157H10.4206H10.3829H10.3451H10.3064H10.1636H10.0207H9.87882H9.73599H9.69729H9.65951H9.62173H9.58303L9.57566 15.878L9.56828 15.8402L9.56091 15.8024L9.55446 15.7655L9.52497 15.6089L9.49549 15.4522L9.466 15.2956L9.43651 15.1389L9.42085 15.1362L9.40703 15.1334L9.3932 15.1306L9.37846 15.127C9.29645 15.1094 9.21352 15.0864 9.13058 15.0597C9.04765 15.033 8.9638 15.0016 8.88086 14.9666C8.79793 14.9316 8.715 14.8929 8.63299 14.8496C8.55098 14.8063 8.46989 14.7602 8.38972 14.7104L8.37774 14.7012L8.36576 14.692L8.35378 14.6828L8.3418 14.6736L8.2174 14.7611L8.093 14.8505L7.9686 14.9381L7.84421 15.0256L7.81288 15.0486L7.78154 15.0707L7.75021 15.0929L7.71888 15.115L7.69124 15.0873L7.6636 15.0597L7.63595 15.032L7.60831 15.0044L7.51063 14.9067L7.41296 14.809L7.31528 14.7114L7.2176 14.6137L7.18996 14.5861L7.16231 14.5584L7.13467 14.5308L7.10703 14.5031L7.12914 14.4718L7.15126 14.4405L7.17337 14.4091L7.19549 14.3778L7.28303 14.2534L7.37057 14.1281L7.45811 14.0037L7.54565 13.8793L7.5392 13.8701L7.53275 13.8609L7.5263 13.8516L7.51985 13.8424C7.46732 13.7595 7.41941 13.6756 7.37517 13.5918C7.33094 13.5079 7.29132 13.4241 7.25538 13.3402C7.21945 13.2564 7.18812 13.1734 7.16139 13.0905C7.13467 13.0076 7.11255 12.9274 7.09413 12.8463L7.09044 12.8223L7.08675 12.7984L7.08307 12.7744L7.07846 12.7496L6.92273 12.7201L6.767 12.6906L6.61127 12.6611L6.45554 12.6316L6.41776 12.6242L6.37998 12.6169L6.3422 12.6095L6.30534 12.6021V12.5643V12.5266V12.4888V12.451V12.3072V12.1644V12.0216V11.8788V11.841V11.8032V11.7654V11.7267L6.34312 11.7193L6.3809 11.712L6.41868 11.7046L6.45647 11.6972L6.61312 11.6677L6.76977 11.6383L6.92642 11.6088L7.08307 11.5793L7.08583 11.5655L7.0886 11.5516L7.09136 11.5378L7.09413 11.5212C7.11255 11.4392 7.13467 11.3563 7.16231 11.2734C7.18996 11.1904 7.22037 11.1066 7.25538 11.0236C7.2904 10.9407 7.3291 10.8578 7.37241 10.7758C7.41572 10.6937 7.46179 10.6127 7.51155 10.5325L7.52077 10.5205L7.52998 10.5085L7.5392 10.4965L7.54841 10.4846L7.46087 10.3602L7.37057 10.2358L7.28303 10.1114L7.19549 9.98789L7.17337 9.95656L7.15126 9.92523L7.12914 9.8939L7.10703 9.86257L7.13467 9.83493L7.16231 9.80729L7.18996 9.77964L7.2176 9.752L7.31528 9.65432L7.41296 9.55664L7.51063 9.45897L7.60831 9.36129L7.63595 9.33365L7.6636 9.306L7.69124 9.27836L7.71888 9.25071L7.75021 9.27283L7.78154 9.29494L7.81288 9.31706L7.84421 9.33918L7.9686 9.42672L8.093 9.51426L8.2174 9.6018L8.3418 9.68934L8.35102 9.68289L8.36023 9.67644L8.36945 9.66999L8.37866 9.66354C8.46159 9.61101 8.54545 9.56309 8.6293 9.51886C8.71316 9.47463 8.79701 9.43501 8.88086 9.39907C8.96472 9.36313 9.04765 9.3318 9.13058 9.30508C9.21352 9.27836 9.29553 9.25532 9.37662 9.23781L9.39136 9.23505L9.4061 9.23228L9.42085 9.22952L9.43559 9.22676L9.46508 9.07011L9.49457 8.91345L9.52405 8.7568L9.55354 8.60015L9.56091 8.56237L9.56828 8.52459L9.57566 8.48681L9.58303 8.44903H9.62081H9.65859H9.69637H9.73415H9.87698H10.0198H10.1626H10.3055H10.3432H10.381H10.4206H10.4584L10.4658 8.48681L10.4732 8.52459L10.4805 8.56237L10.4879 8.60015L10.5174 8.7568L10.5469 8.91345L10.5764 9.07011L10.6059 9.22676L10.6197 9.22952L10.6335 9.23228L10.6473 9.23505L10.6612 9.23781C10.7432 9.25624 10.8261 9.27836 10.909 9.306C10.992 9.33365 11.0758 9.36406 11.1587 9.39907C11.2417 9.43409 11.3246 9.47279 11.4066 9.5161C11.4886 9.55941 11.5697 9.60548 11.6499 9.65524L11.6619 9.66446L11.6739 9.67367L11.6858 9.68289L11.6978 9.6921L11.8222 9.60456L11.9466 9.51702L12.071 9.42948L12.1954 9.34194L12.2267 9.31983L12.2581 9.29771L12.2894 9.27559L12.3207 9.25348L12.3484 9.28112L12.376 9.30877L12.4037 9.33641L12.4313 9.36406L12.529 9.46173L12.6267 9.55941L12.7243 9.65708L12.822 9.75476L12.8497 9.78241L12.8773 9.81005L12.9049 9.83769L12.9326 9.86534L12.9105 9.89667L12.8884 9.928L12.8662 9.95933L12.8441 9.99066L12.7566 10.1151L12.669 10.2395L12.5815 10.3639L12.494 10.4883L12.5004 10.4975L12.5069 10.5067L12.5133 10.5159L12.5198 10.5251C12.5723 10.608 12.6202 10.6919 12.6644 10.7758C12.7087 10.8596 12.7483 10.9435 12.7842 11.0273C12.8202 11.1112 12.8515 11.1941 12.8782 11.277C12.9049 11.36 12.928 11.442 12.9455 11.5231L12.9483 11.5378L12.951 11.5526L12.9538 11.5673L12.9565 11.582L13.1132 11.6115L13.2698 11.641L13.4265 11.6705L13.5831 11.7L13.6209 11.7074L13.6587 11.7147L13.6965 11.7221L13.737 11.7267Z" fill="#4D4D4D"/>
<path d="M10.0207 10.6717C9.80968 10.6717 9.60972 10.7141 9.42635 10.7924C9.24298 10.8707 9.07895 10.9822 8.94073 11.1204C8.80251 11.2587 8.69009 11.4236 8.61269 11.6061C8.53528 11.7885 8.49197 11.9894 8.49197 12.2004C8.49197 12.4114 8.53436 12.6123 8.61269 12.7948C8.69101 12.9772 8.80251 13.1422 8.94073 13.2804C9.07895 13.4186 9.2439 13.531 9.42635 13.6084C9.6088 13.6858 9.80968 13.7291 10.0207 13.7291C10.2317 13.7291 10.4317 13.6868 10.6151 13.6084C10.7984 13.5301 10.9624 13.4186 11.1007 13.2804C11.2389 13.1422 11.3513 12.9772 11.4287 12.7948C11.5061 12.6123 11.5494 12.4114 11.5494 12.2004C11.5494 11.9866 11.507 11.7839 11.4315 11.6005C11.3559 11.4172 11.2444 11.2531 11.1071 11.1158C10.9698 10.9785 10.8058 10.868 10.6224 10.7915C10.439 10.715 10.2354 10.6717 10.0207 10.6717ZM10.205 13.5135V13.5421V13.5707V13.5992V13.6278H10.1829H10.1598H10.1368H10.1138H10.0677H10.0216H9.97555H9.92947H9.90644H9.88248H9.85944H9.83641V13.5992V13.5697V13.5412V13.5126C9.67238 13.4896 9.51757 13.4352 9.37659 13.3578C9.2356 13.2804 9.10844 13.1772 9.00247 13.0574C8.8965 12.9367 8.8108 12.7985 8.75091 12.6473C8.69101 12.4962 8.65876 12.334 8.65876 12.1645C8.65876 11.9802 8.69746 11.8023 8.76749 11.6402C8.83753 11.478 8.93889 11.3305 9.06237 11.2071C9.18677 11.0827 9.33328 10.9822 9.49546 10.9122C9.65764 10.8422 9.83548 10.8035 10.0198 10.8035C10.2041 10.8035 10.3819 10.8422 10.5441 10.9122C10.7063 10.9822 10.8537 11.0836 10.9772 11.2071C11.1007 11.3305 11.202 11.478 11.2721 11.6402C11.3421 11.8023 11.3808 11.9802 11.3808 12.1645C11.3808 12.3396 11.3495 12.5063 11.2914 12.6584C11.2334 12.8104 11.1495 12.9496 11.0445 13.0694C10.9394 13.1892 10.8132 13.2887 10.6713 13.3652C10.5294 13.4416 10.3736 13.4923 10.205 13.5135Z" fill="#4D4D4D"/>
<path d="M19.4032 17.5809H19.4492H19.4953H19.5414H19.5875V17.627V17.6731V17.7192V17.7652V18.0048V18.2444V18.484V18.7236H19.6289H19.6704H19.7119H19.7533V18.19V17.6565V17.123V16.5894C19.7533 16.4549 19.7266 16.3287 19.6796 16.2135C19.6326 16.0983 19.5626 15.996 19.476 15.9094C19.3893 15.8228 19.2871 15.7537 19.1719 15.7057C19.0567 15.6578 18.9304 15.632 18.7959 15.632C18.6614 15.632 18.5351 15.6587 18.42 15.7057C18.3048 15.7537 18.2025 15.8228 18.1159 15.9094C18.0292 15.996 17.9601 16.0983 17.9122 16.2135C17.8643 16.3287 17.8385 16.4549 17.8385 16.5894V17.123V17.6565V18.19V18.7236H17.88H17.9214H17.9629H18.0044V18.484V18.2444V18.0048V17.7652V17.7192V17.6731V17.627V17.5809H18.0504H18.0965H18.1426H18.1887H18.4918H18.7968H19.1H19.4032ZM18.0053 17.1939V17.0336V16.8732V16.7129V16.5526C18.0053 16.4475 18.0283 16.3452 18.0698 16.2513C18.1113 16.1573 18.1702 16.0716 18.243 15.9988C18.3158 15.926 18.4015 15.867 18.4955 15.8255C18.5895 15.7841 18.6918 15.761 18.7968 15.761C18.9019 15.761 19.0042 15.7841 19.0982 15.8255C19.1921 15.867 19.2778 15.926 19.3506 15.9988C19.4234 16.0716 19.4824 16.1573 19.5239 16.2513C19.5653 16.3452 19.5884 16.4475 19.5884 16.5526V16.7129V16.8732V17.0336V17.1939V17.24V17.2861V17.3321V17.3782H19.5423H19.4962H19.4502H19.4041H19.1009H18.7968H18.4937H18.1905H18.1444H18.0984H18.0523H18.0062V17.3321V17.2861V17.24V17.1939H18.0053Z" fill="#4D4D4D"/>
<path d="M21.6147 17.5449C21.7446 17.5449 21.869 17.5173 21.9833 17.4685C22.0976 17.4196 22.2008 17.3487 22.2883 17.2611C22.3759 17.1736 22.4468 17.0704 22.4956 16.9561C22.5445 16.8419 22.5721 16.7175 22.5721 16.5875C22.5721 16.4576 22.5445 16.3332 22.4956 16.2189C22.4468 16.1047 22.3759 16.0015 22.2883 15.9139C22.2008 15.8264 22.0976 15.7554 21.9833 15.7066C21.869 15.6578 21.7446 15.6301 21.6147 15.6301H21.4019H21.189H20.9761H20.7633V16.394V17.1579V17.9218V18.6857H20.8047H20.8462H20.8877H20.9291V18.4462V18.2066V17.967V17.7274V17.6813V17.6353V17.5892V17.5431H20.9752H21.0213H21.0674H21.1134H21.2378H21.3622H21.4866H21.6147V17.5449ZM20.931 17.1939V16.8815V16.5691V16.2567V15.9443V15.8983V15.8522V15.8061V15.7601H20.9771H21.0231H21.0692H21.1153H21.2397H21.3641H21.4885H21.6129C21.7235 15.7601 21.8285 15.7822 21.9234 15.8209C22.0183 15.8596 22.1031 15.9176 22.1741 15.9886C22.245 16.0595 22.3021 16.1443 22.3418 16.2392C22.3814 16.3341 22.4026 16.4392 22.4026 16.5498C22.4072 16.6023 22.4072 16.6548 22.4017 16.7064C22.3961 16.758 22.3851 16.8087 22.3694 16.8575C22.3537 16.9064 22.3325 16.9543 22.3067 16.9985C22.2809 17.0437 22.2505 17.0851 22.2155 17.1238C22.1787 17.1644 22.1372 17.2003 22.093 17.2316C22.0487 17.263 21.9999 17.2888 21.9492 17.3109C21.8985 17.333 21.8442 17.3487 21.788 17.3597C21.7317 17.3708 21.6728 17.3763 21.6129 17.3763H21.4885H21.3641H21.2397H21.1153H21.0692H21.0231H20.9771H20.931V17.3302V17.2842V17.2381V17.1939Z" fill="#4D4D4D"/>
<path d="M23.8917 18.6268V18.5807V18.5346V18.4885V18.4425V17.8269V17.2123V16.5968V15.9812V15.9351V15.8891V15.843V15.7969H23.9378H23.9838H24.0299H24.076H24.1009H24.1267H24.1515H24.1773V15.7554V15.714V15.6725V15.6301H23.993H23.8087H23.6245H23.4402V15.6725V15.714V15.7554V15.7969H23.465H23.4899H23.5157H23.5406H23.5867H23.6327H23.6788H23.7249V15.843V15.8891V15.9351V15.9812V16.5968V17.2123V17.8269V18.4425V18.4885V18.5346V18.5807V18.6268H23.6788H23.6327H23.5867H23.5406H23.5157H23.4899H23.465H23.4402V18.6682V18.7097V18.7521V18.7935H23.6245H23.8087H23.993H24.1773V18.7521V18.7097V18.6682V18.6268H24.1515H24.1267H24.1009H24.076H24.0299H23.9838H23.9378H23.8917Z" fill="#4D4D4D"/>
</svg>
