<svg width="30" height="30" viewBox="0 0 30 30" fill="none" xmlns="http://www.w3.org/2000/svg">
<rect width="30" height="30" fill="white"/>
<path d="M30 30H22.5H15H7.5H0V22.5003V15.0005V7.49975V0H7.5H15H22.5H30V7.49975V14.9995V22.4992V30ZM0.252287 29.7477H7.62614H15H22.3739H29.7477V22.3741V15.0005V7.62589V0.252279H22.3739H15H7.62614H0.252287V7.62589V14.9995V22.3731V29.7477Z" fill="#4D4D4D"/>
<path d="M8.34394 24V20.202L7.30594 20.964V20.628L8.37394 19.83H8.64394V24H8.34394ZM13.0441 22.692C13.0441 22.888 13.0181 23.07 12.9661 23.238C12.9141 23.406 12.8341 23.554 12.7261 23.682C12.6221 23.806 12.4881 23.904 12.3241 23.976C12.1641 24.048 11.9761 24.084 11.7601 24.084C11.5641 24.084 11.3861 24.052 11.2261 23.988C11.0701 23.92 10.9341 23.828 10.8181 23.712C10.7061 23.596 10.6181 23.46 10.5541 23.304C10.4941 23.148 10.4621 22.978 10.4581 22.794H10.7641C10.7681 22.942 10.7941 23.078 10.8421 23.202C10.8941 23.326 10.9621 23.432 11.0461 23.52C11.1301 23.608 11.2321 23.676 11.3521 23.724C11.4721 23.772 11.6081 23.796 11.7601 23.796C12.0881 23.796 12.3321 23.694 12.4921 23.49C12.6561 23.286 12.7381 23.02 12.7381 22.692C12.7381 22.54 12.7201 22.398 12.6841 22.266C12.6481 22.13 12.5921 22.012 12.5161 21.912C12.4401 21.812 12.3421 21.734 12.2221 21.678C12.1061 21.618 11.9681 21.588 11.8081 21.588C11.6281 21.588 11.4581 21.626 11.2981 21.702C11.1381 21.774 11.0101 21.888 10.9141 22.044H10.5421L10.6381 19.83H12.9061V20.112H10.9261L10.8421 21.768C10.9461 21.6 11.0861 21.482 11.2621 21.414C11.4381 21.342 11.6201 21.306 11.8081 21.306C12.0161 21.306 12.1961 21.342 12.3481 21.414C12.5041 21.482 12.6321 21.578 12.7321 21.702C12.8361 21.826 12.9141 21.974 12.9661 22.146C13.0181 22.314 13.0441 22.496 13.0441 22.692ZM16.1423 21.912C16.1423 21.776 16.1383 21.632 16.1303 21.48C16.1263 21.328 16.1123 21.178 16.0883 21.03C16.0643 20.882 16.0263 20.742 15.9743 20.61C15.9223 20.478 15.8483 20.366 15.7523 20.274C15.6763 20.202 15.5863 20.144 15.4823 20.1C15.3823 20.056 15.2583 20.034 15.1103 20.034C14.9623 20.034 14.8363 20.056 14.7323 20.1C14.6323 20.144 14.5443 20.202 14.4683 20.274C14.3723 20.366 14.2983 20.478 14.2463 20.61C14.1943 20.742 14.1563 20.882 14.1323 21.03C14.1083 21.178 14.0923 21.328 14.0843 21.48C14.0803 21.632 14.0783 21.776 14.0783 21.912C14.0783 22.048 14.0803 22.192 14.0843 22.344C14.0923 22.496 14.1083 22.646 14.1323 22.794C14.1563 22.942 14.1943 23.082 14.2463 23.214C14.2983 23.346 14.3723 23.458 14.4683 23.55C14.5443 23.622 14.6323 23.68 14.7323 23.724C14.8363 23.768 14.9623 23.79 15.1103 23.79C15.2583 23.79 15.3823 23.768 15.4823 23.724C15.5863 23.68 15.6763 23.622 15.7523 23.55C15.8483 23.458 15.9223 23.346 15.9743 23.214C16.0263 23.082 16.0643 22.942 16.0883 22.794C16.1123 22.646 16.1263 22.496 16.1303 22.344C16.1383 22.192 16.1423 22.048 16.1423 21.912ZM16.4483 21.912C16.4483 22.076 16.4423 22.244 16.4303 22.416C16.4223 22.588 16.4003 22.756 16.3643 22.92C16.3283 23.08 16.2783 23.232 16.2143 23.376C16.1503 23.516 16.0643 23.638 15.9563 23.742C15.8603 23.834 15.7423 23.914 15.6023 23.982C15.4663 24.046 15.3023 24.078 15.1103 24.078C14.9183 24.078 14.7523 24.046 14.6123 23.982C14.4763 23.914 14.3603 23.834 14.2643 23.742C14.1563 23.638 14.0703 23.516 14.0063 23.376C13.9423 23.232 13.8923 23.08 13.8563 22.92C13.8203 22.756 13.7963 22.588 13.7843 22.416C13.7763 22.244 13.7723 22.076 13.7723 21.912C13.7723 21.748 13.7763 21.58 13.7843 21.408C13.7963 21.236 13.8203 21.07 13.8563 20.91C13.8923 20.746 13.9423 20.594 14.0063 20.454C14.0703 20.31 14.1563 20.186 14.2643 20.082C14.3603 19.99 14.4763 19.912 14.6123 19.848C14.7523 19.78 14.9183 19.746 15.1103 19.746C15.3023 19.746 15.4663 19.78 15.6023 19.848C15.7423 19.912 15.8603 19.99 15.9563 20.082C16.0643 20.186 16.1503 20.31 16.2143 20.454C16.2783 20.594 16.3283 20.746 16.3643 20.91C16.4003 21.07 16.4223 21.236 16.4303 21.408C16.4423 21.58 16.4483 21.748 16.4483 21.912ZM18.9644 20.658C18.9644 20.558 18.9464 20.464 18.9104 20.376C18.8744 20.284 18.8244 20.206 18.7604 20.142C18.6964 20.074 18.6204 20.022 18.5324 19.986C18.4444 19.946 18.3504 19.926 18.2504 19.926C18.1464 19.926 18.0504 19.946 17.9624 19.986C17.8784 20.022 17.8024 20.074 17.7344 20.142C17.6704 20.206 17.6204 20.284 17.5844 20.376C17.5484 20.464 17.5304 20.558 17.5304 20.658C17.5304 20.762 17.5484 20.858 17.5844 20.946C17.6204 21.034 17.6704 21.112 17.7344 21.18C17.8024 21.244 17.8784 21.296 17.9624 21.336C18.0504 21.372 18.1464 21.39 18.2504 21.39C18.3504 21.39 18.4444 21.372 18.5324 21.336C18.6204 21.296 18.6964 21.244 18.7604 21.18C18.8244 21.112 18.8744 21.034 18.9104 20.946C18.9464 20.858 18.9644 20.762 18.9644 20.658ZM19.2404 20.658C19.2404 20.794 19.2144 20.924 19.1624 21.048C19.1104 21.168 19.0384 21.274 18.9464 21.366C18.8584 21.454 18.7544 21.524 18.6344 21.576C18.5144 21.628 18.3864 21.654 18.2504 21.654C18.1144 21.654 17.9844 21.628 17.8604 21.576C17.7404 21.524 17.6344 21.454 17.5424 21.366C17.4544 21.274 17.3844 21.168 17.3324 21.048C17.2804 20.924 17.2544 20.794 17.2544 20.658C17.2544 20.522 17.2804 20.394 17.3324 20.274C17.3844 20.15 17.4544 20.044 17.5424 19.956C17.6344 19.864 17.7404 19.792 17.8604 19.74C17.9844 19.688 18.1144 19.662 18.2504 19.662C18.3864 19.662 18.5144 19.688 18.6344 19.74C18.7544 19.792 18.8584 19.864 18.9464 19.956C19.0384 20.044 19.1104 20.15 19.1624 20.274C19.2144 20.394 19.2404 20.522 19.2404 20.658ZM23.1558 22.698C23.1398 22.894 23.0918 23.076 23.0118 23.244C22.9318 23.412 22.8258 23.558 22.6938 23.682C22.5618 23.806 22.4058 23.904 22.2258 23.976C22.0498 24.044 21.8558 24.078 21.6438 24.078C21.4398 24.078 21.2378 24.038 21.0378 23.958C20.8418 23.878 20.6698 23.764 20.5218 23.616C20.4058 23.5 20.3138 23.372 20.2458 23.232C20.1818 23.092 20.1338 22.948 20.1018 22.8C20.0698 22.648 20.0478 22.494 20.0358 22.338C20.0278 22.178 20.0238 22.022 20.0238 21.87C20.0238 21.718 20.0278 21.564 20.0358 21.408C20.0478 21.252 20.0698 21.098 20.1018 20.946C20.1338 20.794 20.1818 20.65 20.2458 20.514C20.3138 20.374 20.4058 20.246 20.5218 20.13C20.6698 19.982 20.8418 19.868 21.0378 19.788C21.2378 19.708 21.4398 19.668 21.6438 19.668C21.8558 19.668 22.0498 19.704 22.2258 19.776C22.4058 19.844 22.5618 19.94 22.6938 20.064C22.8258 20.188 22.9318 20.334 23.0118 20.502C23.0918 20.67 23.1398 20.852 23.1558 21.048H22.8318C22.8198 20.892 22.7818 20.748 22.7178 20.616C22.6538 20.484 22.5698 20.37 22.4658 20.274C22.3658 20.178 22.2458 20.104 22.1058 20.052C21.9658 20 21.8118 19.974 21.6438 19.974C21.4518 19.974 21.2838 20.006 21.1398 20.07C20.9958 20.134 20.8658 20.224 20.7498 20.34C20.6538 20.44 20.5778 20.552 20.5218 20.676C20.4698 20.8 20.4298 20.93 20.4018 21.066C20.3778 21.198 20.3618 21.334 20.3538 21.474C20.3498 21.61 20.3478 21.742 20.3478 21.87C20.3478 21.998 20.3498 22.132 20.3538 22.272C20.3618 22.408 20.3798 22.544 20.4078 22.68C20.4358 22.816 20.4758 22.946 20.5278 23.07C20.5838 23.194 20.6598 23.306 20.7558 23.406C20.9918 23.65 21.2878 23.772 21.6438 23.772C21.8118 23.772 21.9658 23.746 22.1058 23.694C22.2458 23.642 22.3658 23.568 22.4658 23.472C22.5698 23.376 22.6538 23.262 22.7178 23.13C22.7818 22.998 22.8198 22.854 22.8318 22.698H23.1558Z" fill="#4D4D4D"/>
<path d="M15.104 5.258C16.235 5.258 17.33 5.412 18.37 5.701C19.41 5.99 20.394 6.413 21.303 6.951C22.212 7.489 23.046 8.141 23.785 8.887C24.524 9.633 25.169 10.474 25.699 11.388L25.755 11.356L25.811 11.324L25.867 11.292L25.923 11.26C25.382 10.326 24.724 9.468 23.969 8.706C23.214 7.944 22.363 7.278 21.435 6.729C20.507 6.18 19.502 5.748 18.441 5.453C17.38 5.158 16.261 5 15.107 5C13.952 5 12.834 5.158 11.773 5.453C10.708 5.75 9.70299 6.182 8.77499 6.731C7.84699 7.28 6.99499 7.946 6.24099 8.707C5.48699 9.468 4.82799 10.327 4.28699 11.261L4.34299 11.292L4.39899 11.323L4.45499 11.354L4.51099 11.385C5.04099 10.471 5.68599 9.631 6.42499 8.885C7.16399 8.139 7.99799 7.487 8.90699 6.95C9.81599 6.413 10.8 5.989 11.84 5.7C12.878 5.413 13.973 5.258 15.104 5.258Z" fill="#4D4D4D"/>
<path d="M15.067 13.018C14.675 13.018 14.296 13.071 13.937 13.17C13.578 13.269 13.236 13.414 12.921 13.598C12.606 13.782 12.315 14.005 12.057 14.26C11.799 14.515 11.571 14.803 11.382 15.115L11.438 15.146L11.494 15.177L11.55 15.208L11.606 15.239C11.785 14.946 11.998 14.676 12.242 14.436C12.485 14.197 12.758 13.987 13.055 13.815C13.351 13.642 13.672 13.507 14.01 13.414C14.348 13.321 14.704 13.272 15.072 13.272C15.44 13.272 15.795 13.322 16.133 13.414C16.471 13.507 16.791 13.643 17.087 13.815C17.383 13.988 17.656 14.197 17.9 14.436C18.144 14.675 18.357 14.945 18.536 15.239L18.592 15.208L18.648 15.177L18.704 15.146L18.76 15.115C18.571 14.802 18.343 14.515 18.085 14.26C17.827 14.005 17.536 13.782 17.22 13.598C16.904 13.414 16.564 13.269 16.204 13.17C15.838 13.071 15.459 13.018 15.067 13.018Z" fill="#4D4D4D"/>
<path d="M2 10.264L2.031 10.209L2.061 10.153L2.092 10.098L2.122 10.043L5.363 11.822L8.605 13.601L11.846 15.38L15.088 17.159L15.057 17.214L15.027 17.27L14.997 17.325L14.966 17.381L11.725 15.601L8.483 13.822L5.242 12.043L2 10.264Z" fill="#4D4D4D"/>
<path d="M27.922 10.264L27.892 10.209L27.861 10.153L27.831 10.098L27.801 10.043L24.559 11.822L21.318 13.601L18.076 15.38L14.835 17.159L14.865 17.214L14.896 17.27L14.926 17.325L14.956 17.381L18.198 15.601L21.439 13.822L24.681 12.043L27.922 10.264Z" fill="#4D4D4D"/>
</svg>
