<svg width="30" height="30" viewBox="0 0 30 30" fill="none" xmlns="http://www.w3.org/2000/svg">
<rect width="30" height="30" fill="white"/>
<path d="M30 30H22.5H15H7.5H0V22.5003V15.0005V7.49975V0H7.5H15H22.5H30V7.49975V14.9995V22.4992V30ZM0.252287 29.7477H7.62614H15H22.3739H29.7477V22.3741V15.0005V7.62589V0.252279H22.3739H15H7.62614H0.252287V7.62589V14.9995V22.3731V29.7477Z" fill="#4D4D4D"/>
<path d="M1.95971 20.815L1.20471 22.82H2.72971L1.95971 20.815ZM3.18471 24L2.82471 23.065H1.10971L0.759707 24H0.489707L1.83471 20.455H2.08971L3.44971 24H3.18471ZM5.7717 23.305C5.7717 23.4817 5.71503 23.635 5.6017 23.765C5.5117 23.865 5.39503 23.94 5.2517 23.99C5.1117 24.04 4.95837 24.065 4.7917 24.065C4.6217 24.065 4.4667 24.0383 4.3267 23.985C4.1867 23.9317 4.06837 23.8517 3.9717 23.745C3.9017 23.665 3.85003 23.5867 3.8167 23.51C3.7867 23.4333 3.76837 23.3433 3.7617 23.24H4.0167C4.03003 23.3867 4.0917 23.515 4.2017 23.625C4.27503 23.695 4.3617 23.7467 4.4617 23.78C4.5617 23.81 4.6717 23.825 4.7917 23.825C4.9217 23.825 5.0367 23.81 5.1367 23.78C5.2367 23.75 5.31837 23.7033 5.3817 23.64C5.42837 23.5933 5.4617 23.5467 5.4817 23.5C5.50503 23.4533 5.5167 23.3933 5.5167 23.32C5.5167 23.2067 5.4767 23.1083 5.3967 23.025C5.32003 22.9383 5.2067 22.885 5.0567 22.865L4.5717 22.8C4.46837 22.7867 4.36503 22.7617 4.2617 22.725C4.1617 22.6883 4.0767 22.63 4.0067 22.55C3.91337 22.44 3.8667 22.3083 3.8667 22.155C3.8667 22.055 3.88503 21.965 3.9217 21.885C3.9617 21.8017 4.01503 21.73 4.0817 21.67C4.1717 21.5867 4.27503 21.5267 4.3917 21.49C4.5117 21.4533 4.6367 21.435 4.7667 21.435C4.9167 21.435 5.05837 21.46 5.1917 21.51C5.32503 21.5567 5.43503 21.63 5.5217 21.73C5.57837 21.7967 5.62337 21.87 5.6567 21.95C5.69003 22.03 5.70837 22.11 5.7117 22.19H5.4617C5.45503 22.15 5.4417 22.1017 5.4217 22.045C5.40503 21.9883 5.3767 21.9367 5.3367 21.89C5.28003 21.8233 5.20337 21.77 5.1067 21.73C5.01003 21.69 4.8967 21.67 4.7667 21.67C4.57337 21.67 4.42337 21.7083 4.3167 21.785C4.1867 21.8783 4.1217 21.9933 4.1217 22.13C4.1217 22.2367 4.15503 22.3267 4.2217 22.4C4.28837 22.4733 4.4167 22.5233 4.6067 22.55L5.0817 22.615C5.19837 22.6317 5.30003 22.6633 5.3867 22.71C5.47337 22.7533 5.54503 22.8067 5.6017 22.87C5.65837 22.9333 5.70003 23.0033 5.7267 23.08C5.7567 23.1533 5.7717 23.2283 5.7717 23.305ZM8.33029 23.305C8.33029 23.4817 8.27363 23.635 8.16029 23.765C8.07029 23.865 7.95363 23.94 7.81029 23.99C7.67029 24.04 7.51696 24.065 7.35029 24.065C7.18029 24.065 7.02529 24.0383 6.88529 23.985C6.74529 23.9317 6.62696 23.8517 6.53029 23.745C6.46029 23.665 6.40863 23.5867 6.37529 23.51C6.34529 23.4333 6.32696 23.3433 6.32029 23.24H6.57529C6.58863 23.3867 6.65029 23.515 6.76029 23.625C6.83363 23.695 6.92029 23.7467 7.02029 23.78C7.12029 23.81 7.23029 23.825 7.35029 23.825C7.48029 23.825 7.59529 23.81 7.69529 23.78C7.79529 23.75 7.87696 23.7033 7.94029 23.64C7.98696 23.5933 8.02029 23.5467 8.04029 23.5C8.06363 23.4533 8.07529 23.3933 8.07529 23.32C8.07529 23.2067 8.03529 23.1083 7.95529 23.025C7.87863 22.9383 7.76529 22.885 7.61529 22.865L7.13029 22.8C7.02696 22.7867 6.92363 22.7617 6.82029 22.725C6.72029 22.6883 6.63529 22.63 6.56529 22.55C6.47196 22.44 6.42529 22.3083 6.42529 22.155C6.42529 22.055 6.44363 21.965 6.48029 21.885C6.52029 21.8017 6.57363 21.73 6.64029 21.67C6.73029 21.5867 6.83363 21.5267 6.95029 21.49C7.07029 21.4533 7.19529 21.435 7.32529 21.435C7.47529 21.435 7.61696 21.46 7.75029 21.51C7.88363 21.5567 7.99363 21.63 8.08029 21.73C8.13696 21.7967 8.18196 21.87 8.21529 21.95C8.24863 22.03 8.26696 22.11 8.27029 22.19H8.02029C8.01363 22.15 8.00029 22.1017 7.98029 22.045C7.96363 21.9883 7.93529 21.9367 7.89529 21.89C7.83863 21.8233 7.76196 21.77 7.66529 21.73C7.56863 21.69 7.45529 21.67 7.32529 21.67C7.13196 21.67 6.98196 21.7083 6.87529 21.785C6.74529 21.8783 6.68029 21.9933 6.68029 22.13C6.68029 22.2367 6.71363 22.3267 6.78029 22.4C6.84696 22.4733 6.97529 22.5233 7.16529 22.55L7.64029 22.615C7.75696 22.6317 7.85863 22.6633 7.94529 22.71C8.03196 22.7533 8.10363 22.8067 8.16029 22.87C8.21696 22.9333 8.25863 23.0033 8.28529 23.08C8.31529 23.1533 8.33029 23.2283 8.33029 23.305ZM9.73506 24.535C9.67173 24.6983 9.58506 24.8233 9.47506 24.91C9.36839 25 9.23006 25.045 9.06006 25.045C9.01006 25.045 8.96506 25.0433 8.92506 25.04C8.88506 25.0367 8.85173 25.0317 8.82506 25.025C8.79173 25.0183 8.76506 25.01 8.74506 25V24.79C8.77839 24.7967 8.81339 24.8017 8.85006 24.805C8.91006 24.815 8.97673 24.82 9.05006 24.82C9.17006 24.82 9.26506 24.785 9.33506 24.715C9.40506 24.645 9.46173 24.5567 9.50506 24.45L9.66506 24.04L8.64006 21.5H8.91006L9.78506 23.72L10.6251 21.5H10.8951L9.73506 24.535ZM14.6326 24V22.365C14.6326 22.1483 14.5876 21.9783 14.4976 21.855C14.4076 21.7317 14.2543 21.67 14.0376 21.67C13.941 21.67 13.856 21.685 13.7826 21.715C13.7126 21.745 13.6493 21.7867 13.5926 21.84C13.496 21.9333 13.4226 22.0433 13.3726 22.17C13.3226 22.2967 13.2976 22.435 13.2976 22.585V24H13.0426V22.365C13.0426 22.1483 12.996 21.9783 12.9026 21.855C12.8126 21.7317 12.6593 21.67 12.4426 21.67C12.346 21.67 12.261 21.685 12.1876 21.715C12.1176 21.745 12.0543 21.7867 11.9976 21.84C11.8843 21.9467 11.806 22.08 11.7626 22.24C11.7193 22.4 11.6976 22.57 11.6976 22.75V24H11.4476V21.5H11.6676L11.6976 21.93C11.7643 21.7867 11.8626 21.6683 11.9926 21.575C12.1226 21.4817 12.2776 21.435 12.4576 21.435C12.6776 21.435 12.851 21.485 12.9776 21.585C13.1076 21.6817 13.1976 21.8117 13.2476 21.975C13.3143 21.8183 13.4126 21.69 13.5426 21.59C13.676 21.4867 13.846 21.435 14.0526 21.435C14.1993 21.435 14.3243 21.4583 14.4276 21.505C14.5343 21.5483 14.621 21.6117 14.6876 21.695C14.7543 21.775 14.8026 21.8717 14.8326 21.985C14.866 22.095 14.8826 22.2167 14.8826 22.35V24H14.6326ZM17.5176 22.58C17.5143 22.46 17.4943 22.3467 17.4576 22.24C17.421 22.13 17.3676 22.0333 17.2976 21.95C17.2276 21.8633 17.1426 21.795 17.0426 21.745C16.9426 21.695 16.8293 21.67 16.7026 21.67C16.5726 21.67 16.456 21.695 16.3526 21.745C16.2493 21.7917 16.161 21.8567 16.0876 21.94C16.0176 22.0233 15.9626 22.12 15.9226 22.23C15.8826 22.34 15.8626 22.4567 15.8626 22.58H17.5176ZM17.7726 22.645C17.7726 22.675 17.771 22.7033 17.7676 22.73C17.7676 22.7533 17.7676 22.78 17.7676 22.81H15.8576C15.861 22.9567 15.8843 23.095 15.9276 23.225C15.9743 23.3517 16.0376 23.4633 16.1176 23.56C16.1876 23.6433 16.271 23.7083 16.3676 23.755C16.4676 23.8017 16.586 23.825 16.7226 23.825C16.946 23.825 17.1276 23.7517 17.2676 23.605C17.3143 23.5583 17.3526 23.5067 17.3826 23.45C17.416 23.3933 17.441 23.3267 17.4576 23.25H17.7176C17.701 23.3567 17.6676 23.455 17.6176 23.545C17.5676 23.6317 17.5076 23.7083 17.4376 23.775C17.3476 23.865 17.241 23.9367 17.1176 23.99C16.9976 24.04 16.866 24.065 16.7226 24.065C16.5426 24.065 16.3876 24.0317 16.2576 23.965C16.1276 23.8983 16.0176 23.8133 15.9276 23.71C15.8243 23.59 15.7443 23.45 15.6876 23.29C15.6343 23.1267 15.6076 22.95 15.6076 22.76C15.6076 22.6 15.6243 22.445 15.6576 22.295C15.691 22.145 15.756 22.0033 15.8526 21.87C16.066 21.58 16.3493 21.435 16.7026 21.435C16.8726 21.435 17.0226 21.4683 17.1526 21.535C17.286 21.6017 17.3976 21.6917 17.4876 21.805C17.581 21.915 17.651 22.0433 17.6976 22.19C17.7476 22.3367 17.7726 22.4883 17.7726 22.645ZM20.2429 24V22.365C20.2429 22.145 20.1929 21.9767 20.0929 21.86C19.9929 21.74 19.8279 21.68 19.5979 21.68C19.4446 21.68 19.3146 21.7117 19.2079 21.775C19.1013 21.835 19.0146 21.915 18.9479 22.015C18.8846 22.115 18.8379 22.23 18.8079 22.36C18.7813 22.4867 18.7679 22.6167 18.7679 22.75V24H18.5179V21.5H18.7379L18.7679 21.955C18.8013 21.875 18.8479 21.8033 18.9079 21.74C18.9679 21.6767 19.0346 21.6233 19.1079 21.58C19.1846 21.5333 19.2663 21.4983 19.3529 21.475C19.4396 21.4483 19.5263 21.435 19.6129 21.435C19.9029 21.435 20.1213 21.5167 20.2679 21.68C20.4179 21.8433 20.4929 22.0667 20.4929 22.35V24H20.2429ZM22.618 23.975C22.548 23.9917 22.478 24.005 22.408 24.015C22.3413 24.0283 22.273 24.035 22.203 24.035C21.9697 24.035 21.803 23.9683 21.703 23.835C21.6063 23.6983 21.558 23.5217 21.558 23.305V21.73H21.058V21.5H21.558V20.81L21.808 20.75V21.5H22.583V21.73H21.808V23.295C21.808 23.3683 21.813 23.4367 21.823 23.5C21.8363 23.56 21.858 23.6133 21.888 23.66C21.9213 23.7033 21.9647 23.7383 22.018 23.765C22.0713 23.7883 22.1397 23.8 22.223 23.8C22.2897 23.8 22.3547 23.7967 22.418 23.79C22.4847 23.78 22.5513 23.7683 22.618 23.755V23.975ZM24.5736 21.74C24.5336 21.73 24.4919 21.7233 24.4486 21.72C24.4086 21.7167 24.3686 21.715 24.3286 21.715C24.1719 21.715 24.0419 21.7467 23.9386 21.81C23.8386 21.8733 23.7586 21.9567 23.6986 22.06C23.6386 22.1633 23.5952 22.28 23.5686 22.41C23.5452 22.54 23.5336 22.67 23.5336 22.8V24H23.2836V21.5H23.5036L23.5336 22.005C23.5902 21.8317 23.6919 21.7 23.8386 21.61C23.9886 21.52 24.1519 21.475 24.3286 21.475C24.3686 21.475 24.4086 21.4767 24.4486 21.48C24.4919 21.48 24.5336 21.4833 24.5736 21.49V21.74ZM25.2129 24V21.5H25.4779V24H25.2129ZM25.1679 20.805V20.455H25.5179V20.805H25.1679ZM28.3317 23.21C28.315 23.33 28.2784 23.4433 28.2217 23.55C28.1684 23.6533 28.0984 23.7433 28.0117 23.82C27.9284 23.8967 27.83 23.9567 27.7167 24C27.6067 24.0433 27.4867 24.065 27.3567 24.065C27.2 24.065 27.06 24.0383 26.9367 23.985C26.8134 23.9283 26.7084 23.8567 26.6217 23.77C26.4917 23.64 26.4 23.4917 26.3467 23.325C26.2967 23.155 26.2717 22.9633 26.2717 22.75C26.2717 22.5367 26.2967 22.3467 26.3467 22.18C26.4 22.01 26.4917 21.86 26.6217 21.73C26.7084 21.6433 26.8134 21.5733 26.9367 21.52C27.06 21.4633 27.2 21.435 27.3567 21.435C27.4867 21.435 27.6067 21.455 27.7167 21.495C27.83 21.535 27.9284 21.5933 28.0117 21.67C28.095 21.7433 28.1634 21.8317 28.2167 21.935C28.27 22.0383 28.305 22.1533 28.3217 22.28H28.0617C28.035 22.1067 27.9584 21.9633 27.8317 21.85C27.705 21.7367 27.5467 21.68 27.3567 21.68C27.2367 21.68 27.13 21.7 27.0367 21.74C26.9467 21.7767 26.8684 21.8283 26.8017 21.895C26.6884 22.0117 26.6134 22.1433 26.5767 22.29C26.5434 22.4333 26.5267 22.5867 26.5267 22.75C26.5267 22.9133 26.5434 23.0683 26.5767 23.215C26.6134 23.3617 26.6884 23.4933 26.8017 23.61C26.935 23.75 27.12 23.82 27.3567 23.82C27.55 23.82 27.7084 23.7617 27.8317 23.645C27.9584 23.525 28.0367 23.38 28.0667 23.21H28.3317Z" fill="#4D4D4D"/>
<path d="M8.1508 11.4922C8.1508 10.8311 8.24081 10.1911 8.40974 9.58318C8.57866 8.9753 8.8259 8.40015 9.14037 7.86883C9.45483 7.33752 9.83592 6.85004 10.272 6.41809C10.708 5.98615 11.1996 5.60914 11.7338 5.29936L11.7151 5.26662L11.6964 5.23389L11.6777 5.20116L11.659 5.16843C11.1131 5.48464 10.6116 5.86925 10.1662 6.31055C9.72078 6.75185 9.3315 7.24926 9.01061 7.79168C8.68971 8.3341 8.43721 8.92152 8.26478 9.54168C8.09235 10.1618 8 10.8159 8 11.4904C8 12.1655 8.09235 12.819 8.26478 13.4392C8.43838 14.0616 8.69088 14.6491 9.01178 15.1915C9.33267 15.7339 9.72195 16.2319 10.1668 16.6726C10.6116 17.1133 11.1136 17.4985 11.6596 17.8147L11.6777 17.782L11.6958 17.7493L11.7139 17.7165L11.7321 17.6838C11.1978 17.374 10.7068 16.997 10.2708 16.5651C9.83476 16.1331 9.45366 15.6457 9.13978 15.1143C8.8259 14.583 8.57807 14.0079 8.40915 13.4C8.2414 12.7933 8.1508 12.1532 8.1508 11.4922Z" fill="#4D4D4D"/>
<path d="M12.6866 11.5138C12.6866 11.7429 12.7175 11.9645 12.7754 12.1743C12.8333 12.3841 12.918 12.584 13.0256 12.7681C13.1331 12.9523 13.2635 13.1224 13.4125 13.2732C13.5616 13.424 13.7299 13.5572 13.9123 13.6677L13.9304 13.635L13.9485 13.6022L13.9666 13.5695L13.9847 13.5368C13.8135 13.4321 13.6557 13.3076 13.5154 13.165C13.3757 13.023 13.2529 12.8634 13.1524 12.6898C13.0513 12.5168 12.9724 12.3292 12.918 12.1316C12.8637 11.9341 12.835 11.726 12.835 11.5109C12.835 11.2958 12.8642 11.0883 12.918 10.8907C12.9724 10.6932 13.0519 10.5061 13.1524 10.3331C13.2535 10.1601 13.3757 10.0005 13.5154 9.8579C13.6551 9.71528 13.8129 9.59078 13.9847 9.48616L13.9666 9.45342L13.9485 9.42069L13.9304 9.38796L13.9123 9.35523C13.7293 9.4657 13.5616 9.59897 13.4125 9.74977C13.2635 9.90057 13.1331 10.0707 13.0256 10.2554C12.918 10.4401 12.8333 10.6388 12.7754 10.8492C12.7175 11.0631 12.6866 11.2847 12.6866 11.5138Z" fill="#4D4D4D"/>
<path d="M11.0768 19.1515L11.0447 19.1334L11.012 19.1158L10.9798 19.0977L10.9477 19.0802L11.9875 17.1858L13.0273 15.2909L14.0672 13.3965L15.107 11.5015L15.1391 11.5196L15.1719 11.5372L15.204 11.5547L15.2367 11.5728L14.1963 13.4672L13.1565 15.3622L12.1167 17.2565L11.0768 19.1515Z" fill="#4D4D4D"/>
<path d="M11.0768 4L11.0447 4.01754L11.012 4.03566L10.9798 4.05319L10.9477 4.07073L11.9875 5.96569L13.0273 7.86006L14.0672 9.75502L15.107 11.6494L15.1391 11.6319L15.1719 11.6137L15.204 11.5962L15.2367 11.5787L14.1963 9.68371L13.1565 7.78934L12.1167 5.89438L11.0768 4Z" fill="#4D4D4D"/>
<path d="M22.0859 11.6593C22.0859 12.3204 21.9959 12.9604 21.827 13.5683C21.6581 14.1762 21.4108 14.7513 21.0964 15.2827C20.7819 15.814 20.4008 16.3014 19.9648 16.7334C19.5287 17.1653 19.0372 17.5423 18.5029 17.8521L18.5216 17.8849L18.5403 17.9176L18.559 17.9503L18.5777 17.9831C19.1237 17.6668 19.6252 17.2822 20.0706 16.8409C20.516 16.3996 20.9052 15.9022 21.2261 15.3598C21.547 14.8174 21.7995 14.23 21.972 13.6098C22.1444 12.9897 22.2367 12.3356 22.2367 11.6611C22.2367 10.986 22.1444 10.3325 21.972 9.71234C21.7984 9.08984 21.5459 8.50242 21.225 7.96C20.9041 7.41758 20.5148 6.91958 20.07 6.47887C19.6252 6.03815 19.1231 5.65296 18.5772 5.33675L18.559 5.36948L18.5409 5.40221L18.5228 5.43494L18.5047 5.46768C19.0389 5.77746 19.5299 6.15447 19.9659 6.58641C20.402 7.01836 20.7831 7.50584 21.097 8.03715C21.4108 8.56847 21.6587 9.14362 21.8276 9.7515C21.9953 10.3582 22.0859 10.9982 22.0859 11.6593Z" fill="#4D4D4D"/>
<path d="M17.5502 11.6377C17.5502 11.4086 17.5192 11.1871 17.4613 10.9772C17.4035 10.7674 17.3187 10.5675 17.2112 10.3834C17.1036 10.1992 16.9733 10.0292 16.8242 9.87835C16.6752 9.72755 16.5068 9.59428 16.3245 9.48381L16.3064 9.51654L16.2882 9.54928L16.2701 9.58201L16.252 9.61474C16.4233 9.71937 16.5811 9.84386 16.7214 9.98648C16.8611 10.1285 16.9838 10.2881 17.0843 10.4617C17.1855 10.6347 17.2644 10.8223 17.3187 11.0199C17.3731 11.2174 17.4017 11.4255 17.4017 11.6406C17.4017 11.8557 17.3725 12.0632 17.3187 12.2608C17.2644 12.4583 17.1849 12.6454 17.0843 12.8184C16.9832 12.9914 16.8611 13.151 16.7214 13.2936C16.5817 13.4362 16.4238 13.5607 16.252 13.6653L16.2701 13.6981L16.2882 13.7308L16.3064 13.7635L16.3245 13.7963C16.5074 13.6858 16.6752 13.5525 16.8242 13.4017C16.9733 13.2509 17.1036 13.0808 17.2112 12.8961C17.3187 12.7114 17.4035 12.5127 17.4613 12.3023C17.5192 12.0884 17.5502 11.8668 17.5502 11.6377Z" fill="#4D4D4D"/>
<path d="M19.1599 4L19.1921 4.01812L19.2248 4.03565L19.2569 4.05377L19.2891 4.07131L18.2493 5.96568L17.2094 7.86064L16.1696 9.75502L15.1298 11.65L15.0976 11.6319L15.0649 11.6143L15.0327 11.5968L15 11.5787L16.0404 9.6843L17.0803 7.78934L18.1201 5.89496L19.1599 4Z" fill="#4D4D4D"/>
<path d="M19.1599 19.1515L19.1921 19.134L19.2248 19.1158L19.2569 19.0983L19.2891 19.0808L18.2493 17.1858L17.2094 15.2914L16.1696 13.3965L15.1298 11.5021L15.0976 11.5196L15.0649 11.5378L15.0327 11.5553L15 11.5728L16.0404 13.4678L17.0803 15.3622L18.1201 17.2571L19.1599 19.1515Z" fill="#4D4D4D"/>
</svg>
