<svg width="30" height="30" viewBox="0 0 30 30" fill="none" xmlns="http://www.w3.org/2000/svg">
<rect width="30" height="30" fill="white"/>
<path d="M30 30H22.5H15H7.5H0V22.5003V15.0005V7.49975V0H7.5H15H22.5H30V7.49975V14.9995V22.4992V30ZM0.252287 29.7477H7.62614H15H22.3739H29.7477V22.3741V15.0005V7.62589V0.252279H22.3739H15H7.62614H0.252287V7.62589V14.9995V22.3731V29.7477Z" fill="#4D4D4D"/>
<path d="M10.883 21.156C10.883 21.012 10.863 20.874 10.823 20.742C10.783 20.606 10.723 20.486 10.643 20.382C10.563 20.274 10.463 20.19 10.343 20.13C10.223 20.066 10.083 20.034 9.92302 20.034C9.75102 20.034 9.60302 20.066 9.47902 20.13C9.35902 20.19 9.25902 20.272 9.17902 20.376C9.09902 20.476 9.03902 20.594 8.99902 20.73C8.96302 20.862 8.94502 21 8.94502 21.144C8.94502 21.288 8.96302 21.428 8.99902 21.564C9.03902 21.696 9.09902 21.814 9.17902 21.918C9.25902 22.018 9.36102 22.1 9.48502 22.164C9.60902 22.224 9.75702 22.254 9.92902 22.254C10.065 22.254 10.185 22.232 10.289 22.188C10.393 22.14 10.485 22.078 10.565 22.002C10.777 21.798 10.883 21.516 10.883 21.156ZM11.267 21.918C11.267 22.078 11.263 22.242 11.255 22.41C11.247 22.574 11.229 22.734 11.201 22.89C11.173 23.046 11.131 23.194 11.075 23.334C11.019 23.474 10.943 23.598 10.847 23.706C10.751 23.81 10.631 23.898 10.487 23.97C10.343 24.042 10.167 24.078 9.95902 24.078C9.79102 24.078 9.63502 24.052 9.49102 24C9.35102 23.948 9.22702 23.876 9.11902 23.784C9.01102 23.688 8.92502 23.574 8.86102 23.442C8.79702 23.306 8.76102 23.156 8.75302 22.992H9.06502C9.08102 23.232 9.16702 23.426 9.32302 23.574C9.48302 23.718 9.69502 23.79 9.95902 23.79C10.111 23.79 10.241 23.768 10.349 23.724C10.457 23.676 10.547 23.612 10.619 23.532C10.707 23.436 10.773 23.32 10.817 23.184C10.865 23.048 10.899 22.904 10.919 22.752C10.939 22.6 10.949 22.448 10.949 22.296C10.953 22.144 10.955 22.004 10.955 21.876C10.871 22.068 10.739 22.226 10.559 22.35C10.379 22.47 10.171 22.53 9.93502 22.53C9.73102 22.53 9.54702 22.496 9.38302 22.428C9.22302 22.36 9.08702 22.266 8.97502 22.146C8.86702 22.022 8.78302 21.876 8.72302 21.708C8.66702 21.536 8.63902 21.348 8.63902 21.144C8.63902 20.952 8.66702 20.772 8.72302 20.604C8.78302 20.436 8.86702 20.288 8.97502 20.16C9.08702 20.032 9.22302 19.932 9.38302 19.86C9.54302 19.784 9.72502 19.746 9.92902 19.746C10.161 19.746 10.361 19.798 10.529 19.902C10.701 20.002 10.833 20.118 10.925 20.25C11.001 20.358 11.061 20.478 11.105 20.61C11.153 20.738 11.189 20.876 11.213 21.024C11.237 21.168 11.251 21.316 11.255 21.468C11.263 21.62 11.267 21.77 11.267 21.918ZM14.4372 21.912C14.4372 21.776 14.4332 21.632 14.4252 21.48C14.4212 21.328 14.4072 21.178 14.3832 21.03C14.3592 20.882 14.3212 20.742 14.2692 20.61C14.2172 20.478 14.1432 20.366 14.0472 20.274C13.9712 20.202 13.8812 20.144 13.7772 20.1C13.6772 20.056 13.5532 20.034 13.4052 20.034C13.2572 20.034 13.1312 20.056 13.0272 20.1C12.9272 20.144 12.8392 20.202 12.7632 20.274C12.6672 20.366 12.5932 20.478 12.5412 20.61C12.4892 20.742 12.4512 20.882 12.4272 21.03C12.4032 21.178 12.3872 21.328 12.3792 21.48C12.3752 21.632 12.3732 21.776 12.3732 21.912C12.3732 22.048 12.3752 22.192 12.3792 22.344C12.3872 22.496 12.4032 22.646 12.4272 22.794C12.4512 22.942 12.4892 23.082 12.5412 23.214C12.5932 23.346 12.6672 23.458 12.7632 23.55C12.8392 23.622 12.9272 23.68 13.0272 23.724C13.1312 23.768 13.2572 23.79 13.4052 23.79C13.5532 23.79 13.6772 23.768 13.7772 23.724C13.8812 23.68 13.9712 23.622 14.0472 23.55C14.1432 23.458 14.2172 23.346 14.2692 23.214C14.3212 23.082 14.3592 22.942 14.3832 22.794C14.4072 22.646 14.4212 22.496 14.4252 22.344C14.4332 22.192 14.4372 22.048 14.4372 21.912ZM14.7432 21.912C14.7432 22.076 14.7372 22.244 14.7252 22.416C14.7172 22.588 14.6952 22.756 14.6592 22.92C14.6232 23.08 14.5732 23.232 14.5092 23.376C14.4452 23.516 14.3592 23.638 14.2512 23.742C14.1552 23.834 14.0372 23.914 13.8972 23.982C13.7612 24.046 13.5972 24.078 13.4052 24.078C13.2132 24.078 13.0472 24.046 12.9072 23.982C12.7712 23.914 12.6552 23.834 12.5592 23.742C12.4512 23.638 12.3652 23.516 12.3012 23.376C12.2372 23.232 12.1872 23.08 12.1512 22.92C12.1152 22.756 12.0912 22.588 12.0792 22.416C12.0712 22.244 12.0672 22.076 12.0672 21.912C12.0672 21.748 12.0712 21.58 12.0792 21.408C12.0912 21.236 12.1152 21.07 12.1512 20.91C12.1872 20.746 12.2372 20.594 12.3012 20.454C12.3652 20.31 12.4512 20.186 12.5592 20.082C12.6552 19.99 12.7712 19.912 12.9072 19.848C13.0472 19.78 13.2132 19.746 13.4052 19.746C13.5972 19.746 13.7612 19.78 13.8972 19.848C14.0372 19.912 14.1552 19.99 14.2512 20.082C14.3592 20.186 14.4452 20.31 14.5092 20.454C14.5732 20.594 14.6232 20.746 14.6592 20.91C14.6952 21.07 14.7172 21.236 14.7252 21.408C14.7372 21.58 14.7432 21.748 14.7432 21.912ZM17.2593 20.658C17.2593 20.558 17.2413 20.464 17.2053 20.376C17.1693 20.284 17.1193 20.206 17.0553 20.142C16.9913 20.074 16.9153 20.022 16.8273 19.986C16.7393 19.946 16.6453 19.926 16.5453 19.926C16.4413 19.926 16.3453 19.946 16.2573 19.986C16.1733 20.022 16.0973 20.074 16.0293 20.142C15.9653 20.206 15.9153 20.284 15.8793 20.376C15.8433 20.464 15.8253 20.558 15.8253 20.658C15.8253 20.762 15.8433 20.858 15.8793 20.946C15.9153 21.034 15.9653 21.112 16.0293 21.18C16.0973 21.244 16.1733 21.296 16.2573 21.336C16.3453 21.372 16.4413 21.39 16.5453 21.39C16.6453 21.39 16.7393 21.372 16.8273 21.336C16.9153 21.296 16.9913 21.244 17.0553 21.18C17.1193 21.112 17.1693 21.034 17.2053 20.946C17.2413 20.858 17.2593 20.762 17.2593 20.658ZM17.5353 20.658C17.5353 20.794 17.5093 20.924 17.4573 21.048C17.4053 21.168 17.3333 21.274 17.2413 21.366C17.1533 21.454 17.0493 21.524 16.9293 21.576C16.8093 21.628 16.6813 21.654 16.5453 21.654C16.4093 21.654 16.2793 21.628 16.1553 21.576C16.0353 21.524 15.9293 21.454 15.8373 21.366C15.7493 21.274 15.6793 21.168 15.6273 21.048C15.5753 20.924 15.5493 20.794 15.5493 20.658C15.5493 20.522 15.5753 20.394 15.6273 20.274C15.6793 20.15 15.7493 20.044 15.8373 19.956C15.9293 19.864 16.0353 19.792 16.1553 19.74C16.2793 19.688 16.4093 19.662 16.5453 19.662C16.6813 19.662 16.8093 19.688 16.9293 19.74C17.0493 19.792 17.1533 19.864 17.2413 19.956C17.3333 20.044 17.4053 20.15 17.4573 20.274C17.5093 20.394 17.5353 20.522 17.5353 20.658ZM21.4507 22.698C21.4347 22.894 21.3867 23.076 21.3067 23.244C21.2267 23.412 21.1207 23.558 20.9887 23.682C20.8567 23.806 20.7007 23.904 20.5207 23.976C20.3447 24.044 20.1507 24.078 19.9387 24.078C19.7347 24.078 19.5327 24.038 19.3327 23.958C19.1367 23.878 18.9647 23.764 18.8167 23.616C18.7007 23.5 18.6087 23.372 18.5407 23.232C18.4767 23.092 18.4287 22.948 18.3967 22.8C18.3647 22.648 18.3427 22.494 18.3307 22.338C18.3227 22.178 18.3187 22.022 18.3187 21.87C18.3187 21.718 18.3227 21.564 18.3307 21.408C18.3427 21.252 18.3647 21.098 18.3967 20.946C18.4287 20.794 18.4767 20.65 18.5407 20.514C18.6087 20.374 18.7007 20.246 18.8167 20.13C18.9647 19.982 19.1367 19.868 19.3327 19.788C19.5327 19.708 19.7347 19.668 19.9387 19.668C20.1507 19.668 20.3447 19.704 20.5207 19.776C20.7007 19.844 20.8567 19.94 20.9887 20.064C21.1207 20.188 21.2267 20.334 21.3067 20.502C21.3867 20.67 21.4347 20.852 21.4507 21.048H21.1267C21.1147 20.892 21.0767 20.748 21.0127 20.616C20.9487 20.484 20.8647 20.37 20.7607 20.274C20.6607 20.178 20.5407 20.104 20.4007 20.052C20.2607 20 20.1067 19.974 19.9387 19.974C19.7467 19.974 19.5787 20.006 19.4347 20.07C19.2907 20.134 19.1607 20.224 19.0447 20.34C18.9487 20.44 18.8727 20.552 18.8167 20.676C18.7647 20.8 18.7247 20.93 18.6967 21.066C18.6727 21.198 18.6567 21.334 18.6487 21.474C18.6447 21.61 18.6427 21.742 18.6427 21.87C18.6427 21.998 18.6447 22.132 18.6487 22.272C18.6567 22.408 18.6747 22.544 18.7027 22.68C18.7307 22.816 18.7707 22.946 18.8227 23.07C18.8787 23.194 18.9547 23.306 19.0507 23.406C19.2867 23.65 19.5827 23.772 19.9387 23.772C20.1067 23.772 20.2607 23.746 20.4007 23.694C20.5407 23.642 20.6607 23.568 20.7607 23.472C20.8647 23.376 20.9487 23.262 21.0127 23.13C21.0767 22.998 21.1147 22.854 21.1267 22.698H21.4507Z" fill="#4D4D4D"/>
<path d="M15.104 5.258C16.235 5.258 17.33 5.412 18.37 5.701C19.41 5.99 20.394 6.413 21.303 6.951C22.212 7.489 23.046 8.141 23.785 8.887C24.524 9.633 25.169 10.474 25.699 11.388L25.755 11.356L25.811 11.324L25.867 11.292L25.923 11.26C25.382 10.326 24.724 9.468 23.969 8.706C23.214 7.944 22.363 7.278 21.435 6.729C20.507 6.18 19.502 5.748 18.441 5.453C17.38 5.158 16.261 5 15.107 5C13.952 5 12.834 5.158 11.773 5.453C10.708 5.75 9.70299 6.182 8.77499 6.731C7.84699 7.28 6.99499 7.946 6.24099 8.707C5.48699 9.468 4.82799 10.327 4.28699 11.261L4.34299 11.292L4.39899 11.323L4.45499 11.354L4.51099 11.385C5.04099 10.471 5.68599 9.631 6.42499 8.885C7.16399 8.139 7.99799 7.487 8.90699 6.95C9.81599 6.413 10.8 5.989 11.84 5.7C12.878 5.413 13.973 5.258 15.104 5.258Z" fill="#4D4D4D"/>
<path d="M15.067 13.018C14.675 13.018 14.296 13.071 13.937 13.17C13.578 13.269 13.236 13.414 12.921 13.598C12.606 13.782 12.315 14.005 12.057 14.26C11.799 14.515 11.571 14.803 11.382 15.115L11.438 15.146L11.494 15.177L11.55 15.208L11.606 15.239C11.785 14.946 11.998 14.676 12.242 14.436C12.485 14.197 12.758 13.987 13.055 13.815C13.351 13.642 13.672 13.507 14.01 13.414C14.348 13.321 14.704 13.272 15.072 13.272C15.44 13.272 15.795 13.322 16.133 13.414C16.471 13.507 16.791 13.643 17.087 13.815C17.383 13.988 17.656 14.197 17.9 14.436C18.144 14.675 18.357 14.945 18.536 15.239L18.592 15.208L18.648 15.177L18.704 15.146L18.76 15.115C18.571 14.802 18.343 14.515 18.085 14.26C17.827 14.005 17.536 13.782 17.22 13.598C16.904 13.414 16.564 13.269 16.204 13.17C15.838 13.071 15.459 13.018 15.067 13.018Z" fill="#4D4D4D"/>
<path d="M2 10.264L2.031 10.209L2.061 10.153L2.092 10.098L2.122 10.043L5.363 11.822L8.605 13.601L11.846 15.38L15.088 17.159L15.057 17.214L15.027 17.27L14.997 17.325L14.966 17.381L11.725 15.601L8.483 13.822L5.242 12.043L2 10.264Z" fill="#4D4D4D"/>
<path d="M27.922 10.264L27.892 10.209L27.861 10.153L27.831 10.098L27.801 10.043L24.559 11.822L21.318 13.601L18.076 15.38L14.835 17.159L14.865 17.214L14.896 17.27L14.926 17.325L14.956 17.381L18.198 15.601L21.439 13.822L24.681 12.043L27.922 10.264Z" fill="#4D4D4D"/>
</svg>
