<svg width="30" height="30" viewBox="0 0 30 30" fill="none" xmlns="http://www.w3.org/2000/svg">
<rect width="30" height="30" fill="white"/>
<path d="M30 30H22.5H15H7.5H0V22.5003V15.0005V7.49975V0H7.5H15H22.5H30V7.49975V14.9995V22.4992V30ZM0.252287 29.7477H7.62614H15H22.3739H29.7477V22.3741V15.0005V7.62589V0.252279H22.3739H15H7.62614H0.252287V7.62589V14.9995V22.3731V29.7477Z" fill="#4D4D4D"/>
<path d="M8.34394 24V20.202L7.30594 20.964V20.628L8.37394 19.83H8.64394V24H8.34394ZM12.7561 22.68C12.7561 22.536 12.7361 22.398 12.6961 22.266C12.6601 22.13 12.6021 22.012 12.5221 21.912C12.4421 21.808 12.3401 21.726 12.2161 21.666C12.0921 21.602 11.9441 21.57 11.7721 21.57C11.6361 21.57 11.5161 21.594 11.4121 21.642C11.3081 21.686 11.2161 21.746 11.1361 21.822C10.9241 22.026 10.8181 22.308 10.8181 22.668C10.8181 22.812 10.8381 22.952 10.8781 23.088C10.9181 23.22 10.9781 23.34 11.0581 23.448C11.1381 23.552 11.2381 23.636 11.3581 23.7C11.4781 23.76 11.6181 23.79 11.7781 23.79C11.9501 23.79 12.0961 23.76 12.2161 23.7C12.3401 23.636 12.4421 23.554 12.5221 23.454C12.6021 23.35 12.6601 23.232 12.6961 23.1C12.7361 22.964 12.7561 22.824 12.7561 22.68ZM13.0621 22.68C13.0621 22.872 13.0321 23.052 12.9721 23.22C12.9161 23.388 12.8321 23.536 12.7201 23.664C12.6121 23.792 12.4781 23.894 12.3181 23.97C12.1581 24.042 11.9761 24.078 11.7721 24.078C11.5401 24.078 11.3401 24.026 11.1721 23.922C11.0081 23.818 10.8801 23.7 10.7881 23.568C10.7121 23.46 10.6501 23.342 10.6021 23.214C10.5541 23.082 10.5161 22.944 10.4881 22.8C10.4641 22.656 10.4461 22.508 10.4341 22.356C10.4261 22.204 10.4221 22.054 10.4221 21.906C10.4221 21.746 10.4261 21.584 10.4341 21.42C10.4461 21.256 10.4681 21.098 10.5001 20.946C10.5361 20.79 10.5841 20.644 10.6441 20.508C10.7041 20.372 10.7821 20.25 10.8781 20.142C10.9741 20.038 11.0941 19.946 11.2381 19.866C11.3821 19.786 11.5581 19.746 11.7661 19.746C11.9341 19.746 12.0881 19.772 12.2281 19.824C12.3721 19.876 12.4961 19.95 12.6001 20.046C12.7041 20.138 12.7881 20.252 12.8521 20.388C12.9161 20.52 12.9521 20.668 12.9601 20.832H12.6481C12.6321 20.592 12.5461 20.4 12.3901 20.256C12.2381 20.108 12.0301 20.034 11.7661 20.034C11.6141 20.034 11.4841 20.062 11.3761 20.118C11.2681 20.17 11.1781 20.236 11.1061 20.316C11.0181 20.412 10.9481 20.528 10.8961 20.664C10.8481 20.796 10.8121 20.936 10.7881 21.084C10.7641 21.232 10.7481 21.382 10.7401 21.534C10.7361 21.686 10.7341 21.824 10.7341 21.948C10.8181 21.756 10.9521 21.6 11.1361 21.48C11.3201 21.356 11.5301 21.294 11.7661 21.294C11.9701 21.294 12.1521 21.328 12.3121 21.396C12.4761 21.464 12.6121 21.56 12.7201 21.684C12.8321 21.804 12.9161 21.95 12.9721 22.122C13.0321 22.29 13.0621 22.476 13.0621 22.68ZM16.1423 21.912C16.1423 21.776 16.1383 21.632 16.1303 21.48C16.1263 21.328 16.1123 21.178 16.0883 21.03C16.0643 20.882 16.0263 20.742 15.9743 20.61C15.9223 20.478 15.8483 20.366 15.7523 20.274C15.6763 20.202 15.5863 20.144 15.4823 20.1C15.3823 20.056 15.2583 20.034 15.1103 20.034C14.9623 20.034 14.8363 20.056 14.7323 20.1C14.6323 20.144 14.5443 20.202 14.4683 20.274C14.3723 20.366 14.2983 20.478 14.2463 20.61C14.1943 20.742 14.1563 20.882 14.1323 21.03C14.1083 21.178 14.0923 21.328 14.0843 21.48C14.0803 21.632 14.0783 21.776 14.0783 21.912C14.0783 22.048 14.0803 22.192 14.0843 22.344C14.0923 22.496 14.1083 22.646 14.1323 22.794C14.1563 22.942 14.1943 23.082 14.2463 23.214C14.2983 23.346 14.3723 23.458 14.4683 23.55C14.5443 23.622 14.6323 23.68 14.7323 23.724C14.8363 23.768 14.9623 23.79 15.1103 23.79C15.2583 23.79 15.3823 23.768 15.4823 23.724C15.5863 23.68 15.6763 23.622 15.7523 23.55C15.8483 23.458 15.9223 23.346 15.9743 23.214C16.0263 23.082 16.0643 22.942 16.0883 22.794C16.1123 22.646 16.1263 22.496 16.1303 22.344C16.1383 22.192 16.1423 22.048 16.1423 21.912ZM16.4483 21.912C16.4483 22.076 16.4423 22.244 16.4303 22.416C16.4223 22.588 16.4003 22.756 16.3643 22.92C16.3283 23.08 16.2783 23.232 16.2143 23.376C16.1503 23.516 16.0643 23.638 15.9563 23.742C15.8603 23.834 15.7423 23.914 15.6023 23.982C15.4663 24.046 15.3023 24.078 15.1103 24.078C14.9183 24.078 14.7523 24.046 14.6123 23.982C14.4763 23.914 14.3603 23.834 14.2643 23.742C14.1563 23.638 14.0703 23.516 14.0063 23.376C13.9423 23.232 13.8923 23.08 13.8563 22.92C13.8203 22.756 13.7963 22.588 13.7843 22.416C13.7763 22.244 13.7723 22.076 13.7723 21.912C13.7723 21.748 13.7763 21.58 13.7843 21.408C13.7963 21.236 13.8203 21.07 13.8563 20.91C13.8923 20.746 13.9423 20.594 14.0063 20.454C14.0703 20.31 14.1563 20.186 14.2643 20.082C14.3603 19.99 14.4763 19.912 14.6123 19.848C14.7523 19.78 14.9183 19.746 15.1103 19.746C15.3023 19.746 15.4663 19.78 15.6023 19.848C15.7423 19.912 15.8603 19.99 15.9563 20.082C16.0643 20.186 16.1503 20.31 16.2143 20.454C16.2783 20.594 16.3283 20.746 16.3643 20.91C16.4003 21.07 16.4223 21.236 16.4303 21.408C16.4423 21.58 16.4483 21.748 16.4483 21.912ZM18.9644 20.658C18.9644 20.558 18.9464 20.464 18.9104 20.376C18.8744 20.284 18.8244 20.206 18.7604 20.142C18.6964 20.074 18.6204 20.022 18.5324 19.986C18.4444 19.946 18.3504 19.926 18.2504 19.926C18.1464 19.926 18.0504 19.946 17.9624 19.986C17.8784 20.022 17.8024 20.074 17.7344 20.142C17.6704 20.206 17.6204 20.284 17.5844 20.376C17.5484 20.464 17.5304 20.558 17.5304 20.658C17.5304 20.762 17.5484 20.858 17.5844 20.946C17.6204 21.034 17.6704 21.112 17.7344 21.18C17.8024 21.244 17.8784 21.296 17.9624 21.336C18.0504 21.372 18.1464 21.39 18.2504 21.39C18.3504 21.39 18.4444 21.372 18.5324 21.336C18.6204 21.296 18.6964 21.244 18.7604 21.18C18.8244 21.112 18.8744 21.034 18.9104 20.946C18.9464 20.858 18.9644 20.762 18.9644 20.658ZM19.2404 20.658C19.2404 20.794 19.2144 20.924 19.1624 21.048C19.1104 21.168 19.0384 21.274 18.9464 21.366C18.8584 21.454 18.7544 21.524 18.6344 21.576C18.5144 21.628 18.3864 21.654 18.2504 21.654C18.1144 21.654 17.9844 21.628 17.8604 21.576C17.7404 21.524 17.6344 21.454 17.5424 21.366C17.4544 21.274 17.3844 21.168 17.3324 21.048C17.2804 20.924 17.2544 20.794 17.2544 20.658C17.2544 20.522 17.2804 20.394 17.3324 20.274C17.3844 20.15 17.4544 20.044 17.5424 19.956C17.6344 19.864 17.7404 19.792 17.8604 19.74C17.9844 19.688 18.1144 19.662 18.2504 19.662C18.3864 19.662 18.5144 19.688 18.6344 19.74C18.7544 19.792 18.8584 19.864 18.9464 19.956C19.0384 20.044 19.1104 20.15 19.1624 20.274C19.2144 20.394 19.2404 20.522 19.2404 20.658ZM23.1558 22.698C23.1398 22.894 23.0918 23.076 23.0118 23.244C22.9318 23.412 22.8258 23.558 22.6938 23.682C22.5618 23.806 22.4058 23.904 22.2258 23.976C22.0498 24.044 21.8558 24.078 21.6438 24.078C21.4398 24.078 21.2378 24.038 21.0378 23.958C20.8418 23.878 20.6698 23.764 20.5218 23.616C20.4058 23.5 20.3138 23.372 20.2458 23.232C20.1818 23.092 20.1338 22.948 20.1018 22.8C20.0698 22.648 20.0478 22.494 20.0358 22.338C20.0278 22.178 20.0238 22.022 20.0238 21.87C20.0238 21.718 20.0278 21.564 20.0358 21.408C20.0478 21.252 20.0698 21.098 20.1018 20.946C20.1338 20.794 20.1818 20.65 20.2458 20.514C20.3138 20.374 20.4058 20.246 20.5218 20.13C20.6698 19.982 20.8418 19.868 21.0378 19.788C21.2378 19.708 21.4398 19.668 21.6438 19.668C21.8558 19.668 22.0498 19.704 22.2258 19.776C22.4058 19.844 22.5618 19.94 22.6938 20.064C22.8258 20.188 22.9318 20.334 23.0118 20.502C23.0918 20.67 23.1398 20.852 23.1558 21.048H22.8318C22.8198 20.892 22.7818 20.748 22.7178 20.616C22.6538 20.484 22.5698 20.37 22.4658 20.274C22.3658 20.178 22.2458 20.104 22.1058 20.052C21.9658 20 21.8118 19.974 21.6438 19.974C21.4518 19.974 21.2838 20.006 21.1398 20.07C20.9958 20.134 20.8658 20.224 20.7498 20.34C20.6538 20.44 20.5778 20.552 20.5218 20.676C20.4698 20.8 20.4298 20.93 20.4018 21.066C20.3778 21.198 20.3618 21.334 20.3538 21.474C20.3498 21.61 20.3478 21.742 20.3478 21.87C20.3478 21.998 20.3498 22.132 20.3538 22.272C20.3618 22.408 20.3798 22.544 20.4078 22.68C20.4358 22.816 20.4758 22.946 20.5278 23.07C20.5838 23.194 20.6598 23.306 20.7558 23.406C20.9918 23.65 21.2878 23.772 21.6438 23.772C21.8118 23.772 21.9658 23.746 22.1058 23.694C22.2458 23.642 22.3658 23.568 22.4658 23.472C22.5698 23.376 22.6538 23.262 22.7178 23.13C22.7818 22.998 22.8198 22.854 22.8318 22.698H23.1558Z" fill="#4D4D4D"/>
<path d="M15.104 5.258C16.235 5.258 17.33 5.412 18.37 5.701C19.41 5.99 20.394 6.413 21.303 6.951C22.212 7.489 23.046 8.141 23.785 8.887C24.524 9.633 25.169 10.474 25.699 11.388L25.755 11.356L25.811 11.324L25.867 11.292L25.923 11.26C25.382 10.326 24.724 9.468 23.969 8.706C23.214 7.944 22.363 7.278 21.435 6.729C20.507 6.18 19.502 5.748 18.441 5.453C17.38 5.158 16.261 5 15.107 5C13.952 5 12.834 5.158 11.773 5.453C10.708 5.75 9.70299 6.182 8.77499 6.731C7.84699 7.28 6.99499 7.946 6.24099 8.707C5.48699 9.468 4.82799 10.327 4.28699 11.261L4.34299 11.292L4.39899 11.323L4.45499 11.354L4.51099 11.385C5.04099 10.471 5.68599 9.631 6.42499 8.885C7.16399 8.139 7.99799 7.487 8.90699 6.95C9.81599 6.413 10.8 5.989 11.84 5.7C12.878 5.413 13.973 5.258 15.104 5.258Z" fill="#4D4D4D"/>
<path d="M15.067 13.018C14.675 13.018 14.296 13.071 13.937 13.17C13.578 13.269 13.236 13.414 12.921 13.598C12.606 13.782 12.315 14.005 12.057 14.26C11.799 14.515 11.571 14.803 11.382 15.115L11.438 15.146L11.494 15.177L11.55 15.208L11.606 15.239C11.785 14.946 11.998 14.676 12.242 14.436C12.485 14.197 12.758 13.987 13.055 13.815C13.351 13.642 13.672 13.507 14.01 13.414C14.348 13.321 14.704 13.272 15.072 13.272C15.44 13.272 15.795 13.322 16.133 13.414C16.471 13.507 16.791 13.643 17.087 13.815C17.383 13.988 17.656 14.197 17.9 14.436C18.144 14.675 18.357 14.945 18.536 15.239L18.592 15.208L18.648 15.177L18.704 15.146L18.76 15.115C18.571 14.802 18.343 14.515 18.085 14.26C17.827 14.005 17.536 13.782 17.22 13.598C16.904 13.414 16.564 13.269 16.204 13.17C15.838 13.071 15.459 13.018 15.067 13.018Z" fill="#4D4D4D"/>
<path d="M2 10.264L2.031 10.209L2.061 10.153L2.092 10.098L2.122 10.043L5.363 11.822L8.605 13.601L11.846 15.38L15.088 17.159L15.057 17.214L15.027 17.27L14.997 17.325L14.966 17.381L11.725 15.601L8.483 13.822L5.242 12.043L2 10.264Z" fill="#4D4D4D"/>
<path d="M27.922 10.264L27.892 10.209L27.861 10.153L27.831 10.098L27.801 10.043L24.559 11.822L21.318 13.601L18.076 15.38L14.835 17.159L14.865 17.214L14.896 17.27L14.926 17.325L14.956 17.381L18.198 15.601L21.439 13.822L24.681 12.043L27.922 10.264Z" fill="#4D4D4D"/>
</svg>
