<svg width="30" height="30" viewBox="0 0 30 30" fill="none" xmlns="http://www.w3.org/2000/svg">
<rect width="30" height="30" fill="white"/>
<path d="M30 30H22.5H15H7.5H0V22.5003V15.0005V7.49975V0H7.5H15H22.5H30V7.49975V14.9995V22.4992V30ZM0.252287 29.7477H7.62614H15H22.3739H29.7477V22.3741V15.0005V7.62589V0.252279H22.3739H15H7.62614H0.252287V7.62589V14.9995V22.3731V29.7477Z" fill="#4D4D4D"/>
<path d="M9.19774 20.178L8.29174 22.584H10.1217L9.19774 20.178ZM10.6677 24L10.2357 22.878H8.17774L7.75774 24H7.43374L9.04774 19.746H9.35374L10.9857 24H10.6677ZM13.7001 24V22.038C13.7001 21.774 13.6401 21.572 13.5201 21.432C13.4001 21.288 13.2021 21.216 12.9261 21.216C12.7421 21.216 12.5861 21.254 12.4581 21.33C12.3301 21.402 12.2261 21.498 12.1461 21.618C12.0701 21.738 12.0141 21.876 11.9781 22.032C11.9461 22.184 11.9301 22.34 11.9301 22.5V24H11.6301V21H11.8941L11.9301 21.546C11.9701 21.45 12.0261 21.364 12.0981 21.288C12.1701 21.212 12.2501 21.148 12.3381 21.096C12.4301 21.04 12.5281 20.998 12.6321 20.97C12.7361 20.938 12.8401 20.922 12.9441 20.922C13.2921 20.922 13.5541 21.02 13.7301 21.216C13.9101 21.412 14.0001 21.68 14.0001 22.02V24H13.7001ZM17.3182 24.45C17.3182 24.366 17.3042 24.294 17.2762 24.234C17.2522 24.178 17.2182 24.126 17.1742 24.078C17.0342 23.93 16.7922 23.856 16.4482 23.856H15.6562C15.5282 23.888 15.4122 23.954 15.3082 24.054C15.2082 24.158 15.1582 24.298 15.1582 24.474C15.1582 24.554 15.1722 24.626 15.2002 24.69C15.2322 24.754 15.2722 24.808 15.3202 24.852C15.3722 24.904 15.4342 24.944 15.5062 24.972C15.5782 25.004 15.6522 25.028 15.7282 25.044C15.8082 25.064 15.8882 25.076 15.9682 25.08C16.0522 25.088 16.1322 25.092 16.2082 25.092C16.2842 25.092 16.3642 25.088 16.4482 25.08C16.5362 25.076 16.6242 25.064 16.7122 25.044C16.8002 25.028 16.8822 25.002 16.9582 24.966C17.0382 24.93 17.1062 24.884 17.1622 24.828C17.2062 24.784 17.2422 24.73 17.2702 24.666C17.3022 24.602 17.3182 24.53 17.3182 24.45ZM16.9642 21.972C16.9642 21.852 16.9422 21.744 16.8982 21.648C16.8542 21.552 16.7942 21.47 16.7182 21.402C16.6462 21.334 16.5582 21.282 16.4542 21.246C16.3542 21.21 16.2462 21.192 16.1302 21.192C16.0142 21.192 15.9042 21.21 15.8002 21.246C15.7002 21.282 15.6122 21.334 15.5362 21.402C15.4642 21.47 15.4062 21.552 15.3622 21.648C15.3222 21.744 15.3022 21.852 15.3022 21.972C15.3022 22.092 15.3222 22.2 15.3622 22.296C15.4062 22.392 15.4642 22.474 15.5362 22.542C15.6122 22.606 15.7002 22.656 15.8002 22.692C15.9042 22.724 16.0142 22.74 16.1302 22.74C16.2462 22.74 16.3542 22.724 16.4542 22.692C16.5582 22.656 16.6462 22.606 16.7182 22.542C16.7942 22.474 16.8542 22.392 16.8982 22.296C16.9422 22.2 16.9642 22.092 16.9642 21.972ZM17.6182 24.45C17.6182 24.566 17.5962 24.67 17.5522 24.762C17.5122 24.858 17.4582 24.94 17.3902 25.008C17.2622 25.14 17.0922 25.232 16.8802 25.284C16.6682 25.336 16.4422 25.362 16.2022 25.362C15.9742 25.362 15.7622 25.336 15.5662 25.284C15.3742 25.232 15.2142 25.142 15.0862 25.014C15.0182 24.946 14.9662 24.868 14.9302 24.78C14.8942 24.692 14.8762 24.59 14.8762 24.474C14.8762 24.33 14.9162 24.194 14.9962 24.066C15.0762 23.938 15.1862 23.84 15.3262 23.772C15.2222 23.74 15.1322 23.676 15.0562 23.58C14.9842 23.484 14.9482 23.384 14.9482 23.28C14.9482 23.152 14.9782 23.042 15.0382 22.95C15.1022 22.858 15.1922 22.778 15.3082 22.71C15.2162 22.618 15.1422 22.512 15.0862 22.392C15.0342 22.268 15.0082 22.128 15.0082 21.972C15.0082 21.812 15.0362 21.668 15.0922 21.54C15.1522 21.408 15.2322 21.296 15.3322 21.204C15.4322 21.112 15.5502 21.042 15.6862 20.994C15.8262 20.946 15.9742 20.922 16.1302 20.922C16.3942 20.922 16.6282 20.99 16.8322 21.126C16.8722 20.998 16.9482 20.898 17.0602 20.826C17.1762 20.754 17.3022 20.718 17.4382 20.718C17.4582 20.718 17.4762 20.72 17.4922 20.724C17.5122 20.728 17.5322 20.73 17.5522 20.73V20.988C17.5322 20.988 17.5122 20.986 17.4922 20.982C17.4762 20.978 17.4582 20.976 17.4382 20.976C17.3302 20.976 17.2382 21.004 17.1622 21.06C17.0902 21.116 17.0442 21.196 17.0242 21.3C17.1002 21.388 17.1582 21.488 17.1982 21.6C17.2422 21.712 17.2642 21.836 17.2642 21.972C17.2642 22.136 17.2342 22.282 17.1742 22.41C17.1142 22.538 17.0322 22.646 16.9282 22.734C16.8282 22.822 16.7082 22.89 16.5682 22.938C16.4322 22.986 16.2862 23.01 16.1302 23.01C15.9062 23.01 15.7062 22.964 15.5302 22.872C15.4502 22.904 15.3802 22.952 15.3202 23.016C15.2602 23.076 15.2302 23.152 15.2302 23.244C15.2302 23.316 15.2502 23.376 15.2902 23.424C15.3302 23.468 15.3802 23.502 15.4402 23.526C15.4962 23.546 15.5622 23.56 15.6382 23.568C15.7182 23.572 15.7862 23.574 15.8422 23.574H16.4962C16.6882 23.574 16.8582 23.598 17.0062 23.646C17.1582 23.694 17.2822 23.768 17.3782 23.868C17.4502 23.94 17.5082 24.022 17.5522 24.114C17.5962 24.206 17.6182 24.318 17.6182 24.45ZM19.1794 24C19.1474 24.008 19.1094 24.016 19.0654 24.024C19.0254 24.032 18.9734 24.036 18.9094 24.036C18.7174 24.036 18.5694 23.986 18.4654 23.886C18.3614 23.782 18.3094 23.62 18.3094 23.4V19.668H18.6094V23.388C18.6094 23.492 18.6294 23.578 18.6694 23.646C18.7094 23.714 18.7934 23.748 18.9214 23.748C18.9814 23.748 19.0274 23.748 19.0594 23.748C19.0954 23.748 19.1354 23.744 19.1794 23.736V24ZM22.0079 22.296C22.0039 22.152 21.9799 22.016 21.9359 21.888C21.8919 21.756 21.8279 21.64 21.7439 21.54C21.6599 21.436 21.5579 21.354 21.4379 21.294C21.3179 21.234 21.1819 21.204 21.0299 21.204C20.8739 21.204 20.7339 21.234 20.6099 21.294C20.4859 21.35 20.3799 21.428 20.2919 21.528C20.2079 21.628 20.1419 21.744 20.0939 21.876C20.0459 22.008 20.0219 22.148 20.0219 22.296H22.0079ZM22.3139 22.374C22.3139 22.41 22.3119 22.444 22.3079 22.476C22.3079 22.504 22.3079 22.536 22.3079 22.572H20.0159C20.0199 22.748 20.0479 22.914 20.0999 23.07C20.1559 23.222 20.2319 23.356 20.3279 23.472C20.4119 23.572 20.5119 23.65 20.6279 23.706C20.7479 23.762 20.8899 23.79 21.0539 23.79C21.3219 23.79 21.5399 23.702 21.7079 23.526C21.7639 23.47 21.8099 23.408 21.8459 23.34C21.8859 23.272 21.9159 23.192 21.9359 23.1H22.2479C22.2279 23.228 22.1879 23.346 22.1279 23.454C22.0679 23.558 21.9959 23.65 21.9119 23.73C21.8039 23.838 21.6759 23.924 21.5279 23.988C21.3839 24.048 21.2259 24.078 21.0539 24.078C20.8379 24.078 20.6519 24.038 20.4959 23.958C20.3399 23.878 20.2079 23.776 20.0999 23.652C19.9759 23.508 19.8799 23.34 19.8119 23.148C19.7479 22.952 19.7159 22.74 19.7159 22.512C19.7159 22.32 19.7359 22.134 19.7759 21.954C19.8159 21.774 19.8939 21.604 20.0099 21.444C20.2659 21.096 20.6059 20.922 21.0299 20.922C21.2339 20.922 21.4139 20.962 21.5699 21.042C21.7299 21.122 21.8639 21.23 21.9719 21.366C22.0839 21.498 22.1679 21.652 22.2239 21.828C22.2839 22.004 22.3139 22.186 22.3139 22.374Z" fill="#4D4D4D"/>
<path d="M15.104 5.258C16.235 5.258 17.33 5.412 18.37 5.701C19.41 5.99 20.394 6.413 21.303 6.951C22.212 7.489 23.046 8.141 23.785 8.887C24.524 9.633 25.169 10.474 25.699 11.388L25.755 11.356L25.811 11.324L25.867 11.292L25.923 11.26C25.382 10.326 24.724 9.468 23.969 8.706C23.214 7.944 22.363 7.278 21.435 6.729C20.507 6.18 19.502 5.748 18.441 5.453C17.38 5.158 16.261 5 15.107 5C13.952 5 12.834 5.158 11.773 5.453C10.708 5.75 9.70299 6.182 8.77499 6.731C7.84699 7.28 6.99499 7.946 6.24099 8.707C5.48699 9.468 4.82799 10.327 4.28699 11.261L4.34299 11.292L4.39899 11.323L4.45499 11.354L4.51099 11.385C5.04099 10.471 5.68599 9.631 6.42499 8.885C7.16399 8.139 7.99799 7.487 8.90699 6.95C9.81599 6.413 10.8 5.989 11.84 5.7C12.878 5.413 13.973 5.258 15.104 5.258Z" fill="#4D4D4D"/>
<path d="M15.067 13.018C14.675 13.018 14.296 13.071 13.937 13.17C13.578 13.269 13.236 13.414 12.921 13.598C12.606 13.782 12.315 14.005 12.057 14.26C11.799 14.515 11.571 14.803 11.382 15.115L11.438 15.146L11.494 15.177L11.55 15.208L11.606 15.239C11.785 14.946 11.998 14.676 12.242 14.436C12.485 14.197 12.758 13.987 13.055 13.815C13.351 13.642 13.672 13.507 14.01 13.414C14.348 13.321 14.704 13.272 15.072 13.272C15.44 13.272 15.795 13.322 16.133 13.414C16.471 13.507 16.791 13.643 17.087 13.815C17.383 13.988 17.656 14.197 17.9 14.436C18.144 14.675 18.357 14.945 18.536 15.239L18.592 15.208L18.648 15.177L18.704 15.146L18.76 15.115C18.571 14.802 18.343 14.515 18.085 14.26C17.827 14.005 17.536 13.782 17.22 13.598C16.904 13.414 16.564 13.269 16.204 13.17C15.838 13.071 15.459 13.018 15.067 13.018Z" fill="#4D4D4D"/>
<path d="M2 10.264L2.031 10.209L2.061 10.153L2.092 10.098L2.122 10.043L5.363 11.822L8.605 13.601L11.846 15.38L15.088 17.159L15.057 17.214L15.027 17.27L14.997 17.325L14.966 17.381L11.725 15.601L8.483 13.822L5.242 12.043L2 10.264Z" fill="#4D4D4D"/>
<path d="M27.922 10.264L27.892 10.209L27.861 10.153L27.831 10.098L27.801 10.043L24.559 11.822L21.318 13.601L18.076 15.38L14.835 17.159L14.865 17.214L14.896 17.27L14.926 17.325L14.956 17.381L18.198 15.601L21.439 13.822L24.681 12.043L27.922 10.264Z" fill="#4D4D4D"/>
</svg>
