<svg width="30" height="30" viewBox="0 0 30 30" fill="none" xmlns="http://www.w3.org/2000/svg">
<g clip-path="url(#clip0)">
<rect width="30" height="30" fill="white"/>
<path d="M30 30H22.5H15H7.5H0V22.5003V15.0005V7.49975V0H7.5H15H22.5H30V7.49975V14.9995V22.4992V30ZM0.252287 29.7477H7.62614H15H22.3739H29.7477V22.3741V15.0005V7.62589V0.252279H22.3739H15H7.62614H0.252287V7.62589V14.9995V22.3731V29.7477Z" fill="#4D4D4D"/>
<path d="M8.34394 24V20.202L7.30594 20.964V20.628L8.37394 19.83H8.64394V24H8.34394ZM10.5901 24V23.676L12.2581 21.594C12.3421 21.49 12.4181 21.366 12.4861 21.222C12.5581 21.074 12.5941 20.93 12.5941 20.79C12.5941 20.67 12.5721 20.564 12.5281 20.472C12.4881 20.376 12.4301 20.296 12.3541 20.232C12.2821 20.168 12.1961 20.12 12.0961 20.088C11.9961 20.052 11.8901 20.034 11.7781 20.034C11.4901 20.034 11.2721 20.124 11.1241 20.304C10.9761 20.48 10.9021 20.706 10.9021 20.982H10.5841C10.5841 20.802 10.6101 20.638 10.6621 20.49C10.7181 20.338 10.7981 20.208 10.9021 20.1C11.0061 19.988 11.1301 19.902 11.2741 19.842C11.4221 19.778 11.5901 19.746 11.7781 19.746C11.9381 19.746 12.0861 19.77 12.2221 19.818C12.3621 19.866 12.4801 19.936 12.5761 20.028C12.6761 20.116 12.7541 20.226 12.8101 20.358C12.8661 20.486 12.8941 20.63 12.8941 20.79C12.8941 20.97 12.8521 21.146 12.7681 21.318C12.6881 21.486 12.5941 21.636 12.4861 21.768L10.9261 23.712H13.0081V24H10.5901ZM16.4543 22.692C16.4543 22.888 16.4283 23.07 16.3763 23.238C16.3243 23.406 16.2443 23.554 16.1363 23.682C16.0323 23.806 15.8983 23.904 15.7343 23.976C15.5743 24.048 15.3863 24.084 15.1702 24.084C14.9743 24.084 14.7963 24.052 14.6363 23.988C14.4803 23.92 14.3443 23.828 14.2283 23.712C14.1163 23.596 14.0283 23.46 13.9643 23.304C13.9043 23.148 13.8723 22.978 13.8683 22.794H14.1743C14.1783 22.942 14.2043 23.078 14.2523 23.202C14.3043 23.326 14.3723 23.432 14.4563 23.52C14.5403 23.608 14.6423 23.676 14.7623 23.724C14.8823 23.772 15.0183 23.796 15.1702 23.796C15.4983 23.796 15.7423 23.694 15.9023 23.49C16.0663 23.286 16.1483 23.02 16.1483 22.692C16.1483 22.54 16.1303 22.398 16.0943 22.266C16.0583 22.13 16.0023 22.012 15.9263 21.912C15.8503 21.812 15.7523 21.734 15.6323 21.678C15.5163 21.618 15.3783 21.588 15.2183 21.588C15.0383 21.588 14.8683 21.626 14.7083 21.702C14.5483 21.774 14.4203 21.888 14.3243 22.044H13.9523L14.0483 19.83H16.3163V20.112H14.3363L14.2523 21.768C14.3563 21.6 14.4963 21.482 14.6723 21.414C14.8483 21.342 15.0303 21.306 15.2183 21.306C15.4263 21.306 15.6063 21.342 15.7583 21.414C15.9143 21.482 16.0423 21.578 16.1423 21.702C16.2463 21.826 16.3243 21.974 16.3763 22.146C16.4283 22.314 16.4543 22.496 16.4543 22.692ZM18.9644 20.658C18.9644 20.558 18.9464 20.464 18.9104 20.376C18.8744 20.284 18.8244 20.206 18.7604 20.142C18.6964 20.074 18.6204 20.022 18.5324 19.986C18.4444 19.946 18.3504 19.926 18.2504 19.926C18.1464 19.926 18.0504 19.946 17.9624 19.986C17.8784 20.022 17.8024 20.074 17.7344 20.142C17.6704 20.206 17.6204 20.284 17.5844 20.376C17.5484 20.464 17.5304 20.558 17.5304 20.658C17.5304 20.762 17.5484 20.858 17.5844 20.946C17.6204 21.034 17.6704 21.112 17.7344 21.18C17.8024 21.244 17.8784 21.296 17.9624 21.336C18.0504 21.372 18.1464 21.39 18.2504 21.39C18.3504 21.39 18.4444 21.372 18.5324 21.336C18.6204 21.296 18.6964 21.244 18.7604 21.18C18.8244 21.112 18.8744 21.034 18.9104 20.946C18.9464 20.858 18.9644 20.762 18.9644 20.658ZM19.2404 20.658C19.2404 20.794 19.2144 20.924 19.1624 21.048C19.1104 21.168 19.0384 21.274 18.9464 21.366C18.8584 21.454 18.7544 21.524 18.6344 21.576C18.5144 21.628 18.3864 21.654 18.2504 21.654C18.1144 21.654 17.9844 21.628 17.8604 21.576C17.7404 21.524 17.6344 21.454 17.5424 21.366C17.4544 21.274 17.3844 21.168 17.3324 21.048C17.2804 20.924 17.2544 20.794 17.2544 20.658C17.2544 20.522 17.2804 20.394 17.3324 20.274C17.3844 20.15 17.4544 20.044 17.5424 19.956C17.6344 19.864 17.7404 19.792 17.8604 19.74C17.9844 19.688 18.1144 19.662 18.2504 19.662C18.3864 19.662 18.5144 19.688 18.6344 19.74C18.7544 19.792 18.8584 19.864 18.9464 19.956C19.0384 20.044 19.1104 20.15 19.1624 20.274C19.2144 20.394 19.2404 20.522 19.2404 20.658ZM23.1558 22.698C23.1398 22.894 23.0918 23.076 23.0118 23.244C22.9318 23.412 22.8258 23.558 22.6938 23.682C22.5618 23.806 22.4058 23.904 22.2258 23.976C22.0498 24.044 21.8558 24.078 21.6438 24.078C21.4398 24.078 21.2378 24.038 21.0378 23.958C20.8418 23.878 20.6698 23.764 20.5218 23.616C20.4058 23.5 20.3138 23.372 20.2458 23.232C20.1818 23.092 20.1338 22.948 20.1018 22.8C20.0698 22.648 20.0478 22.494 20.0358 22.338C20.0278 22.178 20.0238 22.022 20.0238 21.87C20.0238 21.718 20.0278 21.564 20.0358 21.408C20.0478 21.252 20.0698 21.098 20.1018 20.946C20.1338 20.794 20.1818 20.65 20.2458 20.514C20.3138 20.374 20.4058 20.246 20.5218 20.13C20.6698 19.982 20.8418 19.868 21.0378 19.788C21.2378 19.708 21.4398 19.668 21.6438 19.668C21.8558 19.668 22.0498 19.704 22.2258 19.776C22.4058 19.844 22.5618 19.94 22.6938 20.064C22.8258 20.188 22.9318 20.334 23.0118 20.502C23.0918 20.67 23.1398 20.852 23.1558 21.048H22.8318C22.8198 20.892 22.7818 20.748 22.7178 20.616C22.6538 20.484 22.5698 20.37 22.4658 20.274C22.3658 20.178 22.2458 20.104 22.1058 20.052C21.9658 20 21.8118 19.974 21.6438 19.974C21.4518 19.974 21.2838 20.006 21.1398 20.07C20.9958 20.134 20.8658 20.224 20.7498 20.34C20.6538 20.44 20.5778 20.552 20.5218 20.676C20.4698 20.8 20.4298 20.93 20.4018 21.066C20.3778 21.198 20.3618 21.334 20.3538 21.474C20.3498 21.61 20.3478 21.742 20.3478 21.87C20.3478 21.998 20.3498 22.132 20.3538 22.272C20.3618 22.408 20.3798 22.544 20.4078 22.68C20.4358 22.816 20.4758 22.946 20.5278 23.07C20.5838 23.194 20.6598 23.306 20.7558 23.406C20.9918 23.65 21.2878 23.772 21.6438 23.772C21.8118 23.772 21.9658 23.746 22.1058 23.694C22.2458 23.642 22.3658 23.568 22.4658 23.472C22.5698 23.376 22.6538 23.262 22.7178 23.13C22.7818 22.998 22.8198 22.854 22.8318 22.698H23.1558Z" fill="#4D4D4D"/>
<path d="M15.104 5.258C16.235 5.258 17.33 5.412 18.37 5.701C19.41 5.99 20.394 6.413 21.303 6.951C22.212 7.489 23.046 8.141 23.785 8.887C24.524 9.633 25.169 10.474 25.699 11.388L25.755 11.356L25.811 11.324L25.867 11.292L25.923 11.26C25.382 10.326 24.724 9.468 23.969 8.706C23.214 7.944 22.363 7.278 21.435 6.729C20.507 6.18 19.502 5.748 18.441 5.453C17.38 5.158 16.261 5 15.107 5C13.952 5 12.834 5.158 11.773 5.453C10.708 5.75 9.70299 6.182 8.77499 6.731C7.84699 7.28 6.99499 7.946 6.24099 8.707C5.48699 9.468 4.82799 10.327 4.28699 11.261L4.34299 11.292L4.39899 11.323L4.45499 11.354L4.51099 11.385C5.04099 10.471 5.68599 9.631 6.42499 8.885C7.16399 8.139 7.99799 7.487 8.90699 6.95C9.81599 6.413 10.8 5.989 11.84 5.7C12.878 5.413 13.973 5.258 15.104 5.258Z" fill="#4D4D4D"/>
<path d="M15.067 13.018C14.675 13.018 14.296 13.071 13.937 13.17C13.578 13.269 13.236 13.414 12.921 13.598C12.606 13.782 12.315 14.005 12.057 14.26C11.799 14.515 11.571 14.803 11.382 15.115L11.438 15.146L11.494 15.177L11.55 15.208L11.606 15.239C11.785 14.946 11.998 14.676 12.242 14.436C12.485 14.197 12.758 13.987 13.055 13.815C13.351 13.642 13.672 13.507 14.01 13.414C14.348 13.321 14.704 13.272 15.072 13.272C15.44 13.272 15.795 13.322 16.133 13.414C16.471 13.507 16.791 13.643 17.087 13.815C17.383 13.988 17.656 14.197 17.9 14.436C18.144 14.675 18.357 14.945 18.536 15.239L18.592 15.208L18.648 15.177L18.704 15.146L18.76 15.115C18.571 14.802 18.343 14.515 18.085 14.26C17.827 14.005 17.536 13.782 17.22 13.598C16.904 13.414 16.564 13.269 16.204 13.17C15.838 13.071 15.459 13.018 15.067 13.018Z" fill="#4D4D4D"/>
<path d="M2 10.264L2.031 10.209L2.061 10.153L2.092 10.098L2.122 10.043L5.363 11.822L8.605 13.601L11.846 15.38L15.088 17.159L15.057 17.214L15.027 17.27L14.997 17.325L14.966 17.381L11.725 15.601L8.483 13.822L5.242 12.043L2 10.264Z" fill="#4D4D4D"/>
<path d="M27.922 10.264L27.892 10.209L27.861 10.153L27.831 10.098L27.801 10.043L24.559 11.822L21.318 13.601L18.076 15.38L14.835 17.159L14.865 17.214L14.896 17.27L14.926 17.325L14.956 17.381L18.198 15.601L21.439 13.822L24.681 12.043L27.922 10.264Z" fill="#4D4D4D"/>
</g>
<defs>
<clipPath id="clip0">
<rect width="30" height="30" fill="white"/>
</clipPath>
</defs>
</svg>
