<svg width="30" height="30" viewBox="0 0 30 30" fill="none" xmlns="http://www.w3.org/2000/svg">
<rect width="30" height="30" fill="white"/>
<path d="M30 30H22.5H15H7.5H0V22.5003V15.0005V7.49975V0H7.5H15H22.5H30V7.49975V14.9995V22.4992V30ZM0.252287 29.7477H7.62614H15H22.3739H29.7477V22.3741V15.0005V7.62589V0.252279H22.3739H15H7.62614H0.252287V7.62589V14.9995V22.3731V29.7477Z" fill="#4D4D4D"/>
<path d="M4.00003 13.755L4.01465 13.989L4.19011 14.6031L4.57028 15.2026L5.14052 15.7582" stroke="black" stroke-width="0.216" stroke-miterlimit="22.926" stroke-linecap="round" stroke-linejoin="round"/>
<path d="M4.00003 13.5942L4.01465 13.8281L4.19011 14.4422L4.57028 15.0415L5.14052 15.5973" stroke="black" stroke-width="0.216" stroke-miterlimit="22.926" stroke-linecap="round" stroke-linejoin="round"/>
<path d="M4.00003 12.9505L4.01465 13.1847L4.19011 13.7988L4.57028 14.3837L5.14052 14.9393" stroke="black" stroke-width="0.216" stroke-miterlimit="22.926" stroke-linecap="round" stroke-linejoin="round"/>
<path d="M4.00003 15.6559V13.755" stroke="black" stroke-width="0.216" stroke-miterlimit="22.926" stroke-linecap="round" stroke-linejoin="round"/>
<path d="M4.00003 13.5941V12.9505" stroke="black" stroke-width="0.216" stroke-miterlimit="22.926" stroke-linecap="round" stroke-linejoin="round"/>
<path d="M4.01465 13.6965L4.00003 13.755" stroke="black" stroke-width="0.216" stroke-miterlimit="22.926" stroke-linecap="round" stroke-linejoin="round"/>
<path d="M5.14052 15.7581V17.6444" stroke="black" stroke-width="0.216" stroke-miterlimit="22.926" stroke-linecap="round" stroke-linejoin="round"/>
<path d="M5.14052 14.9394V15.5973" stroke="black" stroke-width="0.216" stroke-miterlimit="22.926" stroke-linecap="round" stroke-linejoin="round"/>
<path d="M5.22823 15.6558V15.6851L5.2136 15.7143L5.19898 15.7289L5.18439 15.7435" stroke="black" stroke-width="0.216" stroke-miterlimit="22.926" stroke-linecap="round" stroke-linejoin="round"/>
<path d="M4.20473 14.4569L4.24859 14.6031L4.61413 15.1879" stroke="black" stroke-width="0.216" stroke-miterlimit="22.926" stroke-linecap="round" stroke-linejoin="round"/>
<path d="M5.78387 12.9505V13.0531L5.91549 13.5649L6.20792 14.0472L6.67579 14.5153" stroke="black" stroke-width="0.216" stroke-miterlimit="22.926" stroke-linecap="round" stroke-linejoin="round"/>
<path d="M4.62877 15.0856L4.65798 15.1439" stroke="black" stroke-width="0.216" stroke-miterlimit="22.926" stroke-linecap="round" stroke-linejoin="round"/>
<path d="M6.86587 13.9448L6.47107 14.2668L6.45648 14.2814" stroke="black" stroke-width="0.216" stroke-miterlimit="22.926" stroke-linecap="round" stroke-linejoin="round"/>
<path d="M12.6561 23.727L12.7292 23.7709" stroke="black" stroke-width="0.216" stroke-miterlimit="22.926" stroke-linecap="round" stroke-linejoin="round"/>
<path d="M12.7877 23.6829L12.8608 23.7416" stroke="black" stroke-width="0.216" stroke-miterlimit="22.926" stroke-linecap="round" stroke-linejoin="round"/>
<path d="M12.9193 23.6539L12.9778 23.6977" stroke="black" stroke-width="0.216" stroke-miterlimit="22.926" stroke-linecap="round" stroke-linejoin="round"/>
<path d="M13.0509 23.6101L13.1093 23.6686" stroke="black" stroke-width="0.216" stroke-miterlimit="22.926" stroke-linecap="round" stroke-linejoin="round"/>
<path d="M13.1679 23.5808L13.2409 23.6247" stroke="black" stroke-width="0.216" stroke-miterlimit="22.926" stroke-linecap="round" stroke-linejoin="round"/>
<path d="M5.14052 17.6444L12.6561 23.727" stroke="black" stroke-width="0.216" stroke-miterlimit="22.926" stroke-linecap="round" stroke-linejoin="round"/>
<path d="M13.2994 23.5513L13.3726 23.5954" stroke="black" stroke-width="0.216" stroke-miterlimit="22.926" stroke-linecap="round" stroke-linejoin="round"/>
<path d="M13.431 23.5077L13.4895 23.5514" stroke="black" stroke-width="0.216" stroke-miterlimit="22.926" stroke-linecap="round" stroke-linejoin="round"/>
<path d="M13.5626 23.4785L13.6211 23.5223" stroke="black" stroke-width="0.216" stroke-miterlimit="22.926" stroke-linecap="round" stroke-linejoin="round"/>
<path d="M13.6942 23.4346L13.7527 23.4931" stroke="black" stroke-width="0.216" stroke-miterlimit="22.926" stroke-linecap="round" stroke-linejoin="round"/>
<path d="M13.8112 23.4053L13.8843 23.4489" stroke="black" stroke-width="0.216" stroke-miterlimit="22.926" stroke-linecap="round" stroke-linejoin="round"/>
<path d="M13.9428 23.3615L14.0013 23.42" stroke="black" stroke-width="0.216" stroke-miterlimit="22.926" stroke-linecap="round" stroke-linejoin="round"/>
<path d="M14.0744 23.3322L14.1329 23.3761" stroke="black" stroke-width="0.216" stroke-miterlimit="22.926" stroke-linecap="round" stroke-linejoin="round"/>
<path d="M4.61415 15.1879L5.18441 15.7436" stroke="black" stroke-width="0.216" stroke-miterlimit="22.926" stroke-linecap="round" stroke-linejoin="round"/>
<path d="M4.65797 15.1438L5.22823 15.685" stroke="black" stroke-width="0.216" stroke-miterlimit="22.926" stroke-linecap="round" stroke-linejoin="round"/>
<path d="M12.6999 21.6654H12.7292" stroke="black" stroke-width="0.216" stroke-miterlimit="22.926" stroke-linecap="round" stroke-linejoin="round"/>
<path d="M5.14052 15.7581L12.6561 21.8262" stroke="black" stroke-width="0.216" stroke-miterlimit="22.926" stroke-linecap="round" stroke-linejoin="round"/>
<path d="M5.18439 15.7435L12.6999 21.8115" stroke="black" stroke-width="0.216" stroke-miterlimit="22.926" stroke-linecap="round" stroke-linejoin="round"/>
<path d="M5.22824 15.6851L12.7438 21.7677" stroke="black" stroke-width="0.216" stroke-miterlimit="22.926" stroke-linecap="round" stroke-linejoin="round"/>
<path d="M5.14052 15.5974L12.6561 21.6654" stroke="black" stroke-width="0.216" stroke-miterlimit="22.926" stroke-linecap="round" stroke-linejoin="round"/>
<path d="M12.6999 21.6654L12.7438 21.6946" stroke="black" stroke-width="0.216" stroke-miterlimit="22.926" stroke-linecap="round" stroke-linejoin="round"/>
<path d="M5.14052 14.9394L12.6561 21.022" stroke="black" stroke-width="0.216" stroke-miterlimit="22.926" stroke-linecap="round" stroke-linejoin="round"/>
<path d="M12.7292 21.6654V21.68L12.7438 21.6946" stroke="black" stroke-width="0.216" stroke-miterlimit="22.926" stroke-linecap="round" stroke-linejoin="round"/>
<path d="M14.1914 21.4022H14.1621" stroke="black" stroke-width="0.216" stroke-miterlimit="22.926" stroke-linecap="round" stroke-linejoin="round"/>
<path d="M12.6561 21.6654H12.6999" stroke="black" stroke-width="0.216" stroke-miterlimit="22.926" stroke-linecap="round" stroke-linejoin="round"/>
<path d="M14.1621 21.4022H14.1329" stroke="black" stroke-width="0.216" stroke-miterlimit="22.926" stroke-linecap="round" stroke-linejoin="round"/>
<path d="M14.1183 21.3729L14.1621 21.4022" stroke="black" stroke-width="0.216" stroke-miterlimit="22.926" stroke-linecap="round" stroke-linejoin="round"/>
<path d="M14.1183 21.3436L14.1914 21.4021" stroke="black" stroke-width="0.216" stroke-miterlimit="22.926" stroke-linecap="round" stroke-linejoin="round"/>
<path d="M5.18439 15.7435L5.14052 15.7581" stroke="black" stroke-width="0.216" stroke-miterlimit="22.926" stroke-linecap="round" stroke-linejoin="round"/>
<path d="M26.9561 17.8342H27" stroke="black" stroke-width="0.216" stroke-miterlimit="22.926" stroke-linecap="round" stroke-linejoin="round"/>
<path d="M25.5086 18.0976H25.4647" stroke="black" stroke-width="0.216" stroke-miterlimit="22.926" stroke-linecap="round" stroke-linejoin="round"/>
<path d="M14.1914 20.5834L13.6942 20.6419L13.1679 20.7881L12.6561 21.022" stroke="black" stroke-width="0.216" stroke-miterlimit="22.926" stroke-linecap="round" stroke-linejoin="round"/>
<path d="M6.67577 14.5153L14.1913 20.5833" stroke="black" stroke-width="0.216" stroke-miterlimit="22.926" stroke-linecap="round" stroke-linejoin="round"/>
<path d="M14.1329 21.4022H14.1481" stroke="black" stroke-width="0.216" stroke-miterlimit="22.926" stroke-linecap="round" stroke-linejoin="round"/>
<path d="M12.6561 21.022V21.6654" stroke="black" stroke-width="0.216" stroke-miterlimit="22.926" stroke-linecap="round" stroke-linejoin="round"/>
<path d="M12.6561 21.8261V23.727" stroke="black" stroke-width="0.216" stroke-miterlimit="22.926" stroke-linecap="round" stroke-linejoin="round"/>
<path d="M12.7438 21.6945V21.7677" stroke="black" stroke-width="0.216" stroke-miterlimit="22.926" stroke-linecap="round" stroke-linejoin="round"/>
<path d="M17.9492 12.1759L17.993 12.1613" stroke="black" stroke-width="0.216" stroke-miterlimit="22.926" stroke-linecap="round" stroke-linejoin="round"/>
<path d="M14.1329 21.4022L14.1183 21.3729" stroke="black" stroke-width="0.216" stroke-miterlimit="22.926" stroke-linecap="round" stroke-linejoin="round"/>
<path d="M17.993 12.1612H18.0076L18.0223 12.132V12.1171" stroke="black" stroke-width="0.216" stroke-miterlimit="22.926" stroke-linecap="round" stroke-linejoin="round"/>
<path d="M14.206 23.2884L14.1914 21.4022" stroke="black" stroke-width="0.216" stroke-miterlimit="22.926" stroke-linecap="round" stroke-linejoin="round"/>
<path d="M14.1183 21.373V21.3145" stroke="black" stroke-width="0.216" stroke-miterlimit="22.926" stroke-linecap="round" stroke-linejoin="round"/>
<path d="M14.1914 21.2414V20.5834" stroke="black" stroke-width="0.216" stroke-miterlimit="22.926" stroke-linecap="round" stroke-linejoin="round"/>
<path d="M12.7438 21.7677L12.7292 21.7823L12.6999 21.8116" stroke="black" stroke-width="0.216" stroke-miterlimit="22.926" stroke-linecap="round" stroke-linejoin="round"/>
<path d="M25.5238 18.0976H25.5086" stroke="black" stroke-width="0.216" stroke-miterlimit="22.926" stroke-linecap="round" stroke-linejoin="round"/>
<path d="M14.1183 21.3144L14.1329 21.2852V21.2706L14.1621 21.2557" stroke="black" stroke-width="0.216" stroke-miterlimit="22.926" stroke-linecap="round" stroke-linejoin="round"/>
<path d="M17.9492 14.0767V12.1759" stroke="black" stroke-width="0.216" stroke-miterlimit="22.926" stroke-linecap="round" stroke-linejoin="round"/>
<path d="M17.9492 12.0296V11.3716" stroke="black" stroke-width="0.216" stroke-miterlimit="22.926" stroke-linecap="round" stroke-linejoin="round"/>
<path d="M18.0222 12.1171V12.0881" stroke="black" stroke-width="0.216" stroke-miterlimit="22.926" stroke-linecap="round" stroke-linejoin="round"/>
<path d="M12.7292 23.7709L12.7877 23.6829" stroke="black" stroke-width="0.216" stroke-miterlimit="22.926" stroke-linecap="round" stroke-linejoin="round"/>
<path d="M12.8608 23.7416L12.9193 23.6539" stroke="black" stroke-width="0.216" stroke-miterlimit="22.926" stroke-linecap="round" stroke-linejoin="round"/>
<path d="M12.9778 23.6978L13.0509 23.6101" stroke="black" stroke-width="0.216" stroke-miterlimit="22.926" stroke-linecap="round" stroke-linejoin="round"/>
<path d="M13.1093 23.6685L13.1679 23.5808" stroke="black" stroke-width="0.216" stroke-miterlimit="22.926" stroke-linecap="round" stroke-linejoin="round"/>
<path d="M13.241 23.6246L13.2994 23.5513" stroke="black" stroke-width="0.216" stroke-miterlimit="22.926" stroke-linecap="round" stroke-linejoin="round"/>
<path d="M13.3726 23.5955L13.431 23.5077" stroke="black" stroke-width="0.216" stroke-miterlimit="22.926" stroke-linecap="round" stroke-linejoin="round"/>
<path d="M13.4895 23.5513L13.5626 23.4785" stroke="black" stroke-width="0.216" stroke-miterlimit="22.926" stroke-linecap="round" stroke-linejoin="round"/>
<path d="M6.67578 14.5153L6.17864 14.5591L5.65228 14.7054L5.14052 14.9393" stroke="black" stroke-width="0.216" stroke-miterlimit="22.926" stroke-linecap="round" stroke-linejoin="round"/>
<path d="M25.5378 20.2032L25.4647 20.1591" stroke="black" stroke-width="0.216" stroke-miterlimit="22.926" stroke-linecap="round" stroke-linejoin="round"/>
<path d="M13.6211 23.5223L13.6942 23.4346" stroke="black" stroke-width="0.216" stroke-miterlimit="22.926" stroke-linecap="round" stroke-linejoin="round"/>
<path d="M13.7527 23.493L13.8112 23.4053" stroke="black" stroke-width="0.216" stroke-miterlimit="22.926" stroke-linecap="round" stroke-linejoin="round"/>
<path d="M13.8843 23.449L13.9428 23.3615" stroke="black" stroke-width="0.216" stroke-miterlimit="22.926" stroke-linecap="round" stroke-linejoin="round"/>
<path d="M14.0013 23.42L14.0744 23.3322" stroke="black" stroke-width="0.216" stroke-miterlimit="22.926" stroke-linecap="round" stroke-linejoin="round"/>
<path d="M14.1329 23.3761L14.206 23.2883" stroke="black" stroke-width="0.216" stroke-miterlimit="22.926" stroke-linecap="round" stroke-linejoin="round"/>
<path d="M25.5385 18.0976H25.5232" stroke="black" stroke-width="0.216" stroke-miterlimit="22.926" stroke-linecap="round" stroke-linejoin="round"/>
<path d="M17.7591 13.9448L17.3935 13.6965C14.6766 12.1731 9.60624 12.1855 6.96824 13.8719L6.86589 13.9448" stroke="black" stroke-width="0.216" stroke-miterlimit="22.926" stroke-linecap="round" stroke-linejoin="round"/>
<path d="M17.7591 13.9304L17.3351 13.6526C14.6088 12.1507 9.67278 12.1492 7.02673 13.8281L6.86589 13.9448" stroke="black" stroke-width="0.216" stroke-miterlimit="22.926" stroke-linecap="round" stroke-linejoin="round"/>
<path d="M25.6548 20.159L25.5963 20.1154" stroke="black" stroke-width="0.216" stroke-miterlimit="22.926" stroke-linecap="round" stroke-linejoin="round"/>
<path d="M25.7864 20.1301L25.7279 20.0862" stroke="black" stroke-width="0.216" stroke-miterlimit="22.926" stroke-linecap="round" stroke-linejoin="round"/>
<path d="M25.918 20.0862L25.8449 20.0423" stroke="black" stroke-width="0.216" stroke-miterlimit="22.926" stroke-linecap="round" stroke-linejoin="round"/>
<path d="M26.0496 20.0569L25.9765 20.0131" stroke="black" stroke-width="0.216" stroke-miterlimit="22.926" stroke-linecap="round" stroke-linejoin="round"/>
<path d="M26.1666 20.0275L26.1081 19.9693" stroke="black" stroke-width="0.216" stroke-miterlimit="22.926" stroke-linecap="round" stroke-linejoin="round"/>
<path d="M17.9492 14.0767L17.7591 13.9304" stroke="black" stroke-width="0.216" stroke-miterlimit="22.926" stroke-linecap="round" stroke-linejoin="round"/>
<path d="M26.2982 19.9839L26.2397 19.94" stroke="black" stroke-width="0.216" stroke-miterlimit="22.926" stroke-linecap="round" stroke-linejoin="round"/>
<path d="M25.4647 20.1591L17.9492 14.0767" stroke="black" stroke-width="0.216" stroke-miterlimit="22.926" stroke-linecap="round" stroke-linejoin="round"/>
<path d="M14.1621 21.2557L14.1914 21.2413" stroke="black" stroke-width="0.216" stroke-miterlimit="22.926" stroke-linecap="round" stroke-linejoin="round"/>
<path d="M12.6999 21.8116L12.6561 21.8263" stroke="black" stroke-width="0.216" stroke-miterlimit="22.926" stroke-linecap="round" stroke-linejoin="round"/>
<path d="M26.9415 17.8342H26.9568" stroke="black" stroke-width="0.216" stroke-miterlimit="22.926" stroke-linecap="round" stroke-linejoin="round"/>
<path d="M26.4297 19.9546L26.3567 19.8959" stroke="black" stroke-width="0.216" stroke-miterlimit="22.926" stroke-linecap="round" stroke-linejoin="round"/>
<path d="M26.5468 19.9107L26.4883 19.8668" stroke="black" stroke-width="0.216" stroke-miterlimit="22.926" stroke-linecap="round" stroke-linejoin="round"/>
<path d="M26.6783 19.8815L26.6198 19.8377" stroke="black" stroke-width="0.216" stroke-miterlimit="22.926" stroke-linecap="round" stroke-linejoin="round"/>
<path d="M26.8099 19.8376L26.7514 19.7935" stroke="black" stroke-width="0.216" stroke-miterlimit="22.926" stroke-linecap="round" stroke-linejoin="round"/>
<path d="M26.9415 19.8084L26.8684 19.7645" stroke="black" stroke-width="0.216" stroke-miterlimit="22.926" stroke-linecap="round" stroke-linejoin="round"/>
<path d="M27 17.6736L26.9561 17.6882" stroke="black" stroke-width="0.216" stroke-miterlimit="22.926" stroke-linecap="round" stroke-linejoin="round"/>
<path d="M25.4647 18.2585L25.5086 18.2439" stroke="black" stroke-width="0.216" stroke-miterlimit="22.926" stroke-linecap="round" stroke-linejoin="round"/>
<path d="M17.9492 12.1758L17.3204 11.7664C14.6062 10.1456 8.12677 10.1273 6.0617 12.8482L5.85699 13.3161" stroke="black" stroke-width="0.216" stroke-miterlimit="22.926" stroke-linecap="round" stroke-linejoin="round"/>
<path d="M17.993 12.1613L17.3643 11.7516C14.7104 10.1125 7.99345 10.1128 6.01781 12.8482L5.84235 13.2433" stroke="black" stroke-width="0.216" stroke-miterlimit="22.926" stroke-linecap="round" stroke-linejoin="round"/>
<path d="M18.0223 12.1171L17.3935 11.6933C14.7092 10.1612 9.55894 10.1729 6.95359 11.8687L6.38335 12.3074" stroke="black" stroke-width="0.216" stroke-miterlimit="22.926" stroke-linecap="round" stroke-linejoin="round"/>
<path d="M17.9492 12.0296L17.3204 11.6056L16.5747 11.24C15.0192 10.6371 13.2039 10.4078 11.5448 10.5233L10.4921 10.6259L9.48318 10.8014C8.24082 11.1101 6.82616 11.5983 6.06169 12.7022L5.84236 13.1993L5.82774 13.2432" stroke="black" stroke-width="0.216" stroke-miterlimit="22.926" stroke-linecap="round" stroke-linejoin="round"/>
<path d="M17.9492 11.3716L17.3204 10.9476L16.5747 10.5967C14.961 9.93649 13.2717 9.79125 11.5448 9.86558L10.4921 9.96793L9.48319 10.1434C8.33611 10.4049 6.73698 11.007 6.0617 12.0442L5.84237 12.5414L5.78389 12.9505" stroke="black" stroke-width="0.216" stroke-miterlimit="22.926" stroke-linecap="round" stroke-linejoin="round"/>
<path d="M25.4647 18.2585L17.9492 12.1759" stroke="black" stroke-width="0.216" stroke-miterlimit="22.926" stroke-linecap="round" stroke-linejoin="round"/>
<path d="M25.5086 18.2439L17.993 12.1613" stroke="black" stroke-width="0.216" stroke-miterlimit="22.926" stroke-linecap="round" stroke-linejoin="round"/>
<path d="M25.5378 18.1998L18.0222 12.1171" stroke="black" stroke-width="0.216" stroke-miterlimit="22.926" stroke-linecap="round" stroke-linejoin="round"/>
<path d="M25.4647 18.0977L17.9492 12.0297" stroke="black" stroke-width="0.216" stroke-miterlimit="22.926" stroke-linecap="round" stroke-linejoin="round"/>
<path d="M25.5378 18.1269L25.5086 18.0976" stroke="black" stroke-width="0.216" stroke-miterlimit="22.926" stroke-linecap="round" stroke-linejoin="round"/>
<path d="M26.9561 17.8342L26.9269 17.8052" stroke="black" stroke-width="0.216" stroke-miterlimit="22.926" stroke-linecap="round" stroke-linejoin="round"/>
<path d="M27 17.8342L26.9269 17.7614" stroke="black" stroke-width="0.216" stroke-miterlimit="22.926" stroke-linecap="round" stroke-linejoin="round"/>
<path d="M25.5086 18.2439L25.5232 18.2292L25.5378 18.2146V18.1997" stroke="black" stroke-width="0.216" stroke-miterlimit="22.926" stroke-linecap="round" stroke-linejoin="round"/>
<path d="M26.9561 17.6882L26.9269 17.7174V17.7321" stroke="black" stroke-width="0.216" stroke-miterlimit="22.926" stroke-linecap="round" stroke-linejoin="round"/>
<path d="M19.4844 10.9476L18.7387 10.4359C15.2919 8.38784 7.60499 8.38662 4.70184 11.3717L4.26319 11.9565L4.04386 12.556L4 12.9506" stroke="black" stroke-width="0.216" stroke-miterlimit="22.926" stroke-linecap="round" stroke-linejoin="round"/>
<path d="M17.9492 11.3717L18.4609 11.1377L18.9727 10.9915L19.4844 10.9477" stroke="black" stroke-width="0.216" stroke-miterlimit="22.926" stroke-linecap="round" stroke-linejoin="round"/>
<path d="M25.4647 17.4543L25.9765 17.2057L26.4883 17.0741L27 17.0157" stroke="black" stroke-width="0.216" stroke-miterlimit="22.926" stroke-linecap="round" stroke-linejoin="round"/>
<path d="M27 17.0157L19.4844 10.9477" stroke="black" stroke-width="0.216" stroke-miterlimit="22.926" stroke-linecap="round" stroke-linejoin="round"/>
<path d="M25.4647 17.4543L17.9492 11.3716" stroke="black" stroke-width="0.216" stroke-miterlimit="22.926" stroke-linecap="round" stroke-linejoin="round"/>
<path d="M25.4647 18.0976V17.4543" stroke="black" stroke-width="0.216" stroke-miterlimit="22.926" stroke-linecap="round" stroke-linejoin="round"/>
<path d="M25.4647 20.1591V18.2585" stroke="black" stroke-width="0.216" stroke-miterlimit="22.926" stroke-linecap="round" stroke-linejoin="round"/>
<path d="M25.5378 18.1998V18.0976" stroke="black" stroke-width="0.216" stroke-miterlimit="22.926" stroke-linecap="round" stroke-linejoin="round"/>
<path d="M25.5963 20.1154L25.5378 20.2031" stroke="black" stroke-width="0.216" stroke-miterlimit="22.926" stroke-linecap="round" stroke-linejoin="round"/>
<path d="M25.7279 20.0862L25.6548 20.1591" stroke="black" stroke-width="0.216" stroke-miterlimit="22.926" stroke-linecap="round" stroke-linejoin="round"/>
<path d="M25.8449 20.0423L25.7864 20.1301" stroke="black" stroke-width="0.216" stroke-miterlimit="22.926" stroke-linecap="round" stroke-linejoin="round"/>
<path d="M25.9765 20.0131L25.918 20.0862" stroke="black" stroke-width="0.216" stroke-miterlimit="22.926" stroke-linecap="round" stroke-linejoin="round"/>
<path d="M26.1081 19.9693L26.0496 20.057" stroke="black" stroke-width="0.216" stroke-miterlimit="22.926" stroke-linecap="round" stroke-linejoin="round"/>
<path d="M26.2397 19.94L26.1666 20.0275" stroke="black" stroke-width="0.216" stroke-miterlimit="22.926" stroke-linecap="round" stroke-linejoin="round"/>
<path d="M26.3567 19.8959L26.2982 19.9838" stroke="black" stroke-width="0.216" stroke-miterlimit="22.926" stroke-linecap="round" stroke-linejoin="round"/>
<path d="M26.4883 19.8668L26.4297 19.9546" stroke="black" stroke-width="0.216" stroke-miterlimit="22.926" stroke-linecap="round" stroke-linejoin="round"/>
<path d="M26.6198 19.8377L26.5468 19.9108" stroke="black" stroke-width="0.216" stroke-miterlimit="22.926" stroke-linecap="round" stroke-linejoin="round"/>
<path d="M26.7515 19.7935L26.6783 19.8815" stroke="black" stroke-width="0.216" stroke-miterlimit="22.926" stroke-linecap="round" stroke-linejoin="round"/>
<path d="M26.8684 19.7645L26.8099 19.8376" stroke="black" stroke-width="0.216" stroke-miterlimit="22.926" stroke-linecap="round" stroke-linejoin="round"/>
<path d="M26.9269 17.8052V17.8198L26.9415 17.8342" stroke="black" stroke-width="0.216" stroke-miterlimit="22.926" stroke-linecap="round" stroke-linejoin="round"/>
<path d="M27 17.8342V19.7207" stroke="black" stroke-width="0.216" stroke-miterlimit="22.926" stroke-linecap="round" stroke-linejoin="round"/>
<path d="M26.9269 17.7321V17.8052" stroke="black" stroke-width="0.216" stroke-miterlimit="22.926" stroke-linecap="round" stroke-linejoin="round"/>
<path d="M27 17.0157V17.6736" stroke="black" stroke-width="0.216" stroke-miterlimit="22.926" stroke-linecap="round" stroke-linejoin="round"/>
<path d="M27 19.7207L26.9415 19.8084" stroke="black" stroke-width="0.216" stroke-miterlimit="22.926" stroke-linecap="round" stroke-linejoin="round"/>
<path d="M4.00003 15.6558L4.01465 15.8898L4.19011 16.5036L4.57028 17.0887L5.14052 17.6444" stroke="black" stroke-width="0.216" stroke-miterlimit="22.926" stroke-linecap="round" stroke-linejoin="round"/>
</svg>
