<svg width="30" height="30" viewBox="0 0 30 30" fill="none" xmlns="http://www.w3.org/2000/svg">
<rect width="30" height="30" fill="white"/>
<path d="M30 30H22.5H15H7.5H0V22.5003V15.0005V7.49975V0H7.5H15H22.5H30V7.49975V14.9995V22.4992V30ZM0.252287 29.7477H7.62614H15H22.3739H29.7477V22.3741V15.0005V7.62589V0.252279H22.3739H15H7.62614H0.252287V7.62589V14.9995V22.3731V29.7477Z" fill="#4D4D4D"/>
<path d="M15.2457 22.3448H15.2733" stroke="black" stroke-width="0.216" stroke-miterlimit="22.926" stroke-linecap="round" stroke-linejoin="round"/>
<path d="M15.1788 22.3716L15.2857 22.4384" stroke="black" stroke-width="0.216" stroke-miterlimit="22.926" stroke-linecap="round" stroke-linejoin="round"/>
<path d="M15.2457 22.3448L15.2858 22.3716" stroke="black" stroke-width="0.216" stroke-miterlimit="22.926" stroke-linecap="round" stroke-linejoin="round"/>
<path d="M15.7403 22.2111L15.6868 22.1577" stroke="black" stroke-width="0.216" stroke-miterlimit="22.926" stroke-linecap="round" stroke-linejoin="round"/>
<path d="M15.2724 22.3448V22.3587L15.2862 22.3725" stroke="black" stroke-width="0.216" stroke-miterlimit="22.926" stroke-linecap="round" stroke-linejoin="round"/>
<path d="M15.7403 22.0775L15.6868 22.0374" stroke="black" stroke-width="0.216" stroke-miterlimit="22.926" stroke-linecap="round" stroke-linejoin="round"/>
<path d="M15.2858 22.3716V22.4384" stroke="black" stroke-width="0.216" stroke-miterlimit="22.926" stroke-linecap="round" stroke-linejoin="round"/>
<path d="M15.0853 22.5053L15.0986 22.4385" stroke="black" stroke-width="0.216" stroke-miterlimit="22.926" stroke-linecap="round" stroke-linejoin="round"/>
<path d="M15.0986 22.4384V22.4117L15.1253 22.385" stroke="black" stroke-width="0.216" stroke-miterlimit="22.926" stroke-linecap="round" stroke-linejoin="round"/>
<path d="M15.6868 22.0374L15.7537 21.9438" stroke="black" stroke-width="0.216" stroke-miterlimit="22.926" stroke-linecap="round" stroke-linejoin="round"/>
<path d="M15.6868 22.1577L15.7403 22.0775" stroke="black" stroke-width="0.216" stroke-miterlimit="22.926" stroke-linecap="round" stroke-linejoin="round"/>
<path d="M15.6868 22.2914L15.7403 22.2111" stroke="black" stroke-width="0.216" stroke-miterlimit="22.926" stroke-linecap="round" stroke-linejoin="round"/>
<path d="M15.1254 22.385L15.2457 22.3448" stroke="black" stroke-width="0.216" stroke-miterlimit="22.926" stroke-linecap="round" stroke-linejoin="round"/>
<path d="M14.7109 22.639L15.0852 22.5053" stroke="black" stroke-width="0.216" stroke-miterlimit="22.926" stroke-linecap="round" stroke-linejoin="round"/>
<path d="M15.2858 22.4384L15.6868 22.2914" stroke="black" stroke-width="0.216" stroke-miterlimit="22.926" stroke-linecap="round" stroke-linejoin="round"/>
<path d="M3.2941 11.9039L3.22726 12.1713V12.7596L3.41442 13.3477L3.81548 13.9226L4.39033 14.4707L5.13897 14.9654" stroke="black" stroke-width="0.216" stroke-miterlimit="22.926" stroke-linecap="round" stroke-linejoin="round"/>
<path d="M3.29411 11.9039L3.09358 12.6659L3 13.4547L3.02674 14.2301L3.16042 15.0188" stroke="black" stroke-width="0.216" stroke-miterlimit="22.926" stroke-linecap="round" stroke-linejoin="round"/>
<path d="M3.94913 12.3451V12.8264L4.13629 13.3611L4.49725 13.8825L5.01862 14.3772" stroke="black" stroke-width="0.216" stroke-miterlimit="22.926" stroke-linecap="round" stroke-linejoin="round"/>
<path d="M3.96252 12.2783V12.7596L4.14968 13.2943L4.49727 13.8157L5.01864 14.3103" stroke="black" stroke-width="0.216" stroke-miterlimit="22.926" stroke-linecap="round" stroke-linejoin="round"/>
<path d="M3.90903 12.3317V12.8665L4.09619 13.4013L4.44377 13.9226L4.97852 14.4306" stroke="black" stroke-width="0.216" stroke-miterlimit="22.926" stroke-linecap="round" stroke-linejoin="round"/>
<path d="M3.90903 12.3318L4.09619 11.8104L4.1363 11.7569" stroke="black" stroke-width="0.216" stroke-miterlimit="22.926" stroke-linecap="round" stroke-linejoin="round"/>
<path d="M3.1604 15.0188L3.33419 15.4734L3.72188 16.0349L4.29673 16.583L5.04537 17.0776" stroke="black" stroke-width="0.216" stroke-miterlimit="22.926" stroke-linecap="round" stroke-linejoin="round"/>
<path d="M5.70045 14.7649V14.8317" stroke="black" stroke-width="0.216" stroke-miterlimit="22.926" stroke-linecap="round" stroke-linejoin="round"/>
<path d="M5.13899 14.9654L5.0053 15.7007L4.97856 16.4226L5.04541 17.0776" stroke="black" stroke-width="0.216" stroke-miterlimit="22.926" stroke-linecap="round" stroke-linejoin="round"/>
<path d="M5.70046 14.8317L5.68709 14.8584L5.66035 14.8851" stroke="black" stroke-width="0.216" stroke-miterlimit="22.926" stroke-linecap="round" stroke-linejoin="round"/>
<path d="M5.64697 10.9147L5.21917 11.2489L4.80474 11.7168L4.59085 12.2114L4.53737 12.7194L4.68442 13.2408L5.00527 13.7488L5.35286 14.0964" stroke="black" stroke-width="0.216" stroke-miterlimit="22.926" stroke-linecap="round" stroke-linejoin="round"/>
<path d="M5.63358 11.0484L5.20578 11.3826L4.80473 11.8505L4.57746 12.3451L4.55072 12.7462" stroke="black" stroke-width="0.216" stroke-miterlimit="22.926" stroke-linecap="round" stroke-linejoin="round"/>
<path d="M5.63358 11.1687L5.20578 11.5029L4.80473 11.9708L4.57746 12.4788L4.55072 12.7596" stroke="black" stroke-width="0.216" stroke-miterlimit="22.926" stroke-linecap="round" stroke-linejoin="round"/>
<path d="M5.62025 11.3023L5.19245 11.6366L4.7914 12.1045L4.56413 12.6125L4.55077 12.7729" stroke="black" stroke-width="0.216" stroke-miterlimit="22.926" stroke-linecap="round" stroke-linejoin="round"/>
<path d="M5.62025 11.4361L5.19245 11.7703L4.7914 12.2382L4.56413 12.7462V12.7863" stroke="black" stroke-width="0.216" stroke-miterlimit="22.926" stroke-linecap="round" stroke-linejoin="round"/>
<path d="M5.62025 11.5698L5.19245 11.904L4.77803 12.3719L4.5775 12.8398" stroke="black" stroke-width="0.216" stroke-miterlimit="22.926" stroke-linecap="round" stroke-linejoin="round"/>
<path d="M5.72718 10.7275L5.15233 11.1553L4.7379 11.6366L4.51064 12.1312L4.47054 12.6526L4.61759 13.174L4.93844 13.6954L5.35286 14.0964" stroke="black" stroke-width="0.216" stroke-miterlimit="22.926" stroke-linecap="round" stroke-linejoin="round"/>
<path d="M3.69518 12.7462L3.88234 13.321L4.25666 13.8558L4.79141 14.3638" stroke="black" stroke-width="0.216" stroke-miterlimit="22.926" stroke-linecap="round" stroke-linejoin="round"/>
<path d="M5.49993 12.0376L5.16571 12.305L4.76465 12.7729L4.63097 13.0537" stroke="black" stroke-width="0.216" stroke-miterlimit="22.926" stroke-linecap="round" stroke-linejoin="round"/>
<path d="M5.48655 12.1713L5.16571 12.4387L4.76465 12.9066L4.6577 13.1339" stroke="black" stroke-width="0.216" stroke-miterlimit="22.926" stroke-linecap="round" stroke-linejoin="round"/>
<path d="M5.48654 12.305L5.15232 12.559L4.75127 13.0269L4.67105 13.2141" stroke="black" stroke-width="0.216" stroke-miterlimit="22.926" stroke-linecap="round" stroke-linejoin="round"/>
<path d="M5.48655 12.4253L5.15233 12.6927L4.75128 13.1606L4.6978 13.2676" stroke="black" stroke-width="0.216" stroke-miterlimit="22.926" stroke-linecap="round" stroke-linejoin="round"/>
<path d="M5.47315 12.559L5.1523 12.8264L4.73787 13.2943V13.321" stroke="black" stroke-width="0.216" stroke-miterlimit="22.926" stroke-linecap="round" stroke-linejoin="round"/>
<path d="M5.47316 12.6927L5.13894 12.9601L4.77798 13.3879" stroke="black" stroke-width="0.216" stroke-miterlimit="22.926" stroke-linecap="round" stroke-linejoin="round"/>
<path d="M5.45983 12.8264L5.13898 13.0937L4.81813 13.4547" stroke="black" stroke-width="0.216" stroke-miterlimit="22.926" stroke-linecap="round" stroke-linejoin="round"/>
<path d="M5.45983 12.9601L5.12561 13.2275L4.87161 13.535" stroke="black" stroke-width="0.216" stroke-miterlimit="22.926" stroke-linecap="round" stroke-linejoin="round"/>
<path d="M5.60687 11.7034L5.17907 12.0376L4.77801 12.5055L4.59085 12.9066" stroke="black" stroke-width="0.216" stroke-miterlimit="22.926" stroke-linecap="round" stroke-linejoin="round"/>
<path d="M5.60686 11.8371L5.17906 12.1713L4.77801 12.6392L4.61758 12.9868" stroke="black" stroke-width="0.216" stroke-miterlimit="22.926" stroke-linecap="round" stroke-linejoin="round"/>
<path d="M5.04538 17.0776L14.7109 22.6389" stroke="black" stroke-width="0.216" stroke-miterlimit="22.926" stroke-linecap="round" stroke-linejoin="round"/>
<path d="M15.2065 20.4866H15.1922" stroke="black" stroke-width="0.216" stroke-miterlimit="22.926" stroke-linecap="round" stroke-linejoin="round"/>
<path d="M4.79134 14.3638L5.49988 14.8317" stroke="black" stroke-width="0.216" stroke-miterlimit="22.926" stroke-linecap="round" stroke-linejoin="round"/>
<path d="M5.35283 14.0964L5.44641 14.1766L6.10147 14.6178" stroke="black" stroke-width="0.216" stroke-miterlimit="22.926" stroke-linecap="round" stroke-linejoin="round"/>
<path d="M5.13898 14.9654L14.8045 20.5267" stroke="black" stroke-width="0.216" stroke-miterlimit="22.926" stroke-linecap="round" stroke-linejoin="round"/>
<path d="M15.1788 20.4733L15.2064 20.487" stroke="black" stroke-width="0.216" stroke-miterlimit="22.926" stroke-linecap="round" stroke-linejoin="round"/>
<path d="M5.49994 14.8317L15.1655 20.393" stroke="black" stroke-width="0.216" stroke-miterlimit="22.926" stroke-linecap="round" stroke-linejoin="round"/>
<path d="M5.66035 14.8852L15.3259 20.4465" stroke="black" stroke-width="0.216" stroke-miterlimit="22.926" stroke-linecap="round" stroke-linejoin="round"/>
<path d="M5.70045 14.8317L15.366 20.393" stroke="black" stroke-width="0.216" stroke-miterlimit="22.926" stroke-linecap="round" stroke-linejoin="round"/>
<path d="M5.70045 14.7649L15.3793 20.3262" stroke="black" stroke-width="0.216" stroke-miterlimit="22.926" stroke-linecap="round" stroke-linejoin="round"/>
<path d="M4.97856 14.4306L5.66036 14.8851" stroke="black" stroke-width="0.216" stroke-miterlimit="22.926" stroke-linecap="round" stroke-linejoin="round"/>
<path d="M5.01866 14.3772L5.70046 14.8317" stroke="black" stroke-width="0.216" stroke-miterlimit="22.926" stroke-linecap="round" stroke-linejoin="round"/>
<path d="M5.01866 14.3103L5.70046 14.7648" stroke="black" stroke-width="0.216" stroke-miterlimit="22.926" stroke-linecap="round" stroke-linejoin="round"/>
<path d="M15.7537 21.9438L15.7002 21.9037" stroke="black" stroke-width="0.216" stroke-miterlimit="22.926" stroke-linecap="round" stroke-linejoin="round"/>
<path d="M15.7537 21.8101L15.7002 21.77" stroke="black" stroke-width="0.216" stroke-miterlimit="22.926" stroke-linecap="round" stroke-linejoin="round"/>
<path d="M15.767 21.6764L15.7136 21.6363" stroke="black" stroke-width="0.216" stroke-miterlimit="22.926" stroke-linecap="round" stroke-linejoin="round"/>
<path d="M15.767 21.5427L15.7136 21.5026" stroke="black" stroke-width="0.216" stroke-miterlimit="22.926" stroke-linecap="round" stroke-linejoin="round"/>
<path d="M15.7804 21.409L15.7135 21.3689" stroke="black" stroke-width="0.216" stroke-miterlimit="22.926" stroke-linecap="round" stroke-linejoin="round"/>
<path d="M15.7804 21.2754L15.7269 21.2353" stroke="black" stroke-width="0.216" stroke-miterlimit="22.926" stroke-linecap="round" stroke-linejoin="round"/>
<path d="M17.0638 10.7676H17.0771L17.0905 10.7409L17.1039 10.7275" stroke="black" stroke-width="0.216" stroke-miterlimit="22.926" stroke-linecap="round" stroke-linejoin="round"/>
<path d="M26.6768 18.2273L26.6625 18.2417" stroke="black" stroke-width="0.216" stroke-miterlimit="22.926" stroke-linecap="round" stroke-linejoin="round"/>
<path d="M6.10152 14.6178L15.767 20.1791" stroke="black" stroke-width="0.216" stroke-miterlimit="22.926" stroke-linecap="round" stroke-linejoin="round"/>
<path d="M15.1931 20.4876L15.1788 20.4732" stroke="black" stroke-width="0.216" stroke-miterlimit="22.926" stroke-linecap="round" stroke-linejoin="round"/>
<path d="M15.7804 21.155L15.7269 21.1016" stroke="black" stroke-width="0.216" stroke-miterlimit="22.926" stroke-linecap="round" stroke-linejoin="round"/>
<path d="M15.7937 21.0214L15.7403 20.9679" stroke="black" stroke-width="0.216" stroke-miterlimit="22.926" stroke-linecap="round" stroke-linejoin="round"/>
<path d="M15.7937 20.8876L15.7403 20.8342" stroke="black" stroke-width="0.216" stroke-miterlimit="22.926" stroke-linecap="round" stroke-linejoin="round"/>
<path d="M15.8071 20.754L15.7537 20.7139" stroke="black" stroke-width="0.216" stroke-miterlimit="22.926" stroke-linecap="round" stroke-linejoin="round"/>
<path d="M15.8071 20.6203L15.7537 20.5802" stroke="black" stroke-width="0.216" stroke-miterlimit="22.926" stroke-linecap="round" stroke-linejoin="round"/>
<path d="M15.8071 20.4866L15.7537 20.4465" stroke="black" stroke-width="0.216" stroke-miterlimit="22.926" stroke-linecap="round" stroke-linejoin="round"/>
<path d="M15.8205 20.3529L15.767 20.3128" stroke="black" stroke-width="0.216" stroke-miterlimit="22.926" stroke-linecap="round" stroke-linejoin="round"/>
<path d="M15.8205 20.2326L15.767 20.1791" stroke="black" stroke-width="0.216" stroke-miterlimit="22.926" stroke-linecap="round" stroke-linejoin="round"/>
<path d="M16.4489 10.9548L16.5157 10.8612" stroke="black" stroke-width="0.216" stroke-miterlimit="22.926" stroke-linecap="round" stroke-linejoin="round"/>
<path d="M16.4489 11.0885L16.5023 10.9949" stroke="black" stroke-width="0.216" stroke-miterlimit="22.926" stroke-linecap="round" stroke-linejoin="round"/>
<path d="M16.4489 11.2221L16.5023 11.1286" stroke="black" stroke-width="0.216" stroke-miterlimit="22.926" stroke-linecap="round" stroke-linejoin="round"/>
<path d="M16.4354 11.3558L16.5023 11.2623" stroke="black" stroke-width="0.216" stroke-miterlimit="22.926" stroke-linecap="round" stroke-linejoin="round"/>
<path d="M16.4354 11.4895L16.4889 11.396" stroke="black" stroke-width="0.216" stroke-miterlimit="22.926" stroke-linecap="round" stroke-linejoin="round"/>
<path d="M16.4221 11.6099L16.4889 11.5296" stroke="black" stroke-width="0.216" stroke-miterlimit="22.926" stroke-linecap="round" stroke-linejoin="round"/>
<path d="M16.4221 11.7435L16.4755 11.6633" stroke="black" stroke-width="0.216" stroke-miterlimit="22.926" stroke-linecap="round" stroke-linejoin="round"/>
<path d="M16.4221 11.8772L16.4755 11.797" stroke="black" stroke-width="0.216" stroke-miterlimit="22.926" stroke-linecap="round" stroke-linejoin="round"/>
<path d="M16.4087 12.0109L16.4756 11.9307" stroke="black" stroke-width="0.216" stroke-miterlimit="22.926" stroke-linecap="round" stroke-linejoin="round"/>
<path d="M16.4087 12.1446L16.4622 12.051" stroke="black" stroke-width="0.216" stroke-miterlimit="22.926" stroke-linecap="round" stroke-linejoin="round"/>
<path d="M16.3953 12.2783L16.4622 12.1847" stroke="black" stroke-width="0.216" stroke-miterlimit="22.926" stroke-linecap="round" stroke-linejoin="round"/>
<path d="M16.3953 12.412L16.4488 12.3184" stroke="black" stroke-width="0.216" stroke-miterlimit="22.926" stroke-linecap="round" stroke-linejoin="round"/>
<path d="M16.3819 12.5323L16.4488 12.4521" stroke="black" stroke-width="0.216" stroke-miterlimit="22.926" stroke-linecap="round" stroke-linejoin="round"/>
<path d="M15.1788 20.4742V20.4599" stroke="black" stroke-width="0.216" stroke-miterlimit="22.926" stroke-linecap="round" stroke-linejoin="round"/>
<path d="M16.3819 12.666L16.4354 12.5857" stroke="black" stroke-width="0.216" stroke-miterlimit="22.926" stroke-linecap="round" stroke-linejoin="round"/>
<path d="M16.3819 12.7997L16.4354 12.7195" stroke="black" stroke-width="0.216" stroke-miterlimit="22.926" stroke-linecap="round" stroke-linejoin="round"/>
<path d="M16.3686 12.9334L16.4355 12.8532" stroke="black" stroke-width="0.216" stroke-miterlimit="22.926" stroke-linecap="round" stroke-linejoin="round"/>
<path d="M15.1788 20.4599L15.1654 20.3931" stroke="black" stroke-width="0.216" stroke-miterlimit="22.926" stroke-linecap="round" stroke-linejoin="round"/>
<path d="M15.3793 20.3262L15.3659 20.393" stroke="black" stroke-width="0.216" stroke-miterlimit="22.926" stroke-linecap="round" stroke-linejoin="round"/>
<path d="M14.8045 20.5267L14.6708 21.262L14.6441 21.9705L14.7109 22.639" stroke="black" stroke-width="0.216" stroke-miterlimit="22.926" stroke-linecap="round" stroke-linejoin="round"/>
<path d="M17.1039 10.7275L17.1172 10.6473" stroke="black" stroke-width="0.216" stroke-miterlimit="22.926" stroke-linecap="round" stroke-linejoin="round"/>
<path d="M15.366 20.393L15.3526 20.4198L15.3259 20.4465" stroke="black" stroke-width="0.216" stroke-miterlimit="22.926" stroke-linecap="round" stroke-linejoin="round"/>
<path d="M26.6758 18.2417V18.2273" stroke="black" stroke-width="0.216" stroke-miterlimit="22.926" stroke-linecap="round" stroke-linejoin="round"/>
<path d="M15.7135 21.3689L15.7804 21.2754" stroke="black" stroke-width="0.216" stroke-miterlimit="22.926" stroke-linecap="round" stroke-linejoin="round"/>
<path d="M15.7135 21.5026L15.7804 21.4091" stroke="black" stroke-width="0.216" stroke-miterlimit="22.926" stroke-linecap="round" stroke-linejoin="round"/>
<path d="M15.7135 21.6363L15.767 21.5427" stroke="black" stroke-width="0.216" stroke-miterlimit="22.926" stroke-linecap="round" stroke-linejoin="round"/>
<path d="M15.7001 21.77L15.767 21.6764" stroke="black" stroke-width="0.216" stroke-miterlimit="22.926" stroke-linecap="round" stroke-linejoin="round"/>
<path d="M15.767 20.3128L15.8205 20.2326" stroke="black" stroke-width="0.216" stroke-miterlimit="22.926" stroke-linecap="round" stroke-linejoin="round"/>
<path d="M15.7536 20.4465L15.8205 20.3529" stroke="black" stroke-width="0.216" stroke-miterlimit="22.926" stroke-linecap="round" stroke-linejoin="round"/>
<path d="M15.7536 20.5802L15.8071 20.4866" stroke="black" stroke-width="0.216" stroke-miterlimit="22.926" stroke-linecap="round" stroke-linejoin="round"/>
<path d="M15.7536 20.7139L15.8071 20.6203" stroke="black" stroke-width="0.216" stroke-miterlimit="22.926" stroke-linecap="round" stroke-linejoin="round"/>
<path d="M15.7402 20.8342L15.8071 20.754" stroke="black" stroke-width="0.216" stroke-miterlimit="22.926" stroke-linecap="round" stroke-linejoin="round"/>
<path d="M15.7402 20.9679L15.7937 20.8877" stroke="black" stroke-width="0.216" stroke-miterlimit="22.926" stroke-linecap="round" stroke-linejoin="round"/>
<path d="M15.7269 21.1016L15.7938 21.0214" stroke="black" stroke-width="0.216" stroke-miterlimit="22.926" stroke-linecap="round" stroke-linejoin="round"/>
<path d="M15.7269 21.2353L15.7804 21.1551" stroke="black" stroke-width="0.216" stroke-miterlimit="22.926" stroke-linecap="round" stroke-linejoin="round"/>
<path d="M16.4221 12.9868L15.6199 12.5858C12.8413 11.4182 8.29016 11.2852 5.63359 12.8398L5.45979 12.9601" stroke="black" stroke-width="0.216" stroke-miterlimit="22.926" stroke-linecap="round" stroke-linejoin="round"/>
<path d="M16.3686 12.9334L15.5799 12.5457C12.8834 11.3848 8.2708 11.2516 5.70046 12.7997L5.45982 12.9601" stroke="black" stroke-width="0.216" stroke-miterlimit="22.926" stroke-linecap="round" stroke-linejoin="round"/>
<path d="M16.4354 12.8531L15.6333 12.4521C12.9442 11.295 8.19971 11.1502 5.64697 12.7194L5.45981 12.8264" stroke="black" stroke-width="0.216" stroke-miterlimit="22.926" stroke-linecap="round" stroke-linejoin="round"/>
<path d="M16.382 12.7997L15.5798 12.412C12.8716 11.2549 8.28503 11.1185 5.70043 12.666L5.45979 12.8264" stroke="black" stroke-width="0.216" stroke-miterlimit="22.926" stroke-linecap="round" stroke-linejoin="round"/>
<path d="M16.4354 12.7194L15.6333 12.3184C12.8749 11.1647 8.26477 11.0098 5.64697 12.5858L5.47318 12.6927" stroke="black" stroke-width="0.216" stroke-miterlimit="22.926" stroke-linecap="round" stroke-linejoin="round"/>
<path d="M16.3819 12.6659L15.5932 12.2783C12.8121 11.1216 8.37346 10.9904 5.71378 12.5323L5.47314 12.6927" stroke="black" stroke-width="0.216" stroke-miterlimit="22.926" stroke-linecap="round" stroke-linejoin="round"/>
<path d="M16.4354 12.5857L15.6467 12.198C12.8821 11.012 8.29061 10.8908 5.64697 12.4521L5.47318 12.5724" stroke="black" stroke-width="0.216" stroke-miterlimit="22.926" stroke-linecap="round" stroke-linejoin="round"/>
<path d="M16.3819 12.5323L15.5932 12.1446C12.8085 10.984 8.37993 10.8603 5.71378 12.3986L5.47314 12.559" stroke="black" stroke-width="0.216" stroke-miterlimit="22.926" stroke-linecap="round" stroke-linejoin="round"/>
<path d="M16.4488 12.4521L15.6467 12.0644C12.9066 10.8773 8.27571 10.7583 5.66036 12.3184L5.48657 12.4387" stroke="black" stroke-width="0.216" stroke-miterlimit="22.926" stroke-linecap="round" stroke-linejoin="round"/>
<path d="M16.3953 12.412L15.6066 12.0109C12.827 10.8574 8.37906 10.7202 5.72717 12.2649L5.48654 12.4253" stroke="black" stroke-width="0.216" stroke-miterlimit="22.926" stroke-linecap="round" stroke-linejoin="round"/>
<path d="M16.4488 12.3184L15.6467 11.9307C12.8863 10.752 8.30089 10.6215 5.66036 12.1847L5.48657 12.305" stroke="black" stroke-width="0.216" stroke-miterlimit="22.926" stroke-linecap="round" stroke-linejoin="round"/>
<path d="M16.3953 12.2783L15.6066 11.8906C12.9529 10.7338 8.2534 10.5912 5.72717 12.1446L5.48654 12.305" stroke="black" stroke-width="0.216" stroke-miterlimit="22.926" stroke-linecap="round" stroke-linejoin="round"/>
<path d="M26.101 18.5482L16.4221 12.9868" stroke="black" stroke-width="0.216" stroke-miterlimit="22.926" stroke-linecap="round" stroke-linejoin="round"/>
<path d="M26.0475 18.4947L16.3686 12.9334" stroke="black" stroke-width="0.216" stroke-miterlimit="22.926" stroke-linecap="round" stroke-linejoin="round"/>
<path d="M26.101 18.4145L16.4354 12.8532" stroke="black" stroke-width="0.216" stroke-miterlimit="22.926" stroke-linecap="round" stroke-linejoin="round"/>
<path d="M26.0475 18.361L16.3819 12.7997" stroke="black" stroke-width="0.216" stroke-miterlimit="22.926" stroke-linecap="round" stroke-linejoin="round"/>
<path d="M26.101 18.2808L16.4354 12.7194" stroke="black" stroke-width="0.216" stroke-miterlimit="22.926" stroke-linecap="round" stroke-linejoin="round"/>
<path d="M26.0475 18.2273L16.3819 12.666" stroke="black" stroke-width="0.216" stroke-miterlimit="22.926" stroke-linecap="round" stroke-linejoin="round"/>
<path d="M26.1144 18.1471L16.4355 12.5858" stroke="black" stroke-width="0.216" stroke-miterlimit="22.926" stroke-linecap="round" stroke-linejoin="round"/>
<path d="M26.0609 18.0936L16.382 12.5323" stroke="black" stroke-width="0.216" stroke-miterlimit="22.926" stroke-linecap="round" stroke-linejoin="round"/>
<path d="M26.1144 18.0134L16.4489 12.4521" stroke="black" stroke-width="0.216" stroke-miterlimit="22.926" stroke-linecap="round" stroke-linejoin="round"/>
<path d="M26.0609 17.96L16.3953 12.412" stroke="black" stroke-width="0.216" stroke-miterlimit="22.926" stroke-linecap="round" stroke-linejoin="round"/>
<path d="M26.7025 18.3209L26.5822 18.2674" stroke="black" stroke-width="0.216" stroke-miterlimit="22.926" stroke-linecap="round" stroke-linejoin="round"/>
<path d="M26.6892 18.2541L26.649 18.2407" stroke="black" stroke-width="0.216" stroke-miterlimit="22.926" stroke-linecap="round" stroke-linejoin="round"/>
<path d="M26.1277 17.8797L16.4488 12.3184" stroke="black" stroke-width="0.216" stroke-miterlimit="22.926" stroke-linecap="round" stroke-linejoin="round"/>
<path d="M26.0742 17.8396L16.3954 12.2783" stroke="black" stroke-width="0.216" stroke-miterlimit="22.926" stroke-linecap="round" stroke-linejoin="round"/>
<path d="M26.1277 17.7461L16.4622 12.1847" stroke="black" stroke-width="0.216" stroke-miterlimit="22.926" stroke-linecap="round" stroke-linejoin="round"/>
<path d="M26.0742 17.7059L16.4087 12.1446" stroke="black" stroke-width="0.216" stroke-miterlimit="22.926" stroke-linecap="round" stroke-linejoin="round"/>
<path d="M16.422 12.9868L16.3686 12.9333" stroke="black" stroke-width="0.216" stroke-miterlimit="22.926" stroke-linecap="round" stroke-linejoin="round"/>
<path d="M16.4354 12.8531L16.382 12.7997" stroke="black" stroke-width="0.216" stroke-miterlimit="22.926" stroke-linecap="round" stroke-linejoin="round"/>
<path d="M16.4354 12.7195L16.382 12.666" stroke="black" stroke-width="0.216" stroke-miterlimit="22.926" stroke-linecap="round" stroke-linejoin="round"/>
<path d="M16.4354 12.5857L16.382 12.5323" stroke="black" stroke-width="0.216" stroke-miterlimit="22.926" stroke-linecap="round" stroke-linejoin="round"/>
<path d="M16.4488 12.4521L16.3954 12.412" stroke="black" stroke-width="0.216" stroke-miterlimit="22.926" stroke-linecap="round" stroke-linejoin="round"/>
<path d="M16.4488 12.3184L16.3954 12.2783" stroke="black" stroke-width="0.216" stroke-miterlimit="22.926" stroke-linecap="round" stroke-linejoin="round"/>
<path d="M16.4622 12.1847L16.4087 12.1446" stroke="black" stroke-width="0.216" stroke-miterlimit="22.926" stroke-linecap="round" stroke-linejoin="round"/>
<path d="M16.4622 12.051L16.4087 12.0109" stroke="black" stroke-width="0.216" stroke-miterlimit="22.926" stroke-linecap="round" stroke-linejoin="round"/>
<path d="M15.7001 21.9037L15.7536 21.8101" stroke="black" stroke-width="0.216" stroke-miterlimit="22.926" stroke-linecap="round" stroke-linejoin="round"/>
<path d="M15.767 20.1791L15.3793 20.3262" stroke="black" stroke-width="0.216" stroke-miterlimit="22.926" stroke-linecap="round" stroke-linejoin="round"/>
<path d="M15.1655 20.393L14.8045 20.5267" stroke="black" stroke-width="0.216" stroke-miterlimit="22.926" stroke-linecap="round" stroke-linejoin="round"/>
<path d="M26.1812 16.4226L26.5822 16.2889" stroke="black" stroke-width="0.216" stroke-miterlimit="22.926" stroke-linecap="round" stroke-linejoin="round"/>
<path d="M26.7827 16.2087L27.1437 16.075" stroke="black" stroke-width="0.216" stroke-miterlimit="22.926" stroke-linecap="round" stroke-linejoin="round"/>
<path d="M15.3259 20.4465L15.2056 20.4866" stroke="black" stroke-width="0.216" stroke-miterlimit="22.926" stroke-linecap="round" stroke-linejoin="round"/>
<path d="M26.6223 16.3691L26.7426 16.329" stroke="black" stroke-width="0.216" stroke-miterlimit="22.926" stroke-linecap="round" stroke-linejoin="round"/>
<path d="M26.5956 16.3691H26.6232" stroke="black" stroke-width="0.216" stroke-miterlimit="22.926" stroke-linecap="round" stroke-linejoin="round"/>
<path d="M16.4622 12.1847L15.66 11.797C12.9536 10.6208 8.25205 10.4953 5.67369 12.051L5.49989 12.1713" stroke="black" stroke-width="0.216" stroke-miterlimit="22.926" stroke-linecap="round" stroke-linejoin="round"/>
<path d="M16.4087 12.1446L15.6066 11.7569C12.9142 10.5892 8.29577 10.4702 5.72721 12.0109L5.48657 12.1713" stroke="black" stroke-width="0.216" stroke-miterlimit="22.926" stroke-linecap="round" stroke-linejoin="round"/>
<path d="M16.4622 12.051L15.66 11.6633C12.8865 10.4938 8.32201 10.3539 5.67369 11.9173L5.49989 12.0376" stroke="black" stroke-width="0.216" stroke-miterlimit="22.926" stroke-linecap="round" stroke-linejoin="round"/>
<path d="M16.4087 12.0109L15.62 11.6232C12.9235 10.4624 8.31092 10.3291 5.74058 11.8772L5.49994 12.0376" stroke="black" stroke-width="0.216" stroke-miterlimit="22.926" stroke-linecap="round" stroke-linejoin="round"/>
<path d="M16.4756 11.9307L15.6734 11.5297C12.9269 10.3653 8.30287 10.2164 5.68708 11.7837L5.60687 11.8371" stroke="black" stroke-width="0.216" stroke-miterlimit="22.926" stroke-linecap="round" stroke-linejoin="round"/>
<path d="M16.4221 11.8772L15.6199 11.4895C12.9244 10.3338 8.31198 10.1954 5.74053 11.7435L5.60684 11.8371" stroke="black" stroke-width="0.216" stroke-miterlimit="22.926" stroke-linecap="round" stroke-linejoin="round"/>
<path d="M16.4756 11.797L15.6734 11.396C12.9393 10.2304 8.29329 10.0983 5.68708 11.65L5.60687 11.7034" stroke="black" stroke-width="0.216" stroke-miterlimit="22.926" stroke-linecap="round" stroke-linejoin="round"/>
<path d="M16.4221 11.7435L15.6333 11.3558C12.8785 10.2048 8.37593 10.0651 5.7539 11.6098L5.60684 11.7034" stroke="black" stroke-width="0.216" stroke-miterlimit="22.926" stroke-linecap="round" stroke-linejoin="round"/>
<path d="M16.4756 11.6633L15.6734 11.2622C12.9828 10.1041 8.2396 9.96304 5.68708 11.5296L5.62024 11.5697" stroke="black" stroke-width="0.216" stroke-miterlimit="22.926" stroke-linecap="round" stroke-linejoin="round"/>
<path d="M16.4221 11.6098L15.6333 11.2222C12.8486 10.0615 8.42005 9.93788 5.7539 11.4762L5.62021 11.5697" stroke="black" stroke-width="0.216" stroke-miterlimit="22.926" stroke-linecap="round" stroke-linejoin="round"/>
<path d="M16.4889 11.5296L15.6868 11.1286C12.9888 9.9693 8.26434 9.82937 5.70046 11.396L5.62025 11.4361" stroke="black" stroke-width="0.216" stroke-miterlimit="22.926" stroke-linecap="round" stroke-linejoin="round"/>
<path d="M16.4355 11.4895L15.6333 11.0885C12.8727 9.92986 8.40359 9.80219 5.76729 11.3425L5.62024 11.4361" stroke="black" stroke-width="0.216" stroke-miterlimit="22.926" stroke-linecap="round" stroke-linejoin="round"/>
<path d="M16.4889 11.396L15.6868 10.9949C12.881 9.83296 8.37463 9.69281 5.70046 11.2623L5.62025 11.3024" stroke="black" stroke-width="0.216" stroke-miterlimit="22.926" stroke-linecap="round" stroke-linejoin="round"/>
<path d="M16.4355 11.3558L15.6467 10.9548C12.8986 9.82335 8.37663 9.64934 5.76729 11.2222L5.62024 11.3024" stroke="black" stroke-width="0.216" stroke-miterlimit="22.926" stroke-linecap="round" stroke-linejoin="round"/>
<path d="M16.5023 11.2622L15.7001 10.8746C12.9714 9.68942 8.31532 9.56688 5.71378 11.1286L5.63358 11.182" stroke="black" stroke-width="0.216" stroke-miterlimit="22.926" stroke-linecap="round" stroke-linejoin="round"/>
<path d="M16.4488 11.2221L15.6467 10.8345C12.9786 9.67272 8.30958 9.53926 5.76731 11.0885L5.63362 11.1687" stroke="black" stroke-width="0.216" stroke-miterlimit="22.926" stroke-linecap="round" stroke-linejoin="round"/>
<path d="M26.1411 17.6124L16.4622 12.051" stroke="black" stroke-width="0.216" stroke-miterlimit="22.926" stroke-linecap="round" stroke-linejoin="round"/>
<path d="M26.0742 17.5723L16.4087 12.0109" stroke="black" stroke-width="0.216" stroke-miterlimit="22.926" stroke-linecap="round" stroke-linejoin="round"/>
<path d="M26.1411 17.4787L16.4756 11.9307" stroke="black" stroke-width="0.216" stroke-miterlimit="22.926" stroke-linecap="round" stroke-linejoin="round"/>
<path d="M26.0876 17.4386L16.4221 11.8772" stroke="black" stroke-width="0.216" stroke-miterlimit="22.926" stroke-linecap="round" stroke-linejoin="round"/>
<path d="M26.1411 17.345L16.4756 11.797" stroke="black" stroke-width="0.216" stroke-miterlimit="22.926" stroke-linecap="round" stroke-linejoin="round"/>
<path d="M26.0876 17.3049L16.4221 11.7436" stroke="black" stroke-width="0.216" stroke-miterlimit="22.926" stroke-linecap="round" stroke-linejoin="round"/>
<path d="M26.1544 17.2247L16.4756 11.6633" stroke="black" stroke-width="0.216" stroke-miterlimit="22.926" stroke-linecap="round" stroke-linejoin="round"/>
<path d="M26.101 17.1712L16.4221 11.6098" stroke="black" stroke-width="0.216" stroke-miterlimit="22.926" stroke-linecap="round" stroke-linejoin="round"/>
<path d="M26.1544 17.091L16.4889 11.5296" stroke="black" stroke-width="0.216" stroke-miterlimit="22.926" stroke-linecap="round" stroke-linejoin="round"/>
<path d="M26.101 17.0375L16.4354 11.4895" stroke="black" stroke-width="0.216" stroke-miterlimit="22.926" stroke-linecap="round" stroke-linejoin="round"/>
<path d="M26.1678 16.9573L16.4889 11.396" stroke="black" stroke-width="0.216" stroke-miterlimit="22.926" stroke-linecap="round" stroke-linejoin="round"/>
<path d="M26.1144 16.9038L16.4355 11.3558" stroke="black" stroke-width="0.216" stroke-miterlimit="22.926" stroke-linecap="round" stroke-linejoin="round"/>
<path d="M26.1678 16.8236L16.5023 11.2623" stroke="black" stroke-width="0.216" stroke-miterlimit="22.926" stroke-linecap="round" stroke-linejoin="round"/>
<path d="M26.1144 16.7835L16.4489 11.2222" stroke="black" stroke-width="0.216" stroke-miterlimit="22.926" stroke-linecap="round" stroke-linejoin="round"/>
<path d="M26.1678 16.6899L16.5023 11.1286" stroke="black" stroke-width="0.216" stroke-miterlimit="22.926" stroke-linecap="round" stroke-linejoin="round"/>
<path d="M16.4756 11.9307L16.4221 11.8772" stroke="black" stroke-width="0.216" stroke-miterlimit="22.926" stroke-linecap="round" stroke-linejoin="round"/>
<path d="M16.4756 11.797L16.4221 11.7436" stroke="black" stroke-width="0.216" stroke-miterlimit="22.926" stroke-linecap="round" stroke-linejoin="round"/>
<path d="M16.4756 11.6633L16.4221 11.6098" stroke="black" stroke-width="0.216" stroke-miterlimit="22.926" stroke-linecap="round" stroke-linejoin="round"/>
<path d="M16.4889 11.5296L16.4355 11.4895" stroke="black" stroke-width="0.216" stroke-miterlimit="22.926" stroke-linecap="round" stroke-linejoin="round"/>
<path d="M16.4889 11.396L16.4355 11.3559" stroke="black" stroke-width="0.216" stroke-miterlimit="22.926" stroke-linecap="round" stroke-linejoin="round"/>
<path d="M16.5023 11.2622L16.4488 11.2221" stroke="black" stroke-width="0.216" stroke-miterlimit="22.926" stroke-linecap="round" stroke-linejoin="round"/>
<path d="M16.5023 11.1286L16.4488 11.0885" stroke="black" stroke-width="0.216" stroke-miterlimit="22.926" stroke-linecap="round" stroke-linejoin="round"/>
<path d="M16.5023 10.9949L16.4488 10.9548" stroke="black" stroke-width="0.216" stroke-miterlimit="22.926" stroke-linecap="round" stroke-linejoin="round"/>
<path d="M16.5023 11.1286L15.7001 10.7409C12.9596 9.5649 8.33002 9.42965 5.71378 10.9949L5.63358 11.0484" stroke="black" stroke-width="0.216" stroke-miterlimit="22.926" stroke-linecap="round" stroke-linejoin="round"/>
<path d="M16.4488 11.0885L15.6601 10.7008C12.9636 9.53996 8.35102 9.40672 5.78068 10.9548L5.63362 11.0484" stroke="black" stroke-width="0.216" stroke-miterlimit="22.926" stroke-linecap="round" stroke-linejoin="round"/>
<path d="M16.5023 10.9949L15.7135 10.6072C12.9319 9.43188 8.37503 9.2933 5.71378 10.8612L5.64694 10.9147" stroke="black" stroke-width="0.216" stroke-miterlimit="22.926" stroke-linecap="round" stroke-linejoin="round"/>
<path d="M16.4488 10.9548L15.6601 10.5671C12.9864 9.40269 8.32985 9.27947 5.78068 10.8211L5.64699 10.9147" stroke="black" stroke-width="0.216" stroke-miterlimit="22.926" stroke-linecap="round" stroke-linejoin="round"/>
<path d="M16.5157 10.8612L15.7135 10.4735C13.0748 9.35498 9.10654 9.23957 6.44908 10.3532L5.72717 10.7275" stroke="black" stroke-width="0.216" stroke-miterlimit="22.926" stroke-linecap="round" stroke-linejoin="round"/>
<path d="M16.9167 10.7275L16.1012 10.3131C13.1196 8.99697 6.98004 8.76614 4.51064 11.2088L4.14968 11.7034L3.96252 12.2783" stroke="black" stroke-width="0.216" stroke-miterlimit="22.926" stroke-linecap="round" stroke-linejoin="round"/>
<path d="M17.0638 10.7676L16.2215 10.3532L15.2724 10.0056L14.2029 9.71152H14.1895" stroke="black" stroke-width="0.216" stroke-miterlimit="22.926" stroke-linecap="round" stroke-linejoin="round"/>
<path d="M17.1039 10.7275L16.2616 10.3131L15.2857 9.95216C13.4406 9.39157 11.4594 9.1721 9.53722 9.33721L8.40088 9.47089L7.3314 9.68479C6.11686 9.9916 4.5505 10.5854 3.89566 11.7436L3.7085 12.2783V12.7462" stroke="black" stroke-width="0.216" stroke-miterlimit="22.926" stroke-linecap="round" stroke-linejoin="round"/>
<path d="M17.1172 10.6473L16.275 10.2329L15.2991 9.87193L14.2296 9.59119L13.0933 9.37729L11.9168 9.2436L10.7137 9.2035L9.53723 9.25697L8.38753 9.39066C6.96979 9.62216 5.29493 10.0988 4.25663 11.1553L3.8823 11.6767L3.69514 12.2114V12.7462" stroke="black" stroke-width="0.216" stroke-miterlimit="22.926" stroke-linecap="round" stroke-linejoin="round"/>
<path d="M26.1144 16.6498L16.4489 11.0885" stroke="black" stroke-width="0.216" stroke-miterlimit="22.926" stroke-linecap="round" stroke-linejoin="round"/>
<path d="M26.1812 16.5562L16.5023 10.9949" stroke="black" stroke-width="0.216" stroke-miterlimit="22.926" stroke-linecap="round" stroke-linejoin="round"/>
<path d="M26.1277 16.5161L16.4488 10.9548" stroke="black" stroke-width="0.216" stroke-miterlimit="22.926" stroke-linecap="round" stroke-linejoin="round"/>
<path d="M26.1812 16.4226L16.5157 10.8612" stroke="black" stroke-width="0.216" stroke-miterlimit="22.926" stroke-linecap="round" stroke-linejoin="round"/>
<path d="M26.6223 16.3691L26.5822 16.3557" stroke="black" stroke-width="0.216" stroke-miterlimit="22.926" stroke-linecap="round" stroke-linejoin="round"/>
<path d="M26.5822 16.2889L16.9167 10.7275" stroke="black" stroke-width="0.216" stroke-miterlimit="22.926" stroke-linecap="round" stroke-linejoin="round"/>
<path d="M26.7427 16.329L17.0638 10.7677" stroke="black" stroke-width="0.216" stroke-miterlimit="22.926" stroke-linecap="round" stroke-linejoin="round"/>
<path d="M26.7694 16.2889L17.1039 10.7275" stroke="black" stroke-width="0.216" stroke-miterlimit="22.926" stroke-linecap="round" stroke-linejoin="round"/>
<path d="M26.7828 16.2087L17.1172 10.6473" stroke="black" stroke-width="0.216" stroke-miterlimit="22.926" stroke-linecap="round" stroke-linejoin="round"/>
<path d="M26.101 18.5482L26.0475 18.4947" stroke="black" stroke-width="0.216" stroke-miterlimit="22.926" stroke-linecap="round" stroke-linejoin="round"/>
<path d="M26.101 18.4145L26.0475 18.361" stroke="black" stroke-width="0.216" stroke-miterlimit="22.926" stroke-linecap="round" stroke-linejoin="round"/>
<path d="M26.101 18.2808L26.0475 18.2273" stroke="black" stroke-width="0.216" stroke-miterlimit="22.926" stroke-linecap="round" stroke-linejoin="round"/>
<path d="M26.1144 18.1471L26.0609 18.0937" stroke="black" stroke-width="0.216" stroke-miterlimit="22.926" stroke-linecap="round" stroke-linejoin="round"/>
<path d="M26.1144 18.0134L26.0609 17.9599" stroke="black" stroke-width="0.216" stroke-miterlimit="22.926" stroke-linecap="round" stroke-linejoin="round"/>
<path d="M26.6625 18.2407L26.5421 18.2808" stroke="black" stroke-width="0.216" stroke-miterlimit="22.926" stroke-linecap="round" stroke-linejoin="round"/>
<path d="M27.0635 18.2006L26.7025 18.3209" stroke="black" stroke-width="0.216" stroke-miterlimit="22.926" stroke-linecap="round" stroke-linejoin="round"/>
<path d="M26.4886 18.4011L26.101 18.5481" stroke="black" stroke-width="0.216" stroke-miterlimit="22.926" stroke-linecap="round" stroke-linejoin="round"/>
<path d="M17.4782 10.5136L16.5825 10.0725C13.4703 8.57851 5.49034 8.2746 3.42779 11.6099L3.2941 11.904" stroke="black" stroke-width="0.216" stroke-miterlimit="22.926" stroke-linecap="round" stroke-linejoin="round"/>
<path d="M27.1437 16.0749L17.4782 10.5136" stroke="black" stroke-width="0.216" stroke-miterlimit="22.926" stroke-linecap="round" stroke-linejoin="round"/>
<path d="M26.1411 17.4787L26.0876 17.4386" stroke="black" stroke-width="0.216" stroke-miterlimit="22.926" stroke-linecap="round" stroke-linejoin="round"/>
<path d="M26.1411 17.345L26.0876 17.3049" stroke="black" stroke-width="0.216" stroke-miterlimit="22.926" stroke-linecap="round" stroke-linejoin="round"/>
<path d="M26.1544 17.2247L26.101 17.1712" stroke="black" stroke-width="0.216" stroke-miterlimit="22.926" stroke-linecap="round" stroke-linejoin="round"/>
<path d="M26.1544 17.091L26.101 17.0375" stroke="black" stroke-width="0.216" stroke-miterlimit="22.926" stroke-linecap="round" stroke-linejoin="round"/>
<path d="M26.1678 16.9573L26.1143 16.9038" stroke="black" stroke-width="0.216" stroke-miterlimit="22.926" stroke-linecap="round" stroke-linejoin="round"/>
<path d="M26.1678 16.8236L26.1143 16.7835" stroke="black" stroke-width="0.216" stroke-miterlimit="22.926" stroke-linecap="round" stroke-linejoin="round"/>
<path d="M26.1678 16.6899L26.1143 16.6498" stroke="black" stroke-width="0.216" stroke-miterlimit="22.926" stroke-linecap="round" stroke-linejoin="round"/>
<path d="M26.1812 16.5562L26.1277 16.5161" stroke="black" stroke-width="0.216" stroke-miterlimit="22.926" stroke-linecap="round" stroke-linejoin="round"/>
<path d="M26.1277 17.8797L26.0742 17.8396" stroke="black" stroke-width="0.216" stroke-miterlimit="22.926" stroke-linecap="round" stroke-linejoin="round"/>
<path d="M26.1277 17.7461L26.0742 17.706" stroke="black" stroke-width="0.216" stroke-miterlimit="22.926" stroke-linecap="round" stroke-linejoin="round"/>
<path d="M26.1411 17.6124L26.0742 17.5723" stroke="black" stroke-width="0.216" stroke-miterlimit="22.926" stroke-linecap="round" stroke-linejoin="round"/>
<path d="M26.7426 16.329L26.7694 16.3022V16.2889" stroke="black" stroke-width="0.216" stroke-miterlimit="22.926" stroke-linecap="round" stroke-linejoin="round"/>
<path d="M8.45438 9.51097L8.41427 9.52434C6.88913 9.76341 4.77667 10.3474 3.93579 11.7836L3.74863 12.3184V12.8665L3.92242 13.3745" stroke="black" stroke-width="0.216" stroke-miterlimit="22.926" stroke-linecap="round" stroke-linejoin="round"/>
<path d="M26.5421 18.2808L26.5154 18.2942L26.502 18.3075V18.3209" stroke="black" stroke-width="0.216" stroke-miterlimit="22.926" stroke-linecap="round" stroke-linejoin="round"/>
<path d="M26.1277 16.5161L26.1812 16.4226" stroke="black" stroke-width="0.216" stroke-miterlimit="22.926" stroke-linecap="round" stroke-linejoin="round"/>
<path d="M26.1143 16.6498L26.1812 16.5563" stroke="black" stroke-width="0.216" stroke-miterlimit="22.926" stroke-linecap="round" stroke-linejoin="round"/>
<path d="M26.1143 16.7835L26.1678 16.6899" stroke="black" stroke-width="0.216" stroke-miterlimit="22.926" stroke-linecap="round" stroke-linejoin="round"/>
<path d="M26.1143 16.9038L26.1678 16.8236" stroke="black" stroke-width="0.216" stroke-miterlimit="22.926" stroke-linecap="round" stroke-linejoin="round"/>
<path d="M26.101 17.0375L26.1678 16.9573" stroke="black" stroke-width="0.216" stroke-miterlimit="22.926" stroke-linecap="round" stroke-linejoin="round"/>
<path d="M26.101 17.1712L26.1544 17.091" stroke="black" stroke-width="0.216" stroke-miterlimit="22.926" stroke-linecap="round" stroke-linejoin="round"/>
<path d="M26.0876 17.3049L26.1544 17.2247" stroke="black" stroke-width="0.216" stroke-miterlimit="22.926" stroke-linecap="round" stroke-linejoin="round"/>
<path d="M26.0876 17.4386L26.1411 17.345" stroke="black" stroke-width="0.216" stroke-miterlimit="22.926" stroke-linecap="round" stroke-linejoin="round"/>
<path d="M26.0742 17.5723L26.1411 17.4787" stroke="black" stroke-width="0.216" stroke-miterlimit="22.926" stroke-linecap="round" stroke-linejoin="round"/>
<path d="M26.0742 17.7059L26.1411 17.6124" stroke="black" stroke-width="0.216" stroke-miterlimit="22.926" stroke-linecap="round" stroke-linejoin="round"/>
<path d="M26.0742 17.8396L26.1277 17.746" stroke="black" stroke-width="0.216" stroke-miterlimit="22.926" stroke-linecap="round" stroke-linejoin="round"/>
<path d="M26.0609 17.9599L26.1277 17.8797" stroke="black" stroke-width="0.216" stroke-miterlimit="22.926" stroke-linecap="round" stroke-linejoin="round"/>
<path d="M26.0609 18.0936L26.1143 18.0134" stroke="black" stroke-width="0.216" stroke-miterlimit="22.926" stroke-linecap="round" stroke-linejoin="round"/>
<path d="M26.6901 18.2551V18.2407H26.6758" stroke="black" stroke-width="0.216" stroke-miterlimit="22.926" stroke-linecap="round" stroke-linejoin="round"/>
<path d="M26.0475 18.2273L26.1143 18.1471" stroke="black" stroke-width="0.216" stroke-miterlimit="22.926" stroke-linecap="round" stroke-linejoin="round"/>
<path d="M26.0475 18.361L26.101 18.2808" stroke="black" stroke-width="0.216" stroke-miterlimit="22.926" stroke-linecap="round" stroke-linejoin="round"/>
<path d="M26.0475 18.4947L26.101 18.4145" stroke="black" stroke-width="0.216" stroke-miterlimit="22.926" stroke-linecap="round" stroke-linejoin="round"/>
<path d="M26.5822 16.3557V16.3701H26.5966" stroke="black" stroke-width="0.216" stroke-miterlimit="22.926" stroke-linecap="round" stroke-linejoin="round"/>
<path d="M26.7025 18.3209L26.6891 18.254" stroke="black" stroke-width="0.216" stroke-miterlimit="22.926" stroke-linecap="round" stroke-linejoin="round"/>
<path d="M27.1437 16.0749L27.2239 16.7434L27.1838 17.4519L27.0635 18.2006" stroke="black" stroke-width="0.216" stroke-miterlimit="22.926" stroke-linecap="round" stroke-linejoin="round"/>
<path d="M26.5822 16.2889V16.3557" stroke="black" stroke-width="0.216" stroke-miterlimit="22.926" stroke-linecap="round" stroke-linejoin="round"/>
<path d="M26.502 18.3209L26.4886 18.4011" stroke="black" stroke-width="0.216" stroke-miterlimit="22.926" stroke-linecap="round" stroke-linejoin="round"/>
<path d="M26.7694 16.2889L26.7827 16.2087" stroke="black" stroke-width="0.216" stroke-miterlimit="22.926" stroke-linecap="round" stroke-linejoin="round"/>
</svg>
