<svg width="30" height="30" viewBox="0 0 30 30" fill="none" xmlns="http://www.w3.org/2000/svg">
<rect width="30" height="30" fill="white"/>
<path d="M30 30H22.5H15H7.5H0V22.5003V15.0005V7.49975V0H7.5H15H22.5H30V7.49975V14.9995V22.4992V30ZM0.252287 29.7477H7.62614H15H22.3739H29.7477V22.3741V15.0005V7.62589V0.252279H22.3739H15H7.62614H0.252287V7.62589V14.9995V22.3731V29.7477Z" fill="#4D4D4D"/>
<path d="M26.9127 24.5122H21.4255H15.9383H10.451H4.96383H4.82308H4.68323H4.54338H4.40442L4.52467 24.4419L4.64493 24.3715L4.76518 24.3011L4.88544 24.2308C5.16425 24.0668 5.44485 23.9065 5.72812 23.7453C6.01139 23.584 6.29733 23.4255 6.58772 23.2651C6.87812 23.1048 7.17297 22.9436 7.47405 22.7797C7.77514 22.6158 8.08246 22.4501 8.39779 22.2799C9.87026 21.4854 11.3917 20.6632 12.9247 19.7376C14.4578 18.8112 16.0015 17.7806 17.5194 16.5665C19.0373 15.3523 20.5276 13.9556 21.9546 12.2978C23.3808 10.6401 24.7428 8.72045 26.0023 6.46232C26.005 6.45697 26.0077 6.45163 26.0095 6.44628C26.0112 6.44094 26.0121 6.43559 26.013 6.42936C26.0139 6.42312 26.0139 6.41778 26.013 6.41243C26.0121 6.40709 26.0112 6.40085 26.0103 6.39551C26.0086 6.39016 26.0068 6.38482 26.0041 6.37947C26.0014 6.37413 25.9988 6.36967 25.9952 6.36522C25.9916 6.36077 25.9881 6.35631 25.9836 6.35275C25.9792 6.34919 25.9747 6.34562 25.9694 6.34295C25.9658 6.34117 25.9622 6.33939 25.9587 6.33761C25.9551 6.33583 25.9515 6.33493 25.948 6.33404C25.9444 6.33315 25.9409 6.33226 25.9373 6.33226C25.9337 6.33137 25.9302 6.33137 25.9266 6.33137C25.9186 6.33137 25.9106 6.33226 25.9034 6.33493C25.8963 6.33761 25.8892 6.34028 25.8821 6.34384C25.8749 6.34741 25.8696 6.35275 25.8634 6.35809C25.8571 6.36344 25.8536 6.36967 25.8491 6.3768C24.5958 8.62425 23.24 10.5341 21.8192 12.1838C20.3984 13.8335 18.9144 15.2249 17.4027 16.4328C15.8911 17.6407 14.3527 18.6678 12.8259 19.5907C11.2991 20.5135 9.78296 21.3313 8.31584 22.1241C7.96131 22.3156 7.61658 22.5017 7.27897 22.6861C6.94136 22.8705 6.61177 23.0514 6.28753 23.2304C5.96328 23.4095 5.64617 23.5894 5.3335 23.7684C5.02084 23.9475 4.71174 24.1274 4.40709 24.31L4.3483 24.3439L4.29129 24.3777L4.23428 24.4116L4.17727 24.4454V24.3795V24.3127V24.2459V24.1791V19.6566V15.1341V10.6116V6.08819C4.17727 6.07572 4.17459 6.06414 4.17014 6.05434C4.16569 6.04454 4.15856 6.03385 4.15054 6.02583C4.14253 6.01782 4.13362 6.01158 4.12293 6.00713C4.11224 6.00267 4.10066 6 4.08819 6C4.07572 6 4.06503 6.00267 4.05434 6.00713C4.04365 6.01158 4.03385 6.01782 4.02583 6.02583C4.01782 6.03385 4.01158 6.04365 4.00713 6.05345C4.00267 6.06325 4 6.07661 4 6.08819V10.7158V15.3434V19.971V24.5986L4.00089 24.5995L4.00178 24.6004L4.00267 24.6013L4.00356 24.6022L4.00713 24.612L4.01069 24.6218L4.01425 24.6316L4.01782 24.6414L4.01871 24.6423L4.0196 24.6432L4.02049 24.6441L4.02138 24.645L4.02227 24.6459L4.02316 24.6467L4.02405 24.6476L4.02494 24.6485L4.03296 24.6557L4.04098 24.6628L4.0481 24.6735L4.05612 24.6806C4.0579 24.6815 4.06057 24.6824 4.06325 24.6833C4.06592 24.6842 4.06859 24.6851 4.07126 24.6859C4.07393 24.6868 4.07661 24.6877 4.07928 24.6877C4.08195 24.6877 4.08462 24.6886 4.0873 24.6886H9.79365H15.5H21.2064H26.9127C26.9252 24.6886 26.9368 24.6859 26.9466 24.6815C26.9564 24.677 26.967 24.6708 26.9742 24.6628C26.9813 24.6548 26.9884 24.645 26.9929 24.6352C26.9973 24.6254 27 24.6129 27 24.6013C27 24.5888 26.9973 24.5773 26.9929 24.5666C26.9884 24.5559 26.9822 24.5461 26.9742 24.539C26.9662 24.5318 26.9572 24.5247 26.9466 24.5203C26.9359 24.5149 26.9243 24.5122 26.9127 24.5122Z" fill="#4D4D4D"/>
<path d="M13.5349 11.9246C13.4548 11.9246 13.3781 11.9407 13.3087 11.9701C13.2392 11.9994 13.1759 12.0422 13.1234 12.0948C13.0708 12.1473 13.0281 12.2106 12.9987 12.28C12.9693 12.3495 12.9532 12.4261 12.9532 12.5063C12.9532 12.5865 12.9693 12.6631 12.9987 12.7326C13.0281 12.802 13.0708 12.8653 13.1234 12.9178C13.1759 12.9704 13.2392 13.0132 13.3087 13.0426C13.3781 13.0719 13.4548 13.088 13.5349 13.088C13.6151 13.088 13.6917 13.0719 13.7612 13.0426C13.8307 13.0132 13.8939 12.9704 13.9465 12.9178C13.999 12.8653 14.0418 12.802 14.0712 12.7326C14.1006 12.6631 14.1166 12.5865 14.1166 12.5063C14.1166 12.4261 14.1006 12.3495 14.0712 12.28C14.0418 12.2106 13.999 12.1473 13.9465 12.0948C13.8939 12.0422 13.8307 11.9994 13.7612 11.9701C13.6917 11.9407 13.6151 11.9246 13.5349 11.9246ZM13.5349 12.9134C13.4788 12.9134 13.4254 12.9018 13.3773 12.8813C13.3292 12.8608 13.2846 12.8305 13.2481 12.794C13.2116 12.7575 13.1813 12.7139 13.1608 12.6649C13.1403 12.6159 13.1287 12.5624 13.1287 12.5072C13.1287 12.4511 13.1403 12.3976 13.1608 12.3495C13.1813 12.3014 13.2116 12.2569 13.2481 12.2204C13.2846 12.1838 13.3283 12.1536 13.3773 12.1331C13.4263 12.1126 13.4797 12.101 13.5349 12.101C13.5902 12.101 13.6445 12.1126 13.6926 12.1331C13.7407 12.1536 13.7852 12.1838 13.8218 12.2204C13.8583 12.2569 13.8886 12.3005 13.9091 12.3495C13.9295 12.3985 13.9411 12.452 13.9411 12.5072C13.9411 12.5633 13.9295 12.6168 13.9091 12.6649C13.8886 12.713 13.8583 12.7575 13.8218 12.794C13.7852 12.8305 13.7416 12.8608 13.6926 12.8813C13.6436 12.9018 13.591 12.9134 13.5349 12.9134Z" fill="#4D4D4D"/>
<path d="M16.1503 11.4293C16.0701 11.4293 15.9935 11.4454 15.924 11.4748C15.8545 11.5041 15.7913 11.5469 15.7387 11.5995C15.6862 11.652 15.6434 11.7153 15.614 11.7847C15.5846 11.8542 15.5686 11.9308 15.5686 12.011C15.5686 12.0912 15.5846 12.1678 15.614 12.2373C15.6434 12.3067 15.6862 12.37 15.7387 12.4225C15.7913 12.4751 15.8545 12.5179 15.924 12.5473C15.9935 12.5766 16.0701 12.5927 16.1503 12.5927C16.2305 12.5927 16.3071 12.5766 16.3765 12.5473C16.446 12.5179 16.5093 12.4751 16.5618 12.4225C16.6144 12.37 16.6571 12.3067 16.6865 12.2373C16.7159 12.1678 16.732 12.0912 16.732 12.011C16.732 11.9308 16.7159 11.8542 16.6865 11.7847C16.6571 11.7153 16.6144 11.652 16.5618 11.5995C16.5093 11.5469 16.446 11.5041 16.3765 11.4748C16.3071 11.4454 16.2305 11.4293 16.1503 11.4293ZM16.1503 12.419C16.0942 12.419 16.0407 12.4074 15.9926 12.3869C15.9445 12.3664 15.9 12.3361 15.8635 12.2996C15.8269 12.2631 15.7966 12.2194 15.7762 12.1705C15.7557 12.1215 15.7441 12.068 15.7441 12.0128C15.7441 11.9567 15.7557 11.9032 15.7762 11.8551C15.7966 11.807 15.826 11.7625 15.8635 11.726C15.9009 11.6894 15.9436 11.6591 15.9926 11.6387C16.0416 11.6182 16.0942 11.6066 16.1503 11.6066C16.2064 11.6066 16.2599 11.6182 16.308 11.6387C16.3561 11.6591 16.4006 11.6894 16.4371 11.726C16.4736 11.7625 16.5039 11.8061 16.5244 11.8551C16.5449 11.9041 16.5565 11.9576 16.5565 12.0128C16.5565 12.0689 16.5449 12.1224 16.5244 12.1705C16.5039 12.2186 16.4736 12.2631 16.4371 12.2996C16.4006 12.3361 16.3569 12.3664 16.308 12.3869C16.259 12.4074 16.2064 12.419 16.1503 12.419Z" fill="#4D4D4D"/>
<path d="M15.1615 13.8567C15.0813 13.8567 15.0047 13.8727 14.9353 13.9021C14.8658 13.9315 14.8025 13.9743 14.75 14.0268C14.6974 14.0794 14.6547 14.1426 14.6253 14.2121C14.5959 14.2816 14.5798 14.3582 14.5798 14.4384C14.5798 14.5185 14.5959 14.5951 14.6253 14.6646C14.6547 14.7341 14.6974 14.7974 14.75 14.8499C14.8025 14.9025 14.8658 14.9452 14.9353 14.9746C15.0047 15.004 15.0813 15.0209 15.1615 15.0209C15.2417 15.0209 15.3183 15.0049 15.3878 14.9746C15.4573 14.9452 15.5205 14.9025 15.5731 14.8499C15.6256 14.7974 15.6684 14.7341 15.6978 14.6646C15.7272 14.5951 15.7432 14.5185 15.7432 14.4384C15.7432 14.3582 15.7272 14.2816 15.6978 14.2121C15.6684 14.1426 15.6256 14.0794 15.5731 14.0268C15.5205 13.9743 15.4573 13.9315 15.3878 13.9021C15.3183 13.8727 15.2417 13.8567 15.1615 13.8567ZM15.1615 14.8455C15.1054 14.8455 15.0519 14.8339 15.0038 14.8134C14.9557 14.7929 14.9112 14.7626 14.8747 14.7261C14.8382 14.6896 14.8079 14.6459 14.7874 14.5969C14.7669 14.5479 14.7553 14.4945 14.7553 14.4393C14.7553 14.384 14.7669 14.3297 14.7874 14.2816C14.8079 14.2335 14.8373 14.189 14.8747 14.1524C14.9121 14.1159 14.9549 14.0856 15.0038 14.0651C15.0528 14.0446 15.1054 14.0331 15.1615 14.0331C15.2176 14.0331 15.2711 14.0446 15.3192 14.0651C15.3673 14.0856 15.4118 14.1159 15.4483 14.1524C15.4849 14.189 15.5152 14.2326 15.5356 14.2816C15.5561 14.3306 15.5677 14.384 15.5677 14.4393C15.5677 14.4945 15.5561 14.5488 15.5356 14.5969C15.5152 14.645 15.4849 14.6896 15.4483 14.7261C15.4118 14.7626 15.3682 14.7929 15.3192 14.8134C15.2702 14.8339 15.2176 14.8455 15.1615 14.8455Z" fill="#4D4D4D"/>
<path d="M14.8301 9.43927C14.75 9.43927 14.6733 9.4553 14.6039 9.4847C14.5344 9.5141 14.4711 9.55685 14.4186 9.60941C14.366 9.66197 14.3233 9.72521 14.2939 9.79469C14.2645 9.86417 14.2484 9.94078 14.2484 10.021C14.2484 10.1011 14.2645 10.1777 14.2939 10.2472C14.3233 10.3167 14.366 10.3799 14.4186 10.4325C14.4711 10.485 14.5344 10.5278 14.6039 10.5572C14.6733 10.5866 14.75 10.6026 14.8301 10.6026C14.9103 10.6026 14.9869 10.5866 15.0564 10.5572C15.1259 10.5278 15.1891 10.485 15.2417 10.4325C15.2942 10.3799 15.337 10.3167 15.3664 10.2472C15.3958 10.1777 15.4118 10.1011 15.4118 10.021C15.4118 9.94078 15.3958 9.86417 15.3664 9.79469C15.337 9.72521 15.2942 9.66197 15.2417 9.60941C15.1891 9.55685 15.1259 9.5141 15.0564 9.4847C14.9869 9.4553 14.9103 9.43927 14.8301 9.43927ZM14.8301 10.4289C14.774 10.4289 14.7206 10.4173 14.6725 10.3969C14.6244 10.3764 14.5798 10.3461 14.5433 10.3096C14.5068 10.273 14.4765 10.2294 14.456 10.1804C14.4355 10.1314 14.4239 10.078 14.4239 10.0227C14.4239 9.99601 14.4266 9.96929 14.4311 9.94345C14.4355 9.91762 14.4435 9.89268 14.4542 9.86774C14.4649 9.84279 14.4765 9.82052 14.4916 9.79826C14.5068 9.77599 14.5237 9.7555 14.5424 9.7359C14.562 9.7163 14.5825 9.69938 14.6048 9.68513C14.627 9.67087 14.6502 9.65751 14.6742 9.64771C14.6983 9.63791 14.7241 9.6299 14.75 9.62455C14.7758 9.61921 14.8025 9.61654 14.8301 9.61654C14.8862 9.61654 14.9397 9.62812 14.9878 9.6486C15.0359 9.66909 15.0804 9.69938 15.117 9.7359C15.1535 9.77242 15.1838 9.81607 15.2043 9.86506C15.2247 9.91406 15.2363 9.9675 15.2363 10.0227C15.2363 10.0789 15.2247 10.1323 15.2043 10.1804C15.1838 10.2285 15.1535 10.273 15.117 10.3096C15.0804 10.3461 15.0368 10.3764 14.9878 10.3969C14.9388 10.4173 14.8862 10.4289 14.8301 10.4289Z" fill="#4D4D4D"/>
<path d="M18.5064 10.1626C18.4262 10.1626 18.3496 10.1786 18.2801 10.208C18.2107 10.2374 18.1474 10.2802 18.0949 10.3327C18.0423 10.3853 17.9995 10.4485 17.9701 10.518C17.9407 10.5875 17.9247 10.6641 17.9247 10.7443C17.9247 10.8244 17.9407 10.9011 17.9701 10.9705C17.9995 11.04 18.0423 11.1033 18.0949 11.1558C18.1474 11.2084 18.2107 11.2511 18.2801 11.2805C18.3496 11.3099 18.4262 11.326 18.5064 11.326C18.5866 11.326 18.6632 11.3099 18.7327 11.2805C18.8021 11.2511 18.8654 11.2084 18.9179 11.1558C18.9705 11.1033 19.0133 11.04 19.0426 10.9705C19.072 10.9011 19.0881 10.8244 19.0881 10.7443C19.0881 10.6641 19.072 10.5875 19.0426 10.518C19.0133 10.4485 18.9705 10.3853 18.9179 10.3327C18.8654 10.2802 18.8021 10.2374 18.7327 10.208C18.6641 10.1786 18.5875 10.1626 18.5064 10.1626ZM18.5064 11.1514C18.4503 11.1514 18.3968 11.1398 18.3487 11.1193C18.2997 11.0988 18.2561 11.0685 18.2196 11.032C18.183 10.9955 18.1528 10.9518 18.1323 10.9028C18.1118 10.8538 18.1002 10.8004 18.1002 10.7452C18.1002 10.6899 18.1118 10.6356 18.1323 10.5875C18.1528 10.5385 18.1821 10.4949 18.2196 10.4583C18.257 10.4218 18.2997 10.3915 18.3487 10.371C18.3968 10.3506 18.4503 10.339 18.5064 10.339C18.5625 10.339 18.616 10.3506 18.6641 10.371C18.7131 10.3915 18.7567 10.4218 18.7932 10.4583C18.8297 10.4949 18.86 10.5385 18.8805 10.5875C18.901 10.6365 18.9126 10.6899 18.9126 10.7452C18.9126 10.8004 18.901 10.8547 18.8805 10.9028C18.86 10.9518 18.8297 10.9955 18.7932 11.032C18.7567 11.0685 18.7131 11.0988 18.6641 11.1193C18.616 11.1398 18.5625 11.1514 18.5064 11.1514Z" fill="#4D4D4D"/>
<path d="M12.2362 10.1626C12.156 10.1626 12.0794 10.1786 12.0099 10.208C11.9405 10.2374 11.8772 10.2802 11.8246 10.3327C11.7721 10.3853 11.7293 10.4485 11.6999 10.518C11.6705 10.5875 11.6545 10.6641 11.6545 10.7443C11.6545 10.8244 11.6705 10.9011 11.6999 10.9705C11.7293 11.04 11.7721 11.1033 11.8246 11.1558C11.8772 11.2084 11.9405 11.2511 12.0099 11.2805C12.0794 11.3099 12.156 11.326 12.2362 11.326C12.3164 11.326 12.393 11.3099 12.4624 11.2805C12.5319 11.2511 12.5952 11.2084 12.6477 11.1558C12.7003 11.1033 12.743 11.04 12.7724 10.9705C12.8018 10.9011 12.8179 10.8244 12.8179 10.7443C12.8179 10.6641 12.8018 10.5875 12.7724 10.518C12.743 10.4485 12.7003 10.3853 12.6477 10.3327C12.5952 10.2802 12.5319 10.2374 12.4624 10.208C12.393 10.1786 12.3164 10.1626 12.2362 10.1626ZM12.2362 11.1523C12.1801 11.1523 12.1266 11.1407 12.0785 11.1202C12.0304 11.0997 11.9859 11.0694 11.9494 11.0329C11.9128 10.9964 11.8826 10.9527 11.8621 10.9037C11.8416 10.8547 11.83 10.8013 11.83 10.7461C11.83 10.6908 11.8416 10.6365 11.8621 10.5884C11.8826 10.5403 11.9119 10.4958 11.9494 10.4592C11.9868 10.4227 12.0295 10.3924 12.0785 10.3719C12.1275 10.3514 12.1801 10.3399 12.2362 10.3399C12.2923 10.3399 12.3458 10.3514 12.3939 10.3719C12.442 10.3924 12.4865 10.4227 12.523 10.4592C12.5595 10.4958 12.5898 10.5394 12.6103 10.5884C12.6308 10.6374 12.6424 10.6908 12.6424 10.7461C12.6424 10.8013 12.6308 10.8556 12.6103 10.9037C12.5898 10.9518 12.5595 10.9964 12.523 11.0329C12.4865 11.0694 12.4429 11.0997 12.3939 11.1202C12.3449 11.1407 12.2914 11.1523 12.2362 11.1523Z" fill="#4D4D4D"/>
<path d="M12.2362 14.14C12.156 14.14 12.0794 14.156 12.0099 14.1854C11.9405 14.2148 11.8772 14.2575 11.8246 14.3101C11.7721 14.3626 11.7293 14.4259 11.6999 14.4954C11.6705 14.5649 11.6545 14.6415 11.6545 14.7216C11.6545 14.8018 11.6705 14.8784 11.6999 14.9479C11.7293 15.0174 11.7721 15.0806 11.8246 15.1332C11.8772 15.1857 11.9405 15.2285 12.0099 15.2579C12.0794 15.2873 12.156 15.3042 12.2362 15.3042C12.3164 15.3042 12.393 15.2882 12.4624 15.2579C12.5319 15.2285 12.5952 15.1857 12.6477 15.1332C12.7003 15.0806 12.743 15.0174 12.7724 14.9479C12.8018 14.8784 12.8179 14.8018 12.8179 14.7216C12.8179 14.6415 12.8018 14.5649 12.7724 14.4954C12.743 14.4259 12.7003 14.3626 12.6477 14.3101C12.5952 14.2575 12.5319 14.2148 12.4624 14.1854C12.393 14.1569 12.3164 14.14 12.2362 14.14ZM12.2362 15.1296C12.1801 15.1296 12.1266 15.118 12.0785 15.0975C12.0304 15.0771 11.9859 15.0468 11.9494 15.0102C11.9128 14.9737 11.8826 14.9301 11.8621 14.8811C11.8416 14.8321 11.83 14.7786 11.83 14.7234C11.83 14.6682 11.8416 14.6138 11.8621 14.5657C11.8826 14.5176 11.9119 14.4731 11.9494 14.4366C11.9868 14.4001 12.0295 14.3698 12.0785 14.3493C12.1275 14.3288 12.1801 14.3172 12.2362 14.3172C12.2923 14.3172 12.3458 14.3288 12.3939 14.3493C12.442 14.3698 12.4865 14.4001 12.523 14.4366C12.5595 14.4731 12.5898 14.5168 12.6103 14.5657C12.6308 14.6147 12.6424 14.6682 12.6424 14.7234C12.6424 14.7786 12.6308 14.833 12.6103 14.8811C12.5898 14.9292 12.5595 14.9737 12.523 15.0102C12.4865 15.0468 12.4429 15.0771 12.3939 15.0975C12.3449 15.118 12.2914 15.1296 12.2362 15.1296Z" fill="#4D4D4D"/>
<path d="M10.199 12.1197C10.1188 12.1197 10.0422 12.1357 9.9727 12.1651C9.90322 12.1945 9.83997 12.2373 9.78742 12.2898C9.73486 12.3424 9.6921 12.4056 9.66271 12.4751C9.63331 12.5446 9.61728 12.6212 9.61728 12.7014C9.61728 12.7815 9.63331 12.8581 9.66271 12.9276C9.6921 12.9971 9.73486 13.0604 9.78742 13.1129C9.83997 13.1655 9.90322 13.2082 9.9727 13.2376C10.0422 13.267 10.1188 13.2831 10.199 13.2831C10.2791 13.2831 10.3557 13.267 10.4252 13.2376C10.4947 13.2082 10.5579 13.1655 10.6105 13.1129C10.6631 13.0604 10.7058 12.9971 10.7352 12.9276C10.7646 12.8581 10.7806 12.7815 10.7806 12.7014C10.7806 12.6212 10.7646 12.5446 10.7352 12.4751C10.7058 12.4056 10.6631 12.3424 10.6105 12.2898C10.5579 12.2373 10.4947 12.1945 10.4252 12.1651C10.3557 12.1357 10.2791 12.1197 10.199 12.1197ZM10.199 13.1093C10.1428 13.1093 10.0894 13.0978 10.0413 13.0773C9.99319 13.0568 9.94865 13.0265 9.91213 12.99C9.87561 12.9535 9.84532 12.9098 9.82483 12.8608C9.80434 12.8118 9.79276 12.7584 9.79276 12.7032C9.79276 12.647 9.80434 12.5936 9.82483 12.5455C9.84532 12.4974 9.87472 12.4528 9.91213 12.4163C9.94954 12.3798 9.9923 12.3495 10.0413 12.329C10.0903 12.3085 10.1428 12.297 10.199 12.297C10.2551 12.297 10.3085 12.3085 10.3566 12.329C10.4047 12.3495 10.4493 12.3798 10.4858 12.4163C10.5223 12.4528 10.5526 12.4965 10.5731 12.5455C10.5936 12.5945 10.6052 12.6479 10.6052 12.7032C10.6052 12.7593 10.5936 12.8127 10.5731 12.8608C10.5526 12.9089 10.5223 12.9535 10.4858 12.99C10.4493 13.0265 10.4056 13.0568 10.3566 13.0773C10.3076 13.0978 10.2551 13.1093 10.199 13.1093Z" fill="#4D4D4D"/>
<path d="M13.2249 16.114C13.1448 16.114 13.0682 16.13 12.9987 16.1603C12.9292 16.1906 12.8659 16.2324 12.8134 16.285C12.7608 16.3375 12.7181 16.4008 12.6887 16.4703C12.6593 16.5397 12.6432 16.6164 12.6432 16.6974C12.6432 16.7776 12.6593 16.8542 12.6887 16.9237C12.7181 16.9932 12.7608 17.0564 12.8134 17.109C12.8659 17.1615 12.9292 17.2043 12.9987 17.2337C13.0682 17.2631 13.1448 17.2791 13.2249 17.2791C13.3051 17.2791 13.3817 17.2631 13.4512 17.2337C13.5207 17.2043 13.5839 17.1615 13.6365 17.109C13.689 17.0564 13.7318 16.9932 13.7612 16.9237C13.7906 16.8542 13.8066 16.7776 13.8066 16.6974C13.8066 16.6172 13.7906 16.5406 13.7612 16.4703C13.7318 16.3999 13.689 16.3375 13.6365 16.285C13.5839 16.2324 13.5207 16.1897 13.4512 16.1603C13.3817 16.1309 13.3051 16.114 13.2249 16.114ZM13.2249 17.1027C13.1688 17.1027 13.1154 17.0911 13.0673 17.0707C13.0192 17.0502 12.9746 17.0208 12.9381 16.9834C12.9016 16.9459 12.8713 16.9032 12.8508 16.8542C12.8303 16.8061 12.8187 16.7526 12.8187 16.6965C12.8187 16.6404 12.8303 16.587 12.8508 16.538C12.8713 16.489 12.9007 16.4453 12.9381 16.4088C12.9755 16.3723 13.0183 16.342 13.0673 16.3215C13.1154 16.301 13.1688 16.2894 13.2249 16.2894C13.281 16.2894 13.3345 16.301 13.3826 16.3215C13.4316 16.342 13.4752 16.3723 13.5118 16.4088C13.5483 16.4453 13.5786 16.4899 13.5991 16.538C13.6195 16.587 13.6311 16.6404 13.6311 16.6965C13.6311 16.7526 13.6195 16.8061 13.5991 16.8542C13.5786 16.9032 13.5483 16.9468 13.5118 16.9834C13.4752 17.0199 13.4316 17.0502 13.3826 17.0707C13.3345 17.0911 13.281 17.1027 13.2249 17.1027Z" fill="#4D4D4D"/>
<path d="M9.95757 15.6187C9.87739 15.6187 9.80079 15.6347 9.73131 15.665C9.66183 15.6944 9.59858 15.7371 9.54602 15.7897C9.49347 15.8422 9.45071 15.9055 9.42131 15.975C9.39192 16.0444 9.37589 16.1211 9.37589 16.2021C9.37589 16.2823 9.39192 16.3589 9.42131 16.4284C9.45071 16.4979 9.49347 16.5611 9.54602 16.6137C9.59858 16.6662 9.66183 16.709 9.73131 16.7384C9.80079 16.7678 9.87739 16.7838 9.95757 16.7838C10.0377 16.7838 10.1143 16.7678 10.1838 16.7384C10.2533 16.709 10.3166 16.6662 10.3691 16.6137C10.4217 16.5611 10.4644 16.4979 10.4938 16.4284C10.5232 16.3589 10.5392 16.2823 10.5392 16.2021C10.5392 16.1219 10.5232 16.0453 10.4938 15.975C10.4644 15.9046 10.4217 15.8422 10.3691 15.7897C10.3166 15.7371 10.2533 15.6944 10.1838 15.665C10.1143 15.6356 10.0377 15.6187 9.95757 15.6187ZM9.95757 16.6074C9.90145 16.6074 9.848 16.5958 9.7999 16.5754C9.75179 16.5549 9.70726 16.5255 9.67073 16.4881C9.63421 16.4515 9.60393 16.4079 9.58344 16.3589C9.56295 16.3108 9.55137 16.2573 9.55137 16.2012C9.55137 16.1451 9.56295 16.0917 9.58344 16.0427C9.60393 15.9937 9.63332 15.95 9.67073 15.9135C9.70726 15.877 9.7509 15.8467 9.7999 15.8262C9.848 15.8057 9.90145 15.7941 9.95757 15.7941C10.0137 15.7941 10.0671 15.8057 10.1152 15.8262C10.1642 15.8467 10.2079 15.877 10.2444 15.9135C10.2809 15.95 10.3112 15.9946 10.3317 16.0427C10.3522 16.0917 10.3638 16.1451 10.3638 16.2012C10.3638 16.2573 10.3522 16.3108 10.3317 16.3589C10.3112 16.4079 10.2809 16.4515 10.2444 16.4881C10.2079 16.5246 10.1642 16.5549 10.1152 16.5754C10.0671 16.5967 10.0137 16.6074 9.95757 16.6074Z" fill="#4D4D4D"/>
<path d="M7.97826 13.8567C7.89809 13.8567 7.82148 13.8727 7.752 13.903C7.68252 13.9333 7.61927 13.9752 7.56672 14.0277C7.51416 14.0803 7.4714 14.1435 7.44201 14.213C7.41261 14.2825 7.39658 14.3591 7.39658 14.4402C7.39658 14.4793 7.40014 14.5168 7.40727 14.5542C7.41439 14.5916 7.42597 14.6272 7.44022 14.6628C7.45448 14.6985 7.47229 14.7314 7.49367 14.7626C7.51505 14.7938 7.5391 14.8241 7.56672 14.8517C7.59433 14.8793 7.62373 14.9034 7.65579 14.9247C7.68608 14.9461 7.71993 14.9639 7.75467 14.9782C7.78941 14.9924 7.82593 15.004 7.86335 15.0111C7.90076 15.0183 7.93906 15.0227 7.97826 15.0227C8.05843 15.0227 8.13503 15.0067 8.20452 14.9773C8.274 14.9479 8.33724 14.9051 8.3898 14.8526C8.44235 14.8 8.48511 14.7368 8.51451 14.6673C8.5439 14.5978 8.55994 14.5212 8.55994 14.441C8.55994 14.3609 8.5439 14.2843 8.51451 14.2139C8.48511 14.1435 8.44235 14.0812 8.3898 14.0286C8.33724 13.9761 8.274 13.9333 8.20452 13.9039C8.13503 13.8745 8.05843 13.8567 7.97826 13.8567ZM7.97826 14.8463C7.92214 14.8463 7.86869 14.8348 7.82059 14.8143C7.77249 14.7938 7.72795 14.7644 7.69142 14.727C7.6549 14.6896 7.62462 14.6468 7.60413 14.5978C7.58364 14.5497 7.57206 14.4963 7.57206 14.4402C7.57206 14.4134 7.57473 14.3867 7.57919 14.36C7.58453 14.3341 7.59166 14.3083 7.60235 14.2843C7.61304 14.2602 7.62462 14.2362 7.63976 14.2148C7.6549 14.1925 7.67183 14.172 7.69053 14.1524C7.71013 14.1328 7.73062 14.1159 7.75289 14.1017C7.77516 14.0865 7.79832 14.074 7.82237 14.0642C7.84642 14.0544 7.87225 14.0464 7.89809 14.0411C7.92392 14.0357 7.95064 14.0331 7.97826 14.0331C8.03438 14.0331 8.08782 14.0446 8.13593 14.0651C8.18403 14.0856 8.22857 14.1159 8.26509 14.1524C8.30161 14.189 8.3319 14.2335 8.35239 14.2816C8.37287 14.3306 8.38445 14.384 8.38445 14.4402C8.38445 14.4963 8.37287 14.5497 8.35239 14.5978C8.3319 14.6468 8.30161 14.6905 8.26509 14.727C8.22857 14.7635 8.18492 14.7938 8.13593 14.8143C8.08693 14.8348 8.03438 14.8463 7.97826 14.8463Z" fill="#4D4D4D"/>
<path d="M18.012 12.867C17.9318 12.867 17.8552 12.883 17.7858 12.9124C17.7163 12.9418 17.653 12.9846 17.6005 13.0371C17.5479 13.0897 17.5052 13.1529 17.4758 13.2224C17.4464 13.2919 17.4303 13.3685 17.4303 13.4487C17.4303 13.5289 17.4464 13.6055 17.4758 13.6749C17.5052 13.7444 17.5479 13.8077 17.6005 13.8602C17.653 13.9128 17.7163 13.9555 17.7858 13.9849C17.8552 14.0143 17.9318 14.0304 18.012 14.0304C18.0922 14.0304 18.1688 14.0143 18.2383 13.9849C18.3077 13.9555 18.371 13.9128 18.4236 13.8602C18.4761 13.8077 18.5189 13.7444 18.5483 13.6749C18.5777 13.6055 18.5937 13.5289 18.5937 13.4487C18.5937 13.3685 18.5777 13.2919 18.5483 13.2224C18.5189 13.1529 18.4761 13.0897 18.4236 13.0371C18.371 12.9846 18.3077 12.9418 18.2383 12.9124C18.1688 12.8839 18.0922 12.867 18.012 12.867ZM18.012 13.8567C17.9559 13.8567 17.9024 13.8451 17.8543 13.8246C17.8053 13.8041 17.7617 13.7738 17.7252 13.7373C17.6887 13.7008 17.6584 13.6571 17.6379 13.6081C17.6174 13.5591 17.6058 13.5057 17.6058 13.4505C17.6058 13.3943 17.6174 13.3409 17.6379 13.2928C17.6584 13.2438 17.6878 13.2002 17.7252 13.1636C17.7626 13.1271 17.8053 13.0968 17.8543 13.0763C17.9024 13.0558 17.9559 13.0443 18.012 13.0443C18.0681 13.0443 18.1216 13.0558 18.1697 13.0763C18.2178 13.0968 18.2623 13.1271 18.2988 13.1636C18.3354 13.2002 18.3656 13.2438 18.3861 13.2928C18.4066 13.3418 18.4182 13.3952 18.4182 13.4505C18.4182 13.5066 18.4066 13.56 18.3861 13.6081C18.3656 13.6562 18.3354 13.7008 18.2988 13.7373C18.2623 13.7738 18.2187 13.8041 18.1697 13.8246C18.1207 13.8451 18.0681 13.8567 18.012 13.8567Z" fill="#4D4D4D"/>
<path d="M9.95754 18.3533C9.87737 18.3533 9.80076 18.3694 9.73128 18.3997C9.6618 18.429 9.59856 18.4718 9.546 18.5244C9.49344 18.5769 9.45069 18.6402 9.42129 18.7096C9.39189 18.7791 9.37497 18.8566 9.37497 18.9368C9.37497 18.976 9.37853 19.0143 9.38566 19.0508C9.39279 19.0873 9.40437 19.1239 9.41862 19.1595C9.43287 19.1951 9.45069 19.2281 9.47206 19.2593C9.49344 19.2904 9.51749 19.3207 9.54511 19.3483C9.57272 19.376 9.60212 19.4 9.63419 19.4214C9.66626 19.4428 9.69921 19.4606 9.73396 19.4748C9.7687 19.4891 9.80522 19.5007 9.84263 19.5078C9.88004 19.5149 9.91835 19.5194 9.95754 19.5194C10.0377 19.5194 10.1143 19.5033 10.1838 19.4739C10.2533 19.4445 10.3165 19.4018 10.3691 19.3492C10.4216 19.2967 10.4644 19.2334 10.4938 19.1639C10.5232 19.0945 10.5392 19.0179 10.5392 18.9377C10.5392 18.8575 10.5232 18.7809 10.4938 18.7105C10.4644 18.6402 10.4216 18.5778 10.3691 18.5253C10.3165 18.4727 10.2533 18.4299 10.1838 18.4005C10.1143 18.3711 10.0377 18.3533 9.95754 18.3533ZM9.95754 19.343C9.90142 19.343 9.84797 19.3314 9.79987 19.3109C9.75177 19.2904 9.70723 19.2601 9.67071 19.2236C9.63419 19.1871 9.6039 19.1435 9.58341 19.0945C9.56292 19.0455 9.55134 18.9929 9.55134 18.9368C9.55134 18.9101 9.55402 18.8833 9.55847 18.8575C9.56382 18.8317 9.57094 18.8058 9.58163 18.7818C9.59232 18.7577 9.6039 18.7337 9.61904 18.7123C9.63419 18.69 9.65111 18.6696 9.66982 18.65C9.68942 18.6304 9.7099 18.6134 9.73217 18.5992C9.75444 18.5849 9.7776 18.5716 9.80165 18.5618C9.82571 18.552 9.85154 18.544 9.87737 18.5386C9.9032 18.5333 9.92993 18.5306 9.95754 18.5306C10.0137 18.5306 10.0671 18.5422 10.1152 18.5627C10.1642 18.5832 10.2079 18.6134 10.2444 18.65C10.2809 18.6865 10.3112 18.731 10.3317 18.7791C10.3522 18.8281 10.3637 18.8816 10.3637 18.9377C10.3637 18.9938 10.3522 19.0473 10.3317 19.0954C10.3112 19.1435 10.2809 19.188 10.2444 19.2245C10.2079 19.261 10.1642 19.2913 10.1152 19.3118C10.0662 19.3323 10.0137 19.343 9.95754 19.343Z" fill="#4D4D4D"/>
<path d="M22.7599 19.6361L22.5692 19.4454L22.3786 19.2548L22.188 19.0642L21.9974 18.8735C21.9929 18.8691 21.9885 18.8655 21.984 18.8629C21.9796 18.8602 21.9742 18.8566 21.9689 18.8548C21.9635 18.8531 21.9582 18.8513 21.9528 18.8495C21.9475 18.8477 21.9412 18.8477 21.9359 18.8477C21.9297 18.8477 21.9243 18.8486 21.9181 18.8495C21.9127 18.8504 21.9065 18.8522 21.9021 18.8548C21.8976 18.8575 21.8914 18.8593 21.8869 18.8629C21.8825 18.8664 21.878 18.87 21.8735 18.8735L21.6829 19.0642L21.4923 19.2548L21.3017 19.4454L21.111 19.6361C21.1021 19.645 21.0959 19.6548 21.0914 19.6655C21.087 19.6761 21.0852 19.6877 21.0852 19.6984C21.0852 19.7091 21.087 19.7207 21.0914 19.7314C21.0959 19.7421 21.1021 19.7519 21.111 19.7608L21.3017 19.9514L21.4923 20.142L21.6829 20.3327L21.8735 20.5233C21.8789 20.5286 21.8851 20.5331 21.8905 20.5366C21.8967 20.5402 21.9021 20.5429 21.9074 20.5447C21.9127 20.5464 21.9181 20.5473 21.9234 20.5482C21.9279 20.5491 21.9323 20.5491 21.9359 20.5491C21.9421 20.5491 21.9475 20.5482 21.9537 20.5473C21.96 20.5464 21.9653 20.5447 21.9706 20.542C21.976 20.5393 21.9813 20.5366 21.9858 20.534C21.9902 20.5313 21.9956 20.5268 21.9991 20.5224L22.1898 20.3318L22.3804 20.1411L22.571 19.9505L22.7617 19.7599C22.7706 19.751 22.7768 19.7412 22.7813 19.7305C22.7857 19.7198 22.7875 19.7082 22.7875 19.6975C22.7875 19.6868 22.7857 19.6753 22.7813 19.6646C22.7768 19.6539 22.7688 19.645 22.7599 19.6361ZM22.4659 19.8062L22.3599 19.9122L22.2539 20.0182L22.1479 20.1242L22.0419 20.2302L22.0152 20.2569L21.9885 20.2837L21.9617 20.3104L21.935 20.3371L21.9083 20.3104L21.8816 20.2837L21.8548 20.2569L21.8281 20.2302L21.7221 20.1242L21.6161 20.0182L21.5101 19.9122L21.4041 19.8062L21.3774 19.7795L21.3507 19.7528L21.3239 19.726L21.2972 19.6993L21.3239 19.6726L21.3507 19.6459L21.3774 19.6191L21.4041 19.5924L21.5101 19.4864L21.6161 19.3804L21.7221 19.2744L21.8281 19.1684L21.8548 19.1417L21.8816 19.115L21.9083 19.0882L21.935 19.0615L21.9617 19.0882L21.9885 19.115L22.0152 19.1417L22.0419 19.1684L22.1479 19.2744L22.2539 19.3804L22.3599 19.4864L22.4659 19.5924L22.4926 19.6191L22.5194 19.6459L22.5461 19.6726L22.5728 19.6993L22.5461 19.726L22.5194 19.7528L22.4926 19.7795L22.4659 19.8062Z" fill="#4D4D4D"/>
<path d="M22.3163 17.1276L22.1257 16.937L21.935 16.7464L21.7444 16.5558L21.5538 16.3651C21.5502 16.3616 21.5458 16.358 21.5413 16.3553C21.5368 16.3527 21.5315 16.35 21.5262 16.3482C21.5208 16.3464 21.5155 16.3447 21.5092 16.3438C21.503 16.3429 21.4976 16.342 21.4914 16.342C21.4852 16.342 21.4789 16.3429 21.4736 16.3438C21.4674 16.3447 21.462 16.3464 21.4567 16.3482C21.4513 16.35 21.4469 16.3527 21.4415 16.3553C21.4371 16.358 21.4326 16.3616 21.4291 16.3651L21.2384 16.5558L21.0478 16.7464L20.8572 16.937L20.6666 17.1276C20.6621 17.1321 20.6585 17.1366 20.6559 17.141C20.6523 17.1455 20.6496 17.1508 20.6478 17.1562C20.6461 17.1615 20.6443 17.1668 20.6425 17.1731C20.6416 17.1784 20.6407 17.1847 20.6407 17.1909C20.6407 17.1971 20.6416 17.2025 20.6425 17.2087C20.6434 17.2141 20.6452 17.2203 20.6478 17.2256C20.6505 17.231 20.6532 17.2363 20.6559 17.2408C20.6594 17.2452 20.663 17.2506 20.6674 17.2541L20.8581 17.4448L21.0487 17.6354L21.2393 17.826L21.4299 18.0167C21.4353 18.022 21.4415 18.0264 21.4469 18.03C21.4522 18.0336 21.4585 18.0362 21.4638 18.038C21.4691 18.0398 21.4745 18.0407 21.4789 18.0416C21.4834 18.0425 21.4879 18.0425 21.4914 18.0425C21.4976 18.0425 21.503 18.0416 21.5092 18.0407C21.5155 18.0398 21.5208 18.038 21.5262 18.0354C21.5315 18.0327 21.5368 18.03 21.5413 18.0273C21.5458 18.0247 21.5511 18.0202 21.5547 18.0158L21.7453 17.8251L21.9359 17.6345L22.1265 17.4439L22.3172 17.2532C22.3216 17.2488 22.3252 17.2443 22.3279 17.2399C22.3314 17.2354 22.3341 17.2301 22.3359 17.2247C22.3377 17.2194 22.3394 17.2141 22.3412 17.2078C22.3421 17.2025 22.343 17.1962 22.343 17.19C22.343 17.1838 22.3421 17.1784 22.3412 17.1722C22.3403 17.1668 22.3385 17.1606 22.3359 17.1553C22.3332 17.1499 22.3305 17.1446 22.3279 17.1401C22.3243 17.1366 22.3207 17.1321 22.3163 17.1276ZM22.0232 17.2987L21.9172 17.4047L21.8112 17.5107L21.7052 17.6167L21.5992 17.7227L21.5725 17.7494L21.5458 17.7761L21.519 17.8029L21.4923 17.8296L21.4656 17.8029L21.4389 17.7761L21.4121 17.7494L21.3854 17.7227L21.2794 17.6167L21.1734 17.5107L21.0674 17.4047L20.9614 17.2987L20.9347 17.272L20.908 17.2452L20.8812 17.2185L20.8545 17.1918L20.8812 17.1651L20.908 17.1383L20.9347 17.1116L20.9614 17.0849L21.0674 16.9789L21.1734 16.8729L21.2794 16.7669L21.3854 16.6609L21.4121 16.6342L21.4389 16.6074L21.4656 16.5807L21.4923 16.554L21.519 16.5807L21.5458 16.6074L21.5725 16.6342L21.5992 16.6609L21.7052 16.7669L21.8112 16.8729L21.9172 16.9789L22.0232 17.0849L22.0499 17.1116L22.0767 17.1383L22.1034 17.1651L22.1301 17.1918L22.1034 17.2185L22.0767 17.2452L22.0499 17.272L22.0232 17.2987Z" fill="#4D4D4D"/>
<path d="M19.3322 19.3688L19.1415 19.1782L18.9509 18.9876L18.7603 18.797L18.5697 18.6063C18.5652 18.6019 18.5607 18.5983 18.5563 18.5956C18.5518 18.593 18.5465 18.5894 18.5412 18.5876C18.5358 18.5859 18.5305 18.5841 18.5251 18.5823C18.5198 18.5805 18.5135 18.5805 18.5082 18.5805C18.5028 18.5805 18.4966 18.5814 18.4913 18.5823C18.4859 18.5832 18.4797 18.585 18.4752 18.5876C18.4708 18.5903 18.4645 18.5921 18.4601 18.5956C18.4556 18.5992 18.4512 18.6028 18.4467 18.6063L18.2561 18.797L18.0655 18.9876L17.8748 19.1782L17.6842 19.3688C17.6753 19.3778 17.6691 19.3876 17.6646 19.3982C17.6602 19.4089 17.6584 19.4205 17.6584 19.4312C17.6584 19.4419 17.6602 19.4535 17.6646 19.4642C17.6691 19.4749 17.6753 19.4846 17.6842 19.4936L17.8748 19.6842L18.0655 19.8748L18.2561 20.0654L18.4467 20.2561C18.4521 20.2614 18.4583 20.2659 18.4637 20.2694C18.469 20.273 18.4752 20.2757 18.4806 20.2774C18.4859 20.2792 18.4913 20.2801 18.4966 20.281C18.502 20.2819 18.5055 20.2819 18.5091 20.2819C18.5153 20.2819 18.5207 20.281 18.5269 20.2801C18.5322 20.2792 18.5385 20.2774 18.5438 20.2748C18.5492 20.2721 18.5545 20.2694 18.559 20.2668C18.5634 20.2632 18.5688 20.2596 18.5723 20.2552L18.763 20.0645L18.9536 19.8739L19.1442 19.6833L19.3348 19.4927C19.3437 19.4838 19.35 19.474 19.3535 19.4633C19.3571 19.4526 19.3598 19.441 19.3598 19.4303C19.3598 19.4196 19.358 19.408 19.3535 19.3974C19.3491 19.3867 19.3411 19.3778 19.3322 19.3688ZM19.0382 19.5381L18.9322 19.6441L18.8262 19.7501L18.7202 19.8561L18.6142 19.9621L18.5875 19.9888L18.5607 20.0156L18.534 20.0423L18.5073 20.069L18.4806 20.0423L18.4539 20.0156L18.4271 19.9888L18.4004 19.9621L18.2944 19.8561L18.1884 19.7501L18.0824 19.6441L17.9764 19.5381L17.9497 19.5114L17.9229 19.4847L17.8962 19.4579L17.8695 19.4312L17.8962 19.4045L17.9229 19.3778L17.9497 19.351L17.9764 19.3243L18.0824 19.2183L18.1884 19.1123L18.2944 19.0063L18.4004 18.9003L18.4271 18.8736L18.4539 18.8468L18.4806 18.8201L18.5073 18.7934L18.534 18.8201L18.5607 18.8468L18.5875 18.8736L18.6142 18.9003L18.7202 19.0063L18.8262 19.1123L18.9322 19.2183L19.0382 19.3243L19.0649 19.351L19.0917 19.3778L19.1184 19.4045L19.1451 19.4312L19.1184 19.4579L19.0917 19.4847L19.0649 19.5114L19.0382 19.5381Z" fill="#4D4D4D"/>
<path d="M20.5891 21.4373L20.3984 21.2466L20.2078 21.056L20.0172 20.8654L19.8266 20.6748C19.8221 20.6703 19.8176 20.6667 19.8132 20.6641C19.8087 20.6614 19.8034 20.6578 19.798 20.6561C19.7927 20.6543 19.7874 20.6525 19.782 20.6507C19.7767 20.6489 19.7704 20.6489 19.7651 20.6489C19.7597 20.6489 19.7535 20.6498 19.7482 20.6507C19.7428 20.6516 19.7366 20.6534 19.7321 20.6561C19.7277 20.6587 19.7214 20.6605 19.717 20.6641C19.7125 20.6676 19.7081 20.6712 19.7036 20.6748L19.513 20.8654L19.3224 21.056L19.1317 21.2466L18.9411 21.4373C18.9322 21.4462 18.926 21.456 18.9215 21.4667C18.9171 21.4774 18.9153 21.4889 18.9153 21.4996C18.9153 21.5103 18.9171 21.5219 18.9215 21.5326C18.926 21.5433 18.9322 21.5531 18.9411 21.562L19.1317 21.7526L19.3224 21.9432L19.513 22.1339L19.7036 22.3245C19.709 22.3298 19.7152 22.3343 19.7206 22.3378C19.7268 22.3414 19.7321 22.3441 19.7375 22.3459C19.7428 22.3476 19.7482 22.3485 19.7535 22.3494C19.758 22.3503 19.7624 22.3503 19.766 22.3503C19.7722 22.3503 19.7776 22.3494 19.7838 22.3485C19.79 22.3476 19.7954 22.3459 19.8007 22.3432C19.8061 22.3405 19.8114 22.3378 19.8159 22.3352C19.8203 22.3325 19.8257 22.328 19.8292 22.3236L20.0199 22.133L20.2105 21.9423L20.4011 21.7517L20.5917 21.5611C20.6006 21.5522 20.6069 21.5424 20.6113 21.5317C20.6158 21.521 20.6176 21.5094 20.6176 21.4987C20.6176 21.488 20.6158 21.4765 20.6113 21.4658C20.6042 21.456 20.598 21.4453 20.5891 21.4373ZM20.2951 21.6065L20.1891 21.7125L20.0831 21.8185L19.9771 21.9245L19.8711 22.0305L19.8444 22.0573L19.8176 22.084L19.7909 22.1107L19.7642 22.1374L19.7375 22.1107L19.7108 22.084L19.684 22.0573L19.6573 22.0305L19.5513 21.9245L19.4453 21.8185L19.3393 21.7125L19.2333 21.6065L19.2066 21.5798L19.1798 21.5531L19.1531 21.5263L19.1264 21.4996L19.1531 21.4729L19.1798 21.4462L19.2066 21.4195L19.2333 21.3927L19.3393 21.2867L19.4453 21.1807L19.5513 21.0747L19.6573 20.9687L19.684 20.942L19.7108 20.9153L19.7375 20.8885L19.7642 20.8618L19.7909 20.8885L19.8176 20.9153L19.8444 20.942L19.8711 20.9687L19.9771 21.0747L20.0831 21.1807L20.1891 21.2867L20.2951 21.3927L20.3218 21.4195L20.3486 21.4462L20.3753 21.4729L20.402 21.4996L20.3753 21.5263L20.3486 21.5531L20.3218 21.5798L20.2951 21.6065Z" fill="#4D4D4D"/>
<path d="M16.9752 21.1611L16.7845 20.9705L16.5939 20.7799L16.4033 20.5893L16.2126 20.3986C16.2082 20.3942 16.2037 20.3906 16.1993 20.3879C16.1948 20.3853 16.1895 20.3817 16.1841 20.3799C16.1788 20.3781 16.1735 20.3764 16.1672 20.3746C16.161 20.3728 16.1556 20.3728 16.1494 20.3728C16.1432 20.3728 16.1378 20.3737 16.1316 20.3746C16.1254 20.3755 16.12 20.3773 16.1156 20.3799C16.1111 20.3826 16.1049 20.3844 16.1004 20.3879C16.096 20.3915 16.0915 20.3951 16.087 20.3986L15.8964 20.5893L15.7058 20.7799L15.5152 20.9705L15.3245 21.1611C15.3201 21.1656 15.3165 21.1701 15.3138 21.1745C15.3103 21.179 15.3076 21.1843 15.3058 21.1896C15.3041 21.195 15.3023 21.2003 15.3005 21.2066C15.2996 21.2119 15.2987 21.2182 15.2987 21.2244C15.2987 21.2306 15.2996 21.236 15.3005 21.2422C15.3014 21.2476 15.3032 21.2538 15.3058 21.2591C15.3085 21.2645 15.3112 21.2698 15.3138 21.2743C15.3174 21.2787 15.321 21.2841 15.3254 21.2876L15.5161 21.4783L15.7067 21.6689L15.8973 21.8595L16.0879 22.0501C16.0924 22.0546 16.0968 22.0582 16.1013 22.0608C16.1058 22.0644 16.1111 22.0671 16.1164 22.0689C16.1218 22.0706 16.1271 22.0724 16.1334 22.0742C16.1387 22.0751 16.1449 22.076 16.1512 22.076C16.1574 22.076 16.1628 22.0751 16.1681 22.0742C16.1735 22.0733 16.1797 22.0715 16.185 22.0689C16.1904 22.0662 16.1957 22.0635 16.2002 22.0608C16.2046 22.0582 16.21 22.0537 16.2135 22.0501L16.4042 21.8595L16.5948 21.6689L16.7854 21.4783L16.976 21.2876C16.9805 21.2832 16.9841 21.2787 16.9867 21.2743C16.9903 21.2698 16.993 21.2645 16.9948 21.2591C16.9965 21.2538 16.9983 21.2484 17.0001 21.2422C17.001 21.2369 17.0019 21.2306 17.0019 21.2244C17.0019 21.2182 17.001 21.2128 17.0001 21.2066C16.9992 21.2012 16.9974 21.195 16.9948 21.1896C16.9921 21.1843 16.9894 21.179 16.9867 21.1745C16.9832 21.1701 16.9796 21.1656 16.9752 21.1611ZM16.6812 21.3304L16.5752 21.4364L16.4692 21.5424L16.3632 21.6484L16.2572 21.7544L16.2305 21.7811L16.2037 21.8079L16.177 21.8346L16.1503 21.8613L16.1236 21.8346L16.0968 21.8079L16.0701 21.7811L16.0434 21.7544L15.9374 21.6484L15.8314 21.5424L15.7254 21.4364L15.6194 21.3304L15.5927 21.3037L15.5659 21.2769L15.5392 21.2502L15.5125 21.2235L15.5392 21.1968L15.5659 21.1701L15.5927 21.1433L15.6194 21.1166L15.7254 21.0106L15.8314 20.9046L15.9374 20.7986L16.0434 20.6926L16.0701 20.6659L16.0968 20.6391L16.1236 20.6124L16.1503 20.5857L16.177 20.6124L16.2037 20.6391L16.2305 20.6659L16.2572 20.6926L16.3632 20.7986L16.4692 20.9046L16.5752 21.0106L16.6812 21.1166L16.7079 21.1433L16.7346 21.1701L16.7614 21.1968L16.7881 21.2235L16.7614 21.2502L16.7346 21.2769L16.7079 21.3037L16.6812 21.3304Z" fill="#4D4D4D"/>
<path d="M25.3129 17.1285L25.1223 16.9379L24.9316 16.7472L24.741 16.5566L24.5504 16.366C24.5459 16.3615 24.5415 16.358 24.537 16.3553C24.5326 16.3517 24.5272 16.3491 24.5219 16.3473C24.5165 16.3455 24.5112 16.3437 24.5058 16.3419C24.5005 16.341 24.4943 16.3401 24.488 16.3401C24.4818 16.3401 24.4764 16.341 24.4711 16.3419C24.4658 16.3428 24.4595 16.3446 24.4551 16.3473C24.4506 16.3499 24.4444 16.3517 24.4399 16.3553C24.4355 16.3589 24.431 16.3624 24.4266 16.366L24.2359 16.5566L24.0453 16.7472L23.8547 16.9379L23.664 17.1285C23.6551 17.1374 23.6489 17.1472 23.6444 17.1579C23.64 17.1686 23.6382 17.1802 23.6382 17.1908C23.6382 17.2015 23.64 17.2131 23.6444 17.2238C23.6489 17.2345 23.6551 17.2443 23.664 17.2532L23.8547 17.4438L24.0453 17.6345L24.2359 17.8251L24.4266 18.0157C24.4319 18.0211 24.4381 18.0255 24.4435 18.0291C24.4488 18.0326 24.4551 18.0353 24.4604 18.0371C24.4658 18.0389 24.4711 18.0398 24.4764 18.0407C24.4818 18.0415 24.4853 18.0415 24.4889 18.0415C24.4951 18.0415 24.5005 18.0407 24.5067 18.0398C24.5121 18.0389 24.5183 18.0371 24.5237 18.0344C24.529 18.0317 24.5343 18.0291 24.5388 18.0264C24.5432 18.0228 24.5486 18.0193 24.5522 18.0148L24.7428 17.8242L24.9334 17.6336L25.124 17.4429L25.3147 17.2523C25.3236 17.2434 25.3298 17.2336 25.3343 17.2229C25.3387 17.2122 25.3405 17.2006 25.3405 17.19C25.3405 17.1793 25.3387 17.1677 25.3343 17.157C25.3298 17.1463 25.3218 17.1374 25.3129 17.1285ZM25.0189 17.2986L24.9129 17.4046L24.8069 17.5106L24.7009 17.6166L24.5949 17.7226L24.5682 17.7494L24.5415 17.7761L24.5147 17.8028L24.488 17.8295L24.4613 17.8028L24.4346 17.7761L24.4079 17.7494L24.3811 17.7226L24.2751 17.6166L24.1691 17.5106L24.0631 17.4046L23.9571 17.2986L23.9304 17.2719L23.9037 17.2452L23.8769 17.2185L23.8502 17.1917L23.8769 17.165L23.9037 17.1383L23.9304 17.1116L23.9571 17.0848L24.0631 16.9788L24.1691 16.8728L24.2751 16.7668L24.3811 16.6608L24.4079 16.6341L24.4346 16.6074L24.4613 16.5807L24.488 16.5539L24.5147 16.5807L24.5415 16.6074L24.5682 16.6341L24.5949 16.6608L24.7009 16.7668L24.8069 16.8728L24.9129 16.9788L25.0189 17.0848L25.0457 17.1116L25.0724 17.1383L25.0991 17.165L25.1258 17.1917L25.0991 17.2185L25.0724 17.2452L25.0457 17.2719L25.0189 17.2986Z" fill="#4D4D4D"/>
<path d="M24.2849 14.3778L24.0942 14.1871L23.9036 13.9965L23.713 13.8059L23.5224 13.6152C23.5179 13.6108 23.5135 13.6072 23.509 13.6046C23.5046 13.6019 23.4992 13.5983 23.4939 13.5965C23.4885 13.5948 23.4832 13.593 23.4778 13.5912C23.4725 13.5894 23.4662 13.5894 23.4609 13.5894C23.4556 13.5894 23.4493 13.5903 23.444 13.5912C23.4386 13.5921 23.4324 13.5939 23.4279 13.5965C23.4235 13.5992 23.4173 13.601 23.4128 13.6046C23.4083 13.6081 23.4039 13.6117 23.3994 13.6152L23.207 13.8059L23.0164 13.9965L22.8258 14.1871L22.6351 14.3778C22.6307 14.3822 22.6271 14.3867 22.6245 14.3911C22.6209 14.3956 22.6182 14.4009 22.6164 14.4063C22.6147 14.4116 22.6129 14.417 22.6111 14.4223C22.6102 14.4276 22.6093 14.4339 22.6093 14.4392C22.6093 14.4446 22.6102 14.4508 22.6111 14.4561C22.612 14.4615 22.6138 14.4677 22.6164 14.4722C22.6191 14.4766 22.6209 14.4829 22.6245 14.4873C22.628 14.4918 22.6316 14.4962 22.6351 14.5007L22.8258 14.6913L23.0164 14.8819L23.207 15.0726L23.3977 15.2632C23.4021 15.2677 23.4066 15.2712 23.411 15.2739C23.4155 15.2774 23.4208 15.2801 23.4262 15.2819C23.4315 15.2837 23.4369 15.2855 23.4422 15.2872C23.4475 15.2881 23.4538 15.289 23.4591 15.289C23.4654 15.289 23.4707 15.2881 23.4769 15.2872C23.4823 15.2864 23.4885 15.2846 23.4939 15.2819C23.4992 15.2792 23.5046 15.2766 23.509 15.2739C23.5135 15.2703 23.5188 15.2668 23.5224 15.2623L23.713 15.0717L23.9036 14.8811L24.0942 14.6904L24.2849 14.4998C24.2893 14.4953 24.2929 14.4909 24.2956 14.4864C24.2991 14.482 24.3018 14.4766 24.3036 14.4713C24.3054 14.4659 24.3071 14.4606 24.3089 14.4553C24.3098 14.4499 24.3107 14.4437 24.3107 14.4383C24.3107 14.433 24.3098 14.4268 24.3089 14.4214C24.308 14.4161 24.3063 14.4098 24.3036 14.4054C24.3009 14.4009 24.2991 14.3947 24.2956 14.3902C24.292 14.3858 24.2884 14.3813 24.2849 14.3778ZM23.99 14.547L23.884 14.653L23.778 14.759L23.672 14.865L23.566 14.971L23.5393 14.9977L23.5126 15.0245L23.4858 15.0512L23.4591 15.0779L23.4324 15.0512L23.4057 15.0245L23.379 14.9977L23.3522 14.971L23.2462 14.865L23.1402 14.759L23.0342 14.653L22.9282 14.547L22.9015 14.5203L22.8748 14.4936L22.848 14.4668L22.8213 14.4401L22.848 14.4134L22.8748 14.3867L22.9015 14.3599L22.9282 14.3332L23.0342 14.2272L23.1402 14.1212L23.2462 14.0152L23.3522 13.9092L23.379 13.8825L23.4057 13.8558L23.4324 13.829L23.4591 13.8023L23.4858 13.829L23.5126 13.8558L23.5393 13.8825L23.566 13.9092L23.672 14.0152L23.778 14.1212L23.884 14.2272L23.99 14.3332L24.0167 14.3599L24.0435 14.3867L24.0702 14.4134L24.0969 14.4401L24.0702 14.4668L24.0435 14.4936L24.0167 14.5203L23.99 14.547Z" fill="#4D4D4D"/>
</svg>
