<svg width="30" height="30" viewBox="0 0 30 30" fill="none" xmlns="http://www.w3.org/2000/svg">
<rect width="30" height="30" fill="white"/>
<path d="M30 30H22.5H15H7.5H0V22.5003V15.0005V7.49975V0H7.5H15H22.5H30V7.49975V14.9995V22.4992V30ZM0.252287 29.7477H7.62614H15H22.3739H29.7477V22.3741V15.0005V7.62589V0.252279H22.3739H15H7.62614H0.252287V7.62589V14.9995V22.3731V29.7477Z" fill="#4D4D4D"/>
<path d="M30 22V21.9421V21.8843V21.8264V21.7685C28.8439 21.3235 27.6602 20.9279 26.4529 20.5844C25.2446 20.241 24.0117 19.9507 22.7583 19.7163C21.5049 19.482 20.2279 19.3027 18.9345 19.1822C17.6401 19.0617 16.3282 19 15 19C13.6718 19 12.3589 19.0617 11.0655 19.1822C9.77111 19.3027 8.49515 19.482 7.24173 19.7163C5.98832 19.9507 4.7554 20.2419 3.54708 20.5844C2.33875 20.9279 1.15605 21.3235 0 21.7685V21.8264V21.8843V21.9421V22C1.15503 21.5522 2.33773 21.1546 3.54605 20.8093C4.75335 20.4639 5.98627 20.1717 7.24071 19.9364C8.49515 19.7011 9.77111 19.5199 11.0655 19.3994C12.3599 19.278 13.6728 19.2163 15.002 19.2163C16.3303 19.2163 17.6431 19.278 18.9376 19.3994C20.232 19.5209 21.5079 19.7011 22.7624 19.9364C24.0168 20.1717 25.2487 20.4649 26.457 20.8093C27.6612 21.1546 28.845 21.5522 30 22Z" fill="#4D4D4D"/>
<path fill-rule="evenodd" clip-rule="evenodd" d="M15.611 7.392L15.891 7.672L16.171 7.952L16.451 8.232L16.731 8.512L16.452 8.792L16.173 9.072L15.894 9.352L15.615 9.632V9.073V8.514V7.955L15.611 7.392ZM15.611 14.241L15.891 13.961L16.171 13.681L16.451 13.401L16.731 13.121L16.452 12.841L16.173 12.561L15.894 12.281L15.615 12.001V12.56V13.119V13.678L15.611 14.241ZM14.416 10.817L13.812 10.211L13.208 9.605L12.604 8.999L12 8.393L12.175 8.218L12.35 8.043L12.525 7.868L12.7 7.693L13.182 8.174L13.664 8.655L14.146 9.136L14.628 9.617V8.462V7.307V6.152V5L15.504 5.876L16.38 6.752L17.256 7.628L18.132 8.504L17.554 9.082L16.976 9.66L16.398 10.238L15.82 10.816L16.398 11.395L16.976 11.974L17.554 12.553L18.132 13.132L17.256 14.008L16.38 14.884L15.504 15.76L14.628 16.636V15.481V14.326V13.171V12.016L14.146 12.498L13.664 12.98L13.182 13.462L12.7 13.944L12.525 13.769L12.35 13.594L12.175 13.419L12 13.244L12.604 12.638L13.208 12.032L13.812 11.426L14.416 10.817Z" fill="#4D4D4D"/>
</svg>
