<svg width="30" height="30" viewBox="0 0 30 30" fill="none" xmlns="http://www.w3.org/2000/svg">
<rect width="30" height="30" fill="white"/>
<path d="M30 30H22.5H15H7.5H0V22.5003V15.0005V7.49975V0H7.5H15H22.5H30V7.49975V14.9995V22.4992V30ZM0.252287 29.7477H7.62614H15H22.3739H29.7477V22.3741V15.0005V7.62589V0.252279H22.3739H15H7.62614H0.252287V7.62589V14.9995V22.3731V29.7477Z" fill="#4D4D4D"/>
<path d="M21.2574 9.65945H20.5356H19.8138H19.0921H18.3703H18.3444H18.3184H18.2937H18.2677V9.6335V9.60754V9.58159V9.55563V9.20217V8.84746V8.49399V8.14176V8.11457V8.08862V8.06143V8.03547H18.2937H18.3196H18.3456H18.3715H18.5854H18.7992H19.013H19.2268C19.4295 8.03547 19.6235 7.99469 19.8002 7.9193C19.977 7.84514 20.1352 7.73638 20.2687 7.60291C20.4021 7.46943 20.5097 7.31 20.585 7.1345C20.6592 6.95777 20.7012 6.76497 20.7012 6.56104C20.7012 6.35712 20.6604 6.16432 20.585 5.98758C20.5109 5.81085 20.4021 5.65265 20.2687 5.51917C20.1352 5.3857 19.9757 5.27817 19.8002 5.20278C19.6235 5.12863 19.4307 5.08661 19.2268 5.08661H17.1134H15H12.8866H10.7732C10.5705 5.08661 10.3765 5.12739 10.1998 5.20278C10.023 5.27817 9.86482 5.3857 9.73135 5.51917C9.59787 5.65265 9.49034 5.81208 9.41495 5.98758C9.33956 6.16308 9.29878 6.35712 9.29878 6.56104C9.29878 6.76497 9.33956 6.95777 9.41495 7.1345C9.49034 7.31123 9.59787 7.46943 9.73135 7.60291C9.86482 7.73638 10.0243 7.84391 10.1998 7.9193C10.3753 7.99469 10.5693 8.03547 10.7732 8.03547H10.987H11.2008H11.4146H11.6285H11.6544H11.6804H11.7063H11.7323V8.06143V8.08738V8.11334V8.13929V8.49276V8.84746V9.20093V9.5544V9.58035V9.60631V9.63226V9.65821H11.7063H11.6804H11.6544H11.6285H10.9067H10.1849H9.46315H8.74139C8.50162 9.65821 8.27174 9.70765 8.06411 9.7954C7.85648 9.88315 7.66862 10.0117 7.51043 10.1686C7.35223 10.3256 7.22493 10.5147 7.13719 10.7223C7.04944 10.93 7 11.1598 7 11.3996V14.5116V17.6236V20.7356V23.8476C7 24.0874 7.04944 24.3173 7.13719 24.5249C7.22493 24.7338 7.35347 24.9216 7.51043 25.0786C7.66739 25.2355 7.85648 25.3641 8.06411 25.4518C8.27298 25.5396 8.50162 25.589 8.74139 25.589H11.8707H15H18.1293H21.2586C21.4984 25.589 21.7283 25.5396 21.9359 25.4518C22.1448 25.3641 22.3326 25.2355 22.4896 25.0786C22.6465 24.9216 22.7751 24.7325 22.8628 24.5249C22.9506 24.316 23 24.0874 23 23.8476V20.7356V17.6236V14.5116V11.3996C23 11.1598 22.9506 10.93 22.8628 10.7223C22.7751 10.5135 22.6465 10.3268 22.4896 10.1686C22.3326 10.0104 22.1435 9.88315 21.9359 9.7954C21.727 9.70765 21.4971 9.65945 21.2574 9.65945ZM10.7744 7.82043C10.6014 7.82043 10.4358 7.78458 10.285 7.72155C10.1343 7.65852 9.9983 7.56583 9.8846 7.45089C9.77089 7.33595 9.6782 7.20124 9.61393 7.05046C9.54967 6.89968 9.51506 6.73407 9.51506 6.56104C9.51506 6.38678 9.5509 6.2224 9.61393 6.07162C9.67697 5.92084 9.76966 5.78489 9.8846 5.67119C9.99954 5.55749 10.1343 5.46479 10.285 5.40053C10.4358 5.33626 10.6014 5.30166 10.7744 5.30166H12.8878H15.0012H17.1146H19.228C19.401 5.30166 19.5667 5.3375 19.7174 5.40053C19.8682 5.46479 20.0042 5.55625 20.1179 5.67119C20.2316 5.78613 20.3243 5.92084 20.3885 6.07162C20.4528 6.2224 20.4874 6.38802 20.4874 6.56104C20.4874 6.73407 20.4516 6.89968 20.3885 7.05046C20.3243 7.20124 20.2328 7.33719 20.1179 7.45089C20.0029 7.56459 19.8682 7.65729 19.7174 7.72155C19.5667 7.78582 19.401 7.82043 19.228 7.82043H17.1146H15.0012H12.8878H10.7744ZM18.0527 8.03547V8.06143V8.08738V8.11334V8.13929V8.49276V8.84746V9.20093V9.5544V9.58035V9.60631V9.63226V9.65821H18.0267H18.0008H17.9723H17.9464H16.4732H15H13.5268H12.0536H12.0277H12.0017H11.9757H11.9498V9.63226V9.60631V9.58035V9.5544V9.20093V8.84746V8.49399V8.14176V8.11457V8.08862V8.06143V8.03547H11.9757H12.0017H12.0277H12.0536H13.5268H15H16.4732H17.9464H17.9723H17.9983H18.0243H18.0527ZM22.785 18.6358V19.9385V21.2411V22.5437V23.8464C22.785 24.0565 22.7417 24.2579 22.6651 24.4409C22.5872 24.6238 22.476 24.7881 22.3376 24.9266C22.1991 25.065 22.0348 25.1775 21.8518 25.2541C21.6689 25.3319 21.4687 25.374 21.2574 25.374H18.1281H14.9988H11.8695H8.74139C8.53128 25.374 8.32983 25.3307 8.14692 25.2541C7.964 25.1762 7.79963 25.065 7.66121 24.9266C7.52279 24.7881 7.41032 24.6238 7.33369 24.4409C7.25583 24.2579 7.21381 24.0577 7.21381 23.8464V22.1581V20.4699V18.7817V17.0934V17.0687V17.044V17.0193V16.9945L7.23853 16.9921L7.26325 16.9896L7.28797 16.9871L7.31268 16.9846C7.35718 16.9809 7.40908 16.976 7.46717 16.9723C7.52526 16.9686 7.58953 16.9649 7.66121 16.9612C7.73289 16.9575 7.80952 16.955 7.89232 16.9525C7.97513 16.95 8.06411 16.9488 8.15804 16.9488C8.26556 16.9488 8.37309 16.95 8.48185 16.9538C8.59061 16.9562 8.69937 16.9612 8.80936 16.9673C8.91936 16.9735 9.02935 16.9809 9.14058 16.9896C9.25181 16.9982 9.36181 17.0094 9.47304 17.0205C9.80303 17.0551 10.175 17.1082 10.5829 17.1861C10.9907 17.264 11.4319 17.3678 11.8991 17.505C12.3663 17.6421 12.8582 17.8139 13.3661 18.0265C13.8741 18.2391 14.3981 18.4937 14.9283 18.7977C15.1681 18.9349 15.4128 19.0585 15.66 19.1673C15.9072 19.276 16.158 19.3687 16.4114 19.4478C16.6648 19.5269 16.9206 19.5912 17.1789 19.6394C17.4372 19.6888 17.698 19.7222 17.9612 19.7419C18.002 19.7444 18.044 19.7481 18.086 19.7494C18.1281 19.7518 18.1689 19.7531 18.2109 19.7555C18.2529 19.758 18.2949 19.758 18.3357 19.7593C18.3777 19.7605 18.4197 19.7605 18.4605 19.7605C18.6311 19.7605 18.8016 19.7543 18.9734 19.7419C19.1452 19.7296 19.317 19.7111 19.4888 19.6863C19.6606 19.6616 19.8336 19.6307 20.0066 19.5936C20.1797 19.5566 20.3515 19.5145 20.5233 19.4651C20.7581 19.3984 20.9793 19.3242 21.1857 19.2476C21.3921 19.1697 21.5849 19.0894 21.7616 19.0078C21.9384 18.9263 22.099 18.8447 22.2436 18.7668C22.3882 18.689 22.5155 18.6136 22.6255 18.5456L22.6663 18.5209L22.7071 18.4962L22.7479 18.4714L22.7887 18.4467V18.4937V18.5407V18.5876V18.6358H22.785ZM22.785 18.1266V18.1402V18.1538V18.1674V18.181L22.7738 18.1884L22.7627 18.1958L22.7516 18.2032L22.7405 18.2107C22.6811 18.2514 22.5835 18.3157 22.45 18.3961C22.3178 18.4764 22.1497 18.5703 21.9532 18.6704C21.7567 18.7705 21.5293 18.8768 21.2772 18.9782C21.025 19.0795 20.7469 19.1771 20.4491 19.2612C20.281 19.3081 20.1129 19.3502 19.9448 19.386C19.7768 19.4218 19.6099 19.4515 19.4431 19.475C19.2762 19.4985 19.1106 19.517 18.945 19.5294C18.7794 19.5417 18.6163 19.5479 18.4531 19.5479C18.1577 19.5479 17.8636 19.5281 17.5719 19.4886C17.2802 19.449 16.9923 19.391 16.7068 19.3119C16.4213 19.2328 16.1383 19.1364 15.8602 19.0189C15.5821 18.9015 15.3065 18.7656 15.0346 18.6099C14.4945 18.3009 13.9618 18.0413 13.444 17.8251C12.9262 17.6088 12.4256 17.4345 11.9498 17.2949C11.474 17.1552 11.0241 17.0502 10.6088 16.9711C10.1936 16.892 9.81415 16.8388 9.47799 16.803C9.36552 16.7906 9.25181 16.7807 9.14058 16.7721C9.02935 16.7634 8.91689 16.756 8.80565 16.7498C8.69442 16.7436 8.58443 16.7399 8.47567 16.7362C8.36691 16.7325 8.25815 16.7313 8.15063 16.7313C8.05917 16.7313 7.97389 16.7325 7.89356 16.7338C7.81322 16.735 7.73783 16.7387 7.66986 16.7412C7.60188 16.7436 7.53515 16.7535 7.47953 16.7572C7.42391 16.761 7.37324 16.7647 7.32999 16.7684L7.30156 16.7708L7.27313 16.7733L7.24471 16.7758L7.21628 16.7783V16.7498V16.7214V16.693V16.6645V15.3483V14.0321V12.7158V11.3996C7.21628 11.2983 7.22617 11.1969 7.24594 11.0993C7.26572 11.0016 7.29414 10.9065 7.33246 10.815C7.37077 10.7236 7.41773 10.6358 7.47335 10.553C7.52897 10.4702 7.59323 10.3923 7.66492 10.3194C7.7366 10.2465 7.8157 10.1835 7.8985 10.1279C7.98131 10.0722 8.06906 10.0253 8.16051 9.98696C8.25197 9.94865 8.34713 9.92023 8.44477 9.90045C8.54241 9.88068 8.64004 9.87326 8.74139 9.87326H11.8707H15H18.1293H21.2586C21.4687 9.87326 21.6702 9.91652 21.8531 9.99314C22.036 10.0698 22.2004 10.1822 22.3388 10.3207C22.4772 10.4591 22.5897 10.6235 22.6663 10.8064C22.7429 10.9893 22.7862 11.1895 22.7862 11.4008V13.0829V14.765V16.447V18.1266H22.785Z" fill="#4D4D4D"/>
<path d="M22.6799 18.6593V18.6531V18.6482V18.642V18.6358C22.6663 18.6445 22.6515 18.6531 22.6366 18.6618C22.6206 18.6704 22.6045 18.6803 22.5884 18.6902C22.5724 18.7001 22.5551 18.71 22.5378 18.7186C22.5205 18.7285 22.5044 18.7384 22.4883 18.747C22.5044 18.7396 22.5205 18.7322 22.5378 18.7248C22.5538 18.7174 22.5711 18.71 22.5872 18.7025C22.6033 18.6951 22.6193 18.6877 22.6354 18.6803C22.649 18.6729 22.6651 18.6667 22.6799 18.6593Z" fill="#4D4D4D"/>
</svg>
