<svg width="30" height="30" viewBox="0 0 30 30" fill="none" xmlns="http://www.w3.org/2000/svg">
<rect width="30" height="30" fill="white"/>
<path d="M30 30H22.5H15H7.5H0V22.5003V15.0005V7.49975V0H7.5H15H22.5H30V7.49975V14.9995V22.4992V30ZM0.252287 29.7477H7.62614H15H22.3739H29.7477V22.3741V15.0005V7.62589V0.252279H22.3739H15H7.62614H0.252287V7.62589V14.9995V22.3731V29.7477Z" fill="#4D4D4D"/>
<path d="M23.626 15.443V15.276V15.109V14.942V14.775C23.571 13.626 23.287 12.531 22.819 11.533C22.352 10.536 21.701 9.63598 20.915 8.88098C20.129 8.12498 19.207 7.51298 18.196 7.08998C17.185 6.66698 16.085 6.43298 14.943 6.43298C13.801 6.43298 12.701 6.66698 11.69 7.09098C10.679 7.51498 9.75701 8.12698 8.97101 8.88298C8.18501 9.63998 7.53501 10.54 7.06701 11.539C6.59901 12.538 6.31501 13.636 6.26001 14.788V14.955V15.122V15.289V15.456C6.31501 16.605 6.59901 17.7 7.06701 18.698C7.53401 19.695 8.18501 20.595 8.97101 21.35C9.75701 22.105 10.679 22.718 11.69 23.141C12.701 23.564 13.801 23.798 14.943 23.798C16.085 23.798 17.185 23.564 18.196 23.14C19.207 22.717 20.129 22.104 20.915 21.348C21.701 20.591 22.351 19.691 22.819 18.692C23.287 17.693 23.571 16.595 23.626 15.443ZM14.943 23.562C13.779 23.562 12.669 23.325 11.659 22.897C10.649 22.469 9.73901 21.85 8.97401 21.085C8.20901 20.32 7.59001 19.41 7.16201 18.4C6.73401 17.39 6.49701 16.28 6.49701 15.116C6.49701 13.952 6.73401 12.842 7.16201 11.832C7.59001 10.822 8.20901 9.91198 8.97401 9.14698C9.73901 8.38198 10.649 7.76298 11.659 7.33498C12.669 6.90698 13.779 6.66998 14.943 6.66998C16.107 6.66998 17.217 6.90698 18.227 7.33498C19.237 7.76298 20.147 8.38198 20.912 9.14698C21.677 9.91198 22.296 10.822 22.724 11.832C23.152 12.842 23.389 13.952 23.389 15.116C23.389 16.28 23.152 17.39 22.724 18.4C22.296 19.41 21.677 20.32 20.912 21.085C20.147 21.85 19.237 22.469 18.227 22.897C17.217 23.325 16.107 23.562 14.943 23.562Z" fill="#4D4D4D"/>
<path d="M14.8 5.306H14.777H14.754H14.733H14.71C14.695 5.306 14.681 5.303 14.668 5.298C14.655 5.293 14.644 5.285 14.634 5.275C14.624 5.265 14.616 5.254 14.611 5.241C14.606 5.228 14.603 5.214 14.603 5.199V4.426V3.653V2.88V2.107C14.603 2.092 14.606 2.078 14.611 2.065C14.616 2.052 14.625 2.041 14.635 2.031C14.645 2.021 14.656 2.013 14.669 2.008C14.682 2.003 14.696 2 14.711 2H14.734H14.757H14.78H14.803C14.818 2 14.832 2.003 14.845 2.008C14.858 2.013 14.866 2.021 14.876 2.031C14.886 2.041 14.894 2.052 14.899 2.065C14.904 2.078 14.907 2.092 14.907 2.107V2.88V3.653V4.426V5.199C14.907 5.214 14.904 5.228 14.899 5.241C14.894 5.254 14.886 5.265 14.876 5.275C14.866 5.285 14.855 5.293 14.842 5.298C14.829 5.303 14.815 5.306 14.8 5.306Z" fill="#4D4D4D"/>
<path d="M7.69601 8.24499L7.68101 8.25999L7.66601 8.27499L7.65101 8.28999L7.63601 8.30499C7.62601 8.31499 7.61501 8.32199 7.60301 8.32699C7.59101 8.33199 7.57801 8.33399 7.56501 8.33399C7.55201 8.33399 7.53901 8.33199 7.52701 8.32699C7.51501 8.32199 7.50401 8.31499 7.49401 8.30499L6.94501 7.75599L6.39601 7.20699L5.84701 6.65799L5.29801 6.10899C5.28801 6.09899 5.28101 6.08799 5.27601 6.07599C5.27101 6.06399 5.26901 6.05099 5.26901 6.03799C5.26901 6.02499 5.27101 6.01199 5.27601 5.99999C5.28101 5.98799 5.28801 5.97699 5.29801 5.96699L5.31301 5.95199L5.32801 5.93699L5.34301 5.92199L5.35801 5.90699C5.36801 5.89699 5.37901 5.88999 5.39101 5.88499C5.40301 5.87999 5.41601 5.87799 5.42901 5.87799C5.44201 5.87799 5.45501 5.87999 5.46701 5.88499C5.47901 5.88999 5.49001 5.89699 5.50001 5.90699L6.04901 6.45599L6.59801 7.00499L7.14701 7.55399L7.69601 8.10299C7.70601 8.11299 7.71301 8.12399 7.71801 8.13599C7.72301 8.14799 7.72501 8.16099 7.72501 8.17399C7.72501 8.18699 7.72301 8.19999 7.71801 8.21199C7.71301 8.22399 7.70601 8.23499 7.69601 8.24499Z" fill="#4D4D4D"/>
<path d="M22.487 8.30499L22.472 8.28999L22.457 8.27499L22.442 8.25999L22.427 8.24499C22.417 8.23499 22.41 8.22399 22.405 8.21199C22.4 8.19999 22.398 8.18699 22.398 8.17399C22.398 8.16099 22.4 8.14799 22.405 8.13599C22.41 8.12399 22.417 8.11299 22.427 8.10299L22.976 7.55399L23.525 7.00499L24.074 6.45599L24.623 5.90699C24.633 5.89699 24.644 5.88999 24.656 5.88499C24.668 5.87999 24.681 5.87799 24.694 5.87799C24.707 5.87799 24.72 5.87999 24.732 5.88499C24.744 5.88999 24.755 5.89699 24.765 5.90699L24.78 5.92199L24.795 5.93699L24.81 5.95199L24.825 5.96699C24.835 5.97699 24.842 5.98799 24.847 5.99999C24.852 6.01199 24.854 6.02499 24.854 6.03799C24.854 6.05099 24.852 6.06399 24.847 6.07599C24.842 6.08799 24.835 6.09899 24.825 6.10899L24.276 6.65799L23.727 7.20699L23.178 7.75599L22.629 8.30499C22.619 8.31499 22.608 8.32199 22.596 8.32699C22.584 8.33199 22.571 8.33399 22.558 8.33399C22.545 8.33399 22.532 8.33199 22.52 8.32699C22.508 8.32199 22.497 8.31499 22.487 8.30499Z" fill="#4D4D4D"/>
<path d="M7.63402 21.954L7.65001 21.97L7.66601 21.986L7.68201 22.002L7.69802 22.018C7.70802 22.028 7.71601 22.041 7.72101 22.053C7.72602 22.066 7.72901 22.08 7.72901 22.093C7.72901 22.107 7.72602 22.12 7.72101 22.133C7.71601 22.146 7.70802 22.158 7.69802 22.168L7.15101 22.715L6.60401 23.262L6.05701 23.809L5.51002 24.356C5.50002 24.366 5.48701 24.374 5.47501 24.379C5.46201 24.384 5.44801 24.387 5.43501 24.387C5.42201 24.387 5.40801 24.384 5.39501 24.379C5.38201 24.374 5.37001 24.366 5.36001 24.356L5.34401 24.34L5.32801 24.324L5.31202 24.308L5.29601 24.292C5.28601 24.282 5.27802 24.269 5.27302 24.257C5.26802 24.245 5.26501 24.23 5.26501 24.217C5.26501 24.203 5.26802 24.19 5.27302 24.177C5.27802 24.164 5.28601 24.152 5.29601 24.142L5.84301 23.595L6.39001 23.048L6.93702 22.501L7.48302 21.954C7.49302 21.944 7.50601 21.936 7.51801 21.931C7.53001 21.926 7.54501 21.923 7.55801 21.923C7.57101 21.923 7.58501 21.926 7.59801 21.931C7.61101 21.936 7.62402 21.944 7.63402 21.954Z" fill="#4D4D4D"/>
<path d="M14.675 24.667H14.696H14.717H14.738H14.759C14.773 24.667 14.786 24.67 14.798 24.675C14.81 24.68 14.821 24.687 14.83 24.697C14.839 24.707 14.847 24.717 14.852 24.729C14.857 24.741 14.86 24.754 14.86 24.768V25.544V26.32V27.096V27.872C14.86 27.886 14.857 27.899 14.852 27.911C14.847 27.923 14.84 27.934 14.83 27.943C14.821 27.952 14.81 27.96 14.798 27.965C14.786 27.97 14.773 27.973 14.759 27.973H14.738H14.717H14.696H14.675C14.661 27.973 14.648 27.97 14.636 27.965C14.624 27.96 14.613 27.952 14.604 27.943C14.595 27.934 14.587 27.923 14.582 27.911C14.577 27.899 14.574 27.886 14.574 27.872V27.096V26.32V25.544V24.768C14.574 24.754 14.577 24.741 14.582 24.729C14.587 24.717 14.594 24.706 14.604 24.697C14.614 24.688 14.624 24.68 14.636 24.675C14.648 24.67 14.661 24.667 14.675 24.667Z" fill="#4D4D4D"/>
<path d="M5.307 15.057V15.078V15.099V15.12V15.141C5.307 15.155 5.304 15.168 5.299 15.18C5.294 15.192 5.287 15.203 5.277 15.212C5.268 15.221 5.257 15.229 5.245 15.234C5.233 15.239 5.22 15.242 5.206 15.242H4.43H3.654H2.878H2.101C2.087 15.242 2.074 15.239 2.062 15.234C2.05 15.229 2.039 15.222 2.03 15.212C2.021 15.203 2.013 15.192 2.008 15.18C2.003 15.168 2 15.155 2 15.141V15.121V15.1V15.079V15.058C2 15.044 2.003 15.031 2.008 15.019C2.013 15.007 2.02 14.996 2.03 14.987C2.039 14.978 2.05 14.97 2.062 14.965C2.074 14.96 2.087 14.957 2.101 14.957H2.877H3.653H4.429H5.205C5.219 14.957 5.232 14.96 5.244 14.965C5.256 14.97 5.267 14.977 5.276 14.987C5.285 14.997 5.293 15.007 5.298 15.019C5.303 15.031 5.307 15.044 5.307 15.057Z" fill="#4D4D4D"/>
<path d="M21.67 22.122L21.686 22.106L21.702 22.09L21.718 22.074L21.734 22.058C21.744 22.048 21.757 22.04 21.769 22.035C21.781 22.03 21.796 22.027 21.809 22.027C21.823 22.027 21.836 22.03 21.849 22.035C21.862 22.04 21.874 22.048 21.884 22.058L22.431 22.605L22.978 23.152L23.525 23.699L24.072 24.246C24.082 24.256 24.09 24.269 24.095 24.281C24.1 24.294 24.103 24.308 24.103 24.321C24.103 24.334 24.1 24.348 24.095 24.361C24.09 24.374 24.082 24.386 24.072 24.396L24.056 24.412L24.04 24.428L24.024 24.444L24.008 24.46C23.998 24.47 23.985 24.478 23.973 24.483C23.96 24.488 23.946 24.491 23.933 24.491C23.919 24.491 23.906 24.488 23.893 24.483C23.88 24.478 23.868 24.47 23.858 24.46L23.311 23.913L22.764 23.366L22.217 22.819L21.67 22.272C21.66 22.262 21.652 22.249 21.647 22.237C21.642 22.225 21.639 22.21 21.639 22.197C21.639 22.183 21.642 22.17 21.647 22.157C21.652 22.144 21.66 22.133 21.67 22.122Z" fill="#4D4D4D"/>
<path d="M24.264 15.142V15.121V15.1V15.079V15.058C24.264 15.044 24.267 15.031 24.272 15.019C24.277 15.007 24.284 14.996 24.294 14.987C24.304 14.978 24.314 14.97 24.326 14.965C24.338 14.96 24.351 14.957 24.365 14.957H25.141H25.917H26.693H27.469C27.483 14.957 27.496 14.96 27.508 14.965C27.52 14.97 27.531 14.977 27.54 14.987C27.549 14.997 27.557 15.007 27.562 15.019C27.567 15.031 27.57 15.044 27.57 15.058V15.079V15.1V15.121V15.142C27.57 15.156 27.567 15.169 27.562 15.181C27.557 15.193 27.55 15.204 27.54 15.213C27.53 15.222 27.52 15.23 27.508 15.235C27.496 15.24 27.483 15.243 27.469 15.243H26.693H25.917H25.141H24.365C24.351 15.243 24.338 15.24 24.326 15.235C24.314 15.23 24.303 15.223 24.294 15.213C24.285 15.203 24.277 15.193 24.272 15.181C24.267 15.169 24.264 15.156 24.264 15.142Z" fill="#4D4D4D"/>
</svg>
