<svg width="30" height="30" viewBox="0 0 30 30" fill="none" xmlns="http://www.w3.org/2000/svg">
<rect width="30" height="30" fill="white"/>
<path d="M30 30H22.5H15H7.5H0V22.5003V15.0005V7.49975V0H7.5H15H22.5H30V7.49975V14.9995V22.4992V30ZM0.252287 29.7477H7.62614H15H22.3739H29.7477V22.3741V15.0005V7.62589V0.252279H22.3739H15H7.62614H0.252287V7.62589V14.9995V22.3731V29.7477Z" fill="#4D4D4D"/>
<path fill-rule="evenodd" clip-rule="evenodd" d="M14.5224 8.62768C14.7477 8.62768 14.9305 8.44485 14.9305 8.21958V5.40809C14.9305 5.18283 14.7477 5 14.5224 5C14.2972 5 14.1143 5.18283 14.1143 5.40809V8.21958C14.1143 8.44485 14.2972 8.62768 14.5224 8.62768ZM21.2555 8.36635L19.2678 10.354C19.1084 10.5135 18.85 10.5135 18.6905 10.354C18.5311 10.1946 18.5311 9.93615 18.6905 9.77672L20.6788 7.78904C20.8376 7.62961 21.0961 7.62961 21.2555 7.78904C21.415 7.94846 21.415 8.20692 21.2555 8.36635ZM8.36623 7.78919C8.20735 7.62977 7.94834 7.62977 7.78892 7.78919C7.62949 7.94862 7.62949 8.20708 7.78892 8.36651L9.77714 10.3542C9.93657 10.5136 10.195 10.5136 10.3545 10.3542C10.5133 10.1948 10.5133 9.93631 10.3545 9.77688L8.36623 7.78919ZM14.5033 10.5241C12.2871 10.5241 10.4904 12.3208 10.4904 14.5371C10.4904 16.7533 12.2871 18.55 14.5033 18.55C16.7195 18.55 18.5162 16.7533 18.5162 14.5371C18.5162 12.3208 16.7195 10.5241 14.5033 10.5241ZM18.6905 18.6903C18.85 18.5314 19.1084 18.5314 19.2678 18.6903L21.2555 20.6785C21.415 20.8379 21.415 21.0964 21.2555 21.2558C21.0961 21.4152 20.8376 21.4152 20.6788 21.2558L18.6905 19.2681C18.5311 19.1087 18.5311 18.8497 18.6905 18.6903ZM9.777 18.6903L7.78931 20.6785C7.62988 20.8379 7.62988 21.0964 7.78931 21.2558C7.94874 21.4152 8.2072 21.4152 8.36608 21.2558L10.3543 19.2681C10.5137 19.1087 10.5137 18.8497 10.3543 18.6903C10.1949 18.5314 9.93643 18.5314 9.777 18.6903ZM14.1143 20.8253C14.1143 20.6 14.2972 20.4172 14.5224 20.4172C14.7477 20.4172 14.9305 20.6 14.9305 20.8253V23.6362C14.9305 23.8615 14.7477 24.0443 14.5224 24.0443C14.2972 24.0443 14.1143 23.8615 14.1143 23.6362V20.8253ZM8.62767 14.5222C8.62767 14.2969 8.44539 14.1141 8.21958 14.1141H5.40809C5.18282 14.1141 5 14.2969 5 14.5222C5 14.7474 5.18282 14.9303 5.40809 14.9303H8.21958C8.44539 14.9303 8.62767 14.7474 8.62767 14.5222ZM20.825 14.1141H23.6365C23.8618 14.1141 24.0446 14.2969 24.0446 14.5222C24.0446 14.7474 23.8618 14.9303 23.6365 14.9303H20.825C20.5998 14.9303 20.4169 14.7474 20.4169 14.5222C20.4169 14.2969 20.5998 14.1141 20.825 14.1141Z" fill="#4D4D4D"/>
</svg>
