<svg width="30" height="30" viewBox="0 0 30 30" fill="none" xmlns="http://www.w3.org/2000/svg">
<rect width="30" height="30" fill="white"/>
<path d="M30 30H22.5H15H7.5H0V22.5003V15.0005V7.49975V0H7.5H15H22.5H30V7.49975V14.9995V22.4992V30ZM0.252287 29.7477H7.62614H15H22.3739H29.7477V22.3741V15.0005V7.62589V0.252279H22.3739H15H7.62614H0.252287V7.62589V14.9995V22.3731V29.7477Z" fill="#4D4D4D"/>
<path d="M5.42401 10.629C5.44301 10.634 5.46201 10.639 5.48101 10.644C5.50001 10.649 5.51801 10.654 5.53701 10.659C5.55601 10.664 5.57401 10.67 5.59201 10.677C5.61001 10.684 5.62801 10.691 5.64501 10.7C5.76601 10.331 5.94301 9.99102 6.16501 9.68802C6.38701 9.38502 6.65401 9.11902 6.95401 8.89902C7.25401 8.67902 7.58801 8.50602 7.94401 8.38702C8.30001 8.26802 8.67901 8.20402 9.06901 8.20402C9.56701 8.20402 10.041 8.30502 10.473 8.48802C10.905 8.67102 11.294 8.93602 11.621 9.26302C11.948 9.59002 12.213 9.97902 12.396 10.411C12.579 10.843 12.68 11.317 12.68 11.815V12.374V12.933V13.492V14.051C12.68 14.066 12.683 14.08 12.688 14.093C12.693 14.106 12.701 14.117 12.71 14.127C12.719 14.137 12.73 14.144 12.743 14.15C12.756 14.156 12.769 14.16 12.784 14.161H12.789H12.794H12.799H12.804C12.811 14.16 12.817 14.159 12.824 14.158C12.831 14.157 12.837 14.155 12.843 14.153C12.849 14.151 12.855 14.148 12.86 14.145C12.865 14.142 12.87 14.138 12.875 14.133C12.878 14.129 12.882 14.125 12.885 14.12C12.888 14.115 12.892 14.11 12.894 14.103C12.896 14.096 12.899 14.09 12.901 14.082C12.903 14.074 12.903 14.066 12.903 14.056V13.495V12.934V12.373V11.812C12.903 11.354 12.822 10.915 12.674 10.507C12.526 10.099 12.311 9.72502 12.042 9.39502C11.773 9.06502 11.45 8.78102 11.087 8.55502C10.724 8.32902 10.321 8.16202 9.89101 8.06702C9.87301 8.06702 9.85501 8.07002 9.83701 8.07402C9.81901 8.07802 9.80201 8.08202 9.78401 8.08602C9.76601 8.09002 9.74901 8.09302 9.73101 8.09602C9.71301 8.09902 9.69501 8.10002 9.67701 8.10002C9.65101 8.10002 9.62501 8.10002 9.59901 8.09902C9.57301 8.09802 9.54701 8.09702 9.52101 8.09602C9.49501 8.09502 9.46901 8.09202 9.44301 8.08902C9.41701 8.08602 9.39101 8.08302 9.36501 8.07902C9.33601 8.07502 9.30701 8.06802 9.27901 8.06002C9.25101 8.05202 9.22301 8.04302 9.19601 8.03302C9.16901 8.02302 9.14101 8.01302 9.11401 8.00202C9.08701 7.99102 9.05901 7.98202 9.03101 7.97302C8.96101 7.97402 8.89101 7.97702 8.82201 7.98202C8.75301 7.98702 8.68401 7.99502 8.61601 8.00402C8.54801 8.01302 8.48001 8.02402 8.41201 8.03702C8.34401 8.05002 8.27801 8.06402 8.21101 8.08002C8.20001 8.09002 8.19001 8.10202 8.18001 8.11402C8.17001 8.12602 8.16101 8.13802 8.15101 8.15002C8.14101 8.16202 8.13201 8.17402 8.12101 8.18502C8.11001 8.19602 8.09901 8.20702 8.08601 8.21702C8.02401 8.26402 7.95901 8.30602 7.89301 8.34102C7.82701 8.37602 7.75701 8.40502 7.68701 8.42802C7.61701 8.45102 7.54601 8.46802 7.47401 8.48002C7.40201 8.49202 7.32901 8.49702 7.25701 8.49702C7.24901 8.49702 7.24101 8.49702 7.23301 8.49602C7.22501 8.49502 7.21701 8.49502 7.20901 8.49402C7.20101 8.49302 7.19301 8.49202 7.18501 8.49102C7.17701 8.49002 7.16901 8.49002 7.16101 8.48902C6.95901 8.60602 6.76901 8.74002 6.59201 8.89002C6.41501 9.04002 6.25101 9.20702 6.10301 9.38802C5.95501 9.56902 5.82301 9.76402 5.70901 9.97102C5.59501 10.178 5.49901 10.398 5.42401 10.629Z" fill="#4D4D4D"/>
<path d="M10.749 14.311C10.733 14.311 10.717 14.314 10.704 14.32C10.691 14.326 10.678 14.334 10.668 14.344C10.658 14.354 10.65 14.366 10.644 14.38C10.638 14.394 10.635 14.409 10.635 14.425C10.635 14.441 10.638 14.457 10.644 14.47C10.65 14.483 10.658 14.496 10.668 14.506C10.678 14.516 10.69 14.524 10.704 14.53C10.718 14.536 10.733 14.539 10.749 14.539L13.569 14.538L16.389 14.537L19.209 14.536L22.029 14.535C22.045 14.535 22.061 14.532 22.074 14.526C22.087 14.52 22.1 14.512 22.11 14.502C22.12 14.492 22.128 14.48 22.134 14.466C22.14 14.452 22.143 14.437 22.143 14.421C22.143 14.405 22.14 14.389 22.134 14.376C22.128 14.362 22.12 14.35 22.11 14.34C22.1 14.33 22.088 14.322 22.074 14.316C22.06 14.31 22.045 14.307 22.029 14.307L19.209 14.308L16.389 14.309L13.569 14.31L10.749 14.311Z" fill="#4D4D4D"/>
<path d="M24.98 7.79602C24.722 7.79602 24.477 7.84802 24.253 7.94302C24.03 8.03802 23.828 8.17502 23.659 8.34402C23.49 8.51302 23.353 8.71502 23.258 8.93802C23.163 9.16102 23.111 9.40702 23.111 9.66502V10.855V12.045V13.235V14.425C23.111 15.641 22.864 16.8 22.417 17.855C21.97 18.91 21.323 19.861 20.525 20.659C19.727 21.457 18.776 22.104 17.721 22.551C16.666 22.998 15.507 23.245 14.291 23.245C14.237 23.245 14.184 23.244 14.131 23.242C14.078 23.24 14.025 23.238 13.972 23.234C13.919 23.23 13.866 23.227 13.814 23.224C13.762 23.221 13.709 23.216 13.656 23.213C13.664 23.224 13.671 23.235 13.678 23.246C13.685 23.257 13.692 23.269 13.697 23.281C13.702 23.293 13.707 23.305 13.71 23.319C13.713 23.333 13.715 23.346 13.715 23.36V23.381V23.402V23.423V23.444C13.763 23.447 13.811 23.45 13.858 23.454C13.906 23.457 13.954 23.461 14.001 23.463C14.048 23.465 14.097 23.468 14.145 23.47C14.193 23.472 14.241 23.473 14.29 23.473C14.418 23.473 14.545 23.47 14.672 23.464C14.799 23.458 14.925 23.449 15.051 23.437C15.177 23.425 15.302 23.411 15.427 23.395C15.552 23.379 15.676 23.36 15.8 23.339C15.803 23.305 15.812 23.273 15.825 23.243C15.839 23.214 15.857 23.187 15.88 23.165C15.903 23.143 15.929 23.125 15.959 23.113C15.989 23.101 16.021 23.094 16.056 23.094C16.082 23.094 16.106 23.098 16.128 23.106C16.15 23.114 16.17 23.125 16.188 23.138C16.206 23.151 16.222 23.168 16.237 23.186C16.252 23.204 16.264 23.225 16.275 23.246C16.689 23.153 17.095 23.032 17.49 22.884C17.885 22.736 18.269 22.559 18.64 22.355C19.011 22.151 19.369 21.921 19.711 21.665C20.053 21.409 20.379 21.126 20.687 20.818C21.115 20.39 21.495 19.927 21.824 19.436C22.153 18.945 22.431 18.425 22.656 17.883C22.881 17.341 23.052 16.778 23.167 16.199C23.282 15.62 23.341 15.025 23.341 14.422V13.232V12.042V10.852V9.66502C23.341 9.43902 23.387 9.22302 23.47 9.02702C23.553 8.83102 23.673 8.65402 23.822 8.50602C23.97 8.35802 24.147 8.23702 24.343 8.15402C24.539 8.07102 24.755 8.02502 24.981 8.02502C25.207 8.02502 25.423 8.07102 25.619 8.15402C25.815 8.23702 25.992 8.35702 26.14 8.50602C26.288 8.65402 26.409 8.83102 26.492 9.02702C26.575 9.22302 26.621 9.43902 26.621 9.66502V10.433V11.201V11.969V12.737C26.621 12.753 26.624 12.769 26.63 12.782C26.636 12.795 26.644 12.808 26.654 12.818C26.664 12.828 26.676 12.836 26.69 12.842C26.704 12.848 26.719 12.851 26.735 12.851C26.751 12.851 26.767 12.848 26.78 12.842C26.794 12.836 26.806 12.828 26.816 12.818C26.826 12.808 26.834 12.796 26.84 12.782C26.846 12.768 26.849 12.753 26.849 12.737V11.969V11.201V10.432V9.66502C26.849 9.40702 26.797 9.16202 26.702 8.93802C26.607 8.71502 26.47 8.51302 26.301 8.34402C26.132 8.17502 25.93 8.03802 25.707 7.94302C25.483 7.84802 25.237 7.79602 24.98 7.79602Z" fill="#4D4D4D"/>
<path d="M13.185 23.401V23.391V23.381V23.371V23.361C13.185 23.343 13.187 23.326 13.19 23.31C13.193 23.294 13.198 23.278 13.205 23.263C13.212 23.248 13.219 23.234 13.228 23.22C13.237 23.206 13.247 23.194 13.258 23.182C12.162 23.054 11.127 22.725 10.191 22.233C9.25501 21.741 8.41701 21.086 7.71701 20.305C7.01701 19.524 6.45301 18.619 6.06401 17.627C5.67501 16.635 5.46201 15.555 5.46201 14.426C5.46201 14.41 5.45901 14.394 5.45301 14.381C5.44701 14.368 5.43901 14.355 5.42901 14.345C5.41901 14.335 5.40701 14.327 5.39301 14.321C5.37901 14.315 5.36401 14.312 5.34801 14.312C5.33201 14.312 5.31601 14.315 5.30301 14.321C5.29001 14.327 5.27701 14.335 5.26701 14.345C5.25701 14.355 5.24901 14.367 5.24301 14.381C5.23701 14.395 5.23401 14.41 5.23401 14.426C5.23401 15.58 5.45101 16.684 5.84701 17.699C6.24301 18.714 6.81701 19.64 7.53201 20.44C8.24701 21.24 9.10001 21.911 10.055 22.418C11.01 22.925 12.067 23.264 13.185 23.401Z" fill="#4D4D4D"/>
<path d="M24.414 9.45803C24.409 9.45303 24.403 9.45003 24.398 9.44603C24.393 9.44303 24.387 9.44003 24.381 9.43803C24.375 9.43603 24.37 9.43403 24.364 9.43303C24.358 9.43203 24.352 9.43103 24.346 9.43103C24.337 9.43103 24.329 9.43203 24.32 9.43403C24.311 9.43603 24.303 9.43903 24.295 9.44303C24.287 9.44703 24.279 9.45203 24.272 9.45703C24.265 9.46203 24.258 9.46903 24.252 9.47603C24.246 9.48303 24.241 9.49003 24.238 9.49803C24.235 9.50603 24.232 9.51203 24.231 9.51903C24.23 9.52603 24.229 9.53203 24.228 9.53803C24.227 9.54403 24.228 9.54903 24.228 9.55303C24.229 9.56103 24.23 9.56803 24.232 9.57603C24.234 9.58303 24.237 9.59003 24.241 9.59703C24.245 9.60403 24.249 9.61003 24.253 9.61603C24.258 9.62203 24.263 9.62703 24.269 9.63203C24.351 9.69703 24.424 9.77103 24.488 9.85103C24.552 9.93103 24.606 10.017 24.65 10.108C24.694 10.199 24.729 10.295 24.752 10.395C24.775 10.495 24.787 10.597 24.787 10.701V11.352V12.003V12.654V13.305C24.787 13.321 24.79 13.337 24.796 13.35C24.802 13.364 24.81 13.376 24.82 13.386C24.83 13.396 24.842 13.404 24.856 13.41C24.87 13.416 24.885 13.419 24.901 13.419C24.909 13.419 24.917 13.418 24.925 13.417C24.933 13.416 24.94 13.413 24.947 13.411C24.954 13.409 24.961 13.405 24.967 13.401C24.973 13.397 24.979 13.392 24.984 13.387C24.987 13.384 24.991 13.38 24.994 13.375C24.997 13.37 25 13.365 25.003 13.359C25.006 13.353 25.008 13.347 25.009 13.34C25.01 13.333 25.011 13.325 25.011 13.317V12.664V12.011V11.358V10.705C25.011 10.584 24.997 10.466 24.971 10.35C24.945 10.235 24.906 10.123 24.855 10.017C24.804 9.91103 24.742 9.81003 24.668 9.71603C24.593 9.62203 24.509 9.53603 24.414 9.45803Z" fill="#4D4D4D"/>
<path d="M8.64401 10.515C8.64401 10.472 8.63501 10.43 8.61901 10.392C8.60301 10.354 8.58001 10.32 8.55101 10.292C8.52201 10.264 8.48901 10.241 8.45201 10.225C8.41501 10.209 8.37301 10.2 8.32901 10.2C8.28601 10.2 8.24401 10.209 8.20601 10.225C8.16801 10.241 8.13401 10.264 8.10601 10.293C8.07801 10.322 8.05501 10.355 8.03901 10.393C8.02301 10.431 8.01401 10.472 8.01401 10.515C8.01401 10.558 8.02301 10.6 8.03901 10.638C8.05501 10.676 8.07801 10.71 8.10701 10.738C8.13601 10.766 8.16901 10.79 8.20701 10.806C8.24501 10.822 8.28601 10.831 8.33001 10.831C8.37301 10.831 8.41501 10.822 8.45201 10.806C8.48901 10.79 8.52401 10.767 8.55201 10.738C8.58001 10.709 8.60401 10.676 8.62001 10.638C8.63601 10.6 8.64401 10.559 8.64401 10.515Z" fill="#4D4D4D"/>
<path d="M12.424 20.642C12.408 20.642 12.392 20.645 12.379 20.651C12.365 20.657 12.353 20.665 12.343 20.675C12.333 20.685 12.325 20.697 12.319 20.711C12.313 20.725 12.31 20.74 12.31 20.756C12.31 20.772 12.313 20.788 12.319 20.801C12.325 20.815 12.333 20.827 12.343 20.837C12.353 20.847 12.365 20.855 12.379 20.861C12.393 20.867 12.408 20.87 12.424 20.87H13.049H13.674H14.299H14.924C15.069 20.87 15.213 20.858 15.352 20.833C15.491 20.809 15.627 20.773 15.757 20.725C15.887 20.677 16.012 20.619 16.13 20.55C16.248 20.481 16.359 20.401 16.461 20.31C16.562 20.221 16.652 20.125 16.729 20.023C16.807 19.921 16.872 19.813 16.926 19.701C16.98 19.589 17.02 19.472 17.047 19.352C17.074 19.232 17.088 19.109 17.088 18.985C17.088 18.725 17.027 18.478 16.918 18.252C16.809 18.026 16.65 17.824 16.454 17.653C16.258 17.482 16.025 17.344 15.766 17.249C15.507 17.154 15.223 17.101 14.924 17.101H14.299H13.674H13.049H12.424C12.408 17.101 12.392 17.104 12.379 17.11C12.366 17.116 12.353 17.124 12.343 17.134C12.333 17.144 12.325 17.156 12.319 17.17C12.313 17.184 12.31 17.199 12.31 17.215C12.31 17.231 12.313 17.247 12.319 17.26C12.325 17.274 12.333 17.286 12.343 17.296C12.353 17.306 12.365 17.314 12.379 17.32C12.393 17.326 12.408 17.329 12.424 17.329H13.049H13.674H14.299H14.924C15.191 17.329 15.445 17.375 15.677 17.459C15.909 17.543 16.117 17.664 16.292 17.814C16.467 17.964 16.609 18.142 16.707 18.34C16.805 18.538 16.859 18.756 16.859 18.984C16.859 19.212 16.805 19.43 16.707 19.628C16.609 19.826 16.467 20.005 16.292 20.154C16.117 20.304 15.908 20.425 15.677 20.509C15.446 20.593 15.191 20.639 14.924 20.639H14.299H13.674H13.049H12.424V20.642Z" fill="#4D4D4D"/>
<path d="M5.101 12.928C5.254 12.928 5.399 12.897 5.532 12.841C5.665 12.785 5.784 12.704 5.884 12.603C5.984 12.502 6.065 12.383 6.122 12.251C6.179 12.119 6.209 11.973 6.209 11.82C6.209 11.667 6.178 11.522 6.122 11.389C6.066 11.256 5.985 11.137 5.884 11.037C5.783 10.937 5.664 10.856 5.532 10.799C5.4 10.742 5.254 10.712 5.101 10.712C4.966 10.712 4.767 10.739 4.545 10.79C4.323 10.841 4.077 10.917 3.848 11.013C3.619 11.109 3.407 11.227 3.252 11.362C3.097 11.497 3 11.651 3 11.819C3 11.987 3.098 12.14 3.252 12.276C3.406 12.412 3.619 12.529 3.848 12.625C4.077 12.721 4.323 12.797 4.545 12.848C4.767 12.899 4.966 12.928 5.101 12.928ZM3.944 11.222C4.056 11.176 4.169 11.135 4.28 11.1C4.391 11.065 4.499 11.036 4.601 11.012C4.703 10.988 4.798 10.971 4.883 10.959C4.968 10.947 5.041 10.941 5.101 10.941C5.222 10.941 5.338 10.966 5.443 11.01C5.548 11.054 5.643 11.119 5.723 11.199C5.803 11.279 5.867 11.373 5.912 11.479C5.957 11.585 5.981 11.7 5.981 11.821C5.981 11.942 5.956 12.058 5.912 12.163C5.868 12.268 5.803 12.363 5.723 12.442C5.643 12.521 5.549 12.586 5.443 12.631C5.337 12.676 5.222 12.7 5.101 12.7C5.041 12.7 4.966 12.694 4.881 12.682C4.796 12.67 4.7 12.652 4.598 12.629C4.496 12.606 4.388 12.576 4.277 12.541C4.166 12.506 4.054 12.465 3.944 12.419C3.89 12.396 3.818 12.363 3.741 12.323C3.664 12.283 3.581 12.236 3.505 12.183C3.429 12.13 3.36 12.073 3.31 12.011C3.26 11.949 3.229 11.886 3.229 11.82C3.229 11.773 3.246 11.724 3.278 11.674C3.31 11.624 3.358 11.572 3.419 11.521C3.48 11.47 3.556 11.418 3.644 11.368C3.732 11.318 3.832 11.269 3.944 11.222Z" fill="#4D4D4D"/>
<path d="M7.25699 8.34703C7.32499 8.34703 7.39099 8.34203 7.45599 8.33103C7.52099 8.32003 7.58499 8.30503 7.64699 8.28403C7.70899 8.26303 7.76999 8.23603 7.82799 8.20503C7.88599 8.17403 7.94199 8.13803 7.99499 8.09703C8.03699 8.06603 8.07599 8.03203 8.11199 7.99603C8.14799 7.96003 8.17999 7.92103 8.21099 7.88003C8.24199 7.83903 8.26799 7.79703 8.29399 7.75203C8.31999 7.70703 8.34199 7.66203 8.36299 7.61603C8.34699 7.60403 8.33099 7.59303 8.31499 7.58203C8.29899 7.57103 8.28199 7.56103 8.26499 7.55003C8.24799 7.53903 8.23199 7.52803 8.21699 7.51603C8.20199 7.50403 8.18699 7.49203 8.17299 7.47803C8.15599 7.52003 8.13699 7.56103 8.11599 7.60003C8.09499 7.63903 8.07299 7.67803 8.04699 7.71503C8.02099 7.75203 7.99399 7.78703 7.96299 7.82003C7.93199 7.85303 7.89799 7.88403 7.85999 7.91303C7.81599 7.94603 7.76999 7.97403 7.72299 7.99903C7.67599 8.02403 7.62699 8.04403 7.57699 8.06103C7.52699 8.07803 7.47499 8.09003 7.42199 8.09903C7.36899 8.10803 7.31599 8.11203 7.26199 8.11203C7.24999 8.11203 7.23799 8.11203 7.22499 8.11103C7.21199 8.11003 7.20099 8.11003 7.18799 8.10903C7.17499 8.10803 7.16399 8.10703 7.15099 8.10603C7.13799 8.10503 7.12699 8.10303 7.11399 8.10103C7.04799 8.09103 6.98299 8.07503 6.92199 8.05303C6.86099 8.03103 6.80099 8.00303 6.74499 7.97003C6.68899 7.93703 6.63699 7.89803 6.58799 7.85403C6.53899 7.81003 6.49499 7.76103 6.45499 7.70703C6.41499 7.65303 6.38099 7.59603 6.35299 7.53703C6.32499 7.47803 6.30299 7.41603 6.28699 7.35303C6.27099 7.29003 6.26199 7.22603 6.25799 7.16103C6.25399 7.09603 6.25799 7.03003 6.26799 6.96303C6.27999 6.87603 6.30399 6.79203 6.33799 6.71303C6.37199 6.63403 6.41599 6.56103 6.46899 6.49303C6.52199 6.42503 6.58299 6.36403 6.65099 6.31203C6.71899 6.26003 6.79499 6.21503 6.87699 6.18203C6.89099 6.17503 6.90299 6.16703 6.91399 6.15603C6.92499 6.14503 6.93199 6.13303 6.93699 6.11903C6.94199 6.10503 6.94499 6.09003 6.94499 6.07503C6.94499 6.06003 6.94299 6.04503 6.93699 6.03003C6.93299 6.02003 6.92799 6.01103 6.92099 6.00303C6.91399 5.99503 6.90599 5.98903 6.89699 5.98303C6.88799 5.97703 6.87799 5.97303 6.86699 5.97003C6.85599 5.96703 6.84499 5.96503 6.83299 5.96503C6.82899 5.96503 6.82499 5.96503 6.82099 5.96603C6.81699 5.96703 6.81399 5.96603 6.80999 5.96703C6.80599 5.96803 6.80199 5.96903 6.79899 5.97003C6.79599 5.97103 6.79099 5.97203 6.78699 5.97403C6.68699 6.01503 6.59399 6.06803 6.50899 6.13303C6.42399 6.19803 6.34899 6.27103 6.28399 6.35403C6.21899 6.43703 6.16499 6.52803 6.12299 6.62503C6.08099 6.72203 6.05199 6.82503 6.03599 6.93203C6.01199 7.10103 6.02199 7.26603 6.06199 7.42103C6.10199 7.57603 6.17199 7.72103 6.26599 7.84703C6.35999 7.97303 6.47799 8.08203 6.61399 8.16603C6.74999 8.25003 6.90499 8.30703 7.07199 8.33203C7.08799 8.33503 7.10299 8.33703 7.11899 8.33903C7.13499 8.34103 7.14999 8.34203 7.16499 8.34303C7.17999 8.34403 7.19499 8.34503 7.21099 8.34603C7.22699 8.34703 7.24099 8.34703 7.25699 8.34703Z" fill="#4D4D4D"/>
<path d="M13.564 26.341V25.596V24.851V24.106V23.361C13.564 23.345 13.561 23.329 13.555 23.316C13.549 23.302 13.541 23.29 13.531 23.28C13.521 23.27 13.509 23.262 13.495 23.256C13.481 23.25 13.466 23.247 13.45 23.247C13.434 23.247 13.418 23.25 13.405 23.256C13.391 23.262 13.379 23.27 13.369 23.28C13.359 23.29 13.351 23.302 13.345 23.316C13.339 23.33 13.336 23.345 13.336 23.361V24.106V24.851V25.596V26.341C13.336 26.356 13.339 26.371 13.344 26.384C13.349 26.397 13.357 26.408 13.366 26.418C13.375 26.428 13.387 26.436 13.4 26.441C13.413 26.447 13.427 26.45 13.442 26.452H13.446H13.45H13.454H13.458C13.473 26.451 13.487 26.447 13.5 26.441C13.513 26.435 13.524 26.427 13.534 26.418C13.544 26.409 13.551 26.397 13.556 26.384C13.561 26.371 13.564 26.357 13.564 26.341Z" fill="#4D4D4D"/>
<path d="M8.44402 7.212C8.43802 7.207 8.43201 7.202 8.42601 7.197C8.42001 7.192 8.41301 7.189 8.40601 7.186C8.39901 7.183 8.39101 7.181 8.38401 7.179C8.37701 7.177 8.36901 7.177 8.36101 7.177C8.35301 7.177 8.34601 7.178 8.33901 7.179C8.33201 7.18 8.32401 7.183 8.31701 7.186C8.31001 7.189 8.30301 7.192 8.29701 7.196C8.29101 7.2 8.28501 7.205 8.27901 7.21C8.26801 7.221 8.26001 7.234 8.25401 7.248C8.24801 7.262 8.24601 7.276 8.24601 7.291C8.24601 7.306 8.24901 7.32 8.25401 7.334C8.25901 7.348 8.26801 7.362 8.27901 7.374C8.35201 7.447 8.43101 7.515 8.51601 7.576C8.60101 7.637 8.69001 7.692 8.78401 7.739C8.87801 7.786 8.97601 7.826 9.07701 7.858C9.17801 7.89 9.28101 7.915 9.38701 7.931C9.41201 7.935 9.43601 7.938 9.46001 7.94C9.48401 7.942 9.50801 7.945 9.53201 7.946C9.55601 7.947 9.58001 7.949 9.60401 7.949C9.62801 7.949 9.65201 7.95 9.67701 7.95C9.78201 7.95 9.88601 7.941 9.98901 7.925C10.092 7.909 10.194 7.883 10.293 7.85C10.392 7.817 10.491 7.776 10.586 7.727C10.681 7.678 10.774 7.621 10.863 7.557C10.969 7.478 11.066 7.39 11.153 7.294C11.24 7.198 11.316 7.095 11.382 6.985C11.448 6.875 11.502 6.759 11.545 6.639C11.588 6.519 11.619 6.392 11.637 6.263C11.656 6.132 11.661 6.001 11.655 5.872C11.649 5.743 11.629 5.616 11.598 5.492C11.567 5.368 11.524 5.247 11.469 5.131C11.414 5.015 11.347 4.904 11.269 4.799C11.19 4.692 11.101 4.595 11.005 4.508C10.909 4.421 10.806 4.344 10.696 4.278C10.586 4.212 10.47 4.158 10.349 4.115C10.228 4.072 10.102 4.04 9.97301 4.022C9.94801 4.018 9.92401 4.015 9.90001 4.012C9.87601 4.009 9.85201 4.007 9.82801 4.005C9.80401 4.003 9.78001 4.002 9.75601 4.001C9.73201 4 9.70801 4 9.68501 4C9.49601 4 9.31001 4.028 9.13301 4.079C8.95601 4.13 8.78601 4.208 8.63101 4.305C8.47601 4.402 8.33301 4.522 8.21001 4.659C8.08701 4.796 7.98101 4.951 7.89901 5.122C7.89301 5.136 7.89001 5.151 7.89001 5.165C7.89001 5.179 7.89201 5.195 7.89701 5.209C7.90201 5.223 7.91001 5.237 7.91901 5.248C7.92801 5.259 7.94101 5.269 7.95501 5.276C7.95801 5.277 7.96101 5.278 7.96501 5.279C7.96901 5.28 7.97201 5.281 7.97601 5.282C7.98001 5.283 7.98501 5.283 7.98901 5.284C7.99301 5.285 7.99801 5.285 8.00201 5.285C8.01101 5.285 8.02101 5.284 8.03101 5.282C8.04101 5.28 8.05101 5.276 8.06101 5.271C8.07101 5.266 8.08001 5.259 8.08801 5.251C8.09601 5.243 8.10401 5.233 8.10901 5.221C8.18101 5.071 8.27401 4.933 8.38301 4.812C8.49201 4.691 8.61701 4.586 8.75401 4.5C8.89101 4.414 9.04001 4.346 9.19601 4.3C9.35201 4.254 9.51601 4.23 9.68301 4.23C9.70501 4.23 9.72601 4.23 9.74801 4.231C9.77001 4.232 9.79101 4.233 9.81301 4.235C9.83501 4.237 9.85602 4.239 9.87802 4.241C9.90002 4.243 9.92101 4.245 9.94301 4.248C10.058 4.266 10.17 4.294 10.278 4.333C10.386 4.372 10.488 4.42 10.585 4.479C10.682 4.538 10.773 4.605 10.857 4.682C10.941 4.759 11.018 4.844 11.087 4.937C11.156 5.031 11.216 5.131 11.265 5.234C11.314 5.337 11.352 5.445 11.379 5.555C11.406 5.665 11.423 5.778 11.428 5.892C11.433 6.006 11.428 6.122 11.41 6.237C11.392 6.353 11.364 6.465 11.325 6.572C11.286 6.679 11.238 6.782 11.179 6.879C11.12 6.976 11.053 7.067 10.976 7.151C10.899 7.235 10.814 7.312 10.721 7.381C10.644 7.438 10.564 7.488 10.481 7.531C10.398 7.574 10.312 7.611 10.225 7.64C10.138 7.669 10.049 7.692 9.95801 7.707C9.86702 7.722 9.77401 7.729 9.68101 7.729C9.66001 7.729 9.63901 7.729 9.61801 7.728C9.59701 7.727 9.57501 7.726 9.55401 7.724C9.53301 7.722 9.51201 7.721 9.49101 7.718C9.47001 7.715 9.44801 7.713 9.42701 7.71C9.33301 7.695 9.24001 7.673 9.15101 7.645C9.06201 7.617 8.97401 7.58 8.89101 7.538C8.80801 7.496 8.72801 7.447 8.65301 7.393C8.57801 7.339 8.50802 7.278 8.44402 7.212Z" fill="#4D4D4D"/>
<path d="M13.977 26.602H13.379H12.781H12.183H11.585C11.569 26.602 11.553 26.605 11.54 26.611C11.526 26.617 11.514 26.625 11.504 26.635C11.494 26.645 11.486 26.657 11.48 26.671C11.474 26.685 11.471 26.7 11.471 26.716C11.471 26.732 11.474 26.748 11.48 26.761C11.486 26.775 11.494 26.787 11.504 26.797C11.514 26.807 11.526 26.815 11.54 26.821C11.554 26.827 11.569 26.83 11.585 26.83H12.183H12.781H13.379H13.977C13.972 26.821 13.967 26.812 13.962 26.803C13.957 26.794 13.951 26.785 13.947 26.776C13.943 26.767 13.938 26.757 13.935 26.747C13.932 26.737 13.93 26.727 13.93 26.715C13.93 26.703 13.932 26.693 13.935 26.683C13.938 26.673 13.942 26.664 13.947 26.654C13.952 26.644 13.957 26.636 13.962 26.627C13.967 26.618 13.972 26.611 13.977 26.602Z" fill="#4D4D4D"/>
<path d="M16.055 23.247C16.039 23.247 16.023 23.25 16.01 23.256C15.996 23.262 15.984 23.27 15.974 23.28C15.964 23.29 15.956 23.302 15.95 23.316C15.944 23.33 15.941 23.345 15.941 23.361V24.106V24.851V25.596V26.341C15.941 26.356 15.944 26.371 15.949 26.384C15.954 26.397 15.962 26.408 15.971 26.418C15.98 26.428 15.992 26.436 16.005 26.441C16.018 26.447 16.032 26.45 16.047 26.452H16.051H16.055H16.059H16.063C16.078 26.451 16.092 26.447 16.105 26.441C16.118 26.435 16.129 26.427 16.139 26.418C16.149 26.409 16.156 26.397 16.161 26.384C16.166 26.371 16.169 26.357 16.169 26.341V25.596V24.851V24.106V23.361C16.169 23.345 16.166 23.329 16.16 23.316C16.154 23.302 16.146 23.29 16.136 23.28C16.126 23.27 16.114 23.262 16.1 23.256C16.086 23.25 16.071 23.247 16.055 23.247Z" fill="#4D4D4D"/>
<path d="M15.31 26.602H15.031H14.752H14.473H14.194C14.178 26.602 14.162 26.605 14.149 26.611C14.135 26.617 14.123 26.625 14.113 26.635C14.103 26.645 14.095 26.657 14.089 26.671C14.083 26.685 14.08 26.7 14.08 26.716C14.08 26.732 14.083 26.748 14.089 26.761C14.095 26.775 14.103 26.787 14.113 26.797C14.123 26.807 14.135 26.815 14.149 26.821C14.163 26.827 14.178 26.83 14.194 26.83H14.473H14.752H15.031H15.31H15.961H16.612H17.263H17.914C17.93 26.83 17.946 26.827 17.959 26.821C17.973 26.815 17.985 26.807 17.995 26.797C18.005 26.787 18.013 26.775 18.019 26.761C18.025 26.747 18.028 26.732 18.028 26.716C18.028 26.7 18.025 26.684 18.019 26.671C18.013 26.657 18.005 26.645 17.995 26.635C17.985 26.625 17.973 26.617 17.959 26.611C17.945 26.605 17.93 26.602 17.914 26.602H17.263H16.612H15.961H15.31Z" fill="#4D4D4D"/>
</svg>
