<svg width="30" height="30" viewBox="0 0 30 30" fill="none" xmlns="http://www.w3.org/2000/svg">
<g clip-path="url(#clip0)">
<rect width="30" height="30" fill="white"/>
<path d="M29.5599 29.5562H0.441977V0.43829H29.5599V29.5562ZM0 30H30V-7.54992e-07H0V30Z" fill="#656263"/>
<path d="M26.4186 11.8077L25.8124 10.9394C24.9054 11.5742 23.7206 12.3834 22.6982 13.0764L22.2397 12.5551C23.2223 11.6038 24.4172 10.2889 24.6212 9.34498L23.5868 9.12261C23.4549 9.73713 22.5054 10.8158 21.5384 11.7578L20.433 10.5021C20.3905 10.5454 15.6238 15.2152 9.67976 15.9857C6.78061 16.3622 3.06025 15.1027 0.000549316 13.6762V20.5762C3.25771 21.8218 7.01036 22.7344 10.4954 22.2813C18.7195 21.2156 24.3499 15.4635 24.5843 15.2199L23.4032 13.8773C24.4034 13.2001 25.5411 12.4222 26.4186 11.8077Z" fill="#656263"/>
</g>
<defs>
<clipPath id="clip0">
<rect width="30" height="30" fill="white"/>
</clipPath>
</defs>
</svg>
