<svg width="30" height="30" viewBox="0 0 30 30" fill="none" xmlns="http://www.w3.org/2000/svg">
<rect width="30" height="30" fill="white"/>
<path d="M30 30H22.5H15H7.5H0V22.5003V15.0005V7.49975V0H7.5H15H22.5H30V7.49975V14.9995V22.4992V30ZM0.252287 29.7477H7.62614H15H22.3739H29.7477V22.3741V15.0005V7.62589V0.252279H22.3739H15H7.62614H0.252287V7.62589V14.9995V22.3731V29.7477Z" fill="#4D4D4D"/>
<path fill-rule="evenodd" clip-rule="evenodd" d="M12.1414 21.6769V24.4118C11.8427 24.4414 11.5375 24.4578 11.229 24.4578C6.14516 24.4578 2 20.3112 2 15.2289C2 10.1466 6.14516 6.00003 11.229 6.00003C11.5375 6.00003 11.8427 6.01644 12.1414 6.04599V8.78084C11.8427 8.73816 11.5375 8.71518 11.229 8.71518C7.64179 8.71518 4.71421 11.6437 4.71421 15.2289C4.71421 18.8174 7.64179 21.7427 11.229 21.7427C11.5375 21.7427 11.8427 21.7196 12.1414 21.6769Z" fill="#4D4D4D"/>
<path fill-rule="evenodd" clip-rule="evenodd" d="M20.727 13.8205H26.057V16.6407H20.727C21.3736 19.5528 23.9795 21.7427 27.0843 21.7427C27.3928 21.7427 27.7013 21.7196 28 21.6769V24.4118C27.698 24.4414 27.3928 24.4578 27.0843 24.4578C22.0005 24.4578 17.8586 20.3112 17.8586 15.2289C17.8586 10.1466 22.0005 6.00003 27.0843 6.00003C27.3928 6.00003 27.698 6.01644 28 6.04599V8.78084C27.698 8.73816 27.3928 8.71518 27.0843 8.71518C23.9795 8.71518 21.3736 10.905 20.727 13.8205Z" fill="#4D4D4D"/>
</svg>
