<svg width="30" height="30" viewBox="0 0 30 30" fill="none" xmlns="http://www.w3.org/2000/svg">
<g clip-path="url(#clip0)">
<rect width="30" height="30" fill="white"/>
<path d="M29.5599 29.558H0.441981V0.440136H29.5599V29.558ZM0 30H30V-7.54992e-07H0V30Z" fill="#656263"/>
<path d="M17.3031 11.6039L17.0152 12.0228C17.0042 12.0422 16.9977 12.0644 16.9977 12.0865V13.4512L16.6185 13.6274V12.2572C16.6185 12.2212 16.6009 12.1871 16.5714 12.1658C16.5446 12.1428 16.5059 12.1391 16.4717 12.1502C13.365 13.1541 11.096 15.0059 11.0739 15.0244C11.049 15.0465 11.0324 15.0788 11.0324 15.113V15.5153L10.4824 15.1028C12.8778 12.94 16.2974 11.8807 17.3031 11.6039ZM24.8158 16.7729V19.1508L17.2247 13.4807V12.1234L17.5974 11.5772L24.8158 16.7729ZM24.8158 19.8871L16.7255 13.8295L17.0853 13.6597L24.8158 19.434V19.8871ZM22.8892 21.0783C22.7489 20.9113 22.3817 20.5284 21.9628 20.5284C21.4553 20.5284 20.9081 20.7461 20.9081 21.2232C20.9081 21.5295 21.1914 21.7583 21.3916 21.8838L20.5077 22.3562C20.396 22.2188 20.002 21.7694 19.5517 21.7694C19.0433 21.7694 18.4971 21.9881 18.4971 22.466C18.4971 22.7936 18.8283 23.0363 19.0258 23.1525L18.6881 23.3362L17.866 22.7373V20.8587L19.6791 19.8354C19.7114 19.8142 19.7354 19.7763 19.7354 19.7348V19.0059H19.7326C19.7326 18.9717 19.7188 18.9376 19.6892 18.9145L17.9905 17.643C17.9536 17.6163 17.9084 17.6135 17.8706 17.6338L15.5241 18.8712L15.2888 18.6977C15.2916 18.6949 15.2953 18.6931 15.2971 18.6903H15.2999L16.4791 18.037C16.6351 18.0269 16.7818 17.99 16.8999 17.9319C17.0752 17.8433 17.1739 17.7159 17.1767 17.5729C17.1767 17.4963 17.149 17.3469 16.9386 17.2306C16.7412 17.1226 16.4468 17.0876 16.1774 17.1356L16.1746 17.1337C16.1405 17.1088 16.0953 17.1042 16.0574 17.1245L14.654 17.8608C14.6199 17.8783 14.5977 17.9125 14.595 17.954C14.5119 17.9743 14.4436 18.0057 14.4261 18.0177C14.416 18.0223 14.4095 18.0287 14.403 18.0324L13.5209 17.3764L14.6614 16.7434C14.8173 16.7323 14.965 16.6964 15.0821 16.6373C15.2593 16.5487 15.3562 16.4223 15.3589 16.2793C15.3589 16.2018 15.3294 16.0523 15.1209 15.937C14.9216 15.8281 14.6291 15.7949 14.3597 15.8419L14.3578 15.8401C14.3237 15.8152 14.2785 15.8124 14.2397 15.8327L12.8372 16.5672C12.8031 16.5856 12.78 16.6198 12.7763 16.6594C12.7135 16.6761 12.6647 16.6964 12.6324 16.7093L11.9007 16.163L13.628 15.184C13.6621 15.1665 13.6842 15.1277 13.6842 15.0871V14.3573H13.6824C13.6824 14.3213 13.6676 14.2881 13.64 14.2669L13.1518 13.9024C13.2561 13.8387 13.3668 13.7769 13.4785 13.7142L18.2987 17.2195L23.3016 20.8568L22.8892 21.0783ZM17.866 23.7754V23.016L18.4657 23.4543L17.866 23.7754ZM17.8198 20.5893L17.496 20.3466L19.5084 19.1997V19.6693L17.8401 20.6142C17.8337 20.6049 17.829 20.5966 17.8198 20.5893ZM16.7144 18.9191C16.7163 18.7512 16.8307 18.5907 17.0291 18.4661C17.233 18.336 17.5024 18.2668 17.7857 18.2668C18.0736 18.2668 18.3384 18.3388 18.534 18.4707C18.7038 18.5861 18.7942 18.7355 18.7914 18.8896C18.7877 19.0576 18.6761 19.219 18.4777 19.3436C18.2729 19.4728 18.0034 19.542 17.7202 19.542C17.4304 19.542 17.1675 19.4691 16.9728 19.339C16.8021 19.2236 16.7116 19.0732 16.7144 18.9191ZM16.7116 17.5775C16.7116 17.5406 16.696 17.5074 16.6664 17.4871L16.4671 17.3422C16.6037 17.3487 16.7338 17.3764 16.8307 17.4299C16.9073 17.4714 16.9497 17.5231 16.9497 17.5683C16.9479 17.6209 16.8925 17.6818 16.7984 17.727C16.7726 17.7409 16.7412 17.7482 16.7144 17.7584V17.5775H16.7116ZM15.2141 18.432C15.2233 18.4366 15.2353 18.4412 15.2455 18.4412C15.263 18.4412 15.2824 18.4366 15.2999 18.4274L16.4884 17.7704V17.775L15.2501 18.4597L15.2141 18.432ZM14.8939 16.283C14.8939 16.2479 14.8782 16.2138 14.8496 16.1926L14.6503 16.0477C14.786 16.0551 14.9151 16.0846 15.0129 16.1363C15.0895 16.1796 15.1329 16.2295 15.1329 16.2747C15.1301 16.3263 15.0738 16.3882 14.9806 16.4352C14.9557 16.4472 14.9234 16.4537 14.8976 16.4657V16.283H14.8939ZM13.3973 17.1383C13.4056 17.142 13.4176 17.1494 13.4277 17.1494C13.4471 17.1494 13.4646 17.1448 13.4822 17.1337L14.6706 16.4758V16.4804L13.4323 17.1651L13.3973 17.1383ZM11.622 14.8925C11.8813 14.7042 12.2587 14.4431 12.7302 14.1534C12.7735 14.3462 12.6646 14.5455 12.4266 14.695C12.207 14.8334 11.9154 14.9008 11.622 14.8925ZM11.3507 15.7515L13.4573 14.5529V15.0207L11.7023 16.0136L11.3507 15.7515ZM0.000488281 7.54862L10.237 15.2034L13.2829 17.4797L13.2856 17.4871C13.2875 17.4871 13.2875 17.4871 13.2902 17.4843L17.639 20.736V23.9654C17.639 24.007 17.6593 24.042 17.6925 24.0633C17.7266 24.0836 17.77 24.0835 17.8069 24.066L18.6706 23.601L18.6807 23.6093L18.6964 23.5871L24.981 20.2128C25.0188 20.1925 25.0428 20.1537 25.0428 20.1131V16.7148C25.0428 16.6779 25.0234 16.6447 24.9939 16.6207L17.233 11.0355L2.07105 0.121749H3.5529L26.6649 16.3199V16.6078L25.4045 17.2564C25.3657 17.274 25.3436 17.3155 25.3436 17.3552V20.3853L18.7914 23.8206L17.1472 24.6842V21.774C17.1472 21.7362 17.1269 21.7002 17.0927 21.679C17.0752 21.6679 17.054 21.6614 17.0337 21.6614C17.0152 21.6614 16.9977 21.666 16.9811 21.6753L15.5906 22.3978L0.000488281 10.2512V10.5373L15.5094 22.6201C15.5426 22.6469 15.5905 22.6515 15.6293 22.6312L16.9211 21.9622V24.4711L0.000488281 11.293V11.5809L16.9211 24.7562V24.8715C16.9211 24.9103 16.9405 24.949 16.9755 24.9693C16.9931 24.9813 17.0124 24.986 17.0337 24.986C17.0521 24.986 17.0706 24.9813 17.0881 24.9721L25.5087 20.5533C25.5475 20.5348 25.5696 20.4961 25.5696 20.4536V17.4253L26.8291 16.7775C26.8688 16.7572 26.8919 16.7185 26.8919 16.676V16.2608C26.8919 16.2248 26.8734 16.1889 26.8439 16.1676L3.77529 -5.19165e-05H0.000488281V7.54862Z" fill="#656263"/>
</g>
<defs>
<clipPath id="clip0">
<rect width="30" height="30" fill="white"/>
</clipPath>
</defs>
</svg>
