<svg width="30" height="30" viewBox="0 0 30 30" fill="none" xmlns="http://www.w3.org/2000/svg">
<rect width="30" height="30" fill="white"/>
<path d="M30 30H22.5H15H7.5H0V22.5003V15.0005V7.49975V0H7.5H15H22.5H30V7.49975V14.9995V22.4992V30ZM0.252287 29.7477H7.62614H15H22.3739H29.7477V22.3741V15.0005V7.62589V0.252279H22.3739H15H7.62614H0.252287V7.62589V14.9995V22.3731V29.7477Z" fill="#4D4D4D"/>
<path d="M30 22V21.9421V21.8843V21.8264V21.7685C28.8439 21.3235 27.6602 20.9279 26.4529 20.5844C25.2446 20.241 24.0117 19.9507 22.7583 19.7163C21.5049 19.482 20.2279 19.3027 18.9345 19.1822C17.6401 19.0617 16.3282 19 15 19C13.6718 19 12.3589 19.0617 11.0655 19.1822C9.77111 19.3027 8.49515 19.482 7.24173 19.7163C5.98832 19.9507 4.7554 20.2419 3.54708 20.5844C2.33875 20.9279 1.15605 21.3235 0 21.7685V21.8264V21.8843V21.9421V22C1.15503 21.5522 2.33773 21.1546 3.54605 20.8093C4.75335 20.4639 5.98627 20.1717 7.24071 19.9364C8.49515 19.7011 9.77111 19.5199 11.0655 19.3994C12.3599 19.278 13.6728 19.2163 15.002 19.2163C16.3303 19.2163 17.6431 19.278 18.9376 19.3994C20.232 19.5209 21.5079 19.7011 22.7624 19.9364C24.0168 20.1717 25.2487 20.4649 26.457 20.8093C27.6612 21.1546 28.845 21.5522 30 22Z" fill="#4D4D4D"/>
<path d="M23.366 7.027C23.181 7.027 22.998 7.039 22.819 7.063C22.64 7.087 22.465 7.123 22.294 7.169C22.123 7.215 21.957 7.272 21.797 7.339C21.636 7.406 21.481 7.483 21.332 7.569C21.183 7.483 21.027 7.406 20.867 7.339C20.706 7.272 20.54 7.215 20.37 7.169C20.2 7.123 20.024 7.087 19.845 7.063C19.666 7.039 19.484 7.027 19.298 7.027C19.112 7.027 18.93 7.039 18.751 7.063C18.572 7.087 18.397 7.123 18.226 7.169C18.055 7.215 17.889 7.272 17.729 7.339C17.568 7.406 17.413 7.483 17.264 7.569C17.115 7.483 16.959 7.406 16.799 7.339C16.638 7.272 16.472 7.215 16.302 7.169C16.132 7.123 15.956 7.087 15.777 7.063C15.598 7.039 15.416 7.027 15.23 7.027C15.044 7.027 14.862 7.039 14.683 7.063C14.504 7.087 14.329 7.123 14.158 7.169C13.987 7.215 13.821 7.272 13.661 7.339C13.5 7.406 13.345 7.483 13.196 7.569C13.047 7.483 12.891 7.406 12.731 7.339C12.57 7.272 12.404 7.215 12.234 7.169C12.064 7.123 11.888 7.087 11.709 7.063C11.53 7.039 11.348 7.027 11.162 7.027C10.979 7.027 10.799 7.039 10.622 7.062C10.445 7.085 10.274 7.12 10.105 7.165C9.937 7.21 9.773 7.266 9.615 7.332C9.456 7.398 9.303 7.475 9.156 7.561C9.005 7.472 8.847 7.393 8.684 7.324C8.521 7.255 8.353 7.196 8.18 7.148C8.007 7.1 7.83 7.063 7.649 7.038C7.467 7.013 7.283 7 7.095 7C6.53 7 5.992 7.115 5.502 7.322C5.012 7.529 4.571 7.829 4.2 8.2C3.829 8.571 3.529 9.012 3.322 9.502C3.115 9.992 3 10.53 3 11.095C3 11.66 3.115 12.198 3.322 12.688C3.529 13.178 3.829 13.619 4.2 13.99C4.571 14.361 5.012 14.661 5.502 14.868C5.992 15.075 6.53 15.19 7.095 15.19C7.283 15.19 7.467 15.177 7.648 15.152C7.829 15.127 8.006 15.09 8.179 15.042C8.352 14.994 8.52 14.935 8.683 14.866C8.846 14.797 9.004 14.718 9.155 14.63C9.304 14.714 9.458 14.789 9.617 14.854C9.776 14.92 9.939 14.976 10.107 15.022C10.275 15.068 10.447 15.103 10.623 15.127C10.799 15.151 10.978 15.163 11.162 15.163C11.347 15.163 11.53 15.151 11.709 15.127C11.888 15.103 12.063 15.067 12.234 15.021C12.405 14.975 12.571 14.918 12.731 14.851C12.891 14.784 13.047 14.707 13.196 14.621C13.345 14.707 13.501 14.784 13.661 14.851C13.821 14.918 13.988 14.975 14.158 15.021C14.328 15.067 14.504 15.103 14.683 15.127C14.862 15.151 15.044 15.163 15.23 15.163C15.416 15.163 15.598 15.151 15.777 15.127C15.956 15.103 16.131 15.067 16.302 15.021C16.473 14.975 16.639 14.918 16.799 14.851C16.96 14.784 17.115 14.707 17.264 14.621C17.413 14.707 17.569 14.784 17.729 14.851C17.89 14.918 18.056 14.975 18.226 15.021C18.396 15.067 18.572 15.103 18.751 15.127C18.93 15.151 19.112 15.163 19.298 15.163C19.484 15.163 19.666 15.151 19.845 15.127C20.024 15.103 20.199 15.067 20.37 15.021C20.541 14.975 20.707 14.918 20.867 14.851C21.028 14.784 21.183 14.707 21.332 14.621C21.481 14.707 21.637 14.784 21.797 14.851C21.958 14.918 22.124 14.975 22.294 15.021C22.464 15.067 22.64 15.103 22.819 15.127C22.998 15.151 23.18 15.163 23.366 15.163C23.929 15.163 24.464 15.049 24.951 14.844C25.438 14.639 25.876 14.341 26.244 13.973C26.612 13.605 26.909 13.167 27.115 12.68C27.32 12.193 27.434 11.658 27.434 11.095C27.434 10.532 27.32 9.997 27.115 9.51C26.91 9.023 26.612 8.585 26.244 8.217C25.876 7.849 25.438 7.552 24.951 7.346C24.464 7.141 23.928 7.027 23.366 7.027ZM11.163 7.127C11.339 7.127 11.512 7.138 11.681 7.16C11.85 7.182 12.016 7.215 12.177 7.258C12.339 7.301 12.496 7.354 12.65 7.417C12.804 7.48 12.953 7.552 13.097 7.633C12.828 7.8 12.58 7.997 12.358 8.22C12.136 8.443 11.939 8.691 11.773 8.96C11.607 9.229 11.471 9.519 11.371 9.825C11.271 10.131 11.206 10.454 11.181 10.788C11.156 10.454 11.091 10.13 10.991 9.823C10.891 9.516 10.755 9.225 10.588 8.954C10.421 8.683 10.224 8.433 10 8.208C9.776 7.984 9.527 7.784 9.255 7.615C9.397 7.538 9.545 7.469 9.697 7.409C9.849 7.349 10.005 7.297 10.165 7.256C10.325 7.215 10.488 7.182 10.655 7.16C10.822 7.138 10.991 7.127 11.163 7.127ZM7.095 15.135C6.537 15.135 6.005 15.021 5.522 14.816C5.039 14.611 4.603 14.314 4.238 13.948C3.873 13.582 3.577 13.146 3.372 12.663C3.168 12.181 3.055 11.651 3.055 11.095C3.055 10.539 3.169 10.009 3.374 9.526C3.579 9.043 3.876 8.607 4.242 8.241C4.608 7.875 5.044 7.578 5.527 7.373C6.009 7.168 6.539 7.054 7.095 7.054C7.278 7.054 7.458 7.066 7.635 7.09C7.811 7.115 7.984 7.15 8.153 7.196C8.321 7.241 8.485 7.298 8.643 7.363C8.802 7.429 8.955 7.504 9.102 7.588C8.801 7.764 8.526 7.978 8.281 8.224C8.037 8.469 7.823 8.745 7.648 9.046C7.472 9.347 7.334 9.673 7.24 10.016C7.145 10.36 7.095 10.722 7.095 11.095C7.095 11.468 7.145 11.829 7.239 12.173C7.333 12.517 7.471 12.842 7.647 13.143C7.823 13.444 8.036 13.721 8.28 13.966C8.524 14.211 8.8 14.425 9.101 14.602C8.954 14.688 8.801 14.764 8.643 14.83C8.485 14.896 8.321 14.952 8.152 14.997C7.984 15.042 7.811 15.077 7.634 15.1C7.458 15.124 7.278 15.135 7.095 15.135ZM7.195 11.095C7.195 10.727 7.246 10.37 7.341 10.031C7.436 9.692 7.575 9.371 7.751 9.075C7.927 8.779 8.141 8.508 8.385 8.268C8.629 8.028 8.904 7.821 9.202 7.651C9.491 7.83 9.757 8.043 9.992 8.286C10.228 8.529 10.433 8.8 10.603 9.095C10.773 9.39 10.906 9.708 10.997 10.043C11.088 10.378 11.137 10.731 11.137 11.095C11.137 11.459 11.088 11.812 10.997 12.148C10.906 12.484 10.773 12.803 10.603 13.098C10.434 13.393 10.228 13.665 9.992 13.908C9.756 14.15 9.491 14.363 9.202 14.539C8.904 14.37 8.629 14.162 8.385 13.922C8.141 13.682 7.927 13.411 7.751 13.115C7.575 12.819 7.436 12.498 7.341 12.159C7.245 11.82 7.195 11.463 7.195 11.095ZM11.163 15.063C10.989 15.063 10.818 15.052 10.65 15.03C10.482 15.008 10.318 14.976 10.158 14.934C9.998 14.892 9.842 14.841 9.692 14.781C9.541 14.721 9.396 14.652 9.255 14.575C9.524 14.408 9.772 14.209 9.996 13.985C10.219 13.761 10.417 13.51 10.584 13.239C10.751 12.968 10.888 12.676 10.989 12.368C11.09 12.06 11.156 11.736 11.181 11.402C11.206 11.736 11.271 12.059 11.371 12.365C11.471 12.671 11.607 12.961 11.773 13.23C11.939 13.499 12.136 13.747 12.358 13.97C12.58 14.193 12.828 14.39 13.097 14.557C12.955 14.636 12.807 14.707 12.654 14.77C12.501 14.832 12.343 14.886 12.181 14.929C12.019 14.972 11.852 15.006 11.683 15.029C11.512 15.051 11.339 15.063 11.163 15.063ZM11.371 11.095C11.371 10.738 11.42 10.392 11.51 10.064C11.6 9.736 11.734 9.425 11.903 9.138C12.072 8.851 12.277 8.588 12.511 8.354C12.745 8.12 13.009 7.917 13.296 7.75C13.572 7.926 13.824 8.136 14.048 8.373C14.272 8.61 14.467 8.875 14.627 9.161C14.787 9.447 14.913 9.756 14.999 10.08C15.085 10.404 15.131 10.744 15.131 11.095C15.131 11.445 15.085 11.785 14.999 12.11C14.913 12.434 14.787 12.742 14.627 13.029C14.467 13.315 14.272 13.58 14.048 13.817C13.824 14.054 13.572 14.264 13.296 14.44C13.007 14.273 12.742 14.069 12.507 13.836C12.272 13.603 12.068 13.339 11.899 13.052C11.731 12.765 11.598 12.454 11.508 12.126C11.418 11.798 11.371 11.452 11.371 11.095ZM15.23 14.964C15.065 14.964 14.902 14.953 14.741 14.933C14.58 14.913 14.423 14.882 14.268 14.842C14.114 14.802 13.963 14.754 13.817 14.697C13.671 14.64 13.53 14.575 13.394 14.503C13.67 14.322 13.922 14.108 14.146 13.866C14.37 13.624 14.565 13.355 14.725 13.064C14.885 12.773 15.011 12.46 15.097 12.132C15.183 11.803 15.229 11.459 15.229 11.104C15.229 10.749 15.183 10.405 15.097 10.076C15.011 9.747 14.885 9.435 14.725 9.144C14.565 8.853 14.37 8.584 14.146 8.342C13.922 8.1 13.671 7.886 13.395 7.705C13.531 7.63 13.672 7.564 13.818 7.507C13.964 7.45 14.114 7.401 14.269 7.363C14.423 7.324 14.581 7.294 14.742 7.274C14.903 7.254 15.066 7.244 15.231 7.244C15.396 7.244 15.559 7.255 15.72 7.275C15.881 7.296 16.038 7.326 16.193 7.366C16.347 7.406 16.498 7.454 16.644 7.511C16.79 7.568 16.931 7.633 17.067 7.705C16.791 7.886 16.539 8.1 16.315 8.342C16.091 8.584 15.896 8.853 15.736 9.144C15.576 9.435 15.45 9.748 15.364 10.076C15.278 10.405 15.232 10.749 15.232 11.104C15.232 11.459 15.278 11.803 15.364 12.132C15.45 12.461 15.576 12.773 15.736 13.064C15.896 13.355 16.091 13.624 16.315 13.866C16.539 14.108 16.791 14.322 17.067 14.503C16.931 14.575 16.791 14.64 16.646 14.697C16.501 14.754 16.351 14.802 16.197 14.842C16.043 14.882 15.886 14.912 15.725 14.933C15.564 14.954 15.398 14.964 15.23 14.964ZM15.637 11.095C15.637 10.758 15.683 10.432 15.768 10.123C15.853 9.814 15.979 9.52 16.138 9.249C16.297 8.978 16.491 8.729 16.712 8.507C16.933 8.286 17.182 8.092 17.453 7.931C17.702 8.105 17.929 8.308 18.13 8.535C18.331 8.762 18.505 9.013 18.649 9.283C18.792 9.553 18.905 9.842 18.981 10.146C19.058 10.45 19.098 10.768 19.098 11.095C19.098 11.423 19.057 11.74 18.981 12.043C18.904 12.346 18.792 12.634 18.649 12.904C18.506 13.173 18.331 13.424 18.13 13.651C17.929 13.878 17.702 14.082 17.453 14.258C17.182 14.098 16.933 13.904 16.712 13.682C16.491 13.461 16.298 13.211 16.138 12.94C15.979 12.669 15.853 12.376 15.768 12.066C15.683 11.756 15.637 11.432 15.637 11.095ZM19.298 14.756C19.149 14.756 19.003 14.747 18.859 14.729C18.716 14.711 18.575 14.685 18.438 14.652C18.301 14.618 18.167 14.576 18.036 14.527C17.905 14.478 17.777 14.421 17.653 14.358C17.902 14.175 18.129 13.963 18.33 13.727C18.531 13.491 18.705 13.232 18.849 12.953C18.992 12.674 19.105 12.377 19.181 12.066C19.258 11.755 19.298 11.429 19.298 11.095C19.298 10.761 19.257 10.435 19.181 10.124C19.104 9.812 18.992 9.515 18.849 9.236C18.706 8.957 18.531 8.696 18.33 8.459C18.129 8.222 17.902 8.008 17.653 7.823C17.777 7.76 17.906 7.703 18.037 7.654C18.169 7.605 18.304 7.563 18.442 7.529C18.58 7.495 18.721 7.469 18.863 7.452C19.006 7.434 19.151 7.425 19.298 7.425C19.445 7.425 19.59 7.434 19.733 7.452C19.876 7.47 20.017 7.496 20.154 7.529C20.292 7.563 20.427 7.605 20.559 7.654C20.691 7.703 20.819 7.76 20.943 7.823C20.694 8.008 20.467 8.222 20.266 8.459C20.065 8.696 19.891 8.956 19.747 9.236C19.604 9.515 19.491 9.813 19.415 10.124C19.338 10.436 19.298 10.761 19.298 11.095C19.298 11.429 19.339 11.755 19.415 12.066C19.492 12.378 19.604 12.675 19.747 12.954C19.89 13.233 20.065 13.494 20.266 13.731C20.467 13.968 20.694 14.182 20.943 14.367C20.821 14.428 20.694 14.483 20.564 14.531C20.433 14.579 20.299 14.62 20.161 14.653C20.023 14.686 19.882 14.712 19.738 14.729C19.594 14.746 19.447 14.756 19.298 14.756Z" fill="#4D4D4D" stroke="#4D4D4D" stroke-width="0.3" stroke-miterlimit="10"/>
</svg>
