<svg width="30" height="30" viewBox="0 0 30 30" fill="none" xmlns="http://www.w3.org/2000/svg">
<rect width="30" height="30" fill="white"/>
<path d="M30 30H22.5H15H7.5H0V22.5003V15.0005V7.49975V0H7.5H15H22.5H30V7.49975V14.9995V22.4992V30ZM0.252287 29.7477H7.62614H15H22.3739H29.7477V22.3741V15.0005V7.62589V0.252279H22.3739H15H7.62614H0.252287V7.62589V14.9995V22.3731V29.7477Z" fill="#4D4D4D"/>
<path d="M20.674 12.802C20.488 12.498 20.285 12.208 20.068 11.935C19.851 11.662 19.618 11.405 19.372 11.167C19.126 10.929 18.867 10.708 18.596 10.508C18.325 10.308 18.043 10.127 17.751 9.967L17.669 9.922L17.587 9.877L17.505 9.832L17.423 9.787L17.46 9.701L17.495 9.616L17.532 9.53L17.569 9.444C17.604 9.364 17.63 9.286 17.649 9.212C17.668 9.138 17.678 9.066 17.68 8.998C17.682 8.93 17.677 8.864 17.663 8.8C17.649 8.736 17.628 8.676 17.598 8.617C17.56 8.543 17.511 8.478 17.455 8.422C17.399 8.366 17.336 8.318 17.27 8.276C17.204 8.234 17.134 8.2 17.065 8.172C16.996 8.144 16.929 8.121 16.866 8.103L16.771 8.076L16.676 8.049L16.581 8.022L16.486 7.995L16.509 7.899L16.532 7.803L16.555 7.707L16.578 7.611C16.606 7.495 16.623 7.386 16.631 7.286C16.639 7.185 16.637 7.093 16.625 7.008C16.613 6.923 16.592 6.847 16.561 6.778C16.53 6.71 16.489 6.649 16.438 6.597C16.406 6.566 16.37 6.536 16.331 6.51C16.292 6.484 16.25 6.462 16.204 6.444C16.158 6.426 16.11 6.411 16.058 6.401C16.006 6.391 15.95 6.383 15.891 6.38L15.768 6.373L15.644 6.366L15.521 6.359L15.398 6.352L15.427 6.232L15.456 6.112L15.485 5.992L15.514 5.872C15.523 5.835 15.532 5.797 15.541 5.759C15.55 5.721 15.558 5.682 15.566 5.644C15.574 5.606 15.582 5.566 15.589 5.527C15.596 5.488 15.603 5.449 15.61 5.409C15.65 5.18 15.674 4.966 15.684 4.766C15.694 4.566 15.689 4.382 15.67 4.213C15.651 4.044 15.617 3.892 15.568 3.757C15.52 3.622 15.457 3.505 15.38 3.405C15.328 3.338 15.269 3.279 15.204 3.228C15.139 3.177 15.068 3.135 14.99 3.101C14.912 3.067 14.83 3.043 14.74 3.026C14.65 3.009 14.555 3 14.453 3C14.436 3 14.419 3 14.402 3.001C14.385 3.002 14.367 3.002 14.35 3.003C14.333 3.004 14.315 3.005 14.297 3.007C14.279 3.009 14.261 3.01 14.243 3.012C13.999 3.038 13.771 3.082 13.56 3.145C13.349 3.208 13.154 3.289 12.977 3.389C12.8 3.489 12.639 3.607 12.495 3.743C12.351 3.879 12.225 4.033 12.116 4.205C12.006 4.379 11.914 4.571 11.84 4.78C11.766 4.989 11.711 5.216 11.673 5.459C11.635 5.702 11.617 5.963 11.616 6.24C11.615 6.517 11.633 6.81 11.669 7.12C11.687 7.277 11.71 7.437 11.738 7.601C11.766 7.765 11.798 7.933 11.835 8.104C11.872 8.275 11.914 8.449 11.96 8.626C12.006 8.803 12.058 8.983 12.113 9.166L12.14 9.255L12.167 9.344L12.194 9.433L12.221 9.522L12.137 9.556L12.052 9.592L11.967 9.628L11.882 9.664C11.733 9.727 11.587 9.795 11.442 9.868C11.297 9.941 11.155 10.02 11.015 10.103C10.875 10.186 10.737 10.275 10.602 10.368C10.467 10.461 10.335 10.56 10.205 10.663C10.043 10.791 9.886 10.927 9.734 11.068C9.582 11.209 9.435 11.358 9.294 11.513C9.153 11.668 9.016 11.829 8.886 11.996C8.756 12.163 8.63 12.336 8.511 12.515C8.264 12.886 8.046 13.275 7.858 13.679C7.67 14.083 7.512 14.502 7.385 14.933C7.258 15.364 7.162 15.807 7.097 16.259C7.033 16.711 7 17.172 7 17.638C7 18.205 7.049 18.764 7.144 19.308C7.239 19.852 7.381 20.382 7.566 20.891C7.752 21.4 7.981 21.888 8.253 22.35C8.525 22.812 8.838 23.247 9.192 23.648C9.364 23.843 9.542 24.028 9.728 24.202C9.914 24.376 10.106 24.539 10.306 24.692C10.506 24.845 10.711 24.986 10.923 25.117C11.135 25.248 11.353 25.367 11.578 25.475C11.809 25.586 12.044 25.684 12.283 25.768C12.521 25.852 12.763 25.922 13.007 25.978C13.251 26.034 13.499 26.076 13.748 26.104C13.998 26.132 14.25 26.146 14.504 26.146C14.757 26.146 15.008 26.132 15.257 26.104C15.506 26.076 15.753 26.034 15.998 25.978C16.243 25.922 16.485 25.852 16.724 25.768C16.963 25.684 17.199 25.587 17.432 25.475C17.656 25.367 17.874 25.248 18.086 25.117C18.298 24.987 18.504 24.845 18.703 24.692C18.902 24.539 19.095 24.376 19.281 24.202C19.467 24.028 19.646 23.843 19.817 23.648C20.17 23.246 20.484 22.811 20.756 22.35C21.028 21.888 21.258 21.4 21.443 20.891C21.628 20.382 21.77 19.852 21.865 19.308C21.96 18.764 22.009 18.205 22.009 17.638C22.008 17.203 21.979 16.772 21.922 16.348C21.865 15.924 21.78 15.507 21.668 15.101C21.556 14.695 21.417 14.297 21.251 13.913C21.085 13.529 20.891 13.158 20.674 12.802ZM19.647 23.454C19.304 23.848 18.932 24.197 18.537 24.5C18.142 24.803 17.724 25.059 17.288 25.266C16.852 25.473 16.398 25.63 15.931 25.736C15.464 25.842 14.985 25.896 14.498 25.896C13.498 25.896 12.544 25.664 11.676 25.246C10.808 24.828 10.026 24.222 9.369 23.474C8.712 22.726 8.18 21.836 7.812 20.848C7.444 19.86 7.241 18.775 7.241 17.636C7.241 17.182 7.273 16.733 7.335 16.294C7.398 15.854 7.491 15.423 7.615 15.004C7.739 14.585 7.892 14.177 8.075 13.784C8.258 13.391 8.47 13.012 8.71 12.651C8.943 12.302 9.199 11.976 9.477 11.675C9.755 11.374 10.052 11.097 10.367 10.849C10.682 10.601 11.013 10.38 11.357 10.191C11.701 10.002 12.058 9.844 12.424 9.72L12.454 9.71L12.484 9.7L12.514 9.69L12.544 9.68L12.534 9.65L12.524 9.62L12.514 9.59L12.504 9.56C12.452 9.41 12.396 9.24 12.339 9.054C12.282 8.868 12.226 8.668 12.172 8.456C12.118 8.244 12.067 8.022 12.023 7.793C11.979 7.564 11.941 7.328 11.914 7.09C11.88 6.795 11.863 6.516 11.863 6.254C11.863 5.992 11.88 5.745 11.915 5.515C11.95 5.285 12.001 5.072 12.069 4.875C12.137 4.678 12.223 4.499 12.325 4.337C12.423 4.182 12.537 4.043 12.668 3.92C12.799 3.797 12.945 3.691 13.107 3.601C13.269 3.511 13.447 3.437 13.641 3.38C13.835 3.323 14.044 3.282 14.268 3.258C14.286 3.256 14.303 3.255 14.319 3.253C14.335 3.251 14.352 3.251 14.367 3.25C14.382 3.249 14.398 3.249 14.413 3.248C14.428 3.247 14.443 3.247 14.458 3.247C14.539 3.247 14.616 3.254 14.687 3.267C14.758 3.28 14.824 3.3 14.885 3.326C14.946 3.352 15.002 3.385 15.052 3.424C15.102 3.463 15.148 3.509 15.187 3.561C15.348 3.766 15.42 4.055 15.438 4.374C15.456 4.693 15.419 5.042 15.362 5.367C15.305 5.692 15.23 5.99 15.167 6.209C15.104 6.428 15.054 6.569 15.052 6.574L15.029 6.637L15.006 6.7L14.983 6.763L14.96 6.826L15.022 6.803L15.084 6.78L15.146 6.757L15.208 6.734C15.257 6.716 15.307 6.701 15.359 6.687C15.411 6.673 15.463 6.662 15.515 6.652C15.567 6.642 15.619 6.635 15.67 6.63C15.721 6.625 15.77 6.622 15.818 6.622C15.852 6.622 15.884 6.623 15.915 6.626C15.945 6.629 15.974 6.633 16.001 6.638C16.028 6.643 16.054 6.65 16.078 6.659C16.102 6.667 16.126 6.677 16.148 6.689L16.184 6.708L16.22 6.727L16.256 6.746L16.292 6.765L16.306 6.803L16.32 6.841L16.334 6.879L16.348 6.917C16.37 6.978 16.382 7.048 16.385 7.128C16.388 7.207 16.381 7.296 16.366 7.393C16.351 7.49 16.325 7.597 16.29 7.712C16.255 7.827 16.211 7.951 16.158 8.083L16.141 8.125L16.124 8.167L16.107 8.209L16.09 8.251L16.135 8.252L16.18 8.253L16.225 8.254L16.27 8.255C16.272 8.255 16.327 8.257 16.414 8.266C16.501 8.275 16.617 8.293 16.74 8.324C16.863 8.355 16.994 8.401 17.108 8.466C17.222 8.531 17.317 8.616 17.374 8.727C17.405 8.79 17.423 8.859 17.427 8.934C17.431 9.009 17.422 9.089 17.398 9.176C17.374 9.263 17.338 9.355 17.288 9.453C17.238 9.551 17.174 9.655 17.097 9.764L17.076 9.794L17.055 9.824L17.034 9.854L17.013 9.884L17.047 9.899L17.081 9.914L17.115 9.929L17.149 9.944C17.483 10.093 17.806 10.27 18.114 10.471C18.422 10.673 18.717 10.9 18.995 11.151C19.273 11.402 19.536 11.676 19.781 11.973C20.026 12.269 20.253 12.588 20.46 12.926C20.671 13.272 20.858 13.633 21.019 14.007C21.18 14.381 21.315 14.767 21.424 15.163C21.533 15.559 21.615 15.965 21.67 16.377C21.725 16.79 21.753 17.209 21.753 17.633C21.753 18.181 21.707 18.722 21.616 19.249C21.525 19.776 21.389 20.288 21.211 20.781C21.033 21.274 20.812 21.747 20.551 22.194C20.29 22.641 19.987 23.064 19.647 23.454Z" fill="#4D4D4D"/>
<path d="M11.946 14.225C11.897 14.225 11.842 14.249 11.788 14.293C11.734 14.337 11.679 14.403 11.631 14.487C11.583 14.571 11.541 14.674 11.511 14.792C11.481 14.91 11.463 15.045 11.463 15.193C11.463 15.341 11.481 15.476 11.511 15.595C11.541 15.714 11.583 15.817 11.631 15.901C11.679 15.985 11.733 16.051 11.788 16.096C11.843 16.141 11.897 16.164 11.946 16.164C11.995 16.164 12.05 16.14 12.104 16.096C12.158 16.051 12.213 15.986 12.261 15.902C12.309 15.818 12.351 15.715 12.381 15.597C12.411 15.479 12.429 15.344 12.429 15.196C12.429 15.048 12.411 14.913 12.381 14.794C12.351 14.675 12.309 14.572 12.261 14.488C12.213 14.404 12.159 14.338 12.104 14.293C12.049 14.248 11.995 14.225 11.946 14.225Z" fill="#4D4D4D"/>
<path d="M17.056 14.225C17.007 14.225 16.952 14.249 16.898 14.293C16.844 14.338 16.789 14.403 16.741 14.487C16.693 14.571 16.651 14.674 16.621 14.792C16.591 14.91 16.573 15.045 16.573 15.193C16.573 15.341 16.591 15.476 16.621 15.595C16.651 15.714 16.693 15.817 16.741 15.901C16.789 15.985 16.843 16.051 16.898 16.096C16.953 16.141 17.007 16.164 17.056 16.164C17.105 16.164 17.16 16.14 17.214 16.096C17.268 16.051 17.323 15.986 17.371 15.902C17.419 15.818 17.461 15.715 17.491 15.597C17.521 15.479 17.539 15.344 17.539 15.196C17.539 15.048 17.521 14.913 17.491 14.794C17.461 14.675 17.419 14.572 17.371 14.488C17.323 14.404 17.269 14.338 17.214 14.293C17.159 14.248 17.105 14.225 17.056 14.225Z" fill="#4D4D4D"/>
<path d="M15.987 19.078C15.889 18.935 15.782 18.808 15.668 18.698C15.554 18.588 15.434 18.495 15.308 18.42C15.182 18.345 15.051 18.288 14.915 18.249C14.78 18.211 14.641 18.191 14.499 18.191C14.358 18.191 14.218 18.211 14.083 18.249C13.948 18.287 13.816 18.345 13.69 18.42C13.564 18.495 13.443 18.588 13.33 18.698C13.217 18.808 13.109 18.935 13.011 19.078C12.915 19.218 12.83 19.369 12.756 19.529C12.682 19.689 12.62 19.858 12.569 20.034C12.518 20.21 12.48 20.393 12.454 20.581C12.428 20.769 12.415 20.962 12.415 21.158C12.415 21.354 12.428 21.547 12.454 21.735C12.48 21.923 12.518 22.106 12.569 22.282C12.62 22.458 12.682 22.627 12.756 22.787C12.83 22.947 12.915 23.098 13.011 23.238C13.109 23.381 13.216 23.508 13.33 23.618C13.444 23.728 13.564 23.821 13.69 23.896C13.816 23.971 13.947 24.028 14.083 24.067C14.219 24.106 14.357 24.125 14.499 24.125C14.64 24.125 14.78 24.105 14.915 24.067C15.05 24.029 15.182 23.971 15.308 23.896C15.434 23.821 15.555 23.728 15.668 23.618C15.781 23.508 15.889 23.381 15.987 23.238C16.083 23.098 16.168 22.947 16.242 22.787C16.316 22.627 16.378 22.458 16.429 22.282C16.48 22.106 16.518 21.923 16.544 21.735C16.57 21.547 16.583 21.354 16.583 21.158C16.583 20.962 16.57 20.769 16.544 20.581C16.518 20.393 16.48 20.21 16.429 20.034C16.378 19.858 16.316 19.689 16.242 19.529C16.169 19.369 16.084 19.218 15.987 19.078ZM12.871 19.907C12.951 19.681 13.049 19.476 13.163 19.296C13.277 19.116 13.406 18.961 13.547 18.834C13.688 18.707 13.84 18.609 14 18.542C14.16 18.475 14.327 18.44 14.499 18.44C14.677 18.44 14.85 18.477 15.014 18.547C15.178 18.617 15.334 18.721 15.476 18.854C15.619 18.987 15.749 19.15 15.863 19.339C15.977 19.528 16.074 19.743 16.152 19.981L16.171 20.041L16.19 20.101L16.209 20.161L16.228 20.221L16.184 20.265L16.14 20.309L16.096 20.353L16.052 20.397L15.747 20.702L15.442 21.007L15.137 21.312L14.832 21.617L14.759 21.69L14.686 21.763L14.613 21.836L14.54 21.909L14.467 21.836L14.394 21.763L14.321 21.69L14.248 21.617L13.927 21.296L13.61 20.976L13.289 20.655L12.968 20.334L12.922 20.288L12.876 20.242L12.83 20.196L12.784 20.15L12.805 20.089L12.826 20.028L12.847 19.967L12.871 19.907ZM14.5 23.879C14.261 23.879 14.033 23.812 13.824 23.691C13.615 23.569 13.424 23.392 13.26 23.171C13.096 22.95 12.96 22.684 12.859 22.386C12.758 22.088 12.692 21.756 12.67 21.404L12.653 21.133L12.636 20.862L12.619 20.591L12.602 20.32L12.794 20.512L12.986 20.704L13.178 20.896L13.37 21.088L13.663 21.381L13.956 21.674L14.249 21.967L14.542 22.26L14.812 21.99L15.082 21.72L15.352 21.45L15.622 21.18L15.821 20.981L16.02 20.782L16.219 20.583L16.418 20.384L16.394 20.665L16.37 20.946L16.346 21.227L16.322 21.508C16.293 21.846 16.222 22.164 16.117 22.449C16.013 22.735 15.875 22.989 15.712 23.201C15.549 23.413 15.361 23.583 15.157 23.7C14.951 23.816 14.73 23.879 14.5 23.879Z" fill="#4D4D4D"/>
</svg>
