<svg width="30" height="30" viewBox="0 0 30 30" fill="none" xmlns="http://www.w3.org/2000/svg">
<rect width="30" height="30" fill="white"/>
<path d="M30 30H22.5H15H7.5H0V22.5003V15.0005V7.49975V0H7.5H15H22.5H30V7.49975V14.9995V22.4992V30ZM0.252287 29.7477H7.62614H15H22.3739H29.7477V22.3741V15.0005V7.62589V0.252279H22.3739H15H7.62614H0.252287V7.62589V14.9995V22.3731V29.7477Z" fill="#4D4D4D"/>
<path d="M15.0049 24.009C13.7637 24.009 12.5799 23.7561 11.5032 23.3001C10.4266 22.8441 9.45625 22.184 8.64019 21.3688C7.82413 20.5536 7.16494 19.5833 6.70891 18.5057C6.25287 17.4282 6 16.2453 6 15.0041C6 13.7628 6.25287 12.579 6.70891 11.5024C7.16494 10.4257 7.82499 9.45539 8.64019 8.64019C9.45539 7.82499 10.4257 7.16494 11.5032 6.70891C12.5808 6.25288 13.7637 6 15.0049 6C16.2462 6 17.43 6.25288 18.5066 6.70891C19.5833 7.16494 20.5536 7.82499 21.3688 8.64019C22.184 9.45539 22.8441 10.4257 23.3001 11.5024C23.7561 12.579 24.009 13.7628 24.009 15.0041C24.009 16.2453 23.7561 17.4291 23.3001 18.5057C22.8441 19.5824 22.184 20.5528 21.3688 21.3688C20.5536 22.1849 19.5833 22.8441 18.5066 23.3001C17.43 23.7561 16.2462 24.009 15.0049 24.009ZM15.0049 6.2143C13.7928 6.2143 12.6382 6.46118 11.5864 6.90606C10.5346 7.35095 9.5874 7.99557 8.79191 8.79191C7.99643 9.58826 7.35181 10.5355 6.90606 11.5864C6.46032 12.6373 6.2143 13.7928 6.2143 15.0049C6.2143 16.217 6.46118 17.3717 6.90606 18.4235C7.35095 19.4752 7.99557 20.4225 8.79191 21.2179C9.58826 22.0134 10.5355 22.658 11.5864 23.1038C12.6373 23.5495 13.7928 23.7956 15.0049 23.7956C16.217 23.7956 17.3717 23.5487 18.4235 23.1038C19.4752 22.6589 20.4216 22.0143 21.2179 21.2179C22.0143 20.4216 22.658 19.4744 23.1038 18.4235C23.5495 17.3725 23.7956 16.217 23.7956 15.0049C23.7956 13.7928 23.5487 12.6382 23.1038 11.5864C22.6589 10.5346 22.0143 9.58826 21.2179 8.79191C20.4216 7.99557 19.4744 7.35181 18.4235 6.90606C17.3725 6.46032 16.2162 6.2143 15.0049 6.2143Z" fill="#4D4D4D"/>
<path fill-rule="evenodd" clip-rule="evenodd" d="M15.2544 9.23768C15.2544 9.21025 15.2492 9.18454 15.239 9.16054C15.2287 9.13653 15.2141 9.11596 15.197 9.09796C15.179 9.07996 15.1575 9.06539 15.1344 9.05596C15.1104 9.04567 15.0847 9.04053 15.0572 9.04053H15.0152H14.9732H14.9312H14.8901C14.8626 9.04053 14.8369 9.04567 14.8129 9.05596C14.7889 9.06624 14.7684 9.08082 14.7503 9.09796C14.7323 9.11596 14.7178 9.13739 14.7083 9.16054C14.6981 9.18454 14.6929 9.21025 14.6929 9.23768V10.6692V12.1007V13.5323V14.9638C14.6929 14.9912 14.6981 15.017 14.7083 15.041C14.7186 15.065 14.7332 15.0855 14.7503 15.1035C14.7684 15.1215 14.7898 15.1361 14.8129 15.1455C14.8361 15.155 14.8626 15.161 14.8901 15.161H14.9321H14.9741H15.0161H15.0581C15.0855 15.161 15.1112 15.1558 15.1352 15.1455C15.1592 15.1352 15.1798 15.1207 15.1978 15.1035C15.2158 15.0864 15.2304 15.0641 15.2398 15.041C15.2501 15.017 15.2552 14.9912 15.2552 14.9638V13.5323V12.1007V10.6692V9.23768H15.2544Z" fill="#4D4D4D"/>
<path fill-rule="evenodd" clip-rule="evenodd" d="M15.0684 14.7443C15.0444 14.7306 15.0195 14.7221 14.9938 14.7195C14.9681 14.7169 14.9424 14.7186 14.9183 14.7246C14.8935 14.7315 14.8703 14.7426 14.8498 14.7581C14.8292 14.7735 14.8112 14.7932 14.7975 14.8172L14.7769 14.8532L14.7563 14.8892L14.7358 14.9252L14.7152 14.9612C14.7015 14.9852 14.6929 15.0101 14.6903 15.0358C14.6869 15.0615 14.6895 15.0872 14.6955 15.1112C14.7015 15.1352 14.7135 15.1592 14.7289 15.1798C14.7443 15.2004 14.7641 15.2184 14.7881 15.2321L15.6213 15.713L16.4545 16.1939L17.2877 16.6748L18.1209 17.1557C18.1449 17.1694 18.1697 17.1779 18.1954 17.1805C18.2212 17.1839 18.2469 17.1814 18.2709 17.1754C18.2949 17.1694 18.3189 17.1574 18.3395 17.1419C18.36 17.1265 18.378 17.1068 18.3917 17.0828L18.4123 17.0468L18.4329 17.0108L18.4535 16.9748L18.474 16.9388C18.4877 16.9148 18.4963 16.8899 18.4989 16.8642C18.5023 16.8385 18.4997 16.8128 18.4937 16.7888C18.4869 16.7639 18.4757 16.7408 18.4603 16.7202C18.4449 16.6996 18.4252 16.6816 18.4012 16.6679L17.568 16.187L16.7348 15.7061L15.9016 15.2252L15.0684 14.7443Z" fill="#4D4D4D"/>
</svg>
