<svg width="30" height="30" viewBox="0 0 30 30" fill="none" xmlns="http://www.w3.org/2000/svg">
<rect width="30" height="30" fill="white"/>
<path d="M30 30H22.5H15H7.5H0V22.5003V15.0005V7.49975V0H7.5H15H22.5H30V7.49975V14.9995V22.4992V30ZM0.252287 29.7477H7.62614H15H22.3739H29.7477V22.3741V15.0005V7.62589V0.252279H22.3739H15H7.62614H0.252287V7.62589V14.9995V22.3731V29.7477Z" fill="#4D4D4D"/>
<path d="M20.244 7C19.221 7 18.246 7.208 17.358 7.584C16.47 7.96 15.671 8.504 14.999 9.176C14.327 9.848 13.783 10.648 13.407 11.535C13.031 12.422 12.823 13.398 12.823 14.421C12.823 15.444 13.031 16.42 13.407 17.307C13.783 18.194 14.327 18.994 14.999 19.666C15.671 20.338 16.471 20.882 17.358 21.258C18.246 21.634 19.221 21.842 20.244 21.842C21.267 21.842 22.243 21.634 23.13 21.258C24.017 20.882 24.817 20.338 25.489 19.666C26.161 18.994 26.705 18.194 27.081 17.307C27.457 16.42 27.665 15.444 27.665 14.421C27.665 13.398 27.457 12.423 27.081 11.535C26.705 10.647 26.161 9.848 25.489 9.176C24.817 8.504 24.017 7.96 23.13 7.584C22.243 7.208 21.267 7 20.244 7ZM20.244 21.645C19.248 21.645 18.299 21.442 17.435 21.076C16.571 20.71 15.793 20.18 15.139 19.526C14.485 18.872 13.956 18.094 13.59 17.23C13.224 16.366 13.021 15.417 13.021 14.421C13.021 13.425 13.224 12.476 13.59 11.612C13.956 10.748 14.485 9.97 15.139 9.316C15.793 8.662 16.571 8.133 17.435 7.767C18.299 7.401 19.248 7.198 20.244 7.198C21.24 7.198 22.189 7.401 23.053 7.767C23.917 8.133 24.695 8.662 25.349 9.316C26.003 9.97 26.532 10.748 26.899 11.612C27.266 12.476 27.468 13.425 27.468 14.421C27.468 15.417 27.265 16.366 26.899 17.23C26.533 18.094 26.003 18.872 25.349 19.526C24.695 20.18 23.917 20.709 23.053 21.076C22.189 21.443 21.24 21.645 20.244 21.645Z" fill="#4D4D4D"/>
<path d="M20.584 10.427C20.57 10.427 20.557 10.43 20.545 10.435C20.533 10.44 20.522 10.447 20.513 10.456C20.504 10.465 20.497 10.476 20.492 10.488C20.487 10.5 20.484 10.513 20.484 10.527V11.487V12.447V13.407V14.367V14.493V14.619V14.745V14.871L20.368 14.821L20.252 14.771L20.136 14.721L20.02 14.671L19.033 14.24L18.046 13.809L17.059 13.378L16.072 12.947C16.069 12.947 16.066 12.946 16.063 12.946C16.06 12.946 16.057 12.945 16.054 12.945C16.051 12.945 16.048 12.945 16.046 12.945C16.044 12.945 16.041 12.945 16.038 12.945C16.025 12.945 16.014 12.946 16.004 12.948C15.994 12.95 15.985 12.953 15.977 12.958C15.969 12.963 15.962 12.968 15.956 12.975C15.95 12.982 15.945 12.99 15.941 12.999C15.936 13.012 15.933 13.025 15.933 13.038C15.933 13.051 15.935 13.064 15.94 13.075C15.945 13.086 15.952 13.098 15.96 13.107C15.968 13.116 15.98 13.124 15.992 13.13L17.129 13.627L18.266 14.124L19.403 14.621L20.54 15.118C20.545 15.119 20.549 15.119 20.554 15.12C20.559 15.121 20.562 15.121 20.566 15.121C20.57 15.121 20.574 15.122 20.577 15.122C20.58 15.122 20.584 15.122 20.587 15.122C20.593 15.122 20.599 15.122 20.603 15.121C20.608 15.12 20.612 15.12 20.616 15.119C20.62 15.118 20.623 15.117 20.626 15.115C20.629 15.114 20.632 15.112 20.635 15.11C20.642 15.105 20.648 15.1 20.654 15.094C20.66 15.088 20.664 15.081 20.668 15.074C20.672 15.067 20.675 15.059 20.677 15.051C20.679 15.043 20.68 15.035 20.68 15.026V13.897V12.773V11.649V10.525C20.68 10.511 20.677 10.498 20.672 10.486C20.667 10.474 20.66 10.463 20.651 10.454C20.642 10.445 20.631 10.438 20.619 10.433C20.61 10.429 20.597 10.427 20.584 10.427Z" fill="#4D4D4D"/>
<path d="M9.311 14.921H7.508H5.705H3.902H2.1C2.086 14.921 2.073 14.924 2.061 14.929C2.049 14.934 2.038 14.941 2.029 14.95C2.02 14.959 2.013 14.97 2.008 14.982C2.003 14.994 2 15.007 2 15.021C2 15.035 2.003 15.048 2.008 15.06C2.013 15.072 2.02 15.083 2.029 15.092C2.038 15.101 2.049 15.108 2.061 15.113C2.073 15.118 2.086 15.121 2.1 15.121H3.903H5.706H7.509H9.312C9.326 15.121 9.339 15.118 9.351 15.113C9.363 15.108 9.374 15.101 9.383 15.092C9.392 15.083 9.399 15.072 9.404 15.06C9.409 15.048 9.412 15.035 9.412 15.021C9.412 15.007 9.409 14.994 9.404 14.982C9.399 14.97 9.392 14.959 9.383 14.95C9.374 14.941 9.363 14.934 9.351 14.929C9.338 14.924 9.325 14.921 9.311 14.921Z" fill="#4D4D4D"/>
<path d="M11.466 11.605H9.663H7.86H6.058H4.255C4.241 11.605 4.228 11.608 4.216 11.613C4.204 11.618 4.193 11.625 4.184 11.634C4.175 11.643 4.168 11.654 4.163 11.666C4.158 11.678 4.155 11.691 4.155 11.705C4.155 11.719 4.158 11.732 4.163 11.744C4.168 11.756 4.175 11.767 4.184 11.776C4.193 11.785 4.204 11.792 4.216 11.797C4.228 11.802 4.241 11.805 4.255 11.805H6.058H7.861H9.664H11.467C11.481 11.805 11.494 11.802 11.506 11.797C11.518 11.792 11.529 11.785 11.538 11.776C11.547 11.767 11.554 11.756 11.559 11.744C11.564 11.732 11.567 11.719 11.567 11.705C11.567 11.691 11.564 11.678 11.559 11.666C11.554 11.654 11.547 11.643 11.538 11.634C11.529 11.625 11.518 11.618 11.506 11.613C11.494 11.608 11.48 11.605 11.466 11.605Z" fill="#4D4D4D"/>
<path d="M11.466 18.236H9.663H7.86H6.058H4.255C4.241 18.236 4.228 18.239 4.216 18.244C4.204 18.249 4.193 18.256 4.184 18.265C4.175 18.274 4.168 18.285 4.163 18.297C4.158 18.309 4.155 18.322 4.155 18.336C4.155 18.35 4.158 18.363 4.163 18.375C4.168 18.387 4.175 18.398 4.184 18.407C4.193 18.416 4.204 18.423 4.216 18.428C4.228 18.433 4.241 18.436 4.255 18.436H6.058H7.861H9.664H11.467C11.481 18.436 11.494 18.433 11.506 18.428C11.518 18.423 11.529 18.416 11.538 18.407C11.547 18.398 11.554 18.387 11.559 18.375C11.564 18.363 11.567 18.35 11.567 18.336C11.567 18.322 11.564 18.309 11.559 18.297C11.554 18.285 11.547 18.274 11.538 18.265C11.529 18.256 11.518 18.249 11.506 18.244C11.493 18.239 11.48 18.236 11.466 18.236Z" fill="#4D4D4D"/>
</svg>
