<svg width="30" height="30" viewBox="0 0 30 30" fill="none" xmlns="http://www.w3.org/2000/svg">
<rect width="30" height="30" fill="white"/>
<path d="M30 30H22.5H15H7.5H0V22.5003V15.0005V7.49975V0H7.5H15H22.5H30V7.49975V14.9995V22.4992V30ZM0.252287 29.7477H7.62614H15H22.3739H29.7477V22.3741V15.0005V7.62589V0.252279H22.3739H15H7.62614H0.252287V7.62589V14.9995V22.3731V29.7477Z" fill="#4D4D4D"/>
<path d="M8.23552 19.7228L8.23918 19.7485L8.24284 19.7741L8.2465 19.8004L8.25016 19.826L8.26918 19.8011L8.28821 19.7763L8.30724 19.7514L8.327 19.7272H8.3248H8.32188H8.31968H8.31749C8.30505 19.7272 8.2948 19.7272 8.28529 19.7265C8.27577 19.7258 8.26845 19.7258 8.26187 19.7258C8.25528 19.7258 8.25016 19.725 8.24577 19.7243C8.24137 19.7236 8.23845 19.7236 8.23552 19.7228Z" fill="#4D4D4D"/>
<path d="M22.7708 8.28324C22.7649 8.28324 22.7598 8.28397 22.7539 8.2847C22.7481 8.28544 22.743 8.2869 22.7378 8.2891C22.7327 8.29129 22.7276 8.29349 22.7225 8.29641C22.7174 8.29934 22.713 8.30227 22.7086 8.30593L22.0777 8.81091L21.4469 9.31588L20.816 9.82086L20.1852 10.3258L20.142 10.3602L20.0988 10.3946L20.0556 10.429L20.0124 10.4634L19.978 10.4195L19.9436 10.3756L19.9092 10.3317L19.8749 10.2878L19.6619 10.0148L19.4489 9.74182L19.2359 9.46884L19.023 9.19586C19.0179 9.19 19.0127 9.18415 19.0069 9.17976C19.001 9.17537 18.9944 9.17098 18.9878 9.16732C18.9813 9.16366 18.9739 9.16146 18.9666 9.16C18.9593 9.15853 18.9513 9.15707 18.9439 9.15707C18.9403 9.15707 18.9359 9.15707 18.9308 9.1578C18.9264 9.15853 18.9212 9.15927 18.9154 9.16073C18.9095 9.16219 18.9044 9.16439 18.8993 9.16732C18.8934 9.17024 18.8883 9.1739 18.8825 9.17829C18.8751 9.18415 18.8693 9.19 18.8649 9.19586C18.8605 9.20171 18.8568 9.2083 18.8539 9.21415C18.851 9.22001 18.8488 9.22586 18.8473 9.23099C18.8459 9.23611 18.8451 9.24123 18.8444 9.24489C18.8437 9.24855 18.8437 9.25367 18.8437 9.2588C18.8437 9.26392 18.8444 9.27051 18.8459 9.27709C18.8473 9.28368 18.8495 9.29027 18.8525 9.29759C18.8554 9.3049 18.8598 9.31149 18.8649 9.31881L19.1276 9.65546L19.3896 9.99357L19.6524 10.3302L19.9151 10.6669C19.9195 10.6727 19.9253 10.6779 19.9312 10.683C19.9371 10.6881 19.9436 10.6918 19.9502 10.6947C19.9568 10.6976 19.9641 10.7005 19.9715 10.702C19.9788 10.7035 19.9861 10.7042 19.9941 10.7042C19.9978 10.7042 20.0022 10.7042 20.0073 10.7035C20.0117 10.7027 20.0168 10.702 20.0227 10.7005C20.0285 10.6991 20.0337 10.6969 20.0388 10.694C20.0446 10.691 20.0498 10.6874 20.0556 10.683L20.7494 10.1282L21.4432 9.57349L22.137 9.01875L22.8308 8.46401C22.8425 8.45523 22.8513 8.44425 22.8579 8.43327C22.8645 8.42229 22.8688 8.40912 22.8703 8.39668C22.8718 8.38424 22.871 8.37106 22.8681 8.35862C22.8652 8.34618 22.8586 8.33374 22.8506 8.32276C22.8462 8.31691 22.8403 8.31105 22.8345 8.30666C22.8286 8.30227 22.822 8.29788 22.8154 8.29422C22.8088 8.29056 22.8015 8.28836 22.7942 8.2869C22.7869 8.28544 22.7796 8.28397 22.7715 8.28397V8.25689V8.22982V8.20274V8.17566V8.20274V8.22982V8.25689L22.7708 8.28324Z" fill="#4D4D4D"/>
<path d="M21.4352 19.5076H21.4974H21.5596H21.6218H21.684C21.7403 19.5076 21.7974 19.5047 21.8545 19.4989C21.9116 19.493 21.9701 19.485 22.0294 19.4733C22.0887 19.4615 22.1487 19.4476 22.2102 19.4301C22.2717 19.4125 22.3346 19.3927 22.3983 19.3693C22.7825 19.2588 23.1367 19.0868 23.4529 18.8658C23.769 18.6448 24.0457 18.3755 24.2747 18.0703C24.5038 17.7651 24.6853 17.4233 24.809 17.0581C24.9327 16.693 25 16.3043 25 15.904C24.9993 15.6237 24.9678 15.3485 24.9056 15.0822C24.8441 14.8165 24.7526 14.5596 24.6333 14.3166C24.5141 14.0737 24.3677 13.8439 24.1957 13.6324C24.0237 13.4209 23.8254 13.2269 23.6044 13.0542L23.5524 13.0139L23.5004 12.9737L23.4485 12.9334L23.3965 12.8932L23.4448 12.8493L23.4931 12.8054L23.5414 12.7615L23.5897 12.7175C23.8137 12.5156 24.0135 12.2923 24.1876 12.0523C24.3618 11.8122 24.5097 11.5554 24.6297 11.2868C24.7497 11.0182 24.8419 10.7372 24.9041 10.4495C24.9663 10.1612 24.9985 9.86553 24.9985 9.56766C24.9985 8.98145 24.8792 8.42305 24.6641 7.91441C24.4489 7.40578 24.1371 6.94764 23.7522 6.56269C23.3672 6.17773 22.9091 5.86596 22.4005 5.6508C21.8918 5.43564 21.3334 5.31635 20.7472 5.31635C20.3901 5.31635 20.0403 5.36099 19.7029 5.44661C19.3655 5.53224 19.0413 5.65885 18.7368 5.82279C18.4324 5.98672 18.1477 6.18798 17.8901 6.4229C17.6325 6.65783 17.4005 6.92642 17.2029 7.22501L17.1882 7.24697L17.1736 7.26892L17.159 7.29088L17.1443 7.31283L17.1187 7.31503L17.0931 7.31722L17.0675 7.31942L17.0419 7.32161C16.6196 7.36333 16.2127 7.46359 15.8299 7.61582C15.4472 7.76804 15.0886 7.97296 14.7629 8.22399C14.4372 8.47501 14.1445 8.76995 13.8934 9.1044C13.6424 9.43886 13.4331 9.8121 13.2743 10.2175L13.2582 10.2585L13.2421 10.2995L13.226 10.3405L13.2099 10.3815L13.1667 10.3749L13.1235 10.3683L13.0804 10.3617L13.0372 10.3551L13.0174 10.3522L12.9977 10.3493L12.9779 10.3464L12.9581 10.3434C12.9208 10.3376 12.8835 10.3317 12.8469 10.3266C12.8103 10.3215 12.7744 10.3163 12.7386 10.312C12.7027 10.3076 12.6669 10.3039 12.6317 10.3017C12.5966 10.2995 12.5615 10.298 12.5263 10.2973C12.1041 10.2973 11.6964 10.3756 11.3173 10.5191C10.9382 10.6625 10.5884 10.8726 10.2818 11.1353C9.97512 11.398 9.71092 11.7149 9.50381 12.0735C9.29669 12.4321 9.14666 12.8317 9.06835 13.2606L9.05811 13.3184L9.04786 13.3762L9.03542 13.4333L9.02518 13.4911L8.96809 13.4765L8.91101 13.4618L8.85392 13.4472L8.79757 13.4333L8.77561 13.4274L8.75366 13.4216L8.7317 13.4157L8.70975 13.4099C8.65413 13.3952 8.59997 13.3813 8.54581 13.3682C8.49166 13.355 8.43823 13.3433 8.38554 13.3323C8.33285 13.3213 8.28015 13.3133 8.22746 13.3074C8.17477 13.3016 8.1228 13.2979 8.07084 13.2979C7.64783 13.2979 7.24385 13.3857 6.87646 13.5431C6.50908 13.7004 6.17828 13.9288 5.90018 14.2098C5.62207 14.4908 5.39739 14.826 5.24151 15.1971C5.08563 15.5681 5 15.9765 5 16.4046C5 16.832 5.08636 17.2404 5.24151 17.6114C5.39739 17.9825 5.62207 18.3169 5.90018 18.598C6.17828 18.879 6.50908 19.1066 6.87646 19.2632C7.24385 19.4206 7.6471 19.5076 8.07011 19.5076C8.08109 19.5076 8.09207 19.5076 8.10158 19.5076C8.11109 19.5076 8.12134 19.5069 8.13085 19.5062C8.14037 19.5055 8.14915 19.5047 8.1572 19.504C8.16525 19.5033 8.17403 19.5025 8.18135 19.5018C8.18574 19.5011 8.19087 19.5011 8.19599 19.5003C8.20111 19.4996 8.20624 19.4996 8.21136 19.4989C8.21648 19.4981 8.2216 19.4981 8.22746 19.4981C8.23331 19.4981 8.23844 19.4981 8.24502 19.4981L8.24576 19.5245L8.24649 19.5508L8.24722 19.5772L8.24795 19.6035L8.25234 19.5794L8.25673 19.5552L8.26112 19.5311L8.26552 19.5069C8.26771 19.5069 8.27064 19.5076 8.2743 19.5076C8.27796 19.5076 8.28162 19.5076 8.28527 19.5084C8.28893 19.5091 8.29406 19.5084 8.29918 19.5084C8.3043 19.5084 8.31016 19.5084 8.31601 19.5084H11.5954H14.8749H18.1543H21.4352V19.5076ZM20.7494 5.51687C21.3078 5.51687 21.8406 5.63031 22.3251 5.83596C22.8096 6.04161 23.2465 6.33801 23.6131 6.7054C23.9798 7.07279 24.2769 7.50897 24.4826 7.99345C24.6882 8.47794 24.8017 9.01072 24.8017 9.56913C24.8017 10.1275 24.6882 10.6603 24.4826 11.1448C24.2769 11.6293 23.9805 12.0662 23.6131 12.4329C23.2458 12.7995 22.8096 13.0966 22.3251 13.3023C21.8406 13.5079 21.3078 13.6214 20.7494 13.6214C20.191 13.6214 19.6582 13.5079 19.1737 13.3023C18.6893 13.0966 18.2523 12.8002 17.8857 12.4329C17.519 12.0655 17.2219 11.6293 17.0162 11.1448C16.8106 10.6603 16.6972 10.1275 16.6972 9.56913C16.6972 9.01072 16.8106 8.47794 17.0162 7.99345C17.2219 7.50897 17.5183 7.07205 17.8857 6.7054C18.2531 6.33874 18.6893 6.04161 19.1737 5.83596C19.6582 5.63031 20.1903 5.51687 20.7494 5.51687ZM8.23844 19.2998C8.21941 19.3013 8.20184 19.3027 8.18501 19.3035C8.16818 19.3042 8.15354 19.3057 8.13964 19.3064C8.12573 19.3071 8.11256 19.3079 8.10158 19.3079C8.0906 19.3079 8.07962 19.3086 8.07084 19.3086C7.67491 19.3086 7.29801 19.2274 6.95477 19.0802C6.61153 18.9331 6.30196 18.7202 6.04215 18.4574C5.78235 18.1947 5.57157 17.8815 5.42667 17.5346C5.28103 17.1877 5.20053 16.8057 5.20053 16.4061C5.20053 16.0057 5.28103 15.6245 5.42667 15.2768C5.57231 14.9299 5.78235 14.6167 6.04215 14.354C6.30196 14.0912 6.6108 13.8783 6.95404 13.7304C7.29728 13.5833 7.67418 13.5014 8.07011 13.5014C8.15208 13.5014 8.23405 13.505 8.31601 13.5123C8.39798 13.5197 8.47922 13.5306 8.56045 13.5453C8.64169 13.5599 8.72219 13.5782 8.80269 13.6002C8.8832 13.6221 8.96297 13.6477 9.04201 13.677C9.0442 13.677 9.0464 13.6777 9.04859 13.6777C9.05079 13.6777 9.05299 13.6777 9.05445 13.6777C9.05591 13.6777 9.05811 13.6777 9.0603 13.6777C9.0625 13.6777 9.06396 13.6777 9.06616 13.6777C9.08006 13.6777 9.09251 13.6763 9.10348 13.6741C9.11446 13.6719 9.12471 13.6675 9.13349 13.6631C9.14227 13.6587 9.14959 13.6521 9.15544 13.6441C9.1613 13.6367 9.16642 13.628 9.17008 13.6177C9.21107 13.1706 9.33255 12.7519 9.51771 12.3758C9.70287 11.9996 9.95316 11.6659 10.2532 11.3878C10.5533 11.1097 10.9016 10.8872 11.2859 10.7342C11.6701 10.5813 12.0872 10.4978 12.5249 10.4978C12.5842 10.4978 12.6434 10.5 12.7027 10.503C12.762 10.5059 12.8213 10.511 12.8806 10.5176C12.9398 10.5242 12.9984 10.5322 13.0569 10.5418C13.1155 10.5513 13.174 10.5622 13.2318 10.5754C13.2326 10.5754 13.2333 10.5754 13.234 10.5754C13.2348 10.5754 13.2355 10.5754 13.2362 10.5754C13.237 10.5754 13.2377 10.5754 13.2384 10.5754C13.2392 10.5754 13.2399 10.5754 13.2406 10.5754C13.256 10.5754 13.2692 10.574 13.2809 10.5703C13.2926 10.5666 13.3036 10.5622 13.3124 10.5564C13.3211 10.5505 13.3292 10.5432 13.335 10.5352C13.3409 10.5271 13.346 10.5183 13.3489 10.5081C13.4712 10.137 13.6402 9.78868 13.8495 9.47033C14.0588 9.15197 14.3077 8.86289 14.5887 8.6104C14.8697 8.35791 15.183 8.14202 15.5203 7.9693C15.8577 7.79659 16.22 7.66705 16.5991 7.58801L16.7023 7.56605L16.8055 7.5441L16.9087 7.52214L17.0119 7.50019L16.9701 7.59752L16.9284 7.69486L16.8867 7.79219L16.845 7.88953C16.7872 8.02273 16.7374 8.15812 16.6942 8.29497C16.6511 8.43183 16.6152 8.57088 16.5859 8.71067C16.5566 8.85045 16.5354 8.99243 16.5208 9.13514C16.5061 9.27785 16.4988 9.42202 16.4988 9.56766C16.4988 10.1539 16.6181 10.7123 16.8333 11.2209C17.0484 11.7295 17.3602 12.1877 17.7452 12.5726C18.1301 12.9576 18.5883 13.2694 19.0969 13.4845C19.6055 13.6997 20.1639 13.819 20.7501 13.819C20.9595 13.819 21.1673 13.8036 21.3722 13.7736C21.5771 13.7436 21.7791 13.6982 21.9767 13.6382C22.1743 13.5782 22.3675 13.5043 22.5549 13.4157C22.7422 13.3272 22.9245 13.2247 23.0987 13.1084L23.1301 13.0879L23.1616 13.0674L23.1931 13.0469L23.2245 13.0264L23.2553 13.0476L23.286 13.0688L23.3167 13.0901L23.3475 13.1113C23.5751 13.2701 23.7793 13.4552 23.9586 13.6602C24.1379 13.8651 24.2908 14.0898 24.416 14.3298C24.5411 14.5699 24.6377 14.8245 24.7029 15.0887C24.768 15.3529 24.8024 15.6266 24.8031 15.9048C24.8024 16.2839 24.7395 16.652 24.6216 16.9974C24.5045 17.3428 24.3333 17.6663 24.1167 17.9547C23.9 18.243 23.6395 18.4977 23.3424 18.7055C23.0452 18.9134 22.7122 19.0744 22.3514 19.1776C22.2907 19.1995 22.2321 19.2193 22.1743 19.2354C22.1165 19.2515 22.0609 19.2654 22.0053 19.2764C21.9496 19.2874 21.8962 19.2954 21.8428 19.3005C21.7894 19.3057 21.7367 19.3086 21.6847 19.3086H21.6225H21.5596H21.4974H21.4352H18.1557H14.8763H11.5969H8.31748V19.2896V19.2705V19.2515V19.2325L8.31455 19.2493L8.31162 19.2661L8.30869 19.283L8.30577 19.2998C8.30284 19.2998 8.29918 19.2991 8.29479 19.2991C8.2904 19.2991 8.28601 19.2983 8.28015 19.2983C8.2743 19.2983 8.26844 19.2983 8.26186 19.2976C8.25527 19.2969 8.24649 19.2998 8.23844 19.2998Z" fill="#4D4D4D"/>
</svg>
