<svg width="30" height="30" viewBox="0 0 30 30" fill="none" xmlns="http://www.w3.org/2000/svg">
<rect width="30" height="30" fill="white"/>
<path d="M30 30H22.5H15H7.5H0V22.5003V15.0005V7.49975V0H7.5H15H22.5H30V7.49975V14.9995V22.4992V30ZM0.252287 29.7477H7.62614H15H22.3739H29.7477V22.3741V15.0005V7.62589V0.252279H22.3739H15H7.62614H0.252287V7.62589V14.9995V22.3731V29.7477Z" fill="#4D4D4D"/>
<path d="M14.7505 14.535C14.7338 14.675 14.6988 14.8133 14.6455 14.95C14.5922 15.0833 14.5138 15.2033 14.4105 15.31C14.2772 15.4466 14.1222 15.5516 13.9455 15.625C13.7688 15.695 13.5855 15.73 13.3955 15.73C13.2055 15.73 13.0238 15.6983 12.8505 15.635C12.6805 15.5716 12.5272 15.4716 12.3905 15.335C12.2938 15.2383 12.2155 15.1366 12.1555 15.03C12.0988 14.9233 12.0555 14.81 12.0255 14.69C11.9955 14.57 11.9755 14.445 11.9655 14.315C11.9555 14.1816 11.9505 14.0416 11.9505 13.895C11.9505 13.7516 11.9555 13.6133 11.9655 13.48C11.9755 13.3466 11.9955 13.22 12.0255 13.1C12.0555 12.98 12.0988 12.8666 12.1555 12.76C12.2155 12.6533 12.2938 12.5516 12.3905 12.455C12.5272 12.3183 12.6805 12.2183 12.8505 12.155C13.0238 12.0883 13.2055 12.055 13.3955 12.055C13.5855 12.055 13.7688 12.09 13.9455 12.16C14.1222 12.2266 14.2772 12.3283 14.4105 12.465C14.5138 12.5716 14.5922 12.6916 14.6455 12.825C14.6988 12.9583 14.7338 13.095 14.7505 13.235H14.0905C14.0838 13.1583 14.0672 13.0916 14.0405 13.035C14.0138 12.975 13.9772 12.9166 13.9305 12.86C13.8738 12.7866 13.7972 12.7316 13.7005 12.695C13.6072 12.6583 13.5055 12.64 13.3955 12.64C13.2922 12.64 13.1922 12.66 13.0955 12.7C13.0022 12.74 12.9205 12.7983 12.8505 12.875C12.7905 12.9383 12.7438 13.0116 12.7105 13.095C12.6772 13.1783 12.6522 13.2666 12.6355 13.36C12.6222 13.45 12.6138 13.5416 12.6105 13.635C12.6072 13.7283 12.6055 13.815 12.6055 13.895C12.6055 13.975 12.6072 14.0616 12.6105 14.155C12.6138 14.2483 12.6222 14.3416 12.6355 14.435C12.6522 14.525 12.6772 14.6116 12.7105 14.695C12.7438 14.7783 12.7905 14.8516 12.8505 14.915C12.9205 14.9916 13.0022 15.05 13.0955 15.09C13.1922 15.13 13.2922 15.15 13.3955 15.15C13.5055 15.15 13.6072 15.1316 13.7005 15.095C13.7972 15.055 13.8738 14.9983 13.9305 14.925C14.0238 14.8116 14.0772 14.6816 14.0905 14.535H14.7505ZM18.0401 13.895C18.0401 14.0416 18.0351 14.18 18.0251 14.31C18.0151 14.44 17.9935 14.565 17.9601 14.685C17.9268 14.805 17.8801 14.9183 17.8201 15.025C17.7635 15.1316 17.6868 15.2333 17.5901 15.33C17.4535 15.4666 17.2968 15.5683 17.1201 15.635C16.9435 15.6983 16.7601 15.73 16.5701 15.73C16.3801 15.73 16.1968 15.6983 16.0201 15.635C15.8435 15.5683 15.6868 15.4666 15.5501 15.33C15.4535 15.2333 15.3751 15.1316 15.3151 15.025C15.2585 14.9183 15.2135 14.805 15.1801 14.685C15.1468 14.565 15.1251 14.44 15.1151 14.31C15.1051 14.18 15.1001 14.0416 15.1001 13.895C15.1001 13.7516 15.1051 13.6133 15.1151 13.48C15.1251 13.3466 15.1468 13.22 15.1801 13.1C15.2135 12.98 15.2585 12.8666 15.3151 12.76C15.3751 12.6533 15.4535 12.5516 15.5501 12.455C15.6868 12.3183 15.8435 12.2183 16.0201 12.155C16.1968 12.0883 16.3801 12.055 16.5701 12.055C16.7601 12.055 16.9435 12.0883 17.1201 12.155C17.2968 12.2183 17.4535 12.3183 17.5901 12.455C17.6868 12.5516 17.7635 12.6533 17.8201 12.76C17.8801 12.8666 17.9268 12.98 17.9601 13.1C17.9935 13.22 18.0151 13.3466 18.0251 13.48C18.0351 13.6133 18.0401 13.7516 18.0401 13.895ZM17.3851 13.895C17.3851 13.815 17.3835 13.7283 17.3801 13.635C17.3768 13.5416 17.3668 13.45 17.3501 13.36C17.3335 13.2666 17.3068 13.1783 17.2701 13.095C17.2368 13.0116 17.1901 12.9383 17.1301 12.875C17.0601 12.7983 16.9751 12.74 16.8751 12.7C16.7751 12.66 16.6735 12.64 16.5701 12.64C16.4668 12.64 16.3651 12.66 16.2651 12.7C16.1651 12.74 16.0801 12.7983 16.0101 12.875C15.9501 12.9383 15.9018 13.0116 15.8651 13.095C15.8318 13.1783 15.8068 13.2666 15.7901 13.36C15.7735 13.45 15.7635 13.5416 15.7601 13.635C15.7568 13.7283 15.7551 13.815 15.7551 13.895C15.7551 13.975 15.7568 14.0616 15.7601 14.155C15.7635 14.2483 15.7735 14.34 15.7901 14.43C15.8068 14.52 15.8318 14.6066 15.8651 14.69C15.9018 14.7733 15.9501 14.8466 16.0101 14.91C16.0801 14.9866 16.1651 15.045 16.2651 15.085C16.3651 15.125 16.4668 15.145 16.5701 15.145C16.6735 15.145 16.7751 15.125 16.8751 15.085C16.9751 15.045 17.0601 14.9866 17.1301 14.91C17.1901 14.8466 17.2368 14.7733 17.2701 14.69C17.3068 14.6066 17.3335 14.52 17.3501 14.43C17.3668 14.34 17.3768 14.2483 17.3801 14.155C17.3835 14.0616 17.3851 13.975 17.3851 13.895Z" fill="#4D4D4D"/>
<path d="M17.9668 12V11.6L19.0508 10.308C19.0988 10.252 19.1348 10.1933 19.1588 10.132C19.1828 10.068 19.1948 10.008 19.1948 9.952C19.1948 9.85333 19.1641 9.77067 19.1028 9.704C19.0441 9.63733 18.9574 9.604 18.8428 9.604C18.7228 9.604 18.6308 9.64267 18.5668 9.72C18.5028 9.79733 18.4708 9.892 18.4708 10.004H17.9588C17.9588 9.88133 17.9788 9.76933 18.0188 9.668C18.0588 9.564 18.1161 9.47467 18.1908 9.4C18.2654 9.32533 18.3574 9.268 18.4668 9.228C18.5761 9.18533 18.7028 9.164 18.8468 9.164C18.9668 9.164 19.0788 9.18267 19.1828 9.22C19.2868 9.25467 19.3774 9.30667 19.4548 9.376C19.5321 9.44267 19.5921 9.524 19.6348 9.62C19.6801 9.716 19.7028 9.82533 19.7028 9.948C19.7028 10.0093 19.6934 10.0707 19.6748 10.132C19.6588 10.1933 19.6361 10.2533 19.6068 10.312C19.5801 10.368 19.5481 10.4227 19.5108 10.476C19.4761 10.5293 19.4388 10.58 19.3988 10.628L18.6308 11.548H19.7428V12H17.9668Z" fill="#4D4D4D"/>
<path d="M30 22V21.9421V21.8843V21.8264V21.7685C28.8439 21.3235 27.6602 20.9279 26.4529 20.5844C25.2446 20.241 24.0117 19.9507 22.7583 19.7163C21.5049 19.482 20.2279 19.3027 18.9345 19.1822C17.6401 19.0617 16.3282 19 15 19C13.6718 19 12.3589 19.0617 11.0655 19.1822C9.77111 19.3027 8.49515 19.482 7.24173 19.7163C5.98832 19.9507 4.7554 20.2419 3.54708 20.5844C2.33875 20.9279 1.15605 21.3235 0 21.7685V21.8264V21.8843V21.9421V22C1.15503 21.5522 2.33773 21.1546 3.54605 20.8093C4.75335 20.4639 5.98627 20.1717 7.24071 19.9364C8.49515 19.7011 9.77111 19.5199 11.0655 19.3994C12.3599 19.278 13.6728 19.2163 15.002 19.2163C16.3303 19.2163 17.6431 19.278 18.9376 19.3994C20.232 19.5209 21.5079 19.7011 22.7624 19.9364C24.0168 20.1717 25.2487 20.4649 26.457 20.8093C27.6612 21.1546 28.845 21.5522 30 22Z" fill="#4D4D4D"/>
</svg>
