<svg width="30" height="30" viewBox="0 0 30 30" fill="none" xmlns="http://www.w3.org/2000/svg">
<path d="M30 30H22.5H15H7.5H0V22.5003V15.0005V7.49975V0H7.5H15H22.5H30V7.49975V14.9995V22.4992V30ZM0.252287 29.7477H7.62614H15H22.3739H29.7477V22.3741V15.0005V7.62589V0.252279H22.3739H15H7.62614H0.252287V7.62589V14.9995V22.3731V29.7477Z" fill="#4D4D4D"/>
<path d="M9.40501 10.563C8.88401 10.563 8.38701 10.457 7.93501 10.265C7.48301 10.073 7.07601 9.796 6.73401 9.454C6.39201 9.112 6.11501 8.704 5.92301 8.252C5.73101 7.8 5.62601 7.303 5.62601 6.782C5.62601 6.261 5.73201 5.764 5.92301 5.311C6.11401 4.858 6.39201 4.451 6.73401 4.109C7.07601 3.767 7.48301 3.489 7.93501 3.298C8.38701 3.107 8.88401 3 9.40501 3C9.92601 3 10.424 3.106 10.876 3.298C11.328 3.49 11.736 3.767 12.079 4.109C12.422 4.451 12.699 4.859 12.89 5.311C13.081 5.763 13.188 6.26 13.188 6.782C13.188 7.303 13.082 7.8 12.89 8.252C12.698 8.704 12.421 9.112 12.079 9.454C11.737 9.796 11.329 10.073 10.876 10.265C10.423 10.457 9.92701 10.563 9.40501 10.563ZM9.40501 3.25C8.91801 3.25 8.45501 3.349 8.03201 3.528C7.60901 3.707 7.23001 3.965 6.91101 4.285C6.59201 4.605 6.33301 4.985 6.15401 5.408C5.97501 5.831 5.87601 6.295 5.87601 6.782C5.87601 7.269 5.97501 7.733 6.15401 8.155C6.33301 8.577 6.59201 8.958 6.91101 9.277C7.23001 9.596 7.61101 9.856 8.03301 10.034C8.45501 10.212 8.91901 10.312 9.40601 10.312C9.89301 10.312 10.357 10.213 10.78 10.034C11.203 9.855 11.583 9.596 11.903 9.277C12.223 8.958 12.482 8.577 12.661 8.155C12.84 7.733 12.939 7.269 12.939 6.782C12.939 6.295 12.84 5.831 12.661 5.408C12.482 4.985 12.223 4.605 11.903 4.285C11.583 3.965 11.202 3.706 10.78 3.527C10.358 3.348 9.89201 3.25 9.40501 3.25Z" fill="#4D4D4D"/>
<path d="M6.778 14.2189C6.257 14.2189 5.761 14.1129 5.309 13.9209C4.857 13.7289 4.45 13.4519 4.108 13.1099C3.766 12.7679 3.489 12.3599 3.297 11.9079C3.105 11.4559 3 10.9589 3 10.4379C3 9.91694 3.106 9.41994 3.297 8.96694C3.488 8.51394 3.766 8.10694 4.108 7.76494C4.45 7.42294 4.857 7.14494 5.309 6.95394C5.761 6.76294 6.257 6.65594 6.778 6.65594C7.299 6.65594 7.797 6.76194 8.249 6.95394C8.701 7.14594 9.109 7.42294 9.452 7.76494C9.795 8.10694 10.072 8.51494 10.264 8.96694C10.456 9.41894 10.562 9.91594 10.562 10.4379C10.562 10.9589 10.456 11.4559 10.264 11.9079C10.072 12.3599 9.795 12.7679 9.452 13.1099C9.109 13.4519 8.702 13.7299 8.249 13.9209C7.796 14.1119 7.3 14.2189 6.778 14.2189ZM6.778 6.90594C6.292 6.90594 5.828 7.00494 5.406 7.18394C4.984 7.36294 4.603 7.62194 4.284 7.94194C3.965 8.26194 3.706 8.64194 3.527 9.06494C3.348 9.48794 3.249 9.95194 3.249 10.4379C3.249 10.9239 3.348 11.3889 3.527 11.8109C3.706 12.2329 3.964 12.6139 4.284 12.9339C4.604 13.2539 4.984 13.5129 5.406 13.6909C5.828 13.8689 6.292 13.9689 6.778 13.9689C7.265 13.9689 7.729 13.8699 8.152 13.6909C8.575 13.5119 8.955 13.2529 9.275 12.9339C9.595 12.6149 9.854 12.2339 10.033 11.8109C10.212 11.3879 10.311 10.9249 10.311 10.4379C10.311 9.95094 10.212 9.48694 10.033 9.06494C9.854 8.64294 9.595 8.26194 9.275 7.94194C8.955 7.62194 8.575 7.36294 8.152 7.18394C7.729 7.00494 7.265 6.90594 6.778 6.90594Z" fill="#4D4D4D"/>
<path d="M11.915 14.2189C11.394 14.2189 10.898 14.1129 10.446 13.9209C9.99402 13.7289 9.58702 13.4519 9.24502 13.1099C8.90302 12.7679 8.62602 12.3599 8.43402 11.9079C8.24202 11.4559 8.13702 10.9589 8.13702 10.4379C8.13702 9.91694 8.24302 9.41994 8.43402 8.96694C8.62502 8.51394 8.90302 8.10694 9.24502 7.76494C9.58702 7.42294 9.99402 7.14494 10.446 6.95394C10.898 6.76294 11.395 6.65594 11.915 6.65594C12.436 6.65594 12.934 6.76194 13.386 6.95394C13.838 7.14594 14.246 7.42294 14.589 7.76494C14.932 8.10694 15.209 8.51494 15.401 8.96694C15.593 9.41894 15.699 9.91594 15.699 10.4379C15.699 10.9589 15.593 11.4559 15.401 11.9079C15.209 12.3599 14.932 12.7679 14.589 13.1099C14.246 13.4519 13.839 13.7299 13.386 13.9209C12.933 14.1119 12.436 14.2189 11.915 14.2189ZM11.915 6.90594C11.429 6.90594 10.965 7.00494 10.543 7.18394C10.121 7.36294 9.74002 7.62194 9.42102 7.94194C9.10202 8.26194 8.84302 8.64194 8.66402 9.06494C8.48502 9.48794 8.38602 9.95194 8.38602 10.4379C8.38602 10.9239 8.48502 11.3889 8.66402 11.8109C8.84302 12.2329 9.10102 12.6139 9.42102 12.9339C9.74102 13.2539 10.121 13.5129 10.543 13.6909C10.965 13.8689 11.429 13.9689 11.915 13.9689C12.402 13.9689 12.866 13.8699 13.289 13.6909C13.712 13.5119 14.092 13.2529 14.412 12.9339C14.732 12.6149 14.991 12.2339 15.17 11.8109C15.349 11.3879 15.448 10.9249 15.448 10.4379C15.448 9.95094 15.349 9.48694 15.17 9.06494C14.991 8.64294 14.732 8.26194 14.412 7.94194C14.092 7.62194 13.711 7.36294 13.289 7.18394C12.867 7.00494 12.402 6.90594 11.915 6.90594Z" fill="#4D4D4D"/>
<path d="M27.575 26.2379C27.408 26.2179 27.25 26.1889 27.099 26.15C26.948 26.111 26.805 26.063 26.67 26.0049C26.535 25.9469 26.409 25.8799 26.29 25.8039C26.171 25.7279 26.062 25.6419 25.961 25.5479C25.855 25.4489 25.764 25.346 25.685 25.24C25.606 25.1339 25.538 25.027 25.48 24.9209C25.422 24.8149 25.372 24.7099 25.328 24.6099C25.284 24.5099 25.247 24.4149 25.212 24.327C25.187 24.264 25.164 24.2029 25.14 24.1479C25.116 24.0929 25.093 24.0409 25.069 23.9979C25.045 23.955 25.021 23.9189 24.997 23.893C24.973 23.867 24.947 23.8519 24.919 23.8489C24.891 23.8429 24.863 23.851 24.834 23.8689C24.805 23.8869 24.775 23.9159 24.745 23.9509C24.715 23.9859 24.683 24.0299 24.65 24.077C24.617 24.124 24.583 24.1749 24.548 24.2269C24.494 24.306 24.435 24.393 24.369 24.4799C24.303 24.5669 24.229 24.6569 24.145 24.7409C24.061 24.8249 23.967 24.9049 23.86 24.9729C23.753 25.041 23.634 25.0989 23.499 25.1399C23.494 25.142 23.457 25.153 23.396 25.1649C23.335 25.1769 23.25 25.19 23.147 25.195C23.044 25.1999 22.924 25.1989 22.793 25.1819C22.662 25.1649 22.521 25.1319 22.376 25.0749C22.109 24.9709 21.878 24.4869 21.675 23.667C21.472 22.847 21.297 21.6919 21.143 20.2489C20.989 18.8059 20.855 17.073 20.734 15.0979C20.613 13.123 20.504 10.9059 20.401 8.49195C20.396 8.38295 20.392 8.27495 20.387 8.16995C20.382 8.06495 20.378 7.96095 20.374 7.86095C20.37 7.76095 20.365 7.66195 20.361 7.56695C20.357 7.47195 20.353 7.37995 20.349 7.29095C20.322 7.64195 20.294 8.05595 20.266 8.52195C20.238 8.98795 20.208 9.50895 20.178 10.0729C20.148 10.6369 20.117 11.2439 20.085 11.8849C20.053 12.5259 20.02 13.2009 19.986 13.8999C19.982 13.9899 19.975 14.1239 19.966 14.2959C19.957 14.4679 19.945 14.6779 19.931 14.9189C19.917 15.1599 19.899 15.4349 19.878 15.7349C19.857 16.0349 19.833 16.3619 19.805 16.7099C19.786 16.9439 19.768 17.1619 19.75 17.3639C19.732 17.5659 19.715 17.7499 19.7 17.9159C19.685 18.0819 19.67 18.2289 19.657 18.3559C19.644 18.4829 19.633 18.59 19.624 18.674C19.577 19.122 19.535 19.5139 19.496 19.8629C19.457 20.2119 19.42 20.5199 19.381 20.7979C19.342 21.0759 19.302 21.3259 19.257 21.5599C19.212 21.7939 19.161 22.0119 19.101 22.2279C19.011 22.5529 18.932 22.8379 18.856 23.0889C18.78 23.3399 18.709 23.5569 18.632 23.7479C18.555 23.9389 18.476 24.1029 18.383 24.2479C18.29 24.393 18.187 24.5179 18.063 24.6309C17.919 24.7619 17.778 24.8599 17.601 24.9339C17.424 25.0079 17.212 25.0579 16.926 25.091C16.64 25.124 16.279 25.1419 15.807 25.1509C15.335 25.16 14.749 25.1619 14.013 25.1639L13.742 25.1649L13.471 25.1659L13.2 25.167L12.929 25.1679C12.424 25.1689 12.025 25.1699 11.705 25.1659C11.385 25.1619 11.144 25.1539 10.953 25.1349C10.762 25.1159 10.622 25.0879 10.504 25.0449C10.386 25.0019 10.29 24.9439 10.189 24.8669C10.007 24.7289 9.86701 24.5749 9.75501 24.3909C9.64301 24.2069 9.56201 23.9949 9.49701 23.7389C9.43201 23.4829 9.38601 23.184 9.34401 22.827C9.30201 22.4699 9.26701 22.0569 9.22601 21.5729C9.21901 21.4959 9.21301 21.4169 9.20601 21.3359C9.19901 21.2549 9.19201 21.1729 9.18401 21.0879C9.17601 21.0029 9.16901 20.9169 9.16101 20.8279C9.15301 20.7389 9.14501 20.649 9.13601 20.556C9.08701 20.031 9.03201 19.4929 8.97501 18.9699C8.91801 18.4469 8.85701 17.9379 8.79701 17.4719C8.73701 17.0059 8.67601 16.5829 8.61801 16.2309C8.56001 15.8789 8.50501 15.5969 8.45401 15.4149C8.42401 15.5569 8.39401 15.7549 8.36601 15.9839C8.33801 16.2129 8.31001 16.4739 8.28501 16.7429C8.26001 17.0119 8.23601 17.2899 8.21501 17.5529C8.19401 17.816 8.17501 18.0639 8.15901 18.275C8.11501 18.854 8.07501 19.346 8.03701 19.7859C7.99901 20.2259 7.96401 20.6159 7.92701 20.9909C7.89001 21.3659 7.85301 21.7259 7.81301 22.1069C7.77301 22.4879 7.72501 22.8939 7.67501 23.3539C7.64501 23.6209 7.61801 23.8659 7.58501 24.0889C7.55201 24.3119 7.51301 24.5159 7.45901 24.6999C7.40501 24.8839 7.33701 25.0499 7.24501 25.1979C7.15301 25.3459 7.03901 25.4779 6.89201 25.5939C6.73101 25.7219 6.55501 25.813 6.37201 25.8759C6.18901 25.9389 5.99901 25.9739 5.80901 25.9879C5.61901 26.0019 5.43001 25.9959 5.24901 25.9769C5.06801 25.958 4.89501 25.9259 4.73901 25.8889L4.75601 25.8159L4.77301 25.7429L4.79001 25.6699L4.80701 25.5969C4.94701 25.6299 5.10201 25.6589 5.26301 25.6769C5.42401 25.6949 5.59201 25.7019 5.76001 25.6909C5.92801 25.6799 6.09501 25.6519 6.25501 25.5989C6.41501 25.5459 6.56701 25.4679 6.70501 25.3589C6.82201 25.2659 6.91401 25.1599 6.99001 25.0369C7.06601 24.9139 7.12301 24.7719 7.17101 24.608C7.21901 24.444 7.25401 24.2579 7.28601 24.0449C7.31801 23.8319 7.34601 23.5919 7.37601 23.3209C7.42601 22.8629 7.47101 22.4609 7.51101 22.0809C7.55101 21.7009 7.58901 21.3419 7.62501 20.9669C7.66101 20.5919 7.69701 20.2039 7.73501 19.7639C7.77301 19.3239 7.81201 18.8329 7.85701 18.2559C7.91601 17.4899 7.96601 16.8989 8.01201 16.4439C8.05801 15.9889 8.10101 15.669 8.14301 15.445C8.18501 15.221 8.22901 15.0929 8.27701 15.0199C8.32501 14.9469 8.37801 14.9309 8.44101 14.9299C8.44201 14.9299 8.44201 14.9299 8.44301 14.9299C8.44401 14.9299 8.44401 14.9299 8.44501 14.9299C8.44601 14.9299 8.44601 14.9299 8.44701 14.9299C8.44801 14.9299 8.44801 14.9299 8.44901 14.9299C8.49001 14.9299 8.54001 14.9359 8.60001 15.0309C8.66001 15.1259 8.72901 15.3099 8.81001 15.6659C8.89101 16.0219 8.98201 16.5499 9.08501 17.3329C9.18801 18.1159 9.30401 19.1549 9.43201 20.5309C9.44101 20.6239 9.44901 20.7149 9.45701 20.8029C9.46501 20.891 9.47301 20.978 9.48001 21.063C9.48701 21.148 9.49501 21.2309 9.50201 21.3119C9.50901 21.3929 9.51601 21.472 9.52201 21.549C9.56201 22.01 9.59601 22.4039 9.63401 22.7419C9.67201 23.0799 9.71501 23.3629 9.77201 23.6039C9.82901 23.8449 9.90001 24.042 9.99601 24.209C10.092 24.3759 10.212 24.5119 10.368 24.6309C10.446 24.6909 10.52 24.7359 10.617 24.7699C10.714 24.8039 10.836 24.827 11.01 24.8419C11.184 24.8569 11.412 24.8649 11.721 24.8679C12.03 24.8709 12.422 24.871 12.925 24.8689L13.196 24.8679L13.467 24.8669L13.738 24.8659L14.009 24.865C14.721 24.8629 15.286 24.8619 15.742 24.8539C16.198 24.8459 16.544 24.8309 16.817 24.8029C17.09 24.775 17.289 24.7319 17.45 24.6689C17.611 24.6059 17.736 24.5219 17.858 24.4109C17.966 24.313 18.058 24.1999 18.14 24.0669C18.222 23.934 18.295 23.7809 18.365 23.6009C18.435 23.4209 18.503 23.2149 18.574 22.9759C18.645 22.7369 18.721 22.4649 18.807 22.1549C18.866 21.9439 18.915 21.7289 18.96 21.4989C19.005 21.2689 19.044 21.0229 19.082 20.7479C19.12 20.4729 19.157 20.1689 19.196 19.8229C19.235 19.4769 19.276 19.0879 19.323 18.6449C19.332 18.5609 19.343 18.4539 19.355 18.3279C19.367 18.2019 19.382 18.0549 19.398 17.8889C19.414 17.7229 19.431 17.5399 19.448 17.3389C19.465 17.1379 19.484 16.9199 19.503 16.6869C19.531 16.3409 19.555 16.0149 19.576 15.716C19.597 15.417 19.614 15.1439 19.629 14.9039C19.644 14.6639 19.655 14.4559 19.664 14.2869C19.673 14.1179 19.679 13.9869 19.684 13.8999C19.78 11.9409 19.856 10.4519 19.919 9.32195C19.982 8.19195 20.034 7.41895 20.082 6.89095C20.13 6.36295 20.175 6.08095 20.226 5.92995C20.277 5.77895 20.333 5.75995 20.405 5.75995C20.45 5.76195 20.484 5.76195 20.511 5.80395C20.538 5.84595 20.558 5.92995 20.577 6.09995C20.596 6.26995 20.612 6.52295 20.631 6.90595C20.65 7.28895 20.672 7.79895 20.701 8.48095C20.748 9.56695 20.813 11.1039 20.903 12.8039C20.993 14.5039 21.107 16.3679 21.249 18.1089C21.391 19.8499 21.562 21.4689 21.767 22.6799C21.972 23.8909 22.209 24.6919 22.485 24.799C22.605 24.8449 22.722 24.872 22.832 24.886C22.942 24.9 23.042 24.9009 23.128 24.8969C23.214 24.893 23.285 24.882 23.335 24.8729C23.385 24.8639 23.414 24.8559 23.415 24.8549C23.524 24.8219 23.621 24.7749 23.708 24.7179C23.795 24.6609 23.873 24.5949 23.943 24.5239C24.013 24.4529 24.077 24.375 24.136 24.2959C24.195 24.2169 24.25 24.1369 24.303 24.0589C24.35 23.9899 24.396 23.9229 24.443 23.8599C24.49 23.7969 24.538 23.7409 24.59 23.6929C24.642 23.6449 24.696 23.6069 24.755 23.5819C24.814 23.5569 24.879 23.5449 24.951 23.5509C25.024 23.5579 25.086 23.5819 25.14 23.6189C25.194 23.656 25.24 23.7069 25.281 23.7669C25.322 23.8269 25.359 23.8969 25.393 23.9739C25.427 24.0509 25.46 24.1329 25.494 24.2189C25.528 24.3039 25.563 24.3939 25.603 24.4869C25.643 24.58 25.688 24.6759 25.741 24.7719C25.794 24.868 25.854 24.9639 25.924 25.0579C25.994 25.1519 26.075 25.2439 26.168 25.3309C26.257 25.4139 26.355 25.49 26.46 25.5569C26.565 25.6239 26.678 25.6839 26.799 25.7349C26.92 25.7859 27.048 25.8289 27.183 25.8629C27.318 25.8969 27.462 25.924 27.612 25.9419L27.603 26.0159L27.594 26.0899L27.585 26.1639L27.575 26.2379Z" fill="#4D4D4D"/>
</svg>
