<svg width="30" height="30" viewBox="0 0 30 30" fill="none" xmlns="http://www.w3.org/2000/svg">
<g clip-path="url(#clip0)">
<rect width="30" height="30" fill="white"/>
<path d="M0.44198 29.558V16.487H2.13053V18.1082C2.13053 18.4496 2.34921 18.7531 2.67308 18.8602L3.71482 19.2071C3.79602 19.2329 3.87999 19.2468 3.96395 19.2468H8.24715L8.30344 20.0827H14.1368V9.91545H8.24622L8.20009 10.7514H3.96395C3.87999 10.7514 3.79602 10.7662 3.71482 10.7929L2.67308 11.138C2.34921 11.246 2.13053 11.5486 2.13053 11.89V13.7687H0.44198V0.440177H29.5598V13.5112H27.8694V11.89C27.8694 11.5486 27.6508 11.246 27.3278 11.138L26.2861 10.7929C26.2049 10.7662 26.1209 10.7514 26.036 10.7514H21.7325L21.6965 10.2605H21.3791L21.1863 10.0686L20.9925 10.2605H20.4075L20.2137 10.0686L20.0209 10.2605H19.435L19.2412 10.0686L19.0474 10.2605H18.4634L18.2696 10.0686L18.0758 10.2605H17.4899L17.2971 10.0686L17.1033 10.2605H16.5174L16.3236 10.0686L16.1317 10.2605H15.8632V19.7367H21.7528L21.7823 19.2468H26.036C26.1209 19.2468 26.2049 19.2329 26.2861 19.2062L27.3278 18.8602C27.6508 18.7531 27.8694 18.4496 27.8694 18.1082V16.2295H29.5598V29.558H0.44198ZM0 30H30V4.24782e-05H0V30Z" fill="#656263"/>
<path d="M10.2184 14.469C10.2147 14.469 10.2092 14.47 10.2037 14.4718L9.68972 14.5992L9.91116 13.9985C9.91577 13.9902 9.91762 13.9819 9.91762 13.9745C9.91762 13.9606 9.91209 13.9477 9.90102 13.9376C9.88995 13.9265 9.8761 13.921 9.85949 13.921H9.43321C9.42029 13.921 9.40736 13.9247 9.39813 13.933C9.38706 13.9403 9.38061 13.9496 9.37692 13.9625L9.11671 15.0319C9.1121 15.0522 9.11764 15.0697 9.13333 15.0827C9.1444 15.0919 9.15823 15.0965 9.17392 15.0965C9.18038 15.0965 9.18592 15.0965 9.18869 15.0956L9.71462 14.9645L9.45996 16.0118C9.45627 16.0256 9.45904 16.0386 9.4655 16.0515C9.47289 16.0626 9.48488 16.0709 9.49872 16.0755C9.50702 16.0773 9.51348 16.0782 9.51717 16.0782C9.54209 16.0782 9.56053 16.0672 9.57161 16.0459L10.271 14.5456C10.2812 14.5244 10.2784 14.506 10.2627 14.4893C10.2498 14.4755 10.2341 14.469 10.2184 14.469Z" fill="#656263"/>
</g>
<defs>
<clipPath id="clip0">
<rect width="30" height="30" fill="white"/>
</clipPath>
</defs>
</svg>
