<svg width="30" height="30" viewBox="0 0 30 30" fill="none" xmlns="http://www.w3.org/2000/svg">
<rect width="30" height="30" fill="white"/>
<path d="M30 30H22.5H15H7.5H0V22.5003V15.0005V7.49975V0H7.5H15H22.5H30V7.49975V14.9995V22.4992V30ZM0.252287 29.7477H7.62614H15H22.3739H29.7477V22.3741V15.0005V7.62589V0.252279H22.3739H15H7.62614H0.252287V7.62589V14.9995V22.3731V29.7477Z" fill="#4D4D4D"/>
<path d="M30 22V21.9421V21.8843V21.8264V21.7685C28.8439 21.3235 27.6602 20.9279 26.4529 20.5844C25.2446 20.241 24.0117 19.9507 22.7583 19.7163C21.5049 19.482 20.2279 19.3027 18.9345 19.1822C17.6401 19.0617 16.3282 19 15 19C13.6718 19 12.3589 19.0617 11.0655 19.1822C9.77111 19.3027 8.49515 19.482 7.24173 19.7163C5.98832 19.9507 4.7554 20.2419 3.54708 20.5844C2.33875 20.9279 1.15605 21.3235 0 21.7685V21.8264V21.8843V21.9421V22C1.15503 21.5522 2.33773 21.1546 3.54605 20.8093C4.75335 20.4639 5.98627 20.1717 7.24071 19.9364C8.49515 19.7011 9.77111 19.5199 11.0655 19.3994C12.3599 19.278 13.6728 19.2163 15.002 19.2163C16.3303 19.2163 17.6431 19.278 18.9376 19.3994C20.232 19.5209 21.5079 19.7011 22.7624 19.9364C24.0168 20.1717 25.2487 20.4649 26.457 20.8093C27.6612 21.1546 28.845 21.5522 30 22Z" fill="#4D4D4D"/>
<path d="M13.6561 11.418C13.6327 11.614 13.5837 11.8077 13.5091 11.999C13.4344 12.1857 13.3247 12.3537 13.1801 12.503C12.9934 12.6943 12.7764 12.8413 12.5291 12.944C12.2817 13.042 12.0251 13.091 11.7591 13.091C11.4931 13.091 11.2387 13.0467 10.9961 12.958C10.7581 12.8693 10.5434 12.7293 10.3521 12.538C10.2167 12.4027 10.1071 12.2603 10.0231 12.111C9.94372 11.9617 9.88305 11.803 9.84105 11.635C9.79905 11.467 9.77105 11.292 9.75705 11.11C9.74305 10.9233 9.73605 10.7273 9.73605 10.522C9.73605 10.3213 9.74305 10.1277 9.75705 9.941C9.77105 9.75433 9.79905 9.577 9.84105 9.409C9.88305 9.241 9.94372 9.08233 10.0231 8.933C10.1071 8.78367 10.2167 8.64133 10.3521 8.506C10.5434 8.31467 10.7581 8.17467 10.9961 8.086C11.2387 7.99267 11.4931 7.946 11.7591 7.946C12.0251 7.946 12.2817 7.995 12.5291 8.093C12.7764 8.18633 12.9934 8.32867 13.1801 8.52C13.3247 8.66933 13.4344 8.83733 13.5091 9.024C13.5837 9.21067 13.6327 9.402 13.6561 9.598H12.7321C12.7227 9.49067 12.6994 9.39733 12.6621 9.318C12.6247 9.234 12.5734 9.15233 12.5081 9.073C12.4287 8.97033 12.3214 8.89333 12.1861 8.842C12.0554 8.79067 11.9131 8.765 11.7591 8.765C11.6144 8.765 11.4744 8.793 11.3391 8.849C11.2084 8.905 11.0941 8.98667 10.9961 9.094C10.9121 9.18267 10.8467 9.28533 10.8001 9.402C10.7534 9.51867 10.7184 9.64233 10.6951 9.773C10.6764 9.899 10.6647 10.0273 10.6601 10.158C10.6554 10.2887 10.6531 10.41 10.6531 10.522C10.6531 10.634 10.6554 10.7553 10.6601 10.886C10.6647 11.0167 10.6764 11.1473 10.6951 11.278C10.7184 11.404 10.7534 11.5253 10.8001 11.642C10.8467 11.7587 10.9121 11.8613 10.9961 11.95C11.0941 12.0573 11.2084 12.139 11.3391 12.195C11.4744 12.251 11.6144 12.279 11.7591 12.279C11.9131 12.279 12.0554 12.2533 12.1861 12.202C12.3214 12.146 12.4287 12.0667 12.5081 11.964C12.6387 11.8053 12.7134 11.6233 12.7321 11.418H13.6561ZM17.2676 13L16.4416 11.124H15.3426V13H14.4326V8.037H16.5256C16.8196 8.037 17.0739 8.08133 17.2886 8.17C17.5079 8.254 17.6876 8.36833 17.8276 8.513C17.9722 8.653 18.0772 8.81633 18.1426 9.003C18.2126 9.185 18.2476 9.37633 18.2476 9.577C18.2476 9.913 18.1636 10.2047 17.9956 10.452C17.8322 10.6947 17.6129 10.8673 17.3376 10.97L18.2476 13H17.2676ZM17.3446 9.577C17.3446 9.479 17.3259 9.38567 17.2886 9.297C17.2512 9.20367 17.1976 9.122 17.1276 9.052C17.0576 8.982 16.9712 8.92833 16.8686 8.891C16.7659 8.849 16.6516 8.828 16.5256 8.828H15.3356V10.312H16.5396C16.7962 10.312 16.9946 10.249 17.1346 10.123C17.2746 9.997 17.3446 9.815 17.3446 9.577ZM19.0468 13V8.037H19.9638V13H19.0468Z" fill="#4D4D4D"/>
</svg>
