<svg width="30" height="30" viewBox="0 0 30 30" fill="none" xmlns="http://www.w3.org/2000/svg">
<rect width="30" height="30" fill="white"/>
<path d="M30 30H22.5H15H7.5H0V22.5003V15.0005V7.49975V0H7.5H15H22.5H30V7.49975V14.9995V22.4992V30ZM0.252287 29.7477H7.62614H15H22.3739H29.7477V22.3741V15.0005V7.62589V0.252279H22.3739H15H7.62614H0.252287V7.62589V14.9995V22.3731V29.7477Z" fill="#4D4D4D"/>
<path d="M30 22V21.9421V21.8843V21.8264V21.7685C28.8439 21.3235 27.6602 20.9279 26.4529 20.5844C25.2446 20.241 24.0117 19.9507 22.7583 19.7163C21.5049 19.482 20.2279 19.3027 18.9345 19.1822C17.6401 19.0617 16.3282 19 15 19C13.6718 19 12.3589 19.0617 11.0655 19.1822C9.77111 19.3027 8.49515 19.482 7.24173 19.7163C5.98832 19.9507 4.7554 20.2419 3.54708 20.5844C2.33875 20.9279 1.15605 21.3235 0 21.7685V21.8264V21.8843V21.9421V22C1.15503 21.5522 2.33773 21.1546 3.54605 20.8093C4.75335 20.4639 5.98627 20.1717 7.24071 19.9364C8.49515 19.7011 9.77111 19.5199 11.0655 19.3994C12.3599 19.278 13.6728 19.2163 15.002 19.2163C16.3303 19.2163 17.6431 19.278 18.9376 19.3994C20.232 19.5209 21.5079 19.7011 22.7624 19.9364C24.0168 20.1717 25.2487 20.4649 26.457 20.8093C27.6612 21.1546 28.845 21.5522 30 22Z" fill="#4D4D4D"/>
<path d="M13.8364 6.698C13.8204 6.894 13.7724 7.076 13.6924 7.244C13.6124 7.412 13.5064 7.558 13.3744 7.682C13.2424 7.806 13.0864 7.904 12.9064 7.976C12.7304 8.044 12.5364 8.078 12.3244 8.078C12.1204 8.078 11.9184 8.038 11.7184 7.958C11.5224 7.878 11.3504 7.764 11.2024 7.616C11.0864 7.5 10.9944 7.372 10.9264 7.232C10.8624 7.092 10.8144 6.948 10.7824 6.8C10.7504 6.648 10.7284 6.494 10.7164 6.338C10.7084 6.178 10.7044 6.022 10.7044 5.87C10.7044 5.718 10.7084 5.564 10.7164 5.408C10.7284 5.252 10.7504 5.098 10.7824 4.946C10.8144 4.794 10.8624 4.65 10.9264 4.514C10.9944 4.374 11.0864 4.246 11.2024 4.13C11.3504 3.982 11.5224 3.868 11.7184 3.788C11.9184 3.708 12.1204 3.668 12.3244 3.668C12.5364 3.668 12.7304 3.704 12.9064 3.776C13.0864 3.844 13.2424 3.94 13.3744 4.064C13.5064 4.188 13.6124 4.334 13.6924 4.502C13.7724 4.67 13.8204 4.852 13.8364 5.048H13.5124C13.5004 4.892 13.4624 4.748 13.3984 4.616C13.3344 4.484 13.2504 4.37 13.1464 4.274C13.0464 4.178 12.9264 4.104 12.7864 4.052C12.6464 4 12.4924 3.974 12.3244 3.974C12.1324 3.974 11.9644 4.006 11.8204 4.07C11.6764 4.134 11.5464 4.224 11.4304 4.34C11.3344 4.44 11.2584 4.552 11.2024 4.676C11.1504 4.8 11.1104 4.93 11.0824 5.066C11.0584 5.198 11.0424 5.334 11.0344 5.474C11.0304 5.61 11.0284 5.742 11.0284 5.87C11.0284 5.998 11.0304 6.132 11.0344 6.272C11.0424 6.408 11.0604 6.544 11.0884 6.68C11.1164 6.816 11.1564 6.946 11.2084 7.07C11.2644 7.194 11.3404 7.306 11.4364 7.406C11.6724 7.65 11.9684 7.772 12.3244 7.772C12.4924 7.772 12.6464 7.746 12.7864 7.694C12.9264 7.642 13.0464 7.568 13.1464 7.472C13.2504 7.376 13.3344 7.262 13.3984 7.13C13.4624 6.998 13.5004 6.854 13.5124 6.698H13.8364ZM17.4067 4.97C17.4067 4.666 17.3087 4.436 17.1127 4.28C16.9207 4.12 16.6487 4.04 16.2967 4.04H15.0547V5.9H16.2967C16.6487 5.9 16.9207 5.822 17.1127 5.666C17.3087 5.506 17.4067 5.274 17.4067 4.97ZM17.7307 4.97C17.7307 5.25 17.6507 5.492 17.4907 5.696C17.3307 5.9 17.1167 6.038 16.8487 6.11L17.7127 8H17.3707L16.5367 6.188H15.0547V8H14.7427V3.746H16.2967C16.5287 3.746 16.7327 3.776 16.9087 3.836C17.0887 3.892 17.2387 3.974 17.3587 4.082C17.4827 4.19 17.5747 4.32 17.6347 4.472C17.6987 4.62 17.7307 4.786 17.7307 4.97ZM18.6802 8V3.746H18.9982V8H18.6802Z" fill="#4D4D4D"/>
<path d="M14.6618 13.48C14.6618 13.6573 14.6571 13.844 14.6478 14.04C14.6385 14.2313 14.6151 14.4203 14.5778 14.607C14.5405 14.7937 14.4868 14.9733 14.4168 15.146C14.3468 15.3187 14.2488 15.4703 14.1228 15.601C13.9875 15.741 13.8288 15.8577 13.6468 15.951C13.4648 16.0443 13.2268 16.091 12.9328 16.091C12.6808 16.091 12.4638 16.056 12.2818 15.986C12.0998 15.9113 11.9458 15.8133 11.8198 15.692C11.6845 15.5613 11.5818 15.4167 11.5118 15.258C11.4418 15.0947 11.4068 14.9407 11.4068 14.796H12.2888C12.3028 14.9453 12.3588 15.069 12.4568 15.167C12.5688 15.2837 12.7415 15.342 12.9748 15.342C13.0915 15.342 13.1848 15.3233 13.2548 15.286C13.3295 15.2487 13.3971 15.202 13.4578 15.146C13.5885 15.0247 13.6771 14.8637 13.7238 14.663C13.7705 14.4577 13.7938 14.2477 13.7938 14.033C13.7378 14.0983 13.6725 14.1543 13.5978 14.201C13.5231 14.243 13.4438 14.278 13.3598 14.306C13.2758 14.334 13.1918 14.355 13.1078 14.369C13.0238 14.383 12.9445 14.39 12.8698 14.39C12.6085 14.39 12.3775 14.3503 12.1768 14.271C11.9761 14.1917 11.8081 14.0797 11.6728 13.935C11.5375 13.7857 11.4348 13.6107 11.3648 13.41C11.2995 13.2047 11.2668 12.9783 11.2668 12.731C11.2668 12.493 11.3018 12.2713 11.3718 12.066C11.4418 11.8607 11.5468 11.681 11.6868 11.527C11.8268 11.373 12.0018 11.254 12.2118 11.17C12.4218 11.0813 12.6645 11.037 12.9398 11.037C13.1685 11.037 13.3761 11.0767 13.5628 11.156C13.7495 11.2307 13.9128 11.338 14.0528 11.478C14.1928 11.6133 14.3071 11.7743 14.3958 11.961C14.4845 12.1477 14.5475 12.3507 14.5848 12.57C14.6128 12.7287 14.6315 12.8827 14.6408 13.032C14.6548 13.1767 14.6618 13.326 14.6618 13.48ZM13.7098 12.766C13.7098 12.5 13.6468 12.276 13.5208 12.094C13.3948 11.912 13.2011 11.821 12.9398 11.821C12.6738 11.821 12.4755 11.9073 12.3448 12.08C12.2188 12.2527 12.1558 12.4813 12.1558 12.766C12.1558 13.018 12.2211 13.2327 12.3518 13.41C12.4825 13.5873 12.6831 13.676 12.9538 13.676C13.1918 13.676 13.3761 13.5897 13.5068 13.417C13.6421 13.2397 13.7098 13.0227 13.7098 12.766ZM18.71 13.564C18.71 13.7647 18.703 13.963 18.689 14.159C18.675 14.355 18.647 14.544 18.605 14.726C18.5677 14.908 18.5093 15.0783 18.43 15.237C18.3553 15.3957 18.255 15.5357 18.129 15.657C18.003 15.7783 17.849 15.881 17.667 15.965C17.485 16.049 17.261 16.091 16.995 16.091C16.729 16.091 16.505 16.049 16.323 15.965C16.141 15.881 15.987 15.7783 15.861 15.657C15.735 15.5357 15.6323 15.3957 15.553 15.237C15.4783 15.0783 15.42 14.908 15.378 14.726C15.3407 14.544 15.315 14.355 15.301 14.159C15.287 13.963 15.28 13.7647 15.28 13.564C15.28 13.3633 15.287 13.165 15.301 12.969C15.315 12.773 15.3407 12.584 15.378 12.402C15.42 12.22 15.4783 12.0497 15.553 11.891C15.6323 11.7323 15.735 11.5923 15.861 11.471C15.987 11.3497 16.141 11.247 16.323 11.163C16.505 11.079 16.729 11.037 16.995 11.037C17.261 11.037 17.485 11.079 17.667 11.163C17.849 11.247 18.003 11.3497 18.129 11.471C18.255 11.5923 18.3553 11.7323 18.43 11.891C18.5093 12.0497 18.5677 12.22 18.605 12.402C18.647 12.584 18.675 12.773 18.689 12.969C18.703 13.165 18.71 13.3633 18.71 13.564ZM17.821 13.263C17.821 13.109 17.814 12.948 17.8 12.78C17.786 12.612 17.751 12.4603 17.695 12.325C17.639 12.185 17.555 12.0707 17.443 11.982C17.3357 11.8933 17.1863 11.849 16.995 11.849C16.8037 11.849 16.652 11.8933 16.54 11.982C16.4327 12.0707 16.351 12.185 16.295 12.325C16.239 12.4603 16.204 12.612 16.19 12.78C16.176 12.948 16.169 13.109 16.169 13.263V13.865C16.169 14.019 16.176 14.18 16.19 14.348C16.204 14.516 16.239 14.67 16.295 14.81C16.351 14.9453 16.4327 15.0573 16.54 15.146C16.652 15.2347 16.8037 15.279 16.995 15.279C17.1863 15.279 17.3357 15.2347 17.443 15.146C17.555 15.0573 17.639 14.9453 17.695 14.81C17.751 14.67 17.786 14.516 17.8 14.348C17.814 14.18 17.821 14.019 17.821 13.865V13.263Z" fill="#4D4D4D"/>
</svg>
