<svg width="30" height="30" viewBox="0 0 30 30" fill="none" xmlns="http://www.w3.org/2000/svg">
<rect width="30" height="30" fill="white"/>
<path d="M30 30H22.5H15H7.5H0V22.5003V15.0005V7.49975V0H7.5H15H22.5H30V7.49975V14.9995V22.4992V30ZM0.252287 29.7477H7.62614H15H22.3739H29.7477V22.3741V15.0005V7.62589V0.252279H22.3739H15H7.62614H0.252287V7.62589V14.9995V22.3731V29.7477Z" fill="#4D4D4D"/>
<path d="M30 22V21.9421V21.8843V21.8264V21.7685C28.8439 21.3235 27.6602 20.9279 26.4529 20.5844C25.2446 20.241 24.0117 19.9507 22.7583 19.7163C21.5049 19.482 20.2279 19.3027 18.9345 19.1822C17.6401 19.0617 16.3282 19 15 19C13.6718 19 12.3589 19.0617 11.0655 19.1822C9.77111 19.3027 8.49515 19.482 7.24173 19.7163C5.98832 19.9507 4.7554 20.2419 3.54708 20.5844C2.33875 20.9279 1.15605 21.3235 0 21.7685V21.8264V21.8843V21.9421V22C1.15503 21.5522 2.33773 21.1546 3.54605 20.8093C4.75335 20.4639 5.98627 20.1717 7.24071 19.9364C8.49515 19.7011 9.77111 19.5199 11.0655 19.3994C12.3599 19.278 13.6728 19.2163 15.002 19.2163C16.3303 19.2163 17.6431 19.278 18.9376 19.3994C20.232 19.5209 21.5079 19.7011 22.7624 19.9364C24.0168 20.1717 25.2487 20.4649 26.457 20.8093C27.6612 21.1546 28.845 21.5522 30 22Z" fill="#4D4D4D"/>
<path d="M13.8364 6.698C13.8204 6.894 13.7724 7.076 13.6924 7.244C13.6124 7.412 13.5064 7.558 13.3744 7.682C13.2424 7.806 13.0864 7.904 12.9064 7.976C12.7304 8.044 12.5364 8.078 12.3244 8.078C12.1204 8.078 11.9184 8.038 11.7184 7.958C11.5224 7.878 11.3504 7.764 11.2024 7.616C11.0864 7.5 10.9944 7.372 10.9264 7.232C10.8624 7.092 10.8144 6.948 10.7824 6.8C10.7504 6.648 10.7284 6.494 10.7164 6.338C10.7084 6.178 10.7044 6.022 10.7044 5.87C10.7044 5.718 10.7084 5.564 10.7164 5.408C10.7284 5.252 10.7504 5.098 10.7824 4.946C10.8144 4.794 10.8624 4.65 10.9264 4.514C10.9944 4.374 11.0864 4.246 11.2024 4.13C11.3504 3.982 11.5224 3.868 11.7184 3.788C11.9184 3.708 12.1204 3.668 12.3244 3.668C12.5364 3.668 12.7304 3.704 12.9064 3.776C13.0864 3.844 13.2424 3.94 13.3744 4.064C13.5064 4.188 13.6124 4.334 13.6924 4.502C13.7724 4.67 13.8204 4.852 13.8364 5.048H13.5124C13.5004 4.892 13.4624 4.748 13.3984 4.616C13.3344 4.484 13.2504 4.37 13.1464 4.274C13.0464 4.178 12.9264 4.104 12.7864 4.052C12.6464 4 12.4924 3.974 12.3244 3.974C12.1324 3.974 11.9644 4.006 11.8204 4.07C11.6764 4.134 11.5464 4.224 11.4304 4.34C11.3344 4.44 11.2584 4.552 11.2024 4.676C11.1504 4.8 11.1104 4.93 11.0824 5.066C11.0584 5.198 11.0424 5.334 11.0344 5.474C11.0304 5.61 11.0284 5.742 11.0284 5.87C11.0284 5.998 11.0304 6.132 11.0344 6.272C11.0424 6.408 11.0604 6.544 11.0884 6.68C11.1164 6.816 11.1564 6.946 11.2084 7.07C11.2644 7.194 11.3404 7.306 11.4364 7.406C11.6724 7.65 11.9684 7.772 12.3244 7.772C12.4924 7.772 12.6464 7.746 12.7864 7.694C12.9264 7.642 13.0464 7.568 13.1464 7.472C13.2504 7.376 13.3344 7.262 13.3984 7.13C13.4624 6.998 13.5004 6.854 13.5124 6.698H13.8364ZM17.4067 4.97C17.4067 4.666 17.3087 4.436 17.1127 4.28C16.9207 4.12 16.6487 4.04 16.2967 4.04H15.0547V5.9H16.2967C16.6487 5.9 16.9207 5.822 17.1127 5.666C17.3087 5.506 17.4067 5.274 17.4067 4.97ZM17.7307 4.97C17.7307 5.25 17.6507 5.492 17.4907 5.696C17.3307 5.9 17.1167 6.038 16.8487 6.11L17.7127 8H17.3707L16.5367 6.188H15.0547V8H14.7427V3.746H16.2967C16.5287 3.746 16.7327 3.776 16.9087 3.836C17.0887 3.892 17.2387 3.974 17.3587 4.082C17.4827 4.19 17.5747 4.32 17.6347 4.472C17.6987 4.62 17.7307 4.786 17.7307 4.97ZM18.6802 8V3.746H18.9982V8H18.6802Z" fill="#4D4D4D"/>
<path d="M6.0316 15.994L5.9956 15.448C5.9516 15.544 5.8936 15.632 5.8216 15.712C5.7536 15.788 5.6736 15.854 5.5816 15.91C5.4936 15.962 5.3976 16.002 5.2936 16.03C5.1896 16.058 5.0856 16.072 4.9816 16.072C4.6336 16.072 4.3696 15.974 4.1896 15.778C4.0136 15.582 3.9256 15.314 3.9256 14.974V12.994H4.2256V14.956C4.2256 15.22 4.2856 15.424 4.4056 15.568C4.5256 15.708 4.7236 15.778 4.9996 15.778C5.1836 15.778 5.3396 15.742 5.4676 15.67C5.5956 15.598 5.6976 15.502 5.7736 15.382C5.8536 15.262 5.9096 15.126 5.9416 14.974C5.9776 14.818 5.9956 14.658 5.9956 14.494V12.994H6.2956V15.994H6.0316ZM9.76365 14.5C9.76365 14.284 9.73165 14.082 9.66765 13.894C9.60765 13.706 9.50765 13.55 9.36765 13.426C9.29165 13.358 9.20565 13.306 9.10965 13.27C9.01365 13.234 8.90165 13.216 8.77365 13.216C8.64165 13.216 8.52565 13.238 8.42565 13.282C8.32565 13.326 8.23765 13.384 8.16165 13.456C8.02565 13.588 7.92765 13.744 7.86765 13.924C7.80765 14.1 7.77765 14.292 7.77765 14.5C7.77765 14.724 7.80565 14.924 7.86165 15.1C7.91765 15.272 8.01565 15.422 8.15565 15.55C8.23165 15.622 8.31965 15.68 8.41965 15.724C8.52365 15.764 8.64565 15.784 8.78565 15.784C8.92565 15.784 9.04765 15.76 9.15165 15.712C9.25565 15.664 9.34765 15.6 9.42765 15.52C9.54365 15.392 9.62765 15.238 9.67965 15.058C9.73565 14.878 9.76365 14.692 9.76365 14.5ZM10.0696 14.494C10.0696 14.742 10.0316 14.978 9.95565 15.202C9.87965 15.426 9.76165 15.614 9.60165 15.766C9.50165 15.862 9.38365 15.938 9.24765 15.994C9.11565 16.05 8.96165 16.078 8.78565 16.078C8.67765 16.078 8.57165 16.064 8.46765 16.036C8.36765 16.008 8.27365 15.968 8.18565 15.916C8.09765 15.864 8.01765 15.802 7.94565 15.73C7.87765 15.658 7.82365 15.58 7.78365 15.496V17.2H7.48365V13H7.74765L7.78365 13.528C7.82365 13.436 7.87965 13.352 7.95165 13.276C8.02365 13.2 8.10365 13.136 8.19165 13.084C8.27965 13.032 8.37365 12.992 8.47365 12.964C8.57765 12.936 8.67965 12.922 8.77965 12.922C8.95165 12.922 9.10165 12.948 9.22965 13C9.36165 13.048 9.47765 13.116 9.57765 13.204C9.74565 13.352 9.86965 13.54 9.94965 13.768C10.0296 13.992 10.0696 14.234 10.0696 14.494ZM13.6986 15.97C13.6146 15.99 13.5306 16.006 13.4466 16.018C13.3666 16.034 13.2846 16.042 13.2006 16.042C12.9206 16.042 12.7206 15.962 12.6006 15.802C12.4846 15.638 12.4266 15.426 12.4266 15.166V13.276H11.8266V13H12.4266V12.172L12.7266 12.1V13H13.6566V13.276H12.7266V15.154C12.7266 15.242 12.7326 15.324 12.7446 15.4C12.7606 15.472 12.7866 15.536 12.8226 15.592C12.8626 15.644 12.9146 15.686 12.9786 15.718C13.0426 15.746 13.1246 15.76 13.2246 15.76C13.3046 15.76 13.3826 15.756 13.4586 15.748C13.5386 15.736 13.6186 15.722 13.6986 15.706V15.97ZM16.4787 14.5C16.4787 14.304 16.4567 14.12 16.4127 13.948C16.3687 13.776 16.2787 13.62 16.1427 13.48C16.0627 13.4 15.9687 13.336 15.8607 13.288C15.7527 13.24 15.6267 13.216 15.4827 13.216C15.3387 13.216 15.2127 13.24 15.1047 13.288C14.9967 13.336 14.9027 13.4 14.8227 13.48C14.6867 13.62 14.5967 13.776 14.5527 13.948C14.5087 14.12 14.4867 14.304 14.4867 14.5C14.4867 14.696 14.5087 14.88 14.5527 15.052C14.5967 15.224 14.6867 15.38 14.8227 15.52C14.9027 15.6 14.9967 15.664 15.1047 15.712C15.2127 15.76 15.3387 15.784 15.4827 15.784C15.6267 15.784 15.7527 15.76 15.8607 15.712C15.9687 15.664 16.0627 15.6 16.1427 15.52C16.2787 15.38 16.3687 15.224 16.4127 15.052C16.4567 14.88 16.4787 14.696 16.4787 14.5ZM16.7847 14.5C16.7847 14.756 16.7527 14.984 16.6887 15.184C16.6247 15.384 16.5147 15.562 16.3587 15.718C16.2547 15.822 16.1287 15.908 15.9807 15.976C15.8367 16.044 15.6707 16.078 15.4827 16.078C15.2947 16.078 15.1267 16.044 14.9787 15.976C14.8347 15.908 14.7107 15.822 14.6067 15.718C14.4507 15.562 14.3407 15.384 14.2767 15.184C14.2127 14.984 14.1807 14.756 14.1807 14.5C14.1807 14.244 14.2127 14.016 14.2767 13.816C14.3407 13.616 14.4507 13.438 14.6067 13.282C14.7107 13.178 14.8347 13.092 14.9787 13.024C15.1267 12.956 15.2947 12.922 15.4827 12.922C15.6707 12.922 15.8367 12.956 15.9807 13.024C16.1287 13.092 16.2547 13.178 16.3587 13.282C16.5147 13.438 16.6247 13.616 16.6887 13.816C16.7527 14.016 16.7847 14.244 16.7847 14.5ZM22.278 13.48C22.278 13.6573 22.2734 13.844 22.264 14.04C22.2547 14.2313 22.2314 14.4203 22.194 14.607C22.1567 14.7937 22.103 14.9733 22.033 15.146C21.963 15.3187 21.865 15.4703 21.739 15.601C21.6037 15.741 21.445 15.8577 21.263 15.951C21.081 16.0443 20.843 16.091 20.549 16.091C20.297 16.091 20.08 16.056 19.898 15.986C19.716 15.9113 19.562 15.8133 19.436 15.692C19.3007 15.5613 19.198 15.4167 19.128 15.258C19.058 15.0947 19.023 14.9407 19.023 14.796H19.905C19.919 14.9453 19.975 15.069 20.073 15.167C20.185 15.2837 20.3577 15.342 20.591 15.342C20.7077 15.342 20.801 15.3233 20.871 15.286C20.9457 15.2487 21.0134 15.202 21.074 15.146C21.2047 15.0247 21.2934 14.8637 21.34 14.663C21.3867 14.4577 21.41 14.2477 21.41 14.033C21.354 14.0983 21.2887 14.1543 21.214 14.201C21.1394 14.243 21.06 14.278 20.976 14.306C20.892 14.334 20.808 14.355 20.724 14.369C20.64 14.383 20.5607 14.39 20.486 14.39C20.2247 14.39 19.9937 14.3503 19.793 14.271C19.5924 14.1917 19.4244 14.0797 19.289 13.935C19.1537 13.7857 19.051 13.6107 18.981 13.41C18.9157 13.2047 18.883 12.9783 18.883 12.731C18.883 12.493 18.918 12.2713 18.988 12.066C19.058 11.8607 19.163 11.681 19.303 11.527C19.443 11.373 19.618 11.254 19.828 11.17C20.038 11.0813 20.2807 11.037 20.556 11.037C20.7847 11.037 20.9924 11.0767 21.179 11.156C21.3657 11.2307 21.529 11.338 21.669 11.478C21.809 11.6133 21.9234 11.7743 22.012 11.961C22.1007 12.1477 22.1637 12.3507 22.201 12.57C22.229 12.7287 22.2477 12.8827 22.257 13.032C22.271 13.1767 22.278 13.326 22.278 13.48ZM21.326 12.766C21.326 12.5 21.263 12.276 21.137 12.094C21.011 11.912 20.8174 11.821 20.556 11.821C20.29 11.821 20.0917 11.9073 19.961 12.08C19.835 12.2527 19.772 12.4813 19.772 12.766C19.772 13.018 19.8374 13.2327 19.968 13.41C20.0987 13.5873 20.2994 13.676 20.57 13.676C20.808 13.676 20.9924 13.5897 21.123 13.417C21.2584 13.2397 21.326 13.0227 21.326 12.766ZM26.3262 13.564C26.3262 13.7647 26.3192 13.963 26.3052 14.159C26.2912 14.355 26.2632 14.544 26.2212 14.726C26.1839 14.908 26.1255 15.0783 26.0462 15.237C25.9715 15.3957 25.8712 15.5357 25.7452 15.657C25.6192 15.7783 25.4652 15.881 25.2832 15.965C25.1012 16.049 24.8772 16.091 24.6112 16.091C24.3452 16.091 24.1212 16.049 23.9392 15.965C23.7572 15.881 23.6032 15.7783 23.4772 15.657C23.3512 15.5357 23.2485 15.3957 23.1692 15.237C23.0945 15.0783 23.0362 14.908 22.9942 14.726C22.9569 14.544 22.9312 14.355 22.9172 14.159C22.9032 13.963 22.8962 13.7647 22.8962 13.564C22.8962 13.3633 22.9032 13.165 22.9172 12.969C22.9312 12.773 22.9569 12.584 22.9942 12.402C23.0362 12.22 23.0945 12.0497 23.1692 11.891C23.2485 11.7323 23.3512 11.5923 23.4772 11.471C23.6032 11.3497 23.7572 11.247 23.9392 11.163C24.1212 11.079 24.3452 11.037 24.6112 11.037C24.8772 11.037 25.1012 11.079 25.2832 11.163C25.4652 11.247 25.6192 11.3497 25.7452 11.471C25.8712 11.5923 25.9715 11.7323 26.0462 11.891C26.1255 12.0497 26.1839 12.22 26.2212 12.402C26.2632 12.584 26.2912 12.773 26.3052 12.969C26.3192 13.165 26.3262 13.3633 26.3262 13.564ZM25.4372 13.263C25.4372 13.109 25.4302 12.948 25.4162 12.78C25.4022 12.612 25.3672 12.4603 25.3112 12.325C25.2552 12.185 25.1712 12.0707 25.0592 11.982C24.9519 11.8933 24.8025 11.849 24.6112 11.849C24.4199 11.849 24.2682 11.8933 24.1562 11.982C24.0489 12.0707 23.9672 12.185 23.9112 12.325C23.8552 12.4603 23.8202 12.612 23.8062 12.78C23.7922 12.948 23.7852 13.109 23.7852 13.263V13.865C23.7852 14.019 23.7922 14.18 23.8062 14.348C23.8202 14.516 23.8552 14.67 23.9112 14.81C23.9672 14.9453 24.0489 15.0573 24.1562 15.146C24.2682 15.2347 24.4199 15.279 24.6112 15.279C24.8025 15.279 24.9519 15.2347 25.0592 15.146C25.1712 15.0573 25.2552 14.9453 25.3112 14.81C25.3672 14.67 25.4022 14.516 25.4162 14.348C25.4302 14.18 25.4372 14.019 25.4372 13.865V13.263Z" fill="#4D4D4D"/>
</svg>
