<svg width="30" height="30" viewBox="0 0 30 30" fill="none" xmlns="http://www.w3.org/2000/svg">
<rect width="30" height="30" fill="white"/>
<path d="M30 30H22.5H15H7.5H0V22.5003V15.0005V7.49975V0H7.5H15H22.5H30V7.49975V14.9995V22.4992V30ZM0.252287 29.7477H7.62614H15H22.3739H29.7477V22.3741V15.0005V7.62589V0.252279H22.3739H15H7.62614H0.252287V7.62589V14.9995V22.3731V29.7477Z" fill="#4D4D4D"/>
<path d="M4.227 12.6873V12.2233V11.7593V11.2943V10.8303H6.717H9.206H11.695H14.184V10.7743V10.7173V10.6613V10.6053H11.638H9.092H6.546H4V11.1823V11.7593V12.3353V12.9123H6.546H9.092H11.638H14.184V12.8563V12.8003V12.7433V12.6873H11.695H9.206H6.717H4.227Z" fill="#5F5357"/>
<path d="M14.184 10.6063V10.6623V10.7183V10.7743V10.8313V10.9313V11.0313V11.1313V11.2323H14.241H14.297H14.354H14.411V11.1313V11.0313V10.9313V10.8313V10.7743V10.7183V10.6623V10.6063H14.354H14.297H14.241H14.184Z" fill="#5F5357"/>
<path d="M14.183 11.9693H14.24H14.297H14.354H14.41V11.8733V11.7773V11.6813V11.5863H14.354H14.297H14.24H14.183V11.6813V11.7773V11.8733V11.9693Z" fill="#5F5357"/>
<path d="M14.184 12.3213V12.4133V12.5043V12.5963V12.6873V12.7433V12.8003V12.8563V12.9123H14.241H14.297H14.354H14.411V12.8563V12.8003V12.7433V12.6873V12.5963V12.5043V12.4133V12.3213H14.354H14.297H14.241H14.184Z" fill="#5F5357"/>
<path d="M14.183 11.5863H14.24H14.297H14.354H14.41V11.4973V11.4093V11.3203V11.2323H14.354H14.297H14.24H14.183V11.3203V11.4093V11.4973V11.5863Z" fill="white"/>
<path d="M14.183 12.3213H14.24H14.297H14.354H14.41V12.2333V12.1443V12.0563V11.9683H14.354H14.297H14.24H14.183V12.0563V12.1443V12.2333V12.3213Z" fill="white"/>
<path d="M24.619 19.2493C24.597 19.3433 24.577 19.4343 24.552 19.5203C24.527 19.6063 24.498 19.6863 24.456 19.7573C24.414 19.8283 24.359 19.8893 24.283 19.9383C24.207 19.9873 24.111 20.0223 23.986 20.0413C23.835 20.0643 23.629 20.0023 23.406 19.8963C23.183 19.7903 22.943 19.6413 22.722 19.4893C22.501 19.3373 22.298 19.1823 22.151 19.0643C22.004 18.9473 21.912 18.8683 21.912 18.8683L21.63 18.6303L21.348 18.3923L21.066 18.1543L20.784 17.9163C20.972 17.7313 21.214 17.6033 21.479 17.5213C21.744 17.4393 22.032 17.4023 22.312 17.4003C22.592 17.3983 22.863 17.4303 23.096 17.4863C23.328 17.5413 23.521 17.6203 23.644 17.7113C23.767 17.8023 23.898 17.9073 24.023 18.0233C24.148 18.1393 24.268 18.2663 24.368 18.3993C24.468 18.5323 24.548 18.6733 24.595 18.8163C24.642 18.9583 24.655 19.1043 24.619 19.2493ZM19.823 22.5253C19.788 22.6893 19.749 22.8223 19.702 22.9303C19.655 23.0373 19.598 23.1193 19.528 23.1793C19.458 23.2393 19.373 23.2783 19.268 23.3003C19.164 23.3223 19.04 23.3273 18.891 23.3203C18.74 23.3133 18.603 23.2763 18.48 23.2173C18.356 23.1573 18.246 23.0743 18.147 22.9743C18.048 22.8743 17.962 22.7583 17.886 22.6313C17.81 22.5043 17.746 22.3673 17.691 22.2263C17.636 22.0853 17.612 21.8633 17.621 21.6053C17.63 21.3473 17.673 21.0543 17.751 20.7713C17.829 20.4883 17.943 20.2163 18.095 19.9993C18.247 19.7833 18.437 19.6223 18.668 19.5643C18.668 19.5643 18.742 19.7243 18.854 19.9703C18.965 20.2163 19.113 20.5493 19.259 20.8943C19.405 21.2393 19.551 21.5973 19.658 21.8933C19.765 22.1893 19.832 22.4243 19.823 22.5253ZM21.342 16.7633C21.017 16.8463 20.719 16.8863 20.457 16.8993C20.194 16.9123 19.966 16.8993 19.779 16.8753C19.592 16.8513 19.445 16.8173 19.345 16.7893C19.245 16.7613 19.192 16.7383 19.192 16.7383L18.965 16.5703L18.738 16.4023L18.511 16.2343L18.286 16.0673C18.066 15.5033 17.783 14.8203 17.474 14.0903C17.164 13.3603 16.828 12.5823 16.499 11.8263C16.171 11.0713 15.851 10.3383 15.574 9.69826C15.298 9.05826 15.065 8.51126 14.912 8.12826C14.708 7.61626 14.513 7.23426 14.336 6.95026C14.159 6.66626 13.999 6.48026 13.864 6.35726C13.729 6.23426 13.621 6.17626 13.545 6.14826C13.469 6.12026 13.428 6.12326 13.428 6.12326L14.298 8.35426L15.168 10.5853L16.038 12.8163L16.908 15.0473L14.958 13.6053L13.008 12.1633L11.058 10.7213L9.10798 9.27926C9.10798 9.27926 9.09598 9.32226 9.10398 9.40726C9.11298 9.49126 9.14198 9.61726 9.22698 9.78326C9.31198 9.94926 9.45098 10.1533 9.67798 10.3963C9.90498 10.6393 10.221 10.9193 10.658 11.2353C10.998 11.4813 11.477 11.8573 12.036 12.3063C12.595 12.7553 13.233 13.2773 13.89 13.8143C14.547 14.3513 15.222 14.9013 15.855 15.4093C16.488 15.9163 17.079 16.3793 17.568 16.7403L17.664 16.9873L17.76 17.2343L17.856 17.4813L17.952 17.7283C17.952 17.7283 17.959 17.7843 17.96 17.8873C17.961 17.9903 17.954 18.1383 17.927 18.3233C17.9 18.5083 17.851 18.7283 17.767 18.9743C17.683 19.2203 17.563 19.4913 17.394 19.7783C17.242 20.0353 17.097 20.3623 16.993 20.7263C16.889 21.0903 16.827 21.4923 16.842 21.8993C16.857 22.3063 16.948 22.7163 17.151 23.1003C17.354 23.4843 17.669 23.8383 18.131 24.1323C18.523 24.3823 18.886 24.4863 19.212 24.4953C19.537 24.5043 19.825 24.4163 20.063 24.2813C20.301 24.1463 20.492 23.9643 20.623 23.7843C20.754 23.6043 20.826 23.4253 20.829 23.2983C20.832 23.1703 20.729 22.8393 20.572 22.4133C20.416 21.9873 20.207 21.4673 19.997 20.9643C19.787 20.4613 19.578 19.9723 19.42 19.6103C19.262 19.2483 19.157 19.0123 19.157 19.0123L19.009 18.6333L18.861 18.2543L18.713 17.8753L18.565 17.4963C18.565 17.4963 18.56 17.4823 18.549 17.4563C18.539 17.4303 18.523 17.3913 18.504 17.3403C18.485 17.2893 18.46 17.2283 18.432 17.1573C18.404 17.0863 18.372 17.0053 18.337 16.9153C18.408 16.9673 18.472 17.0153 18.528 17.0563C18.584 17.0983 18.633 17.1343 18.673 17.1633C18.713 17.1923 18.744 17.2153 18.765 17.2313C18.786 17.2473 18.797 17.2553 18.797 17.2553L19.194 17.5493L19.591 17.8433L19.988 18.1373L20.385 18.4313C20.385 18.4313 20.578 18.6043 20.883 18.8623C21.188 19.1203 21.602 19.4633 22.046 19.8013C22.49 20.1393 22.962 20.4743 23.38 20.7153C23.798 20.9563 24.163 21.1043 24.391 21.0703C24.489 21.0563 24.635 21.0073 24.789 20.9153C24.943 20.8233 25.107 20.6873 25.24 20.4973C25.373 20.3073 25.478 20.0653 25.515 19.7603C25.552 19.4553 25.521 19.0873 25.384 18.6483C25.223 18.1293 24.962 17.7333 24.644 17.4363C24.326 17.1393 23.95 16.9403 23.558 16.8153C23.166 16.6903 22.757 16.6403 22.374 16.6403C21.992 16.6393 21.634 16.6883 21.342 16.7633Z" fill="white"/>
<path d="M19.26 24.6203C19.162 24.6203 19.063 24.6124 18.964 24.5963C18.865 24.5803 18.765 24.5563 18.664 24.5243C18.563 24.4923 18.463 24.4524 18.363 24.4053C18.263 24.3583 18.163 24.3023 18.063 24.2393C17.603 23.9464 17.281 23.5903 17.067 23.2034C16.853 22.8164 16.749 22.3973 16.723 21.9793C16.697 21.5613 16.751 21.1423 16.855 20.7543C16.959 20.3663 17.112 20.0103 17.286 19.7163C17.447 19.4433 17.561 19.1843 17.643 18.9493C17.725 18.7143 17.772 18.5023 17.799 18.3253C17.826 18.1483 17.834 18.0043 17.834 17.9043C17.834 17.8043 17.828 17.7483 17.828 17.7463L17.737 17.5153L17.646 17.2843L17.555 17.0533L17.464 16.8223C17.209 16.6333 16.929 16.4193 16.63 16.1853C16.331 15.9523 16.015 15.7003 15.687 15.4373C15.359 15.1743 15.02 14.8993 14.676 14.6203C14.332 14.3413 13.985 14.0573 13.64 13.7753C13.33 13.5223 13.025 13.2723 12.731 13.0333C12.437 12.7943 12.154 12.5653 11.89 12.3533C11.626 12.1413 11.38 11.9463 11.16 11.7753C10.94 11.6043 10.746 11.4563 10.584 11.3393C10.142 11.0193 9.81899 10.7343 9.58499 10.4843C9.35099 10.2343 9.20399 10.0203 9.11399 9.84435C9.02399 9.66835 8.99199 9.52835 8.98099 9.42835C8.96999 9.32835 8.98399 9.26735 8.98999 9.24835L9.00199 9.20535L9.01399 9.16235L9.02599 9.11935L9.03799 9.07635L10.937 10.4803L12.836 11.8843L14.735 13.2883L16.634 14.6923L15.788 12.5223L14.942 10.3523L14.096 8.18235L13.25 6.01235L13.292 6.00935L13.334 6.00635L13.376 6.00335L13.418 6.00035C13.435 5.99935 13.493 5.99835 13.582 6.03035C13.671 6.06235 13.793 6.12835 13.937 6.25935C14.081 6.39035 14.251 6.58535 14.435 6.87935C14.619 7.17335 14.819 7.56335 15.026 8.08235C15.091 8.24435 15.169 8.43335 15.258 8.64635C15.347 8.85935 15.448 9.09635 15.558 9.35235C15.668 9.60835 15.787 9.88335 15.913 10.1743C16.039 10.4653 16.172 10.7703 16.309 11.0863C16.493 11.5083 16.682 11.9443 16.871 12.3803C17.06 12.8163 17.249 13.2543 17.431 13.6803C17.613 14.1063 17.787 14.5203 17.949 14.9083C18.111 15.2963 18.258 15.6613 18.385 15.9873L18.604 16.1493L18.823 16.3113L19.042 16.4733L19.261 16.6353C19.264 16.6353 19.316 16.6553 19.413 16.6793C19.51 16.7033 19.651 16.7333 19.829 16.7533C20.007 16.7733 20.224 16.7833 20.472 16.7693C20.72 16.7553 21 16.7163 21.305 16.6383C21.638 16.5533 22.027 16.5043 22.432 16.5123C22.837 16.5203 23.26 16.5823 23.66 16.7213C24.06 16.8603 24.44 17.0733 24.759 17.3813C25.078 17.6893 25.337 18.0923 25.498 18.6083C25.571 18.8443 25.614 19.0593 25.634 19.2533C25.654 19.4473 25.65 19.6223 25.631 19.7783C25.612 19.9343 25.577 20.0703 25.533 20.1893C25.489 20.3083 25.437 20.4093 25.384 20.4943C25.308 20.6143 25.222 20.7163 25.132 20.8013C25.042 20.8863 24.948 20.9563 24.858 21.0113C24.768 21.0663 24.679 21.1073 24.601 21.1363C24.523 21.1653 24.455 21.1823 24.403 21.1903C24.164 21.2273 23.807 21.0963 23.402 20.8753C22.997 20.6543 22.544 20.3433 22.11 20.0183C21.676 19.6933 21.263 19.3553 20.938 19.0793C20.613 18.8033 20.376 18.5923 20.296 18.5203L19.874 18.2083L19.452 17.8963L19.03 17.5843L18.608 17.2723L18.773 17.6963L18.938 18.1203L19.103 18.5443L19.268 18.9683C19.311 19.0643 19.438 19.3503 19.604 19.7333C19.77 20.1163 19.976 20.5973 20.176 21.0823C20.376 21.5673 20.57 22.0564 20.714 22.4573C20.858 22.8583 20.95 23.1703 20.948 23.3013C20.946 23.3804 20.924 23.4713 20.884 23.5683C20.844 23.6653 20.785 23.7673 20.71 23.8693C20.635 23.9713 20.544 24.0713 20.438 24.1643C20.332 24.2573 20.213 24.3414 20.081 24.4123C20.016 24.4473 19.95 24.4774 19.882 24.5033C19.814 24.5293 19.747 24.5513 19.677 24.5683C19.607 24.5854 19.538 24.5983 19.467 24.6073C19.396 24.6164 19.332 24.6203 19.26 24.6203ZM9.26699 9.55435C9.29099 9.62535 9.32899 9.71235 9.38899 9.81535C9.44799 9.91735 9.52999 10.0353 9.64199 10.1673C9.75399 10.2993 9.89499 10.4473 10.075 10.6093C10.255 10.7713 10.471 10.9473 10.734 11.1373C10.897 11.2553 11.093 11.4033 11.314 11.5753C11.535 11.7473 11.782 11.9433 12.047 12.1553C12.312 12.3673 12.595 12.5973 12.89 12.8373C13.185 13.0773 13.491 13.3273 13.801 13.5813C14.148 13.8653 14.499 14.1513 14.845 14.4333C15.191 14.7153 15.533 14.9913 15.863 15.2563C16.193 15.5213 16.511 15.7733 16.811 16.0073C17.111 16.2413 17.391 16.4553 17.645 16.6433L17.652 16.6483L17.659 16.6533L17.666 16.6583L17.673 16.6633L17.772 16.9183L17.871 17.1733L17.97 17.4283L18.069 17.6833C18.072 17.7003 18.081 17.7703 18.083 17.8843C18.085 17.9983 18.078 18.1563 18.049 18.3493C18.02 18.5423 17.97 18.7683 17.883 19.0203C17.796 19.2723 17.674 19.5493 17.501 19.8423C17.339 20.1153 17.196 20.4463 17.099 20.8053C17.002 21.1643 16.951 21.5523 16.973 21.9403C16.995 22.3283 17.09 22.7153 17.285 23.0723C17.48 23.4293 17.775 23.7574 18.198 24.0264C18.394 24.1514 18.579 24.2363 18.752 24.2903C18.925 24.3444 19.087 24.3683 19.236 24.3703C19.385 24.3724 19.521 24.3524 19.643 24.3193C19.765 24.2863 19.874 24.2403 19.968 24.1903C20.084 24.1283 20.188 24.0543 20.279 23.9743C20.37 23.8944 20.446 23.8103 20.509 23.7273C20.572 23.6443 20.619 23.5623 20.652 23.4873C20.685 23.4123 20.702 23.3463 20.703 23.2943C20.705 23.2053 20.644 22.9913 20.541 22.6953C20.438 22.3993 20.293 22.0233 20.127 21.6103C19.961 21.1973 19.774 20.7493 19.586 20.3093C19.398 19.8693 19.21 19.4383 19.042 19.0623L18.797 18.4363L18.552 17.8103L18.307 17.1843L18.062 16.5583L18.661 17.0013L19.26 17.4443L19.859 17.8873L20.458 18.3303C20.667 18.5173 20.965 18.7743 21.305 19.0553C21.645 19.3363 22.03 19.6403 22.412 19.9213C22.794 20.2023 23.174 20.4593 23.506 20.6463C23.838 20.8333 24.122 20.9503 24.313 20.9503C24.318 20.9503 24.323 20.9503 24.328 20.9503C24.333 20.9503 24.338 20.9503 24.342 20.9493C24.346 20.9483 24.351 20.9483 24.356 20.9483C24.361 20.9483 24.365 20.9473 24.37 20.9463C24.419 20.9393 24.479 20.9223 24.545 20.8963C24.611 20.8703 24.684 20.8333 24.758 20.7853C24.832 20.7373 24.907 20.6793 24.978 20.6093C25.049 20.5393 25.117 20.4583 25.176 20.3643C25.244 20.2573 25.296 20.1413 25.334 20.0173C25.372 19.8933 25.394 19.7613 25.401 19.6203C25.408 19.4793 25.4 19.3323 25.378 19.1763C25.356 19.0203 25.317 18.8563 25.264 18.6853C25.116 18.2103 24.877 17.8413 24.582 17.5583C24.287 17.2753 23.935 17.0803 23.563 16.9543C23.191 16.8283 22.799 16.7713 22.421 16.7653C22.043 16.7593 21.682 16.8053 21.371 16.8833C21.039 16.9683 20.737 17.0103 20.468 17.0243C20.199 17.0383 19.966 17.0253 19.772 17.0013C19.578 16.9773 19.425 16.9423 19.318 16.9113C19.211 16.8803 19.15 16.8563 19.141 16.8523L18.901 16.6753L18.661 16.4983L18.421 16.3213L18.181 16.1443L18.178 16.1363L18.175 16.1283L18.172 16.1203L18.169 16.1123C18.042 15.7873 17.895 15.4233 17.733 15.0333C17.571 14.6433 17.396 14.2273 17.213 13.7993C17.03 13.3713 16.84 12.9303 16.65 12.4903C16.46 12.0503 16.268 11.6113 16.083 11.1863C15.945 10.8693 15.812 10.5633 15.686 10.2733C15.56 9.98335 15.44 9.70635 15.33 9.45035C15.22 9.19435 15.119 8.95635 15.029 8.74235C14.939 8.52835 14.861 8.33835 14.796 8.17535C14.675 7.87235 14.558 7.61635 14.447 7.40135C14.336 7.18635 14.23 7.01035 14.132 6.86735C14.034 6.72435 13.943 6.61535 13.862 6.53135C13.781 6.44735 13.709 6.38735 13.649 6.34635L14.532 8.61135L15.415 10.8763L16.298 13.1413L17.181 15.4063L15.202 13.9433L13.223 12.4803L11.246 11.0173L9.26699 9.55435ZM19.006 23.4473C18.996 23.4473 18.987 23.4473 18.977 23.4473C18.967 23.4473 18.957 23.4473 18.947 23.4464C18.937 23.4454 18.927 23.4453 18.917 23.4453C18.907 23.4453 18.897 23.4443 18.886 23.4443C18.744 23.4373 18.609 23.4073 18.482 23.3543C18.355 23.3013 18.236 23.2243 18.126 23.1263C18.016 23.0283 17.914 22.9063 17.822 22.7643C17.73 22.6223 17.647 22.4573 17.575 22.2723C17.534 22.1663 17.508 22.0253 17.498 21.8623C17.488 21.6993 17.494 21.5143 17.517 21.3213C17.54 21.1283 17.578 20.9263 17.633 20.7293C17.688 20.5323 17.76 20.3413 17.849 20.1683C17.9 20.0693 17.955 19.9803 18.014 19.8993C18.073 19.8183 18.136 19.7483 18.202 19.6873C18.268 19.6263 18.338 19.5753 18.411 19.5343C18.484 19.4933 18.559 19.4633 18.637 19.4433L18.662 19.4373L18.687 19.4313L18.712 19.4253L18.737 19.4193L18.748 19.4423L18.759 19.4653L18.77 19.4883L18.781 19.5113C18.831 19.6193 18.932 19.8363 19.053 20.1083C19.174 20.3803 19.318 20.7053 19.453 21.0313C19.588 21.3573 19.717 21.6813 19.808 21.9503C19.899 22.2193 19.956 22.4333 19.946 22.5373L19.945 22.5413L19.944 22.5453L19.943 22.5493L19.942 22.5533C19.906 22.7213 19.865 22.8603 19.815 22.9763C19.765 23.0923 19.705 23.1824 19.632 23.2533C19.559 23.3243 19.473 23.3723 19.369 23.4043C19.265 23.4363 19.148 23.4473 19.006 23.4473ZM18.602 19.7173C18.539 19.7443 18.481 19.7803 18.428 19.8223C18.375 19.8643 18.326 19.9123 18.282 19.9633C18.238 20.0143 18.199 20.0683 18.164 20.1223C18.129 20.1763 18.098 20.2303 18.072 20.2813C17.986 20.4483 17.919 20.6303 17.869 20.8153C17.819 21.0003 17.785 21.1873 17.766 21.3633C17.747 21.5393 17.742 21.7043 17.75 21.8453C17.758 21.9863 17.778 22.1023 17.809 22.1813C17.853 22.2933 17.906 22.4113 17.971 22.5253C18.036 22.6393 18.112 22.7493 18.201 22.8463C18.29 22.9433 18.391 23.0273 18.507 23.0883C18.623 23.1493 18.753 23.1883 18.899 23.1953C19.033 23.2013 19.143 23.1994 19.233 23.1824C19.323 23.1653 19.395 23.1343 19.454 23.0833C19.513 23.0323 19.559 22.9633 19.598 22.8693C19.637 22.7753 19.669 22.6574 19.701 22.5093C19.704 22.4403 19.665 22.2923 19.598 22.0943C19.531 21.8963 19.436 21.6483 19.326 21.3773C19.216 21.1063 19.092 20.8153 18.967 20.5293C18.842 20.2433 18.715 19.9623 18.602 19.7173ZM23.925 20.1703C23.757 20.1703 23.551 20.1033 23.335 19.9993C23.119 19.8953 22.892 19.7573 22.682 19.6143C22.472 19.4713 22.277 19.3243 22.127 19.2053C21.977 19.0863 21.869 18.9943 21.832 18.9623L21.524 18.7023L21.216 18.4423L20.908 18.1823L20.6 17.9223L20.624 17.8983L20.648 17.8743L20.672 17.8503L20.696 17.8263C20.897 17.6283 21.154 17.4903 21.433 17.4023C21.712 17.3143 22.015 17.2743 22.309 17.2723C22.603 17.2703 22.888 17.3053 23.134 17.3653C23.38 17.4253 23.585 17.5113 23.718 17.6093C23.856 17.7113 23.999 17.8273 24.133 17.9523C24.267 18.0773 24.392 18.2143 24.495 18.3573C24.598 18.5003 24.679 18.6503 24.724 18.8053C24.769 18.9603 24.779 19.1183 24.74 19.2783L24.735 19.2973L24.73 19.3163L24.725 19.3353L24.72 19.3543C24.7 19.4393 24.68 19.5273 24.652 19.6123C24.624 19.6973 24.588 19.7803 24.538 19.8553C24.488 19.9303 24.422 19.9973 24.336 20.0503C24.25 20.1033 24.141 20.1433 24.004 20.1643C23.998 20.1653 23.991 20.1663 23.984 20.1673C23.977 20.1683 23.971 20.1683 23.964 20.1693C23.957 20.1703 23.951 20.1703 23.944 20.1703C23.937 20.1703 23.932 20.1703 23.925 20.1703ZM20.977 17.9133L21.231 18.1283L21.485 18.3433L21.739 18.5583L21.993 18.7733C22.092 18.8583 22.237 18.9773 22.406 19.1053C22.575 19.2333 22.767 19.3723 22.961 19.4973C23.155 19.6223 23.351 19.7363 23.526 19.8133C23.701 19.8903 23.856 19.9333 23.968 19.9173C24.063 19.9023 24.138 19.8783 24.197 19.8433C24.256 19.8083 24.301 19.7653 24.337 19.7123C24.373 19.6593 24.398 19.5983 24.42 19.5283C24.442 19.4583 24.46 19.3813 24.48 19.2973L24.485 19.2773L24.49 19.2573L24.495 19.2373L24.5 19.2173C24.532 19.0843 24.516 18.9483 24.466 18.8143C24.416 18.6803 24.334 18.5493 24.235 18.4253C24.136 18.3013 24.021 18.1843 23.905 18.0793C23.789 17.9743 23.673 17.8833 23.572 17.8083C23.46 17.7253 23.287 17.6553 23.079 17.6053C22.871 17.5553 22.629 17.5253 22.378 17.5233C22.127 17.5213 21.867 17.5473 21.625 17.6093C21.383 17.6713 21.158 17.7713 20.977 17.9133Z" fill="#4D4D4D"/>
<path d="M14.411 10.6053V10.6613V10.7183V10.7743V10.8303H16.91H19.41H21.909H24.408V11.2953V11.7593V12.2233V12.6873H21.909H19.41H16.91H14.411V12.7443V12.8003V12.8563V12.9123H16.967H19.524H22.08H24.636V12.3363V11.7593V11.1823V10.6053H22.08H19.524H16.967H14.411Z" fill="#5F5357"/>
<path d="M14.411 12.6873H16.911H19.41H21.909H24.408V12.2223V11.7583V11.2943V10.8303H21.909H19.41H16.911H14.411V11.2943V11.7583V12.2223V12.6873Z" fill="white"/>
</svg>
