<svg width="30" height="30" viewBox="0 0 30 30" fill="none" xmlns="http://www.w3.org/2000/svg">
<rect width="30" height="30" fill="white"/>
<path d="M30 30H22.5H15H7.5H0V22.5003V15.0005V7.49975V0H7.5H15H22.5H30V7.49975V14.9995V22.4992V30ZM0.252287 29.7477H7.62614H15H22.3739H29.7477V22.3741V15.0005V7.62589V0.252279H22.3739H15H7.62614H0.252287V7.62589V14.9995V22.3731V29.7477Z" fill="#4D4D4D"/>
<path d="M27 15.4509V15.2199V14.9889V14.758V14.527C26.924 12.9401 26.5313 11.4254 25.8856 10.0473C25.2399 8.66919 24.3401 7.42776 23.2536 6.38362C22.1671 5.33947 20.8929 4.49356 19.4956 3.90846C18.0983 3.32335 16.5778 3 14.9995 3C13.4213 3 11.9008 3.32335 10.5034 3.90846C9.1061 4.49356 7.83291 5.34043 6.74642 6.3865C5.65993 7.43258 4.76206 8.67593 4.11536 10.0569C3.46866 11.4379 3.07603 12.9555 3 14.5472V14.7782V15.0091V15.2401V15.4711C3.07603 17.058 3.46866 18.5727 4.1144 19.9508C4.76013 21.3289 5.65897 22.5722 6.74546 23.6164C7.83195 24.6605 9.1061 25.5064 10.5034 26.0915C11.9008 26.6767 13.4213 27 14.9995 27C16.5778 27 18.0983 26.6767 19.4956 26.0915C20.8929 25.5064 22.1671 24.6596 23.2536 23.6145C24.3401 22.5693 25.2389 21.325 25.8846 19.9441C26.5304 18.5602 26.924 17.0426 27 15.4509ZM15.0005 26.6709C13.3914 26.6709 11.8575 26.3437 10.462 25.7518C9.06568 25.16 7.80789 24.3045 6.75123 23.2478C5.69457 22.1911 4.83905 20.9334 4.2472 19.537C3.65536 18.1406 3.32816 16.6076 3.32816 14.9986C3.32816 13.3895 3.65536 11.8555 4.2472 10.4601C4.83905 9.06472 5.69457 7.80597 6.75123 6.74931C7.80789 5.69265 9.06568 4.83712 10.462 4.24528C11.8584 3.65343 13.3914 3.32624 15.0005 3.32624C16.6095 3.32624 18.1435 3.65343 19.5389 4.24528C20.9353 4.83712 22.1931 5.69265 23.2497 6.74931C24.3064 7.80597 25.1619 9.06376 25.7538 10.4601C26.3456 11.8565 26.6728 13.3895 26.6728 14.9986C26.6728 16.6076 26.3456 18.1416 25.7538 19.537C25.1619 20.9334 24.3064 22.1911 23.2497 23.2478C22.1931 24.3045 20.9353 25.16 19.5389 25.7518C18.1435 26.3437 16.6095 26.6709 15.0005 26.6709Z" fill="#4D4D4D"/>
<rect x="7" y="12" width="17" height="1" fill="#4D4D4D"/>
<rect x="7" y="17" width="4" height="1" fill="#4D4D4D"/>
<rect x="13" y="17" width="4" height="1" fill="#4D4D4D"/>
<rect x="20" y="17" width="4" height="1" fill="#4D4D4D"/>
<path d="M12.1901 10V6.835L11.3251 7.47V7.19L12.2151 6.525H12.4401V10H12.1901ZM14.0619 10V9.73L15.4519 7.995C15.5219 7.90833 15.5852 7.805 15.6419 7.685C15.7019 7.56167 15.7319 7.44167 15.7319 7.325C15.7319 7.225 15.7136 7.13667 15.6769 7.06C15.6436 6.98 15.5952 6.91333 15.5319 6.86C15.4719 6.80667 15.4002 6.76667 15.3169 6.74C15.2336 6.71 15.1452 6.695 15.0519 6.695C14.8119 6.695 14.6302 6.77 14.5069 6.92C14.3836 7.06667 14.3219 7.255 14.3219 7.485H14.0569C14.0569 7.335 14.0786 7.19833 14.1219 7.075C14.1686 6.94833 14.2352 6.84 14.3219 6.75C14.4086 6.65667 14.5119 6.585 14.6319 6.535C14.7552 6.48167 14.8952 6.455 15.0519 6.455C15.1852 6.455 15.3086 6.475 15.4219 6.515C15.5386 6.555 15.6369 6.61333 15.7169 6.69C15.8002 6.76333 15.8652 6.855 15.9119 6.965C15.9586 7.07167 15.9819 7.19167 15.9819 7.325C15.9819 7.475 15.9469 7.62167 15.8769 7.765C15.8102 7.905 15.7319 8.03 15.6419 8.14L14.3419 9.76H16.0769V10H14.0619ZM17.9637 10H17.7187L16.4487 6.455H16.7237L17.8487 9.625L18.9587 6.455H19.2337L17.9637 10Z" fill="#4D4D4D"/>
<path d="M14.5523 22.225C14.5523 22.1183 14.549 22.0083 14.5423 21.895C14.5357 21.7817 14.5207 21.67 14.4973 21.56C14.474 21.45 14.439 21.345 14.3923 21.245C14.3457 21.145 14.2807 21.055 14.1973 20.975C14.1073 20.8883 14.0007 20.8233 13.8773 20.78C13.754 20.7333 13.6257 20.71 13.4923 20.71H12.5773V23.745H13.4923C13.6257 23.745 13.754 23.7233 13.8773 23.68C14.0007 23.6333 14.1073 23.5667 14.1973 23.48C14.2807 23.4 14.3457 23.31 14.3923 23.21C14.439 23.1067 14.474 23 14.4973 22.89C14.5207 22.78 14.5357 22.6683 14.5423 22.555C14.549 22.4417 14.5523 22.3317 14.5523 22.225ZM14.8173 22.225C14.8173 22.3483 14.8123 22.475 14.8023 22.605C14.7957 22.7317 14.7773 22.8583 14.7473 22.985C14.7173 23.1083 14.674 23.2267 14.6173 23.34C14.5607 23.4533 14.484 23.5567 14.3873 23.65C14.2807 23.7533 14.1523 23.8383 14.0023 23.905C13.8523 23.9683 13.6823 24 13.4923 24H12.3173V20.455H13.4923C13.6823 20.455 13.8523 20.4883 14.0023 20.555C14.1523 20.6183 14.2807 20.7017 14.3873 20.805C14.484 20.8983 14.5607 21.0017 14.6173 21.115C14.674 21.2283 14.7173 21.3467 14.7473 21.47C14.7773 21.5933 14.7957 21.72 14.8023 21.85C14.8123 21.9767 14.8173 22.1017 14.8173 22.225ZM18.0074 22.915C17.9941 23.0783 17.9541 23.23 17.8874 23.37C17.8208 23.51 17.7324 23.6317 17.6224 23.735C17.5124 23.8383 17.3824 23.92 17.2324 23.98C17.0858 24.0367 16.9241 24.065 16.7474 24.065C16.5774 24.065 16.4091 24.0317 16.2424 23.965C16.0791 23.8983 15.9358 23.8033 15.8124 23.68C15.7158 23.5833 15.6391 23.4767 15.5824 23.36C15.5291 23.2433 15.4891 23.1233 15.4624 23C15.4358 22.8733 15.4174 22.745 15.4074 22.615C15.4008 22.4817 15.3974 22.3517 15.3974 22.225C15.3974 22.0983 15.4008 21.97 15.4074 21.84C15.4174 21.71 15.4358 21.5817 15.4624 21.455C15.4891 21.3283 15.5291 21.2083 15.5824 21.095C15.6391 20.9783 15.7158 20.8717 15.8124 20.775C15.9358 20.6517 16.0791 20.5567 16.2424 20.49C16.4091 20.4233 16.5774 20.39 16.7474 20.39C16.9241 20.39 17.0858 20.42 17.2324 20.48C17.3824 20.5367 17.5124 20.6167 17.6224 20.72C17.7324 20.8233 17.8208 20.945 17.8874 21.085C17.9541 21.225 17.9941 21.3767 18.0074 21.54H17.7374C17.7274 21.41 17.6958 21.29 17.6424 21.18C17.5891 21.07 17.5191 20.975 17.4324 20.895C17.3491 20.815 17.2491 20.7533 17.1324 20.71C17.0158 20.6667 16.8874 20.645 16.7474 20.645C16.5874 20.645 16.4474 20.6717 16.3274 20.725C16.2074 20.7783 16.0991 20.8533 16.0024 20.95C15.9224 21.0333 15.8591 21.1267 15.8124 21.23C15.7691 21.3333 15.7358 21.4417 15.7124 21.555C15.6924 21.665 15.6791 21.7783 15.6724 21.895C15.6691 22.0083 15.6674 22.1183 15.6674 22.225C15.6674 22.3317 15.6691 22.4433 15.6724 22.56C15.6791 22.6733 15.6941 22.7867 15.7174 22.9C15.7408 23.0133 15.7741 23.1217 15.8174 23.225C15.8641 23.3283 15.9274 23.4217 16.0074 23.505C16.2041 23.7083 16.4508 23.81 16.7474 23.81C16.8874 23.81 17.0158 23.7883 17.1324 23.745C17.2491 23.7017 17.3491 23.64 17.4324 23.56C17.5191 23.48 17.5891 23.385 17.6424 23.275C17.6958 23.165 17.7274 23.045 17.7374 22.915H18.0074Z" fill="#4D4D4D"/>
</svg>
