<svg width="170" height="30" viewBox="0 0 170 30" fill="none" xmlns="http://www.w3.org/2000/svg">
<rect width="170" height="30" fill="white"/>
<path d="M8 8.8219H10.983C11.969 8.8219 12.834 8.9729 13.569 9.2699C14.297 9.5709 14.91 10.0029 15.391 10.5569C15.872 11.1189 16.231 11.7859 16.465 12.5679C16.696 13.3489 16.816 14.2259 16.816 15.2049C16.816 16.1769 16.697 17.0669 16.465 17.8629C16.231 18.6619 15.871 19.3479 15.391 19.9129C14.909 20.4799 14.306 20.9159 13.576 21.2239C12.849 21.5289 11.99 21.6819 10.999 21.6819H8V8.8219ZM10.884 20.9159C11.756 20.9159 12.51 20.7769 13.138 20.4999C13.767 20.2199 14.285 19.8259 14.69 19.3199C15.094 18.8099 15.392 18.2089 15.588 17.5149C15.785 16.8169 15.88 16.0489 15.88 15.2039C15.88 14.3699 15.785 13.6039 15.588 12.9199C15.393 12.2289 15.095 11.6379 14.69 11.1459C14.286 10.6489 13.767 10.2659 13.138 9.9909C12.51 9.7199 11.756 9.5839 10.884 9.5839H8.894V20.9159H10.884Z" fill="#115C78"/>
<path d="M19.781 8.8219H26.825V9.6049H20.679V14.4599H24.425V15.2409H20.679V20.8969H27.018V21.6799H19.781V8.8219Z" fill="#115C78"/>
<path d="M29.421 19.358C29.884 19.892 30.442 20.314 31.096 20.628C31.744 20.937 32.442 21.092 33.18 21.092C34.171 21.092 34.951 20.858 35.524 20.383C36.098 19.91 36.381 19.289 36.381 18.521C36.381 18.117 36.32 17.782 36.197 17.508C36.072 17.233 35.909 16.998 35.698 16.794C35.491 16.591 35.249 16.418 34.965 16.268C34.689 16.117 34.391 15.972 34.08 15.83L32.13 14.951C31.844 14.833 31.55 14.692 31.239 14.522C30.936 14.353 30.652 14.141 30.405 13.889C30.151 13.633 29.935 13.335 29.766 12.988C29.597 12.644 29.513 12.231 29.513 11.752C29.513 11.286 29.61 10.857 29.797 10.474C29.985 10.094 30.246 9.75899 30.575 9.48099C30.911 9.19899 31.305 8.97999 31.768 8.82499C32.229 8.66999 32.726 8.59399 33.257 8.59399C34.04 8.59399 34.732 8.74599 35.339 9.05099C35.942 9.35799 36.441 9.71799 36.826 10.132L36.319 10.738C35.943 10.334 35.501 10.014 34.993 9.77299C34.488 9.53099 33.909 9.40999 33.257 9.40999C32.404 9.40999 31.712 9.62299 31.193 10.034C30.671 10.454 30.412 11.013 30.412 11.715C30.412 12.093 30.482 12.41 30.627 12.671C30.769 12.931 30.951 13.154 31.174 13.345C31.394 13.533 31.633 13.695 31.895 13.83C32.153 13.968 32.405 14.084 32.636 14.191L34.587 15.048C34.949 15.208 35.296 15.381 35.619 15.575C35.944 15.77 36.233 16.002 36.477 16.26C36.723 16.519 36.921 16.827 37.075 17.186C37.221 17.543 37.3 17.969 37.3 18.461C37.3 18.958 37.2 19.42 37.007 19.84C36.81 20.26 36.536 20.623 36.174 20.932C35.818 21.237 35.387 21.477 34.88 21.654C34.37 21.83 33.805 21.917 33.179 21.917C32.245 21.917 31.411 21.74 30.685 21.381C29.956 21.027 29.34 20.559 28.831 19.985L29.421 19.358Z" fill="#115C78"/>
<path d="M39.992 8.8219H40.888V21.6809H39.992V8.8219Z" fill="#115C78"/>
<path d="M43.852 15.2229C43.852 14.2049 43.989 13.2929 44.266 12.4749C44.538 11.6539 44.925 10.9559 45.421 10.3739C45.926 9.79394 46.522 9.35394 47.218 9.04794C47.913 8.74294 48.691 8.59094 49.551 8.59094C49.98 8.59094 50.365 8.63394 50.721 8.72394C51.072 8.81594 51.388 8.93894 51.677 9.08694C51.963 9.23294 52.22 9.40194 52.446 9.58394C52.675 9.76794 52.876 9.94694 53.045 10.1289L52.518 10.7179C52.179 10.3519 51.774 10.0389 51.307 9.78694C50.839 9.53594 50.25 9.40594 49.552 9.40594C48.81 9.40594 48.145 9.54894 47.56 9.81494C46.977 10.0929 46.479 10.4779 46.066 10.9769C45.659 11.4779 45.344 12.0879 45.125 12.8019C44.901 13.5219 44.791 14.3239 44.791 15.2219C44.791 16.1209 44.896 16.9309 45.104 17.6509C45.311 18.3709 45.612 18.9879 46.014 19.4949C46.407 20.0029 46.897 20.3939 47.473 20.6749C48.049 20.9529 48.705 21.0909 49.434 21.0909C50.019 21.0909 50.568 21.0099 51.085 20.8409C51.596 20.6709 52.01 20.4299 52.323 20.1189V16.1219H50.266L50.94 15.3579H53.177V20.4469C52.775 20.8809 52.251 21.2299 51.605 21.5069C50.963 21.7779 50.218 21.9129 49.356 21.9129C48.537 21.9129 47.788 21.7579 47.114 21.4449C46.436 21.1299 45.858 20.6899 45.377 20.1059C44.896 19.5279 44.52 18.8279 44.252 18.0019C43.989 17.1789 43.852 16.2509 43.852 15.2229Z" fill="#115C78"/>
<path d="M56.475 8.8219H57.413L62.838 17.8959L64.281 20.4469H64.356C64.33 19.8259 64.304 19.2039 64.281 18.5789C64.25 17.9549 64.242 17.3289 64.242 16.7059V8.8219H65.101V21.6809H64.162L58.739 12.6099L57.298 10.0539H57.218C57.243 10.6749 57.27 11.2829 57.298 11.8779C57.322 12.4689 57.333 13.0749 57.333 13.6979V21.6799H56.475V8.8219Z" fill="#115C78"/>
<path d="M74.972 22.312V8.203H77.192V22.311H74.972V22.312Z" fill="#115C78"/>
<path d="M88.949 22.312H86.066L82.138 12.091H82.027C82.171 12.87 82.242 13.706 82.242 14.599V22.312H80.054V8.203H82.954L86.848 18.316H86.943C86.836 17.637 86.778 16.837 86.778 15.903V8.203H88.95V22.312H88.949Z" fill="#115C78"/>
<path d="M99.445 15.122C99.445 17.447 99.016 19.23 98.164 20.463C97.31 21.695 96.079 22.312 94.476 22.312H91.369V8.203H94.765C96.241 8.203 97.391 8.808 98.211 10.021C99.032 11.234 99.445 12.934 99.445 15.122ZM97.023 15.198C97.023 12.046 96.241 10.47 94.675 10.47H93.73V20.015H94.495C95.356 20.015 95.995 19.612 96.403 18.813C96.816 18.01 97.023 16.807 97.023 15.198Z" fill="#115C78"/>
<path d="M109.281 8.203V17.332C109.281 19.01 108.939 20.29 108.255 21.176C107.573 22.063 106.586 22.504 105.293 22.504C104.032 22.504 103.07 22.065 102.412 21.187C101.752 20.308 101.421 19.01 101.421 17.292V8.203H103.768V17.484C103.768 19.281 104.302 20.178 105.374 20.178C105.87 20.178 106.255 19.948 106.526 19.492C106.798 19.033 106.936 18.385 106.936 17.541V8.203H109.281Z" fill="#115C78"/>
<path d="M111.647 22.312V8.203H114.007V20.014H117.281L116.327 22.311H111.647V22.312Z" fill="#115C78"/>
<path d="M124.285 14.483H126.693V21.721C125.592 22.244 124.422 22.504 123.184 22.504C121.706 22.504 120.572 21.881 119.775 20.631C118.979 19.382 118.581 17.583 118.581 15.235C118.581 12.973 119.038 11.201 119.95 9.919C120.863 8.641 122.135 8 123.774 8C124.786 8 125.757 8.288 126.674 8.868L125.93 11.011C125.21 10.547 124.538 10.315 123.913 10.315C123.017 10.315 122.305 10.761 121.782 11.652C121.257 12.543 120.995 13.758 120.995 15.298C120.995 16.88 121.185 18.092 121.566 18.935C121.945 19.777 122.495 20.198 123.219 20.198C123.6 20.198 123.99 20.142 124.382 20.036V16.8H122.201L124.285 14.483Z" fill="#115C78"/>
<path d="M134.532 22.312H128.81V8.203H134.532V10.47H131.171V13.829H134.289V16.104H131.171V20.014H134.532V22.312Z" fill="#115C78"/>
<path d="M145.452 22.312H142.568L138.644 12.091H138.531C138.675 12.87 138.747 13.706 138.747 14.599V22.312H136.559V8.203H139.459L143.352 18.316H143.444C143.337 17.637 143.284 16.837 143.284 15.903V8.203H145.453V22.312H145.452Z" fill="#115C78"/>
<path d="M152.083 10.297C151.407 10.297 150.871 10.737 150.48 11.619C150.09 12.498 149.894 13.723 149.894 15.297C149.894 18.564 150.661 20.196 152.196 20.196C152.867 20.196 153.572 19.96 154.306 19.482V21.817C153.686 22.274 152.894 22.504 151.927 22.504C150.496 22.504 149.399 21.872 148.631 20.608C147.864 19.345 147.48 17.566 147.48 15.278C147.48 12.985 147.873 11.202 148.666 9.91998C149.455 8.64198 150.556 8.00098 151.963 8.00098C152.427 8.00098 152.871 8.06998 153.296 8.21298C153.722 8.35398 154.178 8.60098 154.663 8.95498L153.883 11.088C153.622 10.889 153.345 10.705 153.048 10.543C152.753 10.378 152.431 10.297 152.083 10.297Z" fill="#115C78"/>
<path d="M162.008 22.312H156.285V8.203H162.008V10.47H158.645V13.829H161.764V16.104H158.645V20.014H162.008V22.312Z" fill="#115C78"/>
</svg>
