<svg width="30" height="30" viewBox="0 0 30 30" fill="none" xmlns="http://www.w3.org/2000/svg">
<rect width="30" height="30" fill="white"/>
<path d="M30 30H22.5H15H7.5H0V22.5003V15.0005V7.49975V0H7.5H15H22.5H30V7.49975V14.9995V22.4992V30ZM0.252287 29.7477H7.62614H15H22.3739H29.7477V22.3741V15.0005V7.62589V0.252279H22.3739H15H7.62614H0.252287V7.62589V14.9995V22.3731V29.7477Z" fill="#4D4D4D"/>
<path d="M23.891 15.608V15.439V15.27V15.101V14.932C23.836 13.769 23.548 12.66 23.074 11.651C22.601 10.641 21.943 9.731 21.147 8.966C20.351 8.201 19.418 7.581 18.394 7.153C17.371 6.725 16.257 6.487 15.101 6.487C13.945 6.487 12.831 6.724 11.808 7.153C10.785 7.582 9.85101 8.202 9.05601 8.968C8.26101 9.734 7.60201 10.645 7.12901 11.657C6.65601 12.669 6.36801 13.78 6.31201 14.946V15.115V15.284V15.453V15.622C6.36701 16.785 6.65501 17.894 7.12901 18.903C7.60201 19.913 8.26001 20.823 9.05601 21.588C9.85201 22.353 10.785 22.973 11.809 23.401C12.832 23.829 13.946 24.067 15.102 24.067C16.258 24.067 17.372 23.83 18.395 23.401C19.418 22.972 20.352 22.352 21.148 21.587C21.944 20.821 22.602 19.91 23.075 18.898C23.548 17.886 23.835 16.774 23.891 15.608ZM15.101 23.827C13.922 23.827 12.799 23.587 11.776 23.154C10.753 22.721 9.83201 22.094 9.05801 21.32C8.28401 20.546 7.65701 19.625 7.22401 18.602C6.79101 17.58 6.55101 16.456 6.55101 15.277C6.55101 14.098 6.79101 12.975 7.22401 11.952C7.65701 10.929 8.28401 10.008 9.05801 9.234C9.83201 8.46 10.753 7.833 11.776 7.4C12.798 6.967 13.922 6.727 15.101 6.727C16.28 6.727 17.403 6.967 18.426 7.4C19.448 7.833 20.37 8.46 21.144 9.234C21.918 10.008 22.545 10.929 22.978 11.952C23.411 12.975 23.651 14.098 23.651 15.277C23.651 16.456 23.411 17.579 22.978 18.602C22.545 19.624 21.918 20.546 21.144 21.32C20.37 22.094 19.449 22.721 18.426 23.154C17.403 23.587 16.28 23.827 15.101 23.827Z" fill="#4D4D4D"/>
<path d="M15.048 6.68201H15.002H14.957H14.912V11.028V15.374V19.72V24.066H14.957H15.002H15.048H15.093V19.72V15.374V11.028V6.68201H15.048Z" fill="#4D4D4D"/>
<path d="M15.792 6.68201H15.746H15.701H15.656V11V15.318V19.636V23.955H15.701H15.746H15.792H15.837V19.636V15.318V11V6.68201H15.792Z" fill="#4D4D4D"/>
<path d="M16.592 6.68201H16.546H16.501H16.456V10.968V15.254V19.54V23.827H16.501H16.546H16.592H16.637V19.54V15.254V10.968V6.68201H16.592Z" fill="#4D4D4D"/>
<path d="M17.392 6.87598H17.346H17.301H17.256V11.074V15.271V19.469V23.667H17.301H17.346H17.392H17.437V19.469V15.271V11.074V6.87598H17.392Z" fill="#4D4D4D"/>
<path d="M18.218 7.16901H18.173H18.128H18.082V11.231V15.292V19.353V23.415H18.128H18.173H18.218H18.264V19.353V15.292V11.231V7.16901H18.218Z" fill="#4D4D4D"/>
<path d="M19.018 7.52698H18.973H18.928H18.882V11.417V15.307V19.197V23.088H18.928H18.973H19.018H19.064V19.197V15.307V11.417V7.52698H19.018Z" fill="#4D4D4D"/>
<path d="M19.845 8.02502H19.8H19.754H19.709V11.667V15.308V18.949V22.59H19.754H19.8H19.845H19.89V18.949V15.308V11.667V8.02502H19.845Z" fill="#4D4D4D"/>
<path d="M20.645 8.56897H20.6H20.554H20.509V11.917V15.264V18.611V21.958H20.554H20.6H20.645H20.69V18.611V15.264V11.917V8.56897H20.645Z" fill="#4D4D4D"/>
<path d="M21.445 9.35303H21.4H21.354H21.309V12.317V15.281V18.245V21.208H21.354H21.4H21.445H21.49V18.245V15.281V12.317V9.35303H21.445Z" fill="#4D4D4D"/>
<path d="M22.272 10.343H22.226H22.181H22.135V12.804V15.266V17.727V20.188H22.181H22.226H22.272H22.317V17.727V15.266V12.804V10.343H22.272Z" fill="#4D4D4D"/>
<path d="M23.093 11.777H23.048H23.003H22.957V13.525V15.274V17.022V18.771H23.003H23.048H23.093H23.139V17.022V15.274V13.525V11.777H23.093Z" fill="#4D4D4D"/>
<path d="M14.958 5.347H14.935H14.912H14.889H14.866C14.851 5.347 14.837 5.344 14.824 5.339C14.81 5.334 14.799 5.326 14.789 5.316C14.779 5.306 14.771 5.295 14.766 5.282C14.761 5.269 14.758 5.255 14.758 5.24V4.457V3.674V2.891V2.107C14.758 2.092 14.761 2.078 14.766 2.065C14.771 2.052 14.779 2.041 14.789 2.031C14.799 2.021 14.81 2.013 14.823 2.008C14.836 2.003 14.85 2 14.865 2H14.888H14.911H14.934H14.957C14.972 2 14.986 2.003 14.999 2.008C15.012 2.013 15.023 2.021 15.033 2.031C15.043 2.041 15.051 2.052 15.056 2.065C15.061 2.078 15.064 2.092 15.064 2.107V2.89V3.673V4.456V5.239C15.064 5.254 15.061 5.268 15.056 5.281C15.052 5.295 15.044 5.306 15.034 5.316C15.024 5.326 15.013 5.334 15 5.339C14.987 5.344 14.973 5.347 14.958 5.347Z" fill="#4D4D4D"/>
<path d="M7.76701 8.32103L7.75101 8.33703L7.73501 8.35303L7.72001 8.36803L7.70401 8.38403C7.69401 8.39403 7.68301 8.40103 7.67101 8.40603C7.65901 8.41103 7.64601 8.41303 7.63301 8.41303C7.62001 8.41303 7.60701 8.41103 7.59501 8.40603C7.58301 8.40103 7.57201 8.39403 7.56201 8.38403L7.00601 7.82803L6.45001 7.27103L5.89401 6.71503L5.33701 6.15903C5.32801 6.14903 5.32001 6.13803 5.31501 6.12603C5.31001 6.11403 5.30801 6.10103 5.30801 6.08803C5.30801 6.07503 5.31001 6.06203 5.31501 6.05003C5.32001 6.03803 5.32801 6.02703 5.33701 6.01703L5.35301 6.00103L5.36901 5.98603L5.38501 5.97003L5.40001 5.95503C5.41001 5.94503 5.42101 5.93803 5.43301 5.93303C5.44501 5.92803 5.45801 5.92603 5.47101 5.92603C5.48401 5.92603 5.49701 5.92803 5.50901 5.93303C5.52101 5.93803 5.53201 5.94503 5.54201 5.95503L6.09801 6.51103L6.65401 7.06703L7.21001 7.62303L7.76601 8.17903C7.77601 8.18903 7.78301 8.20003 7.78801 8.21203C7.79301 8.22403 7.79501 8.23703 7.79501 8.25003C7.79501 8.26303 7.79301 8.27603 7.78901 8.28803C7.78401 8.30003 7.77601 8.31203 7.76701 8.32103Z" fill="#4D4D4D"/>
<path d="M22.739 8.38399L22.723 8.36799L22.707 8.35199L22.691 8.33599L22.675 8.31999C22.665 8.30999 22.658 8.29899 22.653 8.28699C22.648 8.27499 22.646 8.26199 22.646 8.24899C22.646 8.23599 22.648 8.22299 22.653 8.21099C22.658 8.19899 22.665 8.18799 22.675 8.17799L23.231 7.62199L23.787 7.06599L24.343 6.50999L24.899 5.95399C24.909 5.94399 24.92 5.93699 24.932 5.93199C24.944 5.92699 24.957 5.92499 24.97 5.92499C24.983 5.92499 24.996 5.92699 25.008 5.93199C25.02 5.93699 25.031 5.94399 25.041 5.95399L25.057 5.96999L25.073 5.98599L25.089 6.00199L25.105 6.01799C25.115 6.02799 25.122 6.03899 25.127 6.05099C25.132 6.06299 25.134 6.07599 25.134 6.08899C25.134 6.10199 25.132 6.11499 25.127 6.12699C25.122 6.13899 25.115 6.14999 25.105 6.15999L24.549 6.71599L23.993 7.27199L23.437 7.82799L22.881 8.38399C22.871 8.39399 22.86 8.40099 22.848 8.40599C22.836 8.41099 22.823 8.41299 22.81 8.41299C22.797 8.41299 22.784 8.41099 22.772 8.40599C22.76 8.40099 22.748 8.39399 22.739 8.38399Z" fill="#4D4D4D"/>
<path d="M7.70199 22.198L7.71899 22.215L7.73599 22.232L7.75299 22.249L7.76999 22.266C7.77999 22.276 7.78799 22.289 7.79299 22.301C7.79799 22.313 7.80099 22.328 7.80099 22.341C7.80099 22.355 7.79799 22.368 7.79299 22.381C7.78799 22.394 7.77899 22.406 7.76899 22.416L7.21499 22.97L6.66099 23.524L6.10699 24.078L5.55299 24.632C5.54299 24.642 5.52999 24.65 5.51799 24.655C5.50499 24.66 5.49099 24.663 5.47799 24.663C5.46499 24.663 5.45099 24.66 5.43799 24.655C5.42499 24.65 5.41299 24.642 5.40299 24.632L5.38599 24.615L5.36899 24.598L5.35199 24.581L5.33499 24.564C5.32499 24.554 5.31699 24.541 5.31199 24.529C5.30699 24.516 5.30399 24.502 5.30399 24.489C5.30399 24.475 5.30699 24.462 5.31199 24.449C5.31699 24.436 5.32499 24.424 5.33499 24.414L5.88899 23.86L6.44299 23.306L6.99699 22.752L7.55099 22.198C7.56099 22.188 7.57399 22.18 7.58599 22.175C7.59799 22.17 7.61299 22.167 7.62599 22.167C7.63899 22.167 7.65299 22.17 7.66599 22.175C7.67999 22.18 7.69199 22.188 7.70199 22.198Z" fill="#4D4D4D"/>
<path d="M14.829 24.945H14.851H14.873H14.895H14.917C14.931 24.945 14.944 24.948 14.956 24.953C14.968 24.958 14.979 24.966 14.988 24.975C14.997 24.984 15.005 24.995 15.01 25.007C15.015 25.019 15.018 25.032 15.018 25.046V25.833V26.62V27.407V28.194C15.018 28.208 15.015 28.221 15.01 28.233C15.005 28.245 14.998 28.256 14.988 28.265C14.978 28.274 14.968 28.282 14.956 28.287C14.944 28.292 14.931 28.295 14.917 28.295H14.895H14.873H14.851H14.829C14.815 28.295 14.802 28.292 14.79 28.287C14.778 28.282 14.767 28.275 14.758 28.265C14.749 28.255 14.741 28.245 14.736 28.233C14.731 28.221 14.728 28.208 14.728 28.194V27.407V26.62V25.833V25.046C14.728 25.032 14.731 25.019 14.736 25.007C14.741 24.995 14.748 24.984 14.758 24.975C14.768 24.966 14.778 24.958 14.79 24.953C14.802 24.948 14.815 24.945 14.829 24.945Z" fill="#4D4D4D"/>
<path d="M5.348 15.217V15.239V15.261V15.283V15.305C5.348 15.319 5.345 15.332 5.34 15.344C5.335 15.356 5.328 15.367 5.318 15.376C5.309 15.385 5.298 15.393 5.286 15.398C5.274 15.403 5.261 15.406 5.247 15.406H4.461H3.674H2.888H2.101C2.087 15.406 2.074 15.403 2.062 15.398C2.05 15.393 2.039 15.385 2.03 15.376C2.021 15.367 2.013 15.356 2.008 15.344C2.003 15.332 2 15.319 2 15.305V15.283V15.261V15.239V15.217C2 15.203 2.003 15.19 2.008 15.178C2.013 15.166 2.02 15.155 2.03 15.146C2.039 15.137 2.05 15.129 2.062 15.124C2.074 15.119 2.087 15.116 2.101 15.116H2.888H3.675H4.462H5.249C5.263 15.116 5.276 15.119 5.288 15.124C5.3 15.129 5.311 15.136 5.32 15.146C5.329 15.155 5.337 15.166 5.342 15.178C5.345 15.19 5.348 15.203 5.348 15.217Z" fill="#4D4D4D"/>
<path d="M21.91 22.37L21.927 22.353L21.944 22.336L21.961 22.319L21.978 22.302C21.988 22.292 22.001 22.284 22.013 22.279C22.025 22.274 22.04 22.271 22.053 22.271C22.066 22.271 22.08 22.274 22.093 22.279C22.106 22.284 22.118 22.292 22.128 22.302L22.682 22.856L23.236 23.41L23.79 23.964L24.344 24.518C24.354 24.528 24.362 24.541 24.367 24.553C24.372 24.565 24.375 24.58 24.375 24.593C24.375 24.607 24.372 24.62 24.367 24.633C24.362 24.646 24.354 24.658 24.344 24.668L24.327 24.685L24.31 24.702L24.293 24.719L24.276 24.736C24.266 24.746 24.253 24.754 24.241 24.759C24.229 24.764 24.214 24.767 24.201 24.767C24.187 24.767 24.174 24.764 24.161 24.759C24.148 24.754 24.136 24.746 24.126 24.736L23.572 24.182L23.018 23.628L22.464 23.074L21.91 22.52C21.9 22.51 21.892 22.497 21.887 22.485C21.882 22.473 21.879 22.458 21.879 22.445C21.879 22.432 21.882 22.418 21.887 22.405C21.892 22.392 21.899 22.381 21.91 22.37Z" fill="#4D4D4D"/>
<path d="M24.537 15.305V15.283V15.261V15.239V15.217C24.537 15.203 24.54 15.19 24.545 15.178C24.55 15.166 24.557 15.155 24.567 15.146C24.576 15.137 24.587 15.129 24.599 15.124C24.611 15.119 24.624 15.116 24.638 15.116H25.425H26.212H26.999H27.786C27.8 15.116 27.813 15.119 27.825 15.124C27.837 15.129 27.848 15.136 27.857 15.146C27.866 15.155 27.874 15.166 27.879 15.178C27.884 15.19 27.887 15.203 27.887 15.217V15.239V15.261V15.283V15.305C27.887 15.319 27.884 15.332 27.879 15.344C27.874 15.356 27.867 15.367 27.857 15.376C27.848 15.385 27.837 15.393 27.825 15.398C27.813 15.403 27.8 15.406 27.786 15.406H26.999H26.212H25.425H24.638C24.624 15.406 24.611 15.403 24.599 15.398C24.587 15.393 24.576 15.386 24.567 15.376C24.558 15.367 24.55 15.356 24.545 15.344C24.54 15.332 24.537 15.319 24.537 15.305Z" fill="#4D4D4D"/>
<path d="M15.048 6.62598H15.002H14.957H14.912V10.944V15.262V19.58V23.899H14.957H15.002H15.048H15.093V19.58V15.262V10.944V6.62598H15.048Z" fill="#4D4D4D"/>
<path d="M14.303 6.737H14.258H14.213H14.167V11.027V15.318V19.608V23.899H14.213H14.258H14.303H14.349V19.608V15.318V11.027V6.737H14.303Z" fill="#4D4D4D"/>
<path d="M13.503 6.86401H13.458H13.413H13.367V11.103V15.342V19.581V23.82H13.413H13.458H13.503H13.549V19.581V15.342V11.103V6.86401H13.503Z" fill="#4D4D4D"/>
<path d="M12.703 7.02301H12.658H12.613H12.567V11.157V15.291V19.425V23.559H12.613H12.658H12.703H12.749V19.425V15.291V11.157V7.02301H12.703Z" fill="#4D4D4D"/>
<path d="M11.877 7.27301H11.831H11.786H11.741V11.271V15.269V19.267V23.266H11.786H11.831H11.877H11.922V19.267V15.269V11.271V7.27301H11.877Z" fill="#4D4D4D"/>
<path d="M11.077 7.59802H11.032H10.986H10.941V11.43V15.261V19.092V22.923H10.986H11.032H11.077H11.122V19.092V15.261V11.43V7.59802H11.077Z" fill="#4D4D4D"/>
<path d="M10.25 8.09302H10.205H10.16H10.114V11.664V15.236V18.807V22.379H10.16H10.205H10.25H10.296V18.807V15.236V11.664V8.09302H10.25Z" fill="#4D4D4D"/>
<path d="M9.45 8.72101H9.405H9.36H9.314V11.975V15.23V18.485V21.74H9.36H9.405H9.45H9.496V18.485V15.23V11.975V8.72101H9.45Z" fill="#4D4D4D"/>
<path d="M8.65001 9.62701H8.60501H8.56001H8.51401V12.455V15.282V18.11V20.937H8.56001H8.60501H8.65001H8.69601V18.11V15.282V12.455V9.62701H8.65001Z" fill="#4D4D4D"/>
<path d="M7.82399 10.718H7.77799H7.73299H7.68799V13V15.281V17.562V19.844H7.73299H7.77799H7.82399H7.86899V17.562V15.281V13V10.718H7.82399Z" fill="#4D4D4D"/>
<path d="M7.002 12.327H6.957H6.911H6.866V13.778V15.229V16.68V18.131H6.911H6.957H7.002H7.047V16.68V15.229V13.778V12.327H7.002Z" fill="#4D4D4D"/>
</svg>
