<svg width="30" height="30" viewBox="0 0 30 30" fill="none" xmlns="http://www.w3.org/2000/svg">
<rect width="30" height="30" fill="white"/>
<path d="M30 30H22.5H15H7.5H0V22.5003V15.0005V7.49975V0H7.5H15H22.5H30V7.49975V14.9995V22.4992V30ZM0.252287 29.7477H7.62614H15H22.3739H29.7477V22.3741V15.0005V7.62589V0.252279H22.3739H15H7.62614H0.252287V7.62589V14.9995V22.3731V29.7477Z" fill="#4D4D4D"/>
<path fill-rule="evenodd" clip-rule="evenodd" d="M14.9003 10.5241C12.6841 10.5241 10.8874 12.3208 10.8874 14.537C10.8874 16.7532 12.6841 18.5499 14.9003 18.5499C17.1165 18.5499 18.9132 16.7532 18.9132 14.537C18.9132 12.3208 17.1165 10.5241 14.9003 10.5241Z" fill="#4D4D4D"/>
<path fill-rule="evenodd" clip-rule="evenodd" d="M14.8329 8.25372C15.0126 8.25372 15.1583 8.3994 15.1583 8.5791C15.1583 8.7588 15.0126 8.90448 14.8329 8.90448C14.6532 8.90448 14.5075 8.7588 14.5075 8.5791C14.5075 8.3994 14.6532 8.25372 14.8329 8.25372Z" fill="#4D4D4D"/>
<path fill-rule="evenodd" clip-rule="evenodd" d="M19.3882 18.6658C19.5679 18.6658 19.7136 18.8115 19.7136 18.9911C19.7136 19.1708 19.5679 19.3165 19.3882 19.3165C19.2085 19.3165 19.0628 19.1708 19.0628 18.9911C19.0628 18.8115 19.2085 18.6658 19.3882 18.6658Z" fill="#4D4D4D"/>
<path fill-rule="evenodd" clip-rule="evenodd" d="M14.8329 20.618C15.0126 20.618 15.1583 20.7637 15.1583 20.9434C15.1583 21.1231 15.0126 21.2688 14.8329 21.2688C14.6532 21.2688 14.5075 21.1231 14.5075 20.9434C14.5075 20.7637 14.6532 20.618 14.8329 20.618Z" fill="#4D4D4D"/>
<path fill-rule="evenodd" clip-rule="evenodd" d="M19.3882 9.55524C19.5679 9.55524 19.7136 9.70092 19.7136 9.88061C19.7136 10.0603 19.5679 10.206 19.3882 10.206C19.2085 10.206 19.0628 10.0603 19.0628 9.88061C19.0628 9.70092 19.2085 9.55524 19.3882 9.55524Z" fill="#4D4D4D"/>
<path fill-rule="evenodd" clip-rule="evenodd" d="M10.2776 9.55524C10.4573 9.55524 10.603 9.70092 10.603 9.88061C10.603 10.0603 10.4573 10.206 10.2776 10.206C10.0979 10.206 9.95224 10.0603 9.95224 9.88061C9.95224 9.70092 10.0979 9.55524 10.2776 9.55524Z" fill="#4D4D4D"/>
<path fill-rule="evenodd" clip-rule="evenodd" d="M21.3404 14.1105C21.5201 14.1105 21.6658 14.2562 21.6658 14.4359C21.6658 14.6155 21.5201 14.7612 21.3404 14.7612C21.1607 14.7612 21.0151 14.6155 21.0151 14.4359C21.0151 14.2562 21.1607 14.1105 21.3404 14.1105Z" fill="#4D4D4D"/>
<path fill-rule="evenodd" clip-rule="evenodd" d="M10.2776 18.6658C10.4573 18.6658 10.603 18.8115 10.603 18.9911C10.603 19.1708 10.4573 19.3165 10.2776 19.3165C10.0979 19.3165 9.95224 19.1708 9.95224 18.9911C9.95224 18.8115 10.0979 18.6658 10.2776 18.6658Z" fill="#4D4D4D"/>
<path fill-rule="evenodd" clip-rule="evenodd" d="M8.32536 14.1105C8.50506 14.1105 8.65074 14.2562 8.65074 14.4359C8.65074 14.6155 8.50506 14.7612 8.32536 14.7612C8.14567 14.7612 7.99999 14.6155 7.99999 14.4359C7.99999 14.2562 8.14567 14.1105 8.32536 14.1105Z" fill="#4D4D4D"/>
</svg>
