<svg width="30" height="30" viewBox="0 0 30 30" fill="none" xmlns="http://www.w3.org/2000/svg">
<rect width="30" height="30" fill="white"/>
<path d="M30 30H22.5H15H7.5H0V22.5003V15.0005V7.49975V0H7.5H15H22.5H30V7.49975V14.9995V22.4992V30ZM0.252287 29.7477H7.62614H15H22.3739H29.7477V22.3741V15.0005V7.62589V0.252279H22.3739H15H7.62614H0.252287V7.62589V14.9995V22.3731V29.7477Z" fill="#4D4D4D"/>
<path fill-rule="evenodd" clip-rule="evenodd" d="M23.409 16.5653L22.474 16.5673L21.539 16.5693L20.604 16.5713L19.669 16.5733C19.669 16.5733 19.66 16.2753 19.577 15.8123C19.494 15.3493 19.336 14.7203 19.038 14.0583C18.74 13.3963 18.302 12.7013 17.658 12.1053C17.014 11.5093 16.164 11.0133 15.043 10.7483C14.78 10.7043 14.205 10.5933 13.477 10.5693C12.748 10.5443 11.866 10.6063 10.988 10.9063C10.11 11.2063 9.23705 11.7453 8.52705 12.6763C7.81705 13.6063 7.27005 14.9283 7.04405 16.7943C7.01305 16.4633 6.98805 16.0533 7.00605 15.5883C7.02405 15.1233 7.08305 14.6013 7.22105 14.0473C7.35905 13.4933 7.57705 12.9053 7.90905 12.3083C8.24105 11.7103 8.68905 11.1033 9.28905 10.5073C10.136 9.66628 11.093 9.03428 12.101 8.61628C13.109 8.19828 14.168 7.99128 15.221 8.00028C16.274 8.00928 17.321 8.23228 18.305 8.67228C19.288 9.11228 20.208 9.76928 21.006 10.6453C21.313 10.9823 21.605 11.3573 21.873 11.7703C22.141 12.1833 22.385 12.6353 22.597 13.1273C22.809 13.6193 22.988 14.1503 23.126 14.7233C23.264 15.2963 23.361 15.9083 23.409 16.5653Z" fill="#4C4C4C"/>
<path d="M27 15.4509V15.2199V14.9889V14.758V14.527C26.924 12.9401 26.5313 11.4254 25.8856 10.0473C25.2399 8.66919 24.3401 7.42776 23.2536 6.38362C22.1671 5.33947 20.8929 4.49356 19.4956 3.90846C18.0983 3.32335 16.5778 3 14.9995 3C13.4213 3 11.9008 3.32335 10.5034 3.90846C9.1061 4.49356 7.83291 5.34043 6.74642 6.3865C5.65993 7.43258 4.76206 8.67593 4.11536 10.0569C3.46866 11.4379 3.07603 12.9555 3 14.5472V14.7782V15.0091V15.2401V15.4711C3.07603 17.058 3.46866 18.5727 4.1144 19.9508C4.76013 21.3289 5.65897 22.5722 6.74546 23.6164C7.83195 24.6605 9.1061 25.5064 10.5034 26.0915C11.9008 26.6767 13.4213 27 14.9995 27C16.5778 27 18.0983 26.6767 19.4956 26.0915C20.8929 25.5064 22.1671 24.6596 23.2536 23.6145C24.3401 22.5693 25.2389 21.325 25.8846 19.9441C26.5304 18.5602 26.924 17.0426 27 15.4509ZM15.0005 26.6709C13.3914 26.6709 11.8575 26.3437 10.462 25.7518C9.06568 25.16 7.80789 24.3045 6.75123 23.2478C5.69457 22.1911 4.83905 20.9334 4.2472 19.537C3.65536 18.1406 3.32816 16.6076 3.32816 14.9986C3.32816 13.3895 3.65536 11.8555 4.2472 10.4601C4.83905 9.06472 5.69457 7.80597 6.75123 6.74931C7.80789 5.69265 9.06568 4.83712 10.462 4.24528C11.8584 3.65343 13.3914 3.32624 15.0005 3.32624C16.6095 3.32624 18.1435 3.65343 19.5389 4.24528C20.9353 4.83712 22.1931 5.69265 23.2497 6.74931C24.3064 7.80597 25.1619 9.06376 25.7538 10.4601C26.3456 11.8565 26.6728 13.3895 26.6728 14.9986C26.6728 16.6076 26.3456 18.1416 25.7538 19.537C25.1619 20.9334 24.3064 22.1911 23.2497 23.2478C22.1931 24.3045 20.9353 25.16 19.5389 25.7518C18.1435 26.3437 16.6095 26.6709 15.0005 26.6709Z" fill="#4D4D4D"/>
</svg>
