<svg width="30" height="30" viewBox="0 0 30 30" fill="none" xmlns="http://www.w3.org/2000/svg">
<path d="M30 30H22.5H15H7.5H0V22.5003V15.0005V7.49975V0H7.5H15H22.5H30V7.49975V14.9995V22.4992V30ZM0.252287 29.7477H7.62614H15H22.3739H29.7477V22.3741V15.0005V7.62589V0.252279H22.3739H15H7.62614H0.252287V7.62589V14.9995V22.3731V29.7477Z" fill="#4D4D4D"/>
<path fill-rule="evenodd" clip-rule="evenodd" d="M23.409 18.5653L22.474 18.5673L21.539 18.5693L20.604 18.5713L19.669 18.5733C19.669 18.5733 19.66 18.2753 19.577 17.8123C19.494 17.3493 19.336 16.7203 19.038 16.0583C18.74 15.3963 18.302 14.7013 17.658 14.1053C17.014 13.5093 16.164 13.0133 15.043 12.7483C14.78 12.7043 14.205 12.5933 13.477 12.5693C12.748 12.5443 11.866 12.6063 10.988 12.9063C10.11 13.2063 9.23705 13.7453 8.52705 14.6763C7.81705 15.6063 7.27005 16.9283 7.04405 18.7943C7.01305 18.4633 6.98805 18.0533 7.00605 17.5883C7.02405 17.1233 7.08305 16.6013 7.22105 16.0473C7.35905 15.4933 7.57705 14.9053 7.90905 14.3083C8.24105 13.7103 8.68905 13.1033 9.28905 12.5073C10.136 11.6663 11.093 11.0343 12.101 10.6163C13.109 10.1983 14.168 9.99128 15.221 10.0003C16.274 10.0093 17.321 10.2323 18.305 10.6723C19.288 11.1123 20.208 11.7693 21.006 12.6453C21.313 12.9823 21.605 13.3573 21.873 13.7703C22.141 14.1833 22.385 14.6353 22.597 15.1273C22.809 15.6193 22.988 16.1503 23.126 16.7233C23.264 17.2963 23.361 17.9083 23.409 18.5653Z" fill="#4C4C4C"/>
<path d="M30 22V21.9421V21.8843V21.8264V21.7685C28.8439 21.3235 27.6602 20.9279 26.4529 20.5844C25.2446 20.241 24.0117 19.9507 22.7583 19.7163C21.5049 19.482 20.2279 19.3027 18.9345 19.1822C17.6401 19.0617 16.3282 19 15 19C13.6718 19 12.3589 19.0617 11.0655 19.1822C9.77111 19.3027 8.49515 19.482 7.24173 19.7163C5.98832 19.9507 4.7554 20.2419 3.54708 20.5844C2.33875 20.9279 1.15605 21.3235 0 21.7685V21.8264V21.8843V21.9421V22C1.15503 21.5522 2.33773 21.1546 3.54605 20.8093C4.75335 20.4639 5.98627 20.1717 7.24071 19.9364C8.49515 19.7011 9.77111 19.5199 11.0655 19.3994C12.3599 19.278 13.6728 19.2163 15.002 19.2163C16.3303 19.2163 17.6431 19.278 18.9376 19.3994C20.232 19.5209 21.5079 19.7011 22.7624 19.9364C24.0168 20.1717 25.2487 20.4649 26.457 20.8093C27.6612 21.1546 28.845 21.5522 30 22Z" fill="#4D4D4D"/>
<path d="M26.3564 6.19444V6.12991V6.06538V6.00085V5.93632C26.3351 5.49235 26.2254 5.06924 26.0445 4.68361C25.8641 4.29836 25.6125 3.9506 25.3088 3.65887C25.0051 3.36675 24.6488 3.13027 24.2582 2.96682C23.8675 2.80337 23.4425 2.71295 23.0012 2.71295C22.56 2.71295 22.1349 2.80337 21.7443 2.9672C21.3536 3.13104 20.9973 3.36752 20.6936 3.65964C20.3899 3.95215 20.1388 4.29991 19.9579 4.68592C19.7771 5.07194 19.6673 5.49621 19.6461 5.94135V6.00588V6.07041V6.13494V6.19946C19.6673 6.64344 19.7771 7.06655 19.9579 7.45218C20.1384 7.83743 20.3899 8.18519 20.6936 8.47692C20.9973 8.76866 21.3536 9.00552 21.7443 9.16897C22.1349 9.33242 22.56 9.42284 23.0012 9.42284C23.4425 9.42284 23.8675 9.33242 24.2582 9.16858C24.6488 9.00514 25.0051 8.76827 25.3088 8.47615C25.6125 8.18364 25.8637 7.83588 26.0445 7.44986C26.2254 7.06385 26.3351 6.63958 26.3564 6.19444ZM23.0012 9.33165C22.5515 9.33165 22.1225 9.24007 21.7323 9.07469C21.342 8.90931 20.9904 8.67012 20.6948 8.37453C20.3992 8.07893 20.16 7.7273 19.9946 7.33703C19.8292 6.94677 19.7377 6.51786 19.7377 6.06809C19.7377 5.61831 19.8292 5.18941 19.9946 4.79914C20.16 4.40887 20.3992 4.05725 20.6948 3.76165C20.9904 3.46605 21.342 3.22687 21.7323 3.06149C22.1225 2.89611 22.5515 2.80453 23.0012 2.80453C23.451 2.80453 23.8799 2.89611 24.2702 3.06149C24.6604 3.22687 25.0121 3.46605 25.3077 3.76165C25.6033 4.05725 25.8424 4.40887 26.0078 4.79914C26.1732 5.18941 26.2648 5.61831 26.2648 6.06809C26.2648 6.51786 26.1732 6.94677 26.0078 7.33703C25.8424 7.7273 25.6033 8.07893 25.3077 8.37453C25.0121 8.67012 24.6604 8.90931 24.2702 9.07469C23.8799 9.24007 23.451 9.33165 23.0012 9.33165Z" fill="#4D4D4D"/>
<path d="M22.9807 2.78674H22.9633H22.9459H22.9286V4.44596V6.10517V7.764V9.42321H22.9459H22.9633H22.9807H22.9981V7.764V6.10517V4.44596V2.78674H22.9807Z" fill="#4D4D4D"/>
<path d="M23.2647 2.78674H23.2474H23.23H23.2126V4.43514V6.08353V7.73193V9.38032H23.23H23.2474H23.2647H23.2821V7.73193V6.08353V4.43514V2.78674H23.2647Z" fill="#4D4D4D"/>
<path d="M23.57 2.78674H23.5526H23.5356H23.5182V4.42316V6.05919V7.6956V9.33163H23.5356H23.5526H23.57H23.5874V7.6956V6.05919V4.42316V2.78674H23.57Z" fill="#4D4D4D"/>
<path d="M23.8757 2.86127H23.8583H23.8409H23.8235V4.46368V6.06571V7.66812V9.27053H23.8409H23.8583H23.8757H23.8927V7.66812V6.06571V4.46368V2.86127H23.8757Z" fill="#4D4D4D"/>
<path d="M24.1909 2.97296H24.1736H24.1565H24.1392V4.52321V6.07384V7.62409V9.17434H24.1565H24.1736H24.1909H24.2083V7.62409V6.07384V4.52321V2.97296H24.1909Z" fill="#4D4D4D"/>
<path d="M24.4962 3.10938H24.4792H24.4618H24.4445V4.59471V6.07965V7.5646V9.04955H24.4618H24.4792H24.4962H24.5136V7.5646V6.07965V4.59471V3.10938H24.4962Z" fill="#4D4D4D"/>
<path d="M24.8119 3.29987H24.7945H24.7771H24.7601V4.68976V6.07965V7.46954V8.85943H24.7771H24.7945H24.8119H24.8293V7.46954V6.07965V4.68976V3.29987H24.8119Z" fill="#4D4D4D"/>
<path d="M25.1171 3.50739H25.1001H25.0828H25.0654V4.78522V6.06305V7.3405V8.61834H25.0828H25.1001H25.1171H25.1345V7.3405V6.06305V4.78522V3.50739H25.1171Z" fill="#4D4D4D"/>
<path d="M25.4228 3.80682H25.4054H25.388H25.3706V4.93821V6.0696V7.20099V8.33199H25.388H25.4054H25.4228H25.4402V7.20099V6.0696V4.93821V3.80682H25.4228Z" fill="#4D4D4D"/>
<path d="M25.7381 4.18433H25.7211H25.7037H25.6863V5.12406V6.0634V7.00313V7.94248H25.7037H25.7211H25.7381H25.7555V7.00313V6.0634V5.12406V4.18433H25.7381Z" fill="#4D4D4D"/>
<path d="M26.0519 4.73187H26.0345H26.0175H26.0001V5.39919V6.06689V6.73421V7.40153H26.0175H26.0345H26.0519H26.0693V6.73421V6.06689V5.39919V4.73187H26.0519Z" fill="#4D4D4D"/>
<path d="M22.946 2.27745H22.9371H22.9282H22.9201H22.9112C22.9054 2.27745 22.9 2.27629 22.895 2.27436C22.8899 2.27242 22.8857 2.26933 22.8818 2.26547C22.878 2.26161 22.8749 2.25735 22.8729 2.25233C22.871 2.24731 22.8698 2.2419 22.8698 2.2361V1.93741V1.63872V1.34003V1.04135C22.8698 1.03555 22.871 1.03014 22.8729 1.02512C22.8749 1.02009 22.8783 1.01584 22.8822 1.01198C22.8861 1.00811 22.8903 1.00502 22.8953 1.00309C22.9004 1.00116 22.9058 1 22.9116 1H22.9205H22.9293H22.9382H22.9471C22.9529 1 22.9583 1.00116 22.9634 1.00309C22.9684 1.00502 22.9715 1.00811 22.9753 1.01198C22.9792 1.01584 22.9823 1.02009 22.9842 1.02512C22.9861 1.03014 22.9873 1.03555 22.9873 1.04135V1.34003V1.63872V1.93741V2.2361C22.9873 2.2419 22.9861 2.24731 22.9842 2.25233C22.9823 2.25735 22.9792 2.26161 22.9753 2.26547C22.9715 2.26933 22.9672 2.27242 22.9622 2.27436C22.9572 2.27629 22.9518 2.27745 22.946 2.27745Z" fill="#4D4D4D"/>
<path d="M20.201 3.41309L20.1952 3.41889L20.1894 3.42468L20.1836 3.43048L20.1778 3.43627C20.1739 3.44014 20.1697 3.44284 20.165 3.44477C20.1604 3.44671 20.1554 3.44748 20.1503 3.44748C20.1453 3.44748 20.1403 3.44671 20.1357 3.44477C20.131 3.44284 20.1268 3.44014 20.1229 3.43627L19.9108 3.22414L19.6986 3.012L19.4865 2.79987L19.2744 2.58773C19.2705 2.58387 19.2678 2.57962 19.2659 2.57498C19.2639 2.57035 19.2632 2.56532 19.2632 2.5603C19.2632 2.55528 19.2639 2.55025 19.2659 2.54562C19.2678 2.54098 19.2705 2.53673 19.2744 2.53286L19.2802 2.52707L19.286 2.52127L19.2917 2.51548L19.2975 2.50968C19.3014 2.50582 19.3057 2.50311 19.3103 2.50118C19.3149 2.49925 19.32 2.49847 19.325 2.49847C19.33 2.49847 19.335 2.49925 19.3397 2.50118C19.3443 2.50311 19.3485 2.50582 19.3524 2.50968L19.5645 2.72181L19.7767 2.93395L19.9888 3.14609L20.201 3.35822C20.2048 3.36208 20.2075 3.36634 20.2095 3.37097C20.2114 3.37561 20.2122 3.38063 20.2122 3.38566C20.2122 3.39068 20.2114 3.3957 20.2095 3.40034C20.2075 3.40498 20.2048 3.40923 20.201 3.41309Z" fill="#4D4D4D"/>
<path d="M25.9162 3.43627L25.9104 3.43048L25.9046 3.42468L25.8988 3.41889L25.893 3.41309C25.8892 3.40923 25.8865 3.40498 25.8845 3.40034C25.8826 3.3957 25.8818 3.39068 25.8818 3.38566C25.8818 3.38063 25.8826 3.37561 25.8845 3.37097C25.8865 3.36634 25.8892 3.36208 25.893 3.35822L26.1052 3.14609L26.3173 2.93395L26.5294 2.72181L26.7416 2.50968C26.7454 2.50582 26.7497 2.50311 26.7543 2.50118C26.759 2.49925 26.764 2.49847 26.769 2.49847C26.774 2.49847 26.7791 2.49925 26.7837 2.50118C26.7883 2.50311 26.7926 2.50582 26.7965 2.50968L26.8022 2.51548L26.808 2.52127L26.8138 2.52707L26.8196 2.53286C26.8235 2.53673 26.8262 2.54098 26.8281 2.54562C26.8301 2.55025 26.8308 2.55528 26.8308 2.5603C26.8308 2.56532 26.8301 2.57035 26.8281 2.57498C26.8262 2.57962 26.8235 2.58387 26.8196 2.58773L26.6075 2.79987L26.3954 3.012L26.1832 3.22414L25.9711 3.43627C25.9672 3.44014 25.963 3.44284 25.9583 3.44477C25.9537 3.44671 25.9487 3.44748 25.9437 3.44748C25.9386 3.44748 25.9336 3.44671 25.929 3.44477C25.9243 3.44284 25.9201 3.44014 25.9162 3.43627Z" fill="#4D4D4D"/>
<path d="M20.177 8.71028L20.1832 8.71646L20.1894 8.72265L20.1955 8.72883L20.2017 8.73501C20.2056 8.73888 20.2087 8.7439 20.2106 8.74854C20.2125 8.75356 20.2137 8.75897 20.2137 8.76399C20.2137 8.7694 20.2125 8.77442 20.2106 8.77945C20.2087 8.78447 20.2056 8.78911 20.2017 8.79297L19.9904 9.00433L19.779 9.2157L19.5676 9.42706L19.3563 9.63842C19.3524 9.64229 19.3474 9.64538 19.3428 9.64731C19.3377 9.64924 19.3323 9.6504 19.3273 9.6504C19.3223 9.6504 19.3169 9.64924 19.3118 9.64731C19.3068 9.64538 19.3022 9.64229 19.2983 9.63842L19.2921 9.63224L19.286 9.62606L19.2798 9.61987L19.2736 9.61369C19.2697 9.60983 19.2666 9.6048 19.2647 9.60017C19.2628 9.59553 19.2616 9.58973 19.2616 9.58471C19.2616 9.5793 19.2628 9.57428 19.2647 9.56926C19.2666 9.56423 19.2697 9.5596 19.2736 9.55573L19.485 9.34437L19.6963 9.13301L19.9077 8.92164L20.1187 8.71028C20.1225 8.70642 20.1275 8.70333 20.1322 8.70139C20.1368 8.69946 20.1426 8.6983 20.1476 8.6983C20.1527 8.6983 20.1581 8.69946 20.1631 8.70139C20.1681 8.70333 20.1731 8.70642 20.177 8.71028Z" fill="#4D4D4D"/>
<path d="M22.8977 9.75854H22.9058H22.9139H22.922H22.9301C22.9355 9.75854 22.9405 9.7597 22.9452 9.76164C22.9498 9.76357 22.9541 9.76627 22.9575 9.77014C22.961 9.774 22.9641 9.77787 22.966 9.7825C22.968 9.78714 22.9691 9.79216 22.9691 9.79757V10.0974V10.3973V10.6971V10.997C22.9691 11.0024 22.968 11.0074 22.966 11.012C22.9641 11.0167 22.9614 11.0209 22.9575 11.0244C22.9541 11.0279 22.9498 11.031 22.9452 11.0329C22.9405 11.0348 22.9355 11.036 22.9301 11.036H22.922H22.9139H22.9058H22.8977C22.8922 11.036 22.8872 11.0348 22.8826 11.0329C22.8779 11.031 22.8737 11.0279 22.8702 11.0244C22.8667 11.0209 22.8637 11.0167 22.8617 11.012C22.8598 11.0074 22.8586 11.0024 22.8586 10.997V10.6971V10.3973V10.0974V9.79757C22.8586 9.79216 22.8598 9.78714 22.8617 9.7825C22.8637 9.77787 22.8664 9.77361 22.8702 9.77014C22.8741 9.76666 22.8779 9.76357 22.8826 9.76164C22.8872 9.7597 22.8922 9.75854 22.8977 9.75854Z" fill="#4D4D4D"/>
<path d="M19.2778 6.04523V6.05335V6.06146V6.06958V6.07769C19.2778 6.0831 19.2767 6.08812 19.2747 6.09276C19.2728 6.0974 19.2701 6.10165 19.2662 6.10512C19.2628 6.1086 19.2585 6.11169 19.2539 6.11363C19.2492 6.11556 19.2442 6.11672 19.2388 6.11672H18.939H18.6391H18.3393H18.039C18.0336 6.11672 18.0286 6.11556 18.024 6.11363C18.0193 6.11169 18.0151 6.10899 18.0116 6.10512C18.0081 6.10165 18.005 6.0974 18.0031 6.09276C18.0012 6.08812 18 6.0831 18 6.07769V6.06996V6.06185V6.05373V6.04562C18 6.04021 18.0012 6.03519 18.0031 6.03055C18.005 6.02591 18.0077 6.02166 18.0116 6.01818C18.0151 6.01471 18.0193 6.01161 18.024 6.00968C18.0286 6.00775 18.0336 6.00659 18.039 6.00659H18.3389H18.6387H18.9386H19.2384C19.2438 6.00659 19.2489 6.00775 19.2535 6.00968C19.2581 6.01161 19.2624 6.01432 19.2659 6.01818C19.2693 6.02205 19.2724 6.02591 19.2744 6.03055C19.2763 6.03519 19.2778 6.04021 19.2778 6.04523Z" fill="#4D4D4D"/>
<path d="M25.6006 8.77517L25.6068 8.76899L25.6129 8.76281L25.6191 8.75663L25.6253 8.75044C25.6292 8.74658 25.6342 8.74349 25.6388 8.74156C25.6435 8.73962 25.6493 8.73846 25.6543 8.73846C25.6597 8.73846 25.6647 8.73962 25.6697 8.74156C25.6748 8.74349 25.6794 8.74658 25.6833 8.75044L25.8946 8.96181L26.106 9.17317L26.3173 9.38453L26.5287 9.59589C26.5326 9.59976 26.5357 9.60478 26.5376 9.60942C26.5395 9.61444 26.5407 9.61985 26.5407 9.62487C26.5407 9.6299 26.5395 9.63531 26.5376 9.64033C26.5357 9.64535 26.5326 9.64999 26.5287 9.65385L26.5225 9.66004L26.5163 9.66622L26.5102 9.6724L26.504 9.67858C26.5001 9.68245 26.4951 9.68554 26.4905 9.68747C26.4854 9.6894 26.48 9.69056 26.475 9.69056C26.4696 9.69056 26.4646 9.6894 26.4595 9.68747C26.4545 9.68554 26.4499 9.68245 26.446 9.67858L26.2347 9.46722L26.0233 9.25586L25.8119 9.0445L25.6006 8.83313C25.5967 8.82927 25.5936 8.82425 25.5917 8.81961C25.5898 8.81497 25.5886 8.80918 25.5886 8.80415C25.5886 8.79874 25.5898 8.79372 25.5917 8.7887C25.5936 8.78367 25.5967 8.77942 25.6006 8.77517Z" fill="#4D4D4D"/>
<path d="M26.6029 6.07808V6.06996V6.06185V6.05373V6.04562C26.6029 6.04021 26.604 6.03519 26.606 6.03055C26.6079 6.02591 26.6106 6.02166 26.6145 6.01818C26.6183 6.01471 26.6222 6.01161 26.6268 6.00968C26.6315 6.00775 26.6365 6.00659 26.6419 6.00659H26.9418H27.2416H27.5415H27.8413C27.8467 6.00659 27.8517 6.00775 27.8564 6.00968C27.861 6.01161 27.8653 6.01432 27.8687 6.01818C27.8722 6.02205 27.8753 6.02591 27.8772 6.03055C27.8792 6.03519 27.8803 6.04021 27.8803 6.04562V6.05373V6.06185V6.06996V6.07808C27.8803 6.08349 27.8792 6.08851 27.8772 6.09315C27.8753 6.09778 27.8726 6.10203 27.8687 6.10551C27.8649 6.10899 27.861 6.11208 27.8564 6.11401C27.8517 6.11594 27.8467 6.1171 27.8413 6.1171H27.5415H27.2416H26.9418H26.6419C26.6365 6.1171 26.6315 6.11594 26.6268 6.11401C26.6222 6.11208 26.618 6.10937 26.6145 6.10551C26.611 6.10165 26.6079 6.09778 26.606 6.09315C26.604 6.08851 26.6029 6.08349 26.6029 6.07808Z" fill="#4D4D4D"/>
</svg>
