<svg width="30" height="30" viewBox="0 0 30 30" fill="none" xmlns="http://www.w3.org/2000/svg">
<rect width="30" height="30" fill="white"/>
<path d="M30 30H22.5H15H7.5H0V22.5003V15.0005V7.49975V0H7.5H15H22.5H30V7.49975V14.9995V22.4992V30ZM0.252287 29.7477H7.62614H15H22.3739H29.7477V22.3741V15.0005V7.62589V0.252279H22.3739H15H7.62614H0.252287V7.62589V14.9995V22.3731V29.7477Z" fill="#4D4D4D"/>
<path d="M27 15.4509V15.2199V14.9889V14.758V14.527C26.924 12.9401 26.5313 11.4254 25.8856 10.0473C25.2399 8.66919 24.3401 7.42776 23.2536 6.38362C22.1671 5.33947 20.8929 4.49356 19.4956 3.90846C18.0983 3.32335 16.5778 3 14.9995 3C13.4213 3 11.9008 3.32335 10.5034 3.90846C9.1061 4.49356 7.83291 5.34043 6.74642 6.3865C5.65993 7.43258 4.76206 8.67593 4.11536 10.0569C3.46866 11.4379 3.07603 12.9555 3 14.5472V14.7782V15.0091V15.2401V15.4711C3.07603 17.058 3.46866 18.5727 4.1144 19.9508C4.76013 21.3289 5.65897 22.5722 6.74546 23.6164C7.83195 24.6605 9.1061 25.5064 10.5034 26.0915C11.9008 26.6767 13.4213 27 14.9995 27C16.5778 27 18.0983 26.6767 19.4956 26.0915C20.8929 25.5064 22.1671 24.6596 23.2536 23.6145C24.3401 22.5693 25.2389 21.325 25.8846 19.9441C26.5304 18.5602 26.924 17.0426 27 15.4509ZM15.0005 26.6709C13.3914 26.6709 11.8575 26.3437 10.462 25.7518C9.06568 25.16 7.80789 24.3045 6.75123 23.2478C5.69457 22.1911 4.83905 20.9334 4.2472 19.537C3.65536 18.1406 3.32816 16.6076 3.32816 14.9986C3.32816 13.3895 3.65536 11.8555 4.2472 10.4601C4.83905 9.06472 5.69457 7.80597 6.75123 6.74931C7.80789 5.69265 9.06568 4.83712 10.462 4.24528C11.8584 3.65343 13.3914 3.32624 15.0005 3.32624C16.6095 3.32624 18.1435 3.65343 19.5389 4.24528C20.9353 4.83712 22.1931 5.69265 23.2497 6.74931C24.3064 7.80597 25.1619 9.06376 25.7538 10.4601C26.3456 11.8565 26.6728 13.3895 26.6728 14.9986C26.6728 16.6076 26.3456 18.1416 25.7538 19.537C25.1619 20.9334 24.3064 22.1911 23.2497 23.2478C22.1931 24.3045 20.9353 25.16 19.5389 25.7518C18.1435 26.3437 16.6095 26.6709 15.0005 26.6709Z" fill="#4D4D4D"/>
<path d="M5 16.1781L5.84923 16.1765C6.95622 13.7985 9.36344 12.15 12.16 12.15C14.9632 12.15 17.3733 13.8074 18.4765 16.1946H24C22.8329 12.0438 19.0228 8.99999 14.4995 8.99999C9.98129 8.99999 6.17183 12.0352 5 16.1781Z" fill="url(#paint0_linear)"/>
<defs>
<linearGradient id="paint0_linear" x1="24" y1="13.9353" x2="4.62814" y2="13.9353" gradientUnits="userSpaceOnUse">
<stop stop-color="#FFF200"/>
<stop offset="0.1" stop-color="#FFF200"/>
<stop offset="1" stop-color="#FF2800"/>
</linearGradient>
</defs>
</svg>
