<svg width="30" height="30" viewBox="0 0 30 30" fill="none" xmlns="http://www.w3.org/2000/svg">
<rect width="30" height="30" fill="white"/>
<path d="M30 30H22.5H15H7.5H0V22.5003V15.0005V7.49975V0H7.5H15H22.5H30V7.49975V14.9995V22.4992V30ZM0.252287 29.7477H7.62614H15H22.3739H29.7477V22.3741V15.0005V7.62589V0.252279H22.3739H15H7.62614H0.252287V7.62589V14.9995V22.3731V29.7477Z" fill="#4D4D4D"/>
<path d="M30 22V21.9421V21.8843V21.8264V21.7685C28.8439 21.3235 27.6602 20.9279 26.4529 20.5844C25.2446 20.241 24.0117 19.9507 22.7583 19.7163C21.5049 19.482 20.2279 19.3027 18.9345 19.1822C17.6401 19.0617 16.3282 19 15 19C13.6718 19 12.3589 19.0617 11.0655 19.1822C9.77111 19.3027 8.49515 19.482 7.24173 19.7163C5.98832 19.9507 4.7554 20.2419 3.54708 20.5844C2.33875 20.9279 1.15605 21.3235 0 21.7685V21.8264V21.8843V21.9421V22C1.15503 21.5522 2.33773 21.1546 3.54605 20.8093C4.75335 20.4639 5.98627 20.1717 7.24071 19.9364C8.49515 19.7011 9.77111 19.5199 11.0655 19.3994C12.3599 19.278 13.6728 19.2163 15.002 19.2163C16.3303 19.2163 17.6431 19.278 18.9376 19.3994C20.232 19.5209 21.5079 19.7011 22.7624 19.9364C24.0168 20.1717 25.2487 20.4649 26.457 20.8093C27.6612 21.1546 28.845 21.5522 30 22Z" fill="#4D4D4D"/>
<path d="M25 5.06812H5.00415V14.4832H25V5.06812Z" stroke="black" stroke-width="0.1" stroke-miterlimit="22.926" stroke-linecap="round" stroke-linejoin="round"/>
<path d="M22.8695 6.82159H20.9798V11.317H22.8695V6.82159Z" fill="#C5C5C5"/>
<path d="M22.8695 6.82159H20.9798V11.317H22.8695V6.82159Z" stroke="black" stroke-width="0.1" stroke-miterlimit="22.926" stroke-linecap="round" stroke-linejoin="round"/>
<path d="M12.4446 6.82159H10.5549V11.317H12.4446V6.82159Z" fill="#C5C5C5"/>
<path d="M12.4446 6.82159H10.5549V11.317H12.4446V6.82159Z" stroke="black" stroke-width="0.1" stroke-miterlimit="22.926" stroke-linecap="round" stroke-linejoin="round"/>
<path d="M15.9216 6.82159H14.0319V11.317H15.9216V6.82159Z" fill="#C5C5C5"/>
<path d="M15.9216 6.82159H14.0319V11.317H15.9216V6.82159Z" stroke="black" stroke-width="0.1" stroke-miterlimit="22.926" stroke-linecap="round" stroke-linejoin="round"/>
<path d="M19.3885 6.82159H17.499V11.317H19.3885V6.82159Z" fill="#C5C5C5"/>
<path d="M19.3885 6.82159H17.499V11.317H19.3885V6.82159Z" stroke="black" stroke-width="0.1" stroke-miterlimit="22.926" stroke-linecap="round" stroke-linejoin="round"/>
<path d="M8.96336 6.82159H7.07385V11.317H8.96336V6.82159Z" fill="#C5C5C5"/>
<path d="M8.96336 6.82159H7.07385V11.317H8.96336V6.82159Z" stroke="black" stroke-width="0.1" stroke-miterlimit="22.926" stroke-linecap="round" stroke-linejoin="round"/>
<path d="M23.1263 6.98016H20.7228V8.82055H23.1263V6.98016Z" fill="white"/>
<path d="M23.1263 6.98016H20.7228V8.82055H23.1263V6.98016Z" stroke="black" stroke-width="0.1" stroke-miterlimit="22.926" stroke-linecap="round" stroke-linejoin="round"/>
<path d="M12.7014 9.26892H10.2978V11.1093H12.7014V9.26892Z" fill="white"/>
<path d="M12.7014 9.26892H10.2978V11.1093H12.7014V9.26892Z" stroke="black" stroke-width="0.1" stroke-miterlimit="22.926" stroke-linecap="round" stroke-linejoin="round"/>
<path d="M16.1784 6.98016H13.7748V8.82055H16.1784V6.98016Z" fill="white"/>
<path d="M16.1784 6.98016H13.7748V8.82055H16.1784V6.98016Z" stroke="black" stroke-width="0.1" stroke-miterlimit="22.926" stroke-linecap="round" stroke-linejoin="round"/>
<path d="M19.6455 6.98016H17.242V8.82055H19.6455V6.98016Z" fill="white"/>
<path d="M19.6455 6.98016H17.242V8.82055H19.6455V6.98016Z" stroke="black" stroke-width="0.1" stroke-miterlimit="22.926" stroke-linecap="round" stroke-linejoin="round"/>
<path d="M9.18573 6.98016H6.78217V8.82055H9.18573V6.98016Z" fill="white"/>
<path d="M9.18573 6.98016H6.78217V8.82055H9.18573V6.98016Z" stroke="black" stroke-width="0.1" stroke-miterlimit="22.926" stroke-linecap="round" stroke-linejoin="round"/>
</svg>
