<svg width="30" height="30" viewBox="0 0 30 30" fill="none" xmlns="http://www.w3.org/2000/svg">
<rect width="30" height="30" fill="white"/>
<path d="M30 30H22.5H15H7.5H0V22.5003V15.0005V7.49975V0H7.5H15H22.5H30V7.49975V14.9995V22.4992V30ZM0.252287 29.7477H7.62614H15H22.3739H29.7477V22.3741V15.0005V7.62589V0.252279H22.3739H15H7.62614H0.252287V7.62589V14.9995V22.3731V29.7477Z" fill="#4D4D4D"/>
<path d="M30 22V21.9421V21.8843V21.8264V21.7685C28.8439 21.3235 27.6602 20.9279 26.4529 20.5844C25.2446 20.241 24.0117 19.9507 22.7583 19.7163C21.5049 19.482 20.2279 19.3027 18.9345 19.1822C17.6401 19.0617 16.3282 19 15 19C13.6718 19 12.3589 19.0617 11.0655 19.1822C9.77111 19.3027 8.49515 19.482 7.24173 19.7163C5.98832 19.9507 4.7554 20.2419 3.54708 20.5844C2.33875 20.9279 1.15605 21.3235 0 21.7685V21.8264V21.8843V21.9421V22C1.15503 21.5522 2.33773 21.1546 3.54605 20.8093C4.75335 20.4639 5.98627 20.1717 7.24071 19.9364C8.49515 19.7011 9.77111 19.5199 11.0655 19.3994C12.3599 19.278 13.6728 19.2163 15.002 19.2163C16.3303 19.2163 17.6431 19.278 18.9376 19.3994C20.232 19.5209 21.5079 19.7011 22.7624 19.9364C24.0168 20.1717 25.2487 20.4649 26.457 20.8093C27.6612 21.1546 28.845 21.5522 30 22Z" fill="#4D4D4D"/>
<path d="M21.2317 6.38276C20.8662 5.52014 20.3376 4.74251 19.6841 4.08896C19.0305 3.43541 18.2537 2.90679 17.3903 2.54135C16.5277 2.1759 15.5792 1.97363 14.5849 1.97363C13.5905 1.97363 12.6421 2.1759 11.7794 2.54135C10.9168 2.90679 10.1392 3.43541 9.48563 4.08896C8.83208 4.74251 8.30431 5.52014 7.93887 6.38276C7.57342 7.24538 7.37115 8.19383 7.37115 9.18818C7.37115 10.1825 7.57342 11.131 7.93887 11.9936C8.30431 12.8562 8.83293 13.6339 9.48648 14.2874C10.14 14.941 10.9168 15.4696 11.7803 15.835C12.6429 16.2005 13.5914 16.4027 14.5857 16.4027C15.5792 16.4019 16.526 16.1988 17.3886 15.8325C18.2512 15.4662 19.028 14.9376 19.6815 14.284C20.3351 13.6305 20.8637 12.8537 21.23 11.9911C21.5963 11.1284 21.7994 10.1817 21.8003 9.18818C21.7994 8.19383 21.5971 7.24623 21.2317 6.38276ZM21.0184 11.9035C20.6648 12.7389 20.1524 13.4911 19.5209 14.1234C18.8894 14.7557 18.1365 15.2673 17.301 15.6209C16.4656 15.9744 15.5486 16.1707 14.5857 16.1707C13.6228 16.1707 12.7058 15.9752 11.8704 15.6209C11.0349 15.2673 10.2828 14.7548 9.65051 14.1234C9.0182 13.4919 8.50658 12.7389 8.15304 11.9035C7.79949 11.0681 7.60317 10.1511 7.60317 9.18818C7.60317 8.22528 7.79864 7.30827 8.15304 6.47285C8.50658 5.63742 9.01905 4.88529 9.65051 4.25299C10.282 3.62068 11.0349 3.10906 11.8704 2.75551C12.7058 2.40197 13.6228 2.20565 14.5857 2.20565C15.5469 2.2065 16.4639 2.40367 17.2985 2.75806C18.1331 3.11246 18.8852 3.62493 19.5175 4.25638C20.1498 4.88784 20.6614 5.64082 21.0158 6.4754C21.3702 7.30997 21.5665 8.22698 21.5682 9.18818C21.5674 10.1511 21.3719 11.0689 21.0184 11.9035Z" fill="#4D4D4D"/>
<path d="M11.006 10.3159C11.1751 10.3159 11.3358 10.3499 11.4819 10.412C11.6281 10.474 11.7599 10.5632 11.8703 10.6737C11.9808 10.7842 12.0709 10.9159 12.1321 11.0621C12.1933 11.2083 12.2281 11.3689 12.2281 11.538C12.2281 11.7072 12.1941 11.8678 12.1321 12.014C12.0701 12.1601 11.9808 12.2919 11.8703 12.4023C11.7599 12.5128 11.6281 12.6029 11.4819 12.6641C11.3358 12.7253 11.1751 12.7601 11.006 12.7601C10.8369 12.7601 10.6763 12.7262 10.5301 12.6641C10.3839 12.6021 10.2522 12.5128 10.1417 12.4023C10.0312 12.2919 9.94113 12.1601 9.87994 12.014C9.81875 11.8678 9.78391 11.7072 9.78391 11.538C9.78391 11.3689 9.8179 11.2083 9.87994 11.0621C9.94198 10.9159 10.0312 10.7842 10.1417 10.6737C10.2522 10.5632 10.3839 10.4731 10.5301 10.412C10.6763 10.3508 10.8369 10.3159 11.006 10.3159Z" fill="#4D4D4D"/>
<path d="M18.1365 10.3159C18.3056 10.3159 18.4662 10.3499 18.6124 10.412C18.7586 10.474 18.8903 10.5632 19.0008 10.6737C19.1113 10.7842 19.2013 10.9159 19.2625 11.0621C19.3237 11.2083 19.3586 11.3689 19.3586 11.538C19.3586 11.7072 19.3246 11.8678 19.2625 12.014C19.2005 12.1601 19.1113 12.2919 19.0008 12.4032C18.8903 12.5145 18.7586 12.6038 18.6124 12.665C18.4662 12.727 18.3056 12.761 18.1365 12.761C17.9673 12.761 17.8067 12.727 17.6605 12.665C17.5143 12.6029 17.3826 12.5137 17.2721 12.4032C17.1616 12.2927 17.0716 12.161 17.0104 12.0148C16.9492 11.8686 16.9143 11.708 16.9143 11.5389C16.9143 11.3698 16.9483 11.2091 17.0104 11.063C17.0724 10.9168 17.1616 10.785 17.2721 10.6746C17.3826 10.5641 17.5143 10.474 17.6605 10.4128C17.8067 10.3499 17.9673 10.3159 18.1365 10.3159Z" fill="#4D4D4D"/>
<path d="M10.672 6.26544C10.8412 6.26544 11.0018 6.29944 11.148 6.36148C11.2941 6.42352 11.4259 6.51275 11.5363 6.62324C11.6468 6.73372 11.7369 6.86545 11.7981 7.01163C11.8601 7.15781 11.8941 7.31843 11.8941 7.48756C11.8941 7.65668 11.8601 7.81731 11.7981 7.96348C11.7361 8.10966 11.6468 8.24139 11.5363 8.35187C11.4259 8.46236 11.2941 8.55244 11.148 8.61363C11.0018 8.67482 10.8412 8.70967 10.672 8.70967C10.5029 8.70967 10.3423 8.67567 10.1961 8.61363C10.0499 8.55159 9.9182 8.46321 9.80771 8.35272C9.69723 8.24224 9.60714 8.11051 9.5451 7.96433C9.48306 7.81815 9.44907 7.65753 9.44907 7.48841C9.44907 7.31928 9.48306 7.15866 9.5451 7.01248C9.60714 6.8663 9.69638 6.73457 9.80686 6.62409C9.91735 6.5136 10.0491 6.42352 10.1953 6.36233C10.3414 6.30114 10.5029 6.26544 10.672 6.26544Z" fill="#4D4D4D"/>
<path d="M18.4704 6.26544C18.6396 6.26544 18.8002 6.29944 18.9464 6.36148C19.0925 6.42352 19.2243 6.51275 19.3348 6.62324C19.4452 6.73372 19.5353 6.86545 19.5965 7.01163C19.6586 7.15781 19.6925 7.31843 19.6925 7.48756C19.6925 7.65668 19.6586 7.81731 19.5965 7.96348C19.5345 8.10966 19.4452 8.24139 19.3348 8.35187C19.2243 8.46236 19.0925 8.55244 18.9464 8.61363C18.8002 8.67567 18.6396 8.70967 18.4704 8.70967C18.3013 8.70967 18.1407 8.67567 17.9945 8.61363C17.8483 8.55159 17.7166 8.46236 17.6061 8.35187C17.4956 8.24139 17.4055 8.10966 17.3444 7.96348C17.2832 7.81731 17.2483 7.65668 17.2483 7.48756C17.2483 7.31843 17.2823 7.15781 17.3444 7.01163C17.4064 6.86545 17.4956 6.73372 17.6061 6.62324C17.7166 6.51275 17.8483 6.42267 17.9945 6.36148C18.1407 6.29944 18.3013 6.26544 18.4704 6.26544Z" fill="#4D4D4D"/>
<path d="M14.5848 12.5052C14.754 12.5052 14.9146 12.5392 15.0608 12.6013C15.207 12.6633 15.3387 12.7526 15.4492 12.863C15.5596 12.9735 15.6497 13.1053 15.7109 13.2514C15.773 13.3976 15.807 13.5582 15.807 13.7274C15.807 13.8965 15.773 14.0571 15.7109 14.2033C15.6489 14.3495 15.5596 14.4812 15.4492 14.5917C15.3387 14.7022 15.207 14.7923 15.0608 14.8534C14.9146 14.9146 14.754 14.9495 14.5848 14.9495C14.4157 14.9495 14.2551 14.9155 14.1089 14.8534C13.9627 14.7914 13.831 14.7022 13.7205 14.5917C13.61 14.4812 13.52 14.3495 13.4588 14.2033C13.3967 14.0571 13.3627 13.8965 13.3627 13.7274C13.3627 13.5582 13.3967 13.3976 13.4588 13.2514C13.5208 13.1053 13.61 12.9735 13.7205 12.863C13.831 12.7526 13.9627 12.6625 14.1089 12.6013C14.2551 12.5401 14.4166 12.5052 14.5848 12.5052Z" fill="#4D4D4D"/>
<path d="M5 25.0779H9.99979H14.9996H19.9994H20.1209" stroke="#4D4D4D" stroke-width="0.8" stroke-miterlimit="10"/>
<path d="M19.1291 28.468L25 25.0779L19.1291 21.6877V28.468Z" fill="#4D4D4D"/>
</svg>
