<svg width="30" height="30" viewBox="0 0 30 30" fill="none" xmlns="http://www.w3.org/2000/svg">
<rect width="30" height="30" fill="white"/>
<path d="M30 30H22.5H15H7.5H0V22.5003V15.0005V7.49975V0H7.5H15H22.5H30V7.49975V14.9995V22.4992V30ZM0.252287 29.7477H7.62614H15H22.3739H29.7477V22.3741V15.0005V7.62589V0.252279H22.3739H15H7.62614H0.252287V7.62589V14.9995V22.3731V29.7477Z" fill="#4D4D4D"/>
<path d="M22.3315 6.68931V6.57431H22.2165H20.237V6.115H24.885V6.57431H22.9055H22.7905V6.68931V7.4062V7.5212H22.9055H23.622C23.7514 7.5212 23.8378 7.60752 23.8378 7.73707V9.14328C23.8378 10.6375 21.7142 10.9116 21.3356 9.47247L21.3116 9.38095L21.2171 9.38695C19.4443 9.49957 17.8386 10.457 16.9366 11.9795C16.7476 12.2946 16.4061 12.5398 15.9735 12.7066C15.5419 12.873 15.0292 12.9574 14.5138 12.9574C13.9983 12.9574 13.4856 12.873 13.054 12.7066C12.6213 12.5397 12.2798 12.2944 12.0908 11.9793L12.0903 11.9785C11.1615 10.4578 9.5844 9.49964 7.81044 9.38695L7.716 9.38095L7.69193 9.47247C7.31298 10.9132 5.16224 10.6358 5.16224 9.14328V7.73707C5.16224 7.61922 5.2638 7.5212 5.40551 7.5212H6.12205H6.23705V7.4062V6.68931V6.57431H6.12205H4.115V6.115H8.79051V6.57431H6.81102H6.69602V6.68931V7.4062V7.5212H6.81102H7.5V7.52179L7.51156 7.52062C12.9606 6.96994 16.067 6.96994 21.516 7.52062L21.5159 7.5212H21.5276H22.2165H22.3315V7.4062V6.68931ZM5.76378 7.98052H5.64878V8.09552V9.14328C5.64878 9.40315 5.75041 9.6059 5.90825 9.74215C6.06373 9.87635 6.26724 9.9407 6.46654 9.9407C6.66583 9.9407 6.86934 9.87635 7.02482 9.74215C7.18267 9.6059 7.28429 9.40315 7.28429 9.14328V8.09552V7.98052H7.16929H5.76378ZM21.1758 8.92722L21.2843 8.92111V8.81241V8.06794V7.96404L21.1809 7.95353C16.0196 7.42887 13.0079 7.42887 7.84664 7.95353L7.74327 7.96404V8.06794V8.81241V8.92111L7.8518 8.92722C9.77019 9.03535 11.4992 10.0896 12.4718 11.7384L12.4718 11.7384L12.4738 11.7417C12.6393 12.0018 12.9479 12.1837 13.3044 12.301C13.6641 12.4193 14.0891 12.4774 14.5103 12.4774C14.9315 12.4774 15.355 12.4193 15.7114 12.3009C16.0645 12.1836 16.369 12.0011 16.5275 11.7395C17.5279 10.0895 19.2576 9.03534 21.1758 8.92722ZM23.3788 8.09552V7.98052H23.2638H21.8583H21.7433V8.09552V9.14328C21.7433 9.40315 21.8449 9.6059 22.0027 9.74215C22.1582 9.87635 22.3617 9.9407 22.561 9.9407C22.7603 9.9407 22.9638 9.87635 23.1193 9.74215C23.2772 9.6059 23.3788 9.40315 23.3788 9.14328V8.09552Z" fill="#4D4D4D" stroke="white" stroke-width="0.23"/>
<path d="M13.237 10.1911C13.237 9.47949 13.7949 8.89985 14.5 8.89985C15.2081 8.89985 15.7905 9.48248 15.7905 10.1911C15.7905 10.8996 15.2081 11.4823 14.5 11.4823C13.7949 11.4823 13.237 10.9026 13.237 10.1911ZM13.696 10.1911C13.696 10.6346 14.0448 11.0229 14.5 11.0229C14.9494 11.0229 15.3315 10.6405 15.3315 10.1911C15.3315 9.7358 14.9434 9.38674 14.5 9.38674C14.0506 9.38674 13.696 9.74158 13.696 10.1911Z" fill="#4D4D4D" stroke="white" stroke-width="0.23"/>
<path d="M22.1009 14.1662C22.0722 16.6065 21.1302 18.4337 19.7337 19.6567C18.3131 20.9009 16.4154 21.5256 14.5138 21.5256C12.6121 21.5256 10.7145 20.9009 9.29391 19.6567C7.89741 18.4337 6.9554 16.6065 6.9267 14.1662H7.38573C7.41442 16.4431 8.29534 18.1633 9.61167 19.3179C10.9478 20.4898 12.7259 21.0731 14.5 21.0731C16.2741 21.0731 18.0522 20.4898 19.3883 19.3179C20.7047 18.1633 21.5856 16.4431 21.6143 14.1662H22.1009Z" fill="#4D4D4D" stroke="white" stroke-width="0.23"/>
<path d="M19.2894 14.1662C19.2612 15.6898 18.6705 16.8295 17.8009 17.5941C16.9074 18.3798 15.7125 18.7752 14.5138 18.7752C13.315 18.7752 12.1202 18.3798 11.2267 17.5941C10.3571 16.8295 9.76641 15.6898 9.73811 14.1662H10.1972C10.2257 15.5198 10.757 16.5472 11.5487 17.2397C12.3604 17.9497 13.4391 18.3021 14.5138 18.3021C15.5885 18.3021 16.6672 17.9497 17.4789 17.2397C18.2706 16.5472 18.8019 15.5198 18.8303 14.1662H19.2894Z" fill="#4D4D4D" stroke="white" stroke-width="0.23"/>
<path d="M16.5044 14.1662C16.477 14.7654 16.2351 15.2125 15.8876 15.5155C15.516 15.8395 15.0169 16.0042 14.5138 16.0042C14.0106 16.0042 13.5115 15.8395 13.1399 15.5155C12.7925 15.2125 12.5506 14.7654 12.5231 14.1662H13.0105C13.0373 14.6036 13.2167 14.9428 13.4808 15.1765C13.7654 15.4283 14.1415 15.5517 14.5138 15.5517C14.8861 15.5517 15.2622 15.4283 15.5468 15.1765C15.8109 14.9428 15.9903 14.6036 16.017 14.1662H16.5044Z" fill="#4D4D4D" stroke="white" stroke-width="0.23"/>
<path d="M24.8845 14.1662C24.8557 17.5303 23.5639 20.0502 21.6429 21.7351C19.6978 23.441 17.1009 24.2966 14.5 24.2966C11.8991 24.2966 9.30215 23.441 7.35708 21.7351C5.43606 20.0502 4.14427 17.5303 4.11549 14.1662H4.60205C4.63086 17.3598 5.85973 19.7677 7.69846 21.3806C9.55697 23.011 12.0318 23.8235 14.5034 23.8235C16.9751 23.8235 19.4516 23.011 21.3135 21.3807C23.1557 19.7678 24.3897 17.3599 24.4253 14.1662H24.8845Z" fill="#4D4D4D" stroke="white" stroke-width="0.23"/>
</svg>
