<svg width="30" height="30" viewBox="0 0 30 30" fill="none" xmlns="http://www.w3.org/2000/svg">
<rect width="30" height="30" fill="white"/>
<path d="M30 30H22.5H15H7.5H0V22.5003V15.0005V7.49975V0H7.5H15H22.5H30V7.49975V14.9995V22.4992V30ZM0.252287 29.7477H7.62614H15H22.3739H29.7477V22.3741V15.0005V7.62589V0.252279H22.3739H15H7.62614H0.252287V7.62589V14.9995V22.3731V29.7477Z" fill="#4D4D4D"/>
<path d="M23.7963 19.8298C24.0028 19.5784 24.2101 19.2702 24.3921 18.8967C24.5749 18.5231 24.7326 18.0834 24.8421 17.5688C24.9516 17.0542 25.0115 16.4647 24.9981 15.7909C24.9847 15.1171 24.8981 14.359 24.7136 13.5086C24.5418 12.7087 24.2999 11.9672 24.0036 11.3044C23.7081 10.6416 23.3582 10.0569 22.9712 9.57142C22.5843 9.08518 22.1595 8.69823 21.7127 8.4295C21.2658 8.16077 20.7977 8.01103 20.3233 8H20.3067H20.2902H20.2736H20.2571C19.692 8 19.1719 8.1718 18.6975 8.4689C18.2239 8.76601 17.7959 9.18763 17.4177 9.68805C17.0394 10.1885 16.7092 10.7661 16.431 11.3745C16.1528 11.9821 15.9258 12.622 15.7517 13.2454C15.7659 13.2525 15.7793 13.2596 15.7934 13.2675C15.8076 13.2746 15.821 13.2825 15.8352 13.2895C15.8486 13.2966 15.8628 13.3045 15.8762 13.3116C15.8896 13.3187 15.9038 13.3266 15.9172 13.3337C16.0748 12.734 16.2884 12.1114 16.5524 11.5132C16.8172 10.9159 17.134 10.3437 17.4996 9.84645C17.8653 9.34918 18.2798 8.92756 18.7401 8.62967C19.2003 8.33178 19.707 8.1584 20.2571 8.1584H20.2689H20.2807H20.2926H20.3044C20.7488 8.16471 21.1925 8.30971 21.6197 8.57135C22.0468 8.83299 22.455 9.21284 22.8294 9.68726C23.2037 10.1617 23.5434 10.7315 23.831 11.3745C24.1187 12.0176 24.3543 12.734 24.5214 13.5015C24.6632 14.1627 24.7507 14.7924 24.7846 15.3874C24.8185 15.9816 24.798 16.5403 24.7247 17.0605C24.6514 17.5806 24.5245 18.0613 24.3456 18.4995C24.1659 18.9377 23.9342 19.3333 23.6497 19.6832C23.4054 19.9819 23.1367 20.2333 22.8546 20.4413C22.5732 20.6494 22.2785 20.8149 21.9853 20.9425C21.6914 21.0702 21.3982 21.1608 21.1177 21.2199C20.8371 21.2782 20.57 21.305 20.3288 21.305C20.1121 21.305 19.8678 21.283 19.6077 21.2341C19.3477 21.1852 19.071 21.1104 18.7897 21.004C18.5076 20.8976 18.2207 20.7605 17.9386 20.5871C17.6565 20.4137 17.3798 20.2057 17.119 19.9574L17.1127 19.9519L17.1064 19.9464L17.0985 19.9401L17.0922 19.9346C17.0796 19.9448 17.0662 19.9551 17.0536 19.9653C17.041 19.9756 17.0276 19.9858 17.015 19.996C17.0016 20.0063 16.989 20.0165 16.9756 20.0268C16.9622 20.037 16.9488 20.0473 16.9354 20.0567C17.2065 20.3239 17.4949 20.5485 17.7888 20.7345C18.0836 20.9212 18.3846 21.0694 18.6809 21.1852C18.978 21.3003 19.2704 21.3823 19.5478 21.4351C19.8252 21.4879 20.0884 21.5123 20.3257 21.5123C20.6551 21.5123 20.9829 21.4729 21.3029 21.3972C21.6228 21.3216 21.9357 21.2105 22.2336 21.0663C22.5315 20.922 22.8152 20.7447 23.0776 20.5375C23.34 20.3302 23.582 20.0938 23.7963 19.8298Z" fill="#4D4D4D"/>
<path d="M18.5367 17.1015C18.5478 16.4986 18.3657 15.9461 18.0465 15.4473C17.7274 14.9477 17.2703 14.5008 16.7297 14.1092C16.1898 13.7175 15.5665 13.381 14.9147 13.1028C14.263 12.8246 13.5837 12.6031 12.9296 12.4432C12.7152 12.3912 12.504 12.3454 12.2976 12.306C12.0911 12.2666 11.8878 12.2343 11.6892 12.2075C11.4906 12.1815 11.2967 12.1618 11.1068 12.1484C10.9176 12.135 10.7324 12.1287 10.5528 12.1287C9.99165 12.1287 9.48808 12.1886 9.0373 12.2903C8.58652 12.3927 8.18854 12.5369 7.83864 12.7072C7.48873 12.8766 7.18611 13.0713 6.92684 13.2738C6.66756 13.4763 6.45163 13.6867 6.27274 13.8869C6.07336 14.1076 5.89446 14.3479 5.73764 14.6017C5.58081 14.8555 5.44684 15.1226 5.3373 15.3969C5.22775 15.6711 5.14343 15.9532 5.08669 16.2362C5.02995 16.5191 5 16.8036 5 17.0833C5 17.3639 5.02758 17.6437 5.08196 17.9187C5.13634 18.1937 5.21593 18.4633 5.31996 18.7241C5.42398 18.985 5.55244 19.2356 5.70375 19.4728C5.85506 19.71 6.02844 19.933 6.2223 20.1379C6.39174 20.3239 6.59979 20.5185 6.85434 20.7053C7.1081 20.8929 7.40756 21.0726 7.75983 21.2294C8.11131 21.3862 8.51559 21.5194 8.97898 21.614C9.44237 21.7085 9.96486 21.7637 10.5528 21.7637C10.7451 21.7637 10.9413 21.7582 11.1407 21.7464C11.3408 21.7353 11.5442 21.718 11.7514 21.6951C11.9587 21.6723 12.1683 21.6447 12.3819 21.6108C12.5954 21.5769 12.8114 21.5375 13.0305 21.4926C13.8296 21.3208 14.5711 21.0789 15.2339 20.7826C15.8967 20.487 16.4806 20.1371 16.9669 19.7494C17.4531 19.3617 17.8401 18.9369 18.108 18.49C18.376 18.0448 18.5257 17.5759 18.5367 17.1015ZM12.9871 21.3232C12.772 21.3697 12.5592 21.4106 12.3496 21.4453C12.1399 21.48 11.9335 21.5099 11.7301 21.5328C11.5268 21.5564 11.3267 21.5738 11.1304 21.5856C10.9342 21.5974 10.7411 21.6029 10.5528 21.6029C9.49123 21.6029 8.62514 21.4193 7.92217 21.1191C7.21921 20.8188 6.68175 20.4027 6.27589 19.9377C5.87003 19.4728 5.59736 18.9597 5.42556 18.4648C5.25376 17.9699 5.18362 17.4947 5.18362 17.1062C5.18362 16.6428 5.27504 16.1116 5.47284 15.575C5.67065 15.0383 5.97485 14.4969 6.40198 14.0138C6.82833 13.5299 7.37762 13.1044 8.06403 12.8002C8.75044 12.496 9.57476 12.3116 10.5528 12.3116C10.7238 12.3116 10.9011 12.3179 11.0839 12.3305C11.2668 12.3431 11.4551 12.362 11.6498 12.388C11.8436 12.4132 12.0438 12.4455 12.2479 12.4834C12.4528 12.5212 12.6624 12.5653 12.8768 12.6158C13.5136 12.7694 14.1763 12.9798 14.8107 13.247C15.4451 13.5142 16.0519 13.8365 16.5776 14.2116C17.1032 14.5875 17.5477 15.0162 17.8574 15.4969C18.1671 15.9769 18.3429 16.508 18.3303 17.0881C18.324 17.542 18.1821 17.9912 17.9244 18.4199C17.6667 18.8486 17.2916 19.2584 16.8203 19.632C16.349 20.0055 15.7808 20.3436 15.1354 20.6305C14.49 20.9173 13.7673 21.1537 12.9871 21.3232Z" fill="#4D4D4D"/>
</svg>
