<svg width="30" height="30" viewBox="0 0 30 30" fill="none" xmlns="http://www.w3.org/2000/svg">
<rect width="30" height="30" fill="white"/>
<path d="M30 30H22.5H15H7.5H0V22.5003V15.0005V7.49975V0H7.5H15H22.5H30V7.49975V14.9995V22.4992V30ZM0.252287 29.7477H7.62614H15H22.3739H29.7477V22.3741V15.0005V7.62589V0.252279H22.3739H15H7.62614H0.252287V7.62589V14.9995V22.3731V29.7477Z" fill="#4D4D4D"/>
<path d="M24.5662 21.0472V21.0034V20.9595V20.9157V20.8719V19.0699V17.2679V15.4659V13.6639V13.62V13.5762V13.5324V13.4886H24.61H24.6538H24.6976H24.7415H24.8528H24.9641H25.0754H25.1867C25.1999 13.4886 25.2121 13.4859 25.2235 13.4807C25.2349 13.4754 25.2454 13.4693 25.2533 13.4605C25.2612 13.4518 25.2691 13.4412 25.2735 13.4299C25.2779 13.4185 25.2814 13.4062 25.2814 13.393V12.8312V12.2694V11.7076V11.1467C25.2814 11.1335 25.2787 11.1213 25.2735 11.1099C25.2691 11.0985 25.2621 11.0879 25.2533 11.0792C25.2446 11.0704 25.234 11.0634 25.2235 11.059C25.2121 11.0538 25.1999 11.0511 25.1867 11.0511H25.0754H24.965H24.8537H24.7423H24.6985H24.6547H24.6109H24.5671V11.0073V10.9635V10.9197V10.8758V9.18077V7.48569V5.79061V4.09553C24.5671 4.08239 24.5644 4.07012 24.5592 4.05872C24.5539 4.04733 24.5478 4.03681 24.539 4.02805C24.5302 4.01928 24.5197 4.01227 24.5083 4.00789C24.4969 4.00263 24.4847 4 24.4715 4H23.9325H23.3935H22.8544H22.3154C22.3023 4 22.29 4.00263 22.2786 4.00789C22.2672 4.01315 22.2567 4.01928 22.2479 4.02805C22.2392 4.03681 22.233 4.04733 22.2278 4.05872C22.2225 4.07012 22.2199 4.08239 22.2199 4.09553V5.79061V7.48569V9.18077V10.8758V10.9197V10.9635V11.0073V11.0511H22.1761H22.1322H22.0884H22.0446H21.5117H20.9788H20.4459H19.913H19.7553H19.5975H19.4398H19.282L19.417 10.9696L19.5519 10.8881L19.6869 10.8066L19.8219 10.7251C20.0252 10.6024 20.2075 10.4569 20.3679 10.2939C20.5274 10.13 20.6642 9.94767 20.7764 9.75134C20.8885 9.55502 20.9736 9.34466 21.0323 9.12467C21.0901 8.90468 21.1208 8.67417 21.1208 8.43928C21.1208 8.10447 21.0507 7.69253 20.9201 7.26219C20.7895 6.83185 20.6011 6.38485 20.3635 5.97993C20.126 5.575 19.8403 5.21039 19.5178 4.94833C19.1952 4.68627 18.835 4.525 18.4494 4.525C18.0637 4.525 17.7035 4.68627 17.3809 4.94833C17.0584 5.21039 16.7727 5.57413 16.5352 5.97993C16.2976 6.38573 16.1083 6.83272 15.9786 7.26219C15.8489 7.69166 15.7779 8.10447 15.7779 8.43928C15.7779 8.67505 15.8086 8.90468 15.8664 9.12467C15.9243 9.34466 16.011 9.55502 16.1223 9.75134C16.2337 9.94767 16.3704 10.13 16.5308 10.2939C16.6903 10.4578 16.8735 10.6033 17.0768 10.7251L17.2118 10.8066L17.3468 10.8881L17.4817 10.9696L17.6167 11.0511H17.4589H17.3012H17.1434H16.9857H15.813H14.6402H13.4675H12.2948H12.1371H11.9793H11.8215H11.6638L11.7988 10.9696L11.9337 10.8881L12.0687 10.8066L12.2037 10.7251C12.407 10.6024 12.5893 10.4569 12.7497 10.2939C12.9101 10.1309 13.046 9.94767 13.1581 9.75134C13.2703 9.55502 13.3554 9.34466 13.4141 9.12467C13.4728 8.90468 13.5026 8.67417 13.5026 8.43928C13.5026 8.10447 13.4325 7.69253 13.3019 7.26219C13.1713 6.83185 12.9829 6.38485 12.7453 5.97993C12.5078 5.575 12.2221 5.21039 11.8996 4.94833C11.577 4.68627 11.2168 4.525 10.8311 4.525C10.4455 4.525 10.0853 4.68627 9.76274 4.94833C9.4402 5.21039 9.1571 5.57413 8.91958 5.97993C8.68206 6.38573 8.49274 6.83272 8.36303 7.26307C8.23331 7.69341 8.16319 8.10447 8.16319 8.43928C8.16319 8.67505 8.19387 8.90468 8.25172 9.12467C8.30956 9.34466 8.39633 9.55502 8.50764 9.75134C8.61895 9.94767 8.75568 10.13 8.91607 10.2939C9.07559 10.4578 9.25877 10.6033 9.46211 10.7251L9.59708 10.8066L9.73206 10.8881L9.86704 10.9696L10.002 11.0511H9.84425H9.68648H9.52872H9.37096H8.8407H8.31044H7.78106H7.25167H7.20785H7.16403H7.1202H7.07638V11.0073V10.9635V10.9197V10.8758V9.18077V7.48569V5.79061V4.09553C7.07638 4.08239 7.07375 4.07012 7.06849 4.05872C7.06323 4.04733 7.0571 4.03681 7.04833 4.02892C7.03957 4.02104 7.02905 4.01315 7.01766 4.00789C7.00626 4.00263 6.99399 4.00088 6.98085 4.00088H6.44182H5.9028H5.36377H4.82563C4.81248 4.00088 4.80021 4.00351 4.78882 4.00876C4.77742 4.01402 4.7669 4.02016 4.75814 4.02892C4.74937 4.03769 4.74236 4.04733 4.73798 4.05872C4.7336 4.07012 4.73009 4.08239 4.73009 4.09553V5.79061V7.48569V9.18077V10.8758V10.9197V10.9635V11.0073V11.0511H4.68627H4.64245H4.59862H4.5548H4.43998H4.32517H4.21035H4.09553C4.08239 11.0511 4.07012 11.0538 4.05872 11.059C4.04733 11.0643 4.03681 11.0704 4.02892 11.0792C4.02104 11.0879 4.01315 11.0985 4.00876 11.1099C4.00438 11.1213 4 11.1335 4 11.1467V11.7085V12.2703V12.8321V13.3939C4 13.4071 4.00263 13.4193 4.00789 13.4307C4.01315 13.4421 4.01928 13.4526 4.02805 13.4614C4.03681 13.4702 4.04733 13.4772 4.05785 13.4816C4.06836 13.4859 4.08151 13.4895 4.09466 13.4895H4.21035H4.32517H4.43998H4.5548H4.59862H4.64245H4.68627H4.73009V13.5333V13.5771V13.6209V13.6647V15.4668V17.2688V19.0708V20.8728V20.9166V20.9604V21.0042V21.0481H4.68627H4.64245H4.59862H4.5548H4.43998H4.32517H4.21035H4.09553C4.08239 21.0481 4.07012 21.0507 4.05872 21.0559C4.04733 21.0612 4.03681 21.0673 4.02892 21.0761C4.02104 21.0849 4.01315 21.0954 4.00876 21.1068C4.00438 21.1182 4 21.1287 4 21.1418V21.7037V22.2655V22.8273V23.3891C4 23.4022 4.00263 23.4145 4.00789 23.4259C4.01315 23.4373 4.01928 23.4478 4.02805 23.4566C4.03681 23.4653 4.04733 23.4724 4.05785 23.4767C4.06836 23.4811 4.08151 23.4846 4.09466 23.4846H4.21035H4.32517H4.43998H4.5548H4.59862H4.64245H4.68627H4.73009V23.5284V23.5723V23.6161V23.6599V24.0421V24.4242V24.8063V25.1885C4.73009 25.2016 4.73272 25.2139 4.73798 25.2253C4.74324 25.2367 4.74937 25.2472 4.75814 25.256C4.7669 25.2647 4.77742 25.2717 4.78882 25.2761C4.80021 25.2805 4.81248 25.284 4.82563 25.284H5.36465H5.90368H6.4427H6.98172C6.99487 25.284 7.00714 25.2814 7.01853 25.2761C7.02993 25.2709 7.04045 25.2647 7.04921 25.256C7.05798 25.2472 7.06499 25.2367 7.06937 25.2253C7.07375 25.2139 7.07726 25.2016 7.07726 25.1885V24.8063V24.4242V24.0421V23.6599V23.6161V23.5723V23.5284V23.4846H7.12108H7.1649H7.20873H7.25255H10.9512H14.6499H18.3486H22.0472H22.091H22.1349H22.1787H22.2225V23.5284V23.5723V23.6161V23.6599V24.0421V24.4242V24.8063V25.1885C22.2225 25.2016 22.2251 25.2139 22.2304 25.2253C22.2357 25.2367 22.2418 25.2472 22.2506 25.256C22.2593 25.2647 22.2698 25.2717 22.2812 25.2761C22.2926 25.2805 22.3049 25.284 22.3181 25.284H22.8571H23.3961H23.9351H24.4741C24.4873 25.284 24.4996 25.2814 24.511 25.2761C24.5224 25.2709 24.5329 25.2647 24.5416 25.256C24.5504 25.2472 24.5574 25.2367 24.5618 25.2253C24.5671 25.2139 24.5697 25.2016 24.5697 25.1885V24.8063V24.4242V24.0421V23.6599V23.6161V23.5723V23.5284V23.4846H24.6135H24.6573H24.7012H24.745H24.8563H24.9676H25.0789H25.1902C25.2034 23.4846 25.2156 23.482 25.227 23.4767C25.2384 23.4715 25.2489 23.4653 25.2568 23.4566C25.2647 23.4478 25.2726 23.4373 25.277 23.4259C25.2814 23.4145 25.2849 23.4022 25.2849 23.3891V22.8273V22.2655V21.7037V21.1418C25.2849 21.1287 25.2822 21.1164 25.277 21.105C25.2726 21.0936 25.2656 21.0831 25.2568 21.0744C25.2481 21.0656 25.2375 21.0586 25.227 21.0542C25.2156 21.0489 25.2034 21.0463 25.1902 21.0463H25.0789H24.965H24.8537H24.7423H24.6985H24.6547H24.6109H24.5662V21.0472ZM22.411 10.8758V9.24825V7.62066V5.99395V4.36636V4.32254V4.27871V4.23489V4.19107H22.4548H22.4986H22.5424H22.5863H22.9903H23.3943H23.7984H24.2024H24.2463H24.2901H24.3339H24.3777V4.23489V4.27871V4.32254V4.36636V5.99395V7.62154V9.24913V10.8767V10.9205V10.9644V11.0082V11.052H24.3339H24.2901H24.2463H24.2024H23.7984H23.3943H22.9903H22.5863H22.5424H22.4986H22.4548H22.411V11.0082V10.9644V10.9205V10.8758ZM15.969 8.43928C15.969 8.07993 16.04 7.66799 16.167 7.25167C16.2941 6.83535 16.4782 6.41465 16.7043 6.03865C16.9304 5.66265 17.1986 5.33222 17.494 5.09558C17.7894 4.85893 18.1128 4.71607 18.4494 4.71607C18.7859 4.71607 19.1084 4.85893 19.4047 5.09558C19.7009 5.33222 19.9683 5.66352 20.1944 6.03865C20.4205 6.41378 20.6046 6.83535 20.7317 7.25167C20.8587 7.66799 20.9297 8.08081 20.9297 8.43928C20.9297 8.7811 20.8605 9.10714 20.7343 9.40339C20.609 9.69963 20.4266 9.96695 20.2023 10.1922C19.9779 10.4175 19.7106 10.5989 19.4135 10.7242C19.1172 10.8495 18.7912 10.9197 18.4485 10.9197C18.1058 10.9197 17.7806 10.8504 17.4835 10.7242C17.1872 10.5989 16.9199 10.4166 16.6947 10.1922C16.4694 9.96783 16.288 9.70051 16.1627 9.40339C16.0382 9.10714 15.969 8.7811 15.969 8.43928ZM8.35339 8.43928C8.35339 8.07993 8.42438 7.66799 8.55147 7.25167C8.67855 6.83535 8.86261 6.41465 9.08874 6.03865C9.31486 5.66352 9.58306 5.33222 9.87843 5.09558C10.1738 4.85893 10.4972 4.71607 10.8338 4.71607C11.1703 4.71607 11.4929 4.85893 11.7891 5.09558C12.0854 5.33222 12.3527 5.66352 12.5788 6.03865C12.8049 6.41378 12.989 6.83535 13.1161 7.25167C13.2432 7.66799 13.3142 8.08081 13.3142 8.43928C13.3142 8.7811 13.2449 9.10714 13.1187 9.40339C12.9925 9.69963 12.8111 9.96695 12.5867 10.1922C12.3623 10.4175 12.095 10.5989 11.7979 10.7242C11.5008 10.8495 11.1756 10.9197 10.8329 10.9197C10.4902 10.9197 10.165 10.8504 9.86791 10.7242C9.57079 10.598 9.30435 10.4166 9.0791 10.1922C8.8556 9.96783 8.67417 9.70051 8.54796 9.40426C8.42175 9.10802 8.35339 8.7811 8.35339 8.43928ZM4.92028 10.8758V9.24825V7.62066V5.99395V4.36636V4.32254V4.27871V4.23489V4.19107H4.96411H5.00793H5.05175H5.09558H5.49963H5.90368H6.30772H6.71177H6.7556H6.79942H6.84324H6.88707V4.23489V4.27871V4.32254V4.36636V5.99395V7.62154V9.24913V10.8767V10.9205V10.9644V11.0082V11.052H6.84324H6.79942H6.7556H6.71177H6.30685H5.9028H5.49963H5.09558H5.05175H5.00793H4.96411H4.92028V11.0082V10.9644V10.9205V10.8758ZM4.36548 13.2984H4.32166H4.27784H4.23402H4.19019V13.2546V13.2107V13.1669V13.1231V12.6963V12.2694V11.8426V11.4157V11.3719V11.3281V11.2843V11.2405H4.23402H4.27784H4.32166H4.36548H9.5033H14.6411H19.7789H24.9168H24.9606H25.0044H25.0482H25.0921V11.2843V11.3281V11.3719V11.4157V11.8426V12.2694V12.6963V13.1231V13.1669V13.2107V13.2546V13.2984H25.0482H25.0044H24.9606H24.9168H19.7789H14.6411H9.5033H4.36548ZM24.376 13.4886V13.5324V13.5762V13.62V13.6639V15.4659V17.2679V19.0699V20.8719V20.9157V20.9595V21.0034V21.0472H24.3322H24.2883H24.2445H24.2007H23.7966H23.3926H22.9885H22.5845H22.5407H22.4969H22.453H22.4092V21.0034V20.9595V20.9157V20.8719V19.0699V17.2679V15.4659V13.6639V13.62V13.5762V13.5324V13.4886H22.453H22.4969H22.5407H22.5845H22.9885H23.3926H23.7966H24.2007H24.2445H24.2883H24.3322H24.376ZM19.9201 20.7255C20.1076 20.6011 20.2768 20.4556 20.4249 20.2934C20.573 20.1313 20.6992 19.9525 20.8018 19.7614C20.9043 19.5703 20.9841 19.367 21.0384 19.1549C21.0919 18.9428 21.1199 18.7228 21.1199 18.4993C21.1199 18.1645 21.0498 17.7526 20.9192 17.3222C20.7886 16.8919 20.6002 16.4449 20.3627 16.04C20.1251 15.635 19.8394 15.2704 19.5169 15.0084C19.1943 14.7463 18.8341 14.585 18.4485 14.585C18.0628 14.585 17.7026 14.7463 17.3801 15.0084C17.0575 15.2704 16.7718 15.6342 16.5343 16.04C16.2968 16.4458 16.1074 16.8928 15.9777 17.3222C15.848 17.7517 15.777 18.1645 15.777 18.4993C15.777 18.7237 15.8051 18.9437 15.8585 19.1549C15.912 19.367 15.9918 19.5703 16.0952 19.7614C16.1986 19.9525 16.3248 20.1313 16.4721 20.2934C16.6202 20.4556 16.7885 20.6011 16.9769 20.7255L17.0978 20.8062L17.2188 20.8868L17.3397 20.9674L17.4607 21.0481H17.3152H17.1697H17.0242H16.8787H15.7586H14.6385H13.5184H12.3983H12.2528H12.1073H11.9618H11.8163L11.9372 20.9674L12.0582 20.8868L12.1791 20.8062L12.3001 20.7255C12.4877 20.6011 12.6568 20.4556 12.8049 20.2934C12.9531 20.1313 13.0793 19.9525 13.1818 19.7614C13.2844 19.5703 13.3641 19.367 13.4185 19.1549C13.4719 18.9428 13.5 18.7228 13.5 18.4993C13.5 18.1645 13.4299 17.7526 13.2993 17.3222C13.1687 16.8919 12.9802 16.4449 12.7427 16.04C12.5052 15.635 12.2195 15.2704 11.8969 15.0084C11.5744 14.7463 11.2142 14.585 10.8285 14.585C10.4429 14.585 10.0826 14.7463 9.76011 15.0084C9.43757 15.2704 9.15184 15.6342 8.91432 16.04C8.6768 16.4458 8.48748 16.8928 8.35777 17.3222C8.22805 17.7517 8.16319 18.1636 8.16319 18.4993C8.16319 18.7237 8.19124 18.9437 8.24471 19.1549C8.29817 19.367 8.37793 19.5703 8.48135 19.7614C8.58477 19.9525 8.71098 20.1313 8.85823 20.2934C9.00635 20.4556 9.17463 20.6011 9.36307 20.7255L9.48402 20.8062L9.60497 20.8868L9.72593 20.9674L9.84688 21.0481H9.70226H9.55677H9.41128H9.26578H8.76182H8.25873H7.75476H7.25167H7.20785H7.16403H7.1202H7.07638V21.0042V20.9604V20.9166V20.8728V19.0699V17.2679V15.4659V13.6639V13.62V13.5762V13.5324V13.4886H7.1202H7.16403H7.20785H7.25167H10.9503H14.649H18.3477H22.0464H22.0902H22.134H22.1778H22.2216V13.5324V13.5762V13.62V13.6639V15.4659V17.2679V19.0699V20.8719V20.9157V20.9595V21.0034V21.0472H22.1778H22.134H22.0902H22.0464H21.538H21.0305H20.5231H20.0156H19.8701H19.7246H19.5791H19.4336L19.5546 20.9665L19.6755 20.8859L19.7965 20.8053L19.9201 20.7255ZM18.4494 20.9797C18.1075 20.9797 17.7815 20.9105 17.4844 20.7842C17.1881 20.6589 16.9208 20.4766 16.6956 20.2522C16.4703 20.0279 16.2889 19.7605 16.1635 19.4634C16.0382 19.1672 15.9681 18.8411 15.9681 18.4993C15.9681 18.14 16.0391 17.728 16.1662 17.3117C16.2933 16.8954 16.4773 16.4747 16.7034 16.0987C16.9296 15.7227 17.1978 15.3923 17.4931 15.1556C17.7885 14.919 18.1119 14.7761 18.4485 14.7761C18.785 14.7761 19.1076 14.919 19.4038 15.1556C19.6992 15.3923 19.9674 15.7236 20.1935 16.0987C20.4196 16.4738 20.6037 16.8954 20.7308 17.3117C20.8579 17.728 20.9289 18.1408 20.9289 18.4993C20.9289 18.8411 20.8596 19.1672 20.7334 19.4634C20.6081 19.7597 20.4258 20.027 20.2014 20.2522C19.977 20.4775 19.7097 20.6589 19.4126 20.7842C19.1172 20.9096 18.7912 20.9797 18.4494 20.9797ZM10.8338 20.9797C10.492 20.9797 10.1659 20.9105 9.86879 20.7842C9.57167 20.658 9.30522 20.4766 9.07997 20.2522C8.8556 20.0279 8.67329 19.7605 8.54796 19.4634C8.42263 19.1663 8.35251 18.8411 8.35251 18.4993C8.35251 18.14 8.4235 17.728 8.55059 17.3117C8.67768 16.8954 8.86173 16.4747 9.08786 16.0987C9.31399 15.7227 9.58219 15.3923 9.87755 15.1556C10.1729 14.919 10.4963 14.7761 10.8329 14.7761C11.1695 14.7761 11.492 14.919 11.7882 15.1556C12.0836 15.3923 12.3518 15.7236 12.5779 16.0987C12.8041 16.4738 12.9881 16.8954 13.1152 17.3117C13.2423 17.728 13.3133 18.1408 13.3133 18.4993C13.3133 18.8411 13.244 19.1672 13.1178 19.4634C12.9916 19.7597 12.8102 20.027 12.5858 20.2522C12.3614 20.4775 12.0941 20.6589 11.797 20.7842C11.4999 20.9096 11.1756 20.9797 10.8338 20.9797ZM6.88531 13.4886V13.5324V13.5762V13.62V13.6639V15.4659V17.2679V19.0699V20.8719V20.9157V20.9595V21.0034V21.0472H6.84149H6.79767H6.75384H6.71002H6.30685H5.9028H5.49963H5.09558H5.05175H5.00793H4.96411H4.92028V21.0034V20.9595V20.9157V20.8719V19.0699V17.2679V15.4659V13.6639V13.62V13.5762V13.5324V13.4886H4.96411H5.00793H5.05175H5.09558H5.49963H5.90368H6.30772H6.71177H6.7556H6.79942H6.84324H6.88531ZM6.88531 23.6599V23.9746V24.2892V24.6039V24.9185V24.9623V25.0062V25.05V25.0938H6.84149H6.79767H6.75384H6.71002H6.30685H5.9028H5.49963H5.09558H5.05175H5.00793H4.96411H4.92028V25.05V25.0062V24.9623V24.9185V24.6039V24.2892V23.9746V23.6599V23.6161V23.5723V23.5284V23.4846H4.96411H5.00793H5.05175H5.09558H5.49963H5.90368H6.30772H6.71177H6.7556H6.79942H6.84324H6.88707V23.5284V23.5723V23.6161V23.6599H6.88531ZM24.376 23.6599V23.9746V24.2892V24.6039V24.9185V24.9623V25.0062V25.05V25.0938H24.3322H24.2883H24.2445H24.2007H23.7966H23.3926H22.9885H22.5845H22.5407H22.4969H22.453H22.4092V25.05V25.0062V24.9623V24.9185V24.6039V24.2892V23.9746V23.6599V23.6161V23.5723V23.5284V23.4846H22.453H22.4969H22.5407H22.5845H22.9885H23.3926H23.7966H24.2007H24.2445H24.2883H24.3322H24.376V23.5284V23.5723V23.6161V23.6599ZM25.0921 21.2374V21.2812V21.325V21.3688V21.4127V21.8395V22.2663V22.6932V23.12V23.1638V23.2077V23.2515V23.2953H25.0482H25.0044H24.9606H24.9168H19.7789H14.6411H9.5033H4.36548H4.32166H4.27784H4.23402H4.19019V23.2515V23.2077V23.1638V23.12V22.6932V22.2663V21.8395V21.4127V21.3688V21.325V21.2812V21.2374H4.23402H4.27784H4.32166H4.36548H9.5033H14.6411H19.7789H24.9168H24.9606H25.0044H25.0482H25.0921Z" fill="#4D4D4D"/>
<path d="M23.6731 12.1747H23.5328H23.3926H23.2524H23.1121C23.099 12.1747 23.0867 12.1774 23.0753 12.1826C23.0639 12.1879 23.0534 12.194 23.0446 12.2028C23.0359 12.2116 23.0289 12.2221 23.0245 12.2335C23.0201 12.2449 23.0166 12.2571 23.0166 12.2703C23.0166 12.2834 23.0192 12.2957 23.0245 12.3071C23.0297 12.3185 23.0359 12.329 23.0446 12.3369C23.0534 12.3448 23.0639 12.3527 23.0753 12.357C23.0867 12.3614 23.099 12.3649 23.1121 12.3649H23.2524H23.3926H23.5328H23.6731C23.6862 12.3649 23.6985 12.3623 23.7099 12.357C23.7213 12.3527 23.7318 12.3457 23.7405 12.3369C23.7493 12.3281 23.7563 12.3176 23.7607 12.3071C23.766 12.2957 23.7686 12.2834 23.7686 12.2703C23.7686 12.2571 23.766 12.2449 23.7607 12.2335C23.7554 12.2221 23.7493 12.2116 23.7405 12.2028C23.7318 12.194 23.7213 12.187 23.7099 12.1826C23.6993 12.1774 23.6862 12.1747 23.6731 12.1747Z" fill="black"/>
<path d="M23.6731 22.1708H23.5328H23.3926H23.2524H23.1121C23.099 22.1708 23.0867 22.1734 23.0753 22.1787C23.0639 22.1839 23.0534 22.1901 23.0446 22.1988C23.0359 22.2076 23.0289 22.2181 23.0245 22.2295C23.0201 22.2409 23.0166 22.2532 23.0166 22.2663C23.0166 22.2795 23.0192 22.2917 23.0245 22.3031C23.0297 22.3145 23.0359 22.325 23.0446 22.3338C23.0534 22.3426 23.0639 22.3496 23.0753 22.354C23.0867 22.3592 23.099 22.3618 23.1121 22.3618H23.2524H23.3926H23.5328H23.6731C23.6862 22.3618 23.6985 22.3592 23.7099 22.354C23.7213 22.3487 23.7318 22.3426 23.7405 22.3338C23.7493 22.325 23.7563 22.3145 23.7607 22.3031C23.766 22.2917 23.7686 22.2795 23.7686 22.2663C23.7686 22.2532 23.766 22.2409 23.7607 22.2295C23.7554 22.2181 23.7493 22.2076 23.7405 22.1988C23.7318 22.1901 23.7213 22.183 23.7099 22.1787C23.6993 22.1734 23.6862 22.1708 23.6731 22.1708Z" fill="black"/>
<path d="M6.18326 12.1747H6.04303H5.9028H5.76256H5.62233C5.60918 12.1747 5.59691 12.1774 5.58552 12.1826C5.57412 12.1879 5.56361 12.194 5.55484 12.2028C5.54608 12.2116 5.53907 12.2221 5.53468 12.2335C5.5303 12.2449 5.52679 12.2571 5.52679 12.2703C5.52679 12.2834 5.52942 12.2957 5.53468 12.3071C5.53994 12.3185 5.54608 12.329 5.55484 12.3369C5.56361 12.3448 5.57412 12.3527 5.58552 12.357C5.59691 12.3614 5.60918 12.3649 5.62233 12.3649H5.76256H5.9028H6.04303H6.18326C6.19641 12.3649 6.20868 12.3623 6.22008 12.357C6.23147 12.3518 6.24199 12.3457 6.25075 12.3369C6.25952 12.3281 6.26653 12.3176 6.27091 12.3071C6.27529 12.2966 6.2788 12.2834 6.2788 12.2703C6.2788 12.2571 6.27617 12.2449 6.27091 12.2335C6.26565 12.2221 6.25952 12.2116 6.25075 12.2028C6.24199 12.194 6.23147 12.187 6.22008 12.1826C6.20868 12.1782 6.19553 12.1747 6.18326 12.1747Z" fill="black"/>
<path d="M6.18324 22.1708H6.04301H5.90277H5.76254H5.62231C5.60916 22.1708 5.59689 22.1734 5.5855 22.1787C5.5741 22.1839 5.56446 22.1901 5.5557 22.1979C5.54693 22.2058 5.53992 22.2172 5.53554 22.2286C5.53116 22.24 5.52765 22.2523 5.52765 22.2654C5.52765 22.2786 5.53028 22.2909 5.53554 22.3022C5.5408 22.3136 5.54693 22.3242 5.5557 22.3329C5.56446 22.3417 5.57498 22.3487 5.58637 22.3531C5.59777 22.3583 5.61004 22.361 5.62318 22.361H5.76342H5.90365H6.04389H6.18412C6.19727 22.361 6.20954 22.3583 6.22093 22.3531C6.23232 22.3478 6.24284 22.3417 6.25161 22.3329C6.26037 22.3242 6.26738 22.3136 6.27177 22.3022C6.27702 22.2909 6.27965 22.2786 6.27965 22.2654C6.27965 22.2523 6.27702 22.24 6.27177 22.2286C6.26651 22.2172 6.26037 22.2067 6.25161 22.1979C6.24284 22.1892 6.23232 22.1822 6.22093 22.1778C6.20954 22.1734 6.19551 22.1708 6.18324 22.1708Z" fill="black"/>
</svg>
