<svg width="30" height="30" viewBox="0 0 30 30" fill="none" xmlns="http://www.w3.org/2000/svg">
<rect width="30" height="30" fill="white"/>
<path d="M30 30H22.5H15H7.5H0V22.5003V15.0005V7.49975V0H7.5H15H22.5H30V7.49975V14.9995V22.4992V30ZM0.252287 29.7477H7.62614H15H22.3739H29.7477V22.3741V15.0005V7.62589V0.252279H22.3739H15H7.62614H0.252287V7.62589V14.9995V22.3731V29.7477Z" fill="#4D4D4D"/>
<path d="M5.73419 12.7863V10.9293H15.8012V10.7043H5.50519V13.0113H15.8012V12.7863H5.73419Z" fill="#5F5357"/>
<path d="M15.479 11.3305H15.25V11.6845H15.479V11.3305Z" fill="white"/>
<path d="M15.479 12.0665H15.25V12.4195H15.479V12.0665Z" fill="white"/>
<path d="M15.364 10.7043V10.9293H25.472V12.7863H15.364V13.0113H25.703V10.7043H15.364Z" fill="#5F5357"/>
<path d="M5.625 13.4014V15.2454" stroke="#5E5357" stroke-width="0.25" stroke-miterlimit="10"/>
<path d="M25.5 13.4014V15.2454" stroke="#5E5357" stroke-width="0.25" stroke-miterlimit="10"/>
<path d="M6.34369 14.7764H24.8127" stroke="#5E5357" stroke-width="0.2" stroke-miterlimit="10"/>
<path d="M5.81213 14.7768L6.46313 14.9528V14.6008L5.81213 14.7768Z" fill="#5E5357"/>
<path d="M24.6932 14.9505L25.3442 14.7765L24.6932 14.6025V14.9505Z" fill="#5E5357"/>
<path d="M14.9554 10V7.164H15.1634V9.804H16.6354V10H14.9554Z" fill="#5D5157"/>
</svg>
