<svg width="30" height="30" viewBox="0 0 30 30" fill="none" xmlns="http://www.w3.org/2000/svg">
<rect width="30" height="30" fill="white"/>
<path d="M30 30H22.5H15H7.5H0V22.5003V15.0005V7.49975V0H7.5H15H22.5H30V7.49975V14.9995V22.4992V30ZM0.252287 29.7477H7.62614H15H22.3739H29.7477V22.3741V15.0005V7.62589V0.252279H22.3739H15H7.62614H0.252287V7.62589V14.9995V22.3731V29.7477Z" fill="#4D4D4D"/>
<path d="M14.516 22.032C15.552 22.032 16.54 21.821 17.439 21.44C18.338 21.059 19.148 20.508 19.828 19.828C20.508 19.148 21.059 18.338 21.44 17.439C21.821 16.54 22.032 15.552 22.032 14.516C22.032 13.48 21.821 12.492 21.44 11.593C21.059 10.694 20.508 9.884 19.828 9.204C19.148 8.524 18.338 7.973 17.439 7.592C16.54 7.211 15.552 7 14.516 7C13.48 7 12.492 7.211 11.593 7.592C10.694 7.973 9.884 8.524 9.204 9.204C8.524 9.884 7.973 10.694 7.592 11.593C7.211 12.492 7 13.48 7 14.516C7 15.552 7.211 16.54 7.592 17.439C7.973 18.338 8.524 19.148 9.204 19.828C9.884 20.508 10.694 21.059 11.593 21.44C12.492 21.821 13.48 22.032 14.516 22.032ZM9.415 19.737C9.506 19.598 9.724 19.273 10.032 18.848C10.34 18.424 10.74 17.9 11.195 17.364C11.65 16.829 12.162 16.281 12.694 15.809C13.226 15.337 13.779 14.941 14.317 14.707C14.096 15.263 13.98 15.935 13.932 16.643C13.884 17.352 13.905 18.096 13.958 18.796C14.011 19.496 14.097 20.151 14.181 20.682C14.264 21.212 14.344 21.617 14.386 21.816C13.903 21.807 13.432 21.752 12.976 21.653C12.52 21.554 12.08 21.414 11.66 21.235C11.24 21.056 10.84 20.838 10.465 20.587C10.088 20.337 9.737 20.052 9.415 19.737ZM14.602 21.819C14.569 21.659 14.492 21.276 14.41 20.758C14.328 20.24 14.24 19.587 14.183 18.885C14.126 18.184 14.1 17.434 14.143 16.723C14.186 16.012 14.296 15.34 14.511 14.793C14.747 15.341 15.14 15.898 15.606 16.432C16.072 16.966 16.612 17.478 17.144 17.935C17.676 18.392 18.2 18.794 18.634 19.111C19.068 19.428 19.412 19.658 19.583 19.77C19.259 20.082 18.907 20.365 18.53 20.614C18.153 20.863 17.752 21.078 17.331 21.254C16.91 21.431 16.469 21.569 16.013 21.664C15.557 21.759 15.085 21.813 14.602 21.819ZM19.737 19.618C19.598 19.527 19.272 19.309 18.847 19C18.422 18.691 17.898 18.291 17.362 17.836C16.826 17.38 16.279 16.869 15.807 16.336C15.335 15.804 14.939 15.251 14.706 14.712C14.899 14.789 15.106 14.853 15.324 14.907C15.542 14.96 15.77 15.003 16.006 15.035C16.242 15.068 16.485 15.091 16.732 15.106C16.979 15.121 17.231 15.128 17.483 15.128C17.956 15.128 18.431 15.105 18.885 15.068C19.339 15.031 19.773 14.982 20.164 14.928C20.555 14.875 20.903 14.818 21.186 14.768C21.469 14.718 21.687 14.674 21.817 14.647C21.808 15.13 21.753 15.601 21.655 16.057C21.557 16.513 21.416 16.953 21.237 17.373C21.058 17.793 20.84 18.193 20.589 18.568C20.338 18.943 20.052 19.295 19.737 19.618ZM21.819 14.431C21.659 14.464 21.276 14.541 20.758 14.623C20.24 14.705 19.587 14.793 18.886 14.85C18.185 14.907 17.435 14.933 16.724 14.89C16.013 14.848 15.341 14.737 14.794 14.522C15.342 14.286 15.899 13.893 16.433 13.427C16.967 12.961 17.479 12.421 17.936 11.889C18.393 11.357 18.796 10.833 19.112 10.399C19.428 9.965 19.659 9.621 19.771 9.45C20.083 9.774 20.366 10.126 20.615 10.503C20.864 10.88 21.079 11.281 21.255 11.702C21.432 12.123 21.57 12.564 21.665 13.02C21.76 13.476 21.813 13.948 21.819 14.431ZM19.618 9.295C19.527 9.434 19.309 9.759 19.001 10.184C18.693 10.609 18.293 11.132 17.838 11.668C17.383 12.203 16.871 12.751 16.339 13.223C15.807 13.695 15.254 14.091 14.716 14.325C14.937 13.77 15.053 13.097 15.101 12.389C15.149 11.681 15.128 10.936 15.075 10.236C15.022 9.536 14.936 8.88 14.852 8.35C14.768 7.82 14.689 7.415 14.647 7.216C15.13 7.225 15.601 7.28 16.057 7.378C16.513 7.476 16.953 7.617 17.373 7.796C17.793 7.975 18.193 8.193 18.568 8.444C18.945 8.695 19.296 8.981 19.618 9.295ZM14.431 7.214C14.464 7.374 14.54 7.757 14.623 8.275C14.706 8.793 14.793 9.446 14.85 10.148C14.907 10.849 14.933 11.599 14.89 12.31C14.848 13.021 14.737 13.693 14.522 14.24C14.286 13.692 13.893 13.135 13.427 12.601C12.961 12.067 12.421 11.555 11.889 11.098C11.357 10.641 10.833 10.238 10.399 9.922C9.965 9.606 9.621 9.375 9.45 9.263C9.774 8.951 10.126 8.668 10.503 8.419C10.88 8.17 11.281 7.955 11.702 7.779C12.123 7.602 12.564 7.464 13.02 7.369C13.476 7.272 13.948 7.22 14.431 7.214ZM9.295 9.415C9.434 9.506 9.759 9.724 10.184 10.032C10.608 10.34 11.132 10.74 11.668 11.195C12.203 11.65 12.751 12.162 13.223 12.694C13.695 13.226 14.091 13.779 14.325 14.317C13.77 14.096 13.097 13.98 12.389 13.932C11.68 13.884 10.936 13.905 10.236 13.958C9.536 14.011 8.88 14.097 8.35 14.181C7.82 14.264 7.415 14.344 7.216 14.386C7.225 13.903 7.28 13.432 7.378 12.976C7.476 12.52 7.617 12.08 7.796 11.66C7.975 11.24 8.193 10.84 8.444 10.465C8.695 10.088 8.981 9.737 9.295 9.415ZM14.24 14.511C13.692 14.747 13.135 15.14 12.601 15.606C12.067 16.072 11.555 16.612 11.098 17.144C10.641 17.676 10.238 18.2 9.922 18.634C9.606 19.068 9.375 19.411 9.263 19.583C8.951 19.259 8.668 18.907 8.419 18.53C8.17 18.153 7.955 17.752 7.779 17.331C7.602 16.91 7.464 16.469 7.369 16.013C7.274 15.557 7.221 15.085 7.215 14.601C7.375 14.568 7.758 14.491 8.276 14.409C8.794 14.327 9.447 14.239 10.149 14.182C10.85 14.125 11.6 14.099 12.311 14.142C13.021 14.185 13.693 14.296 14.24 14.511Z" fill="#4D4D4D" stroke="#4D4D4D" stroke-width="0.1" stroke-miterlimit="10"/>
</svg>
