<svg width="30" height="30" viewBox="0 0 30 30" fill="none" xmlns="http://www.w3.org/2000/svg">
<rect width="30" height="30" fill="white"/>
<path fill-rule="evenodd" clip-rule="evenodd" d="M30 0H23.0648H15.3766H7.68828H0V5.7495V11.501V17.2505V23L0.0475862 22.9751L0.0951724 22.9501L0.142759 22.9252L0.190345 22.9003C1.03138 22.4615 1.92931 22.0637 2.87586 21.7087C3.82241 21.3537 4.81862 21.0426 5.85621 20.7754C6.89379 20.5081 7.97276 20.2868 9.08793 20.1113C10.2031 19.9358 11.3524 19.8072 12.5286 19.7274L12.6259 19.7204L12.7231 19.7134L12.8203 19.7064L12.9176 19.6995L12.9155 19.6985L12.9134 19.6975L12.9114 19.6965L12.9093 19.6955H12.9176H12.9259H12.9341H12.9424C13.1586 19.6825 13.3717 19.6715 13.5797 19.6616C13.7876 19.6516 13.9924 19.6436 14.1941 19.6376C14.3959 19.6317 14.5945 19.6267 14.791 19.6237C14.9876 19.6207 15.181 19.6187 15.3734 19.6187C15.5317 19.6187 15.6921 19.6197 15.8555 19.6217C16.019 19.6237 16.1855 19.6267 16.3562 19.6317L16.3798 19.6324C16.5429 19.6371 16.7089 19.642 16.8786 19.6486C17.0566 19.6556 17.2386 19.6636 17.4259 19.6725L17.4455 19.6735L17.4652 19.6745L17.4848 19.6755L17.5045 19.6765L17.6007 19.6825L17.6969 19.6885L17.7941 19.6945L17.8903 19.7005C19.0986 19.7733 20.279 19.8969 21.4241 20.0694C22.5693 20.2419 23.6783 20.4633 24.7438 20.7325C25.8093 21.0017 26.8314 21.3188 27.8038 21.6798C28.5687 21.9637 29.3016 22.2767 30 22.6167V22.3388C29.3042 22.0051 28.5752 21.6977 27.8152 21.4175C26.8738 21.0705 25.8869 20.7654 24.8607 20.5052C23.8345 20.2449 22.7679 20.0275 21.6683 19.855C20.5686 19.6825 19.4359 19.5559 18.2762 19.4761C18.6714 19.2019 19.019 18.9127 19.319 18.6106C19.619 18.3085 19.8703 17.9924 20.0741 17.6633C20.2779 17.3343 20.4331 16.9922 20.5397 16.6373C20.6462 16.2823 20.7031 15.9153 20.7124 15.5354C20.7269 14.9232 20.609 14.3239 20.4134 13.7635C20.2179 13.2031 19.9469 12.6806 19.6552 12.2229C19.3634 11.7652 19.0521 11.3694 18.7759 11.0642C18.4997 10.7591 18.2607 10.5417 18.1128 10.438L18.0134 10.3682L17.9141 10.2984L17.8148 10.2286L17.7155 10.1588L17.7672 10.2665L17.819 10.3742L17.8707 10.4819L17.9224 10.5896C17.9762 10.7033 18.0238 10.8399 18.0579 10.9905C18.0921 11.141 18.1138 11.3026 18.1169 11.4661C18.12 11.6296 18.1055 11.7942 18.0652 11.9497C18.0248 12.1053 17.9617 12.2518 17.8676 12.3775C17.6152 11.5369 17.2841 10.8608 16.9283 10.3194C16.5724 9.77794 16.1907 9.37111 15.8379 9.06898C15.4852 8.76684 15.1603 8.56841 14.9183 8.44377C14.6762 8.31913 14.5159 8.26827 14.491 8.26129L14.4414 8.24634L14.3917 8.23138L14.3421 8.21642L14.2924 8.20147L14.2997 8.25033L14.3069 8.29918L14.3141 8.34804L14.3245 8.39292C14.3783 8.73394 14.3741 9.0939 14.3152 9.47082C14.2562 9.84774 14.1403 10.2436 13.9697 10.6574C13.799 11.0712 13.5724 11.502 13.29 11.9497C13.0076 12.3974 12.6703 12.8621 12.2772 13.3427C12.2648 13.1941 12.2493 13.0535 12.2286 12.9169C12.2079 12.7803 12.18 12.6487 12.1448 12.5161C12.1097 12.3835 12.0652 12.2518 12.0072 12.1152C11.9493 11.9786 11.88 11.838 11.7952 11.6895L11.7414 11.5957L11.6876 11.502L11.6338 11.4083L11.58 11.3145L11.5728 11.4212L11.5655 11.5279L11.5583 11.6346L11.551 11.7413C11.5386 11.9168 11.5097 12.0863 11.4672 12.2538C11.4248 12.4214 11.37 12.5849 11.3048 12.7484C11.2397 12.9119 11.1652 13.0735 11.0866 13.236C11.014 13.386 10.9362 13.5359 10.8571 13.6883C10.8505 13.701 10.8439 13.7138 10.8372 13.7266C10.8174 13.7655 10.7974 13.8044 10.7774 13.8434C10.7277 13.9402 10.6777 14.0376 10.6283 14.1364C10.559 14.275 10.4928 14.4146 10.4307 14.5562C10.3686 14.6978 10.3107 14.8414 10.261 14.989C10.2114 15.1366 10.169 15.2861 10.1359 15.4387C10.0469 15.8555 10.0169 16.2454 10.05 16.6133C10.0831 16.9813 10.1793 17.3283 10.3417 17.6593C10.5041 17.9904 10.7328 18.3065 11.0297 18.6116C11.3266 18.9167 11.6938 19.2129 12.1324 19.504C11.0059 19.5908 9.90517 19.7224 8.83655 19.8969C7.76793 20.0714 6.73138 20.2878 5.7331 20.547C4.73483 20.8063 3.77483 21.1064 2.86034 21.4455C1.94586 21.7845 1.07586 22.1644 0.256552 22.5812V16.9982V11.4152V5.83226V0.249285H7.81552H15.3745H22.9334H30V0ZM15.3434 12.9169L15.2752 12.8711L15.2917 12.9548L15.3093 13.0326L15.3269 13.1104L15.3445 13.1882C15.3755 13.3218 15.39 13.5013 15.3838 13.7117C15.3776 13.922 15.3517 14.1614 15.301 14.4136C15.2503 14.6659 15.1759 14.9312 15.0734 15.1924C14.971 15.4537 14.8407 15.7099 14.6783 15.9462C14.6834 15.7418 14.6638 15.5574 14.6286 15.3938C14.5934 15.2303 14.5459 15.0897 14.4962 14.974C14.4466 14.8584 14.3959 14.7676 14.3566 14.7038C14.3172 14.64 14.2893 14.6041 14.2841 14.5981L14.2397 14.5423L14.1952 14.4864L14.1507 14.4306L14.1062 14.3748L14.0938 14.4436L14.0814 14.5124L14.069 14.5812L14.0566 14.65C14.0566 14.652 14.0452 14.7108 14.0183 14.8125C13.9914 14.9142 13.95 15.0578 13.8869 15.2303C13.8238 15.4028 13.741 15.6032 13.6334 15.8176C13.5259 16.032 13.3934 16.2603 13.231 16.4887C13.1007 16.6712 12.9724 16.8636 12.8617 17.075C12.751 17.2864 12.6579 17.5137 12.601 17.766C12.5441 18.0183 12.5224 18.2945 12.5514 18.6006C12.5803 18.9067 12.6631 19.2438 12.8141 19.6177L12.8172 19.6247L12.8203 19.6317L12.8234 19.6386L12.8266 19.6456L12.7666 19.6087L12.7066 19.5718L12.6466 19.5349L12.5866 19.498C12.1076 19.2039 11.7083 18.9107 11.3834 18.6096C11.0586 18.3085 10.8103 18.0013 10.6334 17.6783C10.4566 17.3552 10.35 17.0162 10.3107 16.6552C10.2714 16.2942 10.2983 15.9083 10.3883 15.4915C10.4193 15.346 10.4607 15.2034 10.5083 15.0628C10.5559 14.9222 10.6117 14.7836 10.6717 14.646C10.7317 14.5084 10.7959 14.3738 10.8631 14.2391C10.9303 14.1045 10.9986 13.9719 11.0669 13.8403C11.0784 13.818 11.0898 13.7957 11.1014 13.7734C11.1584 13.6628 11.2158 13.5515 11.2717 13.4394C11.339 13.3048 11.4031 13.1692 11.4641 13.0306C11.5252 12.892 11.581 12.7524 11.6286 12.6108C11.6762 12.4692 11.7176 12.3246 11.7486 12.1781C11.8024 12.3007 11.8448 12.4194 11.879 12.538C11.9131 12.6567 11.939 12.7743 11.9597 12.895C11.9803 13.0157 11.9948 13.1393 12.0072 13.2689C12.0197 13.3986 12.029 13.5352 12.0383 13.6817L12.0424 13.7605L12.0476 13.8403L12.0528 13.9201L12.0579 13.9998L12.1107 13.938L12.1645 13.8812L12.2172 13.8193L12.27 13.7575C12.69 13.2609 13.0541 12.7803 13.3624 12.3147C13.6707 11.849 13.9231 11.4003 14.1176 10.9675C14.3121 10.5348 14.4507 10.119 14.5324 9.7211C14.6141 9.32325 14.6379 8.94234 14.6059 8.57938C14.7497 8.6432 14.9659 8.75388 15.2203 8.92738C15.4748 9.10088 15.7676 9.33721 16.0676 9.6543C16.3676 9.97139 16.6738 10.3692 16.9531 10.8648C17.2324 11.3604 17.4848 11.9547 17.6793 12.6637L17.6928 12.7125L17.7062 12.7614L17.7197 12.8102L17.7331 12.8591L17.7724 12.8252L17.8117 12.7913L17.851 12.7574L17.8903 12.7235C18.0176 12.6148 18.1159 12.4862 18.1893 12.3446C18.2628 12.203 18.3114 12.0494 18.3414 11.8909C18.3714 11.7323 18.3797 11.5678 18.3734 11.4073C18.3672 11.2467 18.3445 11.0882 18.3103 10.9396C18.5048 11.1291 18.7397 11.3873 18.9807 11.6974C19.2217 12.0075 19.47 12.3705 19.6924 12.7733C19.9148 13.1762 20.1124 13.6169 20.25 14.0806C20.3876 14.5443 20.4672 15.0329 20.4559 15.5304C20.4476 15.9123 20.3855 16.2823 20.2707 16.6383C20.1559 16.9942 19.9883 17.3372 19.769 17.6663C19.5497 17.9954 19.2776 18.3115 18.9538 18.6126C18.63 18.9137 18.2545 19.2009 17.8272 19.4731L17.7517 19.521L17.6762 19.5688L17.6007 19.6167L17.5252 19.6646L17.5324 19.6486L17.5397 19.6307L17.5469 19.6127L17.5541 19.5948C17.79 19.0264 17.9121 18.4201 17.9307 17.8099C17.9493 17.1996 17.8624 16.5834 17.6824 15.9951C17.5024 15.4068 17.2272 14.8464 16.8683 14.3448C16.5093 13.8433 16.0655 13.4025 15.5483 13.0545L15.48 13.0087L15.4117 12.9628L15.3434 12.9169ZM14.1279 15.323C14.1714 15.2034 14.2055 15.0967 14.2324 15.0059C14.2645 15.0737 14.2986 15.1535 14.3266 15.2453C14.3545 15.337 14.3793 15.4397 14.3979 15.5524C14.4166 15.665 14.4269 15.7887 14.4238 15.9213C14.4207 16.0539 14.4072 16.1955 14.3762 16.3461L14.3534 16.4568L14.3307 16.5675L14.3079 16.6781L14.2852 16.7888L14.3638 16.7051L14.4424 16.6213L14.521 16.5375L14.5997 16.4538C14.8128 16.2244 14.9876 15.9672 15.1283 15.6999C15.269 15.4327 15.3776 15.1525 15.4562 14.8793C15.5348 14.6061 15.5876 14.3369 15.6155 14.0906C15.6434 13.8443 15.6497 13.6189 15.6393 13.4325C16.0841 13.7745 16.4638 14.1903 16.771 14.6539C17.0783 15.1176 17.3121 15.6301 17.4652 16.1636C17.6183 16.6971 17.6897 17.2535 17.6731 17.8049C17.6566 18.3563 17.55 18.9038 17.3472 19.4203C17.1683 19.4113 16.9934 19.4043 16.8228 19.3983C16.6521 19.3924 16.4845 19.3874 16.321 19.3834C16.1576 19.3794 15.9972 19.3764 15.84 19.3744C15.6828 19.3724 15.5276 19.3714 15.3755 19.3714C15.1883 19.3714 15 19.3724 14.8107 19.3754C14.6214 19.3784 14.429 19.3824 14.2334 19.3884C14.0379 19.3943 13.8403 19.4013 13.6386 19.4103C13.4369 19.4193 13.2321 19.4292 13.0231 19.4412C12.9083 19.1411 12.84 18.8689 12.811 18.6146C12.7821 18.3603 12.7924 18.125 12.8369 17.9016C12.8814 17.6783 12.9579 17.4659 13.0614 17.2555C13.1648 17.0451 13.2952 16.8397 13.4452 16.6283C13.5579 16.4687 13.6562 16.3112 13.7431 16.1576C13.83 16.0041 13.9034 15.8555 13.9676 15.7149C14.0317 15.5743 14.0845 15.4427 14.1279 15.323Z" fill="#4D4D4D"/>
<path d="M30 30H22.5H15H7.5H0V22.5003V15.0005V7.49975V0H7.5H15H22.5H30V7.49975V14.9995V22.4992V30ZM0.252287 29.7477H7.62614H15H22.3739H29.7477V22.3741V15.0005V7.62589V0.252279H22.3739H15H7.62614H0.252287V7.62589V14.9995V22.3731V29.7477Z" fill="#4D4D4D"/>
</svg>
