<svg width="30" height="30" viewBox="0 0 30 30" fill="none" xmlns="http://www.w3.org/2000/svg">
<rect width="30" height="30" fill="white"/>
<path d="M30 30H22.5H15H7.5H0V22.5003V15.0005V7.49975V0H7.5H15H22.5H30V7.49975V14.9995V22.4992V30ZM0.252287 29.7477H7.62614H15H22.3739H29.7477V22.3741V15.0005V7.62589V0.252279H22.3739H15H7.62614H0.252287V7.62589V14.9995V22.3731V29.7477Z" fill="#4D4D4D"/>
<path d="M30 22V21.9421V21.8843V21.8264V21.7685C28.8439 21.3235 27.6602 20.9279 26.4529 20.5844C25.2446 20.241 24.0117 19.9507 22.7583 19.7163C21.5049 19.482 20.2279 19.3027 18.9345 19.1822C17.6401 19.0617 16.3282 19 15 19C13.6718 19 12.3589 19.0617 11.0655 19.1822C9.77111 19.3027 8.49515 19.482 7.24173 19.7163C5.98832 19.9507 4.7554 20.2419 3.54708 20.5844C2.33875 20.9279 1.15605 21.3235 0 21.7685V21.8264V21.8843V21.9421V22C1.15503 21.5522 2.33773 21.1546 3.54605 20.8093C4.75335 20.4639 5.98627 20.1717 7.24071 19.9364C8.49515 19.7011 9.77111 19.5199 11.0655 19.3994C12.3599 19.278 13.6728 19.2163 15.002 19.2163C16.3303 19.2163 17.6431 19.278 18.9376 19.3994C20.232 19.5209 21.5079 19.7011 22.7624 19.9364C24.0168 20.1717 25.2487 20.4649 26.457 20.8093C27.6612 21.1546 28.845 21.5522 30 22Z" fill="#4D4D4D"/>
<path fill-rule="evenodd" clip-rule="evenodd" d="M14.925 8.39908C15.079 8.39908 15.225 8.43008 15.359 8.48708C15.493 8.54408 15.612 8.62508 15.713 8.72608C15.814 8.82708 15.895 8.94708 15.952 9.08008C16.008 9.21308 16.04 9.36008 16.04 9.51408C16.04 9.66808 16.009 9.81408 15.952 9.94808C15.896 10.0811 15.814 10.2011 15.713 10.3021C15.612 10.4031 15.492 10.4841 15.359 10.5411C15.226 10.5981 15.079 10.6291 14.925 10.6291C14.771 10.6291 14.625 10.5981 14.492 10.5411C14.359 10.4851 14.239 10.4031 14.138 10.3021C14.037 10.2011 13.956 10.0811 13.899 9.94808C13.843 9.81508 13.811 9.66808 13.811 9.51408C13.811 9.36008 13.842 9.21408 13.899 9.08008C13.955 8.94708 14.037 8.82708 14.138 8.72608C14.239 8.62508 14.359 8.54408 14.492 8.48708C14.625 8.43008 14.772 8.39908 14.925 8.39908ZM14.925 7.09808C15.258 7.09808 15.576 7.16608 15.865 7.28808C16.154 7.41008 16.414 7.58708 16.633 7.80608C16.852 8.02508 17.028 8.28508 17.15 8.57408C17.272 8.86308 17.34 9.18108 17.34 9.51408C17.34 9.84708 17.272 10.1651 17.15 10.4541C17.028 10.7431 16.851 11.0031 16.633 11.2221C16.415 11.4411 16.154 11.6171 15.865 11.7391C15.576 11.8611 15.258 11.9291 14.925 11.9291C14.592 11.9291 14.274 11.8611 13.985 11.7391C13.696 11.6171 13.436 11.4401 13.217 11.2221C12.998 11.0041 12.822 10.7431 12.699 10.4541C12.576 10.1651 12.509 9.84808 12.509 9.51408C12.509 9.18108 12.577 8.86308 12.699 8.57408C12.821 8.28508 12.998 8.02508 13.217 7.80608C13.436 7.58708 13.696 7.41108 13.985 7.28808C14.274 7.16508 14.592 7.09808 14.925 7.09808Z" fill="#4D4D4D"/>
<path fill-rule="evenodd" clip-rule="evenodd" d="M14.925 5.5131C15.477 5.5131 16.003 5.6251 16.482 5.8271C16.961 6.0291 17.391 6.32211 17.753 6.68411C18.115 7.04611 18.408 7.47711 18.61 7.95511C18.812 8.4341 18.924 8.9601 18.924 9.5121C18.924 10.0641 18.812 10.5901 18.61 11.0691C18.408 11.5471 18.115 11.9781 17.753 12.3401C17.391 12.7021 16.96 12.9951 16.482 13.1971C16.003 13.3991 15.477 13.5111 14.925 13.5111C14.373 13.5111 13.847 13.3991 13.368 13.1971C12.89 12.9951 12.459 12.7021 12.097 12.3401C11.735 11.9781 11.442 11.5471 11.24 11.0691C11.038 10.5911 10.926 10.0641 10.926 9.5121C10.926 8.9601 11.038 8.4341 11.24 7.95511C11.442 7.4761 11.735 7.04611 12.097 6.68411C12.459 6.32211 12.89 6.0291 13.368 5.8271C13.846 5.6251 14.373 5.5131 14.925 5.5131ZM6.88 9.4301C7.967 7.6141 9.256 6.25311 10.643 5.34711C12.03 4.44111 13.517 3.99211 14.998 4.00011C16.479 4.00811 17.954 4.4731 19.321 5.3971C20.687 6.3211 21.945 7.7041 22.989 9.5471C21.899 11.3331 20.618 12.6741 19.243 13.5671C17.867 14.4601 16.397 14.9051 14.927 14.8991C13.457 14.8931 11.988 14.4361 10.615 13.5261C9.241 12.6151 7.965 11.2511 6.88 9.4301Z" fill="#4D4D4D"/>
<path d="M5 5.4311C5.131 5.2971 5.282 5.1781 5.451 5.0751C5.62 4.9721 5.806 4.8851 6.005 4.8131C6.204 4.7411 6.417 4.6851 6.639 4.6441C6.861 4.6041 7.092 4.5791 7.329 4.5701C7.565 4.5611 7.806 4.5681 8.049 4.5901C8.292 4.6121 8.537 4.6501 8.779 4.7041C9.021 4.7581 9.262 4.8271 9.496 4.9131C9.73 4.9981 9.958 5.1001 10.176 5.2171C10.634 5.4631 11.058 5.6201 11.462 5.7071C11.866 5.7941 12.25 5.8111 12.627 5.7801C13.004 5.7491 13.375 5.6691 13.753 5.5611C14.131 5.4531 14.515 5.3171 14.921 5.1741L14.965 5.1581L15.009 5.1421L15.053 5.1261L15.097 5.1101C15.693 4.9001 16.21 4.7721 16.667 4.7071C17.124 4.6421 17.523 4.6381 17.883 4.6771C18.243 4.7161 18.566 4.7961 18.871 4.8991C19.176 5.0011 19.464 5.1261 19.756 5.2511C19.912 5.3181 20.069 5.3861 20.231 5.4511C20.393 5.5161 20.558 5.5781 20.732 5.6341C20.906 5.6901 21.087 5.7401 21.279 5.7801C21.471 5.8201 21.675 5.8521 21.892 5.8701C22.262 5.9011 22.573 5.9071 22.837 5.8951C23.101 5.8831 23.318 5.8531 23.5 5.8131C23.682 5.7731 23.829 5.7231 23.954 5.6701C24.079 5.6171 24.181 5.5621 24.274 5.5131C24.3 5.4991 24.325 5.4861 24.35 5.4731C24.375 5.4601 24.399 5.4481 24.423 5.4361C24.447 5.4241 24.471 5.4131 24.495 5.4031C24.519 5.3931 24.543 5.3831 24.568 5.3741L24.588 5.4291L24.608 5.4841L24.628 5.5391L24.648 5.5941C24.627 5.6011 24.607 5.6091 24.586 5.6191C24.565 5.6281 24.544 5.6381 24.522 5.6491C24.5 5.6601 24.478 5.6711 24.456 5.6831C24.434 5.6951 24.41 5.7071 24.387 5.7201C24.288 5.7731 24.179 5.8321 24.046 5.8881C23.913 5.9441 23.757 5.9981 23.564 6.0411C23.371 6.0841 23.143 6.1171 22.866 6.1301C22.589 6.1431 22.263 6.1381 21.875 6.1051C21.648 6.0861 21.436 6.0541 21.236 6.0121C21.036 5.9701 20.849 5.9181 20.669 5.8601C20.489 5.8021 20.319 5.7381 20.152 5.6721C19.985 5.6061 19.824 5.5361 19.664 5.4671C19.383 5.3461 19.105 5.2261 18.811 5.1281C18.517 5.0301 18.207 4.9521 17.859 4.9151C17.511 4.8781 17.128 4.8811 16.687 4.9441C16.246 5.0071 15.749 5.1301 15.174 5.3331L15.13 5.3491L15.086 5.3651L15.042 5.3811L14.999 5.3951C14.58 5.5431 14.182 5.6841 13.792 5.7951C13.402 5.9061 13.017 5.9891 12.625 6.0201C12.233 6.0511 11.834 6.0321 11.412 5.9401C10.99 5.8481 10.546 5.6831 10.065 5.4251C9.856 5.3121 9.637 5.2151 9.413 5.1331C9.189 5.0511 8.959 4.9851 8.726 4.9331C8.493 4.8811 8.259 4.8451 8.027 4.8241C7.794 4.8031 7.563 4.7961 7.337 4.8051C7.115 4.8131 6.898 4.8361 6.69 4.8731C6.482 4.9101 6.284 4.9621 6.099 5.0281C5.914 5.0941 5.74 5.1741 5.584 5.2691C5.428 5.3641 5.288 5.4721 5.168 5.5951L5.126 5.5541L5.084 5.5131L5.042 5.4721L5 5.4311Z" fill="#4D4D4D"/>
<path d="M5 6.62013C5.131 6.48613 5.282 6.36813 5.451 6.26513C5.62 6.16213 5.806 6.07513 6.005 6.00313C6.204 5.93113 6.417 5.87413 6.639 5.83313C6.861 5.79213 7.092 5.76813 7.329 5.75913C7.565 5.75013 7.806 5.75713 8.049 5.77913C8.292 5.80113 8.537 5.83913 8.779 5.89313C9.021 5.94713 9.262 6.01613 9.496 6.10213C9.73 6.18713 9.958 6.28913 10.176 6.40613C10.634 6.65213 11.058 6.80913 11.462 6.89613C11.866 6.98313 12.25 7.00013 12.627 6.96913C13.004 6.93813 13.375 6.85813 13.753 6.75013C14.131 6.64213 14.515 6.50613 14.921 6.36313L14.965 6.34713L15.009 6.33113L15.053 6.31513L15.097 6.29913C15.693 6.08913 16.21 5.96113 16.667 5.89613C17.124 5.83113 17.523 5.82713 17.883 5.86613C18.243 5.90513 18.566 5.98513 18.871 6.08813C19.176 6.19013 19.464 6.31513 19.756 6.44013C19.912 6.50713 20.069 6.57513 20.231 6.64013C20.393 6.70513 20.558 6.76713 20.732 6.82313C20.906 6.87913 21.087 6.92913 21.279 6.97013C21.471 7.01113 21.675 7.04213 21.892 7.06013C22.262 7.09113 22.573 7.09713 22.837 7.08513C23.101 7.07313 23.318 7.04313 23.5 7.00313C23.682 6.96313 23.829 6.91213 23.954 6.86013C24.079 6.80713 24.181 6.75213 24.274 6.70313C24.3 6.68913 24.325 6.67613 24.35 6.66313C24.375 6.65013 24.399 6.63813 24.423 6.62613C24.447 6.61413 24.471 6.60313 24.495 6.59313C24.519 6.58313 24.543 6.57313 24.568 6.56413L24.588 6.62013L24.608 6.67613L24.628 6.73213L24.648 6.78813C24.627 6.79513 24.607 6.80313 24.586 6.81313C24.565 6.82213 24.544 6.83213 24.522 6.84313C24.5 6.85413 24.478 6.86513 24.456 6.87713C24.434 6.88913 24.41 6.90113 24.387 6.91413C24.288 6.96713 24.179 7.02613 24.046 7.08213C23.913 7.13813 23.757 7.19213 23.564 7.23513C23.371 7.27813 23.143 7.31113 22.866 7.32413C22.589 7.33713 22.263 7.33213 21.875 7.29913C21.648 7.28013 21.436 7.24713 21.236 7.20613C21.036 7.16513 20.849 7.11313 20.669 7.05513C20.489 6.99713 20.319 6.93413 20.152 6.86713C19.985 6.80013 19.824 6.73113 19.664 6.66213C19.383 6.54113 19.105 6.42113 18.811 6.32313C18.517 6.22513 18.207 6.14713 17.859 6.11013C17.511 6.07313 17.128 6.07613 16.687 6.13913C16.246 6.20213 15.749 6.32513 15.174 6.52813L15.13 6.54413L15.086 6.56013L15.042 6.57613L14.999 6.58413C14.58 6.73213 14.182 6.87313 13.792 6.98413C13.402 7.09513 13.017 7.17813 12.625 7.20913C12.233 7.24013 11.834 7.22113 11.412 7.12913C10.99 7.03713 10.546 6.87213 10.065 6.61413C9.856 6.50213 9.638 6.40513 9.414 6.32313C9.19 6.24113 8.96 6.17513 8.727 6.12313C8.494 6.07113 8.26 6.03513 8.027 6.01413C7.794 5.99313 7.563 5.98613 7.337 5.99513C7.115 6.00313 6.898 6.02613 6.691 6.06413C6.484 6.10213 6.285 6.15313 6.099 6.21913C5.913 6.28513 5.741 6.36513 5.584 6.46013C5.427 6.55513 5.288 6.66313 5.168 6.78613L5.126 6.74513L5.084 6.70413L5.042 6.66313L5 6.62013Z" fill="#4D4D4D"/>
<path d="M5 7.80809C5.131 7.67409 5.282 7.55509 5.451 7.45209C5.62 7.34909 5.806 7.26209 6.005 7.19009C6.204 7.11809 6.417 7.06209 6.639 7.02209C6.861 6.98209 7.092 6.95709 7.329 6.94809C7.565 6.93909 7.806 6.94609 8.049 6.96809C8.292 6.99009 8.537 7.02809 8.779 7.08209C9.021 7.13609 9.262 7.20509 9.496 7.29109C9.73 7.37609 9.958 7.47809 10.176 7.59509C10.634 7.84109 11.058 7.99809 11.462 8.08509C11.866 8.17209 12.25 8.18909 12.627 8.15809C13.004 8.12709 13.375 8.04709 13.753 7.93909C14.131 7.83109 14.515 7.69509 14.921 7.55209L14.965 7.53609L15.009 7.52009L15.053 7.50409L15.097 7.48809C15.693 7.27809 16.21 7.15009 16.667 7.08509C17.124 7.02009 17.523 7.01609 17.883 7.05509C18.243 7.09409 18.566 7.17409 18.871 7.27709C19.176 7.37909 19.464 7.50409 19.756 7.62909C19.912 7.69609 20.069 7.76409 20.231 7.82909C20.393 7.89409 20.558 7.95609 20.732 8.01209C20.906 8.06809 21.087 8.11809 21.279 8.15809C21.471 8.19809 21.675 8.23009 21.892 8.24809C22.262 8.27909 22.573 8.28509 22.837 8.27309C23.101 8.26109 23.318 8.23109 23.5 8.19109C23.682 8.15109 23.829 8.10109 23.954 8.04809C24.079 7.99509 24.181 7.94009 24.274 7.89109C24.3 7.87709 24.325 7.86409 24.35 7.85109C24.375 7.83809 24.399 7.82609 24.423 7.81409C24.447 7.80209 24.471 7.79109 24.495 7.78109C24.519 7.77109 24.543 7.76109 24.568 7.75209L24.588 7.80709L24.608 7.86209L24.628 7.91709L24.648 7.97209C24.627 7.97909 24.607 7.98709 24.586 7.99709C24.565 8.00609 24.544 8.01609 24.522 8.02709C24.5 8.03809 24.478 8.04909 24.456 8.06109C24.434 8.07309 24.41 8.08509 24.387 8.09809C24.288 8.15109 24.179 8.21009 24.046 8.26609C23.913 8.32209 23.757 8.37609 23.564 8.41909C23.371 8.46209 23.143 8.49509 22.866 8.50809C22.589 8.52109 22.263 8.51609 21.875 8.48309C21.648 8.46409 21.436 8.43109 21.236 8.39009C21.036 8.34909 20.849 8.29709 20.669 8.23909C20.489 8.18109 20.319 8.11809 20.152 8.05109C19.985 7.98409 19.824 7.91509 19.664 7.84609C19.383 7.72509 19.105 7.60509 18.811 7.50709C18.517 7.40909 18.207 7.33109 17.859 7.29409C17.511 7.25709 17.128 7.26009 16.687 7.32309C16.246 7.38609 15.749 7.50909 15.174 7.71209L15.13 7.72809L15.086 7.74409L15.042 7.76009L14.998 7.77609C14.579 7.92409 14.181 8.06509 13.791 8.17609C13.401 8.28709 13.016 8.37009 12.624 8.40109C12.232 8.43209 11.833 8.41309 11.411 8.32109C10.989 8.22909 10.545 8.06409 10.064 7.80609C9.855 7.69409 9.637 7.59709 9.413 7.51509C9.189 7.43309 8.959 7.36709 8.726 7.31509C8.493 7.26309 8.259 7.22709 8.026 7.20609C7.793 7.18509 7.562 7.17809 7.336 7.18709C7.114 7.19509 6.897 7.21809 6.69 7.25609C6.483 7.29409 6.284 7.34509 6.098 7.41109C5.912 7.47709 5.74 7.55709 5.583 7.65209C5.426 7.74709 5.287 7.85509 5.167 7.97809L5.125 7.93709L5.083 7.89609L5.041 7.85509L5 7.80809Z" fill="#4D4D4D"/>
<path d="M5 8.99708C5.131 8.86308 5.282 8.74408 5.451 8.64108C5.62 8.53808 5.806 8.45108 6.005 8.37908C6.204 8.30708 6.417 8.25108 6.639 8.21008C6.861 8.17008 7.092 8.14508 7.329 8.13608C7.565 8.12708 7.806 8.13408 8.049 8.15608C8.292 8.17808 8.537 8.21608 8.779 8.27008C9.021 8.32408 9.262 8.39308 9.496 8.47908C9.73 8.56408 9.958 8.66608 10.176 8.78308C10.634 9.02908 11.058 9.18608 11.462 9.27308C11.866 9.36008 12.25 9.37708 12.627 9.34608C13.004 9.31508 13.375 9.23508 13.753 9.12708C14.131 9.01908 14.515 8.88308 14.921 8.73908L14.965 8.72308L15.009 8.70708L15.053 8.69108L15.097 8.67508C15.693 8.46508 16.21 8.33708 16.667 8.27108C17.124 8.20508 17.523 8.20208 17.883 8.24108C18.243 8.28008 18.566 8.36008 18.871 8.46308C19.176 8.56508 19.464 8.69008 19.756 8.81508C19.912 8.88208 20.069 8.95008 20.231 9.01508C20.393 9.08008 20.558 9.14208 20.732 9.19808C20.906 9.25408 21.087 9.30408 21.279 9.34408C21.471 9.38408 21.675 9.41608 21.892 9.43408C22.262 9.46508 22.573 9.47108 22.837 9.45908C23.101 9.44708 23.318 9.41708 23.5 9.37708C23.682 9.33708 23.829 9.28708 23.954 9.23408C24.079 9.18108 24.181 9.12608 24.274 9.07708C24.3 9.06308 24.325 9.05008 24.35 9.03708C24.375 9.02408 24.399 9.01208 24.423 9.00008C24.447 8.98808 24.471 8.97708 24.495 8.96708C24.519 8.95708 24.543 8.94708 24.568 8.93808L24.588 8.99308L24.608 9.04808L24.628 9.10308L24.648 9.15808C24.627 9.16508 24.607 9.17408 24.586 9.18308C24.565 9.19208 24.544 9.20208 24.522 9.21308C24.5 9.22408 24.478 9.23508 24.456 9.24708C24.434 9.25908 24.41 9.27108 24.387 9.28408C24.288 9.33708 24.179 9.39608 24.046 9.45208C23.913 9.50808 23.757 9.56208 23.564 9.60508C23.371 9.64808 23.143 9.68108 22.866 9.69408C22.589 9.70708 22.263 9.70208 21.875 9.66908C21.648 9.65008 21.436 9.61808 21.236 9.57608C21.036 9.53408 20.849 9.48308 20.669 9.42508C20.489 9.36708 20.319 9.30408 20.152 9.23708C19.985 9.17008 19.824 9.10108 19.664 9.03208C19.383 8.91108 19.105 8.79108 18.811 8.69308C18.517 8.59508 18.207 8.51708 17.859 8.48008C17.511 8.44308 17.128 8.44608 16.687 8.50908C16.246 8.57208 15.749 8.69508 15.174 8.89808L15.13 8.91408L15.086 8.93008L15.042 8.94608L14.998 8.96208C14.579 9.11008 14.181 9.25108 13.791 9.36208C13.401 9.47308 13.016 9.55608 12.624 9.58708C12.232 9.61808 11.833 9.59908 11.411 9.50708C10.989 9.41508 10.545 9.25008 10.064 8.99208C9.855 8.88008 9.637 8.78308 9.413 8.70108C9.189 8.61908 8.959 8.55208 8.726 8.50108C8.493 8.45008 8.259 8.41308 8.026 8.39208C7.793 8.37108 7.562 8.36408 7.336 8.37308C7.114 8.38108 6.897 8.40408 6.69 8.44208C6.483 8.48008 6.284 8.53108 6.098 8.59708C5.912 8.66308 5.74 8.74308 5.583 8.83808C5.426 8.93308 5.287 9.04108 5.167 9.16408L5.125 9.12308L5.083 9.08208L5.041 9.04108L5 8.99708Z" fill="#4D4D4D"/>
<path d="M5 10.1861C5.131 10.0521 5.282 9.93308 5.451 9.83008C5.62 9.72708 5.806 9.64008 6.005 9.56808C6.204 9.49608 6.417 9.44008 6.639 9.40008C6.861 9.36008 7.092 9.33509 7.329 9.32609C7.565 9.31709 7.806 9.32408 8.049 9.34608C8.292 9.36808 8.537 9.40608 8.779 9.46008C9.021 9.51408 9.262 9.58308 9.496 9.66908C9.73 9.75408 9.958 9.85608 10.176 9.97308C10.634 10.2191 11.058 10.3761 11.462 10.4631C11.866 10.5501 12.25 10.5671 12.627 10.5361C13.004 10.5051 13.375 10.4251 13.753 10.3171C14.131 10.2091 14.515 10.0731 14.921 9.93008L14.965 9.91408L15.009 9.89808L15.053 9.88208L15.097 9.86609C15.693 9.65609 16.21 9.52808 16.667 9.46208C17.124 9.39608 17.523 9.39309 17.883 9.43209C18.243 9.47109 18.566 9.55109 18.871 9.65409C19.176 9.75609 19.464 9.88108 19.756 10.0061C19.912 10.0731 20.069 10.1411 20.231 10.2061C20.393 10.2711 20.558 10.3331 20.732 10.3891C20.906 10.4451 21.087 10.4951 21.279 10.5351C21.471 10.5751 21.675 10.6071 21.892 10.6251C22.262 10.6561 22.573 10.6621 22.837 10.6501C23.101 10.6381 23.318 10.6081 23.5 10.5681C23.682 10.5281 23.829 10.4781 23.954 10.4251C24.079 10.3721 24.181 10.3171 24.274 10.2681C24.3 10.2541 24.325 10.2411 24.35 10.2281C24.375 10.2151 24.399 10.2031 24.423 10.1911C24.447 10.1791 24.471 10.1681 24.495 10.1581C24.519 10.1481 24.543 10.1381 24.568 10.1291L24.588 10.1841L24.608 10.2391L24.628 10.2941L24.648 10.3491C24.627 10.3561 24.607 10.3651 24.586 10.3741C24.565 10.3831 24.544 10.3931 24.522 10.4041C24.5 10.4151 24.478 10.4261 24.456 10.4381C24.434 10.4501 24.41 10.4621 24.387 10.4751C24.288 10.5281 24.179 10.5871 24.046 10.6431C23.913 10.6991 23.757 10.7531 23.564 10.7961C23.371 10.8391 23.143 10.8721 22.866 10.8851C22.589 10.8981 22.263 10.8931 21.875 10.8601C21.648 10.8411 21.436 10.8081 21.236 10.7671C21.036 10.7261 20.849 10.6741 20.669 10.6161C20.489 10.5581 20.319 10.4941 20.152 10.4281C19.985 10.3621 19.824 10.2921 19.664 10.2231C19.383 10.1021 19.105 9.98208 18.811 9.88308C18.517 9.78408 18.207 9.70709 17.859 9.67009C17.511 9.63309 17.128 9.63608 16.687 9.69908C16.246 9.76208 15.749 9.88509 15.174 10.0881L15.13 10.1041L15.086 10.1201L15.042 10.1361L14.998 10.1521C14.579 10.3001 14.181 10.4411 13.791 10.5521C13.401 10.6631 13.016 10.7461 12.624 10.7771C12.232 10.8081 11.833 10.7891 11.411 10.6971C10.989 10.6051 10.545 10.4401 10.064 10.1821C9.855 10.0701 9.637 9.97308 9.413 9.89108C9.189 9.80908 8.959 9.74308 8.726 9.69108C8.493 9.63908 8.259 9.60308 8.026 9.58208C7.793 9.56108 7.562 9.55408 7.336 9.56308C7.114 9.57108 6.897 9.59408 6.69 9.63208C6.483 9.67008 6.284 9.71808 6.099 9.78408C5.914 9.85008 5.741 9.93008 5.584 10.0251C5.427 10.1201 5.288 10.2281 5.168 10.3511L5.126 10.3101L5.084 10.2691L5.042 10.2281L5 10.1861Z" fill="#4D4D4D"/>
<path d="M5 11.3751C5.131 11.2411 5.282 11.1221 5.451 11.0191C5.62 10.9161 5.806 10.8291 6.005 10.7571C6.204 10.6851 6.417 10.6291 6.639 10.5881C6.861 10.5481 7.092 10.5231 7.329 10.5141C7.565 10.5051 7.806 10.5121 8.049 10.5341C8.292 10.5561 8.537 10.5941 8.779 10.6481C9.021 10.7021 9.262 10.7711 9.496 10.8571C9.73 10.9421 9.958 11.0441 10.176 11.1611C10.634 11.4071 11.058 11.5641 11.462 11.6511C11.866 11.7381 12.25 11.7551 12.627 11.7241C13.004 11.6931 13.375 11.6131 13.753 11.5051C14.131 11.3971 14.515 11.2611 14.921 11.1181L14.965 11.1021L15.009 11.0861L15.053 11.0701L15.097 11.0541C15.693 10.8441 16.21 10.7161 16.667 10.6511C17.124 10.5861 17.523 10.5821 17.883 10.6211C18.243 10.6601 18.566 10.7401 18.871 10.8431C19.176 10.9451 19.464 11.0701 19.756 11.1961C19.912 11.2631 20.069 11.3311 20.231 11.3961C20.393 11.4611 20.558 11.5231 20.732 11.5791C20.906 11.6351 21.087 11.6851 21.279 11.7251C21.471 11.7651 21.675 11.7971 21.892 11.8151C22.262 11.8461 22.573 11.8521 22.837 11.8401C23.101 11.8281 23.318 11.7981 23.5 11.7581C23.682 11.7181 23.829 11.6681 23.954 11.6151C24.079 11.5621 24.181 11.5071 24.274 11.4581C24.3 11.4441 24.325 11.4311 24.35 11.4181C24.375 11.4051 24.399 11.3931 24.423 11.3811C24.447 11.3691 24.471 11.3581 24.495 11.3481C24.519 11.3381 24.543 11.3281 24.568 11.3191L24.588 11.3741L24.608 11.4291L24.628 11.4841L24.648 11.5391C24.627 11.5461 24.607 11.5551 24.586 11.5641C24.565 11.5731 24.544 11.5831 24.522 11.5941C24.5 11.6051 24.478 11.6161 24.456 11.6281C24.434 11.6401 24.41 11.6521 24.387 11.6651C24.288 11.7181 24.179 11.7771 24.046 11.8331C23.913 11.8891 23.757 11.9431 23.564 11.9861C23.371 12.0291 23.143 12.0621 22.866 12.0751C22.589 12.0881 22.263 12.0831 21.875 12.0501C21.648 12.0311 21.436 11.9981 21.236 11.9571C21.036 11.9151 20.849 11.8641 20.669 11.8061C20.489 11.7481 20.319 11.6841 20.152 11.6181C19.985 11.5521 19.824 11.4821 19.664 11.4131C19.383 11.2921 19.105 11.1721 18.811 11.0731C18.517 10.9741 18.207 10.8971 17.859 10.8601C17.511 10.8231 17.128 10.8261 16.687 10.8891C16.246 10.9521 15.749 11.0751 15.174 11.2781L15.13 11.2941L15.086 11.3101L15.042 11.3261L14.998 11.3421C14.579 11.4901 14.181 11.6311 13.791 11.7421C13.401 11.8531 13.016 11.9361 12.624 11.9671C12.232 11.9981 11.833 11.9791 11.411 11.8871C10.989 11.7951 10.545 11.6301 10.064 11.3721C9.855 11.2601 9.637 11.1631 9.413 11.0811C9.189 10.9991 8.959 10.9331 8.726 10.8811C8.493 10.8291 8.259 10.7931 8.026 10.7721C7.793 10.7511 7.562 10.7441 7.336 10.7531C7.114 10.7621 6.897 10.7841 6.69 10.8221C6.483 10.8601 6.284 10.9111 6.098 10.9771C5.912 11.0431 5.74 11.1231 5.583 11.2181C5.426 11.3131 5.287 11.4211 5.167 11.5441L5.125 11.5031L5.083 11.4621L5.041 11.4211L5 11.3751Z" fill="#4D4D4D"/>
<path d="M5 12.5641C5.131 12.4301 5.282 12.3111 5.451 12.2081C5.62 12.1051 5.806 12.0171 6.005 11.9461C6.204 11.8741 6.417 11.8181 6.639 11.7771C6.861 11.7361 7.092 11.7121 7.329 11.7031C7.565 11.6941 7.806 11.7011 8.049 11.7231C8.292 11.7451 8.537 11.7831 8.779 11.8371C9.021 11.8911 9.262 11.9601 9.496 12.0461C9.73 12.1311 9.958 12.2331 10.176 12.3501C10.634 12.5961 11.058 12.7531 11.462 12.8401C11.866 12.9271 12.25 12.9441 12.627 12.9131C13.004 12.8821 13.375 12.8021 13.753 12.6941C14.131 12.5861 14.515 12.4501 14.921 12.3071L14.965 12.2911L15.009 12.2751L15.053 12.2591L15.097 12.2431C15.693 12.0331 16.21 11.9051 16.667 11.8401C17.124 11.7741 17.523 11.7711 17.883 11.8101C18.243 11.8491 18.566 11.9291 18.871 12.0321C19.176 12.1341 19.464 12.2591 19.756 12.3841C19.912 12.4511 20.069 12.5191 20.231 12.5841C20.393 12.6491 20.558 12.7111 20.732 12.7671C20.906 12.8231 21.087 12.8731 21.279 12.9141C21.471 12.9551 21.675 12.9861 21.892 13.0041C22.262 13.0351 22.573 13.0411 22.837 13.0291C23.101 13.0171 23.318 12.9871 23.5 12.9471C23.682 12.9071 23.829 12.8571 23.954 12.8041C24.079 12.7511 24.181 12.6961 24.274 12.6471C24.3 12.6331 24.325 12.6201 24.35 12.6071C24.375 12.5941 24.399 12.5821 24.423 12.5701C24.447 12.5581 24.471 12.5471 24.495 12.5371C24.519 12.5271 24.543 12.5171 24.568 12.5081L24.588 12.5631L24.608 12.6181L24.628 12.6731L24.648 12.7281C24.627 12.7351 24.607 12.7441 24.586 12.7531C24.565 12.7621 24.544 12.7721 24.522 12.7831C24.5 12.7941 24.478 12.8051 24.456 12.8171C24.434 12.8291 24.41 12.8411 24.387 12.8541C24.288 12.9071 24.179 12.9661 24.046 13.0221C23.913 13.0781 23.757 13.1321 23.564 13.1751C23.371 13.2181 23.143 13.2511 22.866 13.2641C22.589 13.2771 22.263 13.2721 21.875 13.2391C21.648 13.2201 21.436 13.1871 21.236 13.1461C21.036 13.1051 20.849 13.0531 20.669 12.9951C20.489 12.9371 20.319 12.8731 20.152 12.8071C19.985 12.7411 19.824 12.6711 19.664 12.6021C19.383 12.4811 19.105 12.3611 18.811 12.2631C18.517 12.1651 18.207 12.0871 17.859 12.0501C17.511 12.0131 17.128 12.0161 16.687 12.0791C16.246 12.1421 15.749 12.2651 15.174 12.4681L15.13 12.4841L15.086 12.5001L15.042 12.5161L14.998 12.5321C14.579 12.6801 14.181 12.8211 13.791 12.9321C13.4 13.0431 13.016 13.1261 12.624 13.1571C12.232 13.1881 11.833 13.1691 11.411 13.0771C10.989 12.9851 10.545 12.8201 10.064 12.5611C9.855 12.4491 9.637 12.3521 9.413 12.2701C9.189 12.1881 8.959 12.1221 8.726 12.0701C8.493 12.0181 8.259 11.9821 8.026 11.9611C7.793 11.9401 7.562 11.9331 7.336 11.9421C7.114 11.9501 6.897 11.9731 6.69 12.0111C6.483 12.0491 6.284 12.1001 6.098 12.1661C5.912 12.2321 5.74 12.3121 5.583 12.4071C5.426 12.5021 5.287 12.6101 5.167 12.7331L5.125 12.6921L5.083 12.6511L5.041 12.6101L5 12.5641Z" fill="#4D4D4D"/>
<path d="M5 13.7531C5.131 13.6191 5.282 13.5001 5.451 13.3971C5.62 13.2941 5.806 13.2061 6.005 13.1351C6.204 13.0641 6.417 13.0071 6.639 12.9661C6.861 12.9251 7.092 12.9011 7.329 12.8921C7.565 12.8831 7.806 12.8901 8.049 12.9121C8.292 12.9341 8.537 12.9721 8.779 13.0261C9.021 13.0801 9.262 13.1491 9.496 13.2351C9.73 13.3201 9.958 13.4221 10.176 13.5391C10.634 13.7851 11.058 13.9421 11.462 14.0291C11.866 14.1161 12.25 14.1331 12.627 14.1021C13.004 14.0711 13.375 13.9911 13.753 13.8831C14.131 13.7751 14.515 13.6391 14.921 13.4961L14.965 13.4801L15.009 13.4641L15.053 13.4481L15.097 13.4321C15.693 13.2221 16.21 13.0941 16.667 13.0291C17.124 12.9641 17.523 12.9601 17.883 12.9991C18.243 13.0381 18.566 13.1181 18.871 13.2211C19.176 13.3231 19.464 13.4481 19.756 13.5731C19.912 13.6401 20.069 13.7081 20.231 13.7731C20.393 13.8381 20.558 13.9001 20.732 13.9561C20.906 14.0121 21.087 14.0621 21.279 14.1021C21.471 14.1421 21.675 14.1741 21.892 14.1921C22.262 14.2231 22.573 14.2291 22.837 14.2171C23.101 14.2051 23.318 14.1751 23.5 14.1351C23.682 14.0951 23.829 14.0451 23.954 13.9921C24.079 13.9391 24.181 13.8841 24.274 13.8351C24.3 13.8211 24.325 13.8081 24.35 13.7951C24.375 13.7821 24.399 13.7701 24.423 13.7581C24.447 13.7461 24.471 13.7351 24.495 13.7251C24.519 13.7151 24.543 13.7051 24.568 13.6961L24.588 13.7511L24.608 13.8061L24.628 13.8611L24.648 13.9161C24.627 13.9231 24.607 13.9321 24.586 13.9411C24.565 13.9501 24.544 13.9601 24.522 13.9711C24.5 13.9821 24.478 13.9931 24.456 14.0051C24.434 14.0171 24.41 14.0291 24.387 14.0421C24.288 14.0951 24.179 14.1541 24.046 14.2101C23.913 14.2661 23.757 14.3201 23.564 14.3631C23.371 14.4061 23.143 14.4391 22.866 14.4521C22.589 14.4651 22.263 14.4601 21.875 14.4271C21.648 14.4081 21.436 14.3751 21.236 14.3341C21.036 14.2921 20.849 14.2411 20.669 14.1831C20.489 14.1251 20.319 14.0611 20.152 13.9951C19.986 13.9281 19.824 13.8591 19.664 13.7901C19.383 13.6691 19.105 13.5491 18.811 13.4511C18.517 13.3531 18.207 13.2751 17.859 13.2381C17.511 13.2011 17.128 13.2041 16.687 13.2671C16.246 13.3301 15.749 13.4531 15.174 13.6561L15.13 13.6721L15.086 13.6881L15.042 13.7041L14.998 13.7201C14.579 13.8681 14.181 14.0091 13.791 14.1201C13.4 14.2311 13.016 14.3141 12.624 14.3451C12.232 14.3761 11.833 14.3571 11.411 14.2651C10.989 14.1731 10.545 14.0081 10.064 13.7501C9.855 13.6381 9.637 13.5411 9.413 13.4591C9.189 13.3771 8.959 13.3111 8.726 13.2591C8.493 13.2071 8.259 13.1711 8.026 13.1501C7.793 13.1291 7.562 13.1221 7.336 13.1311C7.114 13.1391 6.897 13.1621 6.69 13.2001C6.483 13.2321 6.284 13.2841 6.099 13.3501C5.914 13.4161 5.741 13.4961 5.584 13.5911C5.428 13.6851 5.288 13.7941 5.168 13.9171L5.126 13.8761L5.084 13.8351L5.042 13.7941L5 13.7531Z" fill="#4D4D4D"/>
</svg>
