<svg width="30" height="30" viewBox="0 0 30 30" fill="none" xmlns="http://www.w3.org/2000/svg">
<rect width="30" height="30" fill="white"/>
<path d="M30 30H22.5H15H7.5H0V22.5003V15.0005V7.49975V0H7.5H15H22.5H30V7.49975V14.9995V22.4992V30ZM0.252287 29.7477H7.62614H15H22.3739H29.7477V22.3741V15.0005V7.62589V0.252279H22.3739H15H7.62614H0.252287V7.62589V14.9995V22.3731V29.7477Z" fill="#4D4D4D"/>
<path d="M13.3382 17.8403L13.1946 17.6967L13.0996 17.8762L11.3319 21.2151C10.5599 22.6627 9.70954 23.2097 8.98577 23.3228C8.25663 23.4367 7.61511 23.1173 7.24892 22.7511C6.87704 22.3792 6.51351 21.7352 6.6042 21.0097C6.69387 20.2923 7.23492 19.4431 8.78137 18.6699L8.78139 18.6699L8.78447 18.6683L12.1237 16.9004L12.3032 16.8054L12.1596 16.6618C11.9894 16.4916 11.8107 16.1362 11.8107 15.7857V15.5776L11.6133 15.6434L8.07756 16.822L8.07755 16.8219L8.07507 16.8228C6.43595 17.4013 5.46623 17.1475 4.90674 16.6775C4.33687 16.1988 4.15 15.4618 4.15 15C4.15 14.4444 4.38306 13.7084 4.97538 13.2528C5.5593 12.8036 6.53118 12.5982 8.07233 13.1761L8.07229 13.1762L8.07756 13.178L11.6133 14.3566L11.7367 14.3977L11.7949 14.2814C11.8979 14.0754 11.9497 13.9198 11.999 13.7719L11.9994 13.7706C12.0482 13.6243 12.0946 13.4855 12.1877 13.2992L12.2533 13.1681L12.1237 13.0996L8.78487 11.3319C8.78479 11.3319 8.78471 11.3318 8.78463 11.3318C7.33722 10.5598 6.7903 9.70948 6.67722 8.98575C6.56329 8.25661 6.88273 7.61509 7.24892 7.24891C7.62079 6.87703 8.26483 6.5135 8.99032 6.60418C9.70766 6.69385 10.5569 7.23491 11.3301 8.78136L11.3301 8.78137L11.3317 8.78446L13.0996 12.1237L13.1946 12.3032L13.3382 12.1596C13.5084 11.9894 13.8638 11.8107 14.2143 11.8107H14.4224L14.3566 11.6133L13.1789 8.0801C12.697 6.43992 12.9487 5.46599 13.3984 4.90396C13.8533 4.33529 14.5406 4.15 15 4.15C15.5531 4.15 16.2393 4.38126 16.6713 4.97242C17.1001 5.55922 17.3035 6.53568 16.8215 8.07891L15.6434 11.6133L15.6023 11.7367L15.7186 11.7949C15.9246 11.8979 16.0802 11.9497 16.2281 11.999L16.2293 11.9994C16.3757 12.0482 16.5144 12.0946 16.7008 12.1877L16.8319 12.2533L16.9004 12.1237L18.6681 8.78486C18.6681 8.78476 18.6682 8.78466 18.6682 8.78456C19.4402 7.33719 20.2905 6.79029 21.0142 6.67721C21.7434 6.56328 22.3849 6.88272 22.7511 7.24891C23.1198 7.61766 23.4871 8.31073 23.3957 9.06452C23.3059 9.80554 22.7659 10.653 21.2256 11.3268L21.2254 11.3265L21.2155 11.3317L17.8762 13.0996L17.7467 13.1681L17.8123 13.2992C17.8635 13.4018 17.9146 13.491 17.9607 13.571L17.97 13.5871C18.013 13.6615 18.0503 13.7261 18.0823 13.7903C18.1487 13.9229 18.1893 14.0471 18.1893 14.2143V14.4224L18.3867 14.3566L21.9197 13.1789C21.9202 13.1787 21.9206 13.1786 21.9211 13.1785C23.4592 12.6981 24.4355 12.947 25.0246 13.4001C25.6216 13.8593 25.85 14.5494 25.85 15C25.85 15.5556 25.6169 16.2915 25.0246 16.7472C24.4407 17.1963 23.4688 17.4018 21.9277 16.8238L21.9277 16.8237L21.9224 16.822L18.3867 15.6434L18.2633 15.6023L18.2051 15.7186C18.1021 15.9246 18.0503 16.0802 18.001 16.2281L18.0006 16.2294C17.9518 16.3757 17.9054 16.5145 17.8123 16.7008L17.7467 16.8319L17.8762 16.9004L21.2151 18.6681C21.2151 18.6681 21.2152 18.6681 21.2152 18.6681C22.6627 19.4402 23.2097 20.2905 23.3228 21.0142C23.4367 21.7434 23.1173 22.3849 22.7511 22.7511C22.3792 23.1229 21.7352 23.4865 21.0097 23.3958C20.2923 23.3061 19.4431 22.7651 18.6699 21.2186L18.6699 21.2186L18.6683 21.2155L16.9004 17.8762L16.8054 17.6967L16.6618 17.8403C16.4916 18.0105 16.1362 18.1893 15.7857 18.1893H15.5776L15.6434 18.3867L16.8211 21.9197C16.8212 21.9202 16.8214 21.9206 16.8215 21.9211C17.3019 23.4592 17.053 24.4355 16.5998 25.0246C16.1407 25.6216 15.4505 25.85 15 25.85C14.4444 25.85 13.7085 25.6169 13.2528 25.0246C12.8036 24.4407 12.5982 23.4688 13.1762 21.9277L13.1763 21.9277L13.178 21.9224L14.3566 18.3867L14.4224 18.1893H14.2143C13.8638 18.1893 13.5084 18.0105 13.3382 17.8403Z" fill="white" stroke="#4D4D4D" stroke-width="0.3"/>
</svg>
