<svg width="30" height="30" viewBox="0 0 30 30" fill="none" xmlns="http://www.w3.org/2000/svg">
<rect width="30" height="30" fill="white"/>
<path d="M30 30H22.5H15H7.5H0V22.5003V15.0005V7.49975V0H7.5H15H22.5H30V7.49975V14.9995V22.4992V30ZM0.252287 29.7477H7.62614H15H22.3739H29.7477V22.3741V15.0005V7.62589V0.252279H22.3739H15H7.62614H0.252287V7.62589V14.9995V22.3731V29.7477Z" fill="#4D4D4D"/>
<path d="M4 14.963C4 13.449 4.307 12.007 4.862 10.696C5.417 9.385 6.219 8.203 7.211 7.211C8.203 6.219 9.384 5.417 10.695 4.862C12.006 4.307 13.448 4 14.962 4C16.476 4 17.918 4.307 19.229 4.862C20.541 5.417 21.722 6.219 22.713 7.211C23.705 8.203 24.508 9.384 25.062 10.695C25.617 12.006 25.924 13.448 25.924 14.962C25.924 16.476 25.617 17.918 25.062 19.229C24.507 20.541 23.704 21.722 22.713 22.713C21.721 23.705 20.54 24.508 19.229 25.062C17.917 25.617 16.476 25.924 14.962 25.924C13.448 25.924 12.007 25.617 10.695 25.062C9.384 24.507 8.203 23.704 7.211 22.713C6.219 21.721 5.416 20.54 4.862 19.229C4.308 17.918 4 16.476 4 14.963ZM6.483 14.963C6.485 16.134 6.724 17.248 7.153 18.262C7.583 19.276 8.203 20.189 8.97 20.956C9.737 21.723 10.65 22.344 11.663 22.773C12.676 23.202 13.792 23.441 14.962 23.443C16.133 23.441 17.247 23.203 18.261 22.773C19.275 22.343 20.188 21.723 20.955 20.956C21.722 20.189 22.343 19.276 22.772 18.262C23.201 17.248 23.44 16.133 23.442 14.963C23.44 13.792 23.202 12.677 22.772 11.664C22.342 10.65 21.722 9.737 20.955 8.971C20.188 8.205 19.275 7.584 18.261 7.154C17.247 6.725 16.132 6.486 14.961 6.484C13.79 6.486 12.675 6.724 11.662 7.154C10.649 7.582 9.736 8.203 8.969 8.97C8.202 9.737 7.582 10.65 7.152 11.663C6.722 12.676 6.485 13.792 6.483 14.963Z" fill="#4D4D4D"/>
<path d="M14.963 12.907C15.247 12.907 15.517 12.965 15.763 13.069C16.009 13.173 16.231 13.324 16.417 13.51C16.603 13.696 16.754 13.918 16.858 14.164C16.962 14.41 17.02 14.68 17.02 14.964C17.02 15.248 16.962 15.518 16.858 15.764C16.754 16.01 16.603 16.232 16.417 16.418C16.231 16.604 16.009 16.755 15.763 16.859C15.517 16.963 15.247 17.021 14.963 17.021C14.679 17.021 14.409 16.963 14.163 16.859C13.917 16.755 13.695 16.604 13.509 16.418C13.323 16.232 13.172 16.01 13.068 15.764C12.964 15.518 12.906 15.248 12.906 14.964C12.906 14.68 12.964 14.41 13.068 14.164C13.172 13.918 13.323 13.696 13.509 13.51C13.695 13.324 13.917 13.173 14.163 13.069C14.408 12.964 14.679 12.907 14.963 12.907Z" fill="#4D4D4D"/>
</svg>
