<svg width="30" height="30" viewBox="0 0 30 30" fill="none" xmlns="http://www.w3.org/2000/svg">
<rect width="30" height="30" fill="white"/>
<path d="M30 30H22.5H15H7.5H0V22.5003V15.0005V7.49975V0H7.5H15H22.5H30V7.49975V14.9995V22.4992V30ZM0.252287 29.7477H7.62614H15H22.3739H29.7477V22.3741V15.0005V7.62589V0.252279H22.3739H15H7.62614H0.252287V7.62589V14.9995V22.3731V29.7477Z" fill="#4D4D4D"/>
<path d="M26.9063 23.2393H26.6117H26.317H26.0223H25.7277H25.6522H25.5767H25.5012H25.4257V23.1638V23.0883V23.0129V22.9374V22.2489V21.5605V20.872V20.1836C25.4257 20.1708 25.423 20.1581 25.4185 20.1472C25.4139 20.1363 25.4066 20.1263 25.3985 20.1172C25.3903 20.1081 25.3803 20.1017 25.3684 20.0972C25.3566 20.0926 25.3448 20.0899 25.3321 20.0899H24.9392H24.5463H24.1534H23.7605H23.6851H23.6096H23.5341H23.4586V20.0144V19.9389V19.8634V19.788V18.0182V16.2484V14.4831V12.7133C23.4586 12.7052 23.4577 12.697 23.4559 12.6897C23.4541 12.6824 23.4504 12.6742 23.4468 12.6679C23.4431 12.6615 23.4377 12.6542 23.4322 12.6488C23.4268 12.6433 23.4204 12.6379 23.4131 12.6342L21.4469 11.4547L19.4807 10.2751L17.5144 9.09554L15.5482 7.91599C15.5446 7.91417 15.5409 7.91144 15.5373 7.91053C15.5336 7.90962 15.5291 7.9078 15.5255 7.90598C15.5218 7.90416 15.5173 7.90416 15.5127 7.90325C15.5082 7.90234 15.5045 7.90234 15.5 7.90234C15.4955 7.90234 15.4918 7.90234 15.4873 7.90325C15.4827 7.90416 15.4791 7.90507 15.4745 7.90598C15.47 7.90689 15.4664 7.90871 15.4627 7.91053C15.4591 7.91235 15.4554 7.91417 15.4518 7.91599L13.4856 9.09554L11.5193 10.2751L9.5522 11.4537L7.58596 12.6333C7.57869 12.6379 7.57232 12.6424 7.56686 12.6479C7.56141 12.6533 7.55686 12.6597 7.55231 12.667C7.54777 12.6742 7.54504 12.6815 7.54322 12.6888C7.5414 12.6961 7.54049 12.7042 7.54049 12.7124V14.4822V16.252V18.0218V19.7916V19.8671V19.9426V20.018V20.0935H7.46501H7.39043H7.31495H7.24037H6.84658H6.4537H6.05991H5.66702C5.65429 20.0935 5.64156 20.0963 5.63064 20.1008C5.61973 20.1053 5.60973 20.1126 5.60063 20.1208C5.59154 20.129 5.58517 20.139 5.58062 20.1508C5.57608 20.1626 5.57335 20.1745 5.57335 20.1872V20.8757V21.5641V22.2526V22.941V23.0165V23.092V23.1675V23.243H5.49877H5.42329H5.34871H5.27323H4.97857H4.68391H4.38834H4.09367C4.08094 23.243 4.06821 23.2457 4.0573 23.2502C4.04638 23.2548 4.03638 23.262 4.02728 23.2702C4.01819 23.2784 4.01182 23.2884 4.00728 23.3002C4.00273 23.3121 4 23.3239 4 23.3366C4 23.3494 4.00273 23.3621 4.00728 23.373C4.01182 23.3839 4.0191 23.3939 4.02728 23.403C4.03547 23.4121 4.04547 23.4185 4.0573 23.423C4.06912 23.4276 4.08094 23.4303 4.09367 23.4303H9.79684H15.5H21.2032H26.9063C26.9191 23.4303 26.9318 23.4276 26.9427 23.423C26.9536 23.4185 26.9636 23.4112 26.9727 23.403C26.9818 23.3948 26.9882 23.3848 26.9927 23.373C26.9973 23.3612 27 23.3494 27 23.3366C27 23.3239 26.9973 23.3112 26.9927 23.3002C26.9882 23.2893 26.9809 23.2793 26.9727 23.2702C26.9645 23.2611 26.9545 23.2548 26.9427 23.2502C26.9309 23.2457 26.9191 23.2393 26.9063 23.2393ZM17.9528 13.8929V12.9462V11.9985V11.0509V10.1032V9.97043V9.83765V9.70487V9.57391L18.0665 9.64212L18.1802 9.71033L18.2938 9.77854L18.4075 9.84675L19.5871 10.5543L20.7666 11.2619L21.9462 11.9694L23.1257 12.677L23.1621 12.6988L23.1985 12.7206L23.2349 12.7424L23.2713 12.7643V12.807V12.8498V12.8925V12.9352V13.1744V13.4136V13.6528V13.892V13.9675V14.043V14.1184V14.1939H23.1958H23.1203H23.0448H22.9693H21.7898H20.6102H19.4306H18.2511H18.1756H18.1001H18.0283H17.9528V14.1184V14.043V13.9675V13.8929ZM17.9528 19.7925V19.3996V19.0067V18.6139V18.221V18.1464V18.0718V17.9972V17.9227H18.0283H18.1038H18.1792H18.2547H19.1396H20.0245H20.9094H21.7943C21.807 17.9227 21.8198 17.9199 21.8307 17.9154C21.8416 17.9108 21.8516 17.9036 21.8607 17.8954C21.8698 17.8872 21.8762 17.8772 21.8807 17.8654C21.8853 17.8545 21.888 17.8417 21.888 17.829C21.888 17.8163 21.8853 17.8035 21.8807 17.7926C21.8762 17.7817 21.8689 17.7717 21.8607 17.7626C21.8525 17.7535 21.8425 17.7471 21.8307 17.7426C21.8189 17.738 21.807 17.7353 21.7943 17.7353H20.9094H20.0245H19.1378H18.2529H18.1774H18.1019H18.0283H17.9528V17.6598V17.5844V17.5089V17.4334V16.7449V16.0565V15.368V14.6796V14.6041V14.5286V14.4531V14.3776H18.0283H18.1038H18.1792H18.2547H19.4343H20.6138H21.7934H22.973H23.0484H23.1239H23.1994H23.2749V14.4531V14.5286V14.6041V14.6796V15.9583V17.2369V18.5156V19.7943V19.8698V19.9453V20.0208V20.0963H23.1994H23.1239H23.0484H22.973H21.7934H20.6138H19.4343H18.2547H18.1792H18.1038H18.0283H17.9528V20.0208V19.9453V19.8698V19.7925ZM13.0463 20.5792V21.1694V21.7596V22.3499V22.9401V23.0156V23.0911V23.1666V23.242H12.9717H12.8962H12.8208H12.7453H11.0746H9.40304H7.73147H6.05991H5.98533H5.90985H5.83527H5.75979V23.1666V23.0911V23.0156V22.9401V22.7437V22.5472V22.3499V22.1534V22.0779V22.0025V21.927V21.8515H5.83527H5.91076H5.98624H6.05991H6.55192H7.04393H7.53594H8.02796C8.04069 21.8515 8.05342 21.8488 8.06433 21.8442C8.07525 21.8397 8.08525 21.8324 8.09435 21.8242C8.10344 21.816 8.10981 21.806 8.11435 21.7942C8.1189 21.7824 8.12163 21.7706 8.12163 21.7578C8.12163 21.7451 8.1189 21.7324 8.11435 21.7214C8.10981 21.7105 8.10253 21.7005 8.09435 21.6914C8.08616 21.6823 8.07616 21.676 8.06433 21.6714C8.05342 21.6669 8.04069 21.6641 8.02796 21.6641H7.53503H7.04393H6.55192H6.05991H5.98533H5.90985H5.83527H5.75979V21.5896V21.515V21.4404V21.3658V21.1694V20.973V20.7765V20.5801V20.5055V20.4309V20.3564V20.2818H5.83527H5.91076H5.98624H6.05991H7.73147H9.40304H11.0746H12.7462H12.8217H12.8972H12.9726H13.0481V20.3564V20.4309V20.5055V20.5792H13.0463ZM13.0463 18.2201V18.6129V19.0058V19.3987V19.7916V19.8671V19.9426V20.018V20.0935H12.9717H12.8962H12.8208H12.7453H11.5666H10.3871H9.2066H8.02705H7.95156H7.87699H7.8015H7.72693V20.018V19.9426V19.8671V19.7916V19.3987V19.0058V18.6129V18.2201V18.1455V18.0709V17.9963V17.9218H7.80241H7.8779H7.95156H8.02705H9.2066H10.3862H11.5657H12.7453H12.8208H12.8962H12.9717H13.0472V17.9963V18.0709V18.1455V18.2201H13.0463ZM13.0463 10.1041V11.0518V11.9994V12.9471V13.8947V13.9702V14.0457V14.1212V14.1967H12.9717H12.8962H12.8208H12.7453H11.8604H10.9764H10.0915H9.2066C9.19387 14.1967 9.18114 14.1994 9.17023 14.2039C9.15931 14.2085 9.14931 14.2157 9.14021 14.2239C9.13112 14.2321 9.12475 14.2421 9.12021 14.2539C9.11566 14.2658 9.11293 14.2776 9.11293 14.2903C9.11293 14.3031 9.11566 14.3158 9.12021 14.3267C9.12475 14.3376 9.13203 14.3476 9.14021 14.3567C9.1484 14.3658 9.1584 14.3722 9.17023 14.3767C9.18205 14.3813 9.19387 14.384 9.2066 14.384H10.0915H10.9764H11.8613H12.7462H12.8217H12.8972H12.9726H13.0481V14.4595V14.535V14.6104V14.6859V15.3744V16.0628V16.7513V17.4397V17.5152V17.5907V17.6662V17.7417H12.9717H12.8962H12.8208H12.7453H11.5666H10.3871H9.2066H8.02705H7.95156H7.87699H7.8015H7.72693V17.6662V17.5907V17.5152V17.4397V16.3157V15.1916V14.0675V12.9434V12.9007V12.8579V12.8152V12.7725L7.76331 12.7506L7.79968 12.7288L7.83606 12.707L7.87244 12.6851L9.052 11.9776L10.2316 11.27L11.4111 10.5625L12.5907 9.85493L12.7043 9.78673L12.818 9.71852L12.9317 9.65031L13.0454 9.5821V9.71488V9.84766V9.98044V10.1041H13.0463ZM17.7663 18.2201V19.3996V20.5792V21.7587V22.9383V23.0138V23.0893V23.1647V23.2402H17.6918H17.6163H17.5408H17.4653H16.4822H15.5H14.5169H13.5338H13.4583H13.3828H13.3082H13.2327V23.1647V23.0893V23.0138V22.9383V21.7587V20.5792V19.3996V18.2201V18.1455V18.0709V17.9963V17.9218H13.3082H13.3837H13.4592H13.5347H14.5178H15.5009H16.484H17.4671H17.5426H17.6181H17.6936H17.7691V17.9963V18.0709V18.1455V18.2201H17.7663ZM17.7663 14.6796V15.368V16.0565V16.7449V17.4334V17.5089V17.5844V17.6598V17.7353H17.6918H17.6163H17.5408H17.4653H16.4822H15.5H14.5169H13.5338H13.4583H13.3828H13.3082H13.2327V17.6598V17.5844V17.5089V17.4334V16.7449V16.0565V15.368V14.6796V14.6041V14.5286V14.4531V14.3776H13.3082H13.3837H13.4592H13.5347H14.5178H15.5009H16.484H17.4671H17.5426H17.6181H17.6936H17.7691V14.4531V14.5286V14.6041V14.6796H17.7663ZM17.7663 9.63212V10.6971V11.7621V12.827V13.892V13.9675V14.043V14.1184V14.1939H17.6918H17.6163H17.5408H17.4653H16.4822H15.5H14.5169H13.5338H13.4583H13.3828H13.3082H13.2327V14.1184V14.043V13.9675V13.892V12.8279V11.763V10.698V9.63212V9.58937V9.54663V9.5048V9.46205L13.2691 9.44022L13.3055 9.4184L13.3419 9.39657L13.3783 9.37474L13.8703 9.08008L14.3623 8.78542L14.8543 8.49076L15.3463 8.1961L15.3845 8.17336L15.4227 8.15062L15.4609 8.12789L15.4991 8.10515L15.5373 8.12789L15.5755 8.15062L15.6137 8.17336L15.6519 8.1961L16.1457 8.48985L16.6377 8.78451L17.1297 9.07917L17.6217 9.37383L17.6581 9.39566L17.6945 9.41749L17.7309 9.43932L17.7673 9.46114V9.50389V9.54663V9.58937V9.63212H17.7663ZM25.2393 20.5792V21.1694V21.7596V22.3499V22.9401V23.0156V23.0911V23.1666V23.242H25.1638H25.0883H25.0129H24.9374H23.2658H21.5942H19.9227H18.2511H18.1756H18.1001H18.0283H17.9528V23.1666V23.0911V23.0156V22.9401V22.7437V22.5472V22.3499V22.1534V22.0779V22.0025V21.927V21.8515H18.0283H18.1038H18.1792H18.2547H18.7467H19.2388H19.7308H20.2228C20.2355 21.8515 20.2482 21.8488 20.2592 21.8442C20.2701 21.8397 20.2801 21.8324 20.2892 21.8242C20.2983 21.816 20.3046 21.806 20.3092 21.7942C20.3137 21.7833 20.3164 21.7706 20.3164 21.7578C20.3164 21.7451 20.3137 21.7324 20.3092 21.7214C20.3046 21.7105 20.2974 21.7005 20.2892 21.6914C20.281 21.6823 20.271 21.676 20.2592 21.6714C20.2482 21.6669 20.2355 21.6641 20.2228 21.6641H19.7308H19.2388H18.7467H18.2547H18.1792H18.1038H18.0283H17.9528V21.5896V21.515V21.4404V21.3658V21.1694V20.973V20.7765V20.5801V20.5055V20.4309V20.3564V20.2818H18.0283H18.1038H18.1792H18.2547H19.9263H21.5979H23.2694H24.941H25.0165H25.092H25.1675H25.2429V20.3564V20.4309V20.5055V20.5792H25.2393Z" fill="#4D4D4D"/>
<path d="M7.63325 24.8126H6.74836H5.86346H4.97857H4.09367C4.08094 24.8126 4.06821 24.8153 4.0573 24.8199C4.04638 24.8244 4.03638 24.8317 4.02728 24.8399C4.01819 24.8481 4.01182 24.8581 4.00728 24.8699C4.00273 24.8817 4 24.8936 4 24.9063C4 24.919 4.00273 24.9318 4.00728 24.9427C4.01182 24.9536 4.0191 24.9636 4.02728 24.9727C4.03547 24.9818 4.04547 24.9881 4.0573 24.9927C4.06821 24.9972 4.08094 25 4.09367 25H4.97857H5.86346H6.74836H7.63325C7.64599 25 7.65872 24.9972 7.66963 24.9927C7.68055 24.9881 7.69055 24.9809 7.69964 24.9727C7.70874 24.9645 7.7151 24.9545 7.71965 24.9427C7.7242 24.9318 7.72693 24.919 7.72693 24.9063C7.72693 24.8936 7.7242 24.8808 7.71965 24.8699C7.7151 24.859 7.70783 24.849 7.69964 24.8399C7.69146 24.8308 7.68145 24.8244 7.66963 24.8199C7.65781 24.8153 7.64599 24.8126 7.63325 24.8126Z" fill="#4D4D4D"/>
<path d="M26.9063 24.8126H22.4818H18.0574H13.6329H9.2066C9.19387 24.8126 9.18114 24.8153 9.17023 24.8199C9.15931 24.8244 9.14931 24.8317 9.14021 24.8399C9.13112 24.8481 9.12475 24.8581 9.12021 24.8699C9.11566 24.8817 9.11293 24.8936 9.11293 24.9063C9.11293 24.919 9.11566 24.9318 9.12021 24.9427C9.12475 24.9536 9.13203 24.9636 9.14021 24.9727C9.1484 24.9818 9.1584 24.9881 9.17023 24.9927C9.18114 24.9972 9.19387 25 9.2066 25H13.6311H18.0556H22.48H26.9045C26.9172 25 26.93 24.9972 26.9409 24.9927C26.9518 24.9881 26.9618 24.9809 26.9709 24.9727C26.98 24.9645 26.9864 24.9545 26.9909 24.9427C26.9955 24.9318 26.9982 24.919 26.9982 24.9063C26.9982 24.8936 26.9955 24.8808 26.9909 24.8699C26.9864 24.859 26.9791 24.849 26.9709 24.8399C26.9627 24.8308 26.9527 24.8244 26.9409 24.8199C26.9291 24.8153 26.9191 24.8126 26.9063 24.8126Z" fill="#4D4D4D"/>
<path d="M11.5666 21.666H11.0746H10.5835H10.0915H9.60039C9.58766 21.666 9.57492 21.6687 9.56401 21.6732C9.5531 21.6778 9.54309 21.6851 9.534 21.6932C9.5249 21.7014 9.51854 21.7114 9.51399 21.7232C9.50944 21.7342 9.50671 21.7469 9.50671 21.7596C9.50671 21.7724 9.50944 21.7851 9.51399 21.796C9.51854 21.8069 9.52581 21.8169 9.534 21.826C9.54218 21.8351 9.55219 21.8415 9.56401 21.846C9.57583 21.8506 9.58766 21.8533 9.60039 21.8533H10.0924H10.5844H11.0764H11.5684C11.5812 21.8533 11.5939 21.8506 11.6048 21.846C11.6157 21.8415 11.6257 21.8342 11.6348 21.826C11.6439 21.8178 11.6503 21.8078 11.6548 21.796C11.6594 21.7842 11.6621 21.7724 11.6621 21.7596C11.6621 21.7469 11.6594 21.7342 11.6548 21.7232C11.6503 21.7123 11.643 21.7023 11.6348 21.6932C11.6266 21.6841 11.6166 21.6778 11.6048 21.6732C11.5921 21.6687 11.5794 21.666 11.5666 21.666Z" fill="#4D4D4D"/>
<path d="M23.7596 21.666H23.2676H22.7756H22.2845H21.7925C21.7797 21.666 21.767 21.6687 21.7561 21.6732C21.7452 21.6778 21.7352 21.6851 21.7261 21.6932C21.717 21.7014 21.7106 21.7114 21.7061 21.7232C21.7015 21.7342 21.6988 21.7469 21.6988 21.7596C21.6988 21.7724 21.7015 21.7851 21.7061 21.796C21.7106 21.8069 21.7179 21.8169 21.7261 21.826C21.7343 21.8351 21.7443 21.8415 21.7561 21.846C21.767 21.8506 21.7797 21.8533 21.7925 21.8533H22.2845H22.7765H23.2685H23.7605C23.7733 21.8533 23.786 21.8506 23.7969 21.846C23.8078 21.8415 23.8178 21.8342 23.8269 21.826C23.836 21.8178 23.8424 21.8078 23.8469 21.796C23.8515 21.7851 23.8542 21.7724 23.8542 21.7596C23.8542 21.7469 23.8515 21.7342 23.8469 21.7232C23.8424 21.7123 23.8351 21.7023 23.8269 21.6932C23.8187 21.6841 23.8087 21.6778 23.7969 21.6732C23.7842 21.6687 23.7724 21.666 23.7596 21.666Z" fill="#4D4D4D"/>
<path d="M22.973 8.08697C23.2567 8.08697 23.5277 8.02968 23.7742 7.92509C24.0206 7.8205 24.2426 7.66954 24.429 7.4831C24.6154 7.29666 24.7664 7.07475 24.871 6.82829C24.9756 6.58183 25.0329 6.31082 25.0329 6.02707C25.0329 5.74332 24.9756 5.4723 24.871 5.22584C24.7664 4.97938 24.6154 4.75748 24.429 4.57104C24.2426 4.3846 24.0206 4.23363 23.7742 4.12905C23.5277 4.02446 23.2567 3.96716 22.973 3.96716C22.6892 3.96716 22.4182 4.02446 22.1717 4.12905C21.9253 4.23363 21.7034 4.3846 21.5169 4.57104C21.3305 4.75748 21.1795 4.97938 21.0749 5.22584C20.9704 5.4723 20.9131 5.74332 20.9131 6.02707C20.9131 6.31082 20.9713 6.58092 21.0758 6.82738C21.1804 7.07385 21.3314 7.29575 21.5178 7.48219C21.7043 7.66863 21.9262 7.81959 22.1726 7.92418C22.4191 8.02877 22.6892 8.08606 22.973 8.08697ZM22.973 4.1536C23.2312 4.1536 23.4777 4.20635 23.7014 4.30093C23.9252 4.39551 24.1271 4.53284 24.2971 4.70291C24.4672 4.87298 24.6045 5.07396 24.6991 5.2986C24.7937 5.52323 24.8464 5.76878 24.8464 6.02707C24.8464 6.28535 24.7937 6.53181 24.6991 6.75554C24.6045 6.97926 24.4672 7.18116 24.2971 7.35123C24.1271 7.5213 23.9261 7.65771 23.7014 7.7532C23.4768 7.8487 23.2312 7.90054 22.973 7.90054C22.7147 7.90054 22.4682 7.84779 22.2445 7.7532C22.0208 7.65862 21.8189 7.5213 21.6488 7.35123C21.4787 7.18116 21.3423 6.98017 21.2468 6.75554C21.1522 6.53181 21.0995 6.28535 21.0995 6.02707C21.0995 5.76878 21.1522 5.52232 21.2468 5.2986C21.3414 5.07487 21.4787 4.87298 21.6488 4.70291C21.8189 4.53284 22.0199 4.39642 22.2445 4.30093C22.4682 4.20635 22.7147 4.1536 22.973 4.1536Z" fill="#4D4D4D"/>
<path d="M22.973 2.58023C22.9857 2.58023 22.9984 2.5775 23.0093 2.57295C23.0203 2.56841 23.0303 2.56113 23.0394 2.55295C23.0484 2.54476 23.0548 2.53476 23.0594 2.52293C23.0639 2.51111 23.0666 2.49929 23.0666 2.48656V2.38834V2.29011V2.19189V2.09367C23.0666 2.08094 23.0639 2.06821 23.0594 2.0573C23.0548 2.04638 23.0475 2.03638 23.0394 2.02728C23.0312 2.01819 23.0212 2.01182 23.0093 2.00728C22.9975 2.00273 22.9857 2 22.973 2C22.9602 2 22.9475 2.00273 22.9366 2.00728C22.9257 2.01182 22.9157 2.0191 22.9066 2.02728C22.8975 2.03547 22.8911 2.04547 22.8866 2.0573C22.882 2.06821 22.8793 2.08094 22.8793 2.09367V2.19189V2.29011V2.38834V2.48747C22.8793 2.5002 22.882 2.51293 22.8866 2.52384C22.8911 2.53476 22.8984 2.54476 22.9066 2.55386C22.9148 2.56295 22.9248 2.56932 22.9366 2.57386C22.9475 2.5775 22.9602 2.58023 22.973 2.58023Z" fill="#4D4D4D"/>
<path d="M20.4038 3.5897C20.4092 3.59516 20.4147 3.59971 20.4201 3.60426C20.4256 3.60789 20.4319 3.61153 20.4374 3.61426C20.4429 3.61699 20.4492 3.61881 20.4556 3.62063C20.462 3.62153 20.4683 3.62244 20.4747 3.62244C20.4883 3.61972 20.5011 3.61608 20.5111 3.61153C20.5211 3.60698 20.5302 3.60153 20.5374 3.59607C20.5447 3.59061 20.5502 3.58334 20.5547 3.57606C20.5593 3.56879 20.562 3.56151 20.5647 3.55333C20.5665 3.54514 20.5675 3.53696 20.5675 3.52877C20.5675 3.52059 20.5665 3.5124 20.5638 3.50422C20.5611 3.49603 20.5584 3.48875 20.5538 3.48148C20.5493 3.4742 20.5447 3.46784 20.5384 3.46238L20.4683 3.39235L20.3983 3.32233L20.3283 3.2523L20.2582 3.18227C20.2537 3.17772 20.2482 3.17409 20.2437 3.17136C20.2382 3.16863 20.2328 3.1659 20.2273 3.16408C20.2219 3.16226 20.2155 3.15862 20.211 3.15862C20.2055 3.15771 20.2009 3.15771 20.1964 3.15771C20.1928 3.15771 20.1882 3.15771 20.1837 3.15862C20.1791 3.15953 20.1728 3.16044 20.1673 3.16226C20.1618 3.16408 20.1555 3.16681 20.1491 3.17045C20.1427 3.17409 20.1364 3.17863 20.1309 3.185C20.1218 3.19409 20.1155 3.2041 20.1109 3.21501C20.1064 3.22592 20.1036 3.23775 20.1036 3.24957C20.1036 3.26139 20.1055 3.27322 20.11 3.28413C20.1146 3.29595 20.1209 3.30596 20.1291 3.31505L20.1973 3.38326L20.2655 3.45147L20.3337 3.51968L20.4038 3.5897Z" fill="#4D4D4D"/>
<path d="M19.0396 6.11978H19.1378H19.236H19.3342H19.4325C19.4452 6.11978 19.4579 6.11705 19.4688 6.11251C19.4797 6.10796 19.4897 6.10068 19.4988 6.0925C19.5079 6.08431 19.5143 6.07431 19.5189 6.06249C19.5234 6.05066 19.5261 6.03884 19.5261 6.02611C19.5261 6.01338 19.5234 6.00064 19.5189 5.98973C19.5143 5.97882 19.507 5.96881 19.4988 5.95972C19.4907 5.95062 19.4807 5.94426 19.4688 5.93971C19.457 5.93516 19.4452 5.93243 19.4325 5.93243H19.3342H19.236H19.1378H19.0396C19.0268 5.93243 19.0141 5.93516 19.0032 5.93971C18.9923 5.94426 18.9823 5.95244 18.9741 5.96063C18.9659 5.96881 18.9586 5.97882 18.9541 5.99064C18.9495 6.00246 18.9468 6.01428 18.9468 6.02702C18.9468 6.03975 18.9495 6.05248 18.9541 6.06339C18.9586 6.07431 18.9659 6.08431 18.9741 6.09341C18.9823 6.1025 18.9923 6.10887 19.0041 6.11342C19.0159 6.11796 19.0268 6.11978 19.0396 6.11978Z" fill="#4D4D4D"/>
<path d="M20.1791 8.90365C20.1891 8.90365 20.1973 8.90274 20.2046 8.90183C20.2119 8.90092 20.2191 8.8991 20.2246 8.89638C20.23 8.89365 20.2355 8.89183 20.241 8.88819C20.2464 8.88455 20.2501 8.88182 20.2537 8.87728L20.3237 8.80725L20.3937 8.73722L20.4638 8.66719L20.5338 8.59717C20.542 8.58898 20.5474 8.57898 20.5511 8.56897C20.5547 8.55806 20.5565 8.54715 20.5565 8.53532C20.5565 8.5235 20.5556 8.50986 20.5511 8.49895C20.5465 8.48803 20.5402 8.47803 20.5311 8.46893C20.5247 8.46257 20.5192 8.45802 20.5129 8.45438C20.5065 8.45074 20.5002 8.44802 20.4947 8.4462C20.4892 8.44438 20.4829 8.44347 20.4783 8.44256C20.4738 8.44165 20.4692 8.44165 20.4656 8.44165C20.461 8.44165 20.4565 8.44165 20.451 8.44256C20.4456 8.44347 20.4401 8.44438 20.4347 8.4462C20.4292 8.44802 20.4228 8.45074 20.4174 8.45438C20.4119 8.45802 20.4056 8.46257 20.4001 8.46802L20.3319 8.53623L20.2637 8.60444L20.1955 8.67265L20.1273 8.74086C20.12 8.74723 20.1145 8.7545 20.11 8.76269C20.1054 8.77087 20.1018 8.77815 20.0991 8.78633C20.0964 8.79452 20.0954 8.8027 20.0954 8.81089C20.0954 8.81907 20.0964 8.82726 20.0982 8.83544C20.1 8.84363 20.1036 8.8509 20.1073 8.85818C20.1109 8.86545 20.1164 8.87182 20.1218 8.87728C20.1273 8.88273 20.1336 8.88819 20.1409 8.89183C20.1482 8.89547 20.1555 8.8991 20.1637 8.90092C20.1655 8.90092 20.1664 8.90092 20.1682 8.90092C20.17 8.90092 20.1709 8.90092 20.1718 8.90092C20.1727 8.90092 20.1746 8.90092 20.1755 8.90092C20.1764 8.90365 20.1782 8.90365 20.1791 8.90365Z" fill="#4D4D4D"/>
<path d="M22.8793 9.56663V9.66486V9.76308V9.8613V9.95952C22.8793 9.97225 22.882 9.98498 22.8866 9.9959C22.8911 10.0068 22.8984 10.0168 22.9066 10.0259C22.9148 10.035 22.9248 10.0414 22.9366 10.0459C22.9475 10.0505 22.9602 10.0532 22.973 10.0532C22.9857 10.0532 22.9984 10.0505 23.0093 10.0459C23.0203 10.0414 23.0303 10.0341 23.0394 10.0259C23.0484 10.0177 23.0548 10.0077 23.0594 9.9959C23.0639 9.98407 23.0666 9.97225 23.0666 9.95952V9.8613V9.76308V9.66486V9.56663C23.0666 9.5539 23.0639 9.54117 23.0594 9.53026C23.0548 9.51934 23.0475 9.50934 23.0394 9.50024C23.0312 9.49115 23.0212 9.48478 23.0093 9.48024C22.9975 9.47569 22.9857 9.47296 22.973 9.47296C22.9602 9.47296 22.9475 9.47569 22.9366 9.48024C22.9257 9.48478 22.9157 9.49206 22.9066 9.50024C22.8975 9.50843 22.8911 9.51843 22.8866 9.53026C22.882 9.54208 22.8793 9.5539 22.8793 9.56663Z" fill="#4D4D4D"/>
<path d="M25.6877 8.87362C25.6931 8.87908 25.6986 8.88363 25.704 8.88817C25.7095 8.89272 25.7159 8.89545 25.7213 8.89818C25.7268 8.9009 25.7331 8.90272 25.7395 8.90454C25.7459 8.90636 25.7522 8.90636 25.7586 8.90636C25.7722 8.90363 25.785 8.89999 25.795 8.89545C25.805 8.8909 25.8141 8.88544 25.8214 8.87999C25.8286 8.87453 25.8341 8.86726 25.8386 8.85998C25.8432 8.8527 25.8459 8.84543 25.8486 8.83724C25.8505 8.82906 25.8514 8.82087 25.8514 8.81269C25.8514 8.8045 25.8505 8.79632 25.8477 8.78813C25.845 8.77995 25.8423 8.77267 25.8377 8.7654C25.8332 8.75812 25.8286 8.75175 25.8223 8.7463L25.7522 8.67627L25.6822 8.60624L25.6122 8.53622L25.5422 8.46619C25.5358 8.45982 25.5303 8.45527 25.524 8.45164C25.5176 8.448 25.5112 8.44527 25.5058 8.44345C25.5003 8.44163 25.494 8.44072 25.4894 8.43981C25.4849 8.4389 25.4803 8.4389 25.4767 8.4389C25.4721 8.4389 25.4676 8.4389 25.4621 8.43981C25.4567 8.44072 25.4512 8.44163 25.4458 8.44345C25.4403 8.44527 25.4339 8.448 25.4285 8.45164C25.423 8.45527 25.4167 8.45982 25.4112 8.46528C25.4066 8.46983 25.403 8.47437 25.3994 8.47983C25.3957 8.48529 25.393 8.48983 25.3912 8.4962C25.3894 8.50257 25.3875 8.50802 25.3857 8.51348C25.3848 8.51984 25.3839 8.5253 25.3839 8.53167C25.3839 8.53803 25.3848 8.5444 25.3857 8.54986C25.3866 8.55622 25.3885 8.56168 25.3912 8.56714C25.3939 8.57259 25.3966 8.57805 25.3994 8.58351C25.403 8.58896 25.4066 8.59351 25.4112 8.59806L25.4803 8.66718L25.5494 8.73629L25.6185 8.80541L25.6877 8.87362Z" fill="#4D4D4D"/>
<path d="M26.5125 6.11978H26.6107H26.709H26.8072H26.9054C26.9181 6.11978 26.9309 6.11705 26.9418 6.11251C26.9527 6.10796 26.9627 6.10068 26.9718 6.0925C26.9809 6.08431 26.9873 6.07431 26.9918 6.06249C26.9964 6.05066 26.9991 6.03884 26.9991 6.02611C26.9991 6.01338 26.9964 6.00064 26.9918 5.98973C26.9873 5.97882 26.98 5.96881 26.9718 5.95972C26.9636 5.95062 26.9536 5.94426 26.9418 5.93971C26.93 5.93516 26.9181 5.93243 26.9054 5.93243H26.8072H26.709H26.6107H26.5125C26.4998 5.93243 26.4871 5.93516 26.4761 5.93971C26.4652 5.94426 26.4552 5.95153 26.4461 5.95972C26.437 5.9679 26.4307 5.97791 26.4261 5.98973C26.4216 6.00064 26.4189 6.01338 26.4189 6.02611C26.4189 6.03884 26.4216 6.05157 26.4261 6.06249C26.4307 6.0734 26.438 6.0834 26.4461 6.0925C26.4543 6.10159 26.4643 6.10796 26.4761 6.11251C26.4871 6.11705 26.4998 6.11978 26.5125 6.11978Z" fill="#4D4D4D"/>
<path d="M25.5412 3.59067L25.6113 3.52064L25.6813 3.45061L25.7513 3.38059L25.8214 3.31056C25.8286 3.30419 25.8341 3.29692 25.8386 3.28873C25.8432 3.28055 25.8468 3.27327 25.8496 3.26509C25.8523 3.2569 25.8532 3.24872 25.8532 3.24053C25.8532 3.23234 25.8523 3.22416 25.8505 3.21597C25.8486 3.20779 25.845 3.20051 25.8414 3.19324C25.8368 3.18596 25.8323 3.1796 25.8268 3.17414C25.8214 3.16868 25.815 3.16323 25.8077 3.15959C25.8004 3.15504 25.7932 3.15231 25.785 3.15049H25.7768L25.7713 3.14959L25.7659 3.14868L25.7586 3.14777C25.7522 3.14777 25.7459 3.14868 25.7404 3.14959C25.735 3.15049 25.7286 3.15231 25.7222 3.15504C25.7159 3.15777 25.7113 3.1605 25.7059 3.16414C25.7004 3.16777 25.6959 3.17141 25.6913 3.17596L25.6213 3.24599L25.5513 3.31601L25.4803 3.38786L25.4103 3.45789C25.4039 3.46425 25.3985 3.47244 25.3939 3.47972C25.3894 3.48699 25.3866 3.497 25.3848 3.50609C25.383 3.51518 25.383 3.52428 25.3839 3.53337C25.3848 3.54247 25.3866 3.55156 25.3903 3.55975C25.3939 3.56884 25.3985 3.57612 25.4048 3.58339C25.4112 3.59067 25.4176 3.59613 25.4248 3.60158C25.4321 3.60704 25.4403 3.61068 25.4494 3.6134C25.4585 3.61613 25.4676 3.61704 25.4767 3.61704C25.483 3.61704 25.4894 3.61613 25.4949 3.61522C25.5012 3.61431 25.5067 3.6125 25.5121 3.60977C25.5176 3.60704 25.5231 3.60431 25.5276 3.60158C25.5322 3.59885 25.5367 3.59431 25.5412 3.59067Z" fill="#4D4D4D"/>
</svg>
