<svg width="30" height="30" viewBox="0 0 30 30" fill="none" xmlns="http://www.w3.org/2000/svg">
<rect width="30" height="30" fill="white"/>
<path d="M30 30H22.5H15H7.5H0V22.5003V15.0005V7.49975V0H7.5H15H22.5H30V7.49975V14.9995V22.4992V30ZM0.252287 29.7477H7.62614H15H22.3739H29.7477V22.3741V15.0005V7.62589V0.252279H22.3739H15H7.62614H0.252287V7.62589V14.9995V22.3731V29.7477Z" fill="#4D4D4D"/>
<path d="M25.4663 23H20.3749H15.2835H10.1921H5.10072C5.08713 23 5.07354 22.9968 5.06155 22.992C5.04956 22.9872 5.03917 22.9792 5.02958 22.9704C5.01998 22.9616 5.01359 22.9504 5.00799 22.9384C5.0024 22.9265 5 22.9137 5 22.8993V20.0902V17.2811V14.472V11.6629C5 11.6533 5.0016 11.6437 5.004 11.6341C5.0064 11.6245 5.01039 11.6165 5.01599 11.6085C5.02158 11.6005 5.02798 11.5942 5.03517 11.5878C5.04237 11.5814 5.05036 11.5766 5.05916 11.5718L7.60445 10.431L10.1497 9.29028L12.695 8.14954L15.2403 7.00879C15.2467 7.0056 15.2539 7.004 15.2603 7.0024C15.2667 7.0008 15.2739 7 15.2811 7C15.2883 7 15.2947 7.0008 15.3019 7.0024C15.3091 7.004 15.3155 7.0064 15.3219 7.00879L17.8679 8.14954L20.414 9.29028L22.9601 10.431L25.5062 11.5718C25.515 11.5758 25.523 11.5814 25.5302 11.5878C25.5374 11.5942 25.5438 11.6013 25.5486 11.6093C25.5534 11.6173 25.5574 11.6261 25.5606 11.6349C25.5638 11.6437 25.5646 11.6533 25.5646 11.6637V14.4728V17.2819V20.091V22.9001C25.5646 22.9137 25.5614 22.9273 25.5566 22.9392C25.5518 22.9512 25.5438 22.9616 25.535 22.9712C25.5262 22.9808 25.515 22.9872 25.503 22.9928C25.491 22.9984 25.4798 23 25.4663 23ZM5.20065 22.8001H10.2425H15.2843H20.3261H25.3679V20.0318V17.2635V14.4952V11.7269L22.8474 10.5973L20.3245 9.46855L17.804 8.339L15.2835 7.20944L12.7622 8.3382L10.2417 9.46855L7.72116 10.5981L5.20065 11.7277V14.496V17.2643V20.0326V22.8001Z" fill="#4D4D4D"/>
<path d="M24.0617 22.9992H19.6722H15.2827H10.894H6.50527C6.49168 22.9992 6.47809 22.996 6.46609 22.9912C6.4541 22.9864 6.44371 22.9784 6.43412 22.9696C6.42453 22.9608 6.41813 22.9496 6.41254 22.9376C6.40694 22.9256 6.40454 22.9128 6.40454 22.8985V22.5475V22.1966V21.8456V21.4947C6.40454 21.4811 6.40774 21.4675 6.41254 21.4555C6.41733 21.4435 6.42533 21.4332 6.43412 21.4236C6.44291 21.414 6.4541 21.4076 6.46609 21.402C6.47809 21.3964 6.49088 21.394 6.50527 21.394H10.8948H15.2843H19.6738H24.0633C24.0769 21.394 24.0905 21.3972 24.1025 21.402C24.1145 21.4068 24.1249 21.4148 24.1344 21.4236C24.144 21.4324 24.1504 21.4435 24.156 21.4555C24.1616 21.4675 24.164 21.4803 24.164 21.4947V21.8456V22.1966V22.5475V22.8985C24.164 22.912 24.1608 22.9256 24.156 22.9376C24.1512 22.9496 24.1432 22.96 24.1344 22.9696C24.1257 22.9792 24.1145 22.9856 24.1025 22.9912C24.0905 22.9968 24.0753 22.9992 24.0617 22.9992ZM6.60519 22.7993H10.9443H15.2835H19.6226H23.9618V22.498V22.1966V21.8952V21.5938H19.6226H15.2835H10.9443H6.60519V21.8952V22.1966V22.498V22.7993Z" fill="#4D4D4D"/>
<path d="M15.2835 21.5899C15.2699 21.5899 15.2563 21.5867 15.2443 21.5819C15.2323 21.5771 15.2219 21.5691 15.2123 21.5603C15.2028 21.5515 15.1964 21.5403 15.1908 21.5283C15.1852 21.5163 15.1828 21.5035 15.1828 21.4891V19.1397V16.7903V14.4416V12.0922C15.1828 12.0786 15.186 12.065 15.1908 12.053C15.1956 12.041 15.2036 12.0306 15.2123 12.021C15.2211 12.0114 15.2323 12.005 15.2443 11.9994C15.2563 11.9939 15.2691 11.9915 15.2835 11.9915C15.2979 11.9915 15.3107 11.9947 15.3227 11.9994C15.3347 12.0042 15.345 12.0122 15.3546 12.021C15.3642 12.0298 15.3706 12.041 15.3762 12.053C15.3818 12.065 15.3842 12.0778 15.3842 12.0922V14.4416V16.7911V19.1405V21.4899C15.3842 21.5035 15.381 21.5171 15.3762 21.5291C15.3714 21.5411 15.3634 21.5515 15.3546 21.5611C15.3458 21.5707 15.3347 21.5771 15.3227 21.5827C15.3107 21.5883 15.2971 21.5899 15.2835 21.5899Z" fill="#4D4D4D"/>
<path d="M15.2835 15.6255C15.2699 15.6255 15.2563 15.6223 15.2443 15.6175C15.2323 15.6127 15.2219 15.6047 15.2123 15.5959C15.2028 15.5872 15.1964 15.576 15.1908 15.564C15.1852 15.552 15.1828 15.5392 15.1828 15.5248C15.1828 15.1235 15.2643 14.7414 15.4114 14.3937C15.5585 14.0459 15.7719 13.7325 16.0357 13.4687C16.2995 13.2049 16.6129 12.9923 16.9606 12.8444C17.3084 12.6965 17.6913 12.6158 18.0918 12.6158C18.1054 12.6158 18.119 12.619 18.131 12.6238C18.1429 12.6286 18.1533 12.6366 18.1629 12.6454C18.1725 12.6542 18.1789 12.6653 18.1845 12.6773C18.1901 12.6893 18.1925 12.7021 18.1925 12.7165C18.1925 13.1178 18.111 13.4999 17.9639 13.8477C17.8168 14.1954 17.6034 14.5088 17.3396 14.7726C17.0757 15.0364 16.7624 15.249 16.4146 15.3969C16.0669 15.5448 15.684 15.6255 15.2835 15.6255ZM17.9903 12.8188C17.6369 12.8316 17.3012 12.9132 16.9942 13.0491C16.6872 13.185 16.4114 13.3768 16.1772 13.611C15.943 13.8453 15.7511 14.1219 15.6152 14.428C15.4793 14.7342 15.3978 15.0707 15.385 15.4241C15.7384 15.4113 16.0741 15.3297 16.3811 15.1939C16.688 15.058 16.9638 14.8661 17.1981 14.6319C17.4323 14.3976 17.6241 14.1211 17.76 13.8149C17.8959 13.5087 17.9775 13.1722 17.9903 12.8188Z" fill="#4D4D4D"/>
<path d="M15.2835 19.8392C15.2699 19.8392 15.2563 19.836 15.2443 19.8312C15.2323 19.8264 15.2219 19.8184 15.2123 19.8096C15.2028 19.8008 15.1964 19.7896 15.1908 19.7777C15.1852 19.7657 15.1828 19.7529 15.1828 19.7385C15.1828 19.3372 15.2643 18.9551 15.4114 18.6073C15.5585 18.2596 15.7719 17.9462 16.0357 17.6824C16.2995 17.4186 16.6129 17.206 16.9606 17.0581C17.3084 16.9102 17.6913 16.8295 18.0918 16.8295C18.1054 16.8295 18.119 16.8327 18.131 16.8375C18.1429 16.8423 18.1533 16.8503 18.1629 16.859C18.1725 16.8678 18.1789 16.879 18.1845 16.891C18.1901 16.903 18.1925 16.9158 18.1925 16.9302C18.1925 17.3315 18.111 17.7136 17.9639 18.0613C17.8168 18.4091 17.6034 18.7224 17.3396 18.9863C17.0757 19.2501 16.7624 19.4627 16.4146 19.6106C16.0669 19.7585 15.684 19.8392 15.2835 19.8392ZM17.9903 17.0325C17.6369 17.0453 17.3012 17.1268 16.9942 17.2627C16.6872 17.3986 16.4114 17.5905 16.1772 17.8247C15.943 18.0589 15.7511 18.3355 15.6152 18.6417C15.4793 18.9479 15.3978 19.2844 15.385 19.6378C15.7384 19.625 16.0741 19.5434 16.3811 19.4075C16.688 19.2716 16.9638 19.0798 17.1981 18.8456C17.4323 18.6113 17.6241 18.3347 17.76 18.0286C17.8959 17.7224 17.9775 17.3859 17.9903 17.0325Z" fill="#4D4D4D"/>
<path d="M15.2835 17.7328C14.8822 17.7328 14.5001 17.6512 14.1523 17.5041C13.8046 17.357 13.4912 17.1436 13.2274 16.8798C12.9636 16.616 12.751 16.3026 12.6031 15.9549C12.4552 15.6072 12.3745 15.2242 12.3745 14.8237C12.3745 14.8102 12.3777 14.7966 12.3825 14.7846C12.3873 14.7726 12.3953 14.7622 12.4041 14.7526C12.4129 14.743 12.424 14.7366 12.436 14.731C12.448 14.7254 12.4608 14.723 12.4752 14.723C12.8765 14.723 13.2586 14.8046 13.6064 14.9517C13.9541 15.0987 14.2675 15.3122 14.5313 15.576C14.7951 15.8398 15.0077 16.1532 15.1556 16.5009C15.3027 16.8486 15.3842 17.2315 15.3842 17.632C15.3842 17.6456 15.381 17.6592 15.3762 17.6712C15.3714 17.6832 15.3634 17.6936 15.3546 17.7032C15.3459 17.7128 15.3347 17.7192 15.3227 17.7248C15.3107 17.7304 15.2971 17.7328 15.2835 17.7328ZM12.5759 14.9253C12.5887 15.2786 12.6703 15.6144 12.8062 15.9213C12.9421 16.2283 13.1339 16.5041 13.3681 16.7383C13.6024 16.9725 13.879 17.1644 14.1851 17.3003C14.4913 17.4362 14.8278 17.5177 15.1812 17.5305C15.1684 17.1772 15.0868 16.8414 14.9509 16.5345C14.8151 16.2283 14.6232 15.9517 14.389 15.7175C14.1547 15.4833 13.8782 15.2914 13.572 15.1555C13.2658 15.0196 12.9293 14.9381 12.5759 14.9253Z" fill="#4D4D4D"/>
<path d="M8.96262 21.5899C8.94903 21.5899 8.93544 21.5867 8.92345 21.5819C8.91146 21.5771 8.90106 21.5691 8.89147 21.5603C8.88188 21.5515 8.87548 21.5403 8.86989 21.5283C8.86429 21.5163 8.86189 21.5035 8.86189 21.4891V19.1397V16.7903V14.4416V12.0922C8.86189 12.0786 8.86509 12.065 8.86989 12.053C8.87468 12.041 8.88268 12.0306 8.89147 12.021C8.90026 12.0114 8.91146 12.005 8.92345 11.9994C8.93544 11.9939 8.94823 11.9915 8.96262 11.9915C8.97701 11.9915 8.9898 11.9947 9.00179 11.9994C9.01378 12.0042 9.02417 12.0122 9.03376 12.021C9.04336 12.0298 9.04975 12.041 9.05535 12.053C9.06094 12.065 9.06334 12.0778 9.06334 12.0922V14.4416V16.7911V19.1405V21.4899C9.06334 21.5035 9.06014 21.5171 9.05535 21.5291C9.05055 21.5411 9.04256 21.5515 9.03376 21.5611C9.02497 21.5707 9.01378 21.5771 9.00179 21.5827C8.9898 21.5883 8.97621 21.5899 8.96262 21.5899Z" fill="#4D4D4D"/>
<path d="M8.96262 15.6255C8.94903 15.6255 8.93544 15.6223 8.92345 15.6175C8.91146 15.6127 8.90106 15.6047 8.89147 15.5959C8.88188 15.5872 8.87548 15.576 8.86989 15.564C8.86429 15.552 8.86189 15.5392 8.86189 15.5248C8.86189 15.1235 8.94343 14.7414 9.09052 14.3937C9.23761 14.0459 9.45105 13.7325 9.71485 13.4687C9.97866 13.2049 10.292 12.9923 10.6398 12.8444C10.9875 12.6965 11.3704 12.6158 11.7709 12.6158C11.7845 12.6158 11.7981 12.619 11.8101 12.6238C11.8221 12.6286 11.8325 12.6366 11.8421 12.6454C11.8517 12.6542 11.858 12.6653 11.8636 12.6773C11.8692 12.6893 11.8716 12.7021 11.8716 12.7165C11.8716 13.1178 11.7901 13.4999 11.643 13.8477C11.4959 14.1954 11.2825 14.5088 11.0187 14.7726C10.7549 15.0364 10.4415 15.249 10.0938 15.3969C9.74603 15.5448 9.36392 15.6255 8.96262 15.6255ZM11.6702 12.8188C11.3169 12.8316 10.9811 12.9132 10.6741 13.0491C10.3672 13.185 10.0914 13.3768 9.85715 13.611C9.62292 13.8453 9.43107 14.1219 9.29517 14.428C9.15927 14.7342 9.07773 15.0707 9.06494 15.4241C9.41828 15.4113 9.75402 15.3297 10.061 15.1939C10.368 15.058 10.6438 14.8661 10.878 14.6319C11.1122 14.3976 11.3041 14.1211 11.44 13.8149C11.5759 13.5087 11.6574 13.1722 11.6702 12.8188Z" fill="#4D4D4D"/>
<path d="M8.96262 19.8392C8.94903 19.8392 8.93544 19.836 8.92345 19.8312C8.91146 19.8264 8.90106 19.8184 8.89147 19.8096C8.88188 19.8008 8.87548 19.7896 8.86989 19.7777C8.86429 19.7657 8.86189 19.7529 8.86189 19.7385C8.86189 19.3372 8.94343 18.9551 9.09052 18.6073C9.23761 18.2596 9.45105 17.9462 9.71485 17.6824C9.97866 17.4186 10.292 17.206 10.6398 17.0581C10.9875 16.9102 11.3704 16.8295 11.7709 16.8295C11.7845 16.8295 11.7981 16.8327 11.8101 16.8375C11.8221 16.8423 11.8325 16.8503 11.8421 16.859C11.8517 16.8678 11.858 16.879 11.8636 16.891C11.8692 16.903 11.8716 16.9158 11.8716 16.9302C11.8716 17.3315 11.7901 17.7136 11.643 18.0613C11.4959 18.4091 11.2825 18.7224 11.0187 18.9863C10.7549 19.2501 10.4415 19.4627 10.0938 19.6106C9.74603 19.7585 9.36392 19.8392 8.96262 19.8392ZM11.6702 17.0325C11.3169 17.0453 10.9811 17.1268 10.6741 17.2627C10.3672 17.3986 10.0914 17.5905 9.85715 17.8247C9.62292 18.0589 9.43107 18.3355 9.29517 18.6417C9.15927 18.9479 9.07773 19.2844 9.06494 19.6378C9.41828 19.625 9.75402 19.5434 10.061 19.4075C10.368 19.2716 10.6438 19.0798 10.878 18.8456C11.1122 18.6113 11.3041 18.3347 11.44 18.0286C11.5759 17.7224 11.6574 17.3859 11.6702 17.0325Z" fill="#4D4D4D"/>
<path d="M8.96262 17.7328C8.56132 17.7328 8.17921 17.6512 7.83147 17.5041C7.48373 17.357 7.17037 17.1436 6.90656 16.8798C6.64276 16.616 6.43012 16.3026 6.28223 15.9549C6.13434 15.6072 6.0536 15.2242 6.0536 14.8237C6.0536 14.8102 6.0568 14.7966 6.0616 14.7846C6.06639 14.7726 6.07439 14.7622 6.08318 14.7526C6.09198 14.743 6.10317 14.7366 6.11516 14.731C6.12715 14.7254 6.13994 14.723 6.15433 14.723C6.55563 14.723 6.93774 14.8046 7.28548 14.9517C7.63322 15.0987 7.94658 15.3122 8.21039 15.576C8.47419 15.8398 8.68683 16.1532 8.83472 16.5009C8.98181 16.8486 9.06335 17.2315 9.06335 17.632C9.06335 17.6456 9.06015 17.6592 9.05535 17.6712C9.05056 17.6832 9.04256 17.6936 9.03377 17.7032C9.02498 17.7128 9.01378 17.7192 9.00179 17.7248C8.9898 17.7304 8.97621 17.7328 8.96262 17.7328ZM6.25585 14.9253C6.26864 15.2786 6.35018 15.6144 6.48608 15.9213C6.62198 16.2283 6.81383 16.5041 7.04806 16.7383C7.28228 16.9725 7.55888 17.1644 7.86505 17.3003C8.17122 17.4362 8.50776 17.5177 8.8611 17.5305C8.84831 17.1772 8.76677 16.8414 8.63087 16.5345C8.49417 16.2283 8.30312 15.9517 8.06889 15.7175C7.83467 15.4833 7.55808 15.2914 7.25191 15.1555C6.94573 15.0196 6.60839 14.9381 6.25585 14.9253Z" fill="#4D4D4D"/>
<path d="M21.6035 21.5899C21.59 21.5899 21.5764 21.5867 21.5644 21.5819C21.5524 21.5771 21.542 21.5691 21.5324 21.5603C21.5228 21.5515 21.5164 21.5403 21.5108 21.5283C21.5052 21.5163 21.5028 21.5035 21.5028 21.4891V19.1397V16.7903V14.4416V12.0922C21.5028 12.0786 21.506 12.065 21.5108 12.053C21.5156 12.041 21.5236 12.0306 21.5324 12.021C21.5412 12.0114 21.5524 12.005 21.5644 11.9994C21.5764 11.9939 21.5892 11.9915 21.6035 11.9915C21.6179 11.9915 21.6307 11.9947 21.6427 11.9994C21.6547 12.0042 21.6651 12.0122 21.6747 12.021C21.6843 12.0298 21.6907 12.041 21.6963 12.053C21.7019 12.065 21.7043 12.0778 21.7043 12.0922V14.4416V16.7911V19.1405V21.4899C21.7043 21.5035 21.7011 21.5171 21.6963 21.5291C21.6915 21.5411 21.6835 21.5515 21.6747 21.5611C21.6659 21.5707 21.6547 21.5771 21.6427 21.5827C21.6307 21.5883 21.6171 21.5899 21.6035 21.5899Z" fill="#4D4D4D"/>
<path d="M21.6035 15.6255C21.59 15.6255 21.5764 15.6223 21.5644 15.6175C21.5524 15.6127 21.542 15.6047 21.5324 15.5959C21.5228 15.5872 21.5164 15.576 21.5108 15.564C21.5052 15.552 21.5028 15.5392 21.5028 15.5248C21.5028 15.1235 21.5844 14.7414 21.7315 14.3937C21.8785 14.0459 22.092 13.7325 22.3558 13.4687C22.6196 13.2049 22.9329 12.9923 23.2807 12.8444C23.6284 12.6965 24.0105 12.6158 24.4118 12.6158C24.4254 12.6158 24.439 12.619 24.451 12.6238C24.463 12.6286 24.4734 12.6366 24.483 12.6454C24.4926 12.6542 24.499 12.6653 24.5046 12.6773C24.5102 12.6893 24.5126 12.7021 24.5126 12.7165C24.5126 13.1178 24.431 13.4999 24.2839 13.8477C24.1368 14.1954 23.9234 14.5088 23.6596 14.7726C23.3958 15.0364 23.0824 15.249 22.7347 15.3969C22.387 15.5448 22.0048 15.6255 21.6035 15.6255ZM24.3111 12.8188C23.9578 12.8316 23.622 12.9132 23.3151 13.0491C23.0081 13.185 22.7323 13.3768 22.4981 13.611C22.2639 13.8453 22.0728 14.1219 21.9361 14.428C21.7994 14.7342 21.7187 15.0707 21.7059 15.4241C22.0592 15.4113 22.395 15.3297 22.7019 15.1939C23.0089 15.058 23.2847 14.8661 23.5189 14.6319C23.7531 14.3976 23.9442 14.1211 24.0809 13.8149C24.2176 13.5087 24.2975 13.1722 24.3111 12.8188Z" fill="#4D4D4D"/>
<path d="M21.6035 19.8392C21.59 19.8392 21.5764 19.836 21.5644 19.8312C21.5524 19.8264 21.542 19.8184 21.5324 19.8096C21.5228 19.8008 21.5164 19.7896 21.5108 19.7777C21.5052 19.7657 21.5028 19.7529 21.5028 19.7385C21.5028 19.3372 21.5844 18.9551 21.7315 18.6073C21.8785 18.2596 22.092 17.9462 22.3558 17.6824C22.6196 17.4186 22.9329 17.206 23.2807 17.0581C23.6284 16.9102 24.0105 16.8295 24.4118 16.8295C24.4254 16.8295 24.439 16.8327 24.451 16.8375C24.463 16.8423 24.4734 16.8503 24.483 16.859C24.4926 16.8678 24.499 16.879 24.5046 16.891C24.5102 16.903 24.5126 16.9158 24.5126 16.9302C24.5126 17.3315 24.431 17.7136 24.2839 18.0613C24.1368 18.4091 23.9234 18.7224 23.6596 18.9863C23.3958 19.2501 23.0824 19.4627 22.7347 19.6106C22.387 19.7585 22.0048 19.8392 21.6035 19.8392ZM24.3111 17.0325C23.9578 17.0453 23.622 17.1268 23.3151 17.2627C23.0081 17.3986 22.7323 17.5905 22.4981 17.8247C22.2639 18.0589 22.0728 18.3355 21.9361 18.6417C21.7994 18.9479 21.7187 19.2844 21.7059 19.6378C22.0592 19.625 22.395 19.5434 22.7019 19.4075C23.0089 19.2716 23.2847 19.0798 23.5189 18.8456C23.7531 18.6113 23.9442 18.3347 24.0809 18.0286C24.2176 17.7224 24.2975 17.3859 24.3111 17.0325Z" fill="#4D4D4D"/>
<path d="M21.6035 17.7328C21.2022 17.7328 20.8201 17.6512 20.4724 17.5041C20.1246 17.357 19.8113 17.1436 19.5475 16.8798C19.2837 16.616 19.071 16.3026 18.9231 15.9549C18.7753 15.6072 18.6945 15.2242 18.6945 14.8237C18.6945 14.8102 18.6977 14.7966 18.7025 14.7846C18.7073 14.7726 18.7153 14.7622 18.7241 14.7526C18.7329 14.743 18.7441 14.7366 18.7561 14.731C18.7681 14.7254 18.7809 14.723 18.7952 14.723C19.1965 14.723 19.5787 14.8046 19.9264 14.9517C20.2741 15.0987 20.5875 15.3122 20.8513 15.576C21.1151 15.8398 21.3277 16.1532 21.4756 16.5009C21.6227 16.8486 21.7043 17.2315 21.7043 17.632C21.7043 17.6456 21.7011 17.6592 21.6963 17.6712C21.6915 17.6832 21.6835 17.6936 21.6747 17.7032C21.6659 17.7128 21.6547 17.7192 21.6427 17.7248C21.6307 17.7304 21.6171 17.7328 21.6035 17.7328ZM18.8968 14.9253C18.9096 15.2786 18.9911 15.6144 19.127 15.9213C19.2629 16.2283 19.4547 16.5041 19.689 16.7383C19.9232 16.9725 20.1998 17.1644 20.506 17.3003C20.8121 17.4362 21.1487 17.5177 21.502 17.5305C21.4892 17.1772 21.4077 16.8414 21.2718 16.5345C21.1351 16.2283 20.944 15.9517 20.7098 15.7175C20.4756 15.4833 20.199 15.2914 19.8928 15.1555C19.5867 15.0196 19.2493 14.9381 18.8968 14.9253Z" fill="#4D4D4D"/>
</svg>
