<svg width="30" height="30" viewBox="0 0 30 30" fill="none" xmlns="http://www.w3.org/2000/svg">
<path d="M30 30H22.5H15H7.5H0V22.5003V15.0005V7.49975V0H7.5H15H22.5H30V7.49975V14.9995V22.4992V30ZM0.252287 29.7477H7.62614H15H22.3739H29.7477V22.3741V15.0005V7.62589V0.252279H22.3739H15H7.62614H0.252287V7.62589V14.9995V22.3731V29.7477Z" fill="#4D4D4D"/>
<path d="M20.244 7C19.221 7 18.246 7.208 17.358 7.584C16.47 7.96 15.671 8.504 14.999 9.176C14.327 9.848 13.783 10.648 13.407 11.535C13.031 12.422 12.823 13.398 12.823 14.421C12.823 15.444 13.031 16.42 13.407 17.307C13.783 18.194 14.327 18.994 14.999 19.666C15.671 20.338 16.471 20.882 17.358 21.258C18.246 21.634 19.221 21.842 20.244 21.842C21.267 21.842 22.243 21.634 23.13 21.258C24.017 20.882 24.817 20.338 25.489 19.666C26.161 18.994 26.705 18.194 27.081 17.307C27.457 16.42 27.665 15.444 27.665 14.421C27.665 13.398 27.457 12.423 27.081 11.535C26.705 10.647 26.161 9.848 25.489 9.176C24.817 8.504 24.017 7.96 23.13 7.584C22.243 7.208 21.267 7 20.244 7ZM20.244 21.645C19.248 21.645 18.299 21.442 17.435 21.076C16.571 20.71 15.793 20.18 15.139 19.526C14.485 18.872 13.956 18.094 13.59 17.23C13.224 16.366 13.021 15.417 13.021 14.421C13.021 13.425 13.224 12.476 13.59 11.612C13.956 10.748 14.485 9.97 15.139 9.316C15.793 8.662 16.571 8.133 17.435 7.767C18.299 7.401 19.248 7.198 20.244 7.198C21.24 7.198 22.189 7.401 23.053 7.767C23.917 8.133 24.695 8.662 25.349 9.316C26.003 9.97 26.532 10.748 26.899 11.612C27.266 12.476 27.468 13.425 27.468 14.421C27.468 15.417 27.265 16.366 26.899 17.23C26.533 18.094 26.003 18.872 25.349 19.526C24.695 20.18 23.917 20.709 23.053 21.076C22.189 21.443 21.24 21.645 20.244 21.645Z" fill="#4D4D4D"/>
<path d="M9.311 14.921H7.508H5.705H3.902H2.1C2.086 14.921 2.073 14.924 2.061 14.929C2.049 14.934 2.038 14.941 2.029 14.95C2.02 14.959 2.013 14.97 2.008 14.982C2.003 14.994 2 15.007 2 15.021C2 15.035 2.003 15.048 2.008 15.06C2.013 15.072 2.02 15.083 2.029 15.092C2.038 15.101 2.049 15.108 2.061 15.113C2.073 15.118 2.086 15.121 2.1 15.121H3.903H5.706H7.509H9.312C9.326 15.121 9.339 15.118 9.351 15.113C9.363 15.108 9.374 15.101 9.383 15.092C9.392 15.083 9.399 15.072 9.404 15.06C9.409 15.048 9.412 15.035 9.412 15.021C9.412 15.007 9.409 14.994 9.404 14.982C9.399 14.97 9.392 14.959 9.383 14.95C9.374 14.941 9.363 14.934 9.351 14.929C9.338 14.924 9.325 14.921 9.311 14.921Z" fill="#4D4D4D"/>
<path d="M11.466 11.605H9.663H7.86H6.058H4.255C4.241 11.605 4.228 11.608 4.216 11.613C4.204 11.618 4.193 11.625 4.184 11.634C4.175 11.643 4.168 11.654 4.163 11.666C4.158 11.678 4.155 11.691 4.155 11.705C4.155 11.719 4.158 11.732 4.163 11.744C4.168 11.756 4.175 11.767 4.184 11.776C4.193 11.785 4.204 11.792 4.216 11.797C4.228 11.802 4.241 11.805 4.255 11.805H6.058H7.861H9.664H11.467C11.481 11.805 11.494 11.802 11.506 11.797C11.518 11.792 11.529 11.785 11.538 11.776C11.547 11.767 11.554 11.756 11.559 11.744C11.564 11.732 11.567 11.719 11.567 11.705C11.567 11.691 11.564 11.678 11.559 11.666C11.554 11.654 11.547 11.643 11.538 11.634C11.529 11.625 11.518 11.618 11.506 11.613C11.494 11.608 11.48 11.605 11.466 11.605Z" fill="#4D4D4D"/>
<path d="M11.466 18.236H9.663H7.86H6.058H4.255C4.241 18.236 4.228 18.239 4.216 18.244C4.204 18.249 4.193 18.256 4.184 18.265C4.175 18.274 4.168 18.285 4.163 18.297C4.158 18.309 4.155 18.322 4.155 18.336C4.155 18.35 4.158 18.363 4.163 18.375C4.168 18.387 4.175 18.398 4.184 18.407C4.193 18.416 4.204 18.423 4.216 18.428C4.228 18.433 4.241 18.436 4.255 18.436H6.058H7.861H9.664H11.467C11.481 18.436 11.494 18.433 11.506 18.428C11.518 18.423 11.529 18.416 11.538 18.407C11.547 18.398 11.554 18.387 11.559 18.375C11.564 18.363 11.567 18.35 11.567 18.336C11.567 18.322 11.564 18.309 11.559 18.297C11.554 18.285 11.547 18.274 11.538 18.265C11.529 18.256 11.518 18.249 11.506 18.244C11.493 18.239 11.48 18.236 11.466 18.236Z" fill="#4D4D4D"/>
<path d="M20.5 21.5483C20.4837 21.5483 20.4673 21.5444 20.4529 21.5386C20.4385 21.5329 20.426 21.5232 20.4144 21.5127C20.4029 21.5021 20.3952 21.4886 20.3885 21.4742C20.3817 21.4598 20.3788 21.4444 20.3788 21.4271V18.6004V15.7736V12.9479V10.1212C20.3788 10.1048 20.3827 10.0885 20.3885 10.0741C20.3942 10.0596 20.4039 10.0471 20.4144 10.0356C20.425 10.024 20.4385 10.0164 20.4529 10.0096C20.4673 10.0029 20.4827 10 20.5 10C20.5173 10 20.5327 10.0038 20.5472 10.0096C20.5616 10.0154 20.5741 10.025 20.5856 10.0356C20.5972 10.0462 20.6049 10.0596 20.6116 10.0741C20.6183 10.0885 20.6212 10.1039 20.6212 10.1212V12.9479V15.7746V18.6013V21.428C20.6212 21.4444 20.6174 21.4607 20.6116 21.4752C20.6058 21.4896 20.5962 21.5021 20.5856 21.5136C20.5751 21.5252 20.5616 21.5329 20.5472 21.5396C20.5327 21.5463 20.5164 21.5483 20.5 21.5483Z" fill="#4D4D4D"/>
<path d="M20.5 14.3723C20.4837 14.3723 20.4673 14.3685 20.4529 14.3627C20.4385 14.3569 20.426 14.3473 20.4144 14.3367C20.4029 14.3261 20.3952 14.3127 20.3885 14.2983C20.3817 14.2838 20.3788 14.2684 20.3788 14.2511C20.3788 13.7683 20.4769 13.3086 20.6539 12.8902C20.8309 12.4718 21.0877 12.0948 21.4051 11.7774C21.7225 11.46 22.0995 11.2042 22.5179 11.0262C22.9363 10.8483 23.397 10.7512 23.8788 10.7512C23.8952 10.7512 23.9115 10.755 23.9259 10.7608C23.9404 10.7665 23.9529 10.7762 23.9644 10.7867C23.976 10.7973 23.9836 10.8108 23.9904 10.8252C23.9971 10.8396 24 10.855 24 10.8723C24 11.3552 23.9019 11.8149 23.7249 12.2333C23.548 12.6517 23.2912 13.0287 22.9738 13.3461C22.6564 13.6635 22.2793 13.9193 21.861 14.0972C21.4426 14.2752 20.9829 14.3723 20.5 14.3723ZM23.7576 10.9955C23.3325 11.0108 22.9286 11.1089 22.5592 11.2725C22.1899 11.436 21.8581 11.6668 21.5763 11.9486C21.2945 12.2304 21.0636 12.5632 20.9001 12.9315C20.7366 13.2999 20.6385 13.7048 20.6231 14.1299C21.0483 14.1146 21.4522 14.0164 21.8215 13.8529C22.1909 13.6894 22.5227 13.4586 22.8045 13.1768C23.0863 12.895 23.3171 12.5622 23.4806 12.1938C23.6441 11.8255 23.7422 11.4206 23.7576 10.9955Z" fill="#4D4D4D"/>
<path d="M20.5 19.4419C20.4837 19.4419 20.4673 19.438 20.4529 19.4323C20.4385 19.4265 20.426 19.4169 20.4144 19.4063C20.4029 19.3957 20.3952 19.3823 20.3885 19.3678C20.3817 19.3534 20.3788 19.338 20.3788 19.3207C20.3788 18.8379 20.4769 18.3781 20.6539 17.9598C20.8309 17.5414 21.0877 17.1644 21.4051 16.847C21.7225 16.5296 22.0995 16.2737 22.5179 16.0958C22.9363 15.9179 23.397 15.8207 23.8788 15.8207C23.8952 15.8207 23.9115 15.8246 23.9259 15.8304C23.9404 15.8361 23.9529 15.8457 23.9644 15.8563C23.976 15.8669 23.9836 15.8804 23.9904 15.8948C23.9971 15.9092 24 15.9246 24 15.9419C24 16.4247 23.9019 16.8845 23.7249 17.3029C23.548 17.7212 23.2912 18.0983 22.9738 18.4157C22.6564 18.7331 22.2793 18.9889 21.861 19.1668C21.4426 19.3448 20.9829 19.4419 20.5 19.4419ZM23.7576 16.065C23.3325 16.0804 22.9286 16.1785 22.5592 16.342C22.1899 16.5055 21.8581 16.7364 21.5763 17.0182C21.2945 17.3 21.0636 17.6328 20.9001 18.0011C20.7366 18.3695 20.6385 18.7744 20.6231 19.1995C21.0483 19.1841 21.4522 19.086 21.8215 18.9225C22.1909 18.759 22.5227 18.5282 22.8045 18.2464C23.0863 17.9646 23.3171 17.6318 23.4806 17.2634C23.6441 16.8951 23.7422 16.4901 23.7576 16.065Z" fill="#4D4D4D"/>
<path d="M20.5 16.9076C20.0171 16.9076 19.5574 16.8095 19.139 16.6325C18.7206 16.4555 18.3436 16.1987 18.0262 15.8814C17.7088 15.564 17.453 15.1869 17.2751 14.7686C17.0971 14.3502 17 13.8895 17 13.4076C17 13.3913 17.0038 13.3749 17.0096 13.3605C17.0154 13.3461 17.025 13.3336 17.0356 13.322C17.0462 13.3105 17.0596 13.3028 17.0741 13.2961C17.0885 13.2893 17.1039 13.2864 17.1212 13.2864C17.604 13.2864 18.0637 13.3845 18.4821 13.5615C18.9005 13.7385 19.2775 13.9953 19.5949 14.3127C19.9123 14.6301 20.1681 15.0071 20.3461 15.4255C20.523 15.8438 20.6212 16.3045 20.6212 16.7864C20.6212 16.8028 20.6173 16.8191 20.6115 16.8335C20.6058 16.848 20.5961 16.8605 20.5856 16.872C20.575 16.8835 20.5615 16.8912 20.5471 16.898C20.5327 16.9047 20.5163 16.9076 20.5 16.9076ZM17.2433 13.5298C17.2587 13.9549 17.3568 14.3588 17.5203 14.7282C17.6838 15.0975 17.9147 15.4293 18.1965 15.7111C18.4783 15.9929 18.8111 16.2238 19.1794 16.3873C19.5478 16.5508 19.9527 16.6489 20.3778 16.6643C20.3624 16.2391 20.2643 15.8352 20.1008 15.4659C19.9364 15.0975 19.7065 14.7647 19.4247 14.4829C19.1429 14.2011 18.8101 13.9703 18.4417 13.8068C18.0734 13.6433 17.6675 13.5452 17.2433 13.5298Z" fill="#4D4D4D"/>
</svg>
