<svg width="132" height="48" viewBox="0 0 132 48" fill="none" xmlns="http://www.w3.org/2000/svg">
<path d="M17.867 25.339H16.9732H16.0795H15.1858H14.292V23.2335V21.128V19.0225V16.917H13.1128H11.9335H10.7542H9.57495V19.0225V21.128V23.2335V25.339H8.68121H7.78748H6.89374H6V20.536V15.7342V10.9313V6.1283H6.89374H7.78748H8.68121H9.57495V8.03648V9.94467V11.8529V13.761H10.7542H11.9335H13.1128H14.292V11.854V9.94583V8.03765V6.1283H15.1858H16.0795H16.9732H17.867V10.9313V15.7342V20.5372V25.339Z" fill="white"/>
<path d="M31.887 17.994C31.887 18.5941 31.8557 19.1605 31.7919 19.6944C31.728 20.2284 31.6328 20.7286 31.5063 21.1952C31.3798 21.6618 31.2208 22.0959 31.0304 22.4964C30.8401 22.8968 30.6172 23.2636 30.3642 23.5967C30.11 23.931 29.8326 24.2235 29.532 24.4742C29.2314 24.7249 28.9064 24.9338 28.5582 25.101C28.2099 25.2681 27.8385 25.3935 27.4427 25.477C27.0469 25.5606 26.6279 25.6024 26.1857 25.6024C25.906 25.6024 25.6332 25.5838 25.3697 25.5455C25.1062 25.5072 24.8497 25.4504 24.6025 25.3737C24.3553 25.2971 24.1162 25.2008 23.884 25.0859C23.653 24.971 23.4302 24.8363 23.2155 24.6831C23.0007 24.5299 22.7988 24.3593 22.6084 24.1724C22.4181 23.9856 22.2405 23.7813 22.0757 23.5607C21.9097 23.3402 21.7576 23.1034 21.616 22.8492C21.4756 22.595 21.3467 22.3246 21.2307 22.0367C21.1146 21.7489 21.0136 21.4483 20.9266 21.136C20.8395 20.8238 20.7675 20.4988 20.7083 20.1622C20.6503 19.8256 20.6062 19.4762 20.5772 19.1153C20.5482 18.7543 20.5331 18.3805 20.5331 17.9952C20.5331 17.4021 20.5644 16.8403 20.6271 16.3122C20.6898 15.7841 20.785 15.2873 20.9103 14.823C21.0357 14.3587 21.1935 13.9281 21.3827 13.5288C21.5719 13.1295 21.7924 12.7639 22.0443 12.4296C22.2962 12.0965 22.5724 11.804 22.8731 11.5533C23.1737 11.3026 23.4987 11.0948 23.848 10.9277C24.1974 10.7606 24.5712 10.6352 24.9693 10.5516C25.3674 10.4681 25.7899 10.4263 26.2368 10.4263C26.6685 10.4263 27.0771 10.4692 27.4648 10.5539C27.8524 10.6387 28.2169 10.7664 28.5605 10.937C28.904 11.1076 29.2244 11.32 29.5239 11.5754C29.8233 11.8307 30.0996 12.129 30.3549 12.4691C30.6103 12.8092 30.8331 13.1794 31.0246 13.5799C31.2162 13.9803 31.3752 14.4109 31.5028 14.8706C31.6305 15.3314 31.7257 15.8212 31.7895 16.3412C31.8545 16.8623 31.887 17.4137 31.887 17.994ZM24.108 17.994C24.108 18.3747 24.1185 18.7334 24.1394 19.0677C24.1603 19.402 24.1916 19.713 24.2334 20.002C24.2752 20.2899 24.3274 20.5545 24.3889 20.796C24.4516 21.0374 24.5236 21.2556 24.6071 21.4506C24.6907 21.6456 24.7859 21.8162 24.8938 21.9625C25.0018 22.1087 25.1236 22.2306 25.2571 22.3281C25.3906 22.4256 25.5369 22.4987 25.6959 22.5474C25.8549 22.5962 26.0255 22.6206 26.2101 22.6206C26.5606 22.6206 26.867 22.5242 27.1305 22.3316C27.3928 22.1389 27.6122 21.8499 27.7874 21.4645C27.9627 21.0792 28.0939 20.5975 28.1809 20.0194C28.268 19.4414 28.3121 18.767 28.3121 17.9952C28.3121 17.6122 28.3016 17.2523 28.2807 16.9181C28.2599 16.5838 28.2285 16.2727 28.1856 15.986C28.1426 15.6993 28.0904 15.437 28.0277 15.1991C27.965 14.9611 27.8908 14.7476 27.806 14.5584C27.7224 14.3692 27.6261 14.2032 27.517 14.0616C27.4079 13.92 27.2872 13.8016 27.1549 13.7064C27.0225 13.6112 26.8763 13.5404 26.7196 13.4928C26.5629 13.4452 26.3923 13.422 26.2112 13.422C26.0278 13.422 25.856 13.4452 25.697 13.4928C25.538 13.5404 25.3918 13.6112 25.2583 13.7064C25.1248 13.8016 25.0041 13.92 24.895 14.0616C24.787 14.2032 24.6907 14.3692 24.6083 14.5584C24.5247 14.7476 24.4528 14.9611 24.3901 15.1991C24.3274 15.437 24.2752 15.6993 24.2346 15.986C24.1939 16.2727 24.1614 16.5826 24.1405 16.9181C24.1196 17.2535 24.108 17.6098 24.108 17.994Z" fill="white"/>
<path d="M40.5854 10.4252C40.6933 10.4252 40.8001 10.4298 40.9057 10.4379C41.0125 10.4461 41.1181 10.4588 41.2226 10.4751C41.3282 10.4913 41.4327 10.5122 41.536 10.5366C41.6405 10.561 41.7438 10.59 41.8459 10.6225L41.7438 11.4698L41.6416 12.3171L41.5395 13.1644L41.4373 14.0117C41.3758 13.9897 41.3097 13.9699 41.2388 13.9537C41.168 13.9374 41.0926 13.9235 41.0125 13.9131C40.9324 13.9026 40.8477 13.8945 40.7595 13.8887C40.6701 13.8829 40.5761 13.8806 40.4774 13.8806C40.265 13.8806 40.0642 13.9015 39.8773 13.9432C39.6893 13.985 39.5141 14.0477 39.3516 14.1313C39.1891 14.2149 39.0382 14.3193 38.8989 14.4458C38.7608 14.5712 38.6342 14.7186 38.5205 14.8869C38.4067 15.054 38.3069 15.2397 38.221 15.4452C38.1351 15.6506 38.0643 15.8758 38.0075 16.1184C37.9506 16.3621 37.9076 16.6245 37.8798 16.9065C37.8519 17.1886 37.8368 17.4892 37.8368 17.8084V19.691V21.5737V23.4563V25.339H36.9652H36.0912H35.2171H34.3431V21.6793V18.0196V14.3599V10.7014H35.0628H35.7824H36.502H37.2217L37.3203 11.2725L37.419 11.8435L37.5177 12.4146L37.6163 12.9857H37.6453H37.6743H37.7034H37.7324C37.8287 12.7559 37.9274 12.5423 38.0272 12.345C38.1282 12.1476 38.2303 11.9677 38.3359 11.8029C38.4416 11.6381 38.5483 11.4907 38.6575 11.3595C38.7666 11.2284 38.8792 11.1135 38.9929 11.0148C39.1066 10.9161 39.225 10.8303 39.3492 10.756C39.4723 10.6817 39.5999 10.6202 39.7323 10.5714C39.8646 10.5227 40.0015 10.4855 40.1431 10.46C40.2882 10.4379 40.4345 10.4252 40.5854 10.4252Z" fill="white"/>
<path d="M48.4955 22.6449C48.6185 22.6449 48.7427 22.6368 48.8704 22.6217C48.9981 22.6066 49.1281 22.5834 49.2604 22.5532C49.3927 22.5231 49.5285 22.4848 49.6655 22.4383C49.8024 22.3919 49.9429 22.3385 50.0845 22.277V22.9606V23.6443V24.328V25.0116C49.9417 25.1103 49.7827 25.1962 49.604 25.2704C49.4252 25.3447 49.2302 25.4062 49.0167 25.455C48.8031 25.5037 48.5721 25.5409 48.3226 25.5664C48.073 25.5908 47.806 25.6036 47.5217 25.6036C47.2036 25.6036 46.9065 25.5803 46.6303 25.5328C46.354 25.4852 46.0975 25.4144 45.863 25.3192C45.6274 25.224 45.4127 25.1056 45.2188 24.964C45.025 24.8212 44.8509 24.6564 44.6977 24.4661C44.5445 24.2769 44.4098 24.0645 44.2949 23.8277C44.18 23.5909 44.0837 23.3309 44.0071 23.0465C43.9305 22.7622 43.8736 22.4546 43.8353 22.1226C43.797 21.7907 43.7784 21.4355 43.7784 21.0571V19.1617V17.2663V15.3708V13.4743H43.4232H43.0681H42.7129H42.3577V13.0831V12.6919V12.3008V11.9096L42.8139 11.5939L43.27 11.2782L43.7262 10.9625L44.1823 10.6468L44.4052 9.87145L44.6281 9.0961L44.8509 8.32076L45.0738 7.54541H45.6321H46.1904H46.7487H47.3069V8.33352V9.12164V9.90975V10.6979H47.9709H48.6348H49.2987H49.9626V11.3908V12.0837V12.7767V13.4696H49.3033H48.6394H47.9755H47.3116V15.3941V17.3185V19.2429V21.1674C47.3116 21.4123 47.336 21.627 47.3859 21.8116C47.4346 21.9961 47.5089 22.1493 47.6076 22.2712C47.7062 22.3942 47.8293 22.4859 47.9767 22.5474C48.1241 22.609 48.2982 22.6449 48.4955 22.6449Z" fill="white"/>
<path d="M52.0171 6.87801C52.0171 6.73292 52.0275 6.59596 52.0484 6.46712C52.0693 6.33712 52.1007 6.21525 52.1436 6.1015C52.1854 5.98659 52.2388 5.87981 52.3015 5.78115C52.3653 5.68249 52.4384 5.5908 52.5232 5.50606C52.6067 5.42133 52.6996 5.34821 52.8006 5.28437C52.9015 5.22053 53.0106 5.1683 53.1279 5.12652C53.2451 5.08473 53.3716 5.05223 53.5063 5.03134C53.6409 5.01045 53.7837 5 53.9346 5C54.0773 5 54.212 5.01045 54.3396 5.03134C54.4673 5.05223 54.5892 5.08357 54.7029 5.12652C54.8167 5.1683 54.9235 5.22169 55.0233 5.28437C55.1231 5.34821 55.216 5.42133 55.3007 5.50606C55.3866 5.58964 55.4609 5.68133 55.5247 5.78115C55.5886 5.87981 55.642 5.98775 55.6849 6.1015C55.7278 6.21641 55.7592 6.33829 55.7812 6.46712C55.8021 6.59712 55.8137 6.73408 55.8137 6.87801C55.8137 7.02658 55.8033 7.16702 55.7812 7.29934C55.7592 7.43166 55.7267 7.55586 55.6826 7.67077C55.6385 7.78684 55.5839 7.89362 55.5189 7.99228C55.4528 8.09094 55.3761 8.18264 55.2891 8.26505C55.2009 8.34629 55.1069 8.41826 55.007 8.47977C54.9072 8.54129 54.8004 8.59236 54.6879 8.63299C54.5753 8.67361 54.4557 8.70495 54.3304 8.72584C54.205 8.74674 54.0738 8.75718 53.9357 8.75718C53.7906 8.75718 53.6537 8.74674 53.5237 8.72584C53.3937 8.70495 53.2706 8.67477 53.1546 8.63299C53.0385 8.59236 52.9294 8.54013 52.8273 8.47977C52.7251 8.41826 52.6311 8.34629 52.5429 8.26505C52.4547 8.18264 52.3781 8.0921 52.3131 7.99228C52.2469 7.89362 52.1924 7.78568 52.1494 7.67077C52.1053 7.5547 52.0728 7.43166 52.0507 7.29934C52.0275 7.16702 52.0171 7.02658 52.0171 6.87801ZM55.6559 25.3389H54.7819H53.9079H53.0339H52.1599V21.6792V18.0196V14.3599V10.7014H53.0339H53.9079H54.7819H55.6559V14.361V18.0207V21.6804V25.3389Z" fill="white"/>
<path d="M59.7786 7.60571H60.9892H62.1998H63.4105H64.6211C64.8683 7.60571 65.1086 7.61152 65.3419 7.62196C65.5752 7.63241 65.8027 7.64866 66.0232 7.66955C66.2437 7.69044 66.4584 7.71714 66.6662 7.74964C66.874 7.78214 67.0759 7.81928 67.2709 7.86107C67.4659 7.90401 67.654 7.95392 67.835 8.00964C68.0161 8.06651 68.189 8.12919 68.355 8.19999C68.521 8.27079 68.68 8.34856 68.8309 8.43213C68.9818 8.51686 69.1269 8.60856 69.2639 8.70722C69.4008 8.80588 69.5285 8.91266 69.6492 9.02525C69.7699 9.13784 69.8825 9.25971 69.987 9.38739C70.0914 9.51506 70.1878 9.65086 70.276 9.79247C70.3642 9.93407 70.4443 10.085 70.5162 10.2417C70.5871 10.3984 70.6497 10.5643 70.7043 10.7384C70.7577 10.9137 70.8029 11.0971 70.8389 11.2898C70.8749 11.4824 70.9016 11.6844 70.9202 11.8945C70.9387 12.1057 70.9469 12.3251 70.9469 12.5538C70.9469 12.989 70.9121 13.3964 70.8424 13.776C70.7728 14.1555 70.6683 14.5072 70.5302 14.8311C70.3909 15.1549 70.2168 15.4509 70.009 15.7202C69.8013 15.9894 69.5575 16.2297 69.2789 16.4421C69.0004 16.6557 68.6951 16.8414 68.362 17.0016C68.0289 17.1617 67.6691 17.2941 67.2802 17.4009C66.8925 17.5076 66.477 17.5877 66.0348 17.64C65.5926 17.6922 65.1213 17.72 64.6234 17.72H63.7192H62.8173H61.9155H61.0148V19.6236V21.5271V23.4307V25.3342H60.706H60.3973H60.0885H59.7798V20.9015V16.4688V12.0396V7.60571H59.7786ZM64.3239 16.6743C64.7778 16.6743 65.2014 16.6545 65.596 16.6139C65.9907 16.5733 66.3563 16.5129 66.6929 16.4328C67.0295 16.3527 67.3359 16.2518 67.6145 16.1299C67.8931 16.0092 68.1415 15.8676 68.362 15.7062C68.5814 15.5449 68.774 15.358 68.9389 15.1468C69.1037 14.9344 69.2406 14.6976 69.3509 14.4353C69.4612 14.1729 69.5436 13.8851 69.5981 13.5717C69.6527 13.2583 69.6805 12.9206 69.6805 12.5561C69.6805 12.3681 69.6736 12.1882 69.6597 12.0164C69.6457 11.8446 69.6248 11.6809 69.597 11.5242C69.5691 11.3687 69.5343 11.2213 69.4925 11.0808C69.4507 10.9404 69.402 10.8092 69.3463 10.6862C69.2894 10.5632 69.2267 10.4448 69.1571 10.3334C69.0874 10.2219 69.012 10.1163 68.9284 10.0165C68.846 9.91666 68.7566 9.82265 68.6603 9.73443C68.564 9.64622 68.4607 9.56381 68.3515 9.48721C68.2413 9.41176 68.124 9.34096 67.9987 9.27596C67.8745 9.21096 67.7422 9.15176 67.6029 9.09721C67.4636 9.04382 67.3174 8.99507 67.1642 8.95212C67.0109 8.90918 66.8496 8.87204 66.6825 8.8407C66.5142 8.80936 66.3389 8.7815 66.1567 8.75829C65.9744 8.73507 65.7852 8.71534 65.5891 8.69909C65.3929 8.684 65.1898 8.6724 64.9797 8.66427C64.7696 8.65615 64.5526 8.65266 64.3274 8.65266H63.4998H62.6722H61.8447H61.0148V10.6572V12.6617V14.6662V16.6708H61.8424H62.6699H63.4975H64.3239V16.6743Z" fill="white"/>
<path d="M72.9363 18.9074C72.9363 18.6381 72.9456 18.3758 72.9654 18.1205C72.9851 17.8651 73.0141 17.6179 73.0536 17.3765C73.093 17.135 73.1418 16.9017 73.201 16.6742C73.2602 16.4467 73.3287 16.2274 73.4064 16.0138C73.4854 15.8002 73.5701 15.5959 73.6618 15.4009C73.7535 15.2059 73.8521 15.0179 73.9578 14.8403C74.0634 14.6616 74.176 14.4921 74.2944 14.3319C74.4128 14.1718 74.5393 14.0186 74.6716 13.8746C74.8039 13.7307 74.942 13.5961 75.0848 13.4695C75.2276 13.343 75.3761 13.2246 75.5293 13.1144C75.6826 13.0041 75.8416 12.9031 76.0064 12.8103C76.1712 12.7174 76.3407 12.6327 76.5148 12.5561C76.69 12.4806 76.8676 12.4133 77.0464 12.3564C77.2263 12.2996 77.4074 12.252 77.5919 12.2137C77.7765 12.1754 77.9622 12.1475 78.1502 12.1278C78.3382 12.1092 78.5297 12.0988 78.7224 12.0988C78.9151 12.0988 79.1066 12.108 79.2947 12.1278C79.4838 12.1463 79.6707 12.1754 79.8553 12.2137C80.0398 12.252 80.2232 12.2996 80.4043 12.3564C80.5854 12.4133 80.7641 12.4795 80.9405 12.5561C81.1181 12.6327 81.2899 12.7174 81.4559 12.8103C81.6219 12.9031 81.782 13.0053 81.9376 13.1144C82.0919 13.2246 82.2417 13.343 82.3856 13.4695C82.5295 13.5961 82.6676 13.7319 82.8 13.8746C82.9323 14.0186 83.0576 14.1706 83.176 14.3319C83.2944 14.4933 83.407 14.6627 83.5126 14.8403C83.6182 15.0191 83.7169 15.2059 83.8086 15.4009C83.9003 15.5971 83.9862 15.8014 84.064 16.0138C84.1429 16.2274 84.2114 16.4467 84.2706 16.6742C84.3298 16.9017 84.3785 17.135 84.418 17.3765C84.4574 17.6179 84.4865 17.8651 84.5062 18.1205C84.5259 18.3758 84.5352 18.6381 84.5352 18.9074C84.5352 19.1767 84.5259 19.4379 84.5062 19.692C84.4865 19.9462 84.4574 20.1923 84.418 20.4314C84.3785 20.6705 84.3298 20.9015 84.2706 21.1243C84.2114 21.3484 84.1429 21.5643 84.064 21.772C83.985 21.9809 83.9003 22.1817 83.8086 22.3744C83.7169 22.5671 83.6182 22.7516 83.5126 22.9269C83.407 23.1033 83.2956 23.2705 83.176 23.4307C83.0576 23.5908 82.9323 23.7417 82.8 23.8857C82.6676 24.0296 82.5295 24.1642 82.3856 24.2907C82.2417 24.4172 82.0931 24.5356 81.9376 24.6459C81.7832 24.7562 81.6219 24.8572 81.4559 24.95C81.2899 25.0429 81.1181 25.1276 80.9405 25.203C80.7641 25.2796 80.5842 25.347 80.4043 25.4038C80.2244 25.4607 80.041 25.5083 79.8553 25.5466C79.6707 25.5849 79.4838 25.6128 79.2947 25.6325C79.1055 25.6522 78.9151 25.6615 78.7224 25.6615C78.5297 25.6615 78.3394 25.6522 78.1502 25.6325C77.9622 25.6139 77.7753 25.5849 77.5919 25.5466C77.4085 25.5083 77.2263 25.4607 77.0464 25.4038C76.8665 25.347 76.69 25.2796 76.5148 25.203C76.3395 25.1276 76.1701 25.0429 76.0064 24.95C75.8416 24.8572 75.6837 24.7562 75.5293 24.6459C75.3761 24.5356 75.2276 24.4184 75.0848 24.2907C74.942 24.1642 74.8039 24.0284 74.6716 23.8857C74.5393 23.7417 74.4139 23.5908 74.2944 23.4307C74.176 23.2705 74.0634 23.1033 73.9578 22.9269C73.8521 22.7505 73.7535 22.5671 73.6618 22.3744C73.5701 22.1817 73.4842 21.9809 73.4064 21.772C73.3275 21.5631 73.259 21.3472 73.201 21.1243C73.1418 20.9003 73.093 20.6694 73.0536 20.4314C73.0141 20.1935 72.9851 19.9462 72.9654 19.692C72.9468 19.4379 72.9363 19.1767 72.9363 18.9074ZM74.1748 18.9074C74.1748 19.1187 74.1818 19.3241 74.1969 19.5261C74.212 19.728 74.2328 19.9253 74.2619 20.118C74.2909 20.3107 74.3269 20.4987 74.371 20.6833C74.4151 20.8667 74.465 21.0466 74.5242 21.2218C74.5822 21.396 74.6461 21.5654 74.7145 21.7279C74.783 21.8904 74.8573 22.0471 74.9374 22.1968C75.0175 22.3466 75.1022 22.4917 75.1927 22.6286C75.2833 22.7656 75.3785 22.8979 75.4794 23.0233C75.5804 23.1486 75.686 23.2682 75.7963 23.3796C75.9066 23.491 76.0215 23.5955 76.1422 23.693C76.2617 23.7905 76.3871 23.881 76.5159 23.9646C76.6459 24.0481 76.7794 24.1248 76.9187 24.1944C77.058 24.264 77.1996 24.3244 77.3447 24.3766C77.4898 24.4289 77.6372 24.4718 77.7869 24.5066C77.9378 24.5414 78.091 24.567 78.2465 24.5844C78.4021 24.6018 78.5611 24.6099 78.7224 24.6099C78.8838 24.6099 79.0428 24.6018 79.1995 24.5844C79.3562 24.567 79.5094 24.5414 79.6603 24.5066C79.8112 24.4718 79.9597 24.4289 80.106 24.3766C80.2522 24.3244 80.3962 24.264 80.5366 24.1944C80.6782 24.1248 80.814 24.0481 80.9452 23.9646C81.0763 23.881 81.2028 23.7905 81.3236 23.693C81.4443 23.5955 81.5615 23.491 81.6718 23.3796C81.7832 23.2682 81.8888 23.1486 81.991 23.0233C82.0919 22.8979 82.1871 22.7667 82.2776 22.6286C82.3682 22.4905 82.4529 22.3466 82.5318 22.1968C82.6108 22.0471 82.685 21.8904 82.7547 21.7279C82.8232 21.5654 82.887 21.3971 82.945 21.2218C83.0042 21.0466 83.0553 20.8678 83.0994 20.6833C83.1435 20.4999 83.1795 20.3107 83.2085 20.118C83.2375 19.9253 83.2596 19.728 83.2747 19.5261C83.2898 19.3241 83.2967 19.1175 83.2967 18.9074C83.2967 18.6915 83.2898 18.4814 83.2747 18.276C83.2596 18.0705 83.2387 17.8709 83.2085 17.6748C83.1795 17.4798 83.1424 17.2894 83.0994 17.1037C83.0553 16.9191 83.0042 16.7381 82.945 16.564C82.887 16.3899 82.8232 16.2204 82.7547 16.0579C82.6862 15.8954 82.6119 15.7375 82.5318 15.5867C82.4529 15.4358 82.3682 15.2895 82.2776 15.1502C82.1871 15.0109 82.0919 14.8775 81.991 14.7498C81.89 14.6221 81.7832 14.5014 81.6718 14.3877C81.5603 14.2739 81.4443 14.1683 81.3236 14.0696C81.2028 13.971 81.0763 13.8793 80.9452 13.7957C80.814 13.7121 80.6782 13.6355 80.5366 13.5659C80.395 13.4962 80.2511 13.4359 80.106 13.3836C79.9597 13.3314 79.8112 13.2885 79.6603 13.2536C79.5094 13.2188 79.355 13.1933 79.1995 13.1759C79.0428 13.1585 78.8838 13.1503 78.7224 13.1503C78.5611 13.1503 78.4021 13.1585 78.2465 13.1759C78.091 13.1933 77.9378 13.2188 77.7869 13.2536C77.636 13.2885 77.4886 13.3314 77.3447 13.3836C77.1996 13.4359 77.058 13.4962 76.9187 13.5659C76.7794 13.6355 76.6459 13.7121 76.5159 13.7957C76.3859 13.8793 76.2617 13.971 76.1422 14.0696C76.0226 14.1683 75.9066 14.2739 75.7963 14.3877C75.686 14.5014 75.5804 14.6221 75.4794 14.7498C75.3785 14.8775 75.2833 15.0109 75.1927 15.1502C75.1022 15.2895 75.0175 15.4358 74.9374 15.5867C74.8573 15.7375 74.783 15.8954 74.7145 16.0579C74.6461 16.2204 74.5822 16.3899 74.5242 16.564C74.4661 16.7392 74.4151 16.9191 74.371 17.1037C74.3269 17.2882 74.2909 17.4786 74.2619 17.6748C74.2328 17.8697 74.2108 18.0705 74.1969 18.276C74.1829 18.4826 74.1748 18.6927 74.1748 18.9074Z" fill="white"/>
<path d="M86.5804 12.4227H86.9031H87.2257H87.5484H87.8711L88.4491 14.5143L89.0271 16.6059L89.6052 18.6975L90.1832 20.789C90.2238 20.9376 90.2633 21.085 90.3027 21.2313C90.3422 21.3775 90.3805 21.5238 90.4188 21.6677C90.4571 21.8128 90.4943 21.9555 90.5314 22.0995C90.5685 22.2422 90.6045 22.385 90.6417 22.5254C90.6776 22.6671 90.7136 22.8087 90.7484 22.9503C90.7844 23.0919 90.8204 23.2335 90.8564 23.3762C90.8924 23.519 90.9284 23.6606 90.9643 23.8045C91.0003 23.9473 91.0363 24.0912 91.0711 24.234H91.0978H91.1245H91.1512H91.1779C91.2139 24.0901 91.2499 23.9473 91.287 23.8045C91.3242 23.6618 91.3613 23.519 91.3996 23.3762C91.4379 23.2335 91.4762 23.0919 91.5157 22.9503C91.5551 22.8087 91.5946 22.6671 91.6352 22.5254C91.6758 22.3838 91.7165 22.2422 91.7559 22.0995C91.7966 21.9567 91.8372 21.8128 91.8766 21.6677C91.9173 21.5226 91.9579 21.3775 91.9974 21.2313C92.038 21.085 92.0786 20.9376 92.1181 20.789L92.7042 18.6975L93.2904 16.6059L93.8765 14.5143L94.4627 12.4227H94.819H95.1754H95.5317H95.888L96.4742 14.5143L97.0603 16.6059L97.6465 18.6975L98.2326 20.789C98.2733 20.9376 98.3139 21.085 98.3533 21.2313C98.394 21.3775 98.4346 21.5238 98.4741 21.6677C98.5147 21.8128 98.5553 21.9555 98.5948 22.0995C98.6354 22.2422 98.676 22.385 98.7155 22.5254C98.7561 22.6671 98.7967 22.8087 98.8362 22.9503C98.8768 23.0919 98.9175 23.2335 98.9569 23.3762C98.9975 23.519 99.0382 23.6606 99.0776 23.8045C99.1182 23.9473 99.1589 24.0912 99.1983 24.234H99.225H99.2517H99.2784H99.3051C99.3411 24.0901 99.3771 23.9473 99.4142 23.8045C99.4514 23.6618 99.4885 23.519 99.5268 23.3762C99.5651 23.2335 99.6034 23.0919 99.6429 22.9503C99.6823 22.8087 99.7218 22.6671 99.7624 22.5254C99.8031 22.3838 99.8425 22.2422 99.882 22.0995C99.9215 21.9567 99.9598 21.8128 99.9981 21.6677C100.036 21.5226 100.074 21.3775 100.111 21.2313C100.148 21.085 100.184 20.9376 100.22 20.789L100.792 18.6975L101.364 16.6059L101.936 14.5143L102.509 12.4227H102.812H103.115H103.417H103.72L102.792 15.6518L101.863 18.8809L100.935 22.1099L100.006 25.339H99.6162H99.2262H98.8362H98.4474L97.8821 23.3345L97.3168 21.3299L96.7516 19.3254L96.1863 17.3209C96.1376 17.1642 96.09 17.0075 96.0447 16.852C95.9995 16.6964 95.9553 16.542 95.9147 16.3888C95.8729 16.2356 95.8335 16.0824 95.7963 15.9304C95.7592 15.7783 95.7232 15.6274 95.6895 15.4777C95.6559 15.328 95.6199 15.1759 95.5828 15.0239C95.5456 14.8718 95.5062 14.7186 95.4644 14.5654C95.4226 14.4122 95.3796 14.2566 95.3344 14.1023C95.2891 13.9479 95.2415 13.7912 95.1928 13.6345H95.1661H95.1394H95.1127H95.086C95.05 13.7912 95.014 13.9479 94.9757 14.1034C94.9386 14.2601 94.9003 14.4156 94.8608 14.5712C94.8213 14.7267 94.7819 14.8823 94.7401 15.0378C94.6995 15.1933 94.6577 15.3477 94.6147 15.5032C94.5718 15.6576 94.5288 15.8131 94.4847 15.9687C94.4406 16.1242 94.3954 16.2797 94.3501 16.4353C94.3037 16.5908 94.2572 16.7475 94.2097 16.9042C94.1621 17.0609 94.1133 17.2176 94.0634 17.3743L93.5051 19.3649L92.9468 21.3555L92.3885 23.3461L91.8302 25.3367H91.4739H91.1176H90.7612H90.4049L89.4496 22.1076L88.4944 18.8785L87.5391 15.6495L86.5804 12.4227Z" fill="white"/>
<path d="M105.767 18.9074C105.767 18.6427 105.776 18.385 105.796 18.1332C105.815 17.8825 105.844 17.6375 105.884 17.3996C105.923 17.1617 105.972 16.9307 106.031 16.7067C106.091 16.4827 106.159 16.2644 106.237 16.0544C106.316 15.8431 106.4 15.6411 106.492 15.4461C106.584 15.2512 106.683 15.0654 106.788 14.8867C106.894 14.7079 107.006 14.5385 107.125 14.376C107.243 14.2135 107.37 14.0603 107.502 13.914C107.634 13.7689 107.771 13.632 107.913 13.5031C108.054 13.3743 108.2 13.2536 108.35 13.1422C108.5 13.0296 108.656 12.9263 108.815 12.8311C108.974 12.7359 109.137 12.6489 109.307 12.5711C109.475 12.4922 109.645 12.4237 109.815 12.3645C109.986 12.3053 110.159 12.2565 110.332 12.2171C110.506 12.1776 110.681 12.1486 110.858 12.1289C111.034 12.1091 111.213 12.0999 111.393 12.0999C111.778 12.0999 112.144 12.1324 112.487 12.1974C112.832 12.2624 113.155 12.3598 113.458 12.4898C113.76 12.6198 114.043 12.7823 114.304 12.9773C114.565 13.1723 114.805 13.3998 115.024 13.6598C115.244 13.9198 115.437 14.2077 115.601 14.5211C115.766 14.8345 115.904 15.1757 116.013 15.5436C116.124 15.9116 116.206 16.3062 116.261 16.7276C116.315 17.1489 116.343 17.5969 116.343 18.0728C116.343 18.1134 116.343 18.1541 116.343 18.1935C116.343 18.2341 116.343 18.2748 116.343 18.3142C116.343 18.3549 116.343 18.3955 116.343 18.4349C116.343 18.4756 116.343 18.5162 116.343 18.5557C116.343 18.5963 116.342 18.6369 116.34 18.6764C116.337 18.717 116.334 18.7576 116.329 18.7971C116.324 18.8377 116.319 18.8783 116.312 18.9178C116.305 18.9584 116.297 18.999 116.288 19.0385H113.961H111.634H109.307H106.978C106.983 19.2405 106.994 19.439 107.011 19.6328C107.028 19.8278 107.054 20.0181 107.084 20.2062C107.115 20.393 107.154 20.5776 107.198 20.7575C107.243 20.9374 107.294 21.1138 107.352 21.2856C107.41 21.4586 107.474 21.6245 107.545 21.7859C107.616 21.9472 107.691 22.1004 107.774 22.249C107.856 22.3976 107.943 22.5392 108.037 22.675C108.131 22.8108 108.231 22.9408 108.337 23.0638C108.442 23.1868 108.552 23.3041 108.668 23.4132C108.785 23.5223 108.905 23.6256 109.033 23.7219C109.159 23.8183 109.292 23.9076 109.429 23.9912C109.566 24.0736 109.71 24.1502 109.857 24.2199C110.004 24.2895 110.158 24.3499 110.314 24.4021C110.471 24.4543 110.632 24.4973 110.798 24.5321C110.964 24.5669 111.135 24.5925 111.309 24.6099C111.483 24.6273 111.663 24.6354 111.848 24.6354C112.023 24.6354 112.194 24.6284 112.359 24.6157C112.525 24.6029 112.688 24.5832 112.847 24.5576C113.005 24.5321 113.159 24.4996 113.309 24.4613C113.459 24.423 113.604 24.3777 113.745 24.3255C113.887 24.2744 114.025 24.2187 114.162 24.1572C114.298 24.0957 114.433 24.0307 114.564 23.9599C114.695 23.8891 114.824 23.8136 114.95 23.7335C115.077 23.6534 115.2 23.5687 115.322 23.4793L115.442 23.708L115.563 23.9367L115.684 24.1653L115.804 24.394C115.674 24.4706 115.541 24.546 115.404 24.6203C115.267 24.6946 115.128 24.7677 114.986 24.8397C114.845 24.9116 114.698 24.9824 114.55 25.0521C114.401 25.1217 114.249 25.1902 114.095 25.2564C113.94 25.3237 113.776 25.3817 113.6 25.4328C113.425 25.4827 113.239 25.5257 113.043 25.5593C112.847 25.593 112.64 25.6185 112.423 25.6348C112.206 25.6522 111.979 25.6603 111.741 25.6603C111.534 25.6603 111.331 25.651 111.13 25.6313C110.93 25.6115 110.733 25.5837 110.54 25.5454C110.346 25.5071 110.155 25.4595 109.967 25.4026C109.779 25.3457 109.595 25.2784 109.414 25.2018C109.233 25.1264 109.056 25.0405 108.887 24.9476C108.717 24.8548 108.552 24.7515 108.395 24.6412C108.237 24.5298 108.085 24.4102 107.937 24.2825C107.791 24.1537 107.651 24.0179 107.516 23.8717C107.381 23.7254 107.255 23.5722 107.134 23.4109C107.013 23.2495 106.9 23.0801 106.793 22.9025C106.686 22.7249 106.586 22.5403 106.493 22.3477C106.4 22.155 106.316 21.9542 106.237 21.7453C106.158 21.5363 106.089 21.3216 106.031 21.0987C105.973 20.8759 105.923 20.6472 105.884 20.4105C105.844 20.1737 105.815 19.9299 105.796 19.6804C105.776 19.4297 105.767 19.172 105.767 18.9074ZM115.211 18.1274C115.211 17.7107 115.19 17.3195 115.147 16.9539C115.105 16.5883 115.041 16.2494 114.956 15.9371C114.871 15.6249 114.764 15.337 114.637 15.077C114.509 14.817 114.361 14.5814 114.19 14.3737C114.019 14.1647 113.834 13.9825 113.633 13.827C113.432 13.6703 113.216 13.5403 112.985 13.4358C112.754 13.3314 112.508 13.2536 112.247 13.2002C111.986 13.148 111.71 13.1213 111.418 13.1213C111.279 13.1213 111.142 13.1282 111.006 13.1433C110.87 13.1584 110.737 13.1805 110.605 13.2095C110.472 13.2385 110.341 13.2756 110.212 13.3197C110.083 13.3639 109.956 13.4149 109.83 13.473C109.705 13.531 109.583 13.596 109.464 13.6656C109.344 13.7353 109.228 13.813 109.114 13.8955C109 13.9779 108.89 14.0672 108.783 14.1624C108.677 14.2576 108.572 14.3586 108.471 14.4665C108.37 14.5745 108.274 14.6882 108.182 14.8078C108.09 14.9273 108.002 15.0527 107.92 15.1838C107.837 15.315 107.758 15.452 107.684 15.5947C107.61 15.7375 107.541 15.8861 107.476 16.0416C107.411 16.196 107.352 16.3561 107.299 16.5198C107.245 16.6835 107.198 16.8529 107.157 17.027C107.115 17.2011 107.081 17.3787 107.05 17.5621C107.021 17.7455 106.997 17.9335 106.98 18.1262H109.038H111.095H113.153H115.211V18.1274Z" fill="white"/>
<path d="M119.84 12.4226H120.096H120.351H120.606H120.862L120.888 13.0215L120.915 13.6204L120.942 14.2194L120.968 14.8183H120.988H121.008H121.028H121.047C121.155 14.6163 121.268 14.4236 121.387 14.2414C121.507 14.0592 121.632 13.8851 121.763 13.7214C121.895 13.5578 122.032 13.4034 122.176 13.2583C122.319 13.1132 122.468 12.9786 122.622 12.852C122.777 12.7267 122.936 12.6176 123.101 12.5236C123.264 12.4296 123.434 12.3506 123.608 12.2879C123.782 12.2253 123.961 12.1777 124.144 12.1463C124.327 12.115 124.516 12.0988 124.708 12.0988C124.771 12.0988 124.831 12.0999 124.89 12.1022C124.95 12.1046 125.008 12.108 125.063 12.1115C125.119 12.1162 125.174 12.1208 125.227 12.1278C125.279 12.1347 125.33 12.1417 125.38 12.151C125.429 12.1603 125.479 12.1719 125.53 12.1858C125.58 12.1997 125.631 12.2148 125.683 12.2334C125.734 12.2508 125.786 12.2717 125.84 12.2938C125.892 12.3158 125.945 12.3402 126 12.3669L125.933 12.6362L125.865 12.9054L125.798 13.1747L125.731 13.444C125.677 13.422 125.625 13.4022 125.575 13.3836C125.525 13.3651 125.477 13.3488 125.429 13.3349C125.381 13.3198 125.336 13.3082 125.292 13.2966C125.248 13.2862 125.206 13.2769 125.165 13.2699C125.125 13.2629 125.082 13.2571 125.035 13.2525C124.989 13.2478 124.94 13.2432 124.889 13.2397C124.838 13.2362 124.784 13.2339 124.727 13.2328C124.67 13.2316 124.61 13.2304 124.548 13.2304C124.404 13.2304 124.259 13.2455 124.112 13.2769C123.964 13.3082 123.814 13.3535 123.664 13.415C123.513 13.4765 123.358 13.5531 123.204 13.646C123.05 13.7388 122.892 13.8468 122.733 13.9698C122.574 14.0928 122.418 14.2391 122.267 14.4085C122.116 14.5768 121.97 14.7684 121.827 14.9831C121.685 15.1967 121.546 15.4334 121.413 15.6934C121.279 15.9534 121.149 16.2355 121.024 16.5407V18.7403V20.9398V23.1393V25.3388H120.728H120.432H120.136H119.84V22.1098V18.8807V15.6517V12.4226Z" fill="white"/>
<path d="M72.563 30.0737C72.9604 30.0737 73.2603 30.1489 73.4626 30.2993C73.6667 30.4497 73.7688 30.6717 73.7688 30.9653C73.7688 31.2267 73.6909 31.4443 73.5352 31.6179C73.3812 31.7916 73.1672 31.9053 72.8933 31.959V31.9805C73.0867 32.0306 73.2362 32.1237 73.3418 32.2598C73.4492 32.394 73.5029 32.5579 73.5029 32.7512C73.5029 33.1397 73.3687 33.445 73.1001 33.667C72.8315 33.889 72.4583 34 71.9802 34H70.6616L71.4915 30.0737H72.563ZM71.7869 31.6958H72.3213C72.5701 31.6958 72.7626 31.6421 72.8987 31.5347C73.0347 31.4255 73.1028 31.2715 73.1028 31.0728C73.1028 30.7648 72.9032 30.6108 72.5039 30.6108H72.0178L71.7869 31.6958ZM71.4082 33.4602H72.0071C72.2703 33.4602 72.4762 33.3993 72.6248 33.2776C72.7751 33.1558 72.8503 32.9822 72.8503 32.7566C72.8503 32.5811 72.7966 32.4478 72.6892 32.3564C72.5818 32.2633 72.4242 32.2168 72.2166 32.2168H71.6794L71.4082 33.4602ZM74.98 32.4316L74.6497 34H74.0132L74.843 30.0737H75.7507C76.15 30.0737 76.4561 30.1588 76.6692 30.3289C76.8822 30.4972 76.9888 30.7568 76.9888 31.1077C76.9888 31.4031 76.9109 31.6528 76.7551 31.8569C76.6012 32.0592 76.3711 32.2069 76.0649 32.3L76.7336 34H76.0354L75.4795 32.4316H74.98ZM75.0955 31.8999H75.4258C75.7301 31.8999 75.9575 31.8328 76.1079 31.6985C76.2583 31.5642 76.3335 31.3798 76.3335 31.1453C76.3335 30.9573 76.2807 30.8221 76.175 30.7397C76.0694 30.6574 75.9056 30.6162 75.6836 30.6162H75.364L75.0955 31.8999ZM77.252 34L78.0872 30.0737H78.7183L77.8831 34H77.252ZM81.8979 34H81.1997L80.0986 30.8767H80.0825L80.0557 31.062C80.0127 31.3288 79.9805 31.5194 79.959 31.634C79.9393 31.7468 79.7755 32.5355 79.4675 34H78.8794L79.7092 30.0737H80.429L81.5005 33.1594H81.5193C81.53 33.0627 81.5578 32.8909 81.6025 32.6438C81.6473 32.3949 81.6831 32.2123 81.71 32.0959L82.1396 30.0737H82.7278L81.8979 34ZM84.8145 31.8704H86.1895L85.7678 33.8469C85.5673 33.9185 85.3713 33.9705 85.1797 34.0027C84.9899 34.0367 84.7769 34.0537 84.5405 34.0537C84.0732 34.0537 83.7107 33.923 83.4529 33.6616C83.1951 33.4002 83.0662 33.0305 83.0662 32.5525C83.0662 32.0798 83.1575 31.6475 83.3401 31.2554C83.5245 30.8633 83.7841 30.5589 84.1189 30.3423C84.4555 30.1257 84.8377 30.0173 85.2656 30.0173C85.4644 30.0173 85.655 30.0361 85.8376 30.0737C86.0203 30.1095 86.2038 30.1713 86.3882 30.259L86.1465 30.8042C85.835 30.6502 85.536 30.5732 85.2495 30.5732C84.9666 30.5732 84.7097 30.6547 84.4788 30.8176C84.2478 30.9788 84.0652 31.2097 83.9309 31.5105C83.7984 31.8095 83.7322 32.1425 83.7322 32.5095C83.7322 32.8372 83.8118 33.0851 83.9712 33.2534C84.1305 33.4217 84.357 33.5059 84.6506 33.5059C84.8458 33.5059 85.0382 33.4763 85.228 33.4172L85.4429 32.4209H84.699L84.8145 31.8704ZM91.0933 34H90.395L89.2939 30.8767H89.2778L89.251 31.062C89.208 31.3288 89.1758 31.5194 89.1543 31.634C89.1346 31.7468 88.9708 32.5355 88.6628 34H88.0747L88.9045 30.0737H89.6243L90.6958 33.1594H90.7146C90.7253 33.0627 90.7531 32.8909 90.7979 32.6438C90.8426 32.3949 90.8784 32.2123 90.9053 32.0959L91.335 30.0737H91.9231L91.0933 34ZM94.1199 32.9097H92.8174L92.2561 34H91.574L93.6768 30.0684H94.4126L94.8584 34H94.23L94.1199 32.9097ZM94.0769 32.3511C94.0053 31.6063 93.9641 31.156 93.9534 31.0002C93.9444 30.8427 93.9399 30.7174 93.9399 30.6243C93.8415 30.8731 93.7144 31.1479 93.5586 31.4487L93.0967 32.3511H94.0769ZM96.5664 34H95.9299L96.6389 30.6243H95.6211L95.7419 30.0737H98.4221L98.3066 30.6243H97.2834L96.5664 34ZM101.79 30.0737L101.247 32.6411C101.147 33.1191 100.961 33.4745 100.689 33.7073C100.417 33.9382 100.056 34.0537 99.6064 34.0537C99.2179 34.0537 98.9172 33.9588 98.7041 33.769C98.4928 33.5793 98.3872 33.3062 98.3872 32.95C98.3872 32.8014 98.4051 32.6492 98.4409 32.4934L98.9592 30.0737H99.5957L99.0801 32.5042C99.0425 32.6617 99.0237 32.8031 99.0237 32.9285C99.0237 33.1111 99.0765 33.2534 99.1821 33.3555C99.2896 33.4557 99.4516 33.5059 99.6682 33.5059C99.9278 33.5059 100.134 33.4342 100.286 33.291C100.438 33.146 100.549 32.9115 100.619 32.5874L101.153 30.0737H101.79ZM102.894 32.4316L102.563 34H101.927L102.757 30.0737H103.664C104.064 30.0737 104.37 30.1588 104.583 30.3289C104.796 30.4972 104.902 30.7568 104.902 31.1077C104.902 31.4031 104.824 31.6528 104.669 31.8569C104.515 32.0592 104.285 32.2069 103.979 32.3L104.647 34H103.949L103.393 32.4316H102.894ZM103.009 31.8999H103.339C103.644 31.8999 103.871 31.8328 104.021 31.6985C104.172 31.5642 104.247 31.3798 104.247 31.1453C104.247 30.9573 104.194 30.8221 104.089 30.7397C103.983 30.6574 103.819 30.6162 103.597 30.6162H103.278L103.009 31.8999ZM107.25 34H105.166L105.995 30.0737H108.079L107.964 30.6243H106.516L106.291 31.6851H107.639L107.529 32.2302H106.175L105.917 33.4548H107.365L107.25 34ZM109.489 34L110.324 30.0737H110.956L110.12 34H109.489ZM114.135 34H113.437L112.336 30.8767H112.32L112.293 31.062C112.25 31.3288 112.218 31.5194 112.196 31.634C112.177 31.7468 112.013 32.5355 111.705 34H111.117L111.947 30.0737H112.666L113.738 33.1594H113.757C113.767 33.0627 113.795 32.8909 113.84 32.6438C113.885 32.3949 113.92 32.2123 113.947 32.0959L114.377 30.0737H114.965L114.135 34ZM117.438 32.8506C117.438 33.2266 117.309 33.5211 117.049 33.7341C116.791 33.9472 116.435 34.0537 115.98 34.0537C115.604 34.0537 115.293 33.9866 115.046 33.8523V33.2507C115.355 33.4244 115.669 33.5112 115.986 33.5112C116.231 33.5112 116.424 33.4593 116.566 33.3555C116.707 33.2498 116.778 33.1039 116.778 32.9177C116.778 32.7942 116.741 32.685 116.668 32.5901C116.594 32.4934 116.44 32.3708 116.206 32.2222C116.018 32.1022 115.879 31.993 115.79 31.8945C115.7 31.7961 115.631 31.6886 115.583 31.5723C115.536 31.4541 115.513 31.3243 115.513 31.1829C115.513 30.9537 115.568 30.7505 115.677 30.5732C115.788 30.396 115.944 30.259 116.144 30.1624C116.346 30.0657 116.574 30.0173 116.826 30.0173C117.193 30.0173 117.534 30.0997 117.849 30.2644L117.618 30.7773C117.33 30.6377 117.066 30.5679 116.826 30.5679C116.631 30.5679 116.474 30.6207 116.356 30.7263C116.238 30.8302 116.179 30.9662 116.179 31.1345C116.179 31.2187 116.192 31.293 116.219 31.3574C116.246 31.4201 116.287 31.4792 116.343 31.5347C116.4 31.5884 116.521 31.6734 116.705 31.7898C116.983 31.9635 117.174 32.1318 117.28 32.2947C117.386 32.4558 117.438 32.6411 117.438 32.8506ZM117.97 34L118.805 30.0737H119.437L118.601 34H117.97ZM122.936 31.6018C122.936 32.087 122.846 32.5104 122.667 32.8721C122.488 33.2337 122.228 33.5121 121.886 33.7073C121.544 33.9024 121.142 34 120.68 34H119.603L120.433 30.0737H121.424C121.909 30.0737 122.282 30.2035 122.544 30.4631C122.805 30.7227 122.936 31.1023 122.936 31.6018ZM120.712 33.4602C121.029 33.4602 121.306 33.3832 121.542 33.2292C121.778 33.0753 121.959 32.8586 122.084 32.5793C122.212 32.3 122.275 31.9814 122.275 31.6233C122.275 31.2939 122.196 31.0432 122.039 30.8713C121.881 30.6977 121.652 30.6108 121.351 30.6108H120.959L120.35 33.4602H120.712ZM125.377 34H123.293L124.123 30.0737H126.207L126.091 30.6243H124.644L124.418 31.6851H125.766L125.656 32.2302H124.303L124.045 33.4548H125.492L125.377 34Z" fill="white"/>
</svg>
