<svg width="319" height="116" viewBox="0 0 319 116" fill="none" xmlns="http://www.w3.org/2000/svg">
<path d="M43.1785 61.2359H41.0187H38.8588H36.6989H34.5391V56.1476V51.0593V45.971V40.8827H31.6892H28.8393H25.9894H23.1395V45.971V51.0593V56.1476V61.2359H20.9796H18.8197H16.6599H14.5V49.6287V38.0244V26.4172V14.81H16.6599H18.8197H20.9796H23.1395V19.4215V24.0329V28.6444V33.2558H25.9894H28.8393H31.6892H34.5391V28.6472V24.0357V19.4243V14.81H36.6989H38.8588H41.0187H43.1785V26.4172V38.0244V49.6315V61.2359Z" fill="white"/>
<path d="M77.0603 43.4856C77.0603 44.9358 76.9846 46.3047 76.8303 47.595C76.676 48.8853 76.446 50.0943 76.1403 51.2219C75.8345 52.3495 75.4502 53.3986 74.9902 54.3663C74.5302 55.3341 73.9916 56.2204 73.3801 57.0255C72.7658 57.8333 72.0954 58.5402 71.3689 59.1461C70.6424 59.752 69.857 60.2569 69.0155 60.6608C68.174 61.0647 67.2764 61.3677 66.3199 61.5696C65.3634 61.7716 64.3508 61.8726 63.282 61.8726C62.606 61.8726 61.9468 61.8277 61.3101 61.7351C60.6734 61.6426 60.0535 61.5051 59.456 61.32C58.8585 61.1348 58.2807 60.902 57.7197 60.6243C57.1615 60.3466 56.6229 60.0213 56.104 59.651C55.5851 59.2807 55.097 58.8684 54.637 58.4168C54.1769 57.9652 53.7478 57.4715 53.3495 56.9385C52.9483 56.4056 52.5809 55.8334 52.2387 55.2191C51.8993 54.6048 51.5879 53.9512 51.3074 53.2555C51.0269 52.5599 50.7829 51.8334 50.5725 51.0788C50.3621 50.3243 50.1882 49.5389 50.0451 48.7254C49.9049 47.912 49.7983 47.0677 49.7282 46.1953C49.658 45.3229 49.6216 44.4197 49.6216 43.4884C49.6216 42.0551 49.6973 40.6975 49.8488 39.4212C50.0003 38.1449 50.2303 36.9443 50.5332 35.8223C50.8362 34.7003 51.2176 33.6597 51.6749 32.6947C52.1321 31.7298 52.665 30.8462 53.2737 30.0384C53.8824 29.2333 54.55 28.5265 55.2765 27.9206C56.003 27.3147 56.7884 26.8126 57.6327 26.4087C58.477 26.0047 59.3803 25.7018 60.3424 25.4998C61.3045 25.2979 62.3255 25.1969 63.4055 25.1969C64.4489 25.1969 65.4363 25.3007 66.3732 25.5055C67.3101 25.7102 68.1908 26.0188 69.0211 26.4311C69.8514 26.8434 70.6256 27.3568 71.3493 27.9739C72.073 28.591 72.7406 29.3119 73.3577 30.1337C73.9748 30.9556 74.5133 31.8504 74.9762 32.8181C75.439 33.7859 75.8233 34.8265 76.1318 35.9373C76.4404 37.0509 76.6704 38.2346 76.8247 39.4913C76.9818 40.7507 77.0603 42.0831 77.0603 43.4856ZM58.261 43.4856C58.261 44.4057 58.2863 45.2724 58.3368 46.0803C58.3873 46.8881 58.463 47.6399 58.564 48.3383C58.665 49.034 58.7912 49.6735 58.9399 50.257C59.0913 50.8404 59.2652 51.3678 59.4672 51.839C59.6692 52.3102 59.8992 52.7226 60.16 53.076C60.4209 53.4295 60.7154 53.724 61.038 53.9596C61.3606 54.1952 61.714 54.3719 62.0983 54.4897C62.4826 54.6076 62.8949 54.6665 63.3409 54.6665C64.1881 54.6665 64.9286 54.4336 65.5653 53.968C66.1993 53.5024 66.7294 52.8039 67.153 51.8727C67.5765 50.9414 67.8935 49.7773 68.1039 48.3804C68.3143 46.9835 68.4208 45.3538 68.4208 43.4884C68.4208 42.5628 68.3956 41.6932 68.3451 40.8854C68.2946 40.0775 68.2189 39.3258 68.1151 38.633C68.0113 37.9401 67.8851 37.3062 67.7336 36.7312C67.5821 36.1561 67.4026 35.64 67.1979 35.1828C66.9959 34.7256 66.7631 34.3244 66.4994 33.9822C66.2357 33.64 65.944 33.3539 65.6242 33.1239C65.3045 32.8939 64.951 32.7228 64.5723 32.6078C64.1937 32.4928 63.7813 32.4367 63.3438 32.4367C62.9006 32.4367 62.4854 32.4928 62.1011 32.6078C61.7168 32.7228 61.3634 32.8939 61.0408 33.1239C60.7183 33.3539 60.4265 33.64 60.1629 33.9822C59.902 34.3244 59.6692 34.7256 59.47 35.1828C59.2681 35.64 59.0941 36.1561 58.9427 36.7312C58.7912 37.3062 58.665 37.9401 58.5668 38.633C58.4686 39.3258 58.3901 40.0747 58.3396 40.8854C58.2891 41.696 58.261 42.5572 58.261 43.4856Z" fill="white"/>
<path d="M98.0812 25.1942C98.3421 25.1942 98.6002 25.2054 98.8554 25.2251C99.1135 25.2447 99.3687 25.2756 99.6212 25.3148C99.8765 25.3541 100.129 25.4046 100.379 25.4635C100.631 25.5224 100.881 25.5925 101.128 25.6711L100.881 27.7187L100.634 29.7664L100.387 31.8141L100.14 33.8617C99.9915 33.8084 99.8316 33.7607 99.6605 33.7215C99.4894 33.6822 99.307 33.6485 99.1135 33.6233C98.9199 33.5981 98.7152 33.5784 98.502 33.5644C98.286 33.5504 98.0588 33.5448 97.8204 33.5448C97.3071 33.5448 96.8218 33.5953 96.3702 33.6962C95.9158 33.7972 95.4922 33.9487 95.0995 34.1506C94.7068 34.3526 94.3422 34.6051 94.0056 34.9108C93.6718 35.2137 93.366 35.57 93.0911 35.9767C92.8162 36.3806 92.575 36.8294 92.3674 37.3259C92.1599 37.8224 91.9887 38.3666 91.8513 38.9528C91.7138 39.5419 91.6101 40.1758 91.5427 40.8574C91.4754 41.5391 91.439 42.2656 91.439 43.037V47.5867V52.1364V56.6862V61.2359H89.3324H87.2202H85.108H82.9958V52.3917V43.5475V34.7032V25.8618H84.735H86.4741H88.2132H89.9523L90.1907 27.2419L90.4291 28.6219L90.6676 30.002L90.906 31.3821H90.9761H91.0463H91.1164H91.1865C91.4193 30.8267 91.6578 30.3106 91.899 29.8337C92.143 29.3569 92.3899 28.9221 92.6451 28.5238C92.9004 28.1255 93.1584 27.7692 93.4221 27.4523C93.6858 27.1353 93.9579 26.8576 94.2328 26.6192C94.5077 26.3807 94.7938 26.1732 95.0939 25.9936C95.3912 25.8141 95.6998 25.6655 96.0196 25.5476C96.3393 25.4298 96.6703 25.3401 97.0125 25.2784C97.3632 25.2251 97.7166 25.1942 98.0812 25.1942Z" fill="white"/>
<path d="M117.198 54.7253C117.495 54.7253 117.795 54.7057 118.104 54.6692C118.412 54.6328 118.726 54.5767 119.046 54.5037C119.366 54.4308 119.694 54.3382 120.025 54.226C120.356 54.1138 120.695 53.9848 121.038 53.8361V55.4883V57.1405V58.7926V60.4448C120.693 60.6832 120.308 60.8908 119.876 61.0703C119.444 61.2498 118.973 61.3985 118.457 61.5163C117.941 61.6341 117.383 61.7239 116.78 61.7856C116.177 61.8445 115.531 61.8753 114.844 61.8753C114.076 61.8753 113.358 61.8192 112.69 61.7042C112.022 61.5892 111.402 61.4181 110.836 61.1881C110.266 60.9581 109.747 60.672 109.279 60.3298C108.811 59.9847 108.39 59.5864 108.02 59.1264C107.649 58.6692 107.324 58.1559 107.046 57.5836C106.769 57.0114 106.536 56.3831 106.351 55.6959C106.165 55.0086 106.028 54.2653 105.935 53.4631C105.843 52.6608 105.798 51.8025 105.798 50.8881V46.3075V41.7269V37.1463V32.5629H104.94H104.081H103.223H102.365V31.6176V30.6723V29.727V28.7817L103.467 28.0187L104.569 27.2558L105.672 26.4928L106.774 25.7298L107.313 23.8561L107.851 21.9823L108.39 20.1086L108.928 18.2348H110.278H111.627H112.976H114.325V20.1394V22.044V23.9486V25.8532H115.93H117.534H119.139H120.743V27.5278V29.2024V30.877V32.5516H119.15H117.545H115.941H114.336V37.2024V41.8531V46.5038V51.1545C114.336 51.7464 114.395 52.2653 114.516 52.7113C114.634 53.1573 114.813 53.5276 115.052 53.8221C115.29 54.1194 115.588 54.341 115.944 54.4897C116.3 54.6384 116.721 54.7253 117.198 54.7253Z" fill="white"/>
<path d="M125.708 16.6219C125.708 16.2713 125.733 15.9403 125.784 15.6289C125.834 15.3148 125.91 15.0202 126.014 14.7453C126.115 14.4676 126.244 14.2096 126.395 13.9712C126.55 13.7327 126.726 13.5111 126.931 13.3064C127.133 13.1016 127.357 12.9249 127.601 12.7706C127.845 12.6163 128.109 12.4901 128.392 12.3891C128.676 12.2881 128.981 12.2096 129.307 12.1591C129.632 12.1086 129.977 12.0834 130.342 12.0834C130.687 12.0834 131.012 12.1086 131.321 12.1591C131.629 12.2096 131.924 12.2853 132.199 12.3891C132.474 12.4901 132.732 12.6191 132.973 12.7706C133.214 12.9249 133.439 13.1016 133.643 13.3064C133.851 13.5083 134.031 13.7299 134.185 13.9712C134.339 14.2096 134.468 14.4704 134.572 14.7453C134.676 15.023 134.751 15.3176 134.805 15.6289C134.855 15.9431 134.883 16.2741 134.883 16.6219C134.883 16.9809 134.858 17.3204 134.805 17.6401C134.751 17.9599 134.673 18.26 134.566 18.5377C134.46 18.8182 134.328 19.0763 134.171 19.3147C134.011 19.5531 133.826 19.7747 133.615 19.9739C133.402 20.1703 133.175 20.3442 132.934 20.4928C132.693 20.6415 132.434 20.7649 132.162 20.8631C131.89 20.9613 131.601 21.037 131.298 21.0875C130.995 21.138 130.679 21.1632 130.345 21.1632C129.994 21.1632 129.663 21.138 129.349 21.0875C129.035 21.037 128.737 20.9641 128.457 20.8631C128.176 20.7649 127.913 20.6387 127.666 20.4928C127.419 20.3442 127.192 20.1703 126.979 19.9739C126.765 19.7747 126.58 19.556 126.423 19.3147C126.263 19.0763 126.132 18.8154 126.028 18.5377C125.921 18.2572 125.843 17.9599 125.789 17.6401C125.733 17.3204 125.708 16.9809 125.708 16.6219ZM134.502 61.2358H132.39H130.277H128.165H126.053V52.3915V43.5473V34.7031V25.8616H128.165H130.277H132.39H134.502V34.7059V43.5501V52.3943V61.2358Z" fill="white"/>
<path d="M144.465 18.3805H147.391H150.316H153.242H156.168C156.765 18.3805 157.346 18.3945 157.91 18.4198C158.473 18.445 159.023 18.4843 159.556 18.5348C160.089 18.5853 160.608 18.6498 161.11 18.7283C161.612 18.8069 162.1 18.8966 162.572 18.9976C163.043 19.1014 163.497 19.222 163.935 19.3566C164.372 19.4941 164.79 19.6456 165.191 19.8167C165.593 19.9878 165.977 20.1757 166.341 20.3777C166.706 20.5824 167.057 20.804 167.388 21.0425C167.719 21.2809 168.027 21.5389 168.319 21.811C168.611 22.0831 168.883 22.3776 169.135 22.6862C169.388 22.9948 169.621 23.3229 169.834 23.6652C170.047 24.0074 170.24 24.372 170.414 24.7507C170.585 25.1294 170.737 25.5305 170.869 25.9512C170.998 26.3748 171.107 26.818 171.194 27.2836C171.281 27.7493 171.346 28.2373 171.39 28.745C171.435 29.2556 171.455 29.7857 171.455 30.3383C171.455 31.3902 171.371 32.3747 171.203 33.292C171.034 34.2092 170.782 35.0592 170.448 35.8418C170.111 36.6244 169.691 37.3396 169.189 37.9904C168.686 38.6412 168.097 39.2218 167.424 39.7351C166.751 40.2512 166.013 40.7 165.208 41.0871C164.403 41.4742 163.534 41.794 162.594 42.0521C161.657 42.3101 160.653 42.5037 159.584 42.6299C158.515 42.7561 157.377 42.8235 156.173 42.8235H153.988H151.809H149.629H147.452V47.4237V52.0239V56.6242V61.2244H146.706H145.96H145.214H144.468V50.512V39.7996V29.0957V18.3805H144.465ZM155.45 40.2961C156.546 40.2961 157.57 40.2484 158.524 40.1503C159.478 40.0521 160.361 39.9062 161.175 39.7127C161.988 39.5191 162.729 39.2751 163.402 38.9806C164.075 38.6889 164.675 38.3466 165.208 37.9567C165.738 37.5668 166.204 37.1152 166.602 36.6047C167.001 36.0914 167.332 35.5192 167.598 34.8852C167.865 34.2513 168.064 33.5557 168.196 32.7983C168.327 32.0409 168.395 31.2247 168.395 30.3439C168.395 29.8895 168.378 29.4547 168.344 29.0396C168.311 28.6244 168.26 28.2289 168.193 27.8502C168.125 27.4744 168.041 27.1181 167.94 26.7787C167.839 26.4393 167.722 26.1224 167.587 25.825C167.449 25.5277 167.298 25.2416 167.13 24.9723C166.961 24.703 166.779 24.4478 166.577 24.2065C166.378 23.9653 166.162 23.7381 165.929 23.5249C165.696 23.3117 165.447 23.1126 165.183 22.9274C164.916 22.7451 164.633 22.574 164.33 22.4169C164.03 22.2598 163.71 22.1168 163.374 21.9849C163.037 21.8559 162.684 21.7381 162.313 21.6343C161.943 21.5305 161.553 21.4408 161.149 21.365C160.743 21.2893 160.319 21.222 159.879 21.1659C159.438 21.1098 158.981 21.0621 158.507 21.0228C158.033 20.9864 157.542 20.9583 157.034 20.9387C156.527 20.919 156.002 20.9106 155.458 20.9106H153.458H151.458H149.458H147.452V25.7549V30.5992V35.4434V40.2877H149.452H151.452H153.452H155.45V40.2961Z" fill="white"/>
<path d="M176.263 45.693C176.263 45.0422 176.285 44.4083 176.333 43.7912C176.381 43.1741 176.451 42.5766 176.546 41.9931C176.642 41.4097 176.759 40.8459 176.902 40.2961C177.046 39.7463 177.211 39.2162 177.399 38.7C177.59 38.1839 177.794 37.6902 178.016 37.219C178.238 36.7478 178.476 36.2933 178.731 35.8642C178.987 35.4322 179.259 35.0227 179.545 34.6356C179.831 34.2485 180.137 33.8782 180.456 33.5304C180.776 33.1826 181.11 32.8572 181.455 32.5514C181.8 32.2457 182.159 31.9596 182.529 31.6931C182.9 31.4266 183.284 31.1826 183.682 30.9582C184.081 30.7338 184.49 30.529 184.911 30.3439C185.334 30.1616 185.764 29.9989 186.196 29.8614C186.63 29.724 187.068 29.609 187.514 29.5164C187.96 29.4238 188.409 29.3565 188.863 29.3088C189.318 29.264 189.78 29.2387 190.246 29.2387C190.712 29.2387 191.174 29.2612 191.629 29.3088C192.086 29.3537 192.538 29.4238 192.984 29.5164C193.43 29.609 193.873 29.724 194.31 29.8614C194.748 29.9989 195.18 30.1588 195.606 30.3439C196.036 30.529 196.451 30.7338 196.852 30.9582C197.253 31.1826 197.64 31.4294 198.016 31.6931C198.389 31.9596 198.751 32.2457 199.099 32.5514C199.446 32.8572 199.78 33.1854 200.1 33.5304C200.42 33.8782 200.723 34.2457 201.009 34.6356C201.295 35.0255 201.567 35.435 201.822 35.8642C202.078 36.2961 202.316 36.7478 202.538 37.219C202.759 37.693 202.967 38.1867 203.155 38.7C203.345 39.2162 203.511 39.7463 203.654 40.2961C203.797 40.8459 203.915 41.4097 204.01 41.9931C204.106 42.5766 204.176 43.1741 204.223 43.7912C204.271 44.4083 204.294 45.0422 204.294 45.693C204.294 46.3437 204.271 46.9749 204.223 47.5892C204.176 48.2035 204.106 48.7981 204.01 49.376C203.915 49.9538 203.797 50.512 203.654 51.0506C203.511 51.5919 203.345 52.1137 203.155 52.6158C202.964 53.1207 202.759 53.6059 202.538 54.0716C202.316 54.5372 202.078 54.9832 201.822 55.4068C201.567 55.8331 201.298 56.237 201.009 56.6241C200.723 57.0112 200.42 57.3759 200.1 57.7237C199.78 58.0715 199.446 58.3969 199.099 58.7027C198.751 59.0084 198.392 59.2945 198.016 59.561C197.643 59.8275 197.253 60.0715 196.852 60.2959C196.451 60.5203 196.036 60.7251 195.606 60.9074C195.18 61.0925 194.745 61.2552 194.31 61.3927C193.876 61.5301 193.433 61.6451 192.984 61.7377C192.538 61.8303 192.086 61.8976 191.629 61.9453C191.172 61.993 190.712 62.0154 190.246 62.0154C189.78 62.0154 189.32 61.993 188.863 61.9453C188.409 61.9004 187.957 61.8303 187.514 61.7377C187.071 61.6451 186.63 61.5301 186.196 61.3927C185.761 61.2552 185.334 61.0925 184.911 60.9074C184.487 60.7251 184.078 60.5203 183.682 60.2959C183.284 60.0715 182.902 59.8275 182.529 59.561C182.159 59.2945 181.8 59.0112 181.455 58.7027C181.11 58.3969 180.776 58.0687 180.456 57.7237C180.137 57.3759 179.834 57.0112 179.545 56.6241C179.259 56.237 178.987 55.8331 178.731 55.4068C178.476 54.9804 178.238 54.5372 178.016 54.0716C177.794 53.6059 177.587 53.1207 177.399 52.6158C177.208 52.1109 177.043 51.5891 176.902 51.0506C176.759 50.5092 176.642 49.951 176.546 49.376C176.451 48.8009 176.381 48.2035 176.333 47.5892C176.288 46.9749 176.263 46.3437 176.263 45.693ZM179.256 45.693C179.256 46.2035 179.273 46.7 179.309 47.188C179.346 47.6761 179.396 48.153 179.466 48.6186C179.536 49.0842 179.623 49.5387 179.73 49.9847C179.837 50.4278 179.957 50.8626 180.1 51.2862C180.24 51.7069 180.395 52.1165 180.56 52.5092C180.726 52.9019 180.905 53.2806 181.099 53.6424C181.292 54.0042 181.497 54.3549 181.716 54.6859C181.935 55.0169 182.165 55.3366 182.409 55.6396C182.653 55.9425 182.908 56.2314 183.175 56.5007C183.441 56.77 183.719 57.0225 184.01 57.2581C184.299 57.4937 184.602 57.7125 184.914 57.9144C185.228 58.1164 185.55 58.3015 185.887 58.4698C186.224 58.6381 186.566 58.784 186.916 58.9102C187.267 59.0365 187.623 59.1402 187.985 59.2244C188.35 59.3085 188.72 59.3703 189.096 59.4123C189.472 59.4544 189.856 59.474 190.246 59.474C190.636 59.474 191.02 59.4544 191.399 59.4123C191.778 59.3703 192.148 59.3085 192.512 59.2244C192.877 59.1402 193.236 59.0365 193.59 58.9102C193.943 58.784 194.291 58.6381 194.63 58.4698C194.972 58.3015 195.301 58.1164 195.618 57.9144C195.935 57.7125 196.24 57.4937 196.532 57.2581C196.824 57.0225 197.107 56.77 197.374 56.5007C197.643 56.2314 197.898 55.9425 198.145 55.6396C198.389 55.3366 198.619 55.0197 198.838 54.6859C199.057 54.3521 199.261 54.0042 199.452 53.6424C199.643 53.2806 199.822 52.9019 199.991 52.5092C200.156 52.1165 200.31 51.7097 200.451 51.2862C200.594 50.8626 200.717 50.4306 200.824 49.9847C200.93 49.5415 201.017 49.0842 201.087 48.6186C201.158 48.153 201.211 47.6761 201.247 47.188C201.284 46.7 201.301 46.2007 201.301 45.693C201.301 45.1712 201.284 44.6635 201.247 44.167C201.211 43.6705 201.16 43.1881 201.087 42.714C201.017 42.2428 200.928 41.7828 200.824 41.334C200.717 40.888 200.594 40.4504 200.451 40.0296C200.31 39.6089 200.156 39.1993 199.991 38.8066C199.825 38.4139 199.646 38.0325 199.452 37.6678C199.261 37.3031 199.057 36.9497 198.838 36.6131C198.619 36.2765 198.389 35.9539 198.145 35.6454C197.901 35.3368 197.643 35.0451 197.374 34.7702C197.104 34.4953 196.824 34.2401 196.532 34.0016C196.24 33.7632 195.935 33.5416 195.618 33.3397C195.301 33.1377 194.972 32.9526 194.63 32.7843C194.288 32.616 193.94 32.4701 193.59 32.3439C193.236 32.2176 192.877 32.1139 192.512 32.0297C192.148 31.9456 191.775 31.8838 191.399 31.8418C191.02 31.7997 190.636 31.7801 190.246 31.7801C189.856 31.7801 189.472 31.7997 189.096 31.8418C188.72 31.8838 188.35 31.9456 187.985 32.0297C187.62 32.1139 187.264 32.2176 186.916 32.3439C186.566 32.4701 186.224 32.616 185.887 32.7843C185.55 32.9526 185.228 33.1377 184.914 33.3397C184.599 33.5416 184.299 33.7632 184.01 34.0016C183.722 34.2401 183.441 34.4953 183.175 34.7702C182.908 35.0451 182.653 35.3368 182.409 35.6454C182.165 35.9539 181.935 36.2765 181.716 36.6131C181.497 36.9497 181.292 37.3031 181.099 37.6678C180.905 38.0325 180.726 38.4139 180.56 38.8066C180.395 39.1993 180.24 39.6089 180.1 40.0296C179.96 40.4532 179.837 40.888 179.73 41.334C179.623 41.78 179.536 42.24 179.466 42.714C179.396 43.1853 179.343 43.6705 179.309 44.167C179.276 44.6663 179.256 45.174 179.256 45.693Z" fill="white"/>
<path d="M209.236 30.0217H210.016H210.795H211.575H212.355L213.752 35.0763L215.149 40.131L216.546 45.1856L217.943 50.2403C218.041 50.5993 218.136 50.9555 218.232 51.309C218.327 51.6624 218.419 52.0158 218.512 52.3637C218.605 52.7143 218.694 53.0593 218.784 53.4071C218.874 53.7522 218.961 54.0972 219.051 54.4366C219.138 54.7788 219.225 55.121 219.309 55.4632C219.396 55.8054 219.483 56.1476 219.57 56.4927C219.656 56.8377 219.743 57.1799 219.83 57.5277C219.917 57.8727 220.004 58.2205 220.088 58.5656H220.153H220.218H220.282H220.347C220.433 58.2177 220.52 57.8727 220.61 57.5277C220.7 57.1827 220.79 56.8377 220.882 56.4927C220.975 56.1476 221.067 55.8054 221.163 55.4632C221.258 55.121 221.354 54.7788 221.452 54.4366C221.55 54.0944 221.648 53.7522 221.743 53.4071C221.842 53.0621 221.94 52.7143 222.035 52.3637C222.133 52.013 222.232 51.6624 222.327 51.309C222.425 50.9555 222.523 50.5993 222.619 50.2403L224.035 45.1856L225.452 40.131L226.868 35.0763L228.285 30.0217H229.146H230.007H230.868H231.729L233.146 35.0763L234.562 40.131L235.979 45.1856L237.395 50.2403C237.494 50.5993 237.592 50.9555 237.687 51.309C237.785 51.6624 237.884 52.0158 237.979 52.3637C238.077 52.7143 238.175 53.0593 238.271 53.4071C238.369 53.7522 238.467 54.0972 238.562 54.4366C238.661 54.7788 238.759 55.121 238.854 55.4632C238.952 55.8054 239.05 56.1476 239.146 56.4927C239.244 56.8377 239.342 57.1799 239.438 57.5277C239.536 57.8727 239.634 58.2205 239.729 58.5656H239.794H239.858H239.923H239.987C240.074 58.2177 240.161 57.8727 240.251 57.5277C240.341 57.1827 240.43 56.8377 240.523 56.4927C240.616 56.1476 240.708 55.8054 240.804 55.4632C240.899 55.121 240.994 54.7788 241.092 54.4366C241.191 54.0944 241.286 53.7522 241.381 53.4071C241.477 53.0621 241.569 52.7143 241.662 52.3637C241.754 52.013 241.844 51.6624 241.934 51.309C242.024 50.9555 242.111 50.5993 242.198 50.2403L243.581 45.1856L244.963 40.131L246.346 35.0763L247.729 30.0217H248.461H249.193H249.925H250.658L248.414 37.8252L246.17 45.6288L243.926 53.4324L241.682 61.2359H240.739H239.797H238.854H237.914L236.548 56.3917L235.182 51.5474L233.816 46.7031L232.45 41.8589C232.332 41.4802 232.217 41.1015 232.108 40.7256C231.999 40.3498 231.892 39.9767 231.794 39.6064C231.693 39.2362 231.597 38.8659 231.508 38.4984C231.418 38.131 231.331 37.7663 231.25 37.4045C231.168 37.0426 231.081 36.6752 230.992 36.3077C230.902 35.9403 230.806 35.57 230.705 35.1997C230.605 34.8295 230.501 34.4536 230.391 34.0805C230.282 33.7075 230.167 33.3288 230.049 32.9501H229.985H229.92H229.856H229.791C229.704 33.3288 229.617 33.7075 229.525 34.0833C229.435 34.462 229.342 34.8379 229.247 35.2138C229.151 35.5896 229.056 35.9655 228.955 36.3414C228.857 36.7173 228.756 37.0903 228.652 37.4662C228.548 37.8393 228.445 38.2151 228.338 38.591C228.231 38.9669 228.122 39.3428 228.013 39.7186C227.9 40.0945 227.788 40.4732 227.673 40.8519C227.558 41.2305 227.44 41.6092 227.32 41.9879L225.971 46.7985L224.621 51.6091L223.272 56.4197L221.923 61.2303H221.062H220.201H219.34H218.478L216.17 53.4268L213.861 45.6232L211.553 37.8196L209.236 30.0217Z" fill="white"/>
<path d="M255.603 45.6928C255.603 45.0533 255.625 44.4306 255.673 43.8219C255.721 43.216 255.791 42.6241 255.886 42.0491C255.982 41.4741 256.099 40.9159 256.242 40.3745C256.385 39.8332 256.551 39.3058 256.739 38.7981C256.93 38.2876 257.134 37.7995 257.356 37.3283C257.578 36.857 257.816 36.4082 258.071 35.9762C258.327 35.5443 258.599 35.1347 258.885 34.742C259.171 34.3493 259.477 33.9791 259.796 33.6256C260.116 33.275 260.447 32.944 260.789 32.6327C261.132 32.3213 261.482 32.0296 261.847 31.7603C262.209 31.4882 262.585 31.2386 262.969 31.0086C263.353 30.7785 263.749 30.5682 264.158 30.3802C264.565 30.1895 264.974 30.024 265.387 29.8809C265.799 29.7379 266.217 29.6201 266.635 29.5247C267.056 29.4293 267.479 29.3592 267.906 29.3115C268.332 29.2638 268.764 29.2414 269.199 29.2414C270.13 29.2414 271.014 29.3199 271.844 29.477C272.677 29.6341 273.457 29.8697 274.189 30.1839C274.921 30.498 275.603 30.8907 276.234 31.362C276.865 31.8332 277.446 32.383 277.976 33.0113C278.506 33.6397 278.972 34.3353 279.37 35.0927C279.768 35.85 280.102 36.6747 280.366 37.5639C280.632 38.4531 280.831 39.4068 280.963 40.425C281.095 41.4432 281.162 42.526 281.162 43.676C281.162 43.7742 281.162 43.8724 281.162 43.9678C281.162 44.0659 281.162 44.1641 281.162 44.2595C281.162 44.3577 281.162 44.4558 281.162 44.5512C281.162 44.6494 281.162 44.7476 281.162 44.8429C281.162 44.9411 281.159 45.0393 281.154 45.1346C281.148 45.2328 281.14 45.331 281.129 45.4264C281.117 45.5245 281.103 45.6227 281.087 45.7181C281.07 45.8163 281.05 45.9144 281.03 46.0098H275.406H269.782H264.158H258.531C258.543 46.4979 258.568 46.9775 258.61 47.446C258.652 47.9172 258.714 48.3772 258.787 48.8317C258.862 49.2833 258.955 49.7293 259.062 50.164C259.171 50.5988 259.294 51.0252 259.435 51.4403C259.575 51.8583 259.729 52.2594 259.9 52.6493C260.071 53.0392 260.254 53.4095 260.453 53.7685C260.652 54.1275 260.862 54.4698 261.09 54.7979C261.317 55.1261 261.558 55.4403 261.813 55.7376C262.068 56.035 262.335 56.3183 262.615 56.5819C262.896 56.8456 263.188 57.0953 263.496 57.3281C263.802 57.5609 264.122 57.7769 264.453 57.9788C264.784 58.178 265.132 58.3631 265.488 58.5314C265.844 58.6997 266.214 58.8456 266.593 58.9718C266.972 59.098 267.362 59.2018 267.763 59.286C268.164 59.3701 268.576 59.4318 268.997 59.4739C269.418 59.516 269.852 59.5356 270.298 59.5356C270.722 59.5356 271.134 59.5188 271.535 59.4879C271.937 59.4571 272.329 59.4094 272.714 59.3477C273.095 59.286 273.468 59.2074 273.83 59.1149C274.192 59.0223 274.542 58.9129 274.885 58.7867C275.227 58.6633 275.561 58.5286 275.892 58.38C276.22 58.2313 276.545 58.0742 276.862 57.9031C277.179 57.732 277.491 57.5497 277.796 57.3561C278.102 57.1626 278.399 56.9578 278.694 56.7418L278.986 57.2944L279.277 57.847L279.569 58.3996L279.861 58.9522C279.547 59.1373 279.224 59.3196 278.893 59.4992C278.562 59.6787 278.225 59.8554 277.883 60.0293C277.541 60.2032 277.188 60.3743 276.829 60.5426C276.469 60.7109 276.102 60.8764 275.729 61.0363C275.356 61.199 274.958 61.3393 274.534 61.4627C274.11 61.5833 273.662 61.6871 273.188 61.7684C272.714 61.8498 272.214 61.9115 271.69 61.9507C271.165 61.9928 270.615 62.0125 270.04 62.0125C269.541 62.0125 269.05 61.99 268.565 61.9423C268.08 61.8946 267.606 61.8273 267.137 61.7348C266.669 61.6422 266.209 61.5272 265.754 61.3897C265.3 61.2523 264.854 61.0896 264.416 60.9045C263.979 60.7221 263.552 60.5146 263.143 60.2902C262.733 60.0658 262.335 59.8161 261.953 59.5496C261.572 59.2804 261.205 58.9914 260.848 58.6829C260.495 58.3715 260.155 58.0433 259.83 57.6899C259.505 57.3365 259.199 56.9662 258.907 56.5763C258.616 56.1864 258.341 55.7769 258.083 55.3477C257.824 54.9186 257.583 54.4726 257.359 54.0069C257.134 53.5413 256.93 53.056 256.739 52.5511C256.548 52.0462 256.383 51.5273 256.242 50.9887C256.102 50.4502 255.982 49.8976 255.886 49.3253C255.791 48.7531 255.721 48.1641 255.673 47.561C255.625 46.9551 255.603 46.3324 255.603 45.6928ZM278.427 43.8079C278.427 42.8009 278.377 41.8556 278.273 40.972C278.169 40.0884 278.015 39.2693 277.81 38.5148C277.606 37.7602 277.347 37.0646 277.039 36.4363C276.73 35.8079 276.371 35.2385 275.959 34.7364C275.547 34.2315 275.098 33.7911 274.613 33.4153C274.127 33.0366 273.606 32.7224 273.047 32.47C272.489 32.2175 271.894 32.0296 271.263 31.9006C270.632 31.7743 269.965 31.7098 269.261 31.7098C268.924 31.7098 268.593 31.7266 268.265 31.7631C267.937 31.7996 267.614 31.8529 267.294 31.923C266.974 31.9931 266.658 32.0829 266.346 32.1895C266.035 32.2961 265.726 32.4195 265.423 32.5597C265.12 32.7 264.826 32.8571 264.537 33.0254C264.248 33.1937 263.967 33.3816 263.693 33.5808C263.418 33.7799 263.151 33.9959 262.893 34.2259C262.635 34.4559 262.383 34.7 262.139 34.9608C261.895 35.2217 261.662 35.4966 261.44 35.7855C261.219 36.0744 261.005 36.3774 260.806 36.6943C260.607 37.0113 260.416 37.3423 260.237 37.6873C260.057 38.0323 259.892 38.3914 259.735 38.7672C259.578 39.1403 259.435 39.5274 259.306 39.9229C259.177 40.3184 259.061 40.728 258.963 41.1487C258.862 41.5695 258.778 41.9986 258.705 42.4418C258.635 42.885 258.576 43.3394 258.534 43.8051H263.507H268.481H273.454H278.427V43.8079Z" fill="white"/>
<path d="M289.614 30.0213H290.231H290.848H291.465H292.082L292.147 31.4687L292.211 32.9161L292.276 34.3635L292.34 35.8109H292.388H292.436H292.483H292.531C292.792 35.3228 293.064 34.8572 293.353 34.4168C293.642 33.9764 293.945 33.5556 294.262 33.1601C294.579 32.7646 294.91 32.3916 295.257 32.0409C295.605 31.6903 295.964 31.3649 296.337 31.0592C296.71 30.7562 297.095 30.4926 297.493 30.2653C297.889 30.0381 298.298 29.8474 298.719 29.6959C299.14 29.5445 299.572 29.4295 300.015 29.3537C300.458 29.278 300.912 29.2387 301.378 29.2387C301.53 29.2387 301.675 29.2415 301.818 29.2471C301.961 29.2527 302.102 29.2612 302.236 29.2696C302.371 29.2808 302.503 29.292 302.632 29.3088C302.758 29.3257 302.882 29.3425 303.002 29.3649C303.12 29.3874 303.241 29.4154 303.364 29.4491C303.485 29.4827 303.608 29.5192 303.734 29.5641C303.858 29.6062 303.984 29.6567 304.113 29.71C304.239 29.7632 304.368 29.8222 304.5 29.8867L304.337 30.5374L304.175 31.1882L304.012 31.839L303.849 32.4897C303.72 32.4364 303.594 32.3887 303.473 32.3439C303.353 32.299 303.235 32.2597 303.12 32.2261C303.005 32.1896 302.896 32.1615 302.789 32.1335C302.682 32.1082 302.581 32.0858 302.483 32.069C302.385 32.0521 302.281 32.0381 302.169 32.0269C302.057 32.0157 301.939 32.0045 301.816 31.996C301.692 31.9876 301.56 31.982 301.423 31.9792C301.285 31.9764 301.14 31.9736 300.991 31.9736C300.643 31.9736 300.292 32.0101 299.936 32.0858C299.58 32.1615 299.218 32.2709 298.854 32.4196C298.489 32.5683 298.116 32.7534 297.743 32.9778C297.37 33.2022 296.988 33.4631 296.604 33.7604C296.22 34.0577 295.844 34.4112 295.479 34.8207C295.114 35.2274 294.761 35.6903 294.416 36.2092C294.071 36.7253 293.737 37.2975 293.415 37.9259C293.092 38.5542 292.778 39.2358 292.475 39.9735V45.289V50.6046V55.9201V61.2356H291.76H291.044H290.329H289.614V53.432V45.6285V37.8249V30.0213Z" fill="white"/>
<path d="M184.693 77.02H188.016L186.997 81.7967C186.513 81.9698 186.039 82.0952 185.576 82.1731C185.117 82.2553 184.602 82.2964 184.031 82.2964C182.902 82.2964 182.026 81.9806 181.403 81.3489C180.78 80.7172 180.468 79.8237 180.468 78.6685C180.468 77.5262 180.689 76.4813 181.13 75.5338C181.576 74.5862 182.203 73.8507 183.012 73.3271C183.826 72.8036 184.75 72.5418 185.784 72.5418C186.264 72.5418 186.725 72.5873 187.166 72.6781C187.607 72.7647 188.051 72.9139 188.496 73.126L187.912 74.4434C187.16 74.0713 186.437 73.8853 185.745 73.8853C185.061 73.8853 184.44 74.0822 183.882 74.4759C183.324 74.8653 182.883 75.4234 182.558 76.1503C182.238 76.8729 182.078 77.6777 182.078 78.5646C182.078 79.3564 182.27 79.9557 182.655 80.3624C183.04 80.7691 183.588 80.9725 184.297 80.9725C184.769 80.9725 185.234 80.9011 185.693 80.7583L186.212 78.3505H184.414L184.693 77.02Z" fill="white"/>
<path d="M191.469 78.3764L190.671 82.1666H189.133L191.138 72.6781H193.332C194.296 72.6781 195.036 72.8837 195.551 73.2947C196.066 73.7014 196.324 74.3288 196.324 75.1768C196.324 75.8907 196.135 76.4943 195.759 76.9876C195.387 77.4765 194.831 77.8334 194.091 78.0584L195.707 82.1666H194.02L192.676 78.3764H191.469ZM191.748 77.0914H192.546C193.282 77.0914 193.831 76.9291 194.195 76.6046C194.558 76.2801 194.74 75.8345 194.74 75.2677C194.74 74.8134 194.612 74.4867 194.357 74.2877C194.102 74.0887 193.706 73.9891 193.169 73.9891H192.397L191.748 77.0914Z" fill="white"/>
<path d="M205.728 76.1828C205.728 77.3899 205.522 78.4651 205.111 79.4083C204.7 80.3516 204.133 81.0698 203.411 81.5631C202.692 82.052 201.857 82.2964 200.905 82.2964C199.785 82.2964 198.917 81.9741 198.303 81.3294C197.689 80.6804 197.381 79.7848 197.381 78.6425C197.381 77.4873 197.593 76.4337 198.017 75.4819C198.446 74.5256 199.03 73.7944 199.77 73.2882C200.51 72.782 201.349 72.5289 202.288 72.5289C203.374 72.5289 204.218 72.8512 204.819 73.4959C205.425 74.1406 205.728 75.0362 205.728 76.1828ZM202.165 73.8593C201.567 73.8593 201.027 74.067 200.542 74.4824C200.057 74.8977 199.677 75.4754 199.4 76.2152C199.127 76.9508 198.991 77.7555 198.991 78.6295C198.991 79.3781 199.166 79.9557 199.517 80.3624C199.871 80.7691 200.365 80.9725 200.996 80.9725C201.593 80.9725 202.13 80.7669 202.606 80.3559C203.086 79.9405 203.458 79.3672 203.722 78.636C203.99 77.9005 204.125 77.0871 204.125 76.1958C204.125 75.4602 203.954 74.8869 203.612 74.4759C203.27 74.0649 202.788 73.8593 202.165 73.8593Z" fill="white"/>
<path d="M214.697 82.1666H213.022L212.782 76.702L212.743 75.5013L212.769 74.8134H212.73C212.527 75.4364 212.274 76.066 211.971 76.702L209.472 82.1666H207.811L207.467 72.6781H208.953L209.076 78.1947C209.076 78.7831 209.048 79.5317 208.992 80.4403H209.031C209.39 79.4841 209.697 78.7161 209.953 78.1363L212.464 72.6781H213.925L214.126 78.1233L214.145 79.2201L214.126 80.4403H214.178C214.299 80.0595 214.45 79.6333 214.632 79.1617C214.814 78.6858 214.946 78.3548 215.028 78.1687L217.351 72.6781H218.948L214.697 82.1666Z" fill="white"/>
<path d="M229.754 82.1666H228.079L227.839 76.702L227.8 75.5013L227.826 74.8134H227.787C227.584 75.4364 227.331 76.066 227.028 76.702L224.529 82.1666H222.868L222.524 72.6781H224.01L224.133 78.1947C224.133 78.7831 224.105 79.5317 224.049 80.4403H224.088C224.447 79.4841 224.754 78.7161 225.01 78.1363L227.521 72.6781H228.982L229.183 78.1233L229.202 79.2201L229.183 80.4403H229.235C229.356 80.0595 229.507 79.6333 229.689 79.1617C229.871 78.6858 230.003 78.3548 230.085 78.1687L232.408 72.6781H234.005L229.754 82.1666Z" fill="white"/>
<path d="M233.265 82.1666L235.283 72.6781H236.809L234.79 82.1666H233.265Z" fill="white"/>
<path d="M240.183 82.1666H238.645L240.359 74.0086H237.899L238.191 72.6781H244.668L244.389 74.0086H241.916L240.183 82.1666Z" fill="white"/>
<path d="M250.801 82.1666H249.257L250.165 77.8897H246.492L245.59 82.1666H244.051L246.057 72.6781H247.595L246.771 76.5592H250.444L251.268 72.6781H252.807L250.801 82.1666Z" fill="white"/>
<path d="M263.95 82.1666H262.263L259.602 74.6187H259.563L259.498 75.0665C259.394 75.7112 259.316 76.172 259.264 76.4489C259.217 76.7215 258.821 78.6274 258.077 82.1666H256.655L258.661 72.6781H260.4L262.99 80.1352H263.035C263.061 79.9016 263.128 79.4862 263.236 78.8891C263.344 78.2877 263.431 77.8464 263.496 77.5652L264.534 72.6781H265.955L263.95 82.1666Z" fill="white"/>
<path d="M271.264 79.5317H268.117L266.76 82.1666H265.112L270.193 72.6652H271.972L273.049 82.1666H271.53L271.264 79.5317ZM271.16 78.1817C270.987 76.3818 270.888 75.2936 270.862 74.9172C270.84 74.5365 270.83 74.2336 270.83 74.0086C270.592 74.61 270.284 75.2742 269.908 76.0011L268.792 78.1817H271.16Z" fill="white"/>
<path d="M277.177 82.1666H275.639L277.352 74.0086H274.892L275.184 72.6781H281.661L281.382 74.0086H278.91L277.177 82.1666Z" fill="white"/>
<path d="M289.8 72.6781L288.489 78.8827C288.247 80.0379 287.797 80.8967 287.139 81.4592C286.481 82.0174 285.61 82.2964 284.524 82.2964C283.585 82.2964 282.858 82.0671 282.343 81.6085C281.832 81.1499 281.577 80.49 281.577 79.629C281.577 79.2699 281.62 78.9021 281.707 78.5257L282.959 72.6781H284.498L283.251 78.5517C283.161 78.9324 283.115 79.2742 283.115 79.5771C283.115 80.0184 283.243 80.3624 283.498 80.609C283.758 80.8513 284.149 80.9725 284.673 80.9725C285.3 80.9725 285.798 80.7994 286.166 80.4533C286.533 80.1028 286.802 79.536 286.97 78.7529L288.262 72.6781H289.8Z" fill="white"/>
<path d="M292.467 78.3764L291.669 82.1666H290.131L292.136 72.6781H294.33C295.295 72.6781 296.035 72.8837 296.55 73.2947C297.065 73.7014 297.322 74.3288 297.322 75.1768C297.322 75.8907 297.134 76.4943 296.757 76.9876C296.385 77.4765 295.829 77.8334 295.089 78.0584L296.705 82.1666H295.018L293.675 78.3764H292.467ZM292.746 77.0914H293.545C294.28 77.0914 294.83 76.9291 295.193 76.6046C295.557 76.2801 295.738 75.8345 295.738 75.2677C295.738 74.8134 295.611 74.4867 295.355 74.2877C295.1 74.0887 294.704 73.9891 294.168 73.9891H293.395L292.746 77.0914Z" fill="white"/>
<path d="M302.994 82.1666H297.958L299.963 72.6781H305L304.721 74.0086H301.223L300.677 76.5722H303.935L303.669 77.8897H300.398L299.775 80.8491H303.273L302.994 82.1666Z" fill="white"/>
</svg>
