<svg width="30" height="30" viewBox="0 0 30 30" fill="none" xmlns="http://www.w3.org/2000/svg">
<rect width="30" height="30" fill="white"/>
<path d="M30 30H22.5H15H7.5H0V22.5003V15.0005V7.49975V0H7.5H15H22.5H30V7.49975V14.9995V22.4992V30ZM0.252287 29.7477H7.62614H15H22.3739H29.7477V22.3741V15.0005V7.62589V0.252279H22.3739H15H7.62614H0.252287V7.62589V14.9995V22.3731V29.7477Z" fill="#4D4D4D"/>
<path d="M14.878 19.308C14.297 19.308 13.764 19.263 13.279 19.173C12.794 19.083 12.359 18.948 11.972 18.768C11.585 18.588 11.248 18.364 10.961 18.096C10.674 17.828 10.437 17.515 10.25 17.158C9.69699 16.1 9.66699 14.747 9.93799 13.306C10.209 11.865 10.781 10.337 11.429 8.93C12.077 7.523 12.804 6.235 13.385 5.276C13.966 4.317 14.4 3.686 14.466 3.592L14.569 3.444L14.672 3.296L14.775 3.148L14.878 3L14.981 3.148L15.084 3.296L15.187 3.444L15.29 3.592C15.356 3.687 15.79 4.318 16.37 5.278C16.95 6.238 17.676 7.526 18.324 8.934C18.972 10.342 19.544 11.87 19.815 13.31C20.086 14.75 20.057 16.102 19.505 17.158C19.319 17.515 19.082 17.827 18.794 18.096C18.506 18.365 18.17 18.588 17.783 18.768C17.396 18.948 16.961 19.082 16.476 19.173C15.991 19.264 15.46 19.308 14.878 19.308ZM14.878 3.528L14.837 3.587L14.796 3.646L14.755 3.705L14.714 3.764C14.649 3.857 14.221 4.478 13.649 5.42C13.077 6.362 12.362 7.625 11.72 9.005C11.078 10.385 10.512 11.879 10.238 13.284C9.96399 14.689 9.98499 16.003 10.517 17.021C10.689 17.351 10.911 17.64 11.18 17.888C11.449 18.136 11.766 18.344 12.13 18.51C12.494 18.676 12.906 18.801 13.364 18.884C13.822 18.967 14.327 19.009 14.878 19.009C15.429 19.009 15.934 18.967 16.392 18.884C16.85 18.801 17.262 18.676 17.626 18.51C17.99 18.344 18.307 18.137 18.576 17.888C18.845 17.639 19.066 17.351 19.239 17.021C19.77 16.005 19.79 14.692 19.516 13.288C19.242 11.884 18.676 10.389 18.034 9.009C17.392 7.629 16.677 6.365 16.106 5.422C15.535 4.479 15.107 3.858 15.042 3.765L15.002 3.705L14.96 3.646L14.919 3.587L14.878 3.528Z" fill="#4D4D4D"/>
<path d="M14.1816 12.449C14.1816 12.333 14.1696 12.223 14.1456 12.119C14.1216 12.015 14.0836 11.925 14.0316 11.849C13.9796 11.773 13.9116 11.713 13.8276 11.669C13.7476 11.625 13.6516 11.603 13.5396 11.603C13.4236 11.603 13.3256 11.625 13.2456 11.669C13.1656 11.713 13.0996 11.773 13.0476 11.849C12.9996 11.925 12.9636 12.015 12.9396 12.119C12.9156 12.223 12.9036 12.333 12.9036 12.449C12.9036 12.565 12.9156 12.675 12.9396 12.779C12.9636 12.883 13.0016 12.973 13.0536 13.049C13.1056 13.125 13.1716 13.185 13.2516 13.229C13.3316 13.273 13.4296 13.295 13.5456 13.295C13.6576 13.295 13.7536 13.273 13.8336 13.229C13.9176 13.185 13.9836 13.125 14.0316 13.049C14.0836 12.973 14.1216 12.883 14.1456 12.779C14.1696 12.675 14.1816 12.565 14.1816 12.449ZM17.0616 14.633C17.0616 14.517 17.0496 14.407 17.0256 14.303C17.0016 14.199 16.9636 14.109 16.9116 14.033C16.8636 13.957 16.7976 13.897 16.7136 13.853C16.6336 13.809 16.5376 13.787 16.4256 13.787C16.3096 13.787 16.2116 13.809 16.1316 13.853C16.0516 13.897 15.9856 13.957 15.9336 14.033C15.8816 14.109 15.8436 14.199 15.8196 14.303C15.7956 14.407 15.7836 14.517 15.7836 14.633C15.7836 14.749 15.7956 14.859 15.8196 14.963C15.8436 15.067 15.8816 15.157 15.9336 15.233C15.9856 15.309 16.0516 15.369 16.1316 15.413C16.2116 15.457 16.3096 15.479 16.4256 15.479C16.5376 15.479 16.6336 15.457 16.7136 15.413C16.7976 15.369 16.8636 15.309 16.9116 15.233C16.9636 15.157 17.0016 15.067 17.0256 14.963C17.0496 14.859 17.0616 14.749 17.0616 14.633ZM14.4576 12.449C14.4576 12.589 14.4416 12.723 14.4096 12.851C14.3816 12.979 14.3316 13.095 14.2596 13.199C14.1836 13.303 14.0856 13.391 13.9656 13.463C13.8496 13.531 13.7096 13.565 13.5456 13.565C13.3816 13.565 13.2396 13.531 13.1196 13.463C12.9996 13.391 12.9016 13.303 12.8256 13.199C12.7536 13.095 12.7036 12.979 12.6756 12.851C12.6476 12.723 12.6336 12.589 12.6336 12.449C12.6336 12.309 12.6476 12.175 12.6756 12.047C12.7036 11.919 12.7536 11.803 12.8256 11.699C12.9016 11.595 12.9976 11.509 13.1136 11.441C13.2336 11.369 13.3756 11.333 13.5396 11.333C13.7036 11.333 13.8456 11.367 13.9656 11.435C14.0856 11.503 14.1836 11.591 14.2596 11.699C14.3316 11.803 14.3816 11.919 14.4096 12.047C14.4416 12.175 14.4576 12.309 14.4576 12.449ZM13.5336 15.737L13.3236 15.575L16.4256 11.351L16.6416 11.501L13.5336 15.737ZM17.3376 14.633C17.3376 14.773 17.3216 14.907 17.2896 15.035C17.2616 15.163 17.2116 15.279 17.1396 15.383C17.0636 15.487 16.9656 15.575 16.8456 15.647C16.7296 15.715 16.5896 15.749 16.4256 15.749C16.2616 15.749 16.1196 15.715 15.9996 15.647C15.8836 15.575 15.7876 15.487 15.7116 15.383C15.6396 15.279 15.5876 15.163 15.5556 15.035C15.5276 14.907 15.5136 14.773 15.5136 14.633C15.5136 14.493 15.5276 14.359 15.5556 14.231C15.5876 14.103 15.6396 13.987 15.7116 13.883C15.7876 13.779 15.8836 13.693 15.9996 13.625C16.1196 13.553 16.2616 13.517 16.4256 13.517C16.5896 13.517 16.7296 13.551 16.8456 13.619C16.9656 13.687 17.0636 13.775 17.1396 13.883C17.2116 13.987 17.2616 14.103 17.2896 14.231C17.3216 14.359 17.3376 14.493 17.3376 14.633Z" fill="#4D4D4D"/>
<path d="M7.6191 23.87V24.665H7.3641V23.87H5.7241V23.595L7.1391 21.19H7.4241L5.9941 23.62H7.3641V22.545H7.6191V23.62H8.1041V23.87H7.6191ZM10.8359 23.575C10.8359 23.7383 10.8142 23.89 10.7709 24.03C10.7276 24.17 10.6609 24.2933 10.5709 24.4C10.4842 24.5033 10.3726 24.585 10.2359 24.645C10.1026 24.705 9.9459 24.735 9.7659 24.735C9.60257 24.735 9.45423 24.7083 9.3209 24.655C9.1909 24.5983 9.07757 24.5217 8.9809 24.425C8.88757 24.3283 8.81423 24.215 8.7609 24.085C8.7109 23.955 8.68423 23.8133 8.6809 23.66H8.9359C8.93923 23.7833 8.9609 23.8967 9.0009 24C9.04423 24.1033 9.1009 24.1917 9.1709 24.265C9.2409 24.3383 9.3259 24.395 9.4259 24.435C9.5259 24.475 9.63923 24.495 9.7659 24.495C10.0392 24.495 10.2426 24.41 10.3759 24.24C10.5126 24.07 10.5809 23.8483 10.5809 23.575C10.5809 23.4483 10.5659 23.33 10.5359 23.22C10.5059 23.1067 10.4592 23.0083 10.3959 22.925C10.3326 22.8417 10.2509 22.7767 10.1509 22.73C10.0542 22.68 9.93923 22.655 9.8059 22.655C9.6559 22.655 9.51423 22.6867 9.3809 22.75C9.24757 22.81 9.1409 22.905 9.0609 23.035H8.7509L8.8309 21.19H10.7209V21.425H9.0709L9.0009 22.805C9.08757 22.665 9.20423 22.5667 9.3509 22.51C9.49757 22.45 9.64923 22.42 9.8059 22.42C9.97923 22.42 10.1292 22.45 10.2559 22.51C10.3859 22.5667 10.4926 22.6467 10.5759 22.75C10.6626 22.8533 10.7276 22.9767 10.7709 23.12C10.8142 23.26 10.8359 23.4117 10.8359 23.575ZM13.8227 23.11C13.7294 23.2 13.6327 23.275 13.5327 23.335C13.4327 23.3917 13.3144 23.42 13.1777 23.42C13.0877 23.42 13.001 23.405 12.9177 23.375C12.8377 23.3417 12.7577 23.3067 12.6777 23.27C12.601 23.2333 12.5227 23.2 12.4427 23.17C12.366 23.1367 12.2844 23.12 12.1977 23.12C12.0977 23.12 12.0094 23.1417 11.9327 23.185C11.856 23.2283 11.7827 23.2833 11.7127 23.35L11.5527 23.165C11.646 23.075 11.7427 23.0017 11.8427 22.945C11.946 22.8883 12.066 22.86 12.2027 22.86C12.2927 22.86 12.3777 22.875 12.4577 22.905C12.541 22.9317 12.6227 22.9633 12.7027 23C12.7794 23.0367 12.856 23.07 12.9327 23.1C13.0094 23.13 13.091 23.145 13.1777 23.145C13.2777 23.145 13.3644 23.1267 13.4377 23.09C13.5144 23.05 13.5894 22.9967 13.6627 22.93L13.8227 23.11ZM16.3983 22.295C16.3983 22.175 16.3816 22.06 16.3483 21.95C16.3149 21.8367 16.2649 21.7367 16.1983 21.65C16.1316 21.56 16.0483 21.49 15.9483 21.44C15.8483 21.3867 15.7316 21.36 15.5983 21.36C15.4549 21.36 15.3316 21.3867 15.2283 21.44C15.1283 21.49 15.0449 21.5583 14.9783 21.645C14.9116 21.7283 14.8616 21.8267 14.8283 21.94C14.7983 22.05 14.7833 22.165 14.7833 22.285C14.7833 22.405 14.7983 22.5217 14.8283 22.635C14.8616 22.745 14.9116 22.8433 14.9783 22.93C15.0449 23.0133 15.1299 23.0817 15.2333 23.135C15.3366 23.185 15.4599 23.21 15.6033 23.21C15.7166 23.21 15.8166 23.1917 15.9033 23.155C15.9899 23.115 16.0666 23.0633 16.1333 23C16.3099 22.83 16.3983 22.595 16.3983 22.295ZM16.7183 22.93C16.7183 23.0633 16.7149 23.2 16.7083 23.34C16.7016 23.4767 16.6866 23.61 16.6633 23.74C16.6399 23.87 16.6049 23.9933 16.5583 24.11C16.5116 24.2267 16.4483 24.33 16.3683 24.42C16.2883 24.5067 16.1883 24.58 16.0683 24.64C15.9483 24.7 15.8016 24.73 15.6283 24.73C15.4883 24.73 15.3583 24.7083 15.2383 24.665C15.1216 24.6217 15.0183 24.5617 14.9283 24.485C14.8383 24.405 14.7666 24.31 14.7133 24.2C14.6599 24.0867 14.6299 23.9617 14.6233 23.825H14.8833C14.8966 24.025 14.9683 24.1867 15.0983 24.31C15.2316 24.43 15.4083 24.49 15.6283 24.49C15.7549 24.49 15.8633 24.4717 15.9533 24.435C16.0433 24.395 16.1183 24.3417 16.1783 24.275C16.2516 24.195 16.3066 24.0983 16.3433 23.985C16.3833 23.8717 16.4116 23.7517 16.4283 23.625C16.4449 23.4983 16.4533 23.3717 16.4533 23.245C16.4566 23.1183 16.4583 23.0017 16.4583 22.895C16.3883 23.055 16.2783 23.1867 16.1283 23.29C15.9783 23.39 15.8049 23.44 15.6083 23.44C15.4383 23.44 15.2849 23.4117 15.1483 23.355C15.0149 23.2983 14.9016 23.22 14.8083 23.12C14.7183 23.0167 14.6483 22.895 14.5983 22.755C14.5516 22.6117 14.5283 22.455 14.5283 22.285C14.5283 22.125 14.5516 21.975 14.5983 21.835C14.6483 21.695 14.7183 21.5717 14.8083 21.465C14.9016 21.3583 15.0149 21.275 15.1483 21.215C15.2816 21.1517 15.4333 21.12 15.6033 21.12C15.7966 21.12 15.9633 21.1633 16.1033 21.25C16.2466 21.3333 16.3566 21.43 16.4333 21.54C16.4966 21.63 16.5466 21.73 16.5833 21.84C16.6233 21.9467 16.6533 22.0617 16.6733 22.185C16.6933 22.305 16.7049 22.4283 16.7083 22.555C16.7149 22.6817 16.7183 22.8067 16.7183 22.93ZM19.3601 22.925C19.3601 22.8117 19.3567 22.6917 19.3501 22.565C19.3467 22.4383 19.3351 22.3133 19.3151 22.19C19.2951 22.0667 19.2634 21.95 19.2201 21.84C19.1767 21.73 19.1151 21.6367 19.0351 21.56C18.9717 21.5 18.8967 21.4517 18.8101 21.415C18.7267 21.3783 18.6234 21.36 18.5001 21.36C18.3767 21.36 18.2717 21.3783 18.1851 21.415C18.1017 21.4517 18.0284 21.5 17.9651 21.56C17.8851 21.6367 17.8234 21.73 17.7801 21.84C17.7367 21.95 17.7051 22.0667 17.6851 22.19C17.6651 22.3133 17.6517 22.4383 17.6451 22.565C17.6417 22.6917 17.6401 22.8117 17.6401 22.925C17.6401 23.0383 17.6417 23.1583 17.6451 23.285C17.6517 23.4117 17.6651 23.5367 17.6851 23.66C17.7051 23.7833 17.7367 23.9 17.7801 24.01C17.8234 24.12 17.8851 24.2133 17.9651 24.29C18.0284 24.35 18.1017 24.3983 18.1851 24.435C18.2717 24.4717 18.3767 24.49 18.5001 24.49C18.6234 24.49 18.7267 24.4717 18.8101 24.435C18.8967 24.3983 18.9717 24.35 19.0351 24.29C19.1151 24.2133 19.1767 24.12 19.2201 24.01C19.2634 23.9 19.2951 23.7833 19.3151 23.66C19.3351 23.5367 19.3467 23.4117 19.3501 23.285C19.3567 23.1583 19.3601 23.0383 19.3601 22.925ZM19.6151 22.925C19.6151 23.0617 19.6101 23.2017 19.6001 23.345C19.5934 23.4883 19.5751 23.6283 19.5451 23.765C19.5151 23.8983 19.4734 24.025 19.4201 24.145C19.3667 24.2617 19.2951 24.3633 19.2051 24.45C19.1251 24.5267 19.0267 24.5933 18.9101 24.65C18.7967 24.7033 18.6601 24.73 18.5001 24.73C18.3401 24.73 18.2017 24.7033 18.0851 24.65C17.9717 24.5933 17.8751 24.5267 17.7951 24.45C17.7051 24.3633 17.6334 24.2617 17.5801 24.145C17.5267 24.025 17.4851 23.8983 17.4551 23.765C17.4251 23.6283 17.4051 23.4883 17.3951 23.345C17.3884 23.2017 17.3851 23.0617 17.3851 22.925C17.3851 22.7883 17.3884 22.6483 17.3951 22.505C17.4051 22.3617 17.4251 22.2233 17.4551 22.09C17.4851 21.9533 17.5267 21.8267 17.5801 21.71C17.6334 21.59 17.7051 21.4867 17.7951 21.4C17.8751 21.3233 17.9717 21.2583 18.0851 21.205C18.2017 21.1483 18.3401 21.12 18.5001 21.12C18.6601 21.12 18.7967 21.1483 18.9101 21.205C19.0267 21.2583 19.1251 21.3233 19.2051 21.4C19.2951 21.4867 19.3667 21.59 19.4201 21.71C19.4734 21.8267 19.5151 21.9533 19.5451 22.09C19.5751 22.2233 19.5934 22.3617 19.6001 22.505C19.6101 22.6483 19.6151 22.7883 19.6151 22.925ZM21.5519 21.985C21.5519 21.8883 21.5419 21.7967 21.5219 21.71C21.5019 21.6233 21.4702 21.5483 21.4269 21.485C21.3835 21.4217 21.3269 21.3717 21.2569 21.335C21.1902 21.2983 21.1102 21.28 21.0169 21.28C20.9202 21.28 20.8385 21.2983 20.7719 21.335C20.7052 21.3717 20.6502 21.4217 20.6069 21.485C20.5669 21.5483 20.5369 21.6233 20.5169 21.71C20.4969 21.7967 20.4869 21.8883 20.4869 21.985C20.4869 22.0817 20.4969 22.1733 20.5169 22.26C20.5369 22.3467 20.5685 22.4217 20.6119 22.485C20.6552 22.5483 20.7102 22.5983 20.7769 22.635C20.8435 22.6717 20.9252 22.69 21.0219 22.69C21.1152 22.69 21.1952 22.6717 21.2619 22.635C21.3319 22.5983 21.3869 22.5483 21.4269 22.485C21.4702 22.4217 21.5019 22.3467 21.5219 22.26C21.5419 22.1733 21.5519 22.0817 21.5519 21.985ZM23.9519 23.805C23.9519 23.7083 23.9419 23.6167 23.9219 23.53C23.9019 23.4433 23.8702 23.3683 23.8269 23.305C23.7869 23.2417 23.7319 23.1917 23.6619 23.155C23.5952 23.1183 23.5152 23.1 23.4219 23.1C23.3252 23.1 23.2435 23.1183 23.1769 23.155C23.1102 23.1917 23.0552 23.2417 23.0119 23.305C22.9685 23.3683 22.9369 23.4433 22.9169 23.53C22.8969 23.6167 22.8869 23.7083 22.8869 23.805C22.8869 23.9017 22.8969 23.9933 22.9169 24.08C22.9369 24.1667 22.9685 24.2417 23.0119 24.305C23.0552 24.3683 23.1102 24.4183 23.1769 24.455C23.2435 24.4917 23.3252 24.51 23.4219 24.51C23.5152 24.51 23.5952 24.4917 23.6619 24.455C23.7319 24.4183 23.7869 24.3683 23.8269 24.305C23.8702 24.2417 23.9019 24.1667 23.9219 24.08C23.9419 23.9933 23.9519 23.9017 23.9519 23.805ZM21.7819 21.985C21.7819 22.1017 21.7685 22.2133 21.7419 22.32C21.7185 22.4267 21.6769 22.5233 21.6169 22.61C21.5535 22.6967 21.4719 22.77 21.3719 22.83C21.2752 22.8867 21.1585 22.915 21.0219 22.915C20.8852 22.915 20.7669 22.8867 20.6669 22.83C20.5669 22.77 20.4852 22.6967 20.4219 22.61C20.3619 22.5233 20.3202 22.4267 20.2969 22.32C20.2735 22.2133 20.2619 22.1017 20.2619 21.985C20.2619 21.8683 20.2735 21.7567 20.2969 21.65C20.3202 21.5433 20.3619 21.4467 20.4219 21.36C20.4852 21.2733 20.5652 21.2017 20.6619 21.145C20.7619 21.085 20.8802 21.055 21.0169 21.055C21.1535 21.055 21.2719 21.0833 21.3719 21.14C21.4719 21.1967 21.5535 21.27 21.6169 21.36C21.6769 21.4467 21.7185 21.5433 21.7419 21.65C21.7685 21.7567 21.7819 21.8683 21.7819 21.985ZM21.0119 24.725L20.8369 24.59L23.4219 21.07L23.6019 21.195L21.0119 24.725ZM24.1819 23.805C24.1819 23.9217 24.1685 24.0333 24.1419 24.14C24.1185 24.2467 24.0769 24.3433 24.0169 24.43C23.9535 24.5167 23.8719 24.59 23.7719 24.65C23.6752 24.7067 23.5585 24.735 23.4219 24.735C23.2852 24.735 23.1669 24.7067 23.0669 24.65C22.9702 24.59 22.8902 24.5167 22.8269 24.43C22.7669 24.3433 22.7235 24.2467 22.6969 24.14C22.6735 24.0333 22.6619 23.9217 22.6619 23.805C22.6619 23.6883 22.6735 23.5767 22.6969 23.47C22.7235 23.3633 22.7669 23.2667 22.8269 23.18C22.8902 23.0933 22.9702 23.0217 23.0669 22.965C23.1669 22.905 23.2852 22.875 23.4219 22.875C23.5585 22.875 23.6752 22.9033 23.7719 22.96C23.8719 23.0167 23.9535 23.09 24.0169 23.18C24.0769 23.2667 24.1185 23.3633 24.1419 23.47C24.1685 23.5767 24.1819 23.6883 24.1819 23.805Z" fill="#4D4D4D"/>
</svg>
