<svg width="30" height="30" viewBox="0 0 30 30" fill="none" xmlns="http://www.w3.org/2000/svg">
<rect width="30" height="30" fill="white"/>
<path d="M30 30H22.5H15H7.5H0V22.5003V15.0005V7.49975V0H7.5H15H22.5H30V7.49975V14.9995V22.4992V30ZM0.252287 29.7477H7.62614H15H22.3739H29.7477V22.3741V15.0005V7.62589V0.252279H22.3739H15H7.62614H0.252287V7.62589V14.9995V22.3731V29.7477Z" fill="#4D4D4D"/>
<path d="M14.878 19.308C14.297 19.308 13.764 19.263 13.279 19.173C12.794 19.083 12.359 18.948 11.972 18.768C11.585 18.588 11.248 18.364 10.961 18.096C10.674 17.828 10.437 17.515 10.25 17.158C9.69699 16.1 9.66699 14.747 9.93799 13.306C10.209 11.865 10.781 10.337 11.429 8.93C12.077 7.523 12.804 6.235 13.385 5.276C13.966 4.317 14.4 3.686 14.466 3.592L14.569 3.444L14.672 3.296L14.775 3.148L14.878 3L14.981 3.148L15.084 3.296L15.187 3.444L15.29 3.592C15.356 3.687 15.79 4.318 16.37 5.278C16.95 6.238 17.676 7.526 18.324 8.934C18.972 10.342 19.544 11.87 19.815 13.31C20.086 14.75 20.057 16.102 19.505 17.158C19.319 17.515 19.082 17.827 18.794 18.096C18.506 18.365 18.17 18.588 17.783 18.768C17.396 18.948 16.961 19.082 16.476 19.173C15.991 19.264 15.46 19.308 14.878 19.308ZM14.878 3.528L14.837 3.587L14.796 3.646L14.755 3.705L14.714 3.764C14.649 3.857 14.221 4.478 13.649 5.42C13.077 6.362 12.362 7.625 11.72 9.005C11.078 10.385 10.512 11.879 10.238 13.284C9.96399 14.689 9.98499 16.003 10.517 17.021C10.689 17.351 10.911 17.64 11.18 17.888C11.449 18.136 11.766 18.344 12.13 18.51C12.494 18.676 12.906 18.801 13.364 18.884C13.822 18.967 14.327 19.009 14.878 19.009C15.429 19.009 15.934 18.967 16.392 18.884C16.85 18.801 17.262 18.676 17.626 18.51C17.99 18.344 18.307 18.137 18.576 17.888C18.845 17.639 19.066 17.351 19.239 17.021C19.77 16.005 19.79 14.692 19.516 13.288C19.242 11.884 18.676 10.389 18.034 9.009C17.392 7.629 16.677 6.365 16.106 5.422C15.535 4.479 15.107 3.858 15.042 3.765L15.002 3.705L14.96 3.646L14.919 3.587L14.878 3.528Z" fill="#4D4D4D"/>
<path d="M14.1816 12.449C14.1816 12.333 14.1696 12.223 14.1456 12.119C14.1216 12.015 14.0836 11.925 14.0316 11.849C13.9796 11.773 13.9116 11.713 13.8276 11.669C13.7476 11.625 13.6516 11.603 13.5396 11.603C13.4236 11.603 13.3256 11.625 13.2456 11.669C13.1656 11.713 13.0996 11.773 13.0476 11.849C12.9996 11.925 12.9636 12.015 12.9396 12.119C12.9156 12.223 12.9036 12.333 12.9036 12.449C12.9036 12.565 12.9156 12.675 12.9396 12.779C12.9636 12.883 13.0016 12.973 13.0536 13.049C13.1056 13.125 13.1716 13.185 13.2516 13.229C13.3316 13.273 13.4296 13.295 13.5456 13.295C13.6576 13.295 13.7536 13.273 13.8336 13.229C13.9176 13.185 13.9836 13.125 14.0316 13.049C14.0836 12.973 14.1216 12.883 14.1456 12.779C14.1696 12.675 14.1816 12.565 14.1816 12.449ZM17.0616 14.633C17.0616 14.517 17.0496 14.407 17.0256 14.303C17.0016 14.199 16.9636 14.109 16.9116 14.033C16.8636 13.957 16.7976 13.897 16.7136 13.853C16.6336 13.809 16.5376 13.787 16.4256 13.787C16.3096 13.787 16.2116 13.809 16.1316 13.853C16.0516 13.897 15.9856 13.957 15.9336 14.033C15.8816 14.109 15.8436 14.199 15.8196 14.303C15.7956 14.407 15.7836 14.517 15.7836 14.633C15.7836 14.749 15.7956 14.859 15.8196 14.963C15.8436 15.067 15.8816 15.157 15.9336 15.233C15.9856 15.309 16.0516 15.369 16.1316 15.413C16.2116 15.457 16.3096 15.479 16.4256 15.479C16.5376 15.479 16.6336 15.457 16.7136 15.413C16.7976 15.369 16.8636 15.309 16.9116 15.233C16.9636 15.157 17.0016 15.067 17.0256 14.963C17.0496 14.859 17.0616 14.749 17.0616 14.633ZM14.4576 12.449C14.4576 12.589 14.4416 12.723 14.4096 12.851C14.3816 12.979 14.3316 13.095 14.2596 13.199C14.1836 13.303 14.0856 13.391 13.9656 13.463C13.8496 13.531 13.7096 13.565 13.5456 13.565C13.3816 13.565 13.2396 13.531 13.1196 13.463C12.9996 13.391 12.9016 13.303 12.8256 13.199C12.7536 13.095 12.7036 12.979 12.6756 12.851C12.6476 12.723 12.6336 12.589 12.6336 12.449C12.6336 12.309 12.6476 12.175 12.6756 12.047C12.7036 11.919 12.7536 11.803 12.8256 11.699C12.9016 11.595 12.9976 11.509 13.1136 11.441C13.2336 11.369 13.3756 11.333 13.5396 11.333C13.7036 11.333 13.8456 11.367 13.9656 11.435C14.0856 11.503 14.1836 11.591 14.2596 11.699C14.3316 11.803 14.3816 11.919 14.4096 12.047C14.4416 12.175 14.4576 12.309 14.4576 12.449ZM13.5336 15.737L13.3236 15.575L16.4256 11.351L16.6416 11.501L13.5336 15.737ZM17.3376 14.633C17.3376 14.773 17.3216 14.907 17.2896 15.035C17.2616 15.163 17.2116 15.279 17.1396 15.383C17.0636 15.487 16.9656 15.575 16.8456 15.647C16.7296 15.715 16.5896 15.749 16.4256 15.749C16.2616 15.749 16.1196 15.715 15.9996 15.647C15.8836 15.575 15.7876 15.487 15.7116 15.383C15.6396 15.279 15.5876 15.163 15.5556 15.035C15.5276 14.907 15.5136 14.773 15.5136 14.633C15.5136 14.493 15.5276 14.359 15.5556 14.231C15.5876 14.103 15.6396 13.987 15.7116 13.883C15.7876 13.779 15.8836 13.693 15.9996 13.625C16.1196 13.553 16.2616 13.517 16.4256 13.517C16.5896 13.517 16.7296 13.551 16.8456 13.619C16.9656 13.687 17.0636 13.775 17.1396 13.883C17.2116 13.987 17.2616 14.103 17.2896 14.231C17.3216 14.359 17.3376 14.493 17.3376 14.633Z" fill="#4D4D4D"/>
<path d="M10.4834 24.0693L8.12744 23.0341V22.7851L10.4834 21.6108V21.999L8.59863 22.8901L10.4834 23.6811V24.0693ZM8.12744 24.665V24.311H10.4834V24.665H8.12744ZM13.974 22.295C13.974 22.175 13.9573 22.06 13.924 21.95C13.8906 21.8367 13.8406 21.7367 13.774 21.65C13.7073 21.56 13.624 21.49 13.524 21.44C13.424 21.3867 13.3073 21.36 13.174 21.36C13.0306 21.36 12.9073 21.3867 12.804 21.44C12.704 21.49 12.6206 21.5583 12.554 21.645C12.4873 21.7283 12.4373 21.8267 12.404 21.94C12.374 22.05 12.359 22.165 12.359 22.285C12.359 22.405 12.374 22.5217 12.404 22.635C12.4373 22.745 12.4873 22.8433 12.554 22.93C12.6206 23.0133 12.7056 23.0817 12.809 23.135C12.9123 23.185 13.0356 23.21 13.179 23.21C13.2923 23.21 13.3923 23.1917 13.479 23.155C13.5656 23.115 13.6423 23.0633 13.709 23C13.8856 22.83 13.974 22.595 13.974 22.295ZM14.294 22.93C14.294 23.0633 14.2906 23.2 14.284 23.34C14.2773 23.4767 14.2623 23.61 14.239 23.74C14.2156 23.87 14.1806 23.9933 14.134 24.11C14.0873 24.2267 14.024 24.33 13.944 24.42C13.864 24.5067 13.764 24.58 13.644 24.64C13.524 24.7 13.3773 24.73 13.204 24.73C13.064 24.73 12.934 24.7083 12.814 24.665C12.6973 24.6217 12.594 24.5617 12.504 24.485C12.414 24.405 12.3423 24.31 12.289 24.2C12.2356 24.0867 12.2056 23.9617 12.199 23.825H12.459C12.4723 24.025 12.544 24.1867 12.674 24.31C12.8073 24.43 12.984 24.49 13.204 24.49C13.3306 24.49 13.439 24.4717 13.529 24.435C13.619 24.395 13.694 24.3417 13.754 24.275C13.8273 24.195 13.8823 24.0983 13.919 23.985C13.959 23.8717 13.9873 23.7517 14.004 23.625C14.0206 23.4983 14.029 23.3717 14.029 23.245C14.0323 23.1183 14.034 23.0017 14.034 22.895C13.964 23.055 13.854 23.1867 13.704 23.29C13.554 23.39 13.3806 23.44 13.184 23.44C13.014 23.44 12.8606 23.4117 12.724 23.355C12.5906 23.2983 12.4773 23.22 12.384 23.12C12.294 23.0167 12.224 22.895 12.174 22.755C12.1273 22.6117 12.104 22.455 12.104 22.285C12.104 22.125 12.1273 21.975 12.174 21.835C12.224 21.695 12.294 21.5717 12.384 21.465C12.4773 21.3583 12.5906 21.275 12.724 21.215C12.8573 21.1517 13.009 21.12 13.179 21.12C13.3723 21.12 13.539 21.1633 13.679 21.25C13.8223 21.3333 13.9323 21.43 14.009 21.54C14.0723 21.63 14.1223 21.73 14.159 21.84C14.199 21.9467 14.229 22.0617 14.249 22.185C14.269 22.305 14.2806 22.4283 14.284 22.555C14.2906 22.6817 14.294 22.8067 14.294 22.93ZM17.1958 23.575C17.1958 23.7383 17.1741 23.89 17.1308 24.03C17.0874 24.17 17.0208 24.2933 16.9308 24.4C16.8441 24.5033 16.7324 24.585 16.5958 24.645C16.4624 24.705 16.3058 24.735 16.1258 24.735C15.9624 24.735 15.8141 24.7083 15.6808 24.655C15.5508 24.5983 15.4374 24.5217 15.3408 24.425C15.2474 24.3283 15.1741 24.215 15.1208 24.085C15.0708 23.955 15.0441 23.8133 15.0408 23.66H15.2958C15.2991 23.7833 15.3208 23.8967 15.3608 24C15.4041 24.1033 15.4608 24.1917 15.5308 24.265C15.6008 24.3383 15.6858 24.395 15.7858 24.435C15.8858 24.475 15.9991 24.495 16.1258 24.495C16.3991 24.495 16.6024 24.41 16.7358 24.24C16.8724 24.07 16.9408 23.8483 16.9408 23.575C16.9408 23.4483 16.9258 23.33 16.8958 23.22C16.8658 23.1067 16.8191 23.0083 16.7558 22.925C16.6924 22.8417 16.6108 22.7767 16.5108 22.73C16.4141 22.68 16.2991 22.655 16.1658 22.655C16.0158 22.655 15.8741 22.6867 15.7408 22.75C15.6074 22.81 15.5008 22.905 15.4208 23.035H15.1108L15.1908 21.19H17.0808V21.425H15.4308L15.3608 22.805C15.4474 22.665 15.5641 22.5667 15.7108 22.51C15.8574 22.45 16.0091 22.42 16.1658 22.42C16.3391 22.42 16.4891 22.45 16.6158 22.51C16.7458 22.5667 16.8524 22.6467 16.9358 22.75C17.0224 22.8533 17.0874 22.9767 17.1308 23.12C17.1741 23.26 17.1958 23.4117 17.1958 23.575ZM19.1276 21.985C19.1276 21.8883 19.1176 21.7967 19.0976 21.71C19.0776 21.6233 19.0459 21.5483 19.0026 21.485C18.9592 21.4217 18.9026 21.3717 18.8326 21.335C18.7659 21.2983 18.6859 21.28 18.5926 21.28C18.4959 21.28 18.4142 21.2983 18.3476 21.335C18.2809 21.3717 18.2259 21.4217 18.1826 21.485C18.1426 21.5483 18.1126 21.6233 18.0926 21.71C18.0726 21.7967 18.0626 21.8883 18.0626 21.985C18.0626 22.0817 18.0726 22.1733 18.0926 22.26C18.1126 22.3467 18.1442 22.4217 18.1876 22.485C18.2309 22.5483 18.2859 22.5983 18.3526 22.635C18.4192 22.6717 18.5009 22.69 18.5976 22.69C18.6909 22.69 18.7709 22.6717 18.8376 22.635C18.9076 22.5983 18.9626 22.5483 19.0026 22.485C19.0459 22.4217 19.0776 22.3467 19.0976 22.26C19.1176 22.1733 19.1276 22.0817 19.1276 21.985ZM21.5276 23.805C21.5276 23.7083 21.5176 23.6167 21.4976 23.53C21.4776 23.4433 21.4459 23.3683 21.4026 23.305C21.3626 23.2417 21.3076 23.1917 21.2376 23.155C21.1709 23.1183 21.0909 23.1 20.9976 23.1C20.9009 23.1 20.8192 23.1183 20.7526 23.155C20.6859 23.1917 20.6309 23.2417 20.5876 23.305C20.5442 23.3683 20.5126 23.4433 20.4926 23.53C20.4726 23.6167 20.4626 23.7083 20.4626 23.805C20.4626 23.9017 20.4726 23.9933 20.4926 24.08C20.5126 24.1667 20.5442 24.2417 20.5876 24.305C20.6309 24.3683 20.6859 24.4183 20.7526 24.455C20.8192 24.4917 20.9009 24.51 20.9976 24.51C21.0909 24.51 21.1709 24.4917 21.2376 24.455C21.3076 24.4183 21.3626 24.3683 21.4026 24.305C21.4459 24.2417 21.4776 24.1667 21.4976 24.08C21.5176 23.9933 21.5276 23.9017 21.5276 23.805ZM19.3576 21.985C19.3576 22.1017 19.3442 22.2133 19.3176 22.32C19.2942 22.4267 19.2526 22.5233 19.1926 22.61C19.1292 22.6967 19.0476 22.77 18.9476 22.83C18.8509 22.8867 18.7342 22.915 18.5976 22.915C18.4609 22.915 18.3426 22.8867 18.2426 22.83C18.1426 22.77 18.0609 22.6967 17.9976 22.61C17.9376 22.5233 17.8959 22.4267 17.8726 22.32C17.8492 22.2133 17.8376 22.1017 17.8376 21.985C17.8376 21.8683 17.8492 21.7567 17.8726 21.65C17.8959 21.5433 17.9376 21.4467 17.9976 21.36C18.0609 21.2733 18.1409 21.2017 18.2376 21.145C18.3376 21.085 18.4559 21.055 18.5926 21.055C18.7292 21.055 18.8476 21.0833 18.9476 21.14C19.0476 21.1967 19.1292 21.27 19.1926 21.36C19.2526 21.4467 19.2942 21.5433 19.3176 21.65C19.3442 21.7567 19.3576 21.8683 19.3576 21.985ZM18.5876 24.725L18.4126 24.59L20.9976 21.07L21.1776 21.195L18.5876 24.725ZM21.7576 23.805C21.7576 23.9217 21.7442 24.0333 21.7176 24.14C21.6942 24.2467 21.6526 24.3433 21.5926 24.43C21.5292 24.5167 21.4476 24.59 21.3476 24.65C21.2509 24.7067 21.1342 24.735 20.9976 24.735C20.8609 24.735 20.7426 24.7067 20.6426 24.65C20.5459 24.59 20.4659 24.5167 20.4026 24.43C20.3426 24.3433 20.2992 24.2467 20.2726 24.14C20.2492 24.0333 20.2376 23.9217 20.2376 23.805C20.2376 23.6883 20.2492 23.5767 20.2726 23.47C20.2992 23.3633 20.3426 23.2667 20.4026 23.18C20.4659 23.0933 20.5459 23.0217 20.6426 22.965C20.7426 22.905 20.8609 22.875 20.9976 22.875C21.1342 22.875 21.2509 22.9033 21.3476 22.96C21.4476 23.0167 21.5292 23.09 21.5926 23.18C21.6526 23.2667 21.6942 23.3633 21.7176 23.47C21.7442 23.5767 21.7576 23.6883 21.7576 23.805Z" fill="#4D4D4D"/>
</svg>
