<svg width="30" height="30" viewBox="0 0 30 30" fill="none" xmlns="http://www.w3.org/2000/svg">
<rect width="30" height="30" fill="white"/>
<path d="M30 30H22.5H15H7.5H0V22.5003V15.0005V7.49975V0H7.5H15H22.5H30V7.49975V14.9995V22.4992V30ZM0.252287 29.7477H7.62614H15H22.3739H29.7477V22.3741V15.0005V7.62589V0.252279H22.3739H15H7.62614H0.252287V7.62589V14.9995V22.3731V29.7477Z" fill="#4D4D4D"/>
<path d="M30 22V21.9421V21.8843V21.8264V21.7685C28.8439 21.3235 27.6602 20.9279 26.4529 20.5844C25.2446 20.241 24.0117 19.9507 22.7583 19.7163C21.5049 19.482 20.2279 19.3027 18.9345 19.1822C17.6401 19.0617 16.3282 19 15 19C13.6718 19 12.3589 19.0617 11.0655 19.1822C9.77111 19.3027 8.49515 19.482 7.24173 19.7163C5.98832 19.9507 4.7554 20.2419 3.54708 20.5844C2.33875 20.9279 1.15605 21.3235 0 21.7685V21.8264V21.8843V21.9421V22C1.15503 21.5522 2.33773 21.1546 3.54605 20.8093C4.75335 20.4639 5.98627 20.1717 7.24071 19.9364C8.49515 19.7011 9.77111 19.5199 11.0655 19.3994C12.3599 19.278 13.6728 19.2163 15.002 19.2163C16.3303 19.2163 17.6431 19.278 18.9376 19.3994C20.232 19.5209 21.5079 19.7011 22.7624 19.9364C24.0168 20.1717 25.2487 20.4649 26.457 20.8093C27.6612 21.1546 28.845 21.5522 30 22Z" fill="#4D4D4D"/>
<path d="M10.3973 10.397C10.3973 10.635 10.3623 10.8567 10.2923 11.062C10.2223 11.2673 10.1173 11.447 9.97734 11.601C9.83734 11.755 9.66234 11.8763 9.45234 11.965C9.24234 12.049 8.99968 12.091 8.72434 12.091C8.49101 12.091 8.28101 12.0537 8.09434 11.979C7.91234 11.8997 7.75134 11.7923 7.61134 11.657C7.47134 11.517 7.35701 11.3537 7.26834 11.167C7.17968 10.9803 7.11668 10.7773 7.07934 10.558C7.05134 10.3993 7.03034 10.2477 7.01634 10.103C7.00701 9.95367 7.00234 9.802 7.00234 9.648C7.00234 9.47067 7.00701 9.28633 7.01634 9.095C7.02568 8.899 7.04901 8.70767 7.08634 8.521C7.12368 8.33433 7.17734 8.157 7.24734 7.989C7.31734 7.81633 7.41534 7.66233 7.54134 7.527C7.67668 7.387 7.83534 7.27033 8.01734 7.177C8.19934 7.08367 8.43734 7.037 8.73134 7.037C8.98334 7.037 9.20034 7.07433 9.38234 7.149C9.56434 7.219 9.71834 7.31467 9.84434 7.436C9.97968 7.56667 10.0823 7.71367 10.1523 7.877C10.2223 8.03567 10.2573 8.18733 10.2573 8.332H9.37534C9.36134 8.18267 9.30534 8.059 9.20734 7.961C9.09534 7.84433 8.92268 7.786 8.68934 7.786C8.57268 7.786 8.47701 7.80467 8.40234 7.842C8.33234 7.87933 8.26701 7.926 8.20634 7.982C8.14101 8.04267 8.08501 8.115 8.03834 8.199C7.99634 8.283 7.96134 8.374 7.93334 8.472C7.91001 8.57 7.89368 8.67267 7.88434 8.78C7.87501 8.88267 7.87034 8.98767 7.87034 9.095C7.92634 9.02967 7.99168 8.976 8.06634 8.934C8.14101 8.88733 8.22034 8.85 8.30434 8.822C8.38834 8.794 8.47234 8.773 8.55634 8.759C8.64034 8.745 8.71968 8.738 8.79434 8.738C9.05568 8.738 9.28668 8.77767 9.48734 8.857C9.68801 8.93633 9.85601 9.05067 9.99134 9.2C10.1267 9.34467 10.227 9.51967 10.2923 9.725C10.3623 9.92567 10.3973 10.1497 10.3973 10.397ZM9.50834 10.362C9.50834 10.11 9.44301 9.89533 9.31234 9.718C9.18168 9.54067 8.98101 9.452 8.71034 9.452C8.47234 9.452 8.28568 9.54067 8.15034 9.718C8.01968 9.89067 7.95434 10.1053 7.95434 10.362C7.95434 10.628 8.01734 10.852 8.14334 11.034C8.26934 11.216 8.46301 11.307 8.72434 11.307C8.99034 11.307 9.18634 11.2207 9.31234 11.048C9.44301 10.8753 9.50834 10.6467 9.50834 10.362ZM14.3545 9.564C14.3545 9.76467 14.3475 9.963 14.3335 10.159C14.3195 10.355 14.2915 10.544 14.2495 10.726C14.2122 10.908 14.1539 11.0783 14.0745 11.237C13.9999 11.3957 13.8995 11.5357 13.7735 11.657C13.6475 11.7783 13.4935 11.881 13.3115 11.965C13.1295 12.049 12.9055 12.091 12.6395 12.091C12.3735 12.091 12.1495 12.049 11.9675 11.965C11.7855 11.881 11.6315 11.7783 11.5055 11.657C11.3795 11.5357 11.2769 11.3957 11.1975 11.237C11.1229 11.0783 11.0645 10.908 11.0225 10.726C10.9852 10.544 10.9595 10.355 10.9455 10.159C10.9315 9.963 10.9245 9.76467 10.9245 9.564C10.9245 9.36333 10.9315 9.165 10.9455 8.969C10.9595 8.773 10.9852 8.584 11.0225 8.402C11.0645 8.22 11.1229 8.04967 11.1975 7.891C11.2769 7.73233 11.3795 7.59233 11.5055 7.471C11.6315 7.34967 11.7855 7.247 11.9675 7.163C12.1495 7.079 12.3735 7.037 12.6395 7.037C12.9055 7.037 13.1295 7.079 13.3115 7.163C13.4935 7.247 13.6475 7.34967 13.7735 7.471C13.8995 7.59233 13.9999 7.73233 14.0745 7.891C14.1539 8.04967 14.2122 8.22 14.2495 8.402C14.2915 8.584 14.3195 8.773 14.3335 8.969C14.3475 9.165 14.3545 9.36333 14.3545 9.564ZM13.4655 9.263C13.4655 9.109 13.4585 8.948 13.4445 8.78C13.4305 8.612 13.3955 8.46033 13.3395 8.325C13.2835 8.185 13.1995 8.07067 13.0875 7.982C12.9802 7.89333 12.8309 7.849 12.6395 7.849C12.4482 7.849 12.2965 7.89333 12.1845 7.982C12.0772 8.07067 11.9955 8.185 11.9395 8.325C11.8835 8.46033 11.8485 8.612 11.8345 8.78C11.8205 8.948 11.8135 9.109 11.8135 9.263V9.865C11.8135 10.019 11.8205 10.18 11.8345 10.348C11.8485 10.516 11.8835 10.67 11.9395 10.81C11.9955 10.9453 12.0772 11.0573 12.1845 11.146C12.2965 11.2347 12.4482 11.279 12.6395 11.279C12.8309 11.279 12.9802 11.2347 13.0875 11.146C13.1995 11.0573 13.2835 10.9453 13.3395 10.81C13.3955 10.67 13.4305 10.516 13.4445 10.348C13.4585 10.18 13.4655 10.019 13.4655 9.865V9.263ZM19.4356 12V9.912H17.0596V12H16.7476V7.746H17.0596V9.606H19.4356V7.746H19.7476V12H19.4356ZM20.7605 12V11.664L22.6805 9.282H20.7605V9H23.0045V9.33L21.0845 11.712H23.0225V12H20.7605Z" fill="#4D4D4D"/>
</svg>
