<svg width="30" height="30" viewBox="0 0 30 30" fill="none" xmlns="http://www.w3.org/2000/svg">
<rect width="30" height="30" fill="white"/>
<path d="M30 30H22.5H15H7.5H0V22.5003V15.0005V7.49975V0H7.5H15H22.5H30V7.49975V14.9995V22.4992V30ZM0.252287 29.7477H7.62614H15H22.3739H29.7477V22.3741V15.0005V7.62589V0.252279H22.3739H15H7.62614H0.252287V7.62589V14.9995V22.3731V29.7477Z" fill="#4D4D4D"/>
<path d="M30 22V21.9421V21.8843V21.8264V21.7685C28.8439 21.3235 27.6602 20.9279 26.4529 20.5844C25.2446 20.241 24.0117 19.9507 22.7583 19.7163C21.5049 19.482 20.2279 19.3027 18.9345 19.1822C17.6401 19.0617 16.3282 19 15 19C13.6718 19 12.3589 19.0617 11.0655 19.1822C9.77111 19.3027 8.49515 19.482 7.24173 19.7163C5.98832 19.9507 4.7554 20.2419 3.54708 20.5844C2.33875 20.9279 1.15605 21.3235 0 21.7685V21.8264V21.8843V21.9421V22C1.15503 21.5522 2.33773 21.1546 3.54605 20.8093C4.75335 20.4639 5.98627 20.1717 7.24071 19.9364C8.49515 19.7011 9.77111 19.5199 11.0655 19.3994C12.3599 19.278 13.6728 19.2163 15.002 19.2163C16.3303 19.2163 17.6431 19.278 18.9376 19.3994C20.232 19.5209 21.5079 19.7011 22.7624 19.9364C24.0168 20.1717 25.2487 20.4649 26.457 20.8093C27.6612 21.1546 28.845 21.5522 30 22Z" fill="#4D4D4D"/>
<path d="M14.585 14.389C14.308 14.389 14.044 14.368 13.795 14.325C13.546 14.282 13.313 14.22 13.095 14.137C12.877 14.054 12.677 13.951 12.495 13.828C12.313 13.705 12.148 13.562 12.003 13.401C11.859 13.24 11.735 13.061 11.633 12.866C11.531 12.671 11.451 12.461 11.392 12.236C11.333 12.011 11.297 11.772 11.282 11.519C11.267 11.266 11.275 11.002 11.306 10.726C11.337 10.445 11.407 9.885 11.531 9.201C11.655 8.517 11.836 7.712 12.087 6.942C12.338 6.172 12.661 5.436 13.072 4.893C13.483 4.35 13.981 4 14.584 4C15.142 4 15.617 4.304 16.016 4.788C16.416 5.273 16.74 5.938 17 6.662C17.26 7.386 17.455 8.169 17.594 8.887C17.733 9.605 17.817 10.26 17.855 10.728C17.878 11.013 17.879 11.286 17.858 11.544C17.837 11.802 17.795 12.047 17.731 12.275C17.667 12.503 17.582 12.716 17.477 12.912C17.372 13.108 17.245 13.286 17.098 13.445C16.956 13.599 16.795 13.735 16.616 13.852C16.437 13.969 16.242 14.068 16.031 14.147C15.82 14.226 15.592 14.286 15.351 14.327C15.11 14.368 14.854 14.389 14.585 14.389ZM14.585 4.251C14.024 4.251 13.558 4.616 13.175 5.173C12.792 5.73 12.49 6.481 12.256 7.252C12.022 8.023 11.856 8.815 11.744 9.456C11.632 10.097 11.573 10.586 11.555 10.753C11.527 11.011 11.519 11.258 11.532 11.493C11.545 11.728 11.578 11.95 11.632 12.159C11.686 12.368 11.759 12.563 11.852 12.742C11.945 12.921 12.058 13.086 12.191 13.234C12.324 13.382 12.475 13.513 12.643 13.625C12.811 13.737 12.997 13.832 13.198 13.908C13.399 13.984 13.617 14.042 13.848 14.08C14.079 14.118 14.326 14.138 14.585 14.138C14.836 14.138 15.075 14.119 15.299 14.083C15.523 14.047 15.735 13.991 15.931 13.919C16.127 13.847 16.308 13.756 16.472 13.649C16.636 13.542 16.784 13.417 16.914 13.276C17.049 13.13 17.165 12.966 17.262 12.785C17.359 12.604 17.437 12.407 17.495 12.194C17.553 11.981 17.592 11.754 17.611 11.512C17.63 11.27 17.629 11.015 17.607 10.748C17.573 10.326 17.494 9.71 17.363 9.021C17.232 8.332 17.049 7.573 16.807 6.866C16.565 6.159 16.264 5.505 15.896 5.027C15.528 4.552 15.094 4.251 14.585 4.251Z" fill="#4D4D4D"/>
<path d="M14.585 14.389C14.308 14.389 14.044 14.368 13.795 14.325C13.546 14.282 13.313 14.22 13.095 14.137C12.877 14.054 12.677 13.951 12.495 13.828C12.313 13.705 12.148 13.562 12.003 13.401C11.859 13.24 11.735 13.061 11.633 12.866C11.531 12.671 11.451 12.461 11.392 12.236C11.333 12.011 11.297 11.772 11.282 11.519C11.267 11.266 11.275 11.002 11.306 10.726C11.337 10.445 11.407 9.885 11.531 9.201C11.655 8.517 11.836 7.712 12.087 6.942C12.338 6.172 12.661 5.436 13.072 4.893C13.483 4.35 13.981 4 14.584 4C15.142 4 15.617 4.304 16.016 4.788C16.416 5.273 16.74 5.938 17 6.662C17.26 7.386 17.455 8.169 17.594 8.887C17.733 9.605 17.817 10.26 17.855 10.728C17.878 11.013 17.879 11.286 17.858 11.544C17.837 11.802 17.795 12.047 17.731 12.275C17.667 12.503 17.582 12.716 17.477 12.912C17.372 13.108 17.245 13.286 17.098 13.445C16.956 13.599 16.795 13.735 16.616 13.852C16.437 13.969 16.242 14.068 16.031 14.147C15.82 14.226 15.592 14.286 15.351 14.327C15.11 14.368 14.854 14.389 14.585 14.389ZM14.585 4.251C14.024 4.251 13.558 4.616 13.175 5.173C12.792 5.73 12.49 6.481 12.256 7.252C12.022 8.023 11.856 8.815 11.744 9.456C11.632 10.097 11.573 10.586 11.555 10.753C11.527 11.011 11.519 11.258 11.532 11.493C11.545 11.728 11.578 11.95 11.632 12.159C11.686 12.368 11.759 12.563 11.852 12.742C11.945 12.921 12.058 13.086 12.191 13.234C12.324 13.382 12.475 13.513 12.643 13.625C12.811 13.737 12.997 13.832 13.198 13.908C13.399 13.984 13.617 14.042 13.848 14.08C14.079 14.118 14.326 14.138 14.585 14.138C14.836 14.138 15.075 14.119 15.299 14.083C15.523 14.047 15.735 13.991 15.931 13.919C16.127 13.847 16.308 13.756 16.472 13.649C16.636 13.542 16.784 13.417 16.914 13.276C17.049 13.13 17.165 12.966 17.262 12.785C17.359 12.604 17.437 12.407 17.495 12.194C17.553 11.981 17.592 11.754 17.611 11.512C17.63 11.27 17.629 11.015 17.607 10.748C17.573 10.326 17.494 9.71 17.363 9.021C17.232 8.332 17.049 7.573 16.807 6.866C16.565 6.159 16.264 5.505 15.896 5.027C15.528 4.552 15.094 4.251 14.585 4.251Z" fill="#5F5357"/>
<path d="M14.585 14.389C14.308 14.389 14.044 14.368 13.795 14.325C13.546 14.282 13.313 14.22 13.095 14.137C12.877 14.054 12.677 13.951 12.495 13.828C12.313 13.705 12.148 13.562 12.003 13.401C11.859 13.24 11.735 13.061 11.633 12.866C11.531 12.671 11.451 12.461 11.392 12.236C11.333 12.011 11.297 11.772 11.282 11.519C11.267 11.266 11.275 11.002 11.306 10.726C11.337 10.445 11.407 9.885 11.531 9.201C11.655 8.517 11.836 7.712 12.087 6.942C12.338 6.172 12.661 5.436 13.072 4.893C13.483 4.35 13.981 4 14.584 4C15.142 4 15.617 4.304 16.016 4.788C16.416 5.273 16.74 5.938 17 6.662C17.26 7.386 17.455 8.169 17.594 8.887C17.733 9.605 17.817 10.26 17.855 10.728C17.878 11.013 17.879 11.286 17.858 11.544C17.837 11.802 17.795 12.047 17.731 12.275C17.667 12.503 17.582 12.716 17.477 12.912C17.372 13.108 17.245 13.286 17.098 13.445C16.956 13.599 16.795 13.735 16.616 13.852C16.437 13.969 16.242 14.068 16.031 14.147C15.82 14.226 15.592 14.286 15.351 14.327C15.11 14.368 14.854 14.389 14.585 14.389ZM14.585 4.251C14.024 4.251 13.558 4.616 13.175 5.173C12.792 5.73 12.49 6.481 12.256 7.252C12.022 8.023 11.856 8.815 11.744 9.456C11.632 10.097 11.573 10.586 11.555 10.753C11.527 11.011 11.519 11.258 11.532 11.493C11.545 11.728 11.578 11.95 11.632 12.159C11.686 12.368 11.759 12.563 11.852 12.742C11.945 12.921 12.058 13.086 12.191 13.234C12.324 13.382 12.475 13.513 12.643 13.625C12.811 13.737 12.997 13.832 13.198 13.908C13.399 13.984 13.617 14.042 13.848 14.08C14.079 14.118 14.326 14.138 14.585 14.138C14.836 14.138 15.075 14.119 15.299 14.083C15.523 14.047 15.735 13.991 15.931 13.919C16.127 13.847 16.308 13.756 16.472 13.649C16.636 13.542 16.784 13.417 16.914 13.276C17.049 13.13 17.165 12.966 17.262 12.785C17.359 12.604 17.437 12.407 17.495 12.194C17.553 11.981 17.592 11.754 17.611 11.512C17.63 11.27 17.629 11.015 17.607 10.748C17.573 10.326 17.494 9.71 17.363 9.021C17.232 8.332 17.049 7.573 16.807 6.866C16.565 6.159 16.264 5.505 15.896 5.027C15.528 4.552 15.094 4.251 14.585 4.251Z" fill="#4D4D4D"/>
<path d="M14.699 14.264H14.636H14.574H14.511H14.449V11.761V9.257V6.754V4.25H12.837H11.224H9.612H8V4.188V4.125V4.063V4H11.287H14.574H17.862H21.149V4.063V4.125V4.188V4.25H19.536H17.924H16.311H14.699V6.754V9.257V11.761V14.264Z" fill="#5F5357"/>
<path d="M11.0259 27V26.55H11.4659V27H11.0259ZM12.4443 27V23.455H12.7093V27H12.4443ZM13.7871 27V23.455H16.0571V23.705H14.0521V25.005H15.8171V25.255H14.0521V26.75H16.0571V27H13.7871ZM19.1487 26.04C19.1487 26.1967 19.122 26.3283 19.0687 26.435C19.0187 26.5417 18.952 26.6367 18.8687 26.72C18.7487 26.8367 18.602 26.9233 18.4287 26.98C18.2587 27.0367 18.0704 27.065 17.8637 27.065C17.6604 27.065 17.4737 27.0333 17.3037 26.97C17.1337 26.9067 16.9904 26.8117 16.8737 26.685C16.787 26.5917 16.7154 26.485 16.6587 26.365C16.602 26.245 16.567 26.1167 16.5537 25.98H16.8237C16.837 26.0867 16.867 26.1867 16.9137 26.28C16.9604 26.3733 17.017 26.455 17.0837 26.525C17.1804 26.6217 17.297 26.695 17.4337 26.745C17.5704 26.7917 17.7137 26.815 17.8637 26.815C18.017 26.815 18.1654 26.795 18.3087 26.755C18.452 26.7117 18.572 26.6433 18.6687 26.55C18.732 26.49 18.782 26.4183 18.8187 26.335C18.8587 26.2517 18.8787 26.1533 18.8787 26.04C18.8787 25.9567 18.862 25.8767 18.8287 25.8C18.7987 25.72 18.7537 25.65 18.6937 25.59C18.6337 25.5267 18.5604 25.475 18.4737 25.435C18.3904 25.3917 18.2954 25.3633 18.1887 25.35L17.5287 25.265C17.402 25.2483 17.2854 25.2183 17.1787 25.175C17.0754 25.1317 16.9837 25.0733 16.9037 25C16.827 24.9233 16.767 24.8333 16.7237 24.73C16.6804 24.6267 16.6587 24.5067 16.6587 24.37C16.6587 24.22 16.687 24.0917 16.7437 23.985C16.8037 23.8783 16.8787 23.7833 16.9687 23.7C17.0787 23.6 17.2104 23.5233 17.3637 23.47C17.517 23.4167 17.677 23.39 17.8437 23.39C18.0337 23.39 18.2154 23.4267 18.3887 23.5C18.5654 23.57 18.7037 23.6633 18.8037 23.78C18.8804 23.8667 18.942 23.96 18.9887 24.06C19.0354 24.1567 19.0637 24.2683 19.0737 24.395H18.8087C18.7954 24.305 18.7737 24.225 18.7437 24.155C18.7137 24.0817 18.6704 24.0117 18.6137 23.945C18.537 23.8483 18.4304 23.7733 18.2937 23.72C18.157 23.6667 18.007 23.64 17.8437 23.64C17.717 23.64 17.5937 23.6567 17.4737 23.69C17.357 23.7233 17.2554 23.7783 17.1687 23.855C17.102 23.915 17.0454 23.9867 16.9987 24.07C16.952 24.1533 16.9287 24.2533 16.9287 24.37C16.9287 24.4767 16.9454 24.5667 16.9787 24.64C17.0154 24.7133 17.062 24.775 17.1187 24.825C17.1754 24.8717 17.242 24.9083 17.3187 24.935C17.3954 24.9617 17.4737 24.98 17.5537 24.99L18.2237 25.075C18.3604 25.0917 18.4854 25.1283 18.5987 25.185C18.712 25.2417 18.8087 25.3133 18.8887 25.4C18.972 25.4833 19.0354 25.58 19.0787 25.69C19.1254 25.8 19.1487 25.9167 19.1487 26.04Z" fill="#4D4D4D"/>
</svg>
