<svg width="132" height="30" viewBox="0 0 132 30" fill="none" xmlns="http://www.w3.org/2000/svg">
<rect width="132" height="30" fill="white"/>
<path d="M8.20043 6L7.99268 7.09332L7.78613 8.18545L7.57839 9.27877L7.37183 10.3709H8.56131H9.75197H10.9414H12.1321L12.3387 9.27877L12.5464 8.18545L12.753 7.09332L12.9607 6H11.77H10.5806H9.3899H8.20043Z" fill="black"/>
<path d="M5 24.7206H6.14793H7.29585H8.44378H9.59171L10.044 21.8953L10.4963 19.07L10.9486 16.2435L11.402 13.4182H10.2541H9.10618H7.95707H6.80914L6.35686 16.2435L5.90457 19.07L5.45229 21.8953L5 24.7206Z" fill="black"/>
<path d="M18.3941 13.4813L18.5306 12.7096L18.6683 11.938L18.8048 11.1664L18.9413 10.3948H21.0698H23.1983H25.3256H27.454L27.6475 9.30977L27.841 8.22358L28.0333 7.13738L28.2268 6.05237H24.9386H21.6503H18.3608H15.0726L14.2511 10.7189L13.4284 15.3865L12.6069 20.0542L11.7843 24.7219H12.9453H14.1051H15.2661H16.4259L16.7262 22.9971L17.0253 21.2734L17.3257 19.5485L17.6248 17.8249H19.5444H21.4627H23.3823H25.3006L25.4846 16.7387L25.6686 15.6525L25.8526 14.5663L26.0366 13.4813H24.1266H22.2154H20.3053H18.3941Z" fill="black"/>
<path d="M31.2777 20.256L31.9009 16.7054L32.5241 13.1536L33.1486 9.60299L33.7718 6.05237H32.6179H31.4641H30.3102H29.1563L28.3337 10.7189L27.5122 15.3865L26.6895 20.0542L25.8681 24.7207H28.9937H32.1193H35.2462H38.3718L38.5712 23.6049L38.7707 22.489L38.9713 21.3731L39.1707 20.256H37.1978H35.2236H33.2506H31.2777Z" fill="black"/>
<path d="M55.3569 10.3948L55.5504 9.30977L55.7438 8.22358L55.9362 7.13738L56.1297 6.05237H52.7512H49.3727H45.9942H42.6157L41.7942 10.7189L40.9716 15.3865L40.1489 20.0542L39.3274 24.7207H42.7356H46.1426H49.5507H52.9589L53.1524 23.6357L53.3447 22.5495L53.5382 21.4633L53.7317 20.3771H51.4762H49.2207H46.9664H44.7109L44.8486 19.5818L44.9863 18.7864L45.1252 17.9911L45.2629 17.1945H47.2228H49.1827H51.1415H53.1014L53.2949 16.1154L53.4884 15.0352L53.683 13.9549L53.8765 12.8746H51.9166H49.9555H47.9956H46.0357L46.1473 12.255L46.2589 11.6353L46.3717 11.0156L46.4833 10.3948H48.702H50.9207H53.1382H55.3569Z" fill="black"/>
<path d="M128.329 8.22581H126.063H123.797H121.531H119.264L119.031 9.63964L118.797 11.0535L118.563 12.4673L118.329 13.8812H120.338H122.346H124.355H126.363L126.273 14.4272L126.184 14.9733L126.094 15.5182L126.004 16.0642H124.007H122.011H120.015H118.018L117.754 17.6763L117.49 19.2872L117.226 20.8993L116.963 22.5102H119.253H121.543H123.834H126.124L126.045 23.0563L125.967 23.6023L125.89 24.1472L125.811 24.6933H122.975H120.139H117.305H114.469L115.212 20.0303L115.955 15.3686L116.699 10.7057L117.442 6.04272H120.247H123.054H125.86H128.665L128.581 6.58879L128.498 7.13486L128.413 7.67974L128.329 8.22581Z" fill="black"/>
<path d="M113.076 13.4444C113.147 13.3387 113.214 13.2319 113.277 13.1215C113.34 13.0111 113.399 12.8995 113.454 12.7855C113.508 12.6716 113.559 12.5552 113.607 12.4365C113.653 12.3178 113.697 12.1967 113.735 12.0744C113.774 11.9522 113.807 11.8287 113.837 11.7064C113.867 11.5842 113.89 11.4607 113.911 11.3384C113.931 11.2162 113.945 11.0927 113.955 10.9704C113.964 10.8482 113.969 10.7247 113.969 10.6024C113.969 10.4315 113.962 10.2641 113.949 10.1003C113.936 9.93647 113.914 9.7774 113.887 9.6207C113.86 9.46519 113.825 9.31324 113.785 9.16486C113.744 9.01647 113.697 8.87283 113.642 8.73156C113.588 8.59149 113.527 8.45497 113.462 8.32558C113.397 8.195 113.324 8.07035 113.248 7.95045C113.172 7.83055 113.089 7.71659 113 7.60738C112.911 7.49817 112.819 7.3937 112.719 7.29517C112.619 7.19664 112.515 7.10286 112.407 7.01502C112.299 6.92717 112.183 6.84526 112.065 6.7681C111.946 6.69094 111.823 6.61971 111.694 6.55442C111.566 6.48913 111.433 6.42859 111.295 6.37279C111.158 6.31819 111.015 6.26952 110.87 6.22915C110.726 6.18761 110.576 6.15318 110.423 6.12588C110.27 6.09857 110.113 6.07721 109.953 6.06415C109.793 6.04871 109.629 6.04278 109.46 6.04278H109.415H109.37H109.325H109.282H107.649H106.015H104.379H102.746H102.259H101.773H101.286H100.799H100.26H99.7212H99.1823H98.6433L98.1459 9.12687L97.6485 12.211L97.1511 15.2951L96.6537 18.3791C96.63 18.537 96.6015 18.6925 96.5683 18.8445C96.535 18.9964 96.4982 19.146 96.4555 19.2932C96.414 19.4404 96.3665 19.584 96.3154 19.7253C96.2644 19.8666 96.2086 20.0055 96.1492 20.1408C96.0899 20.2773 96.0258 20.4079 95.9569 20.5349C95.8881 20.6619 95.8157 20.783 95.7385 20.9005C95.6613 21.0181 95.5806 21.1308 95.4951 21.2377C95.4097 21.3457 95.3195 21.449 95.2257 21.5475C95.1319 21.646 95.0345 21.7398 94.9325 21.8277C94.8304 21.9155 94.7259 21.9974 94.6167 22.0746C94.5075 22.1518 94.3947 22.223 94.2784 22.2883C94.162 22.3536 94.0421 22.4141 93.9175 22.4687C93.794 22.5233 93.6658 22.572 93.5352 22.6123C93.4047 22.6527 93.2705 22.6883 93.1316 22.7156C92.9939 22.7429 92.8526 22.7631 92.7078 22.7774C92.563 22.7916 92.4146 22.7975 92.2638 22.7975C91.9754 22.7975 91.7024 22.7785 91.4448 22.7394C91.1872 22.7002 90.9426 22.6432 90.7135 22.566C90.4844 22.4889 90.2707 22.3927 90.0713 22.2776C89.8718 22.1624 89.6878 22.0283 89.5181 21.8752C89.3483 21.722 89.1988 21.5475 89.0717 21.354C88.9447 21.1605 88.8379 20.9457 88.7536 20.7118C88.6681 20.4767 88.6052 20.2227 88.5625 19.9473C88.5197 19.6719 88.4984 19.3763 88.4984 19.0605C88.4984 18.9988 88.4995 18.9383 88.5007 18.8777C88.5019 18.8172 88.5043 18.7578 88.5079 18.6985C88.5114 18.6391 88.515 18.5809 88.5185 18.5228C88.5233 18.4646 88.528 18.4076 88.534 18.3507C88.5399 18.2937 88.547 18.2367 88.553 18.1785C88.5601 18.1204 88.566 18.0622 88.5731 18.0028C88.5803 17.9435 88.5874 17.8841 88.5945 17.8236C88.6016 17.763 88.6099 17.7025 88.6183 17.6408L89.086 14.7407L89.5537 11.8406L90.0214 8.94049L90.4891 6.04041H90.2054H89.9217H89.638H89.3543H89.0978H88.8403H88.5838H88.3274H84.6735H81.0208H77.3681H73.7154H73.6999H73.6845H73.6691H73.6537H72.2944H70.9352H69.576H68.2167L67.1543 7.38064L66.0918 8.72088L65.0294 10.0611L63.9669 11.4014L63.3829 10.0611L62.7952 8.72207L62.2112 7.38183L61.6271 6.04159H60.4056H59.1841H57.9625H56.741L57.7548 8.30896L58.7686 10.5763L59.7824 12.8437L60.7962 15.111L58.9182 17.5114L57.0402 19.9117L55.1622 22.312L53.2842 24.7123H54.6493H56.0145H57.3797H58.7448L59.8239 23.3187L60.903 21.925L61.9821 20.5314L63.0611 19.1377L63.6559 20.5314L64.2506 21.925L64.8454 23.3187L65.4401 24.7123H66.6664H67.8926H69.1189H70.3452L69.3219 22.3749L68.2986 20.0375L67.2754 17.7001L66.2521 15.3627L67.6802 13.5785L69.1082 11.7943L70.5363 10.0101L71.9644 8.22586H73.5611H75.1577H76.7544H78.351L77.691 12.3427L77.031 16.4596L76.3709 20.5765L75.7109 24.6933H76.257H76.803H77.3491H77.8952L78.5481 20.5765L79.201 16.4596L79.8539 12.3427L80.5068 8.22586H82.3741H84.2414H86.1087H87.976L87.608 10.5146L87.24 12.8033L86.872 15.0921L86.504 17.3808C86.4803 17.5256 86.4589 17.6704 86.4411 17.8165C86.4233 17.9625 86.4079 18.1085 86.396 18.2557C86.3841 18.4029 86.3746 18.5501 86.3687 18.6973C86.3628 18.8457 86.3592 18.9929 86.3592 19.1424C86.3592 19.3668 86.3675 19.5852 86.3853 19.7977C86.4031 20.0114 86.4292 20.2191 86.4637 20.4221C86.4993 20.6251 86.542 20.8222 86.5954 21.0145C86.6477 21.2068 86.7094 21.3944 86.7794 21.576C86.8495 21.7588 86.9266 21.9333 87.0097 22.1019C87.094 22.2705 87.1842 22.4319 87.2828 22.5862C87.3813 22.7406 87.4858 22.8889 87.5974 23.029C87.7089 23.1703 87.8288 23.3044 87.9547 23.4314C88.0805 23.5585 88.2135 23.6784 88.3512 23.7911C88.4889 23.9039 88.6349 24.0096 88.7868 24.1081C88.9388 24.2066 89.0967 24.298 89.2617 24.3823C89.4267 24.4666 89.5976 24.5438 89.7757 24.6138C89.9537 24.6838 90.1354 24.7456 90.3229 24.7978C90.5105 24.85 90.7028 24.894 90.8987 24.9296C91.0946 24.9652 91.2975 24.9913 91.5041 25.0079C91.7107 25.0245 91.922 25.034 92.138 25.034C92.3695 25.034 92.5962 25.0245 92.817 25.0044C93.0378 24.9842 93.2527 24.9533 93.4628 24.9129C93.6729 24.8726 93.8771 24.8215 94.0754 24.761C94.2748 24.7005 94.4671 24.6292 94.6559 24.5473C94.8434 24.4666 95.0262 24.3776 95.2019 24.279C95.3788 24.1817 95.5486 24.076 95.7136 23.9621C95.8786 23.8481 96.0376 23.7258 96.1908 23.5953C96.3439 23.4647 96.4911 23.3258 96.6336 23.1798C96.7748 23.0326 96.9114 22.8794 97.0396 22.7192C97.169 22.5589 97.2912 22.3915 97.4064 22.217C97.5215 22.0425 97.6319 21.8621 97.7352 21.6733C97.8385 21.4858 97.9346 21.2899 98.0249 21.0881C98.1151 20.8863 98.1982 20.6797 98.2765 20.4684C98.3537 20.2571 98.4249 20.0411 98.4902 19.8191C98.5555 19.5983 98.6137 19.3716 98.6659 19.1401C98.7181 18.9086 98.7644 18.6724 98.8048 18.4314L99.2155 15.8732L99.6263 13.315L100.037 10.7568L100.448 8.19856H100.934H101.421H101.908H102.395H102.916H103.437H103.958H104.479H105.798H107.117H108.436H109.755C109.867 8.22349 109.978 8.25554 110.085 8.29352C110.191 8.33151 110.295 8.37662 110.394 8.42767C110.494 8.47871 110.592 8.53807 110.684 8.60336C110.777 8.66865 110.867 8.74106 110.954 8.8206C111.079 8.93693 111.19 9.06514 111.284 9.20284C111.379 9.34055 111.457 9.49012 111.52 9.64919C111.583 9.80827 111.63 9.97921 111.661 10.1596C111.692 10.3413 111.709 10.5324 111.709 10.7354C111.709 10.8719 111.703 11.0049 111.692 11.1319C111.681 11.2589 111.663 11.3835 111.641 11.5023C111.618 11.621 111.589 11.7361 111.554 11.8453C111.52 11.9545 111.479 12.0614 111.433 12.1623C111.387 12.2632 111.337 12.3605 111.284 12.4531C111.23 12.5457 111.172 12.6348 111.11 12.719C111.049 12.8033 110.982 12.884 110.912 12.9612C110.842 13.0384 110.768 13.1096 110.69 13.1784C110.612 13.2461 110.531 13.3114 110.447 13.3708C110.362 13.4301 110.275 13.4871 110.183 13.5393C110.092 13.5916 109.998 13.639 109.901 13.683C109.803 13.7269 109.702 13.7661 109.598 13.8017C109.495 13.8361 109.389 13.867 109.283 13.8931C109.178 13.9192 109.071 13.9418 108.963 13.9596C108.855 13.9774 108.747 13.9904 108.636 13.9987C108.526 14.007 108.416 14.0118 108.304 14.0118H107.649H106.993H106.338H105.683L105.597 14.5187L105.512 15.0256L105.426 15.5325L105.341 16.0394H106.01H106.68H107.35H108.019C108.223 16.0394 108.418 16.0548 108.605 16.0868C108.793 16.1189 108.971 16.1664 109.141 16.2293C109.311 16.2922 109.472 16.3718 109.625 16.4667C109.778 16.5617 109.922 16.6721 110.058 16.7991C110.195 16.9249 110.314 17.0638 110.416 17.2134C110.518 17.363 110.602 17.5244 110.671 17.6966C110.74 17.8687 110.79 18.0527 110.824 18.2486C110.859 18.4444 110.875 18.651 110.875 18.8694C110.875 19.0225 110.869 19.1709 110.856 19.3134C110.843 19.457 110.825 19.5947 110.8 19.7277C110.776 19.8606 110.745 19.9889 110.707 20.1123C110.67 20.2358 110.626 20.3533 110.576 20.4673C110.526 20.5812 110.472 20.6892 110.413 20.7937C110.355 20.897 110.292 20.9967 110.226 21.0905C110.159 21.1843 110.088 21.2733 110.012 21.3576C109.936 21.4419 109.857 21.5202 109.774 21.595C109.689 21.6698 109.601 21.7398 109.51 21.8051C109.419 21.8704 109.324 21.9321 109.225 21.9891C109.127 22.0461 109.023 22.0983 108.918 22.147C108.811 22.1957 108.702 22.2384 108.588 22.2788C108.474 22.3179 108.359 22.3524 108.242 22.382C108.126 22.4117 108.008 22.4355 107.888 22.4556C107.769 22.4758 107.65 22.4901 107.528 22.4996C107.405 22.5091 107.284 22.5138 107.16 22.5138H105.392H103.624H101.857H100.089L100.005 23.0599L99.9207 23.606L99.8364 24.152L99.7521 24.6981H101.556H103.361H105.165H106.97C107.166 24.6981 107.36 24.691 107.553 24.6767C107.745 24.6625 107.937 24.6411 108.127 24.6126C108.317 24.5841 108.506 24.5485 108.692 24.5058C108.879 24.463 109.064 24.4132 109.248 24.3562C109.432 24.2992 109.611 24.2351 109.784 24.1639C109.958 24.0927 110.126 24.0131 110.289 23.9265C110.451 23.8398 110.609 23.746 110.761 23.6451C110.913 23.5442 111.06 23.435 111.203 23.3187C111.344 23.2023 111.479 23.0789 111.608 22.9471C111.736 22.8153 111.857 22.6753 111.971 22.5281C112.085 22.3809 112.192 22.2242 112.291 22.0603C112.391 21.8965 112.484 21.7256 112.57 21.5451C112.656 21.3659 112.732 21.1783 112.796 20.9813C112.86 20.7854 112.915 20.5812 112.957 20.3687C113 20.1562 113.032 19.9354 113.055 19.7063C113.076 19.4772 113.087 19.2398 113.087 18.9952C113.087 18.8991 113.083 18.8029 113.076 18.7056C113.069 18.6083 113.058 18.5109 113.044 18.4124C113.03 18.3139 113.012 18.2153 112.992 18.1156C112.97 18.0159 112.947 17.9162 112.918 17.8153C112.89 17.7144 112.86 17.6158 112.826 17.5185C112.791 17.4211 112.756 17.325 112.718 17.2312C112.678 17.1374 112.637 17.0448 112.593 16.9534C112.549 16.862 112.502 16.773 112.451 16.6863C112.401 16.5985 112.348 16.5142 112.294 16.4323C112.239 16.3504 112.182 16.2708 112.124 16.1937C112.065 16.1165 112.004 16.0429 111.94 15.9717C111.876 15.9005 111.811 15.8316 111.743 15.7663C111.675 15.701 111.606 15.6393 111.536 15.5811C111.466 15.523 111.395 15.4684 111.324 15.4185C111.253 15.3687 111.179 15.3212 111.106 15.2784C111.032 15.2357 110.957 15.1965 110.881 15.1621C110.989 15.136 111.095 15.1027 111.199 15.0636C111.304 15.0244 111.406 14.9793 111.507 14.9282C111.608 14.8772 111.706 14.819 111.804 14.7549C111.901 14.6908 111.996 14.6208 112.091 14.5436C112.185 14.4665 112.276 14.3869 112.364 14.3026C112.452 14.2183 112.537 14.1317 112.62 14.0403C112.703 13.9489 112.783 13.8539 112.859 13.7566C112.935 13.6592 113.005 13.5488 113.076 13.4444Z" fill="black"/>
</svg>
