<svg width="132" height="48" viewBox="0 0 132 48" fill="none" xmlns="http://www.w3.org/2000/svg">
<rect width="132" height="48" fill="white"/>
<path d="M61.2363 30.5021C61.2363 30.4762 61.2351 30.4515 61.2339 30.4268C61.2327 30.4021 61.2304 30.3775 61.228 30.3539C61.2257 30.3304 61.2222 30.3058 61.2175 30.2834C61.2127 30.2599 61.208 30.2376 61.2033 30.2152C61.1986 30.1929 61.1916 30.1706 61.1845 30.1494C61.1775 30.1283 61.1693 30.1071 61.1599 30.0871C61.1504 30.0671 61.141 30.0471 61.1305 30.0272C61.1199 30.0084 61.1081 29.9895 61.0952 29.9707C61.0787 29.9472 61.0611 29.9249 61.0411 29.9037C61.0211 29.8826 61 29.8626 60.9765 29.845C60.953 29.8262 60.9283 29.8097 60.9024 29.7944C60.8754 29.7791 60.8472 29.765 60.8178 29.7521C60.7884 29.7392 60.7567 29.7274 60.7249 29.718C60.6932 29.7086 60.6603 29.7004 60.6262 29.6933C60.5921 29.6863 60.5568 29.6816 60.5216 29.6792C60.4851 29.6757 60.4487 29.6745 60.4111 29.6745H60.2583H60.1055H59.9527H59.7998L59.6858 30.3293L59.5718 30.984L59.4578 31.6387L59.3438 32.2934H59.5342H59.7246H59.915H60.1055C60.1443 32.2934 60.1807 32.2923 60.216 32.2887C60.2512 32.2864 60.2853 32.2817 60.3171 32.2758C60.3488 32.2699 60.3805 32.2641 60.4087 32.2558C60.4369 32.2476 60.4652 32.2382 60.4922 32.2276C60.5181 32.217 60.5439 32.2041 60.5686 32.1912C60.5933 32.1783 60.6168 32.163 60.6391 32.1477C60.6615 32.1324 60.6838 32.116 60.7049 32.0971C60.7261 32.0795 60.7461 32.0607 60.7649 32.0407C60.7837 32.0207 60.8025 31.9996 60.8201 31.9761C60.8378 31.9526 60.8554 31.9279 60.8719 31.902C60.8883 31.8762 60.9048 31.848 60.9201 31.8186C60.9353 31.7892 60.9506 31.7574 60.9659 31.7257C60.98 31.694 60.9941 31.6611 61.0082 31.627C61.0223 31.5929 61.0353 31.56 61.047 31.5247C61.0599 31.4906 61.0717 31.4553 61.0834 31.4201C61.0952 31.3848 61.1058 31.3484 61.1164 31.3119C61.1269 31.2755 61.1363 31.2391 61.1457 31.2026C61.1551 31.1662 61.1634 31.1297 61.1716 31.0933C61.1798 31.0569 61.1869 31.0216 61.1928 30.9852C61.1986 30.9487 61.2045 30.9135 61.2092 30.8782C61.2139 30.8429 61.2186 30.8077 61.2221 30.7748C61.2257 30.7418 61.2292 30.7089 61.2316 30.6784C61.2339 30.6478 61.2363 30.6172 61.2374 30.589C61.2363 30.5561 61.2363 30.5279 61.2363 30.5021ZM61.9274 30.4527C61.9274 30.4915 61.9263 30.5314 61.9251 30.5726C61.9239 30.6137 61.9216 30.656 61.918 30.7007C61.9145 30.7442 61.911 30.79 61.9063 30.8359C61.9016 30.8829 61.8957 30.9299 61.8898 30.9793C61.8828 31.0287 61.8757 31.078 61.8675 31.1286C61.8593 31.1779 61.8498 31.2273 61.8381 31.2779C61.8263 31.3284 61.8158 31.3766 61.8028 31.4271C61.7899 31.4777 61.7758 31.5259 61.7617 31.5764C61.7464 31.627 61.73 31.6752 61.7123 31.7245C61.6947 31.7727 61.6759 31.8209 61.6559 31.8691C61.6359 31.9173 61.6148 31.9631 61.5912 32.009C61.5689 32.0548 61.5442 32.1007 61.5195 32.1453C61.4937 32.19 61.4666 32.2323 61.4384 32.2735C61.4102 32.3146 61.3808 32.3534 61.3491 32.391C61.3174 32.4286 61.2856 32.4639 61.2504 32.498C61.2163 32.5321 61.1798 32.5638 61.1434 32.5944C61.0717 32.6496 60.9953 32.699 60.913 32.7413C60.8307 32.7836 60.7426 32.8177 60.6497 32.8459C60.5568 32.8741 60.4581 32.8953 60.3547 32.9082C60.2512 32.9223 60.1419 32.9294 60.0279 32.9294H59.6529H59.2779H58.903H58.528L58.6984 31.9561L58.8689 30.9828L59.0393 30.0095L59.2098 29.0363H59.533H59.8563H60.1795H60.5028C60.558 29.0363 60.6121 29.0386 60.6662 29.0445C60.7202 29.0504 60.7743 29.0574 60.8272 29.068C60.8801 29.0786 60.933 29.0915 60.9859 29.1068C61.0388 29.1221 61.0905 29.1397 61.1422 29.1609C61.1939 29.182 61.2445 29.2055 61.2915 29.2326C61.3385 29.2596 61.3844 29.289 61.4267 29.3231C61.4702 29.356 61.5101 29.3924 61.5489 29.4324C61.5877 29.4724 61.623 29.5147 61.6571 29.5605C61.6818 29.5946 61.7053 29.6299 61.7276 29.6651C61.7488 29.7004 61.7687 29.7357 61.7864 29.7709C61.804 29.8062 61.8193 29.8426 61.8334 29.8791C61.8475 29.9155 61.8593 29.9519 61.8687 29.9884C61.8792 30.0248 61.8875 30.0624 61.8945 30.1C61.9016 30.1377 61.9086 30.1764 61.9133 30.2152C61.918 30.254 61.9216 30.294 61.9251 30.334C61.9286 30.3739 61.9274 30.4115 61.9274 30.4527Z" fill="black"/>
<path d="M65.656 29.6781H65.1517H64.6486H64.1455H63.6424L63.6013 29.9049L63.5601 30.1306L63.519 30.3575L63.4779 30.5843H63.9234H64.3677H64.8132H65.2575L65.2293 30.743L65.2011 30.9029L65.1729 31.0616L65.1435 31.2214H64.6992H64.2537H63.8093H63.3638L63.318 31.4871L63.2722 31.7539L63.2263 32.0196L63.1793 32.2864H63.6906H64.2019H64.7144H65.2258L65.1964 32.4474L65.1682 32.6073L65.14 32.7683L65.1106 32.9294H64.4241H63.7376H63.05H62.3635L62.5351 31.9561L62.7068 30.9828L62.8784 30.0095L63.05 29.0363H63.7294H64.41H65.0894H65.7688L65.7406 29.1961L65.7124 29.3572L65.6842 29.517L65.656 29.6781Z" fill="black"/>
<path d="M68.3278 30.2C68.3278 30.1741 68.3266 30.1495 68.3243 30.1248C68.3219 30.1001 68.3172 30.0778 68.3125 30.0543C68.3078 30.0307 68.3008 30.0096 68.2925 29.9884C68.2843 29.9673 68.2761 29.9473 68.2655 29.9273C68.2549 29.9073 68.2432 29.8885 68.2314 29.8709C68.2197 29.8532 68.2067 29.8356 68.1926 29.8192C68.1785 29.8027 68.1644 29.7874 68.1491 29.7733C68.1338 29.7592 68.1186 29.7451 68.1009 29.7322C68.0845 29.7192 68.0668 29.7075 68.048 29.6957C68.0304 29.684 68.0104 29.6746 67.9916 29.664C67.9716 29.6546 67.9517 29.6452 67.9305 29.6381C67.9093 29.6299 67.8882 29.6229 67.8658 29.617C67.8435 29.6111 67.8212 29.6052 67.7988 29.6005C67.7765 29.5958 67.753 29.5911 67.7307 29.5888C67.7083 29.5864 67.6848 29.5829 67.6613 29.5817C67.6378 29.5805 67.6143 29.5794 67.5908 29.5794C67.5485 29.5794 67.5062 29.5817 67.4662 29.5876C67.4262 29.5935 67.3863 29.6017 67.3475 29.6135C67.3087 29.6252 67.2711 29.6393 67.2346 29.6569C67.1982 29.6746 67.1617 29.6946 67.1277 29.7169C67.1112 29.7286 67.0947 29.7416 67.0783 29.7545C67.0618 29.7674 67.0477 29.7815 67.0336 29.7956C67.0195 29.8098 67.0054 29.825 66.9937 29.8403C66.9819 29.8556 66.969 29.8721 66.9572 29.8897C66.9455 29.9061 66.9361 29.9238 66.9267 29.9426C66.9184 29.9614 66.9114 29.9802 66.9055 30.0002C66.8996 30.0202 66.8961 30.0413 66.8926 30.0625C66.8902 30.0836 66.8879 30.106 66.8879 30.1295C66.8879 30.1589 66.8902 30.1871 66.8949 30.2129C66.8996 30.2388 66.9055 30.2635 66.9149 30.2858C66.9243 30.3081 66.9349 30.3293 66.9478 30.3481C66.9607 30.3669 66.976 30.3846 66.9937 30.3998C67.0113 30.4151 67.0289 30.4292 67.0466 30.4422C67.0642 30.4551 67.0806 30.4657 67.0983 30.4751C67.1159 30.4845 67.1324 30.4927 67.1488 30.4997C67.1653 30.5068 67.1817 30.5115 67.1994 30.515L67.3992 30.5632L67.599 30.6114L67.7988 30.6596L67.9987 30.7078C68.0281 30.7149 68.0563 30.7231 68.0845 30.7325C68.1127 30.7419 68.1409 30.7513 68.1691 30.7631C68.1973 30.7736 68.2244 30.7854 68.2514 30.7983C68.2784 30.8112 68.3055 30.8254 68.3313 30.8395C68.3572 30.8536 68.383 30.8688 68.4077 30.8853C68.4324 30.9018 68.4559 30.9194 68.4783 30.937C68.5006 30.9547 68.5229 30.9746 68.5441 30.9946C68.5652 31.0146 68.5852 31.0358 68.6052 31.0581C68.6252 31.0804 68.6428 31.1028 68.6605 31.1263C68.6781 31.1498 68.6945 31.1745 68.7098 31.2003C68.7251 31.2262 68.7404 31.252 68.7545 31.2791C68.7686 31.3061 68.7815 31.3343 68.7933 31.3625C68.805 31.3919 68.8156 31.4213 68.8238 31.4507C68.8332 31.4813 68.8403 31.5118 68.8462 31.5436C68.8521 31.5753 68.8568 31.6082 68.8591 31.6411C68.8615 31.674 68.8638 31.7081 68.8638 31.7434C68.8638 31.7892 68.8615 31.8327 68.8579 31.8762C68.8544 31.9197 68.8474 31.9608 68.8391 32.002C68.8309 32.0431 68.8203 32.0819 68.8086 32.1195C68.7968 32.1571 68.7827 32.1936 68.7662 32.2288C68.7498 32.2641 68.7322 32.2982 68.7122 32.3311C68.6922 32.364 68.6722 32.3958 68.6499 32.4263C68.6275 32.4569 68.604 32.4874 68.5782 32.5157C68.5535 32.5439 68.5265 32.5721 68.4982 32.5979C68.4618 32.632 68.4242 32.6638 68.3842 32.6932C68.3443 32.7225 68.3031 32.7496 68.2596 32.7754C68.2161 32.8013 68.1715 32.8236 68.1256 32.8448C68.0798 32.8659 68.0304 32.8848 67.981 32.9012C67.9305 32.9177 67.8811 32.9318 67.8294 32.9447C67.7789 32.9565 67.7271 32.967 67.6742 32.9753C67.6225 32.9835 67.5696 32.9894 67.5167 32.9941C67.4638 32.9988 67.4098 32.9999 67.3557 32.9999C67.2981 32.9999 67.2417 32.9976 67.1864 32.9941C67.1312 32.9905 67.0771 32.9847 67.0242 32.9764C66.9713 32.9682 66.9184 32.9588 66.8679 32.9471C66.8162 32.9353 66.7668 32.9224 66.7174 32.9059C66.6681 32.8906 66.6199 32.8718 66.5728 32.8507C66.5258 32.8295 66.48 32.8048 66.4353 32.7778C66.3906 32.7507 66.3472 32.7214 66.3048 32.6884C66.2625 32.6555 66.2214 32.6203 66.1814 32.5815C66.152 32.5533 66.125 32.5239 66.0991 32.4933C66.0733 32.4628 66.0486 32.431 66.0251 32.3981C66.0016 32.3652 65.9804 32.3311 65.9604 32.2958C65.9404 32.2606 65.9216 32.2241 65.904 32.1865C65.8864 32.1489 65.8711 32.1113 65.8582 32.0737C65.8452 32.0361 65.8347 31.9973 65.8252 31.9585C65.8158 31.9197 65.81 31.8809 65.8064 31.8421C65.8029 31.8033 65.8006 31.7645 65.8006 31.7257V31.7034V31.6811V31.6587V31.6364H65.9816H66.1626H66.3436H66.5246C66.5246 31.6787 66.5282 31.7199 66.5341 31.7598C66.5399 31.7998 66.5505 31.8386 66.5634 31.8762C66.5764 31.9138 66.5916 31.9514 66.6116 31.9867C66.6304 32.0231 66.6528 32.0572 66.6786 32.0913C66.6998 32.1207 66.7233 32.1477 66.7468 32.1712C66.7703 32.1959 66.795 32.2171 66.8209 32.2371C66.8467 32.2559 66.8726 32.2735 66.9008 32.2876C66.929 32.3017 66.9572 32.3135 66.9866 32.3229C67.016 32.3323 67.0466 32.3393 67.0783 32.3464C67.11 32.3534 67.1429 32.3593 67.1759 32.3629C67.2099 32.3676 67.244 32.3711 67.2805 32.3734C67.3169 32.3758 67.3533 32.377 67.391 32.377C67.4121 32.377 67.4333 32.3758 67.4544 32.3746C67.4756 32.3734 67.4968 32.3711 67.5191 32.3687C67.5402 32.3664 67.5626 32.3628 67.5837 32.3581C67.6061 32.3534 67.6272 32.3487 67.6496 32.344C67.6719 32.3393 67.6942 32.3323 67.7154 32.3264C67.7365 32.3194 67.7577 32.3123 67.7777 32.3029C67.7977 32.2947 67.8177 32.2853 67.8376 32.2747C67.8576 32.2653 67.8764 32.2535 67.8952 32.243C67.914 32.2312 67.9317 32.2194 67.9481 32.2065C67.9646 32.1936 67.981 32.1795 67.9963 32.1654C68.0116 32.1513 68.0257 32.1348 68.0398 32.1184C68.0539 32.1019 68.0657 32.0854 68.0774 32.0666C68.0892 32.049 68.0998 32.0302 68.108 32.0114C68.1162 31.9914 68.1244 31.9714 68.1303 31.9503C68.1362 31.9291 68.1409 31.9068 68.1433 31.8833C68.1456 31.8598 68.148 31.8362 68.148 31.8116C68.148 31.7822 68.1456 31.7551 68.1409 31.7281C68.1362 31.7011 68.1303 31.6764 68.1209 31.6529C68.1115 31.6294 68.1009 31.607 68.088 31.5859C68.0751 31.5647 68.0598 31.5447 68.0422 31.5259C68.0245 31.5071 68.0057 31.4907 67.9857 31.4754C67.9658 31.4601 67.9446 31.446 67.9234 31.4342C67.9023 31.4225 67.8788 31.4107 67.8541 31.4013C67.8294 31.3919 67.8047 31.3837 67.7777 31.3778L67.5743 31.3284L67.371 31.2791L67.1676 31.2297L66.9643 31.1803C66.9372 31.1733 66.9102 31.1662 66.8832 31.158C66.8561 31.1498 66.8303 31.1404 66.8056 31.1298C66.7797 31.1192 66.755 31.1075 66.7304 31.0957C66.7057 31.0828 66.681 31.0698 66.6575 31.0557C66.634 31.0416 66.6105 31.0252 66.5881 31.0099C66.5658 30.9934 66.5435 30.977 66.5223 30.9582C66.5011 30.9405 66.4812 30.9217 66.4612 30.9018C66.4412 30.8818 66.4224 30.8618 66.4047 30.8406C66.3859 30.8195 66.3695 30.7983 66.353 30.776C66.3366 30.7536 66.3213 30.7301 66.3072 30.7066C66.2931 30.6831 66.2802 30.6584 66.2672 30.6338C66.2543 30.6091 66.2437 30.5832 66.2331 30.5562C66.2226 30.5291 66.2143 30.5021 66.2061 30.4751C66.1979 30.448 66.192 30.4198 66.1861 30.3916C66.1802 30.3634 66.1767 30.334 66.1744 30.3046C66.172 30.2752 66.1708 30.2458 66.1708 30.2153C66.1708 30.1647 66.1732 30.1154 66.1791 30.0684C66.1849 30.0213 66.1932 29.9755 66.2037 29.9308C66.2143 29.8862 66.2284 29.8438 66.2449 29.8027C66.2613 29.7616 66.2802 29.7216 66.3025 29.6828C66.3248 29.644 66.3472 29.6076 66.3718 29.5723C66.3965 29.5371 66.4224 29.503 66.4494 29.47C66.4765 29.4371 66.5047 29.4066 66.5352 29.3772C66.5646 29.3478 66.5964 29.3196 66.6293 29.2937C66.6998 29.2385 66.775 29.1903 66.8526 29.1491C66.9302 29.108 67.0113 29.0739 67.0959 29.0457C67.1806 29.0187 67.2687 28.9975 67.3604 28.9846C67.4521 28.9717 67.5473 28.9646 67.646 28.9646C67.7601 28.9646 67.867 28.9728 67.9681 28.9893C68.0692 29.0057 68.1644 29.0293 68.2537 29.0622C68.3431 29.0951 68.4254 29.135 68.5018 29.1832C68.5782 29.2314 68.6487 29.289 68.7133 29.3537C68.7404 29.3807 68.7662 29.4101 68.7898 29.4395C68.8144 29.4689 68.8368 29.4983 68.8579 29.53C68.8791 29.5617 68.8991 29.5923 68.9167 29.6252C68.9343 29.6581 68.9508 29.691 68.9661 29.7251C68.9814 29.7592 68.9943 29.7945 69.0049 29.8297C69.0166 29.865 69.0248 29.9003 69.0331 29.9367C69.0401 29.9731 69.046 30.0096 69.0495 30.0472C69.0531 30.0848 69.0554 30.1224 69.0554 30.1612V30.1706V30.18V30.1906V30.2H68.8744H68.6934H68.5123H68.3278Z" fill="black"/>
<path d="M70.1274 32.9294H69.9488H69.7689H69.5891H69.4104L69.5797 31.9561L69.7501 30.9828L69.9205 30.0095L70.0898 29.0363H70.2697H70.4495H70.6293H70.8092L70.6388 30.0095L70.4683 30.9828L70.2979 31.9561L70.1274 32.9294Z" fill="black"/>
<path d="M73.7467 30.2493C73.7467 30.2282 73.7455 30.207 73.7443 30.187C73.742 30.167 73.7396 30.147 73.7361 30.1271C73.7326 30.1071 73.7279 30.0883 73.7232 30.0695C73.7185 30.0507 73.7114 30.0319 73.7043 30.0142C73.6973 29.9966 73.6891 29.9778 73.6808 29.9613C73.6726 29.9437 73.6632 29.9272 73.6526 29.9108C73.642 29.8943 73.6315 29.8779 73.6209 29.8626C73.6091 29.8473 73.5974 29.832 73.5844 29.8167C73.5715 29.8015 73.5562 29.7862 73.541 29.7721C73.5257 29.758 73.508 29.745 73.4904 29.7321C73.4728 29.7192 73.454 29.7086 73.4328 29.698C73.4117 29.6874 73.3917 29.6769 73.3693 29.6686C73.347 29.6592 73.3247 29.651 73.3 29.6451C73.2753 29.6393 73.2506 29.6322 73.2248 29.6275C73.1989 29.6228 73.1719 29.6193 73.1436 29.6169C73.1154 29.6146 73.0861 29.6134 73.0567 29.6134C73.0226 29.6134 72.9897 29.6146 72.9568 29.6181C72.925 29.6216 72.8945 29.6263 72.8639 29.6322C72.8333 29.6381 72.8063 29.6463 72.7793 29.6557C72.7522 29.6651 72.7264 29.6757 72.7017 29.6886C72.677 29.7004 72.6535 29.7145 72.63 29.7286C72.6065 29.7427 72.5841 29.758 72.563 29.7732C72.5418 29.7885 72.5207 29.8062 72.4995 29.8226C72.4795 29.8403 72.4595 29.8579 72.4407 29.8779C72.4196 29.899 72.3996 29.9214 72.3796 29.946C72.3596 29.9707 72.3408 29.9954 72.322 30.0224C72.3032 30.0495 72.2856 30.0777 72.2691 30.1083C72.2515 30.1376 72.235 30.1694 72.2197 30.2023C72.2033 30.2352 72.1892 30.2681 72.1739 30.3022C72.1598 30.3363 72.1457 30.3716 72.1328 30.4068C72.1198 30.4421 72.1081 30.4785 72.0963 30.515C72.0846 30.5514 72.074 30.5878 72.0634 30.6255C72.054 30.6631 72.0446 30.6995 72.0352 30.7371C72.027 30.7747 72.0187 30.8112 72.0105 30.8488C72.0023 30.8864 71.9964 30.9228 71.9905 30.9605C71.9847 30.9981 71.9788 31.0345 71.9741 31.0721C71.9694 31.1086 71.9647 31.145 71.9611 31.1803C71.9576 31.2155 71.9541 31.2496 71.9517 31.2825C71.9494 31.3155 71.947 31.3484 71.9459 31.3789C71.9447 31.4095 71.9435 31.44 71.9435 31.4706C71.9435 31.5023 71.9447 31.5341 71.947 31.5658C71.9494 31.5976 71.9517 31.6281 71.9564 31.6587C71.9611 31.6892 71.9658 31.7198 71.9717 31.7492C71.9776 31.7786 71.9846 31.8091 71.9929 31.8385C72.0011 31.8679 72.0105 31.8961 72.0223 31.9243C72.034 31.9514 72.0469 31.9784 72.0611 32.0043C72.0752 32.0301 72.0916 32.0548 72.1092 32.0783C72.1269 32.1018 72.1457 32.1253 72.1668 32.1465C72.1833 32.1641 72.2009 32.1806 72.2186 32.1959C72.2374 32.2112 72.2562 32.2253 72.2762 32.2382C72.2961 32.2511 72.3185 32.264 72.3408 32.2746C72.3631 32.2864 72.3867 32.2958 72.4113 32.3052C72.436 32.3146 72.4595 32.3228 72.4842 32.3287C72.5089 32.3357 72.5324 32.3416 72.5571 32.3463C72.5818 32.351 72.6053 32.3546 72.6288 32.3569C72.6523 32.3593 72.6758 32.3604 72.6993 32.3604C72.7628 32.3604 72.8239 32.3557 72.8815 32.3452C72.9391 32.3346 72.9944 32.3193 73.0461 32.2981C73.0978 32.277 73.1472 32.2511 73.1942 32.2194C73.2412 32.1876 73.2847 32.1512 73.3247 32.1089C73.3435 32.0901 73.3599 32.0713 73.3776 32.0513C73.394 32.0313 73.4105 32.0113 73.4258 31.9902C73.441 31.969 73.4551 31.9467 73.4692 31.9243C73.4834 31.902 73.4963 31.8785 73.508 31.8538C73.5198 31.8291 73.5316 31.8044 73.541 31.7798C73.5504 31.7551 73.5609 31.7292 73.5692 31.7045C73.5774 31.6798 73.5844 31.6528 73.5915 31.6269C73.5986 31.6011 73.6033 31.5741 73.608 31.5482C73.6091 31.5435 73.6103 31.5388 73.6103 31.5353C73.6115 31.5306 73.6127 31.5259 73.6127 31.5212C73.6127 31.5165 73.615 31.5118 73.615 31.5071C73.6162 31.5024 73.6174 31.4976 73.6185 31.4941C73.6197 31.4894 73.6197 31.4847 73.6209 31.48C73.6221 31.4753 73.6221 31.4706 73.6232 31.4671C73.6244 31.4624 73.6244 31.4589 73.6256 31.4542C73.6268 31.4506 73.6268 31.4459 73.6279 31.4424C73.6279 31.4377 73.6291 31.4342 73.6291 31.4295C73.6291 31.4248 73.6303 31.4212 73.6303 31.4165C73.6315 31.4118 73.6315 31.4083 73.6326 31.4036C73.6338 31.3989 73.6338 31.3942 73.635 31.3895H73.4058H73.1766H72.9473H72.7181L72.744 31.2426L72.7699 31.0956L72.7957 30.9487L72.8216 30.8018H73.2189H73.6162H74.0135H74.4108L74.3168 31.3343L74.2227 31.8667L74.1287 32.3992L74.0346 32.9317H73.9195H73.8043H73.6891H73.5739V32.8506V32.7695V32.6884V32.6073C73.5539 32.6343 73.5316 32.659 73.5069 32.6837C73.4822 32.7084 73.454 32.7319 73.4246 32.7554C73.3952 32.7777 73.3623 32.8001 73.327 32.8212C73.2918 32.8424 73.2541 32.8624 73.2142 32.8812C73.1742 32.9011 73.1331 32.9176 73.0896 32.9317C73.0461 32.9458 73.0014 32.9587 72.9556 32.9681C72.9097 32.9776 72.8615 32.9846 72.8122 32.9905C72.7628 32.9952 72.7123 32.9975 72.6594 32.9975C72.61 32.9975 72.5618 32.9952 72.5148 32.9917C72.4678 32.9881 72.4207 32.9822 72.3761 32.974C72.3314 32.9658 72.2856 32.9564 72.2421 32.9446C72.1986 32.9329 72.1551 32.9188 72.1128 32.9035C72.0705 32.8882 72.0293 32.8694 71.9894 32.8494C71.9494 32.8294 71.9094 32.8059 71.8718 32.7812C71.833 32.7566 71.7966 32.7284 71.7601 32.699C71.7237 32.6684 71.6884 32.6367 71.6543 32.6014C71.6156 32.5626 71.5803 32.5238 71.5486 32.4827C71.5156 32.4415 71.4863 32.3992 71.4604 32.3546C71.4334 32.3099 71.4099 32.2652 71.3899 32.2182C71.3699 32.1712 71.3511 32.123 71.3358 32.0736C71.3205 32.0243 71.3076 31.9737 71.2958 31.9232C71.2841 31.8726 71.2747 31.8221 71.2676 31.7704C71.2606 31.7198 71.2547 31.6681 71.25 31.6164C71.2453 31.5646 71.2441 31.5129 71.2441 31.4612C71.2441 31.4201 71.2453 31.3778 71.2465 31.3354C71.2476 31.2931 71.2512 31.2496 71.2547 31.2061C71.2582 31.1626 71.2629 31.118 71.2676 31.0733C71.2723 31.0286 71.2782 30.9828 71.2853 30.9358C71.2923 30.8899 71.2994 30.8441 71.3088 30.7983C71.317 30.7524 71.3276 30.7066 71.337 30.6607C71.3464 30.6149 71.3593 30.569 71.3711 30.5244C71.3828 30.4785 71.3969 30.4339 71.411 30.388C71.4251 30.3422 71.4392 30.2975 71.4557 30.254C71.4721 30.2105 71.4886 30.1659 71.5062 30.1235C71.5239 30.0812 71.5427 30.0377 71.5615 29.9966C71.5815 29.9543 71.6014 29.9131 71.6226 29.872C71.6438 29.8308 71.6661 29.7921 71.6896 29.7544C71.7131 29.7168 71.7366 29.6804 71.7625 29.6451C71.7883 29.6099 71.8142 29.5769 71.8412 29.544C71.8683 29.5123 71.8965 29.4817 71.9259 29.4524C71.9635 29.4136 72.0035 29.3771 72.0434 29.343C72.0846 29.3089 72.1257 29.2772 72.1692 29.2466C72.2127 29.2161 72.2562 29.189 72.302 29.1644C72.3479 29.1385 72.3949 29.1162 72.4431 29.095C72.4913 29.0739 72.5395 29.0562 72.59 29.0398C72.6406 29.0245 72.6911 29.0116 72.744 29.001C72.7969 28.9904 72.8498 28.9822 72.905 28.9775C72.9603 28.9728 73.0155 28.9692 73.0731 28.9692C73.1319 28.9692 73.1883 28.9716 73.2436 28.9751C73.2976 28.9798 73.3505 28.9857 73.4011 28.9939C73.4516 29.0022 73.4998 29.0127 73.5457 29.0257C73.5915 29.0386 73.6362 29.0527 73.6773 29.0692C73.7184 29.0868 73.7596 29.1056 73.7984 29.1256C73.8372 29.1467 73.8736 29.1691 73.91 29.1926C73.9465 29.2161 73.9794 29.2431 74.0123 29.2702C74.0452 29.2972 74.077 29.3277 74.1063 29.3583C74.1357 29.3877 74.1628 29.4183 74.1886 29.45C74.2145 29.4817 74.238 29.5147 74.2603 29.5487C74.2827 29.5828 74.3027 29.6193 74.3215 29.6557C74.3403 29.6921 74.3567 29.7309 74.372 29.7697C74.3873 29.8085 74.4014 29.8485 74.4131 29.8884C74.4249 29.9284 74.4343 29.9684 74.4425 30.0083C74.4508 30.0483 74.4555 30.0894 74.4602 30.1294C74.4637 30.1706 74.466 30.2105 74.466 30.2517H74.2862H74.1063H73.9265H73.7467V30.2493Z" fill="black"/>
<path d="M78.0347 32.9294H77.8537H77.6727H77.4917H77.3106L77.0086 32.23L76.7065 31.5318L76.4044 30.8324L76.1023 30.1341L75.9883 30.8324L75.8742 31.5318L75.7602 32.23L75.6462 32.9294H75.4711H75.2971H75.1231H74.9492L75.1184 31.9561L75.2889 30.9828L75.4593 30.0095L75.6297 29.0363H75.8166H76.0047H76.1928H76.3809L76.6771 29.7263L76.9733 30.4162L77.2707 31.1062L77.5669 31.7974L77.6809 31.1062L77.7949 30.4162L77.9101 29.7263L78.0241 29.0363H78.1969H78.3697H78.5425H78.7153L78.5449 30.0095L78.3744 30.9828L78.2052 31.9561L78.0347 32.9294Z" fill="black"/>
<path d="M83.5465 29.6781H83.0645H82.5814H82.0983H81.6152L81.5693 29.939L81.5235 30.2L81.4765 30.4609L81.4306 30.7219H81.8644H82.2981H82.7319H83.1656L83.1386 30.8829L83.1115 31.0428L83.0845 31.2038L83.0563 31.3648H82.6214H82.1864H81.7515H81.3154L81.2484 31.7551L81.1803 32.1465L81.1121 32.5379L81.0439 32.9294H80.8676H80.6901H80.5138H80.3374L80.5079 31.9561L80.6795 30.9828L80.8511 30.0095L81.0216 29.0363H81.6822H82.3416H83.001H83.6605L83.6323 29.1961L83.604 29.3572L83.5758 29.517L83.5465 29.6781Z" fill="black"/>
<path d="M86.2947 30.5021C86.2947 30.4704 86.2935 30.4375 86.2912 30.4069C86.2888 30.3752 86.2864 30.3446 86.2817 30.3141C86.2782 30.2835 86.2723 30.2529 86.2665 30.2236C86.2606 30.193 86.2535 30.1636 86.2453 30.1342C86.2371 30.1048 86.2277 30.0766 86.2159 30.0496C86.2042 30.0226 86.1912 29.9955 86.1771 29.9697C86.163 29.9438 86.1466 29.9191 86.1289 29.8956C86.1113 29.8721 86.0925 29.8486 86.0713 29.8274C86.0361 29.7922 85.9985 29.7604 85.9597 29.7334C85.9209 29.7064 85.8786 29.684 85.8351 29.6664C85.7916 29.6488 85.7457 29.6347 85.6987 29.6264C85.6505 29.617 85.6012 29.6135 85.5494 29.6135C85.5142 29.6135 85.4813 29.6147 85.4495 29.6182C85.4178 29.6217 85.3872 29.6264 85.3578 29.6323C85.3285 29.6382 85.3014 29.6464 85.2744 29.6558C85.2473 29.6652 85.2227 29.6758 85.1992 29.6887C85.1756 29.7005 85.1533 29.7146 85.131 29.7287C85.1086 29.7428 85.0863 29.7581 85.0651 29.7734C85.044 29.7886 85.0228 29.8063 85.0028 29.8227C84.9829 29.8404 84.9629 29.8592 84.9441 29.878C84.9229 29.8991 84.9029 29.9215 84.883 29.9462C84.863 29.9697 84.8442 29.9955 84.8254 30.0226C84.8065 30.0496 84.7889 30.0778 84.7725 30.1084C84.7548 30.1389 84.7384 30.1695 84.7231 30.2036C84.7078 30.2365 84.6925 30.2694 84.6772 30.3035C84.6631 30.3376 84.649 30.3717 84.6361 30.4069C84.6232 30.4422 84.6114 30.4775 84.5997 30.5139C84.5879 30.5503 84.5773 30.5868 84.5679 30.6244C84.5585 30.662 84.5491 30.6996 84.5397 30.7372C84.5315 30.7749 84.5233 30.8125 84.515 30.8489C84.5068 30.8853 84.5009 30.923 84.4939 30.9606C84.4868 30.9982 84.4821 31.0346 84.4774 31.0722C84.4727 31.1099 84.468 31.1451 84.4645 31.1804C84.461 31.2157 84.4574 31.2497 84.4551 31.2826C84.4527 31.3156 84.4504 31.3485 84.4492 31.379C84.448 31.4108 84.4469 31.4402 84.4469 31.4695C84.4469 31.5013 84.448 31.533 84.4492 31.5648C84.4504 31.5965 84.4539 31.6271 84.4586 31.6576C84.4633 31.6882 84.468 31.7187 84.4739 31.7481C84.4798 31.7775 84.4868 31.8081 84.4951 31.8375C84.5033 31.8669 84.5127 31.8951 84.5244 31.9233C84.5362 31.9503 84.5491 31.9773 84.5632 32.0032C84.5773 32.0291 84.5938 32.0538 84.6114 32.0773C84.6291 32.1008 84.6479 32.1231 84.669 32.1454C84.7043 32.1819 84.7419 32.2124 84.7819 32.2395C84.8218 32.2665 84.863 32.2888 84.9065 32.3065C84.95 32.3241 84.9958 32.337 85.0428 32.3464C85.091 32.3558 85.1404 32.3594 85.1921 32.3594C85.2262 32.3594 85.2591 32.3582 85.2908 32.3547C85.3226 32.3523 85.3531 32.3476 85.3825 32.3417C85.4119 32.3359 85.4401 32.3288 85.466 32.3194C85.493 32.3112 85.5177 32.3006 85.5424 32.2888C85.5659 32.2771 85.5894 32.2642 85.6129 32.2501C85.6352 32.2359 85.6576 32.2218 85.6799 32.2054C85.7011 32.1901 85.7222 32.1736 85.7422 32.156C85.7622 32.1384 85.7822 32.1208 85.801 32.1019C85.8221 32.0808 85.8421 32.0585 85.8621 32.0338C85.8821 32.0091 85.9009 31.9844 85.9185 31.9562C85.9362 31.928 85.9538 31.8998 85.9714 31.8704C85.9879 31.8398 86.0043 31.8081 86.0196 31.7752C86.0349 31.7411 86.0502 31.7082 86.0631 31.6729C86.076 31.6376 86.0901 31.6035 86.1031 31.5683C86.116 31.533 86.1278 31.4978 86.1395 31.4613C86.1513 31.4249 86.1618 31.3884 86.1712 31.352C86.1807 31.3144 86.1901 31.2779 86.1995 31.2403C86.2077 31.2027 86.2159 31.1663 86.2242 31.1287C86.2324 31.091 86.2383 31.0534 86.2441 31.017C86.25 30.9794 86.2559 30.9418 86.2606 30.9042C86.2653 30.8665 86.27 30.8301 86.2735 30.7948C86.277 30.7596 86.2806 30.7255 86.2829 30.6914C86.2853 30.6573 86.2876 30.6256 86.2888 30.5938C86.2947 30.5621 86.2947 30.5315 86.2947 30.5021ZM87.0129 30.5127C87.0129 30.5539 87.0117 30.5962 87.0105 30.6385C87.0094 30.6808 87.0058 30.7243 87.0035 30.7678C86.9999 30.8113 86.9953 30.856 86.9906 30.9006C86.9858 30.9453 86.9788 30.9911 86.9717 31.037C86.9647 31.0828 86.9576 31.1287 86.9494 31.1745C86.9412 31.2204 86.9318 31.2662 86.9212 31.312C86.9106 31.3579 86.9 31.4025 86.8883 31.4484C86.8765 31.4942 86.8636 31.5389 86.8495 31.5836C86.8366 31.6282 86.8213 31.6729 86.806 31.7164C86.7907 31.7599 86.7743 31.8034 86.7566 31.8457C86.739 31.888 86.7202 31.9303 86.7014 31.9726C86.6826 32.0138 86.6614 32.0549 86.6403 32.0961C86.6191 32.1372 86.5968 32.176 86.5733 32.2136C86.5497 32.2512 86.5262 32.2877 86.5004 32.3229C86.4757 32.3582 86.4487 32.3911 86.4216 32.424C86.3946 32.4558 86.3664 32.4875 86.337 32.5169C86.2982 32.5557 86.2594 32.5921 86.2183 32.6262C86.1771 32.6603 86.136 32.692 86.0925 32.7214C86.049 32.7508 86.0043 32.779 85.9585 32.8037C85.9126 32.8284 85.8656 32.8519 85.8174 32.873C85.7692 32.8942 85.7199 32.9118 85.6693 32.9283C85.6188 32.9436 85.5671 32.9577 85.5142 32.9683C85.4613 32.9788 85.4072 32.9871 85.352 32.9918C85.2967 32.9965 85.2403 33 85.1839 33C85.1345 33 85.0863 32.9976 85.0393 32.9941C84.9923 32.9906 84.9441 32.9835 84.8971 32.9753C84.85 32.9671 84.8042 32.9565 84.7584 32.9447C84.7125 32.933 84.6678 32.9177 84.6232 32.9013C84.5785 32.8848 84.5362 32.866 84.4939 32.8448C84.4516 32.8237 84.4116 32.8002 84.3716 32.7743C84.3317 32.7484 84.294 32.7202 84.2564 32.6908C84.22 32.6603 84.1836 32.6274 84.1495 32.5933C84.1107 32.5545 84.0754 32.5145 84.0437 32.4734C84.0108 32.4322 83.9814 32.3899 83.9555 32.3464C83.9285 32.3029 83.905 32.2571 83.885 32.2113C83.8638 32.1642 83.8462 32.1172 83.8309 32.0679C83.8156 32.0185 83.8027 31.9691 83.7921 31.9186C83.7804 31.868 83.7721 31.8175 83.7639 31.7669C83.7569 31.7164 83.751 31.6647 83.7475 31.613C83.7439 31.5612 83.7416 31.5095 83.7416 31.4566C83.7416 31.4155 83.7428 31.3732 83.7439 31.3308C83.7451 31.2885 83.7475 31.245 83.751 31.2015C83.7545 31.158 83.758 31.1134 83.7639 31.0687C83.7686 31.024 83.7757 30.9782 83.7827 30.9312C83.7898 30.8853 83.7968 30.8395 83.8062 30.7937C83.8145 30.7478 83.8239 30.702 83.8344 30.6561C83.845 30.6103 83.8556 30.5656 83.8685 30.5198C83.8803 30.4751 83.8944 30.4293 83.9085 30.3846C83.9226 30.3399 83.9379 30.2953 83.9532 30.2518C83.9684 30.2083 83.9861 30.1648 84.0037 30.1213C84.0213 30.0778 84.0401 30.0355 84.059 29.9943C84.0789 29.952 84.0989 29.9109 84.1201 29.8697C84.1412 29.8298 84.1636 29.7898 84.1871 29.7522C84.2106 29.7146 84.2353 29.6781 84.26 29.6429C84.2846 29.6076 84.3117 29.5747 84.3387 29.5418C84.3657 29.5089 84.394 29.4783 84.4222 29.4489C84.4598 29.4101 84.4997 29.3737 84.5397 29.3396C84.5797 29.3055 84.622 29.2738 84.6643 29.2444C84.7066 29.215 84.7513 29.1868 84.796 29.1621C84.8406 29.1363 84.8877 29.1139 84.9347 29.0928C84.9817 29.0716 85.0299 29.054 85.0793 29.0375C85.1286 29.0222 85.1792 29.0081 85.2321 28.9976C85.2838 28.987 85.3379 28.9788 85.3919 28.974C85.446 28.9693 85.5024 28.9658 85.56 28.9658C85.6094 28.9658 85.6576 28.9682 85.7058 28.9717C85.754 28.9764 85.801 28.9823 85.848 28.9905C85.895 28.9987 85.9409 29.0093 85.9867 29.0211C86.0325 29.0328 86.0772 29.0481 86.1219 29.0646C86.1665 29.081 86.21 29.0998 86.2524 29.121C86.2947 29.1421 86.3358 29.1656 86.3758 29.1915C86.4157 29.2174 86.4534 29.2456 86.491 29.275C86.5286 29.3055 86.5639 29.3373 86.5979 29.3725C86.6367 29.4113 86.672 29.4513 86.7037 29.4924C86.7355 29.5336 86.766 29.5759 86.7931 29.6194C86.8201 29.6629 86.8436 29.7087 86.8648 29.7546C86.8859 29.8016 86.9036 29.8486 86.9188 29.898C86.9341 29.9473 86.9482 29.9979 86.96 30.0472C86.9717 30.0966 86.9811 30.1483 86.9894 30.1989C86.9976 30.2494 87.0023 30.3011 87.007 30.3529C87.0117 30.4093 87.0129 30.461 87.0129 30.5127Z" fill="black"/>
<path d="M90.1678 30.1554C90.1678 30.1166 90.1643 30.0813 90.1584 30.0461C90.1514 30.012 90.142 29.9791 90.129 29.9485C90.1161 29.918 90.0996 29.8897 90.0797 29.8627C90.0597 29.8368 90.0373 29.8122 90.0115 29.7898C89.9856 29.7675 89.9562 29.7475 89.9233 29.7311C89.8904 29.7146 89.8551 29.7005 89.8164 29.6887C89.7776 29.677 89.7352 29.6688 89.6894 29.6641C89.6436 29.6594 89.5954 29.6558 89.5436 29.6558H89.3379H89.1322H88.9265H88.7208L88.6703 29.9462L88.6197 30.2365L88.5692 30.5268L88.5186 30.8172H88.7349H88.9512H89.1675H89.3838C89.4108 30.8172 89.4379 30.816 89.4637 30.8148C89.4896 30.8137 89.5154 30.8113 89.5413 30.8078C89.5672 30.8043 89.5918 30.8007 89.6165 30.7972C89.6412 30.7925 89.6647 30.7878 89.6882 30.7819C89.7117 30.776 89.7341 30.769 89.7564 30.7608C89.7787 30.7525 89.7999 30.7443 89.8199 30.7349C89.8399 30.7255 89.861 30.7149 89.8798 30.7032C89.8986 30.6914 89.9174 30.6797 89.9351 30.6655C89.9527 30.6526 89.9692 30.6385 89.9856 30.6232C90.0009 30.6079 90.0162 30.5927 90.0303 30.575C90.0444 30.5574 90.0573 30.5398 90.0691 30.5221C90.0808 30.5033 90.0926 30.4834 90.1032 30.4634C90.1137 30.4422 90.1231 30.4211 90.1302 30.3975C90.1384 30.374 90.1443 30.3505 90.1502 30.3247C90.1561 30.2988 90.1596 30.2729 90.1619 30.2447C90.1643 30.2165 90.1678 30.186 90.1678 30.1554ZM90.8931 30.1119C90.8931 30.153 90.8919 30.193 90.8884 30.233C90.8848 30.2729 90.8813 30.3117 90.8754 30.3493C90.8696 30.387 90.8625 30.4246 90.8531 30.4598C90.8437 30.4951 90.8343 30.5315 90.8225 30.5656C90.8108 30.5997 90.7979 30.6326 90.7838 30.6644C90.7696 30.6961 90.7544 30.7278 90.7391 30.7584C90.7238 30.789 90.7062 30.8172 90.6874 30.8454C90.6686 30.8736 90.6498 30.9006 90.6298 30.9265C90.6086 30.9524 90.5875 30.9782 90.5651 31.0017C90.5428 31.0252 90.5193 31.0487 90.4946 31.0711C90.4699 31.0934 90.4452 31.1134 90.4182 31.1334C90.3912 31.1534 90.3641 31.1722 90.3359 31.1898C90.3077 31.2074 90.2783 31.2239 90.2477 31.2403C90.2184 31.2556 90.1878 31.2697 90.1572 31.2827C90.1267 31.2956 90.0949 31.3073 90.0644 31.3179C90.0338 31.3285 90.0009 31.3379 89.968 31.3461L90.0867 31.7411L90.2054 32.136L90.3242 32.531L90.4429 32.9259H90.2607H90.0785H89.8963H89.7141L89.6048 32.5522L89.4955 32.1784L89.3861 31.8046L89.2768 31.4308H89.0617H88.8466H88.6268H88.4117L88.347 31.8046L88.2824 32.1784L88.2177 32.5522L88.1531 32.9259H87.9779H87.8028H87.6277H87.4525L87.6229 31.9527L87.7934 30.9794L87.9638 30.0061L88.1343 29.0328H88.5151H88.896H89.2768H89.6577C89.7035 29.0328 89.7493 29.034 89.7928 29.0375C89.8375 29.0411 89.8798 29.0458 89.9221 29.0528C89.9645 29.0599 90.0056 29.0681 90.0456 29.0775C90.0855 29.0869 90.1243 29.0987 90.1631 29.1128C90.2007 29.1257 90.2383 29.141 90.2736 29.1574C90.3089 29.1739 90.343 29.1903 90.3759 29.2092C90.4088 29.228 90.4393 29.2479 90.4699 29.2691C90.5005 29.2903 90.5287 29.3138 90.5557 29.3385C90.5828 29.362 90.6086 29.3878 90.6321 29.4137C90.6556 29.4395 90.6791 29.4678 90.7003 29.496C90.7215 29.5242 90.7414 29.5547 90.7591 29.5853C90.7767 29.6159 90.7932 29.6488 90.8084 29.6817C90.8237 29.7146 90.8367 29.7487 90.8472 29.7828C90.859 29.8169 90.8672 29.8521 90.8754 29.8874C90.8825 29.9227 90.8884 29.9591 90.8919 29.9967C90.8954 30.0343 90.8931 30.0731 90.8931 30.1119Z" fill="black"/>
<path d="M95.6866 29.6781H95.2035H94.7204H94.2372H93.7541L93.7083 29.939L93.6624 30.2L93.6154 30.4609L93.5696 30.7219H94.0033H94.4382H94.872H95.3057L95.2787 30.8829L95.2517 31.0428L95.2235 31.2038L95.1964 31.3648H94.7615H94.3266H93.8905H93.4556L93.3874 31.7551L93.3204 32.1465L93.2522 32.5379L93.184 32.9294H93.0077H92.8302H92.6539H92.4764L92.648 31.9561L92.8196 30.9828L92.9901 30.0095L93.1617 29.0363H93.8211H94.4817H95.1412H95.8006L95.7724 29.1961L95.7442 29.3572L95.7148 29.517L95.6866 29.6781Z" fill="black"/>
<path d="M98.2926 32.9294H97.6696H97.0466H96.4236H95.8006L95.9722 31.9561L96.1438 30.9828L96.3155 30.0095L96.4871 29.0363H96.6622H96.8374H97.0125H97.1876L97.0466 29.8414L96.9055 30.6478L96.7645 31.453L96.6222 32.2594H97.0701H97.5179H97.9658H98.4136L98.3831 32.4263L98.3537 32.5944L98.3231 32.7613L98.2926 32.9294Z" fill="black"/>
<path d="M102.222 29.6781H101.719H101.216H100.712H100.209L100.167 29.9049L100.127 30.1306L100.086 30.3575L100.045 30.5843H100.489H100.935H101.379H101.825L101.797 30.743L101.767 30.9029L101.739 31.0616L101.711 31.2214H101.265H100.821H100.375H99.9312L99.8853 31.4871L99.8383 31.7539L99.7925 32.0196L99.7466 32.2864H100.258H100.769H101.281H101.792L101.764 32.4474L101.735 32.6073L101.706 32.7683L101.678 32.9294H100.99H100.304H99.6161H98.9297L99.1013 31.9561L99.2729 30.9828L99.4445 30.0095L99.6161 29.0363H100.297H100.976H101.657H102.336L102.308 29.1961L102.28 29.3572L102.25 29.517L102.222 29.6781Z" fill="black"/>
<path d="M104.437 30.9523L104.653 31.4459L104.869 31.9408L105.086 32.4345L105.302 32.9294H105.116H104.932H104.746H104.561L104.41 32.572L104.257 32.2147L104.105 31.8585L103.952 31.5012L103.676 31.8585L103.4 32.2147L103.124 32.572L102.847 32.9294H102.646H102.444H102.243H102.042L102.43 32.4333L102.817 31.9373L103.205 31.4412L103.593 30.9464L103.379 30.468L103.166 29.9907L102.953 29.5135L102.739 29.0363H102.923H103.106H103.289H103.473L103.622 29.3795L103.773 29.7227L103.922 30.066L104.072 30.4092L104.344 30.066L104.617 29.7227L104.888 29.3795L105.161 29.0363H105.363H105.566H105.768H105.972L105.587 29.5147L105.204 29.9943L104.82 30.4727L104.437 30.9523Z" fill="black"/>
<path d="M106.602 32.9294H106.423H106.243H106.064H105.884L106.054 31.9561L106.225 30.9828L106.394 30.0095L106.564 29.0363H106.744H106.924H107.104H107.284L107.113 30.0095L106.943 30.9828L106.772 31.9561L106.602 32.9294Z" fill="black"/>
<path d="M110.275 30.0672C110.275 30.039 110.273 30.012 110.267 29.985C110.261 29.9591 110.253 29.9332 110.242 29.9086C110.232 29.8839 110.218 29.8604 110.201 29.8368C110.185 29.8133 110.166 29.7922 110.144 29.771C110.122 29.7499 110.097 29.7311 110.069 29.7158C110.041 29.7005 110.011 29.6876 109.977 29.677C109.943 29.6664 109.906 29.6594 109.865 29.6535C109.825 29.6488 109.781 29.6453 109.736 29.6453H109.529H109.322H109.115H108.908L108.866 29.8897L108.823 30.1342L108.781 30.3787L108.739 30.6232H108.954H109.169H109.384H109.599C109.623 30.6232 109.646 30.6221 109.669 30.6209C109.691 30.6197 109.713 30.6174 109.736 30.6162C109.758 30.615 109.779 30.6115 109.8 30.608C109.821 30.6044 109.843 30.6009 109.863 30.5962C109.884 30.5915 109.903 30.5856 109.923 30.5797C109.941 30.5739 109.96 30.5668 109.978 30.5586C109.995 30.5503 110.013 30.5421 110.03 30.5327C110.046 30.5233 110.062 30.5127 110.078 30.5022C110.093 30.4916 110.108 30.4798 110.122 30.4669C110.136 30.454 110.149 30.441 110.161 30.4269C110.173 30.4128 110.185 30.3975 110.195 30.3811C110.206 30.3646 110.215 30.3482 110.223 30.3305C110.233 30.3129 110.24 30.2941 110.247 30.2741C110.254 30.2541 110.259 30.2342 110.263 30.2118C110.268 30.1895 110.27 30.1672 110.273 30.1436C110.275 30.1178 110.275 30.0931 110.275 30.0672ZM110.089 31.6764C110.089 31.6376 110.086 31.6024 110.079 31.5683C110.072 31.5342 110.062 31.5036 110.048 31.4743C110.034 31.4449 110.018 31.4178 109.998 31.3943C109.978 31.3696 109.954 31.3473 109.927 31.3285C109.9 31.3085 109.871 31.2921 109.84 31.2768C109.81 31.2615 109.778 31.2486 109.744 31.2392C109.71 31.2298 109.675 31.2215 109.637 31.2168C109.599 31.2121 109.561 31.2098 109.519 31.2098H109.298H109.077H108.856H108.635L108.588 31.4801L108.541 31.7505L108.494 32.0209L108.447 32.2912H108.658H108.868H109.079H109.289C109.315 32.2912 109.34 32.2912 109.365 32.2889C109.39 32.2877 109.416 32.2853 109.441 32.283C109.465 32.2806 109.49 32.2771 109.515 32.2736C109.539 32.27 109.564 32.2653 109.589 32.2595C109.613 32.2548 109.637 32.2489 109.659 32.2418C109.682 32.2348 109.704 32.2277 109.725 32.2183C109.746 32.2101 109.766 32.1995 109.786 32.1889C109.806 32.1784 109.825 32.1666 109.843 32.1549C109.861 32.1431 109.878 32.129 109.894 32.1149C109.911 32.1008 109.926 32.0855 109.941 32.0702C109.957 32.0549 109.97 32.0373 109.984 32.0209C109.997 32.0032 110.01 31.9856 110.02 31.9656C110.031 31.9456 110.041 31.9256 110.05 31.9033C110.058 31.881 110.065 31.8586 110.071 31.834C110.077 31.8093 110.08 31.7846 110.084 31.7575C110.088 31.734 110.089 31.7058 110.089 31.6764ZM111.01 29.9685C111.01 29.9932 111.009 30.0179 111.008 30.0426C111.006 30.0672 111.003 30.0919 110.999 30.1166C110.996 30.1413 110.991 30.166 110.986 30.1907C110.982 30.2153 110.976 30.24 110.969 30.2659C110.962 30.2906 110.955 30.3141 110.946 30.3376C110.938 30.3611 110.929 30.3846 110.919 30.4069C110.91 30.4293 110.898 30.4528 110.888 30.4739C110.876 30.4963 110.864 30.5174 110.851 30.5386C110.838 30.5598 110.824 30.5797 110.809 30.5997C110.794 30.6197 110.778 30.6397 110.763 30.6585C110.747 30.6773 110.73 30.6961 110.712 30.7137C110.695 30.7314 110.676 30.749 110.657 30.7666C110.638 30.7831 110.618 30.7995 110.597 30.8148C110.576 30.8301 110.555 30.8454 110.533 30.8583C110.51 30.8724 110.488 30.8854 110.463 30.8983C110.44 30.9112 110.415 30.923 110.389 30.9335C110.423 30.9512 110.455 30.9712 110.484 30.9923C110.514 31.0135 110.542 31.0382 110.568 31.064C110.594 31.0899 110.617 31.1181 110.64 31.1475C110.662 31.1769 110.682 31.2098 110.7 31.2439C110.718 31.278 110.734 31.3132 110.748 31.3485C110.762 31.3837 110.772 31.419 110.782 31.4555C110.791 31.4919 110.798 31.5283 110.802 31.5648C110.806 31.6012 110.809 31.6388 110.809 31.6753C110.809 31.727 110.805 31.7764 110.799 31.8257C110.794 31.8751 110.784 31.9233 110.772 31.9715C110.761 32.0197 110.745 32.0655 110.728 32.1114C110.71 32.1572 110.689 32.2019 110.664 32.2454C110.641 32.2889 110.614 32.3312 110.586 32.3711C110.557 32.4111 110.527 32.4487 110.495 32.4852C110.462 32.5216 110.428 32.5557 110.392 32.5874C110.355 32.6203 110.316 32.6497 110.275 32.6791C110.254 32.6944 110.233 32.7073 110.212 32.7214C110.191 32.7344 110.169 32.7473 110.147 32.7579C110.125 32.7684 110.104 32.7802 110.082 32.7896C110.06 32.799 110.038 32.8084 110.015 32.8155C109.993 32.8237 109.971 32.8319 109.948 32.839C109.926 32.846 109.904 32.8531 109.881 32.8589C109.859 32.8648 109.837 32.8707 109.813 32.8766C109.791 32.8813 109.767 32.886 109.744 32.8907C109.72 32.8954 109.697 32.8989 109.675 32.9013C109.651 32.9048 109.628 32.9071 109.604 32.9095C109.58 32.9118 109.557 32.9142 109.533 32.9154C109.51 32.9165 109.486 32.9177 109.463 32.9189C109.439 32.9201 109.416 32.9212 109.392 32.9224C109.369 32.9236 109.345 32.9236 109.323 32.9248C109.301 32.926 109.277 32.9259 109.254 32.9259C109.231 32.9259 109.208 32.9259 109.186 32.9259H108.798H108.41H108.022H107.634L107.804 31.9527L107.975 30.9794L108.145 30.0061L108.316 29.0328H108.687H109.059H109.43H109.801C109.84 29.0328 109.879 29.034 109.918 29.0364C109.957 29.0387 109.995 29.0422 110.034 29.0458C110.073 29.0493 110.112 29.0552 110.149 29.0622C110.188 29.0693 110.226 29.0763 110.265 29.0857C110.302 29.094 110.34 29.1045 110.375 29.1163C110.41 29.128 110.446 29.141 110.48 29.1563C110.514 29.1715 110.546 29.188 110.577 29.2056C110.609 29.2233 110.638 29.2432 110.667 29.2644C110.694 29.2832 110.718 29.3044 110.742 29.3267C110.765 29.349 110.788 29.3737 110.809 29.3984C110.83 29.4243 110.849 29.4513 110.868 29.4807C110.885 29.5101 110.903 29.5395 110.918 29.5724C110.933 29.6041 110.948 29.637 110.959 29.6688C110.971 29.7005 110.98 29.7334 110.989 29.7663C110.997 29.7992 111.002 29.8321 111.006 29.8662C111.009 29.9015 111.01 29.9344 111.01 29.9685Z" fill="black"/>
<path d="M112.104 32.9294H111.924H111.745H111.566H111.386L111.556 31.9561L111.726 30.9828L111.896 30.0095L112.067 29.0363H112.246H112.425H112.605H112.785L112.614 30.0095L112.444 30.9828L112.275 31.9561L112.104 32.9294Z" fill="black"/>
<path d="M115.629 32.9294H115.006H114.383H113.76H113.137L113.309 31.9561L113.481 30.9828L113.652 30.0095L113.823 29.0363H113.999H114.174H114.349H114.524L114.383 29.8414L114.242 30.6478L114.101 31.453L113.959 32.2594H114.407H114.855H115.303H115.749L115.72 32.4263L115.689 32.5944L115.66 32.7613L115.629 32.9294Z" fill="black"/>
<path d="M116.985 32.9294H116.806H116.626H116.446H116.267L116.437 31.9561L116.607 30.9828L116.778 30.0095L116.948 29.0363H117.127H117.307H117.487H117.665L117.496 30.0095L117.326 30.9828L117.155 31.9561L116.985 32.9294Z" fill="black"/>
<path d="M121.121 29.6945H120.839H120.558H120.276H119.995L119.855 30.5032L119.714 31.3119L119.574 32.1207L119.434 32.9294H119.257H119.081H118.903H118.727L118.868 32.1207L119.009 31.3119L119.15 30.5032L119.292 29.6945H119.01H118.729H118.447H118.166L118.195 29.5299L118.226 29.3654L118.255 29.2008L118.286 29.0363H119.024H119.763H120.502H121.241L121.21 29.2008L121.181 29.3654L121.151 29.5299L121.121 29.6945Z" fill="black"/>
<path d="M123.009 31.4354L122.944 31.8092L122.878 32.1818L122.813 32.5556L122.748 32.9294H122.57H122.394H122.217H122.04L122.105 32.5556L122.171 32.1818L122.235 31.8092L122.301 31.4354L122.072 30.8359L121.844 30.2352L121.615 29.6357L121.387 29.0363H121.567H121.745H121.925H122.105L122.266 29.4653L122.426 29.8955L122.587 30.3246L122.748 30.7548L123.061 30.3246L123.373 29.8955L123.686 29.4653L123.999 29.0363H124.195H124.39H124.586H124.783L124.34 29.6357L123.895 30.2352L123.452 30.8359L123.009 31.4354Z" fill="black"/>
<path d="M8.16904 7L7.96333 8.08142L7.7588 9.16402L7.5531 10.2454L7.34857 11.328H8.52637H9.70536H10.8832H12.0622L12.2667 10.2454L12.4724 9.16402L12.6769 8.08142L12.8826 7H11.7036H10.5258H9.34684H8.16904Z" fill="black"/>
<path d="M5 25.537H6.13667H7.27334H8.41H9.54667L9.99452 22.7382L10.4424 19.9406L10.8902 17.143L11.3392 14.3455H10.2026H9.06591H7.92807H6.7914L6.34355 17.143L5.8957 19.9406L5.44785 22.7382L5 25.537Z" fill="black"/>
<path d="M18.2627 14.4066L18.399 13.6425L18.5342 12.8796L18.6694 12.1156L18.8046 11.3515H20.9122H23.0198H25.1262H27.2338L27.4254 10.276L27.617 9.20163L27.8074 8.12608L27.999 7.05054H24.743H21.487H18.2298H14.9738L14.1603 11.6724L13.3458 16.2943L12.5323 20.9151L11.7177 25.537H12.8673H14.0158H15.1654H16.3138L16.6112 23.8302L16.9074 22.1223L17.2048 20.4155L17.501 18.7076H19.4017H21.3013H23.202H25.1015L25.2837 17.632L25.4659 16.5576L25.6481 15.4821L25.8303 14.4066H23.939H22.0465H20.1552H18.2627Z" fill="black"/>
<path d="M31.0199 21.1161L31.6371 17.5991L32.2542 14.0833L32.8725 10.5675L33.4896 7.05054H32.347H31.2045H30.0619H28.9194L28.1048 11.6724L27.2914 16.2932L26.4768 20.9151L25.6634 25.537H28.7584H31.8533H34.9495H38.0445L38.2419 24.432L38.4394 23.3259L38.6381 22.221L38.8356 21.1161H36.8819H34.9272H32.9735H31.0199Z" fill="black"/>
<path d="M54.8629 11.3515L55.0545 10.276L55.2461 9.20163L55.4366 8.12608L55.6281 7.05054H52.2828H48.9374H45.5921H42.2467L41.4333 11.6724L40.6187 16.2932L39.8053 20.9151L38.9907 25.537H42.3655H45.739H49.1138H52.4885L52.6801 24.4614L52.8705 23.3859L53.0621 22.3115L53.2537 21.236H51.0204H48.787H46.5548H44.3214L44.4578 20.4484L44.5941 19.6597L44.7317 18.8721L44.868 18.0846H46.8087H48.7494H50.6889H52.6296L52.8212 17.0149L53.0128 15.9452L53.2055 14.8767L53.3971 13.8071H51.4564H49.5146H47.5739H45.6332L45.7437 13.1935L45.8542 12.5787L45.9659 11.9651L46.0764 11.3515H48.2733H50.4702H52.666H54.8629Z" fill="black"/>
<path d="M127.12 9.2039H124.876H122.632H120.388H118.144L117.912 10.6039L117.681 12.0038L117.449 13.4038L117.217 14.8038H119.206H121.195H123.184H125.173L125.084 15.3433L124.995 15.884L124.906 16.4247L124.817 16.9655H122.84H120.864H118.887H116.909L116.649 18.5605L116.386 20.1568L116.125 21.7519L115.864 23.3482H118.132H120.399H122.668H124.936L124.858 23.8889L124.78 24.4284L124.704 24.9691L124.626 25.5099H121.818H119.01H116.203H113.395L114.131 20.8927L114.867 16.2755L115.604 11.6583L116.339 7.04224H119.117H121.896H124.675H127.452L127.369 7.58177L127.286 8.12248L127.203 8.66319L127.12 9.2039Z" fill="black"/>
<path d="M112.016 14.3702C112.087 14.2656 112.152 14.1598 112.215 14.0505C112.277 13.9423 112.336 13.8307 112.39 13.7178C112.444 13.605 112.494 13.4898 112.541 13.3722C112.587 13.2547 112.631 13.1348 112.668 13.0137C112.707 12.8926 112.74 12.7704 112.77 12.6493C112.799 12.5283 112.822 12.406 112.842 12.2849C112.862 12.1639 112.876 12.0416 112.886 11.9205C112.895 11.7995 112.9 11.6772 112.9 11.5561C112.9 11.3869 112.893 11.2211 112.88 11.0589C112.867 10.8967 112.846 10.7392 112.819 10.584C112.792 10.4301 112.758 10.2796 112.718 10.1327C112.678 9.98574 112.631 9.84351 112.577 9.70363C112.523 9.56492 112.463 9.42975 112.398 9.30162C112.333 9.17232 112.262 9.0489 112.186 8.93018C112.111 8.81145 112.029 8.69861 111.941 8.59047C111.853 8.48233 111.761 8.37889 111.662 8.28132C111.563 8.18376 111.46 8.0909 111.353 8.00392C111.246 7.91693 111.132 7.83582 111.015 7.75942C110.897 7.68302 110.775 7.61249 110.648 7.54784C110.521 7.48319 110.389 7.42324 110.253 7.36799C110.117 7.31392 109.975 7.26573 109.832 7.22576C109.689 7.18462 109.541 7.15053 109.389 7.1235C109.237 7.09646 109.082 7.0753 108.923 7.06237C108.765 7.04827 108.603 7.04239 108.436 7.04239H108.391H108.346H108.302H108.257H106.639H105.022H103.405H101.787H101.305H100.823H100.341H99.8595H99.3234H98.7898H98.2561H97.7225L97.23 10.0962L96.7374 13.1501L96.2449 16.2039L95.7524 19.2578C95.7289 19.4141 95.7007 19.5681 95.6678 19.7185C95.6349 19.869 95.5984 20.0171 95.5561 20.1629C95.515 20.3086 95.4679 20.4508 95.4174 20.5907C95.3669 20.7306 95.3116 20.8681 95.2528 21.0021C95.1941 21.1373 95.1306 21.2666 95.0624 21.3924C94.9942 21.5182 94.9225 21.6381 94.8461 21.7544C94.7697 21.8708 94.6898 21.9825 94.6052 22.0883C94.5205 22.1952 94.4312 22.2975 94.3383 22.395C94.2455 22.4926 94.1491 22.5855 94.048 22.6725C93.9469 22.7594 93.8435 22.8405 93.7353 22.917C93.6272 22.9934 93.5155 23.0639 93.4003 23.1285C93.2851 23.1932 93.1664 23.2531 93.043 23.3072C92.9207 23.3613 92.7938 23.4095 92.6645 23.4494C92.5352 23.4894 92.4024 23.5247 92.2648 23.5517C92.1285 23.5787 91.9886 23.5987 91.8452 23.6128C91.7018 23.6269 91.5548 23.6328 91.4056 23.6328C91.1199 23.6328 90.8496 23.614 90.5945 23.5752C90.3394 23.5364 90.0973 23.48 89.8704 23.4036C89.6436 23.3272 89.432 23.232 89.2345 23.118C89.037 23.0039 88.8548 22.8711 88.6867 22.7195C88.5186 22.5678 88.3705 22.395 88.2448 22.2034C88.119 22.0118 88.0132 21.7991 87.9297 21.5675C87.8451 21.3348 87.7828 21.0832 87.7405 20.8105C87.6982 20.5378 87.677 20.2451 87.677 19.9325C87.677 19.8713 87.6782 19.8114 87.6794 19.7514C87.6805 19.6915 87.6829 19.6327 87.6864 19.5739C87.6899 19.5152 87.6935 19.4576 87.697 19.4C87.7017 19.3424 87.7064 19.286 87.7123 19.2295C87.7182 19.1731 87.7252 19.1167 87.7311 19.0591C87.7381 19.0015 87.744 18.9439 87.7511 18.8851C87.7581 18.8264 87.7652 18.7676 87.7722 18.7076C87.7793 18.6477 87.7875 18.5877 87.7957 18.5266L88.2589 15.655L88.722 12.7833L89.1851 9.91168L89.6483 7.04004H89.3673H89.0864H88.8055H88.5245H88.2706H88.0167H87.7628H87.5101H83.8932H80.2763H76.6594H73.0402H73.0249H73.0096H72.9932H72.9779H71.632H70.2861H68.9402H67.5943L66.5423 8.36713L65.4902 9.69422L64.4382 11.0213L63.3862 12.3484L62.8078 11.0213L62.2295 9.69422L61.6512 8.36713L61.0729 7.04004H59.8633H58.6538H57.4419H56.2323L57.2362 9.28516L58.24 11.5303L59.2439 13.7754L60.2477 16.0205L58.3881 18.3973L56.5285 20.7741L54.669 23.1509L52.8106 25.5276H54.1624H55.5141H56.8659H58.2177L59.2862 24.1477L60.3547 22.7677L61.4232 21.3877L62.4916 20.0077L63.0806 21.3877L63.6695 22.7677L64.2584 24.1477L64.8473 25.5276H66.0615H67.2758H68.49H69.7043L68.691 23.2132L67.6778 20.8987L66.6645 18.5842L65.6513 16.2697L67.0654 14.503L68.4794 12.7363L69.8935 10.9696L71.3076 9.20288H72.8886H74.4696H76.0506H77.6315L76.978 13.2794L76.3244 17.3559L75.6709 21.4323L75.0173 25.5088H75.558H76.0987H76.6395H77.1802L77.8267 21.4323L78.4732 17.3559L79.1197 13.2794L79.7662 9.20288H81.6152H83.4642H85.3132H87.1622L86.7978 11.4692L86.4334 13.7354L86.069 16.0017L85.7046 18.268C85.6811 18.4114 85.6599 18.5548 85.6423 18.6994C85.6247 18.844 85.6094 18.9886 85.5976 19.1343C85.5859 19.2801 85.5765 19.4258 85.5706 19.5716C85.5647 19.7185 85.5612 19.8643 85.5612 20.0124C85.5612 20.2346 85.5694 20.4508 85.5871 20.6612C85.6047 20.8728 85.6305 21.0785 85.6646 21.2795C85.6999 21.4805 85.7422 21.6757 85.7951 21.8661C85.8468 22.0565 85.908 22.2422 85.9773 22.4221C86.0467 22.6031 86.1231 22.7759 86.2053 22.9428C86.2888 23.1097 86.3781 23.2696 86.4757 23.4224C86.5733 23.5752 86.6767 23.7221 86.7872 23.8608C86.8977 24.0007 87.0164 24.1336 87.141 24.2593C87.2656 24.3851 87.3973 24.5038 87.5336 24.6155C87.67 24.7272 87.8145 24.8318 87.965 24.9293C88.1155 25.0269 88.2718 25.1174 88.4352 25.2009C88.5986 25.2843 88.7678 25.3607 88.9442 25.4301C89.1205 25.4994 89.3003 25.5606 89.486 25.6123C89.6718 25.664 89.8622 25.7075 90.0561 25.7428C90.2501 25.778 90.4511 25.8039 90.6556 25.8203C90.8601 25.8368 91.0694 25.8462 91.2833 25.8462C91.5125 25.8462 91.737 25.8368 91.9557 25.8168C92.1743 25.7968 92.3871 25.7663 92.5951 25.7263C92.8032 25.6863 93.0054 25.6358 93.2017 25.5758C93.3991 25.5159 93.5896 25.4454 93.7765 25.3643C93.9622 25.2843 94.1432 25.1962 94.3172 25.0986C94.4923 25.0022 94.6604 24.8976 94.8238 24.7848C94.9872 24.6719 95.1447 24.5508 95.2963 24.4215C95.448 24.2922 95.5937 24.1547 95.7348 24.0101C95.8747 23.8644 96.0098 23.7127 96.1368 23.5541C96.2649 23.3954 96.386 23.2296 96.5 23.0568C96.614 22.884 96.7233 22.7054 96.8256 22.5185C96.9279 22.3327 97.0231 22.1388 97.1124 21.939C97.2018 21.7391 97.284 21.5346 97.3616 21.3254C97.438 21.1162 97.5085 20.9022 97.5732 20.6824C97.6378 20.4638 97.6954 20.2393 97.7472 20.01C97.7989 19.7808 97.8447 19.5469 97.8847 19.3083L98.2914 16.7752L98.6981 14.2421L99.1048 11.709L99.5115 9.17585H99.9935H100.475H100.957H101.439H101.955H102.471H102.987H103.503H104.809H106.115H107.421H108.727C108.839 9.20053 108.948 9.23227 109.054 9.26988C109.16 9.3075 109.262 9.35217 109.361 9.40271C109.459 9.45325 109.556 9.51203 109.647 9.57668C109.739 9.64133 109.829 9.71303 109.914 9.79179C110.039 9.90698 110.148 10.0339 110.241 10.1703C110.335 10.3066 110.413 10.4547 110.475 10.6123C110.537 10.7698 110.584 10.939 110.615 11.1177C110.645 11.2975 110.662 11.4868 110.662 11.6878C110.662 11.823 110.656 11.9546 110.645 12.0804C110.635 12.2062 110.617 12.3296 110.595 12.4471C110.573 12.5647 110.543 12.6787 110.509 12.7869C110.475 12.895 110.435 13.0008 110.389 13.1007C110.343 13.2006 110.294 13.297 110.241 13.3887C110.188 13.4804 110.131 13.5685 110.069 13.652C110.008 13.7354 109.943 13.8154 109.873 13.8918C109.804 13.967 109.731 14.0387 109.653 14.1069C109.576 14.1739 109.496 14.2385 109.412 14.2973C109.329 14.3573 109.242 14.4125 109.151 14.4642C109.061 14.516 108.968 14.563 108.872 14.6065C108.775 14.65 108.675 14.6887 108.572 14.724C108.47 14.7581 108.365 14.7887 108.26 14.8145C108.156 14.8404 108.05 14.8627 107.943 14.8803C107.836 14.898 107.729 14.9109 107.62 14.9191C107.511 14.9274 107.401 14.9321 107.291 14.9321H106.642H105.993H105.344H104.695L104.611 15.434L104.526 15.9359L104.441 16.4378L104.357 16.9397H105.02H105.683H106.346H107.009C107.211 16.9397 107.404 16.955 107.589 16.9868C107.774 17.0185 107.951 17.0655 108.119 17.1278C108.287 17.1901 108.447 17.2689 108.599 17.3629C108.751 17.4569 108.893 17.5663 109.028 17.692C109.163 17.8166 109.281 17.9542 109.382 18.1023C109.483 18.2504 109.566 18.4102 109.635 18.5807C109.703 18.7511 109.752 18.9333 109.786 19.1273C109.82 19.3212 109.837 19.5258 109.837 19.742C109.837 19.8937 109.831 20.0406 109.818 20.1817C109.805 20.3239 109.787 20.4602 109.763 20.5919C109.738 20.7235 109.707 20.8505 109.67 20.9727C109.633 21.095 109.59 21.2114 109.541 21.3242C109.491 21.437 109.437 21.544 109.379 21.6475C109.322 21.7497 109.26 21.8485 109.194 21.9413C109.128 22.0342 109.057 22.1223 108.982 22.2058C108.907 22.2893 108.828 22.3668 108.746 22.4409C108.662 22.5149 108.575 22.5843 108.485 22.6489C108.394 22.7136 108.3 22.7747 108.203 22.8311C108.105 22.8876 108.003 22.9393 107.898 22.9875C107.793 23.0357 107.684 23.078 107.572 23.118C107.459 23.1567 107.345 23.1908 107.23 23.2202C107.114 23.2496 106.998 23.2731 106.879 23.2931C106.761 23.3131 106.643 23.3272 106.522 23.3366C106.401 23.346 106.281 23.3507 106.158 23.3507H104.407H102.657H100.907H99.1565L99.0731 23.8914L98.9896 24.4321L98.9062 24.9728L98.8227 25.5135H100.609H102.396H104.183H105.969C106.163 25.5135 106.356 25.5065 106.547 25.4924C106.737 25.4783 106.927 25.4571 107.116 25.4289C107.304 25.4007 107.491 25.3654 107.675 25.3231C107.86 25.2808 108.043 25.2314 108.225 25.175C108.407 25.1186 108.585 25.0551 108.757 24.9846C108.928 24.9141 109.095 24.8353 109.256 24.7495C109.417 24.6637 109.573 24.5708 109.724 24.4709C109.874 24.371 110.02 24.2628 110.161 24.1477C110.301 24.0325 110.435 23.9102 110.562 23.7797C110.689 23.6493 110.809 23.5106 110.922 23.3648C111.035 23.219 111.14 23.0639 111.239 22.9017C111.338 22.7395 111.429 22.5702 111.515 22.3915C111.6 22.214 111.675 22.0283 111.739 21.8332C111.802 21.6392 111.856 21.4371 111.898 21.2266C111.941 21.0162 111.973 20.7976 111.995 20.5707C112.016 20.3439 112.027 20.1088 112.027 19.8666C112.027 19.7714 112.023 19.6762 112.016 19.5798C112.009 19.4834 111.998 19.3871 111.984 19.2895C111.97 19.1919 111.953 19.0944 111.933 18.9956C111.911 18.8969 111.888 18.7981 111.86 18.6982C111.831 18.5983 111.802 18.5008 111.768 18.4044C111.735 18.308 111.699 18.2128 111.661 18.1199C111.622 18.027 111.581 17.9354 111.538 17.8449C111.494 17.7543 111.447 17.6662 111.397 17.5804C111.347 17.4934 111.295 17.4099 111.241 17.3288C111.187 17.2477 111.131 17.169 111.073 17.0926C111.015 17.0162 110.955 16.9433 110.891 16.8727C110.828 16.8022 110.763 16.734 110.696 16.6694C110.629 16.6047 110.561 16.5436 110.491 16.486C110.422 16.4284 110.352 16.3744 110.281 16.325C110.211 16.2756 110.138 16.2286 110.065 16.1863C109.992 16.144 109.918 16.1052 109.843 16.0711C109.95 16.0452 110.054 16.0123 110.158 15.9735C110.261 15.9347 110.362 15.8901 110.462 15.8395C110.562 15.789 110.66 15.7314 110.756 15.6679C110.852 15.6044 110.946 15.5351 111.04 15.4587C111.133 15.3823 111.224 15.3035 111.311 15.2201C111.398 15.1366 111.482 15.0508 111.565 14.9603C111.647 14.8698 111.726 14.7757 111.801 14.6793C111.876 14.583 111.946 14.4748 112.016 14.3702Z" fill="black"/>
</svg>
