<svg width="138" height="97" viewBox="0 0 138 97" fill="none" xmlns="http://www.w3.org/2000/svg">
<path d="M10.2004 9L9.99268 10.0933L9.78612 11.1855L9.57838 12.2788L9.37183 13.3709H10.5613H11.752H12.9414H14.1321L14.3387 12.2788L14.5464 11.1855L14.753 10.0933L14.9607 9H13.77H12.5806H11.3899H10.2004Z" fill="black"/>
<path d="M7 27.7206H8.14793H9.29585H10.4438H11.5917L12.044 24.8953L12.4963 22.07L12.9486 19.2435L13.402 16.4182H12.2541H11.1062H9.95707H8.80914L8.35686 19.2435L7.90457 22.07L7.45229 24.8953L7 27.7206Z" fill="black"/>
<path d="M20.3941 16.4812L20.5306 15.7096L20.6683 14.938L20.8048 14.1663L20.9413 13.3947H23.0698H25.1983H27.3256H29.454L29.6475 12.3097L29.841 11.2235L30.0334 10.1373L30.2268 9.05231H26.9386H23.6503H20.3608H17.0726L16.2511 13.7188L15.4284 18.3865L14.607 23.0542L13.7843 27.7219H14.9453H16.1051H17.2661H18.4259L18.7262 25.997L19.0254 24.2733L19.3257 22.5485L19.6248 20.8248H21.5444H23.4627H25.3823H27.3006L27.4846 19.7386L27.6686 18.6524L27.8526 17.5662L28.0366 16.4812H26.1266H24.2154H22.3053H20.3941Z" fill="black"/>
<path d="M33.2777 23.256L33.9009 19.7054L34.5241 16.1535L35.1485 12.6029L35.7718 9.05231H34.6179H33.464H32.3102H31.1563L30.3337 13.7188L29.5122 18.3865L28.6895 23.0542L27.868 27.7207H30.9937H34.1193H37.2461H40.3718L40.5712 26.6048L40.7706 25.4889L40.9713 24.373L41.1707 23.256H39.1977H37.2236H35.2506H33.2777Z" fill="black"/>
<path d="M57.3568 13.3947L57.5503 12.3097L57.7438 11.2235L57.9361 10.1373L58.1296 9.05231H54.7511H51.3726H47.9942H44.6157L43.7942 13.7188L42.9715 18.3865L42.1489 23.0542L41.3274 27.7207H44.7356H48.1425H51.5507H54.9589L55.1524 26.6357L55.3447 25.5495L55.5382 24.4633L55.7317 23.3771H53.4762H51.2207H48.9664H46.7109L46.8486 22.5817L46.9863 21.7863L47.1252 20.991L47.2629 20.1944H49.2228H51.1827H53.1414H55.1013L55.2948 19.1154L55.4883 18.0351L55.683 16.9548L55.8765 15.8746H53.9166H51.9555H49.9956H48.0357L48.1473 15.2549L48.2589 14.6352L48.3717 14.0156L48.4832 13.3947H50.7019H52.9206H55.1381H57.3568Z" fill="black"/>
<path d="M130.329 11.2258H128.063H125.797H123.531H121.264L121.031 12.6396L120.797 14.0535L120.563 15.4673L120.329 16.8812H122.338H124.346H126.355H128.363L128.273 17.4272L128.184 17.9733L128.094 18.5182L128.004 19.0642H126.007H124.011H122.015H120.018L119.754 20.6763L119.49 22.2872L119.226 23.8993L118.963 25.5102H121.253H123.543H125.834H128.124L128.045 26.0563L127.967 26.6023L127.89 27.1472L127.811 27.6933H124.975H122.139H119.305H116.469L117.212 23.0303L117.955 18.3686L118.699 13.7057L119.442 9.04272H122.247H125.054H127.86H130.665L130.581 9.58879L130.498 10.1349L130.413 10.6797L130.329 11.2258Z" fill="black"/>
<path d="M115.076 16.4444C115.147 16.3387 115.214 16.2319 115.277 16.1215C115.34 16.0111 115.399 15.8995 115.454 15.7855C115.508 15.6716 115.559 15.5552 115.607 15.4365C115.653 15.3178 115.697 15.1967 115.735 15.0744C115.774 14.9522 115.807 14.8287 115.837 14.7064C115.867 14.5842 115.89 14.4607 115.911 14.3384C115.931 14.2162 115.945 14.0927 115.955 13.9704C115.964 13.8482 115.969 13.7247 115.969 13.6024C115.969 13.4315 115.962 13.2641 115.949 13.1003C115.936 12.9365 115.914 12.7774 115.887 12.6207C115.86 12.4652 115.825 12.3132 115.785 12.1649C115.744 12.0165 115.697 11.8728 115.642 11.7316C115.588 11.5915 115.527 11.455 115.462 11.3256C115.397 11.195 115.324 11.0703 115.248 10.9505C115.172 10.8306 115.089 10.7166 115 10.6074C114.911 10.4982 114.819 10.3937 114.719 10.2952C114.619 10.1966 114.515 10.1029 114.407 10.015C114.299 9.92717 114.183 9.84526 114.065 9.7681C113.946 9.69094 113.823 9.61971 113.694 9.55442C113.566 9.48913 113.433 9.42859 113.295 9.37279C113.158 9.31819 113.015 9.26952 112.87 9.22915C112.726 9.18761 112.576 9.15318 112.423 9.12588C112.27 9.09857 112.113 9.07721 111.953 9.06415C111.793 9.04871 111.629 9.04278 111.46 9.04278H111.415H111.37H111.325H111.282H109.649H108.015H106.379H104.746H104.259H103.773H103.286H102.799H102.26H101.721H101.182H100.643L100.146 12.1269L99.6485 15.211L99.1512 18.2951L98.6537 21.3791C98.63 21.537 98.6015 21.6925 98.5683 21.8445C98.535 21.9964 98.4982 22.146 98.4555 22.2932C98.414 22.4404 98.3665 22.584 98.3154 22.7253C98.2644 22.8666 98.2086 23.0055 98.1492 23.1408C98.0899 23.2773 98.0258 23.4079 97.9569 23.5349C97.8881 23.6619 97.8157 23.783 97.7385 23.9005C97.6613 24.0181 97.5806 24.1308 97.4951 24.2377C97.4097 24.3457 97.3195 24.449 97.2257 24.5475C97.1319 24.646 97.0345 24.7398 96.9325 24.8277C96.8304 24.9155 96.7259 24.9974 96.6167 25.0746C96.5075 25.1517 96.3947 25.223 96.2784 25.2883C96.162 25.3536 96.0421 25.4141 95.9175 25.4687C95.794 25.5233 95.6658 25.572 95.5352 25.6123C95.4047 25.6527 95.2705 25.6883 95.1316 25.7156C94.9939 25.7429 94.8527 25.7631 94.7078 25.7774C94.563 25.7916 94.4146 25.7975 94.2639 25.7975C93.9754 25.7975 93.7024 25.7785 93.4448 25.7394C93.1872 25.7002 92.9426 25.6432 92.7135 25.566C92.4844 25.4889 92.2707 25.3927 92.0713 25.2776C91.8718 25.1624 91.6878 25.0283 91.5181 24.8752C91.3483 24.722 91.1988 24.5475 91.0717 24.354C90.9447 24.1605 90.8379 23.9457 90.7536 23.7118C90.6681 23.4767 90.6052 23.2227 90.5625 22.9473C90.5197 22.6719 90.4984 22.3763 90.4984 22.0605C90.4984 21.9988 90.4996 21.9383 90.5007 21.8777C90.5019 21.8172 90.5043 21.7578 90.5079 21.6985C90.5114 21.6391 90.515 21.5809 90.5185 21.5228C90.5233 21.4646 90.528 21.4076 90.534 21.3507C90.5399 21.2937 90.547 21.2367 90.553 21.1785C90.5601 21.1204 90.566 21.0622 90.5731 21.0028C90.5803 20.9435 90.5874 20.8841 90.5945 20.8236C90.6016 20.763 90.61 20.7025 90.6183 20.6408L91.086 17.7407L91.5537 14.8406L92.0214 11.9405L92.4891 9.04041H92.2054H91.9217H91.638H91.3543H91.0979H90.8403H90.5838H90.3274H86.6735H83.0208H79.3681H75.7154H75.7H75.6845H75.6691H75.6537H74.2944H72.9352H71.576H70.2167L69.1543 10.3806L68.0918 11.7209L67.0294 13.0611L65.9669 14.4014L65.3829 13.0611L64.7952 11.7221L64.2112 10.3818L63.6271 9.04159H62.4056H61.1841H59.9625H58.741L59.7548 11.309L60.7686 13.5763L61.7824 15.8437L62.7962 18.111L60.9182 20.5114L59.0402 22.9117L57.1622 25.312L55.2842 27.7123H56.6493H58.0145H59.3797H60.7448L61.8239 26.3187L62.903 24.925L63.9821 23.5314L65.0611 22.1377L65.6559 23.5314L66.2506 24.925L66.8454 26.3187L67.4401 27.7123H68.6664H69.8927H71.1189H72.3452L71.3219 25.3749L70.2986 23.0375L69.2754 20.7001L68.2521 18.3627L69.6802 16.5785L71.1082 14.7943L72.5363 13.0101L73.9644 11.2259H75.5611H77.1577H78.7544H80.351L79.691 15.3427L79.031 19.4596L78.3709 23.5765L77.7109 27.6933H78.257H78.803H79.3491H79.8952L80.5481 23.5765L81.201 19.4596L81.8539 15.3427L82.5068 11.2259H84.3741H86.2414H88.1087H89.976L89.608 13.5146L89.24 15.8033L88.872 18.0921L88.504 20.3808C88.4803 20.5256 88.4589 20.6704 88.4411 20.8165C88.4233 20.9625 88.4079 21.1085 88.396 21.2557C88.3841 21.4029 88.3746 21.5501 88.3687 21.6973C88.3628 21.8457 88.3592 21.9929 88.3592 22.1424C88.3592 22.3668 88.3675 22.5852 88.3853 22.7977C88.4031 23.0114 88.4292 23.2191 88.4637 23.4221C88.4993 23.6251 88.542 23.8222 88.5954 24.0145C88.6477 24.2068 88.7094 24.3944 88.7794 24.576C88.8495 24.7588 88.9266 24.9333 89.0097 25.1019C89.094 25.2705 89.1842 25.4319 89.2828 25.5862C89.3813 25.7406 89.4858 25.8889 89.5974 26.029C89.7089 26.1703 89.8288 26.3044 89.9547 26.4314C90.0805 26.5585 90.2135 26.6784 90.3512 26.7911C90.4889 26.9039 90.6349 27.0096 90.7868 27.1081C90.9388 27.2066 91.0967 27.298 91.2617 27.3823C91.4267 27.4666 91.5976 27.5438 91.7757 27.6138C91.9537 27.6838 92.1354 27.7456 92.3229 27.7978C92.5105 27.85 92.7028 27.894 92.8987 27.9296C93.0946 27.9652 93.2976 27.9913 93.5041 28.0079C93.7107 28.0245 93.922 28.034 94.138 28.034C94.3695 28.034 94.5962 28.0245 94.817 28.0044C95.0378 27.9842 95.2527 27.9533 95.4628 27.9129C95.6729 27.8726 95.8771 27.8215 96.0754 27.761C96.2748 27.7005 96.4671 27.6292 96.6559 27.5473C96.8434 27.4666 97.0262 27.3776 97.2019 27.279C97.3788 27.1817 97.5486 27.076 97.7136 26.9621C97.8786 26.8481 98.0376 26.7258 98.1908 26.5953C98.3439 26.4647 98.4911 26.3258 98.6336 26.1798C98.7748 26.0326 98.9114 25.8794 99.0396 25.7192C99.169 25.5589 99.2912 25.3915 99.4064 25.217C99.5215 25.0425 99.6319 24.8621 99.7352 24.6733C99.8385 24.4858 99.9346 24.2899 100.025 24.0881C100.115 23.8863 100.198 23.6797 100.277 23.4684C100.354 23.2571 100.425 23.0411 100.49 22.8191C100.555 22.5983 100.614 22.3716 100.666 22.1401C100.718 21.9086 100.764 21.6724 100.805 21.4314L101.216 18.8732L101.626 16.315L102.037 13.7568L102.448 11.1986H102.934H103.421H103.908H104.395H104.916H105.437H105.958H106.479H107.798H109.117H110.436H111.755C111.867 11.2235 111.978 11.2555 112.085 11.2935C112.191 11.3315 112.295 11.3766 112.394 11.4277C112.494 11.4787 112.592 11.5381 112.684 11.6034C112.777 11.6686 112.867 11.7411 112.954 11.8206C113.079 11.9369 113.19 12.0651 113.284 12.2028C113.379 12.3405 113.457 12.4901 113.52 12.6492C113.583 12.8083 113.63 12.9792 113.661 13.1596C113.692 13.3413 113.709 13.5324 113.709 13.7354C113.709 13.8719 113.703 14.0049 113.692 14.1319C113.681 14.2589 113.663 14.3835 113.641 14.5023C113.618 14.621 113.589 14.7361 113.554 14.8453C113.52 14.9545 113.479 15.0614 113.433 15.1623C113.387 15.2632 113.337 15.3605 113.284 15.4531C113.23 15.5457 113.172 15.6348 113.11 15.719C113.049 15.8033 112.982 15.884 112.912 15.9612C112.842 16.0384 112.768 16.1096 112.69 16.1784C112.612 16.2461 112.531 16.3114 112.447 16.3708C112.362 16.4301 112.275 16.4871 112.183 16.5393C112.092 16.5916 111.998 16.639 111.901 16.683C111.803 16.7269 111.702 16.7661 111.598 16.8017C111.495 16.8361 111.389 16.867 111.283 16.8931C111.178 16.9192 111.071 16.9418 110.963 16.9596C110.855 16.9774 110.747 16.9904 110.636 16.9987C110.526 17.007 110.416 17.0118 110.304 17.0118H109.649H108.993H108.338H107.683L107.597 17.5187L107.512 18.0256L107.426 18.5325L107.341 19.0394H108.01H108.68H109.35H110.019C110.223 19.0394 110.418 19.0548 110.605 19.0868C110.793 19.1189 110.971 19.1664 111.141 19.2293C111.311 19.2922 111.472 19.3718 111.625 19.4667C111.778 19.5617 111.922 19.6721 112.059 19.7991C112.195 19.9249 112.314 20.0638 112.416 20.2134C112.518 20.363 112.602 20.5244 112.671 20.6966C112.74 20.8687 112.79 21.0527 112.824 21.2486C112.859 21.4444 112.875 21.651 112.875 21.8694C112.875 22.0225 112.869 22.1709 112.856 22.3134C112.843 22.457 112.825 22.5947 112.8 22.7277C112.776 22.8606 112.745 22.9889 112.707 23.1123C112.67 23.2358 112.626 23.3533 112.576 23.4673C112.526 23.5812 112.472 23.6892 112.413 23.7937C112.355 23.897 112.292 23.9967 112.226 24.0905C112.159 24.1843 112.088 24.2733 112.012 24.3576C111.936 24.4419 111.857 24.5202 111.774 24.595C111.689 24.6698 111.601 24.7398 111.51 24.8051C111.419 24.8704 111.324 24.9321 111.225 24.9891C111.127 25.0461 111.023 25.0983 110.918 25.147C110.811 25.1957 110.702 25.2384 110.588 25.2788C110.474 25.3179 110.359 25.3524 110.242 25.382C110.126 25.4117 110.008 25.4355 109.888 25.4556C109.769 25.4758 109.65 25.4901 109.528 25.4996C109.405 25.5091 109.284 25.5138 109.16 25.5138H107.392H105.624H103.857H102.089L102.005 26.0599L101.921 26.606L101.836 27.152L101.752 27.6981H103.556H105.361H107.165H108.97C109.166 27.6981 109.36 27.691 109.553 27.6767C109.745 27.6625 109.937 27.6411 110.127 27.6126C110.317 27.5841 110.506 27.5485 110.692 27.5058C110.879 27.463 111.064 27.4132 111.248 27.3562C111.432 27.2992 111.611 27.2351 111.784 27.1639C111.958 27.0927 112.126 27.0131 112.289 26.9265C112.451 26.8398 112.609 26.746 112.761 26.6451C112.913 26.5442 113.06 26.435 113.203 26.3187C113.344 26.2023 113.479 26.0789 113.608 25.9471C113.736 25.8153 113.857 25.6753 113.971 25.5281C114.085 25.3809 114.192 25.2242 114.291 25.0603C114.391 24.8965 114.484 24.7256 114.57 24.5451C114.656 24.3659 114.732 24.1783 114.796 23.9813C114.86 23.7854 114.915 23.5812 114.957 23.3687C115 23.1562 115.032 22.9354 115.055 22.7063C115.076 22.4772 115.087 22.2398 115.087 21.9952C115.087 21.8991 115.083 21.8029 115.076 21.7056C115.069 21.6083 115.058 21.5109 115.044 21.4124C115.03 21.3139 115.012 21.2153 114.992 21.1156C114.97 21.0159 114.947 20.9162 114.918 20.8153C114.89 20.7144 114.86 20.6158 114.826 20.5185C114.791 20.4211 114.756 20.325 114.718 20.2312C114.678 20.1374 114.637 20.0448 114.593 19.9534C114.549 19.862 114.502 19.773 114.451 19.6863C114.401 19.5985 114.348 19.5142 114.294 19.4323C114.239 19.3504 114.182 19.2708 114.124 19.1937C114.065 19.1165 114.004 19.0429 113.94 18.9717C113.876 18.9005 113.811 18.8316 113.743 18.7663C113.675 18.701 113.606 18.6393 113.536 18.5811C113.466 18.523 113.395 18.4684 113.324 18.4185C113.253 18.3687 113.179 18.3212 113.106 18.2784C113.032 18.2357 112.957 18.1965 112.881 18.1621C112.989 18.136 113.095 18.1027 113.199 18.0636C113.304 18.0244 113.406 17.9793 113.507 17.9282C113.608 17.8772 113.706 17.819 113.804 17.7549C113.901 17.6908 113.996 17.6208 114.091 17.5436C114.185 17.4665 114.276 17.3869 114.364 17.3026C114.452 17.2183 114.537 17.1317 114.62 17.0403C114.703 16.9489 114.783 16.8539 114.859 16.7566C114.935 16.6592 115.005 16.5488 115.076 16.4444Z" fill="black"/>
<path d="M30 73.8452V61.0612H32.1392V71.7633H35.1063L34.2419 73.8452H30Z" fill="#185D78"/>
<path d="M41.4032 73.6945L41.1186 72.4618H40.998C40.7849 72.8989 40.482 73.2413 40.0892 73.4925C39.6951 73.7413 39.2455 73.8669 38.7394 73.8669C37.8774 73.8669 37.2245 73.5738 36.7826 72.9875C36.3405 72.4014 36.1188 71.5244 36.1188 70.3583V64.0911H38.4377V69.8066C38.4377 70.5075 38.5215 71.037 38.6877 71.3928C38.8539 71.7487 39.1248 71.9273 39.4981 71.9273C39.9918 71.9273 40.3528 71.6798 40.5793 71.186C40.8072 70.6922 40.9205 69.8609 40.9205 68.6946V64.0911H43.2394V73.6945H41.4032Z" fill="#185D78"/>
<path d="M46.8171 68.7893L44.4206 64.0911H46.7998L48.0757 67.0222L49.2566 64.0911H51.6188L49.205 68.7893L51.7222 73.6944H49.3256L47.9636 70.6255L46.6963 73.6944H44.3084L46.8171 68.7893Z" fill="#185D78"/>
<path d="M53.5646 62.0603H56.7063C57.8836 62.0603 58.8195 62.287 59.514 62.7401C60.2087 63.1933 60.5559 63.9076 60.5559 64.8842C60.5559 65.4962 60.3823 66.0294 60.035 66.4828C59.6878 66.9359 59.173 67.25 58.4894 67.4273V67.4974C59.349 67.6267 60.0264 67.9248 60.5202 68.3891C61.0141 68.8546 61.2615 69.4925 61.2615 70.3042C61.2615 70.8695 61.1581 71.3645 60.9525 71.7881C60.7468 72.2118 60.455 72.564 60.0793 72.8473C59.7024 73.1292 59.2494 73.341 58.7198 73.4827C58.1902 73.6245 57.5953 73.6945 56.9365 73.6945H53.5646V62.0603V62.0603ZM56.3884 67.1798C57.5891 67.1798 58.4487 66.9888 58.966 66.6059C59.4844 66.2241 59.743 65.6441 59.743 64.867C59.743 64.1134 59.4672 63.569 58.9131 63.234C58.3602 62.8991 57.5485 62.7303 56.4771 62.7303H54.3761V67.1798H56.3884V67.1798ZM56.7247 73.0233C57.8897 73.0233 58.8048 72.8053 59.4698 72.3706C60.1348 71.9347 60.4673 71.2461 60.4673 70.3042C60.4673 69.4691 60.1434 68.8485 59.4957 68.442C58.8491 68.0356 57.9255 67.8325 56.7247 67.8325H54.3762V73.0233H56.7247Z" fill="#185D78"/>
<path d="M63.2037 71.5764C63.2037 70.6466 63.6445 69.9335 64.5275 69.4397C65.4105 68.9459 66.7936 68.5924 68.6765 68.3806C68.6876 68.0628 68.6679 67.7427 68.6149 67.4188C68.5619 67.0949 68.4622 66.8067 68.3144 66.553C68.1667 66.3006 67.9609 66.0936 67.6962 65.9348C67.4315 65.7759 67.0928 65.697 66.6814 65.697C66.105 65.697 65.5804 65.8091 65.11 66.032C64.6395 66.2561 64.2626 66.4742 63.9807 66.6859L63.6272 66.1034C63.78 65.9975 63.9659 65.8793 64.1826 65.7499C64.4006 65.6206 64.6419 65.5024 64.9068 65.3964C65.1716 65.2905 65.4634 65.1994 65.7811 65.123C66.0988 65.0466 66.4278 65.0085 66.77 65.0085C67.2761 65.0085 67.6998 65.0934 68.041 65.2646C68.3821 65.4347 68.6592 65.6673 68.8711 65.9618C69.0828 66.256 69.2331 66.5997 69.3205 66.9937C69.4093 67.389 69.4536 67.8152 69.4536 68.2745V73.6944H68.7996L68.7121 72.5996H68.6765C68.2405 72.9408 67.7726 73.2438 67.2725 73.5086C66.7725 73.7746 66.2406 73.9063 65.6754 73.9063C65.3342 73.9063 65.0164 73.8595 64.7222 73.7646C64.4278 73.6711 64.1656 73.5294 63.9364 73.341C63.706 73.1538 63.5275 72.9124 63.3982 72.6181C63.2678 72.3239 63.2037 71.9766 63.2037 71.5764ZM64.0153 71.5407C64.0153 72.1528 64.1927 72.5887 64.5448 72.8473C64.8983 73.106 65.3158 73.2353 65.7985 73.2353C66.2935 73.2353 66.7639 73.1183 67.211 72.8832C67.658 72.6467 68.147 72.3055 68.6765 71.8584V68.9804C67.8057 69.0863 67.073 69.2167 66.4783 69.3695C65.8835 69.5222 65.4044 69.7045 65.0398 69.9164C64.674 70.1281 64.413 70.3695 64.2541 70.6405C64.0952 70.9114 64.0153 71.2118 64.0153 71.5407Z" fill="#185D78"/>
<path d="M72.4906 61H73.2677V72.6712C73.2677 72.8596 73.3021 72.9976 73.3736 73.0849C73.4438 73.1735 73.5325 73.218 73.6384 73.218C73.6729 73.218 73.7111 73.218 73.7529 73.218C73.7937 73.218 73.8614 73.2069 73.9562 73.1823L74.0966 73.8178C74.0153 73.8412 73.9328 73.8621 73.8503 73.8805C73.7678 73.8977 73.6618 73.9064 73.5326 73.9064C72.838 73.9064 72.4907 73.4594 72.4907 72.5642V61H72.4906Z" fill="#185D78"/>
<path d="M76.1987 71.5764C76.1987 70.6466 76.6396 69.9335 77.5226 69.4397C78.4055 68.9459 79.7886 68.5924 81.6716 68.3806C81.6826 68.0628 81.663 67.7427 81.61 67.4188C81.5571 67.0949 81.4572 66.8067 81.3095 66.553C81.1617 66.3006 80.956 66.0936 80.6913 65.9348C80.4265 65.7759 80.0878 65.697 79.6766 65.697C79.1003 65.697 78.5756 65.8091 78.1051 66.032C77.6347 66.2561 77.2578 66.4742 76.9758 66.6859L76.6223 66.1034C76.775 65.9975 76.961 65.8793 77.1777 65.7499C77.3956 65.6206 77.6371 65.5024 77.9018 65.3964C78.1667 65.2905 78.4584 65.1994 78.7762 65.123C79.094 65.0466 79.4228 65.0085 79.7651 65.0085C80.2712 65.0085 80.6949 65.0934 81.036 65.2646C81.3772 65.4347 81.6543 65.6673 81.8661 65.9618C82.078 66.256 82.2282 66.5997 82.3157 66.9937C82.4043 67.389 82.4487 67.8152 82.4487 68.2745V73.6944H81.7948L81.7073 72.5996H81.6716C81.2357 72.9408 80.7677 73.2438 80.2677 73.5086C79.7676 73.7746 79.2356 73.9063 78.6704 73.9063C78.3292 73.9063 78.0115 73.8595 77.7172 73.7646C77.423 73.6711 77.1606 73.5294 76.9315 73.341C76.7012 73.1538 76.5226 72.9124 76.3933 72.6181C76.2627 72.3239 76.1987 71.9766 76.1987 71.5764ZM77.0103 71.5407C77.0103 72.1528 77.1876 72.5887 77.5397 72.8473C77.8932 73.106 78.3107 73.2353 78.7934 73.2353C79.2885 73.2353 79.7589 73.1183 80.206 72.8832C80.6531 72.6467 81.142 72.3055 81.6714 71.8584V68.9804C80.8008 69.0863 80.0679 69.2167 79.4732 69.3695C78.8784 69.5222 78.3993 69.7045 78.0348 69.9164C77.6691 70.1281 77.4079 70.3695 77.2491 70.6405C77.0903 70.9114 77.0103 71.2118 77.0103 71.5407Z" fill="#185D78"/>
<path d="M85.4857 65.2204H86.1569L86.2271 66.5269H86.28C86.716 66.091 87.163 65.729 87.6224 65.4407C88.0806 65.1526 88.6039 65.0085 89.1926 65.0085C90.0755 65.0085 90.7234 65.2733 91.1347 65.8028C91.5472 66.3324 91.7529 67.15 91.7529 68.2573V73.6944H90.9757V68.3632C90.9757 67.4568 90.8267 66.7881 90.5262 66.3583C90.2256 65.9297 89.7281 65.7142 89.0336 65.7142C88.5274 65.7142 88.0694 65.8472 87.6567 66.112C87.2454 66.3767 86.78 66.7732 86.2626 67.3029V73.6944H85.4855V65.2204H85.4857Z" fill="#185D78"/>
<path d="M94.1716 69.4753C94.1716 68.7685 94.2776 68.1367 94.4906 67.5776C94.7025 67.0184 94.9845 66.5505 95.338 66.1736C95.6901 65.7968 96.099 65.5085 96.5645 65.3078C97.0288 65.1082 97.5202 65.0085 98.0386 65.0085C98.6273 65.0085 99.1187 65.1145 99.5128 65.3262C99.9068 65.538 100.246 65.7794 100.527 66.0503L100.069 66.5971C99.7984 66.3386 99.498 66.123 99.169 65.9531C98.8389 65.782 98.4683 65.697 98.0556 65.697C97.6209 65.697 97.217 65.7882 96.8463 65.9704C96.4757 66.1527 96.1518 66.4113 95.8758 66.7475C95.5988 67.0825 95.3808 67.4802 95.2219 67.9384C95.0629 68.3978 94.9842 68.9101 94.9842 69.4754C94.9842 70.0283 95.058 70.5345 95.2046 70.9939C95.3523 71.452 95.5581 71.8474 95.8227 72.1763C96.0876 72.5063 96.4114 72.7624 96.7932 72.9447C97.1762 73.1269 97.5974 73.2182 98.0554 73.2182C98.5025 73.2182 98.9176 73.1246 99.3006 72.9361C99.6834 72.7477 100.021 72.5174 100.315 72.2465L100.722 72.7773C100.357 73.1062 99.9507 73.3771 99.5037 73.589C99.0566 73.8008 98.5616 73.9066 98.0209 73.9066C97.4668 73.9066 96.9581 73.8069 96.4938 73.6061C96.0283 73.4066 95.6219 73.1185 95.2747 72.7416C94.9274 72.3647 94.6577 71.9029 94.4631 71.3549C94.269 70.8079 94.1716 70.1809 94.1716 69.4753Z" fill="#185D78"/>
<path d="M101.798 69.4754C101.798 68.7808 101.902 68.1564 102.108 67.6035C102.313 67.0506 102.59 66.5825 102.937 66.1996C103.285 65.8178 103.679 65.5235 104.121 65.3178C104.562 65.1108 105.018 65.0087 105.489 65.0087C106.502 65.0087 107.296 65.3499 107.872 66.0321C108.449 66.7156 108.738 67.6799 108.738 68.9275C108.738 69.0334 108.738 69.1393 108.738 69.2452C108.738 69.3512 108.726 69.4571 108.702 69.563H102.594C102.605 70.0925 102.688 70.5851 102.84 71.0371C102.993 71.4903 103.208 71.8795 103.485 72.2033C103.761 72.5272 104.094 72.7796 104.483 72.962C104.871 73.1442 105.306 73.2354 105.789 73.2354C106.248 73.2354 106.663 73.1677 107.034 73.0322C107.404 72.8979 107.749 72.712 108.067 72.4768L108.385 73.0766C108.042 73.2772 107.669 73.4657 107.263 73.6419C106.857 73.818 106.343 73.9067 105.718 73.9067C105.176 73.9067 104.668 73.807 104.191 73.6062C103.715 73.4067 103.3 73.1148 102.946 72.7331C102.594 72.3502 102.313 71.8858 102.107 71.3378C101.902 70.7906 101.798 70.1699 101.798 69.4754ZM107.995 68.9631C107.995 67.8682 107.773 67.0468 107.326 66.5C106.877 65.9532 106.271 65.6785 105.507 65.6785C105.142 65.6785 104.795 65.7562 104.465 65.9089C104.136 66.0616 103.838 66.2795 103.573 66.5616C103.308 66.8449 103.09 67.1884 102.92 67.5948C102.749 68.0012 102.641 68.4569 102.594 68.9631H107.995Z" fill="#185D78"/>
<path d="M66.4277 46.5078C67.3184 46.5078 67.9883 46.7891 68.4375 47.3516C68.8906 47.9102 69.1172 48.7285 69.1172 49.8066C69.1172 50.8652 68.8789 51.6816 68.4023 52.2559C67.9297 52.8301 67.2637 53.1172 66.4043 53.1172C65.9512 53.1172 65.543 53.0234 65.1797 52.8359C64.8164 52.6484 64.5293 52.3828 64.3184 52.0391H64.2656L64.1016 53H63.7383V43.8828H64.3184V46.1738C64.3184 46.5176 64.3105 46.834 64.2949 47.123L64.2773 47.6211H64.3184C64.5605 47.2383 64.8516 46.957 65.1914 46.7773C65.5352 46.5977 65.9473 46.5078 66.4277 46.5078ZM66.416 47.0352C65.666 47.0352 65.1289 47.25 64.8047 47.6797C64.4805 48.1094 64.3184 48.8184 64.3184 49.8066V49.9062C64.3184 50.8672 64.4863 51.5566 64.8223 51.9746C65.1621 52.3926 65.6895 52.6016 66.4043 52.6016C67.0996 52.6016 67.623 52.3594 67.9746 51.875C68.3262 51.3867 68.502 50.6934 68.502 49.7949C68.502 47.9551 67.8066 47.0352 66.416 47.0352ZM69.8203 46.6309H70.418L71.7656 50.2051C72.1758 51.3027 72.4355 52.043 72.5449 52.4258H72.5801C72.7441 51.9219 73.0117 51.1699 73.3828 50.1699L74.7305 46.6309H75.3281L72.4746 54.0312C72.2441 54.6328 72.0508 55.0391 71.8945 55.25C71.7383 55.4609 71.5547 55.6191 71.3438 55.7246C71.1367 55.8301 70.8848 55.8828 70.5879 55.8828C70.3652 55.8828 70.1172 55.8418 69.8438 55.7598V55.2559C70.0703 55.3184 70.3145 55.3496 70.5762 55.3496C70.7754 55.3496 70.9512 55.3027 71.1035 55.209C71.2559 55.1152 71.3926 54.9688 71.5137 54.7695C71.6387 54.5742 71.7812 54.2617 71.9414 53.832C72.1055 53.4062 72.2109 53.1289 72.2578 53L69.8203 46.6309Z" fill="black"/>
</svg>
