<svg width="30" height="30" viewBox="0 0 30 30" fill="none" xmlns="http://www.w3.org/2000/svg">
<rect width="30" height="30" fill="white"/>
<path d="M30 30H22.5H15H7.5H0V28.322V26.6439V24.9669V23.2888V17.4666V11.6444V5.82221V0H7.5H15H22.5H30V7.49924V14.9985V22.4977V30ZM0.252287 29.7477H7.62614H15H22.3739H29.7477V28.099V26.4502V24.8014V23.1526C28.7608 22.6228 27.6941 22.1526 26.5608 21.745C25.4275 21.3373 24.2297 20.9932 22.9814 20.7147C21.733 20.4362 20.4333 20.2243 19.0982 20.0821C17.7631 19.9398 16.3916 19.8671 15 19.8671C13.6084 19.8671 12.2369 19.9398 10.9018 20.0821C9.56674 20.2243 8.26695 20.4362 7.01864 20.7147C5.77032 20.9932 4.57145 21.3373 3.43918 21.745C2.30692 22.1526 1.23924 22.6228 0.252287 23.1526V24.8014V26.4502V28.099V29.7477ZM15 19.6149C16.3876 19.6149 17.756 19.6865 19.0881 19.8278C20.4201 19.9691 21.7189 20.1789 22.9672 20.4544C24.2156 20.7299 25.4144 21.0709 26.5497 21.4746C27.685 21.8782 28.7557 22.3433 29.7477 22.868V17.2154V11.5627V5.90797V0.255289H22.3739H15H7.62614H0.252287V5.90797V11.5607V17.2133V22.866C1.24428 22.3413 2.31499 21.8762 3.45028 21.4725C4.58558 21.0689 5.78444 20.7289 7.03276 20.4534C8.28108 20.1779 9.57885 19.968 10.9119 19.8278C12.245 19.6875 13.6124 19.6149 15 19.6149ZM17.9881 18.3445L17.6692 17.729L17.3503 17.1134L17.0314 16.4979L16.7125 15.8824H17.0001H17.2877H17.5753H17.863V14.6514V13.4203V12.1893V10.9583H17.9255H17.9881H18.0507H18.1132V12.1893V13.4203V14.6514V15.8824H18.4008H18.6884H18.976H19.2637L18.9448 16.4979L18.6259 17.1134L18.307 17.729L17.9881 18.3445ZM17.1273 16.1357L17.3422 16.5514L17.5572 16.9671L17.7721 17.3829L17.9871 17.7986L18.202 17.3829L18.417 16.9671L18.6319 16.5514L18.8469 16.1357H18.416H17.9851H17.5582H17.1273ZM12.0038 18.3445L11.6849 17.729L11.3661 17.1134L11.0472 16.4979L10.7283 15.8824H11.0159H11.3035H11.5911H11.8787V14.6514V13.4203V12.1893V10.9583H11.9413H12.0038H12.0664H12.129V12.1893V13.4203V14.6514V15.8824H12.4166H12.7042H12.9918H13.2794L12.9605 16.4979L12.6416 17.1134L12.3227 17.729L12.0038 18.3445ZM11.142 16.1357L11.357 16.5514L11.5719 16.9671L11.7869 17.3829L12.0018 17.7986L12.2168 17.3829L12.4317 16.9671L12.6467 16.5514L12.8616 16.1357H12.4307H11.9998H11.5689H11.142ZM14.9889 18.3445L14.67 17.729L14.3511 17.1134L14.0322 16.4979L13.7133 15.8824H14.0009H14.2885H14.5762H14.8638V14.6514V13.4203V12.1893V10.9583H14.9263H14.9889H15.0515H15.114V12.1893V13.4203V14.6514V15.8824H15.4016H15.6892H15.9769H16.2645L15.9456 16.4979L15.6267 17.1134L15.3078 17.729L14.9889 18.3445ZM14.1281 16.1357L14.343 16.5514L14.558 16.9671L14.7729 17.3829L14.9879 17.7986L15.2028 17.3829L15.4178 16.9671L15.6327 16.5514L15.8477 16.1357H15.4168H14.9859H14.555H14.1281ZM14.7124 9.86546C14.1866 9.86546 13.6851 9.7585 13.2289 9.56476C12.7728 9.37103 12.3611 9.09152 12.0159 8.74643C11.6708 8.40133 11.3913 7.98964 11.1975 7.53355C11.0038 7.07746 10.8968 6.57596 10.8968 6.05025C10.8968 5.52454 11.0038 5.02304 11.1975 4.56594C11.3913 4.10884 11.6708 3.69816 12.0159 3.35307C12.3611 3.00797 12.7728 2.72746 13.2289 2.53473C13.6851 2.342 14.1866 2.23403 14.7124 2.23403C15.2382 2.23403 15.7407 2.34099 16.1969 2.53473C16.653 2.72847 17.0647 3.00797 17.4109 3.35307C17.757 3.69816 18.0365 4.10985 18.2293 4.56594C18.422 5.02203 18.53 5.52353 18.53 6.05025C18.53 6.57596 18.423 7.07746 18.2293 7.53355C18.0355 7.98964 17.756 8.40133 17.4109 8.74643C17.0657 9.09152 16.654 9.37103 16.1969 9.56476C15.7397 9.7585 15.2382 9.86546 14.7124 9.86546ZM14.7124 2.48629C14.2209 2.48629 13.7527 2.58619 13.3268 2.76681C12.901 2.94743 12.5165 3.20877 12.1946 3.53167C11.8726 3.85456 11.6113 4.238 11.4306 4.66483C11.25 5.09165 11.1501 5.55985 11.1501 6.05126C11.1501 6.54267 11.25 7.01086 11.4306 7.43668C11.6113 7.8625 11.8726 8.24695 12.1946 8.56883C12.5165 8.89072 12.901 9.15307 13.3268 9.33268C13.7527 9.51229 14.2209 9.6132 14.7124 9.6132C15.2038 9.6132 15.6721 9.5133 16.099 9.33268C16.5248 9.15206 16.9093 8.89072 17.2322 8.56883C17.5552 8.24695 17.8165 7.8625 17.9972 7.43668C18.1778 7.01086 18.2777 6.54267 18.2777 6.05126C18.2777 5.55985 18.1778 5.09165 17.9972 4.66483C17.8165 4.238 17.5552 3.85456 17.2322 3.53167C16.9093 3.20877 16.5248 2.94743 16.099 2.76681C15.6721 2.58619 15.2038 2.48629 14.7124 2.48629Z" fill="#4D4D4D"/>
</svg>
