<svg width="30" height="30" viewBox="0 0 30 30" fill="none" xmlns="http://www.w3.org/2000/svg">
<rect width="30" height="30" fill="white"/>
<path d="M30 30H22.5H15H7.5H0V22.5003V15.0005V7.49975V0H7.5H15H22.5H30V7.49975V14.9995V22.4992V30ZM0.252287 29.7477H7.62614H15H22.3739H29.7477V22.3741V15.0005V7.62589V0.252279H22.3739H15H7.62614H0.252287V7.62589V14.9995V22.3731V29.7477Z" fill="#4D4D4D"/>
<path d="M30 22V21.9421V21.8843V21.8264V21.7685C28.8439 21.3235 27.6602 20.9279 26.4529 20.5844C25.2446 20.241 24.0117 19.9507 22.7583 19.7163C21.5049 19.482 20.2279 19.3027 18.9345 19.1822C17.6401 19.0617 16.3282 19 15 19C13.6718 19 12.3589 19.0617 11.0655 19.1822C9.77111 19.3027 8.49515 19.482 7.24173 19.7163C5.98832 19.9507 4.7554 20.2419 3.54708 20.5844C2.33875 20.9279 1.15605 21.3235 0 21.7685V21.8264V21.8843V21.9421V22C1.15503 21.5522 2.33773 21.1546 3.54605 20.8093C4.75335 20.4639 5.98627 20.1717 7.24071 19.9364C8.49515 19.7011 9.77111 19.5199 11.0655 19.3994C12.3599 19.278 13.6728 19.2163 15.002 19.2163C16.3303 19.2163 17.6431 19.278 18.9376 19.3994C20.232 19.5209 21.5079 19.7011 22.7624 19.9364C24.0168 20.1717 25.2487 20.4649 26.457 20.8093C27.6612 21.1546 28.845 21.5522 30 22Z" fill="#4D4D4D"/>
<path d="M26.0906 15.9969C25.9788 15.9969 25.8771 15.9929 25.7826 15.9857C25.688 15.9775 25.6026 15.9663 25.5223 15.952C25.4419 15.9377 25.3698 15.9194 25.3027 15.899C25.2355 15.8785 25.1735 15.8541 25.1146 15.8275C25.0556 15.801 25.0027 15.7724 24.9509 15.7408C24.9 15.7101 24.8512 15.6765 24.8034 15.6418C24.7556 15.6071 24.7109 15.5703 24.6652 15.5315C24.6194 15.4927 24.5736 15.454 24.5269 15.4131C24.476 15.3682 24.4232 15.3213 24.3672 15.2743C24.3113 15.2274 24.2534 15.1804 24.1914 15.1345C24.1293 15.0886 24.0643 15.0426 23.9931 14.9988C23.9229 14.9549 23.8467 14.913 23.7653 14.8742C23.684 14.8355 23.5966 14.7987 23.501 14.766C23.4064 14.7334 23.3037 14.7048 23.1939 14.6813C23.0841 14.6579 22.9641 14.6385 22.836 14.6262C22.7079 14.613 22.5696 14.6068 22.4212 14.6068C22.2728 14.6068 22.1355 14.614 22.0074 14.6262C21.8793 14.6385 21.7603 14.6579 21.6495 14.6813C21.5387 14.7048 21.437 14.7334 21.3424 14.766C21.2479 14.7987 21.1594 14.8344 21.0781 14.8742C20.9967 14.914 20.9215 14.9549 20.8503 14.9988C20.7792 15.0426 20.7141 15.0876 20.6521 15.1335C20.59 15.1794 20.5321 15.2264 20.4772 15.2733C20.4223 15.3203 20.3694 15.3662 20.3186 15.4111C20.2718 15.4519 20.2261 15.4917 20.1803 15.5305C20.1346 15.5693 20.0888 15.606 20.042 15.6418C19.9953 15.6775 19.9465 15.7101 19.8946 15.7418C19.8438 15.7734 19.7889 15.802 19.7309 15.8285C19.6729 15.8551 19.6109 15.8785 19.5428 15.9C19.4757 15.9214 19.4025 15.9388 19.3232 15.9541C19.2439 15.9694 19.1575 15.9806 19.0629 15.9878C18.9683 15.9959 18.8667 16 18.7548 16C18.643 16 18.5403 15.9959 18.4457 15.9878C18.3512 15.9796 18.2648 15.9684 18.1844 15.9541C18.1041 15.9398 18.0319 15.9214 17.9638 15.9C17.8957 15.8785 17.8337 15.8551 17.7757 15.8285C17.7178 15.802 17.6639 15.7734 17.612 15.7418C17.5612 15.7101 17.5124 15.6775 17.4646 15.6418C17.4168 15.606 17.3721 15.5693 17.3263 15.5305C17.2806 15.4917 17.2348 15.4519 17.188 15.4111C17.1341 15.3641 17.0792 15.3162 17.0223 15.2682C16.9654 15.2202 16.9064 15.1723 16.8434 15.1263C16.7803 15.0804 16.7152 15.0345 16.6451 14.9906C16.5749 14.9467 16.4997 14.9059 16.4184 14.8671C16.337 14.8283 16.2506 14.7936 16.1571 14.762C16.0635 14.7303 15.9618 14.7028 15.853 14.6793C15.7443 14.6558 15.6253 14.6385 15.4982 14.6262C15.3711 14.614 15.2339 14.6068 15.0854 14.6068C14.937 14.6068 14.7987 14.614 14.6706 14.6262C14.5425 14.6385 14.4235 14.6579 14.3127 14.6813C14.2019 14.7048 14.1002 14.7334 14.0056 14.766C13.9111 14.7987 13.8226 14.8344 13.7413 14.8742C13.6599 14.914 13.5847 14.9549 13.5135 14.9988C13.4424 15.0426 13.3773 15.0876 13.3163 15.1335C13.2553 15.1794 13.1963 15.2264 13.1414 15.2733C13.0865 15.3203 13.0336 15.3662 12.9828 15.4111C12.936 15.4519 12.8903 15.4917 12.8445 15.5305C12.7988 15.5693 12.753 15.606 12.7062 15.6418C12.6595 15.6775 12.6107 15.7101 12.5588 15.7418C12.5069 15.7734 12.4531 15.802 12.3951 15.8285C12.3372 15.8551 12.2751 15.8785 12.207 15.9C12.1389 15.9214 12.0667 15.9388 11.9864 15.9541C11.9061 15.9694 11.8206 15.9806 11.7261 15.9878C11.6315 15.9949 11.5288 16 11.418 16C11.3062 16 11.2045 15.9959 11.1099 15.9878C11.0154 15.9796 10.929 15.9684 10.8497 15.9541C10.7704 15.9398 10.6971 15.9214 10.63 15.901C10.5629 15.8806 10.4999 15.8561 10.4419 15.8296C10.384 15.803 10.3301 15.7744 10.2782 15.7428C10.2264 15.7112 10.1786 15.6785 10.1308 15.6428C10.083 15.6071 10.0373 15.5703 9.99254 15.5325C9.94781 15.4948 9.90104 15.454 9.85427 15.4131C9.80343 15.3682 9.75056 15.3213 9.69464 15.2753C9.63872 15.2294 9.58076 15.1814 9.51976 15.1355C9.45875 15.0896 9.39267 15.0437 9.32149 14.9998C9.25032 14.9559 9.17508 14.914 9.09374 14.8753C9.0124 14.8365 8.92496 14.7997 8.82939 14.7671C8.73382 14.7344 8.63214 14.7058 8.52233 14.6824C8.41253 14.6589 8.29255 14.6395 8.16444 14.6272C8.03633 14.615 7.9011 14.6048 7.75266 14.6048C7.60422 14.6048 7.46594 14.6119 7.33783 14.6242C7.20972 14.6364 7.09076 14.6558 6.97994 14.6793C6.86911 14.7028 6.76744 14.7313 6.67288 14.764C6.57832 14.7967 6.49088 14.8324 6.40853 14.8722C6.32617 14.912 6.25195 14.9528 6.18179 14.9967C6.11164 15.0406 6.04555 15.0855 5.98455 15.1314C5.92354 15.1774 5.86559 15.2243 5.80967 15.2702C5.75374 15.3162 5.70189 15.3631 5.65105 15.407C5.60428 15.4478 5.55853 15.4887 5.51278 15.5264C5.46702 15.5642 5.42127 15.602 5.37348 15.6377C5.3257 15.6734 5.27791 15.7061 5.22606 15.7377C5.1742 15.7693 5.12031 15.7979 5.06236 15.8245C5.00441 15.851 4.94238 15.8745 4.87426 15.8959C4.80614 15.9173 4.73395 15.9347 4.65363 15.95C4.57331 15.9653 4.48892 15.9775 4.39436 15.9857C4.2998 15.9939 4.19813 15.998 4.08629 15.998C3.97445 15.998 3.87176 15.9939 3.7772 15.9857C3.68264 15.9775 3.59622 15.9663 3.51691 15.952C3.43761 15.9377 3.3644 15.9194 3.29628 15.8979C3.22816 15.8765 3.16614 15.853 3.10818 15.8265C3.05023 15.8 2.99634 15.7714 2.94449 15.7397C2.89263 15.7081 2.84485 15.6754 2.79706 15.6397C2.74927 15.604 2.70453 15.5673 2.65878 15.5295C2.61303 15.4917 2.56727 15.4509 2.5205 15.4101C2.5144 15.405 2.50932 15.3999 2.50322 15.3948C2.49712 15.3897 2.49204 15.3846 2.48593 15.3795C2.47983 15.3744 2.47475 15.3692 2.46865 15.3641C2.46255 15.359 2.45747 15.3539 2.45137 15.3478C2.44527 15.3417 2.43916 15.3366 2.43408 15.3315C2.429 15.3264 2.42188 15.3203 2.41578 15.3152C2.40968 15.31 2.40358 15.3039 2.39748 15.2988C2.39138 15.2937 2.38528 15.2876 2.37918 15.2815C2.32834 15.2345 2.27445 15.1845 2.21548 15.1325C2.15651 15.0804 2.09449 15.0273 2.02637 14.9743C1.95825 14.9212 1.88504 14.8681 1.80675 14.8161C1.72846 14.764 1.64204 14.714 1.54952 14.667C1.45699 14.6201 1.35735 14.5752 1.24958 14.5354C1.1418 14.4956 1.02589 14.4599 0.900834 14.4303C0.775774 14.4007 0.641564 14.3772 0.497187 14.3609C0.35281 14.3445 0.198265 14.3353 0.0325358 14.3353C0.031519 14.3353 0.0305023 14.3353 0.0284688 14.3353C0.0264353 14.3353 0.0264353 14.3353 0.0244018 14.3353C0.0223683 14.3353 0.0223683 14.3353 0.0203348 14.3353C0.0183014 14.3353 0.0183014 14.3353 0.0162679 14.3353C0.0142344 14.3353 0.0142344 14.3353 0.0122009 14.3353C0.0101674 14.3353 0.0101674 14.3353 0.00813394 14.3353C0.00610046 14.3353 0.00610046 14.3353 0.00406698 14.3353C0.00203349 14.3353 0.00203348 14.3353 0 14.3353V14.3037V14.2721V14.2404V14.2088V14.1771V14.1455V14.1139V14.0822C0.00101674 14.0822 0.00305024 14.0822 0.00406698 14.0822C0.00508372 14.0822 0.0071172 14.0822 0.00813394 14.0822C0.00915068 14.0822 0.0111842 14.0822 0.0122009 14.0822C0.0132177 14.0822 0.0152511 14.0822 0.0162679 14.0822C0.0172846 14.0822 0.0193181 14.0822 0.0203348 14.0822C0.0213516 14.0822 0.0233851 14.0822 0.0244018 14.0822C0.0254186 14.0822 0.027452 14.0822 0.0284688 14.0822C0.0294855 14.0822 0.031519 14.0822 0.0325358 14.0822C0.210466 14.0822 0.376195 14.0914 0.531756 14.1088C0.687318 14.1261 0.830678 14.1516 0.965905 14.1833C1.10113 14.2149 1.22517 14.2527 1.34007 14.2955C1.45496 14.3384 1.56273 14.3853 1.66237 14.4364C1.76201 14.4874 1.85352 14.5405 1.93791 14.5956C2.0223 14.6507 2.10059 14.7079 2.1738 14.765C2.247 14.8222 2.31309 14.8783 2.37613 14.9334C2.43917 14.9885 2.49712 15.0426 2.55101 15.0927C2.55711 15.0978 2.56321 15.1039 2.56829 15.109C2.57337 15.1141 2.57948 15.1202 2.58558 15.1253C2.59168 15.1304 2.59676 15.1355 2.60286 15.1406C2.60896 15.1457 2.61404 15.1508 2.62015 15.1559C2.62625 15.161 2.63133 15.1661 2.63641 15.1712C2.6415 15.1763 2.6476 15.1814 2.65268 15.1866C2.65776 15.1917 2.66386 15.1968 2.66895 15.2008C2.67403 15.2049 2.68013 15.21 2.68522 15.2151C2.72995 15.2549 2.77367 15.2927 2.81638 15.3284C2.85908 15.3641 2.90077 15.3988 2.94347 15.4305C2.98617 15.4621 3.02989 15.4927 3.07565 15.5203C3.1214 15.5479 3.16919 15.5734 3.22002 15.5958C3.27086 15.6183 3.32576 15.6387 3.38474 15.6571C3.44371 15.6754 3.50776 15.6897 3.57792 15.702C3.64807 15.7142 3.72433 15.7234 3.80872 15.7295C3.89311 15.7357 3.9836 15.7387 4.08425 15.7387C4.18389 15.7387 4.2754 15.7357 4.35877 15.7295C4.44215 15.7234 4.5184 15.7142 4.58856 15.702C4.65871 15.6897 4.72277 15.6744 4.78174 15.6571C4.84071 15.6397 4.89561 15.6193 4.94645 15.5958C4.99729 15.5724 5.04508 15.5479 5.09083 15.5203C5.13658 15.4927 5.1803 15.4631 5.223 15.4305C5.26571 15.3978 5.30739 15.3641 5.3501 15.3284C5.3928 15.2927 5.4355 15.2549 5.48024 15.2151C5.53209 15.1692 5.587 15.1212 5.64495 15.0722C5.70291 15.0232 5.76391 14.9743 5.83 14.9242C5.89609 14.8742 5.96624 14.8263 6.0425 14.7783C6.11876 14.7303 6.20111 14.6854 6.28957 14.6426C6.37802 14.5997 6.4736 14.5599 6.57731 14.5242C6.68101 14.4884 6.79184 14.4568 6.91181 14.4303C7.03179 14.4037 7.16092 14.3833 7.30021 14.368C7.4395 14.3527 7.58896 14.3455 7.74961 14.3455C7.91026 14.3455 8.0587 14.3527 8.19799 14.367C8.33729 14.3813 8.4654 14.4017 8.58436 14.4272C8.70331 14.4527 8.81414 14.4833 8.91581 14.5191C9.01749 14.5548 9.11306 14.5936 9.2005 14.6354C9.28794 14.6773 9.3703 14.7232 9.44554 14.7701C9.52077 14.8171 9.59195 14.8661 9.65905 14.9161C9.72616 14.9661 9.78818 15.0161 9.84715 15.0661C9.90612 15.1161 9.96306 15.1661 10.018 15.2141C10.0637 15.2539 10.1064 15.2917 10.1491 15.3274C10.1918 15.3631 10.2345 15.3978 10.2772 15.4295C10.3199 15.4611 10.3637 15.4917 10.4094 15.5193C10.4552 15.5468 10.5029 15.5724 10.5538 15.5948C10.6046 15.6173 10.6595 15.6377 10.7185 15.656C10.7775 15.6744 10.8415 15.6887 10.9117 15.701C10.9818 15.7132 11.0581 15.7224 11.1415 15.7285C11.2248 15.7346 11.3163 15.7377 11.416 15.7377C11.5156 15.7377 11.6071 15.7346 11.6905 15.7285C11.7739 15.7224 11.8501 15.7132 11.9203 15.701C11.9904 15.6887 12.0545 15.6734 12.1135 15.656C12.1724 15.6387 12.2273 15.6183 12.2782 15.5948C12.329 15.5713 12.3768 15.5468 12.4226 15.5193C12.4683 15.4917 12.512 15.4621 12.5547 15.4295C12.5974 15.3968 12.6391 15.3631 12.6818 15.3274C12.7245 15.2917 12.7672 15.2539 12.813 15.2141C12.8679 15.1661 12.9248 15.1161 12.9838 15.0661C13.0428 15.0161 13.1058 14.9651 13.1719 14.9161C13.238 14.8671 13.3092 14.8171 13.3854 14.7701C13.4617 14.7232 13.543 14.6783 13.6304 14.6354C13.7179 14.5925 13.8135 14.5538 13.9151 14.5191C14.0168 14.4844 14.1276 14.4537 14.2476 14.4272C14.3676 14.4007 14.4957 14.3813 14.634 14.367C14.7722 14.3527 14.9217 14.3455 15.0824 14.3455C15.242 14.3455 15.3904 14.3527 15.5287 14.367C15.667 14.3813 15.7951 14.4007 15.9141 14.4262C16.033 14.4517 16.1428 14.4823 16.2455 14.517C16.3482 14.5517 16.4428 14.5905 16.5302 14.6323C16.6176 14.6742 16.7 14.7191 16.7752 14.766C16.8515 14.813 16.9216 14.862 16.9887 14.911C17.0559 14.96 17.1179 15.011 17.1779 15.061C17.2379 15.111 17.2938 15.16 17.3487 15.209C17.3944 15.2488 17.4371 15.2866 17.4809 15.3233C17.5236 15.3601 17.5663 15.3937 17.609 15.4264C17.6517 15.4591 17.6954 15.4887 17.7411 15.5162C17.7869 15.5438 17.8347 15.5693 17.8855 15.5928C17.9364 15.6162 17.9913 15.6367 18.0512 15.654C18.1102 15.6714 18.1753 15.6867 18.2454 15.6989C18.3156 15.7112 18.3919 15.7203 18.4762 15.7265C18.5596 15.7326 18.6511 15.7357 18.7518 15.7357C18.8514 15.7357 18.9429 15.7326 19.0263 15.7265C19.1097 15.7203 19.1859 15.7112 19.2561 15.6989C19.3262 15.6867 19.3903 15.6714 19.4493 15.654C19.5082 15.6367 19.5631 15.6162 19.614 15.5928C19.6648 15.5693 19.7126 15.5448 19.7584 15.5172C19.8041 15.4897 19.8478 15.4601 19.8905 15.4274C19.9332 15.3948 19.9749 15.3611 20.0176 15.3254C20.0603 15.2896 20.103 15.2519 20.1488 15.2121C20.2037 15.1641 20.2606 15.1141 20.3206 15.0641C20.3806 15.0141 20.4426 14.963 20.5097 14.914C20.5768 14.8651 20.647 14.815 20.7232 14.7681C20.7995 14.7211 20.8808 14.6762 20.9693 14.6334C21.0578 14.5905 21.1523 14.5517 21.254 14.517C21.3567 14.4823 21.4665 14.4517 21.5854 14.4262C21.7044 14.4007 21.8325 14.3802 21.9718 14.366C22.1101 14.3517 22.2595 14.3445 22.4192 14.3445C22.5798 14.3445 22.7283 14.3517 22.8676 14.366C23.0068 14.3802 23.135 14.4007 23.2539 14.4262C23.3729 14.4517 23.4837 14.4823 23.5864 14.518C23.6891 14.5538 23.7836 14.5925 23.8711 14.6344C23.9585 14.6762 24.0409 14.7222 24.1161 14.7691C24.1914 14.8161 24.2625 14.8651 24.3296 14.9151C24.3967 14.9651 24.4588 15.0151 24.5177 15.0651C24.5767 15.1151 24.6336 15.1651 24.6885 15.2131C24.7343 15.2529 24.777 15.2907 24.8207 15.3264C24.8634 15.3621 24.9061 15.3968 24.9488 15.4284C24.9915 15.4601 25.0352 15.4907 25.081 15.5183C25.1268 15.5458 25.1745 15.5713 25.2254 15.5938C25.2762 15.6162 25.3311 15.6367 25.3901 15.655C25.4491 15.6724 25.5131 15.6877 25.5833 15.6999C25.6534 15.7122 25.7297 15.7214 25.8131 15.7275C25.8964 15.7336 25.9869 15.7367 26.0866 15.7367C26.1862 15.7367 26.2777 15.7336 26.3611 15.7275C26.4445 15.7214 26.5207 15.7122 26.5909 15.6999C26.661 15.6877 26.7251 15.6724 26.784 15.655C26.843 15.6377 26.8979 15.6173 26.9488 15.5938C26.9996 15.5703 27.0474 15.5458 27.0931 15.5183C27.1389 15.4907 27.1816 15.4611 27.2243 15.4284C27.267 15.3958 27.3087 15.3621 27.3514 15.3264C27.3941 15.2907 27.4368 15.2529 27.4815 15.2131C27.5415 15.16 27.6035 15.108 27.6706 15.0559C27.7377 15.0039 27.8079 14.9528 27.8842 14.9028C27.9604 14.8528 28.0407 14.8048 28.1272 14.7599C28.2136 14.715 28.3071 14.6721 28.4068 14.6323C28.5064 14.5925 28.6132 14.5578 28.727 14.5262C28.8419 14.4956 28.9639 14.469 29.0951 14.4476C29.2263 14.4262 29.3666 14.4109 29.516 14.4027C29.6655 14.3935 29.8251 14.3915 29.9959 14.3966L29.9949 14.4282L29.9939 14.4599L29.999 14.4976L29.998 14.5293L29.997 14.5609L29.9959 14.5925L29.9949 14.6242L29.9939 14.6558C29.8343 14.6528 29.6858 14.6558 29.5465 14.665C29.4072 14.6742 29.2771 14.6875 29.1561 14.7069C29.0351 14.7262 28.9212 14.7497 28.8155 14.7773C28.7098 14.8048 28.6111 14.8365 28.5196 14.8722C28.4281 14.9079 28.3417 14.9457 28.2614 14.9865C28.181 15.0273 28.1058 15.0712 28.0357 15.1171C27.9655 15.1631 27.8984 15.21 27.8354 15.259C27.7723 15.308 27.7123 15.358 27.6544 15.4091C27.6076 15.4499 27.5619 15.4897 27.5161 15.5285C27.4703 15.5673 27.4246 15.604 27.3768 15.6397C27.329 15.6754 27.2812 15.7081 27.2294 15.7397C27.1775 15.7714 27.1236 15.8 27.0657 15.8265C27.0077 15.853 26.9457 15.8765 26.8776 15.8979C26.8095 15.9194 26.7373 15.9367 26.657 15.952C26.5766 15.9673 26.4912 15.9786 26.3967 15.9857C26.3021 15.9929 26.2025 15.9969 26.0906 15.9969ZM26.0906 13.6342C25.9788 13.6342 25.8761 13.6301 25.7826 13.6219C25.688 13.6137 25.6016 13.6025 25.5223 13.5882C25.443 13.5739 25.3698 13.5556 25.3016 13.5341C25.2345 13.5127 25.1715 13.4892 25.1135 13.4627C25.0556 13.4362 25.0017 13.4076 24.9498 13.3759C24.898 13.3443 24.8502 13.3116 24.8024 13.2759C24.7546 13.2402 24.7089 13.2034 24.6631 13.1657C24.6174 13.1269 24.5716 13.0871 24.5248 13.0463C24.474 13.0014 24.4211 12.9554 24.3662 12.9085C24.3113 12.8615 24.2534 12.8156 24.1914 12.7687C24.1293 12.7217 24.0643 12.6768 23.9931 12.6339C23.9219 12.5911 23.8467 12.5482 23.7653 12.5094C23.684 12.4706 23.5966 12.4339 23.501 12.4012C23.4054 12.3686 23.3037 12.34 23.1939 12.3165C23.0841 12.293 22.9652 12.2736 22.836 12.2614C22.7069 12.2492 22.5696 12.242 22.4212 12.242C22.2728 12.242 22.1355 12.2492 22.0074 12.2614C21.8793 12.2747 21.7603 12.293 21.6505 12.3165C21.5407 12.34 21.438 12.3686 21.3435 12.4012C21.2489 12.4339 21.1615 12.4696 21.0791 12.5084C20.9967 12.5472 20.9225 12.589 20.8514 12.6329C20.7812 12.6768 20.7151 12.7217 20.6531 12.7676C20.5911 12.8136 20.5331 12.8605 20.4782 12.9064C20.4233 12.9524 20.3704 12.9983 20.3196 13.0432C20.2728 13.084 20.2271 13.1249 20.1813 13.1636C20.1356 13.2024 20.0898 13.2392 20.043 13.2749C19.9963 13.3106 19.9475 13.3443 19.8956 13.3749C19.8438 13.4055 19.7899 13.4351 19.7319 13.4617C19.674 13.4882 19.6119 13.5127 19.5438 13.5331C19.4757 13.5535 19.4035 13.5719 19.3232 13.5872C19.2429 13.6025 19.1575 13.6137 19.0629 13.6209C18.9683 13.628 18.8657 13.6331 18.7538 13.6331C18.642 13.6331 18.5383 13.6291 18.4437 13.6209C18.3491 13.6127 18.2627 13.6015 18.1824 13.5872C18.1021 13.5729 18.0299 13.5545 17.9618 13.5331C17.8936 13.5117 17.8316 13.4882 17.7737 13.4617C17.7157 13.4351 17.6618 13.4066 17.61 13.3749C17.5591 13.3433 17.5103 13.3106 17.4636 13.2749C17.4168 13.2392 17.371 13.2024 17.3253 13.1636C17.2795 13.1249 17.2348 13.0851 17.188 13.0442C17.1362 12.9993 17.0833 12.9524 17.0274 12.9064C16.9715 12.8605 16.9135 12.8125 16.8515 12.7666C16.7895 12.7207 16.7234 12.6748 16.6532 12.6319C16.5831 12.589 16.5068 12.5462 16.4255 12.5074C16.3441 12.4686 16.2567 12.4318 16.1611 12.4002C16.0666 12.3675 15.9649 12.339 15.8541 12.3155C15.7432 12.292 15.6253 12.2736 15.4972 12.2604C15.3691 12.2471 15.2318 12.241 15.0844 12.241C14.9359 12.241 14.7987 12.2481 14.6706 12.2604C14.5425 12.2726 14.4235 12.292 14.3137 12.3155C14.2039 12.339 14.1012 12.3675 14.0066 12.4002C13.9121 12.4329 13.8246 12.4686 13.7423 12.5074C13.6599 12.5462 13.5857 12.588 13.5145 12.6319C13.4434 12.6758 13.3783 12.7207 13.3173 12.7666C13.2563 12.8125 13.1973 12.8595 13.1424 12.9054C13.0875 12.9514 13.0346 12.9983 12.9838 13.0422C12.937 13.083 12.8913 13.1238 12.8455 13.1626C12.7998 13.2014 12.754 13.2382 12.7072 13.2739C12.6605 13.3096 12.6117 13.3423 12.5598 13.3739C12.508 13.4055 12.4541 13.4341 12.3961 13.4606C12.3382 13.4872 12.2761 13.5107 12.208 13.5321C12.1399 13.5535 12.0677 13.5709 11.9874 13.5862C11.9071 13.6015 11.8206 13.6127 11.7261 13.6199C11.6315 13.627 11.5288 13.6321 11.417 13.6321C11.3052 13.6321 11.2025 13.628 11.1079 13.6199C11.0134 13.6117 10.9269 13.6005 10.8466 13.5862C10.7663 13.5719 10.6941 13.5535 10.626 13.5321C10.5579 13.5107 10.4958 13.4872 10.4379 13.4606C10.3799 13.4341 10.326 13.4055 10.2742 13.3739C10.2223 13.3423 10.1745 13.3096 10.1268 13.2739C10.079 13.2382 10.0342 13.2014 9.98848 13.1626C9.94272 13.1238 9.89697 13.084 9.8502 13.0432C9.79936 12.9983 9.74649 12.9524 9.69057 12.9054C9.63465 12.8585 9.5767 12.8125 9.51569 12.7656C9.45469 12.7186 9.3886 12.6737 9.31743 12.6309C9.24625 12.588 9.1761 12.5492 9.09476 12.5104C9.01342 12.4717 8.92598 12.4349 8.83041 12.4033C8.73483 12.3716 8.63316 12.342 8.52335 12.3186C8.41354 12.2951 8.29458 12.2757 8.16647 12.2634C8.03836 12.2512 7.90009 12.243 7.75266 12.243C7.60422 12.243 7.46696 12.2502 7.33783 12.2624C7.2087 12.2747 7.09076 12.2941 6.97994 12.3175C6.86911 12.341 6.76744 12.3696 6.67288 12.4022C6.57832 12.4349 6.49088 12.4706 6.40853 12.5104C6.32617 12.5502 6.25195 12.5911 6.18078 12.635C6.1096 12.6788 6.04453 12.7237 5.98353 12.7697C5.92252 12.8156 5.86355 12.8626 5.80865 12.9095C5.75374 12.9565 5.70087 13.0024 5.65004 13.0473C5.60327 13.0881 5.55751 13.1279 5.51176 13.1667C5.46601 13.2055 5.42025 13.2422 5.37348 13.278C5.32671 13.3137 5.27791 13.3463 5.22606 13.378C5.1742 13.4096 5.12031 13.4382 5.06236 13.4647C5.00441 13.4913 4.94238 13.5147 4.87426 13.5362C4.80614 13.5576 4.73395 13.575 4.65363 13.5903C4.57331 13.6056 4.4879 13.6168 4.39334 13.624C4.29879 13.6311 4.1961 13.6362 4.08425 13.6362C3.97241 13.6362 3.86972 13.6321 3.77415 13.624C3.67857 13.6158 3.59317 13.6046 3.51285 13.5903C3.43252 13.576 3.36033 13.5576 3.29221 13.5362C3.22409 13.5147 3.16207 13.4913 3.10411 13.4647C3.04616 13.4382 2.99227 13.4096 2.94042 13.378C2.88857 13.3463 2.84078 13.3137 2.79299 13.278C2.7452 13.2422 2.70047 13.2055 2.65471 13.1667C2.60896 13.1279 2.56321 13.0881 2.51644 13.0473C2.51135 13.0422 2.50525 13.0371 2.50017 13.032C2.49509 13.0269 2.48899 13.0218 2.48288 13.0167C2.47678 13.0116 2.4717 13.0065 2.4656 13.0014C2.4595 12.9963 2.45442 12.9912 2.44832 12.985C2.44222 12.9789 2.43611 12.9738 2.43103 12.9687C2.42595 12.9636 2.41883 12.9575 2.41273 12.9524C2.40663 12.9473 2.40053 12.9411 2.39443 12.936C2.38833 12.9309 2.38223 12.9248 2.37613 12.9187C2.32529 12.8717 2.2714 12.8217 2.21243 12.7707C2.15346 12.7197 2.09144 12.6666 2.02332 12.6135C1.9552 12.5604 1.88606 12.5074 1.80675 12.4553C1.72745 12.4033 1.64204 12.3543 1.55053 12.3073C1.45903 12.2604 1.35837 12.2165 1.25059 12.1767C1.14282 12.1369 1.02691 12.1012 0.90185 12.0726C0.776791 12.044 0.642581 12.0195 0.498204 12.0032C0.353826 11.9868 0.200298 11.9766 0.0345692 11.9766C0.0335525 11.9766 0.031519 11.9766 0.0305023 11.9766C0.0294855 11.9766 0.0274521 11.9766 0.0264353 11.9766C0.0254186 11.9766 0.0233851 11.9766 0.0223683 11.9766C0.0213516 11.9766 0.0193181 11.9766 0.0183014 11.9766C0.0172846 11.9766 0.0152511 11.9766 0.0142344 11.9766C0.0132176 11.9766 0.0111842 11.9766 0.0101674 11.9766C0.00915069 11.9766 0.00711719 11.9766 0.00610045 11.9766C0.00508371 11.9766 0.00305023 11.9766 0.00203349 11.9766V11.945V11.9134V11.8817V11.8501V11.8184V11.7868V11.7552V11.7235C0.00305023 11.7235 0.00508371 11.7235 0.00610045 11.7235C0.00711719 11.7235 0.00915069 11.7235 0.0101674 11.7235C0.0111842 11.7235 0.0132176 11.7235 0.0142344 11.7235C0.0152511 11.7235 0.0172846 11.7235 0.0183014 11.7235C0.0193181 11.7235 0.0213516 11.7235 0.0223683 11.7235C0.0233851 11.7235 0.0254186 11.7235 0.0264353 11.7235C0.0274521 11.7235 0.0294855 11.7235 0.0305023 11.7235C0.031519 11.7235 0.0335525 11.7235 0.0345692 11.7235C0.212499 11.7235 0.378228 11.7327 0.532773 11.7501C0.687318 11.7674 0.831695 11.7929 0.965905 11.8246C1.10012 11.8562 1.22416 11.894 1.34007 11.9368C1.45598 11.9797 1.56273 12.0267 1.66136 12.0777C1.75998 12.1287 1.8525 12.1818 1.93689 12.2369C2.02128 12.292 2.09957 12.3492 2.17278 12.4053C2.24598 12.4614 2.31207 12.5186 2.37511 12.5737C2.43815 12.6288 2.4961 12.6819 2.54999 12.7329C2.55609 12.738 2.56219 12.7442 2.56829 12.7493C2.57439 12.7544 2.58049 12.7605 2.58558 12.7656C2.59066 12.7707 2.59676 12.7758 2.60286 12.7819C2.60896 12.788 2.61404 12.7921 2.62015 12.7972C2.62625 12.8023 2.63133 12.8074 2.63743 12.8125C2.64353 12.8176 2.64861 12.8228 2.6537 12.8279C2.65878 12.833 2.66488 12.8381 2.66997 12.8421C2.67505 12.8462 2.68115 12.8513 2.68623 12.8564C2.73097 12.8962 2.77469 12.934 2.81638 12.9697C2.85806 13.0054 2.90077 13.0401 2.94347 13.0718C2.98617 13.1034 3.02989 13.134 3.07463 13.1616C3.11937 13.1892 3.16817 13.2147 3.21901 13.2371C3.26984 13.2596 3.32475 13.281 3.38372 13.2984C3.44269 13.3157 3.50776 13.331 3.57792 13.3433C3.64807 13.3555 3.72433 13.3647 3.80872 13.3708C3.89311 13.377 3.98461 13.38 4.08425 13.38C4.18389 13.38 4.2754 13.377 4.35979 13.3708C4.44418 13.3647 4.51942 13.3555 4.59059 13.3433C4.66176 13.331 4.7248 13.3157 4.78377 13.2984C4.84274 13.281 4.89765 13.2606 4.94848 13.2371C4.99932 13.2137 5.04711 13.1892 5.09286 13.1616C5.13862 13.134 5.18234 13.1044 5.22402 13.0718C5.26571 13.0391 5.30841 13.0054 5.35112 12.9697C5.39382 12.934 5.43652 12.8962 5.48126 12.8564C5.53616 12.8085 5.5931 12.7584 5.65207 12.7084C5.71104 12.6584 5.77408 12.6074 5.84017 12.5584C5.90626 12.5094 5.97743 12.4594 6.05368 12.4125C6.12994 12.3655 6.21128 12.3206 6.29872 12.2777C6.38616 12.2349 6.48173 12.1961 6.58341 12.1614C6.68508 12.1267 6.79591 12.0961 6.91486 12.0705C7.03382 12.045 7.16193 12.0246 7.30123 12.0113C7.44052 11.9981 7.58896 11.9899 7.74859 11.9899C7.90822 11.9899 8.05768 11.9971 8.19596 12.0113C8.33424 12.0256 8.46235 12.045 8.5813 12.0705C8.70026 12.0961 8.81007 12.1267 8.91276 12.1614C9.01545 12.1961 9.11001 12.2349 9.19745 12.2777C9.28489 12.3206 9.36725 12.3645 9.44249 12.4114C9.51772 12.4584 9.5889 12.5074 9.656 12.5564C9.72311 12.6054 9.78513 12.6564 9.8441 12.7064C9.90307 12.7564 9.96001 12.8064 10.0149 12.8544C10.0607 12.8942 10.1034 12.932 10.1461 12.9687C10.1888 13.0054 10.2315 13.0391 10.2742 13.0708C10.3169 13.1024 10.3606 13.133 10.4064 13.1606C10.4521 13.1881 10.4999 13.2137 10.5507 13.2371C10.6016 13.2606 10.6565 13.281 10.7165 13.2984C10.7765 13.3157 10.8405 13.331 10.9107 13.3433C10.9808 13.3555 11.0571 13.3647 11.1415 13.3708C11.2259 13.377 11.3163 13.38 11.417 13.38C11.5166 13.38 11.6081 13.377 11.6925 13.3708C11.7769 13.3647 11.8532 13.3555 11.9233 13.3433C11.9935 13.331 12.0575 13.3157 12.1165 13.2984C12.1755 13.281 12.2304 13.2606 12.2812 13.2371C12.3321 13.2137 12.3799 13.1892 12.4256 13.1616C12.4714 13.134 12.5141 13.1044 12.5568 13.0718C12.5995 13.0391 12.6412 13.0054 12.6839 12.9697C12.7266 12.934 12.7693 12.8962 12.814 12.8564C12.8689 12.8085 12.9258 12.7584 12.9858 12.7084C13.0458 12.6584 13.1078 12.6074 13.1749 12.5584C13.2421 12.5094 13.3122 12.4594 13.3885 12.4125C13.4647 12.3655 13.5461 12.3206 13.6345 12.2787C13.723 12.2369 13.8175 12.1981 13.9192 12.1624C14.0209 12.1267 14.1317 12.0971 14.2507 12.0716C14.3696 12.046 14.4977 12.0256 14.636 12.0124C14.7743 11.9991 14.9227 11.9909 15.0834 11.9909C15.243 11.9909 15.3914 11.9981 15.5297 12.0124C15.668 12.0267 15.7961 12.046 15.9151 12.0716C16.034 12.0971 16.1438 12.1277 16.2465 12.1624C16.3492 12.1971 16.4428 12.2359 16.5312 12.2777C16.6197 12.3196 16.7 12.3645 16.7762 12.4114C16.8525 12.4584 16.9227 12.5064 16.9898 12.5564C17.0569 12.6064 17.1189 12.6564 17.1779 12.7054C17.2379 12.7554 17.2938 12.8044 17.3487 12.8523C17.3944 12.8922 17.4381 12.9309 17.4809 12.9677C17.5236 13.0044 17.5663 13.0381 17.609 13.0708C17.6517 13.1034 17.6954 13.133 17.7411 13.1616C17.7869 13.1892 17.8347 13.2147 17.8855 13.2382C17.9364 13.2616 17.9913 13.282 18.0512 13.2994C18.1102 13.3178 18.1753 13.332 18.2454 13.3443C18.3156 13.3565 18.3919 13.3657 18.4762 13.3719C18.5606 13.378 18.6521 13.381 18.7518 13.381C18.8514 13.381 18.9429 13.378 19.0263 13.3719C19.1097 13.3657 19.1859 13.3565 19.2561 13.3443C19.3262 13.332 19.3903 13.3167 19.4493 13.2994C19.5082 13.282 19.5631 13.2616 19.614 13.2382C19.6648 13.2147 19.7126 13.1902 19.7584 13.1626C19.8041 13.1351 19.8468 13.1055 19.8895 13.0728C19.9322 13.0401 19.9739 13.0065 20.0166 12.9707C20.0593 12.935 20.102 12.8973 20.1467 12.8575C20.2027 12.8095 20.2596 12.7595 20.3196 12.7084C20.3796 12.6584 20.4426 12.6074 20.5087 12.5584C20.5748 12.5094 20.646 12.4594 20.7222 12.4125C20.7985 12.3655 20.8798 12.3206 20.9683 12.2787C21.0567 12.2369 21.1513 12.1981 21.253 12.1624C21.3557 12.1277 21.4655 12.0971 21.5844 12.0716C21.7034 12.046 21.8315 12.0256 21.9698 12.0124C22.108 11.9981 22.2565 11.9909 22.4161 11.9909C22.5768 11.9909 22.7252 11.9981 22.8635 12.0124C23.0018 12.0267 23.1299 12.046 23.2498 12.0716C23.3698 12.0971 23.4796 12.1277 23.5813 12.1624C23.684 12.1971 23.7786 12.2369 23.866 12.2787C23.9534 12.3206 24.0358 12.3655 24.111 12.4125C24.1873 12.4594 24.2574 12.5084 24.3245 12.5584C24.3917 12.6084 24.4537 12.6584 24.5126 12.7084C24.5716 12.7584 24.6285 12.8085 24.6835 12.8564C24.7292 12.8962 24.7719 12.934 24.8146 12.9697C24.8573 13.0054 24.9 13.0401 24.9427 13.0718C24.9854 13.1034 25.0291 13.134 25.0749 13.1616C25.1207 13.1892 25.1684 13.2147 25.2193 13.2371C25.2701 13.2596 25.325 13.28 25.384 13.2984C25.443 13.3157 25.507 13.331 25.5772 13.3433C25.6473 13.3555 25.7236 13.3647 25.807 13.3708C25.8903 13.377 25.9818 13.38 26.0815 13.38C26.1821 13.38 26.2726 13.377 26.357 13.3708C26.4404 13.3647 26.5177 13.3555 26.5878 13.3433C26.658 13.331 26.722 13.3157 26.782 13.2984C26.841 13.281 26.8959 13.2606 26.9467 13.2371C26.9976 13.2137 27.0453 13.1892 27.0911 13.1616C27.1369 13.134 27.1796 13.1044 27.2223 13.0718C27.265 13.0391 27.3067 13.0054 27.3494 12.9697C27.3921 12.934 27.4348 12.8962 27.4795 12.8564C27.5395 12.8044 27.6015 12.7513 27.6686 12.7003C27.7347 12.6482 27.8059 12.5982 27.8811 12.5492C27.9563 12.5002 28.0367 12.4523 28.1231 12.4084C28.2095 12.3635 28.301 12.3216 28.4007 12.2828C28.5003 12.244 28.606 12.2093 28.7199 12.1777C28.8338 12.1471 28.9568 12.1205 29.088 12.0991C29.2191 12.0777 29.3595 12.0624 29.5099 12.0522C29.6604 12.043 29.8211 12.0389 29.9929 12.043L29.9919 12.0746L29.9909 12.1063L29.9898 12.1379L29.9888 12.1695L29.9878 12.2012L29.9868 12.2328L29.9858 12.2645L29.9847 12.2961C29.8261 12.293 29.6777 12.2951 29.5394 12.3032C29.4011 12.3114 29.271 12.3257 29.15 12.3441C29.029 12.3624 28.9162 12.3859 28.8104 12.4135C28.7047 12.441 28.606 12.4727 28.5145 12.5084C28.423 12.5441 28.3366 12.5819 28.2563 12.6237C28.176 12.6656 28.1007 12.7084 28.0296 12.7544C27.9584 12.8003 27.8913 12.8483 27.8282 12.8973C27.7652 12.9462 27.7042 12.9963 27.6462 13.0473C27.5995 13.0881 27.5537 13.1279 27.509 13.1667C27.4642 13.2055 27.4175 13.2422 27.3707 13.278C27.3239 13.3137 27.2751 13.3463 27.2243 13.378C27.1735 13.4096 27.1186 13.4382 27.0606 13.4647C27.0026 13.4913 26.9406 13.5147 26.8725 13.5362C26.8044 13.5576 26.7322 13.575 26.6519 13.5903C26.5715 13.6056 26.4851 13.6168 26.3906 13.624C26.296 13.6311 26.2025 13.6342 26.0906 13.6342ZM26.0906 11.2724C25.9788 11.2724 25.8761 11.2683 25.7826 11.2602C25.688 11.252 25.6016 11.2408 25.5223 11.2265C25.443 11.2122 25.3698 11.1938 25.3016 11.1724C25.2345 11.1509 25.1715 11.1275 25.1135 11.1009C25.0556 11.0744 25.0017 11.0458 24.9498 11.0142C24.898 10.9825 24.8502 10.9499 24.8024 10.9142C24.7546 10.8784 24.7089 10.8417 24.6631 10.8039C24.6174 10.7651 24.5716 10.7253 24.5248 10.6845C24.474 10.6396 24.4211 10.5937 24.3662 10.5467C24.3113 10.4998 24.2534 10.4538 24.1914 10.4069C24.1293 10.3599 24.0643 10.315 23.9941 10.2722C23.9239 10.2293 23.8487 10.1864 23.7664 10.1477C23.684 10.1089 23.5976 10.0721 23.502 10.0395C23.4064 10.0068 23.3048 9.97823 23.1949 9.95475C23.0851 9.93128 22.9652 9.91189 22.837 9.89964C22.7089 9.88739 22.5707 9.88025 22.4222 9.88025C22.2738 9.88025 22.1365 9.88739 22.0074 9.89964C21.8783 9.91189 21.7603 9.93128 21.6495 9.95475C21.5387 9.97823 21.437 10.0068 21.3424 10.0395C21.2479 10.0721 21.1594 10.1078 21.0781 10.1477C20.9967 10.1875 20.9205 10.2283 20.8503 10.2722C20.7802 10.3161 20.7141 10.361 20.6521 10.4069C20.59 10.4528 20.5321 10.4998 20.4772 10.5467C20.4223 10.5937 20.3694 10.6396 20.3186 10.6845C20.2718 10.7253 20.2271 10.7651 20.1813 10.8039C20.1356 10.8427 20.0898 10.8795 20.043 10.9152C19.9963 10.9509 19.9475 10.9836 19.8966 11.0152C19.8458 11.0468 19.7919 11.0754 19.7329 11.102C19.674 11.1285 19.613 11.152 19.5448 11.1734C19.4777 11.1948 19.4045 11.2122 19.3242 11.2275C19.2439 11.2428 19.1585 11.254 19.0639 11.2612C18.9694 11.2693 18.8667 11.2734 18.7548 11.2734C18.643 11.2734 18.5393 11.2693 18.4447 11.2612C18.3502 11.253 18.2637 11.2418 18.1834 11.2275C18.1031 11.2132 18.0309 11.1948 17.9628 11.1734C17.8947 11.152 17.8326 11.1285 17.7747 11.102C17.7167 11.0754 17.6628 11.0468 17.611 11.0152C17.5602 10.9836 17.5114 10.9509 17.4646 10.9152C17.4178 10.8795 17.3721 10.8427 17.3263 10.8039C17.2806 10.7651 17.2358 10.7253 17.189 10.6845C17.1352 10.6376 17.0803 10.5896 17.0233 10.5416C16.9664 10.4936 16.9074 10.4467 16.8454 10.3998C16.7834 10.3528 16.7173 10.3079 16.6471 10.264C16.577 10.2201 16.5017 10.1793 16.4204 10.1405C16.3391 10.1017 16.2526 10.067 16.1591 10.0354C16.0655 10.0037 15.9639 9.97619 15.8541 9.95271C15.7443 9.92924 15.6263 9.91189 15.4992 9.89964C15.3721 9.88739 15.2349 9.88025 15.0864 9.88025C14.938 9.88025 14.7997 9.88739 14.6716 9.89964C14.5435 9.91189 14.4245 9.93128 14.3137 9.95475C14.2029 9.97823 14.1012 10.0068 14.0066 10.0395C13.9121 10.0721 13.8236 10.1078 13.7423 10.1477C13.6609 10.1875 13.5857 10.2283 13.5145 10.2722C13.4434 10.3161 13.3783 10.361 13.3173 10.4069C13.2563 10.4528 13.1973 10.4998 13.1424 10.5467C13.0875 10.5937 13.0346 10.6396 12.9838 10.6845C12.937 10.7253 12.8913 10.7651 12.8455 10.8039C12.7998 10.8427 12.754 10.8795 12.7072 10.9152C12.6605 10.9509 12.6117 10.9836 12.5598 11.0152C12.508 11.0468 12.4541 11.0754 12.3961 11.102C12.3382 11.1285 12.2761 11.152 12.208 11.1734C12.1399 11.1948 12.0677 11.2122 11.9874 11.2275C11.9071 11.2428 11.8206 11.254 11.7271 11.2612C11.6336 11.2683 11.5299 11.2734 11.418 11.2734C11.3062 11.2734 11.2035 11.2693 11.1089 11.2612C11.0144 11.253 10.9279 11.2418 10.8476 11.2275C10.7673 11.2132 10.6951 11.1948 10.627 11.1734C10.5589 11.152 10.4968 11.1285 10.4389 11.102C10.3809 11.0754 10.3271 11.0468 10.2752 11.0152C10.2233 10.9836 10.1756 10.9509 10.1278 10.9152C10.08 10.8795 10.0352 10.8427 9.98949 10.8039C9.94374 10.7651 9.89799 10.7253 9.85122 10.6845C9.80038 10.6396 9.74751 10.5937 9.69261 10.5467C9.6377 10.4998 9.5828 10.4549 9.52179 10.4079C9.46079 10.361 9.3947 10.3161 9.32454 10.2732C9.25439 10.2303 9.17813 10.1875 9.09679 10.1487C9.01545 10.1099 8.92801 10.0731 8.83244 10.0405C8.73687 10.0078 8.63519 9.97925 8.52538 9.95577C8.41558 9.9323 8.2956 9.91291 8.16749 9.90066C8.03938 9.88841 7.9011 9.88127 7.75266 9.88127C7.60422 9.88127 7.46594 9.88841 7.33783 9.90066C7.20972 9.91291 7.09076 9.9323 6.97994 9.95577C6.86911 9.97925 6.76744 10.0078 6.67288 10.0405C6.57832 10.0731 6.49088 10.1089 6.40853 10.1477C6.32617 10.1864 6.25195 10.2283 6.18179 10.2722C6.11164 10.3161 6.04657 10.361 5.98455 10.4069C5.92252 10.4528 5.86559 10.4998 5.81068 10.5457C5.75578 10.5916 5.70291 10.6386 5.65309 10.6825C5.60632 10.7233 5.56056 10.7631 5.51481 10.8019C5.46906 10.8407 5.4233 10.8774 5.37653 10.9131C5.32976 10.9489 5.28096 10.9815 5.22911 11.0132C5.17725 11.0448 5.12336 11.0734 5.06541 11.0999C5.00746 11.1264 4.94543 11.1499 4.87731 11.1714C4.80919 11.1928 4.737 11.2101 4.65668 11.2254C4.57636 11.2408 4.49095 11.252 4.39639 11.2591C4.30184 11.2663 4.19813 11.2724 4.08629 11.2724C3.97445 11.2724 3.87175 11.2683 3.77618 11.2602C3.68061 11.252 3.5952 11.2408 3.51488 11.2265C3.43456 11.2122 3.36237 11.1938 3.29425 11.1724C3.22612 11.1509 3.1641 11.1275 3.10615 11.1009C3.04819 11.0744 2.99431 11.0458 2.94245 11.0142C2.8906 10.9825 2.84281 10.9499 2.79502 10.9142C2.74724 10.8784 2.7025 10.8417 2.65675 10.8029C2.61099 10.7641 2.56524 10.7243 2.51847 10.6835C2.51339 10.6784 2.50729 10.6733 2.5022 10.6692C2.49712 10.6651 2.49102 10.659 2.48593 10.6539C2.48085 10.6488 2.47475 10.6437 2.46865 10.6386C2.46255 10.6335 2.45747 10.6284 2.45137 10.6233C2.44527 10.6182 2.44018 10.6131 2.43408 10.6069C2.42798 10.6008 2.42188 10.5957 2.4168 10.5906C2.41171 10.5855 2.4046 10.5794 2.3985 10.5743C2.39239 10.5692 2.38629 10.5631 2.38019 10.5569C2.32936 10.51 2.27547 10.46 2.2165 10.4089C2.15753 10.3579 2.09652 10.3048 2.0284 10.2518C1.96028 10.1987 1.88809 10.1456 1.80878 10.0946C1.72948 10.0435 1.64407 9.99252 1.55155 9.94557C1.45903 9.89862 1.35938 9.85371 1.25161 9.8139C1.14384 9.7741 1.02793 9.73838 0.902867 9.70878C0.777808 9.67918 0.643598 9.65673 0.49922 9.6404C0.354843 9.62407 0.200298 9.61488 0.0345692 9.61488C0.0335525 9.61488 0.031519 9.61488 0.0305023 9.61488C0.0294855 9.61488 0.0274521 9.61488 0.0264353 9.61488C0.0254186 9.61488 0.0233851 9.61488 0.0223683 9.61488C0.0213516 9.61488 0.0193181 9.61488 0.0183014 9.61488C0.0172846 9.61488 0.0152511 9.61488 0.0142344 9.61488C0.0132176 9.61488 0.0111842 9.61488 0.0101674 9.61488C0.00915069 9.61488 0.00711719 9.61488 0.00610045 9.61488C0.00508371 9.61488 0.00305023 9.61488 0.00203349 9.61488V9.58324V9.5516V9.51996V9.48832V9.45668V9.42504V9.3934V9.36176C0.00305023 9.36176 0.00508371 9.36176 0.00610045 9.36176C0.00711719 9.36176 0.00915069 9.36176 0.0101674 9.36176C0.0111842 9.36176 0.0132176 9.36176 0.0142344 9.36176C0.0152511 9.36176 0.0172846 9.36176 0.0183014 9.36176C0.0193181 9.36176 0.0213516 9.36176 0.0223683 9.36176C0.0233851 9.36176 0.0254186 9.36176 0.0264353 9.36176C0.0274521 9.36176 0.0294855 9.36176 0.0305023 9.36176C0.031519 9.36176 0.0335525 9.36176 0.0345692 9.36176C0.212499 9.36176 0.378228 9.37095 0.532773 9.3883C0.687318 9.40565 0.831695 9.43116 0.965905 9.4628C1.10012 9.49444 1.22416 9.53221 1.34007 9.57507C1.45598 9.61794 1.56273 9.66489 1.66136 9.71592C1.75998 9.76695 1.8525 9.82003 1.93689 9.87514C2.02128 9.93026 2.09957 9.98741 2.17278 10.0446C2.24598 10.1017 2.31207 10.1579 2.37511 10.213C2.43815 10.2681 2.4961 10.3222 2.54999 10.3722C2.55609 10.3773 2.56219 10.3834 2.56727 10.3885C2.57236 10.3936 2.57846 10.3998 2.58456 10.4049C2.59066 10.41 2.59574 10.4151 2.60184 10.4202C2.60794 10.4253 2.61303 10.4304 2.61913 10.4355C2.62523 10.4406 2.63031 10.4457 2.6354 10.4508C2.64048 10.4559 2.64658 10.461 2.65166 10.4661C2.65675 10.4712 2.66285 10.4763 2.66793 10.4804C2.67302 10.4845 2.67912 10.4896 2.6842 10.4947C2.72894 10.5345 2.77164 10.5722 2.81434 10.608C2.85705 10.6437 2.89873 10.6784 2.94144 10.71C2.98414 10.7417 3.02786 10.7723 3.0726 10.7998C3.11733 10.8274 3.16614 10.8529 3.21697 10.8754C3.26781 10.8978 3.32271 10.9193 3.38169 10.9366C3.44066 10.954 3.50573 10.9693 3.57588 10.9815C3.64604 10.9938 3.72229 11.0029 3.80668 11.0091C3.89107 11.0152 3.98258 11.0183 4.08222 11.0183C4.18186 11.0183 4.27337 11.0152 4.35776 11.0091C4.44215 11.0029 4.51739 10.9938 4.58856 10.9815C4.65973 10.9693 4.72277 10.954 4.78174 10.9366C4.84071 10.9193 4.89561 10.8988 4.94645 10.8754C4.99729 10.8519 5.04508 10.8274 5.09083 10.7998C5.13658 10.7723 5.1803 10.7427 5.22199 10.71C5.26367 10.6774 5.30638 10.6437 5.34908 10.608C5.39178 10.5722 5.43449 10.5345 5.47922 10.4947C5.53108 10.4487 5.58497 10.4008 5.64292 10.3528C5.70087 10.3048 5.76188 10.2548 5.82797 10.2058C5.89406 10.1568 5.96421 10.1078 6.04047 10.0609C6.11672 10.0139 6.19806 9.96802 6.28753 9.92515C6.37701 9.88229 6.47157 9.84248 6.57527 9.80676C6.67898 9.77104 6.78981 9.7394 6.90978 9.71286C7.02976 9.68632 7.15888 9.66591 7.29818 9.65162C7.43747 9.63733 7.59202 9.62611 7.75266 9.62611C7.91331 9.62611 8.06175 9.63325 8.20104 9.64754C8.34034 9.66183 8.46845 9.68122 8.58741 9.70674C8.70636 9.73225 8.81719 9.76287 8.91988 9.79757C9.02257 9.83228 9.11713 9.87208 9.20457 9.91393C9.29201 9.95577 9.37436 10.0007 9.4496 10.0487C9.52484 10.0966 9.59601 10.1446 9.66312 10.1946C9.73022 10.2446 9.79225 10.2946 9.85122 10.3446C9.91019 10.3946 9.96712 10.4447 10.022 10.4926C10.0668 10.5324 10.1105 10.5702 10.1532 10.6059C10.1959 10.6416 10.2376 10.6763 10.2803 10.708C10.323 10.7396 10.3667 10.7702 10.4125 10.7978C10.4582 10.8254 10.506 10.8509 10.5568 10.8733C10.6077 10.8958 10.6626 10.9172 10.7215 10.9346C10.7805 10.9519 10.8446 10.9672 10.9157 10.9795C10.9869 10.9917 11.0622 11.0009 11.1465 11.007C11.2309 11.0132 11.3214 11.0162 11.4221 11.0162C11.5217 11.0162 11.6132 11.0132 11.6976 11.007C11.782 11.0009 11.8583 10.9917 11.9284 10.9795C11.9986 10.9672 12.0626 10.9519 12.1216 10.9346C12.1806 10.9172 12.2355 10.8968 12.2863 10.8733C12.3372 10.8499 12.3849 10.8254 12.4307 10.7978C12.4764 10.7702 12.5191 10.7406 12.5619 10.708C12.6046 10.6753 12.6462 10.6416 12.6889 10.6059C12.7316 10.5702 12.7744 10.5324 12.8191 10.4926C12.874 10.4447 12.9309 10.3946 12.9899 10.3446C13.0489 10.2946 13.1119 10.2436 13.178 10.1946C13.2441 10.1456 13.3153 10.0956 13.3915 10.0487C13.4678 10.0017 13.5491 9.95679 13.6365 9.91393C13.724 9.87106 13.8196 9.83228 13.9212 9.79757C14.0229 9.76287 14.1337 9.73225 14.2537 9.70674C14.3737 9.68122 14.5018 9.66081 14.6401 9.64754C14.7783 9.63427 14.9278 9.62611 15.0885 9.62611C15.2481 9.62611 15.3965 9.63325 15.5348 9.64754C15.6731 9.66183 15.8012 9.68122 15.9202 9.70674C16.0391 9.73225 16.1489 9.76287 16.2516 9.79757C16.3543 9.83228 16.4489 9.87106 16.5363 9.91291C16.6237 9.95475 16.7061 9.99966 16.7813 10.0466C16.8576 10.0936 16.9277 10.1426 16.9948 10.1915C17.062 10.2405 17.124 10.2916 17.184 10.3416C17.244 10.3916 17.2999 10.4406 17.3558 10.4896C17.4005 10.5294 17.4443 10.5671 17.487 10.6039C17.5297 10.6396 17.5713 10.6743 17.614 10.707C17.6567 10.7396 17.7005 10.7692 17.7462 10.7968C17.792 10.8243 17.8398 10.8499 17.8906 10.8733C17.9414 10.8968 17.9963 10.9172 18.0553 10.9346C18.1143 10.9519 18.1794 10.9672 18.2495 10.9795C18.3197 10.9917 18.3959 11.0009 18.4803 11.007C18.5647 11.0132 18.6562 11.0162 18.7558 11.0162C18.8555 11.0162 18.947 11.0132 19.0304 11.007C19.1137 11.0009 19.19 10.9917 19.2602 10.9795C19.3303 10.9672 19.3944 10.9519 19.4533 10.9346C19.5123 10.9172 19.5672 10.8968 19.618 10.8733C19.6689 10.8499 19.7167 10.8254 19.7624 10.7978C19.8082 10.7702 19.8509 10.7406 19.8936 10.708C19.9363 10.6753 19.978 10.6416 20.0207 10.6059C20.0634 10.5702 20.1061 10.5324 20.1508 10.4926C20.2057 10.4447 20.2627 10.3946 20.3226 10.3446C20.3826 10.2946 20.4447 10.2436 20.5118 10.1946C20.5789 10.1456 20.649 10.0956 20.7253 10.0487C20.8015 10.0017 20.8829 9.95679 20.9713 9.91393C21.0598 9.87106 21.1543 9.83228 21.257 9.79757C21.3597 9.76287 21.4695 9.73225 21.5895 9.70674C21.7095 9.68122 21.8376 9.66081 21.9759 9.64652C22.1141 9.63223 22.2636 9.62509 22.4232 9.62509C22.5839 9.62509 22.7333 9.63223 22.8716 9.64652C23.0099 9.66081 23.139 9.68122 23.258 9.70674C23.3769 9.73225 23.4878 9.76287 23.5905 9.79859C23.6931 9.8333 23.7877 9.8731 23.8751 9.91495C23.9626 9.95679 24.0449 10.0027 24.1202 10.0497C24.1964 10.0966 24.2666 10.1456 24.3327 10.1956C24.3988 10.2456 24.4618 10.2956 24.5208 10.3457C24.5797 10.3957 24.6367 10.4457 24.6916 10.4936C24.7363 10.5335 24.78 10.5712 24.8228 10.6069C24.8655 10.6427 24.9071 10.6774 24.9498 10.709C24.9925 10.7406 25.0363 10.7713 25.082 10.7988C25.1278 10.8264 25.1756 10.8519 25.2264 10.8743C25.2772 10.8968 25.3321 10.9172 25.3911 10.9356C25.4501 10.9529 25.5141 10.9682 25.5843 10.9805C25.6544 10.9927 25.7307 11.0019 25.8141 11.0081C25.8974 11.0142 25.989 11.0172 26.0886 11.0172C26.1892 11.0172 26.2797 11.0142 26.3641 11.0081C26.4475 11.0019 26.5248 10.9927 26.5949 10.9805C26.6651 10.9682 26.7291 10.9529 26.7891 10.9356C26.8481 10.9182 26.903 10.8978 26.9538 10.8743C27.0047 10.8509 27.0525 10.8264 27.0982 10.7988C27.144 10.7713 27.1867 10.7417 27.2294 10.709C27.2721 10.6763 27.3138 10.6427 27.3565 10.6069C27.3992 10.5712 27.4419 10.5335 27.4866 10.4936C27.5466 10.4416 27.6086 10.3885 27.6757 10.3375C27.7428 10.2865 27.813 10.2354 27.8892 10.1864C27.9655 10.1374 28.0458 10.0905 28.1322 10.0456C28.2187 10.0007 28.3112 9.95884 28.4108 9.92005C28.5105 9.88127 28.6172 9.84656 28.7311 9.81595C28.845 9.78533 28.968 9.75879 29.0992 9.73736C29.2303 9.71592 29.3706 9.69959 29.5201 9.69041C29.6696 9.68122 29.8302 9.67612 30 9.67918L29.999 9.71082L29.998 9.74246L29.999 9.7741L29.998 9.80574L29.997 9.83738L29.9959 9.86902L29.9949 9.90066L29.9939 9.9323C29.8353 9.92924 29.6858 9.9323 29.5465 9.94046C29.4072 9.94863 29.2771 9.96292 29.1561 9.98129C29.0351 9.99966 28.9212 10.0231 28.8155 10.0507C28.7098 10.0782 28.6111 10.1099 28.5196 10.1446C28.4281 10.1793 28.3417 10.2181 28.2614 10.2589C28.181 10.2997 28.1058 10.3436 28.0346 10.3895C27.9635 10.4355 27.8974 10.4834 27.8343 10.5324C27.7713 10.5814 27.7113 10.6314 27.6534 10.6825C27.6066 10.7233 27.5608 10.7631 27.5151 10.8019C27.4693 10.8407 27.4236 10.8774 27.3768 10.9131C27.33 10.9489 27.2812 10.9815 27.2294 11.0132C27.1785 11.0448 27.1236 11.0734 27.0657 11.0999C27.0077 11.1264 26.9457 11.1499 26.8776 11.1714C26.8095 11.1928 26.7373 11.2101 26.657 11.2254C26.5766 11.2408 26.4902 11.252 26.3956 11.2591C26.3052 11.2683 26.2025 11.2724 26.0906 11.2724ZM26.0906 8.91064C25.9788 8.91064 25.8761 8.90656 25.7826 8.89839C25.688 8.89023 25.6016 8.879 25.5223 8.86471C25.443 8.85042 25.3698 8.83205 25.3016 8.81062C25.2345 8.78918 25.1715 8.76571 25.1135 8.73917C25.0556 8.71263 25.0017 8.68406 24.9498 8.65242C24.898 8.62078 24.8502 8.58812 24.8024 8.55239C24.7546 8.51667 24.7089 8.47993 24.6631 8.44216C24.6174 8.40338 24.5716 8.36357 24.5248 8.32275C24.474 8.27784 24.4211 8.23191 24.3662 8.18496C24.3113 8.13801 24.2534 8.09209 24.1914 8.04514C24.1293 7.99819 24.0643 7.95328 23.9941 7.91041C23.9239 7.86754 23.8487 7.82468 23.7664 7.78589C23.685 7.74711 23.5976 7.71037 23.502 7.6777C23.4064 7.64504 23.3048 7.61647 23.1949 7.59299C23.0851 7.56952 22.9652 7.55013 22.837 7.53788C22.7089 7.52563 22.5707 7.51849 22.4222 7.51849C22.2738 7.51849 22.1365 7.52563 22.0074 7.53788C21.8783 7.55013 21.7603 7.56952 21.6495 7.59299C21.5387 7.61647 21.438 7.64709 21.3435 7.67975C21.2489 7.71241 21.1604 7.74813 21.0791 7.78793C20.9978 7.82672 20.9215 7.86856 20.8514 7.91245C20.7812 7.95634 20.7151 8.00125 20.6531 8.04718C20.5911 8.09311 20.5331 8.14006 20.4782 8.187C20.4233 8.23395 20.3704 8.27886 20.3196 8.32377C20.2728 8.3646 20.2281 8.4044 20.1823 8.44318C20.1366 8.48197 20.0908 8.51871 20.0441 8.55443C19.9973 8.59016 19.9485 8.62282 19.8976 8.65446C19.8468 8.6861 19.7929 8.71467 19.734 8.74121C19.675 8.76775 19.614 8.79122 19.5459 8.81266C19.4788 8.83409 19.4055 8.85144 19.3252 8.86675C19.2449 8.88206 19.1595 8.89329 19.0649 8.90043C18.9704 8.9086 18.8677 8.91268 18.7558 8.91268C18.644 8.91268 18.5403 8.9086 18.4457 8.90043C18.3512 8.89227 18.2648 8.88104 18.1844 8.86675C18.1041 8.85246 18.0319 8.83409 17.9638 8.81266C17.8957 8.79122 17.8337 8.76775 17.7757 8.74121C17.7178 8.71467 17.6639 8.6861 17.612 8.65446C17.5612 8.62282 17.5124 8.59016 17.4656 8.55443C17.4188 8.51871 17.3731 8.48197 17.3273 8.44318C17.2816 8.4044 17.2368 8.3646 17.1901 8.32377C17.1362 8.27682 17.0813 8.22885 17.0243 8.18088C16.9674 8.13291 16.9084 8.08596 16.8464 8.03901C16.7844 7.99206 16.7183 7.94715 16.6481 7.90327C16.578 7.85938 16.5027 7.81855 16.4214 7.77977C16.3401 7.74098 16.2536 7.70628 16.1601 7.67464C16.0666 7.643 15.9649 7.61545 15.8551 7.59197C15.7453 7.5685 15.6273 7.55115 15.5002 7.5389C15.3731 7.52665 15.2359 7.51951 15.0874 7.51951C14.939 7.51951 14.8007 7.52665 14.6726 7.5389C14.5445 7.55115 14.4255 7.57054 14.3147 7.59401C14.2039 7.61749 14.1022 7.64607 14.0077 7.67873C13.9131 7.71139 13.8246 7.74711 13.7433 7.78691C13.662 7.8257 13.5867 7.86754 13.5156 7.91143C13.4444 7.95532 13.3793 8.00023 13.3183 8.04616C13.2573 8.09208 13.1983 8.13903 13.1434 8.18598C13.0885 8.23293 13.0357 8.27886 12.9848 8.32377C12.938 8.3646 12.8923 8.4044 12.8465 8.44318C12.8008 8.48197 12.755 8.51871 12.7083 8.55443C12.6615 8.59016 12.6127 8.62282 12.5608 8.65446C12.509 8.6861 12.4551 8.71467 12.3971 8.74121C12.3392 8.76775 12.2772 8.79122 12.209 8.81266C12.1409 8.83409 12.0687 8.85144 11.9884 8.86675C11.9081 8.88206 11.8217 8.89329 11.7281 8.90043C11.6346 8.90758 11.5309 8.91268 11.419 8.91268C11.3072 8.91268 11.2045 8.9086 11.1099 8.90043C11.0154 8.89227 10.929 8.88104 10.8486 8.86675C10.7683 8.85246 10.6961 8.83409 10.628 8.81266C10.5599 8.79122 10.4979 8.76775 10.4399 8.74121C10.382 8.71467 10.3281 8.6861 10.2762 8.65446C10.2244 8.62282 10.1766 8.59016 10.1288 8.55443C10.081 8.51871 10.0363 8.48197 9.99051 8.44318C9.94476 8.4044 9.899 8.3646 9.85223 8.32377C9.8014 8.27886 9.74852 8.23293 9.69362 8.18598C9.63872 8.13903 9.5828 8.09311 9.52179 8.04616C9.46079 7.99921 9.39368 7.95532 9.32353 7.91143C9.25337 7.86754 9.17813 7.8257 9.09578 7.78691C9.01444 7.74813 8.927 7.71139 8.83142 7.67873C8.73585 7.64607 8.63519 7.61851 8.52437 7.59503C8.41354 7.57156 8.2956 7.55217 8.16647 7.5389C8.03735 7.52563 7.9011 7.51951 7.75266 7.51951C7.60422 7.51951 7.46594 7.52665 7.33783 7.5389C7.20972 7.55115 7.08974 7.57054 6.97892 7.59503C6.86809 7.61953 6.76642 7.64709 6.67186 7.67975C6.57731 7.71241 6.48987 7.74813 6.40751 7.78691C6.32617 7.8257 6.25093 7.86754 6.18078 7.91143C6.11062 7.95532 6.04555 8.00023 5.98353 8.04616C5.92151 8.09208 5.86457 8.13903 5.80967 8.18598C5.75476 8.23293 5.70189 8.27784 5.65105 8.32275C5.60428 8.36357 5.55853 8.4044 5.51278 8.44216C5.46702 8.47993 5.42127 8.51769 5.3745 8.55341C5.32773 8.58914 5.27893 8.6218 5.22809 8.65344C5.17725 8.68508 5.12235 8.71365 5.06439 8.74019C5.00644 8.76673 4.94442 8.7902 4.8763 8.81164C4.80817 8.83307 4.73497 8.85042 4.65566 8.86573C4.57636 8.88104 4.48993 8.89125 4.39538 8.89941C4.30082 8.90758 4.19813 8.91064 4.08629 8.91064C3.97445 8.91064 3.87175 8.90656 3.77618 8.89839C3.68061 8.89023 3.5952 8.88002 3.51488 8.86573C3.43456 8.85144 3.36237 8.83307 3.29425 8.81164C3.22612 8.7902 3.1641 8.76673 3.10615 8.74019C3.04819 8.71365 2.99431 8.68508 2.94245 8.65344C2.8906 8.6218 2.84281 8.58914 2.79604 8.55341C2.74927 8.51769 2.70352 8.48095 2.65776 8.44318C2.61201 8.40542 2.56626 8.3646 2.51949 8.32377C2.5144 8.31867 2.5083 8.31356 2.50322 8.30948C2.49814 8.3054 2.49204 8.29825 2.48593 8.29315C2.47983 8.28805 2.47475 8.28294 2.46865 8.27784C2.46255 8.27274 2.45747 8.26763 2.45137 8.26253C2.44527 8.25743 2.44018 8.2513 2.4351 8.2462C2.43001 8.2411 2.4229 8.23497 2.4168 8.22987C2.4107 8.22477 2.4046 8.21864 2.3985 8.21354C2.39239 8.20844 2.38629 8.20231 2.38019 8.19619C2.32936 8.14924 2.27547 8.09923 2.21751 8.0482C2.15956 7.99717 2.09652 7.94307 2.0284 7.89C1.96028 7.83692 1.88707 7.78385 1.80878 7.73282C1.7305 7.68179 1.64407 7.63076 1.55155 7.58381C1.45903 7.53686 1.35938 7.49195 1.25161 7.45214C1.14384 7.41234 1.02793 7.37662 0.902867 7.34702C0.777808 7.31742 0.643598 7.29497 0.49922 7.27863C0.354843 7.2623 0.200298 7.25312 0.0345692 7.25312C0.0335525 7.25312 0.031519 7.25312 0.0305023 7.25312C0.0294855 7.25312 0.0274521 7.25312 0.0264353 7.25312C0.0254186 7.25312 0.0233851 7.25312 0.0223683 7.25312C0.0213516 7.25312 0.0193181 7.25312 0.0183014 7.25312C0.0172846 7.25312 0.0152511 7.25312 0.0142344 7.25312C0.0132176 7.25312 0.0111842 7.25312 0.0101674 7.25312C0.00915069 7.25312 0.00711719 7.25312 0.00610045 7.25312C0.00508371 7.25312 0.00305023 7.25312 0.00203349 7.25312V7.22148V7.18984V7.1582V7.12656V7.09492V7.06328V7.03164V7C0.00305023 7 0.00508371 7 0.00610045 7C0.00711719 7 0.00915069 7 0.0101674 7C0.0111842 7 0.0132176 7 0.0142344 7C0.0152511 7 0.0172846 7 0.0183014 7C0.0193181 7 0.0213516 7 0.0223683 7C0.0233851 7 0.0254186 7 0.0264353 7C0.0274521 7 0.0294855 7 0.0305023 7C0.031519 7 0.0335525 7 0.0345692 7C0.212499 7 0.378228 7.00919 0.532773 7.02654C0.687318 7.04389 0.833729 7.06736 0.967939 7.099C1.10215 7.13064 1.22619 7.16841 1.3421 7.21127C1.45801 7.25414 1.56477 7.30211 1.66339 7.35212C1.76201 7.40213 1.85454 7.45623 1.93893 7.51134C2.02332 7.56646 2.10161 7.62361 2.17481 7.68077C2.24802 7.73792 2.31411 7.79406 2.37714 7.84917C2.43916 7.90429 2.49814 7.95838 2.55202 8.00839C2.55812 8.0135 2.56422 8.01962 2.56931 8.02472C2.57439 8.02983 2.58151 8.03595 2.58761 8.04105C2.59371 8.04616 2.59879 8.05126 2.60489 8.05636C2.61099 8.06147 2.61608 8.06657 2.62218 8.07167C2.62828 8.07678 2.63336 8.08188 2.63845 8.08698C2.64353 8.09208 2.64963 8.09719 2.65471 8.10229C2.6598 8.10739 2.6659 8.1125 2.67098 8.11658C2.67607 8.12066 2.68217 8.12577 2.68725 8.13087C2.73199 8.17067 2.77469 8.20844 2.81739 8.24416C2.8601 8.27988 2.90178 8.31458 2.94449 8.34622C2.98719 8.37786 3.03091 8.40848 3.07565 8.43604C3.12038 8.4636 3.16919 8.48911 3.22002 8.51157C3.27086 8.53402 3.32576 8.55545 3.38474 8.57281C3.44371 8.59016 3.50878 8.60547 3.57893 8.61771C3.64909 8.62996 3.72636 8.64017 3.80973 8.64629C3.89311 8.65242 3.98563 8.65548 4.08527 8.65548C4.18491 8.65548 4.27642 8.65242 4.36081 8.64629C4.4452 8.64017 4.52044 8.63098 4.59161 8.61873C4.66278 8.60649 4.72582 8.59118 4.78479 8.57383C4.84376 8.55648 4.89866 8.53606 4.9495 8.51259C5.00034 8.48911 5.04813 8.46462 5.09388 8.43706C5.13963 8.4095 5.18335 8.37991 5.22504 8.34724C5.26673 8.31458 5.30943 8.2809 5.35213 8.24518C5.39483 8.20946 5.43754 8.1717 5.48227 8.13189C5.53515 8.08494 5.59005 8.03697 5.64699 7.989C5.70392 7.94103 5.76595 7.89102 5.83203 7.84203C5.89812 7.79202 5.96828 7.74303 6.04453 7.69608C6.12079 7.64913 6.20213 7.6032 6.2916 7.56033C6.38107 7.51746 6.47563 7.47766 6.57934 7.44194C6.68305 7.40621 6.79387 7.37457 6.91385 7.34804C7.03382 7.3215 7.16295 7.30109 7.30224 7.2868C7.44154 7.27251 7.59202 7.26435 7.75266 7.26435C7.91331 7.26435 8.06175 7.27149 8.20104 7.28578C8.34034 7.30007 8.46845 7.31946 8.58741 7.34498C8.70636 7.37049 8.81719 7.40111 8.91988 7.43581C9.02257 7.47051 9.11713 7.51032 9.20457 7.55217C9.29201 7.59401 9.37436 7.63892 9.4496 7.68689C9.52484 7.73486 9.59601 7.78283 9.66312 7.83284C9.72921 7.88285 9.79225 7.93286 9.85122 7.98288C9.91019 8.03289 9.96712 8.0829 10.022 8.13087C10.0668 8.17067 10.1105 8.20844 10.1532 8.24416C10.1959 8.27988 10.2376 8.31458 10.2803 8.34622C10.323 8.37786 10.3667 8.40848 10.4125 8.43604C10.4582 8.4636 10.506 8.48911 10.5568 8.51157C10.6077 8.53402 10.6626 8.55545 10.7215 8.57281C10.7805 8.59016 10.8446 8.60547 10.9157 8.61771C10.9869 8.62996 11.0622 8.63915 11.1465 8.64527C11.2309 8.6514 11.3214 8.65446 11.4221 8.65446C11.5217 8.65446 11.6132 8.6514 11.6976 8.64527C11.782 8.63915 11.8583 8.62996 11.9284 8.61771C11.9986 8.60547 12.0626 8.59016 12.1216 8.57281C12.1806 8.55545 12.2355 8.53504 12.2863 8.51157C12.3372 8.48809 12.3849 8.4636 12.4307 8.43604C12.4764 8.40848 12.5191 8.37888 12.5619 8.34622C12.6046 8.31356 12.6462 8.27988 12.6889 8.24416C12.7316 8.20844 12.7744 8.17067 12.8191 8.13087C12.874 8.0829 12.9309 8.03289 12.9899 7.98288C13.0489 7.93286 13.1119 7.88183 13.178 7.83284C13.2441 7.78283 13.3153 7.73384 13.3915 7.68689C13.4678 7.63994 13.5491 7.59503 13.6365 7.55217C13.724 7.5093 13.8196 7.47051 13.9212 7.43581C14.0229 7.40111 14.1337 7.37049 14.2537 7.34498C14.3737 7.31946 14.5018 7.29905 14.6401 7.28578C14.7783 7.27251 14.9278 7.26435 15.0885 7.26435C15.2481 7.26435 15.3965 7.27149 15.5348 7.28578C15.6731 7.30007 15.8012 7.31946 15.9202 7.34498C16.0391 7.37049 16.1489 7.40111 16.2516 7.43581C16.3543 7.47051 16.4489 7.5093 16.5363 7.55115C16.6237 7.59299 16.7061 7.6379 16.7813 7.68485C16.8576 7.7318 16.9277 7.78079 16.9948 7.82978C17.062 7.87979 17.124 7.9298 17.184 7.97981C17.244 8.02983 17.2999 8.07882 17.3558 8.12781C17.4005 8.16761 17.4443 8.20538 17.487 8.24212C17.5297 8.27784 17.5713 8.31254 17.614 8.3452C17.6567 8.37786 17.7005 8.40746 17.7462 8.43502C17.792 8.46258 17.8398 8.48809 17.8906 8.51157C17.9414 8.53504 17.9963 8.55545 18.0553 8.57281C18.1143 8.59016 18.1794 8.60547 18.2495 8.61771C18.3197 8.62996 18.3959 8.63915 18.4803 8.64527C18.5647 8.6514 18.6562 8.65446 18.7558 8.65446C18.8555 8.65446 18.947 8.6514 19.0304 8.64527C19.1137 8.63915 19.19 8.62996 19.2602 8.61771C19.3303 8.60547 19.3944 8.59016 19.4533 8.57281C19.5123 8.55545 19.5672 8.53504 19.618 8.51157C19.6689 8.48809 19.7167 8.4636 19.7624 8.43604C19.8082 8.40848 19.8509 8.37888 19.8936 8.34622C19.9363 8.31356 19.978 8.27988 20.0207 8.24416C20.0634 8.20844 20.1061 8.17067 20.1508 8.13087C20.2057 8.0829 20.2627 8.03289 20.3226 7.98288C20.3826 7.93286 20.4447 7.88183 20.5118 7.83284C20.5789 7.78283 20.649 7.73384 20.7253 7.68689C20.8015 7.63994 20.8829 7.59503 20.9713 7.55217C21.0598 7.5093 21.1543 7.47051 21.257 7.43581C21.3597 7.40111 21.4695 7.37049 21.5895 7.34498C21.7095 7.31946 21.8376 7.29905 21.9759 7.28476C22.1141 7.27047 22.2636 7.26333 22.4232 7.26333C22.5839 7.26333 22.7333 7.27047 22.8716 7.28476C23.0099 7.29905 23.139 7.31946 23.258 7.34498C23.3769 7.37049 23.4878 7.40111 23.5905 7.43683C23.6931 7.47154 23.7877 7.51134 23.8751 7.55319C23.9626 7.59503 24.0449 7.64096 24.1202 7.68791C24.1964 7.73486 24.2666 7.78385 24.3327 7.83386C24.3988 7.88387 24.4618 7.93389 24.5208 7.9839C24.5797 8.03391 24.6367 8.08392 24.6916 8.13189C24.7363 8.1717 24.78 8.20946 24.8228 8.24518C24.8655 8.2809 24.9071 8.3156 24.9498 8.34724C24.9925 8.37888 25.0363 8.4095 25.082 8.43706C25.1278 8.46462 25.1756 8.49013 25.2264 8.51259C25.2772 8.53504 25.3321 8.55546 25.3911 8.57383C25.4501 8.59118 25.5141 8.60649 25.5843 8.61873C25.6544 8.63098 25.7307 8.64017 25.8141 8.64629C25.8974 8.65242 25.989 8.65548 26.0886 8.65548C26.1892 8.65548 26.2797 8.65242 26.3641 8.64629C26.4475 8.64017 26.5248 8.63098 26.5949 8.61873C26.6651 8.60649 26.7291 8.59118 26.7891 8.57383C26.8481 8.55648 26.903 8.53606 26.9538 8.51259C27.0047 8.48911 27.0525 8.46462 27.0982 8.43706C27.144 8.4095 27.1867 8.37991 27.2294 8.34724C27.2721 8.31458 27.3138 8.2809 27.3565 8.24518C27.3992 8.20946 27.4419 8.1717 27.4866 8.13189C27.5466 8.07984 27.6086 8.02778 27.6757 7.97573C27.7428 7.9247 27.813 7.87367 27.8882 7.82468C27.9635 7.77569 28.0448 7.72874 28.1312 7.68485C28.2177 7.63994 28.3102 7.5981 28.4098 7.56033C28.5095 7.52257 28.6152 7.48685 28.7301 7.45623C28.844 7.42561 28.967 7.39907 29.0982 7.37764C29.2293 7.3562 29.3696 7.33987 29.5191 7.32967C29.6696 7.31946 29.8292 7.31436 30 7.31742L29.999 7.34906L29.998 7.3807L29.999 7.41132L29.998 7.44296L29.997 7.4746V7.50624L29.9959 7.53788L29.9949 7.56952C29.8353 7.56543 29.6868 7.56748 29.5476 7.57564C29.4093 7.58483 29.2791 7.59809 29.1581 7.61647C29.0371 7.63484 28.9233 7.65831 28.8175 7.68689C28.7118 7.71445 28.6132 7.74711 28.5217 7.78181C28.4301 7.81651 28.3437 7.85632 28.2634 7.89714C28.1831 7.93899 28.1078 7.98288 28.0377 8.0288C27.9675 8.07473 27.9004 8.1227 27.8374 8.17272C27.7744 8.22171 27.7144 8.27274 27.6564 8.32275C27.6096 8.36357 27.5639 8.40338 27.5181 8.44216C27.4724 8.48095 27.4266 8.51769 27.3799 8.55341C27.3331 8.58914 27.2843 8.6218 27.2324 8.65344C27.1816 8.68508 27.1267 8.71365 27.0687 8.74019C27.0108 8.76673 26.9488 8.7902 26.8806 8.81164C26.8125 8.83307 26.7403 8.85042 26.66 8.86573C26.5797 8.88104 26.4933 8.89227 26.3987 8.89941C26.3052 8.90656 26.2025 8.91064 26.0906 8.91064Z" fill="#4D4D4D"/>
</svg>
