<svg width="30" height="30" viewBox="0 0 30 30" fill="none" xmlns="http://www.w3.org/2000/svg">
<rect width="30" height="30" fill="white"/>
<path d="M30 30H22.5H15H7.5H0V22.5003V15.0005V7.49975V0H7.5H15H22.5H30V7.49975V14.9995V22.4992V30ZM0.252287 29.7477H7.62614H15H22.3739H29.7477V22.3741V15.0005V7.62589V0.252279H22.3739H15H7.62614H0.252287V7.62589V14.9995V22.3731V29.7477Z" fill="#4D4D4D"/>
<path d="M30 22V21.9421V21.8843V21.8264V21.7685C28.8439 21.3235 27.6602 20.9279 26.4529 20.5844C25.2446 20.241 24.0117 19.9507 22.7583 19.7163C21.5049 19.482 20.2279 19.3027 18.9345 19.1822C17.6401 19.0617 16.3282 19 15 19C13.6718 19 12.3589 19.0617 11.0655 19.1822C9.77111 19.3027 8.49515 19.482 7.24173 19.7163C5.98832 19.9507 4.7554 20.2419 3.54708 20.5844C2.33875 20.9279 1.15605 21.3235 0 21.7685V21.8264V21.8843V21.9421V22C1.15503 21.5522 2.33773 21.1546 3.54605 20.8093C4.75335 20.4639 5.98627 20.1717 7.24071 19.9364C8.49515 19.7011 9.77111 19.5199 11.0655 19.3994C12.3599 19.278 13.6728 19.2163 15.002 19.2163C16.3303 19.2163 17.6431 19.278 18.9376 19.3994C20.232 19.5209 21.5079 19.7011 22.7624 19.9364C24.0168 20.1717 25.2487 20.4649 26.457 20.8093C27.6612 21.1546 28.845 21.5522 30 22Z" fill="#4D4D4D"/>
<path d="M9.57769 11V6.746H9.89569V11H9.57769ZM13.757 8C13.757 7.832 13.729 7.688 13.673 7.568C13.617 7.448 13.541 7.35 13.445 7.274C13.349 7.194 13.233 7.136 13.097 7.1C12.965 7.064 12.821 7.046 12.665 7.046H11.501V8.954H12.665C12.821 8.954 12.965 8.936 13.097 8.9C13.233 8.864 13.349 8.808 13.445 8.732C13.541 8.652 13.617 8.552 13.673 8.432C13.729 8.312 13.757 8.168 13.757 8ZM14.081 8C14.081 8.216 14.045 8.402 13.973 8.558C13.901 8.714 13.801 8.844 13.673 8.948C13.549 9.052 13.401 9.13 13.229 9.182C13.057 9.23 12.869 9.254 12.665 9.254H11.501V9.26V11H11.189V6.746H12.665C12.869 6.746 13.057 6.772 13.229 6.824C13.401 6.872 13.549 6.948 13.673 7.052C13.801 7.156 13.901 7.286 13.973 7.442C14.045 7.598 14.081 7.784 14.081 8ZM14.844 11V10.676L16.512 8.594C16.596 8.49 16.672 8.366 16.74 8.222C16.812 8.074 16.848 7.93 16.848 7.79C16.848 7.67 16.826 7.564 16.782 7.472C16.742 7.376 16.684 7.296 16.608 7.232C16.536 7.168 16.45 7.12 16.35 7.088C16.25 7.052 16.144 7.034 16.032 7.034C15.744 7.034 15.526 7.124 15.378 7.304C15.23 7.48 15.156 7.706 15.156 7.982H14.838C14.838 7.802 14.864 7.638 14.916 7.49C14.972 7.338 15.052 7.208 15.156 7.1C15.26 6.988 15.384 6.902 15.528 6.842C15.676 6.778 15.844 6.746 16.032 6.746C16.192 6.746 16.34 6.77 16.476 6.818C16.616 6.866 16.734 6.936 16.83 7.028C16.93 7.116 17.008 7.226 17.064 7.358C17.12 7.486 17.148 7.63 17.148 7.79C17.148 7.97 17.106 8.146 17.022 8.318C16.942 8.486 16.848 8.636 16.74 8.768L15.18 10.712H17.262V11H14.844ZM20.3962 8.912C20.3962 8.776 20.3922 8.632 20.3842 8.48C20.3802 8.328 20.3662 8.178 20.3422 8.03C20.3182 7.882 20.2802 7.742 20.2282 7.61C20.1762 7.478 20.1022 7.366 20.0062 7.274C19.9302 7.202 19.8402 7.144 19.7362 7.1C19.6362 7.056 19.5122 7.034 19.3642 7.034C19.2162 7.034 19.0902 7.056 18.9862 7.1C18.8862 7.144 18.7982 7.202 18.7222 7.274C18.6262 7.366 18.5522 7.478 18.5002 7.61C18.4482 7.742 18.4102 7.882 18.3862 8.03C18.3622 8.178 18.3462 8.328 18.3382 8.48C18.3342 8.632 18.3322 8.776 18.3322 8.912C18.3322 9.048 18.3342 9.192 18.3382 9.344C18.3462 9.496 18.3622 9.646 18.3862 9.794C18.4102 9.942 18.4482 10.082 18.5002 10.214C18.5522 10.346 18.6262 10.458 18.7222 10.55C18.7982 10.622 18.8862 10.68 18.9862 10.724C19.0902 10.768 19.2162 10.79 19.3642 10.79C19.5122 10.79 19.6362 10.768 19.7362 10.724C19.8402 10.68 19.9302 10.622 20.0062 10.55C20.1022 10.458 20.1762 10.346 20.2282 10.214C20.2802 10.082 20.3182 9.942 20.3422 9.794C20.3662 9.646 20.3802 9.496 20.3842 9.344C20.3922 9.192 20.3962 9.048 20.3962 8.912ZM20.7022 8.912C20.7022 9.076 20.6962 9.244 20.6842 9.416C20.6762 9.588 20.6542 9.756 20.6182 9.92C20.5822 10.08 20.5322 10.232 20.4682 10.376C20.4042 10.516 20.3182 10.638 20.2102 10.742C20.1142 10.834 19.9962 10.914 19.8562 10.982C19.7202 11.046 19.5562 11.078 19.3642 11.078C19.1722 11.078 19.0062 11.046 18.8662 10.982C18.7302 10.914 18.6142 10.834 18.5182 10.742C18.4102 10.638 18.3242 10.516 18.2602 10.376C18.1962 10.232 18.1462 10.08 18.1102 9.92C18.0742 9.756 18.0502 9.588 18.0382 9.416C18.0302 9.244 18.0262 9.076 18.0262 8.912C18.0262 8.748 18.0302 8.58 18.0382 8.408C18.0502 8.236 18.0742 8.07 18.1102 7.91C18.1462 7.746 18.1962 7.594 18.2602 7.454C18.3242 7.31 18.4102 7.186 18.5182 7.082C18.6142 6.99 18.7302 6.912 18.8662 6.848C19.0062 6.78 19.1722 6.746 19.3642 6.746C19.5562 6.746 19.7202 6.78 19.8562 6.848C19.9962 6.912 20.1142 6.99 20.2102 7.082C20.3182 7.186 20.4042 7.31 20.4682 7.454C20.5322 7.594 20.5822 7.746 20.6182 7.91C20.6542 8.07 20.6762 8.236 20.6842 8.408C20.6962 8.58 20.7022 8.748 20.7022 8.912Z" fill="#4D4D4D"/>
</svg>
