<svg width="30" height="30" viewBox="0 0 30 30" fill="none" xmlns="http://www.w3.org/2000/svg">
<rect width="30" height="30" fill="white"/>
<path d="M30 30H22.5H15H7.5H0V22.5003V15.0005V7.49975V0H7.5H15H22.5H30V7.49975V14.9995V22.4992V30ZM0.252287 29.7477H7.62614H15H22.3739H29.7477V22.3741V15.0005V7.62589V0.252279H22.3739H15H7.62614H0.252287V7.62589V14.9995V22.3731V29.7477Z" fill="#4D4D4D"/>
<path d="M30 22V21.9421V21.8843V21.8264V21.7685C28.8439 21.3235 27.6602 20.9279 26.4529 20.5844C25.2446 20.241 24.0117 19.9507 22.7583 19.7163C21.5049 19.482 20.2279 19.3027 18.9345 19.1822C17.6401 19.0617 16.3282 19 15 19C13.6718 19 12.3589 19.0617 11.0655 19.1822C9.77111 19.3027 8.49515 19.482 7.24173 19.7163C5.98832 19.9507 4.7554 20.2419 3.54708 20.5844C2.33875 20.9279 1.15605 21.3235 0 21.7685V21.8264V21.8843V21.9421V22C1.15503 21.5522 2.33773 21.1546 3.54605 20.8093C4.75335 20.4639 5.98627 20.1717 7.24071 19.9364C8.49515 19.7011 9.77111 19.5199 11.0655 19.3994C12.3599 19.278 13.6728 19.2163 15.002 19.2163C16.3303 19.2163 17.6431 19.278 18.9376 19.3994C20.232 19.5209 21.5079 19.7011 22.7624 19.9364C24.0168 20.1717 25.2487 20.4649 26.457 20.8093C27.6612 21.1546 28.845 21.5522 30 22Z" fill="#4D4D4D"/>
<path d="M9.57769 11V6.746H9.89569V11H9.57769ZM13.757 8C13.757 7.832 13.729 7.688 13.673 7.568C13.617 7.448 13.541 7.35 13.445 7.274C13.349 7.194 13.233 7.136 13.097 7.1C12.965 7.064 12.821 7.046 12.665 7.046H11.501V8.954H12.665C12.821 8.954 12.965 8.936 13.097 8.9C13.233 8.864 13.349 8.808 13.445 8.732C13.541 8.652 13.617 8.552 13.673 8.432C13.729 8.312 13.757 8.168 13.757 8ZM14.081 8C14.081 8.216 14.045 8.402 13.973 8.558C13.901 8.714 13.801 8.844 13.673 8.948C13.549 9.052 13.401 9.13 13.229 9.182C13.057 9.23 12.869 9.254 12.665 9.254H11.501V9.26V11H11.189V6.746H12.665C12.869 6.746 13.057 6.772 13.229 6.824C13.401 6.872 13.549 6.948 13.673 7.052C13.801 7.156 13.901 7.286 13.973 7.442C14.045 7.598 14.081 7.784 14.081 8ZM17.298 9.692C17.298 9.888 17.272 10.07 17.22 10.238C17.168 10.406 17.088 10.554 16.98 10.682C16.876 10.806 16.742 10.904 16.578 10.976C16.418 11.048 16.23 11.084 16.014 11.084C15.818 11.084 15.64 11.052 15.48 10.988C15.324 10.92 15.188 10.828 15.072 10.712C14.96 10.596 14.872 10.46 14.808 10.304C14.748 10.148 14.716 9.978 14.712 9.794H15.018C15.022 9.942 15.048 10.078 15.096 10.202C15.148 10.326 15.216 10.432 15.3 10.52C15.384 10.608 15.486 10.676 15.606 10.724C15.726 10.772 15.862 10.796 16.014 10.796C16.342 10.796 16.586 10.694 16.746 10.49C16.91 10.286 16.992 10.02 16.992 9.692C16.992 9.54 16.974 9.398 16.938 9.266C16.902 9.13 16.846 9.012 16.77 8.912C16.694 8.812 16.596 8.734 16.476 8.678C16.36 8.618 16.222 8.588 16.062 8.588C15.882 8.588 15.712 8.626 15.552 8.702C15.392 8.774 15.264 8.888 15.168 9.044H14.796L14.892 6.83H17.16V7.112H15.18L15.096 8.768C15.2 8.6 15.34 8.482 15.516 8.414C15.692 8.342 15.874 8.306 16.062 8.306C16.27 8.306 16.45 8.342 16.602 8.414C16.758 8.482 16.886 8.578 16.986 8.702C17.09 8.826 17.168 8.974 17.22 9.146C17.272 9.314 17.298 9.496 17.298 9.692ZM20.2582 10.046V11H19.9522V10.046H17.9842V9.716L19.6822 6.83H20.0242L18.3082 9.746H19.9522V8.456H20.2582V9.746H20.8402V10.046H20.2582Z" fill="#4D4D4D"/>
</svg>
