<svg width="30" height="30" viewBox="0 0 30 30" fill="none" xmlns="http://www.w3.org/2000/svg">
<rect width="30" height="30" fill="white"/>
<path d="M30 30H22.5H15H7.5H0V22.5003V15.0005V7.49975V0H7.5H15H22.5H30V7.49975V14.9995V22.4992V30ZM0.252287 29.7477H7.62614H15H22.3739H29.7477V22.3741V15.0005V7.62589V0.252279H22.3739H15H7.62614H0.252287V7.62589V14.9995V22.3731V29.7477Z" fill="#4D4D4D"/>
<path d="M30 22V21.9421V21.8843V21.8264V21.7685C28.8439 21.3235 27.6602 20.9279 26.4529 20.5844C25.2446 20.241 24.0117 19.9507 22.7583 19.7163C21.5049 19.482 20.2279 19.3027 18.9345 19.1822C17.6401 19.0617 16.3282 19 15 19C13.6718 19 12.3589 19.0617 11.0655 19.1822C9.77111 19.3027 8.49515 19.482 7.24173 19.7163C5.98832 19.9507 4.7554 20.2419 3.54708 20.5844C2.33875 20.9279 1.15605 21.3235 0 21.7685V21.8264V21.8843V21.9421V22C1.15503 21.5522 2.33773 21.1546 3.54605 20.8093C4.75335 20.4639 5.98627 20.1717 7.24071 19.9364C8.49515 19.7011 9.77111 19.5199 11.0655 19.3994C12.3599 19.278 13.6728 19.2163 15.002 19.2163C16.3303 19.2163 17.6431 19.278 18.9376 19.3994C20.232 19.5209 21.5079 19.7011 22.7624 19.9364C24.0168 20.1717 25.2487 20.4649 26.457 20.8093C27.6612 21.1546 28.845 21.5522 30 22Z" fill="#4D4D4D"/>
<path d="M9.50152 11V6.746H9.81952V11H9.50152ZM13.6808 8C13.6808 7.832 13.6528 7.688 13.5968 7.568C13.5408 7.448 13.4648 7.35 13.3688 7.274C13.2728 7.194 13.1568 7.136 13.0208 7.1C12.8888 7.064 12.7448 7.046 12.5888 7.046H11.4248V8.954H12.5888C12.7448 8.954 12.8888 8.936 13.0208 8.9C13.1568 8.864 13.2728 8.808 13.3688 8.732C13.4648 8.652 13.5408 8.552 13.5968 8.432C13.6528 8.312 13.6808 8.168 13.6808 8ZM14.0048 8C14.0048 8.216 13.9688 8.402 13.8968 8.558C13.8248 8.714 13.7248 8.844 13.5968 8.948C13.4728 9.052 13.3248 9.13 13.1528 9.182C12.9808 9.23 12.7928 9.254 12.5888 9.254H11.4248V9.26V11H11.1128V6.746H12.5888C12.7928 6.746 12.9808 6.772 13.1528 6.824C13.3248 6.872 13.4728 6.948 13.5968 7.052C13.7248 7.156 13.8248 7.286 13.8968 7.442C13.9688 7.598 14.0048 7.784 14.0048 8ZM17.0862 9.68C17.0862 9.536 17.0662 9.398 17.0262 9.266C16.9902 9.13 16.9322 9.012 16.8522 8.912C16.7722 8.808 16.6702 8.726 16.5462 8.666C16.4222 8.602 16.2742 8.57 16.1022 8.57C15.9662 8.57 15.8462 8.594 15.7422 8.642C15.6382 8.686 15.5462 8.746 15.4662 8.822C15.2542 9.026 15.1482 9.308 15.1482 9.668C15.1482 9.812 15.1682 9.952 15.2082 10.088C15.2482 10.22 15.3082 10.34 15.3882 10.448C15.4682 10.552 15.5682 10.636 15.6882 10.7C15.8082 10.76 15.9482 10.79 16.1082 10.79C16.2802 10.79 16.4262 10.76 16.5462 10.7C16.6702 10.636 16.7722 10.554 16.8522 10.454C16.9322 10.35 16.9902 10.232 17.0262 10.1C17.0662 9.964 17.0862 9.824 17.0862 9.68ZM17.3922 9.68C17.3922 9.872 17.3622 10.052 17.3022 10.22C17.2462 10.388 17.1622 10.536 17.0502 10.664C16.9422 10.792 16.8082 10.894 16.6482 10.97C16.4882 11.042 16.3062 11.078 16.1022 11.078C15.8702 11.078 15.6702 11.026 15.5022 10.922C15.3382 10.818 15.2102 10.7 15.1182 10.568C15.0422 10.46 14.9802 10.342 14.9322 10.214C14.8842 10.082 14.8462 9.944 14.8182 9.8C14.7942 9.656 14.7762 9.508 14.7642 9.356C14.7562 9.204 14.7522 9.054 14.7522 8.906C14.7522 8.746 14.7562 8.584 14.7642 8.42C14.7762 8.256 14.7982 8.098 14.8302 7.946C14.8662 7.79 14.9142 7.644 14.9742 7.508C15.0342 7.372 15.1122 7.25 15.2082 7.142C15.3042 7.038 15.4242 6.946 15.5682 6.866C15.7122 6.786 15.8882 6.746 16.0962 6.746C16.2642 6.746 16.4182 6.772 16.5582 6.824C16.7022 6.876 16.8262 6.95 16.9302 7.046C17.0342 7.138 17.1182 7.252 17.1822 7.388C17.2462 7.52 17.2822 7.668 17.2902 7.832H16.9782C16.9622 7.592 16.8762 7.4 16.7202 7.256C16.5682 7.108 16.3602 7.034 16.0962 7.034C15.9442 7.034 15.8142 7.062 15.7062 7.118C15.5982 7.17 15.5082 7.236 15.4362 7.316C15.3482 7.412 15.2782 7.528 15.2262 7.664C15.1782 7.796 15.1422 7.936 15.1182 8.084C15.0942 8.232 15.0782 8.382 15.0702 8.534C15.0662 8.686 15.0642 8.824 15.0642 8.948C15.1482 8.756 15.2822 8.6 15.4662 8.48C15.6502 8.356 15.8602 8.294 16.0962 8.294C16.3002 8.294 16.4822 8.328 16.6422 8.396C16.8062 8.464 16.9422 8.56 17.0502 8.684C17.1622 8.804 17.2462 8.95 17.3022 9.122C17.3622 9.29 17.3922 9.476 17.3922 9.68ZM20.7843 9.692C20.7843 9.888 20.7583 10.07 20.7063 10.238C20.6543 10.406 20.5743 10.554 20.4663 10.682C20.3623 10.806 20.2283 10.904 20.0643 10.976C19.9043 11.048 19.7163 11.084 19.5003 11.084C19.3043 11.084 19.1263 11.052 18.9663 10.988C18.8103 10.92 18.6743 10.828 18.5583 10.712C18.4463 10.596 18.3583 10.46 18.2943 10.304C18.2343 10.148 18.2023 9.978 18.1983 9.794H18.5043C18.5083 9.942 18.5343 10.078 18.5823 10.202C18.6343 10.326 18.7023 10.432 18.7863 10.52C18.8703 10.608 18.9723 10.676 19.0923 10.724C19.2123 10.772 19.3483 10.796 19.5003 10.796C19.8283 10.796 20.0723 10.694 20.2323 10.49C20.3963 10.286 20.4783 10.02 20.4783 9.692C20.4783 9.54 20.4603 9.398 20.4243 9.266C20.3883 9.13 20.3323 9.012 20.2563 8.912C20.1803 8.812 20.0823 8.734 19.9623 8.678C19.8463 8.618 19.7083 8.588 19.5483 8.588C19.3683 8.588 19.1983 8.626 19.0383 8.702C18.8783 8.774 18.7503 8.888 18.6543 9.044H18.2823L18.3783 6.83H20.6463V7.112H18.6663L18.5823 8.768C18.6863 8.6 18.8263 8.482 19.0023 8.414C19.1783 8.342 19.3603 8.306 19.5483 8.306C19.7563 8.306 19.9363 8.342 20.0883 8.414C20.2443 8.482 20.3723 8.578 20.4723 8.702C20.5763 8.826 20.6543 8.974 20.7063 9.146C20.7583 9.314 20.7843 9.496 20.7843 9.692Z" fill="#4D4D4D"/>
</svg>
