<svg width="30" height="30" viewBox="0 0 30 30" fill="none" xmlns="http://www.w3.org/2000/svg">
<rect width="30" height="30" fill="white"/>
<path d="M30 30H22.5H15H7.5H0V22.5003V15.0005V7.49975V0H7.5H15H22.5H30V7.49975V14.9995V22.4992V30ZM0.252287 29.7477H7.62614H15H22.3739H29.7477V22.3741V15.0005V7.62589V0.252279H22.3739H15H7.62614H0.252287V7.62589V14.9995V22.3731V29.7477Z" fill="#4D4D4D"/>
<path d="M30 22V21.9421V21.8843V21.8264V21.7685C28.8439 21.3235 27.6602 20.9279 26.4529 20.5844C25.2446 20.241 24.0117 19.9507 22.7583 19.7163C21.5049 19.482 20.2279 19.3027 18.9345 19.1822C17.6401 19.0617 16.3282 19 15 19C13.6718 19 12.3589 19.0617 11.0655 19.1822C9.77111 19.3027 8.49515 19.482 7.24173 19.7163C5.98832 19.9507 4.7554 20.2419 3.54708 20.5844C2.33875 20.9279 1.15605 21.3235 0 21.7685V21.8264V21.8843V21.9421V22C1.15503 21.5522 2.33773 21.1546 3.54605 20.8093C4.75335 20.4639 5.98627 20.1717 7.24071 19.9364C8.49515 19.7011 9.77111 19.5199 11.0655 19.3994C12.3599 19.278 13.6728 19.2163 15.002 19.2163C16.3303 19.2163 17.6431 19.278 18.9376 19.3994C20.232 19.5209 21.5079 19.7011 22.7624 19.9364C24.0168 20.1717 25.2487 20.4649 26.457 20.8093C27.6612 21.1546 28.845 21.5522 30 22Z" fill="#4D4D4D"/>
<path d="M7.45952 11V6.746H7.77752V11H7.45952ZM11.6389 8C11.6389 7.832 11.6109 7.688 11.5549 7.568C11.4989 7.448 11.4229 7.35 11.3269 7.274C11.2309 7.194 11.1149 7.136 10.9789 7.1C10.8469 7.064 10.7029 7.046 10.5469 7.046H9.38285V8.954H10.5469C10.7029 8.954 10.8469 8.936 10.9789 8.9C11.1149 8.864 11.2309 8.808 11.3269 8.732C11.4229 8.652 11.4989 8.552 11.5549 8.432C11.6109 8.312 11.6389 8.168 11.6389 8ZM11.9629 8C11.9629 8.216 11.9269 8.402 11.8549 8.558C11.7829 8.714 11.6829 8.844 11.5549 8.948C11.4309 9.052 11.2829 9.13 11.1109 9.182C10.9389 9.23 10.7509 9.254 10.5469 9.254H9.38285V9.26V11H9.07085V6.746H10.5469C10.7509 6.746 10.9389 6.772 11.1109 6.824C11.2829 6.872 11.4309 6.948 11.5549 7.052C11.6829 7.156 11.7829 7.286 11.8549 7.442C11.9269 7.598 11.9629 7.784 11.9629 8ZM15.0442 9.68C15.0442 9.536 15.0242 9.398 14.9842 9.266C14.9482 9.13 14.8902 9.012 14.8102 8.912C14.7302 8.808 14.6282 8.726 14.5042 8.666C14.3802 8.602 14.2322 8.57 14.0602 8.57C13.9242 8.57 13.8042 8.594 13.7002 8.642C13.5962 8.686 13.5042 8.746 13.4242 8.822C13.2122 9.026 13.1062 9.308 13.1062 9.668C13.1062 9.812 13.1262 9.952 13.1662 10.088C13.2062 10.22 13.2662 10.34 13.3462 10.448C13.4262 10.552 13.5262 10.636 13.6462 10.7C13.7662 10.76 13.9062 10.79 14.0662 10.79C14.2382 10.79 14.3842 10.76 14.5042 10.7C14.6282 10.636 14.7302 10.554 14.8102 10.454C14.8902 10.35 14.9482 10.232 14.9842 10.1C15.0242 9.964 15.0442 9.824 15.0442 9.68ZM15.3502 9.68C15.3502 9.872 15.3202 10.052 15.2602 10.22C15.2042 10.388 15.1202 10.536 15.0082 10.664C14.9002 10.792 14.7662 10.894 14.6062 10.97C14.4462 11.042 14.2642 11.078 14.0602 11.078C13.8282 11.078 13.6282 11.026 13.4602 10.922C13.2962 10.818 13.1682 10.7 13.0762 10.568C13.0002 10.46 12.9382 10.342 12.8902 10.214C12.8422 10.082 12.8042 9.944 12.7762 9.8C12.7522 9.656 12.7342 9.508 12.7222 9.356C12.7142 9.204 12.7102 9.054 12.7102 8.906C12.7102 8.746 12.7142 8.584 12.7222 8.42C12.7342 8.256 12.7562 8.098 12.7882 7.946C12.8242 7.79 12.8722 7.644 12.9322 7.508C12.9922 7.372 13.0702 7.25 13.1662 7.142C13.2622 7.038 13.3822 6.946 13.5262 6.866C13.6702 6.786 13.8462 6.746 14.0542 6.746C14.2222 6.746 14.3762 6.772 14.5162 6.824C14.6602 6.876 14.7842 6.95 14.8882 7.046C14.9922 7.138 15.0762 7.252 15.1402 7.388C15.2042 7.52 15.2402 7.668 15.2482 7.832H14.9362C14.9202 7.592 14.8342 7.4 14.6782 7.256C14.5262 7.108 14.3182 7.034 14.0542 7.034C13.9022 7.034 13.7722 7.062 13.6642 7.118C13.5562 7.17 13.4662 7.236 13.3942 7.316C13.3062 7.412 13.2362 7.528 13.1842 7.664C13.1362 7.796 13.1002 7.936 13.0762 8.084C13.0522 8.232 13.0362 8.382 13.0282 8.534C13.0242 8.686 13.0222 8.824 13.0222 8.948C13.1062 8.756 13.2402 8.6 13.4242 8.48C13.6082 8.356 13.8182 8.294 14.0542 8.294C14.2582 8.294 14.4402 8.328 14.6002 8.396C14.7642 8.464 14.9002 8.56 15.0082 8.684C15.1202 8.804 15.2042 8.95 15.2602 9.122C15.3202 9.29 15.3502 9.476 15.3502 9.68ZM18.2863 8.156C18.2863 8.012 18.2663 7.874 18.2263 7.742C18.1863 7.606 18.1263 7.486 18.0463 7.382C17.9663 7.274 17.8663 7.19 17.7463 7.13C17.6263 7.066 17.4863 7.034 17.3263 7.034C17.1543 7.034 17.0063 7.066 16.8823 7.13C16.7623 7.19 16.6623 7.272 16.5823 7.376C16.5023 7.476 16.4423 7.594 16.4023 7.73C16.3663 7.862 16.3483 8 16.3483 8.144C16.3483 8.288 16.3663 8.428 16.4023 8.564C16.4423 8.696 16.5023 8.814 16.5823 8.918C16.6623 9.018 16.7643 9.1 16.8883 9.164C17.0123 9.224 17.1603 9.254 17.3323 9.254C17.4683 9.254 17.5883 9.232 17.6923 9.188C17.7963 9.14 17.8883 9.078 17.9683 9.002C18.1803 8.798 18.2863 8.516 18.2863 8.156ZM18.6703 8.918C18.6703 9.078 18.6663 9.242 18.6583 9.41C18.6503 9.574 18.6323 9.734 18.6043 9.89C18.5763 10.046 18.5343 10.194 18.4783 10.334C18.4223 10.474 18.3463 10.598 18.2503 10.706C18.1543 10.81 18.0343 10.898 17.8903 10.97C17.7463 11.042 17.5703 11.078 17.3623 11.078C17.1943 11.078 17.0383 11.052 16.8943 11C16.7543 10.948 16.6303 10.876 16.5223 10.784C16.4143 10.688 16.3283 10.574 16.2643 10.442C16.2003 10.306 16.1643 10.156 16.1563 9.992H16.4683C16.4843 10.232 16.5703 10.426 16.7263 10.574C16.8863 10.718 17.0983 10.79 17.3623 10.79C17.5143 10.79 17.6443 10.768 17.7523 10.724C17.8603 10.676 17.9503 10.612 18.0223 10.532C18.1103 10.436 18.1763 10.32 18.2203 10.184C18.2683 10.048 18.3023 9.904 18.3223 9.752C18.3423 9.6 18.3523 9.448 18.3523 9.296C18.3563 9.144 18.3583 9.004 18.3583 8.876C18.2743 9.068 18.1423 9.226 17.9623 9.35C17.7823 9.47 17.5743 9.53 17.3383 9.53C17.1343 9.53 16.9503 9.496 16.7863 9.428C16.6263 9.36 16.4903 9.266 16.3783 9.146C16.2703 9.022 16.1863 8.876 16.1263 8.708C16.0703 8.536 16.0423 8.348 16.0423 8.144C16.0423 7.952 16.0703 7.772 16.1263 7.604C16.1863 7.436 16.2703 7.288 16.3783 7.16C16.4903 7.032 16.6263 6.932 16.7863 6.86C16.9463 6.784 17.1283 6.746 17.3323 6.746C17.5643 6.746 17.7643 6.798 17.9323 6.902C18.1043 7.002 18.2363 7.118 18.3283 7.25C18.4043 7.358 18.4643 7.478 18.5083 7.61C18.5563 7.738 18.5923 7.876 18.6163 8.024C18.6403 8.168 18.6543 8.316 18.6583 8.468C18.6663 8.62 18.6703 8.77 18.6703 8.918ZM22.7368 11L21.3268 8.57L20.2228 9.818V11H19.9048V6.746H20.2228V9.368L22.5628 6.746H22.9468L21.5368 8.336L23.0908 11H22.7368Z" fill="#4D4D4D"/>
</svg>
