<svg width="30" height="30" viewBox="0 0 30 30" fill="none" xmlns="http://www.w3.org/2000/svg">
<rect width="30" height="30" fill="white"/>
<path d="M30 30H22.5H15H7.5H0V22.5003V15.0005V7.49975V0H7.5H15H22.5H30V7.49975V14.9995V22.4992V30ZM0.252287 29.7477H7.62614H15H22.3739H29.7477V22.3741V15.0005V7.62589V0.252279H22.3739H15H7.62614H0.252287V7.62589V14.9995V22.3731V29.7477Z" fill="#4D4D4D"/>
<path d="M19.8337 15.6578C19.8195 15.6578 19.8062 15.6594 19.7953 15.6619C19.7845 15.6644 19.7745 15.6678 19.767 15.6728C19.7595 15.6778 19.7519 15.6828 19.7469 15.6895C19.7411 15.6961 19.7369 15.7028 19.7336 15.7112C19.7311 15.7162 19.676 15.843 19.5551 16.0298C19.4341 16.2167 19.2481 16.4644 18.9845 16.7114C18.7209 16.9583 18.3797 17.2052 17.9484 17.3896C17.5171 17.5739 16.9966 17.6974 16.3743 17.6974C15.8729 17.6974 15.4024 17.6565 14.9628 17.5889C14.5232 17.5205 14.1128 17.4246 13.7315 17.3145C13.3503 17.2044 12.9974 17.0784 12.6713 16.9508C12.3451 16.8231 12.0456 16.6938 11.772 16.5754C11.6961 16.5428 11.6235 16.5112 11.5526 16.4811C11.4817 16.4511 11.4141 16.4219 11.3482 16.3944C11.2823 16.3668 11.2189 16.341 11.1572 16.3176C11.0955 16.2943 11.0362 16.2717 10.9787 16.2517C10.7985 16.1883 10.615 16.1249 10.4364 16.0615C10.2579 15.9981 10.0819 15.9372 9.91674 15.8788C9.75157 15.8204 9.59641 15.7662 9.45793 15.7178C9.31945 15.6694 9.19683 15.6261 9.09756 15.591L9.06753 15.5802L9.03749 15.5693L9.00746 15.5585L8.97743 15.5477L8.95074 15.5385L8.92404 15.5293L8.89651 15.521L8.86982 15.5109L8.86899 15.4826L8.86815 15.4542L8.86732 15.4259L8.86648 15.3975C8.86398 15.3141 8.86648 15.2123 8.87983 15.0963C8.89318 14.9804 8.9182 14.8511 8.96158 14.7151C9.00496 14.5791 9.06502 14.4348 9.15011 14.2888C9.2352 14.1429 9.34448 13.9969 9.48546 13.8542C9.65981 13.6774 9.86752 13.523 10.1069 13.3896C10.3464 13.2561 10.6191 13.146 10.9228 13.0567C11.2264 12.9675 11.5626 12.9007 11.9297 12.8565C12.2967 12.8123 12.6955 12.7898 13.1251 12.7898C13.3436 12.7898 13.5714 12.7956 13.8066 12.8081C14.0419 12.8207 14.2854 12.8382 14.5357 12.8615C14.786 12.8849 15.0446 12.9149 15.3107 12.9508C15.5768 12.9867 15.8487 13.0275 16.1282 13.0751H16.129H16.1299H16.1307H16.1315C16.1474 13.0751 16.1607 13.0726 16.1732 13.0692C16.1857 13.0651 16.1966 13.0601 16.2058 13.0526C16.2149 13.0451 16.2225 13.0367 16.2283 13.0275C16.2341 13.0175 16.2375 13.0075 16.24 12.9958C16.2408 12.9892 16.2416 12.9833 16.2416 12.9766C16.2416 12.97 16.2408 12.9641 16.2391 12.9583C16.2375 12.9525 16.2358 12.9458 16.2333 12.9399C16.2308 12.9341 16.2275 12.9283 16.2241 12.9233C16.2208 12.9183 16.2158 12.9132 16.2116 12.9091C16.2066 12.9049 16.2024 12.9007 16.1966 12.8974C16.1908 12.8941 16.1857 12.8916 16.1799 12.8891C16.1741 12.8866 16.1682 12.8849 16.1616 12.8841C15.8779 12.8357 15.6001 12.794 15.3307 12.7573C15.0612 12.7205 14.7985 12.6905 14.5432 12.6663C14.2879 12.6421 14.041 12.6238 13.8024 12.6121C13.5639 12.6004 13.3328 12.5938 13.1101 12.5938C12.6704 12.5938 12.2608 12.6171 11.8838 12.6647C11.5067 12.7122 11.1597 12.7823 10.846 12.8765C10.5324 12.9708 10.2479 13.0859 9.99766 13.2261C9.7474 13.3662 9.53051 13.5306 9.34615 13.7166C9.13676 13.9285 8.99078 14.1495 8.88984 14.3631C8.7889 14.5766 8.73218 14.781 8.70131 14.9612C8.67045 15.1414 8.66711 15.2957 8.67128 15.4083C8.67545 15.521 8.68796 15.591 8.68963 15.601C8.6913 15.6094 8.6938 15.6177 8.69797 15.6252C8.70215 15.6327 8.70632 15.6402 8.71216 15.6461C8.718 15.6519 8.72384 15.6586 8.73134 15.6628C8.73885 15.6669 8.74636 15.6719 8.75387 15.6744C8.75387 15.6744 8.82394 15.6995 8.94573 15.742C9.06753 15.7846 9.2402 15.8455 9.44542 15.918C9.65063 15.9906 9.88838 16.074 10.1395 16.1616C10.3906 16.2492 10.6558 16.3426 10.9153 16.4336C10.9703 16.4528 11.0271 16.4736 11.0863 16.497C11.1455 16.5203 11.2072 16.5445 11.2706 16.5712C11.334 16.5979 11.4008 16.6254 11.4692 16.6546C11.5376 16.6838 11.6085 16.7147 11.6819 16.7464C11.948 16.8615 12.2467 16.99 12.5762 17.1193C12.9057 17.2486 13.2677 17.377 13.6606 17.4913C14.0535 17.6056 14.4756 17.7057 14.9286 17.7766C15.3816 17.8484 15.8637 17.8909 16.3751 17.8909C17.0325 17.8909 17.5805 17.765 18.0327 17.5739C18.4848 17.3829 18.841 17.1285 19.1171 16.8707C19.3932 16.6129 19.5868 16.3527 19.7152 16.1508C19.8429 15.9497 19.9038 15.8071 19.913 15.7854C19.9155 15.7796 19.9171 15.7729 19.9188 15.767C19.9205 15.7612 19.9205 15.7545 19.9205 15.7479C19.9205 15.7412 19.9196 15.7353 19.9188 15.7287C19.918 15.722 19.9155 15.7162 19.913 15.7103C19.9104 15.7045 19.9071 15.6986 19.9038 15.6936C19.9004 15.6886 19.8963 15.6836 19.8921 15.6786C19.8879 15.6736 19.8829 15.6703 19.8779 15.6669C19.8729 15.6636 19.8671 15.6603 19.8612 15.6578C19.8587 15.6578 19.8562 15.6569 19.8537 15.6569C19.8512 15.6569 19.8487 15.6569 19.847 15.6561C19.8454 15.6553 19.8429 15.6561 19.8404 15.6561C19.8379 15.6586 19.8354 15.6578 19.8337 15.6578Z" fill="#4D4D4D"/>
<path d="M24.5678 8.054C24.5669 8.05317 24.5586 8.03732 24.5419 8.00979C24.5252 7.98226 24.501 7.94306 24.4685 7.89717C24.436 7.85129 24.3967 7.79707 24.35 7.73868C24.3033 7.68028 24.2491 7.61939 24.1874 7.55766L24.1665 7.53597L24.1448 7.51428L24.1231 7.49259L24.1014 7.4709L24.1156 7.4442L24.1298 7.41751L24.144 7.39082L24.1582 7.36412C24.189 7.30406 24.2249 7.23315 24.2599 7.15807C24.295 7.083 24.3308 7.00291 24.36 6.92617C24.3892 6.84942 24.4143 6.77601 24.4284 6.71178C24.4426 6.64838 24.446 6.59499 24.4335 6.55828C24.4301 6.54911 24.4268 6.53993 24.4218 6.53159C24.4176 6.52325 24.4118 6.51574 24.4059 6.50907C24.4001 6.50239 24.3934 6.49572 24.3859 6.49071C24.3784 6.48571 24.3709 6.4807 24.3625 6.47653C24.3584 6.47403 24.3534 6.47236 24.3492 6.47069C24.345 6.46903 24.34 6.46652 24.3359 6.46485C24.3317 6.46319 24.3267 6.46152 24.3225 6.45985C24.3183 6.45818 24.3133 6.45651 24.3092 6.45484L24.275 6.44316L24.2408 6.43149L24.2065 6.41981L24.1723 6.40813L24.179 6.37309L24.1857 6.33806L24.1924 6.30302L24.199 6.26798C24.2099 6.20875 24.2166 6.1537 24.2199 6.10281C24.2232 6.05193 24.2224 6.00521 24.2191 5.96433C24.2157 5.92346 24.2074 5.88842 24.1965 5.86006C24.1857 5.8317 24.1715 5.81001 24.154 5.79583C24.1482 5.79166 24.1423 5.78748 24.1365 5.78415C24.1306 5.78081 24.124 5.77747 24.1173 5.77581C24.1106 5.77414 24.1039 5.77163 24.0973 5.7708C24.0906 5.76997 24.0839 5.76913 24.0764 5.76913C24.0706 5.76913 24.0647 5.76997 24.0581 5.7708C24.0514 5.77163 24.0464 5.7733 24.0397 5.77497C24.033 5.77664 24.028 5.77914 24.0214 5.78164C24.0147 5.78415 24.0097 5.78748 24.0038 5.79082C23.9988 5.79416 23.9938 5.79666 23.9888 5.8C23.9838 5.80333 23.9788 5.80667 23.9738 5.81001C23.9688 5.81334 23.9638 5.81752 23.9588 5.82085C23.9538 5.82502 23.9488 5.82836 23.9438 5.83253L23.8679 5.89343L23.792 5.95432L23.716 6.01522L23.6401 6.07612L23.6485 5.97935L23.6568 5.88258L23.6652 5.78582L23.6735 5.68905C23.6785 5.63149 23.6818 5.58144 23.6835 5.53973C23.6852 5.49718 23.6852 5.46131 23.6818 5.43128C23.6785 5.40125 23.6735 5.37622 23.6643 5.35537C23.6551 5.33451 23.6426 5.31783 23.6259 5.30281C23.6201 5.29781 23.6134 5.2928 23.6068 5.28863C23.6001 5.28446 23.5926 5.28113 23.5851 5.27862C23.5776 5.27612 23.5701 5.27195 23.5617 5.27028C23.5542 5.26861 23.5459 5.26861 23.5375 5.26861C23.51 5.27362 23.4841 5.28113 23.4599 5.2903C23.4357 5.29948 23.4124 5.31032 23.3899 5.32284C23.3673 5.33535 23.3457 5.34953 23.3248 5.36371C23.3039 5.37789 23.2823 5.39458 23.2597 5.41126L23.213 5.4463L23.1663 5.48133L23.1196 5.51637L23.0729 5.55141L23.0545 5.49635L23.0362 5.44129L23.0178 5.38623L22.9995 5.33118C22.9895 5.29948 22.9803 5.27028 22.9711 5.24275C22.9619 5.21522 22.9527 5.1902 22.9436 5.16684C22.9344 5.14348 22.9252 5.12263 22.9152 5.10427C22.9052 5.08592 22.8944 5.07007 22.8827 5.05589C22.8743 5.04672 22.866 5.03921 22.8568 5.0317C22.8476 5.02419 22.8376 5.01919 22.8268 5.01418C22.8159 5.00918 22.8051 5.00584 22.7934 5.00334C22.7817 5.00083 22.7701 5 22.7575 5C22.7542 5 22.75 5 22.7467 5C22.7434 5 22.7392 5.00083 22.7359 5.00083C22.7325 5.00083 22.7283 5.00167 22.725 5.0025C22.7217 5.00334 22.7175 5.00334 22.7133 5.00417C22.6883 5.00918 22.6608 5.01919 22.6332 5.03337C22.6049 5.04755 22.5765 5.06507 22.5482 5.08592C22.5198 5.10678 22.4931 5.13014 22.4681 5.15516C22.4431 5.18019 22.4205 5.20688 22.4022 5.23441L22.3738 5.27529L22.3454 5.317L22.3171 5.35787L22.2887 5.39875L22.2529 5.36371L22.2187 5.32867L22.1828 5.29364L22.1477 5.2586C22.1402 5.25109 22.1327 5.24525 22.1244 5.23942C22.116 5.23358 22.1077 5.2294 22.0985 5.22523C22.0894 5.22106 22.0802 5.21856 22.071 5.21689C22.0618 5.21522 22.0518 5.21439 22.0418 5.21439C21.9968 5.22106 21.9542 5.24108 21.9158 5.27028C21.8775 5.29948 21.8433 5.33785 21.8132 5.38123C21.7832 5.42461 21.7573 5.47132 21.7373 5.51887C21.7173 5.56642 21.7023 5.61314 21.6931 5.65485C21.6889 5.6757 21.6848 5.69822 21.6823 5.71991C21.6798 5.7416 21.6781 5.76496 21.6764 5.78832C21.6748 5.81168 21.6756 5.83587 21.6764 5.86006C21.6773 5.88425 21.6789 5.90928 21.6814 5.93514L21.6848 5.97017L21.6881 6.00521L21.6914 6.04025L21.6948 6.07528L21.6606 6.08446L21.6264 6.09364L21.593 6.10365L21.5588 6.11282C21.4445 6.14369 21.3261 6.18373 21.2059 6.23211C21.085 6.2805 20.9615 6.33722 20.8355 6.40229C20.7096 6.46736 20.5803 6.54077 20.4493 6.62252C20.3183 6.70427 20.184 6.79436 20.0481 6.8928C19.867 7.02377 19.681 7.15974 19.4992 7.29738C19.3173 7.43503 19.138 7.57517 18.9694 7.71365C18.8009 7.85213 18.6433 7.9906 18.504 8.12408C18.3647 8.25755 18.2437 8.38852 18.1478 8.51198C18.1227 8.54451 18.0969 8.57871 18.0702 8.61375C18.0435 8.64879 18.0168 8.68549 17.9901 8.7222C17.9634 8.7589 17.935 8.79811 17.9067 8.83732C17.8783 8.87652 17.8491 8.91657 17.8199 8.95744C17.7348 9.0759 17.6447 9.20019 17.5505 9.32699C17.4562 9.45379 17.3586 9.58226 17.2568 9.70905C17.1551 9.83585 17.05 9.96098 16.9423 10.0794C16.8347 10.1979 16.7229 10.3105 16.6087 10.4123C16.4493 10.5541 16.2641 10.7009 16.0573 10.8402C15.8504 10.9804 15.6235 11.1147 15.3824 11.2323C15.1413 11.3499 14.8852 11.4534 14.6216 11.5301C14.358 11.6069 14.0869 11.6586 13.8141 11.6744C13.7766 11.6769 13.739 11.6786 13.7006 11.6803C13.6623 11.6819 13.6239 11.6836 13.5847 11.6844C13.5455 11.6853 13.5063 11.6861 13.4662 11.6869C13.4262 11.6878 13.3862 11.6878 13.3453 11.6878C13.1134 11.6878 12.8631 11.6778 12.6078 11.6569C12.3526 11.6361 12.0923 11.6027 11.8404 11.556C11.5885 11.5093 11.3457 11.4492 11.1246 11.3733C10.9036 11.2974 10.7042 11.2064 10.5415 11.0972C10.4531 11.0413 10.3605 10.9737 10.2646 10.9003C10.1686 10.8269 10.0669 10.746 9.96427 10.6617C9.86166 10.5775 9.75572 10.4882 9.64894 10.3973C9.54216 10.3063 9.43622 10.2146 9.33027 10.1237C9.21349 10.0227 9.10003 9.92511 8.99242 9.83419C8.88481 9.74326 8.7822 9.6565 8.68544 9.57809C8.58867 9.49967 8.49858 9.43043 8.41599 9.37037C8.33341 9.31031 8.25749 9.26026 8.18992 9.22355L8.18158 9.21938L8.17324 9.21521L8.1649 9.21104L8.15656 9.20687L8.15238 9.19769L8.14655 9.19018L8.14154 9.18268L8.1357 9.17517C8.12402 9.15848 8.08815 9.10927 8.0406 9.04003C7.99305 8.97079 7.93299 8.88153 7.87293 8.78643C7.81287 8.69133 7.75197 8.58789 7.70192 8.49196C7.65187 8.39603 7.61182 8.30593 7.59431 8.23586C7.56928 8.13742 7.5209 8.03899 7.45166 7.94556C7.38242 7.85213 7.29149 7.76454 7.18471 7.68946C7.07794 7.61438 6.95197 7.55015 6.81433 7.50593C6.67669 7.46172 6.52486 7.43586 6.36386 7.43586C6.28711 7.43753 6.21788 7.4442 6.15531 7.45421C6.09275 7.46422 6.03519 7.48007 5.98513 7.49926C5.93508 7.51845 5.89004 7.54181 5.85083 7.57017C5.81162 7.59853 5.77742 7.63023 5.74906 7.6661C5.72403 7.6978 5.70318 7.732 5.68566 7.76954C5.66814 7.80708 5.65479 7.84712 5.64478 7.89133C5.63477 7.93555 5.62893 7.98143 5.62643 8.03231C5.62393 8.0832 5.62559 8.13576 5.6306 8.19248L5.63394 8.22752L5.63727 8.26255L5.64061 8.29759L5.64395 8.33263L5.61058 8.3418L5.57721 8.35098L5.54384 8.36015L5.51048 8.36933C5.47043 8.37767 5.4354 8.39019 5.40203 8.4052C5.36866 8.42022 5.3378 8.43607 5.30776 8.45525C5.27773 8.47444 5.25104 8.49613 5.22601 8.51949C5.20099 8.54284 5.1768 8.56954 5.15594 8.59707C5.09921 8.67215 5.0575 8.75974 5.03164 8.85984C5.00578 8.95994 4.99577 9.0734 5.00161 9.20019C5.00745 9.32699 5.02831 9.4663 5.06585 9.61896C5.10339 9.77162 5.15511 9.93929 5.22434 10.1203L5.23436 10.1453L5.24437 10.1704L5.25438 10.1954L5.26439 10.2204L5.24186 10.2404L5.22268 10.2596L5.20349 10.2788L5.1843 10.298C5.16679 10.3147 5.15094 10.3322 5.13675 10.3514C5.12257 10.3706 5.10839 10.3906 5.09671 10.4115C5.08503 10.4323 5.07419 10.454 5.06418 10.4765C5.055 10.4999 5.04749 10.5232 5.04082 10.5474C5.02163 10.6192 5.01579 10.6967 5.02247 10.7793C5.02914 10.8619 5.04916 10.9487 5.0817 11.0413C5.11423 11.1339 5.15928 11.2298 5.21767 11.3316C5.27607 11.4333 5.34697 11.5401 5.43039 11.6502L5.44457 11.6694L5.45959 11.6894L5.47377 11.7086L5.48795 11.7278L5.47961 11.7495L5.4696 11.772L5.46042 11.7946L5.45125 11.8162C5.42622 11.8746 5.39953 11.9464 5.377 12.0298C5.35448 12.1132 5.33529 12.2066 5.32528 12.3084C5.31527 12.4102 5.31611 12.5186 5.33279 12.6321C5.34947 12.7455 5.38117 12.8623 5.4354 12.98L5.44624 13.0041L5.45709 13.0283L5.46793 13.0525L5.47878 13.0767L5.46126 13.0967L5.44374 13.1168L5.42622 13.1368L5.40954 13.1585C5.35782 13.2185 5.29942 13.2936 5.24353 13.3812C5.18764 13.4688 5.13509 13.5689 5.09588 13.6782C5.05667 13.7875 5.02998 13.9067 5.02581 14.0327C5.02163 14.1587 5.04082 14.2905 5.09254 14.4273L5.09504 14.434L5.09755 14.4406L5.10005 14.4473L5.10255 14.454V14.4615V14.469V14.4765V14.484C5.10339 14.5533 5.10923 14.6642 5.12758 14.7968C5.14593 14.9295 5.1793 15.0838 5.23519 15.2423C5.29108 15.4008 5.37033 15.5618 5.48128 15.7069C5.59223 15.8521 5.73738 15.9822 5.9234 16.0773L5.95844 16.0949L5.99348 16.1124L6.02851 16.1299L6.06355 16.1474L6.0477 16.1833L6.03352 16.22L6.01767 16.2559L6.00182 16.2917C5.95594 16.396 5.90672 16.5236 5.86501 16.6646C5.8233 16.8056 5.78826 16.9616 5.77241 17.1217C5.75656 17.2819 5.75907 17.4471 5.7916 17.6081C5.82413 17.7691 5.8867 17.9259 5.99014 18.0702L6.00015 18.0836L6.01016 18.0969L6.02017 18.1103L6.03018 18.1236L6.02768 18.1403L6.02518 18.157L6.02267 18.1737L6.02017 18.1904C6.00849 18.2729 5.99681 18.3864 5.99765 18.5207C5.99765 18.655 6.01016 18.8093 6.04436 18.972C6.07857 19.1347 6.13612 19.3074 6.22789 19.4767C6.31881 19.646 6.44394 19.8129 6.61329 19.9664C6.64415 20.0047 6.70255 20.0756 6.78847 20.1591C6.87523 20.2433 6.98951 20.3401 7.13299 20.4327C7.27648 20.5253 7.44915 20.6129 7.65103 20.6771C7.85291 20.7413 8.08481 20.7831 8.34592 20.7831C8.40682 20.7831 8.46855 20.7805 8.53111 20.7764C8.59368 20.7722 8.65707 20.7647 8.72047 20.7564C8.78387 20.748 8.84811 20.7363 8.91317 20.7222C8.97824 20.7088 9.04331 20.693 9.10838 20.6746C9.14425 20.6646 9.17762 20.6563 9.20932 20.6487C9.24101 20.6412 9.27105 20.6354 9.29857 20.6304C9.3261 20.6254 9.35196 20.6221 9.37532 20.6187C9.39868 20.6154 9.42037 20.6145 9.43955 20.6145H9.47459H9.50963H9.54466H9.5797L9.58637 20.6487L9.59305 20.6829L9.59972 20.7171L9.60639 20.7514C9.6089 20.7647 9.6114 20.7797 9.61307 20.7964C9.61474 20.8131 9.61724 20.8306 9.61807 20.8481C9.61891 20.8656 9.62141 20.8832 9.62224 20.8998C9.62308 20.9165 9.62475 20.9315 9.62558 20.9449C9.63225 21.0467 9.63976 21.1384 9.65811 21.2268C9.67647 21.3153 9.70566 21.3987 9.75572 21.4838C9.80577 21.5689 9.87501 21.6556 9.97511 21.7499C10.0752 21.8442 10.2037 21.9443 10.3722 22.0577C10.4122 22.0844 10.4523 22.1078 10.4923 22.1286C10.5324 22.1486 10.5732 22.1653 10.6133 22.1795C10.6533 22.1937 10.6942 22.2029 10.7342 22.2104C10.7743 22.217 10.8151 22.2204 10.8552 22.2204C10.9386 22.2204 11.0187 22.2062 11.0938 22.182C11.1688 22.1578 11.2406 22.1253 11.3065 22.0877C11.3724 22.0502 11.4333 22.0085 11.4875 21.9676C11.5417 21.9267 11.591 21.8867 11.6327 21.8525C11.6435 21.8433 11.6552 21.8341 11.6669 21.8241C11.6785 21.8141 11.6902 21.8049 11.7011 21.7958C11.7119 21.7866 11.7228 21.7783 11.7328 21.7707C11.7428 21.7632 11.7511 21.7574 11.7586 21.7524L11.7678 21.7466L11.777 21.7407L11.7862 21.7349L11.7953 21.729L11.8062 21.7282L11.817 21.7274L11.8279 21.7265L11.8387 21.7257C11.8395 21.7257 11.8412 21.7257 11.842 21.7257C11.8429 21.7257 11.8446 21.7257 11.8454 21.7257C11.8462 21.7257 11.8479 21.7257 11.8487 21.7257C11.8496 21.7257 11.8504 21.7257 11.8521 21.7257C11.8687 21.7257 11.8854 21.7265 11.9004 21.7274C11.9155 21.7282 11.9305 21.7299 11.9447 21.7315C11.9588 21.7332 11.973 21.7357 11.9872 21.739C12.0014 21.7424 12.0156 21.7457 12.0306 21.7499L12.0581 21.7574L12.0856 21.7649L12.1132 21.7724L12.1407 21.7799L12.144 21.8083L12.1474 21.8366L12.1507 21.865L12.154 21.8934C12.164 21.9893 12.1832 22.0852 12.2108 22.1778C12.2383 22.2713 12.2733 22.3622 12.3159 22.4489C12.3584 22.5357 12.4093 22.6191 12.466 22.6975C12.5228 22.776 12.587 22.8485 12.6562 22.9144L12.6629 22.9211L12.6696 22.9278L12.6762 22.9345L12.6829 22.9411L12.6863 22.9503L12.6896 22.9595L12.6929 22.9687L12.6963 22.9778C12.7438 23.1038 12.7989 23.2723 12.8589 23.4675C12.919 23.6627 12.9832 23.8846 13.0483 24.119C13.1134 24.3534 13.1801 24.6003 13.2452 24.8439C13.3094 25.0884 13.3728 25.3294 13.4295 25.5538L13.4345 25.5722L13.4395 25.5905L13.4445 25.6089L13.4495 25.6272L13.4387 25.6431L13.4279 25.6589L13.417 25.6748L13.4062 25.6906C13.3803 25.7282 13.3444 25.7791 13.3002 25.8358C13.256 25.8925 13.2026 25.9559 13.1434 26.0185C13.0842 26.0811 13.0191 26.1419 12.9499 26.1953C12.8806 26.2487 12.8072 26.2938 12.7321 26.3246C12.7263 26.3271 12.7205 26.3296 12.7155 26.3338C12.7104 26.338 12.7054 26.3413 12.7004 26.3455C12.6954 26.3497 12.6921 26.3547 12.6879 26.3597C12.6838 26.3647 12.6813 26.3705 12.6787 26.3764C12.6762 26.3822 12.6746 26.388 12.6729 26.3947C12.6712 26.4014 12.6712 26.4072 12.6712 26.4139C12.6712 26.4206 12.6721 26.4264 12.6729 26.4331C12.6737 26.4398 12.6762 26.4456 12.6787 26.4514C12.6821 26.4606 12.6871 26.469 12.6938 26.4765C12.7004 26.484 12.7071 26.4906 12.7146 26.4956C12.7221 26.5007 12.7313 26.5048 12.7405 26.5082C12.7497 26.5115 12.7597 26.5123 12.7688 26.5123C12.8181 26.494 12.8664 26.4723 12.9123 26.4473C12.9582 26.4222 13.0041 26.3939 13.0483 26.3613C13.0925 26.3288 13.1359 26.2938 13.1793 26.2546C13.2226 26.2154 13.2652 26.172 13.3086 26.1261L13.3611 26.0694L13.4137 26.0126L13.4662 25.9559L13.5188 25.8992L13.5371 25.9743L13.5555 26.0494L13.5738 26.1244L13.5922 26.1995L13.5955 26.2112L13.5989 26.2229L13.6022 26.2345L13.6055 26.2462C13.6206 26.2771 13.6397 26.3038 13.6631 26.3255C13.6865 26.3472 13.714 26.3655 13.7465 26.3797C13.7791 26.3939 13.8149 26.4039 13.8558 26.4106C13.8967 26.4172 13.9417 26.4206 13.9918 26.4206C14.0135 26.4206 14.0352 26.4197 14.0577 26.4189C14.0802 26.4181 14.1036 26.4156 14.1269 26.4131C14.1503 26.4106 14.1745 26.4072 14.1995 26.4039C14.2245 26.4005 14.2495 26.3964 14.2754 26.3914L14.2821 26.3897L14.2888 26.388L14.2954 26.3864L14.3021 26.3847L14.3096 26.3855L14.3171 26.3864L14.3246 26.3872L14.3321 26.388C14.363 26.393 14.4005 26.3972 14.4431 26.4014C14.4865 26.4047 14.5348 26.4081 14.5891 26.4106C14.6433 26.4131 14.7034 26.4147 14.7684 26.4164C14.8335 26.4181 14.9036 26.4181 14.9778 26.4181C15.0012 26.4181 15.0237 26.4181 15.0454 26.4181C15.0671 26.4181 15.0879 26.4181 15.1071 26.4172C15.1263 26.4164 15.1446 26.4172 15.1613 26.4164C15.178 26.4156 15.1939 26.4156 15.2072 26.4156L15.2147 26.4147L15.2222 26.4139L15.2297 26.4131L15.2372 26.4122L15.3816 26.4164L15.5259 26.4206L15.6702 26.4247L15.8145 26.4289C15.9613 26.4339 16.0873 26.4414 16.1957 26.4523C16.3042 26.4631 16.3934 26.4773 16.4677 26.4956C16.5419 26.514 16.6003 26.5357 16.6462 26.5632C16.6921 26.5907 16.7255 26.6216 16.748 26.6583C16.7521 26.6658 16.758 26.6717 16.7638 26.6775C16.7697 26.6833 16.7763 26.6875 16.7838 26.6917C16.7914 26.6959 16.7989 26.6984 16.8064 26.7009C16.8147 26.7025 16.8231 26.7042 16.8314 26.7042C16.8356 26.7042 16.8406 26.7042 16.8447 26.7034C16.8489 26.7025 16.8531 26.7017 16.8581 26.7009C16.8631 26.7 16.8664 26.6984 16.8706 26.6967C16.8748 26.695 16.8789 26.6925 16.8823 26.69C16.894 26.6825 16.9031 26.6742 16.9106 26.6633C16.9182 26.6533 16.9232 26.6416 16.9257 26.6291C16.9282 26.6166 16.929 26.6041 16.9273 26.5916C16.9257 26.5791 16.9207 26.5666 16.914 26.5557C16.8723 26.489 16.8139 26.4364 16.743 26.3955C16.6721 26.3547 16.587 26.3246 16.4927 26.3021C16.3984 26.2796 16.2925 26.2654 16.1799 26.2554C16.0673 26.2454 15.9471 26.2404 15.8228 26.2354L15.6535 26.2304L15.4842 26.2254L15.3148 26.2204L15.1455 26.2154L14.967 26.2104L14.7884 26.2053L14.6099 26.2003L14.4314 26.1953L14.5941 26.1211L14.7567 26.0468L14.9194 25.9726L15.0821 25.8984C15.2139 25.8383 15.3474 25.7874 15.4742 25.7457C15.6009 25.704 15.7202 25.6715 15.8245 25.6456C15.9288 25.6197 16.0164 25.6022 16.0798 25.5897C16.1432 25.5772 16.1824 25.5722 16.1882 25.5714H16.1891H16.1899H16.1907H16.1916C16.2224 25.5714 16.25 25.5722 16.275 25.5747C16.2992 25.5764 16.3209 25.5797 16.3409 25.5839C16.3609 25.588 16.3776 25.593 16.3934 25.5997C16.4093 25.6064 16.4235 25.6139 16.436 25.6222C16.4427 25.6272 16.4493 25.6314 16.456 25.6348C16.4618 25.6381 16.4677 25.6406 16.4735 25.6423C16.4794 25.6439 16.4835 25.6448 16.4885 25.6456C16.4927 25.6464 16.4969 25.6464 16.5002 25.6464C16.5077 25.6464 16.5161 25.6456 16.5227 25.6439C16.5294 25.6423 16.5369 25.6398 16.5436 25.6364C16.5503 25.6331 16.5569 25.6289 16.5628 25.6239C16.5686 25.6189 16.5736 25.6131 16.5786 25.6072C16.5828 25.6022 16.5861 25.5964 16.5886 25.5905C16.5911 25.5847 16.5936 25.5789 16.5953 25.573C16.597 25.5672 16.5978 25.5605 16.5978 25.5547C16.5978 25.548 16.5978 25.5422 16.597 25.5355C16.5962 25.5288 16.5945 25.523 16.592 25.5171C16.5895 25.5113 16.587 25.5055 16.5836 25.5004C16.5803 25.4954 16.577 25.4904 16.572 25.4854C16.5678 25.4804 16.5628 25.4763 16.5578 25.4729C16.5361 25.4571 16.5127 25.4437 16.4869 25.432C16.461 25.4204 16.4326 25.4104 16.4018 25.4028C16.3709 25.3953 16.3375 25.3895 16.3025 25.3853C16.2675 25.3812 16.2283 25.3795 16.1874 25.3795C16.1348 25.3795 16.0798 25.3828 16.0231 25.3878C15.9663 25.3928 15.9071 25.4012 15.8479 25.4104C15.7886 25.4195 15.7286 25.4304 15.6694 25.4421C15.6101 25.4537 15.5517 25.4654 15.4958 25.4771C15.445 25.4879 15.3782 25.4979 15.304 25.508C15.2297 25.518 15.148 25.5263 15.0662 25.5346C14.9845 25.543 14.9044 25.5497 14.8318 25.5555C14.7601 25.5613 14.6958 25.5663 14.65 25.5697L14.6233 25.5714L14.5966 25.573L14.5699 25.5747L14.5432 25.5764L14.5298 25.5538L14.5165 25.5313L14.5031 25.5088L14.4898 25.4863C14.4147 25.3536 14.3346 25.1784 14.2546 24.9849C14.1745 24.7914 14.0961 24.5795 14.0226 24.3726C13.9492 24.1657 13.8825 23.9647 13.8266 23.7928C13.7707 23.621 13.7265 23.4783 13.699 23.3891L13.6881 23.3524L13.6773 23.3157L13.6664 23.279L13.6556 23.2423L13.6906 23.2281L13.7257 23.2139L13.7607 23.1997L13.7957 23.1855C13.8775 23.1522 13.9584 23.1096 14.036 23.0596C14.1136 23.0095 14.1878 22.952 14.2554 22.8894C14.323 22.8268 14.3855 22.7601 14.4397 22.69C14.4931 22.62 14.539 22.5474 14.5732 22.4748C14.6041 22.4081 14.6366 22.3497 14.6708 22.2955C14.705 22.2421 14.7401 22.1928 14.7776 22.147C14.8151 22.1011 14.8535 22.0577 14.8944 22.0143C14.9353 21.971 14.9786 21.9284 15.0237 21.8825C15.0387 21.8675 15.0546 21.8517 15.0704 21.8358C15.0862 21.82 15.1021 21.8041 15.1179 21.7874C15.1338 21.7707 15.1505 21.7541 15.1663 21.7374C15.1822 21.7207 15.1989 21.7023 15.2164 21.684C15.2356 21.6631 15.2556 21.6423 15.2748 21.6214C15.294 21.6006 15.314 21.5805 15.3332 21.5605C15.3524 21.5405 15.3724 21.5205 15.3916 21.5013C15.4108 21.4821 15.4299 21.4621 15.4491 21.4429C15.4942 21.397 15.5401 21.3511 15.5851 21.3044C15.6301 21.2577 15.6752 21.2093 15.7194 21.1601C15.7636 21.1109 15.807 21.0592 15.8495 21.0058C15.8921 20.9516 15.9338 20.8957 15.973 20.8364C15.9964 20.8022 16.0222 20.7714 16.0514 20.7447C16.0806 20.718 16.1131 20.6938 16.1474 20.6713C16.1816 20.6487 16.2191 20.6287 16.2583 20.6087C16.2975 20.5887 16.3384 20.5695 16.3809 20.5495C16.4285 20.527 16.4777 20.5036 16.5277 20.4786C16.5778 20.4527 16.6278 20.4252 16.6771 20.3926C16.7263 20.3601 16.7755 20.3242 16.8231 20.2825C16.8706 20.2408 16.9156 20.1924 16.959 20.1374C17.0208 20.0581 17.1008 19.9797 17.1968 19.8996C17.2927 19.8196 17.4053 19.7386 17.5305 19.656C17.6556 19.5735 17.7957 19.4867 17.9467 19.3974C18.0977 19.3082 18.2595 19.2148 18.4314 19.1163C18.4664 19.0963 18.5015 19.0763 18.5373 19.0554C18.5732 19.0346 18.6091 19.0137 18.6449 18.9929C18.6808 18.972 18.7184 18.9503 18.7551 18.9286C18.7918 18.9069 18.8293 18.8852 18.8668 18.8636C19.0821 18.7376 19.2731 18.5691 19.4458 18.3705C19.6185 18.172 19.7719 17.9434 19.9121 17.6982C20.0522 17.4529 20.179 17.1902 20.2967 16.9232C20.4143 16.6563 20.5236 16.386 20.6295 16.124L20.6554 16.0606L20.6812 15.9972L20.7071 15.9339L20.7329 15.8705C20.803 15.6994 20.8606 15.5092 20.909 15.3065C20.9573 15.1038 20.9957 14.8878 21.0282 14.6634C21.0608 14.439 21.0866 14.2062 21.11 13.971C21.1334 13.7357 21.1525 13.4972 21.1726 13.2602C21.1851 13.1118 21.1968 12.9666 21.2101 12.8248C21.2226 12.683 21.236 12.5445 21.2501 12.4102C21.2643 12.2759 21.2802 12.1449 21.2969 12.0181C21.3144 11.8913 21.3336 11.7687 21.3553 11.6502C21.3828 11.5009 21.4137 11.3324 21.452 11.1547C21.4904 10.977 21.5354 10.791 21.5905 10.605C21.6464 10.4198 21.7123 10.2346 21.7915 10.0611C21.8708 9.88757 21.9651 9.72491 22.076 9.58309L22.101 9.55139L22.1261 9.51969L22.1511 9.48799L22.1761 9.45629L22.2086 9.47965L22.2412 9.50301L22.2737 9.52637L22.3062 9.54972C22.3388 9.57308 22.3705 9.5906 22.4005 9.60478C22.4305 9.61896 22.4597 9.62897 22.4864 9.63648C22.5131 9.64399 22.5382 9.64816 22.559 9.65149C22.579 9.654 22.5982 9.65483 22.6132 9.65483C22.6858 9.654 22.7559 9.63815 22.8209 9.61145C22.886 9.58476 22.9469 9.54722 23.0011 9.50301C23.0554 9.4588 23.1037 9.40707 23.1446 9.35202C23.1855 9.29696 23.218 9.23857 23.2414 9.18101C23.2472 9.16599 23.2539 9.14764 23.2589 9.12345C23.2647 9.09926 23.2697 9.07006 23.2731 9.03419C23.2764 8.99832 23.2798 8.95661 23.2798 8.90739C23.2806 8.85817 23.2789 8.80145 23.2756 8.73554L23.2739 8.71052L23.2722 8.68549L23.2706 8.66047L23.2689 8.63544L23.2906 8.62209L23.3123 8.60875L23.334 8.5954L23.3557 8.58205C23.374 8.57121 23.3915 8.56036 23.4091 8.55035C23.4266 8.54034 23.4433 8.53033 23.4591 8.52032C23.475 8.51031 23.4908 8.50197 23.505 8.49363C23.5192 8.48528 23.5333 8.47694 23.5467 8.46943L23.5709 8.45525L23.5951 8.44107L23.6193 8.42689L23.6435 8.41271L23.6652 8.42939L23.6868 8.44608L23.7085 8.46276L23.7302 8.47945C23.7661 8.50697 23.7986 8.53283 23.8295 8.55786C23.8595 8.58289 23.8871 8.60624 23.9121 8.62877C23.9371 8.65129 23.9596 8.67298 23.9788 8.693C23.9988 8.71302 24.0155 8.73304 24.0305 8.75139C24.0355 8.75723 24.0405 8.76224 24.0464 8.76641C24.0522 8.77058 24.0581 8.77475 24.0647 8.77809C24.0714 8.78143 24.0781 8.78393 24.0856 8.78476C24.0931 8.7856 24.0998 8.78726 24.1073 8.78726C24.1115 8.78726 24.1156 8.78726 24.1198 8.78643C24.1248 8.7856 24.1298 8.78476 24.1348 8.78309C24.1398 8.78143 24.1457 8.77976 24.1507 8.77642C24.1565 8.77392 24.1615 8.76975 24.1673 8.76558C24.1723 8.7614 24.1774 8.75723 24.1807 8.75223C24.1849 8.74722 24.1882 8.74222 24.1915 8.73638C24.1949 8.73054 24.1974 8.7247 24.199 8.71886C24.2007 8.71302 24.2024 8.70635 24.2032 8.70051C24.204 8.69383 24.204 8.688 24.2032 8.68132C24.2024 8.67465 24.2015 8.66881 24.1999 8.66297C24.1982 8.65713 24.1957 8.65129 24.1932 8.64545C24.1907 8.63961 24.1865 8.63461 24.1824 8.6296C24.1498 8.58873 24.1073 8.54451 24.0547 8.4953C24.0022 8.44691 23.9396 8.39436 23.8687 8.3393C23.7978 8.28424 23.716 8.22501 23.6268 8.16328C23.5375 8.10155 23.4391 8.03649 23.3323 7.96975L23.1955 7.88633L23.0579 7.79957L22.9202 7.71282L22.7826 7.62606L22.9444 7.63607L23.1062 7.64608L23.2681 7.65609L23.4299 7.6661C23.5951 7.67611 23.7369 7.71031 23.8579 7.75619C23.9788 7.80208 24.0772 7.85964 24.1565 7.91636C24.2357 7.97309 24.2933 8.02981 24.3333 8.07236C24.3734 8.1149 24.3934 8.14577 24.3967 8.14994C24.4018 8.15744 24.4076 8.16412 24.4134 8.16996C24.4193 8.1758 24.4259 8.1808 24.4335 8.18497C24.441 8.18914 24.4485 8.19165 24.456 8.19415C24.4635 8.19665 24.4718 8.19749 24.4802 8.19749C24.4843 8.19749 24.4885 8.19749 24.4935 8.19665C24.4977 8.19582 24.5019 8.19498 24.506 8.19415C24.5102 8.19332 24.5144 8.19165 24.5185 8.18998C24.5227 8.18831 24.526 8.18664 24.5302 8.18414C24.5411 8.17747 24.5511 8.16912 24.5586 8.15911C24.5661 8.1491 24.5711 8.13826 24.5744 8.12658C24.5778 8.1149 24.5786 8.10239 24.5778 8.09071C24.5769 8.07903 24.5736 8.06568 24.5678 8.054ZM14.4164 25.7324L14.4723 25.7632L14.5282 25.7941L14.5841 25.825L14.64 25.8558L14.5974 25.9017L14.5549 25.9476L14.5123 25.9935L14.4698 26.0393C14.4581 26.0485 14.4456 26.0577 14.4339 26.0677C14.4222 26.0777 14.4105 26.0869 14.3989 26.0969C14.3872 26.1069 14.3763 26.1169 14.3647 26.1269C14.353 26.1369 14.3421 26.147 14.3313 26.1578L14.3221 26.1661L14.3129 26.1745L14.3038 26.1828L14.2946 26.1912L14.2821 26.1937L14.2696 26.1962L14.2571 26.1987L14.2445 26.2012C14.2212 26.2053 14.197 26.2095 14.1736 26.2129C14.1494 26.2162 14.1261 26.2187 14.1019 26.2212C14.0777 26.2237 14.0552 26.2254 14.0335 26.2262C14.0118 26.227 13.9909 26.2279 13.9709 26.2279C13.9659 26.2279 13.9601 26.2279 13.9551 26.2279C13.9501 26.2279 13.9451 26.2279 13.9401 26.2279C13.9351 26.2279 13.9309 26.2279 13.9259 26.227C13.9209 26.2262 13.9167 26.2262 13.9125 26.2262L13.8825 26.2237L13.8525 26.2212L13.8224 26.2187L13.7924 26.2162L13.7849 26.187L13.7774 26.1578L13.7699 26.1286L13.7624 26.0994C13.7382 26.001 13.6981 25.8425 13.6481 25.6464C13.598 25.4504 13.538 25.2168 13.4729 24.9674C13.4078 24.718 13.3369 24.4535 13.2652 24.1958C13.1935 23.938 13.1225 23.6869 13.055 23.4658L13.035 23.3991L13.0149 23.3324L12.9949 23.2656L12.9749 23.1989L13.0433 23.2122L13.1117 23.2256L13.1801 23.2389L13.2485 23.2523C13.256 23.2539 13.2644 23.2556 13.2719 23.2565C13.2794 23.2573 13.2877 23.259 13.2952 23.2598C13.3027 23.2606 13.3111 23.2615 13.3186 23.2623C13.3261 23.2631 13.3344 23.264 13.3428 23.264L13.3711 23.2665L13.3995 23.269L13.4279 23.2715L13.4562 23.274L13.4646 23.3015L13.4729 23.329L13.4812 23.3566L13.4896 23.3841C13.5221 23.4917 13.5747 23.6627 13.6406 23.8663C13.7065 24.0698 13.7857 24.3059 13.8717 24.5428C13.9576 24.7797 14.0502 25.0191 14.1428 25.2277C14.2354 25.4362 14.3305 25.6131 14.4164 25.7324ZM23.2981 7.46589C23.2447 7.46673 23.1897 7.4709 23.1338 7.4759C23.0779 7.48091 23.022 7.49008 22.9644 7.5001C22.9069 7.51011 22.8493 7.52262 22.7909 7.53763C22.7325 7.55265 22.6733 7.56933 22.6132 7.58852C22.6041 7.59186 22.5957 7.59603 22.5874 7.60103C22.5799 7.60604 22.5724 7.61271 22.5665 7.62022C22.5607 7.62773 22.5557 7.63524 22.5523 7.64441C22.549 7.65275 22.5465 7.66276 22.5457 7.67194C22.5448 7.68195 22.5457 7.69113 22.5473 7.7003C22.549 7.70948 22.5523 7.71866 22.5565 7.727C22.5607 7.73534 22.5665 7.74285 22.5732 7.74952C22.5799 7.75619 22.5874 7.76203 22.5957 7.76704C22.6182 7.77955 22.6416 7.79206 22.6666 7.80625C22.6908 7.81959 22.7158 7.83378 22.7417 7.84879C22.7676 7.86381 22.7943 7.87882 22.8209 7.89384C22.8476 7.90969 22.8752 7.92554 22.9027 7.94139L22.9185 7.95056L22.9344 7.95974L22.9502 7.96892L22.9661 7.97809L22.9694 7.99644L22.9728 8.0148L22.9761 8.03315L22.9794 8.0515C22.9886 8.10072 22.9978 8.1491 23.0061 8.19749C23.0145 8.24587 23.022 8.29425 23.0295 8.34097C23.037 8.38768 23.0428 8.4344 23.0487 8.47945C23.0595 8.52699 23.0645 8.57037 23.0695 8.61208C23.0787 8.70468 23.0837 8.77976 23.0862 8.83982C23.0887 8.89988 23.0871 8.94743 23.0846 8.9833C23.082 9.01917 23.0779 9.04587 23.0737 9.06422C23.0695 9.08257 23.0654 9.09425 23.062 9.10259C23.0445 9.14597 23.0203 9.18935 22.9903 9.23106C22.9603 9.27277 22.9252 9.31114 22.8868 9.34534C22.8485 9.37955 22.8051 9.40707 22.76 9.4271C22.715 9.44712 22.6666 9.4588 22.6182 9.46046C22.5632 9.46046 22.5131 9.44712 22.4672 9.42376C22.4214 9.4004 22.3805 9.36787 22.3438 9.32866C22.3071 9.28945 22.2745 9.24607 22.2462 9.19936C22.2178 9.15348 22.1936 9.10509 22.1728 9.06005C22.1194 8.94159 22.0927 8.83315 22.0843 8.73721C22.076 8.64128 22.0843 8.55703 22.101 8.48695C22.1177 8.41688 22.1411 8.36015 22.1628 8.31928C22.1845 8.2784 22.2028 8.25254 22.2095 8.2442C22.2195 8.23252 22.2262 8.22001 22.2303 8.2075C22.2345 8.19498 22.2362 8.18164 22.2353 8.16912C22.2345 8.15661 22.2312 8.1441 22.2253 8.13242C22.2195 8.12074 22.212 8.11073 22.2011 8.10239C22.1953 8.09738 22.1895 8.09405 22.1845 8.09071C22.1794 8.08737 22.1736 8.0857 22.1678 8.08403C22.1619 8.08237 22.1569 8.08153 22.1519 8.0807C22.1469 8.07986 22.1427 8.07986 22.1386 8.07986C22.1311 8.07986 22.1244 8.0807 22.1177 8.08237C22.111 8.08403 22.1044 8.0857 22.0977 8.08904C22.091 8.09238 22.0852 8.09488 22.0793 8.09905C22.0735 8.10322 22.0685 8.10823 22.0643 8.11323C22.061 8.1174 22.0376 8.14577 22.0093 8.19498C21.9809 8.2442 21.9467 8.31511 21.9217 8.40437C21.8967 8.49363 21.8808 8.60124 21.8883 8.7247C21.8958 8.84816 21.9267 8.98747 21.9951 9.1393L22.0059 9.16349L22.0168 9.18768L22.0276 9.21187L22.0385 9.23606L22.0276 9.27027L22.0184 9.30781L22.0076 9.34201L21.9968 9.37621C21.8641 9.52637 21.7523 9.70071 21.6589 9.88757C21.5655 10.0744 21.4887 10.2738 21.4253 10.4757C21.3619 10.6767 21.311 10.8803 21.2685 11.073C21.226 11.2657 21.1926 11.45 21.1617 11.6127C21.1392 11.7337 21.12 11.8588 21.1025 11.9873C21.085 12.1157 21.0691 12.2484 21.0549 12.3835C21.0408 12.5186 21.0274 12.6571 21.0149 12.7981C21.0024 12.9391 20.9907 13.0826 20.9782 13.2277C20.9582 13.4646 20.939 13.7024 20.9156 13.9359C20.8923 14.1695 20.8672 14.3998 20.8355 14.62C20.8039 14.8402 20.7663 15.0521 20.7196 15.2498C20.6729 15.4475 20.6178 15.6302 20.5511 15.7945L20.5252 15.8588L20.4994 15.923L20.4752 15.9864L20.4493 16.0506C20.3467 16.3051 20.2399 16.5687 20.1265 16.8281C20.0122 17.0867 19.8904 17.342 19.7561 17.5797C19.6218 17.8175 19.475 18.0377 19.3123 18.2279C19.1488 18.4181 18.9694 18.5791 18.7684 18.6967L18.66 18.7593L18.5515 18.8218L18.4431 18.8844L18.3346 18.947C18.1586 19.0479 17.9918 19.1438 17.8366 19.2364C17.6814 19.329 17.5371 19.4175 17.407 19.5042C17.2769 19.591 17.1601 19.6761 17.0591 19.7612C16.9582 19.8462 16.8731 19.9305 16.8055 20.0173C16.7697 20.0631 16.7313 20.1032 16.6912 20.1382C16.6512 20.1733 16.6095 20.2041 16.5661 20.2316C16.5227 20.2592 16.4794 20.2834 16.4343 20.3059C16.3901 20.3284 16.3451 20.3501 16.3008 20.371C16.2558 20.3918 16.2099 20.4135 16.1649 20.4369C16.1198 20.4602 16.0756 20.4844 16.0339 20.5119C15.9922 20.5395 15.9513 20.5703 15.9138 20.6054C15.8762 20.6404 15.842 20.6804 15.8112 20.7263C15.7736 20.7822 15.7353 20.8348 15.6952 20.8857C15.6552 20.9357 15.6143 20.9841 15.5726 21.0308C15.5309 21.0775 15.4875 21.1234 15.4441 21.1685C15.4007 21.2135 15.3557 21.2585 15.3106 21.3044C15.2906 21.3244 15.2706 21.3445 15.2514 21.3645C15.2314 21.3845 15.2114 21.4045 15.1922 21.4254C15.173 21.4462 15.153 21.4663 15.133 21.4871C15.1129 21.508 15.0938 21.5288 15.0737 21.5505C15.0596 21.5664 15.0454 21.5814 15.0312 21.5956C15.017 21.6097 15.0028 21.6248 14.9895 21.6389C14.9761 21.6531 14.962 21.6673 14.9486 21.6806C14.9353 21.694 14.9219 21.7073 14.9086 21.7207C14.856 21.7732 14.8068 21.8225 14.7601 21.8717C14.7134 21.9209 14.6691 21.9701 14.6266 22.0218C14.5841 22.0736 14.5449 22.1286 14.5065 22.1887C14.4681 22.2487 14.4322 22.3146 14.3972 22.3889C14.3647 22.459 14.3129 22.5365 14.2479 22.6141C14.1828 22.6917 14.1036 22.7684 14.016 22.836C13.9284 22.9036 13.8308 22.9636 13.7282 23.0054C13.6264 23.0479 13.5196 23.0729 13.4128 23.0729C13.3962 23.0729 13.3795 23.0721 13.3628 23.0713C13.3461 23.0704 13.3294 23.0679 13.3136 23.0654C13.2977 23.0629 13.281 23.0596 13.2652 23.0554C13.2493 23.0512 13.2335 23.0471 13.2185 23.0421C13.0908 22.9995 12.9724 22.9328 12.8656 22.8477C12.7588 22.7626 12.6654 22.6592 12.587 22.5424C12.5086 22.4256 12.4468 22.2955 12.4043 22.1578C12.3618 22.0202 12.3384 21.8742 12.3384 21.7265C12.3384 21.7174 12.3367 21.7082 12.3342 21.6998C12.3317 21.6915 12.3284 21.6832 12.3234 21.6756C12.3184 21.6681 12.3134 21.6615 12.3067 21.6548C12.3 21.6481 12.2925 21.6439 12.285 21.6398C12.2758 21.6356 12.2575 21.6264 12.2316 21.6156C12.2058 21.6047 12.1732 21.5914 12.1349 21.5797C12.0965 21.568 12.0539 21.5555 12.0089 21.5472C11.9638 21.5388 11.9155 21.533 11.8671 21.533C11.8571 21.533 11.8479 21.533 11.8387 21.5338C11.8295 21.5347 11.8204 21.5347 11.8112 21.5363C11.802 21.538 11.7928 21.5388 11.7845 21.5397C11.7761 21.5405 11.767 21.543 11.7586 21.5447C11.7403 21.5488 11.7219 21.5555 11.7027 21.5647C11.6835 21.5739 11.6644 21.5856 11.6443 21.5997C11.6243 21.6139 11.6035 21.6298 11.5809 21.6473C11.5584 21.6648 11.5351 21.6848 11.51 21.7057C11.4592 21.7482 11.4083 21.7891 11.3565 21.8275C11.3048 21.8658 11.2531 21.9 11.1997 21.9301C11.1463 21.9601 11.0921 21.9843 11.0354 22.001C10.9787 22.0177 10.9211 22.0277 10.8602 22.0277C10.8285 22.0277 10.7968 22.0252 10.7651 22.0202C10.7334 22.0152 10.7017 22.0068 10.6708 21.9968C10.64 21.9868 10.6083 21.9735 10.5766 21.9576C10.5449 21.9418 10.5132 21.9234 10.4815 21.9017C10.3313 21.8008 10.2162 21.7132 10.1278 21.6323C10.0393 21.5513 9.97761 21.4771 9.93423 21.4045C9.89086 21.332 9.865 21.2602 9.84831 21.1826C9.83163 21.1051 9.82579 21.0241 9.81995 20.9315C9.81661 20.8798 9.81328 20.8314 9.80744 20.7872C9.80243 20.7422 9.79492 20.7013 9.78408 20.6638C9.77323 20.6262 9.75905 20.5929 9.7407 20.5628C9.72151 20.5328 9.69816 20.5078 9.66812 20.4861C9.65394 20.4761 9.63893 20.4669 9.62224 20.4594C9.60556 20.4519 9.58804 20.4452 9.56969 20.4402C9.55134 20.4352 9.53132 20.431 9.50963 20.4294C9.48877 20.4268 9.46625 20.426 9.44206 20.426C9.41036 20.426 9.37782 20.4285 9.34529 20.4319C9.31276 20.4352 9.27855 20.441 9.24602 20.4477C9.21349 20.4544 9.17845 20.4577 9.14675 20.4661C9.11505 20.4744 9.08502 20.4819 9.05666 20.4894C8.99659 20.5061 8.93653 20.5203 8.87647 20.5328C8.81641 20.5453 8.75801 20.5553 8.69878 20.5637C8.63956 20.572 8.582 20.5778 8.5236 20.582C8.46521 20.5862 8.40848 20.5887 8.35259 20.5887C8.09316 20.5887 7.86625 20.5445 7.67105 20.4786C7.47585 20.4127 7.31401 20.3242 7.18304 20.2341C7.05208 20.1441 6.95281 20.054 6.88524 19.9847C6.81767 19.9155 6.78096 19.8654 6.77596 19.8579C6.57992 19.6836 6.44645 19.4909 6.35802 19.299C6.26876 19.1071 6.22455 18.9153 6.20453 18.7443C6.18451 18.5733 6.18951 18.4223 6.20036 18.3122C6.2112 18.202 6.22705 18.1311 6.22955 18.1211C6.23122 18.1136 6.23206 18.1053 6.23206 18.0978C6.23206 18.0903 6.23122 18.0819 6.22955 18.0744C6.22789 18.0669 6.22538 18.0594 6.22121 18.0527C6.21704 18.046 6.21287 18.0394 6.20787 18.0335C6.05771 17.8634 5.98597 17.6623 5.96428 17.4563C5.94176 17.2502 5.96928 17.0383 6.016 16.8473C6.06271 16.6563 6.12945 16.4836 6.18534 16.356C6.24123 16.2283 6.28795 16.1466 6.29546 16.1341C6.29963 16.1274 6.30213 16.1207 6.30463 16.1132C6.30714 16.1057 6.30797 16.099 6.3088 16.0915C6.30964 16.084 6.3088 16.0765 6.30797 16.069C6.30714 16.0615 6.30463 16.0548 6.30213 16.0473C6.29963 16.0406 6.29546 16.034 6.29129 16.0281C6.28711 16.0223 6.28211 16.0164 6.2771 16.0114C6.2721 16.0064 6.26543 16.0023 6.25959 15.9989C6.25375 15.9956 6.24624 15.9922 6.23957 15.9906C6.0477 15.9364 5.89254 15.8421 5.76741 15.7236C5.64228 15.6052 5.54801 15.4625 5.47711 15.3115C5.4062 15.1605 5.36032 15.002 5.33279 14.8511C5.30526 14.7001 5.29525 14.5574 5.29775 14.4381C5.29775 14.434 5.29775 14.4298 5.29775 14.4265C5.29775 14.4231 5.29692 14.4189 5.29609 14.4156C5.29525 14.4123 5.29442 14.4098 5.29358 14.4064C5.29275 14.4031 5.29108 14.3998 5.29025 14.3964C5.22434 14.2438 5.211 14.0944 5.22852 13.9551C5.24603 13.8158 5.29525 13.6874 5.35531 13.5764C5.41538 13.4655 5.48461 13.3704 5.54384 13.3003C5.60307 13.2302 5.65145 13.1843 5.66814 13.1685C5.67815 13.1593 5.68649 13.1501 5.69233 13.1393C5.69817 13.1284 5.70234 13.1176 5.70401 13.1059C5.70568 13.0942 5.70568 13.0834 5.70318 13.0717C5.70067 13.06 5.6965 13.0492 5.68983 13.0392C5.59223 12.8874 5.54301 12.733 5.52382 12.5879C5.50464 12.4427 5.51548 12.3051 5.53884 12.1858C5.5622 12.0665 5.59807 11.9656 5.62977 11.893C5.66147 11.8204 5.68733 11.7754 5.6915 11.7687C5.69567 11.7604 5.69984 11.7503 5.70234 11.7403C5.70484 11.7303 5.70568 11.7203 5.70484 11.7103C5.70401 11.7003 5.70151 11.6911 5.69817 11.6819C5.69483 11.6728 5.68899 11.6636 5.68315 11.6561C5.57054 11.5184 5.48295 11.395 5.41538 11.2849C5.34781 11.1747 5.30109 11.0763 5.26939 10.9912C5.23769 10.9061 5.22184 10.8319 5.21684 10.7685C5.21183 10.7051 5.216 10.6525 5.22601 10.6092C5.23102 10.5875 5.23769 10.5666 5.24687 10.5466C5.25604 10.5266 5.26605 10.5074 5.27773 10.489C5.28941 10.4698 5.30276 10.4532 5.31778 10.4373C5.33279 10.4215 5.34864 10.4073 5.36616 10.3948L5.3695 10.3906L5.37283 10.3864L5.37617 10.3823L5.37951 10.3781L5.39035 10.3739L5.4012 10.3697L5.41204 10.3656L5.42288 10.3614C5.42872 10.3589 5.43456 10.3564 5.4404 10.3531C5.44624 10.3497 5.45125 10.3455 5.45542 10.3414C5.45959 10.3372 5.46376 10.3322 5.46793 10.3264C5.4721 10.3205 5.4746 10.3155 5.47711 10.3097C5.47961 10.3038 5.48128 10.2972 5.48295 10.2913C5.48462 10.2855 5.48461 10.278 5.48461 10.2721C5.48461 10.2663 5.48462 10.2588 5.48295 10.2521C5.48128 10.2454 5.47961 10.2396 5.47711 10.2338C5.38117 10.0035 5.31444 9.80415 5.26939 9.63314C5.22434 9.46213 5.20266 9.31865 5.19682 9.19852C5.19098 9.0784 5.20182 8.9808 5.22184 8.90238C5.24186 8.82397 5.27273 8.76391 5.3061 8.71886C5.33696 8.67715 5.37283 8.64545 5.41037 8.62043C5.44791 8.5954 5.48628 8.57788 5.52382 8.56453C5.56136 8.55119 5.59807 8.54451 5.62977 8.54034C5.66147 8.53617 5.68899 8.53534 5.70901 8.53534H5.71235H5.71569H5.71819H5.72153L5.73154 8.53617L5.74155 8.537H5.75072L5.76073 8.53784C5.76908 8.53784 5.77742 8.537 5.78493 8.53534C5.79243 8.53367 5.79911 8.532 5.80578 8.5295C5.81246 8.52699 5.81829 8.52366 5.82413 8.51949C5.82997 8.51532 5.83498 8.51114 5.83915 8.50614C5.84415 8.5003 5.84916 8.49363 5.8525 8.48695C5.85583 8.48028 5.85917 8.47277 5.86084 8.4661C5.86251 8.45942 5.86418 8.45108 5.86418 8.44357C5.86418 8.43607 5.86334 8.42856 5.86167 8.42105C5.84499 8.3418 5.83248 8.27006 5.8258 8.20499C5.81913 8.13993 5.81663 8.08237 5.81996 8.02981C5.8233 7.97726 5.83164 7.93221 5.84499 7.89217C5.85834 7.85213 5.87669 7.81626 5.90005 7.78623C5.92007 7.7612 5.94342 7.73951 5.97095 7.72116C5.99848 7.70281 6.03018 7.68612 6.06605 7.67277C6.10192 7.65943 6.14113 7.65025 6.18534 7.64274C6.22955 7.63524 6.2771 7.63106 6.32966 7.63023C6.48732 7.63023 6.62997 7.65442 6.7551 7.6953C6.88023 7.73617 6.98868 7.7929 7.0796 7.85797C7.17053 7.92303 7.24394 7.99644 7.29816 8.06985C7.35239 8.14326 7.38826 8.21667 7.40494 8.28257C7.42079 8.34681 7.45166 8.42439 7.49337 8.51031C7.53508 8.59623 7.58596 8.68966 7.64352 8.78476C7.70108 8.87986 7.76365 8.9783 7.82705 9.07256C7.89045 9.16683 7.95468 9.25775 8.01474 9.3395C8.01724 9.34284 8.01975 9.34534 8.02225 9.34868C8.02475 9.35202 8.02809 9.35452 8.03059 9.35702C8.03309 9.35953 8.03726 9.36119 8.0406 9.3637C8.04394 9.3662 8.04728 9.36787 8.05145 9.36954C8.11151 9.39873 8.18408 9.44461 8.2675 9.50301C8.35092 9.5614 8.44269 9.63231 8.54196 9.71239C8.64123 9.79247 8.748 9.88173 8.85895 9.976C8.9699 10.0703 9.08502 10.1695 9.20264 10.2705C9.30942 10.3631 9.41786 10.4557 9.52548 10.5474C9.63309 10.6392 9.73987 10.7293 9.84414 10.8144C9.94842 10.8995 10.051 10.982 10.1495 11.0571C10.2479 11.1322 10.3422 11.2006 10.4314 11.2598C10.5782 11.3574 10.7559 11.445 10.9586 11.5226C11.1613 11.6002 11.3907 11.6653 11.6393 11.7186C11.8879 11.772 12.1565 11.8137 12.4402 11.8413C12.7238 11.8688 13.0216 11.8838 13.3286 11.8838C13.372 11.8838 13.4145 11.8838 13.4571 11.883C13.4996 11.8821 13.5413 11.8813 13.5822 11.8805C13.6231 11.8796 13.6639 11.878 13.7048 11.8763C13.7457 11.8746 13.7849 11.873 13.8233 11.8705C14.1086 11.8538 14.3922 11.8004 14.6666 11.7203C14.9411 11.6402 15.208 11.5343 15.46 11.4108C15.7119 11.2882 15.948 11.1489 16.1632 11.0029C16.3784 10.8569 16.5711 10.7059 16.7363 10.5583C16.8539 10.4532 16.969 10.3372 17.08 10.2162C17.1909 10.0953 17.2977 9.96766 17.4012 9.84002C17.5046 9.71239 17.603 9.58142 17.6973 9.45462C17.7916 9.32783 17.8808 9.20353 17.9651 9.08674C17.9951 9.04503 18.0251 9.00332 18.0535 8.96328C18.0819 8.92324 18.1111 8.88403 18.1386 8.84566C18.1661 8.80729 18.1936 8.77058 18.2203 8.73471C18.247 8.69884 18.2729 8.66464 18.2987 8.63127C18.403 8.49696 18.544 8.35014 18.7042 8.20082C18.8643 8.0515 19.0437 7.90051 19.223 7.75536C19.4024 7.61021 19.5826 7.4734 19.7453 7.35244C19.9079 7.23148 20.0514 7.12721 20.1598 7.04963C20.3175 6.93618 20.4718 6.83357 20.6237 6.74181C20.7747 6.65088 20.9231 6.5708 21.0666 6.50323C21.2101 6.43566 21.3494 6.37893 21.4829 6.33555C21.6164 6.29217 21.7448 6.26048 21.8666 6.24212C21.8783 6.24045 21.89 6.23879 21.9017 6.23712C21.9133 6.23545 21.925 6.23461 21.9375 6.23378C21.95 6.23295 21.9617 6.23211 21.9734 6.23211C21.9851 6.23211 21.9976 6.23128 22.0101 6.23128C22.1035 6.23128 22.2011 6.24379 22.2971 6.26465C22.3938 6.2855 22.4889 6.31386 22.5799 6.3464C22.6708 6.37893 22.755 6.4148 22.8293 6.44984C22.9035 6.48487 22.9686 6.51991 23.0178 6.54911C23.0712 6.57747 23.1238 6.63253 23.1738 6.70093C23.2239 6.76934 23.2706 6.84942 23.3106 6.927C23.3507 7.00458 23.3849 7.07966 23.4091 7.13638C23.4332 7.19311 23.4483 7.23232 23.4508 7.23816L23.4716 7.29321L23.4925 7.34827L23.5133 7.40333L23.5342 7.45839L23.475 7.46005L23.4157 7.46172L23.3565 7.46339L23.2981 7.46589ZM23.9496 7.34493L23.9112 7.32241L23.8729 7.29989L23.8337 7.27736L23.7953 7.25484C23.7811 7.2465 23.7686 7.23899 23.7577 7.23232C23.7469 7.22564 23.7377 7.22064 23.7302 7.21563C23.7227 7.21063 23.7152 7.20729 23.7085 7.20312C23.7019 7.19895 23.696 7.19645 23.6902 7.19394L23.676 7.18727L23.6618 7.1806L23.6476 7.17392L23.6335 7.16725L23.6276 7.15223L23.6193 7.13555L23.6134 7.12053L23.6076 7.10552C23.5709 7.01376 23.5317 6.92783 23.4908 6.84942C23.4499 6.77101 23.4082 6.7001 23.3665 6.63753C23.3248 6.57497 23.2814 6.52241 23.2397 6.47904C23.198 6.43566 23.1563 6.40312 23.1163 6.38227C23.1129 6.3806 23.0762 6.35891 23.0161 6.32721C22.9561 6.29551 22.8702 6.25464 22.7692 6.21293C22.6683 6.17122 22.5507 6.12951 22.4255 6.09781C22.3004 6.06611 22.1678 6.04358 22.036 6.04025L21.9984 6.03941H21.9601L21.9225 6.03858L21.885 6.03774L21.8825 6.0002L21.88 5.96267L21.8775 5.92513L21.875 5.88759C21.8741 5.87591 21.8733 5.86256 21.8725 5.84755C21.8716 5.83253 21.8716 5.81752 21.8725 5.80083C21.8733 5.78415 21.8741 5.76663 21.8758 5.74911C21.8775 5.73159 21.8808 5.71324 21.8841 5.69489C21.8858 5.68655 21.8875 5.67904 21.89 5.6707C21.8925 5.66235 21.8941 5.65485 21.8967 5.6465C21.8992 5.63816 21.9017 5.63065 21.905 5.62315C21.9075 5.61564 21.9108 5.6073 21.9142 5.59979L21.9309 5.55975L21.9475 5.51971L21.9642 5.47966L21.9809 5.43962L22.0201 5.45714L22.0593 5.47466L22.0985 5.49218L22.1377 5.5097C22.1477 5.5147 22.1586 5.51887 22.1694 5.52221C22.1803 5.52555 22.1911 5.52888 22.2028 5.53138C22.2145 5.53389 22.2253 5.53556 22.2378 5.53639C22.2495 5.53722 22.262 5.53806 22.2737 5.53806L22.2829 5.53722L22.2921 5.53639L22.3012 5.53556L22.3104 5.53472C22.3354 5.53222 22.3588 5.52805 22.3813 5.52054C22.4038 5.51303 22.4247 5.50469 22.4439 5.49468C22.4631 5.48467 22.4798 5.47216 22.4948 5.45798C22.5098 5.44379 22.5215 5.42878 22.5306 5.41209L22.5765 5.32784L22.6224 5.24359L22.6683 5.15933L22.7142 5.07508L22.7442 5.16684L22.7742 5.2586L22.8043 5.35036L22.8343 5.44213C22.8451 5.47549 22.856 5.50552 22.8668 5.53305C22.8777 5.56058 22.8893 5.58561 22.901 5.60813C22.9127 5.63065 22.9261 5.64984 22.9402 5.66569C22.9544 5.68238 22.9703 5.69572 22.9869 5.70657C22.9936 5.71074 23.0003 5.71407 23.007 5.71741C23.0136 5.72075 23.0203 5.72325 23.027 5.72492C23.0337 5.72659 23.0403 5.72826 23.047 5.72909C23.0537 5.72992 23.0604 5.73076 23.067 5.73076C23.0779 5.73076 23.0887 5.72992 23.1004 5.72742C23.1121 5.72492 23.1238 5.72158 23.1371 5.71741C23.1505 5.71324 23.163 5.7074 23.1771 5.70073C23.1913 5.69405 23.2055 5.68571 23.2214 5.67737L23.2864 5.639L23.3515 5.60062L23.4166 5.56225L23.4816 5.52388L23.48 5.59896L23.4783 5.67403L23.4766 5.74911L23.47 5.82586C23.4691 5.85839 23.4691 5.88759 23.4708 5.91512C23.4725 5.94265 23.475 5.96767 23.4791 5.99103C23.4833 6.01439 23.4883 6.03524 23.4941 6.05443C23.5008 6.07361 23.5083 6.09113 23.5167 6.10698C23.5225 6.11783 23.53 6.12867 23.5384 6.13952C23.5467 6.15036 23.5567 6.16121 23.5684 6.17122C23.5801 6.18123 23.5934 6.1904 23.6076 6.19791C23.6226 6.20542 23.6393 6.21126 23.6576 6.21376C23.661 6.21376 23.6635 6.21376 23.6668 6.21459C23.6693 6.21459 23.6727 6.21459 23.6752 6.21459C23.6777 6.21459 23.6802 6.21459 23.6827 6.21459C23.6852 6.21459 23.6877 6.21459 23.6902 6.21459C23.6977 6.21459 23.7052 6.21459 23.711 6.21376C23.7169 6.21293 23.7227 6.21293 23.7277 6.21209C23.7327 6.21126 23.7377 6.21042 23.7419 6.20959C23.7461 6.20875 23.7511 6.20709 23.7552 6.20625L23.8211 6.1854L23.8871 6.16454L23.953 6.14369L24.0189 6.12283L24.0063 6.19124L23.9938 6.25964L23.9813 6.32805L23.9705 6.39478C23.9688 6.40479 23.968 6.41397 23.9671 6.42398C23.9671 6.43315 23.9671 6.44316 23.9688 6.45151C23.9705 6.45985 23.9721 6.46986 23.9746 6.4782C23.9771 6.48654 23.9813 6.49489 23.9855 6.50323C23.9905 6.51324 23.9972 6.52241 24.0047 6.53076C24.0122 6.5391 24.0205 6.54744 24.0297 6.55495C24.0389 6.56246 24.0497 6.56829 24.0622 6.57497C24.0747 6.58164 24.0873 6.58748 24.1023 6.59332L24.1406 6.60834L24.179 6.62335L24.2174 6.63837L24.2558 6.65338L24.2408 6.69176L24.2257 6.73013L24.2124 6.76934L24.1974 6.80771C24.1882 6.8319 24.1774 6.85943 24.1648 6.88779C24.1523 6.91616 24.1398 6.94702 24.1248 6.97872C24.1098 7.01042 24.0948 7.04379 24.0789 7.07799C24.0631 7.11219 24.0455 7.14723 24.028 7.1831L24.008 7.22314L23.988 7.26318L23.968 7.30322L23.9496 7.34493Z" fill="#4D4D4D"/>
</svg>
