<svg width="30" height="30" viewBox="0 0 30 30" fill="none" xmlns="http://www.w3.org/2000/svg">
<rect width="30" height="30" fill="white"/>
<path d="M30 30H22.5H15H7.5H0V22.5003V15.0005V7.49975V0H7.5H15H22.5H30V7.49975V14.9995V22.4992V30ZM0.252287 29.7477H7.62614H15H22.3739H29.7477V22.3741V15.0005V7.62589V0.252279H22.3739H15H7.62614H0.252287V7.62589V14.9995V22.3731V29.7477Z" fill="#4D4D4D"/>
<path d="M3 25.9093L3.029 25.8403L3.058 25.7713L3.087 25.7023L3.116 25.6333C3.348 25.0793 3.731 24.3393 4.183 23.5303C4.635 22.7213 5.155 21.8423 5.661 21.0113C6.167 20.1803 6.658 19.3963 7.051 18.7763C7.444 18.1563 7.74 17.6993 7.854 17.5233C7.799 17.4243 7.713 17.2443 7.638 16.9743C7.563 16.7043 7.498 16.3463 7.485 15.8913C7.472 15.4363 7.511 14.8843 7.642 14.2283C7.774 13.5723 7.999 12.8113 8.358 11.9393C8.716 11.0693 9.196 10.2743 9.791 9.55728C10.386 8.84028 11.097 8.20328 11.919 7.64928C12.741 7.09528 13.671 6.62328 14.707 6.23828C15.743 5.85328 16.882 5.55528 18.12 5.34728C19.05 5.19128 19.957 5.09928 20.795 5.04928C21.633 4.99928 22.401 4.99328 23.053 5.00528C23.705 5.01728 24.243 5.05028 24.62 5.07928C24.997 5.10828 25.212 5.13528 25.22 5.13628L25.479 5.16928L25.738 5.20228L25.997 5.23528L26.256 5.26828L25.998 5.30928L25.74 5.35028L25.482 5.39128L25.226 5.43228C24.52 5.54528 23.937 5.76828 23.438 6.09228C22.939 6.41628 22.525 6.84028 22.157 7.35428C21.789 7.86828 21.469 8.47428 21.159 9.16028C20.849 9.84628 20.547 10.6133 20.218 11.4523C20.11 11.7283 19.998 12.0133 19.881 12.3073C19.764 12.6013 19.643 12.9023 19.515 13.2103C19.387 13.5183 19.254 13.8343 19.114 14.1553C18.974 14.4763 18.826 14.8043 18.671 15.1353C18.046 16.4703 17.173 17.3843 16.216 18.0043C15.259 18.6243 14.215 18.9503 13.249 19.1083C12.283 19.2663 11.391 19.2573 10.738 19.2083C10.085 19.1593 9.67 19.0693 9.653 19.0653L9.606 19.0543L9.559 19.0433L9.512 19.0323L9.465 19.0213L9.488 18.9783L9.511 18.9353L9.534 18.8923L9.557 18.8493C9.807 18.3703 10.216 17.7303 10.714 17.0083C11.212 16.2863 11.799 15.4833 12.405 14.6783C13.011 13.8723 13.636 13.0643 14.209 12.3333C14.782 11.6023 15.305 10.9473 15.706 10.4473C14.232 11.6563 12.783 13.1973 11.438 14.8303C10.093 16.4633 8.85 18.1893 7.79 19.7673C6.73 21.3453 5.853 22.7763 5.237 23.8183C4.621 24.8603 4.266 25.5153 4.252 25.5423L4.244 25.5573L4.233 25.5743L4.225 25.5893L4.217 25.6043L3.913 25.6793L3.609 25.7563L3.305 25.8333L3 25.9093ZM22.487 5.29828C22.183 5.29828 21.86 5.30328 21.522 5.31428C21.184 5.32528 20.83 5.34328 20.465 5.36928C20.1 5.39528 19.723 5.43028 19.338 5.47528C18.953 5.52028 18.56 5.57528 18.163 5.64228C17.319 5.78428 16.411 5.98928 15.497 6.28328C14.583 6.57728 13.663 6.96028 12.793 7.45928C11.923 7.95828 11.104 8.57328 10.392 9.32928C9.68 10.0853 9.076 10.9843 8.637 12.0513C8.248 12.9953 8.023 13.8033 7.904 14.4843C7.785 15.1653 7.773 15.7193 7.809 16.1553C7.845 16.5913 7.931 16.9103 8.008 17.1213C8.085 17.3323 8.153 17.4343 8.156 17.4383L8.171 17.4593L8.186 17.4803L8.201 17.5013L8.213 17.5223L8.199 17.5433L8.185 17.5643L8.171 17.5853L8.157 17.6063C8.148 17.6203 7.924 17.9633 7.576 18.5083C7.228 19.0533 6.755 19.8013 6.248 20.6253C5.741 21.4493 5.199 22.3493 4.713 23.1983C4.227 24.0473 3.797 24.8473 3.513 25.4693L3.639 25.4373L3.765 25.4053L3.891 25.3733L4.017 25.3413C4.139 25.1183 4.602 24.2823 5.322 23.0853C6.042 21.8883 7.021 20.3323 8.174 18.6683C9.327 17.0043 10.655 15.2353 12.075 13.6123C13.495 11.9893 15.006 10.5143 16.525 9.43928L16.751 9.27928L16.977 9.11928L17.203 8.95928L17.429 8.79928L17.254 9.01328L17.079 9.22728L16.904 9.44128L16.729 9.65528C16.715 9.67228 16.372 10.0923 15.842 10.7533C15.312 11.4143 14.596 12.3153 13.838 13.2953C13.08 14.2753 12.278 15.3323 11.576 16.3043C10.874 17.2763 10.274 18.1653 9.917 18.8053C10.188 18.8503 10.718 18.9233 11.396 18.9353C12.074 18.9473 12.898 18.8973 13.756 18.6993C14.614 18.5013 15.506 18.1523 16.318 17.5663C17.13 16.9803 17.862 16.1553 18.401 15.0053C18.556 14.6753 18.702 14.3503 18.842 14.0303C18.982 13.7103 19.114 13.3963 19.241 13.0893C19.368 12.7823 19.489 12.4823 19.605 12.1893C19.721 11.8963 19.833 11.6123 19.941 11.3373C20.232 10.5953 20.505 9.89928 20.787 9.25928C21.069 8.61928 21.36 8.03828 21.686 7.52428C22.012 7.01028 22.374 6.56528 22.799 6.19828C23.224 5.83128 23.71 5.54528 24.286 5.34928C24.171 5.34228 24.046 5.33428 23.913 5.32828C23.78 5.32228 23.637 5.31528 23.486 5.31028C23.335 5.30528 23.176 5.30028 23.01 5.29828C22.844 5.29628 22.668 5.29828 22.487 5.29828Z" fill="#4D4D4D"/>
</svg>
