<svg width="132" height="30" viewBox="0 0 132 30" fill="none" xmlns="http://www.w3.org/2000/svg">
<rect width="132" height="30" fill="white"/>
<path d="M59.9664 9.49105L64.997 23.4891H68.0315L59.9155 2L51.8474 23.4891H54.8819L59.9664 9.49105Z" fill="black"/>
<path d="M86.7858 9.99341H84.0706V23.489H86.7858V9.99341Z" fill="black"/>
<path d="M103.913 9.99341H101.197V23.489H103.913V9.99341Z" fill="black"/>
<path d="M107.07 9.99353H105.713V12.0695H107.07V20.1619C107.075 20.8717 107.221 21.4754 107.501 21.9718C107.78 22.4642 108.166 22.841 108.654 23.0981C109.146 23.3558 109.71 23.4891 110.344 23.4891H111.755V20.9339H110.744C110.411 20.9386 110.171 20.8634 110.016 20.7076C109.861 20.5523 109.786 20.2905 109.786 19.9225V12.0701H111.755V9.99412H109.786V5.8949L107.07 9.99353Z" fill="black"/>
<path d="M117.654 22.9564L115.531 29.0688H118.205L125 9.99341H122.125L118.931 19.4431H118.878L115.684 9.99341H112.809L117.654 22.9564Z" fill="black"/>
<path fill-rule="evenodd" clip-rule="evenodd" d="M85.4285 4.53687C86.4232 4.53687 87.2301 5.34319 87.2301 6.33852C87.2301 7.33326 86.4232 8.1402 85.4285 8.1402C84.4331 8.1402 83.6262 7.33326 83.6262 6.33852C83.6262 5.34379 84.4331 4.53687 85.4285 4.53687Z" fill="black"/>
<path fill-rule="evenodd" clip-rule="evenodd" d="M102.555 4.53687C103.55 4.53687 104.357 5.34319 104.357 6.33852C104.357 7.33326 103.55 8.1402 102.555 8.1402C101.56 8.1402 100.754 7.33326 100.754 6.33852C100.754 5.34379 101.56 4.53687 102.555 4.53687Z" fill="black"/>
<path fill-rule="evenodd" clip-rule="evenodd" d="M7 4.53687V23.1371H20.0548V23.0624C19.1744 22.1637 18.4706 21.0908 18.0014 19.9005H10.5026V4.53687H7Z" fill="black"/>
<path fill-rule="evenodd" clip-rule="evenodd" d="M26.8349 9.35242C30.7374 9.35242 33.9029 12.5179 33.9029 16.4204C33.9029 16.7232 33.884 17.02 33.8472 17.3127H33.1535H30.8139H26.9913L30.7439 15.2604C30.2439 13.5743 28.6828 12.3437 26.8349 12.3437C24.5836 12.3437 22.7576 14.1697 22.7576 16.421C22.7576 18.6724 24.5836 20.4989 26.8349 20.4989C28.1964 20.4989 29.402 19.8306 30.1426 18.8051H33.4906C32.5124 21.5357 29.9015 23.4897 26.8355 23.4897C22.933 23.4897 19.7675 20.3242 19.7675 16.421C19.7669 12.5185 22.9324 9.35242 26.8349 9.35242Z" fill="black"/>
<path fill-rule="evenodd" clip-rule="evenodd" d="M42.0102 9.35238C38.1076 9.35238 34.9421 12.5179 34.9421 16.4204C34.9421 16.7231 34.9611 17.02 34.9978 17.3127H38.0312C37.9666 17.0253 37.9335 16.7273 37.9335 16.4204C37.9335 14.1691 39.7594 12.3431 42.0108 12.3431C43.771 12.3431 45.2711 13.4593 45.8416 15.0222V17.818C45.2711 19.3809 43.771 20.4977 42.0108 20.4977C40.6493 20.4977 39.4436 19.8294 38.7031 18.8039H35.3551C36.3332 21.5345 38.9436 23.4884 42.0102 23.4884C43.422 23.4884 44.7373 23.0743 45.841 22.3598V23.1365H49.0776V16.421V4.5896H45.841V10.4804C44.7373 9.76768 43.422 9.35238 42.0102 9.35238Z" fill="black"/>
<path d="M69.4629 23.4879V12.0801L65.3471 10.0006H69.4629V8.21434C69.4718 7.37008 69.6318 6.6769 69.947 6.1348C70.2675 5.5927 70.7023 5.18864 71.2539 4.92618C71.8049 4.66372 72.4353 4.53516 73.1421 4.53516H74.9017V7.09518H73.3554C72.9199 7.09044 72.6184 7.17043 72.44 7.34402C72.2617 7.51761 72.1776 7.80612 72.1823 8.21492V10.0012H74.9017V12.0807H72.1823V23.4885H69.4629V23.4879Z" fill="black"/>
<path d="M76.1316 23.4879V12.0801H74.7714V10.0006H76.1316V8.21434C76.1405 7.37008 76.3005 6.6769 76.6157 6.1348C76.9356 5.5927 77.3711 5.18864 77.9221 4.92618C78.473 4.66372 79.1034 4.53516 79.8102 4.53516H81.5704V7.09518H80.0241C79.5886 7.09044 79.2865 7.17043 79.1082 7.34402C78.9304 7.51761 78.8463 7.80612 78.8504 8.21492V10.0012H82.6576L78.8504 12.0807V23.4885H76.1316V23.4879Z" fill="black"/>
<path fill-rule="evenodd" clip-rule="evenodd" d="M88.5875 23.489H91.2565V12.5623H96.6591V23.489H99.3287V9.99341H88.5875V23.489Z" fill="black"/>
</svg>
