<svg width="30" height="30" viewBox="0 0 30 30" fill="none" xmlns="http://www.w3.org/2000/svg">
<rect width="30" height="30" fill="white"/>
<path d="M30 30H22.5H15H7.5H0V22.5003V15.0005V7.49975V0H7.5H15H22.5H30V7.49975V14.9995V22.4992V30ZM0.252287 29.7477H7.62614H15H22.3739H29.7477V22.3741V15.0005V7.62589V0.252279H22.3739H15H7.62614H0.252287V7.62589V14.9995V22.3731V29.7477Z" fill="#4D4D4D"/>
<path d="M30 22V21.9421V21.8843V21.8264V21.7685C28.8439 21.3235 27.6602 20.9279 26.4529 20.5844C25.2446 20.241 24.0117 19.9507 22.7583 19.7163C21.5049 19.482 20.2279 19.3027 18.9345 19.1822C17.6401 19.0617 16.3282 19 15 19C13.6718 19 12.3589 19.0617 11.0655 19.1822C9.77111 19.3027 8.49515 19.482 7.24173 19.7163C5.98832 19.9507 4.7554 20.2419 3.54708 20.5844C2.33875 20.9279 1.15605 21.3235 0 21.7685V21.8264V21.8843V21.9421V22C1.15503 21.5522 2.33773 21.1546 3.54605 20.8093C4.75335 20.4639 5.98627 20.1717 7.24071 19.9364C8.49515 19.7011 9.77111 19.5199 11.0655 19.3994C12.3599 19.278 13.6728 19.2163 15.002 19.2163C16.3303 19.2163 17.6431 19.278 18.9376 19.3994C20.232 19.5209 21.5079 19.7011 22.7624 19.9364C24.0168 20.1717 25.2487 20.4649 26.457 20.8093C27.6612 21.1546 28.845 21.5522 30 22Z" fill="#4D4D4D"/>
<path d="M10.9427 4.995L10.9127 4.54C10.876 4.62 10.8277 4.69333 10.7677 4.76C10.711 4.82333 10.6443 4.87833 10.5677 4.925C10.4943 4.96833 10.4143 5.00167 10.3277 5.025C10.241 5.04833 10.1543 5.06 10.0677 5.06C9.77768 5.06 9.55768 4.97833 9.40768 4.815C9.26101 4.65167 9.18768 4.42833 9.18768 4.145V2.495H9.43768V4.13C9.43768 4.35 9.48768 4.52 9.58768 4.64C9.68768 4.75667 9.85268 4.815 10.0827 4.815C10.236 4.815 10.366 4.785 10.4727 4.725C10.5793 4.665 10.6643 4.585 10.7277 4.485C10.7943 4.385 10.841 4.27167 10.8677 4.145C10.8977 4.015 10.9127 3.88167 10.9127 3.745V2.495H11.1627V4.995H10.9427ZM14.0527 3.75C14.0527 3.57 14.026 3.40167 13.9727 3.245C13.9227 3.08833 13.8394 2.95833 13.7227 2.855C13.6594 2.79833 13.5877 2.755 13.5077 2.725C13.4277 2.695 13.3344 2.68 13.2277 2.68C13.1177 2.68 13.021 2.69833 12.9377 2.735C12.8544 2.77167 12.781 2.82 12.7177 2.88C12.6044 2.99 12.5227 3.12 12.4727 3.27C12.4227 3.41667 12.3977 3.57667 12.3977 3.75C12.3977 3.93667 12.421 4.10333 12.4677 4.25C12.5144 4.39333 12.596 4.51833 12.7127 4.625C12.776 4.685 12.8494 4.73333 12.9327 4.77C13.0194 4.80333 13.121 4.82 13.2377 4.82C13.3544 4.82 13.456 4.8 13.5427 4.76C13.6294 4.72 13.706 4.66667 13.7727 4.6C13.8694 4.49333 13.9394 4.365 13.9827 4.215C14.0294 4.065 14.0527 3.91 14.0527 3.75ZM14.3077 3.745C14.3077 3.95167 14.276 4.14833 14.2127 4.335C14.1494 4.52167 14.051 4.67833 13.9177 4.805C13.8344 4.885 13.736 4.94833 13.6227 4.995C13.5127 5.04167 13.3844 5.065 13.2377 5.065C13.1477 5.065 13.0594 5.05333 12.9727 5.03C12.8894 5.00667 12.811 4.97333 12.7377 4.93C12.6644 4.88667 12.5977 4.835 12.5377 4.775C12.481 4.715 12.436 4.65 12.4027 4.58V6H12.1527V2.5H12.3727L12.4027 2.94C12.436 2.86333 12.4827 2.79333 12.5427 2.73C12.6027 2.66667 12.6694 2.61333 12.7427 2.57C12.816 2.52667 12.8944 2.49333 12.9777 2.47C13.0644 2.44667 13.1494 2.435 13.2327 2.435C13.376 2.435 13.501 2.45667 13.6077 2.5C13.7177 2.54 13.8144 2.59667 13.8977 2.67C14.0377 2.79333 14.141 2.95 14.2077 3.14C14.2744 3.32667 14.3077 3.52833 14.3077 3.745ZM17.3319 4.975C17.2619 4.99167 17.1919 5.005 17.1219 5.015C17.0552 5.02833 16.9869 5.035 16.9169 5.035C16.6835 5.035 16.5169 4.96833 16.4169 4.835C16.3202 4.69833 16.2719 4.52167 16.2719 4.305V2.73H15.7719V2.5H16.2719V1.81L16.5219 1.75V2.5H17.2969V2.73H16.5219V4.295C16.5219 4.36833 16.5269 4.43667 16.5369 4.5C16.5502 4.56 16.5719 4.61333 16.6019 4.66C16.6352 4.70333 16.6785 4.73833 16.7319 4.765C16.7852 4.78833 16.8535 4.8 16.9369 4.8C17.0035 4.8 17.0685 4.79667 17.1319 4.79C17.1985 4.78 17.2652 4.76833 17.3319 4.755V4.975ZM19.6486 3.75C19.6486 3.58667 19.6303 3.43333 19.5936 3.29C19.5569 3.14667 19.4819 3.01667 19.3686 2.9C19.3019 2.83333 19.2236 2.78 19.1336 2.74C19.0436 2.7 18.9386 2.68 18.8186 2.68C18.6986 2.68 18.5936 2.7 18.5036 2.74C18.4136 2.78 18.3353 2.83333 18.2686 2.9C18.1553 3.01667 18.0803 3.14667 18.0436 3.29C18.0069 3.43333 17.9886 3.58667 17.9886 3.75C17.9886 3.91333 18.0069 4.06667 18.0436 4.21C18.0803 4.35333 18.1553 4.48333 18.2686 4.6C18.3353 4.66667 18.4136 4.72 18.5036 4.76C18.5936 4.8 18.6986 4.82 18.8186 4.82C18.9386 4.82 19.0436 4.8 19.1336 4.76C19.2236 4.72 19.3019 4.66667 19.3686 4.6C19.4819 4.48333 19.5569 4.35333 19.5936 4.21C19.6303 4.06667 19.6486 3.91333 19.6486 3.75ZM19.9036 3.75C19.9036 3.96333 19.8769 4.15333 19.8236 4.32C19.7703 4.48667 19.6786 4.635 19.5486 4.765C19.4619 4.85167 19.3569 4.92333 19.2336 4.98C19.1136 5.03667 18.9753 5.065 18.8186 5.065C18.6619 5.065 18.5219 5.03667 18.3986 4.98C18.2786 4.92333 18.1753 4.85167 18.0886 4.765C17.9586 4.635 17.8669 4.48667 17.8136 4.32C17.7603 4.15333 17.7336 3.96333 17.7336 3.75C17.7336 3.53667 17.7603 3.34667 17.8136 3.18C17.8669 3.01333 17.9586 2.865 18.0886 2.735C18.1753 2.64833 18.2786 2.57667 18.3986 2.52C18.5219 2.46333 18.6619 2.435 18.8186 2.435C18.9753 2.435 19.1136 2.46333 19.2336 2.52C19.3569 2.57667 19.4619 2.64833 19.5486 2.735C19.6786 2.865 19.7703 3.01333 19.8236 3.18C19.8769 3.34667 19.9036 3.53667 19.9036 3.75ZM7.4975 11V10.5L8.8525 8.885C8.9125 8.815 8.9575 8.74167 8.9875 8.665C9.0175 8.585 9.0325 8.51 9.0325 8.44C9.0325 8.31667 8.99417 8.21333 8.9175 8.13C8.84417 8.04667 8.73583 8.005 8.5925 8.005C8.4425 8.005 8.3275 8.05333 8.2475 8.15C8.1675 8.24667 8.1275 8.365 8.1275 8.505H7.4875C7.4875 8.35167 7.5125 8.21167 7.5625 8.085C7.6125 7.955 7.68417 7.84333 7.7775 7.75C7.87083 7.65667 7.98583 7.585 8.1225 7.535C8.25917 7.48167 8.4175 7.455 8.5975 7.455C8.7475 7.455 8.8875 7.47833 9.0175 7.525C9.1475 7.56833 9.26083 7.63333 9.3575 7.72C9.45417 7.80333 9.52917 7.905 9.5825 8.025C9.63917 8.145 9.6675 8.28167 9.6675 8.435C9.6675 8.51167 9.65583 8.58833 9.6325 8.665C9.6125 8.74167 9.58417 8.81667 9.5475 8.89C9.51417 8.96 9.47417 9.02833 9.4275 9.095C9.38417 9.16167 9.3375 9.225 9.2875 9.285L8.3275 10.435H9.7175V11H7.4975ZM12.7041 9.82C12.7041 10.0033 12.6774 10.1717 12.6241 10.325C12.5707 10.4783 12.4924 10.61 12.3891 10.72C12.2857 10.83 12.1591 10.9167 12.0091 10.98C11.8591 11.04 11.6874 11.07 11.4941 11.07C11.3207 11.07 11.1624 11.045 11.0191 10.995C10.8757 10.9417 10.7507 10.8683 10.6441 10.775C10.5407 10.6783 10.4574 10.5633 10.3941 10.43C10.3341 10.2967 10.2991 10.1483 10.2891 9.985H10.9141C10.9207 10.1583 10.9774 10.29 11.0841 10.38C11.1941 10.47 11.3324 10.515 11.4991 10.515C11.6024 10.515 11.6907 10.4983 11.7641 10.465C11.8374 10.4283 11.8957 10.38 11.9391 10.32C11.9857 10.2567 12.0191 10.1833 12.0391 10.1C12.0591 10.0167 12.0691 9.92833 12.0691 9.835C12.0691 9.65167 12.0241 9.50167 11.9341 9.385C11.8441 9.265 11.6991 9.205 11.4991 9.205C11.3957 9.205 11.2974 9.23 11.2041 9.28C11.1107 9.33 11.0357 9.39833 10.9791 9.485H10.3641L10.4391 7.525H12.5491V8.085H10.9791L10.9391 8.88C11.0191 8.80333 11.1141 8.74667 11.2241 8.71C11.3374 8.67333 11.4724 8.655 11.6291 8.655C11.8024 8.655 11.9557 8.685 12.0891 8.745C12.2257 8.805 12.3391 8.88667 12.4291 8.99C12.5191 9.09333 12.5874 9.21667 12.6341 9.36C12.6807 9.50333 12.7041 9.65667 12.7041 9.82ZM13.2406 11V10.22H14.0006V11H13.2406ZM16.9078 9.26C16.9078 9.40333 16.9028 9.545 16.8928 9.685C16.8828 9.825 16.8628 9.96 16.8328 10.09C16.8061 10.22 16.7645 10.3417 16.7078 10.455C16.6545 10.5683 16.5828 10.6683 16.4928 10.755C16.4028 10.8417 16.2928 10.915 16.1628 10.975C16.0328 11.035 15.8728 11.065 15.6828 11.065C15.4928 11.065 15.3328 11.035 15.2028 10.975C15.0728 10.915 14.9628 10.8417 14.8728 10.755C14.7828 10.6683 14.7095 10.5683 14.6528 10.455C14.5995 10.3417 14.5578 10.22 14.5278 10.09C14.5011 9.96 14.4828 9.825 14.4728 9.685C14.4628 9.545 14.4578 9.40333 14.4578 9.26C14.4578 9.11667 14.4628 8.975 14.4728 8.835C14.4828 8.695 14.5011 8.56 14.5278 8.43C14.5578 8.3 14.5995 8.17833 14.6528 8.065C14.7095 7.95167 14.7828 7.85167 14.8728 7.765C14.9628 7.67833 15.0728 7.605 15.2028 7.545C15.3328 7.485 15.4928 7.455 15.6828 7.455C15.8728 7.455 16.0328 7.485 16.1628 7.545C16.2928 7.605 16.4028 7.67833 16.4928 7.765C16.5828 7.85167 16.6545 7.95167 16.7078 8.065C16.7645 8.17833 16.8061 8.3 16.8328 8.43C16.8628 8.56 16.8828 8.695 16.8928 8.835C16.9028 8.975 16.9078 9.11667 16.9078 9.26ZM16.2728 9.045C16.2728 8.935 16.2678 8.82 16.2578 8.7C16.2478 8.58 16.2228 8.47167 16.1828 8.375C16.1428 8.275 16.0828 8.19333 16.0028 8.13C15.9261 8.06667 15.8195 8.035 15.6828 8.035C15.5461 8.035 15.4378 8.06667 15.3578 8.13C15.2811 8.19333 15.2228 8.275 15.1828 8.375C15.1428 8.47167 15.1178 8.58 15.1078 8.7C15.0978 8.82 15.0928 8.935 15.0928 9.045V9.475C15.0928 9.585 15.0978 9.7 15.1078 9.82C15.1178 9.94 15.1428 10.05 15.1828 10.15C15.2228 10.2467 15.2811 10.3267 15.3578 10.39C15.4378 10.4533 15.5461 10.485 15.6828 10.485C15.8195 10.485 15.9261 10.4533 16.0028 10.39C16.0828 10.3267 16.1428 10.2467 16.1828 10.15C16.2228 10.05 16.2478 9.94 16.2578 9.82C16.2678 9.7 16.2728 9.585 16.2728 9.475V9.045ZM19.7594 9.26C19.7594 9.40333 19.7544 9.545 19.7444 9.685C19.7344 9.825 19.7144 9.96 19.6844 10.09C19.6577 10.22 19.616 10.3417 19.5594 10.455C19.506 10.5683 19.4344 10.6683 19.3444 10.755C19.2544 10.8417 19.1444 10.915 19.0144 10.975C18.8844 11.035 18.7244 11.065 18.5344 11.065C18.3444 11.065 18.1844 11.035 18.0544 10.975C17.9244 10.915 17.8144 10.8417 17.7244 10.755C17.6344 10.6683 17.561 10.5683 17.5044 10.455C17.451 10.3417 17.4094 10.22 17.3794 10.09C17.3527 9.96 17.3344 9.825 17.3244 9.685C17.3144 9.545 17.3094 9.40333 17.3094 9.26C17.3094 9.11667 17.3144 8.975 17.3244 8.835C17.3344 8.695 17.3527 8.56 17.3794 8.43C17.4094 8.3 17.451 8.17833 17.5044 8.065C17.561 7.95167 17.6344 7.85167 17.7244 7.765C17.8144 7.67833 17.9244 7.605 18.0544 7.545C18.1844 7.485 18.3444 7.455 18.5344 7.455C18.7244 7.455 18.8844 7.485 19.0144 7.545C19.1444 7.605 19.2544 7.67833 19.3444 7.765C19.4344 7.85167 19.506 7.95167 19.5594 8.065C19.616 8.17833 19.6577 8.3 19.6844 8.43C19.7144 8.56 19.7344 8.695 19.7444 8.835C19.7544 8.975 19.7594 9.11667 19.7594 9.26ZM19.1244 9.045C19.1244 8.935 19.1194 8.82 19.1094 8.7C19.0994 8.58 19.0744 8.47167 19.0344 8.375C18.9944 8.275 18.9344 8.19333 18.8544 8.13C18.7777 8.06667 18.671 8.035 18.5344 8.035C18.3977 8.035 18.2894 8.06667 18.2094 8.13C18.1327 8.19333 18.0744 8.275 18.0344 8.375C17.9944 8.47167 17.9694 8.58 17.9594 8.7C17.9494 8.82 17.9444 8.935 17.9444 9.045V9.475C17.9444 9.585 17.9494 9.7 17.9594 9.82C17.9694 9.94 17.9944 10.05 18.0344 10.15C18.0744 10.2467 18.1327 10.3267 18.2094 10.39C18.2894 10.4533 18.3977 10.485 18.5344 10.485C18.671 10.485 18.7777 10.4533 18.8544 10.39C18.9344 10.3267 18.9944 10.2467 19.0344 10.15C19.0744 10.05 19.0994 9.94 19.1094 9.82C19.1194 9.7 19.1244 9.585 19.1244 9.475V9.045ZM22.6109 9.26C22.6109 9.40333 22.6059 9.545 22.5959 9.685C22.5859 9.825 22.5659 9.96 22.5359 10.09C22.5093 10.22 22.4676 10.3417 22.4109 10.455C22.3576 10.5683 22.2859 10.6683 22.1959 10.755C22.1059 10.8417 21.9959 10.915 21.8659 10.975C21.7359 11.035 21.5759 11.065 21.3859 11.065C21.1959 11.065 21.0359 11.035 20.9059 10.975C20.7759 10.915 20.6659 10.8417 20.5759 10.755C20.4859 10.6683 20.4126 10.5683 20.3559 10.455C20.3026 10.3417 20.2609 10.22 20.2309 10.09C20.2043 9.96 20.1859 9.825 20.1759 9.685C20.1659 9.545 20.1609 9.40333 20.1609 9.26C20.1609 9.11667 20.1659 8.975 20.1759 8.835C20.1859 8.695 20.2043 8.56 20.2309 8.43C20.2609 8.3 20.3026 8.17833 20.3559 8.065C20.4126 7.95167 20.4859 7.85167 20.5759 7.765C20.6659 7.67833 20.7759 7.605 20.9059 7.545C21.0359 7.485 21.1959 7.455 21.3859 7.455C21.5759 7.455 21.7359 7.485 21.8659 7.545C21.9959 7.605 22.1059 7.67833 22.1959 7.765C22.2859 7.85167 22.3576 7.95167 22.4109 8.065C22.4676 8.17833 22.5093 8.3 22.5359 8.43C22.5659 8.56 22.5859 8.695 22.5959 8.835C22.6059 8.975 22.6109 9.11667 22.6109 9.26ZM21.9759 9.045C21.9759 8.935 21.9709 8.82 21.9609 8.7C21.9509 8.58 21.9259 8.47167 21.8859 8.375C21.8459 8.275 21.7859 8.19333 21.7059 8.13C21.6293 8.06667 21.5226 8.035 21.3859 8.035C21.2493 8.035 21.1409 8.06667 21.0609 8.13C20.9843 8.19333 20.9259 8.275 20.8859 8.375C20.8459 8.47167 20.8209 8.58 20.8109 8.7C20.8009 8.82 20.7959 8.935 20.7959 9.045V9.475C20.7959 9.585 20.8009 9.7 20.8109 9.82C20.8209 9.94 20.8459 10.05 20.8859 10.15C20.9259 10.2467 20.9843 10.3267 21.0609 10.39C21.1409 10.4533 21.2493 10.485 21.3859 10.485C21.5226 10.485 21.6293 10.4533 21.7059 10.39C21.7859 10.3267 21.8459 10.2467 21.8859 10.15C21.9259 10.05 21.9509 9.94 21.9609 9.82C21.9709 9.7 21.9759 9.585 21.9759 9.475V9.045ZM10.7332 17V15.365C10.7332 15.145 10.6832 14.975 10.5832 14.855C10.4832 14.7317 10.3182 14.67 10.0882 14.67C9.93485 14.67 9.80485 14.7017 9.69818 14.765C9.59152 14.825 9.50485 14.9067 9.43818 15.01C9.37485 15.11 9.32818 15.225 9.29818 15.355C9.27152 15.485 9.25818 15.6167 9.25818 15.75V17H9.00818V13.39H9.25818V14.96C9.29152 14.88 9.33818 14.8083 9.39818 14.745C9.45818 14.6783 9.52485 14.6233 9.59818 14.58C9.67485 14.5333 9.75652 14.4983 9.84318 14.475C9.92985 14.4483 10.0165 14.435 10.1032 14.435C10.3932 14.435 10.6115 14.5167 10.7582 14.68C10.9082 14.8433 10.9832 15.0667 10.9832 15.35V17H10.7332ZM13.6232 15.75C13.6232 15.5867 13.6049 15.4333 13.5682 15.29C13.5316 15.1467 13.4566 15.0167 13.3432 14.9C13.2766 14.8333 13.1982 14.78 13.1082 14.74C13.0182 14.7 12.9132 14.68 12.7932 14.68C12.6732 14.68 12.5682 14.7 12.4782 14.74C12.3882 14.78 12.3099 14.8333 12.2432 14.9C12.1299 15.0167 12.0549 15.1467 12.0182 15.29C11.9816 15.4333 11.9632 15.5867 11.9632 15.75C11.9632 15.9133 11.9816 16.0667 12.0182 16.21C12.0549 16.3533 12.1299 16.4833 12.2432 16.6C12.3099 16.6667 12.3882 16.72 12.4782 16.76C12.5682 16.8 12.6732 16.82 12.7932 16.82C12.9132 16.82 13.0182 16.8 13.1082 16.76C13.1982 16.72 13.2766 16.6667 13.3432 16.6C13.4566 16.4833 13.5316 16.3533 13.5682 16.21C13.6049 16.0667 13.6232 15.9133 13.6232 15.75ZM13.8782 15.75C13.8782 15.9633 13.8516 16.1533 13.7982 16.32C13.7449 16.4867 13.6532 16.635 13.5232 16.765C13.4366 16.8517 13.3316 16.9233 13.2082 16.98C13.0882 17.0367 12.9499 17.065 12.7932 17.065C12.6366 17.065 12.4966 17.0367 12.3732 16.98C12.2532 16.9233 12.1499 16.8517 12.0632 16.765C11.9332 16.635 11.8416 16.4867 11.7882 16.32C11.7349 16.1533 11.7082 15.9633 11.7082 15.75C11.7082 15.5367 11.7349 15.3467 11.7882 15.18C11.8416 15.0133 11.9332 14.865 12.0632 14.735C12.1499 14.6483 12.2532 14.5767 12.3732 14.52C12.4966 14.4633 12.6366 14.435 12.7932 14.435C12.9499 14.435 13.0882 14.4633 13.2082 14.52C13.3316 14.5767 13.4366 14.6483 13.5232 14.735C13.6532 14.865 13.7449 15.0133 13.7982 15.18C13.8516 15.3467 13.8782 15.5367 13.8782 15.75ZM16.3577 16.995L16.3277 16.54C16.291 16.62 16.2427 16.6933 16.1827 16.76C16.126 16.8233 16.0594 16.8783 15.9827 16.925C15.9094 16.9683 15.8294 17.0017 15.7427 17.025C15.656 17.0483 15.5694 17.06 15.4827 17.06C15.1927 17.06 14.9727 16.9783 14.8227 16.815C14.676 16.6517 14.6027 16.4283 14.6027 16.145V14.495H14.8527V16.13C14.8527 16.35 14.9027 16.52 15.0027 16.64C15.1027 16.7567 15.2677 16.815 15.4977 16.815C15.651 16.815 15.781 16.785 15.8877 16.725C15.9944 16.665 16.0794 16.585 16.1427 16.485C16.2094 16.385 16.256 16.2717 16.2827 16.145C16.3127 16.015 16.3277 15.8817 16.3277 15.745V14.495H16.5777V16.995H16.3577ZM18.8578 14.74C18.8178 14.73 18.7761 14.7233 18.7328 14.72C18.6928 14.7167 18.6528 14.715 18.6128 14.715C18.4561 14.715 18.3261 14.7467 18.2228 14.81C18.1228 14.8733 18.0428 14.9567 17.9828 15.06C17.9228 15.1633 17.8794 15.28 17.8528 15.41C17.8294 15.54 17.8178 15.67 17.8178 15.8V17H17.5678V14.5H17.7878L17.8178 15.005C17.8744 14.8317 17.9761 14.7 18.1228 14.61C18.2728 14.52 18.4361 14.475 18.6128 14.475C18.6528 14.475 18.6928 14.4767 18.7328 14.48C18.7761 14.48 18.8178 14.4833 18.8578 14.49V14.74ZM21.2082 16.305C21.2082 16.4817 21.1516 16.635 21.0382 16.765C20.9482 16.865 20.8316 16.94 20.6882 16.99C20.5482 17.04 20.3949 17.065 20.2282 17.065C20.0582 17.065 19.9032 17.0383 19.7632 16.985C19.6232 16.9317 19.5049 16.8517 19.4082 16.745C19.3382 16.665 19.2866 16.5867 19.2532 16.51C19.2232 16.4333 19.2049 16.3433 19.1982 16.24H19.4532C19.4666 16.3867 19.5282 16.515 19.6382 16.625C19.7116 16.695 19.7982 16.7467 19.8982 16.78C19.9982 16.81 20.1082 16.825 20.2282 16.825C20.3582 16.825 20.4732 16.81 20.5732 16.78C20.6732 16.75 20.7549 16.7033 20.8182 16.64C20.8649 16.5933 20.8982 16.5467 20.9182 16.5C20.9416 16.4533 20.9532 16.3933 20.9532 16.32C20.9532 16.2067 20.9132 16.1083 20.8332 16.025C20.7566 15.9383 20.6432 15.885 20.4932 15.865L20.0082 15.8C19.9049 15.7867 19.8016 15.7617 19.6982 15.725C19.5982 15.6883 19.5132 15.63 19.4432 15.55C19.3499 15.44 19.3032 15.3083 19.3032 15.155C19.3032 15.055 19.3216 14.965 19.3582 14.885C19.3982 14.8017 19.4516 14.73 19.5182 14.67C19.6082 14.5867 19.7116 14.5267 19.8282 14.49C19.9482 14.4533 20.0732 14.435 20.2032 14.435C20.3532 14.435 20.4949 14.46 20.6282 14.51C20.7616 14.5567 20.8716 14.63 20.9582 14.73C21.0149 14.7967 21.0599 14.87 21.0932 14.95C21.1266 15.03 21.1449 15.11 21.1482 15.19H20.8982C20.8916 15.15 20.8782 15.1017 20.8582 15.045C20.8416 14.9883 20.8132 14.9367 20.7732 14.89C20.7166 14.8233 20.6399 14.77 20.5432 14.73C20.4466 14.69 20.3332 14.67 20.2032 14.67C20.0099 14.67 19.8599 14.7083 19.7532 14.785C19.6232 14.8783 19.5582 14.9933 19.5582 15.13C19.5582 15.2367 19.5916 15.3267 19.6582 15.4C19.7249 15.4733 19.8532 15.5233 20.0432 15.55L20.5182 15.615C20.6349 15.6317 20.7366 15.6633 20.8232 15.71C20.9099 15.7533 20.9816 15.8067 21.0382 15.87C21.0949 15.9333 21.1366 16.0033 21.1632 16.08C21.1932 16.1533 21.2082 16.2283 21.2082 16.305Z" fill="#4D4D4D"/>
</svg>
