<svg width="30" height="30" viewBox="0 0 30 30" fill="none" xmlns="http://www.w3.org/2000/svg">
<rect width="30" height="30" fill="white"/>
<path d="M30 30H22.5H15H7.5H0V22.5003V15.0005V7.49975V0H7.5H15H22.5H30V7.49975V14.9995V22.4992V30ZM0.252287 29.7477H7.62614H15H22.3739H29.7477V22.3741V15.0005V7.62589V0.252279H22.3739H15H7.62614H0.252287V7.62589V14.9995V22.3731V29.7477Z" fill="#4D4D4D"/>
<path d="M30 22V21.9421V21.8843V21.8264V21.7685C28.8439 21.3235 27.6602 20.9279 26.4529 20.5844C25.2446 20.241 24.0117 19.9507 22.7583 19.7163C21.5049 19.482 20.2279 19.3027 18.9345 19.1822C17.6401 19.0617 16.3282 19 15 19C13.6718 19 12.3589 19.0617 11.0655 19.1822C9.77111 19.3027 8.49515 19.482 7.24173 19.7163C5.98832 19.9507 4.7554 20.2419 3.54708 20.5844C2.33875 20.9279 1.15605 21.3235 0 21.7685V21.8264V21.8843V21.9421V22C1.15503 21.5522 2.33773 21.1546 3.54605 20.8093C4.75335 20.4639 5.98627 20.1717 7.24071 19.9364C8.49515 19.7011 9.77111 19.5199 11.0655 19.3994C12.3599 19.278 13.6728 19.2163 15.002 19.2163C16.3303 19.2163 17.6431 19.278 18.9376 19.3994C20.232 19.5209 21.5079 19.7011 22.7624 19.9364C24.0168 20.1717 25.2487 20.4649 26.457 20.8093C27.6612 21.1546 28.845 21.5522 30 22Z" fill="#4D4D4D"/>
<path d="M10.9427 4.995L10.9127 4.54C10.876 4.62 10.8277 4.69333 10.7677 4.76C10.711 4.82333 10.6443 4.87833 10.5677 4.925C10.4943 4.96833 10.4143 5.00167 10.3277 5.025C10.241 5.04833 10.1543 5.06 10.0677 5.06C9.77768 5.06 9.55768 4.97833 9.40768 4.815C9.26101 4.65167 9.18768 4.42833 9.18768 4.145V2.495H9.43768V4.13C9.43768 4.35 9.48768 4.52 9.58768 4.64C9.68768 4.75667 9.85268 4.815 10.0827 4.815C10.236 4.815 10.366 4.785 10.4727 4.725C10.5793 4.665 10.6643 4.585 10.7277 4.485C10.7943 4.385 10.841 4.27167 10.8677 4.145C10.8977 4.015 10.9127 3.88167 10.9127 3.745V2.495H11.1627V4.995H10.9427ZM14.0527 3.75C14.0527 3.57 14.026 3.40167 13.9727 3.245C13.9227 3.08833 13.8394 2.95833 13.7227 2.855C13.6594 2.79833 13.5877 2.755 13.5077 2.725C13.4277 2.695 13.3344 2.68 13.2277 2.68C13.1177 2.68 13.021 2.69833 12.9377 2.735C12.8544 2.77167 12.781 2.82 12.7177 2.88C12.6044 2.99 12.5227 3.12 12.4727 3.27C12.4227 3.41667 12.3977 3.57667 12.3977 3.75C12.3977 3.93667 12.421 4.10333 12.4677 4.25C12.5144 4.39333 12.596 4.51833 12.7127 4.625C12.776 4.685 12.8494 4.73333 12.9327 4.77C13.0194 4.80333 13.121 4.82 13.2377 4.82C13.3544 4.82 13.456 4.8 13.5427 4.76C13.6294 4.72 13.706 4.66667 13.7727 4.6C13.8694 4.49333 13.9394 4.365 13.9827 4.215C14.0294 4.065 14.0527 3.91 14.0527 3.75ZM14.3077 3.745C14.3077 3.95167 14.276 4.14833 14.2127 4.335C14.1494 4.52167 14.051 4.67833 13.9177 4.805C13.8344 4.885 13.736 4.94833 13.6227 4.995C13.5127 5.04167 13.3844 5.065 13.2377 5.065C13.1477 5.065 13.0594 5.05333 12.9727 5.03C12.8894 5.00667 12.811 4.97333 12.7377 4.93C12.6644 4.88667 12.5977 4.835 12.5377 4.775C12.481 4.715 12.436 4.65 12.4027 4.58V6H12.1527V2.5H12.3727L12.4027 2.94C12.436 2.86333 12.4827 2.79333 12.5427 2.73C12.6027 2.66667 12.6694 2.61333 12.7427 2.57C12.816 2.52667 12.8944 2.49333 12.9777 2.47C13.0644 2.44667 13.1494 2.435 13.2327 2.435C13.376 2.435 13.501 2.45667 13.6077 2.5C13.7177 2.54 13.8144 2.59667 13.8977 2.67C14.0377 2.79333 14.141 2.95 14.2077 3.14C14.2744 3.32667 14.3077 3.52833 14.3077 3.745ZM17.3319 4.975C17.2619 4.99167 17.1919 5.005 17.1219 5.015C17.0552 5.02833 16.9869 5.035 16.9169 5.035C16.6835 5.035 16.5169 4.96833 16.4169 4.835C16.3202 4.69833 16.2719 4.52167 16.2719 4.305V2.73H15.7719V2.5H16.2719V1.81L16.5219 1.75V2.5H17.2969V2.73H16.5219V4.295C16.5219 4.36833 16.5269 4.43667 16.5369 4.5C16.5502 4.56 16.5719 4.61333 16.6019 4.66C16.6352 4.70333 16.6785 4.73833 16.7319 4.765C16.7852 4.78833 16.8535 4.8 16.9369 4.8C17.0035 4.8 17.0685 4.79667 17.1319 4.79C17.1985 4.78 17.2652 4.76833 17.3319 4.755V4.975ZM19.6486 3.75C19.6486 3.58667 19.6303 3.43333 19.5936 3.29C19.5569 3.14667 19.4819 3.01667 19.3686 2.9C19.3019 2.83333 19.2236 2.78 19.1336 2.74C19.0436 2.7 18.9386 2.68 18.8186 2.68C18.6986 2.68 18.5936 2.7 18.5036 2.74C18.4136 2.78 18.3353 2.83333 18.2686 2.9C18.1553 3.01667 18.0803 3.14667 18.0436 3.29C18.0069 3.43333 17.9886 3.58667 17.9886 3.75C17.9886 3.91333 18.0069 4.06667 18.0436 4.21C18.0803 4.35333 18.1553 4.48333 18.2686 4.6C18.3353 4.66667 18.4136 4.72 18.5036 4.76C18.5936 4.8 18.6986 4.82 18.8186 4.82C18.9386 4.82 19.0436 4.8 19.1336 4.76C19.2236 4.72 19.3019 4.66667 19.3686 4.6C19.4819 4.48333 19.5569 4.35333 19.5936 4.21C19.6303 4.06667 19.6486 3.91333 19.6486 3.75ZM19.9036 3.75C19.9036 3.96333 19.8769 4.15333 19.8236 4.32C19.7703 4.48667 19.6786 4.635 19.5486 4.765C19.4619 4.85167 19.3569 4.92333 19.2336 4.98C19.1136 5.03667 18.9753 5.065 18.8186 5.065C18.6619 5.065 18.5219 5.03667 18.3986 4.98C18.2786 4.92333 18.1753 4.85167 18.0886 4.765C17.9586 4.635 17.8669 4.48667 17.8136 4.32C17.7603 4.15333 17.7336 3.96333 17.7336 3.75C17.7336 3.53667 17.7603 3.34667 17.8136 3.18C17.8669 3.01333 17.9586 2.865 18.0886 2.735C18.1753 2.64833 18.2786 2.57667 18.3986 2.52C18.5219 2.46333 18.6619 2.435 18.8186 2.435C18.9753 2.435 19.1136 2.46333 19.2336 2.52C19.3569 2.57667 19.4619 2.64833 19.5486 2.735C19.6786 2.865 19.7703 3.01333 19.8236 3.18C19.8769 3.34667 19.9036 3.53667 19.9036 3.75ZM9.75041 10.005C9.75041 10.1783 9.71874 10.3317 9.65541 10.465C9.59541 10.595 9.51041 10.705 9.40041 10.795C9.29374 10.885 9.16874 10.9533 9.02541 11C8.88208 11.0433 8.72874 11.065 8.56541 11.065C8.40541 11.065 8.25374 11.04 8.11041 10.99C7.97041 10.94 7.84708 10.8683 7.74041 10.775C7.63708 10.6817 7.55208 10.57 7.48541 10.44C7.42208 10.3067 7.38874 10.1583 7.38541 9.995H8.01041C8.02374 10.165 8.08208 10.295 8.18541 10.385C8.28874 10.4717 8.41708 10.515 8.57041 10.515C8.72708 10.515 8.85708 10.47 8.96041 10.38C9.06708 10.29 9.12041 10.1617 9.12041 9.995C9.12041 9.905 9.10374 9.82667 9.07041 9.76C9.03708 9.69333 8.99208 9.64 8.93541 9.6C8.88208 9.55667 8.81708 9.525 8.74041 9.505C8.66708 9.48167 8.59041 9.47 8.51041 9.47H8.25041V8.925H8.51041C8.68041 8.925 8.81208 8.88833 8.90541 8.815C8.99874 8.74167 9.04541 8.62333 9.04541 8.46C9.04541 8.33333 9.00041 8.22667 8.91041 8.14C8.82374 8.05 8.71041 8.005 8.57041 8.005C8.41374 8.005 8.28541 8.04333 8.18541 8.12C8.08874 8.19667 8.03874 8.315 8.03541 8.475H7.40541C7.40874 8.31167 7.44041 8.16667 7.50041 8.04C7.56374 7.91333 7.64708 7.80667 7.75041 7.72C7.85708 7.63333 7.98041 7.56833 8.12041 7.525C8.26041 7.47833 8.41041 7.455 8.57041 7.455C8.72708 7.455 8.87208 7.47833 9.00541 7.525C9.14208 7.57167 9.26041 7.63833 9.36041 7.725C9.46041 7.81167 9.53874 7.91667 9.59541 8.04C9.65208 8.16 9.68041 8.295 9.68041 8.445C9.68041 8.605 9.63708 8.755 9.55041 8.895C9.46374 9.035 9.34041 9.13333 9.18041 9.19C9.27041 9.21667 9.35041 9.25667 9.42041 9.31C9.49041 9.36333 9.55041 9.42667 9.60041 9.5C9.65041 9.57333 9.68708 9.65333 9.71041 9.74C9.73708 9.82667 9.75041 9.915 9.75041 10.005ZM12.672 9.26C12.672 9.40333 12.667 9.545 12.657 9.685C12.647 9.825 12.627 9.96 12.597 10.09C12.5703 10.22 12.5286 10.3417 12.472 10.455C12.4186 10.5683 12.347 10.6683 12.257 10.755C12.167 10.8417 12.057 10.915 11.927 10.975C11.797 11.035 11.637 11.065 11.447 11.065C11.257 11.065 11.097 11.035 10.967 10.975C10.837 10.915 10.727 10.8417 10.637 10.755C10.547 10.6683 10.4736 10.5683 10.417 10.455C10.3636 10.3417 10.322 10.22 10.292 10.09C10.2653 9.96 10.247 9.825 10.237 9.685C10.227 9.545 10.222 9.40333 10.222 9.26C10.222 9.11667 10.227 8.975 10.237 8.835C10.247 8.695 10.2653 8.56 10.292 8.43C10.322 8.3 10.3636 8.17833 10.417 8.065C10.4736 7.95167 10.547 7.85167 10.637 7.765C10.727 7.67833 10.837 7.605 10.967 7.545C11.097 7.485 11.257 7.455 11.447 7.455C11.637 7.455 11.797 7.485 11.927 7.545C12.057 7.605 12.167 7.67833 12.257 7.765C12.347 7.85167 12.4186 7.95167 12.472 8.065C12.5286 8.17833 12.5703 8.3 12.597 8.43C12.627 8.56 12.647 8.695 12.657 8.835C12.667 8.975 12.672 9.11667 12.672 9.26ZM12.037 9.045C12.037 8.935 12.032 8.82 12.022 8.7C12.012 8.58 11.987 8.47167 11.947 8.375C11.907 8.275 11.847 8.19333 11.767 8.13C11.6903 8.06667 11.5836 8.035 11.447 8.035C11.3103 8.035 11.202 8.06667 11.122 8.13C11.0453 8.19333 10.987 8.275 10.947 8.375C10.907 8.47167 10.882 8.58 10.872 8.7C10.862 8.82 10.857 8.935 10.857 9.045V9.475C10.857 9.585 10.862 9.7 10.872 9.82C10.882 9.94 10.907 10.05 10.947 10.15C10.987 10.2467 11.0453 10.3267 11.122 10.39C11.202 10.4533 11.3103 10.485 11.447 10.485C11.5836 10.485 11.6903 10.4533 11.767 10.39C11.847 10.3267 11.907 10.2467 11.947 10.15C11.987 10.05 12.012 9.94 12.022 9.82C12.032 9.7 12.037 9.585 12.037 9.475V9.045ZM13.2577 11V10.22H14.0177V11H13.2577ZM16.9249 9.26C16.9249 9.40333 16.9199 9.545 16.9099 9.685C16.8999 9.825 16.8799 9.96 16.8499 10.09C16.8232 10.22 16.7816 10.3417 16.7249 10.455C16.6716 10.5683 16.5999 10.6683 16.5099 10.755C16.4199 10.8417 16.3099 10.915 16.1799 10.975C16.0499 11.035 15.8899 11.065 15.6999 11.065C15.5099 11.065 15.3499 11.035 15.2199 10.975C15.0899 10.915 14.9799 10.8417 14.8899 10.755C14.7999 10.6683 14.7266 10.5683 14.6699 10.455C14.6166 10.3417 14.5749 10.22 14.5449 10.09C14.5182 9.96 14.4999 9.825 14.4899 9.685C14.4799 9.545 14.4749 9.40333 14.4749 9.26C14.4749 9.11667 14.4799 8.975 14.4899 8.835C14.4999 8.695 14.5182 8.56 14.5449 8.43C14.5749 8.3 14.6166 8.17833 14.6699 8.065C14.7266 7.95167 14.7999 7.85167 14.8899 7.765C14.9799 7.67833 15.0899 7.605 15.2199 7.545C15.3499 7.485 15.5099 7.455 15.6999 7.455C15.8899 7.455 16.0499 7.485 16.1799 7.545C16.3099 7.605 16.4199 7.67833 16.5099 7.765C16.5999 7.85167 16.6716 7.95167 16.7249 8.065C16.7816 8.17833 16.8232 8.3 16.8499 8.43C16.8799 8.56 16.8999 8.695 16.9099 8.835C16.9199 8.975 16.9249 9.11667 16.9249 9.26ZM16.2899 9.045C16.2899 8.935 16.2849 8.82 16.2749 8.7C16.2649 8.58 16.2399 8.47167 16.1999 8.375C16.1599 8.275 16.0999 8.19333 16.0199 8.13C15.9432 8.06667 15.8366 8.035 15.6999 8.035C15.5632 8.035 15.4549 8.06667 15.3749 8.13C15.2982 8.19333 15.2399 8.275 15.1999 8.375C15.1599 8.47167 15.1349 8.58 15.1249 8.7C15.1149 8.82 15.1099 8.935 15.1099 9.045V9.475C15.1099 9.585 15.1149 9.7 15.1249 9.82C15.1349 9.94 15.1599 10.05 15.1999 10.15C15.2399 10.2467 15.2982 10.3267 15.3749 10.39C15.4549 10.4533 15.5632 10.485 15.6999 10.485C15.8366 10.485 15.9432 10.4533 16.0199 10.39C16.0999 10.3267 16.1599 10.2467 16.1999 10.15C16.2399 10.05 16.2649 9.94 16.2749 9.82C16.2849 9.7 16.2899 9.585 16.2899 9.475V9.045ZM19.7765 9.26C19.7765 9.40333 19.7715 9.545 19.7615 9.685C19.7515 9.825 19.7315 9.96 19.7015 10.09C19.6748 10.22 19.6331 10.3417 19.5765 10.455C19.5231 10.5683 19.4515 10.6683 19.3615 10.755C19.2715 10.8417 19.1615 10.915 19.0315 10.975C18.9015 11.035 18.7415 11.065 18.5515 11.065C18.3615 11.065 18.2015 11.035 18.0715 10.975C17.9415 10.915 17.8315 10.8417 17.7415 10.755C17.6515 10.6683 17.5781 10.5683 17.5215 10.455C17.4681 10.3417 17.4265 10.22 17.3965 10.09C17.3698 9.96 17.3515 9.825 17.3415 9.685C17.3315 9.545 17.3265 9.40333 17.3265 9.26C17.3265 9.11667 17.3315 8.975 17.3415 8.835C17.3515 8.695 17.3698 8.56 17.3965 8.43C17.4265 8.3 17.4681 8.17833 17.5215 8.065C17.5781 7.95167 17.6515 7.85167 17.7415 7.765C17.8315 7.67833 17.9415 7.605 18.0715 7.545C18.2015 7.485 18.3615 7.455 18.5515 7.455C18.7415 7.455 18.9015 7.485 19.0315 7.545C19.1615 7.605 19.2715 7.67833 19.3615 7.765C19.4515 7.85167 19.5231 7.95167 19.5765 8.065C19.6331 8.17833 19.6748 8.3 19.7015 8.43C19.7315 8.56 19.7515 8.695 19.7615 8.835C19.7715 8.975 19.7765 9.11667 19.7765 9.26ZM19.1415 9.045C19.1415 8.935 19.1365 8.82 19.1265 8.7C19.1165 8.58 19.0915 8.47167 19.0515 8.375C19.0115 8.275 18.9515 8.19333 18.8715 8.13C18.7948 8.06667 18.6881 8.035 18.5515 8.035C18.4148 8.035 18.3065 8.06667 18.2265 8.13C18.1498 8.19333 18.0915 8.275 18.0515 8.375C18.0115 8.47167 17.9865 8.58 17.9765 8.7C17.9665 8.82 17.9615 8.935 17.9615 9.045V9.475C17.9615 9.585 17.9665 9.7 17.9765 9.82C17.9865 9.94 18.0115 10.05 18.0515 10.15C18.0915 10.2467 18.1498 10.3267 18.2265 10.39C18.3065 10.4533 18.4148 10.485 18.5515 10.485C18.6881 10.485 18.7948 10.4533 18.8715 10.39C18.9515 10.3267 19.0115 10.2467 19.0515 10.15C19.0915 10.05 19.1165 9.94 19.1265 9.82C19.1365 9.7 19.1415 9.585 19.1415 9.475V9.045ZM22.628 9.26C22.628 9.40333 22.623 9.545 22.613 9.685C22.603 9.825 22.583 9.96 22.553 10.09C22.5264 10.22 22.4847 10.3417 22.428 10.455C22.3747 10.5683 22.303 10.6683 22.213 10.755C22.123 10.8417 22.013 10.915 21.883 10.975C21.753 11.035 21.593 11.065 21.403 11.065C21.213 11.065 21.053 11.035 20.923 10.975C20.793 10.915 20.683 10.8417 20.593 10.755C20.503 10.6683 20.4297 10.5683 20.373 10.455C20.3197 10.3417 20.278 10.22 20.248 10.09C20.2214 9.96 20.203 9.825 20.193 9.685C20.183 9.545 20.178 9.40333 20.178 9.26C20.178 9.11667 20.183 8.975 20.193 8.835C20.203 8.695 20.2214 8.56 20.248 8.43C20.278 8.3 20.3197 8.17833 20.373 8.065C20.4297 7.95167 20.503 7.85167 20.593 7.765C20.683 7.67833 20.793 7.605 20.923 7.545C21.053 7.485 21.213 7.455 21.403 7.455C21.593 7.455 21.753 7.485 21.883 7.545C22.013 7.605 22.123 7.67833 22.213 7.765C22.303 7.85167 22.3747 7.95167 22.428 8.065C22.4847 8.17833 22.5264 8.3 22.553 8.43C22.583 8.56 22.603 8.695 22.613 8.835C22.623 8.975 22.628 9.11667 22.628 9.26ZM21.993 9.045C21.993 8.935 21.988 8.82 21.978 8.7C21.968 8.58 21.943 8.47167 21.903 8.375C21.863 8.275 21.803 8.19333 21.723 8.13C21.6464 8.06667 21.5397 8.035 21.403 8.035C21.2664 8.035 21.158 8.06667 21.078 8.13C21.0014 8.19333 20.943 8.275 20.903 8.375C20.863 8.47167 20.838 8.58 20.828 8.7C20.818 8.82 20.813 8.935 20.813 9.045V9.475C20.813 9.585 20.818 9.7 20.828 9.82C20.838 9.94 20.863 10.05 20.903 10.15C20.943 10.2467 21.0014 10.3267 21.078 10.39C21.158 10.4533 21.2664 10.485 21.403 10.485C21.5397 10.485 21.6464 10.4533 21.723 10.39C21.803 10.3267 21.863 10.2467 21.903 10.15C21.943 10.05 21.968 9.94 21.978 9.82C21.988 9.7 21.993 9.585 21.993 9.475V9.045ZM10.7332 17V15.365C10.7332 15.145 10.6832 14.975 10.5832 14.855C10.4832 14.7317 10.3182 14.67 10.0882 14.67C9.93485 14.67 9.80485 14.7017 9.69818 14.765C9.59152 14.825 9.50485 14.9067 9.43818 15.01C9.37485 15.11 9.32818 15.225 9.29818 15.355C9.27152 15.485 9.25818 15.6167 9.25818 15.75V17H9.00818V13.39H9.25818V14.96C9.29152 14.88 9.33818 14.8083 9.39818 14.745C9.45818 14.6783 9.52485 14.6233 9.59818 14.58C9.67485 14.5333 9.75652 14.4983 9.84318 14.475C9.92985 14.4483 10.0165 14.435 10.1032 14.435C10.3932 14.435 10.6115 14.5167 10.7582 14.68C10.9082 14.8433 10.9832 15.0667 10.9832 15.35V17H10.7332ZM13.6232 15.75C13.6232 15.5867 13.6049 15.4333 13.5682 15.29C13.5316 15.1467 13.4566 15.0167 13.3432 14.9C13.2766 14.8333 13.1982 14.78 13.1082 14.74C13.0182 14.7 12.9132 14.68 12.7932 14.68C12.6732 14.68 12.5682 14.7 12.4782 14.74C12.3882 14.78 12.3099 14.8333 12.2432 14.9C12.1299 15.0167 12.0549 15.1467 12.0182 15.29C11.9816 15.4333 11.9632 15.5867 11.9632 15.75C11.9632 15.9133 11.9816 16.0667 12.0182 16.21C12.0549 16.3533 12.1299 16.4833 12.2432 16.6C12.3099 16.6667 12.3882 16.72 12.4782 16.76C12.5682 16.8 12.6732 16.82 12.7932 16.82C12.9132 16.82 13.0182 16.8 13.1082 16.76C13.1982 16.72 13.2766 16.6667 13.3432 16.6C13.4566 16.4833 13.5316 16.3533 13.5682 16.21C13.6049 16.0667 13.6232 15.9133 13.6232 15.75ZM13.8782 15.75C13.8782 15.9633 13.8516 16.1533 13.7982 16.32C13.7449 16.4867 13.6532 16.635 13.5232 16.765C13.4366 16.8517 13.3316 16.9233 13.2082 16.98C13.0882 17.0367 12.9499 17.065 12.7932 17.065C12.6366 17.065 12.4966 17.0367 12.3732 16.98C12.2532 16.9233 12.1499 16.8517 12.0632 16.765C11.9332 16.635 11.8416 16.4867 11.7882 16.32C11.7349 16.1533 11.7082 15.9633 11.7082 15.75C11.7082 15.5367 11.7349 15.3467 11.7882 15.18C11.8416 15.0133 11.9332 14.865 12.0632 14.735C12.1499 14.6483 12.2532 14.5767 12.3732 14.52C12.4966 14.4633 12.6366 14.435 12.7932 14.435C12.9499 14.435 13.0882 14.4633 13.2082 14.52C13.3316 14.5767 13.4366 14.6483 13.5232 14.735C13.6532 14.865 13.7449 15.0133 13.7982 15.18C13.8516 15.3467 13.8782 15.5367 13.8782 15.75ZM16.3577 16.995L16.3277 16.54C16.291 16.62 16.2427 16.6933 16.1827 16.76C16.126 16.8233 16.0594 16.8783 15.9827 16.925C15.9094 16.9683 15.8294 17.0017 15.7427 17.025C15.656 17.0483 15.5694 17.06 15.4827 17.06C15.1927 17.06 14.9727 16.9783 14.8227 16.815C14.676 16.6517 14.6027 16.4283 14.6027 16.145V14.495H14.8527V16.13C14.8527 16.35 14.9027 16.52 15.0027 16.64C15.1027 16.7567 15.2677 16.815 15.4977 16.815C15.651 16.815 15.781 16.785 15.8877 16.725C15.9944 16.665 16.0794 16.585 16.1427 16.485C16.2094 16.385 16.256 16.2717 16.2827 16.145C16.3127 16.015 16.3277 15.8817 16.3277 15.745V14.495H16.5777V16.995H16.3577ZM18.8578 14.74C18.8178 14.73 18.7761 14.7233 18.7328 14.72C18.6928 14.7167 18.6528 14.715 18.6128 14.715C18.4561 14.715 18.3261 14.7467 18.2228 14.81C18.1228 14.8733 18.0428 14.9567 17.9828 15.06C17.9228 15.1633 17.8794 15.28 17.8528 15.41C17.8294 15.54 17.8178 15.67 17.8178 15.8V17H17.5678V14.5H17.7878L17.8178 15.005C17.8744 14.8317 17.9761 14.7 18.1228 14.61C18.2728 14.52 18.4361 14.475 18.6128 14.475C18.6528 14.475 18.6928 14.4767 18.7328 14.48C18.7761 14.48 18.8178 14.4833 18.8578 14.49V14.74ZM21.2082 16.305C21.2082 16.4817 21.1516 16.635 21.0382 16.765C20.9482 16.865 20.8316 16.94 20.6882 16.99C20.5482 17.04 20.3949 17.065 20.2282 17.065C20.0582 17.065 19.9032 17.0383 19.7632 16.985C19.6232 16.9317 19.5049 16.8517 19.4082 16.745C19.3382 16.665 19.2866 16.5867 19.2532 16.51C19.2232 16.4333 19.2049 16.3433 19.1982 16.24H19.4532C19.4666 16.3867 19.5282 16.515 19.6382 16.625C19.7116 16.695 19.7982 16.7467 19.8982 16.78C19.9982 16.81 20.1082 16.825 20.2282 16.825C20.3582 16.825 20.4732 16.81 20.5732 16.78C20.6732 16.75 20.7549 16.7033 20.8182 16.64C20.8649 16.5933 20.8982 16.5467 20.9182 16.5C20.9416 16.4533 20.9532 16.3933 20.9532 16.32C20.9532 16.2067 20.9132 16.1083 20.8332 16.025C20.7566 15.9383 20.6432 15.885 20.4932 15.865L20.0082 15.8C19.9049 15.7867 19.8016 15.7617 19.6982 15.725C19.5982 15.6883 19.5132 15.63 19.4432 15.55C19.3499 15.44 19.3032 15.3083 19.3032 15.155C19.3032 15.055 19.3216 14.965 19.3582 14.885C19.3982 14.8017 19.4516 14.73 19.5182 14.67C19.6082 14.5867 19.7116 14.5267 19.8282 14.49C19.9482 14.4533 20.0732 14.435 20.2032 14.435C20.3532 14.435 20.4949 14.46 20.6282 14.51C20.7616 14.5567 20.8716 14.63 20.9582 14.73C21.0149 14.7967 21.0599 14.87 21.0932 14.95C21.1266 15.03 21.1449 15.11 21.1482 15.19H20.8982C20.8916 15.15 20.8782 15.1017 20.8582 15.045C20.8416 14.9883 20.8132 14.9367 20.7732 14.89C20.7166 14.8233 20.6399 14.77 20.5432 14.73C20.4466 14.69 20.3332 14.67 20.2032 14.67C20.0099 14.67 19.8599 14.7083 19.7532 14.785C19.6232 14.8783 19.5582 14.9933 19.5582 15.13C19.5582 15.2367 19.5916 15.3267 19.6582 15.4C19.7249 15.4733 19.8532 15.5233 20.0432 15.55L20.5182 15.615C20.6349 15.6317 20.7366 15.6633 20.8232 15.71C20.9099 15.7533 20.9816 15.8067 21.0382 15.87C21.0949 15.9333 21.1366 16.0033 21.1632 16.08C21.1932 16.1533 21.2082 16.2283 21.2082 16.305Z" fill="#4D4D4D"/>
</svg>
