<svg width="119" height="56" viewBox="0 0 119 56" fill="none" xmlns="http://www.w3.org/2000/svg">
<path d="M0.539062 5V0.716797H1.44727V4.25H3.18457V5H0.539062ZM3.82324 0.87793C3.82324 0.586914 3.98535 0.441406 4.30957 0.441406C4.63379 0.441406 4.7959 0.586914 4.7959 0.87793C4.7959 1.0166 4.75488 1.125 4.67285 1.20312C4.59277 1.2793 4.47168 1.31738 4.30957 1.31738C3.98535 1.31738 3.82324 1.1709 3.82324 0.87793ZM4.75488 5H3.86133V1.72461H4.75488V5ZM8.71875 5H7.8252V3.08691C7.8252 2.85059 7.7832 2.67383 7.69922 2.55664C7.61523 2.4375 7.48145 2.37793 7.29785 2.37793C7.04785 2.37793 6.86719 2.46191 6.75586 2.62988C6.64453 2.7959 6.58887 3.07227 6.58887 3.45898V5H5.69531V1.72461H6.37793L6.49805 2.14355H6.54785C6.64746 1.98535 6.78418 1.86621 6.95801 1.78613C7.13379 1.7041 7.33301 1.66309 7.55566 1.66309C7.93652 1.66309 8.22559 1.7666 8.42285 1.97363C8.62012 2.17871 8.71875 2.47559 8.71875 2.86426V5ZM10.9951 2.29883C10.8057 2.29883 10.6572 2.35938 10.5498 2.48047C10.4424 2.59961 10.3809 2.76953 10.3652 2.99023H11.6191C11.6152 2.76953 11.5576 2.59961 11.4463 2.48047C11.335 2.35938 11.1846 2.29883 10.9951 2.29883ZM11.1211 5.05859C10.5938 5.05859 10.1816 4.91309 9.88477 4.62207C9.58789 4.33105 9.43945 3.91895 9.43945 3.38574C9.43945 2.83691 9.57617 2.41309 9.84961 2.11426C10.125 1.81348 10.5049 1.66309 10.9893 1.66309C11.4521 1.66309 11.8125 1.79492 12.0703 2.05859C12.3281 2.32227 12.457 2.68652 12.457 3.15137V3.58496H10.3447C10.3545 3.83887 10.4297 4.03711 10.5703 4.17969C10.7109 4.32227 10.9082 4.39355 11.1621 4.39355C11.3594 4.39355 11.5459 4.37305 11.7217 4.33203C11.8975 4.29102 12.0811 4.22559 12.2725 4.13574V4.82715C12.1162 4.90527 11.9492 4.96289 11.7715 5C11.5938 5.03906 11.377 5.05859 11.1211 5.05859ZM16.0723 5.05859C15.0527 5.05859 14.543 4.49902 14.543 3.37988C14.543 2.82324 14.6816 2.39844 14.959 2.10547C15.2363 1.81055 15.6338 1.66309 16.1514 1.66309C16.5303 1.66309 16.8701 1.7373 17.1709 1.88574L16.9072 2.57715C16.7666 2.52051 16.6357 2.47461 16.5146 2.43945C16.3936 2.40234 16.2725 2.38379 16.1514 2.38379C15.6865 2.38379 15.4541 2.71387 15.4541 3.37402C15.4541 4.01465 15.6865 4.33496 16.1514 4.33496C16.3232 4.33496 16.4824 4.3125 16.6289 4.26758C16.7754 4.2207 16.9219 4.14844 17.0684 4.05078V4.81543C16.9238 4.90723 16.7773 4.9707 16.6289 5.00586C16.4824 5.04102 16.2969 5.05859 16.0723 5.05859ZM18.542 3.35645C18.542 3.68066 18.5947 3.92578 18.7002 4.0918C18.8076 4.25781 18.9814 4.34082 19.2217 4.34082C19.46 4.34082 19.6309 4.25879 19.7344 4.09473C19.8398 3.92871 19.8926 3.68262 19.8926 3.35645C19.8926 3.03223 19.8398 2.78906 19.7344 2.62695C19.6289 2.46484 19.4561 2.38379 19.2158 2.38379C18.9775 2.38379 18.8057 2.46484 18.7002 2.62695C18.5947 2.78711 18.542 3.03027 18.542 3.35645ZM20.8066 3.35645C20.8066 3.88965 20.666 4.30664 20.3848 4.60742C20.1035 4.9082 19.7119 5.05859 19.21 5.05859C18.8955 5.05859 18.6182 4.99023 18.3779 4.85352C18.1377 4.71484 17.9531 4.5166 17.8242 4.25879C17.6953 4.00098 17.6309 3.7002 17.6309 3.35645C17.6309 2.82129 17.7705 2.40527 18.0498 2.1084C18.3291 1.81152 18.7217 1.66309 19.2275 1.66309C19.542 1.66309 19.8193 1.73145 20.0596 1.86816C20.2998 2.00488 20.4844 2.20117 20.6133 2.45703C20.7422 2.71289 20.8066 3.0127 20.8066 3.35645ZM22.4385 5H21.5449V0.441406H22.4385V5ZM24.0908 3.35645C24.0908 3.68066 24.1436 3.92578 24.249 4.0918C24.3564 4.25781 24.5303 4.34082 24.7705 4.34082C25.0088 4.34082 25.1797 4.25879 25.2832 4.09473C25.3887 3.92871 25.4414 3.68262 25.4414 3.35645C25.4414 3.03223 25.3887 2.78906 25.2832 2.62695C25.1777 2.46484 25.0049 2.38379 24.7646 2.38379C24.5264 2.38379 24.3545 2.46484 24.249 2.62695C24.1436 2.78711 24.0908 3.03027 24.0908 3.35645ZM26.3555 3.35645C26.3555 3.88965 26.2148 4.30664 25.9336 4.60742C25.6523 4.9082 25.2607 5.05859 24.7588 5.05859C24.4443 5.05859 24.167 4.99023 23.9268 4.85352C23.6865 4.71484 23.502 4.5166 23.373 4.25879C23.2441 4.00098 23.1797 3.7002 23.1797 3.35645C23.1797 2.82129 23.3193 2.40527 23.5986 2.1084C23.8779 1.81152 24.2705 1.66309 24.7764 1.66309C25.0908 1.66309 25.3682 1.73145 25.6084 1.86816C25.8486 2.00488 26.0332 2.20117 26.1621 2.45703C26.291 2.71289 26.3555 3.0127 26.3555 3.35645ZM28.9219 1.66309C29.043 1.66309 29.1436 1.67188 29.2236 1.68945L29.1562 2.52734C29.084 2.50781 28.9961 2.49805 28.8926 2.49805C28.6074 2.49805 28.3848 2.57129 28.2246 2.71777C28.0664 2.86426 27.9873 3.06934 27.9873 3.33301V5H27.0938V1.72461H27.7705L27.9023 2.27539H27.9463C28.0479 2.0918 28.1846 1.94434 28.3564 1.83301C28.5303 1.71973 28.7188 1.66309 28.9219 1.66309ZM29.6924 4.58105C29.6924 4.41699 29.7363 4.29297 29.8242 4.20898C29.9121 4.125 30.04 4.08301 30.208 4.08301C30.3701 4.08301 30.4951 4.12598 30.583 4.21191C30.6729 4.29785 30.7178 4.4209 30.7178 4.58105C30.7178 4.73535 30.6729 4.85742 30.583 4.94727C30.4932 5.03516 30.3682 5.0791 30.208 5.0791C30.0439 5.0791 29.917 5.03613 29.8271 4.9502C29.7373 4.8623 29.6924 4.73926 29.6924 4.58105ZM29.6924 2.16113C29.6924 1.99707 29.7363 1.87305 29.8242 1.78906C29.9121 1.70508 30.04 1.66309 30.208 1.66309C30.3701 1.66309 30.4951 1.70605 30.583 1.79199C30.6729 1.87793 30.7178 2.00098 30.7178 2.16113C30.7178 2.31934 30.6719 2.44238 30.5801 2.53027C30.4902 2.61621 30.3662 2.65918 30.208 2.65918C30.0439 2.65918 29.917 2.61621 29.8271 2.53027C29.7373 2.44434 29.6924 2.32129 29.6924 2.16113ZM35.5459 2.52734L35.4082 3.20703H36.1641V3.81055H35.2939L35.0684 5H34.4238L34.6523 3.81055H34.084L33.8613 5H33.2314L33.4482 3.81055H32.751V3.20703H33.5625L33.7002 2.52734H32.9619V1.91504H33.8086L34.0342 0.722656H34.6758L34.4502 1.91504H35.0303L35.2588 0.722656H35.8887L35.6602 1.91504H36.3633V2.52734H35.5459ZM34.1982 3.20703H34.7725L34.9102 2.52734H34.3359L34.1982 3.20703ZM39.8291 4.1123H39.3135V5H38.4287V4.1123H36.6006V3.48242L38.4785 0.716797H39.3135V3.40918H39.8291V4.1123ZM38.4287 3.40918V2.68262C38.4287 2.56152 38.4336 2.38574 38.4434 2.15527C38.4531 1.9248 38.4609 1.79102 38.4668 1.75391H38.4434C38.3711 1.91406 38.2842 2.07031 38.1826 2.22266L37.3975 3.40918H38.4287ZM44.0186 2.81738C44.0186 3.52246 43.8174 4.0625 43.415 4.4375C43.0146 4.8125 42.4355 5 41.6777 5H40.4648V0.716797H41.8096C42.5088 0.716797 43.0518 0.901367 43.4385 1.27051C43.8252 1.63965 44.0186 2.15527 44.0186 2.81738ZM43.0752 2.84082C43.0752 1.9209 42.6689 1.46094 41.8564 1.46094H41.373V4.25H41.7627C42.6377 4.25 43.0752 3.78027 43.0752 2.84082ZM47.6982 4.1123H47.1826V5H46.2979V4.1123H44.4697V3.48242L46.3477 0.716797H47.1826V3.40918H47.6982V4.1123ZM46.2979 3.40918V2.68262C46.2979 2.56152 46.3027 2.38574 46.3125 2.15527C46.3223 1.9248 46.3301 1.79102 46.3359 1.75391H46.3125C46.2402 1.91406 46.1533 2.07031 46.0518 2.22266L45.2666 3.40918H46.2979ZM51.8877 2.81738C51.8877 3.52246 51.6865 4.0625 51.2842 4.4375C50.8838 4.8125 50.3047 5 49.5469 5H48.334V0.716797H49.6787C50.3779 0.716797 50.9209 0.901367 51.3076 1.27051C51.6943 1.63965 51.8877 2.15527 51.8877 2.81738ZM50.9443 2.84082C50.9443 1.9209 50.5381 1.46094 49.7256 1.46094H49.2422V4.25H49.6318C50.5068 4.25 50.9443 3.78027 50.9443 2.84082ZM55.5674 4.1123H55.0518V5H54.167V4.1123H52.3389V3.48242L54.2168 0.716797H55.0518V3.40918H55.5674V4.1123ZM54.167 3.40918V2.68262C54.167 2.56152 54.1719 2.38574 54.1816 2.15527C54.1914 1.9248 54.1992 1.79102 54.2051 1.75391H54.1816C54.1094 1.91406 54.0225 2.07031 53.9209 2.22266L53.1357 3.40918H54.167ZM59.7568 2.81738C59.7568 3.52246 59.5557 4.0625 59.1533 4.4375C58.7529 4.8125 58.1738 5 57.416 5H56.2031V0.716797H57.5479C58.2471 0.716797 58.79 0.901367 59.1768 1.27051C59.5635 1.63965 59.7568 2.15527 59.7568 2.81738ZM58.8135 2.84082C58.8135 1.9209 58.4072 1.46094 57.5947 1.46094H57.1113V4.25H57.501C58.376 4.25 58.8135 3.78027 58.8135 2.84082ZM1.44727 11.7324H1.74609C2.02539 11.7324 2.23438 11.6777 2.37305 11.5684C2.51172 11.457 2.58105 11.2959 2.58105 11.085C2.58105 10.8721 2.52246 10.7148 2.40527 10.6133C2.29004 10.5117 2.1084 10.4609 1.86035 10.4609H1.44727V11.7324ZM3.49805 11.0527C3.49805 11.5137 3.35352 11.8662 3.06445 12.1104C2.77734 12.3545 2.36816 12.4766 1.83691 12.4766H1.44727V14H0.539062V9.7168H1.90723C2.42676 9.7168 2.82129 9.8291 3.09082 10.0537C3.3623 10.2764 3.49805 10.6094 3.49805 11.0527ZM4.19824 9.87793C4.19824 9.58691 4.36035 9.44141 4.68457 9.44141C5.00879 9.44141 5.1709 9.58691 5.1709 9.87793C5.1709 10.0166 5.12988 10.125 5.04785 10.2031C4.96777 10.2793 4.84668 10.3174 4.68457 10.3174C4.36035 10.3174 4.19824 10.1709 4.19824 9.87793ZM5.12988 14H4.23633V10.7246H5.12988V14ZM6.74121 12.3271L5.68652 10.7246H6.7002L7.33594 11.7676L7.97754 10.7246H8.99121L7.9248 12.3271L9.04102 14H8.02441L7.33594 12.8779L6.64453 14H5.63086L6.74121 12.3271ZM10.8955 11.2988C10.7061 11.2988 10.5576 11.3594 10.4502 11.4805C10.3428 11.5996 10.2812 11.7695 10.2656 11.9902H11.5195C11.5156 11.7695 11.458 11.5996 11.3467 11.4805C11.2354 11.3594 11.085 11.2988 10.8955 11.2988ZM11.0215 14.0586C10.4941 14.0586 10.082 13.9131 9.78516 13.6221C9.48828 13.3311 9.33984 12.9189 9.33984 12.3857C9.33984 11.8369 9.47656 11.4131 9.75 11.1143C10.0254 10.8135 10.4053 10.6631 10.8896 10.6631C11.3525 10.6631 11.7129 10.7949 11.9707 11.0586C12.2285 11.3223 12.3574 11.6865 12.3574 12.1514V12.585H10.2451C10.2549 12.8389 10.3301 13.0371 10.4707 13.1797C10.6113 13.3223 10.8086 13.3936 11.0625 13.3936C11.2598 13.3936 11.4463 13.373 11.6221 13.332C11.7979 13.291 11.9814 13.2256 12.1729 13.1357V13.8271C12.0166 13.9053 11.8496 13.9629 11.6719 14C11.4941 14.0391 11.2773 14.0586 11.0215 14.0586ZM13.9775 14H13.084V9.44141H13.9775V14ZM17.1885 12.3564C17.1885 12.6807 17.2412 12.9258 17.3467 13.0918C17.4541 13.2578 17.6279 13.3408 17.8682 13.3408C18.1064 13.3408 18.2773 13.2588 18.3809 13.0947C18.4863 12.9287 18.5391 12.6826 18.5391 12.3564C18.5391 12.0322 18.4863 11.7891 18.3809 11.627C18.2754 11.4648 18.1025 11.3838 17.8623 11.3838C17.624 11.3838 17.4521 11.4648 17.3467 11.627C17.2412 11.7871 17.1885 12.0303 17.1885 12.3564ZM19.4531 12.3564C19.4531 12.8896 19.3125 13.3066 19.0312 13.6074C18.75 13.9082 18.3584 14.0586 17.8564 14.0586C17.542 14.0586 17.2646 13.9902 17.0244 13.8535C16.7842 13.7148 16.5996 13.5166 16.4707 13.2588C16.3418 13.001 16.2773 12.7002 16.2773 12.3564C16.2773 11.8213 16.417 11.4053 16.6963 11.1084C16.9756 10.8115 17.3682 10.6631 17.874 10.6631C18.1885 10.6631 18.4658 10.7314 18.7061 10.8682C18.9463 11.0049 19.1309 11.2012 19.2598 11.457C19.3887 11.7129 19.4531 12.0127 19.4531 12.3564ZM22.002 11.3955H21.2285V14H20.335V11.3955H19.8428V10.9648L20.335 10.7246V10.4844C20.335 10.1113 20.4268 9.83887 20.6104 9.66699C20.7939 9.49512 21.0879 9.40918 21.4922 9.40918C21.8008 9.40918 22.0752 9.45508 22.3154 9.54688L22.0869 10.2031C21.9072 10.1465 21.7412 10.1182 21.5889 10.1182C21.4619 10.1182 21.3701 10.1562 21.3135 10.2324C21.2568 10.3066 21.2285 10.4023 21.2285 10.5195V10.7246H22.002V11.3955ZM26.6748 12.8105C26.6748 13.1973 26.5352 13.502 26.2559 13.7246C25.9785 13.9473 25.5918 14.0586 25.0957 14.0586C24.6387 14.0586 24.2344 13.9727 23.8828 13.8008V12.957C24.1719 13.0859 24.416 13.1768 24.6152 13.2295C24.8164 13.2822 25 13.3086 25.166 13.3086C25.3652 13.3086 25.5176 13.2705 25.623 13.1943C25.7305 13.1182 25.7842 13.0049 25.7842 12.8545C25.7842 12.7705 25.7607 12.6963 25.7139 12.6318C25.667 12.5654 25.5977 12.502 25.5059 12.4414C25.416 12.3809 25.2314 12.2842 24.9521 12.1514C24.6904 12.0283 24.4941 11.9102 24.3633 11.7969C24.2324 11.6836 24.1279 11.5518 24.0498 11.4014C23.9717 11.251 23.9326 11.0752 23.9326 10.874C23.9326 10.4951 24.0605 10.1973 24.3164 9.98047C24.5742 9.76367 24.9297 9.65527 25.3828 9.65527C25.6055 9.65527 25.8174 9.68164 26.0186 9.73438C26.2217 9.78711 26.4336 9.86133 26.6543 9.95703L26.3613 10.6631C26.1328 10.5693 25.9434 10.5039 25.793 10.4668C25.6445 10.4297 25.498 10.4111 25.3535 10.4111C25.1816 10.4111 25.0498 10.4512 24.958 10.5312C24.8662 10.6113 24.8203 10.7158 24.8203 10.8447C24.8203 10.9248 24.8389 10.9951 24.876 11.0557C24.9131 11.1143 24.9717 11.1719 25.0518 11.2285C25.1338 11.2832 25.3262 11.3828 25.6289 11.5273C26.0293 11.7188 26.3037 11.9111 26.4521 12.1045C26.6006 12.2959 26.6748 12.5312 26.6748 12.8105ZM28.7373 13.3584C28.9639 13.3584 29.1299 13.2939 29.2354 13.165C29.3408 13.0342 29.3984 12.8066 29.4082 12.4824V12.374C29.4082 12.0225 29.3535 11.7705 29.2441 11.6182C29.1367 11.4658 28.9629 11.3896 28.7227 11.3896C28.3027 11.3896 28.0928 11.7197 28.0928 12.3799C28.0928 12.708 28.1445 12.9531 28.248 13.1152C28.3535 13.2773 28.5166 13.3584 28.7373 13.3584ZM28.418 14.0586C28.0312 14.0586 27.7285 13.9102 27.5098 13.6133C27.291 13.3145 27.1816 12.8994 27.1816 12.3682C27.1816 11.833 27.293 11.415 27.5156 11.1143C27.7402 10.8135 28.0469 10.6631 28.4355 10.6631C28.6426 10.6631 28.8232 10.7021 28.9775 10.7803C29.1318 10.8584 29.2676 10.9795 29.3848 11.1436H29.4082L29.4873 10.7246H30.2432V15.4414H29.3467V14.0674C29.3467 13.9482 29.3594 13.7842 29.3848 13.5752H29.3467C29.251 13.7334 29.124 13.8535 28.9658 13.9355C28.8076 14.0176 28.625 14.0586 28.418 14.0586ZM33.498 14L33.3779 13.5811H33.3311C33.2354 13.7334 33.0996 13.8516 32.9238 13.9355C32.748 14.0176 32.5479 14.0586 32.3232 14.0586C31.9385 14.0586 31.6484 13.9561 31.4531 13.751C31.2578 13.5439 31.1602 13.2471 31.1602 12.8604V10.7246H32.0537V12.6377C32.0537 12.874 32.0957 13.0518 32.1797 13.1709C32.2637 13.2881 32.3975 13.3467 32.5811 13.3467C32.8311 13.3467 33.0117 13.2637 33.123 13.0977C33.2344 12.9297 33.29 12.6523 33.29 12.2656V10.7246H34.1836V14H33.498ZM37.2012 14L37.0283 13.5547H37.0049C36.8545 13.7441 36.6992 13.876 36.5391 13.9502C36.3809 14.0225 36.1738 14.0586 35.918 14.0586C35.6035 14.0586 35.3555 13.9688 35.1738 13.7891C34.9941 13.6094 34.9043 13.3535 34.9043 13.0215C34.9043 12.6738 35.0254 12.418 35.2676 12.2539C35.5117 12.0879 35.8789 11.9961 36.3691 11.9785L36.9375 11.9609V11.8174C36.9375 11.4854 36.7676 11.3193 36.4277 11.3193C36.166 11.3193 35.8584 11.3984 35.5049 11.5566L35.209 10.9531C35.5859 10.7559 36.0039 10.6572 36.4629 10.6572C36.9023 10.6572 37.2393 10.7529 37.4736 10.9443C37.708 11.1357 37.8252 11.4268 37.8252 11.8174V14H37.2012ZM36.9375 12.4824L36.5918 12.4941C36.332 12.502 36.1387 12.5488 36.0117 12.6348C35.8848 12.7207 35.8213 12.8516 35.8213 13.0273C35.8213 13.2793 35.9658 13.4053 36.2549 13.4053C36.4619 13.4053 36.627 13.3457 36.75 13.2266C36.875 13.1074 36.9375 12.9492 36.9375 12.752V12.4824ZM40.5762 10.6631C40.6973 10.6631 40.7979 10.6719 40.8779 10.6895L40.8105 11.5273C40.7383 11.5078 40.6504 11.498 40.5469 11.498C40.2617 11.498 40.0391 11.5713 39.8789 11.7178C39.7207 11.8643 39.6416 12.0693 39.6416 12.333V14H38.748V10.7246H39.4248L39.5566 11.2754H39.6006C39.7021 11.0918 39.8389 10.9443 40.0107 10.833C40.1846 10.7197 40.373 10.6631 40.5762 10.6631ZM42.8291 11.2988C42.6396 11.2988 42.4912 11.3594 42.3838 11.4805C42.2764 11.5996 42.2148 11.7695 42.1992 11.9902H43.4531C43.4492 11.7695 43.3916 11.5996 43.2803 11.4805C43.1689 11.3594 43.0186 11.2988 42.8291 11.2988ZM42.9551 14.0586C42.4277 14.0586 42.0156 13.9131 41.7188 13.6221C41.4219 13.3311 41.2734 12.9189 41.2734 12.3857C41.2734 11.8369 41.4102 11.4131 41.6836 11.1143C41.959 10.8135 42.3389 10.6631 42.8232 10.6631C43.2861 10.6631 43.6465 10.7949 43.9043 11.0586C44.1621 11.3223 44.291 11.6865 44.291 12.1514V12.585H42.1787C42.1885 12.8389 42.2637 13.0371 42.4043 13.1797C42.5449 13.3223 42.7422 13.3936 42.9961 13.3936C43.1934 13.3936 43.3799 13.373 43.5557 13.332C43.7314 13.291 43.915 13.2256 44.1064 13.1357V13.8271C43.9502 13.9053 43.7832 13.9629 43.6055 14C43.4277 14.0391 43.2109 14.0586 42.9551 14.0586ZM44.8916 13.5811C44.8916 13.417 44.9355 13.293 45.0234 13.209C45.1113 13.125 45.2393 13.083 45.4072 13.083C45.5693 13.083 45.6943 13.126 45.7822 13.2119C45.8721 13.2979 45.917 13.4209 45.917 13.5811C45.917 13.7354 45.8721 13.8574 45.7822 13.9473C45.6924 14.0352 45.5674 14.0791 45.4072 14.0791C45.2432 14.0791 45.1162 14.0361 45.0264 13.9502C44.9365 13.8623 44.8916 13.7393 44.8916 13.5811ZM44.8916 11.1611C44.8916 10.9971 44.9355 10.873 45.0234 10.7891C45.1113 10.7051 45.2393 10.6631 45.4072 10.6631C45.5693 10.6631 45.6943 10.7061 45.7822 10.792C45.8721 10.8779 45.917 11.001 45.917 11.1611C45.917 11.3193 45.8711 11.4424 45.7793 11.5303C45.6895 11.6162 45.5654 11.6592 45.4072 11.6592C45.2432 11.6592 45.1162 11.6162 45.0264 11.5303C44.9365 11.4443 44.8916 11.3213 44.8916 11.1611ZM50.8857 10.6748C50.8857 10.9424 50.8047 11.1699 50.6426 11.3574C50.4805 11.5449 50.2529 11.6738 49.96 11.7441V11.7617C50.3057 11.8047 50.5674 11.9102 50.7451 12.0781C50.9229 12.2441 51.0117 12.4688 51.0117 12.752C51.0117 13.1641 50.8623 13.4854 50.5635 13.7158C50.2646 13.9443 49.8379 14.0586 49.2832 14.0586C48.8184 14.0586 48.4062 13.9814 48.0469 13.8271V13.0566C48.2129 13.1406 48.3955 13.209 48.5947 13.2617C48.7939 13.3145 48.9912 13.3408 49.1865 13.3408C49.4854 13.3408 49.7061 13.29 49.8486 13.1885C49.9912 13.0869 50.0625 12.9238 50.0625 12.6992C50.0625 12.498 49.9805 12.3555 49.8164 12.2715C49.6523 12.1875 49.3906 12.1455 49.0312 12.1455H48.7061V11.4512H49.0371C49.3691 11.4512 49.6113 11.4082 49.7637 11.3223C49.918 11.2344 49.9951 11.085 49.9951 10.874C49.9951 10.5498 49.792 10.3877 49.3857 10.3877C49.2451 10.3877 49.1016 10.4111 48.9551 10.458C48.8105 10.5049 48.6494 10.5859 48.4717 10.7012L48.0527 10.0771C48.4434 9.7959 48.9092 9.65527 49.4502 9.65527C49.8936 9.65527 50.2432 9.74512 50.499 9.9248C50.7568 10.1045 50.8857 10.3545 50.8857 10.6748ZM54.457 11.8584C54.457 12.6064 54.334 13.1602 54.0879 13.5195C53.8438 13.8789 53.4668 14.0586 52.957 14.0586C52.4629 14.0586 52.0898 13.873 51.8379 13.502C51.5879 13.1309 51.4629 12.583 51.4629 11.8584C51.4629 11.1025 51.585 10.5459 51.8291 10.1885C52.0732 9.8291 52.4492 9.64941 52.957 9.64941C53.4512 9.64941 53.8242 9.83691 54.0762 10.2119C54.3301 10.5869 54.457 11.1357 54.457 11.8584ZM52.3623 11.8584C52.3623 12.3838 52.4072 12.7607 52.4971 12.9893C52.5889 13.2158 52.7422 13.3291 52.957 13.3291C53.168 13.3291 53.3203 13.2139 53.4141 12.9834C53.5078 12.7529 53.5547 12.3779 53.5547 11.8584C53.5547 11.333 53.5068 10.9561 53.4111 10.7275C53.3174 10.4971 53.166 10.3818 52.957 10.3818C52.7441 10.3818 52.5918 10.4971 52.5 10.7275C52.4082 10.9561 52.3623 11.333 52.3623 11.8584ZM55.8135 12.3271L54.7588 10.7246H55.7725L56.4082 11.7676L57.0498 10.7246H58.0635L56.9971 12.3271L58.1133 14H57.0967L56.4082 12.8779L55.7168 14H54.7031L55.8135 12.3271ZM61.21 10.6748C61.21 10.9424 61.1289 11.1699 60.9668 11.3574C60.8047 11.5449 60.5771 11.6738 60.2842 11.7441V11.7617C60.6299 11.8047 60.8916 11.9102 61.0693 12.0781C61.2471 12.2441 61.3359 12.4688 61.3359 12.752C61.3359 13.1641 61.1865 13.4854 60.8877 13.7158C60.5889 13.9443 60.1621 14.0586 59.6074 14.0586C59.1426 14.0586 58.7305 13.9814 58.3711 13.8271V13.0566C58.5371 13.1406 58.7197 13.209 58.9189 13.2617C59.1182 13.3145 59.3154 13.3408 59.5107 13.3408C59.8096 13.3408 60.0303 13.29 60.1729 13.1885C60.3154 13.0869 60.3867 12.9238 60.3867 12.6992C60.3867 12.498 60.3047 12.3555 60.1406 12.2715C59.9766 12.1875 59.7148 12.1455 59.3555 12.1455H59.0303V11.4512H59.3613C59.6934 11.4512 59.9355 11.4082 60.0879 11.3223C60.2422 11.2344 60.3193 11.085 60.3193 10.874C60.3193 10.5498 60.1162 10.3877 59.71 10.3877C59.5693 10.3877 59.4258 10.4111 59.2793 10.458C59.1348 10.5049 58.9736 10.5859 58.7959 10.7012L58.377 10.0771C58.7676 9.7959 59.2334 9.65527 59.7744 9.65527C60.2178 9.65527 60.5674 9.74512 60.8232 9.9248C61.0811 10.1045 61.21 10.3545 61.21 10.6748ZM64.7812 11.8584C64.7812 12.6064 64.6582 13.1602 64.4121 13.5195C64.168 13.8789 63.791 14.0586 63.2812 14.0586C62.7871 14.0586 62.4141 13.873 62.1621 13.502C61.9121 13.1309 61.7871 12.583 61.7871 11.8584C61.7871 11.1025 61.9092 10.5459 62.1533 10.1885C62.3975 9.8291 62.7734 9.64941 63.2812 9.64941C63.7754 9.64941 64.1484 9.83691 64.4004 10.2119C64.6543 10.5869 64.7812 11.1357 64.7812 11.8584ZM62.6865 11.8584C62.6865 12.3838 62.7314 12.7607 62.8213 12.9893C62.9131 13.2158 63.0664 13.3291 63.2812 13.3291C63.4922 13.3291 63.6445 13.2139 63.7383 12.9834C63.832 12.7529 63.8789 12.3779 63.8789 11.8584C63.8789 11.333 63.8311 10.9561 63.7354 10.7275C63.6416 10.4971 63.4902 10.3818 63.2812 10.3818C63.0684 10.3818 62.916 10.4971 62.8242 10.7275C62.7324 10.9561 62.6865 11.333 62.6865 11.8584ZM0.430664 17.8779C0.430664 17.5869 0.592773 17.4414 0.916992 17.4414C1.24121 17.4414 1.40332 17.5869 1.40332 17.8779C1.40332 18.0166 1.3623 18.125 1.28027 18.2031C1.2002 18.2793 1.0791 18.3174 0.916992 18.3174C0.592773 18.3174 0.430664 18.1709 0.430664 17.8779ZM1.3623 22H0.46875V18.7246H1.3623V22ZM5.32617 22H4.43262V20.0869C4.43262 19.8506 4.39062 19.6738 4.30664 19.5566C4.22266 19.4375 4.08887 19.3779 3.90527 19.3779C3.65527 19.3779 3.47461 19.4619 3.36328 19.6299C3.25195 19.7959 3.19629 20.0723 3.19629 20.459V22H2.30273V18.7246H2.98535L3.10547 19.1436H3.15527C3.25488 18.9854 3.3916 18.8662 3.56543 18.7861C3.74121 18.7041 3.94043 18.6631 4.16309 18.6631C4.54395 18.6631 4.83301 18.7666 5.03027 18.9736C5.22754 19.1787 5.32617 19.4756 5.32617 19.8643V22ZM9.18457 21.3467C9.34082 21.3467 9.52832 21.3125 9.74707 21.2441V21.9092C9.52441 22.0088 9.25098 22.0586 8.92676 22.0586C8.56934 22.0586 8.30859 21.9688 8.14453 21.7891C7.98242 21.6074 7.90137 21.3359 7.90137 20.9746V19.3955H7.47363V19.0176L7.96582 18.7188L8.22363 18.0273H8.79492V18.7246H9.71191V19.3955H8.79492V20.9746C8.79492 21.1016 8.83008 21.1953 8.90039 21.2559C8.97266 21.3164 9.06738 21.3467 9.18457 21.3467ZM13.4355 22H12.542V20.0869C12.542 19.6143 12.3662 19.3779 12.0146 19.3779C11.7646 19.3779 11.584 19.4629 11.4727 19.6328C11.3613 19.8027 11.3057 20.0781 11.3057 20.459V22H10.4121V17.4414H11.3057V18.3701C11.3057 18.4424 11.2988 18.6123 11.2852 18.8799L11.2646 19.1436H11.3115C11.5107 18.8232 11.8271 18.6631 12.2607 18.6631C12.6455 18.6631 12.9375 18.7666 13.1367 18.9736C13.3359 19.1807 13.4355 19.4775 13.4355 19.8643V22ZM15.7119 19.2988C15.5225 19.2988 15.374 19.3594 15.2666 19.4805C15.1592 19.5996 15.0977 19.7695 15.082 19.9902H16.3359C16.332 19.7695 16.2744 19.5996 16.1631 19.4805C16.0518 19.3594 15.9014 19.2988 15.7119 19.2988ZM15.8379 22.0586C15.3105 22.0586 14.8984 21.9131 14.6016 21.6221C14.3047 21.3311 14.1562 20.9189 14.1562 20.3857C14.1562 19.8369 14.293 19.4131 14.5664 19.1143C14.8418 18.8135 15.2217 18.6631 15.7061 18.6631C16.1689 18.6631 16.5293 18.7949 16.7871 19.0586C17.0449 19.3223 17.1738 19.6865 17.1738 20.1514V20.585H15.0615C15.0713 20.8389 15.1465 21.0371 15.2871 21.1797C15.4277 21.3223 15.625 21.3936 15.8789 21.3936C16.0762 21.3936 16.2627 21.373 16.4385 21.332C16.6143 21.291 16.7979 21.2256 16.9893 21.1357V21.8271C16.833 21.9053 16.666 21.9629 16.4883 22C16.3105 22.0391 16.0938 22.0586 15.8379 22.0586ZM20.4961 22.0586C20.1113 22.0586 19.8086 21.9092 19.5879 21.6104C19.3691 21.3115 19.2598 20.8975 19.2598 20.3682C19.2598 19.8311 19.3711 19.4131 19.5938 19.1143C19.8184 18.8135 20.127 18.6631 20.5195 18.6631C20.9316 18.6631 21.2461 18.8232 21.4629 19.1436H21.4922C21.4473 18.8994 21.4248 18.6816 21.4248 18.4902V17.4414H22.3213V22H21.6357L21.4629 21.5752H21.4248C21.2217 21.8975 20.9121 22.0586 20.4961 22.0586ZM20.8096 21.3467C21.0381 21.3467 21.2051 21.2803 21.3105 21.1475C21.418 21.0146 21.4766 20.7891 21.4863 20.4707V20.374C21.4863 20.0225 21.4316 19.7705 21.3223 19.6182C21.2148 19.4658 21.0391 19.3896 20.7949 19.3896C20.5957 19.3896 20.4404 19.4746 20.3291 19.6445C20.2197 19.8125 20.165 20.0576 20.165 20.3799C20.165 20.7021 20.2207 20.9443 20.332 21.1064C20.4434 21.2666 20.6025 21.3467 20.8096 21.3467ZM25.3359 22L25.1631 21.5547H25.1396C24.9893 21.7441 24.834 21.876 24.6738 21.9502C24.5156 22.0225 24.3086 22.0586 24.0527 22.0586C23.7383 22.0586 23.4902 21.9688 23.3086 21.7891C23.1289 21.6094 23.0391 21.3535 23.0391 21.0215C23.0391 20.6738 23.1602 20.418 23.4023 20.2539C23.6465 20.0879 24.0137 19.9961 24.5039 19.9785L25.0723 19.9609V19.8174C25.0723 19.4854 24.9023 19.3193 24.5625 19.3193C24.3008 19.3193 23.9932 19.3984 23.6396 19.5566L23.3438 18.9531C23.7207 18.7559 24.1387 18.6572 24.5977 18.6572C25.0371 18.6572 25.374 18.7529 25.6084 18.9443C25.8428 19.1357 25.96 19.4268 25.96 19.8174V22H25.3359ZM25.0723 20.4824L24.7266 20.4941C24.4668 20.502 24.2734 20.5488 24.1465 20.6348C24.0195 20.7207 23.9561 20.8516 23.9561 21.0273C23.9561 21.2793 24.1006 21.4053 24.3896 21.4053C24.5967 21.4053 24.7617 21.3457 24.8848 21.2266C25.0098 21.1074 25.0723 20.9492 25.0723 20.752V20.4824ZM28.2627 21.3467C28.4189 21.3467 28.6064 21.3125 28.8252 21.2441V21.9092C28.6025 22.0088 28.3291 22.0586 28.0049 22.0586C27.6475 22.0586 27.3867 21.9688 27.2227 21.7891C27.0605 21.6074 26.9795 21.3359 26.9795 20.9746V19.3955H26.5518V19.0176L27.0439 18.7188L27.3018 18.0273H27.873V18.7246H28.79V19.3955H27.873V20.9746C27.873 21.1016 27.9082 21.1953 27.9785 21.2559C28.0508 21.3164 28.1455 21.3467 28.2627 21.3467ZM31.5703 22L31.3975 21.5547H31.374C31.2236 21.7441 31.0684 21.876 30.9082 21.9502C30.75 22.0225 30.543 22.0586 30.2871 22.0586C29.9727 22.0586 29.7246 21.9688 29.543 21.7891C29.3633 21.6094 29.2734 21.3535 29.2734 21.0215C29.2734 20.6738 29.3945 20.418 29.6367 20.2539C29.8809 20.0879 30.248 19.9961 30.7383 19.9785L31.3066 19.9609V19.8174C31.3066 19.4854 31.1367 19.3193 30.7969 19.3193C30.5352 19.3193 30.2275 19.3984 29.874 19.5566L29.5781 18.9531C29.9551 18.7559 30.373 18.6572 30.832 18.6572C31.2715 18.6572 31.6084 18.7529 31.8428 18.9443C32.0771 19.1357 32.1943 19.4268 32.1943 19.8174V22H31.5703ZM31.3066 20.4824L30.9609 20.4941C30.7012 20.502 30.5078 20.5488 30.3809 20.6348C30.2539 20.7207 30.1904 20.8516 30.1904 21.0273C30.1904 21.2793 30.335 21.4053 30.624 21.4053C30.8311 21.4053 30.9961 21.3457 31.1191 21.2266C31.2441 21.1074 31.3066 20.9492 31.3066 20.752V20.4824ZM35.4023 21.0273C35.4023 21.3633 35.2852 21.6191 35.0508 21.7949C34.8184 21.9707 34.4697 22.0586 34.0049 22.0586C33.7666 22.0586 33.5635 22.042 33.3955 22.0088C33.2275 21.9775 33.0703 21.9307 32.9238 21.8682V21.1299C33.0898 21.208 33.2764 21.2734 33.4834 21.3262C33.6924 21.3789 33.876 21.4053 34.0342 21.4053C34.3584 21.4053 34.5205 21.3115 34.5205 21.124C34.5205 21.0537 34.499 20.9971 34.4561 20.9541C34.4131 20.9092 34.3389 20.8594 34.2334 20.8047C34.1279 20.748 33.9873 20.6826 33.8115 20.6084C33.5596 20.5029 33.374 20.4053 33.2549 20.3154C33.1377 20.2256 33.0518 20.123 32.9971 20.0078C32.9443 19.8906 32.918 19.7471 32.918 19.5771C32.918 19.2861 33.0303 19.0615 33.2549 18.9033C33.4814 18.7432 33.8018 18.6631 34.2158 18.6631C34.6104 18.6631 34.9941 18.749 35.3672 18.9209L35.0977 19.5654C34.9336 19.4951 34.7803 19.4375 34.6377 19.3926C34.4951 19.3477 34.3496 19.3252 34.2012 19.3252C33.9375 19.3252 33.8057 19.3965 33.8057 19.5391C33.8057 19.6191 33.8477 19.6885 33.9316 19.7471C34.0176 19.8057 34.2041 19.8926 34.4912 20.0078C34.7471 20.1113 34.9346 20.208 35.0537 20.2979C35.1729 20.3877 35.2607 20.4912 35.3174 20.6084C35.374 20.7256 35.4023 20.8652 35.4023 21.0273ZM39.123 22H38.2295V20.0869C38.2295 19.6143 38.0537 19.3779 37.7021 19.3779C37.4521 19.3779 37.2715 19.4629 37.1602 19.6328C37.0488 19.8027 36.9932 20.0781 36.9932 20.459V22H36.0996V17.4414H36.9932V18.3701C36.9932 18.4424 36.9863 18.6123 36.9727 18.8799L36.9521 19.1436H36.999C37.1982 18.8232 37.5146 18.6631 37.9482 18.6631C38.333 18.6631 38.625 18.7666 38.8242 18.9736C39.0234 19.1807 39.123 19.4775 39.123 19.8643V22ZM41.3994 19.2988C41.21 19.2988 41.0615 19.3594 40.9541 19.4805C40.8467 19.5996 40.7852 19.7695 40.7695 19.9902H42.0234C42.0195 19.7695 41.9619 19.5996 41.8506 19.4805C41.7393 19.3594 41.5889 19.2988 41.3994 19.2988ZM41.5254 22.0586C40.998 22.0586 40.5859 21.9131 40.2891 21.6221C39.9922 21.3311 39.8438 20.9189 39.8438 20.3857C39.8438 19.8369 39.9805 19.4131 40.2539 19.1143C40.5293 18.8135 40.9092 18.6631 41.3936 18.6631C41.8564 18.6631 42.2168 18.7949 42.4746 19.0586C42.7324 19.3223 42.8613 19.6865 42.8613 20.1514V20.585H40.749C40.7588 20.8389 40.834 21.0371 40.9746 21.1797C41.1152 21.3223 41.3125 21.3936 41.5664 21.3936C41.7637 21.3936 41.9502 21.373 42.126 21.332C42.3018 21.291 42.4854 21.2256 42.6768 21.1357V21.8271C42.5205 21.9053 42.3535 21.9629 42.1758 22C41.998 22.0391 41.7812 22.0586 41.5254 22.0586ZM44.9443 19.2988C44.7549 19.2988 44.6064 19.3594 44.499 19.4805C44.3916 19.5996 44.3301 19.7695 44.3145 19.9902H45.5684C45.5645 19.7695 45.5068 19.5996 45.3955 19.4805C45.2842 19.3594 45.1338 19.2988 44.9443 19.2988ZM45.0703 22.0586C44.543 22.0586 44.1309 21.9131 43.834 21.6221C43.5371 21.3311 43.3887 20.9189 43.3887 20.3857C43.3887 19.8369 43.5254 19.4131 43.7988 19.1143C44.0742 18.8135 44.4541 18.6631 44.9385 18.6631C45.4014 18.6631 45.7617 18.7949 46.0195 19.0586C46.2773 19.3223 46.4062 19.6865 46.4062 20.1514V20.585H44.2939C44.3037 20.8389 44.3789 21.0371 44.5195 21.1797C44.6602 21.3223 44.8574 21.3936 45.1113 21.3936C45.3086 21.3936 45.4951 21.373 45.6709 21.332C45.8467 21.291 46.0303 21.2256 46.2217 21.1357V21.8271C46.0654 21.9053 45.8984 21.9629 45.7207 22C45.543 22.0391 45.3262 22.0586 45.0703 22.0586ZM48.5127 21.3467C48.6689 21.3467 48.8564 21.3125 49.0752 21.2441V21.9092C48.8525 22.0088 48.5791 22.0586 48.2549 22.0586C47.8975 22.0586 47.6367 21.9688 47.4727 21.7891C47.3105 21.6074 47.2295 21.3359 47.2295 20.9746V19.3955H46.8018V19.0176L47.2939 18.7188L47.5518 18.0273H48.123V18.7246H49.04V19.3955H48.123V20.9746C48.123 21.1016 48.1582 21.1953 48.2285 21.2559C48.3008 21.3164 48.3955 21.3467 48.5127 21.3467ZM52.6787 21.3467C52.835 21.3467 53.0225 21.3125 53.2412 21.2441V21.9092C53.0186 22.0088 52.7451 22.0586 52.4209 22.0586C52.0635 22.0586 51.8027 21.9688 51.6387 21.7891C51.4766 21.6074 51.3955 21.3359 51.3955 20.9746V19.3955H50.9678V19.0176L51.46 18.7188L51.7178 18.0273H52.2891V18.7246H53.2061V19.3955H52.2891V20.9746C52.2891 21.1016 52.3242 21.1953 52.3945 21.2559C52.4668 21.3164 52.5615 21.3467 52.6787 21.3467ZM56.9297 22H56.0361V20.0869C56.0361 19.6143 55.8604 19.3779 55.5088 19.3779C55.2588 19.3779 55.0781 19.4629 54.9668 19.6328C54.8555 19.8027 54.7998 20.0781 54.7998 20.459V22H53.9062V17.4414H54.7998V18.3701C54.7998 18.4424 54.793 18.6123 54.7793 18.8799L54.7588 19.1436H54.8057C55.0049 18.8232 55.3213 18.6631 55.7549 18.6631C56.1396 18.6631 56.4316 18.7666 56.6309 18.9736C56.8301 19.1807 56.9297 19.4775 56.9297 19.8643V22ZM59.2061 19.2988C59.0166 19.2988 58.8682 19.3594 58.7607 19.4805C58.6533 19.5996 58.5918 19.7695 58.5762 19.9902H59.8301C59.8262 19.7695 59.7686 19.5996 59.6572 19.4805C59.5459 19.3594 59.3955 19.2988 59.2061 19.2988ZM59.332 22.0586C58.8047 22.0586 58.3926 21.9131 58.0957 21.6221C57.7988 21.3311 57.6504 20.9189 57.6504 20.3857C57.6504 19.8369 57.7871 19.4131 58.0605 19.1143C58.3359 18.8135 58.7158 18.6631 59.2002 18.6631C59.6631 18.6631 60.0234 18.7949 60.2812 19.0586C60.5391 19.3223 60.668 19.6865 60.668 20.1514V20.585H58.5557C58.5654 20.8389 58.6406 21.0371 58.7812 21.1797C58.9219 21.3223 59.1191 21.3936 59.373 21.3936C59.5703 21.3936 59.7568 21.373 59.9326 21.332C60.1084 21.291 60.292 21.2256 60.4834 21.1357V21.8271C60.3271 21.9053 60.1602 21.9629 59.9824 22C59.8047 22.0391 59.5879 22.0586 59.332 22.0586ZM60.9258 18.7246H61.9043L62.5225 20.5674C62.5752 20.7275 62.6113 20.917 62.6309 21.1357H62.6484C62.6699 20.9346 62.7119 20.7451 62.7744 20.5674L63.3809 18.7246H64.3389L62.9531 22.4189C62.8262 22.7607 62.6445 23.0166 62.4082 23.1865C62.1738 23.3564 61.8994 23.4414 61.585 23.4414C61.4307 23.4414 61.2793 23.4248 61.1309 23.3916V22.6826C61.2383 22.708 61.3555 22.7207 61.4824 22.7207C61.6406 22.7207 61.7783 22.6719 61.8955 22.5742C62.0146 22.4785 62.1074 22.333 62.1738 22.1377L62.2266 21.9766L60.9258 18.7246ZM68.4492 22L68.2764 21.5547H68.2529C68.1025 21.7441 67.9473 21.876 67.7871 21.9502C67.6289 22.0225 67.4219 22.0586 67.166 22.0586C66.8516 22.0586 66.6035 21.9688 66.4219 21.7891C66.2422 21.6094 66.1523 21.3535 66.1523 21.0215C66.1523 20.6738 66.2734 20.418 66.5156 20.2539C66.7598 20.0879 67.127 19.9961 67.6172 19.9785L68.1855 19.9609V19.8174C68.1855 19.4854 68.0156 19.3193 67.6758 19.3193C67.4141 19.3193 67.1064 19.3984 66.7529 19.5566L66.457 18.9531C66.834 18.7559 67.252 18.6572 67.7109 18.6572C68.1504 18.6572 68.4873 18.7529 68.7217 18.9443C68.9561 19.1357 69.0732 19.4268 69.0732 19.8174V22H68.4492ZM68.1855 20.4824L67.8398 20.4941C67.5801 20.502 67.3867 20.5488 67.2598 20.6348C67.1328 20.7207 67.0693 20.8516 67.0693 21.0273C67.0693 21.2793 67.2139 21.4053 67.5029 21.4053C67.71 21.4053 67.875 21.3457 67.998 21.2266C68.123 21.1074 68.1855 20.9492 68.1855 20.752V20.4824ZM71.8242 18.6631C71.9453 18.6631 72.0459 18.6719 72.126 18.6895L72.0586 19.5273C71.9863 19.5078 71.8984 19.498 71.7949 19.498C71.5098 19.498 71.2871 19.5713 71.127 19.7178C70.9688 19.8643 70.8896 20.0693 70.8896 20.333V22H69.9961V18.7246H70.6729L70.8047 19.2754H70.8486C70.9502 19.0918 71.0869 18.9443 71.2588 18.833C71.4326 18.7197 71.6211 18.6631 71.8242 18.6631ZM74.0771 19.2988C73.8877 19.2988 73.7393 19.3594 73.6318 19.4805C73.5244 19.5996 73.4629 19.7695 73.4473 19.9902H74.7012C74.6973 19.7695 74.6396 19.5996 74.5283 19.4805C74.417 19.3594 74.2666 19.2988 74.0771 19.2988ZM74.2031 22.0586C73.6758 22.0586 73.2637 21.9131 72.9668 21.6221C72.6699 21.3311 72.5215 20.9189 72.5215 20.3857C72.5215 19.8369 72.6582 19.4131 72.9316 19.1143C73.207 18.8135 73.5869 18.6631 74.0713 18.6631C74.5342 18.6631 74.8945 18.7949 75.1523 19.0586C75.4102 19.3223 75.5391 19.6865 75.5391 20.1514V20.585H73.4268C73.4365 20.8389 73.5117 21.0371 73.6523 21.1797C73.793 21.3223 73.9902 21.3936 74.2441 21.3936C74.4414 21.3936 74.6279 21.373 74.8037 21.332C74.9795 21.291 75.1631 21.2256 75.3545 21.1357V21.8271C75.1982 21.9053 75.0312 21.9629 74.8535 22C74.6758 22.0391 74.459 22.0586 74.2031 22.0586ZM79.834 22H78.9287V19.5215L78.9375 19.1143L78.9521 18.6689C78.8018 18.8193 78.6973 18.918 78.6387 18.9648L78.1465 19.3604L77.71 18.8154L79.0898 17.7168H79.834V22ZM81.126 21.5811C81.126 21.417 81.1699 21.293 81.2578 21.209C81.3457 21.125 81.4736 21.083 81.6416 21.083C81.8037 21.083 81.9287 21.126 82.0166 21.2119C82.1064 21.2979 82.1514 21.4209 82.1514 21.5811C82.1514 21.7354 82.1064 21.8574 82.0166 21.9473C81.9268 22.0352 81.8018 22.0791 81.6416 22.0791C81.4775 22.0791 81.3506 22.0361 81.2607 21.9502C81.1709 21.8623 81.126 21.7393 81.126 21.5811ZM85.7285 22H82.7344V21.3701L83.8096 20.2832C84.1279 19.957 84.3359 19.7314 84.4336 19.6064C84.5312 19.4795 84.6016 19.3623 84.6445 19.2549C84.6875 19.1475 84.709 19.0361 84.709 18.9209C84.709 18.749 84.6611 18.6211 84.5654 18.5371C84.4717 18.4531 84.3457 18.4111 84.1875 18.4111C84.0215 18.4111 83.8604 18.4492 83.7041 18.5254C83.5479 18.6016 83.3848 18.71 83.2148 18.8506L82.7227 18.2676C82.9336 18.0879 83.1084 17.9609 83.2471 17.8867C83.3857 17.8125 83.5371 17.7559 83.7012 17.7168C83.8652 17.6758 84.0488 17.6553 84.252 17.6553C84.5195 17.6553 84.7559 17.7041 84.9609 17.8018C85.166 17.8994 85.3252 18.0361 85.4385 18.2119C85.5518 18.3877 85.6084 18.5889 85.6084 18.8154C85.6084 19.0127 85.5732 19.1982 85.5029 19.3721C85.4346 19.5439 85.3271 19.7207 85.1807 19.9023C85.0361 20.084 84.7803 20.3428 84.4131 20.6787L83.8623 21.1973V21.2383H85.7285V22ZM89.1328 19.8584C89.1328 20.6064 89.0098 21.1602 88.7637 21.5195C88.5195 21.8789 88.1426 22.0586 87.6328 22.0586C87.1387 22.0586 86.7656 21.873 86.5137 21.502C86.2637 21.1309 86.1387 20.583 86.1387 19.8584C86.1387 19.1025 86.2607 18.5459 86.5049 18.1885C86.749 17.8291 87.125 17.6494 87.6328 17.6494C88.127 17.6494 88.5 17.8369 88.752 18.2119C89.0059 18.5869 89.1328 19.1357 89.1328 19.8584ZM87.0381 19.8584C87.0381 20.3838 87.083 20.7607 87.1729 20.9893C87.2646 21.2158 87.418 21.3291 87.6328 21.3291C87.8438 21.3291 87.9961 21.2139 88.0898 20.9834C88.1836 20.7529 88.2305 20.3779 88.2305 19.8584C88.2305 19.333 88.1826 18.9561 88.0869 18.7275C87.9932 18.4971 87.8418 18.3818 87.6328 18.3818C87.4199 18.3818 87.2676 18.4971 87.1758 18.7275C87.084 18.9561 87.0381 19.333 87.0381 19.8584ZM91.1484 22.0586C90.1289 22.0586 89.6191 21.499 89.6191 20.3799C89.6191 19.8232 89.7578 19.3984 90.0352 19.1055C90.3125 18.8105 90.71 18.6631 91.2275 18.6631C91.6064 18.6631 91.9463 18.7373 92.2471 18.8857L91.9834 19.5771C91.8428 19.5205 91.7119 19.4746 91.5908 19.4395C91.4697 19.4023 91.3486 19.3838 91.2275 19.3838C90.7627 19.3838 90.5303 19.7139 90.5303 20.374C90.5303 21.0146 90.7627 21.335 91.2275 21.335C91.3994 21.335 91.5586 21.3125 91.7051 21.2676C91.8516 21.2207 91.998 21.1484 92.1445 21.0508V21.8154C92 21.9072 91.8535 21.9707 91.7051 22.0059C91.5586 22.041 91.373 22.0586 91.1484 22.0586ZM95.8389 22H94.9453V20.0869C94.9453 19.8506 94.9053 19.6738 94.8252 19.5566C94.7471 19.4375 94.623 19.3779 94.4531 19.3779C94.2246 19.3779 94.0586 19.4619 93.9551 19.6299C93.8516 19.7979 93.7998 20.0742 93.7998 20.459V22H92.9062V18.7246H93.5889L93.709 19.1436H93.7588C93.8467 18.9932 93.9736 18.876 94.1396 18.792C94.3057 18.7061 94.4961 18.6631 94.7109 18.6631C95.2012 18.6631 95.5332 18.8232 95.707 19.1436H95.7861C95.874 18.9912 96.0029 18.873 96.1729 18.7891C96.3447 18.7051 96.5381 18.6631 96.7529 18.6631C97.124 18.6631 97.4043 18.7588 97.5938 18.9502C97.7852 19.1396 97.8809 19.4443 97.8809 19.8643V22H96.9844V20.0869C96.9844 19.8506 96.9443 19.6738 96.8643 19.5566C96.7861 19.4375 96.6621 19.3779 96.4922 19.3779C96.2734 19.3779 96.1094 19.4561 96 19.6123C95.8926 19.7686 95.8389 20.0166 95.8389 20.3564V22ZM103.383 22H102.489V20.0869C102.489 19.6143 102.313 19.3779 101.962 19.3779C101.712 19.3779 101.531 19.4629 101.42 19.6328C101.309 19.8027 101.253 20.0781 101.253 20.459V22H100.359V17.4414H101.253V18.3701C101.253 18.4424 101.246 18.6123 101.232 18.8799L101.212 19.1436H101.259C101.458 18.8232 101.774 18.6631 102.208 18.6631C102.593 18.6631 102.885 18.7666 103.084 18.9736C103.283 19.1807 103.383 19.4775 103.383 19.8643V22ZM105.659 19.2988C105.47 19.2988 105.321 19.3594 105.214 19.4805C105.106 19.5996 105.045 19.7695 105.029 19.9902H106.283C106.279 19.7695 106.222 19.5996 106.11 19.4805C105.999 19.3594 105.849 19.2988 105.659 19.2988ZM105.785 22.0586C105.258 22.0586 104.846 21.9131 104.549 21.6221C104.252 21.3311 104.104 20.9189 104.104 20.3857C104.104 19.8369 104.24 19.4131 104.514 19.1143C104.789 18.8135 105.169 18.6631 105.653 18.6631C106.116 18.6631 106.477 18.7949 106.734 19.0586C106.992 19.3223 107.121 19.6865 107.121 20.1514V20.585H105.009C105.019 20.8389 105.094 21.0371 105.234 21.1797C105.375 21.3223 105.572 21.3936 105.826 21.3936C106.023 21.3936 106.21 21.373 106.386 21.332C106.562 21.291 106.745 21.2256 106.937 21.1357V21.8271C106.78 21.9053 106.613 21.9629 106.436 22C106.258 22.0391 106.041 22.0586 105.785 22.0586ZM107.81 17.8779C107.81 17.5869 107.972 17.4414 108.296 17.4414C108.62 17.4414 108.782 17.5869 108.782 17.8779C108.782 18.0166 108.741 18.125 108.659 18.2031C108.579 18.2793 108.458 18.3174 108.296 18.3174C107.972 18.3174 107.81 18.1709 107.81 17.8779ZM108.741 22H107.848V18.7246H108.741V22ZM112.532 18.7246V19.1787L112.02 19.3105C112.113 19.457 112.16 19.6211 112.16 19.8027C112.16 20.1543 112.037 20.4287 111.791 20.626C111.547 20.8213 111.207 20.9189 110.771 20.9189L110.61 20.9102L110.479 20.8955C110.387 20.9658 110.341 21.0439 110.341 21.1299C110.341 21.2588 110.505 21.3232 110.833 21.3232H111.39C111.749 21.3232 112.022 21.4004 112.21 21.5547C112.399 21.709 112.494 21.9355 112.494 22.2344C112.494 22.6172 112.334 22.9141 112.014 23.125C111.695 23.3359 111.237 23.4414 110.64 23.4414C110.183 23.4414 109.833 23.3613 109.591 23.2012C109.351 23.043 109.23 22.8203 109.23 22.5332C109.23 22.3359 109.292 22.1709 109.415 22.0381C109.538 21.9053 109.719 21.8105 109.957 21.7539C109.865 21.7148 109.785 21.6514 109.717 21.5635C109.648 21.4736 109.614 21.3789 109.614 21.2793C109.614 21.1543 109.65 21.0508 109.723 20.9688C109.795 20.8848 109.899 20.8027 110.036 20.7227C109.864 20.6484 109.728 20.5293 109.626 20.3652C109.526 20.2012 109.477 20.0078 109.477 19.7852C109.477 19.4277 109.593 19.1514 109.825 18.9561C110.058 18.7607 110.39 18.6631 110.821 18.6631C110.913 18.6631 111.021 18.6719 111.146 18.6895C111.273 18.7051 111.354 18.7168 111.39 18.7246H112.532ZM110.004 22.4629C110.004 22.5859 110.062 22.6826 110.18 22.7529C110.299 22.8232 110.465 22.8584 110.678 22.8584C110.998 22.8584 111.249 22.8145 111.431 22.7266C111.612 22.6387 111.703 22.5186 111.703 22.3662C111.703 22.2432 111.649 22.1582 111.542 22.1113C111.435 22.0645 111.269 22.041 111.044 22.041H110.581C110.417 22.041 110.279 22.0791 110.168 22.1553C110.059 22.2334 110.004 22.3359 110.004 22.4629ZM110.329 19.7969C110.329 19.9746 110.369 20.1152 110.449 20.2188C110.531 20.3223 110.655 20.374 110.821 20.374C110.989 20.374 111.112 20.3223 111.19 20.2188C111.269 20.1152 111.308 19.9746 111.308 19.7969C111.308 19.4023 111.146 19.2051 110.821 19.2051C110.493 19.2051 110.329 19.4023 110.329 19.7969ZM116.098 22H115.204V20.0869C115.204 19.6143 115.028 19.3779 114.677 19.3779C114.427 19.3779 114.246 19.4629 114.135 19.6328C114.023 19.8027 113.968 20.0781 113.968 20.459V22H113.074V17.4414H113.968V18.3701C113.968 18.4424 113.961 18.6123 113.947 18.8799L113.927 19.1436H113.974C114.173 18.8232 114.489 18.6631 114.923 18.6631C115.308 18.6631 115.6 18.7666 115.799 18.9736C115.998 19.1807 116.098 19.4775 116.098 19.8643V22ZM118.397 21.3467C118.554 21.3467 118.741 21.3125 118.96 21.2441V21.9092C118.737 22.0088 118.464 22.0586 118.14 22.0586C117.782 22.0586 117.521 21.9688 117.357 21.7891C117.195 21.6074 117.114 21.3359 117.114 20.9746V19.3955H116.687V19.0176L117.179 18.7188L117.437 18.0273H118.008V18.7246H118.925V19.3955H118.008V20.9746C118.008 21.1016 118.043 21.1953 118.113 21.2559C118.186 21.3164 118.28 21.3467 118.397 21.3467ZM1.43262 30H0.539062V25.7168H2.99414V26.4609H1.43262V27.5654H2.88574V28.3066H1.43262V30ZM4.47363 28.3564C4.47363 28.6807 4.52637 28.9258 4.63184 29.0918C4.73926 29.2578 4.91309 29.3408 5.15332 29.3408C5.3916 29.3408 5.5625 29.2588 5.66602 29.0947C5.77148 28.9287 5.82422 28.6826 5.82422 28.3564C5.82422 28.0322 5.77148 27.7891 5.66602 27.627C5.56055 27.4648 5.3877 27.3838 5.14746 27.3838C4.90918 27.3838 4.7373 27.4648 4.63184 27.627C4.52637 27.7871 4.47363 28.0303 4.47363 28.3564ZM6.73828 28.3564C6.73828 28.8896 6.59766 29.3066 6.31641 29.6074C6.03516 29.9082 5.64355 30.0586 5.1416 30.0586C4.82715 30.0586 4.5498 29.9902 4.30957 29.8535C4.06934 29.7148 3.88477 29.5166 3.75586 29.2588C3.62695 29.001 3.5625 28.7002 3.5625 28.3564C3.5625 27.8213 3.70215 27.4053 3.98145 27.1084C4.26074 26.8115 4.65332 26.6631 5.15918 26.6631C5.47363 26.6631 5.75098 26.7314 5.99121 26.8682C6.23145 27.0049 6.41602 27.2012 6.54492 27.457C6.67383 27.7129 6.73828 28.0127 6.73828 28.3564ZM10.5 30H9.60645V28.0869C9.60645 27.8506 9.56445 27.6738 9.48047 27.5566C9.39648 27.4375 9.2627 27.3779 9.0791 27.3779C8.8291 27.3779 8.64844 27.4619 8.53711 27.6299C8.42578 27.7959 8.37012 28.0723 8.37012 28.459V30H7.47656V26.7246H8.15918L8.2793 27.1436H8.3291C8.42871 26.9854 8.56543 26.8662 8.73926 26.7861C8.91504 26.7041 9.11426 26.6631 9.33691 26.6631C9.71777 26.6631 10.0068 26.7666 10.2041 26.9736C10.4014 27.1787 10.5 27.4756 10.5 27.8643V30ZM12.7998 29.3467C12.9561 29.3467 13.1436 29.3125 13.3623 29.2441V29.9092C13.1396 30.0088 12.8662 30.0586 12.542 30.0586C12.1846 30.0586 11.9238 29.9688 11.7598 29.7891C11.5977 29.6074 11.5166 29.3359 11.5166 28.9746V27.3955H11.0889V27.0176L11.5811 26.7188L11.8389 26.0273H12.4102V26.7246H13.3271V27.3955H12.4102V28.9746C12.4102 29.1016 12.4453 29.1953 12.5156 29.2559C12.5879 29.3164 12.6826 29.3467 12.7998 29.3467ZM13.9014 29.5811C13.9014 29.417 13.9453 29.293 14.0332 29.209C14.1211 29.125 14.249 29.083 14.417 29.083C14.5791 29.083 14.7041 29.126 14.792 29.2119C14.8818 29.2979 14.9268 29.4209 14.9268 29.5811C14.9268 29.7354 14.8818 29.8574 14.792 29.9473C14.7021 30.0352 14.5771 30.0791 14.417 30.0791C14.2529 30.0791 14.126 30.0361 14.0361 29.9502C13.9463 29.8623 13.9014 29.7393 13.9014 29.5811ZM13.9014 27.1611C13.9014 26.9971 13.9453 26.873 14.0332 26.7891C14.1211 26.7051 14.249 26.6631 14.417 26.6631C14.5791 26.6631 14.7041 26.7061 14.792 26.792C14.8818 26.8779 14.9268 27.001 14.9268 27.1611C14.9268 27.3193 14.8809 27.4424 14.7891 27.5303C14.6992 27.6162 14.5752 27.6592 14.417 27.6592C14.2529 27.6592 14.126 27.6162 14.0361 27.5303C13.9463 27.4443 13.9014 27.3213 13.9014 27.1611ZM19.9893 30L19.6787 28.9805H18.1172L17.8066 30H16.8281L18.3398 25.6992H19.4502L20.9678 30H19.9893ZM19.4619 28.2188C19.1748 27.2949 19.0127 26.7725 18.9756 26.6514C18.9404 26.5303 18.915 26.4346 18.8994 26.3643C18.835 26.6143 18.6504 27.2324 18.3457 28.2188H19.4619ZM22.2979 28.2188L22.6875 27.7207L23.6045 26.7246H24.6123L23.3115 28.1455L24.6914 30H23.6602L22.7168 28.6729L22.333 28.9805V30H21.4395V25.4414H22.333V27.4746L22.2861 28.2188H22.2979ZM26.0186 28.2188L26.4082 27.7207L27.3252 26.7246H28.333L27.0322 28.1455L28.4121 30H27.3809L26.4375 28.6729L26.0537 28.9805V30H25.1602V25.4414H26.0537V27.4746L26.0068 28.2188H26.0186ZM31.2012 30L31.0811 29.5811H31.0342C30.9385 29.7334 30.8027 29.8516 30.627 29.9355C30.4512 30.0176 30.251 30.0586 30.0264 30.0586C29.6416 30.0586 29.3516 29.9561 29.1562 29.751C28.9609 29.5439 28.8633 29.2471 28.8633 28.8604V26.7246H29.7568V28.6377C29.7568 28.874 29.7988 29.0518 29.8828 29.1709C29.9668 29.2881 30.1006 29.3467 30.2842 29.3467C30.5342 29.3467 30.7148 29.2637 30.8262 29.0977C30.9375 28.9297 30.9932 28.6523 30.9932 28.2656V26.7246H31.8867V30H31.2012ZM34.6523 26.6631C34.7734 26.6631 34.874 26.6719 34.9541 26.6895L34.8867 27.5273C34.8145 27.5078 34.7266 27.498 34.623 27.498C34.3379 27.498 34.1152 27.5713 33.9551 27.7178C33.7969 27.8643 33.7178 28.0693 33.7178 28.333V30H32.8242V26.7246H33.501L33.6328 27.2754H33.6768C33.7783 27.0918 33.915 26.9443 34.0869 26.833C34.2607 26.7197 34.4492 26.6631 34.6523 26.6631ZM37.6289 30L37.4561 29.5547H37.4326C37.2822 29.7441 37.127 29.876 36.9668 29.9502C36.8086 30.0225 36.6016 30.0586 36.3457 30.0586C36.0312 30.0586 35.7832 29.9688 35.6016 29.7891C35.4219 29.6094 35.332 29.3535 35.332 29.0215C35.332 28.6738 35.4531 28.418 35.6953 28.2539C35.9395 28.0879 36.3066 27.9961 36.7969 27.9785L37.3652 27.9609V27.8174C37.3652 27.4854 37.1953 27.3193 36.8555 27.3193C36.5938 27.3193 36.2861 27.3984 35.9326 27.5566L35.6367 26.9531C36.0137 26.7559 36.4316 26.6572 36.8906 26.6572C37.3301 26.6572 37.667 26.7529 37.9014 26.9443C38.1357 27.1357 38.2529 27.4268 38.2529 27.8174V30H37.6289ZM37.3652 28.4824L37.0195 28.4941C36.7598 28.502 36.5664 28.5488 36.4395 28.6348C36.3125 28.7207 36.249 28.8516 36.249 29.0273C36.249 29.2793 36.3936 29.4053 36.6826 29.4053C36.8896 29.4053 37.0547 29.3457 37.1777 29.2266C37.3027 29.1074 37.3652 28.9492 37.3652 28.752V28.4824ZM40.5557 29.3467C40.7119 29.3467 40.8994 29.3125 41.1182 29.2441V29.9092C40.8955 30.0088 40.6221 30.0586 40.2979 30.0586C39.9404 30.0586 39.6797 29.9688 39.5156 29.7891C39.3535 29.6074 39.2725 29.3359 39.2725 28.9746V27.3955H38.8447V27.0176L39.3369 26.7188L39.5947 26.0273H40.166V26.7246H41.083V27.3955H40.166V28.9746C40.166 29.1016 40.2012 29.1953 40.2715 29.2559C40.3438 29.3164 40.4385 29.3467 40.5557 29.3467ZM1.43262 38H0.539062V33.7168H2.99414V34.4609H1.43262V35.5654H2.88574V36.3066H1.43262V38ZM4.47363 36.3564C4.47363 36.6807 4.52637 36.9258 4.63184 37.0918C4.73926 37.2578 4.91309 37.3408 5.15332 37.3408C5.3916 37.3408 5.5625 37.2588 5.66602 37.0947C5.77148 36.9287 5.82422 36.6826 5.82422 36.3564C5.82422 36.0322 5.77148 35.7891 5.66602 35.627C5.56055 35.4648 5.3877 35.3838 5.14746 35.3838C4.90918 35.3838 4.7373 35.4648 4.63184 35.627C4.52637 35.7871 4.47363 36.0303 4.47363 36.3564ZM6.73828 36.3564C6.73828 36.8896 6.59766 37.3066 6.31641 37.6074C6.03516 37.9082 5.64355 38.0586 5.1416 38.0586C4.82715 38.0586 4.5498 37.9902 4.30957 37.8535C4.06934 37.7148 3.88477 37.5166 3.75586 37.2588C3.62695 37.001 3.5625 36.7002 3.5625 36.3564C3.5625 35.8213 3.70215 35.4053 3.98145 35.1084C4.26074 34.8115 4.65332 34.6631 5.15918 34.6631C5.47363 34.6631 5.75098 34.7314 5.99121 34.8682C6.23145 35.0049 6.41602 35.2012 6.54492 35.457C6.67383 35.7129 6.73828 36.0127 6.73828 36.3564ZM10.5 38H9.60645V36.0869C9.60645 35.8506 9.56445 35.6738 9.48047 35.5566C9.39648 35.4375 9.2627 35.3779 9.0791 35.3779C8.8291 35.3779 8.64844 35.4619 8.53711 35.6299C8.42578 35.7959 8.37012 36.0723 8.37012 36.459V38H7.47656V34.7246H8.15918L8.2793 35.1436H8.3291C8.42871 34.9854 8.56543 34.8662 8.73926 34.7861C8.91504 34.7041 9.11426 34.6631 9.33691 34.6631C9.71777 34.6631 10.0068 34.7666 10.2041 34.9736C10.4014 35.1787 10.5 35.4756 10.5 35.8643V38ZM12.7998 37.3467C12.9561 37.3467 13.1436 37.3125 13.3623 37.2441V37.9092C13.1396 38.0088 12.8662 38.0586 12.542 38.0586C12.1846 38.0586 11.9238 37.9688 11.7598 37.7891C11.5977 37.6074 11.5166 37.3359 11.5166 36.9746V35.3955H11.0889V35.0176L11.5811 34.7188L11.8389 34.0273H12.4102V34.7246H13.3271V35.3955H12.4102V36.9746C12.4102 37.1016 12.4453 37.1953 12.5156 37.2559C12.5879 37.3164 12.6826 37.3467 12.7998 37.3467ZM17.3086 38H16.4004V34.4727H15.2373V33.7168H18.4717V34.4727H17.3086V38ZM20.9502 34.4111C20.6084 34.4111 20.3438 34.54 20.1562 34.7979C19.9688 35.0537 19.875 35.4111 19.875 35.8701C19.875 36.8252 20.2334 37.3027 20.9502 37.3027C21.251 37.3027 21.6152 37.2275 22.043 37.0771V37.8389C21.6914 37.9854 21.2988 38.0586 20.8652 38.0586C20.2422 38.0586 19.7656 37.8701 19.4355 37.4932C19.1055 37.1143 18.9404 36.5713 18.9404 35.8643C18.9404 35.4189 19.0215 35.0293 19.1836 34.6953C19.3457 34.3594 19.5781 34.1025 19.8809 33.9248C20.1855 33.7451 20.542 33.6553 20.9502 33.6553C21.3662 33.6553 21.7842 33.7559 22.2041 33.957L21.9111 34.6953C21.751 34.6191 21.5898 34.5527 21.4277 34.4961C21.2656 34.4395 21.1064 34.4111 20.9502 34.4111ZM22.7607 37.5811C22.7607 37.417 22.8047 37.293 22.8926 37.209C22.9805 37.125 23.1084 37.083 23.2764 37.083C23.4385 37.083 23.5635 37.126 23.6514 37.2119C23.7412 37.2979 23.7861 37.4209 23.7861 37.5811C23.7861 37.7354 23.7412 37.8574 23.6514 37.9473C23.5615 38.0352 23.4365 38.0791 23.2764 38.0791C23.1123 38.0791 22.9854 38.0361 22.8955 37.9502C22.8057 37.8623 22.7607 37.7393 22.7607 37.5811ZM22.7607 35.1611C22.7607 34.9971 22.8047 34.873 22.8926 34.7891C22.9805 34.7051 23.1084 34.6631 23.2764 34.6631C23.4385 34.6631 23.5635 34.7061 23.6514 34.792C23.7412 34.8779 23.7861 35.001 23.7861 35.1611C23.7861 35.3193 23.7402 35.4424 23.6484 35.5303C23.5586 35.6162 23.4346 35.6592 23.2764 35.6592C23.1123 35.6592 22.9854 35.6162 22.8955 35.5303C22.8057 35.4443 22.7607 35.3213 22.7607 35.1611ZM27.5127 35.2988C27.3232 35.2988 27.1748 35.3594 27.0674 35.4805C26.96 35.5996 26.8984 35.7695 26.8828 35.9902H28.1367C28.1328 35.7695 28.0752 35.5996 27.9639 35.4805C27.8525 35.3594 27.7021 35.2988 27.5127 35.2988ZM27.6387 38.0586C27.1113 38.0586 26.6992 37.9131 26.4023 37.6221C26.1055 37.3311 25.957 36.9189 25.957 36.3857C25.957 35.8369 26.0938 35.4131 26.3672 35.1143C26.6426 34.8135 27.0225 34.6631 27.5068 34.6631C27.9697 34.6631 28.3301 34.7949 28.5879 35.0586C28.8457 35.3223 28.9746 35.6865 28.9746 36.1514V36.585H26.8623C26.8721 36.8389 26.9473 37.0371 27.0879 37.1797C27.2285 37.3223 27.4258 37.3936 27.6797 37.3936C27.877 37.3936 28.0635 37.373 28.2393 37.332C28.415 37.291 28.5986 37.2256 28.79 37.1357V37.8271C28.6338 37.9053 28.4668 37.9629 28.2891 38C28.1113 38.0391 27.8945 38.0586 27.6387 38.0586ZM32.0215 38L31.9014 37.5811H31.8545C31.7588 37.7334 31.623 37.8516 31.4473 37.9355C31.2715 38.0176 31.0713 38.0586 30.8467 38.0586C30.4619 38.0586 30.1719 37.9561 29.9766 37.751C29.7812 37.5439 29.6836 37.2471 29.6836 36.8604V34.7246H30.5771V36.6377C30.5771 36.874 30.6191 37.0518 30.7031 37.1709C30.7871 37.2881 30.9209 37.3467 31.1045 37.3467C31.3545 37.3467 31.5352 37.2637 31.6465 37.0977C31.7578 36.9297 31.8135 36.6523 31.8135 36.2656V34.7246H32.707V38H32.0215ZM35.4727 34.6631C35.5938 34.6631 35.6943 34.6719 35.7744 34.6895L35.707 35.5273C35.6348 35.5078 35.5469 35.498 35.4434 35.498C35.1582 35.498 34.9355 35.5713 34.7754 35.7178C34.6172 35.8643 34.5381 36.0693 34.5381 36.333V38H33.6445V34.7246H34.3213L34.4531 35.2754H34.4971C34.5986 35.0918 34.7354 34.9443 34.9072 34.833C35.0811 34.7197 35.2695 34.6631 35.4727 34.6631ZM37.0811 36.3564C37.0811 36.6807 37.1338 36.9258 37.2393 37.0918C37.3467 37.2578 37.5205 37.3408 37.7607 37.3408C37.999 37.3408 38.1699 37.2588 38.2734 37.0947C38.3789 36.9287 38.4316 36.6826 38.4316 36.3564C38.4316 36.0322 38.3789 35.7891 38.2734 35.627C38.168 35.4648 37.9951 35.3838 37.7549 35.3838C37.5166 35.3838 37.3447 35.4648 37.2393 35.627C37.1338 35.7871 37.0811 36.0303 37.0811 36.3564ZM39.3457 36.3564C39.3457 36.8896 39.2051 37.3066 38.9238 37.6074C38.6426 37.9082 38.251 38.0586 37.749 38.0586C37.4346 38.0586 37.1572 37.9902 36.917 37.8535C36.6768 37.7148 36.4922 37.5166 36.3633 37.2588C36.2344 37.001 36.1699 36.7002 36.1699 36.3564C36.1699 35.8213 36.3096 35.4053 36.5889 35.1084C36.8682 34.8115 37.2607 34.6631 37.7666 34.6631C38.0811 34.6631 38.3584 34.7314 38.5986 34.8682C38.8389 35.0049 39.0234 35.2012 39.1523 35.457C39.2812 35.7129 39.3457 36.0127 39.3457 36.3564ZM42.3691 37.0273C42.3691 37.3633 42.252 37.6191 42.0176 37.7949C41.7852 37.9707 41.4365 38.0586 40.9717 38.0586C40.7334 38.0586 40.5303 38.042 40.3623 38.0088C40.1943 37.9775 40.0371 37.9307 39.8906 37.8682V37.1299C40.0566 37.208 40.2432 37.2734 40.4502 37.3262C40.6592 37.3789 40.8428 37.4053 41.001 37.4053C41.3252 37.4053 41.4873 37.3115 41.4873 37.124C41.4873 37.0537 41.4658 36.9971 41.4229 36.9541C41.3799 36.9092 41.3057 36.8594 41.2002 36.8047C41.0947 36.748 40.9541 36.6826 40.7783 36.6084C40.5264 36.5029 40.3408 36.4053 40.2217 36.3154C40.1045 36.2256 40.0186 36.123 39.9639 36.0078C39.9111 35.8906 39.8848 35.7471 39.8848 35.5771C39.8848 35.2861 39.9971 35.0615 40.2217 34.9033C40.4482 34.7432 40.7686 34.6631 41.1826 34.6631C41.5771 34.6631 41.9609 34.749 42.334 34.9209L42.0645 35.5654C41.9004 35.4951 41.7471 35.4375 41.6045 35.3926C41.4619 35.3477 41.3164 35.3252 41.168 35.3252C40.9043 35.3252 40.7725 35.3965 40.7725 35.5391C40.7725 35.6191 40.8145 35.6885 40.8984 35.7471C40.9844 35.8057 41.1709 35.8926 41.458 36.0078C41.7139 36.1113 41.9014 36.208 42.0205 36.2979C42.1396 36.3877 42.2275 36.4912 42.2842 36.6084C42.3408 36.7256 42.3691 36.8652 42.3691 37.0273ZM44.4463 37.3467C44.6025 37.3467 44.79 37.3125 45.0088 37.2441V37.9092C44.7861 38.0088 44.5127 38.0586 44.1885 38.0586C43.8311 38.0586 43.5703 37.9688 43.4062 37.7891C43.2441 37.6074 43.1631 37.3359 43.1631 36.9746V35.3955H42.7354V35.0176L43.2275 34.7188L43.4854 34.0273H44.0566V34.7246H44.9736V35.3955H44.0566V36.9746C44.0566 37.1016 44.0918 37.1953 44.1621 37.2559C44.2344 37.3164 44.3291 37.3467 44.4463 37.3467ZM47.7539 38L47.5811 37.5547H47.5576C47.4072 37.7441 47.252 37.876 47.0918 37.9502C46.9336 38.0225 46.7266 38.0586 46.4707 38.0586C46.1562 38.0586 45.9082 37.9688 45.7266 37.7891C45.5469 37.6094 45.457 37.3535 45.457 37.0215C45.457 36.6738 45.5781 36.418 45.8203 36.2539C46.0645 36.0879 46.4316 35.9961 46.9219 35.9785L47.4902 35.9609V35.8174C47.4902 35.4854 47.3203 35.3193 46.9805 35.3193C46.7188 35.3193 46.4111 35.3984 46.0576 35.5566L45.7617 34.9531C46.1387 34.7559 46.5566 34.6572 47.0156 34.6572C47.4551 34.6572 47.792 34.7529 48.0264 34.9443C48.2607 35.1357 48.3779 35.4268 48.3779 35.8174V38H47.7539ZM47.4902 36.4824L47.1445 36.4941C46.8848 36.502 46.6914 36.5488 46.5645 36.6348C46.4375 36.7207 46.374 36.8516 46.374 37.0273C46.374 37.2793 46.5186 37.4053 46.8076 37.4053C47.0146 37.4053 47.1797 37.3457 47.3027 37.2266C47.4277 37.1074 47.4902 36.9492 47.4902 36.752V36.4824ZM51.1289 34.6631C51.25 34.6631 51.3506 34.6719 51.4307 34.6895L51.3633 35.5273C51.291 35.5078 51.2031 35.498 51.0996 35.498C50.8145 35.498 50.5918 35.5713 50.4316 35.7178C50.2734 35.8643 50.1943 36.0693 50.1943 36.333V38H49.3008V34.7246H49.9775L50.1094 35.2754H50.1533C50.2549 35.0918 50.3916 34.9443 50.5635 34.833C50.7373 34.7197 50.9258 34.6631 51.1289 34.6631ZM53.8535 34.6631C53.9746 34.6631 54.0752 34.6719 54.1553 34.6895L54.0879 35.5273C54.0156 35.5078 53.9277 35.498 53.8242 35.498C53.5391 35.498 53.3164 35.5713 53.1562 35.7178C52.998 35.8643 52.9189 36.0693 52.9189 36.333V38H52.0254V34.7246H52.7021L52.834 35.2754H52.8779C52.9795 35.0918 53.1162 34.9443 53.2881 34.833C53.4619 34.7197 53.6504 34.6631 53.8535 34.6631ZM56.1064 35.2988C55.917 35.2988 55.7686 35.3594 55.6611 35.4805C55.5537 35.5996 55.4922 35.7695 55.4766 35.9902H56.7305C56.7266 35.7695 56.6689 35.5996 56.5576 35.4805C56.4463 35.3594 56.2959 35.2988 56.1064 35.2988ZM56.2324 38.0586C55.7051 38.0586 55.293 37.9131 54.9961 37.6221C54.6992 37.3311 54.5508 36.9189 54.5508 36.3857C54.5508 35.8369 54.6875 35.4131 54.9609 35.1143C55.2363 34.8135 55.6162 34.6631 56.1006 34.6631C56.5635 34.6631 56.9238 34.7949 57.1816 35.0586C57.4395 35.3223 57.5684 35.6865 57.5684 36.1514V36.585H55.4561C55.4658 36.8389 55.541 37.0371 55.6816 37.1797C55.8223 37.3223 56.0195 37.3936 56.2734 37.3936C56.4707 37.3936 56.6572 37.373 56.833 37.332C57.0088 37.291 57.1924 37.2256 57.3838 37.1357V37.8271C57.2275 37.9053 57.0605 37.9629 56.8828 38C56.7051 38.0391 56.4883 38.0586 56.2324 38.0586ZM61.1455 34.7246V35.1787L60.6328 35.3105C60.7266 35.457 60.7734 35.6211 60.7734 35.8027C60.7734 36.1543 60.6504 36.4287 60.4043 36.626C60.1602 36.8213 59.8203 36.9189 59.3848 36.9189L59.2236 36.9102L59.0918 36.8955C59 36.9658 58.9541 37.0439 58.9541 37.1299C58.9541 37.2588 59.1182 37.3232 59.4463 37.3232H60.0029C60.3623 37.3232 60.6357 37.4004 60.8232 37.5547C61.0127 37.709 61.1074 37.9355 61.1074 38.2344C61.1074 38.6172 60.9473 38.9141 60.627 39.125C60.3086 39.3359 59.8506 39.4414 59.2529 39.4414C58.7959 39.4414 58.4463 39.3613 58.2041 39.2012C57.9639 39.043 57.8438 38.8203 57.8438 38.5332C57.8438 38.3359 57.9053 38.1709 58.0283 38.0381C58.1514 37.9053 58.332 37.8105 58.5703 37.7539C58.4785 37.7148 58.3984 37.6514 58.3301 37.5635C58.2617 37.4736 58.2275 37.3789 58.2275 37.2793C58.2275 37.1543 58.2637 37.0508 58.3359 36.9688C58.4082 36.8848 58.5127 36.8027 58.6494 36.7227C58.4775 36.6484 58.3408 36.5293 58.2393 36.3652C58.1396 36.2012 58.0898 36.0078 58.0898 35.7852C58.0898 35.4277 58.2061 35.1514 58.4385 34.9561C58.6709 34.7607 59.0029 34.6631 59.4346 34.6631C59.5264 34.6631 59.6348 34.6719 59.7598 34.6895C59.8867 34.7051 59.9678 34.7168 60.0029 34.7246H61.1455ZM58.6172 38.4629C58.6172 38.5859 58.6758 38.6826 58.793 38.7529C58.9121 38.8232 59.0781 38.8584 59.291 38.8584C59.6113 38.8584 59.8623 38.8145 60.0439 38.7266C60.2256 38.6387 60.3164 38.5186 60.3164 38.3662C60.3164 38.2432 60.2627 38.1582 60.1553 38.1113C60.0479 38.0645 59.8818 38.041 59.6572 38.041H59.1943C59.0303 38.041 58.8926 38.0791 58.7812 38.1553C58.6719 38.2334 58.6172 38.3359 58.6172 38.4629ZM58.9424 35.7969C58.9424 35.9746 58.9824 36.1152 59.0625 36.2188C59.1445 36.3223 59.2686 36.374 59.4346 36.374C59.6025 36.374 59.7256 36.3223 59.8037 36.2188C59.8818 36.1152 59.9209 35.9746 59.9209 35.7969C59.9209 35.4023 59.7588 35.2051 59.4346 35.2051C59.1064 35.2051 58.9424 35.4023 58.9424 35.7969ZM64.0078 38L63.8877 37.5811H63.8408C63.7451 37.7334 63.6094 37.8516 63.4336 37.9355C63.2578 38.0176 63.0576 38.0586 62.833 38.0586C62.4482 38.0586 62.1582 37.9561 61.9629 37.751C61.7676 37.5439 61.6699 37.2471 61.6699 36.8604V34.7246H62.5635V36.6377C62.5635 36.874 62.6055 37.0518 62.6895 37.1709C62.7734 37.2881 62.9072 37.3467 63.0908 37.3467C63.3408 37.3467 63.5215 37.2637 63.6328 37.0977C63.7441 36.9297 63.7998 36.6523 63.7998 36.2656V34.7246H64.6934V38H64.0078ZM66.5244 38H65.6309V33.4414H66.5244V38ZM69.5449 38L69.3721 37.5547H69.3486C69.1982 37.7441 69.043 37.876 68.8828 37.9502C68.7246 38.0225 68.5176 38.0586 68.2617 38.0586C67.9473 38.0586 67.6992 37.9688 67.5176 37.7891C67.3379 37.6094 67.248 37.3535 67.248 37.0215C67.248 36.6738 67.3691 36.418 67.6113 36.2539C67.8555 36.0879 68.2227 35.9961 68.7129 35.9785L69.2812 35.9609V35.8174C69.2812 35.4854 69.1113 35.3193 68.7715 35.3193C68.5098 35.3193 68.2021 35.3984 67.8486 35.5566L67.5527 34.9531C67.9297 34.7559 68.3477 34.6572 68.8066 34.6572C69.2461 34.6572 69.583 34.7529 69.8174 34.9443C70.0518 35.1357 70.1689 35.4268 70.1689 35.8174V38H69.5449ZM69.2812 36.4824L68.9355 36.4941C68.6758 36.502 68.4824 36.5488 68.3555 36.6348C68.2285 36.7207 68.165 36.8516 68.165 37.0273C68.165 37.2793 68.3096 37.4053 68.5986 37.4053C68.8057 37.4053 68.9707 37.3457 69.0938 37.2266C69.2188 37.1074 69.2812 36.9492 69.2812 36.752V36.4824ZM72.9199 34.6631C73.041 34.6631 73.1416 34.6719 73.2217 34.6895L73.1543 35.5273C73.082 35.5078 72.9941 35.498 72.8906 35.498C72.6055 35.498 72.3828 35.5713 72.2227 35.7178C72.0645 35.8643 71.9854 36.0693 71.9854 36.333V38H71.0918V34.7246H71.7686L71.9004 35.2754H71.9443C72.0459 35.0918 72.1826 34.9443 72.3545 34.833C72.5283 34.7197 72.7168 34.6631 72.9199 34.6631ZM75.1729 35.2988C74.9834 35.2988 74.835 35.3594 74.7275 35.4805C74.6201 35.5996 74.5586 35.7695 74.543 35.9902H75.7969C75.793 35.7695 75.7354 35.5996 75.624 35.4805C75.5127 35.3594 75.3623 35.2988 75.1729 35.2988ZM75.2988 38.0586C74.7715 38.0586 74.3594 37.9131 74.0625 37.6221C73.7656 37.3311 73.6172 36.9189 73.6172 36.3857C73.6172 35.8369 73.7539 35.4131 74.0273 35.1143C74.3027 34.8135 74.6826 34.6631 75.167 34.6631C75.6299 34.6631 75.9902 34.7949 76.248 35.0586C76.5059 35.3223 76.6348 35.6865 76.6348 36.1514V36.585H74.5225C74.5322 36.8389 74.6074 37.0371 74.748 37.1797C74.8887 37.3223 75.0859 37.3936 75.3398 37.3936C75.5371 37.3936 75.7236 37.373 75.8994 37.332C76.0752 37.291 76.2588 37.2256 76.4502 37.1357V37.8271C76.2939 37.9053 76.127 37.9629 75.9492 38C75.7715 38.0391 75.5547 38.0586 75.2988 38.0586ZM78.0322 36.3271L76.9775 34.7246H77.9912L78.627 35.7676L79.2686 34.7246H80.2822L79.2158 36.3271L80.332 38H79.3154L78.627 36.8779L77.9355 38H76.9219L78.0322 36.3271ZM82.21 37.3467C82.3662 37.3467 82.5537 37.3125 82.7725 37.2441V37.9092C82.5498 38.0088 82.2764 38.0586 81.9521 38.0586C81.5947 38.0586 81.334 37.9688 81.1699 37.7891C81.0078 37.6074 80.9268 37.3359 80.9268 36.9746V35.3955H80.499V35.0176L80.9912 34.7188L81.249 34.0273H81.8203V34.7246H82.7373V35.3955H81.8203V36.9746C81.8203 37.1016 81.8555 37.1953 81.9258 37.2559C81.998 37.3164 82.0928 37.3467 82.21 37.3467ZM84.7939 35.2988C84.6045 35.2988 84.4561 35.3594 84.3486 35.4805C84.2412 35.5996 84.1797 35.7695 84.1641 35.9902H85.418C85.4141 35.7695 85.3564 35.5996 85.2451 35.4805C85.1338 35.3594 84.9834 35.2988 84.7939 35.2988ZM84.9199 38.0586C84.3926 38.0586 83.9805 37.9131 83.6836 37.6221C83.3867 37.3311 83.2383 36.9189 83.2383 36.3857C83.2383 35.8369 83.375 35.4131 83.6484 35.1143C83.9238 34.8135 84.3037 34.6631 84.7881 34.6631C85.251 34.6631 85.6113 34.7949 85.8691 35.0586C86.127 35.3223 86.2559 35.6865 86.2559 36.1514V36.585H84.1436C84.1533 36.8389 84.2285 37.0371 84.3691 37.1797C84.5098 37.3223 84.707 37.3936 84.9609 37.3936C85.1582 37.3936 85.3447 37.373 85.5205 37.332C85.6963 37.291 85.8799 37.2256 86.0713 37.1357V37.8271C85.915 37.9053 85.748 37.9629 85.5703 38C85.3926 38.0391 85.1758 38.0586 84.9199 38.0586ZM90.0059 38H89.1123V36.0869C89.1123 35.8506 89.0703 35.6738 88.9863 35.5566C88.9023 35.4375 88.7686 35.3779 88.585 35.3779C88.335 35.3779 88.1543 35.4619 88.043 35.6299C87.9316 35.7959 87.876 36.0723 87.876 36.459V38H86.9824V34.7246H87.665L87.7852 35.1436H87.835C87.9346 34.9854 88.0713 34.8662 88.2451 34.7861C88.4209 34.7041 88.6201 34.6631 88.8428 34.6631C89.2236 34.6631 89.5127 34.7666 89.71 34.9736C89.9072 35.1787 90.0059 35.4756 90.0059 35.8643V38ZM91.9629 38.0586C91.5781 38.0586 91.2754 37.9092 91.0547 37.6104C90.8359 37.3115 90.7266 36.8975 90.7266 36.3682C90.7266 35.8311 90.8379 35.4131 91.0605 35.1143C91.2852 34.8135 91.5938 34.6631 91.9863 34.6631C92.3984 34.6631 92.7129 34.8232 92.9297 35.1436H92.959C92.9141 34.8994 92.8916 34.6816 92.8916 34.4902V33.4414H93.7881V38H93.1025L92.9297 37.5752H92.8916C92.6885 37.8975 92.3789 38.0586 91.9629 38.0586ZM92.2764 37.3467C92.5049 37.3467 92.6719 37.2803 92.7773 37.1475C92.8848 37.0146 92.9434 36.7891 92.9531 36.4707V36.374C92.9531 36.0225 92.8984 35.7705 92.7891 35.6182C92.6816 35.4658 92.5059 35.3896 92.2617 35.3896C92.0625 35.3896 91.9072 35.4746 91.7959 35.6445C91.6865 35.8125 91.6318 36.0576 91.6318 36.3799C91.6318 36.7021 91.6875 36.9443 91.7988 37.1064C91.9102 37.2666 92.0693 37.3467 92.2764 37.3467ZM96.0791 35.2988C95.8896 35.2988 95.7412 35.3594 95.6338 35.4805C95.5264 35.5996 95.4648 35.7695 95.4492 35.9902H96.7031C96.6992 35.7695 96.6416 35.5996 96.5303 35.4805C96.4189 35.3594 96.2686 35.2988 96.0791 35.2988ZM96.2051 38.0586C95.6777 38.0586 95.2656 37.9131 94.9688 37.6221C94.6719 37.3311 94.5234 36.9189 94.5234 36.3857C94.5234 35.8369 94.6602 35.4131 94.9336 35.1143C95.209 34.8135 95.5889 34.6631 96.0732 34.6631C96.5361 34.6631 96.8965 34.7949 97.1543 35.0586C97.4121 35.3223 97.541 35.6865 97.541 36.1514V36.585H95.4287C95.4385 36.8389 95.5137 37.0371 95.6543 37.1797C95.7949 37.3223 95.9922 37.3936 96.2461 37.3936C96.4434 37.3936 96.6299 37.373 96.8057 37.332C96.9814 37.291 97.165 37.2256 97.3564 37.1357V37.8271C97.2002 37.9053 97.0332 37.9629 96.8555 38C96.6777 38.0391 96.4609 38.0586 96.2051 38.0586ZM99.3047 38.0586C98.9199 38.0586 98.6172 37.9092 98.3965 37.6104C98.1777 37.3115 98.0684 36.8975 98.0684 36.3682C98.0684 35.8311 98.1797 35.4131 98.4023 35.1143C98.627 34.8135 98.9355 34.6631 99.3281 34.6631C99.7402 34.6631 100.055 34.8232 100.271 35.1436H100.301C100.256 34.8994 100.233 34.6816 100.233 34.4902V33.4414H101.13V38H100.444L100.271 37.5752H100.233C100.03 37.8975 99.7207 38.0586 99.3047 38.0586ZM99.6182 37.3467C99.8467 37.3467 100.014 37.2803 100.119 37.1475C100.227 37.0146 100.285 36.7891 100.295 36.4707V36.374C100.295 36.0225 100.24 35.7705 100.131 35.6182C100.023 35.4658 99.8477 35.3896 99.6035 35.3896C99.4043 35.3896 99.249 35.4746 99.1377 35.6445C99.0283 35.8125 98.9736 36.0576 98.9736 36.3799C98.9736 36.7021 99.0293 36.9443 99.1406 37.1064C99.252 37.2666 99.4111 37.3467 99.6182 37.3467ZM101.938 37.5811C101.938 37.417 101.982 37.293 102.07 37.209C102.158 37.125 102.286 37.083 102.454 37.083C102.616 37.083 102.741 37.126 102.829 37.2119C102.919 37.2979 102.964 37.4209 102.964 37.5811C102.964 37.7354 102.919 37.8574 102.829 37.9473C102.739 38.0352 102.614 38.0791 102.454 38.0791C102.29 38.0791 102.163 38.0361 102.073 37.9502C101.983 37.8623 101.938 37.7393 101.938 37.5811ZM105.155 37.3467C105.312 37.3467 105.499 37.3125 105.718 37.2441V37.9092C105.495 38.0088 105.222 38.0586 104.897 38.0586C104.54 38.0586 104.279 37.9688 104.115 37.7891C103.953 37.6074 103.872 37.3359 103.872 36.9746V35.3955H103.444V35.0176L103.937 34.7188L104.194 34.0273H104.766V34.7246H105.683V35.3955H104.766V36.9746C104.766 37.1016 104.801 37.1953 104.871 37.2559C104.943 37.3164 105.038 37.3467 105.155 37.3467ZM107.763 37.3467C107.919 37.3467 108.106 37.3125 108.325 37.2441V37.9092C108.103 38.0088 107.829 38.0586 107.505 38.0586C107.147 38.0586 106.887 37.9688 106.723 37.7891C106.561 37.6074 106.479 37.3359 106.479 36.9746V35.3955H106.052V35.0176L106.544 34.7188L106.802 34.0273H107.373V34.7246H108.29V35.3955H107.373V36.9746C107.373 37.1016 107.408 37.1953 107.479 37.2559C107.551 37.3164 107.646 37.3467 107.763 37.3467ZM110.801 35.3955H110.027V38H109.134V35.3955H108.642V34.9648L109.134 34.7246V34.4844C109.134 34.1113 109.226 33.8389 109.409 33.667C109.593 33.4951 109.887 33.4092 110.291 33.4092C110.6 33.4092 110.874 33.4551 111.114 33.5469L110.886 34.2031C110.706 34.1465 110.54 34.1182 110.388 34.1182C110.261 34.1182 110.169 34.1562 110.112 34.2324C110.056 34.3066 110.027 34.4023 110.027 34.5195V34.7246H110.801V35.3955ZM3.49219 46H2.59863V44.0869C2.59863 43.6143 2.42285 43.3779 2.07129 43.3779C1.82129 43.3779 1.64062 43.4629 1.5293 43.6328C1.41797 43.8027 1.3623 44.0781 1.3623 44.459V46H0.46875V41.4414H1.3623V42.3701C1.3623 42.4424 1.35547 42.6123 1.3418 42.8799L1.32129 43.1436H1.36816C1.56738 42.8232 1.88379 42.6631 2.31738 42.6631C2.70215 42.6631 2.99414 42.7666 3.19336 42.9736C3.39258 43.1807 3.49219 43.4775 3.49219 43.8643V46ZM5.79199 45.3467C5.94824 45.3467 6.13574 45.3125 6.35449 45.2441V45.9092C6.13184 46.0088 5.8584 46.0586 5.53418 46.0586C5.17676 46.0586 4.91602 45.9688 4.75195 45.7891C4.58984 45.6074 4.50879 45.3359 4.50879 44.9746V43.3955H4.08105V43.0176L4.57324 42.7188L4.83105 42.0273H5.40234V42.7246H6.31934V43.3955H5.40234V44.9746C5.40234 45.1016 5.4375 45.1953 5.50781 45.2559C5.58008 45.3164 5.6748 45.3467 5.79199 45.3467ZM8.39941 45.3467C8.55566 45.3467 8.74316 45.3125 8.96191 45.2441V45.9092C8.73926 46.0088 8.46582 46.0586 8.1416 46.0586C7.78418 46.0586 7.52344 45.9688 7.35938 45.7891C7.19727 45.6074 7.11621 45.3359 7.11621 44.9746V43.3955H6.68848V43.0176L7.18066 42.7188L7.43848 42.0273H8.00977V42.7246H8.92676V43.3955H8.00977V44.9746C8.00977 45.1016 8.04492 45.1953 8.11523 45.2559C8.1875 45.3164 8.28223 45.3467 8.39941 45.3467ZM11.4258 46.0586C11.041 46.0586 10.7393 45.9189 10.5205 45.6396H10.4736C10.5049 45.9131 10.5205 46.0713 10.5205 46.1143V47.4414H9.62695V42.7246H10.3535L10.4795 43.1494H10.5205C10.7295 42.8252 11.0391 42.6631 11.4492 42.6631C11.8359 42.6631 12.1387 42.8125 12.3574 43.1113C12.5762 43.4102 12.6855 43.8252 12.6855 44.3564C12.6855 44.7061 12.6338 45.0098 12.5303 45.2676C12.4287 45.5254 12.2832 45.7217 12.0938 45.8564C11.9043 45.9912 11.6816 46.0586 11.4258 46.0586ZM11.1621 43.3779C10.9414 43.3779 10.7803 43.4463 10.6787 43.583C10.5771 43.7178 10.5244 43.9414 10.5205 44.2539V44.3506C10.5205 44.7021 10.5723 44.9541 10.6758 45.1064C10.7812 45.2588 10.9473 45.335 11.1738 45.335C11.5742 45.335 11.7744 45.0049 11.7744 44.3447C11.7744 44.0225 11.7246 43.7812 11.625 43.6211C11.5273 43.459 11.373 43.3779 11.1621 43.3779ZM15.709 45.0273C15.709 45.3633 15.5918 45.6191 15.3574 45.7949C15.125 45.9707 14.7764 46.0586 14.3115 46.0586C14.0732 46.0586 13.8701 46.042 13.7021 46.0088C13.5342 45.9775 13.377 45.9307 13.2305 45.8682V45.1299C13.3965 45.208 13.583 45.2734 13.79 45.3262C13.999 45.3789 14.1826 45.4053 14.3408 45.4053C14.665 45.4053 14.8271 45.3115 14.8271 45.124C14.8271 45.0537 14.8057 44.9971 14.7627 44.9541C14.7197 44.9092 14.6455 44.8594 14.54 44.8047C14.4346 44.748 14.2939 44.6826 14.1182 44.6084C13.8662 44.5029 13.6807 44.4053 13.5615 44.3154C13.4443 44.2256 13.3584 44.123 13.3037 44.0078C13.251 43.8906 13.2246 43.7471 13.2246 43.5771C13.2246 43.2861 13.3369 43.0615 13.5615 42.9033C13.7881 42.7432 14.1084 42.6631 14.5225 42.6631C14.917 42.6631 15.3008 42.749 15.6738 42.9209L15.4043 43.5654C15.2402 43.4951 15.0869 43.4375 14.9443 43.3926C14.8018 43.3477 14.6562 43.3252 14.5078 43.3252C14.2441 43.3252 14.1123 43.3965 14.1123 43.5391C14.1123 43.6191 14.1543 43.6885 14.2383 43.7471C14.3242 43.8057 14.5107 43.8926 14.7979 44.0078C15.0537 44.1113 15.2412 44.208 15.3604 44.2979C15.4795 44.3877 15.5674 44.4912 15.624 44.6084C15.6807 44.7256 15.709 44.8652 15.709 45.0273ZM16.2803 45.5811C16.2803 45.417 16.3242 45.293 16.4121 45.209C16.5 45.125 16.6279 45.083 16.7959 45.083C16.958 45.083 17.083 45.126 17.1709 45.2119C17.2607 45.2979 17.3057 45.4209 17.3057 45.5811C17.3057 45.7354 17.2607 45.8574 17.1709 45.9473C17.0811 46.0352 16.9561 46.0791 16.7959 46.0791C16.6318 46.0791 16.5049 46.0361 16.415 45.9502C16.3252 45.8623 16.2803 45.7393 16.2803 45.5811ZM16.2803 43.1611C16.2803 42.9971 16.3242 42.873 16.4121 42.7891C16.5 42.7051 16.6279 42.6631 16.7959 42.6631C16.958 42.6631 17.083 42.7061 17.1709 42.792C17.2607 42.8779 17.3057 43.001 17.3057 43.1611C17.3057 43.3193 17.2598 43.4424 17.168 43.5303C17.0781 43.6162 16.9541 43.6592 16.7959 43.6592C16.6318 43.6592 16.5049 43.6162 16.415 43.5303C16.3252 43.4443 16.2803 43.3213 16.2803 43.1611ZM20.0977 41.7168L18.501 46H17.6895L19.2861 41.7168H20.0977ZM22.5762 41.7168L20.9795 46H20.168L21.7646 41.7168H22.5762ZM24.4043 46.0586C23.3848 46.0586 22.875 45.499 22.875 44.3799C22.875 43.8232 23.0137 43.3984 23.291 43.1055C23.5684 42.8105 23.9658 42.6631 24.4834 42.6631C24.8623 42.6631 25.2021 42.7373 25.5029 42.8857L25.2393 43.5771C25.0986 43.5205 24.9678 43.4746 24.8467 43.4395C24.7256 43.4023 24.6045 43.3838 24.4834 43.3838C24.0186 43.3838 23.7861 43.7139 23.7861 44.374C23.7861 45.0146 24.0186 45.335 24.4834 45.335C24.6553 45.335 24.8145 45.3125 24.9609 45.2676C25.1074 45.2207 25.2539 45.1484 25.4004 45.0508V45.8154C25.2559 45.9072 25.1094 45.9707 24.9609 46.0059C24.8145 46.041 24.6289 46.0586 24.4043 46.0586ZM26.874 44.3564C26.874 44.6807 26.9268 44.9258 27.0322 45.0918C27.1396 45.2578 27.3135 45.3408 27.5537 45.3408C27.792 45.3408 27.9629 45.2588 28.0664 45.0947C28.1719 44.9287 28.2246 44.6826 28.2246 44.3564C28.2246 44.0322 28.1719 43.7891 28.0664 43.627C27.9609 43.4648 27.7881 43.3838 27.5479 43.3838C27.3096 43.3838 27.1377 43.4648 27.0322 43.627C26.9268 43.7871 26.874 44.0303 26.874 44.3564ZM29.1387 44.3564C29.1387 44.8896 28.998 45.3066 28.7168 45.6074C28.4355 45.9082 28.0439 46.0586 27.542 46.0586C27.2275 46.0586 26.9502 45.9902 26.71 45.8535C26.4697 45.7148 26.2852 45.5166 26.1562 45.2588C26.0273 45.001 25.9629 44.7002 25.9629 44.3564C25.9629 43.8213 26.1025 43.4053 26.3818 43.1084C26.6611 42.8115 27.0537 42.6631 27.5596 42.6631C27.874 42.6631 28.1514 42.7314 28.3916 42.8682C28.6318 43.0049 28.8164 43.2012 28.9453 43.457C29.0742 43.7129 29.1387 44.0127 29.1387 44.3564ZM32.9004 46H32.0068V44.0869C32.0068 43.8506 31.9648 43.6738 31.8809 43.5566C31.7969 43.4375 31.6631 43.3779 31.4795 43.3779C31.2295 43.3779 31.0488 43.4619 30.9375 43.6299C30.8262 43.7959 30.7705 44.0723 30.7705 44.459V46H29.877V42.7246H30.5596L30.6797 43.1436H30.7295C30.8291 42.9854 30.9658 42.8662 31.1396 42.7861C31.3154 42.7041 31.5146 42.6631 31.7373 42.6631C32.1182 42.6631 32.4072 42.7666 32.6045 42.9736C32.8018 43.1787 32.9004 43.4756 32.9004 43.8643V46ZM34.5996 46L33.3516 42.7246H34.2861L34.9189 44.5908C34.9893 44.8271 35.0332 45.0508 35.0508 45.2617H35.0684C35.0781 45.0742 35.1221 44.8506 35.2002 44.5908L35.8301 42.7246H36.7646L35.5166 46H34.5996ZM38.5928 43.2988C38.4033 43.2988 38.2549 43.3594 38.1475 43.4805C38.04 43.5996 37.9785 43.7695 37.9629 43.9902H39.2168C39.2129 43.7695 39.1553 43.5996 39.0439 43.4805C38.9326 43.3594 38.7822 43.2988 38.5928 43.2988ZM38.7188 46.0586C38.1914 46.0586 37.7793 45.9131 37.4824 45.6221C37.1855 45.3311 37.0371 44.9189 37.0371 44.3857C37.0371 43.8369 37.1738 43.4131 37.4473 43.1143C37.7227 42.8135 38.1025 42.6631 38.5869 42.6631C39.0498 42.6631 39.4102 42.7949 39.668 43.0586C39.9258 43.3223 40.0547 43.6865 40.0547 44.1514V44.585H37.9424C37.9521 44.8389 38.0273 45.0371 38.168 45.1797C38.3086 45.3223 38.5059 45.3936 38.7598 45.3936C38.957 45.3936 39.1436 45.373 39.3193 45.332C39.4951 45.291 39.6787 45.2256 39.8701 45.1357V45.8271C39.7139 45.9053 39.5469 45.9629 39.3691 46C39.1914 46.0391 38.9746 46.0586 38.7188 46.0586ZM42.6094 42.6631C42.7305 42.6631 42.8311 42.6719 42.9111 42.6895L42.8438 43.5273C42.7715 43.5078 42.6836 43.498 42.5801 43.498C42.2949 43.498 42.0723 43.5713 41.9121 43.7178C41.7539 43.8643 41.6748 44.0693 41.6748 44.333V46H40.7812V42.7246H41.458L41.5898 43.2754H41.6338C41.7354 43.0918 41.8721 42.9443 42.0439 42.833C42.2178 42.7197 42.4062 42.6631 42.6094 42.6631ZM44.8857 45.3467C45.042 45.3467 45.2295 45.3125 45.4482 45.2441V45.9092C45.2256 46.0088 44.9521 46.0586 44.6279 46.0586C44.2705 46.0586 44.0098 45.9688 43.8457 45.7891C43.6836 45.6074 43.6025 45.3359 43.6025 44.9746V43.3955H43.1748V43.0176L43.667 42.7188L43.9248 42.0273H44.4961V42.7246H45.4131V43.3955H44.4961V44.9746C44.4961 45.1016 44.5312 45.1953 44.6016 45.2559C44.6738 45.3164 44.7686 45.3467 44.8857 45.3467ZM46.0752 41.8779C46.0752 41.5869 46.2373 41.4414 46.5615 41.4414C46.8857 41.4414 47.0479 41.5869 47.0479 41.8779C47.0479 42.0166 47.0068 42.125 46.9248 42.2031C46.8447 42.2793 46.7236 42.3174 46.5615 42.3174C46.2373 42.3174 46.0752 42.1709 46.0752 41.8779ZM47.0068 46H46.1133V42.7246H47.0068V46ZM48.6592 44.3564C48.6592 44.6807 48.7119 44.9258 48.8174 45.0918C48.9248 45.2578 49.0986 45.3408 49.3389 45.3408C49.5771 45.3408 49.748 45.2588 49.8516 45.0947C49.957 44.9287 50.0098 44.6826 50.0098 44.3564C50.0098 44.0322 49.957 43.7891 49.8516 43.627C49.7461 43.4648 49.5732 43.3838 49.333 43.3838C49.0947 43.3838 48.9229 43.4648 48.8174 43.627C48.7119 43.7871 48.6592 44.0303 48.6592 44.3564ZM50.9238 44.3564C50.9238 44.8896 50.7832 45.3066 50.502 45.6074C50.2207 45.9082 49.8291 46.0586 49.3271 46.0586C49.0127 46.0586 48.7354 45.9902 48.4951 45.8535C48.2549 45.7148 48.0703 45.5166 47.9414 45.2588C47.8125 45.001 47.748 44.7002 47.748 44.3564C47.748 43.8213 47.8877 43.4053 48.167 43.1084C48.4463 42.8115 48.8389 42.6631 49.3447 42.6631C49.6592 42.6631 49.9365 42.7314 50.1768 42.8682C50.417 43.0049 50.6016 43.2012 50.7305 43.457C50.8594 43.7129 50.9238 44.0127 50.9238 44.3564ZM51.5361 45.5811C51.5361 45.417 51.5801 45.293 51.668 45.209C51.7559 45.125 51.8838 45.083 52.0518 45.083C52.2139 45.083 52.3389 45.126 52.4268 45.2119C52.5166 45.2979 52.5615 45.4209 52.5615 45.5811C52.5615 45.7354 52.5166 45.8574 52.4268 45.9473C52.3369 46.0352 52.2119 46.0791 52.0518 46.0791C51.8877 46.0791 51.7607 46.0361 51.6709 45.9502C51.5811 45.8623 51.5361 45.7393 51.5361 45.5811ZM54.7031 46.0586C53.6836 46.0586 53.1738 45.499 53.1738 44.3799C53.1738 43.8232 53.3125 43.3984 53.5898 43.1055C53.8672 42.8105 54.2646 42.6631 54.7822 42.6631C55.1611 42.6631 55.501 42.7373 55.8018 42.8857L55.5381 43.5771C55.3975 43.5205 55.2666 43.4746 55.1455 43.4395C55.0244 43.4023 54.9033 43.3838 54.7822 43.3838C54.3174 43.3838 54.085 43.7139 54.085 44.374C54.085 45.0146 54.3174 45.335 54.7822 45.335C54.9541 45.335 55.1133 45.3125 55.2598 45.2676C55.4062 45.2207 55.5527 45.1484 55.6992 45.0508V45.8154C55.5547 45.9072 55.4082 45.9707 55.2598 46.0059C55.1133 46.041 54.9277 46.0586 54.7031 46.0586ZM57.1729 44.3564C57.1729 44.6807 57.2256 44.9258 57.3311 45.0918C57.4385 45.2578 57.6123 45.3408 57.8525 45.3408C58.0908 45.3408 58.2617 45.2588 58.3652 45.0947C58.4707 44.9287 58.5234 44.6826 58.5234 44.3564C58.5234 44.0322 58.4707 43.7891 58.3652 43.627C58.2598 43.4648 58.0869 43.3838 57.8467 43.3838C57.6084 43.3838 57.4365 43.4648 57.3311 43.627C57.2256 43.7871 57.1729 44.0303 57.1729 44.3564ZM59.4375 44.3564C59.4375 44.8896 59.2969 45.3066 59.0156 45.6074C58.7344 45.9082 58.3428 46.0586 57.8408 46.0586C57.5264 46.0586 57.249 45.9902 57.0088 45.8535C56.7686 45.7148 56.584 45.5166 56.4551 45.2588C56.3262 45.001 56.2617 44.7002 56.2617 44.3564C56.2617 43.8213 56.4014 43.4053 56.6807 43.1084C56.96 42.8115 57.3525 42.6631 57.8584 42.6631C58.1729 42.6631 58.4502 42.7314 58.6904 42.8682C58.9307 43.0049 59.1152 43.2012 59.2441 43.457C59.373 43.7129 59.4375 44.0127 59.4375 44.3564ZM62.1562 41.7168L60.5596 46H59.748L61.3447 41.7168H62.1562ZM64.7344 46L64.5615 45.5547H64.5381C64.3877 45.7441 64.2324 45.876 64.0723 45.9502C63.9141 46.0225 63.707 46.0586 63.4512 46.0586C63.1367 46.0586 62.8887 45.9688 62.707 45.7891C62.5273 45.6094 62.4375 45.3535 62.4375 45.0215C62.4375 44.6738 62.5586 44.418 62.8008 44.2539C63.0449 44.0879 63.4121 43.9961 63.9023 43.9785L64.4707 43.9609V43.8174C64.4707 43.4854 64.3008 43.3193 63.9609 43.3193C63.6992 43.3193 63.3916 43.3984 63.0381 43.5566L62.7422 42.9531C63.1191 42.7559 63.5371 42.6572 63.9961 42.6572C64.4355 42.6572 64.7725 42.7529 65.0068 42.9443C65.2412 43.1357 65.3584 43.4268 65.3584 43.8174V46H64.7344ZM64.4707 44.4824L64.125 44.4941C63.8652 44.502 63.6719 44.5488 63.5449 44.6348C63.418 44.7207 63.3545 44.8516 63.3545 45.0273C63.3545 45.2793 63.499 45.4053 63.7881 45.4053C63.9951 45.4053 64.1602 45.3457 64.2832 45.2266C64.4082 45.1074 64.4707 44.9492 64.4707 44.752V44.4824ZM66.2432 41.8779C66.2432 41.5869 66.4053 41.4414 66.7295 41.4414C67.0537 41.4414 67.2158 41.5869 67.2158 41.8779C67.2158 42.0166 67.1748 42.125 67.0928 42.2031C67.0127 42.2793 66.8916 42.3174 66.7295 42.3174C66.4053 42.3174 66.2432 42.1709 66.2432 41.8779ZM67.1748 46H66.2812V42.7246H67.1748V46ZM67.8252 44.7578V44.0254H69.3984V44.7578H67.8252ZM72.334 45.0273C72.334 45.3633 72.2168 45.6191 71.9824 45.7949C71.75 45.9707 71.4014 46.0586 70.9365 46.0586C70.6982 46.0586 70.4951 46.042 70.3271 46.0088C70.1592 45.9775 70.002 45.9307 69.8555 45.8682V45.1299C70.0215 45.208 70.208 45.2734 70.415 45.3262C70.624 45.3789 70.8076 45.4053 70.9658 45.4053C71.29 45.4053 71.4521 45.3115 71.4521 45.124C71.4521 45.0537 71.4307 44.9971 71.3877 44.9541C71.3447 44.9092 71.2705 44.8594 71.165 44.8047C71.0596 44.748 70.9189 44.6826 70.7432 44.6084C70.4912 44.5029 70.3057 44.4053 70.1865 44.3154C70.0693 44.2256 69.9834 44.123 69.9287 44.0078C69.876 43.8906 69.8496 43.7471 69.8496 43.5771C69.8496 43.2861 69.9619 43.0615 70.1865 42.9033C70.4131 42.7432 70.7334 42.6631 71.1475 42.6631C71.542 42.6631 71.9258 42.749 72.2988 42.9209L72.0293 43.5654C71.8652 43.4951 71.7119 43.4375 71.5693 43.3926C71.4268 43.3477 71.2812 43.3252 71.1328 43.3252C70.8691 43.3252 70.7373 43.3965 70.7373 43.5391C70.7373 43.6191 70.7793 43.6885 70.8633 43.7471C70.9492 43.8057 71.1357 43.8926 71.4229 44.0078C71.6787 44.1113 71.8662 44.208 71.9854 44.2979C72.1045 44.3877 72.1924 44.4912 72.249 44.6084C72.3057 44.7256 72.334 44.8652 72.334 45.0273ZM73.8105 46L72.5625 42.7246H73.4971L74.1299 44.5908C74.2002 44.8271 74.2441 45.0508 74.2617 45.2617H74.2793C74.2891 45.0742 74.333 44.8506 74.4111 44.5908L75.041 42.7246H75.9756L74.7275 46H73.8105ZM79.2979 42.7246V43.1787L78.7852 43.3105C78.8789 43.457 78.9258 43.6211 78.9258 43.8027C78.9258 44.1543 78.8027 44.4287 78.5566 44.626C78.3125 44.8213 77.9727 44.9189 77.5371 44.9189L77.376 44.9102L77.2441 44.8955C77.1523 44.9658 77.1064 45.0439 77.1064 45.1299C77.1064 45.2588 77.2705 45.3232 77.5986 45.3232H78.1553C78.5146 45.3232 78.7881 45.4004 78.9756 45.5547C79.165 45.709 79.2598 45.9355 79.2598 46.2344C79.2598 46.6172 79.0996 46.9141 78.7793 47.125C78.4609 47.3359 78.0029 47.4414 77.4053 47.4414C76.9482 47.4414 76.5986 47.3613 76.3564 47.2012C76.1162 47.043 75.9961 46.8203 75.9961 46.5332C75.9961 46.3359 76.0576 46.1709 76.1807 46.0381C76.3037 45.9053 76.4844 45.8105 76.7227 45.7539C76.6309 45.7148 76.5508 45.6514 76.4824 45.5635C76.4141 45.4736 76.3799 45.3789 76.3799 45.2793C76.3799 45.1543 76.416 45.0508 76.4883 44.9688C76.5605 44.8848 76.665 44.8027 76.8018 44.7227C76.6299 44.6484 76.4932 44.5293 76.3916 44.3652C76.292 44.2012 76.2422 44.0078 76.2422 43.7852C76.2422 43.4277 76.3584 43.1514 76.5908 42.9561C76.8232 42.7607 77.1553 42.6631 77.5869 42.6631C77.6787 42.6631 77.7871 42.6719 77.9121 42.6895C78.0391 42.7051 78.1201 42.7168 78.1553 42.7246H79.2979ZM76.7695 46.4629C76.7695 46.5859 76.8281 46.6826 76.9453 46.7529C77.0645 46.8232 77.2305 46.8584 77.4434 46.8584C77.7637 46.8584 78.0146 46.8145 78.1963 46.7266C78.3779 46.6387 78.4688 46.5186 78.4688 46.3662C78.4688 46.2432 78.415 46.1582 78.3076 46.1113C78.2002 46.0645 78.0342 46.041 77.8096 46.041H77.3467C77.1826 46.041 77.0449 46.0791 76.9336 46.1553C76.8242 46.2334 76.7695 46.3359 76.7695 46.4629ZM77.0947 43.7969C77.0947 43.9746 77.1348 44.1152 77.2148 44.2188C77.2969 44.3223 77.4209 44.374 77.5869 44.374C77.7549 44.374 77.8779 44.3223 77.9561 44.2188C78.0342 44.1152 78.0732 43.9746 78.0732 43.7969C78.0732 43.4023 77.9111 43.2051 77.5869 43.2051C77.2588 43.2051 77.0947 43.4023 77.0947 43.7969ZM81.8203 41.7168L80.2236 46H79.4121L81.0088 41.7168H81.8203ZM3.49219 54H2.59863V52.0869C2.59863 51.6143 2.42285 51.3779 2.07129 51.3779C1.82129 51.3779 1.64062 51.4629 1.5293 51.6328C1.41797 51.8027 1.3623 52.0781 1.3623 52.459V54H0.46875V49.4414H1.3623V50.3701C1.3623 50.4424 1.35547 50.6123 1.3418 50.8799L1.32129 51.1436H1.36816C1.56738 50.8232 1.88379 50.6631 2.31738 50.6631C2.70215 50.6631 2.99414 50.7666 3.19336 50.9736C3.39258 51.1807 3.49219 51.4775 3.49219 51.8643V54ZM5.79199 53.3467C5.94824 53.3467 6.13574 53.3125 6.35449 53.2441V53.9092C6.13184 54.0088 5.8584 54.0586 5.53418 54.0586C5.17676 54.0586 4.91602 53.9688 4.75195 53.7891C4.58984 53.6074 4.50879 53.3359 4.50879 52.9746V51.3955H4.08105V51.0176L4.57324 50.7188L4.83105 50.0273H5.40234V50.7246H6.31934V51.3955H5.40234V52.9746C5.40234 53.1016 5.4375 53.1953 5.50781 53.2559C5.58008 53.3164 5.6748 53.3467 5.79199 53.3467ZM8.39941 53.3467C8.55566 53.3467 8.74316 53.3125 8.96191 53.2441V53.9092C8.73926 54.0088 8.46582 54.0586 8.1416 54.0586C7.78418 54.0586 7.52344 53.9688 7.35938 53.7891C7.19727 53.6074 7.11621 53.3359 7.11621 52.9746V51.3955H6.68848V51.0176L7.18066 50.7188L7.43848 50.0273H8.00977V50.7246H8.92676V51.3955H8.00977V52.9746C8.00977 53.1016 8.04492 53.1953 8.11523 53.2559C8.1875 53.3164 8.28223 53.3467 8.39941 53.3467ZM11.4258 54.0586C11.041 54.0586 10.7393 53.9189 10.5205 53.6396H10.4736C10.5049 53.9131 10.5205 54.0713 10.5205 54.1143V55.4414H9.62695V50.7246H10.3535L10.4795 51.1494H10.5205C10.7295 50.8252 11.0391 50.6631 11.4492 50.6631C11.8359 50.6631 12.1387 50.8125 12.3574 51.1113C12.5762 51.4102 12.6855 51.8252 12.6855 52.3564C12.6855 52.7061 12.6338 53.0098 12.5303 53.2676C12.4287 53.5254 12.2832 53.7217 12.0938 53.8564C11.9043 53.9912 11.6816 54.0586 11.4258 54.0586ZM11.1621 51.3779C10.9414 51.3779 10.7803 51.4463 10.6787 51.583C10.5771 51.7178 10.5244 51.9414 10.5205 52.2539V52.3506C10.5205 52.7021 10.5723 52.9541 10.6758 53.1064C10.7812 53.2588 10.9473 53.335 11.1738 53.335C11.5742 53.335 11.7744 53.0049 11.7744 52.3447C11.7744 52.0225 11.7246 51.7812 11.625 51.6211C11.5273 51.459 11.373 51.3779 11.1621 51.3779ZM15.709 53.0273C15.709 53.3633 15.5918 53.6191 15.3574 53.7949C15.125 53.9707 14.7764 54.0586 14.3115 54.0586C14.0732 54.0586 13.8701 54.042 13.7021 54.0088C13.5342 53.9775 13.377 53.9307 13.2305 53.8682V53.1299C13.3965 53.208 13.583 53.2734 13.79 53.3262C13.999 53.3789 14.1826 53.4053 14.3408 53.4053C14.665 53.4053 14.8271 53.3115 14.8271 53.124C14.8271 53.0537 14.8057 52.9971 14.7627 52.9541C14.7197 52.9092 14.6455 52.8594 14.54 52.8047C14.4346 52.748 14.2939 52.6826 14.1182 52.6084C13.8662 52.5029 13.6807 52.4053 13.5615 52.3154C13.4443 52.2256 13.3584 52.123 13.3037 52.0078C13.251 51.8906 13.2246 51.7471 13.2246 51.5771C13.2246 51.2861 13.3369 51.0615 13.5615 50.9033C13.7881 50.7432 14.1084 50.6631 14.5225 50.6631C14.917 50.6631 15.3008 50.749 15.6738 50.9209L15.4043 51.5654C15.2402 51.4951 15.0869 51.4375 14.9443 51.3926C14.8018 51.3477 14.6562 51.3252 14.5078 51.3252C14.2441 51.3252 14.1123 51.3965 14.1123 51.5391C14.1123 51.6191 14.1543 51.6885 14.2383 51.7471C14.3242 51.8057 14.5107 51.8926 14.7979 52.0078C15.0537 52.1113 15.2412 52.208 15.3604 52.2979C15.4795 52.3877 15.5674 52.4912 15.624 52.6084C15.6807 52.7256 15.709 52.8652 15.709 53.0273ZM16.2803 53.5811C16.2803 53.417 16.3242 53.293 16.4121 53.209C16.5 53.125 16.6279 53.083 16.7959 53.083C16.958 53.083 17.083 53.126 17.1709 53.2119C17.2607 53.2979 17.3057 53.4209 17.3057 53.5811C17.3057 53.7354 17.2607 53.8574 17.1709 53.9473C17.0811 54.0352 16.9561 54.0791 16.7959 54.0791C16.6318 54.0791 16.5049 54.0361 16.415 53.9502C16.3252 53.8623 16.2803 53.7393 16.2803 53.5811ZM16.2803 51.1611C16.2803 50.9971 16.3242 50.873 16.4121 50.7891C16.5 50.7051 16.6279 50.6631 16.7959 50.6631C16.958 50.6631 17.083 50.7061 17.1709 50.792C17.2607 50.8779 17.3057 51.001 17.3057 51.1611C17.3057 51.3193 17.2598 51.4424 17.168 51.5303C17.0781 51.6162 16.9541 51.6592 16.7959 51.6592C16.6318 51.6592 16.5049 51.6162 16.415 51.5303C16.3252 51.4443 16.2803 51.3213 16.2803 51.1611ZM20.0977 49.7168L18.501 54H17.6895L19.2861 49.7168H20.0977ZM22.5762 49.7168L20.9795 54H20.168L21.7646 49.7168H22.5762ZM25.7666 54L25.5146 52.8545L25.1748 51.4072H25.1543L24.5566 54H23.5957L22.6641 50.7246H23.5547L23.9326 52.1748C23.9932 52.4346 24.0547 52.793 24.1172 53.25H24.1348C24.1426 53.1016 24.1768 52.8662 24.2373 52.5439L24.2842 52.2949L24.6885 50.7246H25.6729L26.0566 52.2949C26.0645 52.3379 26.0762 52.4014 26.0918 52.4854C26.1094 52.5693 26.126 52.6592 26.1416 52.7549C26.1572 52.8486 26.1709 52.9414 26.1826 53.0332C26.1963 53.123 26.2041 53.1953 26.2061 53.25H26.2236C26.2412 53.1094 26.2725 52.917 26.3174 52.6729C26.3623 52.4268 26.3945 52.2607 26.4141 52.1748L26.8066 50.7246H27.6826L26.7393 54H25.7666ZM30.9053 54L30.6533 52.8545L30.3135 51.4072H30.293L29.6953 54H28.7344L27.8027 50.7246H28.6934L29.0713 52.1748C29.1318 52.4346 29.1934 52.793 29.2559 53.25H29.2734C29.2812 53.1016 29.3154 52.8662 29.376 52.5439L29.4229 52.2949L29.8271 50.7246H30.8115L31.1953 52.2949C31.2031 52.3379 31.2148 52.4014 31.2305 52.4854C31.248 52.5693 31.2646 52.6592 31.2803 52.7549C31.2959 52.8486 31.3096 52.9414 31.3213 53.0332C31.335 53.123 31.3428 53.1953 31.3447 53.25H31.3623C31.3799 53.1094 31.4111 52.917 31.4561 52.6729C31.501 52.4268 31.5332 52.2607 31.5527 52.1748L31.9453 50.7246H32.8213L31.8779 54H30.9053ZM36.0439 54L35.792 52.8545L35.4521 51.4072H35.4316L34.834 54H33.873L32.9414 50.7246H33.832L34.21 52.1748C34.2705 52.4346 34.332 52.793 34.3945 53.25H34.4121C34.4199 53.1016 34.4541 52.8662 34.5146 52.5439L34.5615 52.2949L34.9658 50.7246H35.9502L36.334 52.2949C36.3418 52.3379 36.3535 52.4014 36.3691 52.4854C36.3867 52.5693 36.4033 52.6592 36.4189 52.7549C36.4346 52.8486 36.4482 52.9414 36.46 53.0332C36.4736 53.123 36.4814 53.1953 36.4834 53.25H36.501C36.5186 53.1094 36.5498 52.917 36.5947 52.6729C36.6396 52.4268 36.6719 52.2607 36.6914 52.1748L37.084 50.7246H37.96L37.0166 54H36.0439ZM38.3643 53.5811C38.3643 53.417 38.4082 53.293 38.4961 53.209C38.584 53.125 38.7119 53.083 38.8799 53.083C39.042 53.083 39.167 53.126 39.2549 53.2119C39.3447 53.2979 39.3896 53.4209 39.3896 53.5811C39.3896 53.7354 39.3447 53.8574 39.2549 53.9473C39.165 54.0352 39.04 54.0791 38.8799 54.0791C38.7158 54.0791 38.5889 54.0361 38.499 53.9502C38.4092 53.8623 38.3643 53.7393 38.3643 53.5811ZM42.8936 54L42.6416 52.8545L42.3018 51.4072H42.2812L41.6836 54H40.7227L39.791 50.7246H40.6816L41.0596 52.1748C41.1201 52.4346 41.1816 52.793 41.2441 53.25H41.2617C41.2695 53.1016 41.3037 52.8662 41.3643 52.5439L41.4111 52.2949L41.8154 50.7246H42.7998L43.1836 52.2949C43.1914 52.3379 43.2031 52.4014 43.2188 52.4854C43.2363 52.5693 43.2529 52.6592 43.2686 52.7549C43.2842 52.8486 43.2979 52.9414 43.3096 53.0332C43.3232 53.123 43.3311 53.1953 43.333 53.25H43.3506C43.3682 53.1094 43.3994 52.917 43.4443 52.6729C43.4893 52.4268 43.5215 52.2607 43.541 52.1748L43.9336 50.7246H44.8096L43.8662 54H42.8936ZM48.3633 54H47.4697V52.0869C47.4697 51.6143 47.2939 51.3779 46.9424 51.3779C46.6924 51.3779 46.5117 51.4629 46.4004 51.6328C46.2891 51.8027 46.2334 52.0781 46.2334 52.459V54H45.3398V49.4414H46.2334V50.3701C46.2334 50.4424 46.2266 50.6123 46.2129 50.8799L46.1924 51.1436H46.2393C46.4385 50.8232 46.7549 50.6631 47.1885 50.6631C47.5732 50.6631 47.8652 50.7666 48.0645 50.9736C48.2637 51.1807 48.3633 51.4775 48.3633 51.8643V54ZM51.3633 54L51.1904 53.5547H51.167C51.0166 53.7441 50.8613 53.876 50.7012 53.9502C50.543 54.0225 50.3359 54.0586 50.0801 54.0586C49.7656 54.0586 49.5176 53.9688 49.3359 53.7891C49.1562 53.6094 49.0664 53.3535 49.0664 53.0215C49.0664 52.6738 49.1875 52.418 49.4297 52.2539C49.6738 52.0879 50.041 51.9961 50.5312 51.9785L51.0996 51.9609V51.8174C51.0996 51.4854 50.9297 51.3193 50.5898 51.3193C50.3281 51.3193 50.0205 51.3984 49.667 51.5566L49.3711 50.9531C49.748 50.7559 50.166 50.6572 50.625 50.6572C51.0645 50.6572 51.4014 50.7529 51.6357 50.9443C51.8701 51.1357 51.9873 51.4268 51.9873 51.8174V54H51.3633ZM51.0996 52.4824L50.7539 52.4941C50.4941 52.502 50.3008 52.5488 50.1738 52.6348C50.0469 52.7207 49.9834 52.8516 49.9834 53.0273C49.9834 53.2793 50.1279 53.4053 50.417 53.4053C50.624 53.4053 50.7891 53.3457 50.9121 53.2266C51.0371 53.1074 51.0996 52.9492 51.0996 52.752V52.4824ZM54.29 53.3467C54.4463 53.3467 54.6338 53.3125 54.8525 53.2441V53.9092C54.6299 54.0088 54.3564 54.0586 54.0322 54.0586C53.6748 54.0586 53.4141 53.9688 53.25 53.7891C53.0879 53.6074 53.0068 53.3359 53.0068 52.9746V51.3955H52.5791V51.0176L53.0713 50.7188L53.3291 50.0273H53.9004V50.7246H54.8174V51.3955H53.9004V52.9746C53.9004 53.1016 53.9355 53.1953 54.0059 53.2559C54.0781 53.3164 54.1729 53.3467 54.29 53.3467ZM57.3281 51.3955H56.5547V54H55.6611V51.3955H55.1689V50.9648L55.6611 50.7246V50.4844C55.6611 50.1113 55.7529 49.8389 55.9365 49.667C56.1201 49.4951 56.4141 49.4092 56.8184 49.4092C57.127 49.4092 57.4014 49.4551 57.6416 49.5469L57.4131 50.2031C57.2334 50.1465 57.0674 50.1182 56.915 50.1182C56.7881 50.1182 56.6963 50.1562 56.6396 50.2324C56.583 50.3066 56.5547 50.4023 56.5547 50.5195V50.7246H57.3281V51.3955ZM58.5557 52.3564C58.5557 52.6807 58.6084 52.9258 58.7139 53.0918C58.8213 53.2578 58.9951 53.3408 59.2354 53.3408C59.4736 53.3408 59.6445 53.2588 59.748 53.0947C59.8535 52.9287 59.9062 52.6826 59.9062 52.3564C59.9062 52.0322 59.8535 51.7891 59.748 51.627C59.6426 51.4648 59.4697 51.3838 59.2295 51.3838C58.9912 51.3838 58.8193 51.4648 58.7139 51.627C58.6084 51.7871 58.5557 52.0303 58.5557 52.3564ZM60.8203 52.3564C60.8203 52.8896 60.6797 53.3066 60.3984 53.6074C60.1172 53.9082 59.7256 54.0586 59.2236 54.0586C58.9092 54.0586 58.6318 53.9902 58.3916 53.8535C58.1514 53.7148 57.9668 53.5166 57.8379 53.2588C57.709 53.001 57.6445 52.7002 57.6445 52.3564C57.6445 51.8213 57.7842 51.4053 58.0635 51.1084C58.3428 50.8115 58.7354 50.6631 59.2412 50.6631C59.5557 50.6631 59.833 50.7314 60.0732 50.8682C60.3135 51.0049 60.498 51.2012 60.627 51.457C60.7559 51.7129 60.8203 52.0127 60.8203 52.3564ZM64.582 54H63.6885V52.0869C63.6885 51.8506 63.6465 51.6738 63.5625 51.5566C63.4785 51.4375 63.3447 51.3779 63.1611 51.3779C62.9111 51.3779 62.7305 51.4619 62.6191 51.6299C62.5078 51.7959 62.4521 52.0723 62.4521 52.459V54H61.5586V50.7246H62.2412L62.3613 51.1436H62.4111C62.5107 50.9854 62.6475 50.8662 62.8213 50.7861C62.9971 50.7041 63.1963 50.6631 63.4189 50.6631C63.7998 50.6631 64.0889 50.7666 64.2861 50.9736C64.4834 51.1787 64.582 51.4756 64.582 51.8643V54ZM66.8818 53.3467C67.0381 53.3467 67.2256 53.3125 67.4443 53.2441V53.9092C67.2217 54.0088 66.9482 54.0586 66.624 54.0586C66.2666 54.0586 66.0059 53.9688 65.8418 53.7891C65.6797 53.6074 65.5986 53.3359 65.5986 52.9746V51.3955H65.1709V51.0176L65.6631 50.7188L65.9209 50.0273H66.4922V50.7246H67.4092V51.3955H66.4922V52.9746C66.4922 53.1016 66.5273 53.1953 66.5977 53.2559C66.6699 53.3164 66.7646 53.3467 66.8818 53.3467ZM68.0713 49.8779C68.0713 49.5869 68.2334 49.4414 68.5576 49.4414C68.8818 49.4414 69.0439 49.5869 69.0439 49.8779C69.0439 50.0166 69.0029 50.125 68.9209 50.2031C68.8408 50.2793 68.7197 50.3174 68.5576 50.3174C68.2334 50.3174 68.0713 50.1709 68.0713 49.8779ZM69.0029 54H68.1094V50.7246H69.0029V54ZM72.2285 53.0273C72.2285 53.3633 72.1113 53.6191 71.877 53.7949C71.6445 53.9707 71.2959 54.0586 70.8311 54.0586C70.5928 54.0586 70.3896 54.042 70.2217 54.0088C70.0537 53.9775 69.8965 53.9307 69.75 53.8682V53.1299C69.916 53.208 70.1025 53.2734 70.3096 53.3262C70.5186 53.3789 70.7021 53.4053 70.8604 53.4053C71.1846 53.4053 71.3467 53.3115 71.3467 53.124C71.3467 53.0537 71.3252 52.9971 71.2822 52.9541C71.2393 52.9092 71.165 52.8594 71.0596 52.8047C70.9541 52.748 70.8135 52.6826 70.6377 52.6084C70.3857 52.5029 70.2002 52.4053 70.0811 52.3154C69.9639 52.2256 69.8779 52.123 69.8232 52.0078C69.7705 51.8906 69.7441 51.7471 69.7441 51.5771C69.7441 51.2861 69.8564 51.0615 70.0811 50.9033C70.3076 50.7432 70.6279 50.6631 71.042 50.6631C71.4365 50.6631 71.8203 50.749 72.1934 50.9209L71.9238 51.5654C71.7598 51.4951 71.6064 51.4375 71.4639 51.3926C71.3213 51.3477 71.1758 51.3252 71.0273 51.3252C70.7637 51.3252 70.6318 51.3965 70.6318 51.5391C70.6318 51.6191 70.6738 51.6885 70.7578 51.7471C70.8438 51.8057 71.0303 51.8926 71.3174 52.0078C71.5732 52.1113 71.7607 52.208 71.8799 52.2979C71.999 52.3877 72.0869 52.4912 72.1436 52.6084C72.2002 52.7256 72.2285 52.8652 72.2285 53.0273ZM72.7998 53.5811C72.7998 53.417 72.8438 53.293 72.9316 53.209C73.0195 53.125 73.1475 53.083 73.3154 53.083C73.4775 53.083 73.6025 53.126 73.6904 53.2119C73.7803 53.2979 73.8252 53.4209 73.8252 53.5811C73.8252 53.7354 73.7803 53.8574 73.6904 53.9473C73.6006 54.0352 73.4756 54.0791 73.3154 54.0791C73.1514 54.0791 73.0244 54.0361 72.9346 53.9502C72.8447 53.8623 72.7998 53.7393 72.7998 53.5811ZM75.9668 54.0586C74.9473 54.0586 74.4375 53.499 74.4375 52.3799C74.4375 51.8232 74.5762 51.3984 74.8535 51.1055C75.1309 50.8105 75.5283 50.6631 76.0459 50.6631C76.4248 50.6631 76.7646 50.7373 77.0654 50.8857L76.8018 51.5771C76.6611 51.5205 76.5303 51.4746 76.4092 51.4395C76.2881 51.4023 76.167 51.3838 76.0459 51.3838C75.5811 51.3838 75.3486 51.7139 75.3486 52.374C75.3486 53.0146 75.5811 53.335 76.0459 53.335C76.2178 53.335 76.377 53.3125 76.5234 53.2676C76.6699 53.2207 76.8164 53.1484 76.9629 53.0508V53.8154C76.8184 53.9072 76.6719 53.9707 76.5234 54.0059C76.377 54.041 76.1914 54.0586 75.9668 54.0586ZM78.4365 52.3564C78.4365 52.6807 78.4893 52.9258 78.5947 53.0918C78.7021 53.2578 78.876 53.3408 79.1162 53.3408C79.3545 53.3408 79.5254 53.2588 79.6289 53.0947C79.7344 52.9287 79.7871 52.6826 79.7871 52.3564C79.7871 52.0322 79.7344 51.7891 79.6289 51.627C79.5234 51.4648 79.3506 51.3838 79.1104 51.3838C78.8721 51.3838 78.7002 51.4648 78.5947 51.627C78.4893 51.7871 78.4365 52.0303 78.4365 52.3564ZM80.7012 52.3564C80.7012 52.8896 80.5605 53.3066 80.2793 53.6074C79.998 53.9082 79.6064 54.0586 79.1045 54.0586C78.79 54.0586 78.5127 53.9902 78.2725 53.8535C78.0322 53.7148 77.8477 53.5166 77.7188 53.2588C77.5898 53.001 77.5254 52.7002 77.5254 52.3564C77.5254 51.8213 77.665 51.4053 77.9443 51.1084C78.2236 50.8115 78.6162 50.6631 79.1221 50.6631C79.4365 50.6631 79.7139 50.7314 79.9541 50.8682C80.1943 51.0049 80.3789 51.2012 80.5078 51.457C80.6367 51.7129 80.7012 52.0127 80.7012 52.3564ZM84.3721 54H83.4785V52.0869C83.4785 51.8506 83.4385 51.6738 83.3584 51.5566C83.2803 51.4375 83.1562 51.3779 82.9863 51.3779C82.7578 51.3779 82.5918 51.4619 82.4883 51.6299C82.3848 51.7979 82.333 52.0742 82.333 52.459V54H81.4395V50.7246H82.1221L82.2422 51.1436H82.292C82.3799 50.9932 82.5068 50.876 82.6729 50.792C82.8389 50.7061 83.0293 50.6631 83.2441 50.6631C83.7344 50.6631 84.0664 50.8232 84.2402 51.1436H84.3193C84.4072 50.9912 84.5361 50.873 84.7061 50.7891C84.8779 50.7051 85.0713 50.6631 85.2861 50.6631C85.6572 50.6631 85.9375 50.7588 86.127 50.9502C86.3184 51.1396 86.4141 51.4443 86.4141 51.8643V54H85.5176V52.0869C85.5176 51.8506 85.4775 51.6738 85.3975 51.5566C85.3193 51.4375 85.1953 51.3779 85.0254 51.3779C84.8066 51.3779 84.6426 51.4561 84.5332 51.6123C84.4258 51.7686 84.3721 52.0166 84.3721 52.3564V54Z" fill="#4D4D4D"/>
</svg>
