<svg width="30" height="30" viewBox="0 0 30 30" fill="none" xmlns="http://www.w3.org/2000/svg">
<rect width="30" height="30" fill="white"/>
<path d="M30 30H22.5H15H7.5H0V22.5003V15.0005V7.49975V0H7.5H15H22.5H30V7.49975V14.9995V22.4992V30ZM0.252287 29.7477H7.62614H15H22.3739H29.7477V22.3741V15.0005V7.62589V0.252279H22.3739H15H7.62614H0.252287V7.62589V14.9995V22.3731V29.7477Z" fill="#4D4D4D"/>
<path d="M30 22V21.9421V21.8843V21.8264V21.7685C28.8439 21.3235 27.6602 20.9279 26.4529 20.5844C25.2446 20.241 24.0117 19.9507 22.7583 19.7163C21.5049 19.482 20.2279 19.3027 18.9345 19.1822C17.6401 19.0617 16.3282 19 15 19C13.6718 19 12.3589 19.0617 11.0655 19.1822C9.77111 19.3027 8.49515 19.482 7.24173 19.7163C5.98832 19.9507 4.7554 20.2419 3.54708 20.5844C2.33875 20.9279 1.15605 21.3235 0 21.7685V21.8264V21.8843V21.9421V22C1.15503 21.5522 2.33773 21.1546 3.54605 20.8093C4.75335 20.4639 5.98627 20.1717 7.24071 19.9364C8.49515 19.7011 9.77111 19.5199 11.0655 19.3994C12.3599 19.278 13.6728 19.2163 15.002 19.2163C16.3303 19.2163 17.6431 19.278 18.9376 19.3994C20.232 19.5209 21.5079 19.7011 22.7624 19.9364C24.0168 20.1717 25.2487 20.4649 26.457 20.8093C27.6612 21.1546 28.845 21.5522 30 22Z" fill="#4D4D4D"/>
<path d="M7.50045 13V9.455H7.76045V12.755H9.60045V13H7.50045ZM13.3049 13V9.83L12.0099 12.95H11.7799L10.4849 9.855V13H10.2299V9.455H10.5949L11.9049 12.605L13.1899 9.455H13.5599V13H13.3049ZM14.4741 11.605V11.375H15.8891V11.605H14.4741ZM18.6114 13H17.9364L19.2964 10.085H17.5714V9.525H19.9664V10.025L18.6114 13ZM22.798 11.2C22.798 11.3267 22.7947 11.46 22.788 11.6C22.7813 11.7367 22.7647 11.8717 22.738 12.005C22.7113 12.1383 22.673 12.2667 22.623 12.39C22.573 12.5133 22.503 12.6217 22.413 12.715C22.3163 12.815 22.203 12.8983 22.073 12.965C21.943 13.0317 21.773 13.065 21.563 13.065C21.383 13.065 21.228 13.04 21.098 12.99C20.968 12.9367 20.858 12.8667 20.768 12.78C20.6713 12.6867 20.598 12.5833 20.548 12.47C20.498 12.3533 20.473 12.2433 20.473 12.14H21.103C21.113 12.2467 21.153 12.335 21.223 12.405C21.303 12.4883 21.4263 12.53 21.593 12.53C21.6763 12.53 21.743 12.5167 21.793 12.49C21.8463 12.4633 21.8947 12.43 21.938 12.39C22.0313 12.3033 22.0947 12.1883 22.128 12.045C22.1613 11.8983 22.178 11.7483 22.178 11.595C22.138 11.6417 22.0913 11.6817 22.038 11.715C21.9847 11.745 21.928 11.77 21.868 11.79C21.808 11.81 21.748 11.825 21.688 11.835C21.628 11.845 21.5713 11.85 21.518 11.85C21.3313 11.85 21.1663 11.8217 21.023 11.765C20.8797 11.7083 20.7597 11.6283 20.663 11.525C20.5663 11.4183 20.493 11.2933 20.443 11.15C20.3963 11.0033 20.373 10.8417 20.373 10.665C20.373 10.495 20.398 10.3367 20.448 10.19C20.498 10.0433 20.573 9.915 20.673 9.805C20.773 9.695 20.898 9.61 21.048 9.55C21.198 9.48667 21.3713 9.455 21.568 9.455C21.7313 9.455 21.8797 9.48333 22.013 9.54C22.1463 9.59333 22.263 9.67 22.363 9.77C22.463 9.86667 22.5447 9.98167 22.608 10.115C22.6713 10.2483 22.7163 10.3933 22.743 10.55C22.763 10.6633 22.7763 10.7733 22.783 10.88C22.793 10.9833 22.798 11.09 22.798 11.2ZM22.118 10.69C22.118 10.5 22.073 10.34 21.983 10.21C21.893 10.08 21.7547 10.015 21.568 10.015C21.378 10.015 21.2363 10.0767 21.143 10.2C21.053 10.3233 21.008 10.4867 21.008 10.69C21.008 10.87 21.0547 11.0233 21.148 11.15C21.2413 11.2767 21.3847 11.34 21.578 11.34C21.748 11.34 21.8797 11.2783 21.973 11.155C22.0697 11.0283 22.118 10.8733 22.118 10.69Z" fill="#4D4D4D"/>
</svg>
