<svg width="138" height="97" viewBox="0 0 138 97" fill="none" xmlns="http://www.w3.org/2000/svg">
<path d="M10.2004 9L9.99268 10.0933L9.78612 11.1855L9.57838 12.2788L9.37183 13.3709H10.5613H11.752H12.9414H14.1321L14.3387 12.2788L14.5464 11.1855L14.753 10.0933L14.9607 9H13.77H12.5806H11.3899H10.2004Z" fill="black"/>
<path d="M7 27.7206H8.14793H9.29585H10.4438H11.5917L12.044 24.8953L12.4963 22.07L12.9486 19.2435L13.402 16.4182H12.2541H11.1062H9.95707H8.80914L8.35686 19.2435L7.90457 22.07L7.45229 24.8953L7 27.7206Z" fill="black"/>
<path d="M20.3941 16.4812L20.5306 15.7096L20.6683 14.938L20.8048 14.1663L20.9413 13.3947H23.0698H25.1983H27.3256H29.454L29.6475 12.3097L29.841 11.2235L30.0334 10.1373L30.2268 9.05231H26.9386H23.6503H20.3608H17.0726L16.2511 13.7188L15.4284 18.3865L14.607 23.0542L13.7843 27.7219H14.9453H16.1051H17.2661H18.4259L18.7262 25.997L19.0254 24.2733L19.3257 22.5485L19.6248 20.8248H21.5444H23.4627H25.3823H27.3006L27.4846 19.7386L27.6686 18.6524L27.8526 17.5662L28.0366 16.4812H26.1266H24.2154H22.3053H20.3941Z" fill="black"/>
<path d="M33.2777 23.256L33.9009 19.7054L34.5241 16.1535L35.1485 12.6029L35.7718 9.05231H34.6179H33.464H32.3102H31.1563L30.3337 13.7188L29.5122 18.3865L28.6895 23.0542L27.868 27.7207H30.9937H34.1193H37.2461H40.3718L40.5712 26.6048L40.7706 25.4889L40.9713 24.373L41.1707 23.256H39.1977H37.2236H35.2506H33.2777Z" fill="black"/>
<path d="M57.3568 13.3947L57.5503 12.3097L57.7438 11.2235L57.9361 10.1373L58.1296 9.05231H54.7511H51.3726H47.9942H44.6157L43.7942 13.7188L42.9715 18.3865L42.1489 23.0542L41.3274 27.7207H44.7356H48.1425H51.5507H54.9589L55.1524 26.6357L55.3447 25.5495L55.5382 24.4633L55.7317 23.3771H53.4762H51.2207H48.9664H46.7109L46.8486 22.5817L46.9863 21.7863L47.1252 20.991L47.2629 20.1944H49.2228H51.1827H53.1414H55.1013L55.2948 19.1154L55.4883 18.0351L55.683 16.9548L55.8765 15.8746H53.9166H51.9555H49.9956H48.0357L48.1473 15.2549L48.2589 14.6352L48.3717 14.0156L48.4832 13.3947H50.7019H52.9206H55.1381H57.3568Z" fill="black"/>
<path d="M130.329 11.2258H128.063H125.797H123.531H121.265L121.031 12.6396L120.797 14.0535L120.563 15.4673L120.329 16.8812H122.338H124.346H126.355H128.363L128.273 17.4272L128.184 17.9733L128.094 18.5182L128.004 19.0642H126.007H124.011H122.015H120.018L119.755 20.6763L119.49 22.2872L119.226 23.8993L118.963 25.5102H121.253H123.543H125.834H128.124L128.045 26.0563L127.967 26.6023L127.89 27.1472L127.811 27.6933H124.975H122.139H119.305H116.469L117.212 23.0303L117.955 18.3686L118.699 13.7057L119.442 9.04272H122.247H125.054H127.86H130.665L130.581 9.58879L130.498 10.1349L130.414 10.6797L130.329 11.2258Z" fill="black"/>
<path d="M115.076 16.4444C115.147 16.3387 115.214 16.2319 115.277 16.1215C115.34 16.0111 115.399 15.8995 115.454 15.7855C115.508 15.6716 115.559 15.5552 115.607 15.4365C115.653 15.3178 115.697 15.1967 115.735 15.0744C115.774 14.9522 115.807 14.8287 115.837 14.7064C115.867 14.5842 115.89 14.4607 115.911 14.3384C115.931 14.2162 115.945 14.0927 115.955 13.9704C115.964 13.8482 115.969 13.7247 115.969 13.6024C115.969 13.4315 115.962 13.2641 115.949 13.1003C115.936 12.9365 115.914 12.7774 115.887 12.6207C115.86 12.4652 115.825 12.3132 115.785 12.1649C115.744 12.0165 115.697 11.8728 115.642 11.7316C115.588 11.5915 115.527 11.455 115.462 11.3256C115.397 11.195 115.324 11.0703 115.248 10.9505C115.172 10.8306 115.089 10.7166 115 10.6074C114.911 10.4982 114.819 10.3937 114.719 10.2952C114.619 10.1966 114.515 10.1029 114.407 10.015C114.299 9.92717 114.183 9.84526 114.065 9.7681C113.946 9.69094 113.823 9.61971 113.694 9.55442C113.566 9.48913 113.433 9.42859 113.295 9.37279C113.158 9.31819 113.015 9.26952 112.87 9.22915C112.726 9.18761 112.576 9.15318 112.423 9.12588C112.27 9.09857 112.113 9.07721 111.953 9.06415C111.793 9.04871 111.629 9.04278 111.46 9.04278H111.415H111.37H111.325H111.282H109.649H108.015H106.379H104.746H104.259H103.773H103.286H102.799H102.26H101.721H101.182H100.643L100.146 12.1269L99.6485 15.211L99.1512 18.2951L98.6538 21.3791C98.63 21.537 98.6015 21.6925 98.5683 21.8445C98.535 21.9964 98.4982 22.146 98.4555 22.2932C98.414 22.4404 98.3665 22.584 98.3154 22.7253C98.2644 22.8666 98.2086 23.0055 98.1492 23.1408C98.0899 23.2773 98.0258 23.4079 97.9569 23.5349C97.8881 23.6619 97.8157 23.783 97.7385 23.9005C97.6613 24.0181 97.5806 24.1308 97.4951 24.2377C97.4097 24.3457 97.3195 24.449 97.2257 24.5475C97.1319 24.646 97.0345 24.7398 96.9325 24.8277C96.8304 24.9155 96.7259 24.9974 96.6167 25.0746C96.5075 25.1518 96.3947 25.223 96.2784 25.2883C96.162 25.3536 96.0421 25.4141 95.9175 25.4687C95.794 25.5233 95.6658 25.572 95.5352 25.6123C95.4047 25.6527 95.2705 25.6883 95.1316 25.7156C94.9939 25.7429 94.8527 25.7631 94.7078 25.7774C94.563 25.7916 94.4146 25.7975 94.2639 25.7975C93.9754 25.7975 93.7024 25.7785 93.4448 25.7394C93.1872 25.7002 92.9426 25.6432 92.7135 25.566C92.4844 25.4889 92.2707 25.3927 92.0713 25.2776C91.8718 25.1624 91.6878 25.0283 91.5181 24.8752C91.3483 24.722 91.1988 24.5475 91.0717 24.354C90.9447 24.1605 90.8379 23.9457 90.7536 23.7118C90.6681 23.4767 90.6052 23.2227 90.5625 22.9473C90.5197 22.6719 90.4984 22.3763 90.4984 22.0605C90.4984 21.9988 90.4996 21.9383 90.5007 21.8777C90.5019 21.8172 90.5043 21.7578 90.5079 21.6985C90.5114 21.6391 90.515 21.5809 90.5185 21.5228C90.5233 21.4646 90.528 21.4076 90.534 21.3507C90.5399 21.2937 90.547 21.2367 90.553 21.1785C90.5601 21.1204 90.566 21.0622 90.5732 21.0028C90.5803 20.9435 90.5874 20.8841 90.5945 20.8236C90.6016 20.763 90.61 20.7025 90.6183 20.6408L91.086 17.7407L91.5537 14.8406L92.0214 11.9405L92.4891 9.04041H92.2054H91.9217H91.638H91.3543H91.0979H90.8403H90.5838H90.3274H86.6735H83.0208H79.3681H75.7154H75.7H75.6845H75.6691H75.6537H74.2944H72.9352H71.576H70.2167L69.1543 10.3806L68.0918 11.7209L67.0294 13.0611L65.9669 14.4014L65.3829 13.0611L64.7952 11.7221L64.2112 10.3818L63.6271 9.04159H62.4056H61.1841H59.9625H58.741L59.7548 11.309L60.7686 13.5763L61.7824 15.8437L62.7962 18.111L60.9182 20.5114L59.0402 22.9117L57.1622 25.312L55.2842 27.7123H56.6493H58.0145H59.3797H60.7448L61.8239 26.3187L62.903 24.925L63.9821 23.5314L65.0611 22.1377L65.6559 23.5314L66.2506 24.925L66.8454 26.3187L67.4401 27.7123H68.6664H69.8927H71.1189H72.3452L71.3219 25.3749L70.2986 23.0375L69.2754 20.7001L68.2521 18.3627L69.6802 16.5785L71.1082 14.7943L72.5363 13.0101L73.9644 11.2259H75.5611H77.1577H78.7544H80.351L79.691 15.3427L79.031 19.4596L78.3709 23.5765L77.7109 27.6933H78.257H78.803H79.3491H79.8952L80.5481 23.5765L81.201 19.4596L81.8539 15.3427L82.5068 11.2259H84.3741H86.2414H88.1087H89.976L89.608 13.5146L89.24 15.8033L88.872 18.0921L88.504 20.3808C88.4803 20.5256 88.4589 20.6704 88.4411 20.8165C88.4233 20.9625 88.4079 21.1085 88.396 21.2557C88.3841 21.4029 88.3746 21.5501 88.3687 21.6973C88.3628 21.8457 88.3592 21.9929 88.3592 22.1424C88.3592 22.3668 88.3675 22.5852 88.3853 22.7977C88.4031 23.0114 88.4292 23.2191 88.4637 23.4221C88.4993 23.6251 88.542 23.8222 88.5954 24.0145C88.6477 24.2068 88.7094 24.3944 88.7794 24.576C88.8495 24.7588 88.9266 24.9333 89.0097 25.1019C89.094 25.2705 89.1842 25.4319 89.2828 25.5862C89.3813 25.7406 89.4858 25.8889 89.5974 26.029C89.7089 26.1703 89.8288 26.3044 89.9547 26.4314C90.0805 26.5585 90.2135 26.6784 90.3512 26.7911C90.4889 26.9039 90.6349 27.0096 90.7868 27.1081C90.9388 27.2066 91.0967 27.298 91.2617 27.3823C91.4267 27.4666 91.5976 27.5438 91.7757 27.6138C91.9538 27.6838 92.1354 27.7456 92.3229 27.7978C92.5105 27.85 92.7028 27.894 92.8987 27.9296C93.0946 27.9652 93.2976 27.9913 93.5041 28.0079C93.7107 28.0245 93.922 28.034 94.138 28.034C94.3695 28.034 94.5962 28.0245 94.817 28.0044C95.0378 27.9842 95.2527 27.9533 95.4628 27.9129C95.6729 27.8726 95.8771 27.8215 96.0754 27.761C96.2748 27.7005 96.4671 27.6292 96.6559 27.5473C96.8434 27.4666 97.0262 27.3776 97.2019 27.279C97.3788 27.1817 97.5486 27.076 97.7136 26.9621C97.8786 26.8481 98.0376 26.7258 98.1908 26.5953C98.3439 26.4647 98.4911 26.3258 98.6336 26.1798C98.7748 26.0326 98.9114 25.8794 99.0396 25.7192C99.169 25.5589 99.2912 25.3915 99.4064 25.217C99.5215 25.0425 99.6319 24.8621 99.7352 24.6733C99.8385 24.4858 99.9346 24.2899 100.025 24.0881C100.115 23.8863 100.198 23.6797 100.277 23.4684C100.354 23.2571 100.425 23.0411 100.49 22.8191C100.555 22.5983 100.614 22.3716 100.666 22.1401C100.718 21.9086 100.764 21.6724 100.805 21.4314L101.216 18.8732L101.626 16.315L102.037 13.7568L102.448 11.1986H102.934H103.421H103.908H104.395H104.916H105.437H105.958H106.479H107.798H109.117H110.436H111.755C111.867 11.2235 111.978 11.2555 112.085 11.2935C112.191 11.3315 112.295 11.3766 112.394 11.4277C112.494 11.4787 112.592 11.5381 112.684 11.6034C112.777 11.6686 112.867 11.7411 112.954 11.8206C113.079 11.9369 113.19 12.0651 113.284 12.2028C113.379 12.3405 113.457 12.4901 113.52 12.6492C113.583 12.8083 113.63 12.9792 113.661 13.1596C113.692 13.3413 113.709 13.5324 113.709 13.7354C113.709 13.8719 113.703 14.0049 113.692 14.1319C113.681 14.2589 113.663 14.3835 113.641 14.5023C113.618 14.621 113.589 14.7361 113.554 14.8453C113.52 14.9545 113.479 15.0614 113.433 15.1623C113.387 15.2632 113.337 15.3605 113.284 15.4531C113.23 15.5457 113.172 15.6348 113.11 15.719C113.049 15.8033 112.982 15.884 112.912 15.9612C112.842 16.0384 112.768 16.1096 112.69 16.1784C112.612 16.2461 112.531 16.3114 112.447 16.3708C112.362 16.4301 112.275 16.4871 112.183 16.5393C112.092 16.5916 111.998 16.639 111.901 16.683C111.803 16.7269 111.702 16.7661 111.598 16.8017C111.495 16.8361 111.389 16.867 111.283 16.8931C111.178 16.9192 111.071 16.9418 110.963 16.9596C110.855 16.9774 110.747 16.9904 110.636 16.9987C110.526 17.007 110.416 17.0118 110.304 17.0118H109.649H108.993H108.338H107.683L107.597 17.5187L107.512 18.0256L107.426 18.5325L107.341 19.0394H108.01H108.68H109.35H110.019C110.223 19.0394 110.418 19.0548 110.605 19.0868C110.793 19.1189 110.971 19.1664 111.141 19.2293C111.311 19.2922 111.472 19.3718 111.625 19.4667C111.778 19.5617 111.922 19.6721 112.059 19.7991C112.195 19.9249 112.314 20.0638 112.416 20.2134C112.518 20.363 112.602 20.5244 112.671 20.6966C112.74 20.8687 112.79 21.0527 112.824 21.2486C112.859 21.4444 112.875 21.651 112.875 21.8694C112.875 22.0225 112.869 22.1709 112.856 22.3134C112.843 22.457 112.825 22.5947 112.8 22.7277C112.776 22.8606 112.745 22.9889 112.707 23.1123C112.67 23.2358 112.626 23.3533 112.576 23.4673C112.526 23.5812 112.472 23.6892 112.413 23.7937C112.355 23.897 112.292 23.9967 112.226 24.0905C112.159 24.1843 112.088 24.2733 112.012 24.3576C111.936 24.4419 111.857 24.5202 111.774 24.595C111.689 24.6698 111.601 24.7398 111.51 24.8051C111.419 24.8704 111.324 24.9321 111.225 24.9891C111.127 25.0461 111.023 25.0983 110.918 25.147C110.811 25.1957 110.702 25.2384 110.588 25.2788C110.474 25.3179 110.359 25.3524 110.242 25.382C110.126 25.4117 110.008 25.4355 109.888 25.4556C109.769 25.4758 109.65 25.4901 109.528 25.4996C109.405 25.5091 109.284 25.5138 109.16 25.5138H107.392H105.624H103.857H102.089L102.005 26.0599L101.921 26.606L101.836 27.152L101.752 27.6981H103.556H105.361H107.165H108.97C109.166 27.6981 109.36 27.691 109.553 27.6767C109.745 27.6625 109.937 27.6411 110.127 27.6126C110.317 27.5841 110.506 27.5485 110.692 27.5058C110.879 27.463 111.064 27.4132 111.248 27.3562C111.432 27.2992 111.611 27.2351 111.784 27.1639C111.958 27.0927 112.126 27.0131 112.289 26.9265C112.451 26.8398 112.609 26.746 112.761 26.6451C112.913 26.5442 113.06 26.435 113.203 26.3187C113.344 26.2023 113.479 26.0789 113.608 25.9471C113.736 25.8153 113.857 25.6753 113.971 25.5281C114.085 25.3809 114.192 25.2242 114.291 25.0603C114.391 24.8965 114.484 24.7256 114.57 24.5451C114.656 24.3659 114.732 24.1783 114.796 23.9813C114.86 23.7854 114.915 23.5812 114.957 23.3687C115 23.1562 115.032 22.9354 115.055 22.7063C115.076 22.4772 115.087 22.2398 115.087 21.9952C115.087 21.8991 115.083 21.8029 115.076 21.7056C115.069 21.6083 115.058 21.5109 115.044 21.4124C115.03 21.3139 115.012 21.2153 114.992 21.1156C114.97 21.0159 114.947 20.9162 114.918 20.8153C114.89 20.7144 114.86 20.6158 114.826 20.5185C114.791 20.4211 114.756 20.325 114.718 20.2312C114.678 20.1374 114.637 20.0448 114.593 19.9534C114.549 19.862 114.502 19.773 114.451 19.6863C114.401 19.5985 114.348 19.5142 114.294 19.4323C114.239 19.3504 114.182 19.2708 114.124 19.1937C114.065 19.1165 114.004 19.0429 113.94 18.9717C113.876 18.9005 113.811 18.8316 113.743 18.7663C113.675 18.701 113.606 18.6393 113.536 18.5811C113.466 18.523 113.395 18.4684 113.324 18.4185C113.253 18.3687 113.179 18.3212 113.106 18.2784C113.032 18.2357 112.957 18.1965 112.881 18.1621C112.989 18.136 113.095 18.1027 113.199 18.0636C113.304 18.0244 113.406 17.9793 113.507 17.9282C113.608 17.8772 113.706 17.819 113.804 17.7549C113.901 17.6908 113.996 17.6208 114.091 17.5436C114.185 17.4665 114.276 17.3869 114.364 17.3026C114.452 17.2183 114.537 17.1317 114.62 17.0403C114.703 16.9489 114.783 16.8539 114.859 16.7566C114.935 16.6592 115.005 16.5488 115.076 16.4444Z" fill="black"/>
<path d="M17 80.9142V63.0854H19.9834V78.0108H24.1213L22.9158 80.9142H17Z" fill="#185D78"/>
<path d="M32.9031 80.704L32.5063 78.9848H32.3381C32.0409 79.5945 31.6184 80.072 31.0706 80.4223C30.521 80.7693 29.894 80.9444 29.1882 80.9444C27.986 80.9444 27.0755 80.5357 26.4591 79.7181C25.8425 78.9007 25.5334 77.6776 25.5334 76.0512V67.3109H28.7675V75.2819C28.7675 76.2594 28.8843 76.9978 29.116 77.4941C29.3479 77.9904 29.7257 78.2395 30.2462 78.2395C30.9348 78.2395 31.4382 77.8944 31.7542 77.2056C32.072 76.517 32.23 75.3576 32.23 73.7311V67.3109H35.464V80.704H32.9031Z" fill="#185D78"/>
<path d="M40.4535 73.8632L37.1113 67.3109H40.4294L42.2088 71.3986L43.8558 67.3109H47.1501L43.7838 73.8632L47.2943 80.7039H43.952L42.0526 76.4239L40.2851 80.7039H36.9549L40.4535 73.8632Z" fill="#185D78"/>
<path d="M49.8638 64.4787H54.2452C55.8872 64.4787 57.1924 64.7948 58.161 65.4268C59.1298 66.0588 59.6141 67.0551 59.6141 68.417C59.6141 69.2705 59.3719 70.0142 58.8876 70.6464C58.4033 71.2784 57.6854 71.7164 56.732 71.9637V72.0614C57.9308 72.2418 58.8756 72.6575 59.5643 73.305C60.253 73.9542 60.5981 74.8438 60.5981 75.9758C60.5981 76.7642 60.4539 77.4546 60.1671 78.0453C59.8804 78.6362 59.4733 79.1274 58.9494 79.5225C58.4238 79.9157 57.7919 80.2111 57.0533 80.4087C56.3147 80.6064 55.4852 80.7041 54.5664 80.7041H49.8638V64.4787ZM53.8019 71.6184C55.4765 71.6184 56.6753 71.3522 57.3967 70.818C58.1197 70.2857 58.4804 69.4767 58.4804 68.3931C58.4804 67.342 58.0957 66.5827 57.3229 66.1156C56.5519 65.6485 55.4199 65.4131 53.9257 65.4131H50.9955V71.6184H53.8019ZM54.2709 79.768C55.8957 79.768 57.1719 79.464 58.0994 78.8577C59.0268 78.2498 59.4905 77.2895 59.4905 75.9758C59.4905 74.8112 59.0388 73.9457 58.1355 73.3788C57.2337 72.812 55.9457 72.5287 54.2709 72.5287H50.9957V79.768H54.2709Z" fill="#185D78"/>
<path d="M63.3067 77.7501C63.3067 76.4534 63.9215 75.4589 65.153 74.7702C66.3844 74.0815 68.3133 73.5886 70.9393 73.2931C70.9547 72.8499 70.9273 72.4035 70.8533 71.9518C70.7794 71.5001 70.6403 71.0981 70.4343 70.7444C70.2283 70.3923 69.9413 70.1036 69.5721 69.8822C69.2029 69.6607 68.7306 69.5506 68.1569 69.5506C67.353 69.5506 66.6213 69.7068 65.9653 70.0177C65.3092 70.3304 64.7836 70.6345 64.3904 70.9297L63.8974 70.1174C64.1104 69.9696 64.3697 69.8047 64.672 69.6244C64.9759 69.444 65.3125 69.2791 65.6819 69.1314C66.0513 68.9837 66.4581 68.8566 66.9013 68.75C67.3443 68.6434 67.8031 68.5903 68.2805 68.5903C68.9863 68.5903 69.5771 68.7087 70.0529 68.9476C70.5287 69.1847 70.9151 69.5091 71.2106 69.9198C71.5058 70.3302 71.7155 70.8094 71.8374 71.359C71.9612 71.9103 72.023 72.5047 72.023 73.1452V80.704H71.1109L70.9889 79.1771H70.9393C70.3312 79.6529 69.6787 80.0754 68.9812 80.4448C68.2839 80.8158 67.542 80.9994 66.7538 80.9994C66.278 80.9994 65.8348 80.9342 65.4244 80.8019C65.0139 80.6714 64.6482 80.4738 64.3286 80.211C64.0073 79.95 63.7584 79.6134 63.578 79.2028C63.3961 78.7926 63.3067 78.3082 63.3067 77.7501ZM64.4387 77.7003C64.4387 78.554 64.686 79.1619 65.1771 79.5226C65.6701 79.8833 66.2523 80.0636 66.9254 80.0636C67.6158 80.0636 68.2719 79.9005 68.8955 79.5726C69.5188 79.2428 70.2008 78.767 70.9393 78.1434V74.1296C69.7249 74.2773 68.703 74.4593 67.8736 74.6722C67.044 74.8852 66.3759 75.1395 65.8674 75.435C65.3573 75.7303 64.9933 76.067 64.7716 76.4449C64.5501 76.8226 64.4387 77.2417 64.4387 77.7003Z" fill="#185D78"/>
<path d="M76.2585 63H77.3422V79.2769C77.3422 79.5398 77.3903 79.7321 77.4899 79.854C77.5878 79.9775 77.7116 80.0395 77.8593 80.0395C77.9074 80.0395 77.9607 80.0395 78.019 80.0395C78.0758 80.0395 78.1702 80.0241 78.3025 79.9897L78.4983 80.876C78.3849 80.9087 78.2698 80.9378 78.1547 80.9635C78.0396 80.9875 77.8919 80.9996 77.7117 80.9996C76.743 80.9996 76.2587 80.3763 76.2587 79.1277V63H76.2585Z" fill="#185D78"/>
<path d="M81.4299 77.7501C81.4299 76.4534 82.0448 75.4589 83.2762 74.7702C84.5076 74.0815 86.4365 73.5886 89.0625 73.2931C89.0779 72.8499 89.0505 72.4035 88.9766 71.9518C88.9028 71.5001 88.7636 71.0981 88.5575 70.7444C88.3515 70.3923 88.0645 70.1036 87.6953 69.8822C87.3261 69.6607 86.8538 69.5506 86.2803 69.5506C85.4766 69.5506 84.7447 69.7068 84.0886 70.0177C83.4326 70.3304 82.907 70.6345 82.5136 70.9297L82.0206 70.1174C82.2336 69.9696 82.493 69.8047 82.7952 69.6244C83.0991 69.444 83.4359 69.2791 83.8051 69.1314C84.1745 68.9837 84.5814 68.8566 85.0245 68.75C85.4677 68.6434 85.9263 68.5903 86.4037 68.5903C87.1095 68.5903 87.7004 68.7087 88.1762 68.9476C88.652 69.1847 89.0384 69.5091 89.3338 69.9198C89.6293 70.3302 89.8388 70.8094 89.9608 71.359C90.0844 71.9103 90.1464 72.5047 90.1464 73.1452V80.704H89.2343L89.1123 79.1771H89.0625C88.4546 79.6529 87.8019 80.0754 87.1046 80.4448C86.4072 80.8158 85.6652 80.9994 84.877 80.9994C84.4012 80.9994 83.958 80.9342 83.5477 80.8019C83.1373 80.6714 82.7714 80.4738 82.4518 80.211C82.1307 79.95 81.8816 79.6134 81.7012 79.2028C81.5192 78.7926 81.4299 78.3082 81.4299 77.7501ZM82.5617 77.7003C82.5617 78.554 82.8091 79.1619 83.3001 79.5226C83.7931 79.8833 84.3753 80.0636 85.0485 80.0636C85.739 80.0636 86.395 79.9005 87.0185 79.5726C87.642 79.2428 88.3239 78.767 89.0623 78.1434V74.1296C87.8481 74.2773 86.826 74.4593 85.9966 74.6722C85.1671 74.8852 84.4989 75.1395 83.9905 75.435C83.4805 75.7303 83.1163 76.067 82.8948 76.4449C82.6733 76.8226 82.5617 77.2417 82.5617 77.7003Z" fill="#185D78"/>
<path d="M94.3818 68.8858H95.3179L95.4158 70.708H95.4896C96.0977 70.1001 96.721 69.5951 97.3617 69.1931C98.0007 68.7912 98.7306 68.5904 99.5515 68.5904C100.783 68.5904 101.686 68.9596 102.26 69.698C102.835 70.4367 103.122 71.5769 103.122 73.1212V80.7039H102.038V73.2689C102.038 72.0048 101.83 71.0722 101.411 70.4728C100.992 69.8751 100.298 69.5745 99.3298 69.5745C98.6239 69.5745 97.9851 69.76 97.4096 70.1292C96.8359 70.4984 96.1869 71.0515 95.4653 71.7901V80.7039H94.3816V68.8858H94.3818Z" fill="#185D78"/>
<path d="M106.495 74.8199C106.495 73.8341 106.643 72.953 106.94 72.1732C107.236 71.3935 107.629 70.7408 108.122 70.2152C108.613 69.6897 109.183 69.2877 109.833 69.0077C110.48 68.7294 111.165 68.5904 111.888 68.5904C112.709 68.5904 113.395 68.7381 113.944 69.0334C114.494 69.3288 114.966 69.6654 115.359 70.0433L114.72 70.8059C114.343 70.4453 113.924 70.1447 113.465 69.9077C113.004 69.6691 112.488 69.5505 111.912 69.5505C111.306 69.5505 110.742 69.6777 110.226 69.9319C109.709 70.186 109.257 70.5467 108.872 71.0156C108.486 71.4829 108.182 72.0375 107.96 72.6764C107.738 73.3171 107.629 74.0316 107.629 74.82C107.629 75.5911 107.731 76.2971 107.936 76.9378C108.142 77.5766 108.429 78.1281 108.798 78.5867C109.167 79.047 109.619 79.4041 110.151 79.6584C110.686 79.9125 111.273 80.0398 111.912 80.0398C112.535 80.0398 113.114 79.9092 113.648 79.6464C114.182 79.3836 114.653 79.0625 115.063 78.6846L115.63 79.4249C115.122 79.8835 114.555 80.2614 113.932 80.5569C113.308 80.8523 112.618 80.9999 111.864 80.9999C111.091 80.9999 110.381 80.8608 109.734 80.5808C109.085 80.3026 108.518 79.9007 108.034 79.3751C107.549 78.8495 107.173 78.2055 106.902 77.4412C106.631 76.6783 106.495 75.8039 106.495 74.8199Z" fill="#185D78"/>
<path d="M117.132 74.82C117.132 73.8514 117.276 72.9805 117.563 72.2094C117.85 71.4384 118.236 70.7855 118.72 70.2516C119.205 69.719 119.754 69.3086 120.371 69.0217C120.986 68.733 121.621 68.5907 122.279 68.5907C123.691 68.5907 124.799 69.0665 125.603 70.0179C126.406 70.9711 126.81 72.316 126.81 74.0559C126.81 74.2036 126.81 74.3513 126.81 74.499C126.81 74.6468 126.793 74.7945 126.76 74.9422H118.241C118.257 75.6806 118.372 76.3677 118.585 76.998C118.798 77.63 119.098 78.1728 119.485 78.6245C119.869 79.0761 120.333 79.4282 120.876 79.6825C121.417 79.9366 122.023 80.0638 122.697 80.0638C123.337 80.0638 123.916 79.9694 124.433 79.7804C124.95 79.5931 125.431 79.3339 125.874 79.0058L126.317 79.8423C125.84 80.1222 125.319 80.385 124.752 80.6308C124.187 80.8764 123.469 81 122.599 81C121.843 81 121.133 80.8609 120.469 80.581C119.804 80.3027 119.225 79.8956 118.732 79.3632C118.241 78.8293 117.85 78.1817 117.563 77.4174C117.276 76.6543 117.132 75.7886 117.132 74.82ZM125.774 74.1055C125.774 72.5787 125.464 71.433 124.84 70.6704C124.215 69.9079 123.37 69.5248 122.303 69.5248C121.795 69.5248 121.311 69.6331 120.85 69.8461C120.392 70.0591 119.976 70.363 119.607 70.7564C119.238 71.1514 118.934 71.6305 118.697 72.1973C118.458 72.764 118.307 73.3995 118.242 74.1055H125.774Z" fill="#185D78"/>
<path d="M66.4277 46.5078C67.3184 46.5078 67.9883 46.7891 68.4375 47.3516C68.8906 47.9102 69.1172 48.7285 69.1172 49.8066C69.1172 50.8652 68.8789 51.6816 68.4023 52.2559C67.9297 52.8301 67.2637 53.1172 66.4043 53.1172C65.9512 53.1172 65.543 53.0234 65.1797 52.8359C64.8164 52.6484 64.5293 52.3828 64.3184 52.0391H64.2656L64.1016 53H63.7383V43.8828H64.3184V46.1738C64.3184 46.5176 64.3105 46.834 64.2949 47.123L64.2773 47.6211H64.3184C64.5605 47.2383 64.8516 46.957 65.1914 46.7773C65.5352 46.5977 65.9473 46.5078 66.4277 46.5078ZM66.416 47.0352C65.666 47.0352 65.1289 47.25 64.8047 47.6797C64.4805 48.1094 64.3184 48.8184 64.3184 49.8066V49.9062C64.3184 50.8672 64.4863 51.5566 64.8223 51.9746C65.1621 52.3926 65.6895 52.6016 66.4043 52.6016C67.0996 52.6016 67.623 52.3594 67.9746 51.875C68.3262 51.3867 68.502 50.6934 68.502 49.7949C68.502 47.9551 67.8066 47.0352 66.416 47.0352ZM69.8203 46.6309H70.418L71.7656 50.2051C72.1758 51.3027 72.4355 52.043 72.5449 52.4258H72.5801C72.7441 51.9219 73.0117 51.1699 73.3828 50.1699L74.7305 46.6309H75.3281L72.4746 54.0312C72.2441 54.6328 72.0508 55.0391 71.8945 55.25C71.7383 55.4609 71.5547 55.6191 71.3438 55.7246C71.1367 55.8301 70.8848 55.8828 70.5879 55.8828C70.3652 55.8828 70.1172 55.8418 69.8438 55.7598V55.2559C70.0703 55.3184 70.3145 55.3496 70.5762 55.3496C70.7754 55.3496 70.9512 55.3027 71.1035 55.209C71.2559 55.1152 71.3926 54.9688 71.5137 54.7695C71.6387 54.5742 71.7812 54.2617 71.9414 53.832C72.1055 53.4062 72.2109 53.1289 72.2578 53L69.8203 46.6309Z" fill="black"/>
</svg>
