<svg width="64" height="64" viewBox="0 0 64 64" fill="none" xmlns="http://www.w3.org/2000/svg">
<rect width="64" height="64" fill="white"/>
<path d="M32.1141 5C27.1784 5 22.8139 7.4436 20.1613 11.1893C18.4728 13.5754 17.4794 16.4904 17.4794 19.6321C17.4794 20.7044 17.5936 21.7465 17.8143 22.7524C19.2432 29.3372 25.1034 34.27 32.1141 34.27C34.1557 34.27 36.1018 33.8498 37.8684 33.0948C42.1604 31.2524 45.3988 27.4162 46.4107 22.7524C46.6314 21.7465 46.7456 20.7016 46.7456 19.6321C46.7456 11.5517 40.1913 5 32.1141 5ZM34.265 8.51284C36.1677 7.8995 40.9617 8.77589 41.1156 13.9983C41.1185 14.0648 41.1185 14.1315 41.1185 14.2008C41.0518 14.1588 40.9857 14.1131 40.9161 14.0709C40.4119 13.7568 39.8589 13.5121 39.2819 13.3338C39.0343 11.1078 37.3972 10.395 35.9951 10.3858C36.0019 10.4399 36.0077 10.5006 36.0135 10.558C36.0288 10.7813 36.026 10.993 35.9984 11.1893C35.8839 12.1255 35.3342 12.7417 34.6185 12.7966C33.8448 12.8565 33.1469 12.2404 32.9388 11.1893C32.9115 11.0655 32.8932 10.9388 32.8845 10.8057C32.7848 9.52522 33.4401 8.77881 34.265 8.51284ZM32.1353 15.0377C32.6244 15.3819 33.0898 15.7838 33.5244 16.246C34.0319 16.7868 34.5005 17.412 34.914 18.1247C35.304 18.7983 35.4791 19.0673 35.6905 19.7438C35.1888 20.0098 34.639 20.2179 34.0415 20.3568C33.8722 19.7741 33.7422 19.5896 33.4006 19.0007C33.0288 18.3544 32.6 17.8014 32.1353 17.3334C31.7003 16.8981 31.2349 16.536 30.7486 16.2461C28.9547 15.1706 26.9217 15.0406 25.6284 15.506C25.5623 15.1706 25.5293 14.8354 25.5293 14.5031C25.5293 14.1916 25.547 13.9017 25.5807 13.627C27.3746 13.0984 29.9782 13.5182 32.1353 15.0377ZM37.8684 20.9973C37.3642 21.3508 36.8048 21.6618 36.1861 21.9367C35.6449 22.1721 35.0679 22.3655 34.4549 22.5015C33.7694 22.6527 33.0356 22.7341 32.262 22.7341C31.3954 22.7341 30.9571 22.719 30.196 22.5288C30.2201 21.9639 30.3197 21.384 30.4981 20.7919C31.1505 20.976 31.4915 20.9879 32.2619 20.9879C32.9387 20.9879 33.5728 20.9126 34.1617 20.7675C34.7599 20.6286 35.3097 20.4173 35.8113 20.1542C36.6571 19.7104 37.3427 19.191 37.8683 18.5899C38.524 17.8524 38.9403 16.9976 39.1369 16.0402C39.3788 16.137 39.6141 16.2458 39.8319 16.3725C40.1851 16.5749 40.4931 16.7895 40.7592 17.0098C40.2907 18.6349 39.3276 19.9763 37.8684 20.9973ZM31.8514 27.5672C31.6279 27.7546 31.3889 27.9175 31.1448 28.0597C30.8154 28.2499 30.4982 28.401 30.1961 28.5155C28.8998 27.211 27.9938 25.1329 28.036 22.7525C28.0389 22.4471 28.0605 22.1363 28.097 21.8248C28.1659 21.2388 28.2993 20.638 28.498 20.037C28.7071 19.4021 28.9906 18.759 29.3565 18.1279C29.7671 17.4149 29.9695 17.0674 30.4798 16.5238C30.9665 16.8138 31.4344 17.1795 31.869 17.614C31.4013 18.0827 31.2407 18.3543 30.8666 19.0007C30.5404 19.5688 30.2928 20.1426 30.1235 20.7074C29.9452 21.2963 29.8454 21.8794 29.8185 22.4443C29.8124 22.5498 29.8095 22.6496 29.8124 22.7525C29.7883 24.8697 30.6643 26.655 31.8514 27.5672ZM23.36 14.4728C23.4024 13.1225 23.7103 12.0441 24.1876 11.1893C25.6832 8.4798 28.8125 8.04782 30.2591 8.51284C31.0838 8.77881 31.7394 9.52513 31.6396 10.8056C31.6307 10.9387 31.6123 11.0654 31.5882 11.1892C31.3768 12.2435 30.6878 12.8718 29.9149 12.8081C29.2018 12.7538 28.6402 12.1284 28.5257 11.1892C28.5013 10.9899 28.4949 10.7783 28.5132 10.558C28.516 10.5005 28.5221 10.4399 28.5286 10.3857C27.8123 10.3918 27.0271 10.6214 26.3959 11.1892C25.807 11.7177 25.3474 12.5363 25.1995 13.7327C25.1694 14.0044 25.1517 14.2975 25.1517 14.6088C25.1517 14.9378 25.1847 15.273 25.2479 15.6084C25.5681 17.3091 26.3565 18.7923 28.1568 19.81C27.9575 20.4114 27.8247 21.0122 27.7581 21.5982C25.4112 20.4775 24.1699 18.6803 23.599 16.5053C23.4236 15.8471 23.3423 15.1793 23.3599 14.5147V14.4728H23.36ZM21.5959 23.5014C21.3878 23.3112 21.1764 23.0574 20.9801 22.7524C19.7837 20.9035 19.1524 17.1973 22.9617 14.7868C22.9794 14.775 22.9948 14.7627 23.0131 14.7534C22.9948 15.4181 23.0763 16.0887 23.2514 16.744C21.5812 18.028 21.6628 19.8643 22.3514 21.0668C22.3966 21.0334 22.445 20.9973 22.4934 20.9639C23.5534 20.239 24.6379 20.3388 25.1274 21.0547C25.4568 21.5319 25.4354 22.1665 25.0639 22.7525C24.8826 23.0364 24.6167 23.3113 24.269 23.5528C23.2091 24.2779 22.2397 24.0842 21.5959 23.5014ZM32.1353 30.0078C27.2114 32.5873 24.0154 28.9173 23.5991 26.9722C23.415 26.1264 23.7347 25.1842 24.8917 24.6311C26.0544 24.0784 27.1151 24.3412 27.4891 25.1205C27.8609 25.9057 27.4047 26.9059 26.2449 27.4646C26.1907 27.4887 26.1365 27.5127 26.0852 27.5338C26.7645 28.7027 28.2715 29.6637 30.4798 28.8056C30.7817 28.6908 31.0992 28.5397 31.4283 28.3495C31.6734 28.2074 31.9116 28.0445 32.1353 27.8571C33.5546 26.697 34.5941 24.8183 34.5034 22.8912C34.6846 22.8489 34.8627 22.8036 35.0378 22.7523C35.4551 22.6342 35.8538 22.4925 36.2342 22.3264C36.249 22.4681 36.2615 22.6102 36.2672 22.7523C36.3853 24.9938 35.3765 27.2711 33.7908 28.8055C33.3135 29.2706 32.7819 29.6636 32.2107 29.9686C32.1837 29.9806 32.1593 29.9928 32.1353 30.0078ZM40.6714 26.9722C40.4479 28.0084 39.4392 29.5094 37.8683 30.3313C36.4878 31.053 34.6698 31.2464 32.5697 30.1375C32.5913 30.1256 32.6182 30.1134 32.6426 30.1013C33.2136 29.7963 33.745 29.4036 34.2223 28.9385C35.8171 29.5909 37.1068 28.9385 37.8683 27.9961C37.9857 27.848 38.0919 27.6911 38.1824 27.5339C38.131 27.5128 38.0798 27.4887 38.0256 27.4647C37.9742 27.4375 37.9197 27.4102 37.8684 27.3829C36.826 26.8148 36.4308 25.8847 36.7871 25.1357C36.9834 24.7219 37.3728 24.45 37.8684 24.3655C38.3091 24.296 38.829 24.3713 39.376 24.6311C40.5358 25.1842 40.8527 26.1264 40.6714 26.9722ZM42.6743 23.5014C42.0309 24.0842 41.058 24.2779 39.9977 23.5528C39.6508 23.3112 39.3847 23.0392 39.2038 22.7525C38.8263 22.1694 38.7962 21.5349 39.1252 21.0576C39.6172 20.3449 40.7139 20.2391 41.7743 20.964C41.8224 20.9974 41.8708 21.0335 41.9193 21.0669C42.5807 19.9068 42.668 18.1461 40.8798 16.6687C40.6113 16.4484 40.3063 16.2338 39.9531 16.0314C39.7324 15.9043 39.4999 15.796 39.2581 15.6991C38.802 15.5179 38.3394 15.379 37.8686 15.2914C36.5969 15.0528 35.2647 15.2038 33.8935 16.0253C33.4585 15.5602 32.9931 15.1583 32.504 14.817C34.2653 13.5754 36.0804 13.2312 37.8686 13.482C38.3606 13.5455 38.8476 13.6572 39.3306 13.8083C39.9076 13.9864 40.4603 14.2343 40.9649 14.545C41.0338 14.5906 41.1005 14.6327 41.1672 14.6753C45.0544 17.2247 44.4597 20.9188 43.2874 22.7525C43.0938 23.0574 42.8827 23.314 42.6743 23.5014Z" fill="#185D78"/>
<path d="M3 53.9549V44.5806H4.56868V52.4283H6.7444L6.11052 53.9549H3Z" fill="#185D78"/>
<path d="M11.3619 53.8444L11.1532 52.9405H11.0648C10.9085 53.261 10.6864 53.5121 10.3983 53.6963C10.1094 53.8787 9.7797 53.9708 9.40859 53.9708C8.77645 53.9708 8.29773 53.7559 7.97363 53.326C7.64943 52.8962 7.48688 52.2531 7.48688 51.398V46.8023H9.18735V50.9935C9.18735 51.5074 9.24878 51.8957 9.37062 52.1566C9.49256 52.4176 9.69117 52.5486 9.96489 52.5486C10.327 52.5486 10.5916 52.3671 10.7578 52.0049C10.9249 51.6429 11.0079 51.0333 11.0079 50.1781V46.8023H12.7084V53.8444H11.3619Z" fill="#185D78"/>
<path d="M15.3318 50.2475L13.5745 46.8023H15.3191L16.2548 48.9517L17.1207 46.8023H18.8529L17.0829 50.2475L18.9287 53.8443H17.1713L16.1726 51.594L15.2433 53.8443H13.4922L15.3318 50.2475Z" fill="#185D78"/>
<path d="M20.2797 45.3132H22.5835C23.4468 45.3132 24.1331 45.4794 24.6424 45.8117C25.1518 46.144 25.4064 46.6678 25.4064 47.3839C25.4064 47.8327 25.2791 48.2237 25.0245 48.5561C24.7698 48.8884 24.3923 49.1187 23.891 49.2488V49.3002C24.5214 49.395 25.0182 49.6136 25.3802 49.954C25.7424 50.2954 25.9238 50.7632 25.9238 51.3583C25.9238 51.7729 25.848 52.1359 25.6972 52.4465C25.5464 52.7572 25.3324 53.0155 25.0569 53.2232C24.7806 53.4299 24.4484 53.5853 24.06 53.6891C23.6716 53.7931 23.2354 53.8445 22.7524 53.8445H20.2797V45.3132ZM22.3504 49.0672C23.2309 49.0672 23.8612 48.9272 24.2405 48.6464C24.6207 48.3665 24.8103 47.9411 24.8103 47.3713C24.8103 46.8187 24.6081 46.4195 24.2017 46.1739C23.7963 45.9282 23.2011 45.8045 22.4155 45.8045H20.8748V49.0672H22.3504ZM22.597 53.3522C23.4513 53.3522 24.1223 53.1924 24.61 52.8736C25.0977 52.554 25.3414 52.0491 25.3414 51.3583C25.3414 50.746 25.104 50.2909 24.629 49.9928C24.1548 49.6948 23.4776 49.5459 22.597 49.5459H20.8749V53.3522H22.597Z" fill="#185D78"/>
<path d="M27.348 52.2912C27.348 51.6094 27.6713 51.0865 28.3188 50.7244C28.9663 50.3623 29.9805 50.1031 31.3612 49.9478C31.3693 49.7147 31.3549 49.48 31.316 49.2425C31.2772 49.005 31.204 48.7936 31.0957 48.6076C30.9874 48.4225 30.8365 48.2707 30.6424 48.1543C30.4482 48.0378 30.1999 47.9799 29.8982 47.9799C29.4756 47.9799 29.0908 48.0621 28.7459 48.2256C28.4009 48.3899 28.1246 48.5498 27.9178 48.7051L27.6586 48.2779C27.7706 48.2003 27.907 48.1136 28.0659 48.0187C28.2257 47.9239 28.4027 47.8372 28.5969 47.7595C28.7911 47.6819 29.0051 47.615 29.2381 47.559C29.471 47.503 29.7122 47.475 29.9632 47.475C30.3343 47.475 30.645 47.5373 30.8952 47.6629C31.1454 47.7875 31.3485 47.9581 31.5039 48.1741C31.6591 48.3898 31.7694 48.6418 31.8335 48.9308C31.8985 49.2207 31.931 49.5332 31.931 49.87V53.8444H31.4515L31.3873 53.0416H31.3612C31.0415 53.2917 30.6984 53.5139 30.3317 53.7081C29.965 53.9032 29.5749 53.9997 29.1605 53.9997C28.9103 53.9997 28.6773 53.9654 28.4615 53.8959C28.2457 53.8272 28.0534 53.7234 27.8853 53.5852C27.7164 53.4479 27.5855 53.2709 27.4907 53.0551C27.395 52.8394 27.348 52.5847 27.348 52.2912ZM27.9432 52.265C27.9432 52.7139 28.0733 53.0335 28.3315 53.2232C28.5907 53.4129 28.8968 53.5077 29.2508 53.5077C29.6137 53.5077 29.9587 53.4219 30.2866 53.2495C30.6143 53.0761 30.9729 52.8259 31.3612 52.4981V50.3876C30.7227 50.4653 30.1854 50.5609 29.7493 50.6729C29.3131 50.7849 28.9618 50.9186 28.6945 51.0739C28.4262 51.2292 28.2348 51.4063 28.1183 51.605C28.0018 51.8036 27.9432 52.0239 27.9432 52.265Z" fill="#185D78"/>
<path d="M34.1581 44.5356H34.7279V53.094C34.7279 53.2322 34.7531 53.3334 34.8055 53.3974C34.857 53.4624 34.9221 53.495 34.9998 53.495C35.025 53.495 35.0531 53.495 35.0837 53.495C35.1136 53.495 35.1632 53.4869 35.2328 53.4688L35.3357 53.9348C35.2761 53.952 35.2156 53.9673 35.1551 53.9808C35.0946 53.9934 35.0169 53.9998 34.9222 53.9998C34.4128 53.9998 34.1581 53.6721 34.1581 53.0156V44.5356H34.1581Z" fill="#185D78"/>
<path d="M36.8772 52.2912C36.8772 51.6094 37.2005 51.0865 37.848 50.7244C38.4954 50.3623 39.5096 50.1031 40.8904 49.9478C40.8985 49.7147 40.8841 49.48 40.8452 49.2425C40.8064 49.005 40.7332 48.7936 40.6249 48.6076C40.5165 48.4225 40.3657 48.2707 40.1715 48.1543C39.9774 48.0378 39.7291 47.9799 39.4275 47.9799C39.0049 47.9799 38.6201 48.0621 38.2751 48.2256C37.9302 48.3899 37.6538 48.5498 37.447 48.7051L37.1878 48.2779C37.2998 48.2003 37.4361 48.1136 37.595 48.0187C37.7549 47.9239 37.9319 47.8372 38.1261 47.7595C38.3203 47.6819 38.5342 47.615 38.7672 47.559C39.0003 47.503 39.2414 47.475 39.4924 47.475C39.8635 47.475 40.1742 47.5373 40.4244 47.6629C40.6745 47.7875 40.8777 47.9581 41.033 48.1741C41.1884 48.3898 41.2986 48.6418 41.3627 48.9308C41.4277 49.2207 41.4603 49.5332 41.4603 49.87V53.8444H40.9807L40.9166 53.0416H40.8904C40.5708 53.2917 40.2276 53.5139 39.8609 53.7081C39.4942 53.9032 39.1041 53.9997 38.6897 53.9997C38.4395 53.9997 38.2065 53.9654 37.9907 53.8959C37.7749 53.8272 37.5825 53.7234 37.4145 53.5852C37.2457 53.4479 37.1147 53.2709 37.0199 53.0551C36.9241 52.8394 36.8772 52.5847 36.8772 52.2912ZM37.4723 52.265C37.4723 52.7139 37.6023 53.0335 37.8606 53.2232C38.1198 53.4129 38.4259 53.5077 38.7798 53.5077C39.1429 53.5077 39.4878 53.4219 39.8157 53.2495C40.1435 53.0761 40.502 52.8259 40.8903 52.4981V50.3876C40.2519 50.4653 39.7145 50.5609 39.2784 50.6729C38.8422 50.7849 38.4909 50.9186 38.2235 51.0739C37.9554 51.2292 37.7639 51.4063 37.6474 51.605C37.531 51.8036 37.4723 52.0239 37.4723 52.265Z" fill="#185D78"/>
<path d="M43.6872 47.6304H44.1794L44.2309 48.5885H44.2697C44.5894 48.2689 44.9172 48.0034 45.254 47.792C45.59 47.5807 45.9738 47.4751 46.4054 47.4751C47.0529 47.4751 47.528 47.6692 47.8296 48.0575C48.1321 48.4459 48.2829 49.0454 48.2829 49.8574V53.8444H47.713V49.935C47.713 49.2704 47.6037 48.78 47.3834 48.4648C47.163 48.1506 46.7982 47.9925 46.2889 47.9925C45.9177 47.9925 45.5818 48.0901 45.2792 48.2842C44.9776 48.4784 44.6363 48.7691 44.2569 49.1575V53.8444H43.6871V47.6304H43.6872Z" fill="#185D78"/>
<path d="M50.0566 50.7505C50.0566 50.2322 50.1343 49.7689 50.2905 49.3589C50.4458 48.9489 50.6527 48.6058 50.9119 48.3294C51.1701 48.0531 51.4699 47.8417 51.8113 47.6945C52.1517 47.5482 52.512 47.4751 52.8922 47.4751C53.3239 47.4751 53.6842 47.5528 53.9732 47.708C54.2622 47.8634 54.5105 48.0403 54.7173 48.239L54.3813 48.64C54.1827 48.4504 53.9623 48.2923 53.7211 48.1678C53.4791 48.0423 53.2073 47.9799 52.9047 47.9799C52.5859 47.9799 52.2897 48.0468 52.0179 48.1804C51.7461 48.3141 51.5086 48.5037 51.3063 48.7502C51.1031 48.9959 50.9433 49.2876 50.8267 49.6235C50.7102 49.9604 50.6524 50.3361 50.6524 50.7506C50.6524 51.1561 50.7065 51.5273 50.814 51.8641C50.9224 52.2 51.0733 52.49 51.2673 52.7311C51.4615 52.9732 51.699 53.1609 51.9789 53.2946C52.2598 53.4283 52.5686 53.4952 52.9045 53.4952C53.2324 53.4952 53.5367 53.4265 53.8176 53.2883C54.0983 53.1502 54.3459 52.9813 54.5616 52.7826L54.8596 53.1719C54.5923 53.413 54.2943 53.6117 53.9665 53.7671C53.6387 53.9224 53.2757 54 52.8792 54C52.4729 54 52.0999 53.9269 51.7594 53.7797C51.4181 53.6333 51.1201 53.4221 50.8654 53.1457C50.6108 52.8693 50.413 52.5307 50.2703 52.1288C50.128 51.7277 50.0566 51.268 50.0566 50.7505Z" fill="#185D78"/>
<path d="M55.6493 50.7506C55.6493 50.2413 55.7251 49.7834 55.8759 49.378C56.0267 48.9725 56.2299 48.6293 56.4845 48.3485C56.7392 48.0685 57.0281 47.8527 57.3524 47.7018C57.6757 47.5501 58.0098 47.4752 58.3558 47.4752C59.0981 47.4752 59.6806 47.7254 60.1031 48.2257C60.5258 48.7268 60.738 49.434 60.738 50.3488C60.738 50.4265 60.738 50.5041 60.738 50.5818C60.738 50.6595 60.729 50.7372 60.7118 50.8148H56.2326C56.2407 51.2031 56.3012 51.5644 56.4132 51.8958C56.5252 52.2281 56.6832 52.5135 56.8864 52.751C57.0886 52.9885 57.3325 53.1735 57.6179 53.3073C57.9024 53.4409 58.2211 53.5078 58.5752 53.5078C58.9121 53.5078 59.2164 53.4581 59.4882 53.3587C59.76 53.2603 60.0129 53.124 60.2459 52.9515L60.4788 53.3913C60.2277 53.5385 59.9541 53.6766 59.6561 53.8059C59.359 53.935 58.9815 54 58.5236 54C58.1262 54 57.7533 53.9269 57.4039 53.7797C57.0543 53.6334 56.75 53.4193 56.4908 53.1394C56.2326 52.8587 56.0267 52.5181 55.8758 52.1163C55.7251 51.715 55.6493 51.2599 55.6493 50.7506ZM60.1935 50.3749C60.1935 49.5721 60.03 48.9697 59.7023 48.5687C59.3735 48.1678 58.9293 47.9664 58.3684 47.9664C58.1011 47.9664 57.8465 48.0233 57.6044 48.1353C57.3634 48.2473 57.1448 48.4071 56.9506 48.6139C56.7564 48.8217 56.5967 49.0736 56.472 49.3716C56.3465 49.6696 56.267 50.0037 56.2327 50.3749H60.1935Z" fill="#185D78"/>
</svg>
