<svg width="132" height="48" viewBox="0 0 132 48" fill="none" xmlns="http://www.w3.org/2000/svg">
<path d="M76.2368 30.0737C76.6343 30.0737 76.9342 30.1489 77.1365 30.2993C77.3406 30.4497 77.4426 30.6717 77.4426 30.9653C77.4426 31.2267 77.3647 31.4443 77.209 31.6179C77.055 31.7916 76.8411 31.9053 76.5671 31.959V31.9805C76.7605 32.0306 76.91 32.1237 77.0156 32.2598C77.123 32.394 77.1768 32.5579 77.1768 32.7512C77.1768 33.1397 77.0425 33.445 76.7739 33.667C76.5054 33.889 76.1321 34 75.6541 34H74.3354L75.1653 30.0737H76.2368ZM75.4607 31.6958H75.9951C76.244 31.6958 76.4364 31.6421 76.5725 31.5347C76.7086 31.4255 76.7766 31.2715 76.7766 31.0728C76.7766 30.7648 76.577 30.6108 76.1777 30.6108H75.6917L75.4607 31.6958ZM75.082 33.4602H75.6809C75.9441 33.4602 76.15 33.3993 76.2986 33.2776C76.449 33.1558 76.5242 32.9822 76.5242 32.7566C76.5242 32.5811 76.4705 32.4478 76.363 32.3564C76.2556 32.2633 76.0981 32.2168 75.8904 32.2168H75.3533L75.082 33.4602ZM78.6538 32.4316L78.3235 34H77.687L78.5168 30.0737H79.4246C79.8238 30.0737 80.13 30.1588 80.343 30.3289C80.5561 30.4972 80.6626 30.7568 80.6626 31.1077C80.6626 31.4031 80.5847 31.6528 80.429 31.8569C80.275 32.0592 80.0449 32.2069 79.7388 32.3L80.4075 34H79.7092L79.1533 32.4316H78.6538ZM78.7693 31.8999H79.0996C79.404 31.8999 79.6313 31.8328 79.7817 31.6985C79.9321 31.5642 80.0073 31.3798 80.0073 31.1453C80.0073 30.9573 79.9545 30.8221 79.8489 30.7397C79.7432 30.6574 79.5794 30.6162 79.3574 30.6162H79.0378L78.7693 31.8999ZM80.9258 34L81.761 30.0737H82.3921L81.5569 34H80.9258ZM85.5718 34H84.8735L83.7725 30.8767H83.7563L83.7295 31.062C83.6865 31.3288 83.6543 31.5194 83.6328 31.634C83.6131 31.7468 83.4493 32.5355 83.1414 34H82.5532L83.3831 30.0737H84.1028L85.1743 33.1594H85.1931C85.2039 33.0627 85.2316 32.8909 85.2764 32.6438C85.3211 32.3949 85.3569 32.2123 85.3838 32.0959L85.8135 30.0737H86.4016L85.5718 34ZM88.4883 31.8704H89.8633L89.4417 33.8469C89.2411 33.9185 89.0451 33.9705 88.8535 34.0027C88.6637 34.0367 88.4507 34.0537 88.2144 34.0537C87.7471 34.0537 87.3845 33.923 87.1267 33.6616C86.8689 33.4002 86.74 33.0305 86.74 32.5525C86.74 32.0798 86.8313 31.6475 87.0139 31.2554C87.1983 30.8633 87.4579 30.5589 87.7927 30.3423C88.1293 30.1257 88.5116 30.0173 88.9395 30.0173C89.1382 30.0173 89.3289 30.0361 89.5115 30.0737C89.6941 30.1095 89.8776 30.1713 90.062 30.259L89.8203 30.8042C89.5088 30.6502 89.2098 30.5732 88.9233 30.5732C88.6405 30.5732 88.3835 30.6547 88.1526 30.8176C87.9216 30.9788 87.739 31.2097 87.6047 31.5105C87.4722 31.8095 87.406 32.1425 87.406 32.5095C87.406 32.8372 87.4857 33.0851 87.645 33.2534C87.8044 33.4217 88.0308 33.5059 88.3245 33.5059C88.5196 33.5059 88.7121 33.4763 88.9019 33.4172L89.1167 32.4209H88.3728L88.4883 31.8704ZM91.7539 34L92.5837 30.0737H93.2202L92.5059 33.4495H93.9534L93.8379 34H91.7539ZM94.4824 34L95.3176 30.0737H95.9487L95.1135 34H94.4824ZM98.0381 31.8704H99.4131L98.9915 33.8469C98.7909 33.9185 98.5949 33.9705 98.4033 34.0027C98.2135 34.0367 98.0005 34.0537 97.7642 34.0537C97.2969 34.0537 96.9343 33.923 96.6765 33.6616C96.4187 33.4002 96.2898 33.0305 96.2898 32.5525C96.2898 32.0798 96.3811 31.6475 96.5637 31.2554C96.7481 30.8633 97.0077 30.5589 97.3425 30.3423C97.6791 30.1257 98.0614 30.0173 98.4893 30.0173C98.688 30.0173 98.8787 30.0361 99.0613 30.0737C99.2439 30.1095 99.4274 30.1713 99.6118 30.259L99.3701 30.8042C99.0586 30.6502 98.7596 30.5732 98.4731 30.5732C98.1903 30.5732 97.9333 30.6547 97.7024 30.8176C97.4714 30.9788 97.2888 31.2097 97.1545 31.5105C97.0221 31.8095 96.9558 32.1425 96.9558 32.5095C96.9558 32.8372 97.0355 33.0851 97.1948 33.2534C97.3542 33.4217 97.5806 33.5059 97.8743 33.5059C98.0694 33.5059 98.2619 33.4763 98.4517 33.4172L98.6665 32.4209H97.9226L98.0381 31.8704ZM102.668 34H102.029L102.405 32.2302H100.885L100.511 34H99.875L100.705 30.0737H101.341L101 31.6797H102.52L102.861 30.0737H103.498L102.668 34ZM104.897 34H104.26L104.969 30.6243H103.952L104.073 30.0737H106.753L106.637 30.6243H105.614L104.897 34ZM109.156 34H108.52L109.229 30.6243H108.211L108.332 30.0737H111.012L110.896 30.6243H109.873L109.156 34ZM114.385 31.5239C114.385 32.0234 114.3 32.4683 114.13 32.8586C113.96 33.2489 113.725 33.5461 113.426 33.7502C113.129 33.9526 112.784 34.0537 112.39 34.0537C111.926 34.0537 111.567 33.9203 111.313 33.6536C111.059 33.385 110.931 33.0144 110.931 32.5417C110.931 32.0637 111.019 31.6278 111.195 31.2339C111.372 30.8382 111.614 30.5356 111.92 30.3262C112.226 30.1167 112.573 30.012 112.962 30.012C113.411 30.012 113.76 30.1453 114.009 30.4121C114.26 30.6789 114.385 31.0495 114.385 31.5239ZM112.911 30.5625C112.664 30.5625 112.44 30.6484 112.239 30.8203C112.039 30.9922 111.881 31.2312 111.767 31.5374C111.654 31.8417 111.597 32.1747 111.597 32.5364C111.597 32.8461 111.67 33.0851 111.815 33.2534C111.962 33.4217 112.166 33.5059 112.427 33.5059C112.674 33.5059 112.896 33.4208 113.093 33.2507C113.292 33.0789 113.446 32.8416 113.555 32.5391C113.666 32.2347 113.722 31.8981 113.722 31.5293C113.722 31.2249 113.651 30.9877 113.51 30.8176C113.368 30.6475 113.168 30.5625 112.911 30.5625ZM116.176 34L117.006 30.0737H117.643L116.928 33.4495H118.376L118.26 34H116.176ZM118.905 34L119.74 30.0737H120.371L119.536 34H118.905ZM121.174 34H120.538L121.367 30.0737H123.446L123.331 30.6243H121.888L121.631 31.8435H122.979L122.858 32.3887H121.515L121.174 34ZM125.377 34H123.293L124.123 30.0737H126.207L126.091 30.6243H124.644L124.418 31.6851H125.766L125.656 32.2302H124.303L124.045 33.4548H125.492L125.377 34Z" fill="white"/>
<path d="M6 23.6624V18.7695V13.8766V8.98371V4.09082H6.81823H7.63646H8.4547H9.27293V8.1867V12.2826V16.3784V20.4743H10.4083H11.5437H12.6791H13.8145L13.4832 21.2713L13.1519 22.0683L12.8206 22.8653L12.4893 23.6624H10.8658H9.24227H7.61878H6Z" fill="white"/>
<path d="M23.4553 23.4324L23.3468 22.9608L23.2383 22.4892L23.1299 22.0176L23.0214 21.546H22.9754H22.9294H22.8835H22.8375C22.7561 21.7134 22.6653 21.8714 22.5675 22.0211C22.4684 22.1708 22.3611 22.3111 22.2456 22.442C22.1301 22.5729 22.0051 22.6955 21.8719 22.8099C21.7386 22.9242 21.5972 23.028 21.4462 23.1247C21.2953 23.2202 21.1397 23.3039 20.9782 23.3746C20.8166 23.4465 20.6504 23.5055 20.4783 23.5538C20.3061 23.6022 20.1281 23.6375 19.9454 23.6611C19.7626 23.6847 19.574 23.6977 19.3806 23.6977C19.0505 23.6977 18.7404 23.6694 18.4516 23.6139C18.1615 23.5574 17.8915 23.4736 17.6428 23.3616C17.3928 23.2496 17.1641 23.1093 16.9542 22.9407C16.7444 22.7721 16.5557 22.5764 16.3859 22.3524C16.2162 22.1284 16.0688 21.8761 15.9414 21.5955C15.8141 21.3161 15.7092 21.0083 15.6243 20.6723C15.5394 20.3363 15.4757 19.9732 15.4333 19.5829C15.3909 19.1927 15.3696 18.7729 15.3696 18.3273V15.9292V13.5311V11.1306V8.73132H16.2574H17.1452H18.033H18.9208V10.9184V13.1054V15.2925V17.4796C18.9208 17.7472 18.9291 17.9995 18.9444 18.2353C18.9609 18.4711 18.9845 18.6892 19.0163 18.892C19.0481 19.0948 19.0882 19.2799 19.1354 19.4497C19.1837 19.6195 19.2391 19.7716 19.3028 19.9083C19.3665 20.0451 19.4396 20.1642 19.5233 20.2656C19.607 20.3681 19.7001 20.453 19.8039 20.5214C19.9076 20.5898 20.0208 20.6405 20.1434 20.6747C20.2661 20.7089 20.3993 20.7254 20.5419 20.7254C20.7306 20.7254 20.9074 20.7018 21.0701 20.6546C21.234 20.6075 21.3849 20.5367 21.5229 20.4412C21.6608 20.3457 21.7858 20.2278 21.899 20.0864C22.011 19.9449 22.1112 19.7786 22.1973 19.59C22.2845 19.4013 22.3611 19.1797 22.426 18.9262C22.4908 18.6727 22.5463 18.3874 22.5887 18.0691C22.6323 17.7507 22.6653 17.4006 22.6866 17.0186C22.7078 16.6366 22.7196 16.2216 22.7196 15.7759V14.0145V12.253V10.4928V8.73132H23.6074H24.4952H25.3829H26.2707V12.4063V16.0813V19.7562V23.4312H25.5681H24.8654H24.1627H23.4553V23.4324Z" fill="white"/>
<path d="M31.7425 15.9233L30.8252 14.1253L29.908 12.3273L28.9907 10.5293L28.0734 8.73132H28.9836H29.8938H30.804H31.7142L32.2023 9.85256L32.6904 10.9738L33.1785 12.095L33.6666 13.2163L34.1182 12.095L34.5698 10.9738L35.0213 9.85256L35.4729 8.73132H36.3772H37.2815H38.1858H39.0901L38.1669 10.5293L37.2437 12.3273L36.3206 14.1253L35.3974 15.9233L36.3607 17.8003L37.3239 19.6772L38.2872 21.5542L39.2504 23.4312H38.3332H37.4159H36.4986H35.5813L35.0602 22.2569L34.5391 21.0826L34.018 19.9083L33.4969 18.734L33.0123 19.9083L32.5277 21.0826L32.0431 22.2569L31.5586 23.4312H30.6448H29.7311H28.8162H27.9025L28.8622 21.5542L29.8219 19.6772L30.7816 17.8003L31.7425 15.9233Z" fill="white"/>
<path d="M42.0718 5.62341H43.2744H44.477H45.6795H46.8821C47.3325 5.62341 47.7605 5.64464 48.1649 5.68826C48.5693 5.73188 48.9501 5.79673 49.3085 5.88279C49.6669 5.97004 50.0018 6.07733 50.3142 6.2082C50.6267 6.33789 50.9155 6.48998 51.1808 6.6633C51.4461 6.83661 51.6795 7.03469 51.8788 7.2587C52.078 7.48271 52.2443 7.7303 52.3775 8.00383C52.5107 8.27736 52.6098 8.57565 52.677 8.89988C52.743 9.22292 52.7772 9.57191 52.7772 9.94566C52.7772 10.1803 52.7607 10.4066 52.7277 10.6259C52.6946 10.8452 52.6451 11.0563 52.5779 11.2603C52.5119 11.4642 52.4282 11.6611 52.3291 11.8498C52.2301 12.0384 52.1134 12.22 51.9802 12.3933C51.8469 12.5666 51.6984 12.7269 51.5333 12.8731C51.3683 13.0193 51.1879 13.1537 50.9898 13.274C50.7929 13.3943 50.5795 13.5015 50.3496 13.5959C50.1209 13.6902 49.8745 13.7704 49.6127 13.8387V13.8659V13.893V13.9201V13.9472C49.9417 13.9967 50.2529 14.0628 50.5477 14.1441C50.8412 14.2255 51.1183 14.3233 51.3777 14.4377C51.6371 14.552 51.8788 14.6817 52.1028 14.8268C52.3268 14.9729 52.5331 15.1345 52.7229 15.3125C52.9116 15.4905 53.0778 15.6851 53.2193 15.8961C53.3608 16.1072 53.4799 16.3347 53.5742 16.5788C53.6685 16.8228 53.7392 17.0834 53.7876 17.3616C53.8347 17.6387 53.8583 17.9334 53.8583 18.2435C53.8583 18.4593 53.8489 18.6691 53.8288 18.8719C53.8088 19.0747 53.7793 19.2704 53.7404 19.4603C53.7015 19.6501 53.652 19.8316 53.593 20.0085C53.5341 20.1842 53.4645 20.3528 53.3867 20.5155C53.3089 20.6782 53.2205 20.8326 53.1262 20.9812C53.0307 21.1297 52.9281 21.2712 52.8161 21.4068C52.7041 21.5424 52.585 21.6697 52.4577 21.7923C52.3303 21.9138 52.1947 22.0293 52.0509 22.1378C51.9071 22.2462 51.755 22.3465 51.5958 22.442C51.4366 22.5363 51.2704 22.6247 51.0971 22.7049C50.9238 22.7862 50.7434 22.8605 50.5547 22.9277C50.3673 22.9949 50.1716 23.0562 49.9688 23.1105C49.766 23.1647 49.5573 23.2119 49.3415 23.2531C49.127 23.2932 48.9053 23.3274 48.6778 23.3545C48.4502 23.3816 48.2168 23.4017 47.9763 23.4146C47.7357 23.4276 47.4905 23.4347 47.2382 23.4347H45.9484H44.6585H43.3687H42.0788V18.9828V14.5308V10.0753V5.62341H42.0718ZM46.394 13.4591C46.8538 13.4591 47.2806 13.4414 47.6744 13.4049C48.0682 13.3683 48.4302 13.3129 48.7591 13.2398C49.0881 13.1667 49.384 13.0747 49.6481 12.9651C49.9122 12.8555 50.1421 12.7269 50.3402 12.5807C50.5382 12.4345 50.7115 12.2695 50.8613 12.0856C51.0098 11.9016 51.1336 11.6988 51.2327 11.4772C51.3317 11.2555 51.406 11.015 51.4555 10.7545C51.505 10.4951 51.5298 10.2168 51.5298 9.91854C51.5298 9.62968 51.5038 9.36205 51.4508 9.11328C51.3977 8.86451 51.3187 8.63696 51.2126 8.42827C51.1065 8.21959 50.9745 8.03213 50.8153 7.86353C50.6561 7.69493 50.471 7.54755 50.2588 7.41904C50.0478 7.29053 49.8108 7.17852 49.5502 7.08185C49.2897 6.98517 49.0032 6.905 48.6919 6.84133C48.3806 6.77648 48.0458 6.72814 47.685 6.69631C47.3243 6.66448 46.9399 6.64797 46.5296 6.64797H45.7255H44.9214H44.1174H43.3133V8.35164V10.0541V11.7566V13.4591H44.0832H44.8531H45.6229H46.394ZM46.9092 22.4054C47.3549 22.4054 47.777 22.3842 48.1755 22.3429C48.574 22.3017 48.9478 22.2392 49.2979 22.1555C49.6481 22.0718 49.9747 21.968 50.2765 21.843C50.5783 21.7181 50.8577 21.573 51.1112 21.4056C51.3659 21.2382 51.5887 21.0472 51.7797 20.8326C51.9707 20.6169 52.1299 20.3775 52.2572 20.1146C52.3846 19.8505 52.4801 19.5628 52.5437 19.2516C52.6074 18.9391 52.6392 18.6031 52.6392 18.2423C52.6392 17.9228 52.6086 17.6234 52.5461 17.3451C52.4836 17.0669 52.3916 16.8087 52.2667 16.5705C52.1429 16.3335 51.9872 16.1154 51.8021 15.9197C51.6158 15.7228 51.3989 15.5471 51.1513 15.3915C50.9037 15.2359 50.6302 15.1003 50.3295 14.9836C50.0289 14.8668 49.7023 14.7702 49.3486 14.6923C48.9949 14.6145 48.6153 14.5568 48.2085 14.5179C47.8018 14.4789 47.3691 14.4601 46.9092 14.4601H46.0108H45.1124H44.214H43.3156V16.4467V18.4333V20.42V22.4066H44.214H45.1124H46.0108H46.9092V22.4054Z" fill="white"/>
<path d="M56.827 20.1902C56.827 19.8341 56.8695 19.4993 56.9532 19.1845C57.0381 18.8697 57.1642 18.5761 57.3328 18.3038C57.5014 18.0314 57.7125 17.7791 57.9659 17.548C58.2194 17.317 58.5154 17.1071 58.8526 16.9185C59.1909 16.7298 59.5765 16.5541 60.0103 16.3914C60.4442 16.2287 60.9253 16.0802 61.4546 15.9458C61.984 15.8114 62.5605 15.6888 63.1854 15.5803C63.8103 15.4718 64.4835 15.3775 65.2039 15.2961C65.2086 15.1747 65.2098 15.0533 65.2074 14.9306C65.2062 14.808 65.2015 14.6866 65.1933 14.564C65.185 14.4414 65.1744 14.3187 65.1603 14.1949C65.1461 14.0712 65.1296 13.9485 65.1084 13.8236C65.0872 13.6986 65.0636 13.5795 65.0341 13.4616C65.0046 13.3449 64.9716 13.2305 64.9327 13.1209C64.895 13.01 64.8514 12.9039 64.8042 12.8002C64.757 12.6964 64.7052 12.5962 64.6486 12.4995C64.592 12.4029 64.5295 12.3109 64.4623 12.2225C64.3951 12.134 64.322 12.0515 64.243 11.9725C64.164 11.8935 64.0803 11.8192 63.9895 11.7497C63.8999 11.6801 63.8032 11.6141 63.703 11.554C63.6016 11.4927 63.4931 11.4396 63.3776 11.3948C63.2621 11.3488 63.1394 11.3111 63.0097 11.2816C62.8801 11.251 62.7433 11.2286 62.6006 11.2132C62.4568 11.1979 62.3071 11.1908 62.1491 11.1908C61.9286 11.1908 61.7128 11.2014 61.5018 11.2227C61.2908 11.2439 61.0856 11.2757 60.8852 11.3193C60.6847 11.3618 60.489 11.416 60.2992 11.4797C60.1094 11.5434 59.9231 11.6188 59.7439 11.7037C59.5635 11.7898 59.3925 11.8747 59.231 11.9595C59.0695 12.0444 58.9162 12.1281 58.7712 12.2119C58.6262 12.2956 58.4918 12.3781 58.3656 12.4606C58.2395 12.5432 58.1228 12.6245 58.0143 12.7059L57.8787 12.483L57.7431 12.2602L57.6075 12.0374L57.4719 11.8145C57.5309 11.7744 57.5922 11.732 57.657 11.6896C57.7219 11.6471 57.7891 11.6023 57.861 11.5575C57.9318 11.5127 58.006 11.4667 58.0827 11.4184C58.1593 11.37 58.2395 11.3229 58.3232 11.2734C58.4069 11.2238 58.4918 11.1755 58.5802 11.1283C58.6686 11.0812 58.7582 11.0352 58.8502 10.9892C58.9422 10.9444 59.0377 10.8996 59.1343 10.8572C59.231 10.8147 59.3301 10.7723 59.4315 10.7322C59.5329 10.6921 59.6366 10.652 59.7427 10.6143C59.8488 10.5766 59.9585 10.54 60.0693 10.5058C60.1813 10.4705 60.2945 10.4374 60.4112 10.4056C60.5279 10.3738 60.647 10.3431 60.7684 10.3137C60.8899 10.2842 61.0125 10.2594 61.1363 10.237C61.2601 10.2146 61.3851 10.1969 61.5112 10.1828C61.6374 10.1686 61.7647 10.1568 61.8932 10.1498C62.0217 10.1427 62.1514 10.1392 62.2823 10.1392C62.4757 10.1392 62.6619 10.1474 62.84 10.1639C63.018 10.1804 63.1878 10.2052 63.3505 10.237C63.5132 10.27 63.6665 10.3101 63.8127 10.3596C63.9588 10.4092 64.098 10.4657 64.2277 10.5318C64.3585 10.5966 64.4823 10.6674 64.6014 10.7452C64.7193 10.8218 64.8313 10.9055 64.9374 10.9939C65.0435 11.0824 65.1426 11.1779 65.2369 11.2781C65.33 11.3795 65.4173 11.4856 65.4986 11.5988C65.58 11.712 65.6554 11.8287 65.7238 11.9513C65.7934 12.0739 65.8559 12.2001 65.9136 12.3321C65.9714 12.4642 66.0221 12.5998 66.0681 12.7412C66.1141 12.8827 66.153 13.0289 66.186 13.1786C66.2202 13.3296 66.2497 13.484 66.2756 13.6408C66.3015 13.7976 66.3228 13.958 66.3393 14.1219C66.3558 14.2857 66.3687 14.452 66.377 14.6206C66.3852 14.7903 66.39 14.9625 66.39 15.1382V17.212V19.2859V21.3598V23.4337H66.14H65.8901H65.6401H65.3902L65.3572 23.0151L65.3241 22.5966L65.2911 22.178L65.2581 21.7595H65.244H65.2298H65.2157H65.2015C65.0341 21.8903 64.8643 22.0165 64.6922 22.1403C64.5189 22.2641 64.3432 22.3832 64.164 22.4987C63.9848 22.6142 63.8032 22.7274 63.6181 22.8359C63.433 22.9444 63.2444 23.0493 63.0534 23.1507C62.8624 23.2521 62.6678 23.3417 62.4698 23.4172C62.2717 23.4926 62.0713 23.5563 61.8685 23.607C61.6657 23.6577 61.4582 23.6954 61.2483 23.7213C61.0384 23.7461 60.825 23.7591 60.6093 23.7591C60.4784 23.7591 60.3499 23.7543 60.2249 23.7461C60.1 23.7378 59.975 23.7237 59.8535 23.706C59.7321 23.6883 59.613 23.6659 59.4951 23.6388C59.3772 23.6117 59.2629 23.5799 59.1508 23.5433C59.0377 23.5079 58.9292 23.4667 58.8219 23.4219C58.7158 23.3771 58.612 23.3275 58.5118 23.2733C58.4116 23.2191 58.3149 23.1601 58.2206 23.0976C58.1263 23.034 58.0355 22.9668 57.9483 22.8948C57.8598 22.8229 57.7773 22.7463 57.6983 22.6649C57.6205 22.5824 57.5462 22.4963 57.4778 22.4032C57.4095 22.3101 57.3458 22.2134 57.2868 22.1108C57.2279 22.0082 57.1737 21.9009 57.1241 21.7878C57.0746 21.6746 57.031 21.5579 56.9933 21.4341C56.9555 21.3114 56.9249 21.1829 56.9001 21.0509C56.8754 20.9177 56.8565 20.7797 56.8447 20.637C56.8329 20.4909 56.827 20.3435 56.827 20.1902ZM58.0697 20.1348C58.0697 20.3694 58.0862 20.5864 58.1204 20.7868C58.1546 20.9872 58.2053 21.1711 58.2725 21.3374C58.3397 21.5036 58.4246 21.6534 58.526 21.7866C58.6274 21.9198 58.7453 22.0354 58.8797 22.1344C59.0153 22.2334 59.1567 22.3195 59.3041 22.3938C59.4515 22.468 59.6059 22.5294 59.7651 22.5789C59.9243 22.6284 60.0905 22.6649 60.2638 22.6897C60.4371 22.7145 60.6152 22.7263 60.7991 22.7263C60.9889 22.7263 61.1752 22.7156 61.3603 22.6921C61.5454 22.6685 61.727 22.6355 61.9074 22.5907C62.0878 22.5459 62.2658 22.4893 62.4415 22.4221C62.6171 22.3549 62.7904 22.2759 62.9614 22.1863C63.1324 22.0955 63.308 21.9953 63.4861 21.8844C63.6653 21.7736 63.848 21.6534 64.0355 21.5225C64.2229 21.3916 64.4139 21.2513 64.6085 21.1004C64.803 20.9495 65.0023 20.7891 65.2051 20.617V19.5158V18.4146V17.3134V16.2158C64.8714 16.2559 64.5519 16.2995 64.2453 16.3443C63.9388 16.3891 63.6452 16.4374 63.3646 16.4869C63.084 16.5365 62.8176 16.5883 62.5629 16.6426C62.3094 16.6968 62.0677 16.7534 61.8402 16.8112C61.6126 16.8701 61.3957 16.9314 61.1905 16.9951C60.9854 17.0588 60.7908 17.126 60.6069 17.1955C60.423 17.2651 60.2509 17.3382 60.0893 17.4136C59.9278 17.4891 59.7769 17.5669 59.6378 17.6483C59.4975 17.7296 59.3678 17.8133 59.2475 17.8994C59.1273 17.9855 59.0176 18.0762 58.9174 18.1682C58.8172 18.2602 58.7276 18.3557 58.6462 18.4535C58.5661 18.5514 58.4953 18.6528 58.434 18.7565C58.3727 18.8603 58.3197 18.9664 58.2748 19.076C58.23 19.1857 58.1911 19.2977 58.1605 19.4121C58.1298 19.5264 58.1074 19.6443 58.0921 19.7646C58.0768 19.8848 58.0697 20.0098 58.0697 20.1348Z" fill="white"/>
<path d="M71.0436 4H71.3407H71.6378H71.9349H72.232V8.46608V12.9322V17.3983V21.8643C72.232 21.9363 72.2356 22.0035 72.2415 22.0659C72.2485 22.1284 72.258 22.1862 72.2721 22.2393C72.2851 22.2923 72.3028 22.3395 72.3228 22.3831C72.3428 22.4267 72.3664 22.4644 72.3947 22.4975C72.4218 22.5317 72.4501 22.5611 72.4808 22.5871C72.5114 22.613 72.5433 22.6342 72.5775 22.6507C72.6117 22.6672 72.647 22.6802 72.6836 22.6885C72.7213 22.6967 72.7602 22.7014 72.8003 22.7014C72.8133 22.7014 72.8274 22.7014 72.8404 22.7014C72.8545 22.7014 72.8687 22.7014 72.8828 22.7014C72.897 22.7014 72.9123 22.7014 72.9276 22.7014C72.943 22.7014 72.9583 22.7014 72.9748 22.7014C72.9901 22.7014 73.009 22.7003 73.029 22.6979C73.0502 22.6955 73.0726 22.692 73.0986 22.6885C73.1245 22.6837 73.1528 22.6779 73.1847 22.672C73.2165 22.6661 73.2495 22.6566 73.286 22.6472L73.3403 22.8901L73.3945 23.1329L73.4487 23.3758L73.503 23.6187C73.4723 23.6281 73.4405 23.6364 73.4098 23.6446C73.378 23.6529 73.3474 23.6611 73.3155 23.6694C73.2837 23.6777 73.253 23.6847 73.2212 23.693C73.1894 23.7001 73.1575 23.7083 73.1269 23.7154C73.0951 23.7225 73.062 23.7272 73.0255 23.7331C72.9889 23.7378 72.9512 23.7425 72.9111 23.7449C72.871 23.7472 72.8274 23.7507 72.7826 23.7519C72.7378 23.7531 72.6906 23.7543 72.6411 23.7543C72.3759 23.7543 72.1424 23.7118 71.9432 23.6258C71.7439 23.5397 71.5777 23.4124 71.4444 23.2402C71.3112 23.0693 71.2122 22.8547 71.145 22.5977C71.0789 22.3407 71.0448 22.0412 71.0448 21.6981V17.2768V12.8508V8.42482V4H71.0436Z" fill="white"/>
<path d="M76.7192 20.1902C76.7192 19.8341 76.7617 19.4993 76.8454 19.1845C76.9303 18.8697 77.0564 18.5761 77.225 18.3038C77.3936 18.0314 77.6047 17.7791 77.8582 17.548C78.1117 17.317 78.4076 17.1071 78.7448 16.9185C79.0832 16.7298 79.4687 16.5541 79.9026 16.3914C80.3364 16.2287 80.8175 16.0802 81.3468 15.9458C81.8762 15.8114 82.4528 15.6888 83.0776 15.5803C83.7025 15.4718 84.3757 15.3775 85.0961 15.2961C85.1008 15.1747 85.102 15.0533 85.0996 14.9306C85.0985 14.808 85.0937 14.6866 85.0855 14.564C85.0772 14.4414 85.0666 14.3187 85.0525 14.1949C85.0383 14.0712 85.0218 13.9485 85.0006 13.8236C84.9794 13.6986 84.9558 13.5795 84.9263 13.4616C84.8968 13.3449 84.8638 13.2305 84.8249 13.1209C84.7872 13.01 84.7436 12.9039 84.6964 12.8002C84.6492 12.6964 84.5974 12.5962 84.5408 12.4995C84.4842 12.4029 84.4217 12.3109 84.3545 12.2225C84.2873 12.134 84.2142 12.0515 84.1352 11.9725C84.0562 11.8935 83.9725 11.8192 83.8817 11.7497C83.7921 11.6801 83.6954 11.6141 83.5952 11.554C83.4938 11.4927 83.3854 11.4396 83.2698 11.3948C83.1543 11.3488 83.0317 11.3111 82.902 11.2816C82.7723 11.251 82.6355 11.2286 82.4928 11.2132C82.3502 11.1979 82.1993 11.1908 82.0413 11.1908C81.8208 11.1908 81.6051 11.2014 81.394 11.2227C81.183 11.2439 80.9778 11.2757 80.7774 11.3193C80.577 11.3618 80.3812 11.416 80.1914 11.4797C80.0016 11.5434 79.8153 11.6188 79.6361 11.7037C79.4557 11.7898 79.2848 11.8747 79.1232 11.9595C78.9617 12.0444 78.8084 12.1281 78.6634 12.2119C78.5196 12.2956 78.384 12.3781 78.2578 12.4606C78.1317 12.5432 78.015 12.6245 77.9065 12.7059L77.7709 12.483L77.6353 12.2602L77.4997 12.0374L77.3642 11.8145C77.4231 11.7744 77.4844 11.732 77.5493 11.6896C77.6141 11.6471 77.6813 11.6023 77.7532 11.5575C77.824 11.5127 77.8982 11.4667 77.9749 11.4184C78.0515 11.37 78.1317 11.3229 78.2154 11.2734C78.2991 11.2238 78.384 11.1755 78.4724 11.1283C78.5608 11.0812 78.6505 11.0352 78.7424 10.9892C78.8344 10.9444 78.9299 10.8996 79.0266 10.8572C79.1232 10.8147 79.2223 10.7723 79.3237 10.7322C79.4251 10.6921 79.5288 10.652 79.6349 10.6143C79.741 10.5766 79.8507 10.54 79.9615 10.5058C80.0735 10.4705 80.1867 10.4374 80.3034 10.4056C80.4201 10.3738 80.5392 10.3431 80.6607 10.3137C80.7821 10.2842 80.9047 10.2594 81.0285 10.237C81.1523 10.2146 81.2773 10.1969 81.4034 10.1828C81.5296 10.1686 81.6569 10.1568 81.7854 10.1498C81.914 10.1427 82.0436 10.1392 82.1745 10.1392C82.3679 10.1392 82.5541 10.1474 82.7322 10.1639C82.9102 10.1804 83.08 10.2052 83.2427 10.237C83.4054 10.27 83.5587 10.3101 83.7049 10.3596C83.8511 10.4092 83.9902 10.4657 84.1199 10.5318C84.2507 10.5966 84.3745 10.6674 84.4936 10.7452C84.6115 10.8218 84.7235 10.9055 84.8296 10.9939C84.9357 11.0824 85.0348 11.1779 85.1291 11.2781C85.2222 11.3795 85.3095 11.4856 85.3908 11.5988C85.4722 11.712 85.5477 11.8287 85.616 11.9513C85.6856 12.0739 85.7481 12.2001 85.8059 12.3321C85.8636 12.4642 85.9143 12.5998 85.9603 12.7412C86.0063 12.8827 86.0452 13.0289 86.0782 13.1786C86.1124 13.3296 86.1419 13.484 86.1678 13.6408C86.1937 13.7976 86.215 13.958 86.2315 14.1219C86.248 14.2857 86.261 14.452 86.2692 14.6206C86.2775 14.7903 86.2822 14.9625 86.2822 15.1382V17.212V19.2859V21.3598V23.4337H86.0322H85.7858H85.5359H85.2859L85.2529 23.0151L85.2199 22.5966L85.1869 22.178L85.1539 21.7595H85.1397H85.1256H85.1114H85.0973C84.9299 21.8903 84.7601 22.0165 84.5879 22.1403C84.4146 22.2641 84.239 22.3832 84.0597 22.4987C83.8805 22.6142 83.699 22.7274 83.5127 22.8359C83.3264 22.9444 83.1389 23.0493 82.9479 23.1507C82.7569 23.2521 82.5624 23.3417 82.3643 23.4172C82.1663 23.4938 81.9658 23.5563 81.763 23.607C81.5602 23.6577 81.3527 23.6954 81.1429 23.7213C80.933 23.7461 80.7196 23.7591 80.5039 23.7591C80.373 23.7591 80.2445 23.7543 80.1195 23.7461C79.9933 23.7367 79.8695 23.7237 79.7481 23.706C79.6267 23.6883 79.5076 23.6659 79.3897 23.6388C79.2718 23.6117 79.1574 23.5799 79.0454 23.5433C78.9322 23.5079 78.8238 23.4667 78.7165 23.4219C78.6104 23.3771 78.5066 23.3275 78.4064 23.2733C78.3062 23.2191 78.2095 23.1601 78.1152 23.0976C78.0209 23.034 77.9301 22.9668 77.8428 22.8948C77.7544 22.8229 77.6719 22.7463 77.5929 22.6649C77.5151 22.5824 77.4408 22.4963 77.3724 22.4032C77.304 22.3112 77.2404 22.2134 77.1814 22.1108C77.1225 22.0082 77.0682 21.9009 77.0187 21.7878C76.9692 21.6746 76.9256 21.5579 76.8878 21.4341C76.8501 21.3114 76.8195 21.1829 76.7947 21.0509C76.7699 20.9188 76.7511 20.7797 76.7393 20.637C76.7251 20.4909 76.7192 20.3435 76.7192 20.1902ZM77.9619 20.1348C77.9619 20.3694 77.9784 20.5864 78.0126 20.7868C78.0468 20.9872 78.0975 21.1711 78.1647 21.3374C78.2319 21.5036 78.3168 21.6534 78.4182 21.7866C78.5196 21.9198 78.6375 22.0354 78.7719 22.1344C78.9075 22.2334 79.049 22.3195 79.1963 22.3938C79.3437 22.468 79.4982 22.5294 79.6573 22.5789C79.8165 22.6284 79.9827 22.6649 80.156 22.6897C80.3282 22.7145 80.5074 22.7263 80.6913 22.7263C80.8811 22.7263 81.0674 22.7156 81.2525 22.6921C81.4376 22.6685 81.6192 22.6355 81.7996 22.5907C81.98 22.5459 82.158 22.4893 82.3337 22.4221C82.5093 22.3549 82.6827 22.2759 82.8536 22.1863C83.0246 22.0955 83.2003 21.9953 83.3783 21.8844C83.5575 21.7736 83.7402 21.6534 83.9277 21.5225C84.1152 21.3916 84.3062 21.2513 84.5007 21.1004C84.6952 20.9495 84.8945 20.7891 85.0973 20.617V19.5158V18.4146V17.3134V16.2158C84.7636 16.2559 84.4441 16.2995 84.1376 16.3443C83.831 16.3891 83.5374 16.4374 83.2568 16.4869C82.9762 16.5365 82.7098 16.5883 82.4551 16.6426C82.2016 16.6968 81.9599 16.7534 81.7324 16.8112C81.5048 16.8701 81.2879 16.9314 81.0828 16.9951C80.8776 17.0588 80.6831 17.126 80.4991 17.1955C80.3152 17.2651 80.1431 17.3382 79.9816 17.4136C79.82 17.4891 79.6691 17.5669 79.53 17.6483C79.3897 17.7296 79.26 17.8133 79.1397 17.8994C79.0195 17.9866 78.9098 18.0762 78.8096 18.1682C78.7094 18.2602 78.6198 18.3557 78.5384 18.4535C78.4571 18.5514 78.3875 18.6528 78.3262 18.7565C78.2649 18.8603 78.2119 18.9664 78.1671 19.076C78.1223 19.1857 78.0834 19.2977 78.0527 19.4121C78.022 19.5264 77.9996 19.6443 77.9843 19.7646C77.969 19.886 77.9619 20.0098 77.9619 20.1348Z" fill="white"/>
<path d="M90.9358 10.461H91.1928H91.4498H91.7069H91.9639L91.991 10.9609L92.0181 11.4608L92.0452 11.9607L92.0724 12.4606H92.0924H92.1124H92.1325H92.1525C92.32 12.2932 92.4874 12.134 92.656 11.9807C92.8246 11.8275 92.9955 11.6824 93.1665 11.5433C93.3374 11.4042 93.5096 11.2733 93.6829 11.1483C93.8562 11.0234 94.0307 10.9066 94.2064 10.7958C94.382 10.685 94.5636 10.5895 94.7511 10.5058C94.9385 10.4221 95.1331 10.3537 95.3335 10.2995C95.5339 10.244 95.7403 10.2028 95.9537 10.1757C96.1659 10.1485 96.3852 10.1344 96.6104 10.1344C96.9487 10.1344 97.2635 10.1592 97.5571 10.2099C97.8495 10.2606 98.1207 10.336 98.3683 10.4374C98.6159 10.5388 98.841 10.665 99.0438 10.817C99.2466 10.9691 99.427 11.146 99.5838 11.3488C99.7418 11.5516 99.8798 11.7815 99.9977 12.0397C100.116 12.2979 100.215 12.5832 100.294 12.8956C100.373 13.2081 100.432 13.5488 100.47 13.9178C100.509 14.2857 100.529 14.6818 100.529 15.1063V17.1872V19.2682V21.3491V23.4301H100.232H99.9352H99.6381H99.3409V21.3904V19.3507V17.311V15.2713C99.3409 14.9247 99.3268 14.6005 99.2985 14.2987C99.2702 13.9968 99.2266 13.7186 99.17 13.4627C99.1134 13.2069 99.0415 12.9735 98.9554 12.7636C98.8693 12.5537 98.7691 12.3663 98.6536 12.2012C98.538 12.0373 98.4048 11.8935 98.2515 11.7709C98.0983 11.6482 97.9273 11.5445 97.7363 11.4631C97.5465 11.3806 97.3366 11.3193 97.1091 11.278C96.8815 11.2368 96.6328 11.2167 96.3675 11.2167C96.1741 11.2167 95.9843 11.2297 95.8004 11.2545C95.6153 11.2804 95.4361 11.3181 95.2604 11.3688C95.0847 11.4195 94.9138 11.4832 94.7475 11.5586C94.5813 11.6353 94.4186 11.7237 94.2606 11.8251C94.1026 11.9265 93.9411 12.0409 93.7725 12.167C93.6039 12.2932 93.4318 12.4323 93.2537 12.5844C93.0757 12.7365 92.8929 12.9004 92.7043 13.0784C92.5168 13.2552 92.3235 13.4451 92.1254 13.6478V16.0943V18.5407V20.9872V23.4336H91.8283H91.5312H91.2329H90.9358V20.189V16.9467V13.7033V10.461Z" fill="white"/>
<path d="M104.231 16.9738C104.231 16.7038 104.242 16.4397 104.262 16.1839C104.282 15.928 104.313 15.6781 104.354 15.4364C104.395 15.1947 104.446 14.9589 104.506 14.7313C104.567 14.5038 104.638 14.2821 104.72 14.0687C104.801 13.8553 104.888 13.649 104.982 13.4533C105.077 13.2564 105.178 13.0689 105.287 12.8897C105.395 12.7105 105.509 12.5407 105.631 12.378C105.752 12.2153 105.881 12.0632 106.016 11.9194C106.151 11.7755 106.291 11.64 106.437 11.5126C106.584 11.3853 106.734 11.2662 106.89 11.1566C107.047 11.0457 107.208 10.9443 107.376 10.85C107.543 10.7569 107.715 10.6708 107.895 10.5942C108.073 10.5175 108.253 10.4515 108.436 10.3937C108.619 10.336 108.804 10.2888 108.992 10.2511C109.18 10.2134 109.371 10.1839 109.564 10.165C109.757 10.1462 109.953 10.1367 110.151 10.1367C110.376 10.1367 110.592 10.1473 110.8 10.1674C111.007 10.1874 111.204 10.2181 111.392 10.2582C111.579 10.2982 111.758 10.3489 111.928 10.4102C112.098 10.4716 112.258 10.5423 112.408 10.6225C112.559 10.7038 112.704 10.7875 112.844 10.8736C112.984 10.9608 113.119 11.0504 113.249 11.1424C113.378 11.2344 113.502 11.3299 113.621 11.4277C113.74 11.5256 113.853 11.627 113.961 11.7307L113.785 11.9394L113.609 12.1481L113.434 12.3568L113.258 12.5655C113.154 12.4664 113.048 12.3721 112.938 12.2813C112.829 12.1906 112.717 12.1045 112.602 12.022C112.488 11.9394 112.37 11.8616 112.25 11.7885C112.13 11.7142 112.006 11.6458 111.881 11.5798C111.755 11.5138 111.624 11.4572 111.491 11.4077C111.356 11.3582 111.218 11.3181 111.077 11.2851C110.935 11.2521 110.789 11.2285 110.639 11.212C110.49 11.1955 110.335 11.1872 110.177 11.1872C110.011 11.1872 109.847 11.1955 109.687 11.2132C109.526 11.2308 109.368 11.2568 109.215 11.2921C109.061 11.3275 108.91 11.3711 108.761 11.423C108.613 11.4749 108.468 11.5362 108.326 11.6058C108.185 11.6753 108.047 11.7531 107.913 11.8368C107.78 11.9217 107.652 12.0125 107.528 12.1116C107.404 12.2106 107.285 12.3167 107.17 12.4311C107.055 12.5454 106.944 12.6657 106.839 12.7954C106.733 12.9239 106.633 13.0583 106.539 13.1974C106.444 13.3377 106.355 13.4839 106.271 13.636C106.187 13.7881 106.11 13.9461 106.038 14.11C105.966 14.2739 105.899 14.4436 105.838 14.6181C105.777 14.7938 105.724 14.9754 105.679 15.1605C105.633 15.3468 105.596 15.5378 105.566 15.7335C105.535 15.9292 105.513 16.1308 105.498 16.3371C105.482 16.5434 105.475 16.7545 105.475 16.9714C105.475 17.1825 105.482 17.39 105.497 17.5928C105.511 17.7956 105.532 17.9936 105.56 18.187C105.588 18.3803 105.624 18.5702 105.665 18.7541C105.708 18.9392 105.756 19.1196 105.812 19.2953C105.869 19.4709 105.932 19.6395 105.999 19.8034C106.066 19.9661 106.139 20.1241 106.218 20.275C106.297 20.4259 106.381 20.5709 106.472 20.7089C106.561 20.8468 106.658 20.9801 106.758 21.105C106.859 21.2312 106.967 21.3503 107.079 21.4623C107.192 21.5743 107.31 21.6792 107.434 21.7771C107.557 21.8749 107.687 21.9657 107.822 22.0494C107.956 22.1331 108.097 22.2098 108.244 22.2793C108.39 22.3489 108.541 22.4102 108.694 22.4621C108.847 22.5139 109.005 22.5576 109.167 22.5929C109.328 22.6283 109.492 22.6542 109.661 22.6719C109.829 22.6896 110 22.6979 110.176 22.6979C110.347 22.6979 110.516 22.6884 110.681 22.6708C110.846 22.6531 111.007 22.626 111.166 22.5894C111.326 22.554 111.481 22.5081 111.633 22.455C111.787 22.4008 111.935 22.3383 112.082 22.2664C112.229 22.1944 112.371 22.1178 112.509 22.0376C112.647 21.9575 112.78 21.8737 112.91 21.7853C113.04 21.6969 113.165 21.6049 113.285 21.5094C113.406 21.4139 113.523 21.3137 113.635 21.21L113.791 21.4128L113.946 21.6155L114.102 21.8183L114.258 22.0211C114.119 22.1473 113.975 22.2675 113.827 22.3819C113.68 22.4963 113.528 22.6059 113.373 22.7097C113.218 22.8134 113.059 22.9113 112.896 23.0032C112.733 23.0952 112.566 23.1824 112.395 23.2638C112.224 23.3451 112.048 23.4159 111.868 23.476C111.687 23.5373 111.502 23.588 111.314 23.6281C111.125 23.6682 110.931 23.6989 110.732 23.7189C110.534 23.7389 110.332 23.7495 110.125 23.7495C109.913 23.7495 109.706 23.7401 109.502 23.7213C109.298 23.7024 109.1 23.6729 108.904 23.6352C108.708 23.5975 108.518 23.5491 108.332 23.4913C108.146 23.4336 107.964 23.3664 107.786 23.2897C107.608 23.2131 107.436 23.1282 107.269 23.0351C107.101 22.9419 106.941 22.8405 106.785 22.7297C106.63 22.6189 106.48 22.501 106.336 22.3736C106.192 22.2463 106.053 22.1107 105.92 21.9669C105.787 21.823 105.662 21.6698 105.544 21.5094C105.426 21.3491 105.315 21.1805 105.211 21.0036C105.107 20.8268 105.012 20.6417 104.922 20.4483C104.834 20.255 104.751 20.0534 104.677 19.8435C104.603 19.6348 104.538 19.4179 104.481 19.1927C104.426 18.9687 104.379 18.7364 104.342 18.4959C104.305 18.2565 104.277 18.009 104.259 17.7543C104.241 17.5067 104.231 17.2438 104.231 16.9738Z" fill="white"/>
<path d="M115.907 16.9738C115.907 16.7085 115.917 16.4491 115.937 16.1968C115.957 15.9445 115.986 15.6993 116.025 15.4599C116.064 15.2206 116.113 14.9895 116.172 14.7643C116.231 14.5391 116.301 14.321 116.379 14.1088C116.458 13.8978 116.543 13.6938 116.636 13.4981C116.728 13.3024 116.827 13.1161 116.933 12.9369C117.039 12.7577 117.151 12.5867 117.271 12.424C117.39 12.2613 117.516 12.1068 117.65 11.9595C117.783 11.8133 117.92 11.6753 118.062 11.5468C118.204 11.4171 118.351 11.2969 118.502 11.1837C118.653 11.0717 118.809 10.9667 118.969 10.8712C119.129 10.7757 119.293 10.6885 119.463 10.6095C119.632 10.5305 119.801 10.4609 119.974 10.402C120.146 10.343 120.318 10.2935 120.492 10.2546C120.667 10.2157 120.842 10.1862 121.02 10.1662C121.199 10.1462 121.377 10.1367 121.557 10.1367C121.945 10.1367 122.31 10.1697 122.657 10.2346C123.002 10.2994 123.328 10.3973 123.632 10.5281C123.936 10.659 124.219 10.8217 124.481 11.0174C124.743 11.2132 124.984 11.4419 125.205 11.7024C125.425 11.9642 125.619 12.2519 125.784 12.5678C125.949 12.8826 126.088 13.2257 126.197 13.5947C126.308 13.9638 126.391 14.3599 126.446 14.7832C126.502 15.2065 126.529 15.6568 126.529 16.1343C126.529 16.1744 126.529 16.2157 126.529 16.2558C126.529 16.2959 126.529 16.3371 126.529 16.3772C126.529 16.4173 126.529 16.4586 126.529 16.4986C126.529 16.5387 126.529 16.58 126.529 16.6201C126.529 16.6602 126.528 16.7014 126.525 16.7415C126.523 16.7816 126.519 16.8229 126.515 16.863C126.51 16.903 126.504 16.9443 126.497 16.9844C126.49 17.0245 126.483 17.0657 126.473 17.1058H124.135H121.797H119.459H117.121C117.126 17.3086 117.137 17.5079 117.154 17.7036C117.172 17.8993 117.197 18.0915 117.229 18.2789C117.261 18.4676 117.298 18.6515 117.343 18.8319C117.388 19.0123 117.44 19.1891 117.499 19.3625C117.558 19.5358 117.621 19.7032 117.692 19.8647C117.763 20.0262 117.839 20.1807 117.921 20.3292C118.003 20.4778 118.092 20.6205 118.186 20.7572C118.28 20.894 118.381 21.0237 118.487 21.1475C118.593 21.2713 118.704 21.388 118.819 21.4988C118.936 21.6096 119.057 21.7122 119.185 21.8089C119.312 21.9056 119.444 21.9952 119.583 22.0789C119.721 22.1626 119.865 22.2381 120.014 22.3088C120.162 22.3784 120.315 22.4397 120.472 22.4915C120.63 22.5434 120.792 22.587 120.958 22.6224C121.124 22.6578 121.295 22.6837 121.471 22.7014C121.647 22.7191 121.827 22.7273 122.011 22.7273C122.187 22.7273 122.359 22.7215 122.526 22.7085C122.693 22.6955 122.856 22.6767 123.015 22.6507C123.175 22.6248 123.329 22.5929 123.479 22.554C123.628 22.5151 123.775 22.4703 123.917 22.4184C124.059 22.3666 124.199 22.3112 124.336 22.2498C124.473 22.1885 124.607 22.1225 124.739 22.0518C124.871 21.981 125.001 21.9056 125.127 21.8242C125.253 21.7429 125.378 21.658 125.5 21.5684L125.621 21.7983L125.742 22.0282L125.864 22.2581L125.985 22.488C125.854 22.5646 125.72 22.6401 125.583 22.7144C125.446 22.7887 125.306 22.8618 125.164 22.9337C125.021 23.0056 124.875 23.0763 124.725 23.1459C124.575 23.2155 124.423 23.2838 124.267 23.351C124.112 23.4182 123.947 23.4772 123.771 23.5279C123.595 23.5786 123.408 23.621 123.211 23.654C123.014 23.6871 122.807 23.713 122.589 23.7307C122.37 23.7472 122.142 23.7566 121.904 23.7566C121.696 23.7566 121.492 23.7472 121.29 23.7283C121.089 23.7095 120.892 23.68 120.696 23.6423C120.501 23.6045 120.31 23.5562 120.121 23.4984C119.932 23.4406 119.747 23.3734 119.564 23.2968C119.382 23.2202 119.206 23.1353 119.035 23.041C118.864 22.9466 118.7 22.8441 118.541 22.7332C118.382 22.6224 118.23 22.5022 118.082 22.3725C117.935 22.244 117.795 22.106 117.659 21.9598C117.525 21.8136 117.396 21.6592 117.275 21.4965C117.153 21.3338 117.04 21.164 116.933 20.986C116.826 20.8079 116.725 20.6216 116.632 20.4283C116.539 20.2349 116.453 20.0333 116.375 19.8235C116.296 19.6148 116.228 19.3978 116.169 19.175C116.11 18.9522 116.06 18.7211 116.021 18.4841C115.983 18.2471 115.952 18.0019 115.933 17.7508C115.917 17.4984 115.907 17.2391 115.907 16.9738ZM125.393 16.1897C125.393 15.7712 125.372 15.3774 125.33 15.0107C125.287 14.6441 125.222 14.3033 125.138 13.9897C125.053 13.6749 124.945 13.3872 124.817 13.1255C124.688 12.8638 124.539 12.628 124.368 12.4193C124.196 12.2106 124.009 12.0267 123.808 11.8699C123.606 11.7131 123.389 11.5822 123.157 11.4773C122.925 11.3723 122.678 11.2933 122.415 11.2414C122.153 11.1884 121.875 11.1625 121.583 11.1625C121.444 11.1625 121.306 11.1695 121.169 11.1849C121.032 11.2002 120.898 11.2214 120.766 11.2509C120.633 11.2804 120.502 11.3169 120.372 11.3605C120.242 11.4042 120.115 11.456 119.988 11.5138C119.861 11.5728 119.739 11.6364 119.619 11.7083C119.498 11.7803 119.382 11.8569 119.268 11.9394C119.155 12.022 119.044 12.1127 118.936 12.2082C118.829 12.3037 118.724 12.4051 118.622 12.5136C118.521 12.6221 118.424 12.7364 118.332 12.8567C118.24 12.9769 118.152 13.1031 118.069 13.234C117.986 13.366 117.908 13.5028 117.834 13.6466C117.759 13.7905 117.69 13.9402 117.625 14.0958C117.559 14.2515 117.5 14.4118 117.447 14.5769C117.394 14.7419 117.346 14.9117 117.304 15.0862C117.263 15.2607 117.226 15.4399 117.197 15.6238C117.167 15.8077 117.144 15.9964 117.125 16.1909H119.192H121.259H123.325H125.393V16.1897Z" fill="white"/>
</svg>
