<svg width="132" height="30" viewBox="0 0 132 30" fill="none" xmlns="http://www.w3.org/2000/svg">
<rect width="132" height="30" fill="white"/>
<path d="M6 24.6624V19.7695V14.8766V9.98371V5.09082H6.81823H7.63646H8.4547H9.27293V9.1867V13.2826V17.3784V21.4743H10.4083H11.5437H12.6791H13.8145L13.4832 22.2713L13.1519 23.0683L12.8206 23.8653L12.4893 24.6624H10.8658H9.24227H7.61878H6Z" fill="black"/>
<path d="M23.4552 24.4324L23.3468 23.9608L23.2383 23.4892L23.1298 23.0176L23.0213 22.546H22.9754H22.9294H22.8834H22.8374C22.7561 22.7134 22.6653 22.8714 22.5674 23.0211C22.4684 23.1708 22.3611 23.3111 22.2456 23.442C22.13 23.5729 22.005 23.6955 21.8718 23.8099C21.7386 23.9242 21.5971 24.028 21.4462 24.1247C21.2953 24.2202 21.1396 24.3039 20.9781 24.3746C20.8166 24.4465 20.6504 24.5055 20.4782 24.5538C20.3061 24.6022 20.1281 24.6375 19.9453 24.6611C19.7626 24.6847 19.5739 24.6977 19.3806 24.6977C19.0504 24.6977 18.7404 24.6694 18.4515 24.6139C18.1615 24.5574 17.8915 24.4736 17.6427 24.3616C17.3928 24.2496 17.164 24.1093 16.9542 23.9407C16.7443 23.7721 16.5557 23.5764 16.3859 23.3524C16.2161 23.1284 16.0687 22.8761 15.9414 22.5955C15.8141 22.3161 15.7091 22.0083 15.6243 21.6723C15.5394 21.3363 15.4757 20.9732 15.4333 20.5829C15.3908 20.1927 15.3696 19.7729 15.3696 19.3273V16.9292V14.5311V12.1306V9.73132H16.2574H17.1452H18.033H18.9208V11.9184V14.1054V16.2925V18.4796C18.9208 18.7472 18.929 18.9995 18.9443 19.2353C18.9608 19.4711 18.9844 19.6892 19.0163 19.892C19.0481 20.0948 19.0882 20.2799 19.1353 20.4497C19.1837 20.6195 19.2391 20.7716 19.3028 20.9083C19.3664 21.0451 19.4395 21.1642 19.5232 21.2656C19.6069 21.3681 19.7001 21.453 19.8038 21.5214C19.9076 21.5898 20.0208 21.6405 20.1434 21.6747C20.266 21.7089 20.3992 21.7254 20.5419 21.7254C20.7305 21.7254 20.9074 21.7018 21.0701 21.6546C21.234 21.6075 21.3849 21.5367 21.5228 21.4412C21.6608 21.3457 21.7857 21.2278 21.8989 21.0864C22.0109 20.9449 22.1112 20.7786 22.1972 20.59C22.2845 20.4013 22.3611 20.1797 22.4259 19.9262C22.4908 19.6727 22.5462 19.3874 22.5887 19.0691C22.6323 18.7507 22.6653 18.4006 22.6865 18.0186C22.7077 17.6366 22.7195 17.2216 22.7195 16.7759V15.0145V13.253V11.4928V9.73132H23.6073H24.4951H25.3829H26.2707V13.4063V17.0813V20.7562V24.4312H25.568H24.8653H24.1626H23.4552V24.4324Z" fill="black"/>
<path d="M31.7425 16.9233L30.8252 15.1253L29.9079 13.3273L28.9907 11.5293L28.0734 9.73132H28.9836H29.8938H30.804H31.7142L32.2023 10.8526L32.6904 11.9738L33.1785 13.095L33.6666 14.2163L34.1182 13.095L34.5697 11.9738L35.0213 10.8526L35.4728 9.73132H36.3771H37.2814H38.1857H39.09L38.1669 11.5293L37.2437 13.3273L36.3206 15.1253L35.3974 16.9233L36.3606 18.8003L37.3239 20.6772L38.2871 22.5542L39.2504 24.4312H38.3331H37.4159H36.4986H35.5813L35.0602 23.2569L34.5391 22.0826L34.018 20.9083L33.4968 19.734L33.0123 20.9083L32.5277 22.0826L32.0431 23.2569L31.5585 24.4312H30.6448H29.7311H28.8162H27.9024L28.8621 22.5542L29.8219 20.6772L30.7816 18.8003L31.7425 16.9233Z" fill="black"/>
<path d="M42.0718 6.62341H43.2743H44.4769H45.6795H46.8821C47.3325 6.62341 47.7605 6.64464 48.1649 6.68826C48.5693 6.73188 48.9501 6.79673 49.3085 6.88279C49.6669 6.97004 50.0018 7.07733 50.3142 7.2082C50.6266 7.33789 50.9155 7.48998 51.1808 7.6633C51.4461 7.83661 51.6795 8.03469 51.8787 8.2587C52.078 8.48271 52.2442 8.7303 52.3775 9.00383C52.5107 9.27736 52.6097 9.57565 52.6769 9.89988C52.743 10.2229 52.7772 10.5719 52.7772 10.9457C52.7772 11.1803 52.7606 11.4066 52.7276 11.6259C52.6946 11.8452 52.6451 12.0563 52.5779 12.2603C52.5119 12.4642 52.4282 12.6611 52.3291 12.8498C52.2301 13.0384 52.1134 13.22 51.9801 13.3933C51.8469 13.5666 51.6984 13.7269 51.5333 13.8731C51.3682 14.0193 51.1879 14.1537 50.9898 14.274C50.7929 14.3943 50.5795 14.5015 50.3496 14.5959C50.1209 14.6902 49.8744 14.7704 49.6127 14.8387V14.8659V14.893V14.9201V14.9472C49.9416 14.9967 50.2529 15.0628 50.5477 15.1441C50.8412 15.2255 51.1183 15.3233 51.3777 15.4377C51.6371 15.552 51.8788 15.6817 52.1028 15.8268C52.3268 15.9729 52.5331 16.1345 52.7229 16.3125C52.9116 16.4905 53.0778 16.6851 53.2193 16.8961C53.3608 17.1072 53.4798 17.3347 53.5742 17.5788C53.6685 17.8228 53.7392 18.0834 53.7876 18.3616C53.8347 18.6387 53.8583 18.9334 53.8583 19.2435C53.8583 19.4593 53.8489 19.6691 53.8288 19.8719C53.8088 20.0747 53.7793 20.2704 53.7404 20.4603C53.7015 20.6501 53.652 20.8316 53.593 21.0085C53.5341 21.1842 53.4645 21.3528 53.3867 21.5155C53.3089 21.6782 53.2205 21.8326 53.1261 21.9812C53.0306 22.1297 52.9281 22.2712 52.8161 22.4068C52.7041 22.5424 52.585 22.6697 52.4576 22.7923C52.3303 22.9138 52.1947 23.0293 52.0509 23.1378C51.907 23.2462 51.755 23.3465 51.5958 23.442C51.4366 23.5363 51.2704 23.6247 51.0971 23.7049C50.9238 23.7862 50.7434 23.8605 50.5547 23.9277C50.3673 23.9949 50.1715 24.0562 49.9688 24.1105C49.766 24.1647 49.5573 24.2119 49.3415 24.2531C49.1269 24.2932 48.9053 24.3274 48.6777 24.3545C48.4502 24.3816 48.2168 24.4017 47.9762 24.4146C47.7357 24.4276 47.4905 24.4347 47.2382 24.4347H45.9483H44.6585H43.3687H42.0788V19.9828V15.5308V11.0753V6.62341H42.0718ZM46.394 14.4591C46.8538 14.4591 47.2806 14.4414 47.6744 14.4049C48.0682 14.3683 48.4302 14.3129 48.7591 14.2398C49.088 14.1667 49.384 14.0747 49.6481 13.9651C49.9122 13.8555 50.1421 13.7269 50.3401 13.5807C50.5382 13.4345 50.7115 13.2695 50.8613 13.0856C51.0098 12.9016 51.1336 12.6988 51.2327 12.4772C51.3317 12.2555 51.406 12.015 51.4555 11.7545C51.505 11.4951 51.5298 11.2168 51.5298 10.9185C51.5298 10.6297 51.5038 10.362 51.4508 10.1133C51.3977 9.86451 51.3187 9.63696 51.2126 9.42827C51.1065 9.21959 50.9745 9.03213 50.8153 8.86353C50.6561 8.69493 50.471 8.54755 50.2588 8.41904C50.0477 8.29053 49.8108 8.17852 49.5502 8.08185C49.2896 7.98517 49.0031 7.905 48.6919 7.84133C48.3806 7.77648 48.0458 7.72814 47.685 7.69631C47.3242 7.66448 46.9399 7.64797 46.5296 7.64797H45.7255H44.9214H44.1173H43.3133V9.35164V11.0541V12.7566V14.4591H44.0831H44.853H45.6229H46.394ZM46.9092 23.4054C47.3549 23.4054 47.777 23.3842 48.1755 23.3429C48.574 23.3017 48.9477 23.2392 49.2979 23.1555C49.6481 23.0718 49.9747 22.968 50.2765 22.843C50.5783 22.7181 50.8577 22.573 51.1112 22.4056C51.3659 22.2382 51.5887 22.0472 51.7797 21.8326C51.9707 21.6169 52.1299 21.3775 52.2572 21.1146C52.3845 20.8505 52.48 20.5628 52.5437 20.2516C52.6074 19.9391 52.6392 19.6031 52.6392 19.2423C52.6392 18.9228 52.6086 18.6234 52.5461 18.3451C52.4836 18.0669 52.3916 17.8087 52.2666 17.5705C52.1429 17.3335 51.9872 17.1154 51.8021 16.9197C51.6158 16.7228 51.3989 16.5471 51.1513 16.3915C50.9037 16.2359 50.6302 16.1003 50.3295 15.9836C50.0289 15.8668 49.7023 15.7702 49.3486 15.6923C48.9949 15.6145 48.6153 15.5568 48.2085 15.5179C47.8017 15.4789 47.369 15.4601 46.9092 15.4601H46.0108H45.1124H44.214H43.3156V17.4467V19.4333V21.42V23.4066H44.214H45.1124H46.0108H46.9092V23.4054Z" fill="black"/>
<path d="M56.827 21.1902C56.827 20.8341 56.8695 20.4993 56.9532 20.1845C57.0381 19.8697 57.1642 19.5761 57.3328 19.3038C57.5014 19.0314 57.7125 18.7791 57.966 18.548C58.2195 18.317 58.5154 18.1071 58.8526 17.9185C59.191 17.7298 59.5765 17.5541 60.0104 17.3914C60.4442 17.2287 60.9253 17.0802 61.4547 16.9458C61.984 16.8114 62.5606 16.6888 63.1854 16.5803C63.8103 16.4718 64.4835 16.3775 65.2039 16.2961C65.2086 16.1747 65.2098 16.0533 65.2074 15.9306C65.2063 15.808 65.2015 15.6866 65.1933 15.564C65.185 15.4414 65.1744 15.3187 65.1603 15.1949C65.1461 15.0712 65.1296 14.9485 65.1084 14.8236C65.0872 14.6986 65.0636 14.5795 65.0341 14.4616C65.0046 14.3449 64.9716 14.2305 64.9327 14.1209C64.895 14.01 64.8514 13.9039 64.8042 13.8002C64.7571 13.6964 64.7052 13.5962 64.6486 13.4995C64.592 13.4029 64.5295 13.3109 64.4623 13.2225C64.3951 13.134 64.322 13.0515 64.243 12.9725C64.164 12.8935 64.0803 12.8192 63.9895 12.7497C63.8999 12.6801 63.8032 12.6141 63.703 12.554C63.6016 12.4927 63.4932 12.4396 63.3776 12.3948C63.2621 12.3488 63.1395 12.3111 63.0098 12.2816C62.8801 12.251 62.7433 12.2286 62.6007 12.2132C62.4568 12.1979 62.3071 12.1908 62.1491 12.1908C61.9286 12.1908 61.7129 12.2014 61.5018 12.2227C61.2908 12.2439 61.0856 12.2757 60.8852 12.3193C60.6848 12.3618 60.489 12.416 60.2992 12.4797C60.1094 12.5434 59.9231 12.6188 59.7439 12.7037C59.5635 12.7898 59.3926 12.8747 59.231 12.9595C59.0695 13.0444 58.9162 13.1281 58.7712 13.2119C58.6262 13.2956 58.4918 13.3781 58.3657 13.4606C58.2395 13.5432 58.1228 13.6245 58.0143 13.7059L57.8787 13.483L57.7431 13.2602L57.6076 13.0374L57.472 12.8145C57.5309 12.7744 57.5922 12.732 57.6571 12.6896C57.7219 12.6471 57.7891 12.6023 57.861 12.5575C57.9318 12.5127 58.0061 12.4667 58.0827 12.4184C58.1593 12.37 58.2395 12.3229 58.3232 12.2734C58.4069 12.2238 58.4918 12.1755 58.5802 12.1283C58.6687 12.0812 58.7583 12.0352 58.8502 11.9892C58.9422 11.9444 59.0377 11.8996 59.1344 11.8572C59.231 11.8147 59.3301 11.7723 59.4315 11.7322C59.5329 11.6921 59.6366 11.652 59.7427 11.6143C59.8488 11.5766 59.9585 11.54 60.0693 11.5058C60.1813 11.4705 60.2945 11.4374 60.4112 11.4056C60.528 11.3738 60.647 11.3431 60.7685 11.3137C60.8899 11.2842 61.0125 11.2594 61.1363 11.237C61.2601 11.2146 61.3851 11.1969 61.5112 11.1828C61.6374 11.1686 61.7647 11.1568 61.8932 11.1498C62.0218 11.1427 62.1514 11.1392 62.2823 11.1392C62.4757 11.1392 62.662 11.1474 62.84 11.1639C63.018 11.1804 63.1878 11.2052 63.3505 11.237C63.5132 11.27 63.6665 11.3101 63.8127 11.3596C63.9589 11.4092 64.098 11.4657 64.2277 11.5318C64.3586 11.5966 64.4823 11.6674 64.6014 11.7452C64.7193 11.8218 64.8313 11.9055 64.9374 11.9939C65.0436 12.0824 65.1426 12.1779 65.2369 12.2781C65.3301 12.3795 65.4173 12.4856 65.4987 12.5988C65.58 12.712 65.6555 12.8287 65.7238 12.9513C65.7934 13.0739 65.8559 13.2001 65.9137 13.3321C65.9714 13.4642 66.0221 13.5998 66.0681 13.7412C66.1141 13.8827 66.153 14.0289 66.186 14.1786C66.2202 14.3296 66.2497 14.484 66.2756 14.6408C66.3016 14.7976 66.3228 14.958 66.3393 15.1219C66.3558 15.2857 66.3688 15.452 66.377 15.6206C66.3853 15.7903 66.39 15.9625 66.39 16.1382V18.212V20.2859V22.3598V24.4337H66.14H65.8901H65.6401H65.3902L65.3572 24.0151L65.3242 23.5966L65.2911 23.178L65.2581 22.7595H65.244H65.2298H65.2157H65.2015C65.0341 22.8903 64.8643 23.0165 64.6922 23.1403C64.5189 23.2641 64.3432 23.3832 64.164 23.4987C63.9848 23.6142 63.8032 23.7274 63.6181 23.8359C63.433 23.9444 63.2444 24.0493 63.0534 24.1507C62.8624 24.2521 62.6679 24.3417 62.4698 24.4172C62.2717 24.4926 62.0713 24.5563 61.8685 24.607C61.6657 24.6577 61.4582 24.6954 61.2483 24.7213C61.0385 24.7461 60.8251 24.7591 60.6093 24.7591C60.4784 24.7591 60.3499 24.7543 60.225 24.7461C60.1 24.7378 59.975 24.7237 59.8536 24.706C59.7321 24.6883 59.613 24.6659 59.4951 24.6388C59.3772 24.6117 59.2629 24.5799 59.1509 24.5433C59.0377 24.5079 58.9292 24.4667 58.8219 24.4219C58.7158 24.3771 58.6121 24.3275 58.5118 24.2733C58.4116 24.2191 58.315 24.1601 58.2206 24.0976C58.1263 24.034 58.0355 23.9668 57.9483 23.8948C57.8599 23.8229 57.7773 23.7463 57.6983 23.6649C57.6205 23.5824 57.5462 23.4963 57.4779 23.4032C57.4095 23.3101 57.3458 23.2134 57.2869 23.1108C57.2279 23.0082 57.1737 22.9009 57.1242 22.7878C57.0746 22.6746 57.031 22.5579 56.9933 22.4341C56.9556 22.3114 56.9249 22.1829 56.9001 22.0509C56.8754 21.9177 56.8565 21.7797 56.8447 21.637C56.8329 21.4909 56.827 21.3435 56.827 21.1902ZM58.0697 21.1348C58.0697 21.3694 58.0862 21.5864 58.1204 21.7868C58.1546 21.9872 58.2053 22.1711 58.2725 22.3374C58.3397 22.5036 58.4246 22.6534 58.526 22.7866C58.6274 22.9198 58.7453 23.0354 58.8797 23.1344C59.0153 23.2334 59.1568 23.3195 59.3041 23.3938C59.4515 23.468 59.606 23.5294 59.7651 23.5789C59.9243 23.6284 60.0905 23.6649 60.2639 23.6897C60.4372 23.7145 60.6152 23.7263 60.7991 23.7263C60.9889 23.7263 61.1752 23.7156 61.3603 23.6921C61.5454 23.6685 61.727 23.6355 61.9074 23.5907C62.0878 23.5459 62.2658 23.4893 62.4415 23.4221C62.6172 23.3549 62.7905 23.2759 62.9614 23.1863C63.1324 23.0955 63.3081 22.9953 63.4861 22.8844C63.6653 22.7736 63.848 22.6534 64.0355 22.5225C64.223 22.3916 64.414 22.2513 64.6085 22.1004C64.803 21.9495 65.0023 21.7891 65.2051 21.617V20.5158V19.4146V18.3134V17.2158C64.8714 17.2559 64.5519 17.2995 64.2454 17.3443C63.9388 17.3891 63.6453 17.4374 63.3646 17.4869C63.084 17.5365 62.8176 17.5883 62.5629 17.6426C62.3094 17.6968 62.0677 17.7534 61.8402 17.8112C61.6126 17.8701 61.3957 17.9314 61.1906 17.9951C60.9854 18.0588 60.7909 18.126 60.6069 18.1955C60.423 18.2651 60.2509 18.3382 60.0894 18.4136C59.9278 18.4891 59.7769 18.5669 59.6378 18.6483C59.4975 18.7296 59.3678 18.8133 59.2476 18.8994C59.1273 18.9855 59.0176 19.0762 58.9174 19.1682C58.8172 19.2602 58.7276 19.3557 58.6463 19.4535C58.5661 19.5514 58.4953 19.6528 58.434 19.7565C58.3727 19.8603 58.3197 19.9664 58.2749 20.076C58.2301 20.1857 58.1912 20.2977 58.1605 20.4121C58.1299 20.5264 58.1075 20.6443 58.0921 20.7646C58.0768 20.8848 58.0697 21.0098 58.0697 21.1348Z" fill="black"/>
<path d="M71.0435 5H71.3406H71.6377H71.9349H72.232V9.46608V13.9322V18.3983V22.8643C72.232 22.9363 72.2355 23.0035 72.2414 23.0659C72.2485 23.1284 72.2579 23.1862 72.2721 23.2393C72.285 23.2923 72.3027 23.3395 72.3227 23.3831C72.3428 23.4267 72.3664 23.4644 72.3947 23.4975C72.4218 23.5317 72.4501 23.5611 72.4807 23.5871C72.5114 23.613 72.5432 23.6342 72.5774 23.6507C72.6116 23.6672 72.647 23.6802 72.6835 23.6885C72.7213 23.6967 72.7602 23.7014 72.8002 23.7014C72.8132 23.7014 72.8274 23.7014 72.8403 23.7014C72.8545 23.7014 72.8686 23.7014 72.8828 23.7014C72.8969 23.7014 72.9123 23.7014 72.9276 23.7014C72.9429 23.7014 72.9582 23.7014 72.9747 23.7014C72.9901 23.7014 73.0089 23.7003 73.029 23.6979C73.0502 23.6955 73.0726 23.692 73.0985 23.6885C73.1245 23.6837 73.1528 23.6779 73.1846 23.672C73.2164 23.6661 73.2494 23.6566 73.286 23.6472L73.3402 23.8901L73.3945 24.1329L73.4487 24.3758L73.5029 24.6187C73.4723 24.6281 73.4404 24.6364 73.4098 24.6446C73.378 24.6529 73.3473 24.6611 73.3155 24.6694C73.2836 24.6777 73.253 24.6847 73.2211 24.693C73.1893 24.7001 73.1575 24.7083 73.1268 24.7154C73.095 24.7225 73.062 24.7272 73.0254 24.7331C72.9889 24.7378 72.9512 24.7425 72.9111 24.7449C72.871 24.7472 72.8274 24.7507 72.7826 24.7519C72.7378 24.7531 72.6906 24.7543 72.6411 24.7543C72.3758 24.7543 72.1424 24.7118 71.9431 24.6258C71.7438 24.5397 71.5776 24.4124 71.4444 24.2402C71.3112 24.0693 71.2121 23.8547 71.1449 23.5977C71.0789 23.3407 71.0447 23.0412 71.0447 22.6981V18.2768V13.8508V9.42482V5H71.0435Z" fill="black"/>
<path d="M76.7193 21.1902C76.7193 20.8341 76.7617 20.4993 76.8454 20.1845C76.9303 19.8697 77.0565 19.5761 77.2251 19.3038C77.3937 19.0314 77.6047 18.7791 77.8582 18.548C78.1117 18.317 78.4076 18.1071 78.7448 17.9185C79.0832 17.7298 79.4687 17.5541 79.9026 17.3914C80.3365 17.2287 80.8175 17.0802 81.3469 16.9458C81.8763 16.8114 82.4528 16.6888 83.0777 16.5803C83.7025 16.4718 84.3758 16.3775 85.0961 16.2961C85.1008 16.1747 85.102 16.0533 85.0997 15.9306C85.0985 15.808 85.0938 15.6866 85.0855 15.564C85.0773 15.4414 85.0666 15.3187 85.0525 15.1949C85.0384 15.0712 85.0218 14.9485 85.0006 14.8236C84.9794 14.6986 84.9558 14.5795 84.9263 14.4616C84.8969 14.3449 84.8639 14.2305 84.825 14.1209C84.7872 14.01 84.7436 13.9039 84.6964 13.8002C84.6493 13.6964 84.5974 13.5962 84.5408 13.4995C84.4842 13.4029 84.4217 13.3109 84.3545 13.2225C84.2873 13.134 84.2142 13.0515 84.1352 12.9725C84.0562 12.8935 83.9725 12.8192 83.8818 12.7497C83.7921 12.6801 83.6955 12.6141 83.5952 12.554C83.4939 12.4927 83.3854 12.4396 83.2698 12.3948C83.1543 12.3488 83.0317 12.3111 82.902 12.2816C82.7723 12.251 82.6355 12.2286 82.4929 12.2132C82.3502 12.1979 82.1993 12.1908 82.0413 12.1908C81.8208 12.1908 81.6051 12.2014 81.394 12.2227C81.183 12.2439 80.9778 12.2757 80.7774 12.3193C80.577 12.3618 80.3813 12.416 80.1914 12.4797C80.0016 12.5434 79.8153 12.6188 79.6361 12.7037C79.4557 12.7898 79.2848 12.8747 79.1233 12.9595C78.9617 13.0444 78.8085 13.1281 78.6635 13.2119C78.5196 13.2956 78.384 13.3781 78.2579 13.4606C78.1317 13.5432 78.015 13.6245 77.9065 13.7059L77.7709 13.483L77.6354 13.2602L77.4998 13.0374L77.3642 12.8145C77.4231 12.7744 77.4844 12.732 77.5493 12.6896C77.6141 12.6471 77.6813 12.6023 77.7533 12.5575C77.824 12.5127 77.8983 12.4667 77.9749 12.4184C78.0516 12.37 78.1317 12.3229 78.2154 12.2734C78.2991 12.2238 78.384 12.1755 78.4725 12.1283C78.5609 12.0812 78.6505 12.0352 78.7425 11.9892C78.8344 11.9444 78.9299 11.8996 79.0266 11.8572C79.1233 11.8147 79.2223 11.7723 79.3237 11.7322C79.4251 11.6921 79.5288 11.652 79.635 11.6143C79.7411 11.5766 79.8507 11.54 79.9615 11.5058C80.0735 11.4705 80.1867 11.4374 80.3035 11.4056C80.4202 11.3738 80.5393 11.3431 80.6607 11.3137C80.7821 11.2842 80.9047 11.2594 81.0285 11.237C81.1523 11.2146 81.2773 11.1969 81.4035 11.1828C81.5296 11.1686 81.657 11.1568 81.7855 11.1498C81.914 11.1427 82.0437 11.1392 82.1745 11.1392C82.3679 11.1392 82.5542 11.1474 82.7322 11.1639C82.9102 11.1804 83.08 11.2052 83.2427 11.237C83.4054 11.27 83.5587 11.3101 83.7049 11.3596C83.8511 11.4092 83.9902 11.4657 84.1199 11.5318C84.2508 11.5966 84.3746 11.6674 84.4937 11.7452C84.6116 11.8218 84.7236 11.9055 84.8297 11.9939C84.9358 12.0824 85.0348 12.1779 85.1291 12.2781C85.2223 12.3795 85.3095 12.4856 85.3909 12.5988C85.4722 12.712 85.5477 12.8287 85.6161 12.9513C85.6856 13.0739 85.7481 13.2001 85.8059 13.3321C85.8637 13.4642 85.9144 13.5998 85.9603 13.7412C86.0063 13.8827 86.0452 14.0289 86.0782 14.1786C86.1124 14.3296 86.1419 14.484 86.1678 14.6408C86.1938 14.7976 86.215 14.958 86.2315 15.1219C86.248 15.2857 86.261 15.452 86.2692 15.6206C86.2775 15.7903 86.2822 15.9625 86.2822 16.1382V18.212V20.2859V22.3598V24.4337H86.0323H85.7858H85.5359H85.2859L85.2529 24.0151L85.2199 23.5966L85.1869 23.178L85.1539 22.7595H85.1397H85.1256H85.1115H85.0973C84.9299 22.8903 84.7601 23.0165 84.588 23.1403C84.4147 23.2641 84.239 23.3832 84.0598 23.4987C83.8806 23.6142 83.699 23.7274 83.5127 23.8359C83.3264 23.9444 83.139 24.0493 82.948 24.1507C82.757 24.2521 82.5624 24.3417 82.3644 24.4172C82.1663 24.4938 81.9659 24.5563 81.7631 24.607C81.5603 24.6577 81.3528 24.6954 81.1429 24.7213C80.933 24.7461 80.7196 24.7591 80.5039 24.7591C80.373 24.7591 80.2445 24.7543 80.1195 24.7461C79.9934 24.7367 79.8696 24.7237 79.7481 24.706C79.6267 24.6883 79.5076 24.6659 79.3897 24.6388C79.2718 24.6117 79.1575 24.5799 79.0455 24.5433C78.9323 24.5079 78.8238 24.4667 78.7165 24.4219C78.6104 24.3771 78.5066 24.3275 78.4064 24.2733C78.3062 24.2191 78.2095 24.1601 78.1152 24.0976C78.0209 24.034 77.9301 23.9668 77.8429 23.8948C77.7544 23.8229 77.6719 23.7463 77.5929 23.6649C77.5151 23.5824 77.4408 23.4963 77.3724 23.4032C77.3041 23.3112 77.2404 23.2134 77.1814 23.1108C77.1225 23.0082 77.0683 22.9009 77.0187 22.7878C76.9692 22.6746 76.9256 22.5579 76.8879 22.4341C76.8501 22.3114 76.8195 22.1829 76.7947 22.0509C76.77 21.9188 76.7511 21.7797 76.7393 21.637C76.7252 21.4909 76.7193 21.3435 76.7193 21.1902ZM77.9619 21.1348C77.9619 21.3694 77.9784 21.5864 78.0126 21.7868C78.0468 21.9872 78.0975 22.1711 78.1647 22.3374C78.2319 22.5036 78.3168 22.6534 78.4182 22.7866C78.5196 22.9198 78.6375 23.0354 78.7719 23.1344C78.9075 23.2334 79.049 23.3195 79.1964 23.3938C79.3437 23.468 79.4982 23.5294 79.6574 23.5789C79.8165 23.6284 79.9828 23.6649 80.1561 23.6897C80.3282 23.7145 80.5074 23.7263 80.6914 23.7263C80.8812 23.7263 81.0675 23.7156 81.2526 23.6921C81.4377 23.6685 81.6192 23.6355 81.7996 23.5907C81.98 23.5459 82.158 23.4893 82.3337 23.4221C82.5094 23.3549 82.6827 23.2759 82.8537 23.1863C83.0246 23.0955 83.2003 22.9953 83.3783 22.8844C83.5575 22.7736 83.7403 22.6534 83.9277 22.5225C84.1152 22.3916 84.3062 22.2513 84.5007 22.1004C84.6953 21.9495 84.8945 21.7891 85.0973 21.617V20.5158V19.4146V18.3134V17.2158C84.7636 17.2559 84.4441 17.2995 84.1376 17.3443C83.831 17.3891 83.5375 17.4374 83.2569 17.4869C82.9763 17.5365 82.7098 17.5883 82.4551 17.6426C82.2017 17.6968 81.96 17.7534 81.7324 17.8112C81.5049 17.8701 81.2879 17.9314 81.0828 17.9951C80.8776 18.0588 80.6831 18.126 80.4992 18.1955C80.3152 18.2651 80.1431 18.3382 79.9816 18.4136C79.8201 18.4891 79.6692 18.5669 79.53 18.6483C79.3897 18.7296 79.26 18.8133 79.1398 18.8994C79.0195 18.9866 78.9099 19.0762 78.8097 19.1682C78.7094 19.2602 78.6198 19.3557 78.5385 19.4535C78.4571 19.5514 78.3876 19.6528 78.3263 19.7565C78.2649 19.8603 78.2119 19.9664 78.1671 20.076C78.1223 20.1857 78.0834 20.2977 78.0527 20.4121C78.0221 20.5264 77.9997 20.6443 77.9843 20.7646C77.969 20.886 77.9619 21.0098 77.9619 21.1348Z" fill="black"/>
<path d="M90.9358 11.461H91.1928H91.4498H91.7068H91.9639L91.991 11.9609L92.0181 12.4608L92.0452 12.9607L92.0723 13.4606H92.0924H92.1124H92.1325H92.1525C92.3199 13.2932 92.4873 13.134 92.6559 12.9807C92.8245 12.8275 92.9955 12.6824 93.1665 12.5433C93.3374 12.4042 93.5095 12.2733 93.6829 12.1483C93.8562 12.0234 94.0307 11.9066 94.2063 11.7958C94.382 11.685 94.5636 11.5895 94.751 11.5058C94.9385 11.4221 95.133 11.3537 95.3335 11.2995C95.5339 11.244 95.7402 11.2028 95.9536 11.1757C96.1658 11.1485 96.3851 11.1344 96.6103 11.1344C96.9487 11.1344 97.2635 11.1592 97.5571 11.2099C97.8495 11.2606 98.1206 11.336 98.3682 11.4374C98.6158 11.5388 98.841 11.665 99.0438 11.817C99.2466 11.9691 99.427 12.146 99.5838 12.3488C99.7418 12.5516 99.8797 12.7815 99.9976 13.0397C100.116 13.2979 100.215 13.5832 100.294 13.8956C100.373 14.2081 100.431 14.5488 100.47 14.9178C100.509 15.2857 100.529 15.6818 100.529 16.1063V18.1872V20.2682V22.3491V24.4301H100.232H99.9351H99.638H99.3409V22.3904V20.3507V18.311V16.2713C99.3409 15.9247 99.3268 15.6005 99.2985 15.2987C99.2702 14.9968 99.2265 14.7186 99.17 14.4627C99.1134 14.2069 99.0414 13.9735 98.9554 13.7636C98.8693 13.5537 98.7691 13.3663 98.6536 13.2012C98.538 13.0373 98.4048 12.8935 98.2515 12.7709C98.0982 12.6482 97.9273 12.5445 97.7363 12.4631C97.5465 12.3806 97.3366 12.3193 97.109 12.278C96.8815 12.2368 96.6327 12.2167 96.3675 12.2167C96.1741 12.2167 95.9843 12.2297 95.8003 12.2545C95.6152 12.2804 95.436 12.3181 95.2604 12.3688C95.0847 12.4195 94.9137 12.4832 94.7475 12.5586C94.5813 12.6353 94.4186 12.7237 94.2606 12.8251C94.1026 12.9265 93.9411 13.0409 93.7725 13.167C93.6039 13.2932 93.4317 13.4323 93.2537 13.5844C93.0757 13.7365 92.8929 13.9004 92.7043 14.0784C92.5168 14.2552 92.3235 14.4451 92.1254 14.6478V17.0943V19.5407V21.9872V24.4336H91.8283H91.5312H91.2329H90.9358V21.189V17.9467V14.7033V11.461Z" fill="black"/>
<path d="M104.231 17.9738C104.231 17.7038 104.242 17.4397 104.262 17.1839C104.282 16.928 104.313 16.6781 104.354 16.4364C104.395 16.1947 104.446 15.9589 104.506 15.7313C104.567 15.5038 104.638 15.2821 104.72 15.0687C104.801 14.8553 104.888 14.649 104.982 14.4533C105.077 14.2564 105.178 14.0689 105.287 13.8897C105.395 13.7105 105.509 13.5407 105.631 13.378C105.752 13.2153 105.881 13.0632 106.016 12.9194C106.151 12.7755 106.291 12.64 106.437 12.5126C106.584 12.3853 106.734 12.2662 106.89 12.1566C107.047 12.0457 107.208 11.9443 107.376 11.85C107.543 11.7569 107.715 11.6708 107.895 11.5942C108.073 11.5175 108.253 11.4515 108.436 11.3937C108.619 11.336 108.804 11.2888 108.992 11.2511C109.18 11.2134 109.371 11.1839 109.564 11.165C109.757 11.1462 109.953 11.1367 110.151 11.1367C110.376 11.1367 110.592 11.1473 110.8 11.1674C111.007 11.1874 111.204 11.2181 111.392 11.2582C111.579 11.2982 111.758 11.3489 111.928 11.4102C112.098 11.4716 112.258 11.5423 112.408 11.6225C112.559 11.7038 112.704 11.7875 112.844 11.8736C112.984 11.9608 113.119 12.0504 113.248 12.1424C113.378 12.2344 113.502 12.3299 113.621 12.4277C113.74 12.5256 113.853 12.627 113.961 12.7307L113.785 12.9394L113.609 13.1481L113.434 13.3568L113.258 13.5655C113.154 13.4664 113.048 13.3721 112.938 13.2813C112.829 13.1906 112.717 13.1045 112.602 13.022C112.488 12.9394 112.37 12.8616 112.25 12.7885C112.13 12.7142 112.006 12.6458 111.881 12.5798C111.755 12.5138 111.624 12.4572 111.491 12.4077C111.356 12.3582 111.218 12.3181 111.077 12.2851C110.935 12.2521 110.789 12.2285 110.639 12.212C110.49 12.1955 110.335 12.1872 110.177 12.1872C110.011 12.1872 109.847 12.1955 109.687 12.2132C109.526 12.2308 109.368 12.2568 109.215 12.2921C109.061 12.3275 108.91 12.3711 108.761 12.423C108.613 12.4749 108.468 12.5362 108.326 12.6058C108.185 12.6753 108.047 12.7531 107.913 12.8368C107.78 12.9217 107.652 13.0125 107.528 13.1116C107.404 13.2106 107.285 13.3167 107.17 13.4311C107.055 13.5454 106.944 13.6657 106.839 13.7954C106.733 13.9239 106.633 14.0583 106.539 14.1974C106.444 14.3377 106.355 14.4839 106.271 14.636C106.187 14.7881 106.11 14.9461 106.038 15.11C105.966 15.2739 105.899 15.4436 105.838 15.6181C105.777 15.7938 105.724 15.9754 105.679 16.1605C105.633 16.3468 105.596 16.5378 105.566 16.7335C105.535 16.9292 105.513 17.1308 105.498 17.3371C105.482 17.5434 105.475 17.7545 105.475 17.9714C105.475 18.1825 105.482 18.39 105.497 18.5928C105.511 18.7956 105.532 18.9936 105.56 19.187C105.588 19.3803 105.624 19.5702 105.665 19.7541C105.708 19.9392 105.756 20.1196 105.812 20.2953C105.869 20.4709 105.932 20.6395 105.999 20.8034C106.066 20.9661 106.139 21.1241 106.218 21.275C106.297 21.4259 106.381 21.5709 106.472 21.7089C106.561 21.8468 106.658 21.9801 106.758 22.105C106.859 22.2312 106.967 22.3503 107.079 22.4623C107.192 22.5743 107.31 22.6792 107.434 22.7771C107.557 22.8749 107.687 22.9657 107.822 23.0494C107.956 23.1331 108.097 23.2098 108.244 23.2793C108.39 23.3489 108.541 23.4102 108.694 23.4621C108.847 23.5139 109.005 23.5576 109.167 23.5929C109.328 23.6283 109.492 23.6542 109.661 23.6719C109.829 23.6896 110 23.6979 110.176 23.6979C110.347 23.6979 110.516 23.6884 110.681 23.6708C110.846 23.6531 111.007 23.626 111.166 23.5894C111.326 23.554 111.481 23.5081 111.633 23.455C111.787 23.4008 111.935 23.3383 112.082 23.2664C112.229 23.1944 112.371 23.1178 112.509 23.0376C112.647 22.9575 112.78 22.8737 112.91 22.7853C113.04 22.6969 113.165 22.6049 113.285 22.5094C113.406 22.4139 113.523 22.3137 113.635 22.21L113.791 22.4128L113.946 22.6155L114.102 22.8183L114.258 23.0211C114.119 23.1473 113.975 23.2675 113.827 23.3819C113.68 23.4963 113.528 23.6059 113.373 23.7097C113.218 23.8134 113.059 23.9113 112.896 24.0032C112.733 24.0952 112.566 24.1824 112.395 24.2638C112.224 24.3451 112.048 24.4159 111.868 24.476C111.687 24.5373 111.502 24.588 111.314 24.6281C111.125 24.6682 110.931 24.6989 110.732 24.7189C110.534 24.7389 110.332 24.7495 110.125 24.7495C109.913 24.7495 109.706 24.7401 109.502 24.7213C109.298 24.7024 109.1 24.6729 108.904 24.6352C108.708 24.5975 108.518 24.5491 108.332 24.4913C108.146 24.4336 107.964 24.3664 107.786 24.2897C107.608 24.2131 107.436 24.1282 107.269 24.0351C107.101 23.9419 106.941 23.8405 106.785 23.7297C106.63 23.6189 106.48 23.501 106.336 23.3736C106.192 23.2463 106.053 23.1107 105.92 22.9669C105.787 22.823 105.662 22.6698 105.544 22.5094C105.426 22.3491 105.315 22.1805 105.211 22.0036C105.107 21.8268 105.012 21.6417 104.922 21.4483C104.834 21.255 104.751 21.0534 104.677 20.8435C104.603 20.6348 104.538 20.4179 104.481 20.1927C104.426 19.9687 104.379 19.7364 104.342 19.4959C104.305 19.2565 104.277 19.009 104.259 18.7543C104.241 18.5067 104.231 18.2438 104.231 17.9738Z" fill="black"/>
<path d="M115.907 17.9738C115.907 17.7085 115.917 17.4491 115.937 17.1968C115.957 16.9445 115.986 16.6993 116.025 16.4599C116.064 16.2206 116.113 15.9895 116.172 15.7643C116.231 15.5391 116.301 15.321 116.379 15.1088C116.458 14.8978 116.543 14.6938 116.636 14.4981C116.728 14.3024 116.827 14.1161 116.933 13.9369C117.039 13.7577 117.151 13.5867 117.271 13.424C117.39 13.2613 117.517 13.1068 117.65 12.9595C117.783 12.8133 117.92 12.6753 118.062 12.5468C118.204 12.4171 118.351 12.2969 118.502 12.1837C118.653 12.0717 118.809 11.9667 118.969 11.8712C119.129 11.7757 119.293 11.6885 119.463 11.6095C119.632 11.5305 119.801 11.4609 119.974 11.402C120.146 11.343 120.318 11.2935 120.492 11.2546C120.667 11.2157 120.842 11.1862 121.021 11.1662C121.199 11.1462 121.377 11.1367 121.557 11.1367C121.945 11.1367 122.31 11.1697 122.657 11.2346C123.002 11.2994 123.328 11.3973 123.632 11.5281C123.936 11.659 124.219 11.8217 124.481 12.0174C124.743 12.2132 124.984 12.4419 125.205 12.7024C125.425 12.9642 125.619 13.2519 125.784 13.5678C125.949 13.8826 126.088 14.2257 126.198 14.5947C126.308 14.9638 126.391 15.3599 126.446 15.7832C126.502 16.2065 126.529 16.6568 126.529 17.1343C126.529 17.1744 126.529 17.2157 126.529 17.2558C126.529 17.2959 126.529 17.3371 126.529 17.3772C126.529 17.4173 126.529 17.4586 126.529 17.4986C126.529 17.5387 126.529 17.58 126.529 17.6201C126.529 17.6602 126.528 17.7014 126.525 17.7415C126.523 17.7816 126.519 17.8229 126.515 17.863C126.51 17.903 126.504 17.9443 126.497 17.9844C126.49 18.0245 126.483 18.0657 126.473 18.1058H124.135H121.797H119.46H117.122C117.126 18.3086 117.137 18.5079 117.155 18.7036C117.172 18.8993 117.197 19.0915 117.229 19.2789C117.261 19.4676 117.298 19.6515 117.343 19.8319C117.388 20.0123 117.44 20.1891 117.499 20.3625C117.558 20.5358 117.621 20.7032 117.692 20.8647C117.763 21.0262 117.84 21.1807 117.921 21.3292C118.003 21.4778 118.092 21.6205 118.186 21.7572C118.28 21.894 118.381 22.0237 118.487 22.1475C118.593 22.2713 118.704 22.388 118.819 22.4988C118.936 22.6096 119.057 22.7122 119.185 22.8089C119.312 22.9056 119.444 22.9952 119.583 23.0789C119.721 23.1626 119.865 23.2381 120.014 23.3088C120.162 23.3784 120.315 23.4397 120.472 23.4915C120.63 23.5434 120.792 23.587 120.958 23.6224C121.124 23.6578 121.295 23.6837 121.471 23.7014C121.647 23.7191 121.827 23.7273 122.011 23.7273C122.187 23.7273 122.359 23.7215 122.526 23.7085C122.694 23.6955 122.856 23.6767 123.015 23.6507C123.175 23.6248 123.329 23.5929 123.479 23.554C123.628 23.5151 123.775 23.4703 123.917 23.4184C124.059 23.3666 124.199 23.3112 124.336 23.2498C124.473 23.1885 124.607 23.1225 124.739 23.0518C124.871 22.981 125.001 22.9056 125.127 22.8242C125.253 22.7429 125.378 22.658 125.5 22.5684L125.621 22.7983L125.742 23.0282L125.864 23.2581L125.985 23.488C125.854 23.5646 125.72 23.6401 125.583 23.7144C125.447 23.7887 125.306 23.8618 125.164 23.9337C125.021 24.0056 124.875 24.0763 124.725 24.1459C124.575 24.2155 124.423 24.2838 124.268 24.351C124.112 24.4182 123.947 24.4772 123.771 24.5279C123.595 24.5786 123.408 24.621 123.211 24.654C123.014 24.6871 122.807 24.713 122.589 24.7307C122.37 24.7472 122.142 24.7566 121.904 24.7566C121.696 24.7566 121.492 24.7472 121.291 24.7283C121.089 24.7095 120.892 24.68 120.696 24.6423C120.501 24.6045 120.31 24.5562 120.121 24.4984C119.932 24.4406 119.747 24.3734 119.564 24.2968C119.382 24.2202 119.206 24.1353 119.035 24.041C118.864 23.9466 118.7 23.8441 118.541 23.7332C118.382 23.6224 118.23 23.5022 118.082 23.3725C117.935 23.244 117.795 23.106 117.659 22.9598C117.525 22.8136 117.396 22.6592 117.275 22.4965C117.153 22.3338 117.04 22.164 116.933 21.986C116.826 21.8079 116.725 21.6216 116.632 21.4283C116.539 21.2349 116.453 21.0333 116.375 20.8235C116.296 20.6148 116.228 20.3978 116.169 20.175C116.11 19.9522 116.06 19.7211 116.022 19.4841C115.983 19.2471 115.952 19.0019 115.933 18.7508C115.917 18.4984 115.907 18.2391 115.907 17.9738ZM125.393 17.1897C125.393 16.7712 125.372 16.3774 125.33 16.0107C125.287 15.6441 125.223 15.3033 125.138 14.9897C125.053 14.6749 124.945 14.3872 124.817 14.1255C124.688 13.8638 124.539 13.628 124.368 13.4193C124.196 13.2106 124.009 13.0267 123.808 12.8699C123.606 12.7131 123.389 12.5822 123.157 12.4773C122.925 12.3723 122.678 12.2933 122.415 12.2414C122.154 12.1884 121.875 12.1625 121.583 12.1625C121.444 12.1625 121.306 12.1695 121.169 12.1849C121.032 12.2002 120.898 12.2214 120.766 12.2509C120.633 12.2804 120.502 12.3169 120.372 12.3605C120.242 12.4042 120.115 12.456 119.988 12.5138C119.862 12.5728 119.739 12.6364 119.619 12.7083C119.498 12.7803 119.382 12.8569 119.269 12.9394C119.155 13.022 119.044 13.1127 118.936 13.2082C118.829 13.3037 118.724 13.4051 118.622 13.5136C118.521 13.6221 118.424 13.7364 118.332 13.8567C118.24 13.9769 118.152 14.1031 118.069 14.234C117.986 14.366 117.908 14.5028 117.834 14.6466C117.759 14.7905 117.69 14.9402 117.625 15.0958C117.559 15.2515 117.5 15.4118 117.447 15.5769C117.394 15.7419 117.346 15.9117 117.304 16.0862C117.263 16.2607 117.226 16.4399 117.197 16.6238C117.168 16.8077 117.144 16.9964 117.125 17.1909H119.192H121.259H123.325H125.393V17.1897Z" fill="black"/>
</svg>
