<svg width="30" height="30" viewBox="0 0 30 30" fill="none" xmlns="http://www.w3.org/2000/svg">
<rect width="30" height="30" fill="white"/>
<path d="M30 30H22.5H15H7.5H0V22.5003V15.0005V7.49975V0H7.5H15H22.5H30V7.49975V14.9995V22.4992V30ZM0.252287 29.7477H7.62614H15H22.3739H29.7477V22.3741V15.0005V7.62589V0.252279H22.3739H15H7.62614H0.252287V7.62589V14.9995V22.3731V29.7477Z" fill="#4D4D4D"/>
<path d="M30 22V21.9421V21.8843V21.8264V21.7685C28.8439 21.3235 27.6602 20.9279 26.4529 20.5844C25.2446 20.241 24.0117 19.9507 22.7583 19.7163C21.5049 19.482 20.2279 19.3027 18.9345 19.1822C17.6401 19.0617 16.3282 19 15 19C13.6718 19 12.3589 19.0617 11.0655 19.1822C9.77111 19.3027 8.49515 19.482 7.24173 19.7163C5.98832 19.9507 4.7554 20.2419 3.54708 20.5844C2.33875 20.9279 1.15605 21.3235 0 21.7685V21.8264V21.8843V21.9421V22C1.15503 21.5522 2.33773 21.1546 3.54605 20.8093C4.75335 20.4639 5.98627 20.1717 7.24071 19.9364C8.49515 19.7011 9.77111 19.5199 11.0655 19.3994C12.3599 19.278 13.6728 19.2163 15.002 19.2163C16.3303 19.2163 17.6431 19.278 18.9376 19.3994C20.232 19.5209 21.5079 19.7011 22.7624 19.9364C24.0168 20.1717 25.2487 20.4649 26.457 20.8093C27.6612 21.1546 28.845 21.5522 30 22Z" fill="#4D4D4D"/>
<path d="M18.0211 3.17917L18.0211 3.88953" stroke="#140B0A" stroke-width="0.1" stroke-miterlimit="10" stroke-linecap="round" stroke-linejoin="round"/>
<path d="M21 6.03156L21 4.96058" stroke="#140B0A" stroke-width="0.1" stroke-miterlimit="10" stroke-linecap="round" stroke-linejoin="round"/>
<path d="M21 4.57391L21 3.85607" stroke="#140B0A" stroke-width="0.1" stroke-miterlimit="10" stroke-linecap="round" stroke-linejoin="round"/>
<path d="M18.0211 5.35486L18.0211 4.2764" stroke="#140B0A" stroke-width="0.1" stroke-miterlimit="10" stroke-linecap="round" stroke-linejoin="round"/>
<path d="M18.3149 5.8346L18.6051 5.96847L18.9026 6.08381L19.2112 6.18791L19.5087 6.26599L19.81 6.32178L20.115 6.36261L20.4162 6.38489L20.7062 6.37741C20.8476 6.37384 20.9219 6.31055 20.9665 6.18042L20.9889 6.10983L21 6.03158" stroke="#140B0A" stroke-width="0.1" stroke-miterlimit="10" stroke-linecap="round" stroke-linejoin="round"/>
<path d="M18.0211 5.35484L18.0323 5.43292L18.0471 5.51848L18.0844 5.59656L18.1252 5.66715L18.181 5.73792L18.2443 5.79371L18.3148 5.83453" stroke="#140B0A" stroke-width="0.1" stroke-miterlimit="10" stroke-linecap="round" stroke-linejoin="round"/>
<path d="M18.1736 4.23523L18.1736 4.00099L18.1551 3.95268L18.1401 3.93772L18.1178 3.91918L18.0212 3.88941" stroke="#140B0A" stroke-width="0.1" stroke-miterlimit="10" stroke-linecap="round" stroke-linejoin="round"/>
<path d="M20.8475 4.6148L20.8475 4.87506L20.866 4.89735L20.881 4.91231L20.8958 4.9198" stroke="#140B0A" stroke-width="0.1" stroke-miterlimit="10" stroke-linecap="round" stroke-linejoin="round"/>
<path d="M20.8958 4.55895L20.881 4.55895L20.8475 4.58872L20.8475 4.61475" stroke="#140B0A" stroke-width="0.1" stroke-miterlimit="10" stroke-linecap="round" stroke-linejoin="round"/>
<path d="M21 4.57391L20.8959 4.55894" stroke="#140B0A" stroke-width="0.1" stroke-miterlimit="10" stroke-linecap="round" stroke-linejoin="round"/>
<path d="M21 4.96057L20.8959 4.91974" stroke="#140B0A" stroke-width="0.1" stroke-miterlimit="10" stroke-linecap="round" stroke-linejoin="round"/>
<path d="M18.1178 4.29114L18.1401 4.29114L18.155 4.27634L18.1661 4.2578L18.1736 4.23534" stroke="#140B0A" stroke-width="0.1" stroke-miterlimit="10" stroke-linecap="round" stroke-linejoin="round"/>
<path d="M18.0211 4.27634L18.1178 4.29114" stroke="#140B0A" stroke-width="0.1" stroke-miterlimit="10" stroke-linecap="round" stroke-linejoin="round"/>
<path d="M18.274 2.55819L18.2257 2.55819L18.1811 2.56551L18.1401 2.59902L18.1104 2.63627L18.0918 2.6919L18.0323 3.10848L18.021 3.17908" stroke="#140B0A" stroke-width="0.1" stroke-miterlimit="10" stroke-linecap="round" stroke-linejoin="round"/>
<path d="M18.274 2.5582L20.7397 3.1272" stroke="#140B0A" stroke-width="0.1" stroke-miterlimit="10" stroke-linecap="round" stroke-linejoin="round"/>
<path d="M20.9256 3.33911L20.9108 3.28332L20.881 3.22752L20.8402 3.17921L20.7917 3.14196L20.7397 3.12716" stroke="#140B0A" stroke-width="0.1" stroke-miterlimit="10" stroke-linecap="round" stroke-linejoin="round"/>
<path d="M20.9256 3.33913L20.9889 3.78531L20.9999 3.85608" stroke="#140B0A" stroke-width="0.1" stroke-miterlimit="10" stroke-linecap="round" stroke-linejoin="round"/>
<path d="M18.0211 3.88946L7.25489 8.73895" stroke="#140B0A" stroke-width="0.1" stroke-miterlimit="10" stroke-linecap="round" stroke-linejoin="round"/>
<path d="M18.0211 4.27636L7.25489 9.12586L18.0211 4.27636Z" stroke="#140B0A" stroke-width="0.1" stroke-miterlimit="10" stroke-linecap="round" stroke-linejoin="round"/>
<path d="M18.155 2.58412L7.38874 7.42987" stroke="#140B0A" stroke-width="0.1" stroke-miterlimit="10" stroke-linecap="round" stroke-linejoin="round"/>
<path d="M20.8327 6.34405L10.0627 11.1935" stroke="#140B0A" stroke-width="0.1" stroke-miterlimit="10" stroke-linecap="round" stroke-linejoin="round"/>
<path d="M21 4.57391L20.8476 4.63702" stroke="#140B0A" stroke-width="0.1" stroke-miterlimit="10" stroke-linecap="round" stroke-linejoin="round"/>
<path d="M18.1326 3.95275L7.36266 8.80225" stroke="#140B0A" stroke-width="0.1" stroke-miterlimit="10" stroke-linecap="round" stroke-linejoin="round"/>
<mask id="path-26-inside-1" fill="white">
<path fill-rule="evenodd" clip-rule="evenodd" d="M16.898 1.04083L16.898 1.01498L16.8907 1.01498C16.8534 1.01107 16.8125 1.01107 16.7789 1.00001L16.7492 1.00001L16.898 1.04083Z"/>
</mask>
<path fill-rule="evenodd" clip-rule="evenodd" d="M16.898 1.04083L16.898 1.01498L16.8907 1.01498C16.8534 1.01107 16.8125 1.01107 16.7789 1.00001L16.7492 1.00001L16.898 1.04083Z" fill="#050404"/>
<path d="M16.898 1.04083L16.8716 1.13727L16.998 1.17195L16.998 1.04083L16.898 1.04083ZM16.898 1.01498L16.998 1.01498L16.998 0.914981L16.898 0.914981L16.898 1.01498ZM16.8907 1.01498L16.8802 1.11498L16.8907 1.11498L16.8907 1.01498ZM16.7789 1.00001L16.8103 0.905045L16.795 0.900009L16.7789 0.900009L16.7789 1.00001ZM16.7492 1.00001L16.7492 0.900009L16.7227 1.09645L16.7492 1.00001ZM16.998 1.04083L16.998 1.01498L16.798 1.01498L16.798 1.04083L16.998 1.04083ZM16.898 0.914981L16.8907 0.914981L16.8907 1.11498L16.898 1.11498L16.898 0.914981ZM16.9011 0.915527C16.8902 0.914374 16.8792 0.913542 16.8697 0.912828C16.8598 0.912078 16.8514 0.911454 16.8432 0.910651C16.8263 0.909 16.8164 0.907078 16.8103 0.905045L16.7476 1.09497C16.775 1.104 16.8023 1.1076 16.8237 1.1097C16.8346 1.11077 16.8455 1.11157 16.8547 1.11226C16.8644 1.113 16.8726 1.11363 16.8803 1.11443L16.9011 0.915527ZM16.7789 0.900009L16.7492 0.900009L16.7492 1.10001L16.7789 1.10001L16.7789 0.900009ZM16.7227 1.09645L16.8716 1.13727L16.9245 0.944394L16.7756 0.903571L16.7227 1.09645Z" fill="#140B0A" mask="url(#path-26-inside-1)"/>
<path d="M17.9824 5.4334L17.9818 5.4334L17.9831 5.44143L17.9966 5.519C17.9965 5.51923 17.9965 5.51946 17.9965 5.5197C17.9958 5.52637 17.9953 5.53524 17.9958 5.54607C17.9968 5.56783 18.0017 5.59703 18.0157 5.63167C18.0438 5.70118 18.1074 5.7891 18.2434 5.88274C18.5131 6.06848 19.0766 6.28297 20.2551 6.42264L20.2608 6.42481C20.2688 6.42772 20.2802 6.43154 20.2948 6.4356C20.3239 6.44372 20.3659 6.45282 20.4187 6.45755C20.43 6.45856 20.4417 6.45937 20.4539 6.45993L16.0482 8.44442L16.0482 8.44443L10.0551 11.142L10.0238 11.1377C9.99429 11.1336 9.95105 11.1273 9.89642 11.1187C9.78715 11.1015 9.6324 11.0753 9.45073 11.0389C9.08704 10.9662 8.61694 10.8534 8.18816 10.693C7.75701 10.5317 7.37726 10.3256 7.18423 10.0714C7.08895 9.94589 7.04048 9.81044 7.0516 9.66265C7.0626 9.51627 7.13252 9.35141 7.2858 9.16674L11.8421 7.11473L11.8216 7.06914L11.8421 7.11473L17.9719 4.3534L17.9824 5.4334Z" fill="white" stroke="#140B0A" stroke-width="0.1"/>
<path d="M18.0472 5.51847C18.0472 5.51847 17.9059 6.09495 20.2674 6.37375C20.2674 6.37375 20.4943 6.47429 20.8327 6.34416L16.0687 8.49002L10.0627 11.1935C10.0627 11.1935 5.95316 10.673 7.2548 9.12587L11.8216 7.06914L18.0212 4.27637L18.0324 5.43291L18.0472 5.51847Z" stroke="#140B0A" stroke-width="0.1" stroke-miterlimit="10"/>
<path d="M17.8722 12.4435L17.8722 12.9509" stroke="#140B0A" stroke-width="0.1" stroke-miterlimit="10" stroke-linecap="round" stroke-linejoin="round"/>
<path d="M20 14.481L20 13.716" stroke="#140B0A" stroke-width="0.1" stroke-miterlimit="10" stroke-linecap="round" stroke-linejoin="round"/>
<path d="M20 13.4398L20 12.9271" stroke="#140B0A" stroke-width="0.1" stroke-miterlimit="10" stroke-linecap="round" stroke-linejoin="round"/>
<path d="M17.8722 13.9976L17.8722 13.2273" stroke="#140B0A" stroke-width="0.1" stroke-miterlimit="10" stroke-linecap="round" stroke-linejoin="round"/>
<path d="M18.0821 14.3403L18.2894 14.4359L18.5019 14.5183L18.7223 14.5926L18.9348 14.6484L19.15 14.6883L19.3678 14.7174L19.583 14.7333L19.7902 14.728C19.8911 14.7254 19.9442 14.6802 19.9761 14.5873L19.9921 14.5369L20 14.481" stroke="#140B0A" stroke-width="0.1" stroke-miterlimit="10" stroke-linecap="round" stroke-linejoin="round"/>
<path d="M17.8722 13.9976L17.8802 14.0534L17.8908 14.1145L17.9174 14.1703L17.9466 14.2207L17.9864 14.2713L18.0316 14.3111L18.0821 14.3403" stroke="#140B0A" stroke-width="0.1" stroke-miterlimit="10" stroke-linecap="round" stroke-linejoin="round"/>
<path d="M17.9811 13.1979L17.9811 13.0306L17.9679 12.9961L17.9572 12.9854L17.9413 12.9722L17.8723 12.9509" stroke="#140B0A" stroke-width="0.1" stroke-miterlimit="10" stroke-linecap="round" stroke-linejoin="round"/>
<path d="M19.8911 13.469L19.8911 13.6549L19.9043 13.6708L19.915 13.6815L19.9256 13.6868" stroke="#140B0A" stroke-width="0.1" stroke-miterlimit="10" stroke-linecap="round" stroke-linejoin="round"/>
<path d="M19.9256 13.4291L19.915 13.4291L19.8911 13.4503L19.8911 13.4689" stroke="#140B0A" stroke-width="0.1" stroke-miterlimit="10" stroke-linecap="round" stroke-linejoin="round"/>
<path d="M20 13.4398L19.9256 13.4291" stroke="#140B0A" stroke-width="0.1" stroke-miterlimit="10" stroke-linecap="round" stroke-linejoin="round"/>
<path d="M20 13.716L19.9256 13.6868" stroke="#140B0A" stroke-width="0.1" stroke-miterlimit="10" stroke-linecap="round" stroke-linejoin="round"/>
<path d="M17.9413 13.2378L17.9572 13.2378L17.9679 13.2272L17.9758 13.214L17.9811 13.1979" stroke="#140B0A" stroke-width="0.1" stroke-miterlimit="10" stroke-linecap="round" stroke-linejoin="round"/>
<path d="M17.8722 13.2272L17.9413 13.2378" stroke="#140B0A" stroke-width="0.1" stroke-miterlimit="10" stroke-linecap="round" stroke-linejoin="round"/>
<path d="M18.0529 12L18.0184 12L17.9865 12.0052L17.9572 12.0292L17.936 12.0558L17.9227 12.0955L17.8802 12.3931L17.8722 12.4435" stroke="#140B0A" stroke-width="0.1" stroke-miterlimit="10" stroke-linecap="round" stroke-linejoin="round"/>
<path d="M18.0529 12L19.8141 12.4064" stroke="#140B0A" stroke-width="0.1" stroke-miterlimit="10" stroke-linecap="round" stroke-linejoin="round"/>
<path d="M19.9468 12.5578L19.9363 12.5179L19.915 12.4781L19.8858 12.4436L19.8512 12.417L19.814 12.4064" stroke="#140B0A" stroke-width="0.1" stroke-miterlimit="10" stroke-linecap="round" stroke-linejoin="round"/>
<path d="M19.9468 12.5578L19.992 12.8765L19.9999 12.9271" stroke="#140B0A" stroke-width="0.1" stroke-miterlimit="10" stroke-linecap="round" stroke-linejoin="round"/>
<path d="M17.8722 12.9509L10.1821 16.4148" stroke="#140B0A" stroke-width="0.1" stroke-miterlimit="10" stroke-linecap="round" stroke-linejoin="round"/>
<path d="M17.8722 13.2272L10.1821 16.6912L17.8722 13.2272Z" stroke="#140B0A" stroke-width="0.1" stroke-miterlimit="10" stroke-linecap="round" stroke-linejoin="round"/>
<path d="M17.9678 12.0185L10.2777 15.4797" stroke="#140B0A" stroke-width="0.1" stroke-miterlimit="10" stroke-linecap="round" stroke-linejoin="round"/>
<path d="M19.8805 14.7042L12.1876 18.1681" stroke="#140B0A" stroke-width="0.1" stroke-miterlimit="10" stroke-linecap="round" stroke-linejoin="round"/>
<path d="M20 13.4398L19.8911 13.4849" stroke="#140B0A" stroke-width="0.1" stroke-miterlimit="10" stroke-linecap="round" stroke-linejoin="round"/>
<path d="M17.9519 12.9961L10.2591 16.46" stroke="#140B0A" stroke-width="0.1" stroke-miterlimit="10" stroke-linecap="round" stroke-linejoin="round"/>
<path d="M13.4645 15.2677L13.4645 15.2677L17.823 13.3043L17.8303 14.0538L17.8296 14.0538L17.831 14.0619L17.8403 14.1153C17.8398 14.1205 17.8395 14.1271 17.8399 14.1348C17.8406 14.1519 17.8444 14.1744 17.8551 14.2007C17.8765 14.2535 17.924 14.3183 18.0229 14.3864C18.2183 14.521 18.6233 14.6744 19.4645 14.7743L19.4671 14.7753C19.4731 14.7775 19.4816 14.7803 19.4924 14.7833C19.5083 14.7877 19.5293 14.7925 19.5547 14.7961L16.4571 16.1914L16.4571 16.1914L12.1801 18.1166L12.1619 18.1141C12.1408 18.1111 12.11 18.1066 12.0711 18.1005C11.9932 18.0883 11.8828 18.0695 11.7533 18.0436C11.4939 17.9918 11.1589 17.9114 10.8537 17.7972C10.5461 17.6821 10.2782 17.536 10.143 17.3579C10.0766 17.2705 10.0435 17.1771 10.0511 17.0756C10.0586 16.9756 10.1063 16.8614 10.213 16.732L13.4645 15.2677Z" fill="white" stroke="#140B0A" stroke-width="0.1"/>
<path d="M17.8909 14.1145C17.8909 14.1145 17.7899 14.5262 19.4767 14.7254C19.4767 14.7254 19.6388 14.7972 19.8805 14.7042L16.4777 16.237L12.1876 18.168C12.1876 18.168 9.25224 17.7962 10.182 16.6912L13.444 15.2221L17.8723 13.2272L17.8803 14.0533L17.8909 14.1145Z" stroke="#140B0A" stroke-width="0.1" stroke-miterlimit="10"/>
<path d="M26.8722 12.4435L26.8722 12.9509" stroke="#140B0A" stroke-width="0.1" stroke-miterlimit="10" stroke-linecap="round" stroke-linejoin="round"/>
<path d="M29 14.481L29 13.716" stroke="#140B0A" stroke-width="0.1" stroke-miterlimit="10" stroke-linecap="round" stroke-linejoin="round"/>
<path d="M29 13.4398L29 12.9271" stroke="#140B0A" stroke-width="0.1" stroke-miterlimit="10" stroke-linecap="round" stroke-linejoin="round"/>
<path d="M26.8722 13.9976L26.8722 13.2273" stroke="#140B0A" stroke-width="0.1" stroke-miterlimit="10" stroke-linecap="round" stroke-linejoin="round"/>
<path d="M27.0821 14.3403L27.2894 14.4359L27.5019 14.5183L27.7223 14.5926L27.9348 14.6484L28.15 14.6883L28.3678 14.7174L28.583 14.7333L28.7902 14.728C28.8911 14.7254 28.9442 14.6802 28.9761 14.5873L28.9921 14.5369L29 14.481" stroke="#140B0A" stroke-width="0.1" stroke-miterlimit="10" stroke-linecap="round" stroke-linejoin="round"/>
<path d="M26.8722 13.9976L26.8802 14.0534L26.8908 14.1145L26.9174 14.1703L26.9466 14.2207L26.9864 14.2713L27.0316 14.3111L27.0821 14.3403" stroke="#140B0A" stroke-width="0.1" stroke-miterlimit="10" stroke-linecap="round" stroke-linejoin="round"/>
<path d="M26.9811 13.1979L26.9811 13.0306L26.9679 12.9961L26.9572 12.9854L26.9413 12.9722L26.8723 12.9509" stroke="#140B0A" stroke-width="0.1" stroke-miterlimit="10" stroke-linecap="round" stroke-linejoin="round"/>
<path d="M28.8911 13.469L28.8911 13.6549L28.9043 13.6708L28.915 13.6815L28.9256 13.6868" stroke="#140B0A" stroke-width="0.1" stroke-miterlimit="10" stroke-linecap="round" stroke-linejoin="round"/>
<path d="M28.9256 13.4291L28.915 13.4291L28.8911 13.4503L28.8911 13.4689" stroke="#140B0A" stroke-width="0.1" stroke-miterlimit="10" stroke-linecap="round" stroke-linejoin="round"/>
<path d="M29 13.4398L28.9256 13.4291" stroke="#140B0A" stroke-width="0.1" stroke-miterlimit="10" stroke-linecap="round" stroke-linejoin="round"/>
<path d="M29 13.716L28.9256 13.6868" stroke="#140B0A" stroke-width="0.1" stroke-miterlimit="10" stroke-linecap="round" stroke-linejoin="round"/>
<path d="M26.9413 13.2378L26.9572 13.2378L26.9679 13.2272L26.9758 13.214L26.9811 13.1979" stroke="#140B0A" stroke-width="0.1" stroke-miterlimit="10" stroke-linecap="round" stroke-linejoin="round"/>
<path d="M26.8722 13.2272L26.9413 13.2378" stroke="#140B0A" stroke-width="0.1" stroke-miterlimit="10" stroke-linecap="round" stroke-linejoin="round"/>
<path d="M27.0529 12L27.0184 12L26.9865 12.0052L26.9572 12.0292L26.936 12.0558L26.9227 12.0955L26.8802 12.3931L26.8722 12.4435" stroke="#140B0A" stroke-width="0.1" stroke-miterlimit="10" stroke-linecap="round" stroke-linejoin="round"/>
<path d="M27.0529 12L28.8141 12.4064" stroke="#140B0A" stroke-width="0.1" stroke-miterlimit="10" stroke-linecap="round" stroke-linejoin="round"/>
<path d="M28.9468 12.5578L28.9363 12.5179L28.915 12.4781L28.8858 12.4436L28.8512 12.417L28.814 12.4064" stroke="#140B0A" stroke-width="0.1" stroke-miterlimit="10" stroke-linecap="round" stroke-linejoin="round"/>
<path d="M28.9468 12.5578L28.992 12.8765L28.9999 12.9271" stroke="#140B0A" stroke-width="0.1" stroke-miterlimit="10" stroke-linecap="round" stroke-linejoin="round"/>
<path d="M26.8722 12.9509L19.1821 16.4148" stroke="#140B0A" stroke-width="0.1" stroke-miterlimit="10" stroke-linecap="round" stroke-linejoin="round"/>
<path d="M26.8722 13.2272L19.1821 16.6912L26.8722 13.2272Z" stroke="#140B0A" stroke-width="0.1" stroke-miterlimit="10" stroke-linecap="round" stroke-linejoin="round"/>
<path d="M26.9678 12.0185L19.2777 15.4797" stroke="#140B0A" stroke-width="0.1" stroke-miterlimit="10" stroke-linecap="round" stroke-linejoin="round"/>
<path d="M28.8805 14.7042L21.1876 18.1681" stroke="#140B0A" stroke-width="0.1" stroke-miterlimit="10" stroke-linecap="round" stroke-linejoin="round"/>
<path d="M29 13.4398L28.8911 13.4849" stroke="#140B0A" stroke-width="0.1" stroke-miterlimit="10" stroke-linecap="round" stroke-linejoin="round"/>
<path d="M26.9519 12.9961L19.2591 16.46" stroke="#140B0A" stroke-width="0.1" stroke-miterlimit="10" stroke-linecap="round" stroke-linejoin="round"/>
<path d="M22.4645 15.2677L22.4645 15.2677L26.823 13.3043L26.8303 14.0538L26.8296 14.0538L26.831 14.0619L26.8403 14.1153C26.8398 14.1205 26.8395 14.1271 26.8399 14.1348C26.8406 14.1519 26.8444 14.1744 26.8551 14.2007C26.8765 14.2535 26.924 14.3183 27.0229 14.3864C27.2183 14.521 27.6233 14.6744 28.4645 14.7743L28.4671 14.7753C28.4731 14.7775 28.4816 14.7803 28.4924 14.7833C28.5083 14.7877 28.5293 14.7925 28.5547 14.7961L25.4571 16.1914L25.4571 16.1914L21.1801 18.1166L21.1619 18.1141C21.1408 18.1111 21.11 18.1066 21.0711 18.1005C20.9932 18.0883 20.8828 18.0695 20.7533 18.0436C20.4939 17.9918 20.1589 17.9114 19.8537 17.7972C19.5461 17.6821 19.2782 17.536 19.143 17.3579C19.0766 17.2705 19.0435 17.1771 19.0511 17.0756C19.0586 16.9756 19.1063 16.8614 19.213 16.732L22.4645 15.2677Z" fill="white" stroke="#140B0A" stroke-width="0.1"/>
<path d="M26.8909 14.1145C26.8909 14.1145 26.7899 14.5262 28.4767 14.7254C28.4767 14.7254 28.6388 14.7972 28.8805 14.7042L25.4777 16.237L21.1876 18.168C21.1876 18.168 18.2522 17.7962 19.182 16.6912L22.444 15.2221L26.8723 13.2272L26.8803 14.0533L26.8909 14.1145Z" stroke="#140B0A" stroke-width="0.1" stroke-miterlimit="10"/>
<path d="M8.87222 12.4435L8.87222 12.9509" stroke="#140B0A" stroke-width="0.1" stroke-miterlimit="10" stroke-linecap="round" stroke-linejoin="round"/>
<path d="M11 14.481L11 13.716" stroke="#140B0A" stroke-width="0.1" stroke-miterlimit="10" stroke-linecap="round" stroke-linejoin="round"/>
<path d="M11 13.4398L11 12.9271" stroke="#140B0A" stroke-width="0.1" stroke-miterlimit="10" stroke-linecap="round" stroke-linejoin="round"/>
<path d="M8.87222 13.9976L8.87222 13.2273" stroke="#140B0A" stroke-width="0.1" stroke-miterlimit="10" stroke-linecap="round" stroke-linejoin="round"/>
<path d="M9.08208 14.3403L9.28936 14.4359L9.50187 14.5183L9.72228 14.5926L9.93478 14.6484L10.15 14.6883L10.3678 14.7174L10.583 14.7333L10.7902 14.728C10.8911 14.7254 10.9442 14.6802 10.9761 14.5873L10.9921 14.5369L11 14.481" stroke="#140B0A" stroke-width="0.1" stroke-miterlimit="10" stroke-linecap="round" stroke-linejoin="round"/>
<path d="M8.87223 13.9976L8.88025 14.0534L8.89082 14.1145L8.91743 14.1703L8.94659 14.2207L8.98644 14.2713L9.03164 14.3111L9.08206 14.3403" stroke="#140B0A" stroke-width="0.1" stroke-miterlimit="10" stroke-linecap="round" stroke-linejoin="round"/>
<path d="M8.98114 13.1979L8.98114 13.0306L8.9679 12.9961L8.95721 12.9854L8.94129 12.9722L8.87227 12.9509" stroke="#140B0A" stroke-width="0.1" stroke-miterlimit="10" stroke-linecap="round" stroke-linejoin="round"/>
<path d="M10.8911 13.469L10.8911 13.6549L10.9043 13.6708L10.915 13.6815L10.9256 13.6868" stroke="#140B0A" stroke-width="0.1" stroke-miterlimit="10" stroke-linecap="round" stroke-linejoin="round"/>
<path d="M10.9256 13.4291L10.915 13.4291L10.8911 13.4503L10.8911 13.4689" stroke="#140B0A" stroke-width="0.1" stroke-miterlimit="10" stroke-linecap="round" stroke-linejoin="round"/>
<path d="M11 13.4398L10.9256 13.4291" stroke="#140B0A" stroke-width="0.1" stroke-miterlimit="10" stroke-linecap="round" stroke-linejoin="round"/>
<path d="M11 13.716L10.9256 13.6868" stroke="#140B0A" stroke-width="0.1" stroke-miterlimit="10" stroke-linecap="round" stroke-linejoin="round"/>
<path d="M8.94129 13.2378L8.95721 13.2378L8.9679 13.2272L8.97579 13.214L8.98114 13.1979" stroke="#140B0A" stroke-width="0.1" stroke-miterlimit="10" stroke-linecap="round" stroke-linejoin="round"/>
<path d="M8.87224 13.2272L8.94125 13.2378" stroke="#140B0A" stroke-width="0.1" stroke-miterlimit="10" stroke-linecap="round" stroke-linejoin="round"/>
<path d="M9.05286 12L9.01835 12L8.98652 12.0052L8.95724 12.0292L8.93597 12.0558L8.92273 12.0955L8.8802 12.3931L8.87218 12.4435" stroke="#140B0A" stroke-width="0.1" stroke-miterlimit="10" stroke-linecap="round" stroke-linejoin="round"/>
<path d="M9.05287 12L10.8141 12.4064" stroke="#140B0A" stroke-width="0.1" stroke-miterlimit="10" stroke-linecap="round" stroke-linejoin="round"/>
<path d="M10.9468 12.5578L10.9363 12.5179L10.915 12.4781L10.8858 12.4436L10.8512 12.417L10.814 12.4064" stroke="#140B0A" stroke-width="0.1" stroke-miterlimit="10" stroke-linecap="round" stroke-linejoin="round"/>
<path d="M10.9468 12.5578L10.992 12.8765L10.9999 12.9271" stroke="#140B0A" stroke-width="0.1" stroke-miterlimit="10" stroke-linecap="round" stroke-linejoin="round"/>
<path d="M8.87222 12.9509L1.18207 16.4148" stroke="#140B0A" stroke-width="0.1" stroke-miterlimit="10" stroke-linecap="round" stroke-linejoin="round"/>
<path d="M8.87222 13.2272L1.18207 16.6912L8.87222 13.2272Z" stroke="#140B0A" stroke-width="0.1" stroke-miterlimit="10" stroke-linecap="round" stroke-linejoin="round"/>
<path d="M8.96783 12.0185L1.27767 15.4797" stroke="#140B0A" stroke-width="0.1" stroke-miterlimit="10" stroke-linecap="round" stroke-linejoin="round"/>
<path d="M10.8805 14.7042L3.18763 18.1681" stroke="#140B0A" stroke-width="0.1" stroke-miterlimit="10" stroke-linecap="round" stroke-linejoin="round"/>
<path d="M11 13.4398L10.8911 13.4849" stroke="#140B0A" stroke-width="0.1" stroke-miterlimit="10" stroke-linecap="round" stroke-linejoin="round"/>
<path d="M8.9519 12.9961L1.25907 16.46" stroke="#140B0A" stroke-width="0.1" stroke-miterlimit="10" stroke-linecap="round" stroke-linejoin="round"/>
<path d="M4.4645 15.2677L4.46451 15.2677L8.82301 13.3043L8.83028 14.0538L8.82962 14.0538L8.83101 14.0619L8.84026 14.1153C8.83977 14.1205 8.83951 14.1271 8.83986 14.1348C8.84064 14.1519 8.84444 14.1744 8.85509 14.2007C8.87648 14.2535 8.92403 14.3183 9.02286 14.3864C9.2183 14.521 9.62326 14.6744 10.4645 14.7743L10.4671 14.7753C10.4731 14.7775 10.4816 14.7803 10.4924 14.7833C10.5083 14.7877 10.5293 14.7925 10.5547 14.7961L7.45713 16.1914L7.45712 16.1914L3.18011 18.1166L3.16186 18.1141C3.14083 18.1111 3.11001 18.1066 3.07107 18.1005C2.99318 18.0883 2.88284 18.0695 2.75331 18.0436C2.49389 17.9918 2.15894 17.9114 1.85367 17.7972C1.54605 17.6821 1.2782 17.536 1.14295 17.3579C1.07657 17.2705 1.04346 17.1771 1.05108 17.0756C1.05861 16.9756 1.10626 16.8614 1.21302 16.732L4.4645 15.2677Z" fill="white" stroke="#140B0A" stroke-width="0.1"/>
<path d="M8.89085 14.1145C8.89085 14.1145 8.78988 14.5262 10.4767 14.7254C10.4767 14.7254 10.6388 14.7972 10.8805 14.7042L7.47765 16.237L3.18763 18.168C3.18763 18.168 0.252242 17.7962 1.18198 16.6912L4.44397 15.2221L8.87226 13.2272L8.88028 14.0533L8.89085 14.1145Z" stroke="#140B0A" stroke-width="0.1" stroke-miterlimit="10"/>
</svg>
