<svg width="30" height="30" viewBox="0 0 30 30" fill="none" xmlns="http://www.w3.org/2000/svg">
<rect width="30" height="30" fill="white"/>
<path d="M30 30H22.5H15H7.5H0V22.5003V15.0005V7.49975V0H7.5H15H22.5H30V7.49975V14.9995V22.4992V30ZM0.252287 29.7477H7.62614H15H22.3739H29.7477V22.3741V15.0005V7.62589V0.252279H22.3739H15H7.62614H0.252287V7.62589V14.9995V22.3731V29.7477Z" fill="#4D4D4D"/>
<path d="M23.461 12.043H22.717H21.973H21.229H20.485V11.987V11.931V11.876V11.82L21.112 10.875L21.739 9.93001L22.366 8.98501L22.993 8.04001H22.395H21.797H21.197H20.599V7.97001V7.90001V7.83001V7.76001H21.298H21.997H22.696H23.395V7.81601V7.87201V7.92601V7.98201L22.767 8.92701L22.139 9.87201L21.511 10.817L20.883 11.762H21.528H22.173H22.818H23.463V11.832V11.902V11.972V12.043H23.461Z" fill="#4D4D4D"/>
<path d="M19.119 14.604H18.623H18.127H17.631H17.135V14.567V14.53V14.493V14.456L17.553 13.826L17.971 13.196L18.389 12.566L18.807 11.936H18.407H18.008H17.609H17.21V11.889V11.842V11.796V11.749H17.676H18.142H18.608H19.074V11.786V11.823V11.86V11.897L18.655 12.527L18.236 13.157L17.817 13.787L17.398 14.417H17.828H18.258H18.688H19.118V14.464V14.511V14.558V14.604H19.119Z" fill="#4D4D4D"/>
<path d="M10.196 4C9.303 4.259 8.407 4.728 7.565 5.368C6.723 6.008 5.935 6.821 5.259 7.766C4.583 8.711 4.018 9.789 3.622 10.96C3.226 12.131 3 13.396 3 14.716C3 16.228 3.297 17.667 3.835 18.977C4.372 20.287 5.15 21.466 6.111 22.457C7.072 23.447 8.217 24.249 9.487 24.803C10.757 25.357 12.155 25.663 13.622 25.663C14.629 25.663 15.603 25.518 16.526 25.248C17.448 24.978 18.319 24.582 19.121 24.079C19.922 23.576 20.654 22.967 21.298 22.271C21.942 21.575 22.498 20.791 22.947 19.939C22.964 19.906 22.982 19.873 22.999 19.84C23.016 19.807 23.033 19.773 23.05 19.74C23.067 19.707 23.083 19.673 23.1 19.639C23.116 19.605 23.133 19.572 23.149 19.538C22.974 19.575 22.797 19.609 22.619 19.637C22.441 19.666 22.261 19.69 22.08 19.709C21.899 19.728 21.716 19.743 21.533 19.753C21.349 19.763 21.164 19.768 20.978 19.768C20.334 19.768 19.645 19.729 18.942 19.647C18.239 19.565 17.522 19.438 16.822 19.263C16.122 19.088 15.439 18.864 14.804 18.586C14.169 18.308 13.583 17.977 13.076 17.587C12.428 17.088 11.879 16.506 11.42 15.859C10.961 15.212 10.592 14.501 10.305 13.745C10.017 12.989 9.811 12.188 9.676 11.361C9.541 10.534 9.478 9.682 9.478 8.824C9.478 8.405 9.495 8.018 9.525 7.648C9.556 7.278 9.6 6.926 9.656 6.577C9.712 6.228 9.779 5.883 9.854 5.527C9.929 5.172 10.013 4.806 10.102 4.416C10.11 4.382 10.118 4.348 10.125 4.314C10.132 4.28 10.141 4.245 10.149 4.211C10.157 4.176 10.165 4.141 10.173 4.106C10.18 4.071 10.188 4.036 10.196 4Z" stroke="#4D4D4D" stroke-width="0.24" stroke-miterlimit="10"/>
</svg>
