<svg width="30" height="30" viewBox="0 0 30 30" fill="none" xmlns="http://www.w3.org/2000/svg">
<rect width="30" height="30" fill="white"/>
<path d="M30 30H22.5H15H7.5H0V22.5003V15.0005V7.49975V0H7.5H15H22.5H30V7.49975V14.9995V22.4992V30ZM0.252287 29.7477H7.62614H15H22.3739H29.7477V22.3741V15.0005V7.62589V0.252279H22.3739H15H7.62614H0.252287V7.62589V14.9995V22.3731V29.7477Z" fill="#4D4D4D"/>
<path d="M21.0849 9H17.1287H13.1726H9.21743H5.26132C5.09375 9 4.9308 9.03867 4.78073 9.10864C4.63066 9.17861 4.4944 9.27896 4.37839 9.40141C4.26239 9.52386 4.16848 9.66933 4.10219 9.82768C4.03591 9.98604 4 10.1591 4 10.3377V12.6689V15V17.3311V19.6623C4 19.8409 4.03683 20.013 4.10219 20.1723C4.16756 20.3316 4.26239 20.4761 4.37839 20.5986C4.4944 20.721 4.63066 20.8214 4.78073 20.8914C4.9308 20.9613 5.09283 21 5.26132 21H9.21743H13.1735H17.1297H21.0858C21.2533 21 21.4163 20.9613 21.5664 20.8914C21.7164 20.8214 21.8527 20.721 21.9687 20.5986C22.0847 20.4761 22.1786 20.3307 22.2449 20.1723C22.3103 20.013 22.3471 19.8409 22.3471 19.6623V17.3376V15.0129V12.6882V10.3635C22.3471 10.1785 22.3112 10.0008 22.2458 9.83873C22.1805 9.67669 22.0865 9.52846 21.9715 9.40417C21.8564 9.27988 21.7201 9.17861 21.57 9.10864C21.42 9.03867 21.2561 9 21.0849 9ZM22.1105 19.688C22.1105 19.8344 22.0801 19.9771 22.0267 20.1079C21.9733 20.2386 21.896 20.3583 21.8021 20.4596C21.7081 20.5608 21.5967 20.6437 21.4752 20.7008C21.3537 20.7579 21.2211 20.7901 21.0849 20.7901H17.1287H13.1726H9.21743H5.26132C5.1223 20.7901 4.9888 20.7588 4.86635 20.7017C4.7439 20.6446 4.63342 20.5636 4.53951 20.4623C4.4456 20.3611 4.37011 20.2423 4.31763 20.1116C4.26515 19.9808 4.23569 19.8381 4.23569 19.688V17.3569V15.0258V12.6946V10.3635C4.23569 10.2171 4.26607 10.0744 4.31947 9.94369C4.37287 9.81295 4.45021 9.69326 4.54412 9.59199C4.63802 9.49072 4.74942 9.40786 4.87095 9.35077C4.99248 9.29369 5.12506 9.26147 5.26132 9.26147H9.21743H13.1735H17.1297H21.0858C21.2248 9.26147 21.3583 9.29277 21.4807 9.34985C21.6032 9.40694 21.7137 9.48795 21.8076 9.58923C21.9015 9.6905 21.977 9.80927 22.0295 9.94C22.0819 10.0707 22.1114 10.2153 22.1114 10.3644V12.6956V15.0267V17.3578V19.688H22.1105Z" fill="#4D4D4D"/>
<path d="M25.3733 12.5998C25.3706 12.597 25.3669 12.5943 25.3614 12.5915C25.3558 12.5888 25.3512 12.586 25.3448 12.5841C25.3383 12.5823 25.331 12.5805 25.3236 12.5786C25.3163 12.5768 25.307 12.5768 25.2978 12.5768C25.2886 12.5768 25.2803 12.5777 25.2721 12.5786C25.2638 12.5795 25.2573 12.5814 25.2509 12.5841C25.2444 12.5869 25.2389 12.5888 25.2343 12.5915C25.2297 12.5943 25.226 12.597 25.2223 12.5998C25.215 12.6072 25.2085 12.6191 25.2049 12.632C25.2012 12.6449 25.1993 12.6606 25.1993 12.6753C25.1993 12.69 25.2012 12.7048 25.2049 12.7186C25.2085 12.7324 25.215 12.7434 25.2223 12.7508C25.4847 13.0132 25.6818 13.3161 25.8125 13.6402C25.9432 13.9642 26.0095 14.3086 26.0095 14.6529C26.0095 14.9972 25.9441 15.3416 25.8125 15.6656C25.6808 15.9897 25.4847 16.2926 25.2223 16.555C25.215 16.5624 25.2085 16.5743 25.2049 16.5872C25.2012 16.6001 25.1993 16.6158 25.1993 16.6305C25.1993 16.6452 25.2012 16.6599 25.2049 16.6738C25.2085 16.6876 25.215 16.6986 25.2223 16.706C25.2251 16.7087 25.2288 16.7115 25.2343 16.7143C25.2389 16.717 25.2444 16.7198 25.2509 16.7216C25.2573 16.7235 25.2647 16.7253 25.2721 16.7272C25.2803 16.7281 25.2886 16.729 25.2978 16.729C25.307 16.729 25.3153 16.7281 25.3236 16.7272C25.3319 16.7262 25.3383 16.7244 25.3448 16.7216C25.3512 16.7189 25.3568 16.717 25.3614 16.7143C25.366 16.7115 25.3697 16.7087 25.3733 16.706C25.5105 16.5688 25.632 16.4206 25.7379 16.2622C25.8438 16.1048 25.9331 15.9372 26.0049 15.7641C26.0767 15.5911 26.132 15.4097 26.1688 15.2237C26.2056 15.0377 26.225 14.8472 26.225 14.6529C26.225 14.4586 26.2056 14.2681 26.1688 14.0821C26.132 13.8961 26.0767 13.7156 26.0049 13.5416C25.9331 13.3676 25.8438 13.201 25.7379 13.0436C25.632 12.8861 25.5105 12.737 25.3733 12.5998Z" fill="#4D4D4D"/>
<path d="M26.2203 11.7767C26.2176 11.774 26.2139 11.7712 26.2093 11.7685C26.2047 11.7657 26.1992 11.7638 26.1927 11.7611C26.1863 11.7583 26.1789 11.7574 26.1715 11.7556C26.1642 11.7537 26.155 11.7537 26.1458 11.7537C26.1366 11.7537 26.1283 11.7546 26.12 11.7556C26.1117 11.7565 26.1053 11.7583 26.0988 11.7611C26.0924 11.7638 26.0868 11.7657 26.0822 11.7685C26.0776 11.7712 26.074 11.774 26.0703 11.7767C26.0629 11.7841 26.0565 11.7961 26.0528 11.809C26.0491 11.8219 26.0473 11.8375 26.0473 11.8522C26.0473 11.867 26.0491 11.8826 26.0528 11.8955C26.0565 11.9084 26.0629 11.9204 26.0703 11.9277C26.2526 12.11 26.4146 12.308 26.5555 12.517C26.6963 12.7269 26.8151 12.9478 26.9108 13.1789C27.0066 13.41 27.0802 13.6494 27.129 13.8961C27.1778 14.1429 27.2036 14.3951 27.2036 14.652C27.2036 14.9089 27.1788 15.162 27.129 15.4079C27.0802 15.6546 27.0066 15.894 26.9108 16.1251C26.8151 16.3561 26.6963 16.5771 26.5555 16.787C26.4146 16.9969 26.2526 17.194 26.0703 17.3762C26.0629 17.3836 26.0565 17.3956 26.0528 17.4085C26.0491 17.4214 26.0473 17.437 26.0473 17.4517C26.0473 17.4665 26.0491 17.4812 26.0528 17.495C26.0565 17.5088 26.0629 17.5199 26.0703 17.5272C26.073 17.53 26.0767 17.5328 26.0822 17.5355C26.0868 17.5383 26.0924 17.541 26.0988 17.5429C26.1053 17.5447 26.1126 17.5466 26.12 17.5484C26.1283 17.5493 26.1366 17.5503 26.1458 17.5503C26.155 17.5503 26.1633 17.5493 26.1715 17.5484C26.1798 17.5475 26.1863 17.5457 26.1927 17.5429C26.1992 17.5401 26.2047 17.5383 26.2093 17.5355C26.2139 17.5328 26.2176 17.53 26.2213 17.5272C26.6144 17.1341 26.9099 16.6775 27.106 16.1895C27.3021 15.7016 27.4006 15.1814 27.4006 14.6603C27.4006 14.1392 27.3021 13.6181 27.1051 13.1264C26.9081 12.6348 26.6135 12.1763 26.2203 11.7767Z" fill="#4D4D4D"/>
<path d="M24.5493 13.4459C24.5466 13.4432 24.5438 13.4413 24.5392 13.4385C24.5346 13.4358 24.5291 13.4339 24.5226 13.4321C24.5162 13.4303 24.5088 13.4284 24.5015 13.4275C24.4941 13.4266 24.4849 13.4257 24.4766 13.4257C24.4683 13.4257 24.4591 13.4266 24.4508 13.4275C24.4425 13.4284 24.4361 13.4303 24.4297 13.433C24.4232 13.4358 24.4177 13.4376 24.4131 13.4404C24.4085 13.4432 24.4048 13.4459 24.4011 13.4487C24.3984 13.4514 24.3956 13.4551 24.3928 13.4606C24.3901 13.4662 24.3873 13.4708 24.3855 13.4772C24.3836 13.4837 24.3818 13.491 24.3799 13.4984C24.3781 13.5058 24.3781 13.515 24.3781 13.5242C24.3781 13.5334 24.379 13.5417 24.3799 13.5499C24.3809 13.5582 24.3827 13.5647 24.3855 13.5711C24.3882 13.5776 24.3901 13.5831 24.3928 13.5877C24.3956 13.5923 24.3984 13.596 24.4011 13.5997C24.5466 13.7451 24.6552 13.9136 24.728 14.0931C24.8007 14.2727 24.8366 14.4642 24.8366 14.6548C24.8366 14.8453 24.8007 15.0368 24.728 15.2164C24.6552 15.3959 24.5466 15.5644 24.4011 15.7098C24.3984 15.7126 24.3956 15.7163 24.3928 15.7218C24.3901 15.7273 24.3873 15.7319 24.3855 15.7384C24.3836 15.7448 24.3818 15.7522 24.3799 15.7596C24.3781 15.7669 24.3781 15.7761 24.3781 15.7853C24.3781 15.7945 24.379 15.8028 24.3799 15.8111C24.3809 15.8194 24.3827 15.8258 24.3855 15.8323C24.3882 15.8387 24.3901 15.8443 24.3928 15.8489C24.3956 15.8535 24.3984 15.8571 24.4011 15.8608C24.4039 15.8636 24.4076 15.8664 24.4131 15.8691C24.4186 15.8719 24.4232 15.8746 24.4297 15.8765C24.4361 15.8783 24.4435 15.8802 24.4508 15.882C24.4582 15.8838 24.4674 15.8838 24.4766 15.8838C24.4858 15.8838 24.4941 15.8829 24.5024 15.882C24.5107 15.8811 24.5171 15.8792 24.5236 15.8765C24.53 15.8737 24.5355 15.8719 24.5401 15.8691C24.5447 15.8664 24.5484 15.8636 24.5521 15.8608C24.7151 15.6979 24.8375 15.5073 24.9195 15.3038C25.0014 15.1004 25.0419 14.8822 25.041 14.664C25.0401 14.4458 24.9995 14.2257 24.9176 14.0195C24.8357 13.8133 24.7123 13.6153 24.5493 13.4459Z" fill="#4D4D4D"/>
<path d="M19.18 12.4957C19.0152 12.3254 18.8338 12.1726 18.6405 12.04C18.4462 11.9074 18.2391 11.7942 18.0227 11.703C17.8064 11.6119 17.5808 11.541 17.3488 11.4941C17.1177 11.4471 16.8802 11.4222 16.6417 11.4222C16.1501 11.4222 15.6815 11.5226 15.2552 11.703C14.8289 11.8835 14.4441 12.145 14.1218 12.4681C13.7996 12.7913 13.5372 13.1752 13.3568 13.6015C13.1763 14.0277 13.076 14.4964 13.076 14.988C13.076 15.1887 13.0935 15.3885 13.1275 15.5855C13.1616 15.7825 13.2122 15.9759 13.2785 16.1646C13.3448 16.3533 13.4267 16.5356 13.5234 16.7106C13.6201 16.8855 13.7324 17.0531 13.8585 17.2105L13.8687 17.2234L13.8788 17.2363L13.8889 17.2492L13.899 17.262V17.2685V17.2749V17.2814V17.2878C13.9156 17.3081 13.9322 17.3274 13.9497 17.3467C13.9672 17.3661 13.9847 17.3845 14.0022 17.4029C14.0196 17.4213 14.0371 17.4388 14.0537 17.4554C14.0703 17.472 14.0869 17.4885 14.1016 17.5033C14.1154 17.5125 14.1274 17.5208 14.1375 17.5281C14.1476 17.5355 14.1577 17.5419 14.166 17.5484C14.1743 17.5548 14.1817 17.5603 14.1881 17.5659C14.1946 17.5714 14.2001 17.576 14.2056 17.5815L14.2167 17.5916L14.2277 17.6018L14.2388 17.6119L14.2498 17.622C14.2618 17.6322 14.2747 17.6432 14.2876 17.6552C14.3004 17.6671 14.3143 17.68 14.3281 17.6938C14.3419 17.7076 14.3557 17.7224 14.3686 17.738C14.3815 17.7537 14.3953 17.7712 14.4072 17.7896C14.4091 17.7905 14.4128 17.7914 14.4174 17.7933C14.422 17.7951 14.4284 17.7979 14.4349 17.8016C14.4413 17.8052 14.4505 17.8089 14.4597 17.8135C14.4689 17.8181 14.4791 17.8237 14.4901 17.8292C14.4984 17.8338 14.5076 17.8384 14.5168 17.8439C14.526 17.8494 14.5343 17.855 14.5435 17.8605C14.5527 17.866 14.561 17.8724 14.5702 17.8789C14.5794 17.8853 14.5877 17.8918 14.596 17.8982C14.5997 17.901 14.6043 17.9047 14.608 17.9074C14.6116 17.9102 14.6162 17.9139 14.6199 17.9166C14.6236 17.9194 14.6282 17.9222 14.6319 17.9249C14.6356 17.9277 14.6402 17.9295 14.6439 17.9323C14.6503 17.936 14.6567 17.9387 14.6632 17.9424C14.6696 17.9461 14.6761 17.9498 14.6834 17.9544C14.6908 17.959 14.6973 17.9627 14.7037 17.9673C14.7101 17.9719 14.7175 17.9765 14.724 17.9811C14.7304 17.9857 14.7378 17.9903 14.7442 17.9949C14.7507 17.9995 14.7571 18.0032 14.7635 18.0069C14.77 18.0105 14.7755 18.0142 14.782 18.017C14.7884 18.0198 14.7939 18.0225 14.7995 18.0244C14.8179 18.0326 14.8354 18.0409 14.8519 18.0501C14.8685 18.0593 14.886 18.0676 14.9026 18.0778C14.9191 18.0879 14.9357 18.098 14.9514 18.1091C14.967 18.1201 14.9836 18.133 14.9992 18.1477C15.0038 18.1496 15.0075 18.1514 15.0121 18.1533C15.0167 18.1551 15.0213 18.1569 15.0259 18.1588C15.0305 18.1606 15.0351 18.1625 15.0397 18.1643C15.0443 18.1661 15.049 18.168 15.0536 18.1698C15.0628 18.1735 15.072 18.1772 15.0812 18.1809C15.0904 18.1846 15.0996 18.1882 15.1079 18.1919C15.1162 18.1956 15.1254 18.1993 15.1337 18.203C15.1419 18.2067 15.1493 18.2103 15.1576 18.214C15.1631 18.2168 15.1686 18.2195 15.1751 18.2223C15.1815 18.2251 15.1871 18.2278 15.1935 18.2306C15.1999 18.2334 15.2064 18.2361 15.2128 18.2389C15.2193 18.2416 15.2266 18.2444 15.2331 18.2472C15.2423 18.2508 15.2515 18.2545 15.2607 18.2582C15.2699 18.2619 15.2791 18.2656 15.2874 18.2693C15.2957 18.2729 15.3049 18.2766 15.3132 18.2803C15.3215 18.284 15.3288 18.2877 15.3371 18.2914C15.3426 18.2941 15.3482 18.2969 15.3546 18.2996C15.3611 18.3024 15.3666 18.3052 15.373 18.3079C15.3795 18.3107 15.3859 18.3134 15.3924 18.3162C15.3988 18.319 15.4062 18.3217 15.4126 18.3245C15.4218 18.3282 15.431 18.3319 15.4402 18.3355C15.4494 18.3392 15.4586 18.3429 15.4669 18.3466C15.4752 18.3503 15.4844 18.354 15.4927 18.3576C15.501 18.3613 15.5084 18.365 15.5167 18.3687L15.5231 18.3705L15.5295 18.3724L15.536 18.3742L15.5424 18.3761C15.5544 18.3807 15.5654 18.3843 15.5747 18.3871C15.5839 18.3899 15.5921 18.3926 15.5995 18.3945C15.6069 18.3963 15.6133 18.3982 15.6207 18.3991C15.6271 18.4 15.6336 18.4009 15.6409 18.4009H15.652H15.663H15.6741H15.6851L15.6953 18.4055L15.7054 18.4101L15.7155 18.4147L15.7256 18.4193C15.7431 18.4239 15.7588 18.4285 15.7726 18.4322C15.7864 18.4359 15.8002 18.4396 15.8122 18.4442C15.8242 18.4488 15.8361 18.4516 15.8472 18.4562C15.8582 18.4608 15.8693 18.4654 15.8803 18.4709C15.8822 18.4709 15.8858 18.4709 15.8895 18.4718C15.8932 18.4727 15.8997 18.4727 15.9061 18.4736C15.9125 18.4746 15.9199 18.4755 15.9273 18.4764C15.9346 18.4773 15.9429 18.4782 15.9512 18.4792C15.9632 18.481 15.9742 18.4829 15.9862 18.4847C15.9972 18.4865 16.0092 18.4884 16.0203 18.4902C16.0313 18.4921 16.0424 18.4948 16.0534 18.4967C16.0645 18.4994 16.0755 18.5013 16.0856 18.504C16.0958 18.5049 16.105 18.5068 16.1142 18.5077C16.1234 18.5086 16.1307 18.5114 16.139 18.5132C16.1473 18.5151 16.1538 18.5169 16.1602 18.5188C16.1666 18.5206 16.1722 18.5224 16.1768 18.5243C16.2145 18.5316 16.2504 18.5372 16.2854 18.5409C16.3204 18.5445 16.3535 18.5473 16.3867 18.5491C16.4198 18.551 16.453 18.5519 16.487 18.5519C16.5211 18.5519 16.5561 18.5519 16.5929 18.5519C16.6297 18.5519 16.6647 18.5519 16.6979 18.5519C16.731 18.5519 16.7632 18.551 16.7936 18.5491C16.824 18.5473 16.8535 18.5455 16.8829 18.5427C16.9115 18.5399 16.94 18.5353 16.9676 18.5298L16.9851 18.527L17.0026 18.5243L17.0201 18.5215L17.0376 18.5188L17.044 18.5169L17.0505 18.5151L17.0569 18.5132L17.0634 18.5114L17.0809 18.5086L17.0984 18.5059L17.1159 18.5031L17.1333 18.5003C17.1444 18.5003 17.1573 18.4994 17.172 18.4976C17.1867 18.4957 17.2033 18.493 17.2199 18.4893C17.2365 18.4856 17.2558 18.481 17.2742 18.4764C17.2926 18.4709 17.312 18.4654 17.3313 18.4589L17.3387 18.4562L17.346 18.4534L17.3534 18.4506L17.3608 18.4479H17.3681H17.3755H17.3828H17.3902C17.393 18.4479 17.3976 18.446 17.4031 18.4442C17.4086 18.4423 17.4151 18.4396 17.4215 18.4359C17.428 18.4322 17.4353 18.4295 17.4427 18.4258C17.4501 18.4221 17.4565 18.4193 17.462 18.4156C17.4795 18.4092 17.4942 18.4046 17.509 18.4C17.5237 18.3954 17.5366 18.3917 17.5486 18.3889C17.5605 18.3862 17.5725 18.3834 17.5836 18.3807C17.5946 18.3788 17.6047 18.377 17.6149 18.3751C17.6195 18.3742 17.625 18.3733 17.6296 18.3724C17.6342 18.3715 17.6388 18.3705 17.6434 18.3696C17.648 18.3687 17.6526 18.3678 17.6563 18.3668C17.6609 18.3659 17.6646 18.3641 17.6683 18.3632C17.6756 18.3595 17.683 18.3558 17.6904 18.3521C17.6977 18.3484 17.7069 18.3448 17.7152 18.3411C17.7235 18.3374 17.7327 18.3337 17.7419 18.33C17.7511 18.3263 17.7603 18.3227 17.7695 18.319C17.776 18.3162 17.7833 18.3134 17.7898 18.3107C17.7962 18.3079 17.8027 18.3052 17.8091 18.3024C17.8156 18.2996 17.822 18.2969 17.8275 18.2941C17.8331 18.2914 17.8395 18.2886 17.845 18.2858C17.8524 18.2821 17.8607 18.2785 17.869 18.2748C17.8772 18.2711 17.8855 18.2674 17.8947 18.2637C17.9039 18.26 17.9122 18.2564 17.9214 18.2527C17.9306 18.249 17.9399 18.2453 17.9491 18.2416C17.9555 18.2389 17.9629 18.2361 17.9693 18.2334C17.9758 18.2306 17.9822 18.2278 17.9886 18.2251C17.9951 18.2223 18.0015 18.2195 18.0071 18.2168C18.0135 18.214 18.019 18.2113 18.0246 18.2085C18.0319 18.2048 18.0402 18.2011 18.0485 18.1974C18.0568 18.1938 18.0651 18.1901 18.0743 18.1864C18.0835 18.1827 18.0918 18.179 18.101 18.1753C18.1102 18.1717 18.1194 18.168 18.1286 18.1643C18.135 18.1615 18.1424 18.1588 18.1488 18.156C18.1553 18.1533 18.1617 18.1505 18.1682 18.1477C18.1746 18.145 18.1811 18.1422 18.1866 18.1394C18.1921 18.1367 18.1986 18.1339 18.2041 18.1312C18.2151 18.1256 18.2253 18.1201 18.2354 18.1155C18.2455 18.1109 18.2538 18.1054 18.263 18.0999C18.2722 18.0943 18.2796 18.0888 18.2879 18.0833C18.2962 18.0778 18.3035 18.0704 18.3109 18.063L18.3164 18.0575L18.3219 18.052L18.3275 18.0465L18.333 18.0409L18.3394 18.0372L18.3459 18.0336L18.3523 18.0299L18.3588 18.0262C18.3781 18.0133 18.3956 18.0013 18.4131 17.9903C18.4296 17.9792 18.4462 17.9691 18.4628 17.9599C18.4794 17.9507 18.495 17.9424 18.5116 17.9341C18.5282 17.9268 18.5457 17.9194 18.5631 17.9139C18.5622 17.9139 18.5622 17.913 18.5631 17.912C18.5641 17.9111 18.5659 17.9084 18.5687 17.9065C18.5714 17.9047 18.5742 17.9019 18.5779 17.8991C18.5816 17.8964 18.5852 17.8936 18.5889 17.8909C18.5972 17.8844 18.6064 17.878 18.6147 17.8715C18.6239 17.8651 18.6322 17.8586 18.6414 17.8531C18.6506 17.8476 18.6589 17.8421 18.6681 17.8365C18.6773 17.831 18.6856 17.8264 18.6948 17.8218C18.6985 17.82 18.7031 17.8172 18.7068 17.8144C18.7105 17.8117 18.7151 17.8089 18.7187 17.8062C18.7224 17.8034 18.727 17.7997 18.7307 17.797C18.7344 17.7942 18.739 17.7905 18.7427 17.7877C18.751 17.7813 18.7602 17.7749 18.7694 17.7684C18.7786 17.762 18.7869 17.7555 18.7961 17.75C18.8053 17.7445 18.8136 17.739 18.8228 17.7334C18.832 17.7279 18.8403 17.7233 18.8495 17.7187C18.8605 17.7104 18.8716 17.7021 18.8835 17.6929C18.8946 17.6837 18.9056 17.6736 18.9167 17.6635C18.9277 17.6533 18.9388 17.6423 18.9489 17.6322C18.96 17.6211 18.971 17.6101 18.9811 17.5999L18.983 17.5981L18.9848 17.5962L18.9867 17.5944L18.9885 17.5926L18.9977 17.5843L19.0069 17.576L19.0161 17.5677L19.0253 17.5594L19.029 17.553L19.0327 17.5465L19.0364 17.5401L19.0401 17.5336L19.0511 17.5244L19.0621 17.5152L19.0732 17.506L19.0842 17.4968C19.1082 17.4729 19.1303 17.4508 19.1524 17.4287C19.1735 17.4066 19.1938 17.3863 19.2131 17.3652C19.2325 17.344 19.2518 17.3237 19.2693 17.3016C19.2877 17.2795 19.3052 17.2574 19.3236 17.2335L19.3255 17.2307L19.3273 17.228L19.3291 17.2252L19.331 17.2225L19.3393 17.2142L19.3476 17.2059L19.3558 17.1976L19.3641 17.1893C19.4866 17.0356 19.5961 16.8708 19.691 16.6977C19.7858 16.5246 19.8668 16.3432 19.9322 16.1563C19.9975 15.9694 20.0473 15.7761 20.0813 15.5791C20.1154 15.383 20.132 15.1823 20.132 14.9815C20.1403 14.7468 20.1264 14.5166 20.0887 14.291C20.0509 14.0655 19.9929 13.8464 19.9119 13.6355C19.8309 13.4247 19.7296 13.2221 19.6072 13.0297C19.4847 12.8373 19.342 12.6633 19.18 12.4957ZM19.0189 17.1129L19.0069 17.1414L18.994 17.17L18.9821 17.1985L18.9701 17.2271L18.9738 17.2335L18.9774 17.2399L18.9811 17.2464L18.9848 17.2528L18.9968 17.2648L19.0088 17.2768L19.0207 17.2887L19.0327 17.3007L19.029 17.3044L19.0253 17.3081L19.0216 17.3118L19.018 17.3154L19.0189 17.3164L19.0198 17.3173L19.0207 17.3182L19.0216 17.3191C19.0207 17.32 19.0198 17.32 19.018 17.321C19.017 17.3219 19.0152 17.3228 19.0143 17.3237C19.0134 17.3247 19.0115 17.3256 19.0097 17.3265C19.0078 17.3274 19.006 17.3283 19.0041 17.3293L18.9793 17.3541L18.9544 17.379L18.9296 17.4038L18.9047 17.4287L18.8918 17.4416L18.8789 17.4545L18.866 17.4674L18.8532 17.4802L18.8403 17.4931L18.8274 17.506L18.8145 17.5189L18.8016 17.5318C18.797 17.5364 18.7906 17.5419 18.785 17.5475C18.7786 17.553 18.7721 17.5576 18.7657 17.5631C18.7592 17.5686 18.7519 17.5732 18.7445 17.5788C18.7372 17.5843 18.7298 17.5889 18.7224 17.5944L18.7169 17.5999L18.7114 17.6055L18.7059 17.611L18.7003 17.6165L18.6874 17.6239L18.6745 17.6312L18.6617 17.6386L18.6488 17.646C18.6423 17.6487 18.635 17.6542 18.6276 17.6598C18.6202 17.6653 18.6119 17.6727 18.6046 17.6791C18.5972 17.6856 18.5898 17.6929 18.5834 17.6994C18.577 17.7058 18.5724 17.7104 18.5687 17.7141C18.5641 17.7187 18.5576 17.7242 18.5521 17.7297C18.5457 17.7353 18.5392 17.7399 18.5328 17.7454C18.5263 17.7509 18.519 17.7555 18.5116 17.761C18.5042 17.7666 18.4969 17.7712 18.4895 17.7767L18.484 17.7822L18.4784 17.7877L18.4729 17.7933L18.4674 17.7988L18.4545 17.8062L18.4416 17.8135L18.4287 17.8209L18.4158 17.8283C18.4122 17.8301 18.4076 17.8329 18.4039 17.8356C18.4002 17.8384 18.3956 17.8411 18.3919 17.8439C18.3882 17.8467 18.3836 17.8504 18.3799 17.8531C18.3763 17.8559 18.3716 17.8596 18.368 17.8623C18.3615 17.8678 18.3542 17.8724 18.3477 17.8771C18.3413 17.8817 18.3339 17.8872 18.3275 17.8918C18.321 17.8964 18.3136 17.901 18.3072 17.9056C18.3008 17.9102 18.2934 17.9139 18.2869 17.9185C18.2777 17.9258 18.2695 17.9314 18.2602 17.9369C18.252 17.9424 18.2437 17.947 18.2354 17.9507C18.2271 17.9544 18.2197 17.9581 18.2124 17.9608C18.205 17.9636 18.1986 17.9664 18.1921 17.9682C18.1765 17.9756 18.1627 17.982 18.1498 17.9875C18.1369 17.9931 18.1249 17.9986 18.1148 18.0032C18.1047 18.0078 18.0936 18.0124 18.0844 18.0161C18.0752 18.0198 18.0651 18.0234 18.0559 18.0271C18.0503 18.029 18.0457 18.0317 18.0402 18.0336C18.0347 18.0354 18.0301 18.0382 18.0246 18.04C18.019 18.0419 18.0144 18.0446 18.0098 18.0465C18.0052 18.0483 17.9997 18.0511 17.9951 18.0529C17.9822 18.0621 17.9684 18.0695 17.9537 18.0759C17.9399 18.0824 17.926 18.087 17.9122 18.0906C17.8984 18.0943 17.8855 18.0971 17.8726 18.0989C17.8598 18.1008 17.8478 18.1026 17.8367 18.1026C17.8312 18.1045 17.8266 18.1072 17.8211 18.1091C17.8156 18.1109 17.81 18.1137 17.8054 18.1155C17.8008 18.1173 17.7944 18.1201 17.7889 18.122C17.7833 18.1238 17.7778 18.1266 17.7723 18.1284C17.7658 18.1312 17.7585 18.1339 17.752 18.1367C17.7456 18.1394 17.7391 18.1422 17.7327 18.145C17.7263 18.1477 17.7198 18.1505 17.7143 18.1533C17.7078 18.156 17.7023 18.1588 17.6968 18.1615C17.6793 18.1707 17.6627 18.1772 17.6462 18.1836C17.6296 18.1901 17.6158 18.1938 17.601 18.1965C17.5863 18.1993 17.5734 18.202 17.5605 18.2039C17.5476 18.2057 17.5357 18.2057 17.5228 18.2067C17.5145 18.2094 17.5071 18.2122 17.4989 18.2149C17.4915 18.2177 17.4832 18.2195 17.4758 18.2214C17.4685 18.2232 17.4611 18.2251 17.4537 18.2269C17.4464 18.2287 17.4399 18.2297 17.4326 18.2315C17.427 18.2324 17.4224 18.2334 17.4169 18.2352C17.4114 18.237 17.4059 18.238 17.4003 18.2389C17.3948 18.2398 17.3884 18.2416 17.3819 18.2435C17.3755 18.2453 17.369 18.2472 17.3626 18.249C17.3469 18.2527 17.3322 18.2564 17.3193 18.2601C17.3064 18.2628 17.2945 18.2656 17.2834 18.2683C17.2724 18.2711 17.2622 18.2729 17.253 18.2748C17.2438 18.2766 17.2346 18.2785 17.2254 18.2794C17.2171 18.2812 17.2098 18.2821 17.2024 18.284C17.195 18.2858 17.1877 18.2867 17.1794 18.2886C17.1711 18.2904 17.1637 18.2923 17.1564 18.2941C17.1481 18.296 17.1407 18.2987 17.1315 18.3015L17.1241 18.3042L17.1168 18.307L17.1094 18.3098L17.102 18.3125H17.0947H17.0873H17.0799H17.0726C17.0652 18.3153 17.056 18.319 17.0468 18.3217C17.0376 18.3245 17.0275 18.3273 17.0173 18.33C17.0072 18.3328 16.9952 18.3346 16.9833 18.3365C16.9713 18.3383 16.9584 18.3392 16.9437 18.3392C16.9336 18.3392 16.9225 18.3392 16.9124 18.3401C16.9023 18.3411 16.8912 18.342 16.8811 18.3429C16.871 18.3438 16.8599 18.3448 16.8489 18.3466C16.8378 18.3475 16.8277 18.3494 16.8166 18.3503C16.801 18.3521 16.7844 18.354 16.7678 18.3558C16.7513 18.3576 16.7347 18.3595 16.7172 18.3604C16.6997 18.3613 16.6822 18.3632 16.6647 18.3641C16.6463 18.365 16.6279 18.365 16.6095 18.365C16.5754 18.365 16.545 18.365 16.5156 18.365C16.4861 18.365 16.4576 18.3641 16.429 18.3622C16.4005 18.3604 16.371 18.3576 16.3407 18.354C16.3093 18.3503 16.2762 18.3448 16.2403 18.3374C16.2394 18.3374 16.2375 18.3374 16.2357 18.3383C16.2339 18.3392 16.2329 18.3383 16.2311 18.3383C16.2292 18.3383 16.2274 18.3383 16.2256 18.3383C16.2237 18.3383 16.2219 18.3383 16.2191 18.3383C16.2127 18.3383 16.2062 18.3383 16.1979 18.3374C16.1897 18.3365 16.1814 18.3355 16.1712 18.3337C16.1611 18.3319 16.151 18.3291 16.1399 18.3263C16.1289 18.3227 16.1169 18.319 16.104 18.3134C16.0958 18.3125 16.0875 18.3116 16.0792 18.3107C16.0709 18.3098 16.0626 18.3088 16.0552 18.307C16.0479 18.3052 16.0396 18.3042 16.0313 18.3033C16.0239 18.3015 16.0157 18.3006 16.0083 18.2987C16.0028 18.2978 15.9982 18.2969 15.9926 18.296C15.9871 18.295 15.9816 18.2941 15.977 18.2932C15.9724 18.2923 15.9659 18.2914 15.9604 18.2914C15.9549 18.2914 15.9484 18.2904 15.942 18.2904C15.9245 18.2904 15.9079 18.2895 15.8914 18.2868C15.8748 18.284 15.8591 18.2812 15.8444 18.2766C15.8297 18.272 15.814 18.2683 15.7993 18.2628C15.7846 18.2582 15.7698 18.2527 15.756 18.2472L15.7487 18.2444L15.7413 18.2416L15.7339 18.2389L15.7266 18.2361C15.7174 18.2352 15.7082 18.2334 15.7008 18.2324C15.6925 18.2306 15.6851 18.2287 15.6778 18.2269C15.6704 18.2251 15.664 18.2232 15.6584 18.2214C15.6529 18.2195 15.6474 18.2177 15.6428 18.2159H15.6354H15.6281H15.6207H15.6152L15.6069 18.2131L15.5986 18.2103L15.5903 18.2076L15.582 18.2048C15.5599 18.1974 15.5406 18.1901 15.5213 18.1827C15.5019 18.1753 15.4853 18.168 15.4688 18.1606C15.4522 18.1533 15.4366 18.1459 15.4218 18.1385C15.4071 18.1312 15.3924 18.1238 15.3776 18.1164L15.3749 18.1146L15.3721 18.1127L15.3693 18.1109L15.3666 18.1091H15.3583H15.35H15.3417H15.3334L15.3187 18.1045L15.304 18.0906L15.2892 18.086L15.2745 18.0814C15.269 18.0787 15.2635 18.0759 15.257 18.0732C15.2506 18.0704 15.2451 18.0676 15.2386 18.0649C15.2322 18.0621 15.2257 18.0593 15.2193 18.0566C15.2128 18.0538 15.2055 18.0511 15.199 18.0483C15.1898 18.0446 15.1806 18.0409 15.1714 18.0372C15.1622 18.0336 15.153 18.0299 15.1447 18.0262C15.1364 18.0225 15.1272 18.0188 15.1189 18.0152C15.1106 18.0115 15.1024 18.0078 15.095 18.0041L15.0885 18.0004L15.0821 17.9967L15.0757 17.9931L15.0692 17.9894L15.0628 17.9848L15.0572 17.9792L15.0517 17.9737L15.0462 17.9682C15.0462 17.9682 15.0453 17.9691 15.0443 17.9691C15.0434 17.9691 15.0434 17.97 15.0425 17.97C15.0416 17.97 15.0407 17.97 15.0407 17.97C15.0397 17.97 15.0388 17.97 15.0379 17.97C15.0342 17.97 15.0305 17.9691 15.025 17.9682C15.0195 17.9673 15.0149 17.9654 15.0084 17.9627C15.002 17.9599 14.9965 17.9571 14.99 17.9535C14.9836 17.9498 14.9762 17.9452 14.9698 17.9397C14.9624 17.936 14.956 17.9314 14.9486 17.9268C14.9412 17.9222 14.9348 17.9176 14.9274 17.913C14.9201 17.9084 14.9136 17.9028 14.9062 17.8982C14.8989 17.8936 14.8924 17.8881 14.8851 17.8826C14.8814 17.8798 14.8768 17.8761 14.8731 17.8734C14.8694 17.8706 14.8648 17.8669 14.8611 17.8642C14.8575 17.8614 14.8529 17.8586 14.8492 17.8559C14.8455 17.8531 14.8409 17.8513 14.8372 17.8485L14.8308 17.8448L14.8243 17.8411L14.8179 17.8375L14.8114 17.8338L14.8059 17.8283L14.8004 17.8227L14.7948 17.8172L14.7893 17.8144C14.781 17.8089 14.7728 17.8034 14.7654 17.7979C14.758 17.7933 14.7507 17.7877 14.7451 17.7831C14.7396 17.7785 14.7332 17.7749 14.7276 17.7703C14.7221 17.7666 14.7175 17.7629 14.7129 17.7592C14.6954 17.7491 14.6798 17.738 14.6641 17.727C14.6485 17.7159 14.6347 17.704 14.6208 17.6929C14.607 17.6819 14.596 17.6708 14.5849 17.6607C14.5739 17.6506 14.5656 17.6414 14.5582 17.6349C14.549 17.6294 14.5407 17.6239 14.5334 17.6183C14.526 17.6128 14.5186 17.6082 14.5122 17.6036C14.5058 17.599 14.5002 17.5944 14.4947 17.5907C14.4892 17.587 14.4846 17.5824 14.48 17.5788C14.4652 17.5695 14.4514 17.5603 14.4395 17.5502C14.4275 17.5401 14.4165 17.53 14.4072 17.5198C14.398 17.5097 14.3888 17.4996 14.3815 17.4913C14.3741 17.4821 14.3677 17.4738 14.3612 17.4664C14.3502 17.4591 14.3391 17.4508 14.3299 17.4425C14.3207 17.4342 14.3115 17.4259 14.3032 17.4167C14.2949 17.4075 14.2876 17.3992 14.2802 17.3909C14.2728 17.3827 14.2664 17.3744 14.2599 17.367C14.2572 17.3642 14.2544 17.3606 14.2517 17.3569C14.2489 17.3532 14.2461 17.3504 14.2434 17.3467C14.2406 17.3431 14.2378 17.3403 14.2342 17.3366C14.2314 17.3329 14.2277 17.3302 14.224 17.3265L14.1927 17.2952L14.1614 17.2639L14.1301 17.2326L14.0988 17.2013L14.1218 17.1626L14.1449 17.1239L14.1679 17.0853L14.1909 17.0466C14.3456 16.8781 14.5177 16.7271 14.7037 16.5964C14.8888 16.4657 15.0885 16.3533 15.2966 16.2631C15.5047 16.1729 15.7238 16.1029 15.9484 16.056C16.1731 16.009 16.4042 15.9851 16.638 15.9851C16.8719 15.9851 17.103 16.009 17.3276 16.056C17.5523 16.1029 17.7714 16.172 17.9794 16.2631C18.1875 16.3543 18.3873 16.4657 18.5724 16.5964C18.7574 16.7271 18.9296 16.8781 19.0852 17.0466L19.0677 17.0632L19.0502 17.0798L19.0327 17.0963L19.0189 17.1129ZM15.3012 14.3969C15.3012 14.2119 15.339 14.036 15.4071 13.8758C15.4752 13.7156 15.5728 13.5711 15.6943 13.4496C15.8159 13.328 15.9604 13.2304 16.1206 13.1623C16.2808 13.0942 16.4567 13.0564 16.6417 13.0564C16.8268 13.0564 17.0026 13.0942 17.1628 13.1623C17.323 13.2304 17.4675 13.328 17.5891 13.4496C17.7106 13.5711 17.8082 13.7156 17.8763 13.8758C17.9445 14.036 17.9822 14.2119 17.9822 14.3969C17.9822 14.582 17.9445 14.7578 17.8763 14.918C17.8082 15.0782 17.7106 15.2228 17.5891 15.3443C17.4675 15.4658 17.323 15.5634 17.1628 15.6315C17.0026 15.6997 16.8268 15.7374 16.6417 15.7374C16.4567 15.7374 16.2808 15.6997 16.1206 15.6315C15.9604 15.5634 15.8159 15.4658 15.6943 15.3443C15.5728 15.2228 15.4752 15.0782 15.4071 14.918C15.339 14.7578 15.3012 14.5811 15.3012 14.3969ZM19.3172 16.9739L19.2767 16.9334L19.2371 16.8938L19.1966 16.8533L19.1561 16.8128C19.052 16.7087 18.9425 16.6111 18.8265 16.52C18.7105 16.4288 18.5908 16.3441 18.4665 16.2677C18.3422 16.1913 18.2142 16.1223 18.0844 16.0615C17.9546 16.0007 17.822 15.9492 17.6894 15.9068L17.6075 15.881L17.5256 15.8553L17.4436 15.8295L17.3617 15.8037L17.4289 15.7503L17.4961 15.6969L17.5633 15.6435L17.6305 15.5901C17.7171 15.5201 17.7953 15.441 17.8625 15.3535C17.9297 15.266 17.9877 15.1712 18.0347 15.069C18.0816 14.9668 18.1175 14.8591 18.1415 14.7468C18.1654 14.6345 18.1783 14.5175 18.1783 14.3978C18.1783 14.1824 18.1341 13.9771 18.0549 13.7902C17.9758 13.6033 17.8616 13.4348 17.7198 13.293C17.578 13.1513 17.4095 13.0371 17.2227 12.9579C17.0358 12.8787 16.8304 12.8345 16.615 12.8345C16.3959 12.8345 16.1887 12.8778 16.0009 12.9552C15.8131 13.0325 15.6455 13.1467 15.5047 13.2866C15.3638 13.4265 15.2506 13.595 15.1732 13.7828C15.0959 13.9707 15.0526 14.1778 15.0526 14.3969C15.0526 14.5138 15.0646 14.628 15.0885 14.7376C15.1125 14.8471 15.1475 14.953 15.1935 15.0534C15.2395 15.1537 15.2975 15.2495 15.3666 15.3397C15.4356 15.4299 15.5148 15.5146 15.606 15.5929L15.6686 15.6472L15.7312 15.7015L15.7938 15.7558L15.8564 15.8102L15.7763 15.8341L15.6962 15.858L15.6161 15.882L15.536 15.9059C15.4025 15.9464 15.2718 15.9961 15.1429 16.0541C15.0149 16.1121 14.8897 16.1793 14.7672 16.2548C14.6448 16.3303 14.526 16.4141 14.4091 16.5071C14.2931 16.6001 14.1798 16.7004 14.0712 16.81L14.0307 16.8505L13.9902 16.891L13.9497 16.9315L13.9092 16.972L13.8788 16.9232L13.8484 16.8744L13.818 16.8256L13.7876 16.7769C13.6993 16.636 13.621 16.4914 13.5529 16.3441C13.4847 16.1968 13.4286 16.0458 13.3835 15.8921C13.3383 15.7383 13.3034 15.5837 13.2803 15.4281C13.2573 15.2725 13.2454 15.115 13.2454 14.9576C13.2518 14.4964 13.3531 14.0572 13.528 13.6567C13.7029 13.2562 13.9543 12.8962 14.2618 12.5933C14.5693 12.2904 14.9329 12.0455 15.3362 11.8761C15.7395 11.7067 16.1795 11.6128 16.6408 11.6128C17.102 11.6128 17.5412 11.7067 17.9408 11.8761C18.3403 12.0455 18.7012 12.2904 19.0041 12.5933C19.307 12.8962 19.5519 13.2562 19.7213 13.6567C19.8908 14.0572 19.9847 14.4964 19.9847 14.9567C19.9847 15.1224 19.9736 15.2844 19.9515 15.4419C19.9294 15.5993 19.8954 15.754 19.8502 15.905C19.8051 16.056 19.749 16.2042 19.6808 16.3497C19.6127 16.4951 19.5326 16.6378 19.4415 16.7787L19.4102 16.8266L19.3789 16.8744L19.3476 16.9223L19.3172 16.9739Z" fill="#4D4D4D"/>
<path d="M11.1389 13.2406C11.1389 13.2268 11.1352 13.213 11.1296 13.201C11.1241 13.189 11.1149 13.1789 11.1039 13.1697C11.0928 13.1605 11.0799 13.1541 11.0643 13.1495C11.0486 13.1449 11.033 13.1421 11.0146 13.1421H9.8849H8.75432H7.62466H6.49408C6.48119 13.1421 6.4683 13.1449 6.45633 13.1504C6.44436 13.1559 6.43424 13.1633 6.42503 13.1716C6.41582 13.1798 6.40846 13.1918 6.40385 13.2029C6.39925 13.2139 6.39557 13.2268 6.39557 13.2406C6.39557 13.2535 6.39833 13.2664 6.40385 13.2783C6.40938 13.2903 6.41674 13.3004 6.42503 13.3097C6.43332 13.3189 6.44436 13.3262 6.45633 13.3308C6.4683 13.3354 6.48027 13.3391 6.49408 13.3391H7.63111H8.76813H9.90516H11.0422C11.0551 13.3391 11.068 13.3364 11.0799 13.3308C11.0919 13.3253 11.102 13.3179 11.1112 13.3097C11.1204 13.3014 11.1278 13.2903 11.1324 13.2783C11.137 13.2664 11.1389 13.2535 11.1389 13.2406Z" fill="#4D4D4D"/>
<path d="M11.1389 14.397C11.1389 14.3832 11.1352 14.3694 11.1296 14.3574C11.1241 14.3454 11.1149 14.3353 11.1039 14.3261C11.0928 14.3169 11.0799 14.3104 11.0643 14.3058C11.0486 14.3012 11.033 14.2985 11.0146 14.2985H9.8849H8.75432H7.62466H6.49408C6.48119 14.2985 6.4683 14.3012 6.45633 14.3067C6.44436 14.3123 6.43424 14.3196 6.42503 14.3279C6.41582 14.3362 6.40846 14.3473 6.40385 14.3592C6.39925 14.3712 6.39557 14.3841 6.39557 14.397C6.39557 14.4099 6.39833 14.4228 6.40385 14.4347C6.40938 14.4467 6.41674 14.4568 6.42503 14.466C6.43332 14.4752 6.44436 14.4826 6.45633 14.4872C6.4683 14.4918 6.48027 14.4955 6.49408 14.4955H7.63111H8.76813H9.90516H11.0422C11.0551 14.4955 11.068 14.4927 11.0799 14.4872C11.0919 14.4817 11.102 14.4743 11.1112 14.466C11.1204 14.4577 11.1278 14.4467 11.1324 14.4347C11.137 14.4228 11.1389 14.4099 11.1389 14.397Z" fill="#4D4D4D"/>
<path d="M11.1389 15.5524C11.1389 15.5386 11.1352 15.5248 11.1296 15.5128C11.1241 15.5009 11.1149 15.4907 11.1039 15.4815C11.0928 15.4723 11.0799 15.4659 11.0643 15.4613C11.0486 15.4567 11.033 15.4539 11.0146 15.4539H9.8849H8.75432H7.62466H6.49408C6.48119 15.4539 6.4683 15.4567 6.45633 15.4622C6.44436 15.4677 6.43424 15.4751 6.42503 15.4834C6.41582 15.4917 6.40846 15.5036 6.40385 15.5147C6.39925 15.5257 6.39557 15.5386 6.39557 15.5524C6.39557 15.5662 6.39833 15.5782 6.40385 15.5902C6.40938 15.6021 6.41674 15.6123 6.42503 15.6215C6.43332 15.6307 6.44436 15.6381 6.45633 15.6427C6.4683 15.6473 6.48027 15.6509 6.49408 15.6509H7.63111H8.76813H9.90516H11.0422C11.0551 15.6509 11.068 15.6482 11.0799 15.6427C11.0919 15.6371 11.102 15.6298 11.1112 15.6215C11.1204 15.6132 11.1278 15.6021 11.1324 15.5902C11.137 15.5782 11.1389 15.5653 11.1389 15.5524Z" fill="#4D4D4D"/>
<path d="M8.75432 16.5845H8.18903H7.62466H7.05937H6.49408C6.48119 16.5845 6.4683 16.5872 6.45633 16.5928C6.44436 16.5983 6.43424 16.6056 6.42503 16.6139C6.41582 16.6222 6.40846 16.6333 6.40385 16.6452C6.39925 16.6572 6.39557 16.6701 6.39557 16.683C6.39557 16.6959 6.39833 16.7088 6.40385 16.7207C6.40846 16.7318 6.41582 16.7428 6.42503 16.752C6.43424 16.7612 6.44436 16.7686 6.45633 16.7732C6.4683 16.7787 6.48027 16.7815 6.49408 16.7815H7.05937H7.62466H8.18995H8.75524C8.76813 16.7815 8.78102 16.7787 8.79299 16.7732C8.80496 16.7677 8.81509 16.7603 8.82429 16.752C8.8335 16.7437 8.84087 16.7327 8.84547 16.7207C8.85099 16.7088 8.85376 16.6968 8.85376 16.683C8.85376 16.6701 8.85099 16.6572 8.84547 16.6452C8.83994 16.6333 8.83258 16.6231 8.82429 16.6139C8.81601 16.6047 8.80496 16.5974 8.79299 16.5928C8.78102 16.5882 8.76813 16.5845 8.75432 16.5845Z" fill="#4D4D4D"/>
</svg>
