<svg width="30" height="30" viewBox="0 0 30 30" fill="none" xmlns="http://www.w3.org/2000/svg">
<rect width="30" height="30" fill="white"/>
<path d="M30 30H22.5H15H7.5H0V22.5003V15.0005V7.49975V0H7.5H15H22.5H30V7.49975V14.9995V22.4992V30ZM0.252287 29.7477H7.62614H15H22.3739H29.7477V22.3741V15.0005V7.62589V0.252279H22.3739H15H7.62614H0.252287V7.62589V14.9995V22.3731V29.7477Z" fill="#4D4D4D"/>
<path d="M21.465 11.486C21.45 11.464 21.436 11.444 21.421 11.425C21.406 11.406 21.392 11.388 21.377 11.369C21.362 11.351 21.348 11.332 21.333 11.313C21.318 11.294 21.304 11.274 21.289 11.252L20.136 12.012L18.982 12.772L17.828 13.532L16.674 14.292C16.689 14.314 16.703 14.334 16.718 14.353C16.733 14.372 16.747 14.39 16.762 14.409C16.777 14.428 16.791 14.446 16.806 14.465C16.821 14.484 16.835 14.504 16.85 14.526L18.004 13.766L19.158 13.006L20.312 12.246L21.465 11.486Z" fill="#4D4D4D"/>
<path d="M14.015 11.778C13.993 11.793 13.971 11.805 13.949 11.817C13.927 11.828 13.905 11.838 13.883 11.848C13.861 11.857 13.839 11.865 13.817 11.873C13.795 11.881 13.773 11.888 13.751 11.895L14.014 12.414L14.277 12.933L14.54 13.452L14.803 13.971C14.825 13.956 14.847 13.944 14.869 13.932C14.891 13.921 14.913 13.911 14.935 13.901C14.957 13.892 14.979 13.884 15.001 13.876C15.023 13.868 15.045 13.861 15.067 13.854L14.804 13.335L14.541 12.816L14.278 12.297L14.015 11.778Z" fill="#4D4D4D"/>
<path d="M5.27999 10.96C5.27299 10.982 5.26499 11.004 5.25799 11.026C5.25099 11.048 5.24199 11.07 5.23299 11.092C5.22399 11.114 5.21399 11.136 5.20199 11.158C5.18999 11.18 5.17799 11.202 5.16299 11.224L7.41299 12.122L9.66299 13.02L11.913 13.918L14.163 14.816C14.17 14.794 14.178 14.772 14.185 14.75C14.193 14.728 14.201 14.706 14.21 14.684C14.219 14.662 14.229 14.64 14.241 14.618C14.253 14.596 14.265 14.574 14.28 14.552L12.03 13.654L9.77999 12.756L7.52999 11.858L5.27999 10.96Z" fill="#4D4D4D"/>
<path d="M15.564 14.349C15.685 14.349 15.8 14.374 15.905 14.418C16.01 14.462 16.104 14.527 16.184 14.606C16.263 14.685 16.327 14.78 16.372 14.885C16.416 14.99 16.441 15.105 16.441 15.226C16.441 15.347 16.416 15.462 16.372 15.567C16.328 15.672 16.263 15.766 16.184 15.846C16.105 15.925 16.01 15.989 15.905 16.034C15.8 16.078 15.685 16.103 15.564 16.103C15.443 16.103 15.328 16.078 15.223 16.034C15.118 15.99 15.024 15.925 14.944 15.846C14.865 15.767 14.801 15.672 14.756 15.567C14.712 15.462 14.687 15.347 14.687 15.226C14.687 15.105 14.712 14.99 14.756 14.885C14.8 14.78 14.865 14.686 14.944 14.606C15.023 14.527 15.118 14.463 15.223 14.418C15.327 14.374 15.443 14.349 15.564 14.349Z" fill="#4D4D4D"/>
<path d="M16.09 23.202C16.112 23.209 16.134 23.218 16.156 23.228C16.178 23.238 16.2 23.249 16.222 23.26C16.244 23.271 16.266 23.282 16.288 23.292C16.31 23.302 16.332 23.311 16.354 23.318L17.786 20.462L19.218 17.606L20.65 14.75L22.082 11.894C22.06 11.887 22.038 11.878 22.016 11.868C21.994 11.858 21.972 11.847 21.95 11.836C21.928 11.825 21.906 11.814 21.884 11.804C21.862 11.794 21.84 11.785 21.818 11.778L20.386 14.634L18.954 17.49L17.522 20.346L16.09 23.202Z" fill="#4D4D4D"/>
<path d="M16.908 6.43201C16.901 6.45401 16.892 6.47601 16.881 6.49801C16.871 6.52001 16.859 6.54201 16.846 6.56401C16.833 6.58601 16.82 6.60801 16.805 6.63001C16.791 6.65201 16.776 6.67401 16.762 6.69601L17.894 7.49201L19.026 8.28801L20.158 9.08401L21.29 9.88001C21.305 9.85801 21.317 9.83601 21.33 9.81501C21.342 9.79401 21.354 9.77301 21.367 9.75201C21.38 9.73201 21.393 9.71301 21.409 9.69501C21.425 9.67701 21.443 9.66101 21.465 9.64601L20.326 8.84201L19.187 8.03901L18.048 7.23601L16.908 6.43201Z" fill="#4D4D4D"/>
<path d="M22.576 9.67499C22.697 9.67499 22.812 9.69999 22.917 9.74399C23.022 9.78799 23.116 9.85299 23.196 9.93199C23.275 10.011 23.339 10.106 23.384 10.211C23.429 10.316 23.453 10.431 23.453 10.552C23.453 10.673 23.428 10.788 23.384 10.893C23.34 10.998 23.275 11.092 23.196 11.172C23.117 11.251 23.022 11.315 22.917 11.36C22.812 11.404 22.697 11.429 22.576 11.429C22.455 11.429 22.34 11.404 22.235 11.36C22.13 11.316 22.036 11.251 21.956 11.172C21.877 11.093 21.813 10.998 21.768 10.893C21.724 10.788 21.699 10.673 21.699 10.552C21.699 10.431 21.724 10.316 21.768 10.211C21.812 10.106 21.877 10.012 21.956 9.93199C22.035 9.85299 22.13 9.78899 22.235 9.74399C22.339 9.69899 22.455 9.67499 22.576 9.67499Z" fill="#4D4D4D"/>
<path d="M25.965 19.228C25.98 19.206 25.992 19.184 26.005 19.163C26.018 19.142 26.029 19.121 26.042 19.1C26.055 19.08 26.068 19.061 26.084 19.043C26.1 19.025 26.118 19.009 26.14 18.994L23.233 17.051L20.326 15.108L17.419 13.165L14.512 11.222C14.497 11.244 14.485 11.266 14.472 11.287C14.46 11.308 14.448 11.329 14.435 11.35C14.422 11.371 14.409 11.389 14.393 11.407C14.377 11.425 14.359 11.441 14.337 11.456L17.244 13.399L20.151 15.342L23.058 17.285L25.965 19.228Z" fill="#4D4D4D"/>
<path d="M15.038 7.24997C15.016 7.24297 14.994 7.23397 14.972 7.22397C14.95 7.21397 14.928 7.20297 14.906 7.19197C14.884 7.18097 14.862 7.16997 14.84 7.15997C14.818 7.14997 14.796 7.14097 14.774 7.13397L14.511 7.65297L14.249 8.16997L13.986 8.68897L13.723 9.20797C13.745 9.21497 13.767 9.22397 13.789 9.23397C13.811 9.24397 13.833 9.25497 13.855 9.26597C13.877 9.27697 13.899 9.28797 13.921 9.29797C13.943 9.30797 13.965 9.31697 13.987 9.32397L14.25 8.80497L14.513 8.28597L14.776 7.76697L15.038 7.24997Z" fill="#4D4D4D"/>
<path d="M13.226 9.67499C13.347 9.67499 13.462 9.69999 13.567 9.74399C13.672 9.78799 13.766 9.85299 13.846 9.93199C13.925 10.011 13.989 10.106 14.034 10.211C14.078 10.316 14.103 10.431 14.103 10.552C14.103 10.673 14.078 10.788 14.034 10.893C13.99 10.998 13.925 11.092 13.846 11.172C13.767 11.251 13.672 11.315 13.567 11.36C13.462 11.404 13.347 11.429 13.226 11.429C13.105 11.429 12.99 11.404 12.885 11.36C12.78 11.316 12.686 11.251 12.606 11.172C12.527 11.093 12.463 10.998 12.418 10.893C12.374 10.788 12.349 10.673 12.349 10.552C12.349 10.431 12.374 10.316 12.418 10.211C12.462 10.106 12.527 10.012 12.606 9.93199C12.685 9.85299 12.78 9.78899 12.885 9.74399C12.99 9.69899 13.105 9.67499 13.226 9.67499Z" fill="#4D4D4D"/>
<path d="M16.849 23.903C16.864 23.925 16.876 23.947 16.888 23.969C16.9 23.991 16.909 24.013 16.919 24.035C16.929 24.057 16.936 24.079 16.944 24.101C16.952 24.123 16.959 24.145 16.966 24.167L19.216 23.269L21.466 22.371L23.716 21.473L25.966 20.575C25.951 20.553 25.939 20.531 25.927 20.509C25.916 20.487 25.906 20.465 25.896 20.443C25.887 20.421 25.879 20.399 25.871 20.377C25.863 20.355 25.856 20.333 25.849 20.311L23.599 21.209L21.349 22.107L19.099 23.005L16.849 23.903Z" fill="#4D4D4D"/>
<path d="M25.819 19.754H21.86H17.901H13.942H9.983C9.983 19.769 9.985 19.781 9.988 19.793C9.991 19.805 9.994 19.816 9.998 19.827C10.002 19.838 10.005 19.849 10.008 19.861C10.011 19.873 10.013 19.886 10.013 19.9C10.013 19.914 10.013 19.927 10.013 19.939C10.013 19.951 10.011 19.962 10.009 19.973C10.007 19.984 10.004 19.995 10 20.007C9.996 20.019 9.99 20.032 9.983 20.046H13.935H17.887H21.839H25.791C25.791 20.031 25.789 20.019 25.786 20.007C25.783 19.995 25.78 19.984 25.776 19.973C25.772 19.962 25.769 19.951 25.766 19.939C25.763 19.927 25.761 19.914 25.761 19.9C25.761 19.886 25.763 19.873 25.766 19.861C25.769 19.849 25.774 19.838 25.779 19.827C25.784 19.816 25.791 19.805 25.798 19.793C25.805 19.781 25.811 19.769 25.819 19.754Z" fill="#4D4D4D"/>
<path d="M9.83699 20.572C9.82199 20.594 9.80999 20.616 9.79699 20.637C9.78399 20.658 9.77299 20.679 9.75999 20.7C9.74699 20.721 9.73399 20.739 9.71799 20.757C9.70199 20.775 9.68399 20.791 9.66199 20.806L10.816 21.573L11.97 22.34L13.124 23.107L14.278 23.874C14.293 23.852 14.305 23.83 14.318 23.809C14.33 23.788 14.342 23.767 14.355 23.746C14.368 23.725 14.381 23.707 14.397 23.689C14.413 23.671 14.431 23.655 14.453 23.64L13.299 22.873L12.145 22.106L10.991 21.339L9.83699 20.572Z" fill="#4D4D4D"/>
<path d="M11.678 16.453C11.656 16.468 11.634 16.48 11.612 16.492C11.59 16.503 11.568 16.513 11.546 16.523C11.524 16.533 11.502 16.54 11.48 16.548C11.458 16.556 11.436 16.563 11.414 16.57L12.261 18.257L13.108 19.944L13.955 21.631L14.802 23.318C14.824 23.303 14.846 23.291 14.868 23.279C14.89 23.268 14.912 23.258 14.934 23.248C14.956 23.238 14.978 23.231 15 23.223C15.022 23.215 15.044 23.208 15.066 23.201L14.219 21.514L13.372 19.827L12.525 18.14L11.678 16.453Z" fill="#4D4D4D"/>
<path d="M15.564 23.698C15.685 23.698 15.8 23.723 15.905 23.767C16.01 23.811 16.104 23.876 16.184 23.955C16.263 24.034 16.327 24.129 16.372 24.234C16.416 24.339 16.441 24.454 16.441 24.575C16.441 24.696 16.416 24.811 16.372 24.916C16.328 25.021 16.263 25.115 16.184 25.195C16.105 25.274 16.01 25.338 15.905 25.383C15.8 25.428 15.685 25.452 15.564 25.452C15.443 25.452 15.328 25.427 15.223 25.383C15.118 25.339 15.024 25.274 14.944 25.195C14.865 25.116 14.801 25.021 14.756 24.916C14.712 24.811 14.687 24.696 14.687 24.575C14.687 24.454 14.712 24.339 14.756 24.234C14.8 24.129 14.865 24.035 14.944 23.955C15.023 23.876 15.118 23.812 15.223 23.767C15.328 23.722 15.443 23.698 15.564 23.698Z" fill="#4D4D4D"/>
<path d="M10.363 16.599C10.341 16.592 10.319 16.583 10.297 16.573C10.275 16.563 10.253 16.552 10.231 16.541C10.209 16.53 10.187 16.519 10.165 16.509C10.143 16.499 10.121 16.49 10.099 16.483L9.836 17.002L9.573 17.521L9.31 18.04L9.047 18.559C9.069 18.566 9.091 18.575 9.113 18.585C9.135 18.595 9.157 18.606 9.179 18.617C9.201 18.628 9.223 18.639 9.245 18.649C9.267 18.659 9.289 18.668 9.311 18.675L9.574 18.156L9.837 17.637L10.1 17.118L10.363 16.599Z" fill="#4D4D4D"/>
<path d="M8.55199 19.024C8.67299 19.024 8.78799 19.049 8.89299 19.093C8.99799 19.137 9.09199 19.202 9.17199 19.281C9.25099 19.36 9.31499 19.455 9.35999 19.56C9.40399 19.665 9.42899 19.78 9.42899 19.901C9.42899 20.022 9.40399 20.137 9.35999 20.242C9.31599 20.347 9.25099 20.441 9.17199 20.521C9.09299 20.6 8.99799 20.664 8.89299 20.709C8.78799 20.753 8.67299 20.778 8.55199 20.778C8.43099 20.778 8.31599 20.753 8.21099 20.709C8.10599 20.665 8.01199 20.6 7.93199 20.521C7.85299 20.442 7.78899 20.347 7.74399 20.242C7.69899 20.137 7.67499 20.022 7.67499 19.901C7.67499 19.78 7.69999 19.665 7.74399 19.56C7.78799 19.455 7.85299 19.361 7.93199 19.281C8.01099 19.201 8.10599 19.138 8.21099 19.093C8.31499 19.048 8.43099 19.024 8.55199 19.024Z" fill="#4D4D4D"/>
<path d="M5.133 11.252C5.118 11.274 5.104 11.296 5.089 11.317C5.074 11.338 5.06 11.359 5.045 11.38C5.03 11.4 5.016 11.419 5.001 11.437C4.986 11.455 4.972 11.471 4.957 11.486L6.096 12.282L7.235 13.078L8.374 13.874L9.513 14.67C9.52 14.648 9.529 14.626 9.54 14.604C9.551 14.582 9.562 14.56 9.575 14.538C9.588 14.516 9.601 14.494 9.616 14.472C9.631 14.45 9.645 14.428 9.659 14.406L8.527 13.617L7.395 12.828L6.263 12.039L5.133 11.252Z" fill="#4D4D4D"/>
<path d="M10.889 14.349C11.01 14.349 11.125 14.374 11.23 14.418C11.335 14.462 11.429 14.527 11.509 14.606C11.588 14.685 11.652 14.78 11.697 14.885C11.741 14.99 11.766 15.105 11.766 15.226C11.766 15.347 11.741 15.462 11.697 15.567C11.653 15.672 11.588 15.766 11.509 15.846C11.43 15.925 11.335 15.989 11.23 16.034C11.125 16.078 11.01 16.103 10.889 16.103C10.768 16.103 10.653 16.078 10.548 16.034C10.443 15.99 10.349 15.925 10.269 15.846C10.19 15.767 10.126 15.672 10.081 15.567C10.037 15.462 10.012 15.347 10.012 15.226C10.012 15.105 10.037 14.99 10.081 14.885C10.125 14.78 10.19 14.686 10.269 14.606C10.348 14.527 10.443 14.463 10.548 14.418C10.653 14.374 10.768 14.349 10.889 14.349Z" fill="#4D4D4D"/>
<path d="M14.278 6.54797C14.263 6.52597 14.251 6.50397 14.239 6.48197C14.228 6.45997 14.218 6.43797 14.208 6.41597C14.199 6.39397 14.191 6.37197 14.183 6.34997C14.176 6.32897 14.169 6.30697 14.161 6.28497L11.911 7.18297L9.66199 8.08197L7.41199 8.97997L5.16199 9.87797C5.17699 9.89997 5.18899 9.92197 5.20099 9.94397C5.21199 9.96597 5.22199 9.98797 5.23199 10.01C5.24199 10.032 5.24899 10.054 5.25699 10.076C5.26499 10.098 5.27199 10.12 5.27899 10.142L7.52899 9.24397L9.77899 8.34597L12.029 7.44797L14.278 6.54797Z" fill="#4D4D4D"/>
<path d="M3.877 9.67499C3.998 9.67499 4.113 9.69999 4.218 9.74399C4.323 9.78799 4.418 9.85199 4.497 9.93099C4.576 10.01 4.64 10.105 4.685 10.21C4.729 10.315 4.754 10.43 4.754 10.551C4.754 10.672 4.729 10.787 4.685 10.892C4.641 10.997 4.576 11.091 4.497 11.171C4.418 11.25 4.323 11.314 4.218 11.359C4.113 11.403 3.998 11.428 3.877 11.428C3.756 11.428 3.641 11.403 3.536 11.359C3.431 11.315 3.337 11.25 3.257 11.171C3.178 11.092 3.114 10.997 3.069 10.892C3.024 10.787 3 10.672 3 10.551C3 10.43 3.025 10.315 3.069 10.21C3.113 10.105 3.178 10.011 3.257 9.93099C3.337 9.85199 3.431 9.78799 3.536 9.74299C3.641 9.69899 3.756 9.67499 3.877 9.67499Z" fill="#4D4D4D"/>
<path d="M15.564 5C15.685 5 15.8 5.025 15.905 5.069C16.01 5.113 16.104 5.178 16.184 5.257C16.263 5.336 16.327 5.431 16.372 5.536C16.416 5.641 16.441 5.756 16.441 5.877C16.441 5.998 16.416 6.113 16.372 6.218C16.328 6.323 16.263 6.417 16.184 6.497C16.105 6.576 16.01 6.64 15.905 6.685C15.8 6.73 15.685 6.754 15.564 6.754C15.443 6.754 15.328 6.729 15.223 6.685C15.118 6.641 15.024 6.576 14.944 6.497C14.865 6.418 14.801 6.323 14.756 6.218C14.712 6.113 14.687 5.998 14.687 5.877C14.687 5.756 14.712 5.641 14.756 5.536C14.8 5.431 14.865 5.337 14.944 5.257C15.023 5.178 15.118 5.114 15.223 5.069C15.328 5.024 15.443 5 15.564 5Z" fill="#4D4D4D"/>
<path d="M26.877 19C26.998 19 27.113 19.025 27.218 19.069C27.323 19.113 27.417 19.178 27.497 19.257C27.576 19.336 27.64 19.431 27.685 19.536C27.73 19.641 27.754 19.756 27.754 19.877C27.754 19.998 27.729 20.113 27.685 20.218C27.641 20.323 27.576 20.417 27.497 20.497C27.418 20.576 27.323 20.64 27.218 20.685C27.113 20.729 26.998 20.754 26.877 20.754C26.756 20.754 26.641 20.729 26.536 20.685C26.431 20.641 26.337 20.576 26.257 20.497C26.178 20.418 26.114 20.323 26.069 20.218C26.025 20.113 26 19.998 26 19.877C26 19.756 26.025 19.641 26.069 19.536C26.113 19.431 26.178 19.337 26.257 19.257C26.336 19.178 26.431 19.114 26.536 19.069C26.64 19.024 26.756 19 26.877 19Z" fill="#4D4D4D"/>
</svg>
