<svg width="30" height="30" viewBox="0 0 30 30" fill="none" xmlns="http://www.w3.org/2000/svg">
<g clip-path="url(#clip0)">
<rect width="30" height="30" fill="white"/>
<path d="M30 30H22.5H15H7.5H0V22.5003V15.0005V7.49975V0H7.5H15H22.5H30V7.49975V14.9995V22.4992V30ZM0.252287 29.7477H7.62614H15H22.3739H29.7477V22.3741V15.0005V7.62589V0.252279H22.3739H15H7.62614H0.252287V7.62589V14.9995V22.3731V29.7477Z" fill="#4D4D4D"/>
<path d="M20.17 5.80184L20.17 6.71515" stroke="#4D4D4D" stroke-width="0.1" stroke-miterlimit="10" stroke-linecap="round" stroke-linejoin="round"/>
<path d="M24 9.46918L24 8.09221" stroke="#4D4D4D" stroke-width="0.1" stroke-miterlimit="10" stroke-linecap="round" stroke-linejoin="round"/>
<path d="M24 7.59509L24 6.67216" stroke="#4D4D4D" stroke-width="0.1" stroke-miterlimit="10" stroke-linecap="round" stroke-linejoin="round"/>
<path d="M20.17 8.59912L20.17 7.21253" stroke="#4D4D4D" stroke-width="0.1" stroke-miterlimit="10" stroke-linecap="round" stroke-linejoin="round"/>
<path d="M20.5477 9.21589L20.9209 9.38801L21.3034 9.5363L21.7001 9.67014L22.0826 9.77053L22.4699 9.84227L22.8621 9.89475L23.2494 9.9234L23.6223 9.91378C23.804 9.90919 23.8996 9.82783 23.9569 9.66052L23.9858 9.56976L24 9.46915" stroke="#4D4D4D" stroke-width="0.1" stroke-miterlimit="10" stroke-linecap="round" stroke-linejoin="round"/>
<path d="M20.17 8.59913L20.1844 8.69952L20.2034 8.80953L20.2513 8.90992L20.3038 9.00067L20.3756 9.09166L20.4569 9.16339L20.5477 9.21588" stroke="#4D4D4D" stroke-width="0.1" stroke-miterlimit="10" stroke-linecap="round" stroke-linejoin="round"/>
<path d="M20.3661 7.15961L20.3661 6.85845L20.3423 6.79633L20.323 6.77709L20.2944 6.75325L20.1701 6.71498" stroke="#4D4D4D" stroke-width="0.1" stroke-miterlimit="10" stroke-linecap="round" stroke-linejoin="round"/>
<path d="M23.804 7.64766L23.804 7.98228L23.8278 8.01093L23.847 8.03017L23.8661 8.03979" stroke="#4D4D4D" stroke-width="0.1" stroke-miterlimit="10" stroke-linecap="round" stroke-linejoin="round"/>
<path d="M23.8661 7.57585L23.847 7.57585L23.804 7.61412L23.804 7.64758" stroke="#4D4D4D" stroke-width="0.1" stroke-miterlimit="10" stroke-linecap="round" stroke-linejoin="round"/>
<path d="M24 7.59509L23.8662 7.57584" stroke="#4D4D4D" stroke-width="0.1" stroke-miterlimit="10" stroke-linecap="round" stroke-linejoin="round"/>
<path d="M24 8.09216L23.8662 8.03967" stroke="#4D4D4D" stroke-width="0.1" stroke-miterlimit="10" stroke-linecap="round" stroke-linejoin="round"/>
<path d="M20.2943 7.23151L20.323 7.23151L20.3422 7.21248L20.3564 7.18864L20.366 7.15977" stroke="#4D4D4D" stroke-width="0.1" stroke-miterlimit="10" stroke-linecap="round" stroke-linejoin="round"/>
<path d="M20.17 7.21248L20.2943 7.23151" stroke="#4D4D4D" stroke-width="0.1" stroke-miterlimit="10" stroke-linecap="round" stroke-linejoin="round"/>
<path d="M20.4951 5.00342L20.433 5.00342L20.3757 5.01282L20.323 5.05591L20.2847 5.10381L20.2609 5.17532L20.1844 5.71093L20.1699 5.8017" stroke="#4D4D4D" stroke-width="0.1" stroke-miterlimit="10" stroke-linecap="round" stroke-linejoin="round"/>
<path d="M20.4952 5.00342L23.6653 5.73499" stroke="#4D4D4D" stroke-width="0.1" stroke-miterlimit="10" stroke-linecap="round" stroke-linejoin="round"/>
<path d="M23.9043 6.00745L23.8853 5.93571L23.847 5.86397L23.7945 5.80186L23.7322 5.75397L23.6653 5.73494" stroke="#4D4D4D" stroke-width="0.1" stroke-miterlimit="10" stroke-linecap="round" stroke-linejoin="round"/>
<path d="M23.9043 6.00747L23.9857 6.58113L23.9999 6.67212" stroke="#4D4D4D" stroke-width="0.1" stroke-miterlimit="10" stroke-linecap="round" stroke-linejoin="round"/>
<path d="M20.17 6.71506L6.32773 12.9501" stroke="#4D4D4D" stroke-width="0.1" stroke-miterlimit="10" stroke-linecap="round" stroke-linejoin="round"/>
<path d="M20.17 7.2125L6.32773 13.4476L20.17 7.2125Z" stroke="#4D4D4D" stroke-width="0.1" stroke-miterlimit="10" stroke-linecap="round" stroke-linejoin="round"/>
<path d="M20.3421 5.03677L6.4998 11.267" stroke="#4D4D4D" stroke-width="0.1" stroke-miterlimit="10" stroke-linecap="round" stroke-linejoin="round"/>
<path d="M23.7849 9.87095L9.93774 16.106" stroke="#4D4D4D" stroke-width="0.1" stroke-miterlimit="10" stroke-linecap="round" stroke-linejoin="round"/>
<path d="M24 7.59507L23.804 7.67621" stroke="#4D4D4D" stroke-width="0.1" stroke-miterlimit="10" stroke-linecap="round" stroke-linejoin="round"/>
<path d="M20.3134 6.79636L6.46629 13.0314" stroke="#4D4D4D" stroke-width="0.1" stroke-miterlimit="10" stroke-linecap="round" stroke-linejoin="round"/>
<mask id="path-25-inside-1" fill="white">
<path fill-rule="evenodd" clip-rule="evenodd" d="M18.726 3.05249L18.726 3.01925L18.7166 3.01925C18.6687 3.01422 18.616 3.01422 18.5729 3L18.5346 3L18.726 3.05249Z"/>
</mask>
<path fill-rule="evenodd" clip-rule="evenodd" d="M18.726 3.05249L18.726 3.01925L18.7166 3.01925C18.6687 3.01422 18.616 3.01422 18.5729 3L18.5346 3L18.726 3.05249Z" fill="#050404"/>
<path d="M18.726 3.05249L18.6996 3.14893L18.826 3.18361L18.826 3.05249L18.726 3.05249ZM18.726 3.01925L18.826 3.01925L18.826 2.91925L18.726 2.91925L18.726 3.01925ZM18.7166 3.01925L18.7061 3.11925L18.7166 3.11925L18.7166 3.01925ZM18.5729 3L18.6043 2.90504L18.589 2.9L18.5729 2.9L18.5729 3ZM18.5346 3L18.5346 2.9L18.5082 3.09644L18.5346 3ZM18.826 3.05249L18.826 3.01925L18.626 3.01925L18.626 3.05249L18.826 3.05249ZM18.726 2.91925L18.7166 2.91925L18.7166 3.11925L18.726 3.11925L18.726 2.91925ZM18.7271 2.9198C18.7134 2.91837 18.6998 2.91732 18.6875 2.9164C18.6748 2.91545 18.6636 2.91462 18.6527 2.91355C18.6304 2.91136 18.6152 2.90865 18.6043 2.90504L18.5416 3.09497C18.5737 3.10557 18.6064 3.10997 18.6332 3.1126C18.6468 3.11393 18.6605 3.11494 18.6725 3.11584C18.685 3.11678 18.6959 3.11762 18.7062 3.1187L18.7271 2.9198ZM18.5729 2.9L18.5346 2.9L18.5346 3.1L18.5729 3.1L18.5729 2.9ZM18.5082 3.09644L18.6996 3.14893L18.7525 2.95605L18.5611 2.90356L18.5082 3.09644Z" fill="#4D4D4D" mask="url(#path-25-inside-1)"/>
<path d="M20.1345 8.69999L20.1339 8.69999L20.1353 8.70803L20.1529 8.8098C20.1528 8.81069 20.1526 8.81163 20.1525 8.8126C20.1517 8.8205 20.1511 8.83119 20.1517 8.84435C20.1529 8.87076 20.1589 8.9067 20.1763 8.94969C20.2112 9.03589 20.2908 9.14689 20.4639 9.26609C20.8078 9.50296 21.5299 9.77853 23.0456 9.95803L23.0544 9.96138C23.0644 9.965 23.0787 9.96979 23.0971 9.97491C23.1338 9.98514 23.1869 9.99667 23.2539 10.0027C23.2867 10.0056 23.3229 10.0072 23.3621 10.0067L17.6393 12.5845L17.6393 12.5845L9.93016 16.0545L9.92925 16.0544L9.88578 16.0484C9.84773 16.0431 9.79205 16.035 9.72173 16.0239C9.58108 16.0018 9.38192 15.968 9.14812 15.9213C8.68016 15.8277 8.07492 15.6825 7.5226 15.4759C6.96793 15.2683 6.47628 15.0022 6.22546 14.6719C6.1013 14.5084 6.03747 14.3308 6.05207 14.1367C6.06656 13.944 6.15878 13.7284 6.35856 13.4885L12.2197 10.8488L12.1992 10.8032L12.2197 10.8488L20.1208 7.28955L20.1345 8.69999Z" fill="white" stroke="#4D4D4D" stroke-width="0.1"/>
<path d="M20.2036 8.80951C20.2036 8.80951 20.0218 9.5507 23.0581 9.90916C23.0581 9.90916 23.3499 10.0384 23.7849 9.87111L17.6598 12.6301L9.93774 16.106C9.93774 16.106 4.65404 15.4367 6.32757 13.4476L12.1992 10.8032L20.1701 7.21252L20.1845 8.6995L20.2036 8.80951Z" stroke="#4D4D4D" stroke-width="0.1" stroke-miterlimit="10"/>
<path d="M10.5 30.5483C10.4837 30.5483 10.4673 30.5464 10.4529 30.5436C10.4385 30.5409 10.426 30.5362 10.4144 30.5312C10.4029 30.5261 10.3952 30.5196 10.3885 30.5127C10.3817 30.5057 10.3788 30.4983 10.3788 30.49V29.132V27.7739V26.4163V25.0582C10.3788 25.0504 10.3827 25.0425 10.3885 25.0356C10.3942 25.0286 10.4039 25.0226 10.4144 25.0171C10.425 25.0116 10.4385 25.0079 10.4529 25.0046C10.4673 25.0014 10.4827 25 10.5 25C10.5173 25 10.5327 25.0018 10.5472 25.0046C10.5616 25.0074 10.5741 25.012 10.5856 25.0171C10.5972 25.0222 10.6049 25.0286 10.6116 25.0356C10.6183 25.0425 10.6212 25.0499 10.6212 25.0582V26.4163V27.7744V29.1324V30.4905C10.6212 30.4983 10.6174 30.5062 10.6116 30.5131C10.6058 30.5201 10.5962 30.5261 10.5856 30.5316C10.5751 30.5372 10.5616 30.5409 10.5472 30.5441C10.5327 30.5473 10.5164 30.5483 10.5 30.5483Z" fill="#4D4D4D"/>
<path d="M10.5 28.4419C10.4837 28.4419 10.4673 28.438 10.4529 28.4323C10.4385 28.4265 10.426 28.4169 10.4144 28.4063C10.4029 28.3957 10.3952 28.3823 10.3885 28.3678C10.3817 28.3534 10.3788 28.338 10.3788 28.3207C10.3788 27.8379 10.477 27.3781 10.6539 26.9598C10.8309 26.5414 11.0877 26.1644 11.4051 25.847C11.7225 25.5296 12.0995 25.2737 12.5179 25.0958C12.9363 24.9179 13.397 24.8207 13.8788 24.8207C13.8952 24.8207 13.9115 24.8246 13.9259 24.8304C13.9404 24.8361 13.9529 24.8457 13.9644 24.8563C13.976 24.8669 13.9836 24.8804 13.9904 24.8948C13.9971 24.9092 14 24.9246 14 24.9419C14 25.4247 13.9019 25.8845 13.7249 26.3029C13.548 26.7212 13.2912 27.0983 12.9738 27.4157C12.6564 27.7331 12.2794 27.9889 11.861 28.1668C11.4426 28.3448 10.9829 28.4419 10.5 28.4419ZM13.7576 25.065C13.3325 25.0804 12.9286 25.1785 12.5592 25.342C12.1899 25.5055 11.8581 25.7364 11.5763 26.0182C11.2945 26.3 11.0636 26.6328 10.9001 27.0011C10.7366 27.3695 10.6385 27.7744 10.6231 28.1995C11.0483 28.1841 11.4522 28.086 11.8215 27.9225C12.1909 27.759 12.5227 27.5282 12.8045 27.2464C13.0863 26.9646 13.3171 26.6318 13.4806 26.2634C13.6441 25.8951 13.7422 25.4901 13.7576 25.065Z" fill="#4D4D4D"/>
<path d="M10.5 25.9076C10.0171 25.9076 9.55741 25.8095 9.13903 25.6325C8.72065 25.4555 8.34363 25.1987 8.02623 24.8814C7.70884 24.564 7.453 24.1869 7.27507 23.7686C7.09714 23.3502 7 22.8895 7 22.4076C7 22.3913 7.00385 22.3749 7.00962 22.3605C7.01539 22.3461 7.02501 22.3336 7.03559 22.322C7.04617 22.3105 7.05963 22.3028 7.07406 22.2961C7.08848 22.2893 7.10387 22.2864 7.12119 22.2864C7.60401 22.2864 8.06374 22.3845 8.48212 22.5615C8.9005 22.7385 9.27753 22.9953 9.59492 23.3127C9.91231 23.6301 10.1681 24.0071 10.3461 24.4255C10.523 24.8438 10.6212 25.3045 10.6212 25.7864C10.6212 25.8028 10.6173 25.8191 10.6115 25.8335C10.6058 25.848 10.5961 25.8605 10.5856 25.872C10.575 25.8835 10.5615 25.8912 10.5471 25.898C10.5327 25.9047 10.5163 25.9076 10.5 25.9076ZM7.24333 22.5298C7.25872 22.9549 7.35683 23.3588 7.52033 23.7282C7.68384 24.0975 7.91467 24.4293 8.19647 24.7111C8.47828 24.9929 8.81106 25.2238 9.17942 25.3873C9.54779 25.5508 9.95271 25.6489 10.3778 25.6643C10.3624 25.2391 10.2643 24.8352 10.1008 24.4659C9.93636 24.0975 9.70649 23.7647 9.42468 23.4829C9.14288 23.2011 8.8101 22.9703 8.44173 22.8068C8.07336 22.6433 7.66748 22.5452 7.24333 22.5298Z" fill="#4D4D4D"/>
<path d="M19.5 30.5483C19.4837 30.5483 19.4673 30.5444 19.4529 30.5386C19.4385 30.5329 19.426 30.5232 19.4144 30.5127C19.4029 30.5021 19.3952 30.4886 19.3885 30.4742C19.3817 30.4598 19.3788 30.4444 19.3788 30.4271V27.6004V24.7736V21.9479V19.1212C19.3788 19.1048 19.3827 19.0885 19.3885 19.0741C19.3942 19.0596 19.4039 19.0471 19.4144 19.0356C19.425 19.024 19.4385 19.0164 19.4529 19.0096C19.4673 19.0029 19.4827 19 19.5 19C19.5173 19 19.5327 19.0038 19.5472 19.0096C19.5616 19.0154 19.5741 19.025 19.5856 19.0356C19.5972 19.0462 19.6049 19.0596 19.6116 19.0741C19.6183 19.0885 19.6212 19.1039 19.6212 19.1212V21.9479V24.7746V27.6013V30.428C19.6212 30.4444 19.6174 30.4607 19.6116 30.4752C19.6058 30.4896 19.5962 30.5021 19.5856 30.5136C19.5751 30.5252 19.5616 30.5329 19.5472 30.5396C19.5327 30.5463 19.5164 30.5483 19.5 30.5483Z" fill="#4D4D4D"/>
<path d="M19.5 23.3723C19.4837 23.3723 19.4673 23.3685 19.4529 23.3627C19.4385 23.3569 19.426 23.3473 19.4144 23.3367C19.4029 23.3261 19.3952 23.3127 19.3885 23.2983C19.3817 23.2838 19.3788 23.2684 19.3788 23.2511C19.3788 22.7683 19.477 22.3086 19.6539 21.8902C19.8309 21.4718 20.0877 21.0948 20.4051 20.7774C20.7225 20.46 21.0995 20.2042 21.5179 20.0262C21.9363 19.8483 22.397 19.7512 22.8788 19.7512C22.8952 19.7512 22.9115 19.755 22.9259 19.7608C22.9404 19.7665 22.9529 19.7762 22.9644 19.7867C22.976 19.7973 22.9836 19.8108 22.9904 19.8252C22.9971 19.8396 23 19.855 23 19.8723C23 20.3552 22.9019 20.8149 22.7249 21.2333C22.548 21.6517 22.2912 22.0287 21.9738 22.3461C21.6564 22.6635 21.2794 22.9193 20.861 23.0972C20.4426 23.2752 19.9829 23.3723 19.5 23.3723ZM22.7576 19.9955C22.3325 20.0108 21.9286 20.1089 21.5592 20.2725C21.1899 20.436 20.8581 20.6668 20.5763 20.9486C20.2945 21.2304 20.0636 21.5632 19.9001 21.9315C19.7366 22.2999 19.6385 22.7048 19.6231 23.1299C20.0483 23.1146 20.4522 23.0164 20.8215 22.8529C21.1909 22.6894 21.5227 22.4586 21.8045 22.1768C22.0863 21.895 22.3171 21.5622 22.4806 21.1938C22.6441 20.8255 22.7422 20.4206 22.7576 19.9955Z" fill="#4D4D4D"/>
<path d="M19.5 28.4419C19.4837 28.4419 19.4673 28.438 19.4529 28.4323C19.4385 28.4265 19.426 28.4169 19.4144 28.4063C19.4029 28.3957 19.3952 28.3823 19.3885 28.3678C19.3817 28.3534 19.3788 28.338 19.3788 28.3207C19.3788 27.8379 19.477 27.3781 19.6539 26.9598C19.8309 26.5414 20.0877 26.1644 20.4051 25.847C20.7225 25.5296 21.0995 25.2737 21.5179 25.0958C21.9363 24.9179 22.397 24.8207 22.8788 24.8207C22.8952 24.8207 22.9115 24.8246 22.9259 24.8304C22.9404 24.8361 22.9529 24.8457 22.9644 24.8563C22.976 24.8669 22.9836 24.8804 22.9904 24.8948C22.9971 24.9092 23 24.9246 23 24.9419C23 25.4247 22.9019 25.8845 22.7249 26.3029C22.548 26.7212 22.2912 27.0983 21.9738 27.4157C21.6564 27.7331 21.2794 27.9889 20.861 28.1668C20.4426 28.3448 19.9829 28.4419 19.5 28.4419ZM22.7576 25.065C22.3325 25.0804 21.9286 25.1785 21.5592 25.342C21.1899 25.5055 20.8581 25.7364 20.5763 26.0182C20.2945 26.3 20.0636 26.6328 19.9001 27.0011C19.7366 27.3695 19.6385 27.7744 19.6231 28.1995C20.0483 28.1841 20.4522 28.086 20.8215 27.9225C21.1909 27.759 21.5227 27.5282 21.8045 27.2464C22.0863 26.9646 22.3171 26.6318 22.4806 26.2634C22.6441 25.8951 22.7422 25.4901 22.7576 25.065Z" fill="#4D4D4D"/>
<path d="M19.5 25.9076C19.0171 25.9076 18.5574 25.8095 18.139 25.6325C17.7206 25.4555 17.3436 25.1987 17.0262 24.8814C16.7088 24.564 16.453 24.1869 16.2751 23.7686C16.0971 23.3502 16 22.8895 16 22.4076C16 22.3913 16.0038 22.3749 16.0096 22.3605C16.0154 22.3461 16.025 22.3336 16.0356 22.322C16.0462 22.3105 16.0596 22.3028 16.0741 22.2961C16.0885 22.2893 16.1039 22.2864 16.1212 22.2864C16.604 22.2864 17.0637 22.3845 17.4821 22.5615C17.9005 22.7385 18.2775 22.9953 18.5949 23.3127C18.9123 23.6301 19.1681 24.0071 19.3461 24.4255C19.523 24.8438 19.6212 25.3045 19.6212 25.7864C19.6212 25.8028 19.6173 25.8191 19.6115 25.8335C19.6058 25.848 19.5961 25.8605 19.5856 25.872C19.575 25.8835 19.5615 25.8912 19.5471 25.898C19.5327 25.9047 19.5163 25.9076 19.5 25.9076ZM16.2433 22.5298C16.2587 22.9549 16.3568 23.3588 16.5203 23.7282C16.6838 24.0975 16.9147 24.4293 17.1965 24.7111C17.4783 24.9929 17.8111 25.2238 18.1794 25.3873C18.5478 25.5508 18.9527 25.6489 19.3778 25.6643C19.3624 25.2391 19.2643 24.8352 19.1008 24.4659C18.9364 24.0975 18.7065 23.7647 18.4247 23.4829C18.1429 23.2011 17.8101 22.9703 17.4417 22.8068C17.0734 22.6433 16.6675 22.5452 16.2433 22.5298Z" fill="#4D4D4D"/>
<path d="M19.5 19.6212C19.0171 19.6212 18.5574 19.523 18.139 19.3461C17.7206 19.1691 17.3436 18.9123 17.0262 18.5949C16.7088 18.2775 16.453 17.9005 16.2751 17.4821C16.0971 17.0637 16 16.603 16 16.1212C16 16.1048 16.0038 16.0885 16.0096 16.0741C16.0154 16.0596 16.025 16.0471 16.0356 16.0356C16.0462 16.024 16.0596 16.0164 16.0741 16.0096C16.0885 16.0029 16.1039 16 16.1212 16C16.604 16 17.0637 16.0981 17.4821 16.2751C17.9005 16.452 18.2775 16.7088 18.5949 17.0262C18.9123 17.3436 19.1681 17.7206 19.3461 18.139C19.523 18.5574 19.6212 19.0181 19.6212 19.5C19.6212 19.5163 19.6173 19.5327 19.6115 19.5471C19.6058 19.5615 19.5961 19.574 19.5856 19.5856C19.575 19.5971 19.5615 19.6048 19.5471 19.6115C19.5327 19.6183 19.5163 19.6212 19.5 19.6212ZM16.2433 16.2433C16.2587 16.6684 16.3568 17.0724 16.5203 17.4417C16.6838 17.8111 16.9147 18.1429 17.1965 18.4247C17.4783 18.7065 17.8111 18.9373 18.1794 19.1008C18.5478 19.2643 18.9527 19.3624 19.3778 19.3778C19.3624 18.9527 19.2643 18.5488 19.1008 18.1794C18.9364 17.8111 18.7065 17.4783 18.4247 17.1965C18.1429 16.9147 17.8101 16.6838 17.4417 16.5203C17.0734 16.3568 16.6675 16.2587 16.2433 16.2433Z" fill="#4D4D4D"/>
</g>
<defs>
<clipPath id="clip0">
<rect width="30" height="30" fill="white"/>
</clipPath>
</defs>
</svg>
