<svg width="30" height="30" viewBox="0 0 30 30" fill="none" xmlns="http://www.w3.org/2000/svg">
<rect width="30" height="30" fill="white"/>
<path d="M30 30H22.5H15H7.5H0V22.5003V15.0005V7.49975V0H7.5H15H22.5H30V7.49975V14.9995V22.4992V30ZM0.252287 29.7477H7.62614H15H22.3739H29.7477V22.3741V15.0005V7.62589V0.252279H22.3739H15H7.62614H0.252287V7.62589V14.9995V22.3731V29.7477Z" fill="#4D4D4D"/>
<path d="M10.9497 26H8.05025L6 23.9497V21.0503L8.05025 19H10.9497L13 21.0503V23.9497L10.9497 26Z" stroke="#4D4D4D" stroke-width="0.2"/>
<path d="M15.9497 21H13.0503L11 18.9497V16.0503L13.0503 14H15.9497L18 16.0503V18.9497L15.9497 21Z" stroke="#4D4D4D" stroke-width="0.2"/>
<path d="M20.9497 26H18.0503L16 23.9497V21.0503L18.0503 19H20.9497L23 21.0503V23.9497L20.9497 26Z" stroke="#4D4D4D" stroke-width="0.2"/>
<path d="M20.9497 16H18.0503L16 13.9497V11.0503L18.0503 9H20.9497L23 11.0503V13.9497L20.9497 16Z" stroke="#4D4D4D" stroke-width="0.2"/>
<path d="M15.9497 11H13.0503L11 8.94975V6.05025L13.0503 4H15.9497L18 6.05025V8.94975L15.9497 11Z" stroke="#4D4D4D" stroke-width="0.2"/>
</svg>
