<svg width="30" height="30" viewBox="0 0 30 30" fill="none" xmlns="http://www.w3.org/2000/svg">
<rect width="30" height="30" fill="white"/>
<path d="M30 30H22.5H15H7.5H0V22.5003V15.0005V7.49975V0H7.5H15H22.5H30V7.49975V14.9995V22.4992V30ZM0.252287 29.7477H7.62614H15H22.3739H29.7477V22.3741V15.0005V7.62589V0.252279H22.3739H15H7.62614H0.252287V7.62589V14.9995V22.3731V29.7477Z" fill="#4D4D4D"/>
<path d="M30 22V21.9421V21.8843V21.8264V21.7685C28.8439 21.3235 27.6602 20.9279 26.4529 20.5844C25.2446 20.241 24.0117 19.9507 22.7583 19.7163C21.5049 19.482 20.2279 19.3027 18.9345 19.1822C17.6401 19.0617 16.3282 19 15 19C13.6718 19 12.3589 19.0617 11.0655 19.1822C9.77111 19.3027 8.49515 19.482 7.24173 19.7163C5.98832 19.9507 4.7554 20.2419 3.54708 20.5844C2.33875 20.9279 1.15605 21.3235 0 21.7685V21.8264V21.8843V21.9421V22C1.15503 21.5522 2.33773 21.1546 3.54605 20.8093C4.75335 20.4639 5.98627 20.1717 7.24071 19.9364C8.49515 19.7011 9.77111 19.5199 11.0655 19.3994C12.3599 19.278 13.6728 19.2163 15.002 19.2163C16.3303 19.2163 17.6431 19.278 18.9376 19.3994C20.232 19.5209 21.5079 19.7011 22.7624 19.9364C24.0168 20.1717 25.2487 20.4649 26.457 20.8093C27.6612 21.1546 28.845 21.5522 30 22Z" fill="#4D4D4D"/>
<path d="M5.73703 25.26C5.73703 25.1467 5.7337 25.0267 5.72703 24.9C5.7237 24.7733 5.71203 24.6483 5.69203 24.525C5.67203 24.4017 5.64036 24.285 5.59703 24.175C5.5537 24.065 5.49203 23.9717 5.41203 23.895C5.3487 23.835 5.2737 23.7867 5.18703 23.75C5.1037 23.7133 5.00036 23.695 4.87703 23.695C4.7537 23.695 4.6487 23.7133 4.56203 23.75C4.4787 23.7867 4.40536 23.835 4.34203 23.895C4.26203 23.9717 4.20036 24.065 4.15703 24.175C4.1137 24.285 4.08203 24.4017 4.06203 24.525C4.04203 24.6483 4.0287 24.7733 4.02203 24.9C4.0187 25.0267 4.01703 25.1467 4.01703 25.26C4.01703 25.3733 4.0187 25.4933 4.02203 25.62C4.0287 25.7467 4.04203 25.8717 4.06203 25.995C4.08203 26.1183 4.1137 26.235 4.15703 26.345C4.20036 26.455 4.26203 26.5483 4.34203 26.625C4.40536 26.685 4.4787 26.7333 4.56203 26.77C4.6487 26.8067 4.7537 26.825 4.87703 26.825C5.00036 26.825 5.1037 26.8067 5.18703 26.77C5.2737 26.7333 5.3487 26.685 5.41203 26.625C5.49203 26.5483 5.5537 26.455 5.59703 26.345C5.64036 26.235 5.67203 26.1183 5.69203 25.995C5.71203 25.8717 5.7237 25.7467 5.72703 25.62C5.7337 25.4933 5.73703 25.3733 5.73703 25.26ZM5.99203 25.26C5.99203 25.3967 5.98703 25.5367 5.97703 25.68C5.97036 25.8233 5.95203 25.9633 5.92203 26.1C5.89203 26.2333 5.85036 26.36 5.79703 26.48C5.7437 26.5967 5.67203 26.6983 5.58203 26.785C5.50203 26.8617 5.4037 26.9283 5.28703 26.985C5.1737 27.0383 5.03703 27.065 4.87703 27.065C4.71703 27.065 4.5787 27.0383 4.46203 26.985C4.3487 26.9283 4.25203 26.8617 4.17203 26.785C4.08203 26.6983 4.01036 26.5967 3.95703 26.48C3.9037 26.36 3.86203 26.2333 3.83203 26.1C3.80203 25.9633 3.78203 25.8233 3.77203 25.68C3.76536 25.5367 3.76203 25.3967 3.76203 25.26C3.76203 25.1233 3.76536 24.9833 3.77203 24.84C3.78203 24.6967 3.80203 24.5583 3.83203 24.425C3.86203 24.2883 3.9037 24.1617 3.95703 24.045C4.01036 23.925 4.08203 23.8217 4.17203 23.735C4.25203 23.6583 4.3487 23.5933 4.46203 23.54C4.5787 23.4833 4.71703 23.455 4.87703 23.455C5.03703 23.455 5.1737 23.4833 5.28703 23.54C5.4037 23.5933 5.50203 23.6583 5.58203 23.735C5.67203 23.8217 5.7437 23.925 5.79703 24.045C5.85036 24.1617 5.89203 24.2883 5.92203 24.425C5.95203 24.5583 5.97036 24.6967 5.97703 24.84C5.98703 24.9833 5.99203 25.1233 5.99203 25.26ZM8.08883 24.215C8.08883 24.1317 8.07383 24.0533 8.04383 23.98C8.01383 23.9033 7.97216 23.8383 7.91883 23.785C7.86549 23.7283 7.80216 23.685 7.72883 23.655C7.65549 23.6217 7.57716 23.605 7.49383 23.605C7.40716 23.605 7.32716 23.6217 7.25383 23.655C7.18383 23.685 7.12049 23.7283 7.06383 23.785C7.01049 23.8383 6.96883 23.9033 6.93883 23.98C6.90883 24.0533 6.89383 24.1317 6.89383 24.215C6.89383 24.3017 6.90883 24.3817 6.93883 24.455C6.96883 24.5283 7.01049 24.5933 7.06383 24.65C7.12049 24.7033 7.18383 24.7467 7.25383 24.78C7.32716 24.81 7.40716 24.825 7.49383 24.825C7.57716 24.825 7.65549 24.81 7.72883 24.78C7.80216 24.7467 7.86549 24.7033 7.91883 24.65C7.97216 24.5933 8.01383 24.5283 8.04383 24.455C8.07383 24.3817 8.08883 24.3017 8.08883 24.215ZM8.31883 24.215C8.31883 24.3283 8.29716 24.4367 8.25383 24.54C8.21049 24.64 8.15049 24.7283 8.07383 24.805C8.00049 24.8783 7.91383 24.9367 7.81383 24.98C7.71383 25.0233 7.60716 25.045 7.49383 25.045C7.38049 25.045 7.27216 25.0233 7.16883 24.98C7.06883 24.9367 6.98049 24.8783 6.90383 24.805C6.83049 24.7283 6.77216 24.64 6.72883 24.54C6.68549 24.4367 6.66383 24.3283 6.66383 24.215C6.66383 24.1017 6.68549 23.995 6.72883 23.895C6.77216 23.7917 6.83049 23.7033 6.90383 23.63C6.98049 23.5533 7.06883 23.4933 7.16883 23.45C7.27216 23.4067 7.38049 23.385 7.49383 23.385C7.60716 23.385 7.71383 23.4067 7.81383 23.45C7.91383 23.4933 8.00049 23.5533 8.07383 23.63C8.15049 23.7033 8.21049 23.7917 8.25383 23.895C8.29716 23.995 8.31883 24.1017 8.31883 24.215ZM11.4359 26.975C11.3659 26.9917 11.2959 27.005 11.2259 27.015C11.1592 27.0283 11.0909 27.035 11.0209 27.035C10.7875 27.035 10.6209 26.9683 10.5209 26.835C10.4242 26.6983 10.3759 26.5217 10.3759 26.305V24.73H9.87586V24.5H10.3759V23.81L10.6259 23.75V24.5H11.4009V24.73H10.6259V26.295C10.6259 26.3683 10.6309 26.4367 10.6409 26.5C10.6542 26.56 10.6759 26.6133 10.7059 26.66C10.7392 26.7033 10.7825 26.7383 10.8359 26.765C10.8892 26.7883 10.9575 26.8 11.0409 26.8C11.1075 26.8 11.1725 26.7967 11.2359 26.79C11.3025 26.78 11.3692 26.7683 11.4359 26.755V26.975ZM13.7526 25.75C13.7526 25.5867 13.7343 25.4333 13.6976 25.29C13.661 25.1467 13.586 25.0167 13.4726 24.9C13.406 24.8333 13.3276 24.78 13.2376 24.74C13.1476 24.7 13.0426 24.68 12.9226 24.68C12.8026 24.68 12.6976 24.7 12.6076 24.74C12.5176 24.78 12.4393 24.8333 12.3726 24.9C12.2593 25.0167 12.1843 25.1467 12.1476 25.29C12.111 25.4333 12.0926 25.5867 12.0926 25.75C12.0926 25.9133 12.111 26.0667 12.1476 26.21C12.1843 26.3533 12.2593 26.4833 12.3726 26.6C12.4393 26.6667 12.5176 26.72 12.6076 26.76C12.6976 26.8 12.8026 26.82 12.9226 26.82C13.0426 26.82 13.1476 26.8 13.2376 26.76C13.3276 26.72 13.406 26.6667 13.4726 26.6C13.586 26.4833 13.661 26.3533 13.6976 26.21C13.7343 26.0667 13.7526 25.9133 13.7526 25.75ZM14.0076 25.75C14.0076 25.9633 13.981 26.1533 13.9276 26.32C13.8743 26.4867 13.7826 26.635 13.6526 26.765C13.566 26.8517 13.461 26.9233 13.3376 26.98C13.2176 27.0367 13.0793 27.065 12.9226 27.065C12.766 27.065 12.626 27.0367 12.5026 26.98C12.3826 26.9233 12.2793 26.8517 12.1926 26.765C12.0626 26.635 11.971 26.4867 11.9176 26.32C11.8643 26.1533 11.8376 25.9633 11.8376 25.75C11.8376 25.5367 11.8643 25.3467 11.9176 25.18C11.971 25.0133 12.0626 24.865 12.1926 24.735C12.2793 24.6483 12.3826 24.5767 12.5026 24.52C12.626 24.4633 12.766 24.435 12.9226 24.435C13.0793 24.435 13.2176 24.4633 13.3376 24.52C13.461 24.5767 13.566 24.6483 13.6526 24.735C13.7826 24.865 13.8743 25.0133 13.9276 25.18C13.981 25.3467 14.0076 25.5367 14.0076 25.75ZM17.5263 26.205V27H17.2713V26.205H15.6313V25.93L17.0463 23.525H17.3313L15.9013 25.955H17.2713V24.88H17.5263V25.955H18.0113V26.205H17.5263ZM20.7431 25.91C20.7431 26.0733 20.7215 26.225 20.6781 26.365C20.6348 26.505 20.5681 26.6283 20.4781 26.735C20.3915 26.8383 20.2798 26.92 20.1431 26.98C20.0098 27.04 19.8531 27.07 19.6731 27.07C19.5098 27.07 19.3615 27.0433 19.2281 26.99C19.0981 26.9333 18.9848 26.8567 18.8881 26.76C18.7948 26.6633 18.7215 26.55 18.6681 26.42C18.6181 26.29 18.5915 26.1483 18.5881 25.995H18.8431C18.8465 26.1183 18.8681 26.2317 18.9081 26.335C18.9515 26.4383 19.0081 26.5267 19.0781 26.6C19.1481 26.6733 19.2331 26.73 19.3331 26.77C19.4331 26.81 19.5465 26.83 19.6731 26.83C19.9465 26.83 20.1498 26.745 20.2831 26.575C20.4198 26.405 20.4881 26.1833 20.4881 25.91C20.4881 25.7833 20.4731 25.665 20.4431 25.555C20.4131 25.4417 20.3665 25.3433 20.3031 25.26C20.2398 25.1767 20.1581 25.1117 20.0581 25.065C19.9615 25.015 19.8465 24.99 19.7131 24.99C19.5631 24.99 19.4215 25.0217 19.2881 25.085C19.1548 25.145 19.0481 25.24 18.9681 25.37H18.6581L18.7381 23.525H20.6281V23.76H18.9781L18.9081 25.14C18.9948 25 19.1115 24.9017 19.2581 24.845C19.4048 24.785 19.5565 24.755 19.7131 24.755C19.8865 24.755 20.0365 24.785 20.1631 24.845C20.2931 24.9017 20.3998 24.9817 20.4831 25.085C20.5698 25.1883 20.6348 25.3117 20.6781 25.455C20.7215 25.595 20.7431 25.7467 20.7431 25.91ZM22.8349 24.215C22.8349 24.1317 22.8199 24.0533 22.7899 23.98C22.7599 23.9033 22.7183 23.8383 22.6649 23.785C22.6116 23.7283 22.5483 23.685 22.4749 23.655C22.4016 23.6217 22.3233 23.605 22.2399 23.605C22.1533 23.605 22.0733 23.6217 21.9999 23.655C21.9299 23.685 21.8666 23.7283 21.8099 23.785C21.7566 23.8383 21.7149 23.9033 21.6849 23.98C21.6549 24.0533 21.6399 24.1317 21.6399 24.215C21.6399 24.3017 21.6549 24.3817 21.6849 24.455C21.7149 24.5283 21.7566 24.5933 21.8099 24.65C21.8666 24.7033 21.9299 24.7467 21.9999 24.78C22.0733 24.81 22.1533 24.825 22.2399 24.825C22.3233 24.825 22.4016 24.81 22.4749 24.78C22.5483 24.7467 22.6116 24.7033 22.6649 24.65C22.7183 24.5933 22.7599 24.5283 22.7899 24.455C22.8199 24.3817 22.8349 24.3017 22.8349 24.215ZM23.0649 24.215C23.0649 24.3283 23.0433 24.4367 22.9999 24.54C22.9566 24.64 22.8966 24.7283 22.8199 24.805C22.7466 24.8783 22.6599 24.9367 22.5599 24.98C22.4599 25.0233 22.3533 25.045 22.2399 25.045C22.1266 25.045 22.0183 25.0233 21.9149 24.98C21.8149 24.9367 21.7266 24.8783 21.6499 24.805C21.5766 24.7283 21.5183 24.64 21.4749 24.54C21.4316 24.4367 21.4099 24.3283 21.4099 24.215C21.4099 24.1017 21.4316 23.995 21.4749 23.895C21.5183 23.7917 21.5766 23.7033 21.6499 23.63C21.7266 23.5533 21.8149 23.4933 21.9149 23.45C22.0183 23.4067 22.1266 23.385 22.2399 23.385C22.3533 23.385 22.4599 23.4067 22.5599 23.45C22.6599 23.4933 22.7466 23.5533 22.8199 23.63C22.8966 23.7033 22.9566 23.7917 22.9999 23.895C23.0433 23.995 23.0649 24.1017 23.0649 24.215ZM26.3277 25.915C26.3144 26.0783 26.2744 26.23 26.2077 26.37C26.1411 26.51 26.0527 26.6317 25.9427 26.735C25.8327 26.8383 25.7027 26.92 25.5527 26.98C25.4061 27.0367 25.2444 27.065 25.0677 27.065C24.8977 27.065 24.7294 27.0317 24.5627 26.965C24.3994 26.8983 24.2561 26.8033 24.1327 26.68C24.0361 26.5833 23.9594 26.4767 23.9027 26.36C23.8494 26.2433 23.8094 26.1233 23.7827 26C23.7561 25.8733 23.7377 25.745 23.7277 25.615C23.7211 25.4817 23.7177 25.3517 23.7177 25.225C23.7177 25.0983 23.7211 24.97 23.7277 24.84C23.7377 24.71 23.7561 24.5817 23.7827 24.455C23.8094 24.3283 23.8494 24.2083 23.9027 24.095C23.9594 23.9783 24.0361 23.8717 24.1327 23.775C24.2561 23.6517 24.3994 23.5567 24.5627 23.49C24.7294 23.4233 24.8977 23.39 25.0677 23.39C25.2444 23.39 25.4061 23.42 25.5527 23.48C25.7027 23.5367 25.8327 23.6167 25.9427 23.72C26.0527 23.8233 26.1411 23.945 26.2077 24.085C26.2744 24.225 26.3144 24.3767 26.3277 24.54H26.0577C26.0477 24.41 26.0161 24.29 25.9627 24.18C25.9094 24.07 25.8394 23.975 25.7527 23.895C25.6694 23.815 25.5694 23.7533 25.4527 23.71C25.3361 23.6667 25.2077 23.645 25.0677 23.645C24.9077 23.645 24.7677 23.6717 24.6477 23.725C24.5277 23.7783 24.4194 23.8533 24.3227 23.95C24.2427 24.0333 24.1794 24.1267 24.1327 24.23C24.0894 24.3333 24.0561 24.4417 24.0327 24.555C24.0127 24.665 23.9994 24.7783 23.9927 24.895C23.9894 25.0083 23.9877 25.1183 23.9877 25.225C23.9877 25.3317 23.9894 25.4433 23.9927 25.56C23.9994 25.6733 24.0144 25.7867 24.0377 25.9C24.0611 26.0133 24.0944 26.1217 24.1377 26.225C24.1844 26.3283 24.2477 26.4217 24.3277 26.505C24.5244 26.7083 24.7711 26.81 25.0677 26.81C25.2077 26.81 25.3361 26.7883 25.4527 26.745C25.5694 26.7017 25.6694 26.64 25.7527 26.56C25.8394 26.48 25.9094 26.385 25.9627 26.275C26.0161 26.165 26.0477 26.045 26.0577 25.915H26.3277Z" fill="#4D4D4D"/>
<path d="M16.3669 4.99168H16.7754H17.1839H17.5923H18V5.09318V5.19551V5.29784V5.39934H17.5923H17.1839H16.7754H16.3669V5.29784V5.19551V5.09318V4.99168Z" fill="#4D4D4D"/>
<path d="M16.3669 6.62479H16.5865H16.8062H17.0258H17.2446V6.72712V6.82861V6.93094V7.03327H17.0258H16.8062H16.5865H16.3669V6.93094V6.82861V6.72712V6.62479Z" fill="#4D4D4D"/>
<path d="M16.3669 8.2579H16.7754H17.1839H17.5923H18V8.36023V8.46256V8.56489V8.66639H17.5923H17.1839H16.7754H16.3669V8.56489V8.46256V8.36023V8.2579Z" fill="#4D4D4D"/>
<path d="M16.3669 9.89185H16.5865H16.8062H17.0258H17.2446V9.99418V10.0957V10.198V10.3003H17.0258H16.8062H16.5865H16.3669V10.198V10.0957V9.99418V9.89185Z" fill="#4D4D4D"/>
<path d="M16.3669 11.525H16.7754H17.1839H17.5923H18V11.6273V11.7296V11.832V11.9334H17.5923H17.1839H16.7754H16.3669V11.832V11.7296V11.6273V11.525Z" fill="#4D4D4D"/>
<path d="M16.0716 12.7654V10.6647V8.56407V6.46423V4.36356C16.0716 4.17554 16.0333 3.99584 15.9642 3.83278C15.8952 3.66972 15.7953 3.5233 15.6722 3.39933C15.5491 3.27537 15.4018 3.17637 15.2388 3.10732C15.0757 3.03827 14.896 3 14.708 3C14.52 3 14.3403 3.03827 14.1772 3.10732C14.0141 3.17637 13.8677 3.27621 13.7438 3.39933C13.6206 3.52246 13.5208 3.66972 13.4517 3.83278C13.3827 3.99584 13.3444 4.17471 13.3444 4.36356V6.46423V8.5649V10.6656V12.7662C13.1431 12.8835 12.9584 13.0258 12.7953 13.1897C12.6323 13.3536 12.4884 13.5374 12.371 13.7379C12.2537 13.9384 12.1606 14.1556 12.0973 14.3852C12.0341 14.6148 12 14.8561 12 15.1057C12 15.4792 12.0757 15.8361 12.213 16.1597C12.3503 16.4834 12.5483 16.7754 12.7928 17.02C13.0374 17.2646 13.3295 17.4634 13.6531 17.5998C13.9767 17.7371 14.3328 17.8128 14.7072 17.8128C15.0807 17.8128 15.4368 17.7371 15.7612 17.5998C16.0849 17.4626 16.3769 17.2646 16.6215 17.02C16.8661 16.7754 17.0649 16.4834 17.2013 16.1597C17.3386 15.8361 17.4143 15.48 17.4143 15.1057C17.4143 14.8561 17.3802 14.6148 17.317 14.3852C17.2537 14.1556 17.1614 13.9384 17.0433 13.7379C16.9251 13.5374 16.7829 13.3536 16.619 13.1897C16.4551 13.0258 16.2729 12.8827 16.0716 12.7654ZM14.7088 17.322C14.4035 17.322 14.1115 17.2596 13.8469 17.1473C13.5815 17.035 13.3428 16.8727 13.1423 16.6714C12.9418 16.4701 12.7787 16.2313 12.6664 15.9667C12.5541 15.7022 12.4917 15.4102 12.4917 15.104C12.4917 14.9077 12.5183 14.7147 12.5682 14.5291C12.6181 14.3436 12.6922 14.1664 12.7879 14C12.8827 13.8345 12.9992 13.6805 13.1348 13.5441C13.2696 13.4068 13.4235 13.287 13.594 13.188L13.6547 13.1523L13.7155 13.1165L13.7762 13.0807L13.8369 13.0449V10.8744V8.70467V6.53411V4.36356C13.8369 4.24293 13.8611 4.12895 13.906 4.02413C13.9501 3.92013 14.0141 3.82529 14.0932 3.74626C14.1722 3.66722 14.2662 3.60316 14.3711 3.55907C14.4759 3.51498 14.5899 3.49002 14.7105 3.49002C14.8311 3.49002 14.9459 3.51414 15.0499 3.55907C15.1539 3.60399 15.2488 3.66722 15.3278 3.74626C15.4068 3.82529 15.4709 3.9193 15.515 4.02413C15.5591 4.12812 15.584 4.24293 15.584 4.36356V6.53411V8.70467V10.8752V13.0458L15.6448 13.0815L15.7055 13.1173L15.7662 13.1531L15.827 13.1889C15.9967 13.2879 16.1506 13.4085 16.2854 13.5449C16.4201 13.6814 16.5366 13.8353 16.6323 14.0008C16.7271 14.1664 16.8012 14.3444 16.8519 14.53C16.9027 14.7155 16.9285 14.9085 16.9285 15.1048C16.9285 15.4102 16.8661 15.7022 16.7537 15.9676C16.6414 16.233 16.4792 16.4717 16.2779 16.6722C16.0774 16.8727 15.8378 17.0358 15.5732 17.1481C15.3053 17.2596 15.0141 17.322 14.7088 17.322Z" fill="#4D4D4D"/>
<path fill-rule="evenodd" clip-rule="evenodd" d="M14.7088 9.58153C14.772 9.58153 14.8319 9.59401 14.8869 9.6173C14.9418 9.6406 14.9908 9.67387 15.0324 9.71547C15.074 9.75707 15.1073 9.80615 15.1306 9.86106C15.1539 9.91597 15.1664 9.97587 15.1664 10.0391V10.881V11.723V12.5649V13.4068C15.3494 13.4567 15.5208 13.5366 15.6739 13.6406C15.8278 13.7446 15.9634 13.8719 16.0765 14.0183C16.1897 14.1647 16.2795 14.3295 16.3419 14.5075C16.4035 14.6855 16.4376 14.8769 16.4376 15.0757C16.4376 15.3145 16.3893 15.5416 16.302 15.7488C16.2146 15.9559 16.0882 16.1423 15.9309 16.2987C15.7745 16.4551 15.5882 16.5815 15.381 16.6697C15.1739 16.7571 14.9468 16.8053 14.708 16.8053C14.4692 16.8053 14.2421 16.7571 14.0349 16.6697C13.8278 16.5824 13.6414 16.4559 13.485 16.2987C13.3286 16.1423 13.2022 15.9559 13.114 15.7488C13.0266 15.5416 12.9784 15.3145 12.9784 15.0757C12.9784 14.8769 13.0116 14.6855 13.074 14.5075C13.1356 14.3295 13.2263 14.1647 13.3394 14.0183C13.4526 13.8719 13.589 13.7446 13.7421 13.6406C13.896 13.5366 14.0666 13.4576 14.2496 13.4068V12.5649V11.723V10.881V10.0391C14.2496 9.97587 14.2621 9.91597 14.2854 9.86106C14.3086 9.80615 14.3419 9.75707 14.3835 9.71547C14.4251 9.67387 14.4742 9.6406 14.5291 9.6173C14.584 9.59401 14.6456 9.58153 14.7088 9.58153Z" fill="#4C4C4C"/>
</svg>
