<svg width="30" height="30" viewBox="0 0 30 30" fill="none" xmlns="http://www.w3.org/2000/svg">
<rect width="30" height="30" fill="white"/>
<path d="M30 30H22.5H15H7.5H0V22.5003V15.0005V7.49975V0H7.5H15H22.5H30V7.49975V14.9995V22.4992V30ZM0.252287 29.7477H7.62614H15H22.3739H29.7477V22.3741V15.0005V7.62589V0.252279H22.3739H15H7.62614H0.252287V7.62589V14.9995V22.3731V29.7477Z" fill="#4D4D4D"/>
<path d="M30 22V21.9421V21.8843V21.8264V21.7685C28.8439 21.3235 27.6602 20.9279 26.4529 20.5844C25.2446 20.241 24.0117 19.9507 22.7583 19.7163C21.5049 19.482 20.2279 19.3027 18.9345 19.1822C17.6401 19.0617 16.3282 19 15 19C13.6718 19 12.3589 19.0617 11.0655 19.1822C9.77111 19.3027 8.49515 19.482 7.24173 19.7163C5.98832 19.9507 4.7554 20.2419 3.54708 20.5844C2.33875 20.9279 1.15605 21.3235 0 21.7685V21.8264V21.8843V21.9421V22C1.15503 21.5522 2.33773 21.1546 3.54605 20.8093C4.75335 20.4639 5.98627 20.1717 7.24071 19.9364C8.49515 19.7011 9.77111 19.5199 11.0655 19.3994C12.3599 19.278 13.6728 19.2163 15.002 19.2163C16.3303 19.2163 17.6431 19.278 18.9376 19.3994C20.232 19.5209 21.5079 19.7011 22.7624 19.9364C24.0168 20.1717 25.2487 20.4649 26.457 20.8093C27.6612 21.1546 28.845 21.5522 30 22Z" fill="#4D4D4D"/>
<path d="M1.32959 25.605V25.375H2.74459V25.605H1.32959ZM5.28268 26.205V27H5.02768V26.205H3.38768V25.93L4.80268 23.525H5.08768L3.65768 25.955H5.02768V24.88H5.28268V25.955H5.76768V26.205H5.28268ZM8.23947 25.26C8.23947 25.1467 8.23614 25.0267 8.22947 24.9C8.22614 24.7733 8.21447 24.6483 8.19447 24.525C8.17447 24.4017 8.14281 24.285 8.09947 24.175C8.05614 24.065 7.99447 23.9717 7.91447 23.895C7.85114 23.835 7.77614 23.7867 7.68947 23.75C7.60614 23.7133 7.50281 23.695 7.37947 23.695C7.25614 23.695 7.15114 23.7133 7.06447 23.75C6.98114 23.7867 6.90781 23.835 6.84447 23.895C6.76447 23.9717 6.70281 24.065 6.65947 24.175C6.61614 24.285 6.58447 24.4017 6.56447 24.525C6.54447 24.6483 6.53114 24.7733 6.52447 24.9C6.52114 25.0267 6.51947 25.1467 6.51947 25.26C6.51947 25.3733 6.52114 25.4933 6.52447 25.62C6.53114 25.7467 6.54447 25.8717 6.56447 25.995C6.58447 26.1183 6.61614 26.235 6.65947 26.345C6.70281 26.455 6.76447 26.5483 6.84447 26.625C6.90781 26.685 6.98114 26.7333 7.06447 26.77C7.15114 26.8067 7.25614 26.825 7.37947 26.825C7.50281 26.825 7.60614 26.8067 7.68947 26.77C7.77614 26.7333 7.85114 26.685 7.91447 26.625C7.99447 26.5483 8.05614 26.455 8.09947 26.345C8.14281 26.235 8.17447 26.1183 8.19447 25.995C8.21447 25.8717 8.22614 25.7467 8.22947 25.62C8.23614 25.4933 8.23947 25.3733 8.23947 25.26ZM8.49447 25.26C8.49447 25.3967 8.48947 25.5367 8.47947 25.68C8.47281 25.8233 8.45447 25.9633 8.42447 26.1C8.39447 26.2333 8.35281 26.36 8.29947 26.48C8.24614 26.5967 8.17447 26.6983 8.08447 26.785C8.00447 26.8617 7.90614 26.9283 7.78947 26.985C7.67614 27.0383 7.53947 27.065 7.37947 27.065C7.21947 27.065 7.08114 27.0383 6.96447 26.985C6.85114 26.9283 6.75447 26.8617 6.67447 26.785C6.58447 26.6983 6.51281 26.5967 6.45947 26.48C6.40614 26.36 6.36447 26.2333 6.33447 26.1C6.30447 25.9633 6.28447 25.8233 6.27447 25.68C6.26781 25.5367 6.26447 25.3967 6.26447 25.26C6.26447 25.1233 6.26781 24.9833 6.27447 24.84C6.28447 24.6967 6.30447 24.5583 6.33447 24.425C6.36447 24.2883 6.40614 24.1617 6.45947 24.045C6.51281 23.925 6.58447 23.8217 6.67447 23.735C6.75447 23.6583 6.85114 23.5933 6.96447 23.54C7.08114 23.4833 7.21947 23.455 7.37947 23.455C7.53947 23.455 7.67614 23.4833 7.78947 23.54C7.90614 23.5933 8.00447 23.6583 8.08447 23.735C8.17447 23.8217 8.24614 23.925 8.29947 24.045C8.35281 24.1617 8.39447 24.2883 8.42447 24.425C8.45447 24.5583 8.47281 24.6967 8.47947 24.84C8.48947 24.9833 8.49447 25.1233 8.49447 25.26ZM10.5913 24.215C10.5913 24.1317 10.5763 24.0533 10.5463 23.98C10.5163 23.9033 10.4746 23.8383 10.4213 23.785C10.3679 23.7283 10.3046 23.685 10.2313 23.655C10.1579 23.6217 10.0796 23.605 9.99627 23.605C9.9096 23.605 9.8296 23.6217 9.75627 23.655C9.68627 23.685 9.62294 23.7283 9.56627 23.785C9.51294 23.8383 9.47127 23.9033 9.44127 23.98C9.41127 24.0533 9.39627 24.1317 9.39627 24.215C9.39627 24.3017 9.41127 24.3817 9.44127 24.455C9.47127 24.5283 9.51294 24.5933 9.56627 24.65C9.62294 24.7033 9.68627 24.7467 9.75627 24.78C9.8296 24.81 9.9096 24.825 9.99627 24.825C10.0796 24.825 10.1579 24.81 10.2313 24.78C10.3046 24.7467 10.3679 24.7033 10.4213 24.65C10.4746 24.5933 10.5163 24.5283 10.5463 24.455C10.5763 24.3817 10.5913 24.3017 10.5913 24.215ZM10.8213 24.215C10.8213 24.3283 10.7996 24.4367 10.7563 24.54C10.7129 24.64 10.6529 24.7283 10.5763 24.805C10.5029 24.8783 10.4163 24.9367 10.3163 24.98C10.2163 25.0233 10.1096 25.045 9.99627 25.045C9.88294 25.045 9.7746 25.0233 9.67127 24.98C9.57127 24.9367 9.48294 24.8783 9.40627 24.805C9.33294 24.7283 9.2746 24.64 9.23127 24.54C9.18794 24.4367 9.16627 24.3283 9.16627 24.215C9.16627 24.1017 9.18794 23.995 9.23127 23.895C9.2746 23.7917 9.33294 23.7033 9.40627 23.63C9.48294 23.5533 9.57127 23.4933 9.67127 23.45C9.7746 23.4067 9.88294 23.385 9.99627 23.385C10.1096 23.385 10.2163 23.4067 10.3163 23.45C10.4163 23.4933 10.5029 23.5533 10.5763 23.63C10.6529 23.7033 10.7129 23.7917 10.7563 23.895C10.7996 23.995 10.8213 24.1017 10.8213 24.215ZM13.9383 26.975C13.8683 26.9917 13.7983 27.005 13.7283 27.015C13.6616 27.0283 13.5933 27.035 13.5233 27.035C13.29 27.035 13.1233 26.9683 13.0233 26.835C12.9266 26.6983 12.8783 26.5217 12.8783 26.305V24.73H12.3783V24.5H12.8783V23.81L13.1283 23.75V24.5H13.9033V24.73H13.1283V26.295C13.1283 26.3683 13.1333 26.4367 13.1433 26.5C13.1566 26.56 13.1783 26.6133 13.2083 26.66C13.2416 26.7033 13.285 26.7383 13.3383 26.765C13.3916 26.7883 13.46 26.8 13.5433 26.8C13.61 26.8 13.675 26.7967 13.7383 26.79C13.805 26.78 13.8716 26.7683 13.9383 26.755V26.975ZM16.2551 25.75C16.2551 25.5867 16.2367 25.4333 16.2001 25.29C16.1634 25.1467 16.0884 25.0167 15.9751 24.9C15.9084 24.8333 15.8301 24.78 15.7401 24.74C15.6501 24.7 15.5451 24.68 15.4251 24.68C15.3051 24.68 15.2001 24.7 15.1101 24.74C15.0201 24.78 14.9417 24.8333 14.8751 24.9C14.7617 25.0167 14.6867 25.1467 14.6501 25.29C14.6134 25.4333 14.5951 25.5867 14.5951 25.75C14.5951 25.9133 14.6134 26.0667 14.6501 26.21C14.6867 26.3533 14.7617 26.4833 14.8751 26.6C14.9417 26.6667 15.0201 26.72 15.1101 26.76C15.2001 26.8 15.3051 26.82 15.4251 26.82C15.5451 26.82 15.6501 26.8 15.7401 26.76C15.8301 26.72 15.9084 26.6667 15.9751 26.6C16.0884 26.4833 16.1634 26.3533 16.2001 26.21C16.2367 26.0667 16.2551 25.9133 16.2551 25.75ZM16.5101 25.75C16.5101 25.9633 16.4834 26.1533 16.4301 26.32C16.3767 26.4867 16.2851 26.635 16.1551 26.765C16.0684 26.8517 15.9634 26.9233 15.8401 26.98C15.7201 27.0367 15.5817 27.065 15.4251 27.065C15.2684 27.065 15.1284 27.0367 15.0051 26.98C14.8851 26.9233 14.7817 26.8517 14.6951 26.765C14.5651 26.635 14.4734 26.4867 14.4201 26.32C14.3667 26.1533 14.3401 25.9633 14.3401 25.75C14.3401 25.5367 14.3667 25.3467 14.4201 25.18C14.4734 25.0133 14.5651 24.865 14.6951 24.735C14.7817 24.6483 14.8851 24.5767 15.0051 24.52C15.1284 24.4633 15.2684 24.435 15.4251 24.435C15.5817 24.435 15.7201 24.4633 15.8401 24.52C15.9634 24.5767 16.0684 24.6483 16.1551 24.735C16.2851 24.865 16.3767 25.0133 16.4301 25.18C16.4834 25.3467 16.5101 25.5367 16.5101 25.75ZM18.8138 27H18.5438L20.0538 23.765H18.1388V23.525H20.3088V23.79L18.8138 27ZM22.9856 25.26C22.9856 25.1467 22.9822 25.0267 22.9756 24.9C22.9722 24.7733 22.9606 24.6483 22.9406 24.525C22.9206 24.4017 22.8889 24.285 22.8456 24.175C22.8022 24.065 22.7406 23.9717 22.6606 23.895C22.5972 23.835 22.5222 23.7867 22.4356 23.75C22.3522 23.7133 22.2489 23.695 22.1256 23.695C22.0022 23.695 21.8972 23.7133 21.8106 23.75C21.7272 23.7867 21.6539 23.835 21.5906 23.895C21.5106 23.9717 21.4489 24.065 21.4056 24.175C21.3622 24.285 21.3306 24.4017 21.3106 24.525C21.2906 24.6483 21.2772 24.7733 21.2706 24.9C21.2672 25.0267 21.2656 25.1467 21.2656 25.26C21.2656 25.3733 21.2672 25.4933 21.2706 25.62C21.2772 25.7467 21.2906 25.8717 21.3106 25.995C21.3306 26.1183 21.3622 26.235 21.4056 26.345C21.4489 26.455 21.5106 26.5483 21.5906 26.625C21.6539 26.685 21.7272 26.7333 21.8106 26.77C21.8972 26.8067 22.0022 26.825 22.1256 26.825C22.2489 26.825 22.3522 26.8067 22.4356 26.77C22.5222 26.7333 22.5972 26.685 22.6606 26.625C22.7406 26.5483 22.8022 26.455 22.8456 26.345C22.8889 26.235 22.9206 26.1183 22.9406 25.995C22.9606 25.8717 22.9722 25.7467 22.9756 25.62C22.9822 25.4933 22.9856 25.3733 22.9856 25.26ZM23.2406 25.26C23.2406 25.3967 23.2356 25.5367 23.2256 25.68C23.2189 25.8233 23.2006 25.9633 23.1706 26.1C23.1406 26.2333 23.0989 26.36 23.0456 26.48C22.9922 26.5967 22.9206 26.6983 22.8306 26.785C22.7506 26.8617 22.6522 26.9283 22.5356 26.985C22.4222 27.0383 22.2856 27.065 22.1256 27.065C21.9656 27.065 21.8272 27.0383 21.7106 26.985C21.5972 26.9283 21.5006 26.8617 21.4206 26.785C21.3306 26.6983 21.2589 26.5967 21.2056 26.48C21.1522 26.36 21.1106 26.2333 21.0806 26.1C21.0506 25.9633 21.0306 25.8233 21.0206 25.68C21.0139 25.5367 21.0106 25.3967 21.0106 25.26C21.0106 25.1233 21.0139 24.9833 21.0206 24.84C21.0306 24.6967 21.0506 24.5583 21.0806 24.425C21.1106 24.2883 21.1522 24.1617 21.2056 24.045C21.2589 23.925 21.3306 23.8217 21.4206 23.735C21.5006 23.6583 21.5972 23.5933 21.7106 23.54C21.8272 23.4833 21.9656 23.455 22.1256 23.455C22.2856 23.455 22.4222 23.4833 22.5356 23.54C22.6522 23.5933 22.7506 23.6583 22.8306 23.735C22.9206 23.8217 22.9922 23.925 23.0456 24.045C23.0989 24.1617 23.1406 24.2883 23.1706 24.425C23.2006 24.5583 23.2189 24.6967 23.2256 24.84C23.2356 24.9833 23.2406 25.1233 23.2406 25.26ZM25.3374 24.215C25.3374 24.1317 25.3224 24.0533 25.2924 23.98C25.2624 23.9033 25.2207 23.8383 25.1674 23.785C25.114 23.7283 25.0507 23.685 24.9774 23.655C24.904 23.6217 24.8257 23.605 24.7424 23.605C24.6557 23.605 24.5757 23.6217 24.5024 23.655C24.4324 23.685 24.369 23.7283 24.3124 23.785C24.259 23.8383 24.2174 23.9033 24.1874 23.98C24.1574 24.0533 24.1424 24.1317 24.1424 24.215C24.1424 24.3017 24.1574 24.3817 24.1874 24.455C24.2174 24.5283 24.259 24.5933 24.3124 24.65C24.369 24.7033 24.4324 24.7467 24.5024 24.78C24.5757 24.81 24.6557 24.825 24.7424 24.825C24.8257 24.825 24.904 24.81 24.9774 24.78C25.0507 24.7467 25.114 24.7033 25.1674 24.65C25.2207 24.5933 25.2624 24.5283 25.2924 24.455C25.3224 24.3817 25.3374 24.3017 25.3374 24.215ZM25.5674 24.215C25.5674 24.3283 25.5457 24.4367 25.5024 24.54C25.459 24.64 25.399 24.7283 25.3224 24.805C25.249 24.8783 25.1624 24.9367 25.0624 24.98C24.9624 25.0233 24.8557 25.045 24.7424 25.045C24.629 25.045 24.5207 25.0233 24.4174 24.98C24.3174 24.9367 24.229 24.8783 24.1524 24.805C24.079 24.7283 24.0207 24.64 23.9774 24.54C23.934 24.4367 23.9124 24.3283 23.9124 24.215C23.9124 24.1017 23.934 23.995 23.9774 23.895C24.0207 23.7917 24.079 23.7033 24.1524 23.63C24.229 23.5533 24.3174 23.4933 24.4174 23.45C24.5207 23.4067 24.629 23.385 24.7424 23.385C24.8557 23.385 24.9624 23.4067 25.0624 23.45C25.1624 23.4933 25.249 23.5533 25.3224 23.63C25.399 23.7033 25.459 23.7917 25.5024 23.895C25.5457 23.995 25.5674 24.1017 25.5674 24.215ZM28.8302 25.915C28.8168 26.0783 28.7768 26.23 28.7102 26.37C28.6435 26.51 28.5552 26.6317 28.4452 26.735C28.3352 26.8383 28.2052 26.92 28.0552 26.98C27.9085 27.0367 27.7468 27.065 27.5702 27.065C27.4002 27.065 27.2318 27.0317 27.0652 26.965C26.9018 26.8983 26.7585 26.8033 26.6352 26.68C26.5385 26.5833 26.4618 26.4767 26.4052 26.36C26.3518 26.2433 26.3118 26.1233 26.2852 26C26.2585 25.8733 26.2402 25.745 26.2302 25.615C26.2235 25.4817 26.2202 25.3517 26.2202 25.225C26.2202 25.0983 26.2235 24.97 26.2302 24.84C26.2402 24.71 26.2585 24.5817 26.2852 24.455C26.3118 24.3283 26.3518 24.2083 26.4052 24.095C26.4618 23.9783 26.5385 23.8717 26.6352 23.775C26.7585 23.6517 26.9018 23.5567 27.0652 23.49C27.2318 23.4233 27.4002 23.39 27.5702 23.39C27.7468 23.39 27.9085 23.42 28.0552 23.48C28.2052 23.5367 28.3352 23.6167 28.4452 23.72C28.5552 23.8233 28.6435 23.945 28.7102 24.085C28.7768 24.225 28.8168 24.3767 28.8302 24.54H28.5602C28.5502 24.41 28.5185 24.29 28.4652 24.18C28.4118 24.07 28.3418 23.975 28.2552 23.895C28.1718 23.815 28.0718 23.7533 27.9552 23.71C27.8385 23.6667 27.7102 23.645 27.5702 23.645C27.4102 23.645 27.2702 23.6717 27.1502 23.725C27.0302 23.7783 26.9218 23.8533 26.8252 23.95C26.7452 24.0333 26.6818 24.1267 26.6352 24.23C26.5918 24.3333 26.5585 24.4417 26.5352 24.555C26.5152 24.665 26.5018 24.7783 26.4952 24.895C26.4918 25.0083 26.4902 25.1183 26.4902 25.225C26.4902 25.3317 26.4918 25.4433 26.4952 25.56C26.5018 25.6733 26.5168 25.7867 26.5402 25.9C26.5635 26.0133 26.5968 26.1217 26.6402 26.225C26.6868 26.3283 26.7502 26.4217 26.8302 26.505C27.0268 26.7083 27.2735 26.81 27.5702 26.81C27.7102 26.81 27.8385 26.7883 27.9552 26.745C28.0718 26.7017 28.1718 26.64 28.2552 26.56C28.3418 26.48 28.4118 26.385 28.4652 26.275C28.5185 26.165 28.5502 26.045 28.5602 25.915H28.8302Z" fill="#4D4D4D"/>
<path d="M16.3669 4.99168H16.7754H17.1839H17.5923H18V5.09318V5.19551V5.29784V5.39934H17.5923H17.1839H16.7754H16.3669V5.29784V5.19551V5.09318V4.99168Z" fill="#4D4D4D"/>
<path d="M16.3669 6.62479H16.5865H16.8062H17.0258H17.2446V6.72712V6.82861V6.93094V7.03327H17.0258H16.8062H16.5865H16.3669V6.93094V6.82861V6.72712V6.62479Z" fill="#4D4D4D"/>
<path d="M16.3669 8.2579H16.7754H17.1839H17.5923H18V8.36023V8.46256V8.56489V8.66639H17.5923H17.1839H16.7754H16.3669V8.56489V8.46256V8.36023V8.2579Z" fill="#4D4D4D"/>
<path d="M16.3669 9.89185H16.5865H16.8062H17.0258H17.2446V9.99418V10.0957V10.198V10.3003H17.0258H16.8062H16.5865H16.3669V10.198V10.0957V9.99418V9.89185Z" fill="#4D4D4D"/>
<path d="M16.3669 11.525H16.7754H17.1839H17.5923H18V11.6273V11.7296V11.832V11.9334H17.5923H17.1839H16.7754H16.3669V11.832V11.7296V11.6273V11.525Z" fill="#4D4D4D"/>
<path d="M16.0716 12.7654V10.6647V8.56407V6.46423V4.36356C16.0716 4.17554 16.0333 3.99584 15.9642 3.83278C15.8952 3.66972 15.7953 3.5233 15.6722 3.39933C15.5491 3.27537 15.4018 3.17637 15.2388 3.10732C15.0757 3.03827 14.896 3 14.708 3C14.52 3 14.3403 3.03827 14.1772 3.10732C14.0141 3.17637 13.8677 3.27621 13.7438 3.39933C13.6206 3.52246 13.5208 3.66972 13.4517 3.83278C13.3827 3.99584 13.3444 4.17471 13.3444 4.36356V6.46423V8.5649V10.6656V12.7662C13.1431 12.8835 12.9584 13.0258 12.7953 13.1897C12.6323 13.3536 12.4884 13.5374 12.371 13.7379C12.2537 13.9384 12.1606 14.1556 12.0973 14.3852C12.0341 14.6148 12 14.8561 12 15.1057C12 15.4792 12.0757 15.8361 12.213 16.1597C12.3503 16.4834 12.5483 16.7754 12.7928 17.02C13.0374 17.2646 13.3295 17.4634 13.6531 17.5998C13.9767 17.7371 14.3328 17.8128 14.7072 17.8128C15.0807 17.8128 15.4368 17.7371 15.7612 17.5998C16.0849 17.4626 16.3769 17.2646 16.6215 17.02C16.8661 16.7754 17.0649 16.4834 17.2013 16.1597C17.3386 15.8361 17.4143 15.48 17.4143 15.1057C17.4143 14.8561 17.3802 14.6148 17.317 14.3852C17.2537 14.1556 17.1614 13.9384 17.0433 13.7379C16.9251 13.5374 16.7829 13.3536 16.619 13.1897C16.4551 13.0258 16.2729 12.8827 16.0716 12.7654ZM14.7088 17.322C14.4035 17.322 14.1115 17.2596 13.8469 17.1473C13.5815 17.035 13.3428 16.8727 13.1423 16.6714C12.9418 16.4701 12.7787 16.2313 12.6664 15.9667C12.5541 15.7022 12.4917 15.4102 12.4917 15.104C12.4917 14.9077 12.5183 14.7147 12.5682 14.5291C12.6181 14.3436 12.6922 14.1664 12.7879 14C12.8827 13.8345 12.9992 13.6805 13.1348 13.5441C13.2696 13.4068 13.4235 13.287 13.594 13.188L13.6547 13.1523L13.7155 13.1165L13.7762 13.0807L13.8369 13.0449V10.8744V8.70467V6.53411V4.36356C13.8369 4.24293 13.8611 4.12895 13.906 4.02413C13.9501 3.92013 14.0141 3.82529 14.0932 3.74626C14.1722 3.66722 14.2662 3.60316 14.3711 3.55907C14.4759 3.51498 14.5899 3.49002 14.7105 3.49002C14.8311 3.49002 14.9459 3.51414 15.0499 3.55907C15.1539 3.60399 15.2488 3.66722 15.3278 3.74626C15.4068 3.82529 15.4709 3.9193 15.515 4.02413C15.5591 4.12812 15.584 4.24293 15.584 4.36356V6.53411V8.70467V10.8752V13.0458L15.6448 13.0815L15.7055 13.1173L15.7662 13.1531L15.827 13.1889C15.9967 13.2879 16.1506 13.4085 16.2854 13.5449C16.4201 13.6814 16.5366 13.8353 16.6323 14.0008C16.7271 14.1664 16.8012 14.3444 16.8519 14.53C16.9027 14.7155 16.9285 14.9085 16.9285 15.1048C16.9285 15.4102 16.8661 15.7022 16.7537 15.9676C16.6414 16.233 16.4792 16.4717 16.2779 16.6722C16.0774 16.8727 15.8378 17.0358 15.5732 17.1481C15.3053 17.2596 15.0141 17.322 14.7088 17.322Z" fill="#4D4D4D"/>
<path fill-rule="evenodd" clip-rule="evenodd" d="M14.7088 9.58153C14.772 9.58153 14.8319 9.59401 14.8869 9.6173C14.9418 9.6406 14.9908 9.67387 15.0324 9.71547C15.074 9.75707 15.1073 9.80615 15.1306 9.86106C15.1539 9.91597 15.1664 9.97587 15.1664 10.0391V10.881V11.723V12.5649V13.4068C15.3494 13.4567 15.5208 13.5366 15.6739 13.6406C15.8278 13.7446 15.9634 13.8719 16.0765 14.0183C16.1897 14.1647 16.2795 14.3295 16.3419 14.5075C16.4035 14.6855 16.4376 14.8769 16.4376 15.0757C16.4376 15.3145 16.3893 15.5416 16.302 15.7488C16.2146 15.9559 16.0882 16.1423 15.9309 16.2987C15.7745 16.4551 15.5882 16.5815 15.381 16.6697C15.1739 16.7571 14.9468 16.8053 14.708 16.8053C14.4692 16.8053 14.2421 16.7571 14.0349 16.6697C13.8278 16.5824 13.6414 16.4559 13.485 16.2987C13.3286 16.1423 13.2022 15.9559 13.114 15.7488C13.0266 15.5416 12.9784 15.3145 12.9784 15.0757C12.9784 14.8769 13.0116 14.6855 13.074 14.5075C13.1356 14.3295 13.2263 14.1647 13.3394 14.0183C13.4526 13.8719 13.589 13.7446 13.7421 13.6406C13.896 13.5366 14.0666 13.4576 14.2496 13.4068V12.5649V11.723V10.881V10.0391C14.2496 9.97587 14.2621 9.91597 14.2854 9.86106C14.3086 9.80615 14.3419 9.75707 14.3835 9.71547C14.4251 9.67387 14.4742 9.6406 14.5291 9.6173C14.584 9.59401 14.6456 9.58153 14.7088 9.58153Z" fill="#4C4C4C"/>
</svg>
