<svg width="30" height="30" viewBox="0 0 30 30" fill="none" xmlns="http://www.w3.org/2000/svg">
<rect width="30" height="30" fill="white"/>
<path d="M30 30H22.5H15H7.5H0V22.5003V15.0005V7.49975V0H7.5H15H22.5H30V7.49975V14.9995V22.4992V30ZM0.252287 29.7477H7.62614H15H22.3739H29.7477V22.3741V15.0005V7.62589V0.252279H22.3739H15H7.62614H0.252287V7.62589V14.9995V22.3731V29.7477Z" fill="#4D4D4D"/>
<path d="M30 22V21.9421V21.8843V21.8264V21.7685C28.8439 21.3235 27.6602 20.9279 26.4529 20.5844C25.2446 20.241 24.0117 19.9507 22.7583 19.7163C21.5049 19.482 20.2279 19.3027 18.9345 19.1822C17.6401 19.0617 16.3282 19 15 19C13.6718 19 12.3589 19.0617 11.0655 19.1822C9.77111 19.3027 8.49515 19.482 7.24173 19.7163C5.98832 19.9507 4.7554 20.2419 3.54708 20.5844C2.33875 20.9279 1.15605 21.3235 0 21.7685V21.8264V21.8843V21.9421V22C1.15503 21.5522 2.33773 21.1546 3.54605 20.8093C4.75335 20.4639 5.98627 20.1717 7.24071 19.9364C8.49515 19.7011 9.77111 19.5199 11.0655 19.3994C12.3599 19.278 13.6728 19.2163 15.002 19.2163C16.3303 19.2163 17.6431 19.278 18.9376 19.3994C20.232 19.5209 21.5079 19.7011 22.7624 19.9364C24.0168 20.1717 25.2487 20.4649 26.457 20.8093C27.6612 21.1546 28.845 21.5522 30 22Z" fill="#4D4D4D"/>
<path d="M1.46631 25.605V25.375H2.88131V25.605H1.46631ZM3.47596 27V26.73L4.86596 24.995C4.93596 24.9083 4.99929 24.805 5.05596 24.685C5.11596 24.5617 5.14596 24.4417 5.14596 24.325C5.14596 24.225 5.12762 24.1367 5.09096 24.06C5.05762 23.98 5.00929 23.9133 4.94596 23.86C4.88596 23.8067 4.81429 23.7667 4.73096 23.74C4.64762 23.71 4.55929 23.695 4.46596 23.695C4.22596 23.695 4.04429 23.77 3.92096 23.92C3.79762 24.0667 3.73596 24.255 3.73596 24.485H3.47096C3.47096 24.335 3.49262 24.1983 3.53596 24.075C3.58262 23.9483 3.64929 23.84 3.73596 23.75C3.82262 23.6567 3.92596 23.585 4.04596 23.535C4.16929 23.4817 4.30929 23.455 4.46596 23.455C4.59929 23.455 4.72262 23.475 4.83596 23.515C4.95262 23.555 5.05096 23.6133 5.13096 23.69C5.21429 23.7633 5.27929 23.855 5.32596 23.965C5.37262 24.0717 5.39596 24.1917 5.39596 24.325C5.39596 24.475 5.36096 24.6217 5.29096 24.765C5.22429 24.905 5.14596 25.03 5.05596 25.14L3.75596 26.76H5.49096V27H3.47596ZM8.10275 25.26C8.10275 25.1467 8.09942 25.0267 8.09275 24.9C8.08942 24.7733 8.07775 24.6483 8.05775 24.525C8.03775 24.4017 8.00609 24.285 7.96275 24.175C7.91942 24.065 7.85775 23.9717 7.77775 23.895C7.71442 23.835 7.63942 23.7867 7.55275 23.75C7.46942 23.7133 7.36609 23.695 7.24275 23.695C7.11942 23.695 7.01442 23.7133 6.92775 23.75C6.84442 23.7867 6.77109 23.835 6.70775 23.895C6.62775 23.9717 6.56609 24.065 6.52275 24.175C6.47942 24.285 6.44775 24.4017 6.42775 24.525C6.40775 24.6483 6.39442 24.7733 6.38775 24.9C6.38442 25.0267 6.38275 25.1467 6.38275 25.26C6.38275 25.3733 6.38442 25.4933 6.38775 25.62C6.39442 25.7467 6.40775 25.8717 6.42775 25.995C6.44775 26.1183 6.47942 26.235 6.52275 26.345C6.56609 26.455 6.62775 26.5483 6.70775 26.625C6.77109 26.685 6.84442 26.7333 6.92775 26.77C7.01442 26.8067 7.11942 26.825 7.24275 26.825C7.36609 26.825 7.46942 26.8067 7.55275 26.77C7.63942 26.7333 7.71442 26.685 7.77775 26.625C7.85775 26.5483 7.91942 26.455 7.96275 26.345C8.00609 26.235 8.03775 26.1183 8.05775 25.995C8.07775 25.8717 8.08942 25.7467 8.09275 25.62C8.09942 25.4933 8.10275 25.3733 8.10275 25.26ZM8.35775 25.26C8.35775 25.3967 8.35275 25.5367 8.34275 25.68C8.33609 25.8233 8.31775 25.9633 8.28775 26.1C8.25775 26.2333 8.21609 26.36 8.16275 26.48C8.10942 26.5967 8.03775 26.6983 7.94775 26.785C7.86775 26.8617 7.76942 26.9283 7.65275 26.985C7.53942 27.0383 7.40275 27.065 7.24275 27.065C7.08275 27.065 6.94442 27.0383 6.82775 26.985C6.71442 26.9283 6.61775 26.8617 6.53775 26.785C6.44775 26.6983 6.37609 26.5967 6.32275 26.48C6.26942 26.36 6.22775 26.2333 6.19775 26.1C6.16775 25.9633 6.14775 25.8233 6.13775 25.68C6.13109 25.5367 6.12775 25.3967 6.12775 25.26C6.12775 25.1233 6.13109 24.9833 6.13775 24.84C6.14775 24.6967 6.16775 24.5583 6.19775 24.425C6.22775 24.2883 6.26942 24.1617 6.32275 24.045C6.37609 23.925 6.44775 23.8217 6.53775 23.735C6.61775 23.6583 6.71442 23.5933 6.82775 23.54C6.94442 23.4833 7.08275 23.455 7.24275 23.455C7.40275 23.455 7.53942 23.4833 7.65275 23.54C7.76942 23.5933 7.86775 23.6583 7.94775 23.735C8.03775 23.8217 8.10942 23.925 8.16275 24.045C8.21609 24.1617 8.25775 24.2883 8.28775 24.425C8.31775 24.5583 8.33609 24.6967 8.34275 24.84C8.35275 24.9833 8.35775 25.1233 8.35775 25.26ZM10.4546 24.215C10.4546 24.1317 10.4396 24.0533 10.4096 23.98C10.3796 23.9033 10.3379 23.8383 10.2846 23.785C10.2312 23.7283 10.1679 23.685 10.0946 23.655C10.0212 23.6217 9.94288 23.605 9.85955 23.605C9.77288 23.605 9.69288 23.6217 9.61955 23.655C9.54955 23.685 9.48622 23.7283 9.42955 23.785C9.37622 23.8383 9.33455 23.9033 9.30455 23.98C9.27455 24.0533 9.25955 24.1317 9.25955 24.215C9.25955 24.3017 9.27455 24.3817 9.30455 24.455C9.33455 24.5283 9.37622 24.5933 9.42955 24.65C9.48622 24.7033 9.54955 24.7467 9.61955 24.78C9.69288 24.81 9.77288 24.825 9.85955 24.825C9.94288 24.825 10.0212 24.81 10.0946 24.78C10.1679 24.7467 10.2312 24.7033 10.2846 24.65C10.3379 24.5933 10.3796 24.5283 10.4096 24.455C10.4396 24.3817 10.4546 24.3017 10.4546 24.215ZM10.6846 24.215C10.6846 24.3283 10.6629 24.4367 10.6196 24.54C10.5762 24.64 10.5162 24.7283 10.4396 24.805C10.3662 24.8783 10.2796 24.9367 10.1796 24.98C10.0796 25.0233 9.97288 25.045 9.85955 25.045C9.74622 25.045 9.63788 25.0233 9.53455 24.98C9.43455 24.9367 9.34622 24.8783 9.26955 24.805C9.19622 24.7283 9.13788 24.64 9.09455 24.54C9.05122 24.4367 9.02955 24.3283 9.02955 24.215C9.02955 24.1017 9.05122 23.995 9.09455 23.895C9.13788 23.7917 9.19622 23.7033 9.26955 23.63C9.34622 23.5533 9.43455 23.4933 9.53455 23.45C9.63788 23.4067 9.74622 23.385 9.85955 23.385C9.97288 23.385 10.0796 23.4067 10.1796 23.45C10.2796 23.4933 10.3662 23.5533 10.4396 23.63C10.5162 23.7033 10.5762 23.7917 10.6196 23.895C10.6629 23.995 10.6846 24.1017 10.6846 24.215ZM13.8016 26.975C13.7316 26.9917 13.6616 27.005 13.5916 27.015C13.5249 27.0283 13.4566 27.035 13.3866 27.035C13.1532 27.035 12.9866 26.9683 12.8866 26.835C12.7899 26.6983 12.7416 26.5217 12.7416 26.305V24.73H12.2416V24.5H12.7416V23.81L12.9916 23.75V24.5H13.7666V24.73H12.9916V26.295C12.9916 26.3683 12.9966 26.4367 13.0066 26.5C13.0199 26.56 13.0416 26.6133 13.0716 26.66C13.1049 26.7033 13.1482 26.7383 13.2016 26.765C13.2549 26.7883 13.3232 26.8 13.4066 26.8C13.4732 26.8 13.5382 26.7967 13.6016 26.79C13.6682 26.78 13.7349 26.7683 13.8016 26.755V26.975ZM16.1183 25.75C16.1183 25.5867 16.1 25.4333 16.0633 25.29C16.0267 25.1467 15.9517 25.0167 15.8383 24.9C15.7717 24.8333 15.6933 24.78 15.6033 24.74C15.5133 24.7 15.4083 24.68 15.2883 24.68C15.1683 24.68 15.0633 24.7 14.9733 24.74C14.8833 24.78 14.805 24.8333 14.7383 24.9C14.625 25.0167 14.55 25.1467 14.5133 25.29C14.4767 25.4333 14.4583 25.5867 14.4583 25.75C14.4583 25.9133 14.4767 26.0667 14.5133 26.21C14.55 26.3533 14.625 26.4833 14.7383 26.6C14.805 26.6667 14.8833 26.72 14.9733 26.76C15.0633 26.8 15.1683 26.82 15.2883 26.82C15.4083 26.82 15.5133 26.8 15.6033 26.76C15.6933 26.72 15.7717 26.6667 15.8383 26.6C15.9517 26.4833 16.0267 26.3533 16.0633 26.21C16.1 26.0667 16.1183 25.9133 16.1183 25.75ZM16.3733 25.75C16.3733 25.9633 16.3467 26.1533 16.2933 26.32C16.24 26.4867 16.1483 26.635 16.0183 26.765C15.9317 26.8517 15.8267 26.9233 15.7033 26.98C15.5833 27.0367 15.445 27.065 15.2883 27.065C15.1317 27.065 14.9917 27.0367 14.8683 26.98C14.7483 26.9233 14.645 26.8517 14.5583 26.765C14.4283 26.635 14.3367 26.4867 14.2833 26.32C14.23 26.1533 14.2033 25.9633 14.2033 25.75C14.2033 25.5367 14.23 25.3467 14.2833 25.18C14.3367 25.0133 14.4283 24.865 14.5583 24.735C14.645 24.6483 14.7483 24.5767 14.8683 24.52C14.9917 24.4633 15.1317 24.435 15.2883 24.435C15.445 24.435 15.5833 24.4633 15.7033 24.52C15.8267 24.5767 15.9317 24.6483 16.0183 24.735C16.1483 24.865 16.24 25.0133 16.2933 25.18C16.3467 25.3467 16.3733 25.5367 16.3733 25.75ZM19.8921 26.205V27H19.6371V26.205H17.9971V25.93L19.4121 23.525H19.6971L18.2671 25.955H19.6371V24.88H19.8921V25.955H20.3771V26.205H19.8921ZM22.8488 25.26C22.8488 25.1467 22.8455 25.0267 22.8388 24.9C22.8355 24.7733 22.8238 24.6483 22.8038 24.525C22.7838 24.4017 22.7522 24.285 22.7088 24.175C22.6655 24.065 22.6038 23.9717 22.5238 23.895C22.4605 23.835 22.3855 23.7867 22.2988 23.75C22.2155 23.7133 22.1122 23.695 21.9888 23.695C21.8655 23.695 21.7605 23.7133 21.6738 23.75C21.5905 23.7867 21.5172 23.835 21.4538 23.895C21.3738 23.9717 21.3122 24.065 21.2688 24.175C21.2255 24.285 21.1938 24.4017 21.1738 24.525C21.1538 24.6483 21.1405 24.7733 21.1338 24.9C21.1305 25.0267 21.1288 25.1467 21.1288 25.26C21.1288 25.3733 21.1305 25.4933 21.1338 25.62C21.1405 25.7467 21.1538 25.8717 21.1738 25.995C21.1938 26.1183 21.2255 26.235 21.2688 26.345C21.3122 26.455 21.3738 26.5483 21.4538 26.625C21.5172 26.685 21.5905 26.7333 21.6738 26.77C21.7605 26.8067 21.8655 26.825 21.9888 26.825C22.1122 26.825 22.2155 26.8067 22.2988 26.77C22.3855 26.7333 22.4605 26.685 22.5238 26.625C22.6038 26.5483 22.6655 26.455 22.7088 26.345C22.7522 26.235 22.7838 26.1183 22.8038 25.995C22.8238 25.8717 22.8355 25.7467 22.8388 25.62C22.8455 25.4933 22.8488 25.3733 22.8488 25.26ZM23.1038 25.26C23.1038 25.3967 23.0988 25.5367 23.0888 25.68C23.0822 25.8233 23.0638 25.9633 23.0338 26.1C23.0038 26.2333 22.9622 26.36 22.9088 26.48C22.8555 26.5967 22.7838 26.6983 22.6938 26.785C22.6138 26.8617 22.5155 26.9283 22.3988 26.985C22.2855 27.0383 22.1488 27.065 21.9888 27.065C21.8288 27.065 21.6905 27.0383 21.5738 26.985C21.4605 26.9283 21.3638 26.8617 21.2838 26.785C21.1938 26.6983 21.1222 26.5967 21.0688 26.48C21.0155 26.36 20.9738 26.2333 20.9438 26.1C20.9138 25.9633 20.8938 25.8233 20.8838 25.68C20.8772 25.5367 20.8738 25.3967 20.8738 25.26C20.8738 25.1233 20.8772 24.9833 20.8838 24.84C20.8938 24.6967 20.9138 24.5583 20.9438 24.425C20.9738 24.2883 21.0155 24.1617 21.0688 24.045C21.1222 23.925 21.1938 23.8217 21.2838 23.735C21.3638 23.6583 21.4605 23.5933 21.5738 23.54C21.6905 23.4833 21.8288 23.455 21.9888 23.455C22.1488 23.455 22.2855 23.4833 22.3988 23.54C22.5155 23.5933 22.6138 23.6583 22.6938 23.735C22.7838 23.8217 22.8555 23.925 22.9088 24.045C22.9622 24.1617 23.0038 24.2883 23.0338 24.425C23.0638 24.5583 23.0822 24.6967 23.0888 24.84C23.0988 24.9833 23.1038 25.1233 23.1038 25.26ZM25.2006 24.215C25.2006 24.1317 25.1856 24.0533 25.1556 23.98C25.1256 23.9033 25.084 23.8383 25.0306 23.785C24.9773 23.7283 24.914 23.685 24.8406 23.655C24.7673 23.6217 24.689 23.605 24.6056 23.605C24.519 23.605 24.439 23.6217 24.3656 23.655C24.2956 23.685 24.2323 23.7283 24.1756 23.785C24.1223 23.8383 24.0806 23.9033 24.0506 23.98C24.0206 24.0533 24.0056 24.1317 24.0056 24.215C24.0056 24.3017 24.0206 24.3817 24.0506 24.455C24.0806 24.5283 24.1223 24.5933 24.1756 24.65C24.2323 24.7033 24.2956 24.7467 24.3656 24.78C24.439 24.81 24.519 24.825 24.6056 24.825C24.689 24.825 24.7673 24.81 24.8406 24.78C24.914 24.7467 24.9773 24.7033 25.0306 24.65C25.084 24.5933 25.1256 24.5283 25.1556 24.455C25.1856 24.3817 25.2006 24.3017 25.2006 24.215ZM25.4306 24.215C25.4306 24.3283 25.409 24.4367 25.3656 24.54C25.3223 24.64 25.2623 24.7283 25.1856 24.805C25.1123 24.8783 25.0256 24.9367 24.9256 24.98C24.8256 25.0233 24.719 25.045 24.6056 25.045C24.4923 25.045 24.384 25.0233 24.2806 24.98C24.1806 24.9367 24.0923 24.8783 24.0156 24.805C23.9423 24.7283 23.884 24.64 23.8406 24.54C23.7973 24.4367 23.7756 24.3283 23.7756 24.215C23.7756 24.1017 23.7973 23.995 23.8406 23.895C23.884 23.7917 23.9423 23.7033 24.0156 23.63C24.0923 23.5533 24.1806 23.4933 24.2806 23.45C24.384 23.4067 24.4923 23.385 24.6056 23.385C24.719 23.385 24.8256 23.4067 24.9256 23.45C25.0256 23.4933 25.1123 23.5533 25.1856 23.63C25.2623 23.7033 25.3223 23.7917 25.3656 23.895C25.409 23.995 25.4306 24.1017 25.4306 24.215ZM28.6935 25.915C28.6801 26.0783 28.6401 26.23 28.5735 26.37C28.5068 26.51 28.4185 26.6317 28.3085 26.735C28.1985 26.8383 28.0685 26.92 27.9185 26.98C27.7718 27.0367 27.6101 27.065 27.4335 27.065C27.2635 27.065 27.0951 27.0317 26.9285 26.965C26.7651 26.8983 26.6218 26.8033 26.4985 26.68C26.4018 26.5833 26.3251 26.4767 26.2685 26.36C26.2151 26.2433 26.1751 26.1233 26.1485 26C26.1218 25.8733 26.1035 25.745 26.0935 25.615C26.0868 25.4817 26.0835 25.3517 26.0835 25.225C26.0835 25.0983 26.0868 24.97 26.0935 24.84C26.1035 24.71 26.1218 24.5817 26.1485 24.455C26.1751 24.3283 26.2151 24.2083 26.2685 24.095C26.3251 23.9783 26.4018 23.8717 26.4985 23.775C26.6218 23.6517 26.7651 23.5567 26.9285 23.49C27.0951 23.4233 27.2635 23.39 27.4335 23.39C27.6101 23.39 27.7718 23.42 27.9185 23.48C28.0685 23.5367 28.1985 23.6167 28.3085 23.72C28.4185 23.8233 28.5068 23.945 28.5735 24.085C28.6401 24.225 28.6801 24.3767 28.6935 24.54H28.4235C28.4135 24.41 28.3818 24.29 28.3285 24.18C28.2751 24.07 28.2051 23.975 28.1185 23.895C28.0351 23.815 27.9351 23.7533 27.8185 23.71C27.7018 23.6667 27.5735 23.645 27.4335 23.645C27.2735 23.645 27.1335 23.6717 27.0135 23.725C26.8935 23.7783 26.7851 23.8533 26.6885 23.95C26.6085 24.0333 26.5451 24.1267 26.4985 24.23C26.4551 24.3333 26.4218 24.4417 26.3985 24.555C26.3785 24.665 26.3651 24.7783 26.3585 24.895C26.3551 25.0083 26.3535 25.1183 26.3535 25.225C26.3535 25.3317 26.3551 25.4433 26.3585 25.56C26.3651 25.6733 26.3801 25.7867 26.4035 25.9C26.4268 26.0133 26.4601 26.1217 26.5035 26.225C26.5501 26.3283 26.6135 26.4217 26.6935 26.505C26.8901 26.7083 27.1368 26.81 27.4335 26.81C27.5735 26.81 27.7018 26.7883 27.8185 26.745C27.9351 26.7017 28.0351 26.64 28.1185 26.56C28.2051 26.48 28.2751 26.385 28.3285 26.275C28.3818 26.165 28.4135 26.045 28.4235 25.915H28.6935Z" fill="#4D4D4D"/>
<path d="M16.3669 4.99168H16.7754H17.1839H17.5923H18V5.09318V5.19551V5.29784V5.39934H17.5923H17.1839H16.7754H16.3669V5.29784V5.19551V5.09318V4.99168Z" fill="#4D4D4D"/>
<path d="M16.3669 6.62479H16.5865H16.8062H17.0258H17.2446V6.72712V6.82861V6.93094V7.03327H17.0258H16.8062H16.5865H16.3669V6.93094V6.82861V6.72712V6.62479Z" fill="#4D4D4D"/>
<path d="M16.3669 8.2579H16.7754H17.1839H17.5923H18V8.36023V8.46256V8.56489V8.66639H17.5923H17.1839H16.7754H16.3669V8.56489V8.46256V8.36023V8.2579Z" fill="#4D4D4D"/>
<path d="M16.3669 9.89185H16.5865H16.8062H17.0258H17.2446V9.99418V10.0957V10.198V10.3003H17.0258H16.8062H16.5865H16.3669V10.198V10.0957V9.99418V9.89185Z" fill="#4D4D4D"/>
<path d="M16.3669 11.525H16.7754H17.1839H17.5923H18V11.6273V11.7296V11.832V11.9334H17.5923H17.1839H16.7754H16.3669V11.832V11.7296V11.6273V11.525Z" fill="#4D4D4D"/>
<path d="M16.0716 12.7654V10.6647V8.56407V6.46423V4.36356C16.0716 4.17554 16.0333 3.99584 15.9642 3.83278C15.8952 3.66972 15.7953 3.5233 15.6722 3.39933C15.5491 3.27537 15.4018 3.17637 15.2388 3.10732C15.0757 3.03827 14.896 3 14.708 3C14.52 3 14.3403 3.03827 14.1772 3.10732C14.0141 3.17637 13.8677 3.27621 13.7438 3.39933C13.6206 3.52246 13.5208 3.66972 13.4517 3.83278C13.3827 3.99584 13.3444 4.17471 13.3444 4.36356V6.46423V8.5649V10.6656V12.7662C13.1431 12.8835 12.9584 13.0258 12.7953 13.1897C12.6323 13.3536 12.4884 13.5374 12.371 13.7379C12.2537 13.9384 12.1606 14.1556 12.0973 14.3852C12.0341 14.6148 12 14.8561 12 15.1057C12 15.4792 12.0757 15.8361 12.213 16.1597C12.3503 16.4834 12.5483 16.7754 12.7928 17.02C13.0374 17.2646 13.3295 17.4634 13.6531 17.5998C13.9767 17.7371 14.3328 17.8128 14.7072 17.8128C15.0807 17.8128 15.4368 17.7371 15.7612 17.5998C16.0849 17.4626 16.3769 17.2646 16.6215 17.02C16.8661 16.7754 17.0649 16.4834 17.2013 16.1597C17.3386 15.8361 17.4143 15.48 17.4143 15.1057C17.4143 14.8561 17.3802 14.6148 17.317 14.3852C17.2537 14.1556 17.1614 13.9384 17.0433 13.7379C16.9251 13.5374 16.7829 13.3536 16.619 13.1897C16.4551 13.0258 16.2729 12.8827 16.0716 12.7654ZM14.7088 17.322C14.4035 17.322 14.1115 17.2596 13.8469 17.1473C13.5815 17.035 13.3428 16.8727 13.1423 16.6714C12.9418 16.4701 12.7787 16.2313 12.6664 15.9667C12.5541 15.7022 12.4917 15.4102 12.4917 15.104C12.4917 14.9077 12.5183 14.7147 12.5682 14.5291C12.6181 14.3436 12.6922 14.1664 12.7879 14C12.8827 13.8345 12.9992 13.6805 13.1348 13.5441C13.2696 13.4068 13.4235 13.287 13.594 13.188L13.6547 13.1523L13.7155 13.1165L13.7762 13.0807L13.8369 13.0449V10.8744V8.70467V6.53411V4.36356C13.8369 4.24293 13.8611 4.12895 13.906 4.02413C13.9501 3.92013 14.0141 3.82529 14.0932 3.74626C14.1722 3.66722 14.2662 3.60316 14.3711 3.55907C14.4759 3.51498 14.5899 3.49002 14.7105 3.49002C14.8311 3.49002 14.9459 3.51414 15.0499 3.55907C15.1539 3.60399 15.2488 3.66722 15.3278 3.74626C15.4068 3.82529 15.4709 3.9193 15.515 4.02413C15.5591 4.12812 15.584 4.24293 15.584 4.36356V6.53411V8.70467V10.8752V13.0458L15.6448 13.0815L15.7055 13.1173L15.7662 13.1531L15.827 13.1889C15.9967 13.2879 16.1506 13.4085 16.2854 13.5449C16.4201 13.6814 16.5366 13.8353 16.6323 14.0008C16.7271 14.1664 16.8012 14.3444 16.8519 14.53C16.9027 14.7155 16.9285 14.9085 16.9285 15.1048C16.9285 15.4102 16.8661 15.7022 16.7537 15.9676C16.6414 16.233 16.4792 16.4717 16.2779 16.6722C16.0774 16.8727 15.8378 17.0358 15.5732 17.1481C15.3053 17.2596 15.0141 17.322 14.7088 17.322Z" fill="#4D4D4D"/>
<path fill-rule="evenodd" clip-rule="evenodd" d="M14.7088 9.58153C14.772 9.58153 14.8319 9.59401 14.8869 9.6173C14.9418 9.6406 14.9908 9.67387 15.0324 9.71547C15.074 9.75707 15.1073 9.80615 15.1306 9.86106C15.1539 9.91597 15.1664 9.97587 15.1664 10.0391V10.881V11.723V12.5649V13.4068C15.3494 13.4567 15.5208 13.5366 15.6739 13.6406C15.8278 13.7446 15.9634 13.8719 16.0765 14.0183C16.1897 14.1647 16.2795 14.3295 16.3419 14.5075C16.4035 14.6855 16.4376 14.8769 16.4376 15.0757C16.4376 15.3145 16.3893 15.5416 16.302 15.7488C16.2146 15.9559 16.0882 16.1423 15.9309 16.2987C15.7745 16.4551 15.5882 16.5815 15.381 16.6697C15.1739 16.7571 14.9468 16.8053 14.708 16.8053C14.4692 16.8053 14.2421 16.7571 14.0349 16.6697C13.8278 16.5824 13.6414 16.4559 13.485 16.2987C13.3286 16.1423 13.2022 15.9559 13.114 15.7488C13.0266 15.5416 12.9784 15.3145 12.9784 15.0757C12.9784 14.8769 13.0116 14.6855 13.074 14.5075C13.1356 14.3295 13.2263 14.1647 13.3394 14.0183C13.4526 13.8719 13.589 13.7446 13.7421 13.6406C13.896 13.5366 14.0666 13.4576 14.2496 13.4068V12.5649V11.723V10.881V10.0391C14.2496 9.97587 14.2621 9.91597 14.2854 9.86106C14.3086 9.80615 14.3419 9.75707 14.3835 9.71547C14.4251 9.67387 14.4742 9.6406 14.5291 9.6173C14.584 9.59401 14.6456 9.58153 14.7088 9.58153Z" fill="#4C4C4C"/>
</svg>
