<svg width="30" height="30" viewBox="0 0 30 30" fill="none" xmlns="http://www.w3.org/2000/svg">
<rect width="30" height="30" fill="white"/>
<path d="M30 30H22.5H15H7.5H0V22.5003V15.0005V7.49975V0H7.5H15H22.5H30V7.49975V14.9995V22.4992V30ZM0.252287 29.7477H7.62614H15H22.3739H29.7477V22.3741V15.0005V7.62589V0.252279H22.3739H15H7.62614H0.252287V7.62589V14.9995V22.3731V29.7477Z" fill="#4D4D4D"/>
<path d="M2 26C2 26 3.97746 14.2666 6.7 12.7015C8.47248 11.6826 9.50617 15.3078 11.3 14.5485C13.4195 13.6514 13.8962 8.85434 15.95 7.28362C16.55 6.82474 19.85 4.64023 22.2 7.28362C23.9596 9.26289 24.1529 18.4344 25.15 22.6177C26.05 24.9627 26.3 25.0858 28 25.8246" stroke="#4D4D4D" stroke-width="0.25"/>
<path d="M13.0145 25.5C13.0145 25.36 12.9911 25.24 12.9445 25.14C12.8978 25.04 12.8345 24.9583 12.7545 24.895C12.6745 24.8283 12.5778 24.78 12.4645 24.75C12.3545 24.72 12.2345 24.705 12.1045 24.705H11.1345V26.295H12.1045C12.2345 26.295 12.3545 26.28 12.4645 26.25C12.5778 26.22 12.6745 26.1733 12.7545 26.11C12.8345 26.0433 12.8978 25.96 12.9445 25.86C12.9911 25.76 13.0145 25.64 13.0145 25.5ZM13.2845 25.5C13.2845 25.68 13.2545 25.835 13.1945 25.965C13.1345 26.095 13.0511 26.2033 12.9445 26.29C12.8411 26.3767 12.7178 26.4417 12.5745 26.485C12.4311 26.525 12.2745 26.545 12.1045 26.545H11.1345V26.55V28H10.8745V24.455H12.1045C12.2745 24.455 12.4311 24.4767 12.5745 24.52C12.7178 24.56 12.8411 24.6233 12.9445 24.71C13.0511 24.7967 13.1345 24.905 13.1945 25.035C13.2545 25.165 13.2845 25.32 13.2845 25.5ZM14.2253 24.705V26.075H15.9903V26.325H14.2253V28H13.9653V24.455H16.1853V24.705H14.2253ZM19.1104 26.225C19.1104 26.1183 19.1071 26.0083 19.1004 25.895C19.0938 25.7817 19.0788 25.67 19.0554 25.56C19.0321 25.45 18.9971 25.345 18.9504 25.245C18.9038 25.145 18.8388 25.055 18.7554 24.975C18.6654 24.8883 18.5588 24.8233 18.4354 24.78C18.3121 24.7333 18.1838 24.71 18.0504 24.71H17.1354V27.745H18.0504C18.1838 27.745 18.3121 27.7233 18.4354 27.68C18.5588 27.6333 18.6654 27.5667 18.7554 27.48C18.8388 27.4 18.9038 27.31 18.9504 27.21C18.9971 27.1067 19.0321 27 19.0554 26.89C19.0788 26.78 19.0938 26.6683 19.1004 26.555C19.1071 26.4417 19.1104 26.3317 19.1104 26.225ZM19.3754 26.225C19.3754 26.3483 19.3704 26.475 19.3604 26.605C19.3538 26.7317 19.3354 26.8583 19.3054 26.985C19.2754 27.1083 19.2321 27.2267 19.1754 27.34C19.1188 27.4533 19.0421 27.5567 18.9454 27.65C18.8388 27.7533 18.7104 27.8383 18.5604 27.905C18.4104 27.9683 18.2404 28 18.0504 28H16.8754V24.455H18.0504C18.2404 24.455 18.4104 24.4883 18.5604 24.555C18.7104 24.6183 18.8388 24.7017 18.9454 24.805C19.0421 24.8983 19.1188 25.0017 19.1754 25.115C19.2321 25.2283 19.2754 25.3467 19.3054 25.47C19.3354 25.5933 19.3538 25.72 19.3604 25.85C19.3704 25.9767 19.3754 26.1017 19.3754 26.225Z" fill="#4D4D4D"/>
</svg>
