<svg width="130" height="130" viewBox="0 0 130 130" fill="none" xmlns="http://www.w3.org/2000/svg">
<rect width="130" height="130" fill="white"/>
<path d="M130 130H97.5H65H32.5H0V97.5011V65.0022V32.4989V0H32.5H65H97.5H130V32.4989V64.9978V97.4967V130ZM1.09325 128.907H33.0466H65H96.9534H128.907V96.9545V65.0022V33.0455V1.09321H96.9534H65H33.0466H1.09325V33.0455V64.9978V96.9501V128.907Z" fill="#4D4D4D"/>
<path d="M75.5921 65.0883L114.642 71.9554M65.8421 73.2661V112.892V73.2661ZM115.375 63.3598C115.345 90.6956 93.2382 112.839 65.8957 112.839C38.5523 112.839 16.3924 90.6956 16.3636 63.3598H115.375ZM105.468 63.3598C105.438 85.1921 87.7347 102.933 65.8957 102.933C44.0568 102.933 26.2996 85.1921 26.2689 63.3598H105.468ZM95.5617 63.3598C95.533 79.7412 82.2828 93.0258 65.8957 93.0258C49.5058 93.0258 36.2048 79.7412 36.1761 63.3598H95.5617ZM85.6555 63.3598C85.6268 74.2376 76.7793 83.1196 65.8957 83.1196C54.9585 83.1196 46.1111 74.2376 46.0823 63.3598H85.6555ZM75.7483 63.3598C75.7205 68.7868 71.3284 73.2134 65.8957 73.2134C60.4621 73.2134 56.0183 68.7868 55.9895 63.3598H75.7483ZM57.2466 68.3383L22.9662 88.1518L57.2466 68.3383ZM58.2431 69.7018L27.8939 95.174L58.2431 69.7018ZM59.5011 70.9598L34.026 101.307L59.5011 70.9598ZM60.8636 71.9553L41.0502 106.235L60.8636 71.9553ZM62.4368 72.6893L48.9117 109.904L62.4368 72.6893ZM64.1136 73.1081L57.2466 112.157L64.1136 73.1081ZM65.8421 63.3589V73.2661V63.3589ZM75.7483 63.3589H55.9349H75.7483ZM67.5734 73.1081L74.4385 112.157L67.5734 73.1081ZM69.2502 72.6893L82.7715 109.904L69.2502 72.6893ZM70.7708 71.9553L90.635 106.235L70.7708 71.9553ZM72.184 70.9598L97.6581 101.307L72.184 70.9598ZM73.443 69.7018L103.792 95.174L73.443 69.7018ZM75.7483 63.3589H115.375H75.7483ZM55.9349 63.3589H16.3109H55.9349ZM56.093 65.0883L17.0449 71.9554L56.093 65.0883ZM56.5126 66.766L19.2984 80.2893L56.5126 66.766ZM74.4385 68.3383L108.718 88.1518L74.4385 68.3383ZM75.1734 66.766L112.387 80.2893L75.1734 66.766Z" stroke="#383330" stroke-width="0.5" stroke-miterlimit="10" stroke-linecap="round" stroke-linejoin="round"/>
<path d="M90.6352 63.3591C90.6352 76.9992 79.5102 88.1251 65.8691 88.1251C52.228 88.1251 41.103 76.9992 41.103 63.3591" stroke="#383330" stroke-width="0.5" stroke-miterlimit="10" stroke-dasharray="2.4 2.4"/>
<path d="M64.6743 118.191C64.6743 118.055 64.6793 117.915 64.6893 117.771C64.6959 117.628 64.7143 117.488 64.7443 117.351C64.7743 117.218 64.8159 117.091 64.8693 116.971C64.9226 116.855 64.9943 116.753 65.0843 116.666C65.1643 116.59 65.2626 116.523 65.3793 116.466C65.4926 116.413 65.6293 116.386 65.7893 116.386C65.9493 116.386 66.0876 116.413 66.2043 116.466C66.3176 116.523 66.4143 116.59 66.4943 116.666C66.5843 116.753 66.6559 116.855 66.7093 116.971C66.7626 117.091 66.8043 117.218 66.8343 117.351C66.8643 117.488 66.8843 117.628 66.8943 117.771C66.9009 117.915 66.9043 118.055 66.9043 118.191C66.9043 118.328 66.9009 118.468 66.8943 118.611C66.8843 118.755 66.8643 118.893 66.8343 119.026C66.8043 119.163 66.7626 119.29 66.7093 119.406C66.6559 119.526 66.5843 119.63 66.4943 119.716C66.4143 119.793 66.3176 119.858 66.2043 119.911C66.0876 119.968 65.9493 119.996 65.7893 119.996C65.6293 119.996 65.4926 119.968 65.3793 119.911C65.2626 119.858 65.1643 119.793 65.0843 119.716C64.9943 119.63 64.9226 119.526 64.8693 119.406C64.8159 119.29 64.7743 119.163 64.7443 119.026C64.7143 118.893 64.6959 118.755 64.6893 118.611C64.6793 118.468 64.6743 118.328 64.6743 118.191ZM64.9293 118.191C64.9293 118.305 64.9326 118.425 64.9393 118.551C64.9426 118.678 64.9543 118.803 64.9743 118.926C64.9943 119.05 65.0259 119.166 65.0693 119.276C65.1126 119.386 65.1743 119.48 65.2543 119.556C65.3176 119.616 65.3926 119.665 65.4793 119.701C65.5626 119.738 65.6659 119.756 65.7893 119.756C65.9126 119.756 66.0176 119.738 66.1043 119.701C66.1876 119.665 66.2609 119.616 66.3243 119.556C66.4043 119.48 66.4659 119.386 66.5093 119.276C66.5526 119.166 66.5843 119.05 66.6043 118.926C66.6243 118.803 66.6376 118.678 66.6443 118.551C66.6476 118.425 66.6493 118.305 66.6493 118.191C66.6493 118.078 66.6476 117.958 66.6443 117.831C66.6376 117.705 66.6243 117.58 66.6043 117.456C66.5843 117.333 66.5526 117.216 66.5093 117.106C66.4659 116.996 66.4043 116.903 66.3243 116.826C66.2609 116.766 66.1876 116.718 66.1043 116.681C66.0176 116.645 65.9126 116.626 65.7893 116.626C65.6659 116.626 65.5626 116.645 65.4793 116.681C65.3926 116.718 65.3176 116.766 65.2543 116.826C65.1743 116.903 65.1126 116.996 65.0693 117.106C65.0259 117.216 64.9943 117.333 64.9743 117.456C64.9543 117.58 64.9426 117.705 64.9393 117.831C64.9326 117.958 64.9293 118.078 64.9293 118.191Z" fill="#1F1A17"/>
<path d="M64.5162 60.6229C64.5162 60.0586 64.6126 59.6393 64.8053 59.3649C64.998 59.0906 65.2993 58.9534 65.7091 58.9534C66.1136 58.9534 66.4132 59.0871 66.6076 59.3545C66.8021 59.6237 66.9028 60.0247 66.9097 60.5578V61.2011C66.9097 61.7585 66.8134 62.1726 66.6206 62.4435C66.4279 62.7143 66.1258 62.8498 65.7143 62.8498C65.3062 62.8498 65.0059 62.7187 64.8131 62.4565C64.6204 62.196 64.5214 61.7932 64.5162 61.248V60.6229ZM64.998 61.2818C64.998 61.6899 65.0553 61.9868 65.1699 62.1726C65.2845 62.3601 65.466 62.4539 65.7143 62.4539C65.9608 62.4539 66.1405 62.361 66.2534 62.1752C66.3663 61.9894 66.4244 61.7038 66.4279 61.3183V60.5474C66.4279 60.1376 66.3689 59.8346 66.2508 59.6384C66.131 59.4439 65.9504 59.3467 65.7091 59.3467C65.4712 59.3467 65.295 59.4387 65.1804 59.6228C65.064 59.8068 65.0033 60.0968 64.998 60.4927V61.2818Z" fill="#1F1A17"/>
<path d="M56.1486 61.6628L17.0985 54.7958M65.8986 53.485V13.8601V53.485ZM16.3656 63.3913C16.3953 36.0555 38.5025 13.9128 65.845 13.9128C93.1884 13.9128 115.348 36.0555 115.376 63.3913H16.3656ZM26.2727 63.3913C26.3024 41.559 44.006 23.819 65.845 23.819C87.6848 23.819 105.441 41.559 105.472 63.3913H26.2727ZM36.179 63.3913C36.2077 47.0099 49.4579 33.7253 65.845 33.7253C82.2349 33.7253 95.5359 47.0099 95.5646 63.3913H36.179ZM46.0852 63.3913C46.1139 52.5135 54.9614 43.6315 65.845 43.6315C76.7822 43.6315 85.6296 52.5135 85.6584 63.3913H46.0852ZM55.9924 63.3913C56.0202 57.9643 60.4123 53.5377 65.845 53.5377C71.2786 53.5377 75.7225 57.9643 75.7512 63.3913H55.9924ZM74.4932 58.4119L108.775 38.6004L74.4932 58.4119ZM73.4976 57.0503L103.847 31.5762L73.4976 57.0503ZM72.2396 55.7922L97.7156 25.4431L72.2396 55.7922ZM70.8771 54.7958L90.6906 20.5163L70.8771 54.7958ZM69.3029 54.0629L82.829 16.8477L69.3029 54.0629ZM67.6261 53.6431L74.4932 14.594L67.6261 53.6431ZM65.8986 63.3923V53.4851V63.3923ZM55.9924 63.3923H75.8058H55.9924ZM64.1673 53.6431L57.3022 14.594L64.1673 53.6431ZM62.4905 54.0629L48.9682 16.8477L62.4905 54.0629ZM60.9699 54.7958L41.1057 20.5163L60.9699 54.7958ZM59.5567 55.7922L34.0826 25.4431L59.5567 55.7922ZM58.2977 57.0503L27.9485 31.5762L58.2977 57.0503ZM55.9924 63.3923H16.3656H55.9924ZM75.8058 63.3923H115.43H75.8058ZM75.6477 61.6628L114.695 54.7958L75.6477 61.6628ZM75.2281 59.9851L112.442 46.4618L75.2281 59.9851ZM57.3022 58.4119L23.0227 38.6004L57.3022 58.4119ZM56.5673 59.9851L19.353 46.4618L56.5673 59.9851Z" stroke="#383330" stroke-width="0.5" stroke-miterlimit="10" stroke-linecap="round" stroke-linejoin="round"/>
<path d="M92.6215 111.048C92.6215 111.195 92.5932 111.328 92.5365 111.448C92.4798 111.568 92.4015 111.672 92.3015 111.758C92.2048 111.842 92.0915 111.907 91.9615 111.953C91.8315 112 91.6932 112.023 91.5465 112.023C91.3798 112.023 91.2315 111.997 91.1015 111.943C90.9715 111.887 90.8598 111.812 90.7665 111.718C90.6765 111.622 90.6065 111.508 90.5565 111.378C90.5098 111.245 90.4848 111.102 90.4815 110.948H90.7365C90.7365 111.062 90.7532 111.168 90.7865 111.268C90.8198 111.368 90.8698 111.457 90.9365 111.533C91.0065 111.61 91.0915 111.672 91.1915 111.718C91.2915 111.762 91.4098 111.783 91.5465 111.783C91.7932 111.783 91.9898 111.718 92.1365 111.588C92.2865 111.455 92.3615 111.275 92.3615 111.048C92.3615 110.788 92.2865 110.593 92.1365 110.463C91.9898 110.333 91.7915 110.268 91.5415 110.268H91.3565V110.028H91.5415C91.7682 110.028 91.9482 109.97 92.0815 109.853C92.2182 109.737 92.2865 109.562 92.2865 109.328C92.2865 109.225 92.2665 109.132 92.2265 109.048C92.1898 108.965 92.1382 108.895 92.0715 108.838C92.0048 108.778 91.9265 108.733 91.8365 108.703C91.7498 108.67 91.6582 108.653 91.5615 108.653C91.3215 108.653 91.1282 108.725 90.9815 108.868C90.8382 109.012 90.7648 109.202 90.7615 109.438H90.5015C90.5048 109.285 90.5332 109.145 90.5865 109.018C90.6398 108.892 90.7132 108.783 90.8065 108.693C90.9032 108.603 91.0148 108.535 91.1415 108.488C91.2715 108.438 91.4115 108.413 91.5615 108.413C91.6948 108.413 91.8215 108.435 91.9415 108.478C92.0615 108.522 92.1665 108.583 92.2565 108.663C92.3465 108.74 92.4165 108.835 92.4665 108.948C92.5198 109.062 92.5465 109.188 92.5465 109.328C92.5465 109.518 92.4998 109.688 92.4065 109.838C92.3132 109.988 92.1715 110.092 91.9815 110.148C92.0848 110.178 92.1748 110.223 92.2515 110.283C92.3315 110.34 92.3982 110.408 92.4515 110.488C92.5082 110.565 92.5498 110.652 92.5765 110.748C92.6065 110.845 92.6215 110.945 92.6215 111.048ZM95.5583 110.218C95.5583 110.355 95.5533 110.495 95.5433 110.638C95.5366 110.782 95.5183 110.922 95.4883 111.058C95.4583 111.192 95.4166 111.318 95.3633 111.438C95.31 111.555 95.2383 111.657 95.1483 111.743C95.0683 111.82 94.97 111.887 94.8533 111.943C94.74 111.997 94.6033 112.023 94.4433 112.023C94.2833 112.023 94.145 111.997 94.0283 111.943C93.915 111.887 93.8183 111.82 93.7383 111.743C93.6483 111.657 93.5766 111.555 93.5233 111.438C93.47 111.318 93.4283 111.192 93.3983 111.058C93.3683 110.922 93.3483 110.782 93.3383 110.638C93.3316 110.495 93.3283 110.355 93.3283 110.218C93.3283 110.082 93.3316 109.942 93.3383 109.798C93.3483 109.655 93.3683 109.517 93.3983 109.383C93.4283 109.247 93.47 109.12 93.5233 109.003C93.5766 108.883 93.6483 108.78 93.7383 108.693C93.8183 108.617 93.915 108.552 94.0283 108.498C94.145 108.442 94.2833 108.413 94.4433 108.413C94.6033 108.413 94.74 108.442 94.8533 108.498C94.97 108.552 95.0683 108.617 95.1483 108.693C95.2383 108.78 95.31 108.883 95.3633 109.003C95.4166 109.12 95.4583 109.247 95.4883 109.383C95.5183 109.517 95.5366 109.655 95.5433 109.798C95.5533 109.942 95.5583 110.082 95.5583 110.218ZM95.3033 110.218C95.3033 110.105 95.3 109.985 95.2933 109.858C95.29 109.732 95.2783 109.607 95.2583 109.483C95.2383 109.36 95.2066 109.243 95.1633 109.133C95.12 109.023 95.0583 108.93 94.9783 108.853C94.915 108.793 94.84 108.745 94.7533 108.708C94.67 108.672 94.5666 108.653 94.4433 108.653C94.32 108.653 94.215 108.672 94.1283 108.708C94.045 108.745 93.9716 108.793 93.9083 108.853C93.8283 108.93 93.7666 109.023 93.7233 109.133C93.68 109.243 93.6483 109.36 93.6283 109.483C93.6083 109.607 93.595 109.732 93.5883 109.858C93.585 109.985 93.5833 110.105 93.5833 110.218C93.5833 110.332 93.585 110.452 93.5883 110.578C93.595 110.705 93.6083 110.83 93.6283 110.953C93.6483 111.077 93.68 111.193 93.7233 111.303C93.7666 111.413 93.8283 111.507 93.9083 111.583C93.9716 111.643 94.045 111.692 94.1283 111.728C94.215 111.765 94.32 111.783 94.4433 111.783C94.5666 111.783 94.67 111.765 94.7533 111.728C94.84 111.692 94.915 111.643 94.9783 111.583C95.0583 111.507 95.12 111.413 95.1633 111.303C95.2066 111.193 95.2383 111.077 95.2583 110.953C95.2783 110.83 95.29 110.705 95.2933 110.578C95.3 110.452 95.3033 110.332 95.3033 110.218Z" fill="#1F1A17"/>
<path d="M112.882 90.1147C112.882 90.2747 112.857 90.4247 112.807 90.5647C112.76 90.7047 112.69 90.828 112.597 90.9347C112.507 91.0413 112.395 91.1263 112.262 91.1897C112.128 91.2497 111.977 91.2797 111.807 91.2797C111.613 91.2797 111.447 91.2363 111.307 91.1497C111.17 91.063 111.063 90.9647 110.987 90.8547C110.923 90.7647 110.872 90.6663 110.832 90.5597C110.792 90.4497 110.76 90.3347 110.737 90.2147C110.717 90.0947 110.702 89.9713 110.692 89.8447C110.685 89.718 110.682 89.593 110.682 89.4697C110.682 89.3363 110.685 89.2013 110.692 89.0647C110.702 88.928 110.72 88.7963 110.747 88.6697C110.777 88.5397 110.817 88.418 110.867 88.3047C110.917 88.1913 110.982 88.0897 111.062 87.9997C111.142 87.913 111.242 87.8363 111.362 87.7697C111.482 87.703 111.628 87.6697 111.802 87.6697C111.942 87.6697 112.07 87.6913 112.187 87.7347C112.307 87.778 112.41 87.8397 112.497 87.9197C112.583 87.9963 112.653 88.0913 112.707 88.2047C112.76 88.3147 112.79 88.438 112.797 88.5747H112.537C112.523 88.3747 112.452 88.2147 112.322 88.0947C112.195 87.9713 112.022 87.9097 111.802 87.9097C111.675 87.9097 111.567 87.933 111.477 87.9797C111.387 88.023 111.312 88.078 111.252 88.1447C111.178 88.2247 111.12 88.3213 111.077 88.4347C111.037 88.5447 111.007 88.6613 110.987 88.7847C110.967 88.908 110.953 89.033 110.947 89.1597C110.943 89.2863 110.942 89.4013 110.942 89.5047C111.012 89.3447 111.123 89.2147 111.277 89.1147C111.43 89.0113 111.605 88.9597 111.802 88.9597C111.972 88.9597 112.123 88.988 112.257 89.0447C112.393 89.1013 112.507 89.1813 112.597 89.2847C112.69 89.3847 112.76 89.5063 112.807 89.6497C112.857 89.7897 112.882 89.9447 112.882 90.1147ZM112.627 90.1147C112.627 89.9947 112.61 89.8797 112.577 89.7697C112.547 89.6563 112.498 89.558 112.432 89.4747C112.365 89.388 112.28 89.3197 112.177 89.2697C112.073 89.2163 111.95 89.1897 111.807 89.1897C111.693 89.1897 111.593 89.2097 111.507 89.2497C111.42 89.2863 111.343 89.3363 111.277 89.3997C111.1 89.5697 111.012 89.8047 111.012 90.1047C111.012 90.2247 111.028 90.3413 111.062 90.4547C111.095 90.5647 111.145 90.6647 111.212 90.7547C111.278 90.8413 111.362 90.9113 111.462 90.9647C111.562 91.0147 111.678 91.0397 111.812 91.0397C111.955 91.0397 112.077 91.0147 112.177 90.9647C112.28 90.9113 112.365 90.843 112.432 90.7597C112.498 90.673 112.547 90.5747 112.577 90.4647C112.61 90.3513 112.627 90.2347 112.627 90.1147ZM115.704 89.4747C115.704 89.6113 115.699 89.7513 115.689 89.8947C115.682 90.038 115.664 90.178 115.634 90.3147C115.604 90.448 115.562 90.5747 115.509 90.6947C115.455 90.8113 115.384 90.913 115.294 90.9997C115.214 91.0763 115.115 91.143 114.999 91.1997C114.885 91.253 114.749 91.2797 114.589 91.2797C114.429 91.2797 114.29 91.253 114.174 91.1997C114.06 91.143 113.964 91.0763 113.884 90.9997C113.794 90.913 113.722 90.8113 113.669 90.6947C113.615 90.5747 113.574 90.448 113.544 90.3147C113.514 90.178 113.494 90.038 113.484 89.8947C113.477 89.7513 113.474 89.6113 113.474 89.4747C113.474 89.338 113.477 89.198 113.484 89.0547C113.494 88.9113 113.514 88.773 113.544 88.6397C113.574 88.503 113.615 88.3763 113.669 88.2597C113.722 88.1397 113.794 88.0363 113.884 87.9497C113.964 87.873 114.06 87.808 114.174 87.7547C114.29 87.698 114.429 87.6697 114.589 87.6697C114.749 87.6697 114.885 87.698 114.999 87.7547C115.115 87.808 115.214 87.873 115.294 87.9497C115.384 88.0363 115.455 88.1397 115.509 88.2597C115.562 88.3763 115.604 88.503 115.634 88.6397C115.664 88.773 115.682 88.9113 115.689 89.0547C115.699 89.198 115.704 89.338 115.704 89.4747ZM115.449 89.4747C115.449 89.3613 115.445 89.2413 115.439 89.1147C115.435 88.988 115.424 88.863 115.404 88.7397C115.384 88.6163 115.352 88.4997 115.309 88.3897C115.265 88.2797 115.204 88.1863 115.124 88.1097C115.06 88.0497 114.985 88.0013 114.899 87.9647C114.815 87.928 114.712 87.9097 114.589 87.9097C114.465 87.9097 114.36 87.928 114.274 87.9647C114.19 88.0013 114.117 88.0497 114.054 88.1097C113.974 88.1863 113.912 88.2797 113.869 88.3897C113.825 88.4997 113.794 88.6163 113.774 88.7397C113.754 88.863 113.74 88.988 113.734 89.1147C113.73 89.2413 113.729 89.3613 113.729 89.4747C113.729 89.588 113.73 89.708 113.734 89.8347C113.74 89.9613 113.754 90.0863 113.774 90.2097C113.794 90.333 113.825 90.4497 113.869 90.5597C113.912 90.6697 113.974 90.763 114.054 90.8397C114.117 90.8997 114.19 90.948 114.274 90.9847C114.36 91.0213 114.465 91.0397 114.589 91.0397C114.712 91.0397 114.815 91.0213 114.899 90.9847C114.985 90.948 115.06 90.8997 115.124 90.8397C115.204 90.763 115.265 90.6697 115.309 90.5597C115.352 90.4497 115.384 90.333 115.404 90.2097C115.424 90.0863 115.435 89.9613 115.439 89.8347C115.445 89.708 115.449 89.588 115.449 89.4747Z" fill="#1F1A17"/>
<path d="M119.399 63.7006C119.399 63.8339 119.395 63.9706 119.389 64.1106C119.382 64.2472 119.367 64.3806 119.344 64.5106C119.32 64.6406 119.285 64.7639 119.239 64.8806C119.192 64.9972 119.129 65.1006 119.049 65.1906C118.969 65.2772 118.869 65.3506 118.749 65.4106C118.629 65.4706 118.482 65.5006 118.309 65.5006C118.169 65.5006 118.039 65.4789 117.919 65.4356C117.802 65.3922 117.699 65.3322 117.609 65.2556C117.519 65.1756 117.447 65.0806 117.394 64.9706C117.34 64.8572 117.31 64.7322 117.304 64.5956H117.564C117.577 64.7956 117.649 64.9572 117.779 65.0806C117.912 65.2006 118.089 65.2606 118.309 65.2606C118.435 65.2606 118.544 65.2422 118.634 65.2056C118.724 65.1656 118.799 65.1122 118.859 65.0456C118.925 64.9722 118.977 64.8839 119.014 64.7806C119.054 64.6739 119.082 64.5622 119.099 64.4456C119.119 64.3289 119.13 64.2106 119.134 64.0906C119.137 63.9706 119.139 63.8572 119.139 63.7506V63.6656C119.069 63.8256 118.959 63.9572 118.809 64.0606C118.659 64.1606 118.485 64.2106 118.289 64.2106C118.119 64.2106 117.965 64.1822 117.829 64.1256C117.695 64.0689 117.582 63.9906 117.489 63.8906C117.399 63.7872 117.329 63.6656 117.279 63.5256C117.232 63.3822 117.209 63.2256 117.209 63.0556C117.209 62.8956 117.232 62.7456 117.279 62.6056C117.329 62.4656 117.399 62.3422 117.489 62.2356C117.582 62.1289 117.695 62.0456 117.829 61.9856C117.962 61.9222 118.114 61.8906 118.284 61.8906C118.477 61.8906 118.644 61.9339 118.784 62.0206C118.927 62.1039 119.037 62.2006 119.114 62.3106C119.177 62.4006 119.227 62.5006 119.264 62.6106C119.304 62.7172 119.334 62.8322 119.354 62.9556C119.374 63.0756 119.385 63.1989 119.389 63.3256C119.395 63.4522 119.399 63.5772 119.399 63.7006ZM119.079 63.0656C119.079 62.9456 119.062 62.8306 119.029 62.7206C118.995 62.6072 118.945 62.5072 118.879 62.4206C118.812 62.3306 118.729 62.2606 118.629 62.2106C118.529 62.1572 118.412 62.1306 118.279 62.1306C118.135 62.1306 118.012 62.1572 117.909 62.2106C117.809 62.2606 117.725 62.3289 117.659 62.4156C117.592 62.4989 117.542 62.5972 117.509 62.7106C117.479 62.8206 117.464 62.9356 117.464 63.0556C117.464 63.1756 117.479 63.2922 117.509 63.4056C117.542 63.5156 117.592 63.6139 117.659 63.7006C117.725 63.7839 117.81 63.8522 117.914 63.9056C118.017 63.9556 118.14 63.9806 118.284 63.9806C118.397 63.9806 118.497 63.9622 118.584 63.9256C118.67 63.8856 118.747 63.8339 118.814 63.7706C118.99 63.6006 119.079 63.3656 119.079 63.0656ZM122.296 63.6956C122.296 63.8322 122.291 63.9722 122.281 64.1156C122.274 64.2589 122.256 64.3989 122.226 64.5356C122.196 64.6689 122.154 64.7956 122.101 64.9156C122.047 65.0322 121.976 65.1339 121.886 65.2206C121.806 65.2972 121.707 65.3639 121.591 65.4206C121.477 65.4739 121.341 65.5006 121.181 65.5006C121.021 65.5006 120.882 65.4739 120.766 65.4206C120.652 65.3639 120.556 65.2972 120.476 65.2206C120.386 65.1339 120.314 65.0322 120.261 64.9156C120.207 64.7956 120.166 64.6689 120.136 64.5356C120.106 64.3989 120.086 64.2589 120.076 64.1156C120.069 63.9722 120.066 63.8322 120.066 63.6956C120.066 63.5589 120.069 63.4189 120.076 63.2756C120.086 63.1322 120.106 62.9939 120.136 62.8606C120.166 62.7239 120.207 62.5972 120.261 62.4806C120.314 62.3606 120.386 62.2572 120.476 62.1706C120.556 62.0939 120.652 62.0289 120.766 61.9756C120.882 61.9189 121.021 61.8906 121.181 61.8906C121.341 61.8906 121.477 61.9189 121.591 61.9756C121.707 62.0289 121.806 62.0939 121.886 62.1706C121.976 62.2572 122.047 62.3606 122.101 62.4806C122.154 62.5972 122.196 62.7239 122.226 62.8606C122.256 62.9939 122.274 63.1322 122.281 63.2756C122.291 63.4189 122.296 63.5589 122.296 63.6956ZM122.041 63.6956C122.041 63.5822 122.037 63.4622 122.031 63.3356C122.027 63.2089 122.016 63.0839 121.996 62.9606C121.976 62.8372 121.944 62.7206 121.901 62.6106C121.857 62.5006 121.796 62.4072 121.716 62.3306C121.652 62.2706 121.577 62.2222 121.491 62.1856C121.407 62.1489 121.304 62.1306 121.181 62.1306C121.057 62.1306 120.952 62.1489 120.866 62.1856C120.782 62.2222 120.709 62.2706 120.646 62.3306C120.566 62.4072 120.504 62.5006 120.461 62.6106C120.417 62.7206 120.386 62.8372 120.366 62.9606C120.346 63.0839 120.332 63.2089 120.326 63.3356C120.322 63.4622 120.321 63.5822 120.321 63.6956C120.321 63.8089 120.322 63.9289 120.326 64.0556C120.332 64.1822 120.346 64.3072 120.366 64.4306C120.386 64.5539 120.417 64.6706 120.461 64.7806C120.504 64.8906 120.566 64.9839 120.646 65.0606C120.709 65.1206 120.782 65.1689 120.866 65.2056C120.952 65.2422 121.057 65.2606 121.181 65.2606C121.304 65.2606 121.407 65.2422 121.491 65.2056C121.577 65.1689 121.652 65.1206 121.716 65.0606C121.796 64.9839 121.857 64.8906 121.901 64.7806C121.944 64.6706 121.976 64.5539 121.996 64.4306C122.016 64.3072 122.027 64.1822 122.031 64.0556C122.037 63.9289 122.041 63.8089 122.041 63.6956Z" fill="#1F1A17"/>
<path d="M112.5 39.0151V35.8501L111.635 36.4851V36.2051L112.525 35.5401H112.75V39.0151H112.5ZM114.372 39.0151V38.7451L115.762 37.0101C115.832 36.9234 115.895 36.8201 115.952 36.7001C116.012 36.5768 116.042 36.4568 116.042 36.3401C116.042 36.2401 116.024 36.1518 115.987 36.0751C115.954 35.9951 115.905 35.9284 115.842 35.8751C115.782 35.8218 115.71 35.7818 115.627 35.7551C115.544 35.7251 115.455 35.7101 115.362 35.7101C115.122 35.7101 114.94 35.7851 114.817 35.9351C114.694 36.0818 114.632 36.2701 114.632 36.5001H114.367C114.367 36.3501 114.389 36.2134 114.432 36.0901C114.479 35.9634 114.545 35.8551 114.632 35.7651C114.719 35.6718 114.822 35.6001 114.942 35.5501C115.065 35.4968 115.205 35.4701 115.362 35.4701C115.495 35.4701 115.619 35.4901 115.732 35.5301C115.849 35.5701 115.947 35.6284 116.027 35.7051C116.11 35.7784 116.175 35.8701 116.222 35.9801C116.269 36.0868 116.292 36.2068 116.292 36.3401C116.292 36.4901 116.257 36.6368 116.187 36.7801C116.12 36.9201 116.042 37.0451 115.952 37.1551L114.652 38.7751H116.387V39.0151H114.372ZM119.254 37.2751C119.254 37.4118 119.249 37.5518 119.239 37.6951C119.232 37.8384 119.214 37.9784 119.184 38.1151C119.154 38.2484 119.112 38.3751 119.059 38.4951C119.005 38.6118 118.934 38.7134 118.844 38.8001C118.764 38.8768 118.665 38.9434 118.549 39.0001C118.435 39.0534 118.299 39.0801 118.139 39.0801C117.979 39.0801 117.84 39.0534 117.724 39.0001C117.61 38.9434 117.514 38.8768 117.434 38.8001C117.344 38.7134 117.272 38.6118 117.219 38.4951C117.165 38.3751 117.124 38.2484 117.094 38.1151C117.064 37.9784 117.044 37.8384 117.034 37.6951C117.027 37.5518 117.024 37.4118 117.024 37.2751C117.024 37.1384 117.027 36.9984 117.034 36.8551C117.044 36.7118 117.064 36.5734 117.094 36.4401C117.124 36.3034 117.165 36.1768 117.219 36.0601C117.272 35.9401 117.344 35.8368 117.434 35.7501C117.514 35.6734 117.61 35.6084 117.724 35.5551C117.84 35.4984 117.979 35.4701 118.139 35.4701C118.299 35.4701 118.435 35.4984 118.549 35.5551C118.665 35.6084 118.764 35.6734 118.844 35.7501C118.934 35.8368 119.005 35.9401 119.059 36.0601C119.112 36.1768 119.154 36.3034 119.184 36.4401C119.214 36.5734 119.232 36.7118 119.239 36.8551C119.249 36.9984 119.254 37.1384 119.254 37.2751ZM118.999 37.2751C118.999 37.1618 118.995 37.0418 118.989 36.9151C118.985 36.7884 118.974 36.6634 118.954 36.5401C118.934 36.4168 118.902 36.3001 118.859 36.1901C118.815 36.0801 118.754 35.9868 118.674 35.9101C118.61 35.8501 118.535 35.8018 118.449 35.7651C118.365 35.7284 118.262 35.7101 118.139 35.7101C118.015 35.7101 117.91 35.7284 117.824 35.7651C117.74 35.8018 117.667 35.8501 117.604 35.9101C117.524 35.9868 117.462 36.0801 117.419 36.1901C117.375 36.3001 117.344 36.4168 117.324 36.5401C117.304 36.6634 117.29 36.7884 117.284 36.9151C117.28 37.0418 117.279 37.1618 117.279 37.2751C117.279 37.3884 117.28 37.5084 117.284 37.6351C117.29 37.7618 117.304 37.8868 117.324 38.0101C117.344 38.1334 117.375 38.2501 117.419 38.3601C117.462 38.4701 117.524 38.5634 117.604 38.6401C117.667 38.7001 117.74 38.7484 117.824 38.7851C117.91 38.8218 118.015 38.8401 118.139 38.8401C118.262 38.8401 118.365 38.8218 118.449 38.7851C118.535 38.7484 118.61 38.7001 118.674 38.6401C118.754 38.5634 118.815 38.4701 118.859 38.3601C118.902 38.2501 118.934 38.1334 118.954 38.0101C118.974 37.8868 118.985 37.7618 118.989 37.6351C118.995 37.5084 118.999 37.3884 118.999 37.2751Z" fill="#1F1A17"/>
<path d="M90.5255 18.3622V15.1972L89.6605 15.8322V15.5522L90.5505 14.8872H90.7755V18.3622H90.5255ZM94.4423 17.2722C94.4423 17.4356 94.4207 17.5872 94.3773 17.7272C94.334 17.8672 94.2673 17.9906 94.1773 18.0972C94.0907 18.2006 93.979 18.2822 93.8423 18.3422C93.709 18.4022 93.5523 18.4322 93.3723 18.4322C93.209 18.4322 93.0607 18.4056 92.9273 18.3522C92.7973 18.2956 92.684 18.2189 92.5873 18.1222C92.494 18.0256 92.4207 17.9122 92.3673 17.7822C92.3173 17.6522 92.2907 17.5106 92.2873 17.3572H92.5423C92.5457 17.4806 92.5673 17.5939 92.6073 17.6972C92.6507 17.8006 92.7073 17.8889 92.7773 17.9622C92.8473 18.0356 92.9323 18.0922 93.0323 18.1322C93.1323 18.1722 93.2457 18.1922 93.3723 18.1922C93.6457 18.1922 93.849 18.1072 93.9823 17.9372C94.119 17.7672 94.1873 17.5456 94.1873 17.2722C94.1873 17.1456 94.1723 17.0272 94.1423 16.9172C94.1123 16.8039 94.0657 16.7056 94.0023 16.6222C93.939 16.5389 93.8573 16.4739 93.7573 16.4272C93.6607 16.3772 93.5457 16.3522 93.4123 16.3522C93.2623 16.3522 93.1207 16.3839 92.9873 16.4472C92.854 16.5072 92.7473 16.6022 92.6673 16.7322H92.3573L92.4373 14.8872H94.3273V15.1222H92.6773L92.6073 16.5022C92.694 16.3622 92.8107 16.2639 92.9573 16.2072C93.104 16.1472 93.2557 16.1172 93.4123 16.1172C93.5857 16.1172 93.7357 16.1472 93.8623 16.2072C93.9923 16.2639 94.099 16.3439 94.1823 16.4472C94.269 16.5506 94.334 16.6739 94.3773 16.8172C94.4207 16.9572 94.4423 17.1089 94.4423 17.2722ZM97.2791 16.6222C97.2791 16.7589 97.2741 16.8989 97.2641 17.0422C97.2575 17.1856 97.2391 17.3256 97.2091 17.4622C97.1791 17.5956 97.1375 17.7222 97.0841 17.8422C97.0308 17.9589 96.9591 18.0606 96.8691 18.1472C96.7891 18.2239 96.6908 18.2906 96.5741 18.3472C96.4608 18.4006 96.3241 18.4272 96.1641 18.4272C96.0041 18.4272 95.8658 18.4006 95.7491 18.3472C95.6358 18.2906 95.5391 18.2239 95.4591 18.1472C95.3691 18.0606 95.2975 17.9589 95.2441 17.8422C95.1908 17.7222 95.1491 17.5956 95.1191 17.4622C95.0891 17.3256 95.0691 17.1856 95.0591 17.0422C95.0525 16.8989 95.0491 16.7589 95.0491 16.6222C95.0491 16.4856 95.0525 16.3456 95.0591 16.2022C95.0691 16.0589 95.0891 15.9206 95.1191 15.7872C95.1491 15.6506 95.1908 15.5239 95.2441 15.4072C95.2975 15.2872 95.3691 15.1839 95.4591 15.0972C95.5391 15.0206 95.6358 14.9556 95.7491 14.9022C95.8658 14.8456 96.0041 14.8172 96.1641 14.8172C96.3241 14.8172 96.4608 14.8456 96.5741 14.9022C96.6908 14.9556 96.7891 15.0206 96.8691 15.0972C96.9591 15.1839 97.0308 15.2872 97.0841 15.4072C97.1375 15.5239 97.1791 15.6506 97.2091 15.7872C97.2391 15.9206 97.2575 16.0589 97.2641 16.2022C97.2741 16.3456 97.2791 16.4856 97.2791 16.6222ZM97.0241 16.6222C97.0241 16.5089 97.0208 16.3889 97.0141 16.2622C97.0108 16.1356 96.9991 16.0106 96.9791 15.8872C96.9591 15.7639 96.9275 15.6472 96.8841 15.5372C96.8408 15.4272 96.7791 15.3339 96.6991 15.2572C96.6358 15.1972 96.5608 15.1489 96.4741 15.1122C96.3908 15.0756 96.2875 15.0572 96.1641 15.0572C96.0408 15.0572 95.9358 15.0756 95.8491 15.1122C95.7658 15.1489 95.6925 15.1972 95.6291 15.2572C95.5491 15.3339 95.4875 15.4272 95.4441 15.5372C95.4008 15.6472 95.3691 15.7639 95.3491 15.8872C95.3291 16.0106 95.3158 16.1356 95.3091 16.2622C95.3058 16.3889 95.3041 16.5089 95.3041 16.6222C95.3041 16.7356 95.3058 16.8556 95.3091 16.9822C95.3158 17.1089 95.3291 17.2339 95.3491 17.3572C95.3691 17.4806 95.4008 17.5972 95.4441 17.7072C95.4875 17.8172 95.5491 17.9106 95.6291 17.9872C95.6925 18.0472 95.7658 18.0956 95.8491 18.1322C95.9358 18.1689 96.0408 18.1872 96.1641 18.1872C96.2875 18.1872 96.3908 18.1689 96.4741 18.1322C96.5608 18.0956 96.6358 18.0472 96.6991 17.9872C96.7791 17.9106 96.8408 17.8172 96.8841 17.7072C96.9275 17.5972 96.9591 17.4806 96.9791 17.3572C96.9991 17.2339 97.0108 17.1089 97.0141 16.9822C97.0208 16.8556 97.0241 16.7356 97.0241 16.6222Z" fill="#1F1A17"/>
<path d="M59.0623 10.605V10.375H60.4773V10.605H59.0623ZM61.2053 12.065H60.9753L62.5403 8.39H62.7703L61.2053 12.065ZM64.6578 10.6V11.975H64.4228V10.6H63.1978V10.375H64.4228V9.09H64.6578V10.375H65.8828V10.6H64.6578Z" fill="#1F1A17"/>
<path d="M67.037 12V8.835L66.172 9.47V9.19L67.062 8.525H67.287V12H67.037ZM70.9288 11.085C70.9288 11.2417 70.8988 11.3817 70.8388 11.505C70.7788 11.625 70.6988 11.7267 70.5988 11.81C70.4988 11.8933 70.3821 11.9567 70.2488 12C70.1155 12.0433 69.9755 12.065 69.8288 12.065C69.6821 12.065 69.5421 12.0433 69.4088 12C69.2788 11.9567 69.1638 11.8933 69.0638 11.81C68.9638 11.7267 68.8838 11.625 68.8238 11.505C68.7671 11.3817 68.7388 11.2417 68.7388 11.085C68.7388 10.9883 68.7521 10.8933 68.7788 10.8C68.8088 10.7067 68.8505 10.62 68.9038 10.54C68.9571 10.46 69.0221 10.39 69.0988 10.33C69.1755 10.2667 69.2605 10.2183 69.3538 10.185C69.1905 10.1217 69.0605 10.015 68.9638 9.865C68.8671 9.715 68.8188 9.55333 68.8188 9.38C68.8188 9.23333 68.8455 9.10333 68.8988 8.99C68.9521 8.87333 69.0238 8.77667 69.1138 8.7C69.2071 8.62 69.3155 8.56 69.4388 8.52C69.5655 8.47667 69.6988 8.455 69.8388 8.455C69.9788 8.455 70.1105 8.47667 70.2338 8.52C70.3571 8.56 70.4638 8.62 70.5538 8.7C70.6471 8.77667 70.7188 8.87333 70.7688 8.99C70.8221 9.10333 70.8488 9.23333 70.8488 9.38C70.8488 9.55333 70.8005 9.715 70.7038 9.865C70.6071 10.015 70.4771 10.1217 70.3138 10.185C70.4071 10.2183 70.4921 10.2667 70.5688 10.33C70.6455 10.39 70.7105 10.46 70.7638 10.54C70.8171 10.62 70.8571 10.7067 70.8838 10.8C70.9138 10.8933 70.9288 10.9883 70.9288 11.085ZM70.5888 9.37C70.5888 9.26 70.5688 9.16167 70.5288 9.075C70.4888 8.98833 70.4338 8.91667 70.3638 8.86C70.2971 8.8 70.2171 8.755 70.1238 8.725C70.0305 8.695 69.9321 8.68 69.8288 8.68C69.7221 8.68 69.6238 8.695 69.5338 8.725C69.4438 8.755 69.3638 8.8 69.2938 8.86C69.2271 8.91667 69.1738 8.98833 69.1338 9.075C69.0971 9.16167 69.0788 9.26 69.0788 9.37C69.0788 9.48333 69.0971 9.585 69.1338 9.675C69.1738 9.76167 69.2271 9.835 69.2938 9.895C69.3638 9.955 69.4455 10 69.5388 10.03C69.6321 10.06 69.7321 10.075 69.8388 10.075C69.9455 10.075 70.0438 10.06 70.1338 10.03C70.2271 10 70.3071 9.955 70.3738 9.895C70.4405 9.835 70.4921 9.76167 70.5288 9.675C70.5688 9.585 70.5888 9.48333 70.5888 9.37ZM70.6688 11.07C70.6688 10.9467 70.6471 10.8367 70.6038 10.74C70.5605 10.6433 70.5005 10.5633 70.4238 10.5C70.3505 10.4333 70.2621 10.3833 70.1588 10.35C70.0555 10.3133 69.9455 10.295 69.8288 10.295C69.7121 10.295 69.6021 10.3133 69.4988 10.35C69.3988 10.3833 69.3105 10.4333 69.2338 10.5C69.1605 10.5633 69.1021 10.6433 69.0588 10.74C69.0188 10.8367 68.9988 10.9467 68.9988 11.07C68.9988 11.1933 69.0205 11.3033 69.0638 11.4C69.1071 11.4933 69.1655 11.5733 69.2388 11.64C69.3155 11.7033 69.4055 11.7517 69.5088 11.785C69.6121 11.8183 69.7221 11.835 69.8388 11.835C69.9555 11.835 70.0638 11.8183 70.1638 11.785C70.2671 11.7517 70.3555 11.7033 70.4288 11.64C70.5055 11.5733 70.5638 11.4933 70.6038 11.4C70.6471 11.3033 70.6688 11.1933 70.6688 11.07ZM73.7906 10.26C73.7906 10.3967 73.7856 10.5367 73.7756 10.68C73.7689 10.8233 73.7506 10.9633 73.7206 11.1C73.6906 11.2333 73.6489 11.36 73.5956 11.48C73.5423 11.5967 73.4706 11.6983 73.3806 11.785C73.3006 11.8617 73.2023 11.9283 73.0856 11.985C72.9723 12.0383 72.8356 12.065 72.6756 12.065C72.5156 12.065 72.3773 12.0383 72.2606 11.985C72.1473 11.9283 72.0506 11.8617 71.9706 11.785C71.8806 11.6983 71.8089 11.5967 71.7556 11.48C71.7023 11.36 71.6606 11.2333 71.6306 11.1C71.6006 10.9633 71.5806 10.8233 71.5706 10.68C71.5639 10.5367 71.5606 10.3967 71.5606 10.26C71.5606 10.1233 71.5639 9.98333 71.5706 9.84C71.5806 9.69667 71.6006 9.55833 71.6306 9.425C71.6606 9.28833 71.7023 9.16167 71.7556 9.045C71.8089 8.925 71.8806 8.82167 71.9706 8.735C72.0506 8.65833 72.1473 8.59333 72.2606 8.54C72.3773 8.48333 72.5156 8.455 72.6756 8.455C72.8356 8.455 72.9723 8.48333 73.0856 8.54C73.2023 8.59333 73.3006 8.65833 73.3806 8.735C73.4706 8.82167 73.5423 8.925 73.5956 9.045C73.6489 9.16167 73.6906 9.28833 73.7206 9.425C73.7506 9.55833 73.7689 9.69667 73.7756 9.84C73.7856 9.98333 73.7906 10.1233 73.7906 10.26ZM73.5356 10.26C73.5356 10.1467 73.5323 10.0267 73.5256 9.9C73.5223 9.77333 73.5106 9.64833 73.4906 9.525C73.4706 9.40167 73.4389 9.285 73.3956 9.175C73.3523 9.065 73.2906 8.97167 73.2106 8.895C73.1473 8.835 73.0723 8.78667 72.9856 8.75C72.9023 8.71333 72.7989 8.695 72.6756 8.695C72.5523 8.695 72.4473 8.71333 72.3606 8.75C72.2773 8.78667 72.2039 8.835 72.1406 8.895C72.0606 8.97167 71.9989 9.065 71.9556 9.175C71.9123 9.285 71.8806 9.40167 71.8606 9.525C71.8406 9.64833 71.8273 9.77333 71.8206 9.9C71.8173 10.0267 71.8156 10.1467 71.8156 10.26C71.8156 10.3733 71.8173 10.4933 71.8206 10.62C71.8273 10.7467 71.8406 10.8717 71.8606 10.995C71.8806 11.1183 71.9123 11.235 71.9556 11.345C71.9989 11.455 72.0606 11.5483 72.1406 11.625C72.2039 11.685 72.2773 11.7333 72.3606 11.77C72.4473 11.8067 72.5523 11.825 72.6756 11.825C72.7989 11.825 72.9023 11.8067 72.9856 11.77C73.0723 11.7333 73.1473 11.685 73.2106 11.625C73.2906 11.5483 73.3523 11.455 73.3956 11.345C73.4389 11.235 73.4706 11.1183 73.4906 10.995C73.5106 10.8717 73.5223 10.7467 73.5256 10.62C73.5323 10.4933 73.5356 10.3733 73.5356 10.26Z" fill="#1F1A17"/>
<path d="M30.375 16.605V16.375H31.79V16.605H30.375ZM33.6281 18V14.835L32.7631 15.47V15.19L33.6531 14.525H33.8781V18H33.6281ZM37.5449 16.91C37.5449 17.0733 37.5232 17.225 37.4799 17.365C37.4365 17.505 37.3699 17.6283 37.2799 17.735C37.1932 17.8383 37.0815 17.92 36.9449 17.98C36.8115 18.04 36.6549 18.07 36.4749 18.07C36.3115 18.07 36.1632 18.0433 36.0299 17.99C35.8999 17.9333 35.7865 17.8567 35.6899 17.76C35.5965 17.6633 35.5232 17.55 35.4699 17.42C35.4199 17.29 35.3932 17.1483 35.3899 16.995H35.6449C35.6482 17.1183 35.6699 17.2317 35.7099 17.335C35.7532 17.4383 35.8099 17.5267 35.8799 17.6C35.9499 17.6733 36.0349 17.73 36.1349 17.77C36.2349 17.81 36.3482 17.83 36.4749 17.83C36.7482 17.83 36.9515 17.745 37.0849 17.575C37.2215 17.405 37.2899 17.1833 37.2899 16.91C37.2899 16.7833 37.2749 16.665 37.2449 16.555C37.2149 16.4417 37.1682 16.3433 37.1049 16.26C37.0415 16.1767 36.9599 16.1117 36.8599 16.065C36.7632 16.015 36.6482 15.99 36.5149 15.99C36.3649 15.99 36.2232 16.0217 36.0899 16.085C35.9565 16.145 35.8499 16.24 35.7699 16.37H35.4599L35.5399 14.525H37.4299V14.76H35.7799L35.7099 16.14C35.7965 16 35.9132 15.9017 36.0599 15.845C36.2065 15.785 36.3582 15.755 36.5149 15.755C36.6882 15.755 36.8382 15.785 36.9649 15.845C37.0949 15.9017 37.2015 15.9817 37.2849 16.085C37.3715 16.1883 37.4365 16.3117 37.4799 16.455C37.5232 16.595 37.5449 16.7467 37.5449 16.91ZM40.3817 16.26C40.3817 16.3967 40.3767 16.5367 40.3667 16.68C40.36 16.8233 40.3417 16.9633 40.3117 17.1C40.2817 17.2333 40.24 17.36 40.1867 17.48C40.1333 17.5967 40.0617 17.6983 39.9717 17.785C39.8917 17.8617 39.7933 17.9283 39.6767 17.985C39.5633 18.0383 39.4267 18.065 39.2667 18.065C39.1067 18.065 38.9683 18.0383 38.8517 17.985C38.7383 17.9283 38.6417 17.8617 38.5617 17.785C38.4717 17.6983 38.4 17.5967 38.3467 17.48C38.2933 17.36 38.2517 17.2333 38.2217 17.1C38.1917 16.9633 38.1717 16.8233 38.1617 16.68C38.155 16.5367 38.1517 16.3967 38.1517 16.26C38.1517 16.1233 38.155 15.9833 38.1617 15.84C38.1717 15.6967 38.1917 15.5583 38.2217 15.425C38.2517 15.2883 38.2933 15.1617 38.3467 15.045C38.4 14.925 38.4717 14.8217 38.5617 14.735C38.6417 14.6583 38.7383 14.5933 38.8517 14.54C38.9683 14.4833 39.1067 14.455 39.2667 14.455C39.4267 14.455 39.5633 14.4833 39.6767 14.54C39.7933 14.5933 39.8917 14.6583 39.9717 14.735C40.0617 14.8217 40.1333 14.925 40.1867 15.045C40.24 15.1617 40.2817 15.2883 40.3117 15.425C40.3417 15.5583 40.36 15.6967 40.3667 15.84C40.3767 15.9833 40.3817 16.1233 40.3817 16.26ZM40.1267 16.26C40.1267 16.1467 40.1233 16.0267 40.1167 15.9C40.1133 15.7733 40.1017 15.6483 40.0817 15.525C40.0617 15.4017 40.03 15.285 39.9867 15.175C39.9433 15.065 39.8817 14.9717 39.8017 14.895C39.7383 14.835 39.6633 14.7867 39.5767 14.75C39.4933 14.7133 39.39 14.695 39.2667 14.695C39.1433 14.695 39.0383 14.7133 38.9517 14.75C38.8683 14.7867 38.795 14.835 38.7317 14.895C38.6517 14.9717 38.59 15.065 38.5467 15.175C38.5033 15.285 38.4717 15.4017 38.4517 15.525C38.4317 15.6483 38.4183 15.7733 38.4117 15.9C38.4083 16.0267 38.4067 16.1467 38.4067 16.26C38.4067 16.3733 38.4083 16.4933 38.4117 16.62C38.4183 16.7467 38.4317 16.8717 38.4517 16.995C38.4717 17.1183 38.5033 17.235 38.5467 17.345C38.59 17.455 38.6517 17.5483 38.7317 17.625C38.795 17.685 38.8683 17.7333 38.9517 17.77C39.0383 17.8067 39.1433 17.825 39.2667 17.825C39.39 17.825 39.4933 17.8067 39.5767 17.77C39.6633 17.7333 39.7383 17.685 39.8017 17.625C39.8817 17.5483 39.9433 17.455 39.9867 17.345C40.03 17.235 40.0617 17.1183 40.0817 16.995C40.1017 16.8717 40.1133 16.7467 40.1167 16.62C40.1233 16.4933 40.1267 16.3733 40.1267 16.26Z" fill="#1F1A17"/>
<path d="M10.375 37.605V37.375H11.79V37.605H10.375ZM13.6281 39V35.835L12.7631 36.47V36.19L13.6531 35.525H13.8781V39H13.6281ZM15.4999 39V38.73L16.8899 36.995C16.9599 36.9083 17.0232 36.805 17.0799 36.685C17.1399 36.5617 17.1699 36.4417 17.1699 36.325C17.1699 36.225 17.1515 36.1367 17.1149 36.06C17.0815 35.98 17.0332 35.9133 16.9699 35.86C16.9099 35.8067 16.8382 35.7667 16.7549 35.74C16.6715 35.71 16.5832 35.695 16.4899 35.695C16.2499 35.695 16.0682 35.77 15.9449 35.92C15.8215 36.0667 15.7599 36.255 15.7599 36.485H15.4949C15.4949 36.335 15.5165 36.1983 15.5599 36.075C15.6065 35.9483 15.6732 35.84 15.7599 35.75C15.8465 35.6567 15.9499 35.585 16.0699 35.535C16.1932 35.4817 16.3332 35.455 16.4899 35.455C16.6232 35.455 16.7465 35.475 16.8599 35.515C16.9765 35.555 17.0749 35.6133 17.1549 35.69C17.2382 35.7633 17.3032 35.855 17.3499 35.965C17.3965 36.0717 17.4199 36.1917 17.4199 36.325C17.4199 36.475 17.3849 36.6217 17.3149 36.765C17.2482 36.905 17.1699 37.03 17.0799 37.14L15.7799 38.76H17.5149V39H15.4999ZM20.3817 37.26C20.3817 37.3967 20.3767 37.5367 20.3667 37.68C20.36 37.8233 20.3417 37.9633 20.3117 38.1C20.2817 38.2333 20.24 38.36 20.1867 38.48C20.1333 38.5967 20.0617 38.6983 19.9717 38.785C19.8917 38.8617 19.7933 38.9283 19.6767 38.985C19.5633 39.0383 19.4267 39.065 19.2667 39.065C19.1067 39.065 18.9683 39.0383 18.8517 38.985C18.7383 38.9283 18.6417 38.8617 18.5617 38.785C18.4717 38.6983 18.4 38.5967 18.3467 38.48C18.2933 38.36 18.2517 38.2333 18.2217 38.1C18.1917 37.9633 18.1717 37.8233 18.1617 37.68C18.155 37.5367 18.1517 37.3967 18.1517 37.26C18.1517 37.1233 18.155 36.9833 18.1617 36.84C18.1717 36.6967 18.1917 36.5583 18.2217 36.425C18.2517 36.2883 18.2933 36.1617 18.3467 36.045C18.4 35.925 18.4717 35.8217 18.5617 35.735C18.6417 35.6583 18.7383 35.5933 18.8517 35.54C18.9683 35.4833 19.1067 35.455 19.2667 35.455C19.4267 35.455 19.5633 35.4833 19.6767 35.54C19.7933 35.5933 19.8917 35.6583 19.9717 35.735C20.0617 35.8217 20.1333 35.925 20.1867 36.045C20.24 36.1617 20.2817 36.2883 20.3117 36.425C20.3417 36.5583 20.36 36.6967 20.3667 36.84C20.3767 36.9833 20.3817 37.1233 20.3817 37.26ZM20.1267 37.26C20.1267 37.1467 20.1233 37.0267 20.1167 36.9C20.1133 36.7733 20.1017 36.6483 20.0817 36.525C20.0617 36.4017 20.03 36.285 19.9867 36.175C19.9433 36.065 19.8817 35.9717 19.8017 35.895C19.7383 35.835 19.6633 35.7867 19.5767 35.75C19.4933 35.7133 19.39 35.695 19.2667 35.695C19.1433 35.695 19.0383 35.7133 18.9517 35.75C18.8683 35.7867 18.795 35.835 18.7317 35.895C18.6517 35.9717 18.59 36.065 18.5467 36.175C18.5033 36.285 18.4717 36.4017 18.4517 36.525C18.4317 36.6483 18.4183 36.7733 18.4117 36.9C18.4083 37.0267 18.4067 37.1467 18.4067 37.26C18.4067 37.3733 18.4083 37.4933 18.4117 37.62C18.4183 37.7467 18.4317 37.8717 18.4517 37.995C18.4717 38.1183 18.5033 38.235 18.5467 38.345C18.59 38.455 18.6517 38.5483 18.7317 38.625C18.795 38.685 18.8683 38.7333 18.9517 38.77C19.0383 38.8067 19.1433 38.825 19.2667 38.825C19.39 38.825 19.4933 38.8067 19.5767 38.77C19.6633 38.7333 19.7383 38.685 19.8017 38.625C19.8817 38.5483 19.9433 38.455 19.9867 38.345C20.03 38.235 20.0617 38.1183 20.0817 37.995C20.1017 37.8717 20.1133 37.7467 20.1167 37.62C20.1233 37.4933 20.1267 37.3733 20.1267 37.26Z" fill="#1F1A17"/>
<path d="M6.375 63.605V63.375H7.79V63.605H6.375ZM10.6431 63.265C10.6431 63.3983 10.6398 63.535 10.6331 63.675C10.6264 63.8117 10.6114 63.945 10.5881 64.075C10.5648 64.205 10.5298 64.3283 10.4831 64.445C10.4364 64.5617 10.3731 64.665 10.2931 64.755C10.2131 64.8417 10.1131 64.915 9.99309 64.975C9.87309 65.035 9.72642 65.065 9.55309 65.065C9.41309 65.065 9.28309 65.0433 9.16309 65C9.04642 64.9567 8.94309 64.8967 8.85309 64.82C8.76309 64.74 8.69142 64.645 8.63809 64.535C8.58475 64.4217 8.55475 64.2967 8.54809 64.16H8.80809C8.82142 64.36 8.89309 64.5217 9.02309 64.645C9.15642 64.765 9.33309 64.825 9.55309 64.825C9.67975 64.825 9.78809 64.8067 9.87809 64.77C9.96809 64.73 10.0431 64.6767 10.1031 64.61C10.1698 64.5367 10.2214 64.4483 10.2581 64.345C10.2981 64.2383 10.3264 64.1267 10.3431 64.01C10.3631 63.8933 10.3748 63.775 10.3781 63.655C10.3814 63.535 10.3831 63.4217 10.3831 63.315V63.23C10.3131 63.39 10.2031 63.5217 10.0531 63.625C9.90309 63.725 9.72975 63.775 9.53309 63.775C9.36309 63.775 9.20975 63.7467 9.07309 63.69C8.93975 63.6333 8.82642 63.555 8.73309 63.455C8.64309 63.3517 8.57309 63.23 8.52309 63.09C8.47642 62.9467 8.45309 62.79 8.45309 62.62C8.45309 62.46 8.47642 62.31 8.52309 62.17C8.57309 62.03 8.64309 61.9067 8.73309 61.8C8.82642 61.6933 8.93975 61.61 9.07309 61.55C9.20642 61.4867 9.35809 61.455 9.52809 61.455C9.72142 61.455 9.88809 61.4983 10.0281 61.585C10.1714 61.6683 10.2814 61.765 10.3581 61.875C10.4214 61.965 10.4714 62.065 10.5081 62.175C10.5481 62.2817 10.5781 62.3967 10.5981 62.52C10.6181 62.64 10.6298 62.7633 10.6331 62.89C10.6398 63.0167 10.6431 63.1417 10.6431 63.265ZM10.3231 62.63C10.3231 62.51 10.3064 62.395 10.2731 62.285C10.2398 62.1717 10.1898 62.0717 10.1231 61.985C10.0564 61.895 9.97309 61.825 9.87309 61.775C9.77309 61.7217 9.65642 61.695 9.52309 61.695C9.37975 61.695 9.25642 61.7217 9.15309 61.775C9.05309 61.825 8.96975 61.8933 8.90309 61.98C8.83642 62.0633 8.78642 62.1617 8.75309 62.275C8.72309 62.385 8.70809 62.5 8.70809 62.62C8.70809 62.74 8.72309 62.8567 8.75309 62.97C8.78642 63.08 8.83642 63.1783 8.90309 63.265C8.96975 63.3483 9.05475 63.4167 9.15809 63.47C9.26142 63.52 9.38475 63.545 9.52809 63.545C9.64142 63.545 9.74142 63.5267 9.82809 63.49C9.91475 63.45 9.99142 63.3983 10.0581 63.335C10.2348 63.165 10.3231 62.93 10.3231 62.63ZM13.5399 63.26C13.5399 63.3967 13.5349 63.5367 13.5249 63.68C13.5182 63.8233 13.4999 63.9633 13.4699 64.1C13.4399 64.2333 13.3982 64.36 13.3449 64.48C13.2915 64.5967 13.2199 64.6983 13.1299 64.785C13.0499 64.8617 12.9515 64.9283 12.8349 64.985C12.7215 65.0383 12.5849 65.065 12.4249 65.065C12.2649 65.065 12.1265 65.0383 12.0099 64.985C11.8965 64.9283 11.7999 64.8617 11.7199 64.785C11.6299 64.6983 11.5582 64.5967 11.5049 64.48C11.4515 64.36 11.4099 64.2333 11.3799 64.1C11.3499 63.9633 11.3299 63.8233 11.3199 63.68C11.3132 63.5367 11.3099 63.3967 11.3099 63.26C11.3099 63.1233 11.3132 62.9833 11.3199 62.84C11.3299 62.6967 11.3499 62.5583 11.3799 62.425C11.4099 62.2883 11.4515 62.1617 11.5049 62.045C11.5582 61.925 11.6299 61.8217 11.7199 61.735C11.7999 61.6583 11.8965 61.5933 12.0099 61.54C12.1265 61.4833 12.2649 61.455 12.4249 61.455C12.5849 61.455 12.7215 61.4833 12.8349 61.54C12.9515 61.5933 13.0499 61.6583 13.1299 61.735C13.2199 61.8217 13.2915 61.925 13.3449 62.045C13.3982 62.1617 13.4399 62.2883 13.4699 62.425C13.4999 62.5583 13.5182 62.6967 13.5249 62.84C13.5349 62.9833 13.5399 63.1233 13.5399 63.26ZM13.2849 63.26C13.2849 63.1467 13.2815 63.0267 13.2749 62.9C13.2715 62.7733 13.2599 62.6483 13.2399 62.525C13.2199 62.4017 13.1882 62.285 13.1449 62.175C13.1015 62.065 13.0399 61.9717 12.9599 61.895C12.8965 61.835 12.8215 61.7867 12.7349 61.75C12.6515 61.7133 12.5482 61.695 12.4249 61.695C12.3015 61.695 12.1965 61.7133 12.1099 61.75C12.0265 61.7867 11.9532 61.835 11.8899 61.895C11.8099 61.9717 11.7482 62.065 11.7049 62.175C11.6615 62.285 11.6299 62.4017 11.6099 62.525C11.5899 62.6483 11.5765 62.7733 11.5699 62.9C11.5665 63.0267 11.5649 63.1467 11.5649 63.26C11.5649 63.3733 11.5665 63.4933 11.5699 63.62C11.5765 63.7467 11.5899 63.8717 11.6099 63.995C11.6299 64.1183 11.6615 64.235 11.7049 64.345C11.7482 64.455 11.8099 64.5483 11.8899 64.625C11.9532 64.685 12.0265 64.7333 12.1099 64.77C12.1965 64.8067 12.3015 64.825 12.4249 64.825C12.5482 64.825 12.6515 64.8067 12.7349 64.77C12.8215 64.7333 12.8965 64.685 12.9599 64.625C13.0399 64.5483 13.1015 64.455 13.1449 64.345C13.1882 64.235 13.2199 64.1183 13.2399 63.995C13.2599 63.8717 13.2715 63.7467 13.2749 63.62C13.2815 63.4933 13.2849 63.3733 13.2849 63.26Z" fill="#1F1A17"/>
<path d="M12.375 89.605V89.375H13.79V89.605H12.375ZM16.7181 89.9C16.7181 90.06 16.6931 90.21 16.6431 90.35C16.5964 90.49 16.5264 90.6133 16.4331 90.72C16.3431 90.8267 16.2314 90.9117 16.0981 90.975C15.9648 91.035 15.8131 91.065 15.6431 91.065C15.4498 91.065 15.2831 91.0217 15.1431 90.935C15.0064 90.8483 14.8998 90.75 14.8231 90.64C14.7598 90.55 14.7081 90.4517 14.6681 90.345C14.6281 90.235 14.5964 90.12 14.5731 90C14.5531 89.88 14.5381 89.7567 14.5281 89.63C14.5214 89.5033 14.5181 89.3783 14.5181 89.255C14.5181 89.1217 14.5214 88.9867 14.5281 88.85C14.5381 88.7133 14.5564 88.5817 14.5831 88.455C14.6131 88.325 14.6531 88.2033 14.7031 88.09C14.7531 87.9767 14.8181 87.875 14.8981 87.785C14.9781 87.6983 15.0781 87.6217 15.1981 87.555C15.3181 87.4883 15.4648 87.455 15.6381 87.455C15.7781 87.455 15.9064 87.4767 16.0231 87.52C16.1431 87.5633 16.2464 87.625 16.3331 87.705C16.4198 87.7817 16.4898 87.8767 16.5431 87.99C16.5964 88.1 16.6264 88.2233 16.6331 88.36H16.3731C16.3598 88.16 16.2881 88 16.1581 87.88C16.0314 87.7567 15.8581 87.695 15.6381 87.695C15.5114 87.695 15.4031 87.7183 15.3131 87.765C15.2231 87.8083 15.1481 87.8633 15.0881 87.93C15.0148 88.01 14.9564 88.1067 14.9131 88.22C14.8731 88.33 14.8431 88.4467 14.8231 88.57C14.8031 88.6933 14.7898 88.8183 14.7831 88.945C14.7798 89.0717 14.7781 89.1867 14.7781 89.29C14.8481 89.13 14.9598 89 15.1131 88.9C15.2664 88.7967 15.4414 88.745 15.6381 88.745C15.8081 88.745 15.9598 88.7733 16.0931 88.83C16.2298 88.8867 16.3431 88.9667 16.4331 89.07C16.5264 89.17 16.5964 89.2917 16.6431 89.435C16.6931 89.575 16.7181 89.73 16.7181 89.9ZM16.4631 89.9C16.4631 89.78 16.4464 89.665 16.4131 89.555C16.3831 89.4417 16.3348 89.3433 16.2681 89.26C16.2014 89.1733 16.1164 89.105 16.0131 89.055C15.9098 89.0017 15.7864 88.975 15.6431 88.975C15.5298 88.975 15.4298 88.995 15.3431 89.035C15.2564 89.0717 15.1798 89.1217 15.1131 89.185C14.9364 89.355 14.8481 89.59 14.8481 89.89C14.8481 90.01 14.8648 90.1267 14.8981 90.24C14.9314 90.35 14.9814 90.45 15.0481 90.54C15.1148 90.6267 15.1981 90.6967 15.2981 90.75C15.3981 90.8 15.5148 90.825 15.6481 90.825C15.7914 90.825 15.9131 90.8 16.0131 90.75C16.1164 90.6967 16.2014 90.6283 16.2681 90.545C16.3348 90.4583 16.3831 90.36 16.4131 90.25C16.4464 90.1367 16.4631 90.02 16.4631 89.9ZM19.5399 89.26C19.5399 89.3967 19.5349 89.5367 19.5249 89.68C19.5182 89.8233 19.4999 89.9633 19.4699 90.1C19.4399 90.2333 19.3982 90.36 19.3449 90.48C19.2915 90.5967 19.2199 90.6983 19.1299 90.785C19.0499 90.8617 18.9515 90.9283 18.8349 90.985C18.7215 91.0383 18.5849 91.065 18.4249 91.065C18.2649 91.065 18.1265 91.0383 18.0099 90.985C17.8965 90.9283 17.7999 90.8617 17.7199 90.785C17.6299 90.6983 17.5582 90.5967 17.5049 90.48C17.4515 90.36 17.4099 90.2333 17.3799 90.1C17.3499 89.9633 17.3299 89.8233 17.3199 89.68C17.3132 89.5367 17.3099 89.3967 17.3099 89.26C17.3099 89.1233 17.3132 88.9833 17.3199 88.84C17.3299 88.6967 17.3499 88.5583 17.3799 88.425C17.4099 88.2883 17.4515 88.1617 17.5049 88.045C17.5582 87.925 17.6299 87.8217 17.7199 87.735C17.7999 87.6583 17.8965 87.5933 18.0099 87.54C18.1265 87.4833 18.2649 87.455 18.4249 87.455C18.5849 87.455 18.7215 87.4833 18.8349 87.54C18.9515 87.5933 19.0499 87.6583 19.1299 87.735C19.2199 87.8217 19.2915 87.925 19.3449 88.045C19.3982 88.1617 19.4399 88.2883 19.4699 88.425C19.4999 88.5583 19.5182 88.6967 19.5249 88.84C19.5349 88.9833 19.5399 89.1233 19.5399 89.26ZM19.2849 89.26C19.2849 89.1467 19.2815 89.0267 19.2749 88.9C19.2715 88.7733 19.2599 88.6483 19.2399 88.525C19.2199 88.4017 19.1882 88.285 19.1449 88.175C19.1015 88.065 19.0399 87.9717 18.9599 87.895C18.8965 87.835 18.8215 87.7867 18.7349 87.75C18.6515 87.7133 18.5482 87.695 18.4249 87.695C18.3015 87.695 18.1965 87.7133 18.1099 87.75C18.0265 87.7867 17.9532 87.835 17.8899 87.895C17.8099 87.9717 17.7482 88.065 17.7049 88.175C17.6615 88.285 17.6299 88.4017 17.6099 88.525C17.5899 88.6483 17.5765 88.7733 17.5699 88.9C17.5665 89.0267 17.5649 89.1467 17.5649 89.26C17.5649 89.3733 17.5665 89.4933 17.5699 89.62C17.5765 89.7467 17.5899 89.8717 17.6099 89.995C17.6299 90.1183 17.6615 90.235 17.7049 90.345C17.7482 90.455 17.8099 90.5483 17.8899 90.625C17.9532 90.685 18.0265 90.7333 18.1099 90.77C18.1965 90.8067 18.3015 90.825 18.4249 90.825C18.5482 90.825 18.6515 90.8067 18.7349 90.77C18.8215 90.7333 18.8965 90.685 18.9599 90.625C19.0399 90.5483 19.1015 90.455 19.1449 90.345C19.1882 90.235 19.2199 90.1183 19.2399 89.995C19.2599 89.8717 19.2715 89.7467 19.2749 89.62C19.2815 89.4933 19.2849 89.3733 19.2849 89.26Z" fill="#1F1A17"/>
<path d="M31.375 110.605V110.375H32.79V110.605H31.375ZM35.6031 111.09C35.6031 111.237 35.5748 111.37 35.5181 111.49C35.4614 111.61 35.3831 111.713 35.2831 111.8C35.1864 111.883 35.0731 111.948 34.9431 111.995C34.8131 112.042 34.6748 112.065 34.5281 112.065C34.3614 112.065 34.2131 112.038 34.0831 111.985C33.9531 111.928 33.8414 111.853 33.7481 111.76C33.6581 111.663 33.5881 111.55 33.5381 111.42C33.4914 111.287 33.4664 111.143 33.4631 110.99H33.7181C33.7181 111.103 33.7348 111.21 33.7681 111.31C33.8014 111.41 33.8514 111.498 33.9181 111.575C33.9881 111.652 34.0731 111.713 34.1731 111.76C34.2731 111.803 34.3914 111.825 34.5281 111.825C34.7748 111.825 34.9714 111.76 35.1181 111.63C35.2681 111.497 35.3431 111.317 35.3431 111.09C35.3431 110.83 35.2681 110.635 35.1181 110.505C34.9714 110.375 34.7731 110.31 34.5231 110.31H34.3381V110.07H34.5231C34.7498 110.07 34.9298 110.012 35.0631 109.895C35.1998 109.778 35.2681 109.603 35.2681 109.37C35.2681 109.267 35.2481 109.173 35.2081 109.09C35.1714 109.007 35.1198 108.937 35.0531 108.88C34.9864 108.82 34.9081 108.775 34.8181 108.745C34.7314 108.712 34.6398 108.695 34.5431 108.695C34.3031 108.695 34.1098 108.767 33.9631 108.91C33.8198 109.053 33.7464 109.243 33.7431 109.48H33.4831C33.4864 109.327 33.5148 109.187 33.5681 109.06C33.6214 108.933 33.6948 108.825 33.7881 108.735C33.8848 108.645 33.9964 108.577 34.1231 108.53C34.2531 108.48 34.3931 108.455 34.5431 108.455C34.6764 108.455 34.8031 108.477 34.9231 108.52C35.0431 108.563 35.1481 108.625 35.2381 108.705C35.3281 108.782 35.3981 108.877 35.4481 108.99C35.5014 109.103 35.5281 109.23 35.5281 109.37C35.5281 109.56 35.4814 109.73 35.3881 109.88C35.2948 110.03 35.1531 110.133 34.9631 110.19C35.0664 110.22 35.1564 110.265 35.2331 110.325C35.3131 110.382 35.3798 110.45 35.4331 110.53C35.4898 110.607 35.5314 110.693 35.5581 110.79C35.5881 110.887 35.6031 110.987 35.6031 111.09ZM38.5399 110.26C38.5399 110.397 38.5349 110.537 38.5249 110.68C38.5182 110.823 38.4999 110.963 38.4699 111.1C38.4399 111.233 38.3982 111.36 38.3449 111.48C38.2915 111.597 38.2199 111.698 38.1299 111.785C38.0499 111.862 37.9515 111.928 37.8349 111.985C37.7215 112.038 37.5849 112.065 37.4249 112.065C37.2649 112.065 37.1265 112.038 37.0099 111.985C36.8965 111.928 36.7999 111.862 36.7199 111.785C36.6299 111.698 36.5582 111.597 36.5049 111.48C36.4515 111.36 36.4099 111.233 36.3799 111.1C36.3499 110.963 36.3299 110.823 36.3199 110.68C36.3132 110.537 36.3099 110.397 36.3099 110.26C36.3099 110.123 36.3132 109.983 36.3199 109.84C36.3299 109.697 36.3499 109.558 36.3799 109.425C36.4099 109.288 36.4515 109.162 36.5049 109.045C36.5582 108.925 36.6299 108.822 36.7199 108.735C36.7999 108.658 36.8965 108.593 37.0099 108.54C37.1265 108.483 37.2649 108.455 37.4249 108.455C37.5849 108.455 37.7215 108.483 37.8349 108.54C37.9515 108.593 38.0499 108.658 38.1299 108.735C38.2199 108.822 38.2915 108.925 38.3449 109.045C38.3982 109.162 38.4399 109.288 38.4699 109.425C38.4999 109.558 38.5182 109.697 38.5249 109.84C38.5349 109.983 38.5399 110.123 38.5399 110.26ZM38.2849 110.26C38.2849 110.147 38.2815 110.027 38.2749 109.9C38.2715 109.773 38.2599 109.648 38.2399 109.525C38.2199 109.402 38.1882 109.285 38.1449 109.175C38.1015 109.065 38.0399 108.972 37.9599 108.895C37.8965 108.835 37.8215 108.787 37.7349 108.75C37.6515 108.713 37.5482 108.695 37.4249 108.695C37.3015 108.695 37.1965 108.713 37.1099 108.75C37.0265 108.787 36.9532 108.835 36.8899 108.895C36.8099 108.972 36.7482 109.065 36.7049 109.175C36.6615 109.285 36.6299 109.402 36.6099 109.525C36.5899 109.648 36.5765 109.773 36.5699 109.9C36.5665 110.027 36.5649 110.147 36.5649 110.26C36.5649 110.373 36.5665 110.493 36.5699 110.62C36.5765 110.747 36.5899 110.872 36.6099 110.995C36.6299 111.118 36.6615 111.235 36.7049 111.345C36.7482 111.455 36.8099 111.548 36.8899 111.625C36.9532 111.685 37.0265 111.733 37.1099 111.77C37.1965 111.807 37.3015 111.825 37.4249 111.825C37.5482 111.825 37.6515 111.807 37.7349 111.77C37.8215 111.733 37.8965 111.685 37.9599 111.625C38.0399 111.548 38.1015 111.455 38.1449 111.345C38.1882 111.235 38.2199 111.118 38.2399 110.995C38.2599 110.872 38.2715 110.747 38.2749 110.62C38.2815 110.493 38.2849 110.373 38.2849 110.26Z" fill="#1F1A17"/>
<circle cx="65.5" cy="87.5" r="24" stroke="black"/>
</svg>
