<svg width="130" height="130" viewBox="0 0 130 130" fill="none" xmlns="http://www.w3.org/2000/svg">
<rect width="130" height="130" fill="white"/>
<path d="M130 130H97.5H65H32.5H0V97.5011V65.0022V32.4989V0H32.5H65H97.5H130V32.4989V64.9978V97.4967V130ZM1.09325 128.907H33.0466H65H96.9534H128.907V96.9545V65.0022V33.0455V1.09321H96.9534H65H33.0466H1.09325V33.0455V64.9978V96.9501V128.907Z" fill="#4D4D4D"/>
<path d="M56.1895 63.3316C56.1895 68.7506 60.5805 73.1766 65.9995 73.1766C71.4185 73.1766 75.8435 68.7506 75.8435 63.3316C75.8435 57.9136 71.4185 53.5216 65.9995 53.5216C60.5805 53.5216 56.1895 57.9137 56.1895 63.3316Z" stroke="#050404" stroke-width="0.2" stroke-miterlimit="10" stroke-linecap="round" stroke-linejoin="round"/>
<path d="M46.3446 63.3316C46.3446 74.2046 55.1266 83.0206 65.9986 83.0206C76.8886 83.0206 85.7046 74.2046 85.7046 63.3316C85.7046 52.4416 76.8886 43.6606 65.9986 43.6606C55.1266 43.6607 46.3446 52.4417 46.3446 63.3316Z" stroke="#050404" stroke-width="0.2" stroke-miterlimit="10" stroke-linecap="round" stroke-linejoin="round"/>
<path d="M36.501 63.3316C36.501 79.6237 49.708 92.8646 65.999 92.8646C82.308 92.8646 95.55 79.6236 95.55 63.3316C95.55 47.0226 82.308 33.8156 65.999 33.8156C49.7079 33.8156 36.501 47.0227 36.501 63.3316Z" stroke="#050404" stroke-width="0.2" stroke-miterlimit="10" stroke-linecap="round" stroke-linejoin="round"/>
<path d="M26.6563 63.3316C26.6563 85.0767 44.2363 102.71 65.9993 102.71C87.7603 102.71 105.393 85.0767 105.393 63.3316C105.393 41.5696 87.7603 23.9716 65.9993 23.9716C44.2362 23.9716 26.6563 41.5697 26.6563 63.3316Z" stroke="#050404" stroke-width="0.2" stroke-miterlimit="10" stroke-linecap="round" stroke-linejoin="round"/>
<path d="M16.8115 63.3316C16.8115 90.5126 38.8185 112.554 65.9995 112.554C93.1795 112.554 115.238 90.5126 115.238 63.3316C115.238 36.1506 93.1795 14.1266 65.9995 14.1266C38.8185 14.1267 16.8115 36.1507 16.8115 63.3316Z" stroke="#050404" stroke-width="0.2" stroke-miterlimit="10" stroke-linecap="round" stroke-linejoin="round"/>
<path d="M66.0342 73.211V112.606" stroke="#050404" stroke-width="0.2" stroke-miterlimit="10" stroke-linecap="round" stroke-linejoin="round"/>
<path d="M66.8511 115.721V116.203C66.8511 116.489 66.7682 116.763 66.6024 117.024C66.438 117.286 66.2022 117.417 65.8949 117.417C65.7176 117.417 65.5676 117.378 65.4446 117.301C65.3232 117.222 65.2074 117.079 65.0973 116.87C64.9887 116.66 64.9344 116.438 64.9344 116.203V115.721C64.9344 115.437 65.0166 115.164 65.1809 114.902C65.3453 114.639 65.5811 114.507 65.8884 114.507C66.0642 114.507 66.2129 114.546 66.3344 114.623C66.4573 114.7 66.5738 114.844 66.6838 115.054C66.7953 115.263 66.8511 115.485 66.8511 115.721ZM66.4094 115.721C66.4094 115.482 66.343 115.274 66.21 115.095C66.1343 114.996 66.0278 114.947 65.8906 114.947C65.7577 114.947 65.649 115.001 65.5647 115.11C65.4375 115.274 65.3739 115.478 65.3739 115.721V116.203C65.3739 116.443 65.4411 116.652 65.5754 116.829C65.6497 116.928 65.7562 116.977 65.8949 116.977C66.0264 116.977 66.1343 116.923 66.2186 116.814C66.3458 116.65 66.4094 116.446 66.4094 116.203V115.721Z" fill="#050404"/>
<path d="M67.7412 73.0544L74.5892 111.857" stroke="#050404" stroke-width="0.2" stroke-miterlimit="10" stroke-linecap="round" stroke-linejoin="round"/>
<path d="M69.3965 72.6189L82.8995 109.609" stroke="#050404" stroke-width="0.2" stroke-miterlimit="10" stroke-linecap="round" stroke-linejoin="round"/>
<path d="M70.9472 71.8869L90.6342 106.003" stroke="#050404" stroke-width="0.2" stroke-miterlimit="10" stroke-linecap="round" stroke-linejoin="round"/>
<path d="M93.3459 109.058C93.4759 109.146 93.5731 109.249 93.6374 109.366C93.7018 109.482 93.7339 109.612 93.7339 109.757C93.7339 109.912 93.691 110.057 93.6053 110.19C93.521 110.321 93.398 110.421 93.2365 110.49C93.075 110.557 92.8635 110.591 92.6019 110.591C92.2617 110.591 92.0059 110.538 91.8344 110.432C91.7386 110.372 91.6907 110.3 91.6907 110.218C91.6907 110.155 91.7115 110.102 91.7529 110.059C91.7958 110.015 91.8472 109.992 91.9073 109.992C91.9487 109.992 91.9916 110.007 92.0359 110.035C92.0988 110.078 92.1581 110.107 92.2139 110.121C92.2996 110.141 92.4175 110.151 92.5676 110.151C92.8235 110.151 93.0086 110.118 93.1229 110.052C93.2372 109.985 93.2944 109.891 93.2944 109.769C93.2944 109.679 93.2608 109.593 93.1936 109.51C93.1279 109.426 93.0393 109.361 92.9278 109.315C92.8635 109.289 92.7549 109.271 92.6019 109.261C92.529 109.257 92.4726 109.235 92.4325 109.195C92.394 109.153 92.3747 109.103 92.3747 109.043C92.3747 108.98 92.3961 108.927 92.439 108.884C92.4819 108.841 92.5362 108.82 92.6019 108.82C92.7477 108.82 92.8256 108.819 92.8356 108.818C92.8928 108.812 92.9499 108.793 93.0071 108.762C93.0643 108.73 93.11 108.688 93.1443 108.633C93.1801 108.577 93.1979 108.52 93.1979 108.462C93.1979 108.369 93.1565 108.289 93.0736 108.222C92.9921 108.153 92.8692 108.119 92.7048 108.119C92.4933 108.119 92.3318 108.18 92.2203 108.303C92.1874 108.339 92.161 108.362 92.141 108.372C92.111 108.387 92.0774 108.395 92.0402 108.395C91.9802 108.395 91.9287 108.374 91.8858 108.331C91.843 108.288 91.8215 108.235 91.8215 108.172C91.8215 108.074 91.8873 107.978 92.0188 107.885C92.2103 107.749 92.4497 107.681 92.737 107.681C93.0086 107.681 93.2265 107.758 93.3909 107.913C93.5553 108.067 93.6374 108.253 93.6374 108.47C93.6374 108.583 93.6131 108.689 93.5645 108.788C93.516 108.885 93.4431 108.975 93.3459 109.058Z" fill="#050404"/>
<path d="M96.5982 108.895V109.377C96.5982 109.663 96.5153 109.937 96.3495 110.198C96.1851 110.46 95.9493 110.591 95.642 110.591C95.4647 110.591 95.3147 110.552 95.1917 110.475C95.0703 110.396 94.9545 110.253 94.8444 110.044C94.7358 109.834 94.6815 109.612 94.6815 109.377V108.895C94.6815 108.61 94.7637 108.337 94.928 108.076C95.0924 107.813 95.3282 107.681 95.6355 107.681C95.8113 107.681 95.96 107.72 96.0815 107.797C96.2044 107.874 96.3209 108.018 96.4309 108.228C96.5424 108.437 96.5982 108.659 96.5982 108.895ZM96.1565 108.895C96.1565 108.656 96.0901 108.447 95.9571 108.269C95.8814 108.17 95.7749 108.121 95.6377 108.121C95.5048 108.121 95.3961 108.175 95.3118 108.284C95.1846 108.448 95.121 108.652 95.121 108.895V109.377C95.121 109.617 95.1882 109.826 95.3225 110.003C95.3969 110.102 95.5033 110.151 95.642 110.151C95.7735 110.151 95.8814 110.097 95.9657 109.988C96.0929 109.824 96.1565 109.62 96.1565 109.377V108.895Z" fill="#050404"/>
<path d="M72.376 70.9284L97.6749 101.089" stroke="#050404" stroke-width="0.2" stroke-miterlimit="10" stroke-linecap="round" stroke-linejoin="round"/>
<path d="M73.5957 69.7091L103.774 95.0081" stroke="#050404" stroke-width="0.2" stroke-miterlimit="10" stroke-linecap="round" stroke-linejoin="round"/>
<path d="M74.5537 68.2976L108.67 88.0036" stroke="#050404" stroke-width="0.2" stroke-miterlimit="10" stroke-linecap="round" stroke-linejoin="round"/>
<path d="M110.843 90.4865C110.949 90.3979 111.05 90.3336 111.146 90.2936C111.241 90.2521 111.344 90.2314 111.452 90.2314C111.682 90.2314 111.884 90.3229 112.057 90.5058C112.23 90.6888 112.316 90.9182 112.316 91.194C112.316 91.4499 112.235 91.6571 112.074 91.8158C111.914 91.973 111.696 92.0516 111.42 92.0516C111.19 92.0516 111 91.998 110.852 91.8908C110.703 91.7836 110.591 91.6185 110.515 91.3956C110.439 91.1726 110.402 90.9239 110.402 90.6495C110.402 90.3207 110.477 90.0477 110.627 89.8305C110.777 89.6118 110.953 89.4424 111.156 89.3224C111.359 89.2023 111.574 89.1423 111.799 89.1423C111.978 89.1423 112.117 89.1773 112.215 89.2473C112.28 89.2945 112.312 89.3545 112.312 89.4274C112.312 89.4918 112.29 89.5461 112.248 89.5904C112.205 89.6333 112.153 89.6547 112.093 89.6547C112.059 89.6547 112.01 89.6375 111.945 89.6032C111.907 89.5832 111.869 89.5732 111.834 89.5732C111.694 89.5732 111.549 89.6132 111.399 89.6933C111.248 89.7719 111.118 89.8934 111.008 90.0578C110.933 90.1721 110.878 90.315 110.843 90.4865ZM110.908 91.1662C110.953 91.3377 111.015 91.4549 111.092 91.5178C111.171 91.5807 111.282 91.6121 111.426 91.6121C111.571 91.6121 111.682 91.5742 111.759 91.4985C111.837 91.4227 111.877 91.3198 111.877 91.1898C111.877 91.0411 111.832 90.9175 111.742 90.8189C111.653 90.7202 111.553 90.6709 111.441 90.6709C111.353 90.6709 111.258 90.7145 111.156 90.8017C111.056 90.8889 110.973 91.0104 110.908 91.1662Z" fill="#050404"/>
<path d="M115.135 90.3558V90.8382C115.135 91.124 115.052 91.3977 114.887 91.6593C114.722 91.9208 114.486 92.0516 114.179 92.0516C114.002 92.0516 113.852 92.013 113.729 91.9359C113.607 91.8572 113.492 91.7136 113.382 91.5049C113.273 91.2948 113.219 91.0726 113.219 90.8382V90.3558C113.219 90.0713 113.301 89.7983 113.465 89.5368C113.63 89.2738 113.865 89.1423 114.173 89.1423C114.348 89.1423 114.497 89.1809 114.619 89.2581C114.741 89.3352 114.858 89.4789 114.968 89.689C115.08 89.8977 115.135 90.1199 115.135 90.3558ZM114.694 90.3558C114.694 90.1171 114.627 89.9084 114.494 89.7297C114.418 89.6311 114.312 89.5818 114.175 89.5818C114.042 89.5818 113.933 89.6361 113.849 89.7447C113.722 89.9091 113.658 90.1128 113.658 90.3558V90.8382C113.658 91.0783 113.725 91.2869 113.86 91.4642C113.934 91.5628 114.04 91.6121 114.179 91.6121C114.311 91.6121 114.418 91.5578 114.503 91.4492C114.63 91.2848 114.694 91.0811 114.694 90.8382V90.3558Z" fill="#050404"/>
<path d="M75.3027 66.7121L112.294 80.2151" stroke="#050404" stroke-width="0.2" stroke-miterlimit="10" stroke-linecap="round" stroke-linejoin="round"/>
<path d="M75.7383 65.0567L114.541 71.9218" stroke="#050404" stroke-width="0.2" stroke-miterlimit="10" stroke-linecap="round" stroke-linejoin="round"/>
<path d="M75.8955 63.3669H115.273" stroke="#050404" stroke-width="0.2" stroke-miterlimit="10" stroke-linecap="round" stroke-linejoin="round"/>
<path d="M118.707 62.0486C118.597 62.143 118.497 62.2102 118.405 62.2502C118.314 62.2888 118.217 62.3081 118.116 62.3081C117.88 62.3081 117.673 62.2137 117.496 62.0251C117.32 61.8364 117.232 61.602 117.232 61.3218C117.232 61.1032 117.293 60.9045 117.415 60.7258C117.58 60.48 117.814 60.3571 118.116 60.3571C118.332 60.3571 118.52 60.4221 118.682 60.5522C118.843 60.6808 118.962 60.8673 119.038 61.1117C119.113 61.3547 119.151 61.6084 119.151 61.8728C119.151 62.3216 118.978 62.6818 118.63 62.9534C118.362 63.1621 118.067 63.2664 117.747 63.2664C117.57 63.2664 117.433 63.2307 117.335 63.1592C117.27 63.112 117.237 63.0499 117.237 62.9727C117.237 62.9098 117.257 62.8576 117.299 62.8162C117.342 62.7733 117.394 62.7519 117.455 62.7519C117.49 62.7519 117.528 62.7626 117.571 62.784C117.627 62.8126 117.686 62.8269 117.747 62.8269C117.969 62.8269 118.173 62.7519 118.36 62.6018C118.547 62.4503 118.663 62.2659 118.707 62.0486ZM118.645 61.3562C118.598 61.1532 118.528 61.0095 118.435 60.9252C118.344 60.8395 118.239 60.7966 118.12 60.7966C117.996 60.7966 117.89 60.8445 117.803 60.9402C117.716 61.0346 117.672 61.1603 117.672 61.3176C117.672 61.4819 117.716 61.6149 117.803 61.7163C117.891 61.8178 117.992 61.8686 118.105 61.8686C118.304 61.8686 118.484 61.6978 118.645 61.3562Z" fill="#050404"/>
<path d="M121.968 61.5705V62.0529C121.968 62.3388 121.885 62.6125 121.72 62.8741C121.555 63.1356 121.319 63.2664 121.012 63.2664C120.835 63.2664 120.685 63.2278 120.562 63.1506C120.44 63.072 120.325 62.9284 120.215 62.7197C120.106 62.5096 120.052 62.2873 120.052 62.0529V61.5705C120.052 61.2861 120.134 61.0131 120.298 60.7516C120.463 60.4886 120.698 60.3571 121.006 60.3571C121.181 60.3571 121.33 60.3957 121.452 60.4728C121.575 60.55 121.691 60.6937 121.801 60.9038C121.913 61.1125 121.968 61.3347 121.968 61.5705ZM121.527 61.5705C121.527 61.3319 121.46 61.1232 121.327 60.9445C121.251 60.8459 121.145 60.7966 121.008 60.7966C120.875 60.7966 120.766 60.8509 120.682 60.9595C120.555 61.1239 120.491 61.3276 120.491 61.5705V62.0529C120.491 62.2931 120.558 62.5017 120.693 62.679C120.767 62.7776 120.873 62.8269 121.012 62.8269C121.144 62.8269 121.251 62.7726 121.336 62.664C121.463 62.4996 121.527 62.2959 121.527 62.0529V61.5705Z" fill="#050404"/>
<path d="M75.7383 61.6593L114.541 54.8114" stroke="#050404" stroke-width="0.2" stroke-miterlimit="10" stroke-linecap="round" stroke-linejoin="round"/>
<path d="M75.3027 60.0041L112.294 46.5011" stroke="#050404" stroke-width="0.2" stroke-miterlimit="10" stroke-linecap="round" stroke-linejoin="round"/>
<path d="M74.5537 58.4533L108.67 38.7643" stroke="#050404" stroke-width="0.2" stroke-miterlimit="10" stroke-linecap="round" stroke-linejoin="round"/>
<path d="M111.48 33.5241V35.9296H111.924C112.03 35.9296 112.105 35.9503 112.149 35.9918C112.195 36.0318 112.218 36.0847 112.218 36.1504C112.218 36.2147 112.195 36.2676 112.149 36.3091C112.105 36.3491 112.03 36.3691 111.924 36.3691H110.597C110.491 36.3691 110.415 36.3491 110.369 36.3091C110.325 36.2676 110.303 36.214 110.303 36.1483C110.303 36.084 110.325 36.0318 110.369 35.9918C110.415 35.9503 110.491 35.9296 110.597 35.9296H111.04V34.0965L110.648 34.1994C110.585 34.2166 110.538 34.2252 110.507 34.2252C110.451 34.2252 110.402 34.203 110.361 34.1587C110.321 34.1144 110.301 34.0601 110.301 33.9958C110.301 33.9372 110.316 33.8914 110.346 33.8586C110.376 33.8242 110.439 33.7942 110.535 33.7685L111.48 33.5241Z" fill="#050404"/>
<path d="M113.76 35.9296H114.723C114.776 35.8867 114.826 35.8653 114.873 35.8653C114.94 35.8653 114.993 35.8874 115.032 35.9317C115.072 35.9761 115.092 36.0518 115.092 36.159V36.3691H113.089V35.9039C113.881 35.2507 114.359 34.8305 114.524 34.6432C114.607 34.5475 114.648 34.4567 114.648 34.371C114.648 34.2638 114.601 34.1694 114.506 34.088C114.414 34.0051 114.289 33.9636 114.133 33.9636C113.976 33.9636 113.845 34.0093 113.741 34.1008C113.687 34.1494 113.643 34.2216 113.61 34.3174C113.59 34.3774 113.562 34.4203 113.527 34.446C113.492 34.4717 113.45 34.4846 113.398 34.4846C113.338 34.4846 113.286 34.4631 113.242 34.4203C113.199 34.3774 113.177 34.3274 113.177 34.2702C113.177 34.1844 113.217 34.0772 113.295 33.9486C113.375 33.82 113.491 33.717 113.642 33.6399C113.795 33.5627 113.961 33.5241 114.14 33.5241C114.417 33.5241 114.644 33.6084 114.822 33.7771C114.999 33.9443 115.087 34.1473 115.087 34.386C115.087 34.5075 115.062 34.6204 115.01 34.7247C114.96 34.8276 114.839 34.9705 114.646 35.1535C114.494 35.2979 114.199 35.5566 113.76 35.9296Z" fill="#050404"/>
<path d="M118.055 34.7376V35.22C118.055 35.5058 117.972 35.7795 117.806 36.0411C117.642 36.3026 117.406 36.4334 117.099 36.4334C116.922 36.4334 116.772 36.3948 116.649 36.3177C116.527 36.239 116.411 36.0954 116.301 35.8867C116.193 35.6766 116.138 35.4544 116.138 35.22V34.7376C116.138 34.4531 116.221 34.1801 116.385 33.9186C116.549 33.6556 116.785 33.5241 117.093 33.5241C117.268 33.5241 117.417 33.5627 117.538 33.6399C117.661 33.717 117.778 33.8607 117.888 34.0708C117.999 34.2795 118.055 34.5017 118.055 34.7376ZM117.614 34.7376C117.614 34.4989 117.547 34.2902 117.414 34.1115C117.338 34.0129 117.232 33.9636 117.095 33.9636C116.962 33.9636 116.853 34.0179 116.769 34.1265C116.642 34.2909 116.578 34.4946 116.578 34.7376V35.22C116.578 35.4601 116.645 35.6688 116.78 35.846C116.854 35.9446 116.96 35.9939 117.099 35.9939C117.23 35.9939 117.338 35.9396 117.423 35.831C117.55 35.6666 117.614 35.4629 117.614 35.22V34.7376Z" fill="#050404"/>
<path d="M73.5957 57.0246L103.774 31.7256" stroke="#050404" stroke-width="0.2" stroke-miterlimit="10" stroke-linecap="round" stroke-linejoin="round"/>
<path d="M72.376 55.8048L97.6749 25.6269" stroke="#050404" stroke-width="0.2" stroke-miterlimit="10" stroke-linecap="round" stroke-linejoin="round"/>
<path d="M70.9824 54.8463L90.6694 20.7313" stroke="#050404" stroke-width="0.2" stroke-miterlimit="10" stroke-linecap="round" stroke-linejoin="round"/>
<path d="M92.9428 14.9821V17.3876H93.3866C93.4924 17.3876 93.5674 17.4083 93.6117 17.4498C93.6575 17.4898 93.6803 17.5427 93.6803 17.6084C93.6803 17.6727 93.6575 17.7256 93.6117 17.7671C93.5674 17.8071 93.4924 17.8271 93.3866 17.8271H92.0595C91.9537 17.8271 91.878 17.8071 91.8322 17.7671C91.7879 17.7256 91.7658 17.672 91.7658 17.6063C91.7658 17.5419 91.7879 17.4898 91.8322 17.4498C91.878 17.4083 91.9537 17.3876 92.0595 17.3876H92.5033V15.5545L92.111 15.6574C92.0481 15.6746 92.0009 15.6831 91.9695 15.6831C91.9137 15.6831 91.8651 15.661 91.8237 15.6167C91.7836 15.5724 91.7636 15.5181 91.7636 15.4537C91.7636 15.3951 91.7786 15.3494 91.8087 15.3165C91.8387 15.2822 91.9016 15.2522 91.9973 15.2265L92.9428 14.9821Z" fill="#050404"/>
<path d="M95.264 15.4923V16.0155C95.427 15.964 95.5749 15.9383 95.7078 15.9383C95.978 15.9383 96.2024 16.0305 96.381 16.2148C96.5597 16.3992 96.649 16.6372 96.649 16.9288C96.649 17.2289 96.5583 17.4648 96.3767 17.6363C96.1966 17.8064 95.9201 17.8914 95.547 17.8914C95.2183 17.8914 94.9582 17.8292 94.7666 17.7049C94.6551 17.6334 94.5994 17.5512 94.5994 17.4583C94.5994 17.3997 94.6208 17.349 94.6637 17.3061C94.708 17.2618 94.7602 17.2396 94.8202 17.2396C94.8703 17.2396 94.9246 17.2639 94.9832 17.3125C95.0418 17.3597 95.1032 17.3926 95.1676 17.4112C95.259 17.4383 95.3762 17.4519 95.5192 17.4519C95.785 17.4519 95.9665 17.4097 96.0637 17.3254C96.1609 17.2396 96.2095 17.1089 96.2095 16.9331C96.2095 16.7601 96.1623 16.6243 96.068 16.5257C95.9751 16.4271 95.855 16.3778 95.7078 16.3778C95.5492 16.3778 95.3684 16.4292 95.1654 16.5321C95.1197 16.5564 95.0797 16.5686 95.0453 16.5686C94.9825 16.5686 94.9296 16.5457 94.8867 16.5C94.8452 16.4542 94.8245 16.3949 94.8245 16.322V15.0528H96.1688C96.2745 15.0528 96.3496 15.0735 96.3939 15.115C96.4396 15.155 96.4625 15.2079 96.4625 15.2736C96.4625 15.338 96.4396 15.3909 96.3939 15.4323C96.3496 15.4723 96.2745 15.4923 96.1688 15.4923H95.264Z" fill="#050404"/>
<path d="M99.5181 16.1955V16.6779C99.5181 16.9638 99.4352 17.2375 99.2694 17.4991C99.105 17.7606 98.8692 17.8914 98.5619 17.8914C98.3846 17.8914 98.2346 17.8528 98.1117 17.7756C97.9902 17.697 97.8744 17.5534 97.7643 17.3447C97.6557 17.1346 97.6014 16.9123 97.6014 16.6779V16.1955C97.6014 15.9111 97.6836 15.6381 97.8479 15.3766C98.0123 15.1136 98.2482 14.9821 98.5554 14.9821C98.7313 14.9821 98.8799 15.0207 99.0014 15.0978C99.1243 15.175 99.2408 15.3187 99.3509 15.5288C99.4623 15.7375 99.5181 15.9597 99.5181 16.1955ZM99.0764 16.1955C99.0764 15.9569 99.01 15.7482 98.877 15.5695C98.8013 15.4709 98.6948 15.4216 98.5576 15.4216C98.4247 15.4216 98.316 15.4759 98.2317 15.5845C98.1045 15.7489 98.0409 15.9526 98.0409 16.1955V16.6779C98.0409 16.9181 98.1081 17.1267 98.2424 17.304C98.3168 17.4026 98.4232 17.4519 98.5619 17.4519C98.6934 17.4519 98.8013 17.3976 98.8856 17.289C99.0128 17.1246 99.0764 16.9209 99.0764 16.6779V16.1955Z" fill="#050404"/>
<path d="M69.3965 54.0974L82.8995 17.1064" stroke="#050404" stroke-width="0.2" stroke-miterlimit="10" stroke-linecap="round" stroke-linejoin="round"/>
<path d="M67.7412 53.6618L74.5892 14.8588" stroke="#050404" stroke-width="0.2" stroke-miterlimit="10" stroke-linecap="round" stroke-linejoin="round"/>
<path d="M66.0342 53.5221V14.1272" stroke="#050404" stroke-width="0.2" stroke-miterlimit="10" stroke-linecap="round" stroke-linejoin="round"/>
<path d="M60.4648 9.95375H58.6296V9.55284H60.4648V9.95375Z" fill="#050404"/>
<path d="M63.3522 8.27719L61.9436 11.313C61.9079 11.3888 61.8757 11.4381 61.8471 11.4609C61.81 11.491 61.7649 11.506 61.7121 11.506C61.652 11.506 61.5999 11.4845 61.5556 11.4417C61.5127 11.3988 61.4912 11.3502 61.4912 11.2959C61.4912 11.2573 61.5084 11.2008 61.5427 11.1265L62.9555 8.09281C62.9913 8.01706 63.0227 7.96775 63.0499 7.94488C63.0885 7.91486 63.1335 7.89986 63.1849 7.89986C63.245 7.89986 63.2964 7.92129 63.3393 7.96417C63.3822 8.00562 63.4036 8.0535 63.4036 8.10782C63.4036 8.14641 63.3865 8.20287 63.3522 8.27719Z" fill="#050404"/>
<path d="M65.5772 9.97091V10.7063C65.5772 10.812 65.5572 10.8878 65.5172 10.9335C65.4772 10.9778 65.4243 11 65.3585 11C65.2928 11 65.2392 10.9778 65.1977 10.9335C65.1577 10.8878 65.1377 10.812 65.1377 10.7063V9.97091H64.5095C64.4037 9.97091 64.328 9.9509 64.2823 9.91088C64.238 9.86943 64.2158 9.81583 64.2158 9.75008C64.2158 9.68433 64.238 9.63145 64.2823 9.59143C64.328 9.54998 64.4037 9.52997 64.5095 9.5314H65.1377V8.79817C65.1377 8.69383 65.1577 8.61879 65.1977 8.57305C65.2392 8.52732 65.2928 8.50445 65.3585 8.50445C65.4243 8.50445 65.4772 8.52732 65.5172 8.57305C65.5586 8.61736 65.5793 8.6924 65.5793 8.79817L65.5772 9.5314H66.2054C66.3111 9.5314 66.3862 9.55141 66.4305 9.59143C66.4762 9.63145 66.4991 9.68433 66.4991 9.75008C66.4991 9.81583 66.4762 9.86943 66.4305 9.91088C66.3862 9.9509 66.3111 9.97091 66.2054 9.97091H65.5772Z" fill="#050404"/>
<path d="M68.5014 8.15498V10.5605H68.9452C69.051 10.5605 69.126 10.5812 69.1703 10.6227C69.216 10.6627 69.2389 10.7156 69.2389 10.7813C69.2389 10.8456 69.216 10.8985 69.1703 10.94C69.126 10.98 69.051 11 68.9452 11H67.6181C67.5123 11 67.4366 10.98 67.3908 10.94C67.3465 10.8985 67.3244 10.8449 67.3244 10.7792C67.3244 10.7149 67.3465 10.6627 67.3908 10.6227C67.4366 10.5812 67.5123 10.5605 67.6181 10.5605H68.0619V8.72742L67.6695 8.83033C67.6067 8.84748 67.5595 8.85605 67.528 8.85605C67.4723 8.85605 67.4237 8.8339 67.3823 8.78959C67.3422 8.74528 67.3222 8.69097 67.3222 8.62665C67.3222 8.56805 67.3372 8.52231 67.3672 8.48944C67.3973 8.45514 67.4602 8.42512 67.5559 8.39939L68.5014 8.15498Z" fill="#050404"/>
<path d="M71.829 9.59572C71.9419 9.6829 72.0262 9.78224 72.082 9.89372C72.1391 10.0038 72.1677 10.1253 72.1677 10.2582C72.1677 10.4054 72.1313 10.5412 72.0584 10.6655C71.9869 10.7885 71.874 10.8857 71.7196 10.9571C71.5653 11.0286 71.3938 11.0643 71.2051 11.0643C71.0164 11.0643 70.8463 11.0286 70.6948 10.9571C70.5433 10.8857 70.4311 10.7877 70.3582 10.6634C70.2868 10.5391 70.251 10.404 70.251 10.2582C70.251 10.1253 70.2789 10.0038 70.3346 9.89372C70.3918 9.78224 70.4769 9.6829 70.5898 9.59572C70.4912 9.50424 70.4168 9.40705 70.3668 9.30414C70.3168 9.20123 70.2918 9.0926 70.2918 8.97826C70.2918 8.75386 70.3775 8.5609 70.549 8.39939C70.7206 8.23645 70.9407 8.15498 71.2094 8.15498C71.4781 8.15498 71.6982 8.23645 71.8697 8.39939C72.0412 8.5609 72.127 8.75386 72.127 8.97826C72.127 9.09403 72.102 9.20337 72.0519 9.30628C72.0033 9.40919 71.929 9.50567 71.829 9.59572ZM71.6768 8.98684C71.6768 8.87821 71.6339 8.78602 71.5481 8.71027C71.4638 8.63308 71.3494 8.59449 71.2051 8.59449C71.0593 8.59449 70.9435 8.63308 70.8578 8.71027C70.7734 8.78602 70.7313 8.87821 70.7313 8.98684C70.7313 9.09689 70.7734 9.19051 70.8578 9.26769C70.9435 9.34344 71.0593 9.38132 71.2051 9.38132C71.3494 9.38132 71.4638 9.34344 71.5481 9.26769C71.6339 9.19051 71.6768 9.09689 71.6768 8.98684ZM71.7282 10.2796C71.7282 10.1639 71.6782 10.0595 71.5781 9.96662C71.4795 9.87228 71.3566 9.82512 71.2094 9.82512C71.0622 9.82512 70.9385 9.87228 70.8385 9.96662C70.7398 10.0595 70.6905 10.1653 70.6905 10.2839C70.6905 10.3754 70.7334 10.4554 70.8192 10.524C70.9049 10.5912 71.035 10.6248 71.2094 10.6248C71.3852 10.6248 71.5152 10.5912 71.5996 10.524C71.6853 10.4554 71.7282 10.374 71.7282 10.2796Z" fill="#050404"/>
<path d="M75.1031 9.36846V9.85085C75.1031 10.1367 75.0202 10.4104 74.8544 10.672C74.69 10.9335 74.4542 11.0643 74.1469 11.0643C73.9696 11.0643 73.8196 11.0257 73.6966 10.9485C73.5752 10.8699 73.4594 10.7263 73.3493 10.5176C73.2407 10.3075 73.1864 10.0853 73.1864 9.85085V9.36846C73.1864 9.08403 73.2686 8.81103 73.4329 8.54947C73.5973 8.28648 73.8331 8.15498 74.1404 8.15498C74.3162 8.15498 74.4649 8.19358 74.5864 8.27076C74.7093 8.34794 74.8258 8.49158 74.9358 8.70169C75.0473 8.91037 75.1031 9.13262 75.1031 9.36846ZM74.6614 9.36846C74.6614 9.12977 74.595 8.92109 74.462 8.74243C74.3863 8.6438 74.2798 8.59449 74.1426 8.59449C74.0097 8.59449 73.901 8.64881 73.8167 8.75743C73.6895 8.9218 73.6259 9.12548 73.6259 9.36846V9.85085C73.6259 10.091 73.6931 10.2996 73.8274 10.4769C73.9017 10.5755 74.0082 10.6248 74.1469 10.6248C74.2784 10.6248 74.3863 10.5705 74.4706 10.4619C74.5978 10.2975 74.6614 10.0938 74.6614 9.85085V9.36846Z" fill="#050404"/>
<path d="M64.3438 53.6618L57.4787 14.8588" stroke="#050404" stroke-width="0.2" stroke-miterlimit="10" stroke-linecap="round" stroke-linejoin="round"/>
<path d="M62.6885 54.0974L49.1844 17.1064" stroke="#050404" stroke-width="0.2" stroke-miterlimit="10" stroke-linecap="round" stroke-linejoin="round"/>
<path d="M61.1376 54.8463L41.4496 20.7313" stroke="#050404" stroke-width="0.2" stroke-miterlimit="10" stroke-linecap="round" stroke-linejoin="round"/>
<path d="M32.166 16.7808H30.3308V16.3799H32.166V16.7808Z" fill="#050404"/>
<path d="M34.3803 14.9821V17.3876H34.8241C34.9299 17.3876 35.0049 17.4083 35.0492 17.4498C35.095 17.4898 35.1178 17.5427 35.1178 17.6084C35.1178 17.6727 35.095 17.7256 35.0492 17.7671C35.0049 17.8071 34.9299 17.8271 34.8241 17.8271H33.497C33.3912 17.8271 33.3155 17.8071 33.2697 17.7671C33.2254 17.7256 33.2033 17.672 33.2033 17.6063C33.2033 17.5419 33.2254 17.4898 33.2697 17.4498C33.3155 17.4083 33.3912 17.3876 33.497 17.3876H33.9408V15.5545L33.5485 15.6574C33.4856 15.6746 33.4384 15.6831 33.407 15.6831C33.3512 15.6831 33.3026 15.661 33.2612 15.6167C33.2211 15.5724 33.2011 15.5181 33.2011 15.4537C33.2011 15.3951 33.2161 15.3494 33.2462 15.3165C33.2762 15.2822 33.3391 15.2522 33.4348 15.2265L34.3803 14.9821Z" fill="#050404"/>
<path d="M36.7064 15.4923V16.0155C36.8694 15.964 37.0173 15.9383 37.1502 15.9383C37.4204 15.9383 37.6448 16.0305 37.8234 16.2148C38.0021 16.3992 38.0914 16.6372 38.0914 16.9288C38.0914 17.2289 38.0007 17.4648 37.8191 17.6363C37.639 17.8064 37.3625 17.8914 36.9894 17.8914C36.6607 17.8914 36.4006 17.8292 36.209 17.7049C36.0975 17.6334 36.0418 17.5512 36.0418 17.4583C36.0418 17.3997 36.0632 17.349 36.1061 17.3061C36.1504 17.2618 36.2026 17.2396 36.2626 17.2396C36.3127 17.2396 36.367 17.2639 36.4256 17.3125C36.4842 17.3597 36.5456 17.3926 36.61 17.4112C36.7014 17.4383 36.8186 17.4519 36.9616 17.4519C37.2274 17.4519 37.4089 17.4097 37.5061 17.3254C37.6033 17.2396 37.6519 17.1089 37.6519 16.9331C37.6519 16.7601 37.6047 16.6243 37.5104 16.5257C37.4175 16.4271 37.2974 16.3778 37.1502 16.3778C36.9916 16.3778 36.8108 16.4292 36.6078 16.5321C36.5621 16.5564 36.522 16.5686 36.4877 16.5686C36.4249 16.5686 36.372 16.5457 36.3291 16.5C36.2876 16.4542 36.2669 16.3949 36.2669 16.322V15.0528H37.6112C37.7169 15.0528 37.792 15.0735 37.8363 15.115C37.882 15.155 37.9049 15.2079 37.9049 15.2736C37.9049 15.338 37.882 15.3909 37.8363 15.4323C37.792 15.4723 37.7169 15.4923 37.6112 15.4923H36.7064Z" fill="#050404"/>
<path d="M40.9644 16.1955V16.6779C40.9644 16.9638 40.8815 17.2375 40.7157 17.4991C40.5513 17.7606 40.3155 17.8914 40.0082 17.8914C39.8309 17.8914 39.6809 17.8528 39.5579 17.7756C39.4365 17.697 39.3207 17.5534 39.2106 17.3447C39.102 17.1346 39.0477 16.9123 39.0477 16.6779V16.1955C39.0477 15.9111 39.1299 15.6381 39.2942 15.3766C39.4586 15.1136 39.6944 14.9821 40.0017 14.9821C40.1775 14.9821 40.3262 15.0207 40.4477 15.0978C40.5706 15.175 40.6871 15.3187 40.7971 15.5288C40.9086 15.7375 40.9644 15.9597 40.9644 16.1955ZM40.5227 16.1955C40.5227 15.9569 40.4563 15.7482 40.3233 15.5695C40.2476 15.4709 40.1411 15.4216 40.0039 15.4216C39.871 15.4216 39.7623 15.4759 39.678 15.5845C39.5508 15.7489 39.4872 15.9526 39.4872 16.1955V16.6779C39.4872 16.9181 39.5544 17.1267 39.6887 17.304C39.763 17.4026 39.8695 17.4519 40.0082 17.4519C40.1397 17.4519 40.2476 17.3976 40.3319 17.289C40.4591 17.1246 40.5227 16.9209 40.5227 16.6779V16.1955Z" fill="#050404"/>
<path d="M59.6914 55.8048L34.3923 25.6269" stroke="#050404" stroke-width="0.2" stroke-miterlimit="10" stroke-linecap="round" stroke-linejoin="round"/>
<path d="M58.4717 57.0246L28.3117 31.7256" stroke="#050404" stroke-width="0.2" stroke-miterlimit="10" stroke-linecap="round" stroke-linejoin="round"/>
<path d="M57.5137 58.4182L23.3976 38.7302" stroke="#050404" stroke-width="0.2" stroke-miterlimit="10" stroke-linecap="round" stroke-linejoin="round"/>
<path d="M13.6328 35.3229H11.7976V34.9219H13.6328V35.3229Z" fill="#050404"/>
<path d="M15.8471 33.5241V35.9296H16.2909C16.3967 35.9296 16.4717 35.9503 16.516 35.9918C16.5617 36.0318 16.5846 36.0847 16.5846 36.1504C16.5846 36.2147 16.5617 36.2676 16.516 36.3091C16.4717 36.3491 16.3967 36.3691 16.2909 36.3691H14.9638C14.858 36.3691 14.7823 36.3491 14.7365 36.3091C14.6922 36.2676 14.6701 36.214 14.6701 36.1483C14.6701 36.084 14.6922 36.0318 14.7365 35.9918C14.7823 35.9503 14.858 35.9296 14.9638 35.9296H15.4076V34.0965L15.0152 34.1994C14.9524 34.2166 14.9052 34.2252 14.8737 34.2252C14.818 34.2252 14.7694 34.203 14.728 34.1587C14.6879 34.1144 14.6679 34.0601 14.6679 33.9958C14.6679 33.9372 14.6829 33.8914 14.713 33.8586C14.743 33.8242 14.8059 33.7942 14.9016 33.7685L15.8471 33.5241Z" fill="#050404"/>
<path d="M18.1325 35.9296H19.0951C19.148 35.8867 19.198 35.8653 19.2452 35.8653C19.3124 35.8653 19.3653 35.8874 19.4038 35.9317C19.4439 35.9761 19.4639 36.0518 19.4639 36.159V36.3691H17.4614V35.9039C18.2533 35.2507 18.7314 34.8305 18.8957 34.6432C18.9786 34.5475 19.0201 34.4567 19.0201 34.371C19.0201 34.2638 18.9729 34.1694 18.8786 34.088C18.7857 34.0051 18.6613 33.9636 18.5055 33.9636C18.3483 33.9636 18.2175 34.0093 18.1132 34.1008C18.0589 34.1494 18.0153 34.2216 17.9824 34.3174C17.9624 34.3774 17.9345 34.4203 17.8988 34.446C17.8645 34.4717 17.8216 34.4846 17.7702 34.4846C17.7101 34.4846 17.658 34.4631 17.6137 34.4203C17.5708 34.3774 17.5493 34.3274 17.5493 34.2702C17.5493 34.1844 17.5886 34.0772 17.6673 33.9486C17.7473 33.82 17.8631 33.717 18.0146 33.6399C18.1675 33.5627 18.3333 33.5241 18.512 33.5241C18.7893 33.5241 19.0165 33.6084 19.1937 33.7771C19.371 33.9443 19.4596 34.1473 19.4596 34.386C19.4596 34.5075 19.4339 34.6204 19.3824 34.7247C19.3324 34.8276 19.2109 34.9705 19.0179 35.1535C18.8664 35.2979 18.5713 35.5566 18.1325 35.9296Z" fill="#050404"/>
<path d="M22.4312 34.7376V35.22C22.4312 35.5058 22.3483 35.7795 22.1825 36.0411C22.0181 36.3026 21.7823 36.4334 21.475 36.4334C21.2977 36.4334 21.1477 36.3948 21.0247 36.3177C20.9032 36.239 20.7875 36.0954 20.6774 35.8867C20.5688 35.6766 20.5145 35.4544 20.5145 35.22V34.7376C20.5145 34.4531 20.5967 34.1801 20.761 33.9186C20.9254 33.6556 21.1612 33.5241 21.4685 33.5241C21.6443 33.5241 21.793 33.5627 21.9145 33.6399C22.0374 33.717 22.1539 33.8607 22.2639 34.0708C22.3754 34.2795 22.4312 34.5017 22.4312 34.7376ZM21.9895 34.7376C21.9895 34.4989 21.9231 34.2902 21.7901 34.1115C21.7144 34.0129 21.6079 33.9636 21.4707 33.9636C21.3378 33.9636 21.2291 34.0179 21.1448 34.1265C21.0176 34.2909 20.954 34.4946 20.954 34.7376V35.22C20.954 35.4601 21.0212 35.6688 21.1555 35.846C21.2298 35.9446 21.3363 35.9939 21.475 35.9939C21.6065 35.9939 21.7144 35.9396 21.7987 35.831C21.9259 35.6666 21.9895 35.4629 21.9895 35.22V34.7376Z" fill="#050404"/>
<path d="M56.7821 60.0041L19.7911 46.5011" stroke="#050404" stroke-width="0.2" stroke-miterlimit="10" stroke-linecap="round" stroke-linejoin="round"/>
<path d="M56.3457 61.6593L17.5437 54.8114" stroke="#050404" stroke-width="0.2" stroke-miterlimit="10" stroke-linecap="round" stroke-linejoin="round"/>
<path d="M56.1895 63.3669H16.8114" stroke="#050404" stroke-width="0.2" stroke-miterlimit="10" stroke-linecap="round" stroke-linejoin="round"/>
<path d="M9.23828 62.1558H7.40306V61.7549H9.23828V62.1558Z" fill="#050404"/>
<path d="M11.851 62.0486C11.7409 62.143 11.6402 62.2102 11.5487 62.2502C11.4572 62.2888 11.3607 62.3081 11.2593 62.3081C11.0234 62.3081 10.8169 62.2137 10.6397 62.0251C10.4639 61.8364 10.376 61.602 10.376 61.3218C10.376 61.1032 10.4367 60.9045 10.5582 60.7258C10.724 60.48 10.9577 60.3571 11.2593 60.3571C11.4751 60.3571 11.6638 60.4221 11.8253 60.5522C11.9868 60.6808 12.1054 60.8673 12.1812 61.1117C12.2569 61.3547 12.2948 61.6084 12.2948 61.8728C12.2948 62.3216 12.1211 62.6818 11.7738 62.9534C11.5051 63.1621 11.2107 63.2664 10.8905 63.2664C10.7133 63.2664 10.5761 63.2307 10.4789 63.1592C10.4131 63.112 10.3802 63.0499 10.3802 62.9727C10.3802 62.9098 10.401 62.8576 10.4424 62.8162C10.4853 62.7733 10.5375 62.7519 10.5989 62.7519C10.6332 62.7519 10.6718 62.7626 10.7147 62.784C10.7704 62.8126 10.829 62.8269 10.8905 62.8269C11.112 62.8269 11.3164 62.7519 11.5037 62.6018C11.6909 62.4503 11.8067 62.2659 11.851 62.0486ZM11.7888 61.3562C11.7416 61.1532 11.6716 61.0095 11.5787 60.9252C11.4872 60.8395 11.3822 60.7966 11.2636 60.7966C11.1392 60.7966 11.0334 60.8445 10.9462 60.9402C10.8591 61.0346 10.8155 61.1603 10.8155 61.3176C10.8155 61.4819 10.8591 61.6149 10.9462 61.7163C11.0349 61.8178 11.1356 61.8686 11.2485 61.8686C11.4472 61.8686 11.6273 61.6978 11.7888 61.3562Z" fill="#050404"/>
<path d="M15.1167 61.5705V62.0529C15.1167 62.3388 15.0338 62.6125 14.868 62.8741C14.7036 63.1356 14.4678 63.2664 14.1605 63.2664C13.9832 63.2664 13.8332 63.2278 13.7102 63.1506C13.5887 63.072 13.473 62.9284 13.3629 62.7197C13.2543 62.5096 13.2 62.2873 13.2 62.0529V61.5705C13.2 61.2861 13.2822 61.0131 13.4465 60.7516C13.6109 60.4886 13.8467 60.3571 14.154 60.3571C14.3298 60.3571 14.4785 60.3957 14.6 60.4728C14.7229 60.55 14.8394 60.6937 14.9494 60.9038C15.0609 61.1125 15.1167 61.3347 15.1167 61.5705ZM14.675 61.5705C14.675 61.3319 14.6086 61.1232 14.4756 60.9445C14.3999 60.8459 14.2934 60.7966 14.1562 60.7966C14.0233 60.7966 13.9146 60.8509 13.8303 60.9595C13.7031 61.1239 13.6395 61.3276 13.6395 61.5705V62.0529C13.6395 62.2931 13.7067 62.5017 13.841 62.679C13.9153 62.7776 14.0218 62.8269 14.1605 62.8269C14.292 62.8269 14.3999 62.7726 14.4842 62.664C14.6114 62.4996 14.675 62.2959 14.675 62.0529V61.5705Z" fill="#050404"/>
<path d="M56.3457 65.0567L17.5437 71.9218" stroke="#050404" stroke-width="0.2" stroke-miterlimit="10" stroke-linecap="round" stroke-linejoin="round"/>
<path d="M56.7821 66.7121L19.7911 80.2151" stroke="#050404" stroke-width="0.2" stroke-miterlimit="10" stroke-linecap="round" stroke-linejoin="round"/>
<path d="M57.5137 68.2628L23.3976 87.9689" stroke="#050404" stroke-width="0.2" stroke-miterlimit="10" stroke-linecap="round" stroke-linejoin="round"/>
<path d="M16.0723 90.9411H14.2371V90.5401H16.0723V90.9411Z" fill="#050404"/>
<path d="M17.6537 90.4865C17.7595 90.3979 17.8603 90.3336 17.956 90.2936C18.0518 90.2521 18.154 90.2314 18.2626 90.2314C18.4927 90.2314 18.6943 90.3229 18.8672 90.5058C19.0402 90.6888 19.1266 90.9182 19.1266 91.194C19.1266 91.4499 19.0459 91.6571 18.8844 91.8158C18.7243 91.973 18.5063 92.0516 18.2305 92.0516C18.0003 92.0516 17.811 91.998 17.6623 91.8908C17.5137 91.7836 17.4015 91.6185 17.3257 91.3956C17.25 91.1726 17.2121 90.9239 17.2121 90.6495C17.2121 90.3207 17.2871 90.0477 17.4372 89.8305C17.5873 89.6118 17.7638 89.4424 17.9668 89.3224C18.1697 89.2023 18.3841 89.1423 18.6099 89.1423C18.7886 89.1423 18.9272 89.1773 19.0259 89.2473C19.0902 89.2945 19.1223 89.3545 19.1223 89.4274C19.1223 89.4918 19.1009 89.5461 19.058 89.5904C19.0151 89.6333 18.9637 89.6547 18.9037 89.6547C18.8694 89.6547 18.82 89.6375 18.7557 89.6032C18.7171 89.5832 18.68 89.5732 18.6442 89.5732C18.5042 89.5732 18.3591 89.6132 18.209 89.6933C18.0589 89.7719 17.9289 89.8934 17.8188 90.0578C17.7431 90.1721 17.688 90.315 17.6537 90.4865ZM17.7181 91.1662C17.7638 91.3377 17.8253 91.4549 17.9024 91.5178C17.981 91.5807 18.0925 91.6121 18.2369 91.6121C18.3812 91.6121 18.492 91.5742 18.5692 91.4985C18.6478 91.4227 18.6871 91.3198 18.6871 91.1898C18.6871 91.0411 18.6421 90.9175 18.5521 90.8189C18.4634 90.7202 18.3634 90.6709 18.2519 90.6709C18.1633 90.6709 18.0682 90.7145 17.9668 90.8017C17.8667 90.8889 17.7838 91.0104 17.7181 91.1662Z" fill="#050404"/>
<path d="M21.9507 90.3558V90.8382C21.9507 91.124 21.8678 91.3977 21.702 91.6593C21.5376 91.9208 21.3018 92.0516 20.9945 92.0516C20.8172 92.0516 20.6672 92.013 20.5442 91.9359C20.4227 91.8572 20.307 91.7136 20.1969 91.5049C20.0883 91.2948 20.034 91.0726 20.034 90.8382V90.3558C20.034 90.0713 20.1162 89.7983 20.2805 89.5368C20.4449 89.2738 20.6807 89.1423 20.988 89.1423C21.1638 89.1423 21.3125 89.1809 21.434 89.2581C21.5569 89.3352 21.6734 89.4789 21.7834 89.689C21.8949 89.8977 21.9507 90.1199 21.9507 90.3558ZM21.509 90.3558C21.509 90.1171 21.4426 89.9084 21.3096 89.7297C21.2339 89.6311 21.1274 89.5818 20.9902 89.5818C20.8573 89.5818 20.7486 89.6361 20.6643 89.7447C20.5371 89.9091 20.4735 90.1128 20.4735 90.3558V90.8382C20.4735 91.0783 20.5407 91.2869 20.675 91.4642C20.7493 91.5628 20.8558 91.6121 20.9945 91.6121C21.126 91.6121 21.2339 91.5578 21.3182 91.4492C21.4454 91.2848 21.509 91.0811 21.509 90.8382V90.3558Z" fill="#050404"/>
<path d="M58.4717 69.7091L28.3117 95.0081" stroke="#050404" stroke-width="0.2" stroke-miterlimit="10" stroke-linecap="round" stroke-linejoin="round"/>
<path d="M59.6914 70.9284L34.3923 101.089" stroke="#050404" stroke-width="0.2" stroke-miterlimit="10" stroke-linecap="round" stroke-linejoin="round"/>
<path d="M61.1026 71.8869L41.3965 106.003" stroke="#050404" stroke-width="0.2" stroke-miterlimit="10" stroke-linecap="round" stroke-linejoin="round"/>
<path d="M35.1006 109.48H33.2654V109.079H35.1006V109.48Z" fill="#050404"/>
<path d="M37.7219 109.058C37.8519 109.146 37.9491 109.249 38.0134 109.366C38.0778 109.482 38.1099 109.612 38.1099 109.757C38.1099 109.912 38.067 110.057 37.9813 110.19C37.8969 110.321 37.774 110.421 37.6125 110.49C37.451 110.557 37.2395 110.591 36.9779 110.591C36.6377 110.591 36.3819 110.538 36.2104 110.432C36.1146 110.372 36.0667 110.3 36.0667 110.218C36.0667 110.155 36.0875 110.102 36.1289 110.059C36.1718 110.015 36.2232 109.992 36.2833 109.992C36.3247 109.992 36.3676 110.007 36.4119 110.035C36.4748 110.078 36.5341 110.107 36.5899 110.121C36.6756 110.141 36.7935 110.151 36.9436 110.151C37.1994 110.151 37.3845 110.118 37.4989 110.052C37.6132 109.985 37.6704 109.891 37.6704 109.769C37.6704 109.679 37.6368 109.593 37.5696 109.51C37.5039 109.426 37.4153 109.361 37.3038 109.315C37.2395 109.289 37.1308 109.271 36.9779 109.261C36.905 109.257 36.8486 109.235 36.8085 109.195C36.7699 109.153 36.7506 109.103 36.7506 109.043C36.7506 108.98 36.7721 108.927 36.815 108.884C36.8578 108.841 36.9122 108.82 36.9779 108.82C37.1237 108.82 37.2016 108.819 37.2116 108.818C37.2688 108.812 37.3259 108.793 37.3831 108.762C37.4403 108.73 37.486 108.688 37.5203 108.633C37.5561 108.577 37.5739 108.52 37.5739 108.462C37.5739 108.369 37.5325 108.289 37.4496 108.222C37.3681 108.153 37.2452 108.119 37.0808 108.119C36.8693 108.119 36.7078 108.18 36.5963 108.303C36.5634 108.339 36.537 108.362 36.517 108.372C36.4869 108.387 36.4534 108.395 36.4162 108.395C36.3562 108.395 36.3047 108.374 36.2618 108.331C36.219 108.288 36.1975 108.235 36.1975 108.172C36.1975 108.074 36.2633 107.978 36.3948 107.885C36.5863 107.749 36.8257 107.681 37.113 107.681C37.3845 107.681 37.6025 107.758 37.7669 107.913C37.9312 108.067 38.0134 108.253 38.0134 108.47C38.0134 108.583 37.9891 108.689 37.9405 108.788C37.8919 108.885 37.819 108.975 37.7219 109.058Z" fill="#050404"/>
<path d="M40.979 108.895V109.377C40.979 109.663 40.8961 109.937 40.7303 110.198C40.5659 110.46 40.3301 110.591 40.0228 110.591C39.8455 110.591 39.6955 110.552 39.5725 110.475C39.4511 110.396 39.3353 110.253 39.2252 110.044C39.1166 109.834 39.0623 109.612 39.0623 109.377V108.895C39.0623 108.61 39.1445 108.337 39.3088 108.076C39.4732 107.813 39.709 107.681 40.0163 107.681C40.1921 107.681 40.3408 107.72 40.4623 107.797C40.5852 107.874 40.7017 108.018 40.8117 108.228C40.9232 108.437 40.979 108.659 40.979 108.895ZM40.5373 108.895C40.5373 108.656 40.4709 108.447 40.3379 108.269C40.2622 108.17 40.1557 108.121 40.0185 108.121C39.8856 108.121 39.7769 108.175 39.6926 108.284C39.5654 108.448 39.5018 108.652 39.5018 108.895V109.377C39.5018 109.617 39.569 109.826 39.7033 110.003C39.7776 110.102 39.8841 110.151 40.0228 110.151C40.1543 110.151 40.2622 110.097 40.3465 109.988C40.4737 109.824 40.5373 109.62 40.5373 109.377V108.895Z" fill="#050404"/>
<path d="M62.6885 72.6189L49.1844 109.609" stroke="#050404" stroke-width="0.2" stroke-miterlimit="10" stroke-linecap="round" stroke-linejoin="round"/>
<path d="M64.3438 73.0544L57.4787 111.857" stroke="#050404" stroke-width="0.2" stroke-miterlimit="10" stroke-linecap="round" stroke-linejoin="round"/>
<path d="M56.1895 63.3669H75.8955" stroke="#050404" stroke-width="0.2" stroke-miterlimit="10" stroke-linecap="round" stroke-linejoin="round"/>
<path d="M66.0342 53.5221V73.2111" stroke="#050404" stroke-width="0.2" stroke-miterlimit="10" stroke-linecap="round" stroke-linejoin="round"/>
<path d="M60.2138 63.3669L59.8138 63.4359L59.3958 63.5759L58.9598 63.7329L58.4718 63.8719L57.9668 64.0639L57.4088 64.2559L56.8168 64.4649L56.2248 64.7259L55.6318 64.9869L55.0048 65.2839L54.3768 65.6149L53.7678 65.9459L53.0878 66.3459L52.4258 66.7639L51.7638 67.1649L51.1368 67.6359L50.5088 68.0889L49.8818 68.5939L49.2548 69.1169L48.6618 69.6739L48.0868 70.2139L47.5288 70.8069L47.0068 71.4339L46.5018 72.0609L45.9798 72.6879L45.4908 73.3499L45.0558 74.0649L44.6548 74.7269L44.2358 75.4589L43.8708 76.1559L43.5048 76.9049L43.1738 77.6369L42.8778 78.4039L42.6158 79.1529L42.3548 79.9189L42.1458 80.7379L41.9538 81.5049L41.8148 82.3239L41.6578 83.0909L41.5538 83.9089L41.4838 84.7109L41.4488 85.5299L41.3968 86.3309L41.4488 87.1499L41.4838 87.9169L41.5188 88.7359L41.6228 89.5539L41.7278 90.3559L41.8848 91.1399L42.0758 91.9419L42.2848 92.7259L42.5118 93.4569L42.7738 94.2239L43.0678 95.0079L43.4008 95.7399L43.7318 96.4369L44.0978 97.1859L44.4628 97.8829L44.9158 98.5449L45.3518 99.2069L45.7868 99.8689L46.3108 100.497L46.7798 101.124L47.3378 101.717L47.8958 102.309L48.4528 102.867L49.0458 103.407L49.6728 103.929L50.2998 104.417L50.9618 104.888L51.6238 105.341L52.2858 105.742L52.9838 106.107L53.6808 106.508L54.3768 106.839L55.1268 107.17L55.8588 107.466L56.6428 107.727L57.3738 107.954L58.1408 108.18L58.9248 108.355L59.6918 108.547L60.5108 108.686L61.2768 108.808L62.0618 108.912L62.8618 108.982L63.6818 109.052L64.4478 109.139H65.2668L66.0338 109.174H66.8178L67.6188 109.139L68.4028 109.052L69.2048 108.982L70.0238 108.912L70.7898 108.808L71.5738 108.651L72.3758 108.512L73.1598 108.32L73.8918 108.094L74.6758 107.885L75.4428 107.588L76.1748 107.292L76.8888 106.996L77.6198 106.63L78.3178 106.246L79.0148 105.846L79.6928 105.445L80.3568 104.957L81.0188 104.487L81.6458 103.999L82.2368 103.459L82.8128 102.936L83.4048 102.344L83.9278 101.786L84.4848 101.159L84.9558 100.532L85.4428 99.8689L85.9138 99.2419L86.3668 98.5449L86.7678 97.8479L87.1338 97.1509L87.4998 96.4019L87.8308 95.6699L88.1268 94.9389L88.3888 94.1549L88.6498 93.3879L88.8758 92.6038L89.0848 91.8029L89.2418 91.0179L89.3818 90.2169L89.5038 89.3979L89.5728 88.5959L89.6428 87.8119V86.9579V86.1569L89.6088 85.3379L89.5378 84.5359L89.4508 83.7179L89.3118 82.9159L89.1728 82.0969L88.9808 81.2789L88.7538 80.4769L88.5448 79.6929L88.2838 78.9259L87.9868 78.1589L87.6558 77.3749L87.3248 76.6439L86.9068 75.8939L86.5068 75.1629L86.1058 74.4659L85.6518 73.7689L85.1828 73.1069L84.6588 72.4269L84.1538 71.7999L83.5968 71.1899L83.0388 70.5629L82.4468 70.0049L81.8548 69.4129L81.2278 68.8899L80.5998 68.3849L79.9728 67.8619L79.3108 67.4269L78.6838 66.9729L78.0218 66.5729L77.3598 66.1719L76.7318 65.8409L76.1048 65.5099L75.4778 65.1609L74.8848 64.9169L74.2928 64.6559L73.7518 64.4289L73.2298 64.2559L72.7598 64.0639L72.2718 63.8719L71.8358 63.7669L71.4698 63.6279L71.0868 63.5059L70.7898 63.4359L70.4938 63.3669" stroke="#140B0A" stroke-width="1.429" stroke-miterlimit="10" stroke-linecap="round" stroke-linejoin="round"/>
<path d="M66.0342 63.3669L45.4912 73.4379" stroke="#140B0A" stroke-width="1.429" stroke-miterlimit="10" stroke-linecap="round" stroke-linejoin="round"/>
<path d="M66.0342 63.3669L86.0711 74.4309" stroke="#140B0A" stroke-width="1.429" stroke-miterlimit="10" stroke-linecap="round" stroke-linejoin="round"/>
<path d="M79.3597 118.919V119.442C79.5227 119.391 79.6706 119.365 79.8035 119.365C80.0737 119.365 80.2981 119.457 80.4767 119.642C80.6554 119.826 80.7447 120.064 80.7447 120.356C80.7447 120.656 80.6539 120.892 80.4724 121.063C80.2923 121.233 80.0158 121.318 79.6427 121.318C79.314 121.318 79.0538 121.256 78.8623 121.132C78.7508 121.06 78.6951 120.978 78.6951 120.885C78.6951 120.827 78.7165 120.776 78.7594 120.733C78.8037 120.689 78.8559 120.666 78.9159 120.666C78.9659 120.666 79.0203 120.691 79.0789 120.739C79.1375 120.787 79.1989 120.819 79.2632 120.838C79.3547 120.865 79.4719 120.879 79.6148 120.879C79.8807 120.879 80.0622 120.837 80.1594 120.752C80.2566 120.666 80.3052 120.536 80.3052 120.36C80.3052 120.187 80.258 120.051 80.1637 119.953C80.0708 119.854 79.9507 119.805 79.8035 119.805C79.6449 119.805 79.4641 119.856 79.2611 119.959C79.2154 119.983 79.1753 119.995 79.141 119.995C79.0781 119.995 79.0253 119.973 78.9824 119.927C78.9409 119.881 78.9202 119.822 78.9202 119.749V118.48H80.2645C80.3702 118.48 80.4453 118.5 80.4896 118.542C80.5353 118.582 80.5582 118.635 80.5582 118.7C80.5582 118.765 80.5353 118.818 80.4896 118.859C80.4453 118.899 80.3702 118.919 80.2645 118.919H79.3597Z" fill="#050404"/>
<path d="M76.3952 120.814H77.3578C77.4107 120.772 77.4607 120.75 77.5079 120.75C77.5751 120.75 77.628 120.772 77.6665 120.817C77.7066 120.861 77.7266 120.937 77.7266 121.044V121.254H75.7241V120.789C76.516 120.135 76.9941 119.715 77.1584 119.528C77.2413 119.432 77.2828 119.342 77.2828 119.256C77.2828 119.149 77.2356 119.054 77.1413 118.973C77.0484 118.89 76.924 118.848 76.7682 118.848C76.611 118.848 76.4802 118.894 76.3759 118.986C76.3216 119.034 76.278 119.106 76.2451 119.202C76.2251 119.262 76.1972 119.305 76.1615 119.331C76.1272 119.357 76.0843 119.369 76.0329 119.369C75.9728 119.369 75.9207 119.348 75.8764 119.305C75.8335 119.262 75.812 119.212 75.812 119.155C75.812 119.069 75.8513 118.962 75.9299 118.833C76.01 118.705 76.1258 118.602 76.2773 118.525C76.4302 118.447 76.596 118.409 76.7747 118.409C77.0519 118.409 77.2792 118.493 77.4564 118.662C77.6337 118.829 77.7223 119.032 77.7223 119.271C77.7223 119.392 77.6966 119.505 77.6451 119.61C77.5951 119.712 77.4736 119.855 77.2806 120.038C77.1291 120.183 76.834 120.441 76.3952 120.814Z" fill="#050404"/>
<path d="M74.105 118.409V120.814H74.5488C74.6546 120.814 74.7296 120.835 74.7739 120.877C74.8197 120.917 74.8425 120.969 74.8425 121.035C74.8425 121.1 74.8197 121.152 74.7739 121.194C74.7296 121.234 74.6546 121.254 74.5488 121.254H73.2217C73.1159 121.254 73.0402 121.234 72.9944 121.194C72.9501 121.152 72.928 121.099 72.928 121.033C72.928 120.969 72.9501 120.917 72.9944 120.877C73.0402 120.835 73.1159 120.814 73.2217 120.814H73.6655V118.981L73.2732 119.084C73.2103 119.101 73.1631 119.11 73.1317 119.11C73.0759 119.11 73.0273 119.088 72.9859 119.043C72.9458 118.999 72.9258 118.945 72.9258 118.881C72.9258 118.822 72.9408 118.776 72.9709 118.743C73.0009 118.709 73.0638 118.679 73.1595 118.653L74.105 118.409Z" fill="#050404"/>
<path d="M71.5774 119.601C71.5774 119.684 71.5481 119.753 71.4895 119.809C71.4309 119.865 71.3501 119.893 71.2472 119.893C71.1443 119.893 71.0636 119.865 71.005 119.809C70.9464 119.753 70.9171 119.684 70.9171 119.601C70.9171 119.518 70.9464 119.449 71.005 119.393C71.0636 119.337 71.1443 119.309 71.2472 119.309C71.3501 119.309 71.4309 119.337 71.4895 119.393C71.5481 119.449 71.5774 119.518 71.5774 119.601ZM71.5817 121.04C71.5817 121.122 71.5524 121.192 71.4938 121.247C71.4352 121.303 71.3544 121.331 71.2515 121.331C71.1486 121.331 71.0678 121.303 71.0092 121.247C70.9506 121.192 70.9213 121.122 70.9213 121.04C70.9213 120.957 70.9506 120.887 71.0092 120.832C71.0678 120.776 71.1486 120.748 71.2515 120.748C71.3544 120.748 71.4352 120.776 71.4938 120.832C71.5524 120.887 71.5817 120.957 71.5817 121.04Z" fill="#050404"/>
<path d="M89.4248 120.45V121.04C89.2261 121.147 89.0568 121.22 88.9167 121.258C88.778 121.298 88.628 121.318 88.4665 121.318C88.2421 121.318 88.0341 121.285 87.8426 121.217C87.6925 121.166 87.5739 121.101 87.4867 121.022C87.4009 120.944 87.3216 120.828 87.2487 120.675C87.1758 120.521 87.1394 120.348 87.1394 120.158V119.841C87.1394 119.548 87.2287 119.286 87.4073 119.056C87.6475 118.745 87.9741 118.589 88.3871 118.589C88.5072 118.589 88.6208 118.601 88.728 118.625C88.8366 118.65 88.9396 118.686 89.0367 118.735C89.0953 118.682 89.1525 118.655 89.2083 118.655C89.2726 118.655 89.3248 118.678 89.3648 118.722C89.4048 118.766 89.4248 118.841 89.4248 118.947V119.232C89.4248 119.338 89.4041 119.414 89.3626 119.459C89.3226 119.504 89.2704 119.526 89.2061 119.526C89.1547 119.526 89.1104 119.51 89.0732 119.479C89.0446 119.457 89.0203 119.41 89.0003 119.337C88.9817 119.263 88.9603 119.213 88.936 119.187C88.8974 119.146 88.8288 119.109 88.7302 119.078C88.633 119.045 88.5236 119.028 88.4021 119.028C88.2278 119.028 88.0763 119.064 87.9476 119.136C87.8561 119.189 87.7718 119.281 87.6946 119.412C87.6175 119.544 87.5789 119.687 87.5789 119.841V120.158C87.5789 120.394 87.6468 120.574 87.7825 120.696C87.9198 120.818 88.137 120.879 88.4343 120.879C88.6358 120.879 88.8195 120.841 88.9853 120.765V120.45H88.5372C88.4314 120.45 88.3557 120.43 88.31 120.39C88.2656 120.348 88.2435 120.295 88.2435 120.229C88.2435 120.163 88.2656 120.11 88.31 120.07C88.3557 120.029 88.4314 120.008 88.5372 120.008L89.3176 120.01C89.4234 120.01 89.4984 120.03 89.5427 120.07C89.5885 120.11 89.6113 120.163 89.6113 120.229C89.6113 120.281 89.5956 120.326 89.5642 120.364C89.5341 120.403 89.4877 120.431 89.4248 120.45Z" fill="#050404"/>
<path d="M84.9424 120.169V120.814H86.0636V120.576C86.0636 120.471 86.0836 120.396 86.1237 120.351C86.1651 120.306 86.2187 120.283 86.2845 120.283C86.3488 120.283 86.401 120.306 86.441 120.351C86.4824 120.396 86.5031 120.471 86.5031 120.576V121.254H84.4342C84.3285 121.254 84.2527 121.234 84.207 121.194C84.1627 121.152 84.1405 121.099 84.1405 121.033C84.1405 120.969 84.1634 120.917 84.2091 120.877C84.2549 120.835 84.3299 120.814 84.4342 120.814H84.5028V119.095H84.4342C84.3285 119.095 84.2527 119.075 84.207 119.035C84.1627 118.993 84.1405 118.94 84.1405 118.874C84.1405 118.808 84.1627 118.755 84.207 118.715C84.2527 118.674 84.3285 118.653 84.4342 118.653L86.4067 118.655V119.324C86.4067 119.429 86.3867 119.504 86.3466 119.549C86.3066 119.594 86.2537 119.616 86.188 119.616C86.1222 119.616 86.0686 119.594 86.0272 119.549C85.9872 119.505 85.9672 119.43 85.9672 119.324V119.095H84.9424V119.73H85.3283C85.3283 119.615 85.339 119.542 85.3604 119.509C85.4047 119.439 85.4676 119.404 85.5491 119.404C85.6134 119.404 85.6656 119.427 85.7056 119.472C85.7471 119.517 85.7678 119.592 85.7678 119.697V120.203C85.7678 120.299 85.7563 120.363 85.7335 120.396C85.6877 120.464 85.6263 120.497 85.5491 120.497C85.4676 120.497 85.4047 120.462 85.3604 120.392C85.339 120.359 85.3283 120.285 85.3283 120.169H84.9424Z" fill="#050404"/>
<path d="M81.4868 120.814V119.095C81.3938 119.094 81.3252 119.073 81.2809 119.033C81.2366 118.991 81.2145 118.938 81.2145 118.874C81.2145 118.808 81.2366 118.755 81.2809 118.715C81.3267 118.674 81.4024 118.653 81.5082 118.653L82.4279 118.655C82.5709 118.655 82.7102 118.682 82.846 118.735C82.9832 118.788 83.0933 118.855 83.1762 118.936C83.2391 118.998 83.3041 119.082 83.3713 119.189C83.4399 119.296 83.4913 119.403 83.5256 119.509C83.5599 119.615 83.5771 119.744 83.5771 119.897V120.107C83.5771 120.293 83.5457 120.458 83.4828 120.602C83.4199 120.745 83.337 120.862 83.2341 120.954C83.1326 121.044 83.0368 121.11 82.9468 121.153C82.8039 121.22 82.6188 121.254 82.3915 121.254H81.5082C81.4024 121.254 81.3267 121.234 81.2809 121.194C81.2366 121.152 81.2145 121.099 81.2145 121.033C81.2145 120.969 81.2366 120.916 81.2809 120.874C81.3267 120.833 81.3953 120.813 81.4868 120.814ZM81.9263 120.814H82.3936C82.568 120.814 82.6995 120.789 82.7881 120.739C82.9039 120.674 82.9911 120.59 83.0497 120.489C83.1083 120.387 83.1376 120.256 83.1376 120.094V119.886C83.1376 119.747 83.1111 119.626 83.0583 119.522C82.9754 119.359 82.8817 119.247 82.7774 119.187C82.6745 119.126 82.5451 119.095 82.3894 119.095H81.9263V120.814Z" fill="#050404"/>
<path d="M71.551 119.601C71.551 119.684 71.5217 119.753 71.4631 119.809C71.4045 119.865 71.3237 119.893 71.2208 119.893C71.1179 119.893 71.0372 119.865 70.9786 119.809C70.92 119.753 70.8907 119.684 70.8907 119.601C70.8907 119.518 70.92 119.449 70.9786 119.393C71.0372 119.337 71.1179 119.309 71.2208 119.309C71.3237 119.309 71.4045 119.337 71.4631 119.393C71.5217 119.449 71.551 119.518 71.551 119.601ZM71.5553 121.04C71.5553 121.122 71.526 121.192 71.4674 121.247C71.4088 121.303 71.328 121.331 71.2251 121.331C71.1222 121.331 71.0414 121.303 70.9828 121.247C70.9242 121.192 70.8949 121.122 70.8949 121.04C70.8949 120.957 70.9242 120.887 70.9828 120.832C71.0414 120.776 71.1222 120.748 71.2251 120.748C71.328 120.748 71.4088 120.776 71.4674 120.832C71.526 120.887 71.5553 120.957 71.5553 121.04Z" fill="#050404"/>
<path d="M67.8447 120.169V120.814H68.9659V120.576C68.9659 120.471 68.9859 120.396 69.026 120.351C69.0674 120.306 69.121 120.283 69.1868 120.283C69.2511 120.283 69.3033 120.306 69.3433 120.351C69.3847 120.396 69.4054 120.471 69.4054 120.576V121.254H67.3365C67.2308 121.254 67.155 121.234 67.1093 121.194C67.065 121.152 67.0428 121.099 67.0428 121.033C67.0428 120.969 67.0657 120.917 67.1114 120.877C67.1572 120.835 67.2322 120.814 67.3365 120.814H67.4051V119.095H67.3365C67.2308 119.095 67.155 119.075 67.1093 119.035C67.065 118.993 67.0428 118.94 67.0428 118.874C67.0428 118.808 67.065 118.755 67.1093 118.715C67.155 118.674 67.2308 118.653 67.3365 118.653L69.309 118.655V119.324C69.309 119.429 69.289 119.504 69.2489 119.549C69.2089 119.594 69.156 119.616 69.0903 119.616C69.0245 119.616 68.9709 119.594 68.9295 119.549C68.8895 119.505 68.8695 119.43 68.8695 119.324V119.095H67.8447V119.73H68.2306C68.2306 119.615 68.2413 119.542 68.2627 119.509C68.307 119.439 68.3699 119.404 68.4514 119.404C68.5157 119.404 68.5679 119.427 68.6079 119.472C68.6493 119.517 68.6701 119.592 68.6701 119.697V120.203C68.6701 120.299 68.6586 120.363 68.6358 120.396C68.59 120.464 68.5286 120.497 68.4514 120.497C68.3699 120.497 68.307 120.462 68.2627 120.392C68.2413 120.359 68.2306 120.285 68.2306 120.169H67.8447Z" fill="#050404"/>
<path d="M65.1878 119.095V120.814H66.1355V120.398C66.1355 120.293 66.1555 120.218 66.1955 120.173C66.2369 120.128 66.2905 120.105 66.3563 120.105C66.4206 120.105 66.4728 120.128 66.5128 120.173C66.5543 120.218 66.575 120.293 66.575 120.398V121.254H64.4932C64.3874 121.254 64.3117 121.234 64.2659 121.194C64.2216 121.152 64.1995 121.099 64.1995 121.033C64.1995 120.969 64.2216 120.917 64.2659 120.877C64.3117 120.835 64.3874 120.814 64.4932 120.814H64.7483V119.095H64.4932C64.3874 119.095 64.3117 119.075 64.2659 119.035C64.2216 118.993 64.1995 118.94 64.1995 118.874C64.1995 118.808 64.2216 118.755 64.2659 118.715C64.3117 118.674 64.3874 118.653 64.4932 118.653L65.4451 118.655C65.5509 118.655 65.6259 118.675 65.6702 118.715C65.716 118.755 65.7388 118.808 65.7388 118.874C65.7388 118.94 65.716 118.993 65.6702 119.035C65.6259 119.075 65.5509 119.095 65.4451 119.095H65.1878Z" fill="#050404"/>
<path d="M63.5547 120.45V121.04C63.356 121.147 63.1867 121.22 63.0466 121.258C62.9079 121.298 62.7579 121.318 62.5964 121.318C62.372 121.318 62.164 121.285 61.9725 121.217C61.8224 121.166 61.7038 121.101 61.6166 121.022C61.5308 120.944 61.4515 120.828 61.3786 120.675C61.3057 120.521 61.2693 120.348 61.2693 120.158V119.841C61.2693 119.548 61.3586 119.286 61.5372 119.056C61.7774 118.745 62.104 118.589 62.517 118.589C62.6371 118.589 62.7507 118.601 62.8579 118.625C62.9665 118.65 63.0695 118.686 63.1666 118.735C63.2252 118.682 63.2824 118.655 63.3382 118.655C63.4025 118.655 63.4546 118.678 63.4947 118.722C63.5347 118.766 63.5547 118.841 63.5547 118.947V119.232C63.5547 119.338 63.534 119.414 63.4925 119.459C63.4525 119.504 63.4003 119.526 63.336 119.526C63.2846 119.526 63.2403 119.51 63.2031 119.479C63.1745 119.457 63.1502 119.41 63.1302 119.337C63.1116 119.263 63.0902 119.213 63.0659 119.187C63.0273 119.146 62.9587 119.109 62.8601 119.078C62.7629 119.045 62.6535 119.028 62.532 119.028C62.3577 119.028 62.2062 119.064 62.0775 119.136C61.986 119.189 61.9017 119.281 61.8245 119.412C61.7474 119.544 61.7088 119.687 61.7088 119.841V120.158C61.7088 120.394 61.7767 120.574 61.9124 120.696C62.0497 120.818 62.2669 120.879 62.5642 120.879C62.7657 120.879 62.9494 120.841 63.1152 120.765V120.45H62.6671C62.5613 120.45 62.4856 120.43 62.4398 120.39C62.3955 120.348 62.3734 120.295 62.3734 120.229C62.3734 120.163 62.3955 120.11 62.4398 120.07C62.4856 120.029 62.5613 120.008 62.6671 120.008L63.4475 120.01C63.5533 120.01 63.6283 120.03 63.6726 120.07C63.7184 120.11 63.7412 120.163 63.7412 120.229C63.7412 120.281 63.7255 120.326 63.6941 120.364C63.664 120.403 63.6176 120.431 63.5547 120.45Z" fill="#050404"/>
<path d="M58.9726 119.485V120.814H59.1313C59.237 120.814 59.3121 120.835 59.3564 120.877C59.4021 120.917 59.425 120.969 59.425 121.035C59.425 121.1 59.4021 121.152 59.3564 121.194C59.3121 121.234 59.237 121.254 59.1313 121.254H58.5546C58.4488 121.254 58.373 121.234 58.3273 121.194C58.283 121.152 58.2608 121.099 58.2608 121.033C58.2608 120.97 58.283 120.918 58.3273 120.877C58.3716 120.835 58.4402 120.814 58.5331 120.814V119.095H58.4645C58.3587 119.095 58.283 119.075 58.2373 119.035C58.1929 118.993 58.1708 118.94 58.1708 118.874C58.1708 118.808 58.1929 118.755 58.2373 118.715C58.283 118.674 58.3587 118.653 58.4645 118.653L58.9726 118.655L60.0961 120.418V119.095H59.9374C59.8316 119.095 59.7559 119.075 59.7101 119.035C59.6658 118.993 59.6437 118.94 59.6437 118.874C59.6437 118.808 59.6658 118.755 59.7101 118.715C59.7559 118.674 59.8316 118.653 59.9374 118.653L60.5141 118.655C60.6199 118.655 60.6949 118.675 60.7392 118.715C60.785 118.755 60.8078 118.808 60.8078 118.874C60.8078 118.938 60.7857 118.991 60.7414 119.033C60.6971 119.074 60.6292 119.095 60.5377 119.095V121.254H60.1025L58.9726 119.485Z" fill="#050404"/>
<path d="M57.1357 120.546H56.068L55.9608 120.814H56.068C56.1738 120.814 56.2488 120.835 56.2931 120.877C56.3389 120.917 56.3618 120.969 56.3618 121.035C56.3618 121.1 56.3389 121.152 56.2931 121.194C56.2488 121.234 56.1738 121.254 56.068 121.254H55.4763C55.3705 121.254 55.2955 121.234 55.2512 121.194C55.2055 121.152 55.1826 121.099 55.1826 121.033C55.1826 120.967 55.2062 120.914 55.2533 120.872C55.3005 120.831 55.3784 120.812 55.487 120.814L56.1774 119.095H55.8901C55.7843 119.095 55.7086 119.075 55.6628 119.035C55.6185 118.993 55.5964 118.94 55.5964 118.874C55.5964 118.808 55.6185 118.755 55.6628 118.715C55.7086 118.674 55.7843 118.653 55.8901 118.653L56.8399 118.655L57.7146 120.814C57.8175 120.814 57.8854 120.826 57.9183 120.849C57.984 120.896 58.0169 120.958 58.0169 121.035C58.0169 121.1 57.9947 121.152 57.9504 121.194C57.9061 121.234 57.8311 121.254 57.7253 121.254H57.1336C57.0278 121.254 56.9521 121.234 56.9063 121.194C56.862 121.152 56.8399 121.099 56.8399 121.033C56.8399 120.969 56.862 120.917 56.9063 120.877C56.9521 120.835 57.0278 120.814 57.1336 120.814H57.2408L57.1357 120.546ZM56.9535 120.107L56.5997 119.236L56.2438 120.107H56.9535Z" fill="#050404"/>
<path d="M50.0629 119.504V120.814H50.2216C50.3273 120.814 50.4024 120.835 50.4467 120.877C50.4924 120.917 50.5153 120.969 50.5153 121.035C50.5153 121.1 50.4924 121.152 50.4467 121.194C50.4024 121.234 50.3273 121.254 50.2216 121.254H49.6449C49.5391 121.254 49.464 121.234 49.4197 121.194C49.374 121.152 49.3511 121.099 49.3511 121.033C49.3511 120.969 49.3733 120.917 49.4176 120.877C49.4619 120.835 49.5305 120.814 49.6234 120.814V119.095C49.5462 119.088 49.4876 119.064 49.4476 119.024C49.409 118.984 49.3897 118.934 49.3897 118.874C49.3897 118.808 49.4119 118.755 49.4562 118.715C49.5019 118.674 49.5777 118.653 49.6834 118.653L50.1658 118.655L50.764 119.978L51.3514 118.653L51.8381 118.655C51.9439 118.655 52.0189 118.675 52.0632 118.715C52.109 118.755 52.1318 118.808 52.1318 118.874C52.1318 118.934 52.1118 118.984 52.0718 119.024C52.0318 119.064 51.9739 119.088 51.8981 119.095V120.814C51.991 120.814 52.0596 120.835 52.104 120.877C52.1483 120.918 52.1704 120.971 52.1704 121.035C52.1704 121.1 52.1476 121.152 52.1018 121.194C52.0575 121.234 51.9825 121.254 51.8767 121.254H51.2978C51.1935 121.254 51.1185 121.234 51.0727 121.194C51.0284 121.152 51.0063 121.099 51.0063 121.033C51.0063 120.969 51.0284 120.917 51.0727 120.877C51.1185 120.835 51.1935 120.814 51.2978 120.814H51.4586V119.504L50.9548 120.636H50.5732L50.0629 119.504Z" fill="#050404"/>
<path d="M48.3633 120.546H47.2956L47.1884 120.814H47.2956C47.4014 120.814 47.4764 120.835 47.5207 120.877C47.5665 120.917 47.5894 120.969 47.5894 121.035C47.5894 121.1 47.5665 121.152 47.5207 121.194C47.4764 121.234 47.4014 121.254 47.2956 121.254H46.7039C46.5981 121.254 46.5231 121.234 46.4788 121.194C46.4331 121.152 46.4102 121.099 46.4102 121.033C46.4102 120.967 46.4338 120.914 46.4809 120.872C46.5281 120.831 46.606 120.812 46.7146 120.814L47.405 119.095H47.1177C47.0119 119.095 46.9362 119.075 46.8904 119.035C46.8461 118.993 46.824 118.94 46.824 118.874C46.824 118.808 46.8461 118.755 46.8904 118.715C46.9362 118.674 47.0119 118.653 47.1177 118.653L48.0675 118.655L48.9422 120.814C49.0451 120.814 49.113 120.826 49.1459 120.849C49.2116 120.896 49.2445 120.958 49.2445 121.035C49.2445 121.1 49.2223 121.152 49.178 121.194C49.1337 121.234 49.0587 121.254 48.9529 121.254H48.3612C48.2554 121.254 48.1797 121.234 48.1339 121.194C48.0896 121.152 48.0675 121.099 48.0675 121.033C48.0675 120.969 48.0896 120.917 48.1339 120.877C48.1797 120.835 48.2554 120.814 48.3612 120.814H48.4684L48.3633 120.546ZM48.1811 120.107L47.8273 119.236L47.4714 120.107H48.1811Z" fill="#050404"/>
<path d="M44.4502 120.169V120.814H45.5714V120.576C45.5714 120.471 45.5914 120.396 45.6315 120.351C45.6729 120.306 45.7265 120.283 45.7923 120.283C45.8566 120.283 45.9088 120.306 45.9488 120.351C45.9902 120.396 46.0109 120.471 46.0109 120.576V121.254H43.942C43.8363 121.254 43.7605 121.234 43.7148 121.194C43.6705 121.152 43.6483 121.099 43.6483 121.033C43.6483 120.969 43.6712 120.917 43.7169 120.877C43.7627 120.835 43.8377 120.814 43.942 120.814H44.0106V119.095H43.942C43.8363 119.095 43.7605 119.075 43.7148 119.035C43.6705 118.993 43.6483 118.94 43.6483 118.874C43.6483 118.808 43.6705 118.755 43.7148 118.715C43.7605 118.674 43.8363 118.653 43.942 118.653L45.9145 118.655V119.324C45.9145 119.429 45.8945 119.504 45.8544 119.549C45.8144 119.594 45.7615 119.616 45.6958 119.616C45.63 119.616 45.5764 119.594 45.535 119.549C45.495 119.505 45.475 119.43 45.475 119.324V119.095H44.4502V119.73H44.8361C44.8361 119.615 44.8468 119.542 44.8682 119.509C44.9125 119.439 44.9754 119.404 45.0569 119.404C45.1212 119.404 45.1734 119.427 45.2134 119.472C45.2548 119.517 45.2756 119.592 45.2756 119.697V120.203C45.2756 120.299 45.2641 120.363 45.2413 120.396C45.1955 120.464 45.1341 120.497 45.0569 120.497C44.9754 120.497 44.9125 120.462 44.8682 120.392C44.8468 120.359 44.8361 120.285 44.8361 120.169H44.4502Z" fill="#050404"/>
<path d="M41.0803 120.814V119.095H41.0117C40.9059 119.095 40.8302 119.075 40.7844 119.035C40.7401 118.993 40.718 118.94 40.718 118.874C40.718 118.808 40.7401 118.755 40.7844 118.715C40.8302 118.674 40.9059 118.653 41.0117 118.653H42.1137C42.3767 118.653 42.5882 118.727 42.7483 118.874C42.9084 119.02 42.9884 119.194 42.9884 119.395C42.9884 119.491 42.9698 119.581 42.9327 119.665C42.8955 119.75 42.8391 119.827 42.7633 119.899C42.9019 119.982 43.0056 120.079 43.0742 120.191C43.1442 120.301 43.1792 120.426 43.1792 120.566C43.1792 120.677 43.1542 120.781 43.1042 120.877C43.067 120.949 43.0213 121.007 42.967 121.05C42.8941 121.11 42.8048 121.16 42.699 121.198C42.5932 121.235 42.461 121.254 42.3024 121.254H41.0117C40.9059 121.254 40.8302 121.234 40.7844 121.194C40.7401 121.152 40.718 121.099 40.718 121.033C40.718 120.969 40.7409 120.917 40.7866 120.877C40.8323 120.835 40.9074 120.814 41.0117 120.814H41.0803ZM41.5198 119.734H42.0022C42.1751 119.734 42.3188 119.69 42.4331 119.603C42.5103 119.544 42.5489 119.472 42.5489 119.384C42.5489 119.307 42.5125 119.24 42.4396 119.183C42.3667 119.124 42.2509 119.095 42.0923 119.095H41.5198V119.734ZM41.5198 120.814H42.2788C42.4574 120.814 42.5832 120.788 42.6561 120.735C42.7119 120.695 42.7397 120.638 42.7397 120.564C42.7397 120.475 42.6847 120.388 42.5746 120.302C42.4646 120.216 42.3066 120.173 42.1008 120.173H41.5198V120.814Z" fill="#050404"/>
<path d="M66.8404 61.0843V61.5667C66.8404 61.8525 66.7575 62.1262 66.5917 62.3878C66.4273 62.6494 66.1915 62.7801 65.8842 62.7801C65.7069 62.7801 65.5569 62.7415 65.4339 62.6644C65.3125 62.5858 65.1967 62.4421 65.0866 62.2334C64.978 62.0233 64.9237 61.8011 64.9237 61.5667V61.0843C64.9237 60.7998 65.0059 60.5269 65.1702 60.2653C65.3346 60.0023 65.5704 59.8708 65.8777 59.8708C66.0535 59.8708 66.2022 59.9094 66.3237 59.9866C66.4466 60.0638 66.5631 60.2074 66.6731 60.4175C66.7846 60.6262 66.8404 60.8484 66.8404 61.0843ZM66.3987 61.0843C66.3987 60.8456 66.3323 60.6369 66.1993 60.4582C66.1236 60.3596 66.0171 60.3103 65.8799 60.3103C65.747 60.3103 65.6383 60.3646 65.554 60.4733C65.4268 60.6376 65.3632 60.8413 65.3632 61.0843V61.5667C65.3632 61.8068 65.4304 62.0155 65.5647 62.1927C65.6391 62.2913 65.7455 62.3406 65.8842 62.3406C66.0157 62.3406 66.1236 62.2863 66.2079 62.1777C66.3351 62.0133 66.3987 61.8096 66.3987 61.5667V61.0843Z" fill="#050404"/>
<path d="M64.5316 70.133V70.6561C64.6946 70.6046 64.8425 70.5789 64.9754 70.5789C65.2456 70.5789 65.47 70.6711 65.6486 70.8555C65.8273 71.0398 65.9166 71.2778 65.9166 71.5694C65.9166 71.8696 65.8259 72.1054 65.6443 72.2769C65.4642 72.447 65.1877 72.532 64.8146 72.532C64.4859 72.532 64.2258 72.4699 64.0342 72.3455C63.9227 72.274 63.867 72.1919 63.867 72.099C63.867 72.0404 63.8884 71.9896 63.9313 71.9467C63.9756 71.9024 64.0278 71.8803 64.0878 71.8803C64.1379 71.8803 64.1922 71.9046 64.2508 71.9532C64.3094 72.0003 64.3708 72.0332 64.4351 72.0518C64.5266 72.0789 64.6438 72.0925 64.7868 72.0925C65.0526 72.0925 65.2341 72.0504 65.3313 71.966C65.4285 71.8803 65.4771 71.7495 65.4771 71.5737C65.4771 71.4007 65.4299 71.265 65.3356 71.1663C65.2427 71.0677 65.1226 71.0184 64.9754 71.0184C64.8168 71.0184 64.636 71.0699 64.433 71.1728C64.3873 71.1971 64.3472 71.2092 64.3129 71.2092C64.2501 71.2092 64.1972 71.1863 64.1543 71.1406C64.1128 71.0949 64.0921 71.0356 64.0921 70.9627V69.6934H65.4364C65.5421 69.6934 65.6172 69.7142 65.6615 69.7556C65.7072 69.7956 65.7301 69.8485 65.7301 69.9143C65.7301 69.9786 65.7072 70.0315 65.6615 70.0729C65.6172 70.1129 65.5421 70.133 65.4364 70.133H64.5316Z" fill="#050404"/>
<path d="M68.7808 70.8362V71.3186C68.7808 71.6044 68.6979 71.8781 68.5321 72.1397C68.3677 72.4013 68.1319 72.532 67.8246 72.532C67.6473 72.532 67.4973 72.4934 67.3743 72.4163C67.2529 72.3376 67.1371 72.194 67.027 71.9853C66.9184 71.7752 66.8641 71.553 66.8641 71.3186V70.8362C66.8641 70.5517 66.9463 70.2787 67.1106 70.0172C67.275 69.7542 67.5108 69.6227 67.8181 69.6227C67.9939 69.6227 68.1426 69.6613 68.2641 69.7385C68.387 69.8157 68.5035 69.9593 68.6135 70.1694C68.725 70.3781 68.7808 70.6003 68.7808 70.8362ZM68.3391 70.8362C68.3391 70.5975 68.2727 70.3888 68.1397 70.2101C68.064 70.1115 67.9575 70.0622 67.8203 70.0622C67.6874 70.0622 67.5787 70.1165 67.4944 70.2251C67.3672 70.3895 67.3036 70.5932 67.3036 70.8362V71.3186C67.3036 71.5587 67.3708 71.7674 67.5051 71.9446C67.5795 72.0432 67.6859 72.0925 67.8246 72.0925C67.9561 72.0925 68.064 72.0382 68.1483 71.9296C68.2755 71.7652 68.3391 71.5615 68.3391 71.3186V70.8362Z" fill="#050404"/>
<path d="M63.6587 79.8708V82.2763H64.1025C64.2083 82.2763 64.2833 82.297 64.3276 82.3385C64.3733 82.3785 64.3962 82.4314 64.3962 82.4971C64.3962 82.5615 64.3733 82.6143 64.3276 82.6558C64.2833 82.6958 64.2083 82.7158 64.1025 82.7158H62.7754C62.6696 82.7158 62.5939 82.6958 62.5481 82.6558C62.5038 82.6143 62.4817 82.5607 62.4817 82.495C62.4817 82.4307 62.5038 82.3785 62.5481 82.3385C62.5939 82.297 62.6696 82.2763 62.7754 82.2763H63.2192V80.4432L62.8268 80.5461C62.764 80.5633 62.7168 80.5719 62.6853 80.5719C62.6296 80.5719 62.581 80.5497 62.5396 80.5054C62.4995 80.4611 62.4795 80.4068 62.4795 80.3425C62.4795 80.2839 62.4945 80.2381 62.5246 80.2053C62.5546 80.171 62.6175 80.1409 62.7132 80.1152L63.6587 79.8708Z" fill="#050404"/>
<path d="M67.3101 81.0843V81.5667C67.3101 81.8525 67.2272 82.1262 67.0614 82.3878C66.897 82.6494 66.6612 82.7801 66.3539 82.7801C66.1766 82.7801 66.0266 82.7415 65.9036 82.6644C65.7822 82.5858 65.6664 82.4421 65.5563 82.2334C65.4477 82.0233 65.3934 81.8011 65.3934 81.5667V81.0843C65.3934 80.7998 65.4756 80.5269 65.6399 80.2653C65.8043 80.0023 66.0401 79.8708 66.3474 79.8708C66.5232 79.8708 66.6719 79.9094 66.7934 79.9866C66.9163 80.0638 67.0328 80.2074 67.1428 80.4175C67.2543 80.6262 67.3101 80.8484 67.3101 81.0843ZM66.8684 81.0843C66.8684 80.8456 66.802 80.6369 66.669 80.4582C66.5933 80.3596 66.4868 80.3103 66.3496 80.3103C66.2167 80.3103 66.108 80.3646 66.0237 80.4733C65.8965 80.6376 65.8329 80.8413 65.8329 81.0843V81.5667C65.8329 81.8068 65.9001 82.0155 66.0344 82.1927C66.1087 82.2913 66.2152 82.3406 66.3539 82.3406C66.4854 82.3406 66.5933 82.2863 66.6776 82.1777C66.8048 82.0133 66.8684 81.8096 66.8684 81.5667V81.0843Z" fill="#050404"/>
<path d="M70.2339 81.0843V81.5667C70.2339 81.8525 70.151 82.1262 69.9852 82.3878C69.8208 82.6494 69.585 82.7801 69.2777 82.7801C69.1004 82.7801 68.9504 82.7415 68.8274 82.6644C68.706 82.5858 68.5902 82.4421 68.4801 82.2334C68.3715 82.0233 68.3172 81.8011 68.3172 81.5667V81.0843C68.3172 80.7998 68.3994 80.5269 68.5637 80.2653C68.7281 80.0023 68.9639 79.8708 69.2712 79.8708C69.447 79.8708 69.5957 79.9094 69.7172 79.9866C69.8401 80.0638 69.9566 80.2074 70.0666 80.4175C70.1781 80.6262 70.2339 80.8484 70.2339 81.0843ZM69.7922 81.0843C69.7922 80.8456 69.7258 80.6369 69.5928 80.4582C69.5171 80.3596 69.4106 80.3103 69.2734 80.3103C69.1405 80.3103 69.0318 80.3646 68.9475 80.4733C68.8203 80.6376 68.7567 80.8413 68.7567 81.0843V81.5667C68.7567 81.8068 68.8239 82.0155 68.9582 82.1927C69.0325 82.2913 69.139 82.3406 69.2777 82.3406C69.4092 82.3406 69.5171 82.2863 69.6014 82.1777C69.7286 82.0133 69.7922 81.8096 69.7922 81.5667V81.0843Z" fill="#050404"/>
<path d="M63.6587 89.6271V92.0326H64.1025C64.2083 92.0326 64.2833 92.0533 64.3276 92.0948C64.3733 92.1348 64.3962 92.1877 64.3962 92.2534C64.3962 92.3177 64.3733 92.3706 64.3276 92.4121C64.2833 92.4521 64.2083 92.4721 64.1025 92.4721H62.7754C62.6696 92.4721 62.5939 92.4521 62.5481 92.4121C62.5038 92.3706 62.4817 92.317 62.4817 92.2513C62.4817 92.187 62.5038 92.1348 62.5481 92.0948C62.5939 92.0533 62.6696 92.0326 62.7754 92.0326H63.2192V90.1995L62.8268 90.3024C62.764 90.3196 62.7168 90.3282 62.6853 90.3282C62.6296 90.3282 62.581 90.306 62.5396 90.2617C62.4995 90.2174 62.4795 90.1631 62.4795 90.0988C62.4795 90.0402 62.4945 89.9944 62.5246 89.9615C62.5546 89.9272 62.6175 89.8972 62.7132 89.8715L63.6587 89.6271Z" fill="#050404"/>
<path d="M65.9808 90.1374V90.6605C66.1438 90.609 66.2917 90.5833 66.4246 90.5833C66.6948 90.5833 66.9192 90.6755 67.0978 90.8599C67.2765 91.0442 67.3658 91.2822 67.3658 91.5738C67.3658 91.8739 67.2751 92.1098 67.0935 92.2813C66.9134 92.4514 66.6369 92.5364 66.2638 92.5364C65.9351 92.5364 65.675 92.4743 65.4834 92.3499C65.3719 92.2784 65.3162 92.1963 65.3162 92.1033C65.3162 92.0447 65.3376 91.994 65.3805 91.9511C65.4248 91.9068 65.477 91.8847 65.537 91.8847C65.5871 91.8847 65.6414 91.909 65.7 91.9576C65.7586 92.0047 65.82 92.0376 65.8843 92.0562C65.9758 92.0833 66.093 92.0969 66.236 92.0969C66.5018 92.0969 66.6833 92.0548 66.7805 91.9704C66.8777 91.8847 66.9263 91.7539 66.9263 91.5781C66.9263 91.4051 66.8791 91.2694 66.7848 91.1707C66.6919 91.0721 66.5718 91.0228 66.4246 91.0228C66.266 91.0228 66.0852 91.0743 65.8822 91.1772C65.8365 91.2015 65.7964 91.2136 65.7621 91.2136C65.6993 91.2136 65.6464 91.1907 65.6035 91.145C65.562 91.0993 65.5413 91.04 65.5413 90.9671V89.6978H66.8856C66.9913 89.6978 67.0664 89.7186 67.1107 89.76C67.1564 89.8 67.1793 89.8529 67.1793 89.9187C67.1793 89.983 67.1564 90.0359 67.1107 90.0773C67.0664 90.1173 66.9913 90.1374 66.8856 90.1374H65.9808Z" fill="#050404"/>
<path d="M70.2339 90.8406V91.323C70.2339 91.6088 70.151 91.8825 69.9852 92.1441C69.8208 92.4056 69.585 92.5364 69.2777 92.5364C69.1004 92.5364 68.9504 92.4978 68.8274 92.4207C68.706 92.342 68.5902 92.1984 68.4801 91.9897C68.3715 91.7796 68.3172 91.5574 68.3172 91.323V90.8406C68.3172 90.5561 68.3994 90.2831 68.5637 90.0216C68.7281 89.7586 68.9639 89.6271 69.2712 89.6271C69.447 89.6271 69.5957 89.6657 69.7172 89.7429C69.8401 89.82 69.9566 89.9637 70.0666 90.1738C70.1781 90.3825 70.2339 90.6047 70.2339 90.8406ZM69.7922 90.8406C69.7922 90.6019 69.7258 90.3932 69.5928 90.2145C69.5171 90.1159 69.4106 90.0666 69.2734 90.0666C69.1405 90.0666 69.0318 90.1209 68.9475 90.2295C68.8203 90.3939 68.7567 90.5976 68.7567 90.8406V91.323C68.7567 91.5631 68.8239 91.7718 68.9582 91.949C69.0325 92.0476 69.139 92.0969 69.2777 92.0969C69.4092 92.0969 69.5171 92.0426 69.6014 91.934C69.7286 91.7696 69.7922 91.5659 69.7922 91.323V90.8406Z" fill="#050404"/>
<path d="M63.0241 101.789H63.9867C64.0396 101.746 64.0896 101.725 64.1368 101.725C64.204 101.725 64.2569 101.747 64.2955 101.791C64.3355 101.835 64.3555 101.911 64.3555 102.018V102.229H62.353V101.763C63.1449 101.11 63.623 100.69 63.7873 100.503C63.8702 100.407 63.9117 100.316 63.9117 100.23C63.9117 100.123 63.8645 100.029 63.7702 99.9474C63.6773 99.8645 63.5529 99.823 63.3971 99.823C63.2399 99.823 63.1091 99.8687 63.0048 99.9602C62.9505 100.009 62.9069 100.081 62.874 100.177C62.854 100.237 62.8261 100.28 62.7904 100.305C62.7561 100.331 62.7132 100.344 62.6618 100.344C62.6017 100.344 62.5496 100.323 62.5053 100.28C62.4624 100.237 62.4409 100.187 62.4409 100.13C62.4409 100.044 62.4802 99.9366 62.5589 99.808C62.6389 99.6794 62.7547 99.5765 62.9062 99.4993C63.0591 99.4221 63.2249 99.3835 63.4036 99.3835C63.6809 99.3835 63.9081 99.4678 64.0853 99.6365C64.2626 99.8037 64.3512 100.007 64.3512 100.245C64.3512 100.367 64.3255 100.48 64.274 100.584C64.224 100.687 64.1025 100.83 63.9095 101.013C63.758 101.157 63.4629 101.416 63.0241 101.789Z" fill="#050404"/>
<path d="M67.3101 100.597V101.079C67.3101 101.365 67.2272 101.639 67.0614 101.9C66.897 102.162 66.6612 102.293 66.3539 102.293C66.1766 102.293 66.0266 102.254 65.9036 102.177C65.7822 102.098 65.6664 101.955 65.5563 101.746C65.4477 101.536 65.3934 101.314 65.3934 101.079V100.597C65.3934 100.313 65.4756 100.04 65.6399 99.778C65.8043 99.515 66.0401 99.3835 66.3474 99.3835C66.5232 99.3835 66.6719 99.4221 66.7934 99.4993C66.9163 99.5765 67.0328 99.7201 67.1428 99.9302C67.2543 100.139 67.3101 100.361 67.3101 100.597ZM66.8684 100.597C66.8684 100.358 66.802 100.15 66.669 99.9709C66.5933 99.8723 66.4868 99.823 66.3496 99.823C66.2167 99.823 66.108 99.8773 66.0237 99.9859C65.8965 100.15 65.8329 100.354 65.8329 100.597V101.079C65.8329 101.319 65.9001 101.528 66.0344 101.705C66.1087 101.804 66.2152 101.853 66.3539 101.853C66.4854 101.853 66.5933 101.799 66.6776 101.69C66.8048 101.526 66.8684 101.322 66.8684 101.079V100.597Z" fill="#050404"/>
<path d="M70.2339 100.597V101.079C70.2339 101.365 70.151 101.639 69.9852 101.9C69.8208 102.162 69.585 102.293 69.2777 102.293C69.1004 102.293 68.9504 102.254 68.8274 102.177C68.706 102.098 68.5902 101.955 68.4801 101.746C68.3715 101.536 68.3172 101.314 68.3172 101.079V100.597C68.3172 100.313 68.3994 100.04 68.5637 99.778C68.7281 99.515 68.9639 99.3835 69.2712 99.3835C69.447 99.3835 69.5957 99.4221 69.7172 99.4993C69.8401 99.5765 69.9566 99.7201 70.0666 99.9302C70.1781 100.139 70.2339 100.361 70.2339 100.597ZM69.7922 100.597C69.7922 100.358 69.7258 100.15 69.5928 99.9709C69.5171 99.8723 69.4106 99.823 69.2734 99.823C69.1405 99.823 69.0318 99.8773 68.9475 99.9859C68.8203 100.15 68.7567 100.354 68.7567 100.597V101.079C68.7567 101.319 68.8239 101.528 68.9582 101.705C69.0325 101.804 69.139 101.853 69.2777 101.853C69.4092 101.853 69.5171 101.799 69.6014 101.69C69.7286 101.526 69.7922 101.322 69.7922 101.079V100.597Z" fill="#050404"/>
</svg>
