<svg width="30" height="30" viewBox="0 0 30 30" fill="none" xmlns="http://www.w3.org/2000/svg">
<rect width="30" height="30" fill="white"/>
<path d="M30 30H22.5H15H7.5H0V22.5003V15.0005V7.49975V0H7.5H15H22.5H30V7.49975V14.9995V22.4992V30ZM0.252287 29.7477H7.62614H15H22.3739H29.7477V22.3741V15.0005V7.62589V0.252279H22.3739H15H7.62614H0.252287V7.62589V14.9995V22.3731V29.7477Z" fill="#4D4D4D"/>
<path d="M13.987 20.6114C14.0008 20.6114 14.0147 20.6081 14.0269 20.6032C14.0391 20.5983 14.0497 20.591 14.0595 20.5812C14.0693 20.5715 14.0758 20.5609 14.0815 20.5486C14.0872 20.5364 14.0896 20.5234 14.0896 20.5087C14.0896 20.494 14.0872 20.481 14.0815 20.4688C14.0766 20.4565 14.0693 20.4459 14.0595 20.4362C14.0497 20.4264 14.0391 20.4199 14.0269 20.4142C14.0147 20.4093 14.0016 20.406 13.987 20.406C13.317 20.4068 12.6773 20.5437 12.0954 20.7907C11.5134 21.0376 10.9894 21.3946 10.5485 21.8355C10.1076 22.2764 9.75061 22.8005 9.50367 23.3824C9.25672 23.9643 9.1198 24.6032 9.11899 25.274C9.11899 25.2878 9.12225 25.3017 9.12714 25.3131C9.13203 25.3245 9.13936 25.3359 9.14914 25.3457C9.15892 25.3555 9.16952 25.362 9.18174 25.3677C9.19397 25.3734 9.20701 25.3759 9.22168 25.3759C9.23553 25.3759 9.24939 25.3726 9.26161 25.3677C9.27384 25.3628 9.28443 25.3555 9.29421 25.3457C9.30399 25.3359 9.31051 25.3253 9.31622 25.3131C9.32192 25.3009 9.32437 25.2878 9.32437 25.2732C9.32518 24.6309 9.4564 24.0181 9.69275 23.4606C9.9291 22.9032 10.2714 22.4003 10.6936 21.9781C11.1157 21.556 11.6186 21.2137 12.176 20.9773C12.7319 20.7434 13.3447 20.6122 13.987 20.6114Z" fill="#4D4D4D"/>
<path d="M13.7221 24.3792C13.6349 24.3792 13.5518 24.3971 13.4768 24.4289C13.4018 24.4606 13.3333 24.5071 13.2763 24.5642C13.2192 24.6212 13.1728 24.6897 13.141 24.7646C13.1092 24.8396 13.0913 24.9228 13.0913 25.01C13.0913 25.0972 13.1092 25.1803 13.141 25.2553C13.1728 25.3311 13.2192 25.3987 13.2763 25.4558C13.3333 25.5128 13.4018 25.5593 13.4768 25.591C13.5526 25.6228 13.6349 25.6408 13.7221 25.6408C13.8093 25.6408 13.8924 25.6228 13.9674 25.591C14.0432 25.5593 14.1108 25.5128 14.1679 25.4558C14.2249 25.3987 14.2714 25.3302 14.3032 25.2553C14.335 25.1795 14.3529 25.0972 14.3529 25.01C14.3529 24.9228 14.335 24.8404 14.3032 24.7646C14.2714 24.6888 14.2249 24.622 14.1679 24.565C14.1108 24.5079 14.0424 24.4615 13.9674 24.4297C13.8924 24.3979 13.8093 24.38 13.7221 24.3792ZM13.7221 25.4386C13.6626 25.4386 13.6064 25.4264 13.5558 25.4052C13.5053 25.384 13.4588 25.3523 13.4197 25.3131C13.3806 25.274 13.3496 25.2284 13.3276 25.177C13.3056 25.1257 13.2942 25.0695 13.2942 25.0108C13.2942 24.9521 13.3064 24.8959 13.3276 24.8445C13.3488 24.7932 13.3806 24.7475 13.4197 24.7084C13.4588 24.6693 13.5045 24.6383 13.5558 24.6163C13.6072 24.5943 13.6634 24.5829 13.7221 24.5829C13.7808 24.5829 13.837 24.5951 13.8883 24.6163C13.9397 24.6375 13.9853 24.6693 14.0244 24.7084C14.0636 24.7475 14.0945 24.7932 14.1165 24.8445C14.1385 24.8959 14.15 24.9521 14.15 25.0108C14.15 25.0695 14.1377 25.1257 14.1157 25.177C14.0937 25.2284 14.0628 25.274 14.0236 25.3131C13.9845 25.3523 13.9389 25.3832 13.8875 25.4052C13.8362 25.4272 13.7816 25.4386 13.7221 25.4386Z" fill="#4D4D4D"/>
<path d="M13.987 22.7295C14.0008 22.7295 14.0147 22.7263 14.0269 22.7214C14.0391 22.7165 14.0497 22.7092 14.0595 22.6994C14.0693 22.6896 14.0758 22.679 14.0815 22.6668C14.0872 22.6546 14.0896 22.6415 14.0896 22.6269C14.0896 22.6122 14.0872 22.5991 14.0815 22.5869C14.0766 22.5747 14.0693 22.5641 14.0595 22.5543C14.0497 22.5445 14.0391 22.538 14.0269 22.5323C14.0147 22.5274 14.0016 22.5242 13.987 22.5242C13.608 22.525 13.2469 22.6024 12.9185 22.7418C12.5901 22.8811 12.2934 23.0833 12.0448 23.3318C11.7963 23.5804 11.5941 23.8771 11.4548 24.2055C11.3154 24.5339 11.238 24.895 11.2372 25.274C11.2372 25.2878 11.2404 25.3017 11.2453 25.3131C11.2502 25.3245 11.2575 25.3359 11.2673 25.3457C11.2771 25.3555 11.2877 25.362 11.2999 25.3677C11.3121 25.3734 11.3252 25.3758 11.3399 25.3758C11.3537 25.3758 11.3676 25.3726 11.3798 25.3677C11.392 25.3628 11.4026 25.3555 11.4124 25.3457C11.4222 25.3359 11.4287 25.3253 11.4344 25.3131C11.4401 25.3009 11.4425 25.2878 11.4425 25.2732C11.4425 24.9227 11.5143 24.5886 11.6438 24.2837C11.7734 23.9798 11.9601 23.7051 12.1899 23.4745C12.4197 23.2438 12.6944 23.0572 12.9992 22.9276C13.3015 22.8013 13.6365 22.7295 13.987 22.7295Z" fill="#4D4D4D"/>
<path d="M13.987 18.4932C14.0008 18.4932 14.0147 18.49 14.0269 18.4851C14.0391 18.4802 14.0497 18.4728 14.0595 18.4631C14.0693 18.4533 14.0758 18.4427 14.0815 18.4305C14.0872 18.4182 14.0896 18.4052 14.0896 18.3905C14.0896 18.3759 14.0872 18.3628 14.0815 18.3506C14.0766 18.3384 14.0693 18.3278 14.0595 18.318C14.0497 18.3082 14.0391 18.3017 14.0269 18.296C14.0147 18.2911 14.0016 18.2878 13.987 18.2878C13.0253 18.2887 12.1076 18.4859 11.2722 18.8404C10.4368 19.1949 9.6846 19.7076 9.05216 20.34C8.41972 20.9724 7.90709 21.7255 7.55257 22.5601C7.19804 23.3954 7.00163 24.3123 7 25.2748C7 25.2887 7.00326 25.3025 7.00815 25.3139C7.01304 25.3253 7.02037 25.3367 7.03015 25.3465C7.03993 25.3563 7.05053 25.3628 7.06275 25.3685C7.07498 25.3742 7.08802 25.3767 7.10269 25.3767C7.11654 25.3767 7.1304 25.3734 7.14262 25.3685C7.15485 25.3636 7.16544 25.3563 7.17522 25.3465C7.185 25.3367 7.19152 25.3261 7.19723 25.3139C7.20293 25.3017 7.20538 25.2887 7.20538 25.274C7.20619 24.34 7.39772 23.4492 7.74165 22.6383C8.08557 21.8274 8.58354 21.0971 9.19723 20.4826C9.81092 19.8681 10.542 19.371 11.3529 19.027C12.1638 18.6831 13.053 18.494 13.987 18.4932Z" fill="#4D4D4D"/>
<path d="M21.8973 15.3767H20.674H19.4507H18.2274H17.0041H16.9544H16.9063H16.8574H16.8077L16.8166 15.3286L16.8256 15.2805L16.8346 15.2324L16.8435 15.1844C16.8777 15.0083 16.9079 14.8315 16.934 14.653C16.9601 14.4753 16.9829 14.2968 17.0016 14.1175C17.0204 13.9382 17.0359 13.7589 17.0465 13.5796C17.0579 13.4003 17.0652 13.221 17.0685 13.0417L17.0709 12.9374L17.0733 12.8331L17.0758 12.7288L17.0782 12.6245L17.1475 12.7027L17.2168 12.7809L17.2861 12.8592L17.3553 12.9374C17.4075 12.9969 17.4637 13.0523 17.5232 13.1045C17.5827 13.1567 17.6447 13.2047 17.7099 13.2496C17.7751 13.2944 17.8427 13.3343 17.9128 13.3702C17.9829 13.406 18.0554 13.4378 18.1296 13.4647C18.1834 13.4843 18.2388 13.5006 18.2942 13.5152C18.3496 13.5299 18.4059 13.5421 18.4621 13.5519C18.5183 13.5617 18.5754 13.569 18.6324 13.5739C18.6895 13.5788 18.7473 13.5813 18.8052 13.5813C18.9772 13.5813 19.1548 13.5625 19.3382 13.5258C19.5224 13.4892 19.7115 13.4337 19.9071 13.3604C20.1027 13.2871 20.304 13.195 20.511 13.0849C20.718 12.9749 20.9315 12.847 21.15 12.7011C21.1557 12.697 21.1606 12.6929 21.1654 12.688C21.1703 12.6831 21.1744 12.6782 21.1777 12.6725C21.1809 12.6668 21.1842 12.6611 21.1866 12.6554C21.1891 12.6489 21.1915 12.6432 21.1923 12.6359C21.194 12.6293 21.194 12.6228 21.194 12.6155C21.194 12.6082 21.1932 12.6025 21.1923 12.5959C21.1915 12.5894 21.1891 12.5829 21.1866 12.5772C21.1842 12.5715 21.1809 12.565 21.1769 12.5593C20.9519 12.3066 20.7302 12.0849 20.5102 11.895C20.2901 11.7051 20.0733 11.547 19.859 11.4199C19.6447 11.2928 19.4328 11.1982 19.2241 11.1346C19.0155 11.0711 18.8101 11.0393 18.6072 11.0393C18.5925 11.0393 18.5786 11.0393 18.564 11.0401C18.5501 11.0401 18.5355 11.0409 18.5216 11.0417C18.5077 11.0426 18.4931 11.0434 18.4792 11.0442C18.4654 11.045 18.4507 11.0466 18.4368 11.0474C18.3301 11.0589 18.2249 11.0784 18.1214 11.1061C18.0179 11.1338 17.9169 11.1705 17.8199 11.2145C17.7229 11.2585 17.6284 11.3107 17.5387 11.3694C17.4491 11.428 17.3643 11.4949 17.2852 11.5674L17.2249 11.6236L17.1646 11.6799L17.1043 11.7361L17.044 11.7923L17.0367 11.71L17.0293 11.6277L17.022 11.5454L17.0147 11.4631C16.9943 11.2455 16.9682 11.0287 16.9356 10.8119C16.9038 10.5959 16.8655 10.38 16.8215 10.1656C16.7775 9.95127 16.7286 9.73774 16.6732 9.52666C16.6178 9.31476 16.5566 9.10531 16.4906 8.89667L16.4833 8.87466L16.476 8.85266L16.4686 8.83065L16.4613 8.80865L16.4768 8.79153L16.4923 8.77442L16.5077 8.7573L16.5232 8.74019C16.6218 8.63016 16.7074 8.51117 16.7808 8.38566C16.8541 8.26015 16.9136 8.1265 16.9601 7.98876C17.0065 7.85103 17.0383 7.70922 17.0562 7.56415C17.0742 7.41908 17.0766 7.27238 17.0644 7.12568C17.0399 6.91297 16.9796 6.70351 16.8826 6.49813C16.7857 6.29275 16.6528 6.09064 16.4833 5.89341C16.3138 5.69618 16.1092 5.50221 15.8688 5.31394C15.6284 5.12568 15.3521 4.94068 15.0399 4.76138C15.0359 4.75893 15.0318 4.7573 15.0277 4.75567C15.0236 4.75404 15.0196 4.75241 15.0155 4.7516C15.0114 4.75078 15.0073 4.74997 15.0024 4.74915C14.9976 4.74834 14.9959 4.74426 14.9918 4.74426C14.9829 4.74426 14.9739 4.74589 14.965 4.74752C14.956 4.74915 14.9478 4.75323 14.9405 4.7573C14.9332 4.76138 14.9258 4.76708 14.9193 4.7736C14.9128 4.78012 14.9071 4.78664 14.903 4.79479C14.7669 5.13139 14.661 5.44842 14.5876 5.74752C14.5143 6.04663 14.4711 6.32617 14.4588 6.58697C14.4466 6.84777 14.467 7.08982 14.5175 7.31231C14.568 7.53481 14.6495 7.73774 14.762 7.92112C14.8419 8.04255 14.934 8.15502 15.0359 8.25771C15.1377 8.3604 15.2502 8.45168 15.3708 8.53073C15.4914 8.60979 15.6194 8.67825 15.7539 8.73204C15.8883 8.78583 16.0285 8.82739 16.1728 8.85347L16.1972 8.85755L16.2217 8.86162L16.2461 8.8657L16.2706 8.86977L16.2779 8.89341L16.2852 8.91704L16.2926 8.94068L16.2999 8.96431C16.3252 9.04255 16.3488 9.11998 16.3725 9.19822C16.3953 9.27645 16.4181 9.35388 16.4393 9.43212C16.4605 9.51036 16.4808 9.58778 16.5004 9.66439C16.52 9.74182 16.5379 9.81843 16.5558 9.89504L16.5795 9.99936L16.6031 10.1037L16.6267 10.208L16.6487 10.3107L16.5615 10.2487L16.4743 10.1868L16.3871 10.1249L16.2999 10.0629C16.2282 10.0116 16.1532 9.96594 16.075 9.92519C15.9967 9.88444 15.9169 9.8494 15.8346 9.81924C15.7522 9.78909 15.6683 9.76545 15.5827 9.74671C15.4971 9.72796 15.4099 9.71574 15.3219 9.70922C15.3113 9.7084 15.3007 9.70759 15.2901 9.70759C15.2795 9.70759 15.2689 9.70677 15.2575 9.70596C15.2461 9.70514 15.2355 9.70514 15.2249 9.70514C15.2143 9.70514 15.2029 9.70514 15.1923 9.70514C14.987 9.70514 14.7791 9.73774 14.5697 9.80376C14.3602 9.86977 14.1467 9.96757 13.9324 10.0988C13.718 10.2292 13.5012 10.393 13.2836 10.5886C13.066 10.7842 12.846 11.0116 12.6251 11.2716C12.621 11.2765 12.617 11.2822 12.6137 11.2879C12.6104 11.2936 12.608 11.3001 12.6055 11.3058C12.6031 11.3115 12.6023 11.3188 12.6015 11.3254C12.6007 11.3319 12.6007 11.3384 12.6015 11.3457C12.6023 11.3522 12.6031 11.3588 12.6047 11.3653C12.6064 11.3718 12.6088 11.3775 12.6121 11.384C12.6153 11.3906 12.6186 11.3954 12.6227 11.4003C12.6267 11.4052 12.6316 11.4101 12.6365 11.415C12.8549 11.5544 13.0676 11.6766 13.2738 11.7818C13.48 11.8869 13.6789 11.9741 13.872 12.0434C14.0652 12.1126 14.251 12.1656 14.4303 12.2007C14.6096 12.2357 14.7816 12.2528 14.947 12.2528C15.013 12.2528 15.0774 12.2504 15.141 12.2447C15.2046 12.239 15.2673 12.2308 15.3284 12.2194C15.3896 12.208 15.4499 12.1941 15.5094 12.1778C15.5689 12.1615 15.6275 12.142 15.6854 12.12C15.7677 12.0874 15.8476 12.0491 15.925 12.0059C16.0024 11.9627 16.0758 11.9138 16.1459 11.8608C16.216 11.8078 16.2828 11.7492 16.3456 11.6872C16.4083 11.6245 16.467 11.5576 16.5208 11.4867L16.5844 11.4028L16.6479 11.3188L16.7115 11.2349L16.7751 11.1509L16.784 11.2561L16.793 11.3612L16.802 11.4663L16.8109 11.5715C16.8378 11.8787 16.8541 12.186 16.859 12.4932C16.8647 12.8005 16.859 13.1077 16.8427 13.415C16.8264 13.7223 16.7995 14.0279 16.762 14.3335C16.7245 14.6383 16.6764 14.9423 16.6178 15.2447L16.6112 15.2773L16.6047 15.3099L16.5982 15.3425L16.5917 15.3751H16.564H16.5306H16.4971H16.4637H15.3064H14.1491H12.9918H11.8346C11.8207 15.3751 11.8068 15.3783 11.7946 15.3832C11.7824 15.3881 11.7718 15.3954 11.762 15.4052C11.7522 15.415 11.7457 15.4256 11.74 15.4378C11.7343 15.45 11.7319 15.4631 11.7319 15.4778V15.9496V16.4215V16.8934V17.3653C11.7319 17.3791 11.7351 17.393 11.74 17.4052C11.7449 17.4174 11.7522 17.428 11.762 17.4378C11.7718 17.4476 11.7824 17.4541 11.7946 17.4598C11.8068 17.4655 11.8199 17.468 11.8346 17.468H14.0399H16.2453H18.4507H20.6561H20.7017H20.7473H20.793H20.8386L20.8337 17.5136L20.8288 17.5593L20.824 17.6049L20.8191 17.6505L20.5982 19.5617L20.3773 21.4729L20.1565 23.384L19.9356 25.2952L19.9315 25.3311L19.9275 25.3669L19.9234 25.4028L19.9193 25.4386H19.8826H19.846H19.8093H19.7751H18.6178H17.4605H16.3032H15.1459C15.132 25.4386 15.1182 25.4419 15.1059 25.4468C15.0937 25.4517 15.0831 25.459 15.0733 25.4688C15.0636 25.4786 15.057 25.4892 15.0513 25.5014C15.0456 25.5136 15.0432 25.5267 15.0432 25.5413C15.0432 25.5552 15.0465 25.569 15.0513 25.5813C15.0562 25.5935 15.0636 25.6041 15.0733 25.6139C15.0831 25.6236 15.0937 25.6302 15.1059 25.6359C15.1182 25.6408 15.1312 25.644 15.1459 25.644H16.3619H17.5778H18.7938H20.0098C20.0228 25.644 20.035 25.6416 20.0465 25.6375C20.0579 25.6334 20.0685 25.6269 20.0774 25.6188C20.0864 25.6106 20.0937 25.6008 20.0994 25.5902C20.1051 25.5796 20.1092 25.5674 20.1108 25.5544L20.3399 23.569L20.5689 21.5837L20.7979 19.5984L21.0269 17.613L21.031 17.5772L21.035 17.5413L21.0391 17.5055L21.0432 17.4696H21.0799H21.1165H21.1532H21.1899H21.3667H21.5436H21.7205H21.8973C21.9112 17.4696 21.925 17.4663 21.9372 17.4615C21.9495 17.4566 21.9601 17.4492 21.9698 17.4395C21.9796 17.4297 21.9861 17.4191 21.9918 17.4069C21.9967 17.3946 22 17.3816 22 17.3669V16.895V16.4232V15.9513V15.4794C22 15.4655 21.9967 15.4517 21.9918 15.4395C21.987 15.4272 21.9796 15.4166 21.9698 15.4069C21.9601 15.3971 21.9495 15.3906 21.9372 15.3848C21.925 15.3791 21.912 15.3767 21.8973 15.3767ZM17.1353 12.0254C17.2135 11.9195 17.3024 11.8217 17.3993 11.7345C17.4963 11.6473 17.6023 11.5699 17.7147 11.503C17.8272 11.4362 17.9462 11.3816 18.0693 11.3384C18.1923 11.2952 18.3211 11.265 18.4515 11.2479H18.4523H18.4531H18.454H18.4548H18.4556H18.4564H18.4572H18.458C18.4711 11.2471 18.4841 11.2455 18.4971 11.2447C18.5102 11.2439 18.5232 11.243 18.5363 11.2422C18.5493 11.2414 18.5623 11.2414 18.5754 11.2406C18.5884 11.2398 18.6015 11.2398 18.6145 11.2398C18.7848 11.2398 18.9592 11.265 19.1361 11.3156C19.313 11.3661 19.4931 11.4419 19.6764 11.543C19.8598 11.644 20.0448 11.7695 20.2331 11.9203C20.4214 12.0711 20.6121 12.2471 20.8044 12.4476L20.8394 12.4843L20.8745 12.521L20.9095 12.5576L20.9446 12.5943L20.9014 12.6212L20.8582 12.6481L20.815 12.675L20.7718 12.7019C20.5892 12.8144 20.4108 12.9122 20.238 12.9969C20.0652 13.0817 19.8973 13.1518 19.7343 13.208C19.5713 13.2642 19.414 13.3066 19.2624 13.3351C19.1108 13.3637 18.9641 13.3775 18.824 13.3775C18.7694 13.3775 18.7147 13.3751 18.6618 13.371C18.6088 13.3669 18.5558 13.3604 18.5045 13.3514C18.4531 13.3425 18.4018 13.3319 18.3521 13.3188C18.3024 13.3058 18.2535 13.2911 18.2054 13.274C18.0815 13.2235 17.9633 13.1607 17.8533 13.0874C17.7433 13.014 17.6414 12.9301 17.5485 12.8372C17.4556 12.7443 17.3725 12.6424 17.2999 12.5332C17.2274 12.424 17.1654 12.3066 17.1165 12.1844L17.1084 12.1632L17.1002 12.142L17.0921 12.1208L17.0839 12.0996L17.0978 12.0817L17.1117 12.0637L17.1255 12.0458L17.1353 12.0254ZM16.3097 8.67091L16.2869 8.66684L16.2641 8.66276L16.2412 8.65869L16.2184 8.65461C16.088 8.63098 15.9609 8.5943 15.8394 8.5454C15.718 8.4965 15.6015 8.43619 15.4914 8.36447C15.3814 8.29275 15.2795 8.21044 15.1858 8.11835C15.0921 8.02625 15.0081 7.92519 14.934 7.81517C14.8386 7.65787 14.7677 7.48509 14.7213 7.29683C14.6748 7.10857 14.6561 6.904 14.6593 6.68395C14.6626 6.4639 14.6903 6.22837 14.7425 5.97735C14.7946 5.72633 14.8712 5.46064 14.9723 5.18029L14.9894 5.13302L15.0065 5.08575L15.0236 5.03766L15.0407 4.99039L15.0839 5.01729L15.1271 5.04418L15.1703 5.07108L15.2135 5.09797C15.4662 5.2569 15.6903 5.41908 15.8859 5.58452C16.0815 5.74997 16.2486 5.91786 16.3863 6.08901C16.524 6.26015 16.6333 6.43375 16.7131 6.60979C16.793 6.78583 16.8435 6.96431 16.8647 7.14524C16.8745 7.2789 16.8704 7.41256 16.8541 7.54296C16.8378 7.67336 16.8077 7.80294 16.7653 7.92682C16.7229 8.0507 16.6691 8.17132 16.6031 8.2846C16.5371 8.39789 16.4597 8.50547 16.3716 8.60408L16.3562 8.6212L16.3407 8.63831L16.3252 8.65543L16.3097 8.67091ZM16.674 10.8209C16.6275 10.9448 16.5689 11.0629 16.4996 11.1738C16.4303 11.2846 16.3496 11.3881 16.26 11.4826C16.1703 11.5772 16.0709 11.6628 15.9641 11.7377C15.8574 11.8127 15.7425 11.8771 15.621 11.9293C15.5681 11.9496 15.5151 11.9676 15.4605 11.9831C15.4059 11.9985 15.3504 12.0108 15.2942 12.0214C15.238 12.032 15.1809 12.0393 15.1231 12.0442C15.0652 12.0491 15.0057 12.0515 14.9462 12.0515C14.8085 12.0515 14.665 12.0385 14.5159 12.0116C14.3667 11.9847 14.2119 11.9456 14.0522 11.8926C13.8924 11.8396 13.727 11.7736 13.5566 11.6945C13.3863 11.6155 13.2111 11.5234 13.031 11.4183L12.9861 11.3914L12.9421 11.3661L12.8981 11.3408L12.8541 11.3156L12.8883 11.2781L12.9226 11.2406L12.9568 11.2031L12.991 11.1656C13.1826 10.957 13.3725 10.7744 13.5607 10.6171C13.749 10.4598 13.9348 10.3294 14.1182 10.2243C14.3015 10.1192 14.4833 10.0401 14.6618 9.98795C14.8403 9.93497 15.0163 9.90889 15.1891 9.90889C15.1989 9.90889 15.2086 9.90889 15.2176 9.90889C15.2266 9.90889 15.2363 9.90889 15.2461 9.90971C15.2559 9.91052 15.2673 9.91134 15.2763 9.91134C15.2852 9.91134 15.295 9.91215 15.3048 9.91297C15.4385 9.92764 15.5689 9.95535 15.6944 9.9961C15.8199 10.0368 15.9413 10.089 16.0562 10.1534C16.1711 10.2178 16.2787 10.2928 16.3782 10.3783C16.4776 10.4639 16.5689 10.5593 16.6504 10.6644L16.6642 10.6823L16.6781 10.7003L16.6919 10.7182L16.7058 10.7361L16.6976 10.7573L16.6895 10.7785L16.6822 10.7997L16.674 10.8209ZM21.7954 15.7434V16.0825V16.4215V16.7606V17.0996V17.1404V17.1811V17.2218V17.2626H21.7547H21.7139H21.6732H21.6324H19.2494H16.8663H14.4833H12.1002H12.0595H12.0187H11.978H11.9372V17.2218V17.1811V17.1404V17.0996V16.7606V16.4215V16.0825V15.7434V15.7027V15.6619V15.6212V15.5804H11.978H12.0187H12.0595H12.1002H14.4833H16.8663H19.2494H21.6324H21.6732H21.7139H21.7547H21.7954V15.6212V15.6619V15.7027V15.7434Z" fill="#4D4D4D"/>
</svg>
