<svg width="30" height="30" viewBox="0 0 30 30" fill="none" xmlns="http://www.w3.org/2000/svg">
<g clip-path="url(#clip0)">
<rect width="30" height="30" fill="white"/>
<path d="M3.99255 16.5516C3.95565 16.2932 4.13557 16.0551 4.39393 16.0182C4.65136 15.9822 4.89034 16.1622 4.92633 16.4196C4.96232 16.678 4.78239 16.916 4.52588 16.9529C4.2666 16.9889 4.02854 16.809 3.99255 16.5516ZM29.5598 29.558H0.441976V16.9271C0.889489 17.1126 1.46249 17.2842 2.09731 17.2842C2.33814 17.2842 2.58727 17.2463 2.83732 17.1873L2.94528 17.9568L2.96835 18.1238L3.84307 18.8694L4.10789 20.7517L7.77657 20.235L6.61027 11.9648L2.94251 12.4824L3.20733 14.3638L2.57343 15.3225L2.59742 15.4904L2.71091 16.295C1.83527 16.5359 0.930088 16.1917 0.441976 15.9426V0.441105H29.5598V29.558ZM0 30H30V4.24782e-05H0V30Z" fill="#656263"/>
<path d="M25.4756 13.0481C25.7339 13.0111 25.9729 13.1902 26.0089 13.4485C26.0449 13.7069 25.865 13.9449 25.6075 13.9818C25.3492 14.0187 25.1111 13.8379 25.0751 13.5804C25.0382 13.3221 25.2172 13.084 25.4756 13.0481ZM27.058 17.5176L26.7932 15.6362L27.4271 14.6775L27.4031 14.5105L27.2343 13.3101L27.225 13.2437L27.0552 12.0432L27.0322 11.8762L26.1584 11.1307L25.8926 9.24835L22.2249 9.76506L23.3903 18.0353L27.058 17.5176Z" fill="#656263"/>
<path d="M16.6484 13.7008L14.6443 17.9951C14.612 18.0569 14.5603 18.0883 14.4874 18.0883C14.4782 18.0883 14.4607 18.0855 14.4367 18.08C14.3942 18.0689 14.3619 18.044 14.3416 18.0098C14.3204 17.9757 14.3149 17.9388 14.325 17.8982L15.0558 14.9003L13.549 15.2749C13.5389 15.2777 13.525 15.2777 13.5047 15.2777C13.4604 15.2777 13.4217 15.2648 13.3894 15.238C13.3451 15.2002 13.3285 15.1522 13.3414 15.0932L14.087 12.0307C14.0971 11.9956 14.1174 11.968 14.146 11.9458C14.1765 11.9237 14.2106 11.9117 14.2503 11.9117H15.4673C15.5153 11.9117 15.555 11.9283 15.5873 11.9587C15.6196 11.9901 15.6353 12.0261 15.6353 12.0676C15.6353 12.0888 15.6288 12.1101 15.6168 12.135L14.982 13.853L16.4509 13.4895C16.4712 13.4849 16.486 13.4821 16.4961 13.4821C16.5423 13.4821 16.5847 13.5006 16.6226 13.5375C16.6668 13.5873 16.6752 13.6418 16.6484 13.7008ZM21.9512 9.8033L6.88339 11.9264L8.04877 20.1967L23.1166 18.0735L21.9512 9.8033Z" fill="#656263"/>
</g>
<defs>
<clipPath id="clip0">
<rect width="30" height="30" fill="white"/>
</clipPath>
</defs>
</svg>
