<svg width="30" height="30" viewBox="0 0 30 30" fill="none" xmlns="http://www.w3.org/2000/svg">
<rect width="30" height="30" fill="white"/>
<path d="M30 30H22.5H15H7.5H0V22.5003V15.0005V7.49975V0H7.5H15H22.5H30V7.49975V14.9995V22.4992V30ZM0.252287 29.7477H7.62614H15H22.3739H29.7477V22.3741V15.0005V7.62589V0.252279H22.3739H15H7.62614H0.252287V7.62589V14.9995V22.3731V29.7477Z" fill="#4D4D4D"/>
<path d="M19.174 7.61201V7.68701V7.76201V7.83701V7.91201V9.34601V10.78V12.214V13.648H19.216H19.258H19.3H19.342V12.119V10.59V9.06001V7.53101C19.342 7.52001 19.34 7.50901 19.335 7.49901C19.331 7.48901 19.325 7.48101 19.317 7.47301C19.309 7.46501 19.3 7.46001 19.29 7.45601C19.28 7.45201 19.269 7.45001 19.257 7.45001H18.49H17.723H16.956H16.19V7.49001V7.53101V7.57201V7.61301H16.861H17.532H18.203H18.874H18.949H19.024H19.099H19.174V7.61201Z" fill="#4D4D4D"/>
<path d="M10.049 15.451V16.107V16.763V17.419V18.075V18.15V18.225V18.3V18.375H9.97398H9.89898H9.82398H9.74898H9.38198H9.01598H8.64998H8.28298H8.20798H8.13298H8.05798H7.98298V18.3V18.225V18.15V18.075V15.534V12.993V10.452V7.91204V7.83704V7.76204V7.68704V7.61204H8.05798H8.13298H8.20798H8.28298H9.05298H9.82298H10.593H11.363V7.57104V7.53104V7.49004V7.44904H10.497H9.63098H8.76498H7.89998C7.88798 7.44904 7.87698 7.45104 7.86698 7.45504C7.85698 7.45904 7.84798 7.46504 7.83998 7.47204C7.83198 7.47904 7.82698 7.48904 7.82298 7.49904C7.81898 7.50904 7.81598 7.51904 7.81598 7.53104V10.263V12.995V15.727V18.459C7.81598 18.47 7.81798 18.481 7.82298 18.491C7.82798 18.501 7.83298 18.509 7.84098 18.517C7.84898 18.525 7.85798 18.53 7.86798 18.534C7.87798 18.538 7.88898 18.54 7.90098 18.54H9.17798H10.455H11.732H13.009V18.499V18.458V18.417V18.376H12.386H11.763H11.14H10.517H10.442H10.367H10.292H10.217V18.301V18.226V18.151V18.076V17.515V16.954V16.393V15.832V15.757V15.682V15.607V15.532H10.292H10.367H10.442H10.517H11.14H11.763H12.386H13.009V15.491V15.45V15.41V15.37H12.29H11.571H10.852H10.133C10.121 15.37 10.11 15.372 10.1 15.376C10.09 15.38 10.081 15.386 10.073 15.393C10.065 15.4 10.059 15.409 10.055 15.419C10.051 15.429 10.049 15.44 10.049 15.451Z" fill="#4D4D4D"/>
<path d="M16.026 8.948C16.014 8.948 16.003 8.95 15.993 8.954C15.983 8.958 15.974 8.964 15.966 8.971C15.958 8.978 15.952 8.987 15.948 8.997C15.944 9.007 15.941 9.017 15.941 9.029V9.506V9.983V10.46V10.937C15.941 10.948 15.943 10.959 15.948 10.969C15.953 10.979 15.958 10.987 15.966 10.995C15.974 11.003 15.983 11.008 15.993 11.012C16.003 11.016 16.014 11.018 16.026 11.018H16.17H16.314H16.458H16.602H16.677H16.752H16.827H16.902V11.093V11.168V11.243V11.318V11.491V11.664V11.837V12.01V12.085V12.16V12.235V12.31H16.827H16.752H16.677H16.602H16.01H15.418H14.826H14.234H14.159H14.084H14.009H13.934V12.235V12.16V12.085V12.01V11.2V10.39V9.58V8.77V8.695V8.62V8.545V8.47H14.009H14.084H14.159H14.234H14.361H14.488H14.615H14.742C14.754 8.47 14.765 8.468 14.775 8.464C14.785 8.46 14.794 8.454 14.802 8.447C14.81 8.44 14.816 8.431 14.82 8.421C14.824 8.411 14.827 8.401 14.827 8.389V7.912V7.435V6.959V6.482C14.827 6.471 14.825 6.46 14.82 6.45C14.815 6.44 14.81 6.432 14.802 6.424C14.794 6.416 14.785 6.411 14.775 6.407C14.765 6.403 14.754 6.401 14.742 6.401H14.263H13.78H13.301H12.822C12.81 6.401 12.799 6.403 12.789 6.407C12.779 6.411 12.77 6.417 12.762 6.424C12.754 6.431 12.748 6.44 12.744 6.45C12.74 6.46 12.737 6.47 12.737 6.482V6.959V7.436V7.913V8.39C12.737 8.401 12.739 8.412 12.744 8.422C12.749 8.432 12.754 8.44 12.762 8.448C12.77 8.456 12.779 8.461 12.789 8.465C12.799 8.469 12.81 8.47 12.821 8.47H12.984H13.147H13.31H13.473H13.548H13.623H13.698H13.773V8.545V8.62V8.695V8.77V9.58V10.39V11.2V12.01V12.085V12.16V12.235V12.31H13.698H13.623H13.548H13.473H12.84H12.209H11.578H10.947H10.872H10.797H10.722H10.647V12.235V12.16V12.085V12.01V11.837V11.664V11.49V11.317V11.242V11.167V11.092V11.017H10.722H10.797H10.872H10.947H11.091H11.235H11.379H11.523C11.535 11.017 11.546 11.015 11.555 11.011C11.564 11.007 11.574 11.001 11.582 10.994C11.59 10.987 11.596 10.978 11.6 10.968C11.604 10.958 11.607 10.948 11.607 10.936V10.459V9.982V9.505V9.029C11.607 9.018 11.605 9.007 11.6 8.997C11.595 8.987 11.59 8.979 11.582 8.971C11.574 8.963 11.565 8.958 11.555 8.954C11.545 8.95 11.534 8.948 11.523 8.948H11.044H10.565H10.086H9.605C9.593 8.948 9.582 8.95 9.573 8.954C9.564 8.958 9.554 8.964 9.546 8.971C9.538 8.978 9.532 8.988 9.528 8.997C9.524 9.006 9.521 9.017 9.521 9.029V9.506V9.983V10.46V10.937C9.521 10.948 9.523 10.959 9.528 10.969C9.533 10.979 9.538 10.987 9.546 10.995C9.554 11.003 9.563 11.008 9.573 11.012C9.583 11.016 9.594 11.018 9.605 11.018H9.749H9.893H10.037H10.181H10.256H10.331H10.406H10.481V11.093V11.168V11.243V11.318V11.587V11.856V12.125V12.394C10.481 12.405 10.483 12.416 10.488 12.426C10.493 12.436 10.498 12.444 10.506 12.452C10.514 12.46 10.523 12.465 10.533 12.469C10.543 12.473 10.554 12.475 10.566 12.475H11.291H12.016H12.741H13.466H13.541H13.616H13.691H13.766V12.55V12.625V12.7V12.775V13.038V13.301V13.564V13.827C13.779 13.82 13.793 13.813 13.807 13.806C13.821 13.799 13.835 13.792 13.848 13.786C13.861 13.78 13.876 13.773 13.89 13.767C13.904 13.761 13.918 13.755 13.933 13.75V13.507V13.264V13.021V12.778V12.7V12.625V12.55V12.475H14.008H14.083H14.158H14.233H14.921H15.609H16.297H16.985C16.997 12.475 17.008 12.473 17.017 12.469C17.027 12.465 17.036 12.459 17.044 12.452C17.052 12.445 17.058 12.436 17.062 12.426C17.066 12.416 17.069 12.406 17.069 12.394V12.125V11.856V11.587V11.318V11.243V11.168V11.093V11.018H17.144H17.219H17.294H17.369H17.513H17.657H17.801H17.945C17.957 11.018 17.968 11.016 17.978 11.012C17.988 11.008 17.997 11.002 18.005 10.995C18.013 10.988 18.019 10.979 18.023 10.969C18.027 10.959 18.03 10.949 18.03 10.937V10.46V9.983V9.505V9.029C18.03 9.018 18.028 9.007 18.023 8.997C18.019 8.987 18.013 8.979 18.005 8.971C17.997 8.963 17.988 8.958 17.978 8.954C17.968 8.95 17.957 8.948 17.945 8.948H17.466H16.987H16.508H16.026ZM9.988 10.854H9.913H9.838H9.763H9.688V10.779V10.704V10.629V10.554V10.268V9.982V9.696V9.41V9.335V9.26V9.185V9.11H9.763H9.838H9.913H9.988H10.276H10.564H10.852H11.14H11.215H11.29H11.365H11.44V9.185V9.26V9.335V9.41V9.696V9.982V10.268V10.554V10.629V10.704V10.779V10.854H11.365H11.29H11.215H11.14H10.852H10.564H10.276H9.988ZM13.197 8.303H13.122H13.047H12.972H12.897V8.228V8.153V8.078V8.003V7.717V7.432V7.146V6.86V6.785V6.71V6.635V6.56H12.972H13.047H13.122H13.197H13.485H13.773H14.061H14.349H14.424H14.499H14.574H14.649V6.635V6.71V6.785V6.86V7.146V7.432V7.718V8.004V8.079V8.154V8.229V8.304H14.574H14.499H14.424H14.349H14.06H13.772H13.484H13.197V8.303ZM17.856 9.41V9.696V9.982V10.268V10.554V10.629V10.704V10.779V10.854H17.781H17.706H17.631H17.556H17.268H16.98H16.692H16.404H16.329H16.254H16.179H16.104V10.779V10.704V10.629V10.554V10.268V9.982V9.696V9.41V9.335V9.26V9.185V9.11H16.179H16.254H16.329H16.404H16.692H16.98H17.268H17.556H17.631H17.706H17.781H17.856V9.185V9.26V9.335V9.41Z" fill="#4D4D4D"/>
<path d="M23.797 10.879H23.479H23.16H22.842H22.524H22.449H22.374H22.299H22.224V10.804V10.729V10.654V10.579V10.214V9.849V9.484V9.119V9.044V8.969V8.894V8.819H22.299H22.374H22.449H22.524H22.842H23.16H23.478H23.796C23.808 8.819 23.819 8.817 23.829 8.813C23.839 8.809 23.848 8.803 23.856 8.796C23.864 8.789 23.87 8.78 23.874 8.77C23.878 8.76 23.881 8.75 23.881 8.738C23.881 8.726 23.879 8.716 23.874 8.706C23.87 8.696 23.864 8.688 23.856 8.68C23.848 8.672 23.84 8.667 23.83 8.662C23.82 8.658 23.809 8.656 23.797 8.656H23.479H23.16H22.842H22.524H22.449H22.374H22.299H22.224V8.581V8.506V8.431V8.356V7.991V7.625V7.26V6.894V6.819V6.744V6.669V6.594H22.299H22.374H22.449H22.524H22.842H23.16H23.478H23.796C23.808 6.594 23.819 6.592 23.829 6.588C23.839 6.584 23.848 6.578 23.856 6.571C23.864 6.564 23.87 6.555 23.874 6.545C23.878 6.535 23.881 6.525 23.881 6.513C23.881 6.501 23.879 6.491 23.874 6.481C23.87 6.471 23.864 6.463 23.856 6.455C23.848 6.447 23.84 6.442 23.83 6.438C23.82 6.434 23.809 6.432 23.797 6.432H23.479H23.16H22.842H22.524H22.449H22.374H22.299H22.224V6.356V6.281V6.206V6.131V5.788V5.445V5.102V4.759C22.224 4.748 22.222 4.737 22.217 4.727C22.213 4.717 22.207 4.709 22.199 4.701C22.191 4.693 22.182 4.688 22.172 4.684C22.162 4.68 22.151 4.678 22.139 4.678H21.738H21.337H20.936H20.535H20.46H20.385H20.31H20.235V4.603V4.528V4.453V4.378V4.054V3.73V3.406V3.082C20.235 3.071 20.233 3.06 20.228 3.05C20.224 3.04 20.218 3.032 20.21 3.024C20.202 3.016 20.193 3.011 20.183 3.007C20.173 3.003 20.162 3.001 20.151 3.001C20.14 3.001 20.128 3.003 20.118 3.007C20.108 3.011 20.099 3.017 20.091 3.024C20.083 3.031 20.08 3.04 20.076 3.05C20.072 3.06 20.069 3.07 20.069 3.082V3.406V3.73V4.054V4.378V4.453V4.528V4.603V4.678H19.994H19.919H19.844H19.769H19.401H19.033H18.665H18.297H18.222H18.147H18.072H17.997V4.603V4.528V4.453V4.378V4.054V3.73V3.406V3.082C17.997 3.071 17.995 3.06 17.99 3.05C17.986 3.04 17.98 3.032 17.972 3.024C17.964 3.016 17.955 3.011 17.945 3.007C17.935 3.003 17.924 3.001 17.913 3.001C17.902 3.001 17.89 3.003 17.88 3.007C17.87 3.011 17.861 3.017 17.853 3.024C17.845 3.031 17.842 3.04 17.838 3.05C17.834 3.06 17.831 3.07 17.831 3.082V3.406V3.73V4.054V4.378V4.453V4.528V4.603V4.678H17.756H17.681H17.606H17.531H17.164H16.797H16.43H16.063H15.988H15.913H15.838H15.763V4.603V4.528V4.453V4.378V4.054V3.73V3.406V3.082C15.763 3.071 15.761 3.06 15.756 3.05C15.751 3.04 15.746 3.032 15.738 3.024C15.73 3.016 15.721 3.011 15.711 3.007C15.701 3.003 15.69 3 15.679 3C15.668 3 15.656 3.002 15.647 3.006C15.638 3.01 15.628 3.016 15.62 3.023C15.612 3.03 15.606 3.04 15.602 3.05C15.598 3.06 15.595 3.07 15.595 3.082V3.406V3.73V4.054V4.378V4.453V4.528V4.603V4.678H15.52H15.445H15.37H15.295H14.927H14.56H14.192H13.824H13.749H13.674H13.599H13.524V4.603V4.528V4.453V4.378V4.054V3.73V3.406V3.082C13.524 3.071 13.522 3.06 13.517 3.05C13.512 3.04 13.507 3.032 13.499 3.024C13.491 3.016 13.482 3.011 13.472 3.007C13.462 3.003 13.452 3 13.44 3C13.428 3 13.417 3.002 13.408 3.006C13.399 3.01 13.389 3.016 13.381 3.023C13.373 3.03 13.368 3.04 13.364 3.05C13.36 3.06 13.357 3.07 13.357 3.082V3.406V3.73V4.054V4.378V4.453V4.528V4.603V4.678H13.282H13.207H13.132H13.057H12.689H12.321H11.953H11.585H11.51H11.435H11.36H11.285V4.603V4.528V4.453V4.378V4.054V3.73V3.406V3.082C11.285 3.071 11.283 3.06 11.278 3.05C11.273 3.04 11.268 3.032 11.26 3.024C11.252 3.016 11.243 3.011 11.233 3.007C11.223 3.003 11.214 3 11.202 3C11.19 3 11.18 3.003 11.17 3.007C11.16 3.011 11.151 3.017 11.143 3.024C11.135 3.031 11.13 3.04 11.125 3.05C11.12 3.06 11.118 3.07 11.118 3.082V3.406V3.73V4.054V4.378V4.453V4.528V4.603V4.678H11.043H10.968H10.893H10.818H10.451H10.084H9.717H9.35H9.275H9.2H9.125H9.05V4.603V4.528V4.453V4.378V4.054V3.73V3.406V3.082C9.05 3.07 9.047 3.06 9.043 3.05C9.039 3.04 9.033 3.032 9.025 3.024C9.017 3.016 9.009 3.011 8.999 3.007C8.989 3.003 8.978 3 8.966 3C8.954 3 8.944 3.003 8.934 3.007C8.924 3.011 8.915 3.017 8.907 3.024C8.899 3.031 8.893 3.04 8.889 3.05C8.885 3.06 8.883 3.07 8.883 3.082V3.406V3.73V4.054V4.378V4.453V4.528V4.603V4.678H8.808H8.733H8.658H8.583H8.215H7.847H7.479H7.112H7.037H6.962H6.887H6.812V4.603V4.528V4.453V4.378V4.054V3.73V3.406V3.082C6.812 3.071 6.81 3.06 6.805 3.05C6.8 3.04 6.795 3.032 6.787 3.024C6.779 3.016 6.77 3.011 6.76 3.007C6.75 3.003 6.739 3 6.728 3C6.717 3 6.705 3.003 6.695 3.007C6.685 3.011 6.676 3.017 6.668 3.024C6.66 3.031 6.655 3.04 6.651 3.05C6.647 3.06 6.644 3.07 6.644 3.082V3.406V3.73V4.054V4.378V4.453V4.528V4.603V4.678H6.569H6.494H6.419H6.344H6.013H5.681H5.349H5.017C5.005 4.678 4.994 4.68 4.985 4.684C4.976 4.688 4.966 4.694 4.958 4.701C4.95 4.708 4.944 4.718 4.94 4.727C4.936 4.736 4.933 4.747 4.933 4.759V5.102V5.445V5.788V6.131V6.206V6.281V6.356V6.431H4.859H4.784H4.709H4.634H4.246H3.859H3.471H3.084C3.072 6.431 3.061 6.433 3.052 6.437C3.043 6.441 3.033 6.447 3.025 6.454C3.017 6.461 3.011 6.471 3.007 6.481C3.003 6.491 3 6.502 3 6.513C3 6.524 3.002 6.535 3.007 6.545C3.012 6.555 3.017 6.563 3.025 6.571C3.033 6.579 3.042 6.584 3.052 6.588C3.062 6.592 3.073 6.594 3.084 6.594H3.471H3.858H4.245H4.632H4.707H4.782H4.857H4.932V6.669V6.744V6.819V6.894V7.26V7.626V7.992V8.358V8.433V8.508V8.583V8.658H4.859H4.784H4.709H4.634H4.246H3.859H3.471H3.084C3.072 8.658 3.061 8.66 3.052 8.664C3.043 8.668 3.033 8.674 3.025 8.681C3.017 8.688 3.011 8.698 3.007 8.708C3.003 8.718 3 8.728 3 8.739C3 8.75 3.002 8.761 3.007 8.771C3.012 8.781 3.017 8.789 3.025 8.797C3.033 8.805 3.041 8.81 3.051 8.814C3.061 8.818 3.072 8.82 3.084 8.82H3.471H3.858H4.245H4.632H4.707H4.782H4.857H4.932V8.895V8.97V9.045V9.12V9.486V9.852V10.218V10.584V10.659V10.734V10.809V10.884H4.859H4.784H4.709H4.634H4.246H3.859H3.471H3.084C3.072 10.884 3.061 10.886 3.052 10.89C3.043 10.894 3.033 10.9 3.025 10.907C3.017 10.914 3.011 10.923 3.007 10.933C3.003 10.943 3 10.953 3 10.965C3 10.977 3.002 10.987 3.007 10.997C3.012 11.007 3.017 11.015 3.025 11.023C3.033 11.031 3.042 11.036 3.052 11.04C3.062 11.044 3.073 11.046 3.084 11.046H3.471H3.858H4.245H4.632H4.707H4.782H4.857H4.932V11.121V11.196V11.271V11.346V11.71V12.074V12.438V12.802V12.877V12.952V13.027V13.102H4.859H4.784H4.709H4.634H4.246H3.859H3.471H3.084C3.072 13.102 3.061 13.104 3.052 13.108C3.043 13.112 3.033 13.118 3.025 13.125C3.017 13.132 3.011 13.141 3.007 13.151C3.003 13.161 3 13.171 3 13.183C3 13.195 3.002 13.205 3.007 13.215C3.012 13.225 3.017 13.233 3.025 13.241C3.033 13.249 3.042 13.254 3.052 13.258C3.062 13.262 3.073 13.264 3.084 13.264H3.471H3.858H4.245H4.632H4.707H4.782H4.857H4.932V13.339V13.414V13.489V13.564V13.93V14.296V14.662V15.028V15.103V15.178V15.253V15.328H4.859H4.784H4.709H4.634H4.246H3.859H3.471H3.084C3.072 15.328 3.061 15.33 3.052 15.334C3.043 15.338 3.033 15.344 3.025 15.351C3.017 15.358 3.011 15.367 3.007 15.377C3.003 15.387 3 15.4 3 15.411C3 15.422 3.002 15.433 3.007 15.443C3.012 15.453 3.017 15.461 3.025 15.469C3.033 15.477 3.042 15.482 3.052 15.486C3.062 15.49 3.073 15.492 3.084 15.492H3.471H3.858H4.245H4.632H4.707H4.782H4.857H4.932V15.567V15.642V15.717V15.792V16.158V16.524V16.89V17.256V17.331V17.406V17.481V17.556H4.859H4.784H4.709H4.634H4.246H3.859H3.471H3.084C3.072 17.556 3.061 17.558 3.052 17.562C3.043 17.566 3.033 17.572 3.025 17.579C3.017 17.586 3.011 17.595 3.007 17.605C3.003 17.615 3 17.625 3 17.637C3 17.649 3.002 17.659 3.007 17.669C3.012 17.679 3.017 17.687 3.025 17.695C3.033 17.703 3.042 17.708 3.052 17.712C3.062 17.716 3.073 17.718 3.084 17.718H3.471H3.858H4.245H4.632H4.707H4.782H4.857H4.932V17.793V17.868V17.943V18.018V18.382V18.746V19.11V19.474V19.549V19.624V19.699V19.774H4.859H4.784H4.709H4.634H4.246H3.859H3.471H3.084C3.072 19.774 3.061 19.776 3.052 19.78C3.043 19.784 3.033 19.79 3.025 19.797C3.017 19.804 3.011 19.813 3.007 19.823C3.003 19.833 3 19.843 3 19.855C3 19.867 3.002 19.877 3.007 19.887C3.012 19.897 3.017 19.905 3.025 19.913C3.033 19.921 3.042 19.926 3.052 19.93C3.062 19.934 3.073 19.936 3.084 19.936H3.471H3.858H4.245H4.632H4.707H4.782H4.857H4.932V20.011V20.086V20.161V20.236V20.484V20.732V20.98V21.228C4.932 21.239 4.934 21.25 4.939 21.26C4.944 21.27 4.949 21.278 4.957 21.286C4.965 21.294 4.974 21.299 4.984 21.303C4.994 21.307 5.005 21.309 5.016 21.309H5.348H5.68H6.012H6.344H6.419H6.494H6.569H6.644V21.384V21.46V21.535V21.61V22.029V22.448V22.867V23.286C6.644 23.297 6.646 23.308 6.651 23.318C6.656 23.328 6.661 23.336 6.669 23.344C6.677 23.352 6.686 23.357 6.696 23.361C6.706 23.365 6.717 23.367 6.729 23.367C6.741 23.367 6.752 23.365 6.761 23.361C6.77 23.357 6.78 23.351 6.788 23.344C6.796 23.337 6.802 23.328 6.806 23.318C6.81 23.308 6.813 23.298 6.813 23.286V22.867V22.448V22.029V21.61V21.535V21.46V21.385V21.31H6.888H6.963H7.038H7.113H7.481H7.849H8.217H8.585H8.66H8.735H8.81H8.885V21.385V21.46V21.535V21.61V22.029V22.448V22.867V23.286C8.885 23.296 8.888 23.306 8.893 23.315C8.898 23.324 8.905 23.333 8.913 23.341C8.921 23.349 8.93 23.355 8.94 23.36C8.95 23.365 8.96 23.367 8.969 23.367C8.98 23.367 8.991 23.365 9.001 23.361C9.011 23.357 9.02 23.351 9.028 23.344C9.036 23.337 9.042 23.328 9.046 23.318C9.05 23.308 9.053 23.298 9.053 23.286V22.867V22.448V22.029V21.61V21.535V21.46V21.385V21.31H9.128H9.2H9.275H9.35H9.718H10.086H10.454H10.822H10.897H10.972H11.047H11.122V21.385V21.46V21.535V21.61V22.029V22.448V22.867V23.286C11.122 23.297 11.124 23.308 11.129 23.318C11.134 23.328 11.139 23.336 11.147 23.344C11.155 23.352 11.164 23.357 11.174 23.361C11.184 23.365 11.195 23.367 11.207 23.367C11.219 23.367 11.23 23.365 11.239 23.361C11.248 23.357 11.258 23.351 11.266 23.344C11.274 23.337 11.28 23.328 11.284 23.318C11.288 23.308 11.291 23.298 11.291 23.286V22.867V22.448V22.029V21.61V21.535V21.46V21.385V21.31H11.366H11.441H11.516H11.591H11.946H12.301H12.656H13.011V21.269V21.228V21.187V21.146H11.11H9.203H7.302H5.401H5.326H5.251H5.176H5.101V21.071V20.996V20.921V20.846V16.919V12.992V9.067V5.14V5.065V4.99V4.915V4.84H5.176H5.251H5.326H5.401H9.49H13.579H17.668H21.757H21.832H21.907H21.982H22.057V4.915V4.99V5.065V5.14V7.267V9.394V11.521V13.648H22.099H22.141H22.183H22.225V13.628V13.608V13.588V13.568V13.493V13.418V13.343V13.268H22.3H22.375H22.45H22.525H22.843H23.161H23.479H23.797C23.809 13.268 23.82 13.266 23.83 13.262C23.84 13.258 23.849 13.252 23.857 13.245C23.865 13.238 23.871 13.229 23.875 13.219C23.879 13.209 23.882 13.199 23.882 13.187C23.882 13.175 23.88 13.165 23.875 13.155C23.871 13.145 23.865 13.137 23.857 13.129C23.849 13.121 23.84 13.116 23.83 13.112C23.82 13.108 23.809 13.106 23.797 13.106H23.479H23.16H22.842H22.524H22.449H22.374H22.299H22.224V13.031V12.956V12.881V12.806V12.44V12.074V11.708V11.342V11.267V11.192V11.117V11.042H22.299H22.374H22.449H22.524H22.842H23.16H23.478H23.796C23.808 11.042 23.819 11.04 23.829 11.036C23.839 11.032 23.848 11.026 23.856 11.019C23.864 11.012 23.87 11.003 23.874 10.993C23.878 10.983 23.881 10.973 23.881 10.961C23.881 10.949 23.879 10.939 23.874 10.929C23.87 10.919 23.864 10.911 23.856 10.903C23.848 10.895 23.839 10.89 23.829 10.886C23.82 10.881 23.809 10.879 23.797 10.879Z" fill="#4D4D4D"/>
<path d="M14.457 15.009C14.445 15.009 14.434 15.011 14.425 15.015C14.416 15.019 14.406 15.025 14.398 15.032C14.39 15.039 14.384 15.048 14.38 15.058C14.376 15.068 14.373 15.078 14.373 15.09V17.997V20.904V23.811V26.718C14.373 26.729 14.375 26.74 14.38 26.75C14.385 26.76 14.39 26.768 14.398 26.776C14.406 26.784 14.415 26.789 14.425 26.793C14.435 26.797 14.446 26.799 14.457 26.799H17.559H20.661H23.763H26.865C26.877 26.799 26.888 26.797 26.898 26.793C26.908 26.789 26.917 26.783 26.925 26.776C26.933 26.769 26.939 26.76 26.943 26.75C26.947 26.74 26.95 26.73 26.95 26.718V23.811V20.904V17.997V15.09C26.95 15.079 26.948 15.068 26.943 15.058C26.939 15.048 26.933 15.04 26.925 15.032C26.917 15.024 26.908 15.019 26.898 15.015C26.888 15.011 26.877 15.009 26.865 15.009H23.763H20.661H17.559H14.457ZM26.782 15.472V18.188V20.904V23.62V26.336V26.411V26.486V26.561V26.636H26.707H26.632H26.557H26.482H23.572H20.662H17.752H14.842H14.767H14.692H14.617H14.542V26.561V26.486V26.411V26.336V23.62V20.904V18.188V15.472V15.397V15.322V15.247V15.172H14.617H14.692H14.767H14.842H17.752H20.662H23.572H26.482H26.557H26.632H26.707H26.782V15.247V15.322V15.397V15.472Z" fill="#4D4D4D"/>
<path d="M26.949 20.329C26.806 20.326 26.682 20.335 26.574 20.353C26.466 20.371 26.374 20.397 26.295 20.429C26.216 20.461 26.148 20.498 26.09 20.536C26.032 20.574 25.982 20.615 25.938 20.654C25.9 20.687 25.864 20.719 25.827 20.747C25.79 20.775 25.75 20.8 25.705 20.82C25.66 20.84 25.608 20.857 25.545 20.868C25.483 20.879 25.409 20.885 25.321 20.885C25.233 20.885 25.16 20.879 25.097 20.868C25.035 20.857 24.983 20.841 24.937 20.82C24.891 20.8 24.852 20.775 24.815 20.747C24.778 20.719 24.742 20.688 24.703 20.654C24.659 20.615 24.612 20.574 24.559 20.535C24.506 20.495 24.446 20.457 24.375 20.423C24.304 20.389 24.223 20.36 24.127 20.34C24.031 20.32 23.921 20.308 23.792 20.308C23.663 20.308 23.553 20.32 23.458 20.34C23.363 20.36 23.281 20.389 23.21 20.423C23.139 20.457 23.079 20.495 23.026 20.535C22.972 20.575 22.926 20.616 22.881 20.654C22.843 20.687 22.807 20.719 22.77 20.747C22.733 20.775 22.693 20.8 22.648 20.82C22.603 20.84 22.551 20.857 22.488 20.868C22.426 20.879 22.353 20.885 22.265 20.885C22.177 20.885 22.104 20.879 22.041 20.868C21.979 20.857 21.927 20.841 21.881 20.82C21.835 20.8 21.796 20.775 21.759 20.747C21.722 20.719 21.686 20.688 21.648 20.654C21.604 20.615 21.557 20.574 21.503 20.535C21.449 20.495 21.389 20.457 21.319 20.423C21.248 20.389 21.167 20.36 21.072 20.34C20.977 20.32 20.866 20.308 20.737 20.308C20.608 20.308 20.498 20.32 20.402 20.34C20.306 20.36 20.225 20.389 20.154 20.423C20.083 20.457 20.023 20.495 19.97 20.535C19.917 20.575 19.87 20.616 19.826 20.654C19.788 20.687 19.752 20.719 19.714 20.747C19.676 20.775 19.637 20.8 19.592 20.82C19.546 20.84 19.495 20.857 19.432 20.868C19.37 20.879 19.297 20.885 19.208 20.885C19.12 20.885 19.047 20.879 18.984 20.868C18.922 20.857 18.87 20.841 18.824 20.82C18.778 20.8 18.739 20.775 18.702 20.747C18.665 20.719 18.629 20.688 18.59 20.654C18.546 20.615 18.499 20.574 18.446 20.535C18.393 20.495 18.332 20.457 18.262 20.423C18.191 20.389 18.11 20.36 18.014 20.34C17.918 20.32 17.808 20.308 17.679 20.308C17.551 20.308 17.44 20.32 17.345 20.34C17.249 20.36 17.168 20.389 17.097 20.423C17.026 20.457 16.966 20.495 16.913 20.535C16.86 20.575 16.813 20.616 16.769 20.654C16.731 20.687 16.695 20.719 16.657 20.747C16.62 20.775 16.58 20.8 16.535 20.82C16.489 20.84 16.438 20.857 16.375 20.868C16.313 20.879 16.239 20.885 16.151 20.885C16.063 20.885 15.989 20.879 15.927 20.868C15.865 20.857 15.813 20.841 15.767 20.82C15.721 20.8 15.682 20.775 15.645 20.747C15.608 20.719 15.572 20.688 15.534 20.654C15.49 20.615 15.441 20.567 15.381 20.517C15.322 20.467 15.253 20.414 15.169 20.366C15.085 20.318 14.986 20.275 14.868 20.245C14.75 20.215 14.612 20.196 14.45 20.197" stroke="#4D4D4D" stroke-width="0.25" stroke-miterlimit="10"/>
</svg>
