<svg width="30" height="30" viewBox="0 0 30 30" fill="none" xmlns="http://www.w3.org/2000/svg">
<rect width="30" height="30" fill="white"/>
<path d="M30 30H22.5H15H7.5H0V22.5003V15.0005V7.49975V0H7.5H15H22.5H30V7.49975V14.9995V22.4992V30ZM0.252287 29.7477H7.62614H15H22.3739H29.7477V22.3741V15.0005V7.62589V0.252279H22.3739H15H7.62614H0.252287V7.62589V14.9995V22.3731V29.7477Z" fill="#4D4D4D"/>
<path d="M7.628 6.474H7.381H7.134H6.886H6.639H6.556H6.474H6.391H6.309V6.391V6.309V6.226V6.144V5.649V5.154V4.66V4.165C6.309 4.142 6.304 4.121 6.296 4.101C6.288 4.081 6.275 4.063 6.26 4.048C6.245 4.033 6.228 4.021 6.208 4.013C6.188 4.005 6.167 4 6.144 4C6.121 4 6.1 4.005 6.08 4.013C6.06 4.021 6.043 4.033 6.028 4.048C6.013 4.063 6.001 4.081 5.992 4.101C5.983 4.121 5.979 4.142 5.979 4.165V4.66V5.155V5.65V6.145V6.228V6.311V6.394V6.477H5.897H5.814H5.732H5.649H5.402H5.155H4.907H4.66C4.569 6.477 4.482 6.495 4.404 6.529C4.326 6.563 4.254 6.611 4.194 6.67C4.134 6.729 4.086 6.801 4.053 6.88C4.02 6.959 4 7.042 4 7.133V7.38V7.627V7.874V8.121C4 8.212 4.018 8.299 4.052 8.377C4.086 8.455 4.134 8.527 4.193 8.587C4.252 8.647 4.324 8.695 4.403 8.728C4.482 8.761 4.569 8.782 4.66 8.782H4.907H5.155H5.402H5.649H5.732H5.815H5.898H5.981V8.865V8.948V9.031V9.112V13.317V17.522V21.727V25.932C5.981 25.955 5.986 25.976 5.994 25.996C6.002 26.016 6.014 26.033 6.029 26.048C6.044 26.063 6.062 26.075 6.081 26.083C6.1 26.091 6.122 26.096 6.145 26.096C6.168 26.096 6.189 26.091 6.209 26.083C6.229 26.075 6.246 26.063 6.261 26.048C6.276 26.033 6.288 26.015 6.296 25.996C6.304 25.977 6.309 25.955 6.309 25.932V21.727V17.522V13.317V9.112V9.03V8.947V8.865V8.782H6.392H6.475H6.558H6.641H6.888H7.135H7.382H7.629C7.72 8.782 7.807 8.764 7.885 8.73C7.963 8.696 8.035 8.648 8.095 8.589C8.155 8.53 8.203 8.458 8.236 8.379C8.269 8.3 8.288 8.213 8.288 8.123V7.875V7.628V7.381V7.133C8.288 7.042 8.27 6.955 8.236 6.877C8.202 6.799 8.154 6.727 8.095 6.667C8.036 6.607 7.964 6.559 7.885 6.526C7.806 6.493 7.719 6.474 7.628 6.474ZM7.629 8.453H6.887H6.144H5.402H4.66H4.577H4.495H4.412H4.33V8.37V8.288V8.205V8.123V7.875V7.628V7.381V7.133V7.051V6.968V6.886V6.803H4.413H4.495H4.578H4.661H5.403H6.145H6.887H7.629H7.711H7.793H7.875H7.957V6.885V6.967V7.049V7.131V7.378V7.625V7.872V8.119V8.202V8.285V8.368V8.451H7.876H7.794H7.711H7.629V8.453Z" fill="#4D4D4D"/>
<path d="M13.565 21.316H13.318H13.071H12.824H12.577H12.494H12.411H12.328H12.245V21.233V21.15V21.067V20.984V16.779V12.574V8.37V4.165C12.245 4.142 12.24 4.121 12.232 4.101C12.224 4.081 12.212 4.064 12.197 4.049C12.182 4.034 12.165 4.021 12.145 4.013C12.125 4.005 12.104 4 12.081 4C12.058 4 12.037 4.005 12.017 4.013C11.997 4.021 11.98 4.033 11.965 4.048C11.95 4.063 11.938 4.081 11.93 4.1C11.922 4.119 11.917 4.141 11.917 4.164V8.369V12.574V16.779V20.984V21.067V21.15V21.233V21.316H11.834H11.751H11.668H11.585H11.338H11.091H10.844H10.597C10.506 21.316 10.419 21.334 10.341 21.368C10.262 21.401 10.191 21.45 10.131 21.509C10.071 21.568 10.023 21.64 9.99002 21.719C9.95702 21.798 9.93802 21.885 9.93802 21.975V22.222V22.469V22.716V22.963C9.93802 23.054 9.95602 23.141 9.99002 23.219C10.024 23.297 10.072 23.369 10.131 23.429C10.19 23.489 10.262 23.537 10.341 23.57C10.42 23.603 10.507 23.622 10.597 23.622H10.844H11.091H11.338H11.585H11.668H11.751H11.834H11.917V23.704V23.786V23.868V23.95V24.445V24.94V25.435V25.93C11.917 25.953 11.922 25.974 11.93 25.994C11.938 26.014 11.95 26.031 11.965 26.046C11.98 26.061 11.998 26.073 12.017 26.081C12.036 26.089 12.058 26.094 12.081 26.094C12.104 26.094 12.125 26.089 12.145 26.081C12.165 26.073 12.182 26.061 12.197 26.046C12.212 26.031 12.224 26.013 12.232 25.994C12.24 25.975 12.245 25.953 12.245 25.93V25.435V24.94V24.445V23.95V23.868V23.786V23.704V23.622H12.328H12.411H12.494H12.577H12.824H13.071H13.318H13.565C13.656 23.622 13.743 23.604 13.821 23.57C13.899 23.536 13.971 23.488 14.031 23.429C14.091 23.37 14.139 23.298 14.172 23.219C14.205 23.14 14.224 23.053 14.224 22.963V22.716V22.469V22.222V21.975C14.224 21.884 14.206 21.797 14.172 21.719C14.139 21.64 14.09 21.569 14.031 21.509C13.972 21.449 13.9 21.401 13.821 21.368C13.743 21.334 13.656 21.316 13.565 21.316ZM13.565 23.294H12.823H12.081H11.339H10.597H10.514H10.431H10.348H10.265V23.212V23.129V23.046V22.963V22.716V22.469V22.222V21.975V21.892V21.809V21.726V21.643H10.348H10.431H10.514H10.597H11.339H12.081H12.823H13.565H13.647H13.729H13.811H13.893V21.725V21.807V21.889V21.971V22.218V22.465V22.712V22.959V23.042V23.125V23.208V23.291H13.81H13.727H13.644H13.565V23.294Z" fill="#4D4D4D"/>
<path d="M19.502 11.421H19.255H19.008H18.761H18.514H18.431H18.348H18.265H18.182V11.338V11.255V11.172V11.089V9.35904V7.62804V5.89604V4.16504C18.182 4.14204 18.177 4.12104 18.169 4.10104C18.161 4.08104 18.149 4.06404 18.134 4.04904C18.119 4.03404 18.101 4.02204 18.082 4.01404C18.063 4.00604 18.041 4.00104 18.018 4.00104C17.995 4.00104 17.974 4.00604 17.954 4.01404C17.934 4.02204 17.917 4.03404 17.902 4.04904C17.887 4.06404 17.875 4.08204 17.867 4.10104C17.859 4.12004 17.854 4.14204 17.854 4.16504V5.89704V7.62904V9.36104V11.093V11.176V11.259V11.342V11.425H17.771H17.688H17.605H17.522H17.275H17.028H16.781H16.534C16.443 11.425 16.356 11.443 16.278 11.477C16.2 11.511 16.128 11.559 16.068 11.618C16.008 11.677 15.96 11.749 15.927 11.828C15.894 11.907 15.875 11.994 15.875 12.084V12.331V12.578V12.825V13.072C15.875 13.163 15.893 13.25 15.927 13.328C15.961 13.406 16.009 13.478 16.068 13.538C16.127 13.598 16.199 13.646 16.278 13.679C16.357 13.712 16.444 13.731 16.534 13.731H16.781H17.028H17.275H17.522H17.605H17.688H17.771H17.854V13.814V13.897V13.98V14.063V17.031V19.999V22.967V25.935C17.854 25.958 17.859 25.979 17.867 25.999C17.875 26.019 17.887 26.036 17.902 26.051C17.917 26.066 17.935 26.078 17.954 26.086C17.973 26.094 17.995 26.099 18.018 26.099C18.041 26.099 18.062 26.094 18.082 26.086C18.102 26.078 18.119 26.066 18.134 26.051C18.149 26.036 18.161 26.018 18.169 25.999C18.177 25.98 18.182 25.958 18.182 25.935V22.967V19.999V17.031V14.063V13.98V13.897V13.812V13.729H18.265H18.348H18.431H18.514H18.761H19.008H19.255H19.502C19.593 13.729 19.68 13.711 19.758 13.677C19.836 13.643 19.908 13.595 19.968 13.536C20.028 13.477 20.076 13.405 20.109 13.326C20.142 13.247 20.161 13.16 20.161 13.07V12.823V12.576V12.329V12.082C20.161 11.991 20.143 11.904 20.109 11.826C20.075 11.748 20.027 11.676 19.968 11.616C19.909 11.556 19.837 11.508 19.758 11.475C19.679 11.442 19.593 11.421 19.502 11.421ZM19.502 13.4H18.76H18.018H17.276H16.534H16.451H16.368H16.285H16.202V13.318V13.236V13.152V13.07V12.823V12.576V12.329V12.082V12V11.918V11.836V11.754H16.285H16.368H16.451H16.534H17.276H18.018H18.76H19.502H19.584H19.666H19.748H19.83V11.836V11.918V12V12.082V12.329V12.576V12.823V13.07V13.153V13.236V13.319V13.402H19.747H19.664H19.585H19.502V13.4Z" fill="#4D4D4D"/>
<path d="M25.438 16.368H25.191H24.944H24.697H24.45H24.367H24.284H24.201H24.118V16.285V16.202V16.119V16.036V13.068V10.102V7.13304V4.16504C24.118 4.14204 24.113 4.12104 24.105 4.10104C24.097 4.08104 24.085 4.06404 24.07 4.04904C24.055 4.03404 24.037 4.02204 24.018 4.01404C23.999 4.00604 23.977 4.00104 23.954 4.00104C23.931 4.00104 23.91 4.00604 23.89 4.01404C23.87 4.02204 23.853 4.03404 23.838 4.04904C23.823 4.06404 23.811 4.08204 23.803 4.10104C23.795 4.12004 23.79 4.14204 23.79 4.16504V7.13304V10.101V13.069V16.037V16.12V16.203V16.286V16.369H23.707H23.624H23.541H23.458H23.211H22.965H22.718H22.471C22.38 16.369 22.293 16.387 22.215 16.421C22.136 16.454 22.065 16.503 22.005 16.562C21.945 16.621 21.897 16.693 21.864 16.772C21.831 16.851 21.812 16.938 21.812 17.028V17.275V17.522V17.769V18.016C21.812 18.107 21.83 18.194 21.864 18.272C21.898 18.35 21.946 18.422 22.005 18.482C22.064 18.542 22.136 18.59 22.215 18.623C22.294 18.656 22.381 18.675 22.471 18.675H22.718H22.965H23.212H23.459H23.542H23.625H23.708H23.791V18.758V18.841V18.924V19.007V20.739V22.471V24.203V25.935C23.791 25.958 23.796 25.979 23.804 25.999C23.812 26.019 23.824 26.036 23.839 26.051C23.854 26.066 23.872 26.078 23.891 26.086C23.91 26.094 23.932 26.099 23.955 26.099C23.978 26.099 23.999 26.094 24.019 26.086C24.039 26.078 24.056 26.066 24.071 26.051C24.086 26.036 24.098 26.018 24.106 25.999C24.114 25.98 24.119 25.958 24.119 25.935V24.203V22.471V20.739V19.007V18.924V18.842V18.759V18.676H24.202H24.285H24.368H24.451H24.698H24.945H25.192H25.439C25.53 18.676 25.617 18.658 25.695 18.624C25.773 18.59 25.845 18.542 25.905 18.483C25.965 18.424 26.013 18.352 26.046 18.273C26.079 18.194 26.098 18.107 26.098 18.017V17.77V17.522V17.275V17.028C26.098 16.937 26.08 16.85 26.046 16.772C26.013 16.693 25.964 16.622 25.905 16.562C25.846 16.502 25.774 16.454 25.695 16.421C25.616 16.387 25.529 16.368 25.438 16.368ZM25.439 18.347H24.697H23.955H23.213H22.471H22.388H22.305H22.222H22.139V18.264V18.182V18.099V18.016V17.769V17.522V17.275V17.028V16.946V16.864V16.782V16.7H22.222H22.305H22.388H22.471H23.213H23.955H24.697H25.439H25.521H25.603H25.685H25.767V16.782V16.864V16.946V17.028V17.275V17.522V17.769V18.016V18.099V18.182V18.265V18.348H25.684H25.601H25.518H25.439V18.347Z" fill="#4D4D4D"/>
</svg>
