<svg width="30" height="30" viewBox="0 0 30 30" fill="none" xmlns="http://www.w3.org/2000/svg">
<rect width="30" height="30" fill="white"/>
<path d="M30 30H22.5H15H7.5H0V22.5003V15.0005V7.49975V0H7.5H15H22.5H30V7.49975V14.9995V22.4992V30ZM0.252287 29.7477H7.62614H15H22.3739H29.7477V22.3741V15.0005V7.62589V0.252279H22.3739H15H7.62614H0.252287V7.62589V14.9995V22.3731V29.7477Z" fill="#4D4D4D"/>
<path d="M22.6092 23.1058H18.8034H14.9977H11.1919H7.38848C7.05971 23.1058 6.74605 23.0385 6.46027 22.9176C6.17449 22.7968 5.91775 22.6214 5.70051 22.4053C5.48327 22.1892 5.30902 21.9313 5.1882 21.6456C5.06738 21.3598 5 21.0461 5 20.7174V18.4753V16.232V13.9887V11.7455C5 11.4167 5.06738 11.103 5.1882 10.8173C5.30902 10.5315 5.48443 10.2747 5.70051 10.0587C5.91659 9.84259 6.17449 9.66717 6.46027 9.54635C6.74605 9.42553 7.05971 9.35815 7.38848 9.35815H11.1942H15H18.8058H22.6115C22.9403 9.35815 23.254 9.42553 23.5397 9.54635C23.8255 9.66717 24.0822 9.84259 24.2995 10.0587C24.5167 10.2747 24.691 10.5326 24.8118 10.8173C24.9326 11.1019 25 11.4167 25 11.7455V13.9887V16.232V18.4753V20.7185C25 21.0473 24.9326 21.3609 24.8118 21.6467C24.691 21.9325 24.5156 22.1892 24.2995 22.4065C24.0834 22.6237 23.8232 22.7968 23.5374 22.9176C23.2516 23.0385 22.938 23.1058 22.6092 23.1058ZM7.38848 9.64974C7.09921 9.64974 6.82388 9.70899 6.57296 9.81471C6.32203 9.92042 6.09549 10.0749 5.90613 10.2643C5.71678 10.4536 5.56227 10.6802 5.45655 10.9311C5.35084 11.182 5.29159 11.4574 5.29159 11.7466V13.9899V16.2332V18.4764V20.7197C5.29159 21.0089 5.35084 21.2843 5.45655 21.5352C5.56227 21.7861 5.71678 22.0127 5.90613 22.202C6.09549 22.3914 6.32203 22.5459 6.57296 22.6516C6.82388 22.7573 7.09921 22.8166 7.38848 22.8166H11.1942H15H18.8058H22.6115C22.9008 22.8166 23.1761 22.7573 23.427 22.6516C23.678 22.5459 23.9045 22.3914 24.0939 22.202C24.2832 22.0127 24.4377 21.7861 24.5434 21.5352C24.6492 21.2843 24.7084 21.0089 24.7084 20.7197V18.4753V16.232V13.9887V11.7455C24.7084 11.4562 24.6492 11.1809 24.5434 10.9299C24.4377 10.679 24.2832 10.4536 24.0939 10.2631C23.9045 10.0726 23.678 9.91926 23.427 9.81354C23.1761 9.70783 22.9008 9.64858 22.6115 9.64858H18.8058H15H11.1942H7.38848V9.64974Z" fill="#4D4D4D"/>
<path d="M11.3604 19.6091C10.8771 19.6091 10.4159 19.5104 9.99652 19.3326C9.57714 19.1549 9.19959 18.8982 8.88128 18.581C8.56297 18.2639 8.30623 17.8852 8.12965 17.4658C7.95307 17.0464 7.85316 16.5852 7.85316 16.1019C7.85316 15.6187 7.95191 15.1575 8.12965 14.7381C8.30739 14.3187 8.56413 13.9411 8.88128 13.6228C9.19842 13.3045 9.57714 13.0478 9.99652 12.8712C10.4159 12.6946 10.8771 12.5947 11.3604 12.5947C11.8436 12.5947 12.3048 12.6935 12.7242 12.8712C13.1436 13.049 13.5211 13.3057 13.8395 13.6228C14.1578 13.94 14.4145 14.3187 14.5911 14.7381C14.7688 15.1575 14.8676 15.6187 14.8676 16.1019C14.8676 16.5852 14.7688 17.0464 14.5911 17.4658C14.4133 17.8852 14.1566 18.2627 13.8395 18.581C13.5223 18.8993 13.1436 19.1561 12.7242 19.3326C12.3048 19.5092 11.8436 19.6091 11.3604 19.6091ZM11.3604 12.8863C10.9166 12.8863 10.4949 12.9769 10.1092 13.1396C9.72352 13.3022 9.37849 13.538 9.0869 13.8296C8.79531 14.1212 8.55948 14.4674 8.39684 14.8519C8.23421 15.2365 8.14359 15.6593 8.14359 16.1031C8.14359 16.5469 8.23421 16.9686 8.39684 17.3543C8.55948 17.7388 8.79531 18.085 9.0869 18.3766C9.37849 18.6681 9.72468 18.904 10.1092 19.0666C10.4937 19.2293 10.9166 19.3199 11.3604 19.3199C11.8041 19.3199 12.2258 19.2293 12.6115 19.0666C12.9972 18.904 13.3422 18.6681 13.6338 18.3766C13.9254 18.085 14.1613 17.7388 14.3239 17.3543C14.4865 16.9697 14.5771 16.5469 14.5771 16.1031C14.5771 15.6593 14.4865 15.2376 14.3239 14.8519C14.1613 14.4674 13.9254 14.1212 13.6338 13.8296C13.3422 13.538 12.9961 13.3022 12.6115 13.1396C12.227 12.9769 11.803 12.8863 11.3604 12.8863Z" fill="#4D4D4D"/>
<path d="M21.6461 13.8215H20.5565H19.4668H18.3771H17.2874C17.2677 13.8215 17.2479 13.8169 17.2305 13.8099C17.2131 13.8029 17.198 13.7913 17.184 13.7785C17.1701 13.7657 17.1608 13.7495 17.1527 13.732C17.1445 13.7146 17.141 13.696 17.141 13.6751C17.141 13.6542 17.1457 13.6356 17.1527 13.6182C17.1596 13.6008 17.1712 13.5857 17.184 13.5717C17.1968 13.5578 17.2131 13.5485 17.2305 13.5404C17.2479 13.5322 17.2665 13.5287 17.2874 13.5287H18.3771H19.4668H20.5565H21.6461C21.6659 13.5287 21.6856 13.5334 21.7031 13.5404C21.7205 13.5473 21.7356 13.559 21.7495 13.5717C21.7635 13.5845 21.7728 13.6008 21.7809 13.6182C21.789 13.6356 21.7925 13.6542 21.7925 13.6751C21.7925 13.696 21.7879 13.7146 21.7809 13.732C21.7739 13.7495 21.7623 13.7646 21.7495 13.7785C21.7368 13.7925 21.7205 13.8017 21.7031 13.8099C21.6856 13.818 21.6659 13.8215 21.6461 13.8215Z" fill="#4D4D4D"/>
<path d="M21.609 16.3737H20.5193H19.4296H18.3399H17.2502C17.2305 16.3737 17.2107 16.369 17.1933 16.3621C17.1759 16.3551 17.1608 16.3435 17.1468 16.3307C17.1329 16.3179 17.1236 16.3017 17.1155 16.2842C17.1073 16.2668 17.1039 16.2482 17.1039 16.2273C17.1039 16.2064 17.1085 16.1878 17.1155 16.1704C17.1224 16.153 17.1341 16.1379 17.1468 16.1239C17.1596 16.11 17.1759 16.1007 17.1933 16.0925C17.2107 16.0844 17.2293 16.0809 17.2502 16.0809H18.3399H19.4296H20.5193H21.609C21.6287 16.0809 21.6485 16.0856 21.6659 16.0925C21.6833 16.0995 21.6984 16.1111 21.7124 16.1239C21.7263 16.1367 21.7356 16.153 21.7437 16.1704C21.7519 16.1878 21.7553 16.2064 21.7553 16.2273C21.7553 16.2482 21.7507 16.2668 21.7437 16.2842C21.7368 16.3017 21.7251 16.3168 21.7124 16.3307C21.6996 16.3446 21.6833 16.3539 21.6659 16.3621C21.6485 16.3702 21.6299 16.3737 21.609 16.3737Z" fill="#4D4D4D"/>
<path d="M21.6461 18.9272H20.5565H19.4668H18.3771H17.2874C17.2677 18.9272 17.2479 18.9225 17.2305 18.9155C17.2131 18.9086 17.198 18.8969 17.184 18.8842C17.1701 18.8714 17.1608 18.8551 17.1527 18.8377C17.1445 18.8203 17.141 18.8017 17.141 18.7808C17.141 18.7599 17.1457 18.7413 17.1527 18.7239C17.1596 18.7064 17.1712 18.6913 17.184 18.6774C17.1968 18.6634 17.2131 18.6541 17.2305 18.646C17.2479 18.6379 17.2665 18.6344 17.2874 18.6344H18.3771H19.4668H20.5565H21.6461C21.6659 18.6344 21.6856 18.639 21.7031 18.646C21.7205 18.653 21.7356 18.6646 21.7495 18.6774C21.7635 18.6902 21.7728 18.7064 21.7809 18.7239C21.789 18.7413 21.7925 18.7599 21.7925 18.7808C21.7925 18.8017 21.7879 18.8203 21.7809 18.8377C21.7739 18.8551 21.7623 18.8702 21.7495 18.8842C21.7368 18.8981 21.7205 18.9074 21.7031 18.9155C21.6856 18.9237 21.6659 18.9272 21.6461 18.9272Z" fill="#4D4D4D"/>
<path d="M20.5414 9.6486C20.5344 9.6486 20.5286 9.6486 20.5216 9.64744C20.5146 9.64627 20.5088 9.64511 20.5019 9.64395C20.4949 9.64279 20.4891 9.64047 20.4833 9.63698C20.4775 9.6335 20.4705 9.63117 20.4647 9.62769L18.2969 8.28824L16.1292 6.94878L13.9614 5.60933L11.7937 4.26988C11.7763 4.25943 11.7623 4.24549 11.7519 4.23038C11.7414 4.21528 11.7333 4.19786 11.7286 4.17927C11.724 4.16068 11.724 4.14209 11.7263 4.12351C11.7286 4.10492 11.7356 4.08633 11.7461 4.06891C11.7565 4.05148 11.7704 4.03754 11.7856 4.02708C11.8007 4.01663 11.8181 4.0085 11.8355 4.00385C11.8529 3.9992 11.8727 3.9992 11.8913 4.00153C11.9099 4.00385 11.9284 4.01082 11.9459 4.02244L14.1136 5.36189L16.2814 6.70134L18.4491 8.04079L20.6169 9.38024C20.6343 9.3907 20.6482 9.40464 20.6587 9.41974C20.6691 9.43484 20.6773 9.45227 20.6819 9.47086C20.6866 9.48944 20.6866 9.50803 20.6842 9.52662C20.6819 9.54521 20.675 9.56379 20.6645 9.58122C20.6575 9.59284 20.6494 9.60213 20.6401 9.61026C20.6308 9.61839 20.6215 9.62653 20.6099 9.63233C20.5983 9.63814 20.5878 9.64279 20.5762 9.64511C20.5646 9.64744 20.5541 9.6486 20.5414 9.6486Z" fill="#4D4D4D"/>
</svg>
