<svg width="30" height="30" viewBox="0 0 30 30" fill="none" xmlns="http://www.w3.org/2000/svg">
<rect width="30" height="30" fill="white"/>
<path d="M30 30H22.5H15H7.5H0V22.5003V15.0005V7.49975V0H7.5H15H22.5H30V7.49975V14.9995V22.4992V30ZM0.252287 29.7477H7.62614H15H22.3739H29.7477V22.3741V15.0005V7.62589V0.252279H22.3739H15H7.62614H0.252287V7.62589V14.9995V22.3731V29.7477Z" fill="#4D4D4D"/>
<path d="M30 22V21.9421V21.8843V21.8264V21.7685C28.8439 21.3235 27.6602 20.9279 26.4529 20.5844C25.2446 20.241 24.0117 19.9507 22.7583 19.7163C21.5049 19.482 20.2279 19.3027 18.9345 19.1822C17.6401 19.0617 16.3282 19 15 19C13.6718 19 12.3589 19.0617 11.0655 19.1822C9.77111 19.3027 8.49515 19.482 7.24173 19.7163C5.98832 19.9507 4.7554 20.2419 3.54708 20.5844C2.33875 20.9279 1.15605 21.3235 0 21.7685V21.8264V21.8843V21.9421V22C1.15503 21.5522 2.33773 21.1546 3.54605 20.8093C4.75335 20.4639 5.98627 20.1717 7.24071 19.9364C8.49515 19.7011 9.77111 19.5199 11.0655 19.3994C12.3599 19.278 13.6728 19.2163 15.002 19.2163C16.3303 19.2163 17.6431 19.278 18.9376 19.3994C20.232 19.5209 21.5079 19.7011 22.7624 19.9364C24.0168 20.1717 25.2487 20.4649 26.457 20.8093C27.6612 21.1546 28.845 21.5522 30 22Z" fill="#4D4D4D"/>
<path d="M15.034 12.666C14.299 12.666 13.599 12.517 12.962 12.246C12.325 11.976 11.75 11.585 11.268 11.102C10.786 10.619 10.395 10.045 10.125 9.407C9.85499 8.769 9.70599 8.069 9.70599 7.334C9.70599 6.599 9.85499 5.898 10.125 5.26C10.395 4.622 10.786 4.047 11.268 3.564C11.75 3.081 12.325 2.69 12.962 2.42C13.599 2.15 14.3 2 15.034 2C15.769 2 16.47 2.15 17.109 2.42C17.747 2.69 18.322 3.081 18.805 3.564C19.288 4.047 19.679 4.622 19.949 5.26C20.219 5.898 20.369 6.599 20.369 7.334C20.369 8.069 20.219 8.77 19.949 9.407C19.679 10.045 19.288 10.619 18.805 11.102C18.322 11.585 17.747 11.975 17.109 12.246C16.47 12.517 15.769 12.666 15.034 12.666ZM15.034 2.354C14.348 2.354 13.694 2.494 13.099 2.746C12.504 2.998 11.968 3.364 11.517 3.814C11.066 4.265 10.701 4.802 10.449 5.398C10.197 5.994 10.057 6.648 10.057 7.335C10.057 8.021 10.197 8.676 10.449 9.271C10.701 9.866 11.066 10.403 11.516 10.854C11.967 11.305 12.503 11.67 13.098 11.922C13.693 12.174 14.347 12.314 15.033 12.314C15.72 12.314 16.375 12.174 16.971 11.922C17.567 11.67 18.104 11.305 18.555 10.854C19.006 10.403 19.371 9.867 19.624 9.271C19.876 8.676 20.016 8.021 20.016 7.335C20.016 6.648 19.876 5.994 19.624 5.398C19.372 4.802 19.006 4.265 18.555 3.815C18.104 3.364 17.567 2.999 16.971 2.747C16.375 2.495 15.72 2.354 15.034 2.354Z" fill="#4D4D4D"/>
<path d="M11.329 17.823C10.594 17.823 9.894 17.674 9.257 17.403C8.62 17.133 8.045 16.742 7.563 16.259C7.081 15.776 6.689 15.202 6.419 14.565C6.149 13.927 6 13.227 6 12.492C6 11.757 6.149 11.056 6.419 10.418C6.689 9.77998 7.08 9.20498 7.562 8.72198C8.045 8.23898 8.619 7.84798 9.257 7.57698C9.894 7.30698 10.595 7.15698 11.329 7.15698C12.064 7.15698 12.765 7.30698 13.403 7.57698C14.041 7.84698 14.616 8.23798 15.099 8.72098C15.582 9.20398 15.973 9.77898 16.243 10.417C16.513 11.055 16.663 11.756 16.663 12.491C16.663 13.226 16.513 13.927 16.243 14.564C15.973 15.202 15.582 15.776 15.099 16.259C14.616 16.742 14.041 17.132 13.403 17.403C12.766 17.673 12.065 17.823 11.329 17.823ZM11.329 7.50998C10.643 7.50998 9.989 7.64998 9.394 7.90198C8.798 8.15498 8.262 8.51998 7.812 8.97098C7.361 9.42198 6.997 9.95898 6.744 10.554C6.492 11.15 6.352 11.804 6.352 12.491C6.352 13.177 6.492 13.832 6.744 14.427C6.996 15.022 7.361 15.559 7.812 16.01C8.263 16.461 8.799 16.826 9.394 17.078C9.989 17.33 10.643 17.47 11.329 17.47C12.016 17.47 12.67 17.33 13.266 17.078C13.862 16.826 14.399 16.461 14.85 16.01C15.301 15.559 15.666 15.023 15.919 14.427C16.171 13.832 16.311 13.177 16.311 12.491C16.311 11.804 16.171 11.15 15.919 10.554C15.667 9.95798 15.301 9.42098 14.85 8.97098C14.399 8.51998 13.862 8.15498 13.266 7.90298C12.67 7.65098 12.016 7.50998 11.329 7.50998Z" fill="#4D4D4D"/>
<path d="M18.573 17.823C17.838 17.823 17.138 17.674 16.501 17.403C15.864 17.133 15.289 16.742 14.807 16.259C14.325 15.776 13.934 15.202 13.664 14.564C13.394 13.926 13.245 13.226 13.245 12.491C13.245 11.756 13.394 11.055 13.664 10.417C13.934 9.77898 14.325 9.20398 14.807 8.72098C15.29 8.23798 15.864 7.84698 16.501 7.57698C17.138 7.30698 17.839 7.15698 18.573 7.15698C19.308 7.15698 20.009 7.30698 20.647 7.57698C21.285 7.84698 21.86 8.23798 22.343 8.72098C22.826 9.20398 23.217 9.77898 23.487 10.417C23.757 11.055 23.907 11.756 23.907 12.491C23.907 13.226 23.757 13.927 23.487 14.564C23.217 15.202 22.826 15.776 22.343 16.259C21.86 16.742 21.285 17.132 20.647 17.403C20.009 17.673 19.308 17.823 18.573 17.823ZM18.573 7.50998C17.887 7.50998 17.233 7.64998 16.638 7.90198C16.043 8.15398 15.506 8.51998 15.056 8.96998C14.605 9.42098 14.241 9.95798 13.988 10.553C13.736 11.149 13.596 11.803 13.596 12.49C13.596 13.176 13.736 13.831 13.988 14.426C14.24 15.021 14.605 15.558 15.056 16.009C15.507 16.46 16.043 16.825 16.638 17.077C17.233 17.329 17.887 17.469 18.573 17.469C19.26 17.469 19.914 17.329 20.51 17.077C21.106 16.825 21.643 16.46 22.094 16.009C22.545 15.558 22.91 15.022 23.163 14.426C23.415 13.831 23.555 13.176 23.555 12.49C23.555 11.803 23.415 11.149 23.163 10.553C22.911 9.95698 22.545 9.41998 22.094 8.96998C21.643 8.51898 21.106 8.15398 20.51 7.90198C19.914 7.64998 19.259 7.50998 18.573 7.50998Z" fill="#4D4D4D"/>
</svg>
