<svg width="30" height="30" viewBox="0 0 30 30" fill="none" xmlns="http://www.w3.org/2000/svg">
<rect width="30" height="30" fill="white"/>
<path d="M30 30H22.5H15H7.5H0V22.5003V15.0005V7.49975V0H7.5H15H22.5H30V7.49975V14.9995V22.4992V30ZM0.252287 29.7477H7.62614H15H22.3739H29.7477V22.3741V15.0005V7.62589V0.252279H22.3739H15H7.62614H0.252287V7.62589V14.9995V22.3731V29.7477Z" fill="#4D4D4D"/>
<path d="M30 22V21.9421V21.8843V21.8264V21.7685C28.8439 21.3235 27.6602 20.9279 26.4529 20.5844C25.2446 20.241 24.0117 19.9507 22.7583 19.7163C21.5049 19.482 20.2279 19.3027 18.9345 19.1822C17.6401 19.0617 16.3282 19 15 19C13.6718 19 12.3589 19.0617 11.0655 19.1822C9.77111 19.3027 8.49515 19.482 7.24173 19.7163C5.98832 19.9507 4.7554 20.2419 3.54708 20.5844C2.33875 20.9279 1.15605 21.3235 0 21.7685V21.8264V21.8843V21.9421V22C1.15503 21.5522 2.33773 21.1546 3.54605 20.8093C4.75335 20.4639 5.98627 20.1717 7.24071 19.9364C8.49515 19.7011 9.77111 19.5199 11.0655 19.3994C12.3599 19.278 13.6728 19.2163 15.002 19.2163C16.3303 19.2163 17.6431 19.278 18.9376 19.3994C20.232 19.5209 21.5079 19.7011 22.7624 19.9364C24.0168 20.1717 25.2487 20.4649 26.457 20.8093C27.6612 21.1546 28.845 21.5522 30 22Z" fill="#4D4D4D"/>
<path d="M21.634 12.563C21.113 12.563 20.617 12.457 20.165 12.265C19.713 12.073 19.306 11.796 18.964 11.454C18.622 11.112 18.345 10.704 18.153 10.252C17.961 9.8 17.856 9.303 17.856 8.782C17.856 8.261 17.962 7.764 18.153 7.311C18.344 6.858 18.622 6.451 18.964 6.109C19.306 5.767 19.713 5.489 20.165 5.298C20.617 5.107 21.114 5 21.634 5C22.155 5 22.653 5.106 23.105 5.298C23.557 5.49 23.965 5.767 24.308 6.109C24.651 6.451 24.928 6.859 25.12 7.311C25.312 7.763 25.418 8.26 25.418 8.782C25.418 9.303 25.312 9.8 25.12 10.252C24.928 10.704 24.651 11.112 24.308 11.454C23.965 11.796 23.558 12.073 23.105 12.265C22.652 12.457 22.155 12.563 21.634 12.563ZM21.634 5.25C21.148 5.25 20.684 5.349 20.262 5.528C19.84 5.707 19.46 5.966 19.14 6.286C18.82 6.606 18.562 6.986 18.383 7.409C18.204 7.832 18.105 8.296 18.105 8.783C18.105 9.27 18.204 9.734 18.383 10.156C18.562 10.578 18.82 10.959 19.14 11.278C19.46 11.597 19.84 11.857 20.262 12.035C20.684 12.213 21.148 12.313 21.634 12.313C22.121 12.313 22.585 12.214 23.008 12.035C23.431 11.856 23.811 11.597 24.131 11.278C24.451 10.959 24.71 10.578 24.889 10.156C25.068 9.734 25.167 9.27 25.167 8.783C25.167 8.296 25.068 7.832 24.889 7.409C24.71 6.986 24.451 6.606 24.131 6.286C23.811 5.966 23.43 5.707 23.008 5.528C22.586 5.349 22.121 5.25 21.634 5.25Z" fill="#4D4D4D"/>
<path d="M19.007 16.219C18.486 16.219 17.989 16.113 17.537 15.921C17.085 15.729 16.678 15.452 16.336 15.11C15.994 14.768 15.717 14.36 15.525 13.908C15.333 13.456 15.228 12.959 15.228 12.438C15.228 11.917 15.334 11.42 15.525 10.967C15.716 10.514 15.994 10.107 16.336 9.76501C16.678 9.42301 17.085 9.14501 17.537 8.95401C17.989 8.76301 18.486 8.65601 19.007 8.65601C19.528 8.65601 20.026 8.76201 20.478 8.95401C20.93 9.14601 21.338 9.42301 21.681 9.76501C22.024 10.107 22.301 10.515 22.492 10.967C22.683 11.419 22.79 11.916 22.79 12.438C22.79 12.959 22.684 13.456 22.492 13.908C22.3 14.36 22.023 14.768 21.681 15.11C21.339 15.452 20.931 15.729 20.478 15.921C20.025 16.113 19.528 16.219 19.007 16.219ZM19.007 8.90601C18.52 8.90601 18.057 9.00501 17.634 9.18401C17.211 9.36301 16.832 9.62201 16.512 9.94201C16.192 10.262 15.934 10.642 15.755 11.065C15.576 11.488 15.477 11.952 15.477 12.439C15.477 12.926 15.576 13.39 15.755 13.812C15.934 14.234 16.193 14.615 16.512 14.934C16.831 15.253 17.212 15.513 17.634 15.691C18.056 15.869 18.52 15.969 19.007 15.969C19.494 15.969 19.958 15.87 20.381 15.691C20.804 15.512 21.184 15.253 21.504 14.934C21.824 14.615 22.083 14.234 22.262 13.812C22.441 13.39 22.54 12.926 22.54 12.439C22.54 11.952 22.441 11.488 22.262 11.065C22.083 10.642 21.824 10.262 21.504 9.94201C21.184 9.62201 20.803 9.36301 20.381 9.18401C19.959 9.00501 19.494 8.90601 19.007 8.90601Z" fill="#4D4D4D"/>
<path d="M24.143 16.219C23.622 16.219 23.125 16.113 22.673 15.921C22.221 15.729 21.814 15.452 21.472 15.11C21.13 14.768 20.853 14.36 20.661 13.908C20.469 13.456 20.364 12.959 20.364 12.438C20.364 11.917 20.47 11.42 20.661 10.967C20.852 10.514 21.13 10.107 21.472 9.76501C21.814 9.42301 22.221 9.14501 22.673 8.95401C23.125 8.76301 23.622 8.65601 24.143 8.65601C24.664 8.65601 25.162 8.76201 25.614 8.95401C26.066 9.14601 26.474 9.42301 26.817 9.76501C27.16 10.107 27.437 10.515 27.628 10.967C27.819 11.419 27.926 11.916 27.926 12.438C27.926 12.959 27.82 13.456 27.628 13.908C27.436 14.36 27.159 14.768 26.817 15.11C26.475 15.452 26.067 15.729 25.614 15.921C25.161 16.113 24.665 16.219 24.143 16.219ZM24.143 8.90601C23.656 8.90601 23.193 9.00501 22.77 9.18401C22.347 9.36301 21.968 9.62201 21.648 9.94201C21.328 10.262 21.07 10.642 20.891 11.065C20.712 11.488 20.613 11.952 20.613 12.439C20.613 12.926 20.712 13.39 20.891 13.812C21.07 14.234 21.329 14.615 21.648 14.934C21.967 15.253 22.348 15.513 22.77 15.691C23.192 15.869 23.656 15.969 24.143 15.969C24.63 15.969 25.094 15.87 25.517 15.691C25.94 15.512 26.32 15.253 26.64 14.934C26.96 14.615 27.219 14.234 27.398 13.812C27.577 13.39 27.676 12.926 27.676 12.439C27.676 11.952 27.577 11.488 27.398 11.065C27.219 10.642 26.96 10.262 26.64 9.94201C26.32 9.62201 25.939 9.36301 25.517 9.18401C25.095 9.00501 24.63 8.90601 24.143 8.90601Z" fill="#4D4D4D"/>
<path d="M8.40598 12.563H8.39598H8.38598H8.37598H8.36598V12.501V12.439V12.377V12.315H8.37798H8.38998H8.40198H8.41398C8.45298 12.315 8.49298 12.314 8.53298 12.313C8.57298 12.312 8.61298 12.31 8.65198 12.307C8.69098 12.304 8.73198 12.301 8.77098 12.297C8.80998 12.293 8.84998 12.288 8.88898 12.283L8.89798 12.345L8.90698 12.407L8.91598 12.469L8.92498 12.531C8.88298 12.537 8.84098 12.542 8.79798 12.546C8.75498 12.55 8.70798 12.551 8.66498 12.554C8.62198 12.557 8.57898 12.559 8.53598 12.561C8.49298 12.563 8.44898 12.563 8.40598 12.563ZM7.84898 12.522C7.80698 12.516 7.76398 12.509 7.72198 12.501C7.67998 12.493 7.63798 12.485 7.59598 12.476C7.55398 12.467 7.51198 12.457 7.47098 12.446C7.42998 12.435 7.38798 12.424 7.34698 12.412L7.36398 12.352L7.38098 12.292L7.39798 12.232L7.41498 12.172C7.45298 12.183 7.49198 12.194 7.53098 12.204C7.56998 12.214 7.60898 12.223 7.64798 12.232C7.68698 12.241 7.72698 12.248 7.76598 12.256C7.80498 12.264 7.84498 12.27 7.88398 12.276L7.87498 12.338L7.86598 12.4L7.85798 12.46L7.84898 12.522ZM9.42398 12.424L9.40698 12.364L9.38998 12.304L9.37298 12.244L9.35598 12.184C9.39498 12.173 9.43298 12.162 9.47198 12.15C9.51098 12.138 9.54798 12.125 9.58598 12.112C9.62398 12.099 9.66098 12.085 9.69898 12.07C9.73698 12.055 9.77298 12.04 9.80998 12.024L9.83498 12.081L9.85998 12.138L9.88498 12.195L9.90998 12.252C9.87098 12.269 9.83098 12.285 9.79198 12.301C9.75298 12.317 9.71198 12.332 9.67098 12.346C9.62998 12.36 9.58998 12.374 9.54898 12.387C9.50798 12.4 9.46598 12.412 9.42398 12.424ZM6.86198 12.234C6.82298 12.216 6.78398 12.198 6.74598 12.179C6.70798 12.16 6.66898 12.14 6.63098 12.12C6.59298 12.1 6.55598 12.079 6.51798 12.057C6.47998 12.035 6.44398 12.014 6.40798 11.991L6.44098 11.938L6.47398 11.885L6.50698 11.832L6.53998 11.779C6.57398 11.8 6.60798 11.821 6.64298 11.84C6.67798 11.859 6.71298 11.879 6.74798 11.898C6.78298 11.917 6.81898 11.935 6.85498 11.953C6.89098 11.971 6.92698 11.988 6.96398 12.004L6.93898 12.063L6.91298 12.12L6.88698 12.177L6.86198 12.234ZM10.368 12.015L10.336 11.962L10.304 11.909L10.272 11.856L10.24 11.803C10.274 11.782 10.308 11.761 10.342 11.739C10.376 11.717 10.409 11.694 10.442 11.671C10.475 11.648 10.507 11.624 10.539 11.6C10.571 11.576 10.603 11.551 10.634 11.525L10.674 11.574L10.714 11.623L10.754 11.672L10.794 11.721C10.761 11.748 10.727 11.775 10.692 11.801C10.657 11.827 10.623 11.852 10.588 11.877C10.553 11.902 10.517 11.926 10.481 11.949C10.445 11.972 10.404 11.992 10.368 12.015ZM5.98998 11.69C5.95698 11.662 5.92398 11.634 5.89198 11.606C5.85998 11.578 5.82798 11.548 5.79698 11.518C5.76598 11.488 5.73498 11.458 5.70498 11.428C5.67498 11.398 5.64598 11.367 5.61698 11.335L5.66298 11.293L5.70898 11.251L5.75498 11.209L5.80098 11.167C5.82798 11.196 5.85498 11.225 5.88298 11.254C5.91098 11.283 5.93998 11.311 5.96898 11.338C5.99798 11.365 6.02798 11.393 6.05798 11.42C6.08798 11.447 6.11898 11.473 6.14998 11.499L6.10998 11.547L6.06998 11.595L6.02998 11.643L5.98998 11.69ZM11.166 11.367L11.12 11.324L11.074 11.281L11.028 11.238L10.982 11.195C11.009 11.166 11.036 11.136 11.063 11.106C11.09 11.076 11.115 11.045 11.141 11.014C11.167 10.983 11.191 10.951 11.216 10.92C11.241 10.889 11.264 10.856 11.287 10.823L11.338 10.859L11.389 10.895L11.44 10.931L11.491 10.967C11.466 11.002 11.441 11.037 11.414 11.071C11.387 11.105 11.361 11.139 11.334 11.172C11.307 11.205 11.279 11.238 11.251 11.27C11.223 11.302 11.196 11.336 11.166 11.367ZM5.29598 10.931C5.27098 10.895 5.24798 10.86 5.22398 10.823C5.19998 10.786 5.17798 10.75 5.15598 10.713C5.13398 10.676 5.11298 10.639 5.09198 10.601C5.07098 10.563 5.05098 10.526 5.03198 10.487L5.08798 10.459L5.14398 10.431L5.19998 10.403L5.25598 10.375C5.27398 10.41 5.29198 10.446 5.31198 10.481C5.33198 10.516 5.35098 10.551 5.37198 10.585C5.39298 10.619 5.41398 10.654 5.43598 10.688C5.45798 10.722 5.47998 10.755 5.50298 10.788L5.45098 10.824L5.39898 10.86L5.34798 10.896L5.29598 10.931ZM11.761 10.529L11.706 10.5L11.651 10.471L11.596 10.442L11.541 10.413C11.559 10.378 11.577 10.342 11.595 10.306C11.613 10.27 11.629 10.233 11.645 10.197C11.661 10.161 11.677 10.123 11.692 10.086C11.707 10.049 11.721 10.011 11.735 9.973L11.794 9.994L11.853 10.015L11.912 10.036L11.971 10.057C11.956 10.097 11.941 10.138 11.925 10.178C11.909 10.218 11.892 10.258 11.875 10.297C11.858 10.336 11.84 10.375 11.821 10.414C11.802 10.453 11.781 10.491 11.761 10.529ZM4.83198 10.014C4.81798 9.973 4.80498 9.932 4.79198 9.891C4.77898 9.85 4.76698 9.808 4.75598 9.767C4.74498 9.726 4.73398 9.684 4.72498 9.642C4.71598 9.6 4.70598 9.558 4.69798 9.516L4.75898 9.504L4.81998 9.492L4.88098 9.48L4.94198 9.468C4.94998 9.507 4.95798 9.546 4.96698 9.585C4.97598 9.624 4.98698 9.663 4.99798 9.702C5.00898 9.741 5.01998 9.78 5.03098 9.818C5.04198 9.856 5.05498 9.895 5.06798 9.933L5.00898 9.953L4.94998 9.973L4.89098 9.993L4.83198 10.014ZM12.109 9.562L12.048 9.549L11.987 9.536L11.926 9.523L11.865 9.51C11.873 9.471 11.881 9.432 11.888 9.393C11.895 9.354 11.901 9.314 11.907 9.274C11.913 9.234 11.917 9.194 11.922 9.154C11.927 9.114 11.93 9.074 11.933 9.034L11.995 9.038L12.057 9.042L12.119 9.046L12.181 9.05C12.178 9.093 12.174 9.136 12.17 9.179C12.166 9.222 12.16 9.265 12.155 9.307C12.15 9.349 12.143 9.392 12.135 9.434C12.127 9.476 12.117 9.52 12.109 9.562ZM4.63298 9.005C4.63198 8.987 4.63098 8.968 4.62998 8.95C4.62898 8.932 4.62898 8.913 4.62798 8.894C4.62698 8.875 4.62698 8.857 4.62698 8.838C4.62698 8.819 4.62698 8.801 4.62698 8.782C4.62698 8.757 4.62698 8.733 4.62798 8.708C4.62898 8.683 4.62898 8.659 4.62998 8.635C4.63098 8.611 4.63198 8.586 4.63298 8.562C4.63398 8.538 4.63598 8.514 4.63798 8.489L4.69998 8.494L4.76198 8.499L4.82398 8.504L4.88598 8.509C4.88398 8.531 4.88298 8.554 4.88198 8.577C4.88098 8.6 4.87998 8.622 4.87898 8.645C4.87798 8.668 4.87798 8.69 4.87698 8.713C4.87598 8.736 4.87598 8.759 4.87598 8.782C4.87598 8.799 4.87598 8.817 4.87598 8.834C4.87598 8.851 4.87698 8.869 4.87698 8.886C4.87698 8.903 4.87798 8.921 4.87898 8.938C4.87998 8.955 4.88098 8.972 4.88198 8.99L4.82098 8.993L4.75798 8.997L4.69598 9.001L4.63298 9.005ZM11.931 8.552C11.928 8.512 11.925 8.472 11.921 8.432C11.917 8.392 11.912 8.352 11.907 8.312C11.902 8.272 11.896 8.233 11.889 8.193C11.882 8.153 11.875 8.114 11.867 8.076L11.929 8.063L11.99 8.051L12.051 8.039L12.112 8.027C12.12 8.069 12.128 8.111 12.135 8.153C12.142 8.195 12.148 8.238 12.154 8.28C12.16 8.322 12.165 8.366 12.169 8.408C12.173 8.45 12.177 8.494 12.179 8.537L12.117 8.541L12.055 8.545L11.993 8.549L11.931 8.552ZM4.95598 8.033L4.89498 8.02L4.83398 8.007L4.77298 7.993L4.71198 7.98C4.72098 7.938 4.73098 7.897 4.74098 7.855C4.75098 7.813 4.76298 7.772 4.77498 7.731C4.78698 7.69 4.79998 7.648 4.81298 7.608C4.82598 7.568 4.83998 7.526 4.85498 7.486L4.91398 7.507L4.97298 7.528L5.03198 7.549L5.09098 7.57C5.07698 7.608 5.06398 7.646 5.05198 7.684C5.03998 7.722 5.02798 7.761 5.01698 7.799C5.00598 7.837 4.99498 7.876 4.98598 7.915C4.97698 7.954 4.96398 7.994 4.95598 8.033ZM11.741 7.611C11.728 7.573 11.714 7.536 11.699 7.498C11.684 7.46 11.669 7.423 11.653 7.386C11.637 7.349 11.621 7.312 11.603 7.276C11.585 7.24 11.568 7.204 11.55 7.168L11.606 7.139L11.662 7.11L11.718 7.081L11.774 7.052C11.794 7.09 11.812 7.129 11.831 7.167C11.85 7.205 11.867 7.245 11.884 7.285C11.901 7.325 11.917 7.364 11.933 7.405C11.949 7.446 11.964 7.485 11.978 7.526L11.919 7.547L11.86 7.568L11.801 7.589L11.741 7.611ZM5.28598 7.13L5.23098 7.101L5.17598 7.072L5.11998 7.043L5.06498 7.014C5.08498 6.977 5.10498 6.939 5.12598 6.902C5.14698 6.865 5.16898 6.828 5.19198 6.791C5.21498 6.754 5.23798 6.718 5.26198 6.682C5.28598 6.646 5.31098 6.61 5.33598 6.575L5.38698 6.611L5.43798 6.647L5.48898 6.683L5.53998 6.719C5.51598 6.752 5.49298 6.785 5.47098 6.819C5.44898 6.853 5.42698 6.886 5.40598 6.921C5.38498 6.956 5.36398 6.989 5.34498 7.024C5.32598 7.059 5.30398 7.096 5.28598 7.13ZM11.301 6.757C11.278 6.724 11.254 6.692 11.23 6.66C11.206 6.628 11.181 6.596 11.156 6.565C11.131 6.534 11.105 6.503 11.079 6.472C11.053 6.441 11.026 6.412 10.999 6.382L11.045 6.34L11.091 6.298L11.137 6.256L11.183 6.214C11.212 6.245 11.241 6.278 11.269 6.31C11.297 6.342 11.325 6.376 11.352 6.409C11.379 6.442 11.405 6.476 11.431 6.511C11.457 6.546 11.482 6.58 11.507 6.615L11.456 6.651L11.405 6.687L11.354 6.723L11.301 6.757ZM5.84498 6.351L5.79998 6.308L5.75498 6.265L5.70798 6.222L5.66298 6.179C5.69198 6.148 5.72198 6.117 5.75198 6.087C5.78198 6.057 5.81398 6.027 5.84498 5.998C5.87598 5.969 5.90898 5.94 5.94198 5.912C5.97498 5.884 6.00798 5.856 6.04198 5.829L6.08098 5.878L6.11998 5.927L6.15898 5.976L6.19798 6.025C6.16698 6.05 6.13598 6.076 6.10498 6.102C6.07398 6.128 6.04398 6.155 6.01498 6.182C5.98598 6.209 5.95598 6.237 5.92798 6.265C5.89998 6.293 5.87198 6.322 5.84498 6.351ZM10.648 6.053C10.617 6.028 10.586 6.003 10.554 5.978C10.522 5.953 10.49 5.93 10.457 5.906C10.424 5.882 10.391 5.86 10.358 5.838C10.325 5.816 10.291 5.794 10.257 5.773L10.29 5.72L10.323 5.667L10.356 5.614L10.389 5.561C10.425 5.583 10.462 5.607 10.498 5.63C10.534 5.653 10.569 5.678 10.604 5.703C10.639 5.728 10.674 5.754 10.708 5.78C10.742 5.806 10.776 5.833 10.809 5.86L10.769 5.908L10.729 5.956L10.689 6.004L10.648 6.053ZM6.59398 5.75L6.56198 5.697L6.52898 5.643L6.49698 5.59L6.46498 5.537C6.50098 5.515 6.53798 5.494 6.57598 5.473C6.61398 5.452 6.65098 5.432 6.68998 5.412C6.72898 5.392 6.76698 5.373 6.80598 5.355C6.84498 5.337 6.88498 5.319 6.92398 5.302L6.94798 5.36L6.97198 5.418L6.99598 5.476L7.01998 5.534C6.98298 5.55 6.94598 5.566 6.90998 5.583C6.87398 5.6 6.83698 5.618 6.80198 5.636C6.76698 5.654 6.73098 5.673 6.69598 5.692C6.66098 5.711 6.62798 5.729 6.59398 5.75ZM9.83098 5.548C9.79498 5.532 9.75798 5.516 9.72098 5.501C9.68398 5.486 9.64598 5.473 9.60798 5.459C9.56998 5.445 9.53198 5.432 9.49398 5.42C9.45598 5.408 9.41698 5.396 9.37898 5.385L9.39598 5.325L9.41298 5.265L9.42998 5.205L9.44698 5.145C9.48798 5.157 9.52998 5.169 9.57098 5.182C9.61198 5.195 9.65298 5.209 9.69298 5.224C9.73298 5.239 9.77398 5.254 9.81398 5.27C9.85398 5.286 9.89298 5.303 9.93198 5.32L9.90698 5.377L9.88198 5.434L9.85698 5.491L9.83098 5.548ZM7.47598 5.373L7.45998 5.313L7.44398 5.253L7.42798 5.193L7.41198 5.133C7.45298 5.122 7.49498 5.111 7.53698 5.101C7.57898 5.091 7.62098 5.082 7.66298 5.074C7.70498 5.066 7.74698 5.058 7.78998 5.051C7.83298 5.044 7.87498 5.038 7.91698 5.032L7.92498 5.094L7.93298 5.156L7.94098 5.218L7.94898 5.28C7.90898 5.285 7.86998 5.291 7.82998 5.297C7.78998 5.303 7.75098 5.311 7.71098 5.318C7.67098 5.325 7.63198 5.334 7.59298 5.343C7.55398 5.352 7.51498 5.362 7.47598 5.373ZM8.90898 5.284C8.86898 5.278 8.82898 5.273 8.78898 5.269C8.74898 5.265 8.70898 5.261 8.66898 5.258C8.62898 5.255 8.58898 5.253 8.54898 5.251C8.50898 5.249 8.46898 5.248 8.42998 5.248V5.186V5.124V5.062V5C8.47198 5 8.51498 5.001 8.55798 5.003C8.60098 5.005 8.64398 5.007 8.68698 5.01C8.72998 5.013 8.77298 5.017 8.81598 5.022C8.85898 5.027 8.90198 5.032 8.94398 5.038L8.93498 5.1L8.92598 5.162L8.91698 5.224L8.90898 5.284Z" fill="#4D4D4D"/>
<path d="M5.779 16.219H5.768H5.758H5.748H5.738V16.157V16.095V16.033V15.971H5.748H5.758H5.768H5.778C5.818 15.971 5.859 15.97 5.899 15.969C5.939 15.968 5.98 15.966 6.02 15.963C6.06 15.96 6.1 15.957 6.14 15.953C6.18 15.949 6.22 15.944 6.259 15.939L6.267 16.001L6.275 16.063L6.283 16.125L6.291 16.187C6.249 16.193 6.206 16.198 6.164 16.202C6.122 16.206 6.079 16.21 6.036 16.213C5.993 16.216 5.951 16.216 5.908 16.217C5.865 16.218 5.822 16.219 5.779 16.219ZM5.222 16.178C5.18 16.172 5.137 16.165 5.095 16.157C5.053 16.149 5.011 16.141 4.969 16.132C4.927 16.123 4.885 16.113 4.844 16.102C4.803 16.091 4.761 16.08 4.72 16.068L4.737 16.008L4.754 15.948L4.771 15.888L4.788 15.828C4.826 15.839 4.865 15.85 4.904 15.86C4.943 15.87 4.982 15.879 5.021 15.888C5.06 15.897 5.1 15.904 5.139 15.912C5.178 15.92 5.218 15.926 5.257 15.932L5.248 15.994L5.239 16.056L5.23 16.118L5.222 16.178ZM6.797 16.081L6.78 16.021L6.763 15.961L6.746 15.901L6.729 15.841C6.768 15.83 6.806 15.819 6.845 15.807C6.884 15.795 6.921 15.782 6.959 15.769C6.997 15.756 7.034 15.742 7.072 15.727C7.11 15.712 7.146 15.697 7.183 15.681L7.208 15.736L7.233 15.793L7.258 15.85L7.283 15.907C7.244 15.924 7.204 15.94 7.165 15.956C7.126 15.972 7.085 15.987 7.044 16.001C7.003 16.015 6.963 16.029 6.922 16.042C6.881 16.055 6.839 16.069 6.797 16.081ZM4.235 15.89C4.196 15.872 4.156 15.854 4.118 15.835C4.08 15.816 4.041 15.796 4.003 15.776C3.965 15.756 3.928 15.735 3.891 15.714C3.854 15.693 3.818 15.671 3.782 15.648L3.815 15.595L3.848 15.542L3.881 15.489L3.914 15.436C3.948 15.457 3.982 15.477 4.016 15.497C4.05 15.517 4.086 15.536 4.121 15.555C4.156 15.574 4.192 15.592 4.228 15.61C4.264 15.628 4.301 15.645 4.338 15.662L4.312 15.719L4.286 15.776L4.26 15.833L4.235 15.89ZM7.741 15.671L7.708 15.617L7.676 15.564L7.644 15.511L7.612 15.458C7.646 15.437 7.68 15.416 7.714 15.394C7.748 15.372 7.781 15.349 7.814 15.326C7.847 15.303 7.879 15.279 7.911 15.255C7.943 15.231 7.975 15.206 8.006 15.18L8.046 15.229L8.086 15.278L8.126 15.327L8.166 15.376C8.133 15.403 8.099 15.43 8.064 15.456C8.029 15.482 7.995 15.507 7.96 15.532C7.925 15.557 7.889 15.581 7.853 15.604C7.817 15.627 7.777 15.649 7.741 15.671ZM3.363 15.346C3.33 15.318 3.297 15.29 3.265 15.262C3.233 15.234 3.201 15.204 3.17 15.174C3.139 15.144 3.108 15.114 3.078 15.084C3.048 15.054 3.019 15.023 2.99 14.991L3.036 14.949L3.082 14.907L3.128 14.865L3.174 14.823C3.201 14.852 3.228 14.881 3.256 14.91C3.284 14.939 3.313 14.967 3.342 14.994C3.371 15.021 3.401 15.049 3.431 15.076C3.461 15.103 3.492 15.129 3.523 15.155L3.483 15.203L3.443 15.251L3.403 15.299L3.363 15.346ZM8.539 15.023L8.493 14.98L8.448 14.937L8.402 14.894L8.356 14.851C8.384 14.823 8.411 14.793 8.437 14.763C8.463 14.733 8.489 14.702 8.515 14.671C8.541 14.64 8.565 14.608 8.59 14.576C8.615 14.544 8.638 14.512 8.661 14.479L8.712 14.515L8.763 14.551L8.814 14.587L8.865 14.623C8.84 14.658 8.815 14.693 8.788 14.727C8.761 14.761 8.735 14.795 8.708 14.828C8.681 14.861 8.653 14.894 8.625 14.926C8.597 14.958 8.569 14.991 8.539 15.023ZM2.669 14.588C2.644 14.552 2.621 14.517 2.597 14.48C2.573 14.443 2.551 14.407 2.529 14.37C2.507 14.333 2.486 14.296 2.465 14.258C2.444 14.22 2.424 14.183 2.405 14.144L2.461 14.116L2.517 14.088L2.573 14.06L2.629 14.032C2.647 14.067 2.665 14.103 2.685 14.138C2.705 14.173 2.724 14.208 2.745 14.242C2.766 14.276 2.787 14.311 2.809 14.345C2.831 14.379 2.853 14.412 2.876 14.445L2.824 14.481L2.772 14.517L2.721 14.553L2.669 14.588ZM9.134 14.185L9.079 14.156L9.024 14.127L8.968 14.098L8.913 14.069C8.931 14.034 8.949 13.998 8.967 13.962C8.985 13.926 9.001 13.889 9.017 13.853C9.033 13.817 9.049 13.779 9.064 13.742C9.079 13.705 9.093 13.667 9.107 13.629L9.166 13.65L9.225 13.671L9.284 13.692L9.343 13.713C9.328 13.753 9.313 13.794 9.297 13.834C9.281 13.874 9.264 13.914 9.247 13.953C9.23 13.992 9.212 14.031 9.193 14.07C9.174 14.109 9.154 14.147 9.134 14.185ZM2.205 13.67C2.191 13.629 2.178 13.588 2.165 13.547C2.152 13.506 2.14 13.464 2.129 13.423C2.118 13.382 2.108 13.34 2.098 13.298C2.088 13.256 2.079 13.214 2.071 13.172L2.132 13.16L2.193 13.148L2.254 13.136L2.315 13.124C2.323 13.163 2.331 13.202 2.34 13.241C2.349 13.28 2.359 13.319 2.369 13.358C2.379 13.397 2.391 13.436 2.402 13.474C2.413 13.512 2.426 13.551 2.439 13.589L2.38 13.609L2.321 13.629L2.262 13.649L2.205 13.67ZM9.481 13.217L9.42 13.204L9.359 13.191L9.298 13.178L9.237 13.165C9.245 13.126 9.253 13.087 9.26 13.048C9.267 13.009 9.273 12.969 9.279 12.929C9.285 12.889 9.289 12.849 9.294 12.809C9.299 12.769 9.302 12.729 9.305 12.689L9.367 12.693L9.429 12.697L9.491 12.701L9.553 12.705C9.55 12.748 9.546 12.791 9.542 12.834C9.538 12.877 9.532 12.92 9.527 12.962C9.522 13.004 9.515 13.047 9.507 13.089C9.499 13.131 9.49 13.176 9.481 13.217ZM2.006 12.663C2.005 12.645 2.004 12.626 2.003 12.607C2.002 12.588 2.002 12.57 2.001 12.551C2 12.532 2 12.514 2 12.495C2 12.476 2 12.457 2 12.439C2 12.414 2 12.39 2.001 12.366C2.002 12.342 2.002 12.317 2.003 12.293C2.004 12.269 2.005 12.244 2.006 12.22C2.007 12.196 2.009 12.172 2.011 12.148L2.073 12.153L2.135 12.158L2.197 12.163L2.259 12.168C2.257 12.191 2.256 12.213 2.255 12.236C2.254 12.259 2.253 12.281 2.252 12.304C2.251 12.327 2.25 12.35 2.25 12.373C2.25 12.396 2.249 12.419 2.249 12.442C2.249 12.459 2.249 12.477 2.249 12.494C2.249 12.511 2.25 12.529 2.25 12.546C2.25 12.563 2.251 12.581 2.252 12.598C2.253 12.615 2.254 12.633 2.255 12.65L2.193 12.654L2.131 12.658L2.068 12.659L2.006 12.663ZM9.304 12.208C9.301 12.168 9.298 12.127 9.294 12.087C9.29 12.047 9.285 12.007 9.28 11.967C9.275 11.927 9.269 11.888 9.262 11.848C9.255 11.808 9.248 11.77 9.24 11.731L9.301 11.719L9.362 11.707L9.423 11.695L9.484 11.683C9.492 11.725 9.5 11.767 9.507 11.809C9.514 11.851 9.52 11.894 9.526 11.936C9.532 11.978 9.539 12.02 9.543 12.063C9.547 12.106 9.551 12.149 9.553 12.192L9.491 12.196L9.429 12.2L9.367 12.204L9.304 12.208ZM2.328 11.69L2.267 11.677L2.206 11.663L2.145 11.65L2.084 11.637C2.093 11.595 2.103 11.554 2.113 11.512C2.123 11.47 2.135 11.429 2.147 11.388C2.159 11.347 2.172 11.305 2.185 11.265C2.198 11.225 2.212 11.183 2.227 11.143L2.285 11.163L2.344 11.184L2.403 11.205L2.462 11.226C2.448 11.264 2.435 11.302 2.423 11.34C2.411 11.378 2.399 11.417 2.388 11.455C2.377 11.493 2.366 11.532 2.357 11.571C2.348 11.61 2.336 11.65 2.328 11.69ZM9.113 11.267C9.1 11.229 9.086 11.192 9.071 11.154C9.056 11.116 9.041 11.079 9.025 11.042C9.009 11.005 8.993 10.968 8.975 10.932C8.957 10.896 8.94 10.86 8.922 10.824L8.978 10.795L9.034 10.766L9.09 10.737L9.146 10.708C9.166 10.746 9.184 10.785 9.203 10.823C9.222 10.861 9.239 10.901 9.256 10.941C9.273 10.981 9.287 11.023 9.303 11.063C9.319 11.103 9.334 11.143 9.348 11.184L9.289 11.205L9.23 11.226L9.171 11.247L9.113 11.267ZM2.658 10.788L2.603 10.759L2.548 10.73L2.493 10.701L2.438 10.672C2.458 10.635 2.478 10.597 2.499 10.56C2.52 10.523 2.542 10.486 2.565 10.449C2.588 10.412 2.611 10.376 2.635 10.34C2.659 10.304 2.684 10.268 2.709 10.233L2.76 10.269L2.808 10.306L2.859 10.342L2.91 10.378C2.886 10.411 2.863 10.444 2.841 10.478C2.819 10.512 2.797 10.545 2.776 10.58C2.755 10.615 2.734 10.648 2.715 10.683C2.696 10.718 2.676 10.753 2.658 10.788ZM8.674 10.414C8.651 10.381 8.627 10.349 8.603 10.317C8.579 10.285 8.554 10.253 8.529 10.222C8.504 10.191 8.478 10.16 8.452 10.13C8.426 10.1 8.399 10.07 8.372 10.041L8.418 9.99898L8.464 9.95698L8.51 9.91498L8.556 9.87298C8.585 9.90398 8.613 9.93598 8.641 9.96798C8.669 9.99998 8.697 10.033 8.724 10.067C8.751 10.101 8.777 10.134 8.803 10.169C8.829 10.204 8.854 10.238 8.879 10.274L8.828 10.31L8.777 10.346L8.726 10.382L8.674 10.414ZM3.216 10.008L3.171 9.96498L3.126 9.92198L3.081 9.87898L3.036 9.83598C3.065 9.80498 3.095 9.77398 3.125 9.74398C3.155 9.71398 3.187 9.68398 3.218 9.65498C3.249 9.62598 3.282 9.59698 3.315 9.56898C3.348 9.54098 3.381 9.51298 3.415 9.48598L3.454 9.53498L3.493 9.58398L3.532 9.63298L3.571 9.68198C3.54 9.70698 3.509 9.73298 3.478 9.75898C3.447 9.78498 3.417 9.81198 3.388 9.83898C3.359 9.86598 3.329 9.89398 3.301 9.92198C3.273 9.94998 3.243 9.97898 3.216 10.008ZM8.02 9.70898C7.989 9.68398 7.958 9.65898 7.926 9.63398C7.894 9.60898 7.862 9.58598 7.83 9.56298C7.798 9.53998 7.764 9.51698 7.731 9.49498C7.698 9.47298 7.664 9.45098 7.63 9.42998L7.663 9.37698L7.696 9.32398L7.729 9.27098L7.762 9.21798C7.798 9.23998 7.835 9.26398 7.871 9.28698C7.907 9.30998 7.942 9.33498 7.977 9.35998C8.012 9.38498 8.047 9.41098 8.081 9.43698C8.115 9.46298 8.149 9.48998 8.182 9.51698L8.142 9.56498L8.102 9.61298L8.062 9.66098L8.02 9.70898ZM3.966 9.40698L3.933 9.35298L3.901 9.29998L3.869 9.24698L3.837 9.19298C3.873 9.17098 3.91 9.14998 3.948 9.12898C3.986 9.10798 4.023 9.08798 4.062 9.06798C4.101 9.04798 4.139 9.02898 4.178 9.01098C4.217 8.99298 4.257 8.97498 4.296 8.95798L4.32 9.01598L4.344 9.07398L4.368 9.13198L4.392 9.18998C4.355 9.20598 4.318 9.22198 4.282 9.23898C4.246 9.25598 4.209 9.27398 4.174 9.29198C4.139 9.30998 4.103 9.32898 4.068 9.34798C4.033 9.36698 4 9.38598 3.966 9.40698ZM7.203 9.20598C7.167 9.18998 7.13 9.17398 7.093 9.15898C7.056 9.14398 7.018 9.12998 6.981 9.11598C6.944 9.10198 6.905 9.08898 6.867 9.07698C6.829 9.06498 6.79 9.05298 6.752 9.04198L6.769 8.98198L6.786 8.92198L6.803 8.86198L6.82 8.80198C6.861 8.81398 6.903 8.82598 6.944 8.83898C6.985 8.85198 7.026 8.86598 7.066 8.88098C7.106 8.89598 7.147 8.91098 7.187 8.92698C7.227 8.94298 7.266 8.95998 7.305 8.97698L7.28 9.03398L7.255 9.09098L7.228 9.14798L7.203 9.20598ZM4.849 9.02998L4.832 8.96998L4.815 8.90998L4.798 8.84998L4.781 8.78998C4.822 8.77898 4.864 8.76798 4.905 8.75798C4.946 8.74798 4.989 8.73898 5.031 8.73098C5.073 8.72298 5.116 8.71498 5.158 8.70798C5.2 8.70098 5.243 8.69498 5.286 8.68898L5.294 8.75098L5.302 8.81298L5.31 8.87498L5.318 8.93698C5.278 8.94198 5.238 8.94798 5.199 8.95398C5.16 8.95998 5.12 8.96798 5.08 8.97598C5.04 8.98398 5.001 8.99198 4.963 9.00198C4.925 9.01198 4.887 9.01998 4.849 9.02998ZM6.281 8.94098C6.242 8.93598 6.203 8.93098 6.163 8.92598C6.123 8.92098 6.083 8.91798 6.043 8.91498C6.003 8.91198 5.963 8.90998 5.922 8.90798C5.881 8.90598 5.841 8.90498 5.801 8.90498V8.84298V8.78098V8.71898V8.65698C5.844 8.65698 5.888 8.65798 5.931 8.65998C5.974 8.66198 6.017 8.66398 6.06 8.66698C6.103 8.66998 6.146 8.67398 6.188 8.67898C6.23 8.68398 6.273 8.68898 6.314 8.69498L6.305 8.75698L6.298 8.81798L6.289 8.87998L6.281 8.94098Z" fill="#4D4D4D"/>
<path d="M10.915 16.219H10.905H10.895H10.885H10.875V16.157V16.095V16.033V15.971H10.885H10.895H10.905H10.915C10.955 15.971 10.996 15.97 11.036 15.969C11.076 15.968 11.117 15.966 11.157 15.963C11.197 15.96 11.237 15.957 11.277 15.953C11.317 15.949 11.357 15.944 11.396 15.939L11.404 16.001L11.412 16.063L11.42 16.125L11.428 16.187C11.386 16.193 11.343 16.198 11.301 16.202C11.259 16.206 11.216 16.21 11.173 16.213C11.13 16.216 11.087 16.218 11.044 16.219C11.001 16.22 10.958 16.219 10.915 16.219ZM10.359 16.178C10.317 16.172 10.274 16.165 10.232 16.157C10.19 16.149 10.148 16.141 10.106 16.132C10.064 16.123 10.022 16.113 9.98099 16.102C9.93999 16.091 9.89799 16.08 9.85699 16.068L9.87399 16.008L9.89099 15.948L9.90799 15.888L9.92499 15.828C9.96299 15.839 10.002 15.85 10.041 15.86C10.08 15.87 10.119 15.879 10.158 15.888C10.197 15.897 10.237 15.904 10.276 15.912C10.315 15.92 10.355 15.926 10.394 15.932L10.385 15.994L10.376 16.056L10.367 16.118L10.359 16.178ZM11.934 16.081L11.917 16.021L11.9 15.961L11.883 15.901L11.866 15.841C11.905 15.83 11.943 15.819 11.982 15.807C12.021 15.795 12.058 15.782 12.096 15.769C12.134 15.756 12.171 15.742 12.209 15.727C12.247 15.712 12.283 15.697 12.32 15.681L12.345 15.738L12.37 15.795L12.395 15.852L12.42 15.909C12.381 15.926 12.341 15.942 12.302 15.958C12.263 15.974 12.222 15.989 12.181 16.003C12.14 16.017 12.1 16.031 12.059 16.044C12.018 16.057 11.975 16.069 11.934 16.081ZM9.37099 15.89C9.33199 15.872 9.29199 15.854 9.25399 15.835C9.21599 15.816 9.17699 15.796 9.13899 15.776C9.10099 15.756 9.06399 15.735 9.02699 15.714C8.98999 15.693 8.95399 15.671 8.91799 15.648L8.95099 15.595L8.98399 15.542L9.01699 15.489L9.04999 15.436C9.08399 15.457 9.11799 15.477 9.15199 15.497C9.18599 15.517 9.22199 15.536 9.25699 15.555C9.29199 15.574 9.32799 15.592 9.36399 15.61C9.39999 15.628 9.43699 15.645 9.47399 15.662L9.44799 15.72L9.42199 15.777L9.39699 15.833L9.37099 15.89ZM12.877 15.671L12.845 15.618L12.813 15.565L12.781 15.512L12.749 15.459C12.783 15.438 12.817 15.417 12.851 15.395C12.885 15.373 12.918 15.35 12.951 15.327C12.984 15.304 13.016 15.28 13.048 15.256C13.08 15.232 13.112 15.207 13.143 15.181L13.183 15.23L13.223 15.279L13.263 15.328L13.303 15.377C13.27 15.404 13.236 15.431 13.201 15.457C13.166 15.483 13.132 15.508 13.097 15.533C13.062 15.558 13.026 15.582 12.99 15.605C12.954 15.628 12.914 15.649 12.877 15.671ZM8.49999 15.346C8.46699 15.318 8.43399 15.29 8.40199 15.262C8.36999 15.234 8.33799 15.204 8.30699 15.174C8.27599 15.144 8.24499 15.114 8.21499 15.084C8.18499 15.054 8.15599 15.023 8.12699 14.991L8.17299 14.949L8.21899 14.907L8.26499 14.865L8.31099 14.823C8.33799 14.852 8.36499 14.881 8.39299 14.91C8.42099 14.939 8.44999 14.967 8.47899 14.994C8.50799 15.021 8.53799 15.049 8.56799 15.076C8.59799 15.103 8.62899 15.129 8.65999 15.155L8.61999 15.203L8.57999 15.251L8.53999 15.299L8.49999 15.346ZM13.676 15.023L13.63 14.98L13.584 14.937L13.538 14.894L13.492 14.851C13.519 14.822 13.546 14.792 13.573 14.762C13.6 14.732 13.625 14.701 13.651 14.67C13.677 14.639 13.701 14.607 13.726 14.575C13.751 14.543 13.774 14.511 13.797 14.478L13.848 14.514L13.899 14.55L13.95 14.586L14.001 14.622C13.976 14.657 13.951 14.692 13.924 14.726C13.897 14.76 13.871 14.794 13.844 14.827C13.817 14.86 13.789 14.893 13.761 14.925C13.733 14.957 13.705 14.991 13.676 15.023ZM7.80599 14.588C7.78099 14.552 7.75799 14.517 7.73399 14.48C7.70999 14.443 7.68799 14.407 7.66599 14.37C7.64399 14.333 7.62299 14.296 7.60199 14.258C7.58099 14.22 7.56099 14.183 7.54199 14.144L7.59799 14.116L7.65399 14.088L7.70999 14.06L7.76599 14.032C7.78399 14.067 7.80199 14.103 7.82199 14.138C7.84199 14.173 7.86099 14.208 7.88199 14.242C7.90299 14.276 7.92399 14.311 7.94599 14.345C7.96799 14.379 7.98999 14.412 8.01299 14.445L7.96099 14.481L7.90899 14.517L7.85799 14.553L7.80599 14.588ZM14.271 14.185L14.216 14.156L14.161 14.127L14.106 14.098L14.051 14.069C14.069 14.034 14.087 13.998 14.105 13.962C14.123 13.926 14.139 13.889 14.155 13.853C14.171 13.817 14.187 13.779 14.202 13.742C14.217 13.705 14.231 13.667 14.245 13.629L14.304 13.65L14.363 13.671L14.422 13.692L14.481 13.713C14.466 13.753 14.451 13.794 14.435 13.834C14.419 13.874 14.402 13.914 14.385 13.953C14.368 13.992 14.35 14.031 14.331 14.07C14.312 14.109 14.291 14.147 14.271 14.185ZM7.34199 13.67C7.32799 13.629 7.31499 13.588 7.30199 13.547C7.28899 13.506 7.27699 13.464 7.26599 13.423C7.25499 13.382 7.24399 13.34 7.23499 13.298C7.22599 13.256 7.21599 13.214 7.20799 13.172L7.26899 13.16L7.32999 13.148L7.39099 13.136L7.45199 13.124C7.45999 13.163 7.46799 13.202 7.47699 13.241C7.48599 13.28 7.49599 13.319 7.50599 13.358C7.51599 13.397 7.52799 13.436 7.53899 13.474C7.54999 13.512 7.56299 13.551 7.57599 13.589L7.51699 13.609L7.45799 13.629L7.39899 13.649L7.34199 13.67ZM14.618 13.217L14.557 13.204L14.496 13.191L14.435 13.178L14.374 13.165C14.382 13.126 14.39 13.087 14.397 13.048C14.404 13.009 14.41 12.969 14.416 12.929C14.422 12.889 14.426 12.849 14.431 12.809C14.436 12.769 14.439 12.729 14.442 12.689L14.504 12.693L14.566 12.697L14.628 12.701L14.69 12.705C14.687 12.748 14.683 12.791 14.679 12.834C14.675 12.877 14.669 12.92 14.664 12.962C14.659 13.004 14.652 13.047 14.644 13.089C14.636 13.131 14.627 13.176 14.618 13.217ZM7.14199 12.663C7.14099 12.645 7.13999 12.626 7.13899 12.607C7.13799 12.588 7.13799 12.57 7.13799 12.551C7.13799 12.532 7.13699 12.514 7.13699 12.495C7.13699 12.476 7.13699 12.457 7.13699 12.439C7.13699 12.414 7.13699 12.39 7.13799 12.366C7.13899 12.342 7.13899 12.317 7.13999 12.293C7.14099 12.269 7.14199 12.244 7.14299 12.22C7.14399 12.196 7.14599 12.172 7.14799 12.148L7.20999 12.153L7.27199 12.158L7.33399 12.163L7.39599 12.168C7.39399 12.191 7.39299 12.213 7.39199 12.236C7.39099 12.259 7.38999 12.281 7.38899 12.304C7.38799 12.327 7.38699 12.35 7.38699 12.373C7.38699 12.396 7.38599 12.419 7.38599 12.442C7.38599 12.459 7.38599 12.477 7.38599 12.494C7.38599 12.511 7.38699 12.529 7.38699 12.546C7.38699 12.563 7.38799 12.581 7.38899 12.598C7.38999 12.615 7.39099 12.633 7.39199 12.65L7.32999 12.654L7.26799 12.658L7.20599 12.662L7.14199 12.663ZM14.441 12.208C14.438 12.168 14.435 12.127 14.431 12.087C14.427 12.047 14.422 12.007 14.417 11.967C14.412 11.927 14.406 11.888 14.399 11.848C14.392 11.808 14.385 11.77 14.377 11.731L14.438 11.719L14.499 11.707L14.56 11.695L14.621 11.683C14.629 11.725 14.637 11.767 14.644 11.809C14.651 11.851 14.657 11.894 14.663 11.936C14.669 11.978 14.674 12.022 14.678 12.064C14.682 12.106 14.686 12.15 14.688 12.193L14.626 12.197L14.564 12.201L14.502 12.205L14.441 12.208ZM7.46499 11.69L7.40399 11.677L7.34299 11.663L7.28199 11.65L7.22099 11.637C7.22999 11.595 7.23999 11.554 7.24999 11.512C7.25999 11.47 7.27199 11.429 7.28399 11.388C7.29599 11.347 7.30899 11.305 7.32199 11.265C7.33499 11.225 7.34899 11.183 7.36399 11.143L7.42199 11.163L7.48099 11.184L7.53999 11.205L7.59899 11.226C7.58499 11.264 7.57199 11.302 7.55999 11.34C7.54799 11.378 7.53599 11.417 7.52499 11.455C7.51399 11.493 7.50299 11.532 7.49399 11.571C7.48499 11.61 7.47299 11.65 7.46499 11.69ZM14.249 11.267C14.236 11.229 14.222 11.192 14.207 11.154C14.192 11.116 14.177 11.079 14.161 11.042C14.145 11.005 14.129 10.968 14.111 10.932C14.093 10.896 14.076 10.86 14.058 10.824L14.114 10.795L14.17 10.766L14.226 10.737L14.282 10.708C14.302 10.746 14.32 10.785 14.339 10.823C14.358 10.861 14.375 10.901 14.392 10.941C14.409 10.981 14.425 11.02 14.441 11.061C14.457 11.102 14.472 11.141 14.486 11.182L14.427 11.203L14.368 11.224L14.308 11.246L14.249 11.267ZM7.79399 10.788L7.73899 10.759L7.68399 10.73L7.62799 10.7L7.57299 10.671C7.59299 10.634 7.61299 10.596 7.63399 10.559C7.65499 10.522 7.67699 10.485 7.69999 10.448C7.72299 10.411 7.74599 10.375 7.76999 10.339C7.79399 10.303 7.81899 10.267 7.84399 10.232L7.89499 10.268L7.94599 10.304L7.99699 10.34L8.04799 10.376C8.02399 10.409 8.00099 10.442 7.97899 10.476C7.95699 10.51 7.93499 10.543 7.91399 10.578C7.89299 10.613 7.87199 10.646 7.85299 10.681C7.83399 10.716 7.81299 10.753 7.79399 10.788ZM13.81 10.414C13.787 10.381 13.763 10.349 13.739 10.317C13.715 10.285 13.69 10.253 13.665 10.222C13.64 10.191 13.614 10.16 13.588 10.13C13.562 10.1 13.535 10.07 13.508 10.041L13.554 9.99898L13.6 9.95698L13.646 9.91498L13.692 9.87298C13.721 9.90398 13.749 9.93598 13.777 9.96798C13.805 9.99998 13.833 10.033 13.86 10.067C13.887 10.101 13.913 10.134 13.939 10.169C13.965 10.204 13.99 10.238 14.015 10.274L13.964 10.31L13.913 10.346L13.862 10.382L13.81 10.414ZM8.35299 10.008L8.30799 9.96498L8.26299 9.92198L8.21799 9.87898L8.17299 9.83598C8.20199 9.80498 8.23199 9.77398 8.26199 9.74398C8.29199 9.71398 8.32399 9.68398 8.35499 9.65498C8.38599 9.62598 8.41899 9.59698 8.45199 9.56898C8.48499 9.54098 8.51799 9.51298 8.55199 9.48598L8.59099 9.53498L8.62999 9.58398L8.66899 9.63298L8.70799 9.68198C8.67699 9.70698 8.64599 9.73298 8.61499 9.75898C8.58399 9.78498 8.55399 9.81198 8.52499 9.83898C8.49599 9.86598 8.46599 9.89398 8.43799 9.92198C8.40999 9.94998 8.37999 9.97898 8.35299 10.008ZM13.157 9.70898C13.126 9.68398 13.095 9.65898 13.063 9.63398C13.031 9.60898 12.999 9.58598 12.966 9.56198C12.933 9.53798 12.9 9.51598 12.867 9.49398C12.834 9.47198 12.8 9.44998 12.766 9.42898L12.799 9.37598L12.832 9.32298L12.865 9.26998L12.898 9.21698C12.934 9.23898 12.971 9.26298 13.007 9.28598C13.043 9.30898 13.078 9.33398 13.113 9.35898C13.148 9.38398 13.183 9.40998 13.217 9.43598C13.251 9.46198 13.285 9.48898 13.318 9.51598L13.278 9.56398L13.238 9.61198L13.198 9.65998L13.157 9.70898ZM9.10199 9.40698L9.06999 9.35298L9.03799 9.29998L9.00599 9.24698L8.97299 9.19298C9.00899 9.17098 9.04599 9.14998 9.08399 9.12898C9.12199 9.10798 9.15899 9.08798 9.19799 9.06798C9.23699 9.04798 9.27499 9.02898 9.31399 9.01098C9.35299 8.99298 9.39299 8.97498 9.43199 8.95798L9.45599 9.01598L9.47999 9.07398L9.50399 9.13198L9.52799 9.18998C9.49099 9.20598 9.45399 9.22198 9.41799 9.23898C9.38199 9.25598 9.34499 9.27398 9.30999 9.29198C9.27499 9.30998 9.23899 9.32898 9.20399 9.34798C9.16899 9.36698 9.13599 9.38598 9.10199 9.40698ZM12.34 9.20598C12.304 9.18998 12.267 9.17398 12.23 9.15898C12.193 9.14398 12.155 9.12998 12.118 9.11598C12.081 9.10198 12.042 9.08898 12.004 9.07698C11.966 9.06498 11.927 9.05298 11.889 9.04198L11.906 8.98198L11.923 8.92198L11.94 8.86198L11.957 8.80198C11.998 8.81398 12.04 8.82598 12.081 8.83898C12.122 8.85198 12.163 8.86598 12.203 8.88098C12.243 8.89598 12.284 8.91098 12.324 8.92698C12.364 8.94298 12.403 8.95998 12.442 8.97698L12.417 9.03398L12.392 9.09098L12.367 9.14798L12.34 9.20598ZM9.98599 9.02998L9.96899 8.96998L9.95199 8.90998L9.93499 8.84998L9.91799 8.78998C9.95899 8.77898 10.001 8.76798 10.042 8.75798C10.083 8.74798 10.126 8.73898 10.168 8.73098C10.21 8.72298 10.253 8.71498 10.295 8.70798C10.337 8.70098 10.38 8.69498 10.423 8.68898L10.431 8.75098L10.439 8.81298L10.447 8.87498L10.455 8.93698C10.415 8.94198 10.375 8.94798 10.336 8.95398C10.297 8.95998 10.257 8.96798 10.217 8.97598C10.177 8.98398 10.138 8.99198 10.1 9.00198C10.062 9.01198 10.024 9.01998 9.98599 9.02998ZM11.417 8.94098C11.378 8.93598 11.339 8.93098 11.299 8.92598C11.259 8.92098 11.219 8.91798 11.179 8.91498C11.139 8.91198 11.099 8.90998 11.058 8.90798C11.017 8.90598 10.977 8.90498 10.937 8.90498V8.84298V8.78098V8.71898V8.65698C10.98 8.65698 11.024 8.65798 11.067 8.65998C11.11 8.66198 11.153 8.66398 11.196 8.66698C11.239 8.66998 11.282 8.67398 11.324 8.67898C11.366 8.68398 11.409 8.68898 11.45 8.69498L11.441 8.75698L11.432 8.81898L11.423 8.88098L11.417 8.94098Z" fill="#4D4D4D"/>
<path d="M15.546 5.35197C15.546 5.35397 15.546 5.35697 15.547 5.35897C15.548 5.36097 15.548 5.36297 15.549 5.36497C15.55 5.36697 15.551 5.36897 15.552 5.37097C15.553 5.37297 15.554 5.37497 15.556 5.37697L15.743 5.60497L15.93 5.83297L16.117 6.06097L16.304 6.28897L16.382 6.38497L16.46 6.48097L16.538 6.57697L16.616 6.67297H16.492H16.368H16.244H16.12H15.201H14.282H13.363H12.444C12.438 6.67297 12.433 6.67397 12.428 6.67597C12.423 6.67797 12.419 6.68097 12.415 6.68497C12.411 6.68897 12.408 6.69297 12.406 6.69797C12.404 6.70297 12.403 6.70797 12.403 6.71397C12.403 6.71997 12.404 6.72497 12.406 6.72997C12.408 6.73497 12.411 6.73897 12.415 6.74297C12.419 6.74697 12.423 6.74997 12.428 6.75197C12.433 6.75397 12.438 6.75497 12.444 6.75497H13.363H14.282H15.201H16.12H16.244H16.368H16.492H16.616L16.538 6.85097L16.458 6.94297L16.38 7.03897L16.302 7.13497L16.114 7.36297L15.927 7.59197L15.74 7.82097L15.553 8.04997C15.551 8.05197 15.55 8.05397 15.549 8.05597C15.548 8.05797 15.547 8.05997 15.546 8.06197C15.545 8.06397 15.545 8.06597 15.544 8.06897C15.543 8.07197 15.543 8.07397 15.543 8.07597C15.543 8.07797 15.543 8.07997 15.544 8.08197C15.544 8.08397 15.545 8.08697 15.546 8.08997C15.547 8.09297 15.548 8.09597 15.55 8.09897C15.552 8.10197 15.555 8.10497 15.558 8.10697C15.561 8.10897 15.563 8.11097 15.566 8.11197C15.569 8.11297 15.571 8.11397 15.574 8.11497C15.577 8.11597 15.579 8.11597 15.581 8.11597C15.583 8.11597 15.585 8.11597 15.587 8.11597C15.589 8.11597 15.591 8.11497 15.593 8.11497C15.595 8.11397 15.598 8.11397 15.6 8.11297C15.602 8.11197 15.605 8.10997 15.607 8.10897C15.609 8.10697 15.612 8.10497 15.614 8.10197L15.893 7.76097L16.172 7.41997L16.451 7.07897L16.73 6.73797C16.732 6.73597 16.733 6.73297 16.735 6.73097C16.737 6.72897 16.737 6.72597 16.738 6.72397C16.739 6.72197 16.739 6.71997 16.739 6.71797C16.739 6.71597 16.739 6.71397 16.739 6.71297C16.739 6.71097 16.739 6.70997 16.739 6.70797C16.739 6.70597 16.738 6.70397 16.738 6.70197C16.737 6.69997 16.736 6.69697 16.735 6.69497C16.734 6.69297 16.732 6.68997 16.73 6.68797L16.453 6.34897L16.176 6.00997L15.899 5.67097L15.622 5.33197C15.618 5.32697 15.613 5.32197 15.608 5.31897C15.603 5.31597 15.598 5.31397 15.592 5.31297C15.586 5.31197 15.581 5.31197 15.576 5.31397C15.571 5.31497 15.566 5.31797 15.562 5.32097C15.559 5.32397 15.556 5.32597 15.554 5.32897C15.552 5.33197 15.55 5.33497 15.549 5.33797C15.548 5.34097 15.547 5.34397 15.547 5.34597C15.547 5.34797 15.546 5.34997 15.546 5.35197Z" fill="#4D4D4D"/>
</svg>
