<svg width="30" height="30" viewBox="0 0 30 30" fill="none" xmlns="http://www.w3.org/2000/svg">
<rect width="30" height="30" fill="white"/>
<path d="M6.08292 13.6151C6.08292 13.6151 7.82718 11.6843 8.73755 12.0013C9.08218 12.122 9.4147 12.4071 9.72023 12.7708C10.5932 14.2403 11.315 15.8095 11.315 15.8095C11.315 15.8095 13.9752 11.6546 17.5717 7.92416C19.2139 6.22003 21.1716 4.58614 22.9702 3.53045C22.9702 3.53045 23.529 3.13115 23.8941 3.00001C23.9446 3.1007 24.3252 3.61799 24.3252 3.61799C24.3252 3.61799 22.1806 5.51727 20.6785 7.20271C17.1475 10.8587 14.0752 15.523 13.0351 18.2434L10.2521 20.4191C10.2521 20.4191 7.64345 13.5068 6.08292 13.6151Z" fill="#2CB455"/>
<path d="M4.59272 23.3948H6.30931C6.91207 23.3948 7.34597 23.2927 7.61171 23.0872C7.87572 22.8827 8.00825 22.5505 8.00825 22.0906C8.00825 21.8799 7.96707 21.69 7.88333 21.5204C7.7996 21.3505 7.68057 21.2142 7.52521 21.1118C7.40479 21.0298 7.26154 20.9713 7.09511 20.9363C6.92764 20.901 6.65463 20.8831 6.27402 20.8831H6.02419H4.59272V23.3948ZM4 26.8196V20.3523H6.15533C6.65602 20.3523 7.01829 20.3727 7.24251 20.4139C7.46569 20.4547 7.66154 20.5218 7.82866 20.6159C8.08264 20.7592 8.27918 20.9574 8.41724 21.2104C8.55426 21.464 8.62242 21.7515 8.62242 22.0737C8.62242 22.4713 8.53419 22.8066 8.35565 23.0789C8.17641 23.3512 7.91759 23.5456 7.5778 23.6626C7.84147 23.7505 8.03074 23.8851 8.14423 24.0664C8.25911 24.2484 8.33869 24.6138 8.38609 25.164L8.46914 26.1345C8.48125 26.2864 8.50512 26.4127 8.53938 26.5124C8.57467 26.6117 8.62 26.685 8.67606 26.7321V26.8196H8.0169C7.98195 26.7522 7.95288 26.6643 7.92935 26.5563C7.90548 26.448 7.88852 26.3145 7.87641 26.1563L7.80202 25.3006C7.75808 24.7093 7.65289 24.3321 7.48576 24.1699C7.31967 24.0072 6.98369 23.9259 6.48024 23.9259H4.59272V26.8196H4Z" fill="#4D4D4D"/>
<path d="M10.0236 24.4926C10.0236 25.1192 10.1613 25.605 10.4385 25.9504C10.7149 26.296 11.1042 26.4683 11.6042 26.4683C12.1111 26.4683 12.5011 26.2971 12.7761 25.9549C13.0512 25.612 13.1889 25.1248 13.1889 24.4926C13.1889 23.8604 13.0512 23.3725 12.7761 23.0286C12.5011 22.6843 12.1111 22.5123 11.6042 22.5123C11.1042 22.5123 10.7149 22.685 10.4385 23.0307C10.1613 23.3757 10.0236 23.8632 10.0236 24.4926ZM9.46616 24.4926C9.46616 23.7109 9.65266 23.1061 10.0264 22.677C10.3994 22.2487 10.925 22.0338 11.6042 22.0338C12.2862 22.0338 12.8152 22.2487 13.1917 22.677C13.5675 23.1061 13.7561 23.7109 13.7561 24.4926C13.7561 25.268 13.5689 25.8697 13.1938 26.2971C12.8194 26.7244 12.2896 26.9382 11.6042 26.9382C10.925 26.9382 10.3994 26.7254 10.0264 26.2991C9.65266 25.8732 9.46616 25.2711 9.46616 24.4926Z" fill="#4D4D4D"/>
<path d="M14.836 26.8198V20.3524H15.4281V23.1579H19.1252V20.3524H19.7277V26.8198H19.1252V23.689H15.4281V26.8198H14.836Z" fill="#4D4D4D"/>
<path d="M20.8602 24.8616H21.4529C21.4585 25.371 21.619 25.7658 21.9353 26.0471C22.2515 26.3277 22.6965 26.4685 23.2702 26.4685C23.7737 26.4685 24.1695 26.355 24.4581 26.128C24.746 25.9011 24.8906 25.5889 24.8906 25.1907C24.8906 24.8218 24.7892 24.5409 24.5871 24.3478C24.3854 24.1547 23.983 23.9803 23.3802 23.825L22.7654 23.6713C22.1038 23.5014 21.646 23.2855 21.3934 23.0232C21.1394 22.762 21.0135 22.3935 21.0135 21.9198C21.0135 21.3952 21.2055 20.9755 21.5886 20.6596C21.9726 20.3434 22.4847 20.1852 23.1256 20.1852C23.8048 20.1852 24.3352 20.3579 24.7176 20.7032C25.0989 21.0485 25.2947 21.5316 25.3037 22.1523H24.7017C24.6927 21.6932 24.5494 21.3378 24.2716 21.088C23.9934 20.8371 23.6027 20.7122 23.0993 20.7122C22.6249 20.7122 22.2571 20.8191 21.9969 21.033C21.7367 21.2468 21.6062 21.5478 21.6062 21.9371C21.6062 22.2326 21.6913 22.4662 21.8612 22.6371C22.0308 22.8087 22.3117 22.944 22.7038 23.0437L23.4595 23.2326C24.2055 23.4198 24.73 23.6568 25.0314 23.944C25.3328 24.2308 25.4833 24.6253 25.4833 25.1291C25.4833 25.7087 25.2847 26.1654 24.8889 26.4986C24.4913 26.8329 23.9494 27 23.2612 27C22.4917 27 21.8996 26.819 21.4841 26.4571C21.0685 26.0959 20.8602 25.5782 20.8602 24.9052V24.8616Z" fill="#4D4D4D"/>
</svg>
