<svg width="30" height="30" viewBox="0 0 30 30" fill="none" xmlns="http://www.w3.org/2000/svg">
<rect width="30" height="30" fill="white"/>
<path d="M30 30H22.5H15H7.5H0V22.5003V15.0005V7.49975V0H7.5H15H22.5H30V7.49975V14.9995V22.4992V30ZM0.252287 29.7477H7.62614H15H22.3739H29.7477V22.3741V15.0005V7.62589V0.252279H22.3739H15H7.62614H0.252287V7.62589V14.9995V22.3731V29.7477Z" fill="#4D4D4D"/>
<path d="M14.4996 6C13.8954 6 13.3004 6.0557 12.7198 6.1654C12.1392 6.27511 11.573 6.43797 11.027 6.65232C10.481 6.86751 9.95528 7.13249 9.45655 7.44726C8.95782 7.76118 8.48524 8.12321 8.04474 8.53249V7.98397V7.43544V6.88692V6.3384H7.96963H7.89452H7.81857H7.74347V7.0135V7.68861V8.36371V9.03882H8.41857H9.09368H9.76879H10.4439V8.96287V8.88776V8.81266V8.73671H9.89959H9.35528H8.81098H8.26668C8.69284 8.34346 9.14938 7.99494 9.63123 7.69283C10.1131 7.39072 10.6203 7.13587 11.1477 6.92911C11.6743 6.72321 12.2211 6.56624 12.7814 6.46076C13.3418 6.35527 13.9165 6.30127 14.4996 6.30127C15.7679 6.30127 16.9764 6.55949 18.0768 7.02532C19.1772 7.49114 20.1679 8.1654 21.0009 8.99831C21.8338 9.83122 22.508 10.8219 22.9738 11.9224C23.4397 13.0228 23.6979 14.2312 23.6979 15.4996C23.6979 16.1139 23.638 16.719 23.5215 17.3089C23.4042 17.8979 23.2304 18.4717 23.0025 19.0228C22.7738 19.5738 22.4911 20.1021 22.157 20.6017C21.8228 21.1013 21.4371 21.5713 21.0025 22.0059C20.9367 22.0717 20.8701 22.1367 20.8017 22.2008C20.7333 22.265 20.6641 22.3283 20.5949 22.3899C20.5249 22.4515 20.454 22.5131 20.3823 22.5722C20.3106 22.6321 20.238 22.6903 20.1646 22.7477L20.1511 22.7578L20.1376 22.7679L20.1241 22.7781L20.1106 22.7882L20.157 22.8481L20.2034 22.908L20.2498 22.9679L20.2962 23.0278L20.3097 23.0169L20.3232 23.0059L20.3367 22.9949L20.3502 22.984C20.4262 22.9249 20.5004 22.8641 20.5747 22.8025C20.649 22.7409 20.7224 22.6776 20.7941 22.6135C20.8667 22.5494 20.9376 22.4844 21.0084 22.4186C21.0785 22.3527 21.1477 22.2852 21.216 22.2177C21.665 21.7696 22.0633 21.2835 22.4084 20.7679C22.7536 20.2523 23.0456 19.7063 23.281 19.1376C23.5165 18.5688 23.6962 17.9764 23.8177 17.3671C23.9384 16.7587 24 16.1333 24 15.4987C24 14.189 23.7333 12.9409 23.2523 11.8042C22.7713 10.6675 22.0743 9.64388 21.2144 8.78397C20.3544 7.92405 19.3308 7.22785 18.1941 6.74599C17.0574 6.26414 15.8093 6 14.4996 6Z" fill="#4D4D4D"/>
<path d="M6.27679 20.2608C6.38987 20.4549 6.50886 20.6456 6.63544 20.8312C6.76118 21.0169 6.89452 21.1983 7.03291 21.3739C7.17131 21.5494 7.3173 21.7215 7.46836 21.8878C7.61941 22.054 7.77637 22.2152 7.93924 22.3705L7.99156 22.3156L8.04388 22.2608L8.0962 22.2059L8.14852 22.1511C7.99072 22 7.83882 21.8448 7.69198 21.6836C7.54515 21.5224 7.40506 21.357 7.27089 21.1857C7.13671 21.0144 7.00844 20.8397 6.88608 20.6599C6.76287 20.4819 6.64726 20.2971 6.53755 20.1089L6.47257 20.1469L6.4076 20.1848L6.34262 20.2228L6.27679 20.2608Z" fill="#4D4D4D"/>
<path d="M5.30886 15.1089L5.23376 15.1055L5.15865 15.1021L5.08354 15.0988L5.00844 15.0954C5.00675 15.1292 5.00591 15.1621 5.00506 15.1958C5.00422 15.2296 5.00338 15.2633 5.00253 15.2962C5.00169 15.33 5.00169 15.3638 5.00084 15.3975C5.00084 15.4313 5 15.465 5 15.4988C5 15.6903 5.00591 15.8819 5.01688 16.0735C5.02869 16.2642 5.04557 16.4549 5.06835 16.6448C5.09114 16.8346 5.11983 17.0228 5.15359 17.2102C5.18734 17.3975 5.227 17.584 5.27257 17.7688L5.34599 17.7511L5.41941 17.7334L5.49283 17.7157L5.56624 17.6979C5.52236 17.519 5.48439 17.3393 5.45063 17.157C5.41772 16.9756 5.38987 16.7924 5.36793 16.6093C5.34599 16.4254 5.32911 16.2414 5.31814 16.0566C5.30717 15.8718 5.30127 15.6861 5.30127 15.5005C5.30127 15.4676 5.30127 15.4355 5.30211 15.4026C5.30295 15.3697 5.30295 15.3376 5.3038 15.3047C5.30464 15.2718 5.30549 15.2397 5.30633 15.2068C5.30717 15.1739 5.30802 15.1418 5.30886 15.1089Z" fill="#4D4D4D"/>
<path d="M10.1232 23.9333C10.3232 24.0371 10.5266 24.1342 10.7325 24.2228C10.9384 24.3122 11.1477 24.3941 11.3595 24.4675C11.5713 24.5418 11.7857 24.6084 12.0025 24.6675C12.2194 24.7266 12.438 24.7772 12.6591 24.8211L12.6734 24.7468L12.6878 24.6726L12.7021 24.5983L12.7165 24.524C12.503 24.4819 12.2911 24.4329 12.081 24.3755C11.8709 24.3181 11.6641 24.254 11.4591 24.1823C11.254 24.1105 11.0515 24.0312 10.8523 23.9451C10.6523 23.8591 10.4557 23.7654 10.2625 23.665L10.2279 23.7316L10.1933 23.7983L10.1578 23.8667L10.1232 23.9333Z" fill="#4D4D4D"/>
<path d="M15.3139 24.6624L15.3207 24.7375L15.3274 24.8126L15.3342 24.8877L15.3409 24.9628C15.5654 24.9434 15.789 24.9156 16.011 24.8801C16.2329 24.8447 16.4532 24.8017 16.6717 24.7502C16.8903 24.6987 17.1072 24.6405 17.3207 24.5738C17.535 24.5071 17.7468 24.4329 17.9561 24.351L17.9283 24.281L17.9004 24.2109L17.8726 24.1409L17.8447 24.0709C17.6422 24.1502 17.4371 24.2219 17.2295 24.2861C17.0219 24.3502 16.8127 24.4076 16.6008 24.4574C16.389 24.5071 16.1755 24.5485 15.9612 24.5831C15.7485 24.6169 15.5316 24.643 15.3139 24.6624Z" fill="#4D4D4D"/>
<path d="M5.50211 12.4431L5.57384 12.4676L5.64557 12.492L5.7173 12.5165L5.78903 12.541C5.82025 12.4481 5.854 12.3553 5.8886 12.2625C5.9232 12.1697 5.95949 12.0777 5.99746 11.9865C6.03544 11.8954 6.0751 11.8043 6.11561 11.714C6.15611 11.6237 6.19831 11.5342 6.24219 11.4456L6.17468 11.4127L6.10717 11.3798L6.03966 11.3469L5.97215 11.314C5.92742 11.4051 5.88354 11.4979 5.84135 11.5908C5.79915 11.6836 5.75865 11.7781 5.71898 11.8726C5.68016 11.9671 5.64219 12.0625 5.6059 12.1578C5.56962 12.2515 5.53502 12.3469 5.50211 12.4431Z" fill="#4D4D4D"/>
<path d="M15.3907 15.8793C15.3907 15.8793 15.3899 15.8793 15.3899 15.8785C15.3899 15.8776 15.389 15.8785 15.389 15.8776C15.389 15.8768 15.3882 15.8776 15.3882 15.8768C15.3882 15.876 15.3873 15.8768 15.3873 15.876C15.3865 15.876 15.3865 15.876 15.3857 15.8751C15.3848 15.8743 15.3848 15.8751 15.384 15.8743C15.3831 15.8743 15.3831 15.8743 15.3823 15.8734C15.3814 15.8734 15.3814 15.8734 15.3806 15.8726L15.3705 15.8692L15.3603 15.8658L15.3502 15.8625L15.3401 15.8591L16.4793 15.1046L17.6186 14.3502L18.7578 13.5958L19.897 12.8414L19.2338 11.8397L18.5713 10.8388L17.908 9.83714L17.2447 8.83545L15.1249 10.238L13.0059 11.6414L10.8869 13.0447L8.76794 14.449L9.03798 14.8565L9.30802 15.2641L9.57806 15.6717L9.84811 16.0793L9.61519 16.7207L9.38228 17.362L9.14937 18.0034L8.91646 18.6447L10.1232 19.0827L11.33 19.5207L12.5367 19.9587L13.7435 20.3966C13.7435 20.3966 13.7435 20.3966 13.7443 20.3966C13.7443 20.3966 13.7443 20.3966 13.7452 20.3966L14.9519 20.8346L16.1587 21.2726L17.3654 21.7106L18.5722 22.1485L18.9823 21.0194L19.3924 19.8903L19.8025 18.7612L20.2127 17.6321L19.0068 17.1941L17.8008 16.7561L16.5949 16.3182L15.3907 15.8793ZM16.4692 17.2473C16.5283 17.3747 16.5747 17.5055 16.6076 17.6388C16.6405 17.7722 16.6599 17.9072 16.6658 18.0439C16.6717 18.1798 16.6641 18.3165 16.6439 18.4523C16.6228 18.5882 16.589 18.7224 16.5409 18.8549C16.4658 19.0616 16.3595 19.2523 16.2295 19.4211C16.0987 19.5899 15.9443 19.7367 15.7713 19.8582C15.5983 19.9798 15.4068 20.0751 15.2042 20.1401C15.0017 20.2051 14.7865 20.2397 14.5662 20.2397C14.5055 20.2397 14.4447 20.2371 14.384 20.2321C14.3232 20.227 14.2633 20.2186 14.2034 20.2084C14.1435 20.1975 14.0844 20.1848 14.0253 20.1688C13.9662 20.1528 13.908 20.1342 13.8498 20.1139H13.8489H13.8481H13.8473H13.8464C13.6008 20.0245 13.3823 19.8937 13.1949 19.7325C13.0076 19.5713 12.8532 19.3789 12.7342 19.1671C12.6152 18.9553 12.5342 18.7232 12.4937 18.4819C12.454 18.2405 12.4549 17.9899 12.503 17.7409L12.6498 17.6439L12.7966 17.5468L12.9435 17.4498L13.0903 17.3527L13.0785 17.384L13.0667 17.4152L13.0549 17.4464L13.043 17.4776L13.135 17.5106L13.227 17.5435L13.319 17.5764L13.411 17.6093C13.4076 17.6169 13.4042 17.6245 13.4008 17.6321C13.3975 17.6397 13.3941 17.6473 13.3907 17.6557C13.3873 17.6633 13.384 17.6717 13.3806 17.6793C13.3772 17.6869 13.3747 17.6954 13.3713 17.703C13.3688 17.7114 13.3654 17.719 13.3629 17.7274C13.3603 17.7359 13.3578 17.7435 13.3553 17.7519C13.3527 17.7603 13.3502 17.7679 13.3485 17.7764C13.346 17.7848 13.3443 17.7924 13.3418 17.8009L13.2506 17.7679L13.1595 17.735L13.0684 17.7021L12.9772 17.6692L12.9519 17.7401L12.9266 17.811L12.9013 17.8819L12.876 17.9528L12.9806 17.9907L13.0852 18.0287L13.1899 18.0667L13.2945 18.1046C13.2911 18.1603 13.292 18.216 13.2954 18.2717C13.2996 18.3274 13.3063 18.3831 13.3173 18.438C13.3283 18.4928 13.3418 18.5477 13.3595 18.6017C13.3772 18.6557 13.3983 18.7089 13.4219 18.7603C13.4608 18.8439 13.5072 18.9224 13.5612 18.9949C13.6144 19.0675 13.6743 19.1342 13.7409 19.1949C13.8068 19.2557 13.8793 19.3089 13.9561 19.3561C14.0329 19.4025 14.1156 19.4422 14.2025 19.4734C14.2405 19.4869 14.2785 19.4987 14.3173 19.5097C14.3561 19.5198 14.3949 19.5283 14.4338 19.535C14.4726 19.5418 14.5122 19.5468 14.5519 19.5502C14.5916 19.5536 14.6312 19.5553 14.67 19.5553C14.7384 19.5553 14.8076 19.5502 14.8751 19.5401C14.9426 19.53 15.0101 19.5148 15.076 19.4945C15.1418 19.4743 15.2068 19.449 15.2692 19.4194C15.3316 19.389 15.3924 19.3544 15.4506 19.3148L15.4084 19.2523L15.3662 19.1899L15.3241 19.1274L15.2819 19.065C15.2101 19.1139 15.1333 19.1536 15.054 19.1831C14.9747 19.2135 14.892 19.2338 14.8084 19.2447C14.7249 19.2557 14.6397 19.2565 14.5553 19.2473C14.4709 19.238 14.3873 19.2186 14.3063 19.189C14.2388 19.1646 14.1738 19.1333 14.1139 19.0971C14.054 19.0608 13.9975 19.0186 13.946 18.9713C13.8945 18.9241 13.8473 18.8717 13.8059 18.8152C13.7646 18.7587 13.7283 18.6971 13.6971 18.6321C13.681 18.5983 13.6675 18.5646 13.6557 18.53C13.6439 18.4954 13.6338 18.4608 13.6253 18.4262C13.6169 18.3907 13.6101 18.3561 13.6059 18.3198C13.6008 18.2844 13.5983 18.249 13.5966 18.2127L13.8321 18.2979L14.0675 18.3831L14.303 18.4684L14.5384 18.5536L14.5637 18.4827L14.589 18.4118L14.6143 18.3409L14.6397 18.27L14.3882 18.1789L14.1367 18.0878L13.8852 17.9966L13.6338 17.9055C13.6363 17.8971 13.638 17.8886 13.6397 17.8802C13.6414 17.8717 13.643 17.8633 13.6456 17.8557C13.6473 17.8473 13.6498 17.8388 13.6515 17.8312C13.6532 17.8236 13.6565 17.8152 13.6591 17.8068C13.6625 17.7983 13.665 17.7907 13.6684 17.7831C13.6717 17.7755 13.6751 17.7671 13.6776 17.7595C13.681 17.7519 13.6844 17.7443 13.6878 17.7359C13.6911 17.7283 13.6945 17.7207 13.6987 17.7131L13.9519 17.8051L14.2051 17.8971L14.4582 17.989L14.7114 18.081L14.7367 18.0101L14.762 17.9392L14.7873 17.8684L14.8127 17.7975L14.5772 17.7122L14.3418 17.627L14.1063 17.5418L13.8709 17.4565C13.9426 17.3772 14.0245 17.3097 14.1148 17.2557C14.2051 17.2017 14.3021 17.1603 14.4042 17.1333C14.5063 17.1072 14.6127 17.0954 14.7198 17.0996C14.827 17.1038 14.9359 17.1249 15.0414 17.1629C15.1215 17.1924 15.1975 17.2295 15.2667 17.2751C15.3359 17.3207 15.3992 17.3738 15.4557 17.4338C15.5122 17.4937 15.562 17.5603 15.6034 17.6321C15.6447 17.7038 15.6785 17.7814 15.7038 17.8641L15.7764 17.8422L15.8489 17.8203L15.9215 17.7983L15.9941 17.7764C15.962 17.6709 15.919 17.5722 15.8658 17.4802C15.8127 17.3882 15.7494 17.303 15.6768 17.2262C15.6042 17.1494 15.5232 17.0819 15.4346 17.0236C15.346 16.9654 15.2489 16.9173 15.146 16.8793C15 16.8262 14.8515 16.7992 14.7038 16.7966C14.557 16.7933 14.4118 16.8144 14.2734 16.8565C14.135 16.8987 14.0042 16.962 13.8852 17.0447C13.7662 17.1274 13.6599 17.2287 13.5713 17.3468L13.4962 17.319L13.4211 17.2911L13.346 17.2633L13.2709 17.2354L13.7055 16.9477L14.1401 16.6599L14.5747 16.3722L15.0093 16.0844C15.0321 16.0895 15.0549 16.0945 15.0785 16.1004C15.1013 16.1063 15.1241 16.1122 15.1468 16.1181C15.1696 16.1241 15.1924 16.1308 15.2152 16.1384C15.238 16.1452 15.2599 16.1527 15.2827 16.1612L15.2852 16.162L15.2878 16.1629L15.2903 16.1637L15.2928 16.1646C15.4245 16.2127 15.5494 16.2726 15.6658 16.3435C15.7831 16.4144 15.892 16.4962 15.9924 16.5882C16.0928 16.6802 16.184 16.7814 16.2641 16.892C16.3392 17.0009 16.4101 17.1207 16.4692 17.2473ZM12.2025 12.5359C12.1772 12.5848 12.1527 12.6354 12.1308 12.6861C12.1089 12.7367 12.0878 12.789 12.0692 12.8414C12.0506 12.8937 12.0338 12.9477 12.0186 13.0017C12.0034 13.0557 11.9899 13.1114 11.9789 13.1671C11.9519 13.2996 11.9367 13.4338 11.9316 13.5663C11.9274 13.6987 11.9342 13.8312 11.9511 13.9612C11.9688 14.092 11.9966 14.2203 12.0354 14.346C12.0743 14.4717 12.1241 14.5949 12.1831 14.7148C12.1941 14.7367 12.2051 14.7587 12.2169 14.7806C12.2287 14.8025 12.2405 14.8236 12.2523 14.8456C12.2641 14.8667 12.2768 14.8886 12.2895 14.9097C12.3021 14.9308 12.3156 14.9519 12.3291 14.9722C12.3384 14.9865 12.3485 15 12.3578 15.0135C12.3679 15.027 12.3781 15.0405 12.3882 15.054C12.3983 15.0675 12.4084 15.0802 12.4194 15.0937C12.4295 15.1072 12.4405 15.1198 12.4506 15.1333C12.5257 15.2287 12.6076 15.3173 12.6945 15.3992C12.7814 15.481 12.8751 15.5553 12.9722 15.6228C13.0692 15.6903 13.1722 15.7494 13.2793 15.8017C13.3857 15.854 13.4962 15.8979 13.6101 15.9333C13.6675 15.9519 13.7266 15.9679 13.7857 15.9823C13.8447 15.9966 13.9046 16.0084 13.9654 16.0186C14.0262 16.0287 14.0869 16.0363 14.1485 16.0414C14.2101 16.0464 14.2717 16.049 14.3342 16.049C14.3502 16.049 14.3654 16.049 14.3814 16.0481C14.3975 16.0481 14.4127 16.0473 14.4279 16.0464C14.443 16.0456 14.4591 16.0447 14.4743 16.0439C14.4895 16.043 14.5055 16.0422 14.5207 16.0405L14.0515 16.3511L13.5823 16.6616L13.1131 16.9722L12.6439 17.2827L12.5409 17.3511L12.438 17.4194L12.335 17.4878L12.2321 17.5561L12.0506 17.6768L11.8692 17.7975L11.6878 17.9182L11.5063 18.0388L11.1755 17.5384L10.8447 17.038L10.5139 16.5376L10.1831 16.038L10.1308 15.9595L10.0793 15.881L10.0279 15.8025L9.97638 15.7241L9.77891 15.4262L9.58144 15.1283L9.38397 14.8304L9.1865 14.5333L9.94009 14.0338L10.6937 13.5342L11.4473 13.0346L12.2025 12.5359ZM17.1595 9.25317L17.7401 10.1291L18.3207 11.0051L18.9013 11.881L19.4819 12.757L18.7283 13.2565L17.9747 13.7561L17.2186 14.2549L16.465 14.7544C16.4903 14.7055 16.5148 14.6557 16.5367 14.6042C16.5587 14.5536 16.5798 14.5013 16.5983 14.449C16.6169 14.3966 16.6338 14.3426 16.6489 14.2886C16.6641 14.2346 16.6776 14.1798 16.6886 14.1241C16.7207 13.9671 16.7367 13.8084 16.7376 13.6523C16.7384 13.4954 16.7232 13.3392 16.6937 13.1865C16.6641 13.0338 16.6186 12.8836 16.5595 12.7384C16.5004 12.5933 16.4253 12.4532 16.3367 12.319C16.2253 12.1502 16.0945 11.9992 15.9494 11.8667C15.8034 11.7342 15.643 11.6203 15.4709 11.5283C15.2987 11.4354 15.1156 11.3646 14.9241 11.3165C14.7333 11.2684 14.5342 11.243 14.3316 11.243C14.3156 11.243 14.3004 11.243 14.2844 11.2439C14.2684 11.2439 14.2532 11.2447 14.2371 11.2456C14.2211 11.2464 14.2059 11.2473 14.1899 11.2481C14.1738 11.249 14.1587 11.2498 14.1435 11.2515L14.8971 10.7519L15.6506 10.2523L16.4042 9.75275L17.1595 9.25317ZM12.6371 14.8793C12.6329 14.8734 12.6279 14.8667 12.6236 14.8608C12.6186 14.8549 12.6144 14.849 12.6093 14.843C12.6042 14.8371 12.6 14.8312 12.5949 14.8245C12.5907 14.8186 12.5857 14.8118 12.5814 14.8059C12.5038 14.6886 12.4388 14.5663 12.3873 14.4388C12.335 14.3122 12.2962 14.1806 12.27 14.0473C12.2439 13.9139 12.2312 13.7772 12.2321 13.6397C12.2329 13.5021 12.2464 13.3646 12.2751 13.227C12.303 13.0895 12.3443 12.957 12.3966 12.8304C12.4498 12.7038 12.5148 12.5831 12.5907 12.47C12.6667 12.357 12.7544 12.2515 12.8515 12.1553C12.9485 12.0591 13.0565 11.9713 13.1738 11.8937C13.2599 11.8363 13.3502 11.7857 13.443 11.7426C13.5359 11.6987 13.6312 11.6625 13.7283 11.6329C13.8253 11.6034 13.9249 11.5814 14.0262 11.5663C14.1274 11.5511 14.2295 11.5435 14.3325 11.5435C14.5097 11.5435 14.6835 11.5654 14.8506 11.6076C15.0177 11.6498 15.1781 11.7122 15.3291 11.7933C15.4793 11.8743 15.6203 11.973 15.7477 12.0895C15.8751 12.2059 15.989 12.3376 16.0869 12.4852C16.1646 12.6025 16.2295 12.7249 16.2819 12.8523C16.3342 12.9798 16.373 13.1106 16.3992 13.2439C16.4253 13.3772 16.438 13.5139 16.4371 13.6515C16.4363 13.789 16.4228 13.9266 16.3941 14.0641C16.3662 14.2017 16.3249 14.3342 16.2726 14.4608C16.2194 14.5873 16.1544 14.708 16.0785 14.8211C16.0025 14.9342 15.9148 15.0397 15.8177 15.1359C15.7198 15.2321 15.6127 15.3198 15.4954 15.3975C15.4447 15.4304 15.3933 15.4616 15.3409 15.4895C15.2886 15.5173 15.2346 15.5435 15.1798 15.5671C15.1249 15.5907 15.0692 15.6118 15.0135 15.6304C14.957 15.649 14.9004 15.6658 14.843 15.6802C14.8144 15.6878 14.7857 15.6937 14.7561 15.6996C14.7266 15.7055 14.6979 15.7106 14.6692 15.7156C14.6405 15.7207 14.611 15.7241 14.5814 15.7274C14.5519 15.7308 14.5224 15.7333 14.4928 15.7359C14.4802 15.7367 14.4667 15.7384 14.454 15.7392C14.4414 15.7401 14.4287 15.7418 14.4152 15.7426C14.4017 15.7435 14.389 15.7452 14.3764 15.746C14.3637 15.7468 14.3502 15.7468 14.3376 15.7468C14.3367 15.7468 14.3359 15.7468 14.335 15.7468C14.3342 15.7468 14.3333 15.7468 14.3325 15.7468C14.3316 15.7468 14.3308 15.7468 14.33 15.7468C14.3291 15.7468 14.3283 15.7468 14.3274 15.7468C14.3089 15.7468 14.2903 15.746 14.2717 15.746C14.2532 15.7452 14.2346 15.7443 14.216 15.7435C14.1975 15.7426 14.1789 15.7409 14.1603 15.7392C14.1418 15.7376 14.1232 15.7359 14.1055 15.7333C14.0219 15.7241 13.9392 15.7097 13.8582 15.6911C13.7772 15.6717 13.6979 15.6481 13.6203 15.6203C13.5426 15.5916 13.4667 15.5587 13.3933 15.5215C13.3198 15.4844 13.2481 15.443 13.1789 15.3975C13.1274 15.3629 13.0768 15.3266 13.0287 15.2878C12.9806 15.249 12.9333 15.2076 12.8886 15.1646C12.8439 15.1215 12.8008 15.076 12.7595 15.0287C12.7181 14.9814 12.6743 14.9308 12.6371 14.8793ZM9.30211 18.4608L9.4903 17.9435L9.67848 17.4262L9.86667 16.9089L10.0549 16.3916L10.3966 16.908L10.7384 17.4245L11.0802 17.9409L11.4219 18.4574L11.6093 18.3333L11.7966 18.2093L11.984 18.0852L12.1713 17.9612C12.1595 18.1224 12.1637 18.2827 12.184 18.4397C12.2042 18.5966 12.2397 18.7511 12.2895 18.9004C12.3392 19.0498 12.4042 19.1933 12.4819 19.33C12.5595 19.4667 12.6515 19.5958 12.7553 19.7156L11.892 19.4025L11.0287 19.0895L10.1654 18.7764L9.30211 18.4608ZM18.3941 21.7629L17.5316 21.4498L16.6692 21.1367L15.8068 20.8236L14.9443 20.5106C15.157 20.476 15.362 20.4135 15.5544 20.3266C15.7468 20.2397 15.9274 20.1266 16.0903 19.9933C16.2532 19.8599 16.3992 19.7038 16.5232 19.53C16.6473 19.3561 16.7485 19.1646 16.8236 18.9578C16.8785 18.8068 16.9173 18.6532 16.9418 18.4979C16.9654 18.3426 16.9738 18.1865 16.9671 18.0312C16.9603 17.876 16.9384 17.7207 16.9004 17.5679C16.8625 17.4152 16.8101 17.2658 16.7426 17.1207C16.7181 17.0692 16.6928 17.0186 16.665 16.9696C16.638 16.9207 16.6084 16.8726 16.5781 16.8262C16.5477 16.7798 16.5156 16.7342 16.4819 16.6895C16.4481 16.6456 16.4135 16.6025 16.3772 16.5603L17.2397 16.8734L18.1021 17.1865L18.9646 17.4996L19.827 17.8127L19.4684 18.8L19.1097 19.7873L18.7511 20.7747L18.3941 21.7629Z" fill="#4D4D4D"/>
<path d="M14.8135 13.9967C14.8144 14.022 14.8135 14.0431 14.8101 14.0616C14.8076 14.0802 14.8025 14.0954 14.7975 14.1081C14.7924 14.1207 14.7857 14.1308 14.7789 14.1393C14.7722 14.1477 14.7654 14.1545 14.7595 14.1595C14.735 14.1806 14.7021 14.195 14.6658 14.2043C14.6295 14.2135 14.5907 14.2186 14.5519 14.2203C14.5131 14.222 14.476 14.2203 14.4439 14.2178C14.4118 14.2152 14.384 14.211 14.3671 14.2068L14.3511 14.2802L14.335 14.3536L14.319 14.427L14.303 14.5005C14.308 14.5013 14.3165 14.503 14.3291 14.5055C14.3418 14.5081 14.3578 14.5097 14.3764 14.5123C14.3949 14.5148 14.4169 14.5165 14.4405 14.5182C14.4641 14.5199 14.4903 14.5207 14.5181 14.5207C14.5333 14.5207 14.5485 14.5207 14.5646 14.519C14.5806 14.5182 14.5966 14.5165 14.6127 14.5148C14.6287 14.5131 14.6456 14.5106 14.6625 14.5081C14.6793 14.5055 14.6962 14.5022 14.7131 14.4988L14.7561 14.5638L14.7992 14.6287L14.8422 14.6937L14.8852 14.7587L14.9477 14.7173L15.0101 14.676L15.0726 14.6346L15.135 14.5933L15.0962 14.5351L15.0574 14.4768L15.0186 14.4186L14.9798 14.3604C14.9975 14.3427 15.0144 14.3224 15.0312 14.2988C15.0473 14.2751 15.0625 14.2481 15.0751 14.2178C15.0878 14.1874 15.0979 14.1528 15.1046 14.114C15.1114 14.0751 15.1139 14.033 15.1122 13.9857C15.108 13.8667 15.0684 13.7773 15.0093 13.7089C14.9494 13.6414 14.87 13.595 14.7848 13.5638C14.6996 13.5325 14.6084 13.5165 14.5266 13.5072C14.4447 13.4988 14.3722 13.4971 14.3232 13.4962C14.2203 13.4946 14.1392 13.4861 14.076 13.4735C14.0127 13.4608 13.9663 13.4448 13.9333 13.4254C13.9004 13.4059 13.8802 13.3849 13.8675 13.3621C13.8549 13.3393 13.8506 13.3165 13.8498 13.2937C13.849 13.2684 13.8498 13.2465 13.8532 13.2287C13.8557 13.2102 13.8608 13.195 13.8658 13.1823C13.8709 13.1697 13.8776 13.1595 13.8844 13.1511C13.8911 13.1427 13.8979 13.1359 13.9038 13.1308C13.9283 13.1097 13.9612 13.0954 13.9975 13.0861C14.0338 13.0768 14.0726 13.0718 14.1114 13.0701C14.1502 13.0684 14.1873 13.0701 14.2203 13.0726C14.2523 13.0751 14.2793 13.0794 14.2971 13.0836L14.3122 13.0102L14.3274 12.9368L14.3426 12.8633L14.3578 12.7899C14.3502 12.7882 14.3325 12.7849 14.3072 12.7815C14.2819 12.7781 14.249 12.7739 14.2101 12.7722C14.1722 12.7705 14.1283 12.7697 14.0827 12.7722C14.0371 12.7747 13.9882 12.7815 13.9401 12.7924L13.8971 12.7275L13.854 12.6625L13.811 12.5975L13.7679 12.5325L13.7106 12.5756L13.6481 12.6169L13.5857 12.6583L13.5232 12.6996L13.562 12.7587L13.6008 12.8178L13.6397 12.8768L13.6785 12.9359C13.6616 12.9536 13.6447 12.9739 13.6287 12.9975C13.6127 13.0211 13.5983 13.0481 13.5865 13.0785C13.5747 13.1089 13.5646 13.1427 13.5587 13.1806C13.5527 13.2186 13.5494 13.26 13.5511 13.3064C13.5544 13.3857 13.5722 13.4549 13.6059 13.5148C13.6397 13.5747 13.6886 13.6254 13.7536 13.6667C13.8186 13.7081 13.8979 13.7393 13.9941 13.7612C14.0895 13.7832 14.2 13.795 14.3266 13.7975C14.411 13.7992 14.4827 13.8043 14.5435 13.8127C14.6042 13.8211 14.654 13.833 14.6937 13.8498C14.7333 13.8659 14.762 13.8861 14.7823 13.9106C14.8025 13.9351 14.8127 13.9629 14.8135 13.9967Z" fill="#4D4D4D"/>
</svg>
