<svg width="132" height="48" viewBox="0 0 132 48" fill="none" xmlns="http://www.w3.org/2000/svg">
<path d="M16.8555 32.8506C16.8555 33.2266 16.7257 33.5211 16.4661 33.7341C16.2083 33.9472 15.852 34.0537 15.3972 34.0537C15.0212 34.0537 14.7097 33.9866 14.4626 33.8523V33.2507C14.7724 33.4244 15.0857 33.5112 15.4026 33.5112C15.6479 33.5112 15.8412 33.4593 15.9827 33.3555C16.1241 33.2498 16.1948 33.1039 16.1948 32.9177C16.1948 32.7942 16.1581 32.685 16.0847 32.5901C16.0113 32.4934 15.8573 32.3708 15.6228 32.2222C15.4348 32.1022 15.2961 31.993 15.2065 31.8945C15.117 31.7961 15.0481 31.6886 14.9998 31.5723C14.9532 31.4541 14.9299 31.3243 14.9299 31.1829C14.9299 30.9537 14.9845 30.7505 15.0938 30.5732C15.2048 30.396 15.3605 30.259 15.561 30.1624C15.7633 30.0657 15.9907 30.0173 16.2432 30.0173C16.6102 30.0173 16.9513 30.0997 17.2664 30.2644L17.0354 30.7773C16.7472 30.6377 16.4831 30.5679 16.2432 30.5679C16.048 30.5679 15.8914 30.6207 15.7732 30.7263C15.655 30.8302 15.5959 30.9662 15.5959 31.1345C15.5959 31.2187 15.6094 31.293 15.6362 31.3574C15.6631 31.4201 15.7043 31.4792 15.7598 31.5347C15.8171 31.5884 15.9379 31.6734 16.1223 31.7898C16.3998 31.9635 16.5914 32.1318 16.697 32.2947C16.8027 32.4558 16.8555 32.6411 16.8555 32.8506ZM17.3872 34L18.217 30.0737H18.8535L18.1392 33.4495H19.5867L19.4712 34H17.3872ZM22.1997 34H20.1157L20.9456 30.0737H23.0295L22.9141 30.6243H21.4666L21.241 31.6851H22.5891L22.479 32.2302H21.1255L20.8677 33.4548H22.3152L22.1997 34ZM25.0947 34H23.0107L23.8406 30.0737H25.9246L25.8091 30.6243H24.3616L24.136 31.6851H25.4841L25.374 32.2302H24.0205L23.7627 33.4548H25.2102L25.0947 34ZM26.9666 31.9912H27.219C27.5377 31.9912 27.7839 31.9205 27.9575 31.7791C28.133 31.6358 28.2207 31.4335 28.2207 31.1721C28.2207 30.977 28.1679 30.8346 28.0623 30.7451C27.9584 30.6556 27.7982 30.6108 27.5815 30.6108H27.262L26.9666 31.9912ZM28.8706 31.1506C28.8706 31.5946 28.7184 31.9357 28.4141 32.1738C28.1115 32.4119 27.689 32.531 27.1465 32.531H26.8511L26.5422 34H25.9058L26.7356 30.0737H27.6326C28.0426 30.0737 28.3514 30.1641 28.5591 30.345C28.7668 30.524 28.8706 30.7926 28.8706 31.1506ZM33.8362 34H33.1433L33.0439 31.7388L33.0278 31.2419L33.0386 30.9573H33.0225C32.9383 31.2151 32.8336 31.4756 32.7083 31.7388L31.6743 34H30.9868L30.8445 30.0737H31.4595L31.5105 32.3564C31.5105 32.5999 31.4989 32.9097 31.4756 33.2856H31.4917C31.6403 32.89 31.7674 32.5722 31.873 32.3323L32.9124 30.0737H33.5166L33.5999 32.3269L33.6079 32.7808L33.5999 33.2856H33.6213C33.6715 33.1281 33.7341 32.9517 33.8093 32.7566C33.8845 32.5597 33.9391 32.4227 33.9731 32.3457L34.9346 30.0737H35.5952L33.8362 34ZM37.373 34H35.2891L36.1189 30.0737H38.2029L38.0874 30.6243H36.6399L36.4143 31.6851H37.7625L37.6523 32.2302H36.2988L36.041 33.4548H37.4885L37.373 34ZM38.1841 34L39.0139 30.0737H39.6504L38.936 33.4495H40.3835L40.2681 34H38.1841ZM40.9126 34L41.7424 30.0737H42.3789L41.6646 33.4495H43.1121L42.9966 34H40.9126ZM47.1028 32.9097H45.8003L45.239 34H44.5569L46.6597 30.0684H47.3955L47.8413 34H47.2129L47.1028 32.9097ZM47.0598 32.3511C46.9882 31.6063 46.947 31.156 46.9363 31.0002C46.9273 30.8427 46.9229 30.7174 46.9229 30.6243C46.8244 30.8731 46.6973 31.1479 46.5415 31.4487L46.0796 32.3511H47.0598ZM51.3325 34H50.6343L49.5332 30.8767H49.5171L49.4902 31.062C49.4473 31.3288 49.415 31.5194 49.3936 31.634C49.3739 31.7468 49.21 32.5355 48.9021 34H48.314L49.1438 30.0737H49.8635L50.9351 33.1594H50.9539C50.9646 33.0627 50.9924 32.8909 51.0371 32.6438C51.0819 32.3949 51.1177 32.2123 51.1445 32.0959L51.5742 30.0737H52.1624L51.3325 34ZM55.6589 31.6018C55.6589 32.087 55.5694 32.5104 55.3904 32.8721C55.2113 33.2337 54.9508 33.5121 54.6089 33.7073C54.2669 33.9024 53.865 34 53.4031 34H52.3262L53.156 30.0737H54.147C54.6322 30.0737 55.0055 30.2035 55.2668 30.4631C55.5282 30.7227 55.6589 31.1023 55.6589 31.6018ZM53.4353 33.4602C53.7522 33.4602 54.0288 33.3832 54.2651 33.2292C54.5015 33.0753 54.6823 32.8586 54.8076 32.5793C54.9347 32.3 54.9983 31.9814 54.9983 31.6233C54.9983 31.2939 54.9195 31.0432 54.762 30.8713C54.6044 30.6977 54.3752 30.6108 54.0745 30.6108H53.6824L53.0728 33.4602H53.4353ZM60.7937 34H60.1008L60.0015 31.7388L59.9854 31.2419L59.9961 30.9573H59.98C59.8958 31.2151 59.7911 31.4756 59.6658 31.7388L58.6318 34H57.9443L57.802 30.0737H58.417L58.468 32.3564C58.468 32.5999 58.4564 32.9097 58.4331 33.2856H58.4492C58.5978 32.89 58.7249 32.5722 58.8306 32.3323L59.8699 30.0737H60.4741L60.5574 32.3269L60.5654 32.7808L60.5574 33.2856H60.5789C60.629 33.1281 60.6917 32.9517 60.7668 32.7566C60.842 32.5597 60.8966 32.4227 60.9307 32.3457L61.8921 30.0737H62.5527L60.7937 34ZM64.2795 32.9097H62.9771L62.4158 34H61.7336L63.8364 30.0684H64.5723L65.0181 34H64.3896L64.2795 32.9097ZM64.2366 32.3511C64.165 31.6063 64.1238 31.156 64.113 31.0002C64.1041 30.8427 64.0996 30.7174 64.0996 30.6243C64.0011 30.8731 63.874 31.1479 63.7183 31.4487L63.2563 32.3511H64.2366ZM68.2273 34H67.5237L66.8469 32.241L66.4468 32.5095L66.1326 34H65.4961L66.3259 30.0737H66.9624L66.5569 31.9697L66.9355 31.5239L68.2568 30.0737H69.0195L67.3652 31.8704L68.2273 34ZM70.7974 34H68.7134L69.5432 30.0737H71.6272L71.5117 30.6243H70.0642L69.8386 31.6851H71.1868L71.0767 32.2302H69.7231L69.4653 33.4548H70.9128L70.7974 34ZM71.5466 32.8022L71.6675 32.2571H73.0156L72.8948 32.8022H71.5466ZM76.9768 30.0737L76.4343 32.6411C76.3341 33.1191 76.1479 33.4745 75.8757 33.7073C75.6036 33.9382 75.2428 34.0537 74.7935 34.0537C74.4049 34.0537 74.1042 33.9588 73.8911 33.769C73.6799 33.5793 73.5742 33.3062 73.5742 32.95C73.5742 32.8014 73.5921 32.6492 73.6279 32.4934L74.1462 30.0737H74.7827L74.2671 32.5042C74.2295 32.6617 74.2107 32.8031 74.2107 32.9285C74.2107 33.1111 74.2635 33.2534 74.3691 33.3555C74.4766 33.4557 74.6386 33.5059 74.8552 33.5059C75.1148 33.5059 75.3207 33.4342 75.4729 33.291C75.6251 33.146 75.7361 32.9115 75.8059 32.5874L76.3403 30.0737H76.9768ZM78.1746 31.9912H78.427C78.7457 31.9912 78.9919 31.9205 79.1655 31.7791C79.341 31.6358 79.4287 31.4335 79.4287 31.1721C79.4287 30.977 79.3759 30.8346 79.2703 30.7451C79.1664 30.6556 79.0062 30.6108 78.7896 30.6108H78.47L78.1746 31.9912ZM80.0786 31.1506C80.0786 31.5946 79.9264 31.9357 79.6221 32.1738C79.3195 32.4119 78.897 32.531 78.3545 32.531H78.0591L77.7502 34H77.1138L77.9436 30.0737H78.8406C79.2506 30.0737 79.5594 30.1641 79.7671 30.345C79.9748 30.524 80.0786 30.7926 80.0786 31.1506ZM82.3318 34H81.6953L82.5251 30.0737H84.6038L84.4883 30.6243H83.0461L82.7883 31.8435H84.1365L84.0156 32.3887H82.6729L82.3318 34ZM86.5347 34H84.4507L85.2805 30.0737H87.3645L87.249 30.6243H85.8015L85.5759 31.6851H86.9241L86.814 32.2302H85.4604L85.2026 33.4548H86.6501L86.5347 34ZM89.4297 34H87.3457L88.1755 30.0737H90.2595L90.144 30.6243H88.6965L88.4709 31.6851H89.8191L89.709 32.2302H88.3555L88.0977 33.4548H89.5452L89.4297 34ZM90.2407 34L91.0706 30.0737H91.707L90.9927 33.4495H92.4402L92.3247 34H90.2407ZM92.9692 34L93.8044 30.0737H94.4355L93.6003 34H92.9692ZM97.6152 34H96.917L95.8159 30.8767H95.7998L95.7729 31.062C95.73 31.3288 95.6978 31.5194 95.6763 31.634C95.6566 31.7468 95.4928 32.5355 95.1848 34H94.5967L95.4265 30.0737H96.1462L97.2178 33.1594H97.2366C97.2473 33.0627 97.2751 32.8909 97.3198 32.6438C97.3646 32.3949 97.4004 32.2123 97.4272 32.0959L97.8569 30.0737H98.4451L97.6152 34ZM100.532 31.8704H101.907L101.485 33.8469C101.285 33.9185 101.089 33.9705 100.897 34.0027C100.707 34.0367 100.494 34.0537 100.258 34.0537C99.7905 34.0537 99.428 33.923 99.1702 33.6616C98.9124 33.4002 98.7834 33.0305 98.7834 32.5525C98.7834 32.0798 98.8748 31.6475 99.0574 31.2554C99.2418 30.8633 99.5014 30.5589 99.8362 30.3423C100.173 30.1257 100.555 30.0173 100.983 30.0173C101.182 30.0173 101.372 30.0361 101.555 30.0737C101.738 30.1095 101.921 30.1713 102.105 30.259L101.864 30.8042C101.552 30.6502 101.253 30.5732 100.967 30.5732C100.684 30.5732 100.427 30.6547 100.196 30.8176C99.9651 30.9788 99.7825 31.2097 99.6482 31.5105C99.5157 31.8095 99.4495 32.1425 99.4495 32.5095C99.4495 32.8372 99.5291 33.0851 99.6885 33.2534C99.8478 33.4217 100.074 33.5059 100.368 33.5059C100.563 33.5059 100.756 33.4763 100.945 33.4172L101.16 32.4209H100.416L100.532 31.8704ZM104.764 32.4316L104.434 34H103.797L104.627 30.0737H105.535C105.934 30.0737 106.24 30.1588 106.453 30.3289C106.666 30.4972 106.773 30.7568 106.773 31.1077C106.773 31.4031 106.695 31.6528 106.539 31.8569C106.385 32.0592 106.155 32.2069 105.849 32.3L106.518 34H105.82L105.264 32.4316H104.764ZM104.88 31.8999H105.21C105.514 31.8999 105.742 31.8328 105.892 31.6985C106.042 31.5642 106.118 31.3798 106.118 31.1453C106.118 30.9573 106.065 30.8221 105.959 30.7397C105.854 30.6574 105.69 30.6162 105.468 30.6162H105.148L104.88 31.8999ZM109.12 34H107.036L107.866 30.0737H109.95L109.834 30.6243H108.387L108.161 31.6851H109.51L109.399 32.2302H108.046L107.788 33.4548H109.236L109.12 34ZM112.241 32.8506C112.241 33.2266 112.111 33.5211 111.851 33.7341C111.594 33.9472 111.237 34.0537 110.782 34.0537C110.406 34.0537 110.095 33.9866 109.848 33.8523V33.2507C110.158 33.4244 110.471 33.5112 110.788 33.5112C111.033 33.5112 111.226 33.4593 111.368 33.3555C111.509 33.2498 111.58 33.1039 111.58 32.9177C111.58 32.7942 111.543 32.685 111.47 32.5901C111.397 32.4934 111.243 32.3708 111.008 32.2222C110.82 32.1022 110.681 31.993 110.592 31.8945C110.502 31.7961 110.433 31.6886 110.385 31.5723C110.338 31.4541 110.315 31.3243 110.315 31.1829C110.315 30.9537 110.37 30.7505 110.479 30.5732C110.59 30.396 110.746 30.259 110.946 30.1624C111.149 30.0657 111.376 30.0173 111.628 30.0173C111.995 30.0173 112.337 30.0997 112.652 30.2644L112.421 30.7773C112.132 30.6377 111.868 30.5679 111.628 30.5679C111.433 30.5679 111.277 30.6207 111.158 30.7263C111.04 30.8302 110.981 30.9662 110.981 31.1345C110.981 31.2187 110.995 31.293 111.021 31.3574C111.048 31.4201 111.09 31.4792 111.145 31.5347C111.202 31.5884 111.323 31.6734 111.508 31.7898C111.785 31.9635 111.977 32.1318 112.082 32.2947C112.188 32.4558 112.241 32.6411 112.241 32.8506ZM114.002 34H113.366L114.075 30.6243H113.057L113.178 30.0737H115.858L115.743 30.6243H114.719L114.002 34ZM117.687 34H115.603L116.433 30.0737H118.517L118.401 30.6243H116.954L116.728 31.6851H118.076L117.966 32.2302H116.613L116.355 33.4548H117.802L117.687 34ZM121.831 31.6018C121.831 32.087 121.741 32.5104 121.562 32.8721C121.383 33.2337 121.123 33.5121 120.781 33.7073C120.439 33.9024 120.037 34 119.575 34H118.498L119.328 30.0737H120.319C120.804 30.0737 121.177 30.2035 121.439 30.4631C121.7 30.7227 121.831 31.1023 121.831 31.6018ZM119.607 33.4602C119.924 33.4602 120.201 33.3832 120.437 33.2292C120.673 33.0753 120.854 32.8586 120.979 32.5793C121.107 32.3 121.17 31.9814 121.17 31.6233C121.17 31.2939 121.091 31.0432 120.934 30.8713C120.776 30.6977 120.547 30.6108 120.246 30.6108H119.854L119.245 33.4602H119.607Z" fill="white"/>
<path d="M18.6039 18.8298V20.7149V22.6V24.4851V26.3702H17.7026H16.8014H15.9013H15V21.5277V16.6851V11.8426V7H16.1797H17.3593H18.539H19.7187C20.2177 7 20.6837 7.02949 21.1178 7.08848C21.5519 7.14746 21.9518 7.23593 22.3211 7.3539C22.6903 7.47187 23.0253 7.61933 23.3273 7.79746C23.6293 7.97559 23.9006 8.18203 24.1377 8.41797C24.3749 8.6539 24.5825 8.92169 24.7606 9.22014C24.9387 9.5186 25.0874 9.84891 25.2054 10.2099C25.3233 10.5709 25.413 10.9625 25.472 11.386C25.5309 11.8095 25.5604 12.2637 25.5604 12.7497C25.5604 13.362 25.5085 13.927 25.4059 14.4461C25.3033 14.9652 25.1475 15.4394 24.9411 15.8664C24.7347 16.2935 24.4763 16.6745 24.1672 17.0095C23.8582 17.3446 23.496 17.6336 23.0831 17.8766L24.0139 20L24.9446 22.1234L25.8754 24.2468L26.8062 26.3702H25.8424H24.8786H23.9124H22.9486L22.183 24.4851L21.4174 22.6L20.6518 20.7149L19.8862 18.8298H19.5653H19.2445H18.9236H18.6039ZM18.6039 15.7308H18.8351H19.0663H19.2975H19.5288C19.7411 15.7308 19.9381 15.7154 20.1198 15.6859C20.3015 15.6564 20.469 15.6104 20.6223 15.5503C20.7757 15.4901 20.9125 15.4146 21.0352 15.325C21.1579 15.2353 21.2652 15.1291 21.3584 15.0088C21.4516 14.8885 21.5318 14.7528 21.6015 14.603C21.6711 14.4532 21.7289 14.288 21.7749 14.1087C21.8209 13.9294 21.8563 13.7359 21.8799 13.5271C21.9034 13.3183 21.9141 13.0942 21.9141 12.8559C21.9141 12.6082 21.9023 12.3793 21.8775 12.167C21.8527 11.9546 21.8162 11.7612 21.7678 11.5854C21.7194 11.4096 21.6569 11.2515 21.5838 11.1112C21.5106 10.9708 21.4245 10.8481 21.3266 10.7431C21.2287 10.6381 21.1166 10.5461 20.9916 10.4682C20.8665 10.3904 20.7285 10.3243 20.5763 10.2712C20.4241 10.2181 20.259 10.1792 20.0809 10.1533C19.9027 10.1273 19.7093 10.1143 19.504 10.1143H19.2787H19.0534H18.828H18.6039V11.5181V12.922V14.3258V15.7308Z" fill="white"/>
<path d="M39.2836 18.9642C39.2836 19.5694 39.2517 20.1403 39.188 20.6783C39.1243 21.2162 39.0276 21.7199 38.9002 22.1918C38.7728 22.6636 38.6123 23.1001 38.42 23.5036C38.2278 23.907 38.0036 24.2774 37.7476 24.6148C37.4916 24.9522 37.2121 25.2459 36.9077 25.4984C36.6033 25.7508 36.2766 25.962 35.9262 26.1295C35.5759 26.297 35.2007 26.4244 34.802 26.5082C34.4033 26.592 33.9809 26.6344 33.535 26.6344C33.2519 26.6344 32.9782 26.6156 32.7116 26.5766C32.445 26.5377 32.1878 26.4799 31.9377 26.4032C31.6877 26.3265 31.447 26.2298 31.2134 26.113C30.9798 25.9962 30.7557 25.8617 30.5398 25.7072C30.3239 25.5527 30.1199 25.3804 29.9276 25.1929C29.7353 25.0053 29.5572 24.7989 29.3896 24.5759C29.2221 24.3529 29.0688 24.1146 28.926 23.8575C28.7833 23.6003 28.6547 23.3278 28.5367 23.0376C28.42 22.7474 28.3173 22.4442 28.23 22.1293C28.1427 21.8143 28.0696 21.4875 28.0106 21.1478C27.9516 20.808 27.908 20.4565 27.8785 20.092C27.849 19.7274 27.8348 19.3511 27.8348 18.963C27.8348 18.3649 27.8667 17.7987 27.9304 17.2655C27.9941 16.7322 28.0896 16.2321 28.2159 15.7649C28.3421 15.2978 28.5014 14.8625 28.6925 14.4602C28.8836 14.0579 29.1053 13.6887 29.359 13.3525C29.6126 13.0163 29.891 12.7214 30.1942 12.4689C30.4974 12.2165 30.8253 12.0065 31.1769 11.8378C31.5284 11.6691 31.9059 11.5429 32.307 11.4591C32.7081 11.3754 33.1339 11.3329 33.5846 11.3329C34.0199 11.3329 34.4328 11.3754 34.8232 11.4615C35.2137 11.5476 35.5818 11.6762 35.9286 11.8472C36.2754 12.0183 36.5986 12.233 36.9006 12.4913C37.2026 12.7497 37.4822 13.0493 37.7394 13.3926C37.9965 13.7359 38.2219 14.1098 38.4141 14.5133C38.6064 14.9167 38.7681 15.3509 38.8966 15.8156C39.0252 16.2804 39.122 16.7747 39.1857 17.2997C39.2494 17.8246 39.2836 18.3779 39.2836 18.9642ZM31.4411 18.9642C31.4411 19.3488 31.4517 19.7086 31.473 20.0459C31.4942 20.3833 31.526 20.6971 31.5673 20.9873C31.6086 21.2775 31.6617 21.5441 31.7242 21.7883C31.7867 22.0325 31.8611 22.2519 31.9448 22.4478C32.0286 22.6436 32.1253 22.8158 32.235 22.9633C32.3447 23.1107 32.4662 23.2334 32.6007 23.3325C32.7352 23.4316 32.8827 23.5048 33.0431 23.5543C33.2035 23.6038 33.3758 23.6286 33.561 23.6286C33.9149 23.6286 34.2239 23.5319 34.4882 23.3372C34.7524 23.1426 34.9742 22.8512 35.1512 22.4631C35.3281 22.075 35.4602 21.589 35.5487 21.0062C35.6372 20.4234 35.6808 19.7428 35.6808 18.9665C35.6808 18.5796 35.6702 18.2175 35.649 17.8801C35.6278 17.5427 35.5959 17.2289 35.5534 16.9399C35.511 16.6509 35.4579 16.3866 35.3942 16.1471C35.3305 15.9077 35.2562 15.6918 35.1712 15.5007C35.0863 15.3096 34.9896 15.1432 34.8798 14.9993C34.7701 14.8554 34.6486 14.7374 34.5141 14.6419C34.3797 14.5463 34.2334 14.4744 34.0753 14.4272C33.9172 14.38 33.7462 14.3552 33.5622 14.3552C33.3769 14.3552 33.2035 14.3788 33.0443 14.4272C32.885 14.4755 32.7364 14.5463 32.6019 14.6419C32.4674 14.7374 32.3447 14.8566 32.2362 14.9993C32.1277 15.1421 32.0309 15.3096 31.946 15.5007C31.8611 15.6918 31.7891 15.9065 31.7254 16.1471C31.6617 16.3878 31.6098 16.6509 31.5685 16.9399C31.5272 17.2289 31.4954 17.5415 31.4741 17.8801C31.4529 18.2186 31.4411 18.5773 31.4411 18.9642Z" fill="white"/>
<path d="M52.6905 18.9642C52.6905 19.5694 52.6587 20.1403 52.595 20.6783C52.5313 21.2162 52.4346 21.7199 52.3072 22.1918C52.1797 22.6636 52.0193 23.1001 51.827 23.5036C51.6347 23.907 51.4106 24.2774 51.1546 24.6148C50.8986 24.9522 50.619 25.2459 50.3147 25.4984C50.0103 25.7508 49.6836 25.962 49.3332 26.1295C48.9828 26.297 48.6077 26.4244 48.209 26.5082C47.8102 26.592 47.3879 26.6344 46.942 26.6344C46.6589 26.6344 46.3852 26.6156 46.1186 26.5766C45.852 26.5377 45.5948 26.4799 45.3447 26.4032C45.0946 26.3265 44.854 26.2298 44.6204 26.113C44.3868 25.9962 44.1627 25.8617 43.9468 25.7072C43.7309 25.5527 43.5268 25.3804 43.3346 25.1929C43.1423 25.0053 42.9641 24.7989 42.7966 24.5759C42.6291 24.3529 42.4758 24.1146 42.333 23.8575C42.1903 23.6003 42.0617 23.3278 41.9437 23.0376C41.8269 22.7474 41.7243 22.4442 41.637 22.1293C41.5497 21.8143 41.4766 21.4875 41.4176 21.1478C41.3586 20.808 41.315 20.4565 41.2855 20.092C41.256 19.7274 41.2418 19.3511 41.2418 18.963C41.2418 18.3649 41.2737 17.7987 41.3374 17.2655C41.4011 16.7322 41.4966 16.2321 41.6229 15.7649C41.7491 15.2978 41.9083 14.8625 42.0994 14.4602C42.2906 14.0579 42.5123 13.6887 42.766 13.3525C43.0196 13.0163 43.298 12.7214 43.6012 12.4689C43.9043 12.2165 44.2323 12.0065 44.5838 11.8378C44.9354 11.6691 45.3129 11.5429 45.714 11.4591C46.1151 11.3754 46.5409 11.3329 46.9915 11.3329C47.4268 11.3329 47.8397 11.3754 48.2302 11.4615C48.6207 11.5476 48.9887 11.6762 49.3356 11.8472C49.6824 12.0183 50.0056 12.233 50.3076 12.4913C50.6096 12.7497 50.8892 13.0493 51.1464 13.3926C51.4035 13.7359 51.6288 14.1098 51.8211 14.5133C52.0134 14.9167 52.175 15.3509 52.3036 15.8156C52.4322 16.2804 52.5289 16.7747 52.5926 17.2997C52.6563 17.8246 52.6905 18.3779 52.6905 18.9642ZM44.8481 18.9642C44.8481 19.3488 44.8587 19.7086 44.8799 20.0459C44.9012 20.3833 44.933 20.6971 44.9743 20.9873C45.0156 21.2775 45.0687 21.5441 45.1312 21.7883C45.1937 22.0325 45.268 22.2519 45.3518 22.4478C45.4356 22.6436 45.5323 22.8158 45.642 22.9633C45.7517 23.1107 45.8732 23.2334 46.0077 23.3325C46.1422 23.4316 46.2896 23.5048 46.4501 23.5543C46.6105 23.6038 46.7827 23.6286 46.968 23.6286C47.3219 23.6286 47.6309 23.5319 47.8952 23.3372C48.1594 23.1426 48.3812 22.8512 48.5582 22.4631C48.7351 22.075 48.8672 21.589 48.9557 21.0062C49.0442 20.4234 49.0878 19.7428 49.0878 18.9665C49.0878 18.5796 49.0772 18.2175 49.056 17.8801C49.0347 17.5427 49.0029 17.2289 48.9604 16.9399C48.918 16.6509 48.8649 16.3866 48.8012 16.1471C48.7375 15.9077 48.6631 15.6918 48.5782 15.5007C48.4933 15.3096 48.3965 15.1432 48.2868 14.9993C48.1771 14.8554 48.0556 14.7374 47.9211 14.6419C47.7866 14.5463 47.6404 14.4744 47.4823 14.4272C47.3242 14.38 47.1532 14.3552 46.9691 14.3552C46.7839 14.3552 46.6105 14.3788 46.4513 14.4272C46.292 14.4755 46.1434 14.5463 46.0089 14.6419C45.8744 14.7374 45.7517 14.8566 45.6432 14.9993C45.5347 15.1421 45.4379 15.3096 45.353 15.5007C45.268 15.6918 45.1937 15.9053 45.1312 16.1448C45.0687 16.3842 45.0156 16.6485 44.9743 16.9375C44.933 17.2265 44.9012 17.5391 44.8799 17.8777C44.8587 18.2163 44.8481 18.5773 44.8481 18.9642Z" fill="white"/>
<path d="M69.8205 26.3691V24.1702V21.9701V19.7712V17.5723C69.8205 17.032 69.7875 16.5577 69.7203 16.1519C69.653 15.7461 69.5539 15.4076 69.4194 15.1374C69.285 14.8673 69.1186 14.6644 68.9193 14.5287C68.7199 14.393 68.4851 14.3258 68.2173 14.3258C68.0227 14.3258 67.8422 14.3506 67.6759 14.3989C67.5095 14.4473 67.3562 14.5193 67.217 14.616C67.0778 14.7127 66.9527 14.8331 66.8407 14.9782C66.7286 15.1233 66.6319 15.2919 66.5481 15.4854C66.4644 15.6789 66.3912 15.9007 66.3275 16.1519C66.2638 16.4032 66.2119 16.684 66.1706 16.993C66.1293 17.3021 66.0975 17.6419 66.0762 18.0087C66.055 18.3756 66.0444 18.7732 66.0444 19.199V20.9909V22.7829V24.5748V26.3667H65.1573H64.2702H63.383H62.4959V24.1678V21.9701V19.7712V17.5723C62.4959 17.032 62.4617 16.5577 62.3945 16.1519C62.3272 15.7461 62.2246 15.4076 62.0889 15.1374C61.9533 14.8673 61.7834 14.6644 61.5793 14.5287C61.3752 14.393 61.1358 14.3258 60.8644 14.3258C60.6745 14.3258 60.4976 14.3494 60.3336 14.3978C60.1696 14.4461 60.0186 14.5181 59.8806 14.6136C59.7426 14.7092 59.6175 14.8295 59.5055 14.9734C59.3934 15.1174 59.2943 15.2861 59.2082 15.4783C59.1221 15.6706 59.0466 15.8936 58.9817 16.1484C58.9168 16.4032 58.8637 16.6887 58.8201 17.0048C58.7764 17.321 58.7446 17.6702 58.7233 18.0488C58.7021 18.4275 58.6915 18.8392 58.6915 19.2804V21.0523V22.8242V24.596V26.3679H57.8103H56.9291H56.0478H55.1666V22.6779V18.9879V15.2978V11.6102H55.865H56.5634H57.2617H57.9601L58.0663 12.0844L58.1724 12.5586L58.2786 13.0329L58.3848 13.5071H58.4414H58.498H58.5546H58.6113C58.6997 13.3195 58.7953 13.1438 58.9003 12.981C59.0053 12.8182 59.1174 12.6684 59.2389 12.5303C59.3604 12.3923 59.489 12.2684 59.6258 12.1552C59.7626 12.042 59.9089 11.9429 60.0623 11.8556C60.2156 11.7683 60.3713 11.6916 60.5306 11.6267C60.6899 11.5618 60.8503 11.5064 61.0143 11.4627C61.1782 11.4191 61.3446 11.3861 61.5133 11.3648C61.682 11.3436 61.8542 11.3318 62.0288 11.3318C62.4794 11.3318 62.8923 11.3849 63.2674 11.491C63.6426 11.5972 63.9811 11.7576 64.2808 11.97C64.5804 12.1823 64.8435 12.4489 65.0688 12.7686C65.2941 13.0883 65.4817 13.4611 65.6315 13.887H65.6645H65.6976H65.7306H65.7636C65.9512 13.4611 66.1671 13.0883 66.4113 12.7686C66.6555 12.4489 66.9291 12.1823 67.23 11.97C67.5308 11.7576 67.8611 11.5972 68.2197 11.491C68.5783 11.3849 68.9641 11.3318 69.3793 11.3318C69.7061 11.3318 70.0128 11.3601 70.3007 11.4179C70.5885 11.4757 70.8551 11.5618 71.1028 11.6763C71.3506 11.7907 71.5782 11.9346 71.787 12.1068C71.9958 12.2791 72.1846 12.4796 72.3533 12.7096C72.522 12.9397 72.6694 13.1957 72.7968 13.4776C72.9242 13.7596 73.0292 14.0698 73.113 14.4048C73.1968 14.7399 73.2605 15.102 73.3029 15.4913C73.3454 15.8806 73.3666 16.2947 73.3666 16.737V19.1448V21.5525V23.9602V26.3679H72.4795H71.5924H70.7053H69.8205V26.3691Z" fill="white"/>
<path d="M80.1486 19.1246L78.812 16.4656L77.4754 13.8066L76.1389 11.1476L74.8035 8.48865H75.1361H75.4688H75.8015H76.1341L76.8125 9.88656L77.4908 11.2845L78.1691 12.6824L78.8474 14.0803C78.9241 14.2431 79.0007 14.4047 79.0774 14.5675C79.1541 14.7303 79.2296 14.8907 79.3051 15.0512C79.3806 15.2116 79.4561 15.372 79.5316 15.5313C79.6071 15.6906 79.6814 15.8498 79.7557 16.0079C79.8301 16.166 79.9067 16.3252 79.9858 16.4845C80.0648 16.6437 80.145 16.8042 80.2276 16.9646C80.3102 17.125 80.3951 17.2866 80.4812 17.4483C80.5673 17.6099 80.657 17.7715 80.7467 17.9343H80.7738H80.8009H80.8281H80.8552C80.9413 17.7715 81.0262 17.6099 81.1112 17.4483C81.1961 17.2866 81.2799 17.1262 81.3636 16.9646C81.4474 16.803 81.53 16.6437 81.6125 16.4845C81.6951 16.3252 81.7765 16.166 81.8579 16.0079C81.9393 15.8498 82.0195 15.6906 82.0986 15.5313C82.1776 15.372 82.2555 15.2116 82.3321 15.0512C82.4088 14.8907 82.4843 14.7291 82.5598 14.5675C82.6353 14.4059 82.7073 14.2431 82.7804 14.0803L83.4587 12.6824L84.137 11.2845L84.8154 9.88656L85.4937 8.48865H85.8122H86.1307H86.4492H86.7677L85.4252 11.1476L84.0828 13.8066L82.7403 16.4656L81.3978 19.1246V20.9354V22.7462V24.557V26.3678H81.0852H80.7726H80.46H80.1474V24.557V22.7462V20.9354V19.1246H80.1486Z" fill="white"/>
<path d="M87.3671 19.8843C87.3671 19.613 87.3765 19.3488 87.3966 19.0916C87.4166 18.8344 87.4461 18.5843 87.485 18.3413C87.524 18.0983 87.5735 17.8624 87.6337 17.6335C87.6938 17.4047 87.7623 17.1829 87.8413 16.9682C87.9203 16.7535 88.0065 16.5482 88.0985 16.3512C88.1905 16.1542 88.2908 15.9655 88.3969 15.7861C88.5031 15.6068 88.6163 15.4358 88.7367 15.273C88.857 15.1102 88.9832 14.9568 89.1165 14.8117C89.2498 14.6666 89.389 14.531 89.5329 14.4036C89.6769 14.2762 89.8267 14.157 89.9812 14.0461C90.1358 13.9352 90.2962 13.8326 90.4613 13.7394C90.6265 13.6462 90.7976 13.5601 90.9745 13.4834C91.1515 13.4067 91.3296 13.3395 91.5101 13.2817C91.6906 13.2239 91.8746 13.1755 92.0598 13.1378C92.245 13.1 92.4326 13.0705 92.6225 13.0505C92.8124 13.0304 93.0047 13.021 93.1994 13.021C93.394 13.021 93.5863 13.0304 93.7762 13.0505C93.9662 13.0705 94.1549 13.0989 94.3413 13.1378C94.5277 13.1767 94.7129 13.2239 94.8946 13.2817C95.0762 13.3395 95.2579 13.4067 95.436 13.4834C95.6153 13.5601 95.7876 13.6462 95.9551 13.7394C96.1226 13.8326 96.2842 13.9352 96.4399 14.0461C96.5956 14.157 96.7466 14.2762 96.8906 14.4036C97.0345 14.531 97.1749 14.6678 97.3082 14.8117C97.4415 14.9568 97.5677 15.1102 97.6868 15.273C97.806 15.4358 97.9192 15.6068 98.0254 15.7861C98.1316 15.9655 98.2307 16.1542 98.3239 16.3512C98.4171 16.5482 98.502 16.7547 98.581 16.9682C98.6601 17.1829 98.7297 17.4047 98.7887 17.6335C98.8476 17.8624 98.8972 18.0983 98.9373 18.3413C98.9774 18.5843 99.0069 18.8344 99.027 19.0916C99.047 19.3488 99.0564 19.613 99.0564 19.8843C99.0564 20.1557 99.047 20.4187 99.027 20.6759C99.0069 20.9331 98.9774 21.1808 98.9373 21.4214C98.8972 21.6621 98.8476 21.8957 98.7887 22.121C98.7297 22.3463 98.6601 22.5646 98.581 22.7745C98.502 22.9845 98.4159 23.1874 98.3239 23.3809C98.2319 23.5744 98.1316 23.7607 98.0254 23.9377C97.9192 24.1146 97.806 24.2845 97.6868 24.4461C97.5677 24.6077 97.4403 24.7599 97.3082 24.905C97.1749 25.0501 97.0357 25.1858 96.8906 25.3144C96.7455 25.443 96.5956 25.5609 96.4399 25.6718C96.2842 25.7827 96.1226 25.8853 95.9551 25.9785C95.7876 26.0717 95.6142 26.1578 95.436 26.2345C95.2579 26.3112 95.0774 26.3784 94.8946 26.4362C94.7117 26.494 94.5277 26.5424 94.3413 26.5802C94.1549 26.6179 93.9662 26.6474 93.7762 26.6675C93.5863 26.6875 93.3928 26.6969 93.1994 26.6969C93.0059 26.6969 92.8124 26.6875 92.6225 26.6675C92.4326 26.6474 92.245 26.6191 92.0598 26.5802C91.8746 26.5412 91.6917 26.494 91.5101 26.4362C91.3284 26.3784 91.1503 26.3112 90.9745 26.2345C90.7987 26.1578 90.6277 26.0717 90.4613 25.9785C90.295 25.8853 90.1358 25.7827 89.9812 25.6718C89.8267 25.5609 89.6769 25.4418 89.5329 25.3144C89.389 25.187 89.2498 25.0501 89.1165 24.905C88.9832 24.7599 88.8558 24.6077 88.7367 24.4461C88.6175 24.2845 88.5031 24.1158 88.3969 23.9377C88.2908 23.7596 88.1917 23.5744 88.0985 23.3809C88.0053 23.1874 87.9203 22.9845 87.8413 22.7745C87.7623 22.5646 87.6927 22.3463 87.6337 22.121C87.5747 21.8957 87.5251 21.6621 87.485 21.4214C87.4449 21.1808 87.4154 20.9319 87.3966 20.6759C87.3777 20.4199 87.3671 20.1557 87.3671 19.8843ZM88.614 19.8843C88.614 20.0967 88.6211 20.3055 88.6364 20.5084C88.6517 20.7113 88.673 20.9106 88.7025 21.1053C88.732 21.2999 88.7685 21.4899 88.8122 21.6751C88.8558 21.8603 88.9077 22.042 88.9667 22.2177C89.0257 22.3935 89.0894 22.5646 89.159 22.7273C89.2286 22.8901 89.3029 23.0494 89.3843 23.2004C89.4657 23.3514 89.5506 23.4977 89.6415 23.6369C89.7323 23.7761 89.829 23.9094 89.9305 24.0356C90.0319 24.1618 90.1393 24.281 90.2502 24.3942C90.3611 24.5075 90.4779 24.6125 90.5994 24.7104C90.7209 24.8083 90.8459 24.9003 90.9769 24.9841C91.1078 25.0678 91.2423 25.1457 91.3827 25.2153C91.5231 25.2861 91.6658 25.3474 91.8121 25.3993C91.9583 25.4512 92.107 25.496 92.258 25.5302C92.409 25.5645 92.5635 25.5916 92.7204 25.6093C92.8773 25.627 93.0378 25.6352 93.2005 25.6352C93.3633 25.6352 93.5238 25.627 93.6819 25.6093C93.8399 25.5916 93.9945 25.5656 94.1478 25.5302C94.3012 25.4949 94.451 25.4512 94.5985 25.3993C94.7459 25.3474 94.891 25.2849 95.0326 25.2153C95.1753 25.1457 95.3122 25.0678 95.4455 24.9841C95.5788 24.9003 95.705 24.8083 95.8277 24.7104C95.9504 24.6125 96.0672 24.5063 96.1792 24.3942C96.2913 24.2822 96.3975 24.1618 96.5001 24.0356C96.6015 23.9094 96.6983 23.7761 96.7891 23.6369C96.8799 23.4977 96.9661 23.3526 97.0463 23.2004C97.1265 23.0482 97.202 22.8913 97.2716 22.7273C97.3412 22.5634 97.4049 22.3935 97.4639 22.2177C97.5229 22.0408 97.5736 21.8603 97.6184 21.6751C97.6633 21.4899 97.6986 21.2999 97.7281 21.1053C97.7576 20.9106 97.78 20.7113 97.7942 20.5084C97.8083 20.3055 97.8166 20.0967 97.8166 19.8843C97.8166 19.6673 97.8095 19.4549 97.7942 19.2485C97.7789 19.042 97.7576 18.8403 97.7281 18.6433C97.6986 18.4463 97.6621 18.2552 97.6184 18.0688C97.5748 17.8824 97.5229 17.7008 97.4639 17.525C97.4049 17.3492 97.3412 17.1782 97.2716 17.0142C97.202 16.8502 97.1277 16.691 97.0463 16.5388C96.9649 16.3866 96.8799 16.2391 96.7891 16.0988C96.6983 15.9584 96.6015 15.8227 96.5001 15.6941C96.3986 15.5656 96.2913 15.444 96.1792 15.3296C96.0672 15.2152 95.9504 15.109 95.8277 15.0099C95.705 14.9108 95.5788 14.8188 95.4455 14.7339C95.3122 14.6489 95.1753 14.5711 95.0326 14.5015C94.8898 14.4319 94.7459 14.3705 94.5985 14.3175C94.451 14.2644 94.3012 14.2207 94.1478 14.1865C93.9945 14.1523 93.8399 14.1252 93.6819 14.1075C93.5238 14.0898 93.3633 14.0815 93.2005 14.0815C93.0378 14.0815 92.8785 14.0898 92.7204 14.1075C92.5623 14.1252 92.409 14.1511 92.258 14.1865C92.107 14.2219 91.9583 14.2656 91.8121 14.3175C91.6658 14.3694 91.5231 14.4307 91.3827 14.5015C91.2423 14.5723 91.1078 14.6489 90.9769 14.7339C90.8459 14.8188 90.7209 14.9108 90.5994 15.0099C90.4779 15.109 90.3623 15.2164 90.2502 15.3296C90.1381 15.4429 90.0319 15.5656 89.9305 15.6941C89.829 15.8227 89.7323 15.9584 89.6415 16.0988C89.5506 16.2391 89.4645 16.3866 89.3843 16.5388C89.3041 16.691 89.2286 16.8502 89.159 17.0142C89.0894 17.1782 89.0257 17.3492 88.9667 17.525C88.9077 17.7008 88.857 17.8824 88.8122 18.0688C88.7673 18.2552 88.732 18.4463 88.7025 18.6433C88.673 18.8403 88.6505 19.042 88.6364 19.2485C88.6222 19.4549 88.614 19.6673 88.614 19.8843Z" fill="white"/>
<path d="M102.777 13.3455H103.076H103.374H103.672H103.971V15.3946V17.4436V19.4927V21.5418C103.971 21.8898 103.985 22.2154 104.015 22.5174C104.044 22.8194 104.087 23.099 104.144 23.3562C104.202 23.6133 104.274 23.8469 104.36 24.0569C104.446 24.2669 104.548 24.4556 104.663 24.6208C104.779 24.7859 104.912 24.9298 105.064 25.0537C105.217 25.1776 105.387 25.2802 105.575 25.3628C105.764 25.4454 105.972 25.5079 106.197 25.5492C106.422 25.5905 106.666 25.6117 106.928 25.6117C107.123 25.6117 107.313 25.5987 107.498 25.5716C107.683 25.5445 107.865 25.5055 108.041 25.4513C108.217 25.397 108.389 25.3321 108.556 25.2519C108.724 25.1717 108.887 25.0797 109.045 24.9723C109.203 24.8661 109.366 24.7446 109.532 24.6066C109.698 24.4686 109.868 24.3164 110.043 24.1477C110.217 23.979 110.395 23.795 110.577 23.5956C110.759 23.3963 110.945 23.1804 111.135 22.9504V20.5497V18.1479V15.7473V13.3455H111.434H111.732H112.03H112.329V16.6014V19.8573V23.1132V26.3691H112.078H111.826H111.575H111.324L111.29 25.8264L111.255 25.2838L111.221 24.7411L111.187 24.1985H111.174H111.161H111.148H111.135C110.977 24.3884 110.817 24.5689 110.653 24.7387C110.489 24.9086 110.325 25.0702 110.157 25.2224C109.99 25.3746 109.82 25.5161 109.649 25.6483C109.478 25.7804 109.303 25.9031 109.126 26.0163C108.949 26.1296 108.767 26.2287 108.579 26.3124C108.39 26.3962 108.195 26.4681 107.994 26.5248C107.792 26.5814 107.585 26.6239 107.371 26.6522C107.156 26.6805 106.937 26.6946 106.711 26.6946C106.372 26.6946 106.055 26.6687 105.762 26.618C105.468 26.5672 105.197 26.4906 104.948 26.3891C104.699 26.2877 104.473 26.1602 104.269 26.0069C104.065 25.8535 103.885 25.6766 103.727 25.4725C103.569 25.2684 103.429 25.0372 103.311 24.7789C103.194 24.5205 103.094 24.2338 103.015 23.9189C102.936 23.6039 102.877 23.263 102.837 22.8926C102.797 22.5221 102.778 22.1258 102.778 21.6999V19.6107V17.5215V15.4347V13.3455H102.777Z" fill="white"/>
</svg>
