<svg width="132" height="30" viewBox="0 0 132 30" fill="none" xmlns="http://www.w3.org/2000/svg">
<rect width="132" height="30" fill="white"/>
<path d="M18.6039 16.8298V18.7149V20.6V22.4851V24.3702H17.7026H16.8014H15.9013H15V19.5277V14.6851V9.84256V5H16.1797H17.3593H18.539H19.7187C20.2177 5 20.6837 5.02949 21.1178 5.08848C21.5519 5.14746 21.9518 5.23593 22.3211 5.3539C22.6903 5.47187 23.0253 5.61933 23.3273 5.79746C23.6293 5.97559 23.9006 6.18203 24.1377 6.41797C24.3749 6.6539 24.5825 6.92169 24.7606 7.22014C24.9387 7.5186 25.0874 7.84891 25.2054 8.20989C25.3233 8.57087 25.413 8.96252 25.472 9.38602C25.5309 9.80953 25.5604 10.2637 25.5604 10.7497C25.5604 11.362 25.5085 11.927 25.4059 12.4461C25.3033 12.9652 25.1475 13.4394 24.9411 13.8664C24.7347 14.2935 24.4763 14.6745 24.1672 15.0095C23.8582 15.3446 23.496 15.6336 23.0831 15.8766L24.0139 18L24.9446 20.1234L25.8754 22.2468L26.8062 24.3702H25.8424H24.8786H23.9124H22.9486L22.183 22.4851L21.4174 20.6L20.6518 18.7149L19.8862 16.8298H19.5653H19.2445H18.9236H18.6039ZM18.6039 13.7308H18.8351H19.0663H19.2975H19.5288C19.7411 13.7308 19.9381 13.7154 20.1198 13.6859C20.3015 13.6564 20.469 13.6104 20.6223 13.5503C20.7757 13.4901 20.9125 13.4146 21.0352 13.325C21.1579 13.2353 21.2652 13.1291 21.3584 13.0088C21.4516 12.8885 21.5318 12.7528 21.6015 12.603C21.6711 12.4532 21.7289 12.288 21.7749 12.1087C21.8209 11.9294 21.8563 11.7359 21.8799 11.5271C21.9034 11.3183 21.9141 11.0942 21.9141 10.8559C21.9141 10.6082 21.9023 10.3793 21.8775 10.167C21.8527 9.95463 21.8162 9.76116 21.7678 9.58539C21.7194 9.40962 21.6569 9.25154 21.5838 9.11116C21.5106 8.97078 21.4245 8.84809 21.3266 8.7431C21.2287 8.63811 21.1166 8.5461 20.9916 8.46824C20.8665 8.39038 20.7285 8.32432 20.5763 8.27123C20.4241 8.21815 20.259 8.17922 20.0809 8.15327C19.9027 8.12731 19.7093 8.11434 19.504 8.11434H19.2787H19.0534H18.828H18.6039V9.51815V10.922V12.3258V13.7308Z" fill="black"/>
<path d="M39.2836 16.9642C39.2836 17.5694 39.2517 18.1403 39.188 18.6783C39.1243 19.2162 39.0276 19.7199 38.9002 20.1918C38.7728 20.6636 38.6123 21.1001 38.42 21.5036C38.2278 21.907 38.0036 22.2774 37.7476 22.6148C37.4916 22.9522 37.2121 23.2459 36.9077 23.4984C36.6033 23.7508 36.2766 23.962 35.9262 24.1295C35.5759 24.297 35.2007 24.4244 34.802 24.5082C34.4033 24.592 33.9809 24.6344 33.535 24.6344C33.2519 24.6344 32.9782 24.6156 32.7116 24.5766C32.445 24.5377 32.1878 24.4799 31.9377 24.4032C31.6877 24.3265 31.447 24.2298 31.2134 24.113C30.9798 23.9962 30.7557 23.8617 30.5398 23.7072C30.3239 23.5527 30.1199 23.3804 29.9276 23.1929C29.7353 23.0053 29.5572 22.7989 29.3896 22.5759C29.2221 22.3529 29.0688 22.1146 28.926 21.8575C28.7833 21.6003 28.6547 21.3278 28.5367 21.0376C28.42 20.7474 28.3173 20.4442 28.23 20.1293C28.1427 19.8143 28.0696 19.4875 28.0106 19.1478C27.9516 18.808 27.908 18.4565 27.8785 18.092C27.849 17.7274 27.8348 17.3511 27.8348 16.963C27.8348 16.3649 27.8667 15.7987 27.9304 15.2655C27.9941 14.7322 28.0896 14.2321 28.2159 13.7649C28.3421 13.2978 28.5014 12.8625 28.6925 12.4602C28.8836 12.0579 29.1053 11.6887 29.359 11.3525C29.6126 11.0163 29.891 10.7214 30.1942 10.4689C30.4974 10.2165 30.8253 10.0065 31.1769 9.83779C31.5284 9.66909 31.9059 9.54287 32.307 9.45911C32.7081 9.37535 33.1339 9.33289 33.5846 9.33289C34.0199 9.33289 34.4328 9.37535 34.8232 9.46147C35.2137 9.54759 35.5818 9.67617 35.9286 9.84722C36.2754 10.0183 36.5986 10.233 36.9006 10.4913C37.2026 10.7497 37.4822 11.0493 37.7394 11.3926C37.9965 11.7359 38.2219 12.1098 38.4141 12.5133C38.6064 12.9167 38.7681 13.3509 38.8966 13.8156C39.0252 14.2804 39.122 14.7747 39.1857 15.2997C39.2494 15.8246 39.2836 16.3779 39.2836 16.9642ZM31.4411 16.9642C31.4411 17.3488 31.4517 17.7086 31.473 18.0459C31.4942 18.3833 31.526 18.6971 31.5673 18.9873C31.6086 19.2775 31.6617 19.5441 31.7242 19.7883C31.7867 20.0325 31.8611 20.2519 31.9448 20.4478C32.0286 20.6436 32.1253 20.8158 32.235 20.9633C32.3447 21.1107 32.4662 21.2334 32.6007 21.3325C32.7352 21.4316 32.8827 21.5048 33.0431 21.5543C33.2035 21.6038 33.3758 21.6286 33.561 21.6286C33.9149 21.6286 34.2239 21.5319 34.4882 21.3372C34.7524 21.1426 34.9742 20.8512 35.1512 20.4631C35.3281 20.075 35.4602 19.589 35.5487 19.0062C35.6372 18.4234 35.6808 17.7428 35.6808 16.9665C35.6808 16.5796 35.6702 16.2175 35.649 15.8801C35.6278 15.5427 35.5959 15.2289 35.5534 14.9399C35.511 14.6509 35.4579 14.3866 35.3942 14.1471C35.3305 13.9077 35.2562 13.6918 35.1712 13.5007C35.0863 13.3096 34.9896 13.1432 34.8798 12.9993C34.7701 12.8554 34.6486 12.7374 34.5141 12.6419C34.3797 12.5463 34.2334 12.4744 34.0753 12.4272C33.9172 12.38 33.7462 12.3552 33.5622 12.3552C33.3769 12.3552 33.2035 12.3788 33.0443 12.4272C32.885 12.4755 32.7364 12.5463 32.6019 12.6419C32.4674 12.7374 32.3447 12.8566 32.2362 12.9993C32.1277 13.1421 32.0309 13.3096 31.946 13.5007C31.8611 13.6918 31.7891 13.9065 31.7254 14.1471C31.6617 14.3878 31.6098 14.6509 31.5685 14.9399C31.5272 15.2289 31.4954 15.5415 31.4741 15.8801C31.4529 16.2186 31.4411 16.5773 31.4411 16.9642Z" fill="black"/>
<path d="M52.6905 16.9642C52.6905 17.5694 52.6587 18.1403 52.595 18.6783C52.5313 19.2162 52.4346 19.7199 52.3072 20.1918C52.1797 20.6636 52.0193 21.1001 51.827 21.5036C51.6347 21.907 51.4106 22.2774 51.1546 22.6148C50.8986 22.9522 50.619 23.2459 50.3147 23.4984C50.0103 23.7508 49.6836 23.962 49.3332 24.1295C48.9828 24.297 48.6077 24.4244 48.209 24.5082C47.8102 24.592 47.3879 24.6344 46.942 24.6344C46.6589 24.6344 46.3852 24.6156 46.1186 24.5766C45.852 24.5377 45.5948 24.4799 45.3447 24.4032C45.0946 24.3265 44.854 24.2298 44.6204 24.113C44.3868 23.9962 44.1627 23.8617 43.9468 23.7072C43.7309 23.5527 43.5268 23.3804 43.3346 23.1929C43.1423 23.0053 42.9641 22.7989 42.7966 22.5759C42.6291 22.3529 42.4758 22.1146 42.333 21.8575C42.1903 21.6003 42.0617 21.3278 41.9437 21.0376C41.8269 20.7474 41.7243 20.4442 41.637 20.1293C41.5497 19.8143 41.4766 19.4875 41.4176 19.1478C41.3586 18.808 41.315 18.4565 41.2855 18.092C41.256 17.7274 41.2418 17.3511 41.2418 16.963C41.2418 16.3649 41.2737 15.7987 41.3374 15.2655C41.4011 14.7322 41.4966 14.2321 41.6229 13.7649C41.7491 13.2978 41.9083 12.8625 42.0994 12.4602C42.2906 12.0579 42.5123 11.6887 42.766 11.3525C43.0196 11.0163 43.298 10.7214 43.6012 10.4689C43.9043 10.2165 44.2323 10.0065 44.5838 9.83779C44.9354 9.66909 45.3129 9.54287 45.714 9.45911C46.1151 9.37535 46.5409 9.33289 46.9915 9.33289C47.4268 9.33289 47.8397 9.37535 48.2302 9.46147C48.6207 9.54759 48.9887 9.67617 49.3356 9.84722C49.6824 10.0183 50.0056 10.233 50.3076 10.4913C50.6096 10.7497 50.8892 11.0493 51.1464 11.3926C51.4035 11.7359 51.6288 12.1098 51.8211 12.5133C52.0134 12.9167 52.175 13.3509 52.3036 13.8156C52.4322 14.2804 52.5289 14.7747 52.5926 15.2997C52.6563 15.8246 52.6905 16.3779 52.6905 16.9642ZM44.8481 16.9642C44.8481 17.3488 44.8587 17.7086 44.8799 18.0459C44.9012 18.3833 44.933 18.6971 44.9743 18.9873C45.0156 19.2775 45.0687 19.5441 45.1312 19.7883C45.1937 20.0325 45.268 20.2519 45.3518 20.4478C45.4356 20.6436 45.5323 20.8158 45.642 20.9633C45.7517 21.1107 45.8732 21.2334 46.0077 21.3325C46.1422 21.4316 46.2896 21.5048 46.4501 21.5543C46.6105 21.6038 46.7827 21.6286 46.968 21.6286C47.3219 21.6286 47.6309 21.5319 47.8952 21.3372C48.1594 21.1426 48.3812 20.8512 48.5582 20.4631C48.7351 20.075 48.8672 19.589 48.9557 19.0062C49.0442 18.4234 49.0878 17.7428 49.0878 16.9665C49.0878 16.5796 49.0772 16.2175 49.056 15.8801C49.0347 15.5427 49.0029 15.2289 48.9604 14.9399C48.918 14.6509 48.8649 14.3866 48.8012 14.1471C48.7375 13.9077 48.6631 13.6918 48.5782 13.5007C48.4933 13.3096 48.3965 13.1432 48.2868 12.9993C48.1771 12.8554 48.0556 12.7374 47.9211 12.6419C47.7866 12.5463 47.6404 12.4744 47.4823 12.4272C47.3242 12.38 47.1532 12.3552 46.9691 12.3552C46.7839 12.3552 46.6105 12.3788 46.4513 12.4272C46.292 12.4755 46.1434 12.5463 46.0089 12.6419C45.8744 12.7374 45.7517 12.8566 45.6432 12.9993C45.5347 13.1421 45.4379 13.3096 45.353 13.5007C45.268 13.6918 45.1937 13.9053 45.1312 14.1448C45.0687 14.3842 45.0156 14.6485 44.9743 14.9375C44.933 15.2265 44.9012 15.5391 44.8799 15.8777C44.8587 16.2163 44.8481 16.5773 44.8481 16.9642Z" fill="black"/>
<path d="M69.8206 24.3691V22.1702V19.9701V17.7712V15.5723C69.8206 15.032 69.7876 14.5577 69.7203 14.1519C69.6531 13.7461 69.554 13.4076 69.4195 13.1374C69.285 12.8673 69.1187 12.6644 68.9193 12.5287C68.72 12.393 68.4852 12.3258 68.2174 12.3258C68.0228 12.3258 67.8423 12.3506 67.6759 12.3989C67.5096 12.4473 67.3562 12.5193 67.217 12.616C67.0778 12.7127 66.9528 12.8331 66.8407 12.9782C66.7287 13.1233 66.6319 13.2919 66.5482 13.4854C66.4644 13.6789 66.3913 13.9007 66.3276 14.1519C66.2639 14.4032 66.212 14.684 66.1707 14.993C66.1294 15.3021 66.0975 15.6419 66.0763 16.0087C66.0551 16.3756 66.0445 16.7732 66.0445 17.199V18.9909V20.7829V22.5748V24.3667H65.1573H64.2702H63.3831H62.496V22.1678V19.9701V17.7712V15.5723C62.496 15.032 62.4618 14.5577 62.3945 14.1519C62.3273 13.7461 62.2247 13.4076 62.089 13.1374C61.9533 12.8673 61.7835 12.6644 61.5794 12.5287C61.3753 12.393 61.1358 12.3258 60.8645 12.3258C60.6746 12.3258 60.4976 12.3494 60.3337 12.3978C60.1697 12.4461 60.0187 12.5181 59.8807 12.6136C59.7426 12.7092 59.6176 12.8295 59.5055 12.9734C59.3935 13.1174 59.2944 13.2861 59.2083 13.4783C59.1221 13.6706 59.0466 13.8936 58.9818 14.1484C58.9169 14.4032 58.8638 14.6887 58.8201 15.0048C58.7765 15.321 58.7446 15.6702 58.7234 16.0488C58.7022 16.4275 58.6916 16.8392 58.6916 17.2804V19.0523V20.8242V22.596V24.3679H57.8103H56.9291H56.0479H55.1667V20.6779V16.9879V13.2978V9.61019H55.8651H56.5634H57.2618H57.9602L58.0663 10.0844L58.1725 10.5586L58.2787 11.0329L58.3848 11.5071H58.4415H58.4981H58.5547H58.6113C58.6998 11.3195 58.7954 11.1438 58.9004 10.981C59.0053 10.8182 59.1174 10.6684 59.2389 10.5303C59.3604 10.3923 59.489 10.2684 59.6259 10.1552C59.7627 10.042 59.909 9.94286 60.0623 9.85556C60.2157 9.76827 60.3714 9.69159 60.5307 9.62671C60.6899 9.56182 60.8504 9.50638 61.0143 9.46273C61.1783 9.41908 61.3446 9.38605 61.5133 9.36482C61.682 9.34358 61.8543 9.33179 62.0288 9.33179C62.4795 9.33179 62.8924 9.38487 63.2675 9.49104C63.6426 9.59721 63.9812 9.75765 64.2808 9.96999C64.5805 10.1823 64.8435 10.4489 65.0689 10.7686C65.2942 11.0883 65.4818 11.4611 65.6316 11.887H65.6646H65.6976H65.7307H65.7637C65.9513 11.4611 66.1671 11.0883 66.4113 10.7686C66.6555 10.4489 66.9292 10.1823 67.23 9.96999C67.5308 9.75765 67.8612 9.59721 68.2198 9.49104C68.5784 9.38487 68.9641 9.33179 69.3794 9.33179C69.7062 9.33179 70.0129 9.3601 70.3007 9.4179C70.5886 9.47571 70.8552 9.56182 71.1029 9.67625C71.3506 9.79068 71.5783 9.9346 71.7871 10.1068C71.9959 10.2791 72.1847 10.4796 72.3533 10.7096C72.522 10.9397 72.6695 11.1957 72.7969 11.4776C72.9243 11.7596 73.0293 12.0698 73.1131 12.4048C73.1968 12.7399 73.2605 13.102 73.303 13.4913C73.3454 13.8806 73.3667 14.2947 73.3667 14.737V17.1448V19.5525V21.9602V24.3679H72.4796H71.5925H70.7053H69.8206V24.3691Z" fill="black"/>
<path d="M80.1486 17.1246L78.8121 14.4656L77.4755 11.8066L76.1389 9.14763L74.8035 6.48865H75.1362H75.4689H75.8015H76.1342L76.8125 7.88656L77.4908 9.28447L78.1691 10.6824L78.8474 12.0803C78.9241 12.2431 79.0008 12.4047 79.0775 12.5675C79.1542 12.7303 79.2297 12.8907 79.3052 13.0512C79.3807 13.2116 79.4562 13.372 79.5317 13.5313C79.6072 13.6906 79.6815 13.8498 79.7558 14.0079C79.8301 14.166 79.9068 14.3252 79.9858 14.4845C80.0649 14.6437 80.1451 14.8042 80.2277 14.9646C80.3102 15.125 80.3952 15.2866 80.4813 15.4483C80.5674 15.6099 80.6571 15.7715 80.7467 15.9343H80.7739H80.801H80.8281H80.8553C80.9414 15.7715 81.0263 15.6099 81.1112 15.4483C81.1962 15.2866 81.2799 15.1262 81.3637 14.9646C81.4475 14.803 81.53 14.6437 81.6126 14.4845C81.6952 14.3252 81.7766 14.166 81.858 14.0079C81.9394 13.8498 82.0196 13.6906 82.0986 13.5313C82.1777 13.372 82.2555 13.2116 82.3322 13.0512C82.4089 12.8907 82.4844 12.7291 82.5599 12.5675C82.6354 12.4059 82.7073 12.2431 82.7805 12.0803L83.4588 10.6824L84.1371 9.28447L84.8154 7.88656L85.4937 6.48865H85.8122H86.1308H86.4493H86.7678L85.4253 9.14763L84.0828 11.8066L82.7404 14.4656L81.3979 17.1246V18.9354V20.7462V22.557V24.3678H81.0853H80.7727H80.4601H80.1474V22.557V20.7462V18.9354V17.1246H80.1486Z" fill="black"/>
<path d="M87.3671 17.8843C87.3671 17.613 87.3765 17.3488 87.3966 17.0916C87.4166 16.8344 87.4461 16.5843 87.485 16.3413C87.524 16.0983 87.5735 15.8624 87.6337 15.6335C87.6938 15.4047 87.7623 15.1829 87.8413 14.9682C87.9203 14.7535 88.0065 14.5482 88.0985 14.3512C88.1905 14.1542 88.2908 13.9655 88.3969 13.7861C88.5031 13.6068 88.6163 13.4358 88.7367 13.273C88.857 13.1102 88.9832 12.9568 89.1165 12.8117C89.2498 12.6666 89.389 12.531 89.5329 12.4036C89.6769 12.2762 89.8267 12.157 89.9812 12.0461C90.1358 11.9352 90.2962 11.8326 90.4613 11.7394C90.6265 11.6462 90.7976 11.5601 90.9745 11.4834C91.1515 11.4067 91.3296 11.3395 91.5101 11.2817C91.6906 11.2239 91.8746 11.1755 92.0598 11.1378C92.245 11.1 92.4326 11.0705 92.6225 11.0505C92.8124 11.0304 93.0047 11.021 93.1994 11.021C93.394 11.021 93.5863 11.0304 93.7762 11.0505C93.9662 11.0705 94.1549 11.0989 94.3413 11.1378C94.5277 11.1767 94.7129 11.2239 94.8946 11.2817C95.0762 11.3395 95.2579 11.4067 95.436 11.4834C95.6153 11.5601 95.7876 11.6462 95.9551 11.7394C96.1226 11.8326 96.2842 11.9352 96.4399 12.0461C96.5956 12.157 96.7466 12.2762 96.8906 12.4036C97.0345 12.531 97.1749 12.6678 97.3082 12.8117C97.4415 12.9568 97.5677 13.1102 97.6868 13.273C97.806 13.4358 97.9192 13.6068 98.0254 13.7861C98.1316 13.9655 98.2307 14.1542 98.3239 14.3512C98.4171 14.5482 98.502 14.7547 98.581 14.9682C98.6601 15.1829 98.7297 15.4047 98.7887 15.6335C98.8476 15.8624 98.8972 16.0983 98.9373 16.3413C98.9774 16.5843 99.0069 16.8344 99.027 17.0916C99.047 17.3488 99.0564 17.613 99.0564 17.8843C99.0564 18.1557 99.047 18.4187 99.027 18.6759C99.0069 18.9331 98.9774 19.1808 98.9373 19.4214C98.8972 19.6621 98.8476 19.8957 98.7887 20.121C98.7297 20.3463 98.6601 20.5646 98.581 20.7745C98.502 20.9845 98.4159 21.1874 98.3239 21.3809C98.2319 21.5744 98.1316 21.7607 98.0254 21.9377C97.9192 22.1146 97.806 22.2845 97.6868 22.4461C97.5677 22.6077 97.4403 22.7599 97.3082 22.905C97.1749 23.0501 97.0357 23.1858 96.8906 23.3144C96.7455 23.443 96.5956 23.5609 96.4399 23.6718C96.2842 23.7827 96.1226 23.8853 95.9551 23.9785C95.7876 24.0717 95.6142 24.1578 95.436 24.2345C95.2579 24.3112 95.0774 24.3784 94.8946 24.4362C94.7117 24.494 94.5277 24.5424 94.3413 24.5802C94.1549 24.6179 93.9662 24.6474 93.7762 24.6675C93.5863 24.6875 93.3928 24.6969 93.1994 24.6969C93.0059 24.6969 92.8124 24.6875 92.6225 24.6675C92.4326 24.6474 92.245 24.6191 92.0598 24.5802C91.8746 24.5412 91.6917 24.494 91.5101 24.4362C91.3284 24.3784 91.1503 24.3112 90.9745 24.2345C90.7987 24.1578 90.6277 24.0717 90.4613 23.9785C90.295 23.8853 90.1358 23.7827 89.9812 23.6718C89.8267 23.5609 89.6769 23.4418 89.5329 23.3144C89.389 23.187 89.2498 23.0501 89.1165 22.905C88.9832 22.7599 88.8558 22.6077 88.7367 22.4461C88.6175 22.2845 88.5031 22.1158 88.3969 21.9377C88.2908 21.7596 88.1917 21.5744 88.0985 21.3809C88.0053 21.1874 87.9203 20.9845 87.8413 20.7745C87.7623 20.5646 87.6927 20.3463 87.6337 20.121C87.5747 19.8957 87.5251 19.6621 87.485 19.4214C87.4449 19.1808 87.4154 18.9319 87.3966 18.6759C87.3777 18.4199 87.3671 18.1557 87.3671 17.8843ZM88.614 17.8843C88.614 18.0967 88.6211 18.3055 88.6364 18.5084C88.6517 18.7113 88.673 18.9106 88.7025 19.1053C88.732 19.2999 88.7685 19.4899 88.8122 19.6751C88.8558 19.8603 88.9077 20.042 88.9667 20.2177C89.0257 20.3935 89.0894 20.5646 89.159 20.7273C89.2286 20.8901 89.3029 21.0494 89.3843 21.2004C89.4657 21.3514 89.5506 21.4977 89.6415 21.6369C89.7323 21.7761 89.829 21.9094 89.9305 22.0356C90.0319 22.1618 90.1393 22.281 90.2502 22.3942C90.3611 22.5075 90.4779 22.6125 90.5994 22.7104C90.7209 22.8083 90.8459 22.9003 90.9769 22.9841C91.1078 23.0678 91.2423 23.1457 91.3827 23.2153C91.5231 23.2861 91.6658 23.3474 91.8121 23.3993C91.9583 23.4512 92.107 23.496 92.258 23.5302C92.409 23.5645 92.5635 23.5916 92.7204 23.6093C92.8773 23.627 93.0378 23.6352 93.2005 23.6352C93.3633 23.6352 93.5238 23.627 93.6819 23.6093C93.8399 23.5916 93.9945 23.5656 94.1478 23.5302C94.3012 23.4949 94.451 23.4512 94.5985 23.3993C94.7459 23.3474 94.891 23.2849 95.0326 23.2153C95.1753 23.1457 95.3122 23.0678 95.4455 22.9841C95.5788 22.9003 95.705 22.8083 95.8277 22.7104C95.9504 22.6125 96.0672 22.5063 96.1792 22.3942C96.2913 22.2822 96.3975 22.1618 96.5001 22.0356C96.6015 21.9094 96.6983 21.7761 96.7891 21.6369C96.8799 21.4977 96.9661 21.3526 97.0463 21.2004C97.1265 21.0482 97.202 20.8913 97.2716 20.7273C97.3412 20.5634 97.4049 20.3935 97.4639 20.2177C97.5229 20.0408 97.5736 19.8603 97.6184 19.6751C97.6633 19.4899 97.6986 19.2999 97.7281 19.1053C97.7576 18.9106 97.78 18.7113 97.7942 18.5084C97.8083 18.3055 97.8166 18.0967 97.8166 17.8843C97.8166 17.6673 97.8095 17.4549 97.7942 17.2485C97.7789 17.042 97.7576 16.8403 97.7281 16.6433C97.6986 16.4463 97.6621 16.2552 97.6184 16.0688C97.5748 15.8824 97.5229 15.7008 97.4639 15.525C97.4049 15.3492 97.3412 15.1782 97.2716 15.0142C97.202 14.8502 97.1277 14.691 97.0463 14.5388C96.9649 14.3866 96.8799 14.2391 96.7891 14.0988C96.6983 13.9584 96.6015 13.8227 96.5001 13.6941C96.3986 13.5656 96.2913 13.444 96.1792 13.3296C96.0672 13.2152 95.9504 13.109 95.8277 13.0099C95.705 12.9108 95.5788 12.8188 95.4455 12.7339C95.3122 12.6489 95.1753 12.5711 95.0326 12.5015C94.8898 12.4319 94.7459 12.3705 94.5985 12.3175C94.451 12.2644 94.3012 12.2207 94.1478 12.1865C93.9945 12.1523 93.8399 12.1252 93.6819 12.1075C93.5238 12.0898 93.3633 12.0815 93.2005 12.0815C93.0378 12.0815 92.8785 12.0898 92.7204 12.1075C92.5623 12.1252 92.409 12.1511 92.258 12.1865C92.107 12.2219 91.9583 12.2656 91.8121 12.3175C91.6658 12.3694 91.5231 12.4307 91.3827 12.5015C91.2423 12.5723 91.1078 12.6489 90.9769 12.7339C90.8459 12.8188 90.7209 12.9108 90.5994 13.0099C90.4779 13.109 90.3623 13.2164 90.2502 13.3296C90.1381 13.4429 90.0319 13.5656 89.9305 13.6941C89.829 13.8227 89.7323 13.9584 89.6415 14.0988C89.5506 14.2391 89.4645 14.3866 89.3843 14.5388C89.3041 14.691 89.2286 14.8502 89.159 15.0142C89.0894 15.1782 89.0257 15.3492 88.9667 15.525C88.9077 15.7008 88.857 15.8824 88.8122 16.0688C88.7673 16.2552 88.732 16.4463 88.7025 16.6433C88.673 16.8403 88.6505 17.042 88.6364 17.2485C88.6222 17.4549 88.614 17.6673 88.614 17.8843Z" fill="black"/>
<path d="M102.777 11.3455H103.076H103.374H103.672H103.971V13.3946V15.4436V17.4927V19.5418C103.971 19.8898 103.985 20.2154 104.015 20.5174C104.044 20.8194 104.087 21.099 104.144 21.3562C104.202 21.6133 104.274 21.8469 104.36 22.0569C104.446 22.2669 104.548 22.4556 104.663 22.6208C104.779 22.7859 104.912 22.9298 105.064 23.0537C105.217 23.1776 105.387 23.2802 105.575 23.3628C105.764 23.4454 105.972 23.5079 106.197 23.5492C106.422 23.5905 106.666 23.6117 106.928 23.6117C107.123 23.6117 107.313 23.5987 107.498 23.5716C107.683 23.5445 107.865 23.5055 108.041 23.4513C108.217 23.397 108.389 23.3321 108.556 23.2519C108.724 23.1717 108.887 23.0797 109.045 22.9723C109.203 22.8661 109.366 22.7446 109.532 22.6066C109.698 22.4686 109.868 22.3164 110.043 22.1477C110.217 21.979 110.395 21.795 110.577 21.5956C110.759 21.3963 110.945 21.1804 111.135 20.9504V18.5497V16.1479V13.7473V11.3455H111.434H111.732H112.03H112.329V14.6014V17.8573V21.1132V24.3691H112.078H111.826H111.575H111.324L111.29 23.8264L111.255 23.2838L111.221 22.7411L111.187 22.1985H111.174H111.161H111.148H111.135C110.977 22.3884 110.817 22.5689 110.653 22.7387C110.489 22.9086 110.325 23.0702 110.157 23.2224C109.99 23.3746 109.82 23.5161 109.649 23.6483C109.478 23.7804 109.303 23.9031 109.126 24.0163C108.949 24.1296 108.767 24.2287 108.579 24.3124C108.39 24.3962 108.195 24.4681 107.994 24.5248C107.792 24.5814 107.585 24.6239 107.371 24.6522C107.156 24.6805 106.937 24.6946 106.711 24.6946C106.372 24.6946 106.055 24.6687 105.762 24.618C105.468 24.5672 105.197 24.4906 104.948 24.3891C104.699 24.2877 104.473 24.1602 104.269 24.0069C104.065 23.8535 103.885 23.6766 103.727 23.4725C103.569 23.2684 103.429 23.0372 103.311 22.7789C103.194 22.5205 103.094 22.2338 103.015 21.9189C102.936 21.6039 102.877 21.263 102.837 20.8926C102.797 20.5221 102.778 20.1258 102.778 19.6999V17.6107V15.5215V13.4347V11.3455H102.777Z" fill="black"/>
</svg>
