<svg width="30" height="30" viewBox="0 0 30 30" fill="none" xmlns="http://www.w3.org/2000/svg">
<rect width="30" height="30" fill="white"/>
<path d="M30 30H22.5H15H7.5H0V22.5003V15.0005V7.49975V0H7.5H15H22.5H30V7.49975V14.9995V22.4992V30ZM0.252287 29.7477H7.62614H15H22.3739H29.7477V22.3741V15.0005V7.62589V0.252279H22.3739H15H7.62614H0.252287V7.62589V14.9995V22.3731V29.7477Z" fill="#4D4D4D"/>
<path d="M29.9798 30H22.4849H14.9899H7.49496H0V22.5003V15.0005V7.49975V0H7.5H15H22.5H30V5.72875V11.4575V17.1862V22.915L29.995 22.912L29.9899 22.9089L29.9849 22.9059L29.9798 22.9029V24.6769V26.4509V28.225V30ZM0.252118 29.7477H7.62102H14.9899H22.3588H29.7277V28.0019V26.2562V24.5104V22.7646C28.7404 22.2298 27.6724 21.7555 26.5379 21.3448C25.4034 20.9341 24.2023 20.586 22.9498 20.3054C21.6973 20.0249 20.3933 19.811 19.052 19.6667C17.7108 19.5224 16.3342 19.4497 14.9344 19.4497C13.5518 19.4497 12.1894 19.5224 10.8622 19.6636C9.5351 19.8049 8.24123 20.0148 6.99879 20.2913C5.75635 20.5678 4.56131 20.9089 3.43284 21.3125C2.30436 21.7162 1.2384 22.1824 0.253126 22.7081V24.468V26.2279V27.9878L0.252118 29.7477ZM14.9344 19.1974C16.3302 19.1974 17.7037 19.2701 19.042 19.4124C20.3802 19.5546 21.6831 19.7666 22.9347 20.0441C24.1862 20.3216 25.3883 20.6657 26.5258 21.0724C27.6634 21.479 28.7344 21.9493 29.7277 22.4781V16.9219V11.3657V5.80847V0.252279H22.3639H15H7.63514H0.271279V5.79232V11.3324V16.8724V22.4125C1.2616 21.8938 2.32856 21.4336 3.45906 21.035C4.58955 20.6364 5.78257 20.2994 7.02299 20.0269C8.26341 19.7544 9.55325 19.5476 10.8774 19.4083C12.2015 19.2691 13.5579 19.1974 14.9344 19.1974ZM15.8027 17.2983C15.7493 17.2983 15.6979 17.2922 15.6464 17.2811C15.595 17.27 15.5466 17.2539 15.4992 17.2317C15.4518 17.2095 15.4064 17.1832 15.3641 17.1519C15.3217 17.1207 15.2814 17.0833 15.244 17.0419C15.1735 16.9632 15.1109 16.831 15.0575 16.6746C15.004 16.5182 14.9566 16.3386 14.9193 16.165C14.882 15.9915 14.8518 15.8229 14.8306 15.6897C14.8094 15.5565 14.7963 15.4586 14.7923 15.4253L14.7862 15.3799L14.7802 15.3345L14.7741 15.2891L14.7681 15.2437L14.8124 15.2548L14.8568 15.2659L14.9012 15.277L14.9455 15.2881C14.9778 15.2962 15.0736 15.3194 15.2037 15.3557C15.3338 15.392 15.4972 15.4405 15.6666 15.498C15.836 15.5555 16.0085 15.6221 16.1577 15.6938C16.307 15.7654 16.431 15.8421 16.5016 15.9218C16.5359 15.9602 16.5662 16.0005 16.5924 16.0429C16.6186 16.0853 16.6388 16.1297 16.6549 16.1751C16.671 16.2205 16.6831 16.2669 16.6902 16.3154C16.6973 16.3638 16.6993 16.4123 16.6962 16.4617C16.6932 16.5172 16.6841 16.5717 16.669 16.6252C16.6539 16.6787 16.6337 16.7311 16.6075 16.7816C16.5813 16.832 16.55 16.8815 16.5137 16.9279C16.4774 16.9743 16.4361 17.0187 16.3897 17.0601C16.3473 17.0974 16.3029 17.1318 16.2566 17.161C16.2102 17.1903 16.1628 17.2155 16.1134 17.2357C16.0639 17.2559 16.0145 17.272 15.9641 17.2821C15.9137 17.2922 15.8622 17.2983 15.8118 17.2993H15.8088H15.8058H15.8027V17.2983ZM15.0696 15.5787C15.0877 15.6978 15.1099 15.827 15.1351 15.9571C15.1603 16.0873 15.1896 16.2185 15.2219 16.3406C15.2541 16.4627 15.2874 16.5747 15.3227 16.6666C15.358 16.7584 15.3953 16.831 15.4336 16.8744C15.4589 16.9027 15.4861 16.9269 15.5153 16.9481C15.5446 16.9693 15.5758 16.9854 15.6071 16.9986C15.6384 17.0117 15.6726 17.0228 15.7059 17.0298C15.7392 17.0369 15.7745 17.0419 15.8088 17.045C15.8441 17.045 15.8804 17.0399 15.9157 17.0329C15.951 17.0258 15.9873 17.0137 16.0216 16.9986C16.0569 16.9834 16.0912 16.9653 16.1244 16.9441C16.1577 16.9229 16.19 16.8976 16.2213 16.8704C16.2555 16.8401 16.2858 16.8088 16.312 16.7745C16.3382 16.7402 16.3614 16.7059 16.3806 16.6706C16.3998 16.6353 16.4139 16.5979 16.425 16.5596C16.4361 16.5212 16.4421 16.4839 16.4441 16.4456C16.4461 16.4133 16.4441 16.381 16.4401 16.3487C16.4361 16.3164 16.428 16.2861 16.4169 16.2558C16.4058 16.2256 16.3917 16.1963 16.3745 16.1681C16.3574 16.1398 16.3372 16.1126 16.314 16.0873C16.2757 16.0449 16.2081 15.9995 16.1204 15.9531C16.0327 15.9067 15.9248 15.8603 15.8078 15.8149C15.6908 15.7695 15.5637 15.7261 15.4367 15.6857C15.3096 15.6453 15.1845 15.61 15.0696 15.5787ZM17.8459 15.3406C17.7925 15.3406 17.741 15.3345 17.6896 15.3234C17.6382 15.3123 17.5898 15.2962 17.5424 15.274C17.495 15.2518 17.4496 15.2255 17.4072 15.1943C17.3649 15.163 17.3245 15.1256 17.2872 15.0843C17.2166 15.0056 17.1541 14.8734 17.1006 14.7169C17.0472 14.5605 16.9998 14.3809 16.9625 14.2073C16.9252 14.0338 16.8949 13.8652 16.8737 13.732C16.8526 13.5988 16.8395 13.501 16.8354 13.4677L16.8294 13.4222L16.8233 13.3768L16.8173 13.3314L16.8112 13.286L16.8556 13.2971L16.9 13.3082L16.9443 13.3193L16.9887 13.3304C17.021 13.3385 17.1168 13.3617 17.2469 13.398C17.377 13.4344 17.5403 13.4828 17.7098 13.5403C17.8792 13.5978 18.0516 13.6634 18.2009 13.7351C18.3501 13.8067 18.4742 13.8834 18.5448 13.9631C18.6194 14.0469 18.6729 14.1397 18.7041 14.2366C18.7354 14.3335 18.7465 14.4354 18.7364 14.5363C18.7263 14.6372 18.696 14.7381 18.6446 14.834C18.5932 14.9299 18.5226 15.0207 18.4318 15.1024C18.3895 15.1398 18.3451 15.1741 18.2987 15.2033C18.2523 15.2326 18.2049 15.2578 18.1555 15.278C18.1061 15.2982 18.0567 15.3143 18.0063 15.3244C17.9558 15.3345 17.9044 15.3406 17.854 15.3416H17.8509H17.8479H17.8449L17.8459 15.3406ZM17.1127 13.621C17.1309 13.7391 17.1531 13.8693 17.1783 13.9995C17.2035 14.1296 17.2328 14.2608 17.265 14.3829C17.2973 14.505 17.3306 14.617 17.3659 14.7089C17.4012 14.8007 17.4385 14.8744 17.4768 14.9167C17.502 14.945 17.5292 14.9692 17.5585 14.9904C17.5877 15.0116 17.618 15.0278 17.6503 15.0419C17.6825 15.056 17.7158 15.0661 17.7491 15.0732C17.7824 15.0802 17.8177 15.0853 17.852 15.0883C17.8873 15.0883 17.9236 15.0833 17.9589 15.0762C17.9942 15.0691 18.0305 15.057 18.0647 15.0419C18.099 15.0267 18.1343 15.0086 18.1676 14.9874C18.2009 14.9662 18.2332 14.941 18.2644 14.9137C18.329 14.8562 18.3804 14.7916 18.4167 14.726C18.453 14.6604 18.4762 14.5908 18.4843 14.5212C18.4923 14.4515 18.4863 14.3829 18.4651 14.3173C18.4439 14.2517 18.4076 14.1882 18.3562 14.1306C18.3179 14.0883 18.2503 14.0429 18.1626 13.9964C18.0748 13.95 17.9669 13.9036 17.8499 13.8592C17.733 13.8148 17.6059 13.7704 17.4788 13.73C17.3518 13.6897 17.2277 13.6523 17.1127 13.621ZM15.2652 14.7159C15.2138 14.7159 15.1624 14.7109 15.1119 14.6998C15.0615 14.6887 15.0131 14.6736 14.9657 14.6524C14.9183 14.6312 14.8729 14.6049 14.8296 14.5726C14.7862 14.5403 14.7449 14.504 14.7065 14.4606C14.6359 14.3819 14.5734 14.2497 14.52 14.0933C14.4665 13.9369 14.4191 13.7573 14.3818 13.5827C14.3445 13.4081 14.3142 13.2396 14.2931 13.1064C14.2719 12.9732 14.2588 12.8753 14.2547 12.842L14.2487 12.7966L14.2426 12.7512L14.2366 12.7058L14.2305 12.6604L14.2749 12.6715L14.3193 12.6826L14.3637 12.6937L14.408 12.7048C14.4403 12.7128 14.5361 12.736 14.6662 12.7724C14.7963 12.8087 14.9597 12.8571 15.1291 12.9147C15.2985 12.9722 15.471 13.0388 15.6202 13.1104C15.7695 13.1821 15.8935 13.2588 15.9641 13.3375C15.9984 13.3758 16.0286 13.4162 16.0549 13.4586C16.0801 13.501 16.1012 13.5444 16.1174 13.5898C16.1335 13.6352 16.1456 13.6816 16.1527 13.73C16.1597 13.7785 16.1618 13.8269 16.1587 13.8764C16.1557 13.9319 16.1466 13.9863 16.1315 14.0408C16.1164 14.0953 16.0962 14.1468 16.07 14.1983C16.0438 14.2487 16.0125 14.2982 15.9762 14.3446C15.9399 14.391 15.8975 14.4354 15.8511 14.4768C15.8068 14.5171 15.7604 14.5514 15.713 14.5817C15.6656 14.612 15.6162 14.6362 15.5668 14.6564C15.5173 14.6766 15.4669 14.6917 15.4165 14.7008C15.3661 14.7099 15.3157 14.7159 15.2652 14.7159ZM14.8931 14.2921C14.9445 14.3496 15.004 14.392 15.0676 14.4213C15.1311 14.4505 15.1987 14.4637 15.2683 14.4637C15.3378 14.4637 15.4094 14.4485 15.479 14.4193C15.5486 14.39 15.6172 14.3466 15.6817 14.2881C15.716 14.2578 15.7463 14.2255 15.7725 14.1922C15.7987 14.1589 15.8219 14.1236 15.8411 14.0873C15.8602 14.0509 15.8754 14.0136 15.8854 13.9763C15.8955 13.9389 15.9026 13.9006 15.9046 13.8612C15.9066 13.8289 15.9046 13.7966 15.9006 13.7653C15.8965 13.7341 15.8885 13.7028 15.8774 13.6735C15.8663 13.6443 15.8522 13.614 15.835 13.5867C15.8179 13.5595 15.7977 13.5312 15.7745 13.506C15.7362 13.4636 15.6686 13.4182 15.5809 13.3728C15.4931 13.3274 15.3852 13.28 15.2683 13.2356C15.1513 13.1912 15.0242 13.1468 14.8971 13.1064C14.7701 13.066 14.644 13.0287 14.528 12.9974C14.5462 13.1165 14.5684 13.2457 14.5936 13.3758C14.6188 13.506 14.648 13.6372 14.6803 13.7593C14.7126 13.8814 14.7459 13.9934 14.7812 14.0852C14.8165 14.1771 14.8558 14.2497 14.8931 14.2921ZM12.021 12.2053C11.9514 12.2053 11.8818 12.2002 11.8122 12.1901C11.7426 12.18 11.6741 12.1639 11.6055 12.1427C11.5369 12.1215 11.4693 12.0932 11.4028 12.0599C11.3362 12.0266 11.2707 11.9853 11.2071 11.9388L11.1769 11.9166L11.1466 11.8944L11.1164 11.8722L11.0861 11.85L11.7104 11.2738L12.3346 10.6976L12.9589 10.1214L13.5831 9.54523L13.6033 9.57651L13.6234 9.60779L13.6436 9.63907L13.6638 9.67036C13.7656 9.82576 13.8342 9.99125 13.8695 10.1608C13.9048 10.3303 13.9068 10.5039 13.8776 10.6764C13.8483 10.849 13.7868 11.0195 13.694 11.184C13.6012 11.3485 13.4782 11.5059 13.3239 11.6512C13.2402 11.731 13.1464 11.8056 13.0466 11.8722C12.9468 11.9388 12.8399 11.9994 12.7289 12.0488C12.618 12.0983 12.502 12.1387 12.383 12.1659C12.264 12.1931 12.142 12.2053 12.021 12.2053ZM11.4875 11.8188C11.543 11.849 11.5994 11.8743 11.6569 11.8934C11.7144 11.9126 11.7729 11.9277 11.8314 11.9368C11.8899 11.9459 11.9494 11.952 12.0079 11.952C12.0664 11.952 12.1259 11.9489 12.1843 11.9419C12.1773 11.9308 12.1712 11.9197 12.1662 11.9086C12.1612 11.8975 12.1561 11.8854 12.1531 11.8722C12.1501 11.8591 12.147 11.847 12.145 11.8339C12.143 11.8208 12.142 11.8077 12.142 11.7935C12.142 11.7552 12.1501 11.7179 12.1642 11.6846C12.1783 11.6513 12.1985 11.621 12.2247 11.5957C12.2509 11.5705 12.2802 11.5493 12.3134 11.5352C12.3467 11.5211 12.384 11.513 12.4223 11.513C12.4597 11.513 12.496 11.5201 12.5282 11.5342C12.5605 11.5483 12.5908 11.5675 12.616 11.5907C12.6412 11.6139 12.6614 11.6432 12.6765 11.6755C12.6916 11.7078 12.7007 11.7431 12.7027 11.7794C12.7269 11.7673 12.7501 11.7552 12.7733 11.7421C12.7965 11.729 12.8197 11.7158 12.8419 11.7017C12.8641 11.6876 12.8862 11.6735 12.9084 11.6583C12.9306 11.6432 12.9518 11.628 12.973 11.6129C12.9488 11.6018 12.9256 11.5877 12.9054 11.5705C12.8852 11.5534 12.8671 11.5332 12.853 11.511C12.8388 11.4888 12.8267 11.4646 12.8187 11.4383C12.8106 11.4121 12.8066 11.3848 12.8066 11.3556C12.8066 11.3172 12.8146 11.2799 12.8288 11.2466C12.8429 11.2133 12.863 11.183 12.8883 11.1578C12.9135 11.1326 12.9437 11.1124 12.977 11.0983C13.0103 11.0841 13.0466 11.0761 13.0849 11.0761C13.1142 11.0761 13.1424 11.0801 13.1686 11.0892C13.1948 11.0983 13.22 11.1094 13.2422 11.1245C13.2644 11.1396 13.2846 11.1578 13.3017 11.179C13.3189 11.2002 13.333 11.2234 13.3431 11.2486C13.3592 11.2284 13.3743 11.2072 13.3885 11.186C13.4026 11.1649 13.4177 11.1427 13.4318 11.1205C13.4459 11.0983 13.4591 11.075 13.4722 11.0528C13.4853 11.0306 13.4974 11.0064 13.5085 10.9822C13.4701 10.9822 13.4338 10.9741 13.4006 10.959C13.3673 10.9439 13.337 10.9247 13.3128 10.8984C13.2886 10.8722 13.2674 10.8429 13.2533 10.8096C13.2392 10.7763 13.2301 10.743 13.2301 10.7047C13.2301 10.6664 13.2382 10.629 13.2523 10.5957C13.2664 10.5624 13.2866 10.5321 13.3128 10.5069C13.339 10.4817 13.3683 10.4615 13.4016 10.4474C13.4349 10.4332 13.4722 10.4252 13.5105 10.4252C13.5226 10.4252 13.5347 10.4262 13.5458 10.4272C13.5569 10.4282 13.569 10.4312 13.5801 10.4343C13.5912 10.4373 13.6023 10.4403 13.6123 10.4454C13.6224 10.4504 13.6335 10.4544 13.6426 10.4595C13.6436 10.4171 13.6426 10.3737 13.6386 10.3303C13.6345 10.2869 13.6285 10.2435 13.6184 10.2001C13.6083 10.1567 13.5972 10.1123 13.5811 10.069C13.5649 10.0256 13.5468 9.98116 13.5256 9.93777L13.0163 10.408L12.5071 10.8783L11.9978 11.3485L11.4875 11.8188ZM10.3731 11.3415C10.3308 11.3415 10.2884 11.3374 10.2451 11.3293C10.2017 11.3213 10.1583 11.3092 10.115 11.292C10.0716 11.2749 10.0272 11.2547 9.98386 11.2304C9.9405 11.2062 9.89613 11.177 9.85276 11.1437L9.85175 11.1427L9.85075 11.1416H9.84873L9.84772 11.1406L8.5115 10.0256L7.17527 8.91049L5.83905 7.79643L4.50282 6.68136C4.46652 6.64906 4.43425 6.61576 4.40702 6.58145C4.37979 6.54714 4.3566 6.51182 4.33844 6.47449C4.32029 6.43715 4.30617 6.40082 4.29609 6.36247C4.286 6.32413 4.28197 6.28578 4.28197 6.24643C4.28197 6.21817 4.28399 6.18689 4.29004 6.15359C4.29609 6.12029 4.30718 6.08295 4.32332 6.0446C4.33945 6.00626 4.36164 5.96488 4.39189 5.92452C4.42215 5.88415 4.45845 5.84177 4.50484 5.79939L5.4639 4.94669L6.42295 4.09398L7.38201 3.24128L8.34106 2.38858C8.38241 2.35023 8.42275 2.31794 8.46309 2.29069C8.50343 2.26345 8.54478 2.24125 8.58511 2.2251C8.62545 2.20895 8.66579 2.19684 8.70613 2.19079C8.74647 2.18474 8.78681 2.18373 8.82715 2.18776C8.86446 2.19281 8.89976 2.20088 8.93404 2.21501C8.96833 2.22914 9.00161 2.24629 9.03288 2.26849C9.06414 2.29069 9.0954 2.31794 9.12465 2.34922C9.15389 2.3805 9.18112 2.41582 9.20835 2.45619L10.1361 3.92647L11.0639 5.39675L11.9917 6.86703L12.9195 8.33731C12.9659 8.41199 13.0073 8.48767 13.0395 8.56336C13.0718 8.63904 13.094 8.71674 13.099 8.79444C13.1041 8.87214 13.094 8.94985 13.0607 9.02856C13.0274 9.10727 12.972 9.18396 12.8873 9.26166L12.377 9.73393L11.8667 10.2062L11.3564 10.6785L10.8461 11.1507C10.8098 11.183 10.7725 11.2113 10.7342 11.2345C10.6958 11.2577 10.6565 11.2789 10.6172 11.295C10.5779 11.3112 10.5375 11.3233 10.4962 11.3314C10.4548 11.3394 10.4145 11.3415 10.3731 11.3415ZM10.0061 10.9439C10.0676 10.9903 10.1281 11.0256 10.1876 11.0488C10.2471 11.072 10.3046 11.0851 10.361 11.0861C10.4175 11.0872 10.472 11.0781 10.5244 11.0569C10.5768 11.0357 10.6283 11.0044 10.6777 10.961L11.187 10.4898L11.6962 10.0185L12.2055 9.54724L12.7148 9.07599C12.7541 9.03966 12.7854 9.00535 12.8086 8.967C12.8318 8.92866 12.8439 8.8893 12.8459 8.84389C12.8479 8.79848 12.8378 8.74601 12.8146 8.68445C12.7914 8.62289 12.7551 8.55226 12.7037 8.4685L11.7759 6.99923L10.8501 5.53096L9.92235 4.06169L8.99455 2.59242C8.98044 2.56921 8.9643 2.54903 8.94816 2.53086C8.93203 2.5127 8.91589 2.49655 8.89976 2.48343C8.88362 2.47032 8.86648 2.46022 8.84933 2.45316C8.83219 2.4461 8.81505 2.44105 8.79689 2.43903C8.77168 2.43601 8.74647 2.43903 8.72025 2.4461C8.69403 2.45316 8.66882 2.46426 8.64461 2.47738C8.62041 2.4905 8.5952 2.50664 8.57301 2.5238C8.55083 2.54095 8.52965 2.55811 8.5115 2.57526L7.55143 3.42898L6.59238 4.28168L5.63231 5.13438L4.67326 5.98708C4.65712 6.00121 4.64098 6.01837 4.62485 6.03653C4.60871 6.05469 4.59359 6.07488 4.57947 6.09708C4.56535 6.11928 4.55426 6.14249 4.54619 6.16671C4.53812 6.19092 4.53409 6.21716 4.53409 6.24441C4.53409 6.27065 4.53913 6.29587 4.54619 6.32009C4.55325 6.34431 4.56535 6.36651 4.57745 6.38669C4.58955 6.40688 4.60468 6.42605 4.61981 6.4432C4.63493 6.46036 4.65208 6.4765 4.6672 6.48962L6.00242 7.60369L7.33764 8.71775L8.67184 9.8308L10.0061 10.9439Z" fill="#4D4D4D"/>
</svg>
