<svg width="30" height="30" viewBox="0 0 30 30" fill="none" xmlns="http://www.w3.org/2000/svg">
<rect width="30" height="30" fill="white"/>
<path d="M30 30H22.5H15H7.5H0V22.5003V15.0005V7.49975V0H7.5H15H22.5H30V7.49975V14.9995V22.4992V30ZM0.252287 29.7477H7.62614H15H22.3739H29.7477V22.3741V15.0005V7.62589V0.252279H22.3739H15H7.62614H0.252287V7.62589V14.9995V22.3731V29.7477Z" fill="#4D4D4D"/>
<path fill-rule="evenodd" clip-rule="evenodd" d="M5 25H25.9998L26 24.5812H25.5216H21.2173H20.7389H16.4349H15.9565H11.6522H11.1738H6.86971H6.39135H5.43486V23.1617V22.6885V18.4305V17.9573V13.6993V13.2261V8.96808V8.49487V4.47327V4.276V4H5V25ZM6.74988 18.9033C6.94804 18.9033 7.10865 18.7446 7.10865 18.5486C7.10865 18.3523 6.94829 18.1937 6.74988 18.1937C6.55146 18.1937 6.3911 18.3523 6.3911 18.5486C6.39135 18.7444 6.55171 18.9033 6.74988 18.9033ZM9.14123 16.5375C9.33939 16.5375 9.49976 16.3789 9.49976 16.1829C9.49976 15.9866 9.33939 15.8279 9.14123 15.8279C8.94281 15.8279 8.78245 15.9866 8.78245 16.1829C8.78245 16.3789 8.94281 16.5375 9.14123 16.5375ZM10.0977 14.1721C10.2961 14.1721 10.4565 14.0134 10.4565 13.8171C10.4565 13.6211 10.2961 13.4622 10.0977 13.4622C9.89954 13.4622 9.73894 13.6208 9.73894 13.8171C9.73894 14.0134 9.8993 14.1721 10.0977 14.1721ZM9.73894 20.9138C9.73894 21.1101 9.8993 21.2688 10.0977 21.2688C10.2961 21.2688 10.4565 21.1101 10.4565 20.9138C10.4565 20.7178 10.2961 20.5591 10.0977 20.5591C9.8993 20.5591 9.73894 20.718 9.73894 20.9138ZM12.1303 18.5486C12.1303 18.7446 12.2906 18.9033 12.4891 18.9033C12.6872 18.9033 12.8478 18.7446 12.8478 18.5486C12.8478 18.3523 12.6875 18.1937 12.4891 18.1937C12.2906 18.1934 12.1303 18.3523 12.1303 18.5486ZM16.9127 16.1829C16.9127 16.3789 17.0728 16.5375 17.2713 16.5375C17.4694 16.5375 17.63 16.3789 17.63 16.1829C17.63 15.9866 17.4694 15.8279 17.2713 15.8279C17.0731 15.8279 16.9127 15.9866 16.9127 16.1829ZM14.5214 15.4733C14.5214 15.6696 14.6817 15.8279 14.8802 15.8279C15.0786 15.8279 15.2389 15.6696 15.2389 15.4733C15.2389 15.277 15.0786 15.1183 14.8802 15.1183C14.6817 15.1183 14.5214 15.277 14.5214 15.4733ZM14.8802 12.9892C15.0783 12.9892 15.2389 12.8306 15.2389 12.6343C15.2389 12.438 15.0786 12.2794 14.8802 12.2794C14.6817 12.2794 14.5214 12.438 14.5214 12.6343C14.5214 12.8306 14.6817 12.9892 14.8802 12.9892ZM12.4888 11.0967C12.687 11.0967 12.8476 10.938 12.8476 10.7418C12.8476 10.5455 12.6872 10.3868 12.4888 10.3868C12.2904 10.3868 12.13 10.5455 12.13 10.7418C12.13 10.938 12.2906 11.0967 12.4888 11.0967ZM17.2713 11.0967C17.4694 11.0967 17.63 10.938 17.63 10.7418C17.63 10.5455 17.4694 10.3868 17.2713 10.3868C17.0728 10.3868 16.9127 10.5455 16.9127 10.7418C16.9127 10.938 17.0731 11.0967 17.2713 11.0967ZM19.3038 11.4517C19.3038 11.6477 19.464 11.8066 19.6626 11.8066C19.8608 11.8066 20.0211 11.6479 20.0211 11.4517C20.0211 11.2554 19.8608 11.0967 19.6626 11.0967C19.464 11.0967 19.3038 11.2556 19.3038 11.4517ZM19.6626 7.07538C19.8608 7.07538 20.0211 6.91669 20.0211 6.7204C20.0211 6.52411 19.8608 6.36548 19.6626 6.36548C19.464 6.36548 19.3038 6.52411 19.3038 6.7204C19.3038 6.91669 19.464 7.07538 19.6626 7.07538ZM20.6191 7.78497C20.817 7.78497 20.9776 7.62634 20.9776 7.43005C20.9776 7.23376 20.817 7.07513 20.6191 7.07513C20.4204 7.07513 20.2603 7.23376 20.2603 7.43005C20.2603 7.62634 20.4204 7.78497 20.6191 7.78497ZM21.6952 9.55914C21.6952 9.75543 21.8553 9.91406 22.054 9.91406C22.2519 9.91406 22.4125 9.75543 22.4125 9.55914C22.4125 9.3631 22.2519 9.20447 22.054 9.20447C21.8553 9.20447 21.6952 9.36285 21.6952 9.55914ZM24.3255 5.77417C24.3255 5.97021 24.4856 6.12885 24.684 6.12885C24.8822 6.12885 25.0428 5.97021 25.0428 5.77417C25.0428 5.57788 24.8822 5.41925 24.684 5.41925C24.4858 5.41949 24.3255 5.57812 24.3255 5.77417ZM6.79361 21.6782L24.4885 5.35571L24.1626 5.00958L6.4672 21.3323L6.79361 21.6782Z" fill="#4D4D4D"/>
</svg>
