<svg width="30" height="30" viewBox="0 0 30 30" fill="none" xmlns="http://www.w3.org/2000/svg">
<rect width="30" height="30" fill="white"/>
<path d="M30 30H22.5H15H7.5H0V22.5003V15.0005V7.49975V0H7.5H15H22.5H30V7.49975V14.9995V22.4992V30ZM0.252287 29.7477H7.62614H15H22.3739H29.7477V22.3741V15.0005V7.62589V0.252279H22.3739H15H7.62614H0.252287V7.62589V14.9995V22.3731V29.7477Z" fill="#4D4D4D"/>
<path d="M10.8626 27.04C10.8626 27.1967 10.8359 27.3283 10.7826 27.435C10.7326 27.5417 10.6659 27.6367 10.5826 27.72C10.4626 27.8367 10.3159 27.9233 10.1426 27.98C9.97258 28.0367 9.78424 28.065 9.57758 28.065C9.37424 28.065 9.18758 28.0333 9.01758 27.97C8.84758 27.9067 8.70424 27.8117 8.58758 27.685C8.50091 27.5917 8.42924 27.485 8.37258 27.365C8.31591 27.245 8.28091 27.1167 8.26758 26.98H8.53758C8.55091 27.0867 8.58091 27.1867 8.62758 27.28C8.67424 27.3733 8.73091 27.455 8.79758 27.525C8.89424 27.6217 9.01091 27.695 9.14758 27.745C9.28424 27.7917 9.42758 27.815 9.57758 27.815C9.73091 27.815 9.87924 27.795 10.0226 27.755C10.1659 27.7117 10.2859 27.6433 10.3826 27.55C10.4459 27.49 10.4959 27.4183 10.5326 27.335C10.5726 27.2517 10.5926 27.1533 10.5926 27.04C10.5926 26.9567 10.5759 26.8767 10.5426 26.8C10.5126 26.72 10.4676 26.65 10.4076 26.59C10.3476 26.5267 10.2742 26.475 10.1876 26.435C10.1042 26.3917 10.0092 26.3633 9.90258 26.35L9.24258 26.265C9.11591 26.2483 8.99924 26.2183 8.89258 26.175C8.78924 26.1317 8.69758 26.0733 8.61758 26C8.54091 25.9233 8.48091 25.8333 8.43758 25.73C8.39424 25.6267 8.37258 25.5067 8.37258 25.37C8.37258 25.22 8.40091 25.0917 8.45758 24.985C8.51758 24.8783 8.59258 24.7833 8.68258 24.7C8.79258 24.6 8.92424 24.5233 9.07758 24.47C9.23091 24.4167 9.39091 24.39 9.55758 24.39C9.74758 24.39 9.92924 24.4267 10.1026 24.5C10.2792 24.57 10.4176 24.6633 10.5176 24.78C10.5942 24.8667 10.6559 24.96 10.7026 25.06C10.7492 25.1567 10.7776 25.2683 10.7876 25.395H10.5226C10.5092 25.305 10.4876 25.225 10.4576 25.155C10.4276 25.0817 10.3842 25.0117 10.3276 24.945C10.2509 24.8483 10.1442 24.7733 10.0076 24.72C9.87091 24.6667 9.72091 24.64 9.55758 24.64C9.43091 24.64 9.30758 24.6567 9.18758 24.69C9.07091 24.7233 8.96924 24.7783 8.88258 24.855C8.81591 24.915 8.75924 24.9867 8.71258 25.07C8.66591 25.1533 8.64258 25.2533 8.64258 25.37C8.64258 25.4767 8.65924 25.5667 8.69258 25.64C8.72924 25.7133 8.77591 25.775 8.83258 25.825C8.88924 25.8717 8.95591 25.9083 9.03258 25.935C9.10924 25.9617 9.18758 25.98 9.26758 25.99L9.93758 26.075C10.0742 26.0917 10.1992 26.1283 10.3126 26.185C10.4259 26.2417 10.5226 26.3133 10.6026 26.4C10.6859 26.4833 10.7492 26.58 10.7926 26.69C10.8392 26.8 10.8626 26.9167 10.8626 27.04ZM13.9029 26.225C13.9029 26.1183 13.8996 26.0083 13.8929 25.895C13.8863 25.7817 13.8713 25.67 13.8479 25.56C13.8246 25.45 13.7896 25.345 13.7429 25.245C13.6963 25.145 13.6313 25.055 13.5479 24.975C13.4579 24.8883 13.3513 24.8233 13.2279 24.78C13.1046 24.7333 12.9763 24.71 12.8429 24.71H11.9279V27.745H12.8429C12.9763 27.745 13.1046 27.7233 13.2279 27.68C13.3513 27.6333 13.4579 27.5667 13.5479 27.48C13.6313 27.4 13.6963 27.31 13.7429 27.21C13.7896 27.1067 13.8246 27 13.8479 26.89C13.8713 26.78 13.8863 26.6683 13.8929 26.555C13.8996 26.4417 13.9029 26.3317 13.9029 26.225ZM14.1679 26.225C14.1679 26.3483 14.1629 26.475 14.1529 26.605C14.1463 26.7317 14.1279 26.8583 14.0979 26.985C14.0679 27.1083 14.0246 27.2267 13.9679 27.34C13.9113 27.4533 13.8346 27.5567 13.7379 27.65C13.6313 27.7533 13.5029 27.8383 13.3529 27.905C13.2029 27.9683 13.0329 28 12.8429 28H11.6679V24.455H12.8429C13.0329 24.455 13.2029 24.4883 13.3529 24.555C13.5029 24.6183 13.6313 24.7017 13.7379 24.805C13.8346 24.8983 13.9113 25.0017 13.9679 25.115C14.0246 25.2283 14.0679 25.3467 14.0979 25.47C14.1279 25.5933 14.1463 25.72 14.1529 25.85C14.1629 25.9767 14.1679 26.1017 14.1679 26.225ZM17.358 26.915C17.3447 27.0783 17.3047 27.23 17.238 27.37C17.1713 27.51 17.083 27.6317 16.973 27.735C16.863 27.8383 16.733 27.92 16.583 27.98C16.4363 28.0367 16.2747 28.065 16.098 28.065C15.928 28.065 15.7597 28.0317 15.593 27.965C15.4297 27.8983 15.2863 27.8033 15.163 27.68C15.0663 27.5833 14.9897 27.4767 14.933 27.36C14.8797 27.2433 14.8397 27.1233 14.813 27C14.7863 26.8733 14.768 26.745 14.758 26.615C14.7513 26.4817 14.748 26.3517 14.748 26.225C14.748 26.0983 14.7513 25.97 14.758 25.84C14.768 25.71 14.7863 25.5817 14.813 25.455C14.8397 25.3283 14.8797 25.2083 14.933 25.095C14.9897 24.9783 15.0663 24.8717 15.163 24.775C15.2863 24.6517 15.4297 24.5567 15.593 24.49C15.7597 24.4233 15.928 24.39 16.098 24.39C16.2747 24.39 16.4363 24.42 16.583 24.48C16.733 24.5367 16.863 24.6167 16.973 24.72C17.083 24.8233 17.1713 24.945 17.238 25.085C17.3047 25.225 17.3447 25.3767 17.358 25.54H17.088C17.078 25.41 17.0463 25.29 16.993 25.18C16.9397 25.07 16.8697 24.975 16.783 24.895C16.6997 24.815 16.5997 24.7533 16.483 24.71C16.3663 24.6667 16.238 24.645 16.098 24.645C15.938 24.645 15.798 24.6717 15.678 24.725C15.558 24.7783 15.4497 24.8533 15.353 24.95C15.273 25.0333 15.2097 25.1267 15.163 25.23C15.1197 25.3333 15.0863 25.4417 15.063 25.555C15.043 25.665 15.0297 25.7783 15.023 25.895C15.0197 26.0083 15.018 26.1183 15.018 26.225C15.018 26.3317 15.0197 26.4433 15.023 26.56C15.0297 26.6733 15.0447 26.7867 15.068 26.9C15.0913 27.0133 15.1247 27.1217 15.168 27.225C15.2147 27.3283 15.278 27.4217 15.358 27.505C15.5547 27.7083 15.8013 27.81 16.098 27.81C16.238 27.81 16.3663 27.7883 16.483 27.745C16.5997 27.7017 16.6997 27.64 16.783 27.56C16.8697 27.48 16.9397 27.385 16.993 27.275C17.0463 27.165 17.078 27.045 17.088 26.915H17.358ZM21.1882 28V24.83L19.8932 27.95H19.6632L18.3682 24.855V28H18.1132V24.455H18.4782L19.7882 27.605L21.0732 24.455H21.4432V28H21.1882Z" fill="#4D4D4D"/>
<path d="M15.806 12.5336C15.5171 13.0531 15.1608 13.4664 14.8213 13.716C14.476 13.9698 14.1738 14.0372 13.9739 13.926C13.774 13.8148 13.6718 13.5225 13.7053 13.0953C13.7381 12.6753 13.9014 12.1545 14.1902 11.635C14.4791 11.1156 14.8355 10.7022 15.175 10.4527C15.5203 10.1989 15.8224 10.1314 16.0224 10.2426C16.2223 10.3538 16.3244 10.6461 16.291 11.0733C16.2581 11.4934 16.0949 12.0142 15.806 12.5336Z" stroke="#4D4D4D" stroke-width="0.15"/>
<path d="M16.4602 12.7652C15.9477 13.6867 15.3143 14.4226 14.7076 14.8685C14.0951 15.3186 13.5357 15.4563 13.1516 15.2427C12.7675 15.0291 12.5894 14.4812 12.6487 13.7234C12.7074 12.9728 12.9984 12.0465 13.5109 11.125C14.0234 10.2035 14.6568 9.46759 15.2634 9.02171C15.876 8.57155 16.4354 8.43386 16.8195 8.64745C17.2035 8.86105 17.3817 9.40896 17.3224 10.1668C17.2637 10.9174 16.9727 11.8437 16.4602 12.7652Z" stroke="#4D4D4D" stroke-width="0.15"/>
<path d="M17.2524 13.3103C16.415 14.8161 15.399 16.0319 14.4362 16.7812C13.9547 17.1559 13.4895 17.4116 13.0692 17.5304C12.6492 17.6491 12.2796 17.6298 11.9805 17.4635C11.6815 17.2972 11.4701 16.9933 11.3494 16.574C11.2285 16.1542 11.2004 15.6241 11.2647 15.0174C11.3934 13.8042 11.8902 12.2997 12.7277 10.7939C13.5651 9.28811 14.5811 8.07231 15.5438 7.32301C16.0253 6.94826 16.4906 6.69253 16.9109 6.57374C17.3308 6.45508 17.7005 6.47432 17.9995 6.64064C18.2986 6.80696 18.51 7.11084 18.6307 7.53018C18.7515 7.94994 18.7797 8.48006 18.7154 9.0868C18.5867 10.3 18.0898 11.8045 17.2524 13.3103Z" stroke="#4D4D4D" stroke-width="0.15"/>
<path d="M18.1587 13.7103C17.0271 15.745 15.6537 17.389 14.3508 18.403C13.6992 18.9101 13.0683 19.2573 12.4966 19.4189C11.9254 19.5803 11.4188 19.5551 11.0074 19.3263C10.5959 19.0974 10.3073 18.6804 10.143 18.11C9.9787 17.5391 9.94082 16.8199 10.0279 15.9989C10.202 14.3571 10.8741 12.3231 12.0057 10.2883C13.1373 8.25359 14.5107 6.60959 15.8136 5.59559C16.4651 5.08849 17.0961 4.74128 17.6677 4.57974C18.239 4.41831 18.7455 4.44351 19.157 4.67234C19.5685 4.90118 19.8571 5.31822 20.0213 5.88866C20.1856 6.45952 20.2235 7.17868 20.1365 7.99972C19.9624 9.64149 19.2903 11.6755 18.1587 13.7103Z" stroke="#4D4D4D" stroke-width="0.15"/>
<path d="M18.8332 14.1722C17.4282 16.6985 15.7225 18.7404 14.1036 20.0004C13.294 20.6305 12.509 21.0628 11.7967 21.264C11.0849 21.4652 10.4511 21.4345 9.93515 21.1475C9.41921 20.8606 9.05875 20.3384 8.8541 19.6275C8.64935 18.9163 8.60243 18.0214 8.71061 17.0012C8.92694 14.9611 9.76184 12.435 11.1668 9.90862C12.5718 7.38228 14.2774 5.34033 15.8964 4.08033C16.706 3.45023 17.491 3.01801 18.2032 2.81672C18.9151 2.61556 19.5489 2.6463 20.0648 2.93323C20.5808 3.22016 20.9412 3.74237 21.1459 4.45324C21.3506 5.16452 21.3976 6.05937 21.2894 7.07956C21.073 9.11963 20.2381 11.6458 18.8332 14.1722Z" stroke="#4D4D4D" stroke-width="0.15"/>
</svg>
