<svg width="30" height="30" viewBox="0 0 30 30" fill="none" xmlns="http://www.w3.org/2000/svg">
<rect width="30" height="30" fill="white"/>
<path d="M30 30H22.5H15H7.5H0V22.5003V15.0005V7.49975V0H7.5H15H22.5H30V7.49975V14.9995V22.4992V30ZM0.252287 29.7477H7.62614H15H22.3739H29.7477V22.3741V15.0005V7.62589V0.252279H22.3739H15H7.62614H0.252287V7.62589V14.9995V22.3731V29.7477Z" fill="#4D4D4D"/>
<path d="M8.89969 27.04C8.89969 27.1967 8.87302 27.3283 8.81969 27.435C8.76969 27.5417 8.70302 27.6367 8.61969 27.72C8.49969 27.8367 8.35302 27.9233 8.17969 27.98C8.00969 28.0367 7.82135 28.065 7.61469 28.065C7.41135 28.065 7.22469 28.0333 7.05469 27.97C6.88469 27.9067 6.74135 27.8117 6.62469 27.685C6.53802 27.5917 6.46635 27.485 6.40969 27.365C6.35302 27.245 6.31802 27.1167 6.30469 26.98H6.57469C6.58802 27.0867 6.61802 27.1867 6.66469 27.28C6.71135 27.3733 6.76802 27.455 6.83469 27.525C6.93135 27.6217 7.04802 27.695 7.18469 27.745C7.32135 27.7917 7.46469 27.815 7.61469 27.815C7.76802 27.815 7.91635 27.795 8.05969 27.755C8.20302 27.7117 8.32302 27.6433 8.41969 27.55C8.48302 27.49 8.53302 27.4183 8.56969 27.335C8.60969 27.2517 8.62969 27.1533 8.62969 27.04C8.62969 26.9567 8.61302 26.8767 8.57969 26.8C8.54969 26.72 8.50469 26.65 8.44469 26.59C8.38469 26.5267 8.31135 26.475 8.22469 26.435C8.14135 26.3917 8.04635 26.3633 7.93969 26.35L7.27969 26.265C7.15302 26.2483 7.03635 26.2183 6.92969 26.175C6.82635 26.1317 6.73469 26.0733 6.65469 26C6.57802 25.9233 6.51802 25.8333 6.47469 25.73C6.43135 25.6267 6.40969 25.5067 6.40969 25.37C6.40969 25.22 6.43802 25.0917 6.49469 24.985C6.55469 24.8783 6.62969 24.7833 6.71969 24.7C6.82969 24.6 6.96135 24.5233 7.11469 24.47C7.26802 24.4167 7.42802 24.39 7.59469 24.39C7.78469 24.39 7.96635 24.4267 8.13969 24.5C8.31635 24.57 8.45469 24.6633 8.55469 24.78C8.63135 24.8667 8.69302 24.96 8.73969 25.06C8.78635 25.1567 8.81469 25.2683 8.82469 25.395H8.55969C8.54635 25.305 8.52469 25.225 8.49469 25.155C8.46469 25.0817 8.42135 25.0117 8.36469 24.945C8.28802 24.8483 8.18135 24.7733 8.04469 24.72C7.90802 24.6667 7.75802 24.64 7.59469 24.64C7.46802 24.64 7.34469 24.6567 7.22469 24.69C7.10802 24.7233 7.00635 24.7783 6.91969 24.855C6.85302 24.915 6.79635 24.9867 6.74969 25.07C6.70302 25.1533 6.67969 25.2533 6.67969 25.37C6.67969 25.4767 6.69635 25.5667 6.72969 25.64C6.76635 25.7133 6.81302 25.775 6.86969 25.825C6.92635 25.8717 6.99302 25.9083 7.06969 25.935C7.14635 25.9617 7.22469 25.98 7.30469 25.99L7.97469 26.075C8.11135 26.0917 8.23635 26.1283 8.34969 26.185C8.46302 26.2417 8.55969 26.3133 8.63969 26.4C8.72302 26.4833 8.78635 26.58 8.82969 26.69C8.87635 26.8 8.89969 26.9167 8.89969 27.04ZM11.94 26.225C11.94 26.1183 11.9367 26.0083 11.93 25.895C11.9234 25.7817 11.9084 25.67 11.885 25.56C11.8617 25.45 11.8267 25.345 11.78 25.245C11.7334 25.145 11.6684 25.055 11.585 24.975C11.495 24.8883 11.3884 24.8233 11.265 24.78C11.1417 24.7333 11.0134 24.71 10.88 24.71H9.96504V27.745H10.88C11.0134 27.745 11.1417 27.7233 11.265 27.68C11.3884 27.6333 11.495 27.5667 11.585 27.48C11.6684 27.4 11.7334 27.31 11.78 27.21C11.8267 27.1067 11.8617 27 11.885 26.89C11.9084 26.78 11.9234 26.6683 11.93 26.555C11.9367 26.4417 11.94 26.3317 11.94 26.225ZM12.205 26.225C12.205 26.3483 12.2 26.475 12.19 26.605C12.1834 26.7317 12.165 26.8583 12.135 26.985C12.105 27.1083 12.0617 27.2267 12.005 27.34C11.9484 27.4533 11.8717 27.5567 11.775 27.65C11.6684 27.7533 11.54 27.8383 11.39 27.905C11.24 27.9683 11.07 28 10.88 28H9.70504V24.455H10.88C11.07 24.455 11.24 24.4883 11.39 24.555C11.54 24.6183 11.6684 24.7017 11.775 24.805C11.8717 24.8983 11.9484 25.0017 12.005 25.115C12.0617 25.2283 12.105 25.3467 12.135 25.47C12.165 25.5933 12.1834 25.72 12.19 25.85C12.2 25.9767 12.205 26.1017 12.205 26.225ZM15.3951 26.915C15.3818 27.0783 15.3418 27.23 15.2751 27.37C15.2085 27.51 15.1201 27.6317 15.0101 27.735C14.9001 27.8383 14.7701 27.92 14.6201 27.98C14.4735 28.0367 14.3118 28.065 14.1351 28.065C13.9651 28.065 13.7968 28.0317 13.6301 27.965C13.4668 27.8983 13.3235 27.8033 13.2001 27.68C13.1035 27.5833 13.0268 27.4767 12.9701 27.36C12.9168 27.2433 12.8768 27.1233 12.8501 27C12.8235 26.8733 12.8051 26.745 12.7951 26.615C12.7885 26.4817 12.7851 26.3517 12.7851 26.225C12.7851 26.0983 12.7885 25.97 12.7951 25.84C12.8051 25.71 12.8235 25.5817 12.8501 25.455C12.8768 25.3283 12.9168 25.2083 12.9701 25.095C13.0268 24.9783 13.1035 24.8717 13.2001 24.775C13.3235 24.6517 13.4668 24.5567 13.6301 24.49C13.7968 24.4233 13.9651 24.39 14.1351 24.39C14.3118 24.39 14.4735 24.42 14.6201 24.48C14.7701 24.5367 14.9001 24.6167 15.0101 24.72C15.1201 24.8233 15.2085 24.945 15.2751 25.085C15.3418 25.225 15.3818 25.3767 15.3951 25.54H15.1251C15.1151 25.41 15.0835 25.29 15.0301 25.18C14.9768 25.07 14.9068 24.975 14.8201 24.895C14.7368 24.815 14.6368 24.7533 14.5201 24.71C14.4035 24.6667 14.2751 24.645 14.1351 24.645C13.9751 24.645 13.8351 24.6717 13.7151 24.725C13.5951 24.7783 13.4868 24.8533 13.3901 24.95C13.3101 25.0333 13.2468 25.1267 13.2001 25.23C13.1568 25.3333 13.1235 25.4417 13.1001 25.555C13.0801 25.665 13.0668 25.7783 13.0601 25.895C13.0568 26.0083 13.0551 26.1183 13.0551 26.225C13.0551 26.3317 13.0568 26.4433 13.0601 26.56C13.0668 26.6733 13.0818 26.7867 13.1051 26.9C13.1285 27.0133 13.1618 27.1217 13.2051 27.225C13.2518 27.3283 13.3151 27.4217 13.3951 27.505C13.5918 27.7083 13.8385 27.81 14.1351 27.81C14.2751 27.81 14.4035 27.7883 14.5201 27.745C14.6368 27.7017 14.7368 27.64 14.8201 27.56C14.9068 27.48 14.9768 27.385 15.0301 27.275C15.0835 27.165 15.1151 27.045 15.1251 26.915H15.3951ZM19.2254 28V24.83L17.9304 27.95H17.7004L16.4054 24.855V28H16.1504V24.455H16.5154L17.8254 27.605L19.1104 24.455H19.4804V28H19.2254ZM23.4038 27.3V28H22.7788V27.3H21.2288V26.71L22.5038 24.525H23.1838L21.8888 26.735H22.7788V25.92H23.4038V26.735H23.8438V27.3H23.4038Z" fill="#4D4D4D"/>
<path d="M15.806 12.5336C15.5171 13.0531 15.1608 13.4664 14.8213 13.716C14.476 13.9698 14.1738 14.0372 13.9739 13.926C13.774 13.8148 13.6718 13.5225 13.7053 13.0953C13.7381 12.6753 13.9014 12.1545 14.1902 11.635C14.4791 11.1156 14.8355 10.7022 15.175 10.4527C15.5203 10.1989 15.8224 10.1314 16.0224 10.2426C16.2223 10.3538 16.3244 10.6461 16.291 11.0733C16.2581 11.4934 16.0949 12.0142 15.806 12.5336Z" stroke="#4D4D4D" stroke-width="0.15"/>
<path d="M16.4602 12.7652C15.9477 13.6867 15.3143 14.4226 14.7076 14.8685C14.0951 15.3186 13.5357 15.4563 13.1516 15.2427C12.7675 15.0291 12.5894 14.4812 12.6487 13.7234C12.7074 12.9728 12.9984 12.0465 13.5109 11.125C14.0234 10.2035 14.6568 9.46759 15.2634 9.02171C15.876 8.57155 16.4354 8.43386 16.8195 8.64745C17.2035 8.86105 17.3817 9.40896 17.3224 10.1668C17.2637 10.9174 16.9727 11.8437 16.4602 12.7652Z" stroke="#4D4D4D" stroke-width="0.15"/>
<path d="M17.2524 13.3103C16.415 14.8161 15.399 16.0319 14.4362 16.7812C13.9547 17.1559 13.4895 17.4116 13.0692 17.5304C12.6492 17.6491 12.2796 17.6298 11.9805 17.4635C11.6815 17.2972 11.4701 16.9933 11.3494 16.574C11.2286 16.1542 11.2004 15.6241 11.2647 15.0174C11.3934 13.8042 11.8903 12.2997 12.7277 10.7939C13.5651 9.28811 14.5811 8.07231 15.5438 7.32301C16.0254 6.94826 16.4906 6.69253 16.9109 6.57374C17.3308 6.45508 17.7005 6.47432 17.9996 6.64064C18.2986 6.80696 18.51 7.11084 18.6307 7.53018C18.7515 7.94994 18.7797 8.48006 18.7154 9.0868C18.5867 10.3 18.0898 11.8045 17.2524 13.3103Z" stroke="#4D4D4D" stroke-width="0.15"/>
<path d="M18.1587 13.7103C17.0271 15.745 15.6537 17.389 14.3508 18.403C13.6992 18.9101 13.0683 19.2573 12.4966 19.4189C11.9254 19.5803 11.4188 19.5551 11.0074 19.3263C10.5959 19.0974 10.3072 18.6804 10.143 18.11C9.9787 17.5391 9.94081 16.8199 10.0279 15.9989C10.202 14.3571 10.874 12.3231 12.0056 10.2883C13.1372 8.25359 14.5107 6.60959 15.8136 5.59559C16.4651 5.08849 17.0961 4.74128 17.6677 4.57974C18.2389 4.41831 18.7455 4.44351 19.157 4.67234C19.5684 4.90118 19.8571 5.31822 20.0213 5.88866C20.1856 6.45952 20.2235 7.17868 20.1365 7.99972C19.9624 9.64149 19.2903 11.6755 18.1587 13.7103Z" stroke="#4D4D4D" stroke-width="0.15"/>
<path d="M18.8332 14.1722C17.4282 16.6985 15.7225 18.7404 14.1036 20.0004C13.294 20.6305 12.509 21.0628 11.7967 21.264C11.0849 21.4652 10.4511 21.4345 9.93515 21.1475C9.41921 20.8606 9.05875 20.3384 8.8541 19.6275C8.64935 18.9163 8.60243 18.0214 8.71061 17.0012C8.92694 14.9611 9.76184 12.435 11.1668 9.90862C12.5718 7.38228 14.2774 5.34033 15.8964 4.08033C16.706 3.45023 17.491 3.01801 18.2032 2.81672C18.9151 2.61556 19.5489 2.6463 20.0648 2.93323C20.5808 3.22016 20.9412 3.74237 21.1459 4.45324C21.3506 5.16452 21.3976 6.05937 21.2894 7.07956C21.073 9.11963 20.2381 11.6458 18.8332 14.1722Z" stroke="#4D4D4D" stroke-width="0.15"/>
</svg>
