<svg width="30" height="30" viewBox="0 0 30 30" fill="none" xmlns="http://www.w3.org/2000/svg">
<rect width="30" height="30" fill="white"/>
<path d="M30 30H22.5H15H7.5H0V22.5003V15.0005V7.49975V0H7.5H15H22.5H30V7.49975V14.9995V22.4992V30ZM0.252287 29.7477H7.62614H15H22.3739H29.7477V22.3741V15.0005V7.62589V0.252279H22.3739H15H7.62614H0.252287V7.62589V14.9995V22.3731V29.7477Z" fill="#4D4D4D"/>
<path d="M15.913 26.359C15.896 26.359 15.879 26.359 15.861 26.359C15.843 26.359 15.826 26.359 15.809 26.359C15.792 26.359 15.774 26.359 15.756 26.358C15.738 26.357 15.721 26.358 15.703 26.357H15.672H15.641H15.61H15.579L15.58 26.295L15.581 26.233L15.582 26.171L15.583 26.109H15.614H15.645H15.676H15.707C16.385 26.121 16.97 26.106 17.479 25.928C17.988 25.75 18.42 25.407 18.792 24.766C19.164 24.125 19.478 23.183 19.749 21.807C20.02 20.431 20.249 18.618 20.453 16.235C20.544 15.176 20.629 14.382 20.708 13.787C20.787 13.192 20.862 12.794 20.93 12.53C20.998 12.266 21.061 12.133 21.118 12.067C21.175 12.001 21.226 12.001 21.272 12C21.342 12 21.406 12.034 21.467 12.135C21.528 12.236 21.586 12.402 21.644 12.667C21.702 12.932 21.76 13.294 21.822 13.786C21.884 14.278 21.948 14.899 22.019 15.681C22.025 15.746 22.03 15.808 22.036 15.865C22.042 15.922 22.046 15.976 22.051 16.024C22.056 16.072 22.06 16.116 22.064 16.155C22.068 16.194 22.071 16.226 22.075 16.254C22.085 16.339 22.095 16.425 22.104 16.513C22.113 16.601 22.122 16.691 22.131 16.783C22.14 16.875 22.148 16.97 22.157 17.066C22.166 17.162 22.174 17.262 22.183 17.364C22.203 17.594 22.224 17.837 22.249 18.098C22.274 18.359 22.302 18.635 22.336 18.932C22.37 19.229 22.41 19.544 22.458 19.882C22.506 20.22 22.562 20.58 22.628 20.965C22.637 21.018 22.646 21.071 22.655 21.123C22.664 21.175 22.673 21.228 22.681 21.28C22.689 21.332 22.698 21.385 22.707 21.437C22.716 21.489 22.724 21.541 22.732 21.593C22.837 22.24 22.938 22.854 23.085 23.407C23.232 23.96 23.427 24.454 23.72 24.861C24.013 25.268 24.406 25.59 24.949 25.799C25.492 26.008 26.186 26.106 27.083 26.066L27.114 26.065L27.145 26.064L27.176 26.063L27.207 26.062L27.21 26.124L27.213 26.186L27.216 26.248L27.219 26.31L27.188 26.311L27.157 26.312L27.126 26.313L27.095 26.314C26.141 26.358 25.403 26.251 24.825 26.023C24.247 25.795 23.83 25.449 23.519 25.016C23.208 24.583 23.002 24.062 22.848 23.487C22.694 22.912 22.591 22.283 22.485 21.631C22.477 21.579 22.468 21.528 22.46 21.476C22.452 21.424 22.443 21.372 22.434 21.32C22.425 21.268 22.417 21.215 22.408 21.163C22.399 21.111 22.39 21.058 22.381 21.005C22.314 20.618 22.258 20.255 22.21 19.915C22.162 19.575 22.122 19.257 22.088 18.959C22.054 18.661 22.025 18.382 22 18.12C21.975 17.858 21.954 17.613 21.934 17.382C21.925 17.281 21.916 17.183 21.908 17.087C21.9 16.991 21.891 16.897 21.882 16.806C21.873 16.715 21.864 16.625 21.855 16.537C21.846 16.449 21.836 16.364 21.826 16.28C21.823 16.253 21.819 16.219 21.815 16.18C21.811 16.141 21.807 16.097 21.802 16.048C21.797 15.999 21.792 15.945 21.787 15.887C21.782 15.829 21.776 15.766 21.77 15.7C21.753 15.508 21.727 15.222 21.694 14.895C21.661 14.568 21.622 14.201 21.578 13.845C21.534 13.489 21.485 13.146 21.434 12.868C21.383 12.59 21.328 12.376 21.272 12.28C21.246 12.324 21.214 12.405 21.176 12.548C21.138 12.691 21.094 12.897 21.045 13.192C20.996 13.487 20.943 13.872 20.885 14.374C20.827 14.876 20.765 15.493 20.7 16.254C20.506 18.522 20.287 20.287 20.024 21.66C19.761 23.033 19.453 24.012 19.081 24.708C18.709 25.404 18.272 25.817 17.75 26.056C17.228 26.295 16.624 26.359 15.913 26.359Z" fill="#E61413"/>
<path d="M16.527 26.3589H13.145H9.763H6.381H3V26.2969V26.2339V26.1719V26.1089H6.381H9.763H13.145H16.527V26.1719V26.2339V26.2969V26.3589Z" fill="#E61413"/>
</svg>
