<svg width="30" height="30" viewBox="0 0 30 30" fill="none" xmlns="http://www.w3.org/2000/svg">
<rect width="30" height="30" fill="white"/>
<path d="M30 30H22.5H15H7.5H0V22.5003V15.0005V7.49975V0H7.5H15H22.5H30V7.49975V14.9995V22.4992V30ZM0.252287 29.7477H7.62614H15H22.3739H29.7477V22.3741V15.0005V7.62589V0.252279H22.3739H15H7.62614H0.252287V7.62589V14.9995V22.3731V29.7477Z" fill="#4D4D4D"/>
<path d="M5.73419 12.7863V10.9293H15.8012V10.7043H5.50519V13.0113H15.8012V12.7863H5.73419Z" fill="#5F5357"/>
<path d="M15.479 11.3305H15.25V11.6845H15.479V11.3305Z" fill="white"/>
<path d="M15.479 12.0665H15.25V12.4195H15.479V12.0665Z" fill="white"/>
<path d="M15.364 10.7043V10.9293H25.472V12.7863H15.364V13.0113H25.703V10.7043H15.364Z" fill="#5F5357"/>
<path d="M5.625 13.4014V15.2454" stroke="#5E5357" stroke-width="0.25" stroke-miterlimit="10"/>
<path d="M25.5 13.4014V15.2454" stroke="#5E5357" stroke-width="0.25" stroke-miterlimit="10"/>
<path d="M6.34369 14.7764H24.8127" stroke="#5E5357" stroke-width="0.2" stroke-miterlimit="10"/>
<path d="M5.8121 14.7768L6.4631 14.9528V14.6008L5.8121 14.7768Z" fill="#5E5357"/>
<path d="M24.6932 14.9505L25.3442 14.7765L24.6932 14.6025V14.9505Z" fill="#5E5357"/>
<path d="M6.495 22.124V21.854L7.885 20.119C7.955 20.0323 8.01833 19.929 8.075 19.809C8.135 19.6857 8.165 19.5657 8.165 19.449C8.165 19.349 8.14667 19.2607 8.11 19.184C8.07667 19.104 8.02833 19.0373 7.965 18.984C7.905 18.9307 7.83333 18.8907 7.75 18.864C7.66667 18.834 7.57833 18.819 7.485 18.819C7.245 18.819 7.06333 18.894 6.94 19.044C6.81667 19.1907 6.755 19.379 6.755 19.609H6.49C6.49 19.459 6.51167 19.3223 6.555 19.199C6.60167 19.0723 6.66833 18.964 6.755 18.874C6.84167 18.7807 6.945 18.709 7.065 18.659C7.18833 18.6057 7.32833 18.579 7.485 18.579C7.61833 18.579 7.74167 18.599 7.855 18.639C7.97167 18.679 8.07 18.7373 8.15 18.814C8.23333 18.8873 8.29833 18.979 8.345 19.089C8.39167 19.1957 8.415 19.3157 8.415 19.449C8.415 19.599 8.38 19.7457 8.31 19.889C8.24333 20.029 8.165 20.154 8.075 20.264L6.775 21.884H8.51V22.124H6.495ZM13.596 22.124V20.489C13.596 20.2723 13.551 20.1023 13.461 19.979C13.371 19.8557 13.2177 19.794 13.001 19.794C12.9043 19.794 12.8193 19.809 12.746 19.839C12.676 19.869 12.6127 19.9107 12.556 19.964C12.4593 20.0573 12.386 20.1673 12.336 20.294C12.286 20.4207 12.261 20.559 12.261 20.709V22.124H12.006V20.489C12.006 20.2723 11.9593 20.1023 11.866 19.979C11.776 19.8557 11.6227 19.794 11.406 19.794C11.3093 19.794 11.2243 19.809 11.151 19.839C11.081 19.869 11.0177 19.9107 10.961 19.964C10.8477 20.0707 10.7693 20.204 10.726 20.364C10.6827 20.524 10.661 20.694 10.661 20.874V22.124H10.411V19.624H10.631L10.661 20.054C10.7277 19.9107 10.826 19.7923 10.956 19.699C11.086 19.6057 11.241 19.559 11.421 19.559C11.641 19.559 11.8143 19.609 11.941 19.709C12.071 19.8057 12.161 19.9357 12.211 20.099C12.2777 19.9423 12.376 19.814 12.506 19.714C12.6393 19.6107 12.8093 19.559 13.016 19.559C13.1627 19.559 13.2877 19.5823 13.391 19.629C13.4977 19.6723 13.5843 19.7357 13.651 19.819C13.7177 19.899 13.766 19.9957 13.796 20.109C13.8293 20.219 13.846 20.3407 13.846 20.474V22.124H13.596ZM16.481 20.704C16.4777 20.584 16.4577 20.4707 16.421 20.364C16.3843 20.254 16.331 20.1573 16.261 20.074C16.191 19.9873 16.106 19.919 16.006 19.869C15.906 19.819 15.7927 19.794 15.666 19.794C15.536 19.794 15.4193 19.819 15.316 19.869C15.2127 19.9157 15.1243 19.9807 15.051 20.064C14.981 20.1473 14.926 20.244 14.886 20.354C14.846 20.464 14.826 20.5807 14.826 20.704H16.481ZM16.736 20.769C16.736 20.799 16.7343 20.8273 16.731 20.854C16.731 20.8773 16.731 20.904 16.731 20.934H14.821C14.8243 21.0807 14.8477 21.219 14.891 21.349C14.9377 21.4757 15.001 21.5873 15.081 21.684C15.151 21.7673 15.2343 21.8323 15.331 21.879C15.431 21.9257 15.5493 21.949 15.686 21.949C15.9093 21.949 16.091 21.8757 16.231 21.729C16.2777 21.6823 16.316 21.6307 16.346 21.574C16.3793 21.5173 16.4043 21.4507 16.421 21.374H16.681C16.6643 21.4807 16.631 21.579 16.581 21.669C16.531 21.7557 16.471 21.8323 16.401 21.899C16.311 21.989 16.2043 22.0607 16.081 22.114C15.961 22.164 15.8293 22.189 15.686 22.189C15.506 22.189 15.351 22.1557 15.221 22.089C15.091 22.0223 14.981 21.9373 14.891 21.834C14.7877 21.714 14.7077 21.574 14.651 21.414C14.5977 21.2507 14.571 21.074 14.571 20.884C14.571 20.724 14.5877 20.569 14.621 20.419C14.6543 20.269 14.7193 20.1273 14.816 19.994C15.0293 19.704 15.3127 19.559 15.666 19.559C15.836 19.559 15.986 19.5923 16.116 19.659C16.2493 19.7257 16.361 19.8157 16.451 19.929C16.5443 20.039 16.6143 20.1673 16.661 20.314C16.711 20.4607 16.736 20.6123 16.736 20.769ZM18.6419 22.099C18.5719 22.1157 18.5019 22.129 18.4319 22.139C18.3652 22.1523 18.2969 22.159 18.2269 22.159C17.9936 22.159 17.8269 22.0923 17.7269 21.959C17.6302 21.8223 17.5819 21.6457 17.5819 21.429V19.854H17.0819V19.624H17.5819V18.934L17.8319 18.874V19.624H18.6069V19.854H17.8319V21.419C17.8319 21.4923 17.8369 21.5607 17.8469 21.624C17.8602 21.684 17.8819 21.7373 17.9119 21.784C17.9452 21.8273 17.9886 21.8623 18.0419 21.889C18.0952 21.9123 18.1636 21.924 18.2469 21.924C18.3136 21.924 18.3786 21.9207 18.4419 21.914C18.5086 21.904 18.5752 21.8923 18.6419 21.879V22.099ZM20.9537 20.704C20.9503 20.584 20.9303 20.4707 20.8937 20.364C20.857 20.254 20.8037 20.1573 20.7337 20.074C20.6637 19.9873 20.5787 19.919 20.4787 19.869C20.3787 19.819 20.2653 19.794 20.1387 19.794C20.0087 19.794 19.892 19.819 19.7887 19.869C19.6853 19.9157 19.597 19.9807 19.5237 20.064C19.4537 20.1473 19.3987 20.244 19.3587 20.354C19.3187 20.464 19.2987 20.5807 19.2987 20.704H20.9537ZM21.2087 20.769C21.2087 20.799 21.207 20.8273 21.2037 20.854C21.2037 20.8773 21.2037 20.904 21.2037 20.934H19.2937C19.297 21.0807 19.3203 21.219 19.3637 21.349C19.4103 21.4757 19.4737 21.5873 19.5537 21.684C19.6237 21.7673 19.707 21.8323 19.8037 21.879C19.9037 21.9257 20.022 21.949 20.1587 21.949C20.382 21.949 20.5637 21.8757 20.7037 21.729C20.7503 21.6823 20.7887 21.6307 20.8187 21.574C20.852 21.5173 20.877 21.4507 20.8937 21.374H21.1537C21.137 21.4807 21.1037 21.579 21.0537 21.669C21.0037 21.7557 20.9437 21.8323 20.8737 21.899C20.7837 21.989 20.677 22.0607 20.5537 22.114C20.4337 22.164 20.302 22.189 20.1587 22.189C19.9787 22.189 19.8237 22.1557 19.6937 22.089C19.5637 22.0223 19.4537 21.9373 19.3637 21.834C19.2603 21.714 19.1803 21.574 19.1237 21.414C19.0703 21.2507 19.0437 21.074 19.0437 20.884C19.0437 20.724 19.0603 20.569 19.0937 20.419C19.127 20.269 19.192 20.1273 19.2887 19.994C19.502 19.704 19.7853 19.559 20.1387 19.559C20.3087 19.559 20.4587 19.5923 20.5887 19.659C20.722 19.7257 20.8337 19.8157 20.9237 19.929C21.017 20.039 21.087 20.1673 21.1337 20.314C21.1837 20.4607 21.2087 20.6123 21.2087 20.769ZM23.244 19.864C23.204 19.854 23.1623 19.8473 23.119 19.844C23.079 19.8407 23.039 19.839 22.999 19.839C22.8423 19.839 22.7123 19.8707 22.609 19.934C22.509 19.9973 22.429 20.0807 22.369 20.184C22.309 20.2873 22.2657 20.404 22.239 20.534C22.2157 20.664 22.204 20.794 22.204 20.924V22.124H21.954V19.624H22.174L22.204 20.129C22.2607 19.9557 22.3623 19.824 22.509 19.734C22.659 19.644 22.8223 19.599 22.999 19.599C23.039 19.599 23.079 19.6007 23.119 19.604C23.1623 19.604 23.204 19.6073 23.244 19.614V19.864Z" fill="#5D5157"/>
<path d="M14.9554 10V7.164H15.1634V9.804H16.6354V10H14.9554Z" fill="#5D5157"/>
</svg>
