<svg width="30" height="30" viewBox="0 0 30 30" fill="none" xmlns="http://www.w3.org/2000/svg">
<rect width="30" height="30" fill="white"/>
<path d="M30 30H22.5H15H7.5H0V22.5003V15.0005V7.49975V0H7.5H15H22.5H30V7.49975V14.9995V22.4992V30ZM0.252287 29.7477H7.62614H15H22.3739H29.7477V22.3741V15.0005V7.62589V0.252279H22.3739H15H7.62614H0.252287V7.62589V14.9995V22.3731V29.7477Z" fill="#4D4D4D"/>
<path d="M5.73419 12.7863V10.9293H15.8012V10.7043H5.50519V13.0113H15.8012V12.7863H5.73419Z" fill="#5F5357"/>
<path d="M15.479 11.3305H15.25V11.6845H15.479V11.3305Z" fill="white"/>
<path d="M15.479 12.0665H15.25V12.4195H15.479V12.0665Z" fill="white"/>
<path d="M15.364 10.7043V10.9293H25.472V12.7863H15.364V13.0113H25.703V10.7043H15.364Z" fill="#5F5357"/>
<path d="M5.625 13.4014V15.2454" stroke="#5E5357" stroke-width="0.25" stroke-miterlimit="10"/>
<path d="M25.5 13.4014V15.2454" stroke="#5E5357" stroke-width="0.25" stroke-miterlimit="10"/>
<path d="M6.34369 14.7764H24.8127" stroke="#5E5357" stroke-width="0.2" stroke-miterlimit="10"/>
<path d="M5.8121 14.7768L6.4631 14.9528V14.6008L5.8121 14.7768Z" fill="#5E5357"/>
<path d="M24.6932 14.9505L25.3442 14.7765L24.6932 14.6025V14.9505Z" fill="#5E5357"/>
<path d="M8.615 22.124V18.954L7.32 22.074H7.09L5.795 18.979V22.124H5.54V18.579H5.905L7.215 21.729L8.5 18.579H8.87V22.124H8.615ZM11.4592 20.839L10.5642 20.894C10.3775 20.9073 10.2292 20.9607 10.1192 21.054C10.0092 21.144 9.95418 21.2657 9.95418 21.419C9.95418 21.599 10.0125 21.734 10.1292 21.824C10.2492 21.914 10.3992 21.959 10.5792 21.959C10.7358 21.959 10.8692 21.9307 10.9792 21.874C11.0925 21.814 11.1842 21.7373 11.2542 21.644C11.3242 21.5507 11.3758 21.4457 11.4092 21.329C11.4425 21.209 11.4592 21.089 11.4592 20.969V20.839ZM11.9742 22.124C11.9442 22.1307 11.9242 22.134 11.9142 22.134C11.9042 22.1373 11.8842 22.139 11.8542 22.139C11.7775 22.139 11.7125 22.1257 11.6592 22.099C11.6092 22.0723 11.5692 22.0373 11.5392 21.994C11.5092 21.9473 11.4875 21.8957 11.4742 21.839C11.4642 21.779 11.4592 21.7157 11.4592 21.649C11.4258 21.739 11.3775 21.8173 11.3142 21.884C11.2542 21.9507 11.1842 22.0073 11.1042 22.054C11.0242 22.0973 10.9375 22.1307 10.8442 22.154C10.7508 22.1773 10.6558 22.189 10.5592 22.189C10.4392 22.189 10.3258 22.1707 10.2192 22.134C10.1158 22.1007 10.0242 22.0507 9.94418 21.984C9.86751 21.9173 9.80751 21.8373 9.76418 21.744C9.72085 21.6473 9.69918 21.539 9.69918 21.419C9.69918 21.1957 9.77585 21.0207 9.92918 20.894C10.0858 20.764 10.2892 20.6907 10.5392 20.674L11.4592 20.609V20.364C11.4592 20.1573 11.3958 20.0107 11.2692 19.924C11.1458 19.8373 10.9892 19.794 10.7992 19.794C10.5992 19.794 10.4325 19.839 10.2992 19.929C10.1658 20.019 10.0925 20.1573 10.0792 20.344H9.82918C9.83918 20.2173 9.86918 20.1057 9.91918 20.009C9.97251 19.9123 10.0408 19.8307 10.1242 19.764C10.2108 19.6973 10.3108 19.6473 10.4242 19.614C10.5375 19.5773 10.6625 19.559 10.7992 19.559C10.8825 19.559 10.9675 19.5673 11.0542 19.584C11.1408 19.5973 11.2225 19.6223 11.2992 19.659C11.3758 19.6957 11.4442 19.744 11.5042 19.804C11.5642 19.8607 11.6108 19.9323 11.6442 20.019C11.6742 20.0957 11.6925 20.174 11.6992 20.254C11.7058 20.334 11.7092 20.4157 11.7092 20.499V21.639C11.7092 21.7257 11.7192 21.7923 11.7392 21.839C11.7625 21.8857 11.8175 21.909 11.9042 21.909C11.9342 21.909 11.9575 21.9073 11.9742 21.904V22.124ZM14.1619 22.124L13.3919 21.009L12.6169 22.124H12.3219L13.2219 20.829L12.3369 19.594H12.6369L13.3969 20.664L14.1619 19.594H14.4519L13.5619 20.829L14.4619 22.124H14.1619ZM18.1845 21.034C18.1845 21.1973 18.1629 21.349 18.1195 21.489C18.0762 21.629 18.0095 21.7523 17.9195 21.859C17.8329 21.9623 17.7212 22.044 17.5845 22.104C17.4512 22.164 17.2945 22.194 17.1145 22.194C16.9512 22.194 16.8029 22.1673 16.6695 22.114C16.5395 22.0573 16.4262 21.9807 16.3295 21.884C16.2362 21.7873 16.1629 21.674 16.1095 21.544C16.0595 21.414 16.0329 21.2723 16.0295 21.119H16.2845C16.2879 21.2423 16.3095 21.3557 16.3495 21.459C16.3929 21.5623 16.4495 21.6507 16.5195 21.724C16.5895 21.7973 16.6745 21.854 16.7745 21.894C16.8745 21.934 16.9879 21.954 17.1145 21.954C17.3879 21.954 17.5912 21.869 17.7245 21.699C17.8612 21.529 17.9295 21.3073 17.9295 21.034C17.9295 20.9073 17.9145 20.789 17.8845 20.679C17.8545 20.5657 17.8079 20.4673 17.7445 20.384C17.6812 20.3007 17.5995 20.2357 17.4995 20.189C17.4029 20.139 17.2879 20.114 17.1545 20.114C17.0045 20.114 16.8629 20.1457 16.7295 20.209C16.5962 20.269 16.4895 20.364 16.4095 20.494H16.0995L16.1795 18.649H18.0695V18.884H16.4195L16.3495 20.264C16.4362 20.124 16.5529 20.0257 16.6995 19.969C16.8462 19.909 16.9979 19.879 17.1545 19.879C17.3279 19.879 17.4779 19.909 17.6045 19.969C17.7345 20.0257 17.8412 20.1057 17.9245 20.209C18.0112 20.3123 18.0762 20.4357 18.1195 20.579C18.1629 20.719 18.1845 20.8707 18.1845 21.034ZM22.1663 22.124V20.489C22.1663 20.2723 22.1213 20.1023 22.0313 19.979C21.9413 19.8557 21.788 19.794 21.5713 19.794C21.4747 19.794 21.3897 19.809 21.3163 19.839C21.2463 19.869 21.183 19.9107 21.1263 19.964C21.0297 20.0573 20.9563 20.1673 20.9063 20.294C20.8563 20.4207 20.8313 20.559 20.8313 20.709V22.124H20.5763V20.489C20.5763 20.2723 20.5297 20.1023 20.4363 19.979C20.3463 19.8557 20.193 19.794 19.9763 19.794C19.8797 19.794 19.7947 19.809 19.7213 19.839C19.6513 19.869 19.588 19.9107 19.5313 19.964C19.418 20.0707 19.3397 20.204 19.2963 20.364C19.253 20.524 19.2313 20.694 19.2313 20.874V22.124H18.9813V19.624H19.2013L19.2313 20.054C19.298 19.9107 19.3963 19.7923 19.5263 19.699C19.6563 19.6057 19.8113 19.559 19.9913 19.559C20.2113 19.559 20.3847 19.609 20.5113 19.709C20.6413 19.8057 20.7313 19.9357 20.7813 20.099C20.848 19.9423 20.9463 19.814 21.0763 19.714C21.2097 19.6107 21.3797 19.559 21.5863 19.559C21.733 19.559 21.858 19.5823 21.9613 19.629C22.068 19.6723 22.1547 19.7357 22.2213 19.819C22.288 19.899 22.3363 19.9957 22.3663 20.109C22.3997 20.219 22.4163 20.3407 22.4163 20.474V22.124H22.1663Z" fill="#5D5157"/>
<path d="M14.9554 10V7.164H15.1634V9.804H16.6354V10H14.9554Z" fill="#5D5157"/>
</svg>
