<svg width="30" height="30" viewBox="0 0 30 30" fill="none" xmlns="http://www.w3.org/2000/svg">
<rect width="30" height="30" fill="white"/>
<path d="M30 30H22.5H15H7.5H0V22.5003V15.0005V7.49975V0H7.5H15H22.5H30V7.49975V14.9995V22.4992V30ZM0.252287 29.7477H7.62614H15H22.3739H29.7477V22.3741V15.0005V7.62589V0.252279H22.3739H15H7.62614H0.252287V7.62589V14.9995V22.3731V29.7477Z" fill="#4D4D4D"/>
<path d="M5.73419 12.7863V10.9293H15.8012V10.7043H5.50519V13.0113H15.8012V12.7863H5.73419Z" fill="#5F5357"/>
<path d="M15.479 11.3305H15.25V11.6845H15.479V11.3305Z" fill="white"/>
<path d="M15.479 12.0665H15.25V12.4195H15.479V12.0665Z" fill="white"/>
<path d="M15.364 10.7043V10.9293H25.472V12.7863H15.364V13.0113H25.703V10.7043H15.364Z" fill="#5F5357"/>
<path d="M5.625 13.4014V15.2454" stroke="#5E5357" stroke-width="0.25" stroke-miterlimit="10"/>
<path d="M25.5 13.4014V15.2454" stroke="#5E5357" stroke-width="0.25" stroke-miterlimit="10"/>
<path d="M6.34369 14.7764H24.8127" stroke="#5E5357" stroke-width="0.2" stroke-miterlimit="10"/>
<path d="M5.8121 14.7768L6.4631 14.9528V14.6008L5.8121 14.7768Z" fill="#5E5357"/>
<path d="M24.6932 14.9505L25.3442 14.7765L24.6932 14.6025V14.9505Z" fill="#5E5357"/>
<path d="M8.615 22.124V18.954L7.32 22.074H7.09L5.795 18.979V22.124H5.54V18.579H5.905L7.215 21.729L8.5 18.579H8.87V22.124H8.615ZM11.4592 20.839L10.5642 20.894C10.3775 20.9073 10.2292 20.9607 10.1192 21.054C10.0092 21.144 9.95418 21.2657 9.95418 21.419C9.95418 21.599 10.0125 21.734 10.1292 21.824C10.2492 21.914 10.3992 21.959 10.5792 21.959C10.7358 21.959 10.8692 21.9307 10.9792 21.874C11.0925 21.814 11.1842 21.7373 11.2542 21.644C11.3242 21.5507 11.3758 21.4457 11.4092 21.329C11.4425 21.209 11.4592 21.089 11.4592 20.969V20.839ZM11.9742 22.124C11.9442 22.1307 11.9242 22.134 11.9142 22.134C11.9042 22.1373 11.8842 22.139 11.8542 22.139C11.7775 22.139 11.7125 22.1257 11.6592 22.099C11.6092 22.0723 11.5692 22.0373 11.5392 21.994C11.5092 21.9473 11.4875 21.8957 11.4742 21.839C11.4642 21.779 11.4592 21.7157 11.4592 21.649C11.4258 21.739 11.3775 21.8173 11.3142 21.884C11.2542 21.9507 11.1842 22.0073 11.1042 22.054C11.0242 22.0973 10.9375 22.1307 10.8442 22.154C10.7508 22.1773 10.6558 22.189 10.5592 22.189C10.4392 22.189 10.3258 22.1707 10.2192 22.134C10.1158 22.1007 10.0242 22.0507 9.94418 21.984C9.86751 21.9173 9.80751 21.8373 9.76418 21.744C9.72085 21.6473 9.69918 21.539 9.69918 21.419C9.69918 21.1957 9.77585 21.0207 9.92918 20.894C10.0858 20.764 10.2892 20.6907 10.5392 20.674L11.4592 20.609V20.364C11.4592 20.1573 11.3958 20.0107 11.2692 19.924C11.1458 19.8373 10.9892 19.794 10.7992 19.794C10.5992 19.794 10.4325 19.839 10.2992 19.929C10.1658 20.019 10.0925 20.1573 10.0792 20.344H9.82918C9.83918 20.2173 9.86918 20.1057 9.91918 20.009C9.97251 19.9123 10.0408 19.8307 10.1242 19.764C10.2108 19.6973 10.3108 19.6473 10.4242 19.614C10.5375 19.5773 10.6625 19.559 10.7992 19.559C10.8825 19.559 10.9675 19.5673 11.0542 19.584C11.1408 19.5973 11.2225 19.6223 11.2992 19.659C11.3758 19.6957 11.4442 19.744 11.5042 19.804C11.5642 19.8607 11.6108 19.9323 11.6442 20.019C11.6742 20.0957 11.6925 20.174 11.6992 20.254C11.7058 20.334 11.7092 20.4157 11.7092 20.499V21.639C11.7092 21.7257 11.7192 21.7923 11.7392 21.839C11.7625 21.8857 11.8175 21.909 11.9042 21.909C11.9342 21.909 11.9575 21.9073 11.9742 21.904V22.124ZM14.1619 22.124L13.3919 21.009L12.6169 22.124H12.3219L13.2219 20.829L12.3369 19.594H12.6369L13.3969 20.664L14.1619 19.594H14.4519L13.5619 20.829L14.4619 22.124H14.1619ZM18.1845 21.034C18.1845 21.1973 18.1629 21.349 18.1195 21.489C18.0762 21.629 18.0095 21.7523 17.9195 21.859C17.8329 21.9623 17.7212 22.044 17.5845 22.104C17.4512 22.164 17.2945 22.194 17.1145 22.194C16.9512 22.194 16.8029 22.1673 16.6695 22.114C16.5395 22.0573 16.4262 21.9807 16.3295 21.884C16.2362 21.7873 16.1629 21.674 16.1095 21.544C16.0595 21.414 16.0329 21.2723 16.0295 21.119H16.2845C16.2879 21.2423 16.3095 21.3557 16.3495 21.459C16.3929 21.5623 16.4495 21.6507 16.5195 21.724C16.5895 21.7973 16.6745 21.854 16.7745 21.894C16.8745 21.934 16.9879 21.954 17.1145 21.954C17.3879 21.954 17.5912 21.869 17.7245 21.699C17.8612 21.529 17.9295 21.3073 17.9295 21.034C17.9295 20.9073 17.9145 20.789 17.8845 20.679C17.8545 20.5657 17.8079 20.4673 17.7445 20.384C17.6812 20.3007 17.5995 20.2357 17.4995 20.189C17.4029 20.139 17.2879 20.114 17.1545 20.114C17.0045 20.114 16.8629 20.1457 16.7295 20.209C16.5962 20.269 16.4895 20.364 16.4095 20.494H16.0995L16.1795 18.649H18.0695V18.884H16.4195L16.3495 20.264C16.4362 20.124 16.5529 20.0257 16.6995 19.969C16.8462 19.909 16.9979 19.879 17.1545 19.879C17.3279 19.879 17.4779 19.909 17.6045 19.969C17.7345 20.0257 17.8412 20.1057 17.9245 20.209C18.0112 20.3123 18.0762 20.4357 18.1195 20.579C18.1629 20.719 18.1845 20.8707 18.1845 21.034ZM20.7663 20.384C20.7663 20.2707 20.763 20.1507 20.7563 20.024C20.753 19.8973 20.7413 19.7723 20.7213 19.649C20.7013 19.5257 20.6697 19.409 20.6263 19.299C20.583 19.189 20.5213 19.0957 20.4413 19.019C20.378 18.959 20.303 18.9107 20.2163 18.874C20.133 18.8373 20.0297 18.819 19.9063 18.819C19.783 18.819 19.678 18.8373 19.5913 18.874C19.508 18.9107 19.4347 18.959 19.3713 19.019C19.2913 19.0957 19.2297 19.189 19.1863 19.299C19.143 19.409 19.1113 19.5257 19.0913 19.649C19.0713 19.7723 19.058 19.8973 19.0513 20.024C19.048 20.1507 19.0463 20.2707 19.0463 20.384C19.0463 20.4973 19.048 20.6173 19.0513 20.744C19.058 20.8707 19.0713 20.9957 19.0913 21.119C19.1113 21.2423 19.143 21.359 19.1863 21.469C19.2297 21.579 19.2913 21.6723 19.3713 21.749C19.4347 21.809 19.508 21.8573 19.5913 21.894C19.678 21.9307 19.783 21.949 19.9063 21.949C20.0297 21.949 20.133 21.9307 20.2163 21.894C20.303 21.8573 20.378 21.809 20.4413 21.749C20.5213 21.6723 20.583 21.579 20.6263 21.469C20.6697 21.359 20.7013 21.2423 20.7213 21.119C20.7413 20.9957 20.753 20.8707 20.7563 20.744C20.763 20.6173 20.7663 20.4973 20.7663 20.384ZM21.0213 20.384C21.0213 20.5207 21.0163 20.6607 21.0063 20.804C20.9997 20.9473 20.9813 21.0873 20.9513 21.224C20.9213 21.3573 20.8797 21.484 20.8263 21.604C20.773 21.7207 20.7013 21.8223 20.6113 21.909C20.5313 21.9857 20.433 22.0523 20.3163 22.109C20.203 22.1623 20.0663 22.189 19.9063 22.189C19.7463 22.189 19.608 22.1623 19.4913 22.109C19.378 22.0523 19.2813 21.9857 19.2013 21.909C19.1113 21.8223 19.0397 21.7207 18.9863 21.604C18.933 21.484 18.8913 21.3573 18.8613 21.224C18.8313 21.0873 18.8113 20.9473 18.8013 20.804C18.7947 20.6607 18.7913 20.5207 18.7913 20.384C18.7913 20.2473 18.7947 20.1073 18.8013 19.964C18.8113 19.8207 18.8313 19.6823 18.8613 19.549C18.8913 19.4123 18.933 19.2857 18.9863 19.169C19.0397 19.049 19.1113 18.9457 19.2013 18.859C19.2813 18.7823 19.378 18.7173 19.4913 18.664C19.608 18.6073 19.7463 18.579 19.9063 18.579C20.0663 18.579 20.203 18.6073 20.3163 18.664C20.433 18.7173 20.5313 18.7823 20.6113 18.859C20.7013 18.9457 20.773 19.049 20.8263 19.169C20.8797 19.2857 20.9213 19.4123 20.9513 19.549C20.9813 19.6823 20.9997 19.8207 21.0063 19.964C21.0163 20.1073 21.0213 20.2473 21.0213 20.384ZM25.2327 22.124V20.489C25.2327 20.2723 25.1877 20.1023 25.0977 19.979C25.0077 19.8557 24.8544 19.794 24.6377 19.794C24.5411 19.794 24.4561 19.809 24.3827 19.839C24.3127 19.869 24.2494 19.9107 24.1927 19.964C24.0961 20.0573 24.0227 20.1673 23.9727 20.294C23.9227 20.4207 23.8977 20.559 23.8977 20.709V22.124H23.6427V20.489C23.6427 20.2723 23.5961 20.1023 23.5027 19.979C23.4127 19.8557 23.2594 19.794 23.0427 19.794C22.9461 19.794 22.8611 19.809 22.7877 19.839C22.7177 19.869 22.6544 19.9107 22.5977 19.964C22.4844 20.0707 22.4061 20.204 22.3627 20.364C22.3194 20.524 22.2977 20.694 22.2977 20.874V22.124H22.0477V19.624H22.2677L22.2977 20.054C22.3644 19.9107 22.4627 19.7923 22.5927 19.699C22.7227 19.6057 22.8777 19.559 23.0577 19.559C23.2777 19.559 23.4511 19.609 23.5777 19.709C23.7077 19.8057 23.7977 19.9357 23.8477 20.099C23.9144 19.9423 24.0127 19.814 24.1427 19.714C24.2761 19.6107 24.4461 19.559 24.6527 19.559C24.7994 19.559 24.9244 19.5823 25.0277 19.629C25.1344 19.6723 25.2211 19.7357 25.2877 19.819C25.3544 19.899 25.4027 19.9957 25.4327 20.109C25.4661 20.219 25.4827 20.3407 25.4827 20.474V22.124H25.2327Z" fill="#5D5157"/>
<path d="M14.9554 10V7.164H15.1634V9.804H16.6354V10H14.9554Z" fill="#5D5157"/>
</svg>
