<svg width="30" height="30" viewBox="0 0 30 30" fill="none" xmlns="http://www.w3.org/2000/svg">
<rect width="30" height="30" fill="white"/>
<path d="M30 30H22.5H15H7.5H0V22.5003V15.0005V7.49975V0H7.5H15H22.5H30V7.49975V14.9995V22.4992V30ZM0.252287 29.7477H7.62614H15H22.3739H29.7477V22.3741V15.0005V7.62589V0.252279H22.3739H15H7.62614H0.252287V7.62589V14.9995V22.3731V29.7477Z" fill="#4D4D4D"/>
<path d="M24.924 5.837C24.646 5.544 24.345 5.284 24.025 5.059C23.705 4.834 23.367 4.643 23.014 4.489C22.661 4.335 22.294 4.218 21.917 4.139C21.54 4.06 21.152 4.02 20.759 4.02C20.366 4.02 19.978 4.06 19.601 4.139C19.224 4.218 18.857 4.335 18.504 4.489C18.151 4.643 17.813 4.833 17.493 5.059C17.173 5.285 16.872 5.544 16.594 5.837L16.189 6.261L15.784 6.685L15.379 7.109L14.974 7.533L14.938 7.571L14.902 7.609L14.867 7.648L14.831 7.686L14.795 7.648L14.759 7.61L14.723 7.572L14.687 7.534L14.277 7.105L13.867 6.676L13.457 6.247L13.047 5.818C12.769 5.525 12.468 5.265 12.148 5.039C11.828 4.813 11.49 4.623 11.137 4.469C10.784 4.315 10.417 4.198 10.04 4.119C9.663 4.04 9.275 4 8.882 4C8.489 4 8.101 4.04 7.724 4.119C7.347 4.198 6.98 4.315 6.627 4.469C6.274 4.623 5.936 4.814 5.617 5.039C5.298 5.264 4.996 5.525 4.718 5.818C4.145 6.421 3.716 7.119 3.429 7.864C3.142 8.609 3 9.402 3 10.195C3 10.988 3.143 11.781 3.429 12.527C3.715 13.273 4.145 13.972 4.717 14.576L7.221 17.222L9.725 19.868L12.229 22.514L14.733 25.16C14.74 25.168 14.748 25.174 14.756 25.179C14.764 25.184 14.771 25.187 14.778 25.19C14.785 25.193 14.792 25.194 14.798 25.195C14.804 25.196 14.81 25.196 14.814 25.196C14.821 25.196 14.828 25.195 14.834 25.194C14.841 25.193 14.847 25.191 14.853 25.188C14.859 25.185 14.865 25.183 14.871 25.179C14.877 25.175 14.882 25.171 14.887 25.167L16.143 23.843L17.399 22.519L18.655 21.195L19.911 19.871L21.163 18.551L22.415 17.231L23.667 15.911L24.919 14.591C25.492 13.987 25.922 13.289 26.208 12.543C26.494 11.797 26.638 11.004 26.638 10.211C26.638 9.418 26.495 8.625 26.208 7.879C25.921 7.133 25.497 6.441 24.924 5.837ZM24.771 14.446L23.537 15.745L22.303 17.044L21.069 18.343L19.835 19.642L18.617 20.924L17.399 22.206L16.181 23.488L14.963 24.77L14.927 24.808L14.891 24.846L14.855 24.884L14.819 24.922L14.783 24.884L14.747 24.846L14.711 24.808L14.675 24.77L12.224 22.184L9.773 19.598L7.322 17.012L4.871 14.426C4.318 13.842 3.903 13.167 3.627 12.447C3.351 11.727 3.212 10.96 3.212 10.194C3.212 9.428 3.35 8.663 3.627 7.943C3.904 7.223 4.318 6.549 4.871 5.966C5.14 5.682 5.431 5.431 5.74 5.213C6.049 4.995 6.375 4.81 6.714 4.661C7.053 4.512 7.407 4.399 7.77 4.323C8.133 4.246 8.505 4.207 8.882 4.207C9.259 4.207 9.632 4.246 9.994 4.322C10.356 4.398 10.71 4.512 11.05 4.661C11.39 4.81 11.716 4.994 12.025 5.213C12.334 5.432 12.625 5.683 12.894 5.966L13.356 6.456L13.819 6.945L14.282 7.434L14.745 7.923C14.752 7.931 14.76 7.937 14.768 7.942C14.776 7.947 14.783 7.95 14.79 7.953C14.797 7.956 14.804 7.957 14.81 7.958C14.816 7.959 14.822 7.959 14.826 7.959C14.833 7.959 14.84 7.958 14.846 7.957C14.852 7.956 14.859 7.954 14.865 7.951C14.871 7.948 14.877 7.946 14.883 7.942C14.889 7.938 14.894 7.934 14.899 7.93L15.361 7.444L15.823 6.958L16.285 6.472L16.747 5.986C17.017 5.702 17.308 5.45 17.616 5.232C17.924 5.014 18.251 4.829 18.591 4.68C18.931 4.531 19.284 4.417 19.646 4.341C20.008 4.265 20.38 4.226 20.758 4.226C21.135 4.226 21.507 4.265 21.869 4.341C22.231 4.417 22.585 4.531 22.924 4.68C23.263 4.829 23.59 5.014 23.899 5.232C24.208 5.45 24.499 5.702 24.768 5.986C25.322 6.569 25.737 7.244 26.014 7.964C26.291 8.684 26.429 9.45 26.429 10.216C26.429 10.982 26.291 11.748 26.014 12.468C25.737 13.188 25.325 13.863 24.771 14.446Z" fill="#4D4D4D"/>
<path d="M23.461 12.043H22.717H21.973H21.229H20.485V11.987V11.931V11.876V11.82L21.112 10.875L21.739 9.93001L22.366 8.98501L22.993 8.04001H22.395H21.797H21.197H20.599V7.97001V7.90001V7.83001V7.76001H21.298H21.997H22.696H23.395V7.81601V7.87201V7.92601V7.98201L22.767 8.92701L22.139 9.87201L21.511 10.817L20.883 11.762H21.528H22.173H22.818H23.463V11.832V11.902V11.972V12.043H23.461Z" fill="#4D4D4D"/>
<path d="M19.119 14.604H18.623H18.127H17.631H17.135V14.567V14.53V14.493V14.456L17.553 13.826L17.971 13.196L18.389 12.566L18.807 11.936H18.407H18.008H17.609H17.21V11.889V11.842V11.796V11.749H17.676H18.142H18.608H19.074V11.786V11.823V11.86V11.897L18.655 12.527L18.236 13.157L17.817 13.787L17.398 14.417H17.828H18.258H18.688H19.118V14.464V14.511V14.558V14.604H19.119Z" fill="#4D4D4D"/>
</svg>
