<svg width="30" height="30" viewBox="0 0 30 30" fill="none" xmlns="http://www.w3.org/2000/svg">
<rect width="30" height="30" fill="white"/>
<path d="M30 30H22.5H15H7.5H0V22.5003V15.0005V7.49975V0H7.5H15H22.5H30V7.49975V14.9995V22.4992V30ZM0.252287 29.7477H7.62614H15H22.3739H29.7477V22.3741V15.0005V7.62589V0.252279H22.3739H15H7.62614H0.252287V7.62589V14.9995V22.3731V29.7477Z" fill="#4D4D4D"/>
<path d="M22.276 22.9447L22.234 22.8987L22.192 22.8527L22.15 22.8067L22.108 22.7607C23.132 21.8207 23.918 20.7167 24.461 19.5247C25.004 18.3327 25.305 17.0527 25.361 15.7627C25.417 14.4727 25.226 13.1717 24.787 11.9377C24.348 10.7037 23.66 9.53566 22.72 8.51166C21.78 7.48766 20.676 6.70167 19.484 6.15867C18.292 5.61567 17.012 5.31467 15.722 5.25867C14.432 5.20267 13.131 5.39367 11.897 5.83267C10.663 6.27167 9.494 6.95967 8.469 7.89967C8.009 8.32167 7.593 8.78167 7.224 9.27267C6.855 9.76367 6.532 10.2877 6.259 10.8357C5.986 11.3837 5.763 11.9567 5.594 12.5477C5.425 13.1387 5.309 13.7487 5.249 14.3697L5.187 14.3637L5.125 14.3577L5.063 14.3517L5 14.3467C5.061 13.7097 5.18 13.0847 5.353 12.4787C5.526 11.8727 5.755 11.2857 6.034 10.7237C6.313 10.1617 6.644 9.62566 7.023 9.12266C7.402 8.61966 7.828 8.14767 8.3 7.71567C9.35 6.75267 10.546 6.04767 11.811 5.59767C13.076 5.14767 14.409 4.95267 15.731 5.00967C17.053 5.06667 18.365 5.37467 19.586 5.93167C20.807 6.48867 21.94 7.29267 22.903 8.34266C23.37 8.85167 23.78 9.39767 24.131 9.97367C24.482 10.5497 24.773 11.1567 25.003 11.7867C25.233 12.4167 25.4 13.0677 25.503 13.7347C25.606 14.4017 25.644 15.0837 25.614 15.7737C25.584 16.4637 25.488 17.1397 25.329 17.7957C25.17 18.4517 24.947 19.0867 24.664 19.6947C24.381 20.3027 24.039 20.8817 23.64 21.4257C23.241 21.9697 22.785 22.4787 22.276 22.9447Z" fill="#4D4D4D"/>
<path d="M11.678 14.0797C11.528 14.0797 11.378 14.0707 11.229 14.0517C11.08 14.0327 10.932 14.0057 10.786 13.9687C10.64 13.9317 10.495 13.8857 10.354 13.8297C10.213 13.7737 10.073 13.7097 9.93799 13.6347L9.96799 13.5797L9.99799 13.5247L10.028 13.4697L10.058 13.4147C10.302 13.5487 10.558 13.6497 10.821 13.7187C11.084 13.7877 11.354 13.8247 11.624 13.8287C11.894 13.8327 12.165 13.8047 12.43 13.7447C12.695 13.6847 12.955 13.5907 13.203 13.4657L13.231 13.5217L13.259 13.5777L13.287 13.6337L13.315 13.6897C13.186 13.7547 13.054 13.8117 12.92 13.8607C12.786 13.9097 12.65 13.9507 12.513 13.9827C12.376 14.0147 12.237 14.0397 12.097 14.0557C11.957 14.0717 11.819 14.0797 11.678 14.0797Z" fill="#4D4D4D"/>
<path d="M19.212 14.0797C19.062 14.0797 18.912 14.0707 18.763 14.0517C18.614 14.0327 18.466 14.0057 18.32 13.9687C18.174 13.9317 18.029 13.8857 17.888 13.8297C17.747 13.7737 17.607 13.7097 17.472 13.6347L17.502 13.5797L17.532 13.5247L17.562 13.4697L17.592 13.4147C17.836 13.5487 18.093 13.6497 18.356 13.7187C18.619 13.7877 18.889 13.8247 19.159 13.8287C19.429 13.8327 19.7 13.8047 19.965 13.7447C20.23 13.6847 20.49 13.5907 20.738 13.4657L20.766 13.5217L20.794 13.5777L20.822 13.6337L20.85 13.6897C20.721 13.7547 20.589 13.8117 20.455 13.8607C20.321 13.9097 20.185 13.9507 20.048 13.9827C19.911 14.0147 19.772 14.0397 19.632 14.0557C19.492 14.0717 19.352 14.0797 19.212 14.0797Z" fill="#4D4D4D"/>
<path d="M11.976 23.283H11.232H10.488H9.744H9V23.227V23.171V23.116V23.06L9.627 22.115L10.254 21.17L10.881 20.225L11.508 19.28H10.91H10.312H9.712H9.114V19.21V19.14V19.07V19H9.813H10.512H11.211H11.91V19.056V19.112V19.166V19.222L11.282 20.167L10.654 21.112L10.026 22.057L9.398 23.002H10.043H10.688H11.333H11.978V23.072V23.142V23.212V23.283H11.976Z" fill="#4D4D4D"/>
<path d="M16.984 23.855H16.488H15.992H15.496H15V23.818V23.781V23.744V23.707L15.418 23.077L15.836 22.447L16.254 21.817L16.672 21.187H16.272H15.873H15.474H15.075V21.14V21.093V21.047V21H15.541H16.007H16.473H16.939V21.037V21.074V21.111V21.148L16.52 21.778L16.101 22.408L15.682 23.038L15.263 23.668H15.693H16.123H16.553H16.983V23.715V23.762V23.809V23.855H16.984Z" fill="#4D4D4D"/>
</svg>
