<svg width="30" height="30" viewBox="0 0 30 30" fill="none" xmlns="http://www.w3.org/2000/svg">
<rect width="30" height="30" fill="white"/>
<path d="M30 30H22.5H15H7.5H0V22.5003V15.0005V7.49975V0H7.5H15H22.5H30V7.49975V14.9995V22.4992V30ZM0.252287 29.7477H7.62614H15H22.3739H29.7477V22.3741V15.0005V7.62589V0.252279H22.3739H15H7.62614H0.252287V7.62589V14.9995V22.3731V29.7477Z" fill="#4D4D4D"/>
<path d="M11.0842 14.712L11.0203 14.6271L10.9564 14.5422L10.8925 14.4573L10.8286 14.3723L10.8925 14.2865L10.9564 14.2007L11.0203 14.1149L11.0842 14.0291L11.5334 13.4303L11.9825 12.8315L12.4316 12.2326L12.8808 11.6338C12.8878 11.6241 12.893 11.6154 12.8974 11.6058C12.9018 11.5961 12.9044 11.5874 12.9061 11.5786C12.9079 11.5699 12.9088 11.562 12.9088 11.5541C12.9088 11.5462 12.9079 11.5392 12.907 11.5331C12.9061 11.527 12.9044 11.52 12.9026 11.5121C12.9009 11.5042 12.8974 11.4972 12.893 11.4893C12.8886 11.4814 12.8843 11.4736 12.8773 11.4657C12.8702 11.4578 12.8632 11.4508 12.8536 11.4438C12.8475 11.4394 12.8414 11.435 12.8352 11.4315C12.8291 11.428 12.8221 11.4254 12.8151 11.4228C12.8081 11.4201 12.8011 11.4184 12.7941 11.4175C12.7871 11.4166 12.7801 11.4158 12.7722 11.4158C12.7669 11.4158 12.7599 11.4158 12.7521 11.4175C12.7442 11.4193 12.7345 11.421 12.724 11.4245C12.7135 11.428 12.703 11.4333 12.6934 11.4412C12.6838 11.449 12.6733 11.4578 12.6636 11.4701L12.1348 12.1748L11.606 12.8796L11.0772 13.5844L10.5484 14.2892C10.5397 14.3014 10.5327 14.3146 10.5283 14.3277C10.5239 14.3408 10.5213 14.3557 10.5213 14.3697C10.5213 14.3837 10.5256 14.3995 10.53 14.4135C10.5344 14.4275 10.5414 14.4406 10.5502 14.452L11.079 15.1568L11.6078 15.8616L12.1366 16.5664L12.6654 17.2711C12.6741 17.2834 12.6846 17.293 12.6951 17.3C12.7057 17.307 12.7162 17.3123 12.7258 17.3167C12.7354 17.321 12.745 17.3228 12.7538 17.3237C12.7626 17.3245 12.7696 17.3254 12.7739 17.3254C12.7809 17.3254 12.7888 17.3245 12.7958 17.3237C12.8028 17.3228 12.8098 17.321 12.8168 17.3184C12.8238 17.3158 12.83 17.3132 12.837 17.3097C12.8431 17.3062 12.8492 17.3027 12.8554 17.2974C12.865 17.2904 12.872 17.2834 12.879 17.2755C12.8851 17.2676 12.8904 17.2598 12.8948 17.2519C12.8991 17.244 12.9018 17.2361 12.9044 17.2291C12.907 17.2221 12.9079 17.2151 12.9088 17.2081C12.9096 17.202 12.9105 17.195 12.9105 17.1871C12.9105 17.1792 12.9096 17.1713 12.9079 17.1626C12.9061 17.1538 12.9035 17.1451 12.8991 17.1354C12.8948 17.1258 12.8895 17.1171 12.8825 17.1074L12.4334 16.5086L11.9842 15.9097L11.5351 15.3109L11.0842 14.712Z" fill="#4D4D4D"/>
<path d="M17.387 10.7039L17.3791 10.7031L17.3712 10.7022L17.3633 10.7013L17.3555 10.7004C17.3423 10.7004 17.3283 10.7031 17.3152 10.7074C17.3021 10.7118 17.2889 10.7188 17.2767 10.7276C17.2644 10.7363 17.2539 10.7468 17.2443 10.76C17.2346 10.7731 17.2285 10.788 17.2241 10.8046L16.8713 12.3937L16.5185 13.9827L16.1657 15.5717L15.8128 17.1608C15.8076 17.1818 15.8067 17.2019 15.8093 17.2203C15.812 17.2387 15.8181 17.2562 15.8268 17.272C15.8356 17.2877 15.8478 17.3009 15.8619 17.3114C15.8759 17.3219 15.8925 17.3298 15.9109 17.3341C15.9118 17.3341 15.9126 17.3341 15.9144 17.3341C15.9161 17.3341 15.9161 17.3341 15.9179 17.3341C15.9196 17.3341 15.9196 17.3341 15.9214 17.3341C15.9231 17.3341 15.9231 17.3341 15.9249 17.3341C15.9442 17.3341 15.9625 17.3315 15.9792 17.328C15.9958 17.3245 16.0107 17.3175 16.0238 17.3087C16.037 17.3 16.0475 17.2895 16.0562 17.2772C16.065 17.265 16.0711 17.2501 16.0755 17.2343L16.4283 15.6453L16.7811 14.0562L17.134 12.4672L17.4868 10.8782C17.492 10.8572 17.4929 10.837 17.4903 10.8186C17.4877 10.8002 17.4815 10.7827 17.4728 10.767C17.464 10.7512 17.4518 10.7381 17.4378 10.7276C17.4211 10.7162 17.4054 10.7083 17.387 10.7039Z" fill="#4D4D4D"/>
<path d="M20.6316 11.4709C20.6228 11.4587 20.6123 11.449 20.6018 11.442C20.5913 11.435 20.5808 11.4298 20.5712 11.4254C20.5616 11.421 20.5519 11.4193 20.5432 11.4184C20.5344 11.4175 20.5274 11.4166 20.523 11.4166C20.516 11.4166 20.5081 11.4175 20.5011 11.4184C20.4941 11.4193 20.4871 11.421 20.4801 11.4236C20.4731 11.4263 20.467 11.4289 20.46 11.4324C20.453 11.4359 20.4477 11.4394 20.4416 11.4446C20.4267 11.456 20.4145 11.4692 20.4057 11.4849C20.397 11.4998 20.3908 11.5164 20.3891 11.5339C20.3873 11.5515 20.3873 11.569 20.3917 11.5856C20.3961 11.6031 20.404 11.6189 20.4145 11.6338L20.8636 12.2326L21.3127 12.8314L21.7619 13.4303L22.211 14.0291L22.2749 14.1149L22.3388 14.2007L22.4027 14.2865L22.4667 14.3723L22.4027 14.4572L22.3388 14.5422L22.2749 14.6271L22.211 14.712L21.7619 15.3109L21.3127 15.9097L20.8636 16.5086L20.4145 17.1074C20.4031 17.1223 20.3952 17.1389 20.3917 17.1556C20.3873 17.1731 20.3865 17.1906 20.3891 17.2072C20.3917 17.2238 20.397 17.2414 20.4057 17.2562C20.4145 17.2711 20.4267 17.2851 20.4416 17.2965C20.4477 17.3009 20.4539 17.3053 20.46 17.3088C20.4661 17.3123 20.4731 17.3149 20.4801 17.3175C20.4871 17.3201 20.4941 17.3219 20.5011 17.3228C20.5081 17.3236 20.5152 17.3245 20.523 17.3245C20.5283 17.3245 20.5353 17.3245 20.5432 17.3228C20.551 17.3219 20.5607 17.3193 20.5712 17.3158C20.5817 17.3123 20.5922 17.307 20.6018 17.2991C20.6123 17.2921 20.622 17.2825 20.6316 17.2702L21.1604 16.5655L21.6892 15.8607L22.218 15.1559L22.7468 14.4511C22.7556 14.4389 22.7626 14.4257 22.7669 14.4126C22.7713 14.3995 22.774 14.3846 22.774 14.3706C22.774 14.3566 22.7713 14.3417 22.7669 14.3286C22.7626 14.3154 22.7556 14.3014 22.7468 14.29L22.218 13.5852L21.6892 12.8805L21.1604 12.1757L20.6316 11.4709Z" fill="#4D4D4D"/>
<path d="M21.1595 5.27141C21.3442 5.27141 21.5211 5.30993 21.6813 5.37997C21.8415 5.45001 21.986 5.55157 22.1077 5.67676C22.2294 5.80196 22.3274 5.9508 22.3957 6.11627C22.464 6.28174 22.5017 6.46297 22.5017 6.65383V7.33847V8.02311V8.70776V9.3924C22.5017 9.41079 22.5052 9.42917 22.5122 9.44493C22.5192 9.46069 22.5288 9.47557 22.5411 9.48783C22.5533 9.50009 22.5682 9.50972 22.584 9.51672C22.5997 9.52373 22.6181 9.52723 22.6365 9.52723C22.6549 9.52723 22.6733 9.52373 22.689 9.51672C22.7048 9.50972 22.7197 9.50009 22.7319 9.48783C22.7442 9.47557 22.7538 9.46069 22.7608 9.44493C22.7678 9.42917 22.7713 9.41079 22.7713 9.3924V8.70776V8.02311V7.33847V6.65295C22.7713 6.42532 22.7258 6.20819 22.6444 6.01033C22.5629 5.81247 22.4448 5.63474 22.2985 5.48503C22.1523 5.33532 21.979 5.2145 21.7864 5.13045C21.5938 5.0464 21.3819 5 21.1595 5H18.0226H14.8857H11.7487H8.6118C8.38942 5 8.17755 5.0464 7.98494 5.13045C7.79233 5.2145 7.61898 5.33532 7.47277 5.48503C7.32656 5.63474 7.20837 5.81247 7.12695 6.01033C7.04553 6.20819 7 6.42532 7 6.65295V10.8265V15V19.1735V23.347C7 23.5747 7.04553 23.7918 7.12695 23.9897C7.20837 24.1875 7.32656 24.3653 7.47277 24.515C7.61898 24.6647 7.79233 24.7855 7.98494 24.8696C8.17755 24.9536 8.38942 25 8.6118 25H10.9923H13.3728H15.7533H18.1338C18.1399 24.9982 18.1452 24.9974 18.1513 24.9956C18.1574 24.9947 18.1627 24.993 18.1679 24.9921C18.1732 24.9912 18.1793 24.9904 18.1846 24.9886C18.1898 24.9877 18.1959 24.9869 18.2012 24.986L18.224 24.9825L18.2467 24.979L18.2695 24.9755L18.2922 24.972L18.315 24.9764L18.3378 24.9807L18.3605 24.9851L18.3833 24.9895C18.385 24.9895 18.3868 24.9895 18.3885 24.9895C18.3903 24.9895 18.3921 24.9895 18.3938 24.9895C18.3956 24.9895 18.3973 24.9895 18.3991 24.9895C18.4008 24.9895 18.4026 24.9895 18.4043 24.9895C18.4192 24.9895 18.4306 24.9886 18.4411 24.9877C18.4507 24.9869 18.4595 24.9851 18.4656 24.9825C18.4717 24.9799 18.477 24.9781 18.4814 24.9755C18.4857 24.9729 18.4884 24.9702 18.491 24.9685L19.5477 24.0877L20.6044 23.207L21.6612 22.3262L22.7179 21.4455C22.7284 21.4367 22.7372 21.4262 22.7451 21.4157C22.7521 21.4043 22.7582 21.3929 22.7617 21.3798C22.7652 21.3667 22.7669 21.3544 22.7678 21.3413C22.7678 21.3281 22.7661 21.315 22.7617 21.3019L22.7503 21.2651L22.7389 21.2283L22.7275 21.1916L22.7162 21.1548L22.7205 21.1364L22.7249 21.118L22.7293 21.0996L22.7337 21.0812L22.5244 21.2555L22.3152 21.4297L22.1059 21.6039L21.8967 21.7781L21.2908 22.2824L20.685 22.7867L20.0791 23.291L19.4733 23.7953L19.2395 23.9897L19.0058 24.184L18.772 24.3784L18.5383 24.5728V24.269V23.9652V23.6614V23.3576V23.0292V22.7009V22.3726V22.0443C18.5383 21.8683 18.5742 21.7011 18.6389 21.5488C18.7037 21.3964 18.7965 21.259 18.9121 21.1443C19.0277 21.0296 19.1642 20.9359 19.3166 20.8711C19.4689 20.8063 19.6361 20.7704 19.8121 20.7704H20.242H20.6719H21.1017H21.5316H21.8407H22.1497H22.4588H22.7678V20.1882V19.606V19.0238V18.4416C22.7678 18.4232 22.7643 18.4048 22.7573 18.3891C22.7503 18.3733 22.7407 18.3584 22.7284 18.3462C22.7162 18.3339 22.7013 18.3243 22.6855 18.3173C22.6698 18.3103 22.6514 18.3068 22.633 18.3068C22.6146 18.3068 22.5962 18.3103 22.5805 18.3173C22.5647 18.3243 22.5498 18.3339 22.5376 18.3462C22.5253 18.3584 22.5157 18.3733 22.5087 18.3891C22.5017 18.4048 22.4982 18.4232 22.4982 18.4416V18.8137V19.1858V19.5579V19.93V20.0718V20.2136V20.3555V20.4973H22.3563H22.2145H22.0727H21.9308H21.402H20.8732H20.3444H19.8156C19.6029 20.4973 19.3998 20.5402 19.215 20.619C19.0303 20.6969 18.8639 20.8107 18.7239 20.9499C18.5838 21.0891 18.4708 21.2563 18.3929 21.4411C18.315 21.6258 18.2712 21.8289 18.2712 22.0417V22.5705V23.0993V23.6281V24.1569V24.2996V24.4423V24.585V24.7277H18.1285H17.9858H17.8431H17.7048H15.432H13.1592H10.8864H8.6118C8.42707 24.7277 8.25109 24.6892 8.09088 24.6192C7.93066 24.5491 7.7862 24.4476 7.66451 24.3224C7.54281 24.1972 7.44476 24.0483 7.37734 23.8829C7.30905 23.7174 7.27141 23.5362 7.27141 23.3453V19.1718V15V10.8265V6.65295C7.27141 6.46209 7.30905 6.28086 7.37734 6.11539C7.44563 5.94992 7.54369 5.80109 7.66451 5.67589C7.78533 5.55069 7.93066 5.44913 8.09088 5.37909C8.25109 5.30905 8.42707 5.27053 8.6118 5.27053H11.7487H14.8857H18.0226H21.1595V5.27141Z" fill="#4D4D4D"/>
</svg>
