<svg width="30" height="30" viewBox="0 0 30 30" fill="none" xmlns="http://www.w3.org/2000/svg">
<rect width="30" height="30" fill="white"/>
<path d="M30 30H22.5H15H7.5H0V22.5003V15.0005V7.49975V0H7.5H15H22.5H30V7.49975V14.9995V22.4992V30ZM0.252287 29.7477H7.62614H15H22.3739H29.7477V22.3741V15.0005V7.62589V0.252279H22.3739H15H7.62614H0.252287V7.62589V14.9995V22.3731V29.7477Z" fill="#4D4D4D"/>
<path d="M30 22V21.9421V21.8843V21.8264V21.7685C28.8439 21.3235 27.6602 20.9279 26.4529 20.5844C25.2446 20.241 24.0117 19.9507 22.7583 19.7163C21.5049 19.482 20.2279 19.3027 18.9345 19.1822C17.6401 19.0617 16.3282 19 15 19C13.6718 19 12.3589 19.0617 11.0655 19.1822C9.77111 19.3027 8.49515 19.482 7.24173 19.7163C5.98832 19.9507 4.7554 20.2419 3.54708 20.5844C2.33875 20.9279 1.15605 21.3235 0 21.7685V21.8264V21.8843V21.9421V22C1.15503 21.5522 2.33773 21.1546 3.54605 20.8093C4.75335 20.4639 5.98627 20.1717 7.24071 19.9364C8.49515 19.7011 9.77111 19.5199 11.0655 19.3994C12.3599 19.278 13.6728 19.2163 15.002 19.2163C16.3303 19.2163 17.6431 19.278 18.9376 19.3994C20.232 19.5209 21.5079 19.7011 22.7624 19.9364C24.0168 20.1717 25.2487 20.4649 26.457 20.8093C27.6612 21.1546 28.845 21.5522 30 22Z" fill="#4D4D4D"/>
<path d="M14.891 13.3926C14.782 13.3926 14.656 13.3666 14.517 13.3216C14.378 13.2766 14.226 13.2106 14.064 13.1296C13.902 13.0486 13.731 12.9546 13.553 12.8506C13.375 12.7466 13.191 12.6346 13.005 12.5186C12.974 12.4996 12.944 12.4806 12.914 12.4626C12.884 12.4446 12.857 12.4266 12.83 12.4106C12.803 12.3946 12.777 12.3786 12.753 12.3636C12.729 12.3486 12.705 12.3346 12.683 12.3216C12.65 12.3026 12.618 12.2826 12.586 12.2606C12.554 12.2386 12.523 12.2166 12.492 12.1926C12.461 12.1686 12.431 12.1436 12.401 12.1166C12.371 12.0896 12.342 12.0626 12.313 12.0336L11.141 10.8616L9.967 9.68962L8.795 8.51762L7.623 7.34462L7.43 7.53862L7.237 7.73163L7.044 7.92463L6.851 8.11763L6.587 7.85462L6.324 7.59163L6.06 7.32763L5.797 7.06463L5.982 6.87963L6.167 6.69463L6.352 6.50962L6.537 6.32463L5.992 5.77962L5.449 5.23363L4.905 4.68763L4.361 4.14163C4.24 4.02063 4.15 3.88162 4.09 3.73162C4.03 3.58162 4 3.42362 4 3.26462C4 3.10562 4.031 2.94662 4.092 2.79762C4.153 2.64862 4.244 2.50763 4.365 2.38663C4.488 2.26263 4.632 2.16863 4.787 2.10463C4.942 2.04063 5.107 2.00562 5.272 2.00062C5.437 1.99562 5.6 2.02063 5.751 2.07563C5.902 2.13063 6.042 2.21563 6.157 2.33163L6.704 2.87863L7.251 3.42563L7.797 3.97163L8.344 4.51863L8.534 4.32862L8.724 4.13862L8.914 3.94862L9.104 3.75862L9.366 4.02162L9.629 4.28462L9.892 4.54762L10.155 4.81062L9.968 5.00062L9.78 5.18863L9.592 5.37662L9.405 5.56463L10.562 6.72163L11.72 7.87963L12.878 9.03763L14.036 10.1956C14.075 10.2336 14.112 10.2736 14.147 10.3156C14.182 10.3576 14.215 10.3996 14.246 10.4446C14.277 10.4896 14.306 10.5346 14.333 10.5816C14.36 10.6286 14.385 10.6766 14.408 10.7266C14.422 10.7576 14.438 10.7896 14.454 10.8236C14.47 10.8576 14.488 10.8936 14.506 10.9296C14.524 10.9656 14.544 11.0046 14.564 11.0436C14.584 11.0826 14.604 11.1236 14.625 11.1646C14.755 11.4206 14.876 11.6636 14.978 11.8886C15.08 12.1136 15.165 12.3196 15.223 12.5036C15.281 12.6876 15.312 12.8486 15.308 12.9826C15.304 13.1166 15.264 13.2226 15.181 13.2976C15.162 13.3146 15.142 13.3286 15.121 13.3406C15.1 13.3526 15.077 13.3626 15.052 13.3706C15.027 13.3786 15.002 13.3846 14.975 13.3886C14.948 13.3926 14.92 13.3926 14.891 13.3926ZM7.623 6.99163L8.839 8.20763L10.055 9.42362L11.271 10.6396L12.487 11.8556C12.512 11.8806 12.537 11.9046 12.563 11.9266C12.589 11.9486 12.615 11.9716 12.642 11.9916C12.669 12.0116 12.696 12.0316 12.723 12.0506C12.75 12.0696 12.778 12.0866 12.807 12.1026C12.829 12.1156 12.853 12.1296 12.878 12.1446C12.903 12.1596 12.929 12.1756 12.957 12.1926C12.985 12.2096 13.013 12.2276 13.043 12.2456C13.073 12.2636 13.104 12.2836 13.136 12.3026C13.259 12.3786 13.422 12.4806 13.602 12.5876C13.782 12.6946 13.979 12.8066 14.168 12.9016C14.357 12.9966 14.538 13.0756 14.688 13.1166C14.838 13.1576 14.954 13.1616 15.014 13.1056C15.068 13.0566 15.074 12.9516 15.048 12.8116C15.022 12.6716 14.964 12.4986 14.89 12.3156C14.816 12.1326 14.728 11.9376 14.641 11.7566C14.554 11.5756 14.468 11.4066 14.401 11.2736C14.38 11.2316 14.359 11.1906 14.339 11.1506C14.319 11.1106 14.299 11.0716 14.281 11.0346C14.263 10.9976 14.245 10.9606 14.228 10.9266C14.211 10.8926 14.195 10.8586 14.181 10.8276C14.161 10.7846 14.139 10.7436 14.116 10.7026C14.093 10.6616 14.067 10.6226 14.04 10.5846C14.013 10.5466 13.985 10.5096 13.954 10.4736C13.923 10.4376 13.892 10.4036 13.858 10.3696L12.657 9.16963L11.455 7.96763L10.253 6.76663L9.051 5.56463L9.239 5.37662L9.427 5.18863L9.615 5.00062L9.803 4.81263L9.627 4.63762L9.453 4.46262L9.278 4.28763L9.103 4.11262L8.913 4.30262L8.723 4.49262L8.533 4.68163L8.343 4.87162L7.753 4.28063L7.162 3.68963L6.572 3.09863L5.981 2.50762C5.889 2.41562 5.778 2.34763 5.657 2.30463C5.536 2.26163 5.404 2.24262 5.272 2.24762C5.14 2.25262 5.007 2.28163 4.883 2.33463C4.758 2.38663 4.641 2.46363 4.541 2.56263C4.446 2.65763 4.375 2.76962 4.327 2.88962C4.279 3.00962 4.255 3.13662 4.255 3.26462C4.255 3.39262 4.278 3.51962 4.325 3.63962C4.372 3.75962 4.443 3.87063 4.538 3.96463L5.126 4.55462L5.714 5.14462L6.302 5.73463L6.89 6.32463L6.705 6.50962L6.52 6.69463L6.335 6.87963L6.15 7.06463L6.325 7.23962L6.5 7.41463L6.675 7.58963L6.85 7.76463L7.044 7.57162L7.237 7.37762L7.43 7.18463L7.623 6.99163Z" fill="#4D4D4D"/>
<path d="M9.435 7.16763L9.498 7.23163L9.562 7.29463L9.625 7.35763L9.688 7.42063L9.86 7.24963L10.031 7.07863L10.203 6.90763L10.374 6.73563L10.311 6.67263L10.247 6.60963L10.184 6.54663L10.12 6.48363L9.949 6.65463L9.778 6.82563L9.606 6.99663L9.435 7.16763Z" fill="#4D4D4D"/>
<path d="M10.069 7.80163L10.132 7.86563L10.196 7.92863L10.259 7.99263L10.323 8.05563L10.494 7.88463L10.665 7.71363L10.837 7.54163L11.008 7.37063L10.944 7.30763L10.881 7.24363L10.817 7.18063L10.754 7.11663L10.583 7.28763L10.411 7.45963L10.24 7.63063L10.069 7.80163Z" fill="#4D4D4D"/>
<path d="M10.703 8.43663L10.767 8.49963L10.83 8.56363L10.894 8.62663L10.957 8.69063L11.129 8.51863L11.3 8.34762L11.471 8.17663L11.642 8.00463L11.579 7.94163L11.515 7.87763L11.452 7.81462L11.388 7.75063L11.217 7.92263L11.046 8.09363L10.875 8.26463L10.703 8.43663Z" fill="#4D4D4D"/>
<path d="M11.338 9.07063L11.401 9.13363L11.464 9.19763L11.528 9.26063L11.591 9.32363L11.762 9.15263L11.933 8.98163L12.105 8.80963L12.276 8.63863L12.213 8.57563L12.149 8.51263L12.086 8.44863L12.023 8.38563L11.852 8.55663L11.68 8.72863L11.509 8.89963L11.338 9.07063Z" fill="#4D4D4D"/>
<path d="M11.971 9.70463L12.035 9.76763L12.098 9.83163L12.162 9.89463L12.225 9.95863L12.397 9.78663L12.568 9.61563L12.739 9.44463L12.91 9.27363L12.847 9.20963L12.783 9.14663L12.72 9.08263L12.656 9.01963L12.485 9.19063L12.314 9.36163L12.143 9.53263L11.971 9.70463Z" fill="#4D4D4D"/>
<path d="M15.211 17.3486C15.204 17.3486 15.198 17.3486 15.191 17.3486C15.184 17.3486 15.178 17.3486 15.171 17.3486C15.164 17.3486 15.158 17.3486 15.151 17.3476C15.144 17.3466 15.138 17.3466 15.131 17.3466C15.05 17.3426 14.972 17.3306 14.898 17.3136C14.824 17.2966 14.752 17.2716 14.684 17.2416C14.616 17.2116 14.553 17.1746 14.495 17.1326C14.437 17.0906 14.383 17.0426 14.335 16.9896C14.292 16.9416 14.255 16.8916 14.224 16.8376C14.193 16.7836 14.167 16.7276 14.147 16.6686C14.127 16.6096 14.113 16.5486 14.105 16.4846C14.097 16.4206 14.094 16.3556 14.098 16.2886C14.106 16.1496 14.172 15.9676 14.268 15.7696C14.364 15.5716 14.49 15.3586 14.619 15.1586C14.748 14.9586 14.879 14.7716 14.984 14.6256C15.089 14.4796 15.17 14.3746 15.197 14.3396L15.225 14.3036L15.253 14.2676L15.281 14.2316L15.309 14.1956L15.333 14.2346L15.357 14.2736L15.381 14.3126L15.405 14.3516C15.428 14.3896 15.496 14.5026 15.585 14.6596C15.674 14.8166 15.783 15.0176 15.888 15.2306C15.993 15.4436 16.095 15.6696 16.168 15.8776C16.241 16.0856 16.286 16.2736 16.278 16.4126C16.274 16.4796 16.265 16.5436 16.25 16.6056C16.235 16.6676 16.214 16.7266 16.187 16.7826C16.16 16.8386 16.129 16.8916 16.091 16.9416C16.053 16.9916 16.011 17.0376 15.964 17.0806C15.915 17.1246 15.862 17.1626 15.805 17.1956C15.748 17.2286 15.688 17.2566 15.624 17.2796C15.56 17.3026 15.494 17.3196 15.426 17.3306C15.358 17.3416 15.284 17.3486 15.211 17.3486ZM15.283 14.6406C15.201 14.7516 15.102 14.8886 15.001 15.0376C14.9 15.1866 14.795 15.3466 14.7 15.5036C14.605 15.6606 14.519 15.8166 14.456 15.9546C14.393 16.0926 14.352 16.2136 14.347 16.3036C14.344 16.3536 14.346 16.4016 14.352 16.4486C14.358 16.4956 14.368 16.5416 14.383 16.5846C14.398 16.6276 14.417 16.6696 14.44 16.7096C14.463 16.7496 14.49 16.7866 14.522 16.8216C14.559 16.8626 14.6 16.8996 14.645 16.9316C14.69 16.9636 14.74 16.9916 14.793 17.0156C14.846 17.0396 14.902 17.0576 14.961 17.0716C15.02 17.0856 15.082 17.0936 15.146 17.0976C15.209 17.1006 15.271 17.0986 15.331 17.0916C15.391 17.0846 15.449 17.0726 15.504 17.0556C15.559 17.0386 15.612 17.0166 15.661 16.9896C15.71 16.9626 15.755 16.9306 15.796 16.8946C15.831 16.8636 15.862 16.8296 15.889 16.7926C15.916 16.7556 15.94 16.7166 15.959 16.6746C15.978 16.6326 15.994 16.5886 16.005 16.5426C16.016 16.4966 16.023 16.4486 16.026 16.3986C16.031 16.3086 16.005 16.1836 15.958 16.0396C15.911 15.8956 15.844 15.7316 15.767 15.5646C15.69 15.3976 15.604 15.2266 15.52 15.0676C15.436 14.9086 15.353 14.7606 15.283 14.6406ZM6.94101 8.03363L6.89701 7.98963L6.85301 7.94563L6.80901 7.90063L6.76501 7.85663L7.54701 7.07463L8.32901 6.29163L9.11101 5.50863L9.89301 4.72563L9.93702 4.77063L9.98101 4.81463L10.025 4.85863L10.069 4.90263L9.28801 5.68563L8.50501 6.46863L7.72301 7.25063L6.94101 8.03363Z" fill="#4D4D4D"/>
</svg>
