<svg width="30" height="30" viewBox="0 0 30 30" fill="none" xmlns="http://www.w3.org/2000/svg">
<rect width="30" height="30" fill="white"/>
<path d="M30 30H22.5H15H7.5H0V22.5003V15.0005V7.49975V0H7.5H15H22.5H30V7.49975V14.9995V22.4992V30ZM0.252287 29.7477H7.62614H15H22.3739H29.7477V22.3741V15.0005V7.62589V0.252279H22.3739H15H7.62614H0.252287V7.62589V14.9995V22.3731V29.7477Z" fill="#4D4D4D"/>
<path d="M22.0242 14.789C22.0242 13.791 21.8212 12.839 21.4542 11.973C21.0872 11.107 20.5562 10.327 19.9012 9.67097C19.2452 9.01497 18.4652 8.48497 17.5992 8.11797C16.7332 7.75097 15.7812 7.54797 14.7832 7.54797C13.7852 7.54797 12.8332 7.75097 11.9672 8.11797C11.1012 8.48497 10.3202 9.01497 9.6642 9.67097C9.0082 10.327 8.4782 11.107 8.1112 11.973C7.7442 12.839 7.5412 13.791 7.5412 14.789C7.5412 15.787 7.7442 16.739 8.1112 17.605C8.4782 18.471 9.0092 19.251 9.6642 19.907C10.3192 20.563 11.1002 21.093 11.9662 21.46C12.8322 21.827 13.7842 22.03 14.7822 22.03C15.7802 22.03 16.7322 21.827 17.5982 21.46C18.4642 21.093 19.2442 20.562 19.9002 19.907C20.5562 19.251 21.0862 18.471 21.4532 17.605C21.8212 16.739 22.0242 15.787 22.0242 14.789ZM14.7822 21.792C13.8172 21.792 12.8962 21.596 12.0582 21.241C11.2202 20.886 10.4662 20.373 9.8322 19.739C9.1982 19.105 8.6852 18.35 8.3302 17.513C7.9752 16.675 7.7792 15.755 7.7792 14.789C7.7792 13.823 7.9752 12.903 8.3302 12.065C8.6852 11.227 9.1982 10.473 9.8322 9.83897C10.4662 9.20497 11.2212 8.69197 12.0582 8.33697C12.8952 7.98197 13.8162 7.78597 14.7822 7.78597C15.7482 7.78597 16.6682 7.98197 17.5062 8.33697C18.3442 8.69197 19.0982 9.20497 19.7322 9.83897C20.3662 10.473 20.8792 11.228 21.2342 12.066C21.5892 12.904 21.7852 13.824 21.7852 14.79C21.7852 15.756 21.5892 16.676 21.2342 17.513C20.8792 18.351 20.3662 19.105 19.7322 19.739C19.0982 20.373 18.3432 20.886 17.5062 21.241C16.6682 21.596 15.7482 21.792 14.7822 21.792Z" fill="#4D4D4D"/>
<path d="M14.7822 6.917C14.7982 6.917 14.8142 6.914 14.8282 6.908C14.8422 6.902 14.8562 6.893 14.8662 6.882C14.8772 6.871 14.8852 6.858 14.8912 6.844C14.8972 6.83 14.9002 6.814 14.9002 6.798V5.878V4.958V4.038V3.118C14.9002 3.102 14.8972 3.086 14.8912 3.072C14.8852 3.058 14.8762 3.045 14.8662 3.034C14.8552 3.023 14.8422 3.015 14.8282 3.009C14.8142 3.003 14.7982 3 14.7822 3C14.7662 3 14.7502 3.003 14.7362 3.009C14.7222 3.015 14.7092 3.024 14.6982 3.034C14.6872 3.045 14.6792 3.058 14.6732 3.072C14.6672 3.086 14.6642 3.102 14.6642 3.118V4.038V4.958V5.878V6.798C14.6642 6.814 14.6672 6.83 14.6732 6.844C14.6792 6.858 14.6882 6.871 14.6982 6.882C14.7092 6.893 14.7222 6.901 14.7362 6.907C14.7502 6.913 14.7662 6.917 14.7822 6.917Z" fill="#4D4D4D"/>
<path d="M21.6272 10.9C21.6322 10.91 21.6392 10.918 21.6472 10.926C21.6542 10.933 21.6632 10.94 21.6722 10.945C21.6812 10.95 21.6912 10.954 21.7012 10.957C21.7112 10.96 21.7212 10.961 21.7322 10.961C21.7372 10.961 21.7422 10.961 21.7472 10.96C21.7522 10.959 21.7572 10.958 21.7622 10.957C21.7672 10.956 21.7722 10.954 21.7772 10.952C21.7822 10.95 21.7872 10.948 21.7912 10.945L22.5912 10.491L23.3912 10.037L24.1912 9.58298L24.9912 9.12898C25.0052 9.12098 25.0172 9.10998 25.0272 9.09798C25.0362 9.08598 25.0432 9.07198 25.0472 9.05698C25.0512 9.04198 25.0522 9.02698 25.0502 9.01198C25.0482 8.99698 25.0432 8.98098 25.0352 8.96698C25.0272 8.95298 25.0162 8.94098 25.0042 8.93098C24.9922 8.92198 24.9782 8.91498 24.9632 8.91098C24.9482 8.90698 24.9332 8.90598 24.9182 8.90798C24.9032 8.90998 24.8872 8.91498 24.8732 8.92298L24.0732 9.37698L23.2732 9.83098L22.4732 10.285L21.6732 10.739C21.6592 10.747 21.6472 10.758 21.6372 10.77C21.6282 10.782 21.6212 10.796 21.6172 10.811C21.6132 10.826 21.6122 10.841 21.6142 10.856C21.6142 10.871 21.6192 10.886 21.6272 10.9Z" fill="#4D4D4D"/>
<path d="M26.4532 14.791L25.5332 14.781L24.6132 14.771L23.6932 14.761L22.7732 14.751C22.7572 14.751 22.7412 14.754 22.7272 14.76C22.7132 14.766 22.7002 14.775 22.6892 14.785C22.6782 14.796 22.6702 14.808 22.6632 14.822C22.6562 14.836 22.6532 14.852 22.6532 14.868C22.6532 14.884 22.6562 14.9 22.6622 14.914C22.6682 14.928 22.6762 14.941 22.6872 14.952C22.6982 14.963 22.7102 14.972 22.7252 14.978C22.7392 14.984 22.7552 14.988 22.7712 14.988L23.6912 14.998L24.6112 15.008L25.5312 15.018L26.4512 15.028C26.4672 15.028 26.4832 15.025 26.4972 15.019C26.5112 15.013 26.5242 15.004 26.5352 14.994C26.5462 14.984 26.5542 14.971 26.5612 14.957C26.5672 14.943 26.5712 14.927 26.5712 14.911C26.5712 14.895 26.5682 14.879 26.5622 14.865C26.5562 14.851 26.5482 14.838 26.5372 14.827C26.5262 14.816 26.5142 14.807 26.4992 14.801C26.4852 14.795 26.4692 14.791 26.4532 14.791Z" fill="#4D4D4D"/>
<path d="M24.8682 20.661L24.0782 20.19L23.2882 19.719L22.4982 19.248L21.7082 18.777C21.6942 18.769 21.6792 18.763 21.6642 18.761C21.6492 18.759 21.6332 18.76 21.6192 18.764C21.6042 18.768 21.5902 18.774 21.5782 18.783C21.5662 18.792 21.5552 18.804 21.5462 18.818C21.5382 18.832 21.5322 18.847 21.5302 18.863C21.5282 18.879 21.5292 18.894 21.5332 18.909C21.5372 18.924 21.5432 18.938 21.5522 18.95C21.5612 18.962 21.5732 18.973 21.5872 18.982L22.3772 19.453L23.1672 19.924L23.9572 20.395L24.7472 20.866C24.7522 20.869 24.7572 20.871 24.7622 20.873C24.7672 20.875 24.7722 20.877 24.7772 20.878C24.7822 20.879 24.7872 20.88 24.7922 20.881C24.7972 20.882 24.8022 20.882 24.8082 20.882C24.8182 20.882 24.8282 20.881 24.8382 20.878C24.8482 20.875 24.8572 20.872 24.8662 20.867C24.8752 20.862 24.8832 20.856 24.8912 20.849C24.8982 20.842 24.9052 20.833 24.9112 20.824C24.9192 20.81 24.9242 20.795 24.9262 20.78C24.9282 20.765 24.9272 20.749 24.9232 20.735C24.9192 20.721 24.9132 20.706 24.9042 20.694C24.8952 20.682 24.8822 20.669 24.8682 20.661Z" fill="#4D4D4D"/>
<path d="M18.7612 21.72C18.7532 21.706 18.7432 21.694 18.7302 21.684C18.7182 21.675 18.7042 21.668 18.6892 21.663C18.6742 21.659 18.6592 21.657 18.6432 21.659C18.6282 21.661 18.6122 21.665 18.5982 21.673C18.5842 21.681 18.5722 21.691 18.5622 21.704C18.5522 21.717 18.5462 21.73 18.5412 21.745C18.5372 21.76 18.5352 21.775 18.5372 21.79C18.5392 21.805 18.5432 21.821 18.5512 21.835L18.9972 22.639L19.4432 23.443L19.8892 24.247L20.3352 25.051C20.3402 25.061 20.3472 25.069 20.3552 25.077C20.3632 25.085 20.3712 25.091 20.3802 25.096C20.3892 25.101 20.3992 25.105 20.4092 25.108C20.4192 25.111 20.4292 25.112 20.4402 25.112C20.4452 25.112 20.4502 25.112 20.4552 25.111C20.4602 25.11 20.4652 25.109 20.4702 25.108C20.4752 25.107 20.4802 25.105 20.4842 25.103C20.4882 25.101 20.4932 25.099 20.4982 25.096C20.5122 25.088 20.5242 25.078 20.5342 25.065C20.5442 25.053 20.5502 25.039 20.5552 25.024C20.5592 25.009 20.5612 24.994 20.5592 24.979C20.5572 24.964 20.5532 24.948 20.5452 24.934L20.0992 24.13L19.6532 23.326L19.2072 22.522L18.7612 21.72Z" fill="#4D4D4D"/>
<path d="M14.6192 22.659C14.6022 22.66 14.5872 22.664 14.5722 22.67C14.5582 22.676 14.5452 22.684 14.5342 22.694C14.5232 22.704 14.5142 22.716 14.5082 22.73C14.5022 22.744 14.4982 22.759 14.4982 22.775L14.4792 23.694L14.4602 24.613L14.4412 25.532L14.4222 26.451C14.4222 26.467 14.4252 26.483 14.4302 26.497C14.4362 26.511 14.4442 26.524 14.4552 26.535C14.4662 26.546 14.4782 26.555 14.4922 26.561C14.5062 26.567 14.5222 26.571 14.5382 26.571C14.5382 26.571 14.5382 26.571 14.5392 26.571H14.5402H14.5412C14.5572 26.571 14.5732 26.568 14.5872 26.562C14.6012 26.556 14.6142 26.548 14.6252 26.537C14.6362 26.526 14.6442 26.514 14.6512 26.5C14.6572 26.486 14.6612 26.471 14.6612 26.454L14.6802 25.534L14.6992 24.614L14.7182 23.694L14.7372 22.774C14.7372 22.758 14.7342 22.742 14.7292 22.728C14.7232 22.714 14.7152 22.701 14.7042 22.69C14.6932 22.679 14.6812 22.67 14.6672 22.664C14.6512 22.663 14.6352 22.659 14.6192 22.659Z" fill="#4D4D4D"/>
<path d="M10.6822 21.509C10.6682 21.5 10.6532 21.495 10.6382 21.493C10.6232 21.491 10.6072 21.491 10.5922 21.495C10.5772 21.499 10.5632 21.505 10.5502 21.514C10.5372 21.523 10.5262 21.535 10.5182 21.549L10.0402 22.333L9.56119 23.118L9.08219 23.903L8.60319 24.688C8.59419 24.702 8.58919 24.717 8.58719 24.732C8.58519 24.747 8.58519 24.763 8.58919 24.778C8.59319 24.793 8.59919 24.807 8.60819 24.819C8.61719 24.832 8.62919 24.843 8.64319 24.851C8.64819 24.854 8.65319 24.857 8.65819 24.859C8.66319 24.861 8.66819 24.863 8.67319 24.864C8.67819 24.865 8.68319 24.867 8.68919 24.867C8.69519 24.867 8.70019 24.868 8.70519 24.868C8.71519 24.868 8.72519 24.867 8.73519 24.864C8.74519 24.862 8.75419 24.858 8.76319 24.853C8.77219 24.848 8.78019 24.842 8.78719 24.835C8.79419 24.828 8.80119 24.82 8.80719 24.81L9.28619 24.025L9.76519 23.24L10.2442 22.455L10.7232 21.67C10.7322 21.656 10.7372 21.641 10.7392 21.626C10.7412 21.611 10.7412 21.595 10.7372 21.58C10.7332 21.565 10.7272 21.551 10.7182 21.539C10.7082 21.528 10.6962 21.517 10.6822 21.509Z" fill="#4D4D4D"/>
<path d="M7.6972 18.486L6.8882 18.924L6.0792 19.362L5.2702 19.8L4.4612 20.238C4.4472 20.246 4.4342 20.256 4.4252 20.268C4.4162 20.28 4.4082 20.294 4.4042 20.308C4.4002 20.323 4.3982 20.338 4.4002 20.353C4.4012 20.368 4.4062 20.384 4.4142 20.398C4.4192 20.408 4.4262 20.417 4.4342 20.425C4.4422 20.433 4.4502 20.439 4.4592 20.445C4.4682 20.45 4.4782 20.454 4.4882 20.457C4.4982 20.46 4.5092 20.461 4.5192 20.461C4.5242 20.461 4.5292 20.461 4.5332 20.46C4.5372 20.459 4.5432 20.459 4.5472 20.457C4.5522 20.456 4.5562 20.454 4.5612 20.453C4.5662 20.451 4.5702 20.449 4.5752 20.447L5.3842 20.009L6.1932 19.571L7.0022 19.133L7.8112 18.695C7.8252 18.687 7.8382 18.677 7.8472 18.665C7.8562 18.653 7.8642 18.639 7.8682 18.625C7.8722 18.61 7.8742 18.595 7.8722 18.58C7.8712 18.565 7.8662 18.549 7.8582 18.535C7.8502 18.521 7.8402 18.508 7.8282 18.499C7.8162 18.489 7.8022 18.482 7.7882 18.478C7.7732 18.474 7.7582 18.472 7.7432 18.474C7.7272 18.474 7.7122 18.479 7.6972 18.486Z" fill="#4D4D4D"/>
<path d="M6.79519 14.659C6.81119 14.659 6.82619 14.656 6.84019 14.65C6.85419 14.644 6.86719 14.636 6.87719 14.625C6.88819 14.615 6.89719 14.602 6.90319 14.588C6.90919 14.574 6.91319 14.559 6.91319 14.543C6.91419 14.527 6.91119 14.511 6.90519 14.497C6.89919 14.483 6.89119 14.47 6.88119 14.458C6.87119 14.447 6.85819 14.438 6.84419 14.431C6.83019 14.425 6.81419 14.421 6.79819 14.42L5.87919 14.391L4.96019 14.363L4.04119 14.334L3.12219 14.305C3.10519 14.305 3.08919 14.308 3.07519 14.314C3.06119 14.32 3.04719 14.328 3.03719 14.338C3.02719 14.348 3.01719 14.361 3.01119 14.375C3.00519 14.389 3.00119 14.404 3.00019 14.421C2.99919 14.437 3.00219 14.453 3.00819 14.467C3.01419 14.481 3.02219 14.494 3.03219 14.506C3.04219 14.517 3.05519 14.526 3.06919 14.533C3.08319 14.539 3.09919 14.543 3.11519 14.544L4.03419 14.573L4.95319 14.602L5.87219 14.631L6.79119 14.66H6.79219H6.79319C6.79319 14.66 6.79419 14.659 6.79519 14.659Z" fill="#4D4D4D"/>
<path d="M4.82119 8.70797L5.60119 9.19497L6.38119 9.68197L7.16119 10.169L7.94119 10.656C7.94619 10.659 7.95119 10.662 7.95619 10.664C7.96119 10.666 7.96619 10.668 7.97219 10.67C7.97719 10.671 7.98319 10.673 7.98819 10.673C7.99319 10.674 7.99919 10.674 8.00419 10.674C8.01419 10.674 8.02419 10.673 8.03319 10.67C8.04319 10.668 8.05219 10.664 8.06119 10.659C8.07019 10.654 8.07819 10.648 8.08519 10.641C8.09219 10.634 8.09919 10.626 8.10519 10.617C8.11419 10.603 8.11919 10.588 8.12219 10.573C8.12419 10.558 8.12419 10.542 8.12019 10.527C8.11619 10.512 8.11019 10.498 8.10119 10.485C8.09219 10.472 8.08119 10.461 8.06719 10.452L7.28719 9.96497L6.50719 9.47797L5.72719 8.99297L4.94719 8.50597C4.93319 8.49797 4.91819 8.49197 4.90319 8.48997C4.88819 8.48697 4.87219 8.48797 4.85819 8.49097C4.84319 8.49497 4.82919 8.50097 4.81619 8.50997C4.80319 8.51897 4.79219 8.52997 4.78319 8.54397C4.77519 8.55797 4.76919 8.57297 4.76719 8.58797C4.76419 8.60397 4.76519 8.61897 4.76819 8.63397C4.77119 8.64897 4.77819 8.66297 4.78719 8.67597C4.79619 8.68797 4.80719 8.69897 4.82119 8.70797Z" fill="#4D4D4D"/>
<path d="M10.9482 7.77701C10.9532 7.78701 10.9602 7.79601 10.9682 7.80401C10.9762 7.81201 10.9842 7.81801 10.9932 7.82401C11.0022 7.82901 11.0122 7.83401 11.0222 7.83601C11.0322 7.83901 11.0432 7.84001 11.0532 7.84001C11.0582 7.84001 11.0622 7.84001 11.0672 7.83901C11.0722 7.83801 11.0762 7.83801 11.0812 7.83601C11.0862 7.83501 11.0902 7.83301 11.0952 7.83201C11.1002 7.83001 11.1042 7.82801 11.1082 7.82601C11.1232 7.81801 11.1352 7.80801 11.1452 7.79601C11.1552 7.78401 11.1622 7.77001 11.1672 7.75601C11.1722 7.74101 11.1732 7.72601 11.1722 7.71101C11.1712 7.69601 11.1662 7.68001 11.1592 7.66601L10.7302 6.85301L10.3002 6.03901L9.87118 5.22501L9.44218 4.41201C9.43418 4.39701 9.42418 4.38501 9.41218 4.37501C9.40018 4.36501 9.38618 4.35801 9.37218 4.35401C9.35818 4.35001 9.34218 4.34801 9.32718 4.34901C9.31218 4.35001 9.29618 4.35401 9.28118 4.36201C9.26618 4.37001 9.25418 4.38001 9.24418 4.39201C9.23418 4.40401 9.22718 4.41801 9.22218 4.43201C9.21718 4.44701 9.21618 4.46201 9.21718 4.47701C9.21918 4.49301 9.22418 4.50801 9.23118 4.52301L9.66018 5.33601L10.0892 6.14901L10.5182 6.96201L10.9482 7.77701Z" fill="#4D4D4D"/>
<path d="M15.8372 4.52399C16.5602 4.59699 17.2662 4.74699 17.9462 4.96599C18.6262 5.18499 19.2792 5.47399 19.8962 5.82699C20.5132 6.17999 21.0942 6.59699 21.6282 7.07199C22.1622 7.54699 22.6512 8.07999 23.0832 8.66599L22.5922 8.63899L22.1012 8.61299L21.6102 8.58599L21.1192 8.55899C21.1042 8.55799 21.0882 8.55999 21.0742 8.56499C21.0602 8.56999 21.0462 8.57799 21.0352 8.58799C21.0242 8.59799 21.0132 8.61199 21.0062 8.62599C20.9992 8.63999 20.9952 8.65599 20.9942 8.67199C20.9932 8.68799 20.9962 8.70399 21.0012 8.71899C21.0062 8.73399 21.0142 8.74699 21.0242 8.75799C21.0342 8.76899 21.0472 8.77899 21.0602 8.78599C21.0742 8.79299 21.0892 8.79699 21.1062 8.79799L21.6602 8.82799L22.2142 8.85799L22.7682 8.88799L23.3222 8.91799C23.3232 8.91799 23.3232 8.91799 23.3242 8.91799C23.3252 8.91799 23.3252 8.91799 23.3262 8.91799C23.3272 8.91799 23.3272 8.91799 23.3282 8.91799C23.3292 8.91799 23.3292 8.91799 23.3302 8.91799C23.3342 8.91799 23.3372 8.91799 23.3412 8.91699C23.3452 8.91699 23.3482 8.91599 23.3522 8.91499C23.3562 8.91399 23.3592 8.91299 23.3632 8.91199C23.3662 8.91099 23.3702 8.90999 23.3732 8.90799C23.3742 8.90799 23.3752 8.90699 23.3762 8.90599C23.3772 8.90499 23.3782 8.90499 23.3792 8.90399C23.3802 8.90299 23.3812 8.90299 23.3822 8.90199C23.3832 8.90099 23.3842 8.90099 23.3852 8.89999C23.3862 8.89999 23.3862 8.89899 23.3872 8.89899C23.3882 8.89899 23.3882 8.89799 23.3892 8.89799C23.3902 8.89799 23.3902 8.89699 23.3902 8.89699L23.3912 8.89599C23.3912 8.89599 23.3922 8.89599 23.3922 8.89499C23.3922 8.89399 23.3932 8.89499 23.3942 8.89499C23.3952 8.89499 23.3952 8.89499 23.3962 8.89499C23.3972 8.89499 23.3972 8.89499 23.3972 8.89399L23.3982 8.89299L23.3992 8.89199C23.4002 8.89299 23.4012 8.89299 23.4012 8.89299L23.4022 8.89199C23.4032 8.89199 23.4032 8.89099 23.4042 8.89099C23.4052 8.89099 23.4052 8.88999 23.4062 8.88999C23.4072 8.88999 23.4072 8.88899 23.4082 8.88899C23.4092 8.88899 23.4092 8.88799 23.4102 8.88799C23.4112 8.88699 23.4122 8.88599 23.4132 8.88499C23.4142 8.88399 23.4152 8.88299 23.4162 8.88199C23.4172 8.88099 23.4182 8.87999 23.4192 8.87899C23.4202 8.87799 23.4212 8.87699 23.4222 8.87599L23.4232 8.87499C23.4232 8.87499 23.4232 8.87399 23.4242 8.87399C23.4242 8.87399 23.4242 8.87299 23.4252 8.87299C23.4252 8.87299 23.4252 8.87199 23.4262 8.87199C23.4272 8.87099 23.4272 8.86999 23.4282 8.86899C23.4292 8.86799 23.4302 8.86699 23.4302 8.86599C23.4302 8.86499 23.4322 8.86399 23.4322 8.86299C23.4332 8.86199 23.4332 8.86099 23.4342 8.85999C23.4342 8.85899 23.4352 8.85899 23.4352 8.85799C23.4352 8.85699 23.4362 8.85699 23.4362 8.85599C23.4362 8.85499 23.4372 8.85499 23.4372 8.85399C23.4372 8.85299 23.4382 8.85299 23.4382 8.85199C23.4392 8.85099 23.4392 8.84899 23.4402 8.84799C23.4412 8.84699 23.4412 8.84499 23.4412 8.84399C23.4412 8.84299 23.4422 8.84099 23.4422 8.83999C23.4422 8.83899 23.4432 8.83699 23.4432 8.83599V8.83499V8.83399V8.83299V8.83199C23.4432 8.83099 23.4442 8.82999 23.4442 8.82899C23.4442 8.82799 23.4452 8.82699 23.4452 8.82599C23.4452 8.82499 23.4462 8.82399 23.4462 8.82299C23.4462 8.82199 23.4472 8.82099 23.4472 8.81999C23.4472 8.81999 23.4472 8.81999 23.4472 8.81899L23.5292 8.26999L23.6112 7.72099L23.6932 7.17199L23.7752 6.62299C23.7772 6.60699 23.7762 6.59099 23.7732 6.57599C23.7692 6.56099 23.7622 6.54699 23.7532 6.53499C23.7442 6.52299 23.7332 6.51199 23.7192 6.50399C23.7062 6.49599 23.6912 6.48999 23.6752 6.48799C23.6592 6.48599 23.6432 6.48699 23.6282 6.49099C23.6132 6.49499 23.5992 6.50199 23.5872 6.51099C23.5752 6.51999 23.5642 6.53099 23.5562 6.54399C23.5482 6.55699 23.5422 6.57199 23.5402 6.58799L23.4682 7.06299L23.3972 7.54099L23.3262 8.01899L23.2552 8.49699C22.8132 7.90199 22.3132 7.35999 21.7682 6.87699C21.2222 6.39399 20.6302 5.96999 20.0002 5.61099C19.3712 5.25199 18.7052 4.95799 18.0122 4.73599C17.3192 4.51399 16.5992 4.36099 15.8622 4.28699C15.8452 4.28599 15.8302 4.28799 15.8152 4.29299C15.8002 4.29799 15.7872 4.30499 15.7752 4.31399C15.7632 4.32299 15.7532 4.33499 15.7462 4.34799C15.7392 4.36099 15.7342 4.37599 15.7322 4.39299C15.7302 4.40899 15.7322 4.42499 15.7372 4.43999C15.7422 4.45499 15.7492 4.46799 15.7582 4.47999C15.7682 4.49199 15.7792 4.50199 15.7932 4.50899C15.8062 4.51799 15.8212 4.52299 15.8372 4.52399Z" fill="#4D4D4D"/>
</svg>
