<svg width="132" height="48" viewBox="0 0 132 48" fill="none" xmlns="http://www.w3.org/2000/svg">
<rect width="132" height="48" fill="white"/>
<path d="M54.8035 34H54.1106L54.0112 31.7388L53.9951 31.2419L54.0059 30.9573H53.9897C53.9056 31.2151 53.8009 31.4756 53.6755 31.7388L52.6416 34H51.9541L51.8118 30.0737H52.4268L52.4778 32.3564C52.4778 32.5999 52.4661 32.9097 52.4429 33.2856H52.459C52.6076 32.89 52.7347 32.5722 52.8403 32.3323L53.8796 30.0737H54.4839L54.5671 32.3269L54.5752 32.7808L54.5671 33.2856H54.5886C54.6388 33.1281 54.7014 32.9517 54.7766 32.7566C54.8518 32.5597 54.9064 32.4227 54.9404 32.3457L55.9019 30.0737H56.5625L54.8035 34ZM58.3403 34H56.2563L57.0862 30.0737H59.1702L59.0547 30.6243H57.6072L57.3816 31.6851H58.7297L58.6196 32.2302H57.2661L57.0083 33.4548H58.4558L58.3403 34ZM59.1514 34L59.9812 30.0737H60.6177L59.9033 33.4495H61.3508L61.2354 34H59.1514ZM61.8799 34L62.7097 30.0737H63.3462L62.6318 33.4495H64.0793L63.9639 34H61.8799ZM64.5466 32.8022L64.6675 32.2571H66.0156L65.8948 32.8022H64.5466ZM68.2554 30.0737C68.6528 30.0737 68.9527 30.1489 69.155 30.2993C69.3591 30.4497 69.4612 30.6717 69.4612 30.9653C69.4612 31.2267 69.3833 31.4443 69.2275 31.6179C69.0736 31.7916 68.8596 31.9053 68.5857 31.959V31.9805C68.7791 32.0306 68.9285 32.1237 69.0342 32.2598C69.1416 32.394 69.1953 32.5579 69.1953 32.7512C69.1953 33.1397 69.061 33.445 68.7925 33.667C68.5239 33.889 68.1506 34 67.6726 34H66.354L67.1838 30.0737H68.2554ZM67.4792 31.6958H68.0137C68.2625 31.6958 68.455 31.6421 68.5911 31.5347C68.7271 31.4255 68.7952 31.2715 68.7952 31.0728C68.7952 30.7648 68.5955 30.6108 68.1963 30.6108H67.7102L67.4792 31.6958ZM67.1006 33.4602H67.6995C67.9626 33.4602 68.1685 33.3993 68.3171 33.2776C68.4675 33.1558 68.5427 32.9822 68.5427 32.7566C68.5427 32.5811 68.489 32.4478 68.3816 32.3564C68.2742 32.2633 68.1166 32.2168 67.9089 32.2168H67.3718L67.1006 33.4602ZM71.7896 34H69.7056L70.5354 30.0737H72.6194L72.5039 30.6243H71.0564L70.8308 31.6851H72.179L72.0688 32.2302H70.7153L70.4575 33.4548H71.905L71.7896 34ZM72.6006 34L73.4358 30.0737H74.0669L73.2317 34H72.6006ZM77.2466 34H76.5483L75.4473 30.8767H75.4312L75.4043 31.062C75.3613 31.3288 75.3291 31.5194 75.3076 31.634C75.2879 31.7468 75.1241 32.5355 74.8162 34H74.228L75.0579 30.0737H75.7776L76.8491 33.1594H76.8679C76.8787 33.0627 76.9064 32.8909 76.9512 32.6438C76.9959 32.3949 77.0317 32.2123 77.0586 32.0959L77.4883 30.0737H78.0764L77.2466 34ZM80.1631 31.8704H81.5381L81.1165 33.8469C80.9159 33.9185 80.7199 33.9705 80.5283 34.0027C80.3385 34.0367 80.1255 34.0537 79.8892 34.0537C79.4219 34.0537 79.0593 33.923 78.8015 33.6616C78.5437 33.4002 78.4148 33.0305 78.4148 32.5525C78.4148 32.0798 78.5061 31.6475 78.6887 31.2554C78.8731 30.8633 79.1327 30.5589 79.4675 30.3423C79.8041 30.1257 80.1864 30.0173 80.6143 30.0173C80.813 30.0173 81.0037 30.0361 81.1863 30.0737C81.3689 30.1095 81.5524 30.1713 81.7368 30.259L81.4951 30.8042C81.1836 30.6502 80.8846 30.5732 80.5981 30.5732C80.3153 30.5732 80.0583 30.6547 79.8274 30.8176C79.5964 30.9788 79.4138 31.2097 79.2795 31.5105C79.1471 31.8095 79.0808 32.1425 79.0808 32.5095C79.0808 32.8372 79.1605 33.0851 79.3198 33.2534C79.4792 33.4217 79.7056 33.5059 79.9993 33.5059C80.1944 33.5059 80.3869 33.4763 80.5767 33.4172L80.7915 32.4209H80.0476L80.1631 31.8704ZM84.0652 34H83.4287L84.2585 30.0737H86.3372L86.2217 30.6243H84.7795L84.5217 31.8435H85.8699L85.749 32.3887H84.4062L84.0652 34ZM89.8123 31.5239C89.8123 32.0234 89.7272 32.4683 89.5571 32.8586C89.387 33.2489 89.1525 33.5461 88.8535 33.7502C88.5563 33.9526 88.2108 34.0537 87.8169 34.0537C87.3532 34.0537 86.9942 33.9203 86.74 33.6536C86.4858 33.385 86.3586 33.0144 86.3586 32.5417C86.3586 32.0637 86.4464 31.6278 86.6218 31.2339C86.7991 30.8382 87.0408 30.5356 87.3469 30.3262C87.6531 30.1167 88.0004 30.012 88.3889 30.012C88.8383 30.012 89.1874 30.1453 89.4363 30.4121C89.6869 30.6789 89.8123 31.0495 89.8123 31.5239ZM88.3379 30.5625C88.0908 30.5625 87.867 30.6484 87.6665 30.8203C87.466 30.9922 87.3084 31.2312 87.1938 31.5374C87.0811 31.8417 87.0247 32.1747 87.0247 32.5364C87.0247 32.8461 87.0972 33.0851 87.2422 33.2534C87.389 33.4217 87.5931 33.5059 87.8545 33.5059C88.1016 33.5059 88.3236 33.4208 88.5205 33.2507C88.7192 33.0789 88.8732 32.8416 88.9824 32.5391C89.0934 32.2347 89.1489 31.8981 89.1489 31.5293C89.1489 31.2249 89.0782 30.9877 88.9368 30.8176C88.7953 30.6475 88.5957 30.5625 88.3379 30.5625ZM91.1416 32.4316L90.8113 34H90.1748L91.0046 30.0737H91.9124C92.3116 30.0737 92.6178 30.1588 92.8308 30.3289C93.0439 30.4972 93.1504 30.7568 93.1504 31.1077C93.1504 31.4031 93.0725 31.6528 92.9167 31.8569C92.7628 32.0592 92.5327 32.2069 92.2266 32.3L92.8953 34H92.197L91.6411 32.4316H91.1416ZM91.2571 31.8999H91.5874C91.8918 31.8999 92.1191 31.8328 92.2695 31.6985C92.4199 31.5642 92.4951 31.3798 92.4951 31.1453C92.4951 30.9573 92.4423 30.8221 92.3367 30.7397C92.231 30.6574 92.0672 30.6162 91.8452 30.6162H91.5256L91.2571 31.8999ZM96.8752 32.9097H95.5728L95.0115 34H94.3293L96.4321 30.0684H97.168L97.6138 34H96.9854L96.8752 32.9097ZM96.8323 32.3511C96.7607 31.6063 96.7195 31.156 96.7087 31.0002C96.6998 30.8427 96.6953 30.7174 96.6953 30.6243C96.5968 30.8731 96.4697 31.1479 96.314 31.4487L95.8521 32.3511H96.8323ZM101.105 34H100.407L99.3057 30.8767H99.2896L99.2627 31.062C99.2197 31.3288 99.1875 31.5194 99.166 31.634C99.1463 31.7468 98.9825 32.5355 98.6746 34H98.0864L98.9163 30.0737H99.636L100.708 33.1594H100.726C100.737 33.0627 100.765 32.8909 100.81 32.6438C100.854 32.3949 100.89 32.2123 100.917 32.0959L101.347 30.0737H101.935L101.105 34ZM102.099 34L102.934 30.0737H103.565L102.73 34H102.099ZM105.281 34L104.972 30.7397H104.956C104.94 30.951 104.891 31.2554 104.808 31.6528L104.314 34H103.726L104.556 30.0737H105.423L105.716 33.1594H105.732L107.36 30.0737H108.283L107.464 34H106.855L107.344 31.6582C107.413 31.3252 107.49 31.019 107.574 30.7397H107.558L105.832 34H105.281ZM110.486 32.9097H109.183L108.622 34H107.94L110.042 30.0684H110.778L111.224 34H110.596L110.486 32.9097ZM110.443 32.3511C110.371 31.6063 110.33 31.156 110.319 31.0002C110.31 30.8427 110.306 30.7174 110.306 30.6243C110.207 30.8731 110.08 31.1479 109.924 31.4487L109.462 32.3511H110.443ZM111.702 34L112.532 30.0737H113.168L112.454 33.4495H113.902L113.786 34H111.702ZM114.369 32.8022L114.49 32.2571H115.838L115.717 32.8022H114.369ZM116.176 34L117.006 30.0737H117.643L116.928 33.4495H118.376L118.26 34H116.176ZM118.905 34L119.74 30.0737H120.371L119.536 34H118.905ZM121.174 34H120.538L121.367 30.0737H123.446L123.331 30.6243H121.888L121.631 31.8435H122.979L122.858 32.3887H121.515L121.174 34ZM125.377 34H123.293L124.123 30.0737H126.207L126.091 30.6243H124.644L124.418 31.6851H125.766L125.656 32.2302H124.303L124.045 33.4548H125.492L125.377 34Z" fill="black"/>
<path d="M15.4837 18.2721C15.4837 18.7186 15.4555 19.1379 15.3989 19.5313C15.3424 19.9248 15.2587 20.2923 15.1457 20.6339C15.0326 20.9755 14.8924 21.29 14.7239 21.5798C14.5555 21.8696 14.3576 22.1323 14.1326 22.369C13.9076 22.6058 13.6579 22.8131 13.3834 22.991C13.109 23.1689 12.8098 23.3173 12.4847 23.4351C12.1607 23.5541 11.8109 23.6424 11.4363 23.7013C11.0617 23.7602 10.6624 23.7897 10.2383 23.7897C9.82365 23.7897 9.42314 23.7696 9.03913 23.7284C8.65512 23.6872 8.28641 23.6259 7.93303 23.5446C7.57964 23.4634 7.24157 23.3609 6.91998 23.2384C6.5984 23.1159 6.29096 22.9733 6 22.8108V21.9344V21.0568V20.1792V19.3016C6.35692 19.5337 6.7056 19.7375 7.0472 19.9118C7.38881 20.0862 7.72335 20.2322 8.05082 20.3477C8.37829 20.4631 8.69752 20.5515 9.01086 20.6092C9.32419 20.6669 9.62811 20.6963 9.92613 20.6963C10.0958 20.6963 10.2548 20.6846 10.4032 20.661C10.5516 20.6375 10.6906 20.6021 10.8178 20.5562C10.9451 20.5091 11.0629 20.4513 11.1701 20.3807C11.2772 20.31 11.3738 20.2287 11.4598 20.1345C11.5458 20.0414 11.62 19.9389 11.6848 19.8282C11.7496 19.7175 11.8026 19.5985 11.845 19.4713C11.8874 19.3441 11.9204 19.2086 11.9416 19.0649C11.9628 18.9212 11.9734 18.768 11.9734 18.6078C11.9734 18.4488 11.9605 18.2933 11.9345 18.1414C11.9086 17.9894 11.8709 17.841 11.8191 17.6961C11.7685 17.5512 11.7037 17.4087 11.6271 17.2708C11.5505 17.1319 11.461 16.9976 11.3597 16.8656C11.2572 16.7337 11.1394 16.5994 11.004 16.4604C10.8685 16.3214 10.7165 16.1789 10.5481 16.0328C10.3796 15.8867 10.1947 15.7371 9.99327 15.5828C9.79184 15.4297 9.57274 15.2719 9.33833 15.1117C9.13337 14.9703 8.94136 14.8313 8.76231 14.6923C8.58208 14.5545 8.41481 14.4167 8.2605 14.2824C8.10501 14.1469 7.96248 14.0126 7.8329 13.8807C7.70215 13.7488 7.58435 13.618 7.47834 13.4884C7.3735 13.3589 7.27337 13.2257 7.18031 13.0879C7.08725 12.9501 7.00008 12.8087 6.91763 12.6639C6.83635 12.519 6.76096 12.3694 6.69146 12.2162C6.62196 12.0631 6.55835 11.9064 6.50181 11.7451C6.44409 11.5849 6.39344 11.4164 6.34985 11.2432C6.30627 11.0689 6.27093 10.8887 6.24148 10.7014C6.21203 10.5141 6.19083 10.3209 6.17669 10.1206C6.16256 9.9204 6.15549 9.71425 6.15549 9.50104C6.15549 9.09229 6.18376 8.70475 6.2403 8.3384C6.29684 7.97206 6.38284 7.62691 6.49592 7.30298C6.61018 6.97904 6.75154 6.6763 6.92234 6.39477C7.09314 6.11324 7.29222 5.85291 7.51956 5.61379C7.74691 5.37466 7.9931 5.16616 8.25932 4.98593C8.52554 4.80689 8.81061 4.65728 9.1157 4.53713C9.42079 4.41698 9.74473 4.32746 10.0887 4.26738C10.4327 4.20731 10.7955 4.17786 11.1783 4.17786C11.5435 4.17786 11.9051 4.20377 12.2632 4.25442C12.6213 4.30508 12.9759 4.38164 13.3269 4.48412C13.6779 4.58661 14.0254 4.71383 14.3694 4.86696C14.7133 5.0201 15.0538 5.19915 15.3907 5.40411L15.0974 6.1156L14.8041 6.82708L14.5107 7.53857L14.2186 8.25359C14.1138 8.19233 14.0089 8.13344 13.9017 8.07572C13.7945 8.018 13.6873 7.96263 13.5778 7.90845C13.4682 7.85426 13.3575 7.80125 13.2456 7.7506C13.1337 7.69995 13.0206 7.65047 12.9064 7.60218C12.7921 7.55388 12.6767 7.51265 12.5589 7.47614C12.4411 7.4408 12.3209 7.41017 12.1984 7.38661C12.0759 7.36305 11.9522 7.34538 11.825 7.33243C11.699 7.32065 11.5706 7.31476 11.4398 7.31476C11.2961 7.31476 11.1606 7.32654 11.0346 7.35009C10.9074 7.37365 10.7884 7.40899 10.6788 7.45611C10.5693 7.50323 10.4668 7.56213 10.3726 7.63398C10.2783 7.70466 10.1935 7.78829 10.1158 7.88371C10.0392 7.97795 9.97207 8.08043 9.91435 8.19233C9.85663 8.30424 9.80833 8.42439 9.76946 8.55279C9.73059 8.68119 9.70232 8.81901 9.68229 8.96507C9.66227 9.11114 9.65284 9.26545 9.65284 9.42919C9.65284 9.58939 9.66462 9.74606 9.687 9.89566C9.71056 10.0464 9.74472 10.1913 9.79067 10.3315C9.83661 10.4717 9.89433 10.6071 9.96383 10.7367C10.0333 10.8663 10.1146 10.9912 10.2065 11.1113C10.2984 11.2315 10.4079 11.3551 10.5351 11.4824C10.6624 11.6096 10.8061 11.7415 10.9674 11.8782C11.1288 12.0148 11.3079 12.1538 11.5034 12.2975C11.699 12.4412 11.9122 12.5896 12.143 12.7416C12.454 12.9501 12.7414 13.1598 13.0053 13.3706C13.2692 13.5815 13.5095 13.7935 13.7262 14.0067C13.943 14.2199 14.1361 14.4343 14.307 14.6487C14.4766 14.8643 14.6238 15.0798 14.7463 15.2978C14.8688 15.5157 14.976 15.7407 15.0679 15.9727C15.1598 16.206 15.2364 16.4463 15.2976 16.6937C15.3589 16.941 15.4048 17.1966 15.4354 17.4605C15.4661 17.7244 15.4837 17.9941 15.4837 18.2721Z" fill="black"/>
<path d="M25.4763 23.5293L25.3692 23.0628L25.262 22.5963L25.1548 22.1299L25.0476 21.6634H25.0016H24.9557H24.9098H24.8638C24.7837 21.8283 24.6942 21.985 24.5964 22.1322C24.4986 22.2795 24.3926 22.4185 24.2784 22.548C24.1641 22.6776 24.0404 22.7989 23.9085 22.9109C23.7766 23.0228 23.6364 23.1264 23.488 23.2218C23.3384 23.3161 23.184 23.3985 23.025 23.4692C22.866 23.5399 22.7011 23.5988 22.5303 23.6459C22.3607 23.693 22.1851 23.7284 22.0037 23.7519C21.8235 23.7755 21.6374 23.7873 21.4454 23.7873C21.1191 23.7873 20.8128 23.759 20.5266 23.7036C20.2403 23.6483 19.9729 23.5646 19.7267 23.4539C19.4805 23.3432 19.2532 23.2042 19.0459 23.0381C18.8386 22.872 18.6513 22.6776 18.484 22.4562C18.3167 22.2347 18.1707 21.985 18.0446 21.7082C17.9186 21.4313 17.8149 21.1274 17.7313 20.7952C17.6476 20.4631 17.5852 20.105 17.5428 19.7186C17.5004 19.3322 17.4804 18.9188 17.4804 18.477V16.1058V13.7346V11.3681V8.99683H18.358H19.2355H20.1131H20.9907V11.1596V13.3223V15.485V17.6477C20.9907 17.9128 20.9989 18.1613 21.0142 18.3946C21.0296 18.6278 21.0543 18.8434 21.0849 19.0436C21.1167 19.2439 21.1556 19.4276 21.2027 19.5949C21.2498 19.7622 21.3052 19.913 21.3676 20.0484C21.4301 20.1839 21.5031 20.3005 21.5856 20.4018C21.668 20.5031 21.7611 20.5867 21.8624 20.6551C21.9649 20.7222 22.0768 20.7729 22.1981 20.807C22.3194 20.8412 22.4514 20.8577 22.5927 20.8577C22.78 20.8577 22.9543 20.8341 23.1157 20.787C23.2771 20.7399 23.4267 20.6704 23.5633 20.5761C23.7 20.4831 23.8237 20.3653 23.9344 20.2251C24.0451 20.0849 24.1441 19.9212 24.2301 19.7351C24.3161 19.5478 24.3915 19.3299 24.4562 19.079C24.521 18.8281 24.574 18.5453 24.6176 18.232C24.6612 17.9187 24.693 17.5712 24.7142 17.1942C24.7354 16.8161 24.746 16.4074 24.746 15.9656V14.2246V12.4836V10.739V8.99683H25.6236H26.5012H27.3787H28.2563V12.6296V16.2625V19.8965V23.5293H27.5613H26.8663H26.1713H25.4763Z" fill="black"/>
<path d="M38.4044 23.5294V21.3643V19.1992V17.0341V14.869C38.4044 14.6064 38.3962 14.359 38.3808 14.1281C38.3655 13.8972 38.3408 13.6817 38.3102 13.4826C38.2784 13.2835 38.2395 13.1009 38.1924 12.9337C38.1453 12.7664 38.0899 12.6156 38.0275 12.4813C37.965 12.347 37.892 12.2292 37.8095 12.1279C37.7271 12.0266 37.634 11.943 37.5327 11.8747C37.4302 11.8075 37.3183 11.7569 37.197 11.7227C37.0757 11.6886 36.9437 11.6721 36.8024 11.6721C36.6151 11.6721 36.4407 11.6956 36.2794 11.7416C36.118 11.7875 35.9684 11.8582 35.8306 11.9501C35.6939 12.0431 35.5691 12.1597 35.4572 12.2987C35.3453 12.4377 35.2451 12.6015 35.158 12.7876C35.0708 12.9725 34.9942 13.1904 34.9294 13.4402C34.8646 13.6899 34.8093 13.9714 34.7669 14.2848C34.7245 14.5981 34.6903 14.9444 34.6691 15.3214C34.6479 15.6983 34.6361 16.1082 34.6361 16.55V18.2945V20.0391V21.7836V23.5282H33.7691H32.9022H32.0352H31.1682V19.8966V16.2637V12.6309V8.99692H31.8561H32.5441H33.232H33.9199L34.0248 9.46339L34.1296 9.92986L34.2344 10.3963L34.3393 10.8628H34.3946H34.45H34.5054H34.5607C34.6385 10.6955 34.7256 10.5377 34.8211 10.3881C34.9165 10.2385 35.0201 10.0983 35.132 9.96756C35.2439 9.8368 35.3641 9.7143 35.4937 9.60239C35.6221 9.48931 35.7599 9.38682 35.906 9.29259C36.052 9.19717 36.204 9.11472 36.3618 9.04286C36.5197 8.97218 36.6846 8.91211 36.8554 8.86499C37.0262 8.81787 37.2029 8.78253 37.3855 8.75897C37.5681 8.73541 37.7577 8.72363 37.9532 8.72363C38.2831 8.72363 38.5929 8.7519 38.8815 8.80845C39.1701 8.86499 39.4387 8.9498 39.686 9.06288C39.9334 9.17597 40.1596 9.31732 40.3657 9.48695C40.5718 9.65657 40.7568 9.85447 40.9217 10.0806C41.0854 10.3068 41.2291 10.5589 41.3517 10.8369C41.4742 11.1149 41.5766 11.42 41.6591 11.7498C41.7416 12.0808 41.8028 12.4366 41.844 12.8194C41.8853 13.2022 41.9053 13.611 41.9053 14.0456V16.4169V18.7881V21.1593V23.5306H41.0312H40.1572H39.2832H38.4044V23.5294Z" fill="black"/>
<path d="M45.8232 5.9248H47.0247H48.2262H49.4278H50.6293C50.8743 5.9248 51.1134 5.92952 51.3455 5.94012C51.5775 5.95072 51.8037 5.96603 52.0228 5.98724C52.2419 6.00844 52.4551 6.03436 52.6613 6.06616C52.8674 6.09796 53.0676 6.13448 53.262 6.17689C53.4564 6.21929 53.6425 6.26877 53.8215 6.32413C54.0006 6.3795 54.1726 6.44311 54.3375 6.51378C54.5024 6.58328 54.6591 6.66103 54.8098 6.74466C54.9606 6.8283 55.1032 6.919 55.2398 7.01677C55.3753 7.11454 55.5025 7.22056 55.6226 7.33364C55.7428 7.44673 55.8535 7.5657 55.9572 7.69292C56.0608 7.82014 56.1563 7.95442 56.2434 8.09578C56.3306 8.23713 56.4107 8.38556 56.4814 8.54223C56.552 8.69772 56.6145 8.86263 56.6675 9.03579C56.7205 9.20895 56.7653 9.39153 56.8006 9.58354C56.8359 9.77437 56.863 9.97462 56.8807 10.1843C56.8984 10.394 56.9078 10.6119 56.9078 10.8381C56.9078 11.2704 56.8736 11.6756 56.8041 12.0525C56.7346 12.4295 56.6321 12.7793 56.4931 13.1009C56.3541 13.4225 56.1822 13.717 55.976 13.9832C55.7699 14.2494 55.5272 14.4886 55.2504 14.7006C54.9736 14.9126 54.6708 15.0976 54.3398 15.2554C54.0088 15.4144 53.6519 15.5464 53.2667 15.6524C52.8815 15.7584 52.4692 15.8373 52.0299 15.8903C51.5905 15.9433 51.1228 15.9692 50.6293 15.9692H49.734H48.8388H47.9435H47.0483V17.8599V19.7505V21.6411V23.5317H46.7408H46.4334H46.1295H45.8232V19.1309V14.73V10.3257V5.9248ZM50.336 14.9268C50.7859 14.9268 51.2065 14.9067 51.5987 14.8667C51.991 14.8266 52.3538 14.7666 52.6872 14.6864C53.0205 14.6063 53.3256 14.5062 53.6024 14.3861C53.8793 14.2659 54.1255 14.1257 54.3446 13.9655C54.5625 13.8053 54.7533 13.6204 54.917 13.4095C55.0808 13.1987 55.2174 12.9643 55.3258 12.7028C55.4353 12.4424 55.5166 12.1562 55.5708 11.8452C55.625 11.5342 55.6521 11.1985 55.6521 10.8369C55.6521 10.6496 55.645 10.4717 55.6309 10.3009C55.6167 10.1301 55.5955 9.96755 55.5684 9.81324C55.5402 9.65893 55.506 9.51168 55.4636 9.37386C55.4224 9.23486 55.3729 9.10411 55.3175 8.9816C55.2622 8.8591 55.1998 8.74248 55.1303 8.63175C55.0608 8.52102 54.9854 8.41618 54.9029 8.31724C54.8204 8.21829 54.7321 8.12523 54.6367 8.03806C54.5413 7.95089 54.4388 7.86843 54.3304 7.79304C54.2209 7.71766 54.1042 7.64816 53.9806 7.58337C53.8569 7.51858 53.7261 7.45968 53.5883 7.40668C53.4505 7.35367 53.3056 7.30537 53.1525 7.26296C53.0005 7.22056 52.8403 7.18404 52.6742 7.15224C52.5069 7.12161 52.3326 7.09334 52.1524 7.07096C51.9721 7.04858 51.7837 7.02855 51.5881 7.01324C51.3938 6.99792 51.1912 6.98614 50.9827 6.9779C50.7742 6.96965 50.5586 6.96612 50.336 6.96612H49.5149H48.6939H47.8729H47.0518V8.95687V10.9476V12.9384V14.9291H47.8729H48.6939H49.5149H50.336V14.9268Z" fill="black"/>
<path d="M58.8867 17.1447C58.8867 16.8821 58.8962 16.6264 58.9162 16.3767C58.9362 16.127 58.9645 15.8843 59.0045 15.6487C59.0434 15.4131 59.0929 15.1834 59.1506 14.9608C59.2095 14.7382 59.2767 14.5226 59.3556 14.3129C59.4333 14.1033 59.5181 13.903 59.6088 13.7098C59.6995 13.5166 59.7985 13.3317 59.9033 13.155C60.0082 12.9783 60.1189 12.8087 60.2379 12.6485C60.3557 12.4871 60.4805 12.3351 60.6125 12.1903C60.7444 12.0454 60.8799 11.9099 61.02 11.7815C61.1602 11.6531 61.3051 11.5341 61.4547 11.4234C61.6043 11.3127 61.7574 11.209 61.9153 11.1148C62.0731 11.0205 62.2357 10.9346 62.403 10.8568C62.5702 10.7791 62.7375 10.7107 62.9071 10.6518C63.0767 10.5929 63.2475 10.5447 63.4207 10.5058C63.5927 10.4669 63.767 10.4375 63.9425 10.4186C64.1181 10.3998 64.2948 10.3892 64.4738 10.3892C64.8566 10.3892 65.2194 10.421 65.5611 10.4858C65.9027 10.5505 66.2242 10.6471 66.5246 10.7767C66.825 10.9063 67.1054 11.0677 67.3645 11.2608C67.6237 11.454 67.8628 11.6802 68.0807 11.9382C68.2986 12.1973 68.4895 12.4824 68.6532 12.7934C68.8169 13.1055 68.9536 13.4436 69.0631 13.8088C69.1727 14.1739 69.2539 14.565 69.3093 14.9844C69.3635 15.4025 69.3918 15.8478 69.3918 16.3202C69.3918 16.3602 69.3918 16.4003 69.3918 16.4403C69.3918 16.4804 69.3918 16.5204 69.3918 16.5605C69.3918 16.6005 69.3918 16.6406 69.3918 16.6806C69.3918 16.7207 69.3918 16.7607 69.3918 16.8008C69.3918 16.8408 69.3906 16.8809 69.3882 16.9209C69.3859 16.961 69.3823 17.001 69.3776 17.0411C69.3729 17.0811 69.367 17.1212 69.3611 17.1612C69.3541 17.2013 69.347 17.2413 69.3376 17.2814H67.0264H64.7153H62.4041H60.093C60.0977 17.4816 60.1083 17.6784 60.126 17.8715C60.1436 18.0647 60.1684 18.2544 60.199 18.4405C60.2296 18.6266 60.2673 18.8092 60.3121 18.9871C60.3568 19.1649 60.4075 19.3405 60.4652 19.5113C60.5229 19.6832 60.5865 19.8482 60.656 20.0072C60.7255 20.1662 60.8009 20.3193 60.8822 20.4666C60.9635 20.6138 61.0507 20.7552 61.1437 20.8895C61.2368 21.0238 61.3357 21.1533 61.4406 21.2758C61.5454 21.3983 61.6549 21.5138 61.7692 21.6233C61.8846 21.7329 62.0048 21.8342 62.1308 21.9308C62.2569 22.0262 62.3876 22.1157 62.5243 22.1982C62.6609 22.2806 62.8023 22.356 62.9495 22.4255C63.0968 22.495 63.2475 22.5551 63.403 22.6069C63.5585 22.6588 63.7187 22.7012 63.8836 22.7365C64.0486 22.7707 64.217 22.7966 64.3913 22.8143C64.5645 22.8319 64.7436 22.8402 64.9261 22.8402C65.1005 22.8402 65.2689 22.8343 65.435 22.8213C65.5999 22.8084 65.7613 22.7895 65.9191 22.7636C66.0758 22.7377 66.229 22.7059 66.3774 22.667C66.5258 22.6281 66.6707 22.5834 66.8109 22.5327C66.951 22.4821 67.0889 22.4267 67.2243 22.3654C67.3598 22.3042 67.4929 22.2394 67.6225 22.1699C67.7521 22.1004 67.8805 22.025 68.0065 21.9449C68.1314 21.8648 68.255 21.7812 68.3752 21.6917L68.4953 21.919L68.6155 22.1463L68.7356 22.3737L68.8558 22.601C68.7262 22.6764 68.5943 22.7518 68.4588 22.8249C68.3234 22.8979 68.1855 22.9709 68.0442 23.0428C67.9028 23.1146 67.7579 23.1841 67.6107 23.2536C67.4635 23.3231 67.3127 23.3903 67.1584 23.4574C67.0052 23.5246 66.8415 23.5823 66.6672 23.6329C66.4928 23.6824 66.3091 23.7248 66.1135 23.7578C65.918 23.7908 65.7142 23.8167 65.4986 23.8332C65.2831 23.8497 65.0569 23.8579 64.8213 23.8579C64.6163 23.8579 64.4149 23.8485 64.2158 23.8296C64.0168 23.8108 63.8212 23.7825 63.6292 23.7448C63.4372 23.7071 63.2475 23.66 63.0614 23.6023C62.8753 23.5458 62.6916 23.4786 62.5113 23.4032C62.3311 23.3278 62.1568 23.243 61.9883 23.1511C61.8199 23.0581 61.6573 22.9568 61.4995 22.8461C61.3428 22.7353 61.1908 22.6175 61.0459 22.4891C60.9011 22.3619 60.7609 22.2253 60.6278 22.0816C60.4947 21.9367 60.3686 21.7835 60.2485 21.6233C60.1283 21.4631 60.0164 21.2947 59.9104 21.1192C59.8044 20.9437 59.7054 20.7599 59.6135 20.5679C59.5217 20.3759 59.4369 20.1768 59.3591 19.9695C59.2814 19.7622 59.213 19.549 59.1541 19.3275C59.0952 19.1072 59.047 18.8787 59.0081 18.6443C58.9692 18.4099 58.9398 18.1672 58.9197 17.9187C58.8997 17.6701 58.8867 17.4074 58.8867 17.1447ZM68.2645 16.3696C68.2645 15.955 68.2433 15.5675 68.2009 15.2046C68.1585 14.8418 68.0948 14.5061 68.0112 14.1951C67.9264 13.8842 67.8216 13.6003 67.6943 13.3411C67.5671 13.082 67.4199 12.8499 67.2502 12.6426C67.0806 12.4353 66.8957 12.255 66.6966 12.0996C66.4975 11.9441 66.2831 11.8145 66.0534 11.7108C65.8237 11.6072 65.5799 11.5294 65.3207 11.4776C65.0616 11.4258 64.7871 11.3998 64.4974 11.3998C64.3595 11.3998 64.2229 11.4069 64.0886 11.4222C63.9543 11.4375 63.8212 11.4587 63.6893 11.4882C63.5573 11.5176 63.4278 11.5542 63.3006 11.5966C63.1722 11.6402 63.0461 11.6908 62.9213 11.7485C62.7964 11.8062 62.6751 11.8699 62.5573 11.9405C62.4383 12.01 62.3228 12.0866 62.2109 12.1691C62.0979 12.2515 61.9895 12.3399 61.8823 12.4341C61.7763 12.5283 61.6726 12.6296 61.5725 12.7357C61.4724 12.8428 61.3769 12.9559 61.2851 13.0737C61.1932 13.1915 61.1072 13.3164 61.0247 13.4471C60.9423 13.5779 60.8645 13.7134 60.7915 13.8559C60.7185 13.9972 60.649 14.1457 60.5854 14.2988C60.5206 14.4531 60.4617 14.611 60.4087 14.7735C60.3557 14.9361 60.3085 15.1045 60.2673 15.2765C60.2261 15.4485 60.1907 15.6264 60.1613 15.8078C60.1319 15.9892 60.1083 16.1765 60.0906 16.3685H62.1344H64.1781H66.2219H68.2645V16.3696Z" fill="black"/>
<path d="M72.8597 10.7061H73.1141H73.3686H73.623H73.8774L73.9045 11.301L73.9316 11.8958L73.9587 12.4907L73.9858 13.0856H74.0058H74.0258H74.0459H74.0659C74.1731 12.8853 74.285 12.6945 74.404 12.5131C74.5229 12.3317 74.6466 12.1597 74.7774 11.9972C74.9081 11.8346 75.0436 11.6815 75.1861 11.5377C75.3287 11.394 75.4759 11.2597 75.6302 11.1349C75.7834 11.01 75.9412 10.9017 76.1049 10.8086C76.2687 10.7155 76.436 10.6378 76.6079 10.5754C76.7811 10.5129 76.9578 10.4658 77.1404 10.4352C77.3229 10.4046 77.5091 10.3881 77.7011 10.3881C77.7635 10.3881 77.8236 10.3892 77.8825 10.3916C77.9414 10.394 77.9991 10.3975 78.0545 10.401C78.1098 10.4057 78.164 10.4104 78.217 10.4175C78.2688 10.4246 78.3195 10.4316 78.369 10.4411C78.4184 10.4505 78.4679 10.4623 78.5174 10.4752C78.568 10.4882 78.6187 10.5047 78.6694 10.5223C78.7212 10.54 78.773 10.56 78.8248 10.5824C78.8767 10.6048 78.9297 10.6284 78.9839 10.6555L78.9167 10.9229L78.8496 11.1902L78.7824 11.4576L78.7153 11.725C78.6623 11.7027 78.6105 11.6826 78.561 11.665C78.5115 11.6473 78.462 11.6308 78.4161 11.6155C78.369 11.6014 78.3242 11.5884 78.2806 11.5778C78.237 11.5672 78.1958 11.5578 78.1558 11.5507C78.1157 11.5436 78.0733 11.5389 78.0274 11.533C77.9814 11.5283 77.9331 11.5236 77.8825 11.5213C77.8318 11.5177 77.7776 11.5154 77.7211 11.5142C77.6646 11.513 77.6057 11.5118 77.5432 11.5118C77.4007 11.5118 77.2558 11.5271 77.1097 11.5578C76.9637 11.5884 76.8152 11.6343 76.6645 11.6956C76.5137 11.7568 76.3617 11.8334 76.2074 11.9253C76.0531 12.0172 75.8976 12.1244 75.7398 12.2469C75.5819 12.3694 75.4276 12.5143 75.278 12.6815C75.1284 12.8488 74.9824 13.0396 74.841 13.2517C74.6996 13.4637 74.5618 13.6993 74.4299 13.9573C74.2968 14.2152 74.1684 14.4956 74.0435 14.7983V16.9823V19.1662V21.3501V23.5341H73.749H73.4545H73.16H72.8656V20.3288V17.1236V13.9125V10.7061H72.8597Z" fill="black"/>
<path d="M86.2436 5.38999C86.1765 5.35465 86.1093 5.32167 86.0434 5.29104C85.9774 5.26041 85.9114 5.23332 85.8455 5.20976C85.7795 5.18385 85.7147 5.16264 85.6499 5.1438C85.5851 5.12495 85.5203 5.10846 85.4556 5.0955C85.3908 5.08254 85.326 5.07076 85.2624 5.06016C85.1988 5.04956 85.134 5.04131 85.0715 5.03542C85.0079 5.02836 84.9443 5.02364 84.8819 5.02011C84.8195 5.01658 84.7559 5.0154 84.6934 5.0154C84.5238 5.0154 84.366 5.03071 84.2187 5.06252C84.0715 5.09432 83.9348 5.14144 83.8088 5.20505C83.6827 5.26866 83.5685 5.34758 83.4636 5.443C83.36 5.53841 83.2657 5.64914 83.1833 5.77636C83.1008 5.90358 83.029 6.04258 82.9665 6.19571C82.9053 6.34885 82.8535 6.51494 82.8122 6.69399C82.771 6.87304 82.7404 7.06504 82.7203 7.27119C82.7003 7.47615 82.6897 7.69525 82.6897 7.92613V8.62113V9.31612V10.0111V10.7061H83.4307H84.1716H84.9125H85.6535V10.9594V11.2126V11.4659V11.7192H84.9125H84.1716H83.4307H82.6897V14.6711V17.6231V20.575V23.527H82.3952H82.1007H81.8062H81.5118V20.575V17.6231V14.6711V11.7192H81.0712H80.6306H80.1901H79.7495V11.493V11.2668V11.0395V10.8121L80.1901 10.785L80.6306 10.7579L81.0712 10.7308L81.5118 10.7038V9.99109V9.27725V8.56223V7.84721C81.5118 7.5268 81.5294 7.22642 81.5636 6.94607C81.5977 6.66572 81.6496 6.40539 81.7191 6.16508C81.7886 5.92478 81.8746 5.7045 81.9782 5.50307C82.0819 5.30282 82.2032 5.12142 82.341 4.96121C82.4789 4.80101 82.6308 4.66083 82.7981 4.54068C82.9654 4.42053 83.1468 4.3204 83.3423 4.2403C83.5378 4.1602 83.7487 4.10013 83.9737 4.06008C84.1987 4.02003 84.4378 4 84.6922 4C84.8477 4 85.0044 4.00942 85.1599 4.02709C85.3154 4.04476 85.4721 4.07186 85.6275 4.10719C85.783 4.14253 85.9397 4.1873 86.0952 4.24148C86.2507 4.29567 86.4074 4.35692 86.5628 4.42878L86.4827 4.66908L86.4038 4.9082L86.3237 5.14851L86.2436 5.38999Z" fill="black"/>
<path d="M87.0152 17.1449C87.0152 16.8775 87.0246 16.6171 87.0446 16.3639C87.0646 16.1106 87.0929 15.8644 87.133 15.6253C87.1718 15.3862 87.2213 15.1541 87.279 14.9279C87.3379 14.703 87.4051 14.4839 87.484 14.273C87.5617 14.061 87.6466 13.8584 87.7373 13.664C87.828 13.4696 87.9269 13.2835 88.0317 13.1068C88.1366 12.9301 88.2473 12.7617 88.3663 12.6015C88.4841 12.4413 88.6089 12.2905 88.7409 12.148C88.8728 12.0054 89.0094 11.8711 89.1508 11.7451C89.2922 11.6191 89.4394 11.5013 89.5925 11.3929C89.7445 11.2833 89.9023 11.1832 90.0661 11.0902C90.2298 10.9971 90.3971 10.9135 90.5714 10.8381C90.7458 10.7627 90.9213 10.6967 91.0991 10.6402C91.277 10.5836 91.4572 10.5365 91.6398 10.4988C91.8224 10.4611 92.0073 10.4329 92.1946 10.414C92.3819 10.3952 92.5704 10.3857 92.7624 10.3857C92.9544 10.3857 93.1429 10.3952 93.3314 10.414C93.5187 10.4329 93.7048 10.4611 93.8885 10.4988C94.0723 10.5365 94.2537 10.5836 94.4328 10.6402C94.6118 10.6967 94.7897 10.7627 94.9652 10.8381C95.1407 10.9135 95.3115 10.9983 95.4764 11.0902C95.6413 11.182 95.8004 11.2833 95.9547 11.3929C96.109 11.5024 96.2562 11.6191 96.3988 11.7451C96.5413 11.8711 96.6779 12.0054 96.8099 12.148C96.9406 12.2905 97.0655 12.4413 97.1833 12.6015C97.3011 12.7617 97.4118 12.9301 97.5167 13.1068C97.6215 13.2835 97.7193 13.4696 97.81 13.664C97.9007 13.8584 97.9855 14.061 98.0632 14.273C98.141 14.485 98.2093 14.703 98.2682 14.9279C98.3271 15.1529 98.3754 15.385 98.4143 15.6253C98.4531 15.8644 98.4826 16.1106 98.5014 16.3639C98.5203 16.6171 98.5309 16.8775 98.5309 17.1449C98.5309 17.4123 98.5215 17.6714 98.5014 17.9235C98.4814 18.1756 98.4531 18.4206 98.4143 18.6574C98.3754 18.8941 98.3271 19.1238 98.2682 19.3453C98.2093 19.5667 98.141 19.7811 98.0632 19.9884C97.9855 20.1958 97.9007 20.3948 97.81 20.5857C97.7193 20.7765 97.6203 20.9591 97.5167 21.1346C97.413 21.3101 97.3011 21.4762 97.1833 21.6352C97.0655 21.7943 96.9406 21.945 96.8099 22.0876C96.6779 22.2301 96.5413 22.3644 96.3988 22.4904C96.2562 22.6165 96.1078 22.7331 95.9547 22.8426C95.8004 22.9522 95.6413 23.0523 95.4764 23.1442C95.3115 23.2361 95.1407 23.3209 94.9652 23.3963C94.7897 23.4717 94.6118 23.5388 94.4328 23.5954C94.2537 23.6519 94.0711 23.699 93.8885 23.7379C93.706 23.7768 93.5198 23.8039 93.3314 23.8227C93.1441 23.8415 92.9544 23.851 92.7624 23.851C92.5704 23.851 92.3819 23.8415 92.1946 23.8227C92.0073 23.8039 91.8224 23.7756 91.6398 23.7379C91.4572 23.7002 91.277 23.6531 91.0991 23.5954C90.9213 23.5388 90.7446 23.4717 90.5714 23.3963C90.3971 23.3209 90.2286 23.2373 90.0661 23.1442C89.9035 23.0511 89.7457 22.951 89.5925 22.8426C89.4406 22.7331 89.2933 22.6165 89.1508 22.4904C89.0094 22.3644 88.8728 22.2301 88.7409 22.0876C88.6089 21.945 88.4853 21.7943 88.3663 21.6352C88.2485 21.4762 88.1366 21.3101 88.0317 21.1346C87.9269 20.9591 87.8291 20.7765 87.7373 20.5857C87.6466 20.3948 87.5617 20.1958 87.484 19.9884C87.4062 19.7811 87.3379 19.5667 87.279 19.3453C87.2201 19.1238 87.1718 18.8941 87.133 18.6574C87.0941 18.4206 87.0646 18.1756 87.0446 17.9235C87.0246 17.6714 87.0152 17.4123 87.0152 17.1449ZM88.245 17.1449C88.245 17.3545 88.252 17.5583 88.2662 17.7586C88.2803 17.9588 88.3027 18.1544 88.3309 18.3464C88.3604 18.5384 88.3957 18.7245 88.4393 18.9071C88.4829 19.0897 88.5336 19.2675 88.5913 19.4419C88.649 19.615 88.7126 19.7823 88.7809 19.9437C88.8492 20.1051 88.9235 20.2606 89.0024 20.409C89.0813 20.5574 89.1661 20.7011 89.2556 20.8378C89.3452 20.9744 89.4406 21.1052 89.5407 21.23C89.6408 21.3549 89.7457 21.4727 89.8552 21.5834C89.9648 21.6941 90.079 21.7978 90.198 21.8956C90.317 21.9922 90.4407 22.0829 90.5691 22.1653C90.6975 22.2478 90.8306 22.3243 90.9684 22.3927C91.1062 22.4622 91.2476 22.5222 91.3913 22.5741C91.535 22.6259 91.6811 22.6683 91.8307 22.7036C91.9803 22.7378 92.1322 22.7637 92.2865 22.7814C92.4408 22.7991 92.5987 22.8073 92.7589 22.8073C92.9191 22.8073 93.0769 22.7991 93.2324 22.7814C93.3879 22.7637 93.5399 22.7378 93.6906 22.7036C93.8403 22.6695 93.9887 22.6259 94.1336 22.5741C94.2784 22.5222 94.421 22.4622 94.5612 22.3927C94.7013 22.3232 94.8368 22.2478 94.9664 22.1653C95.0971 22.0829 95.222 21.9922 95.3421 21.8956C95.4623 21.799 95.5777 21.6953 95.6885 21.5834C95.7992 21.4727 95.904 21.3549 96.0053 21.23C96.1055 21.1052 96.2009 20.9744 96.2892 20.8378C96.3776 20.7011 96.4624 20.5574 96.5413 20.409C96.6202 20.2606 96.6933 20.1039 96.7616 19.9437C96.8299 19.7823 96.8923 19.615 96.9512 19.4419C97.009 19.2675 97.0608 19.0897 97.1044 18.9071C97.1479 18.7245 97.1845 18.5372 97.2127 18.3464C97.241 18.1555 97.2634 17.9588 97.2775 17.7586C97.2917 17.5583 97.2987 17.3534 97.2987 17.1449C97.2987 16.9305 97.2917 16.722 97.2775 16.5182C97.2634 16.3144 97.241 16.1153 97.2127 15.9221C97.1845 15.729 97.1479 15.5393 97.1044 15.3555C97.0608 15.1718 97.0101 14.9927 96.9512 14.8196C96.8935 14.6464 96.8299 14.4791 96.7616 14.3166C96.6933 14.154 96.6202 13.9985 96.5413 13.8489C96.4624 13.6982 96.3787 13.5544 96.2892 13.4154C96.1997 13.2764 96.1055 13.1445 96.0053 13.0173C95.9052 12.8901 95.7992 12.7699 95.6885 12.658C95.5777 12.5449 95.4623 12.4401 95.3421 12.3423C95.222 12.2446 95.0971 12.1539 94.9664 12.0702C94.8356 11.9866 94.7013 11.9112 94.5612 11.8417C94.421 11.7722 94.2784 11.7121 94.1336 11.6603C93.9887 11.6085 93.8403 11.5661 93.6906 11.5307C93.541 11.4966 93.3879 11.4706 93.2324 11.453C93.0769 11.4353 92.9191 11.4271 92.7589 11.4271C92.5987 11.4271 92.4408 11.4353 92.2865 11.453C92.1322 11.4706 91.9791 11.4966 91.8307 11.5307C91.6811 11.5649 91.535 11.6085 91.3913 11.6603C91.2476 11.7121 91.1062 11.7722 90.9684 11.8417C90.8306 11.9112 90.6975 11.9866 90.5691 12.0702C90.4407 12.1539 90.317 12.2446 90.198 12.3423C90.079 12.4401 89.9648 12.5449 89.8552 12.658C89.7457 12.7711 89.6408 12.8901 89.5407 13.0173C89.4406 13.1445 89.3452 13.2764 89.2556 13.4154C89.1661 13.5544 89.0813 13.6982 89.0024 13.8489C88.9235 13.9997 88.8492 14.1552 88.7809 14.3166C88.7126 14.478 88.649 14.6464 88.5913 14.8196C88.5336 14.9939 88.4829 15.1718 88.4393 15.3555C88.3957 15.5393 88.3604 15.7278 88.3309 15.9221C88.3015 16.1165 88.2803 16.3144 88.2662 16.5182C88.252 16.722 88.245 16.9316 88.245 17.1449Z" fill="black"/>
<path d="M102.378 10.7061H102.633H102.887H103.141H103.396L103.423 11.301L103.45 11.8958L103.477 12.4907L103.504 13.0856H103.524H103.544H103.564H103.584C103.691 12.8853 103.803 12.6945 103.922 12.5131C104.041 12.3317 104.165 12.1597 104.296 11.9972C104.427 11.8346 104.562 11.6815 104.705 11.5377C104.847 11.394 104.994 11.2597 105.149 11.1349C105.302 11.01 105.46 10.9017 105.623 10.8086C105.786 10.7155 105.954 10.6378 106.126 10.5754C106.298 10.5129 106.476 10.4658 106.659 10.4352C106.841 10.4046 107.027 10.3881 107.219 10.3881C107.282 10.3881 107.342 10.3892 107.401 10.3916C107.46 10.394 107.518 10.3975 107.573 10.401C107.628 10.4057 107.682 10.4104 107.735 10.4175C107.787 10.4246 107.838 10.4316 107.887 10.4411C107.937 10.4505 107.986 10.4623 108.036 10.4752C108.086 10.4882 108.137 10.5047 108.188 10.5223C108.238 10.54 108.291 10.56 108.343 10.5824C108.395 10.6048 108.448 10.6284 108.502 10.6555L108.435 10.9229L108.368 11.1902L108.301 11.4576L108.234 11.725C108.181 11.7027 108.129 11.6826 108.079 11.665C108.03 11.6473 107.98 11.6308 107.935 11.6155C107.887 11.6014 107.843 11.5884 107.799 11.5778C107.755 11.5672 107.714 11.5578 107.674 11.5507C107.634 11.5436 107.592 11.5389 107.546 11.533C107.5 11.5283 107.452 11.5236 107.401 11.5213C107.35 11.5177 107.296 11.5154 107.24 11.5142C107.183 11.513 107.124 11.5118 107.062 11.5118C106.919 11.5118 106.774 11.5271 106.628 11.5578C106.482 11.5884 106.334 11.6343 106.183 11.6956C106.032 11.7568 105.88 11.8334 105.726 11.9253C105.572 12.0172 105.416 12.1244 105.258 12.2469C105.1 12.3694 104.946 12.5143 104.796 12.6815C104.647 12.8488 104.501 13.0396 104.359 13.2517C104.218 13.4637 104.08 13.6993 103.948 13.9573C103.815 14.2152 103.687 14.4956 103.562 14.7983V16.9823V19.1662V21.3501V23.5341H103.267H102.973H102.678H102.384V20.3288V17.1236V13.9125V10.7061H102.378Z" fill="black"/>
<path d="M110.846 10.7061H111.101H111.355H111.61H111.864L111.891 11.2008L111.918 11.6956L111.945 12.1903L111.973 12.685H111.993H112.013H112.033H112.053C112.195 12.5201 112.342 12.3623 112.493 12.2115C112.644 12.0607 112.798 11.917 112.958 11.7792C113.118 11.6425 113.281 11.5118 113.449 11.3893C113.616 11.2668 113.788 11.1502 113.964 11.0418C114.14 10.9322 114.317 10.8368 114.492 10.7555C114.669 10.6743 114.846 10.6059 115.022 10.5506C115.199 10.4964 115.377 10.4552 115.555 10.4281C115.733 10.401 115.91 10.3868 116.089 10.3868C116.347 10.3868 116.59 10.401 116.819 10.4304C117.047 10.4599 117.26 10.5035 117.458 10.5624C117.656 10.6213 117.84 10.6955 118.007 10.7838C118.176 10.8722 118.329 10.9758 118.467 11.0936C118.604 11.2114 118.733 11.3398 118.851 11.4788C118.968 11.6178 119.077 11.7662 119.175 11.9253C119.272 12.0843 119.361 12.2539 119.438 12.4341C119.516 12.6144 119.584 12.804 119.642 13.0043C119.83 12.804 120.016 12.6144 120.199 12.4341C120.383 12.2539 120.567 12.0843 120.748 11.9253C120.93 11.7662 121.11 11.6166 121.289 11.4788C121.468 11.3398 121.645 11.2114 121.821 11.0936C121.997 10.9758 122.174 10.8722 122.353 10.7838C122.532 10.6955 122.711 10.6213 122.893 10.5624C123.076 10.5035 123.257 10.4587 123.442 10.4304C123.626 10.401 123.812 10.3868 123.998 10.3868C124.639 10.3868 125.201 10.4893 125.682 10.6943C126.162 10.8993 126.564 11.2067 126.884 11.6154C127.205 12.0242 127.446 12.5366 127.606 13.1515C127.767 13.7664 127.847 14.4826 127.847 15.3025V17.3592V19.4159V21.4726V23.5293H127.545H127.245H126.943H126.642V21.5126V19.496V17.4793V15.4627C126.642 15.1199 126.627 14.7995 126.598 14.5014C126.569 14.2034 126.526 13.9278 126.468 13.6757C126.411 13.4224 126.339 13.1927 126.252 12.9842C126.165 12.7769 126.064 12.5908 125.949 12.4282C125.834 12.2657 125.7 12.1243 125.553 12.0018C125.405 11.8805 125.241 11.778 125.061 11.6967C124.881 11.6154 124.684 11.5542 124.472 11.5141C124.26 11.4741 124.031 11.4529 123.786 11.4529C123.496 11.4529 123.198 11.5035 122.893 11.6037C122.588 11.7038 122.275 11.8546 121.955 12.0548C121.634 12.2551 121.305 12.506 120.97 12.8064C120.634 13.1067 120.29 13.4578 119.938 13.8583V16.2766V18.695V21.1133V23.5317H119.643H119.349H119.054H118.76V21.515V19.496V17.4793V15.4627C118.76 15.1199 118.746 14.7995 118.716 14.5014C118.687 14.2034 118.644 13.9278 118.587 13.6757C118.529 13.4224 118.457 13.1927 118.37 12.9842C118.283 12.7769 118.183 12.5908 118.067 12.4282C117.952 12.2657 117.819 12.1243 117.669 12.0018C117.52 11.8805 117.353 11.778 117.171 11.6967C116.988 11.6154 116.789 11.5542 116.572 11.5141C116.357 11.4729 116.124 11.4529 115.875 11.4529C115.585 11.4529 115.288 11.5035 114.983 11.6037C114.678 11.7038 114.366 11.8546 114.046 12.0548C113.725 12.2551 113.397 12.506 113.061 12.8064C112.725 13.1067 112.381 13.4578 112.029 13.8583V16.2766V18.695V21.1133V23.5317H111.735H111.44H111.146H110.851V20.3264V17.1212V13.9125V10.7061H110.846Z" fill="black"/>
</svg>
