<svg width="132" height="30" viewBox="0 0 132 30" fill="none" xmlns="http://www.w3.org/2000/svg">
<rect width="132" height="30" fill="white"/>
<path d="M15.4837 19.2721C15.4837 19.7186 15.4555 20.1379 15.3989 20.5313C15.3424 20.9248 15.2587 21.2923 15.1457 21.6339C15.0326 21.9755 14.8924 22.29 14.7239 22.5798C14.5555 22.8696 14.3576 23.1323 14.1326 23.369C13.9076 23.6058 13.6579 23.8131 13.3834 23.991C13.109 24.1689 12.8098 24.3173 12.4847 24.4351C12.1607 24.5541 11.8109 24.6424 11.4363 24.7013C11.0617 24.7602 10.6624 24.7897 10.2383 24.7897C9.82365 24.7897 9.42314 24.7696 9.03913 24.7284C8.65512 24.6872 8.28641 24.6259 7.93303 24.5446C7.57964 24.4634 7.24157 24.3609 6.91998 24.2384C6.5984 24.1159 6.29096 23.9733 6 23.8108V22.9344V22.0568V21.1792V20.3016C6.35692 20.5337 6.7056 20.7375 7.0472 20.9118C7.38881 21.0862 7.72335 21.2322 8.05082 21.3477C8.37829 21.4631 8.69752 21.5515 9.01086 21.6092C9.32419 21.6669 9.62811 21.6963 9.92613 21.6963C10.0958 21.6963 10.2548 21.6846 10.4032 21.661C10.5516 21.6375 10.6906 21.6021 10.8178 21.5562C10.9451 21.5091 11.0629 21.4513 11.1701 21.3807C11.2772 21.31 11.3738 21.2287 11.4598 21.1345C11.5458 21.0414 11.62 20.9389 11.6848 20.8282C11.7496 20.7175 11.8026 20.5985 11.845 20.4713C11.8874 20.3441 11.9204 20.2086 11.9416 20.0649C11.9628 19.9212 11.9734 19.768 11.9734 19.6078C11.9734 19.4488 11.9605 19.2933 11.9345 19.1414C11.9086 18.9894 11.8709 18.841 11.8191 18.6961C11.7685 18.5512 11.7037 18.4087 11.6271 18.2708C11.5505 18.1319 11.461 17.9976 11.3597 17.8656C11.2572 17.7337 11.1394 17.5994 11.004 17.4604C10.8685 17.3214 10.7165 17.1789 10.5481 17.0328C10.3796 16.8867 10.1947 16.7371 9.99327 16.5828C9.79184 16.4297 9.57274 16.2719 9.33833 16.1117C9.13337 15.9703 8.94136 15.8313 8.76231 15.6923C8.58208 15.5545 8.41481 15.4167 8.2605 15.2824C8.10501 15.1469 7.96248 15.0126 7.8329 14.8807C7.70215 14.7488 7.58435 14.618 7.47834 14.4884C7.3735 14.3589 7.27337 14.2257 7.18031 14.0879C7.08725 13.9501 7.00008 13.8087 6.91763 13.6639C6.83635 13.519 6.76096 13.3694 6.69146 13.2162C6.62196 13.0631 6.55835 12.9064 6.50181 12.7451C6.44409 12.5849 6.39344 12.4164 6.34985 12.2432C6.30627 12.0689 6.27093 11.8887 6.24148 11.7014C6.21203 11.5141 6.19083 11.3209 6.17669 11.1206C6.16256 10.9204 6.15549 10.7143 6.15549 10.501C6.15549 10.0923 6.18376 9.70475 6.2403 9.3384C6.29684 8.97206 6.38284 8.62691 6.49592 8.30298C6.61018 7.97904 6.75154 7.6763 6.92234 7.39477C7.09314 7.11324 7.29222 6.85291 7.51956 6.61379C7.74691 6.37466 7.9931 6.16616 8.25932 5.98593C8.52554 5.80689 8.81061 5.65728 9.1157 5.53713C9.42079 5.41698 9.74473 5.32746 10.0887 5.26738C10.4327 5.20731 10.7955 5.17786 11.1783 5.17786C11.5435 5.17786 11.9051 5.20377 12.2632 5.25442C12.6213 5.30508 12.9759 5.38164 13.3269 5.48412C13.6779 5.58661 14.0254 5.71383 14.3694 5.86696C14.7133 6.0201 15.0538 6.19915 15.3907 6.40411L15.0974 7.1156L14.8041 7.82708L14.5107 8.53857L14.2186 9.25359C14.1138 9.19233 14.0089 9.13344 13.9017 9.07572C13.7945 9.018 13.6873 8.96263 13.5778 8.90845C13.4682 8.85426 13.3575 8.80125 13.2456 8.7506C13.1337 8.69995 13.0206 8.65047 12.9064 8.60218C12.7921 8.55388 12.6767 8.51265 12.5589 8.47614C12.4411 8.4408 12.3209 8.41017 12.1984 8.38661C12.0759 8.36305 11.9522 8.34538 11.825 8.33243C11.699 8.32065 11.5706 8.31476 11.4398 8.31476C11.2961 8.31476 11.1606 8.32654 11.0346 8.35009C10.9074 8.37365 10.7884 8.40899 10.6788 8.45611C10.5693 8.50323 10.4668 8.56213 10.3726 8.63398C10.2783 8.70466 10.1935 8.78829 10.1158 8.88371C10.0392 8.97795 9.97207 9.08043 9.91435 9.19233C9.85663 9.30424 9.80833 9.42439 9.76946 9.55279C9.73059 9.68119 9.70232 9.81901 9.68229 9.96507C9.66227 10.1111 9.65284 10.2655 9.65284 10.4292C9.65284 10.5894 9.66462 10.7461 9.687 10.8957C9.71056 11.0464 9.74472 11.1913 9.79067 11.3315C9.83661 11.4717 9.89433 11.6071 9.96383 11.7367C10.0333 11.8663 10.1146 11.9912 10.2065 12.1113C10.2984 12.2315 10.4079 12.3551 10.5351 12.4824C10.6624 12.6096 10.8061 12.7415 10.9674 12.8782C11.1288 13.0148 11.3079 13.1538 11.5034 13.2975C11.699 13.4412 11.9122 13.5896 12.143 13.7416C12.454 13.9501 12.7414 14.1598 13.0053 14.3706C13.2692 14.5815 13.5095 14.7935 13.7262 15.0067C13.943 15.2199 14.1361 15.4343 14.307 15.6487C14.4766 15.8643 14.6238 16.0798 14.7463 16.2978C14.8688 16.5157 14.976 16.7407 15.0679 16.9727C15.1598 17.206 15.2364 17.4463 15.2976 17.6937C15.3589 17.941 15.4048 18.1966 15.4354 18.4605C15.4661 18.7244 15.4837 18.9941 15.4837 19.2721Z" fill="black"/>
<path d="M25.4763 24.5293L25.3692 24.0628L25.262 23.5963L25.1548 23.1299L25.0476 22.6634H25.0016H24.9557H24.9098H24.8638C24.7837 22.8283 24.6942 22.985 24.5964 23.1322C24.4986 23.2795 24.3926 23.4185 24.2784 23.548C24.1641 23.6776 24.0404 23.7989 23.9085 23.9109C23.7766 24.0228 23.6364 24.1264 23.488 24.2218C23.3384 24.3161 23.184 24.3985 23.025 24.4692C22.866 24.5399 22.7011 24.5988 22.5303 24.6459C22.3607 24.693 22.1851 24.7284 22.0037 24.7519C21.8235 24.7755 21.6374 24.7873 21.4454 24.7873C21.1191 24.7873 20.8128 24.759 20.5266 24.7036C20.2403 24.6483 19.9729 24.5646 19.7267 24.4539C19.4805 24.3432 19.2532 24.2042 19.0459 24.0381C18.8386 23.872 18.6513 23.6776 18.484 23.4562C18.3167 23.2347 18.1707 22.985 18.0446 22.7082C17.9186 22.4313 17.8149 22.1274 17.7313 21.7952C17.6476 21.4631 17.5852 21.105 17.5428 20.7186C17.5004 20.3322 17.4804 19.9188 17.4804 19.477V17.1058V14.7346V12.3681V9.99683H18.358H19.2355H20.1131H20.9907V12.1596V14.3223V16.485V18.6477C20.9907 18.9128 20.9989 19.1613 21.0142 19.3946C21.0296 19.6278 21.0543 19.8434 21.0849 20.0436C21.1167 20.2439 21.1556 20.4276 21.2027 20.5949C21.2498 20.7622 21.3052 20.913 21.3676 21.0484C21.4301 21.1839 21.5031 21.3005 21.5856 21.4018C21.668 21.5031 21.7611 21.5867 21.8624 21.6551C21.9649 21.7222 22.0768 21.7729 22.1981 21.807C22.3194 21.8412 22.4514 21.8577 22.5927 21.8577C22.78 21.8577 22.9543 21.8341 23.1157 21.787C23.2771 21.7399 23.4267 21.6704 23.5633 21.5761C23.7 21.4831 23.8237 21.3653 23.9344 21.2251C24.0451 21.0849 24.1441 20.9212 24.2301 20.7351C24.3161 20.5478 24.3915 20.3299 24.4562 20.079C24.521 19.8281 24.574 19.5453 24.6176 19.232C24.6612 18.9187 24.693 18.5712 24.7142 18.1942C24.7354 17.8161 24.746 17.4074 24.746 16.9656V15.2246V13.4836V11.739V9.99683H25.6236H26.5012H27.3787H28.2563V13.6296V17.2625V20.8965V24.5293H27.5613H26.8663H26.1713H25.4763Z" fill="black"/>
<path d="M38.4044 24.5294V22.3643V20.1992V18.0341V15.869C38.4044 15.6064 38.3962 15.359 38.3808 15.1281C38.3655 14.8972 38.3408 14.6817 38.3102 14.4826C38.2784 14.2835 38.2395 14.1009 38.1924 13.9337C38.1453 13.7664 38.0899 13.6156 38.0275 13.4813C37.965 13.347 37.892 13.2292 37.8095 13.1279C37.7271 13.0266 37.634 12.943 37.5327 12.8747C37.4302 12.8075 37.3183 12.7569 37.197 12.7227C37.0757 12.6886 36.9437 12.6721 36.8024 12.6721C36.6151 12.6721 36.4407 12.6956 36.2794 12.7416C36.118 12.7875 35.9684 12.8582 35.8306 12.9501C35.6939 13.0431 35.5691 13.1597 35.4572 13.2987C35.3453 13.4377 35.2451 13.6015 35.158 13.7876C35.0708 13.9725 34.9942 14.1904 34.9294 14.4402C34.8646 14.6899 34.8093 14.9714 34.7669 15.2848C34.7245 15.5981 34.6903 15.9444 34.6691 16.3214C34.6479 16.6983 34.6361 17.1082 34.6361 17.55V19.2945V21.0391V22.7836V24.5282H33.7691H32.9022H32.0352H31.1682V20.8966V17.2637V13.6309V9.99692H31.8561H32.5441H33.232H33.9199L34.0248 10.4634L34.1296 10.9299L34.2344 11.3963L34.3393 11.8628H34.3946H34.45H34.5054H34.5607C34.6385 11.6955 34.7256 11.5377 34.8211 11.3881C34.9165 11.2385 35.0201 11.0983 35.132 10.9676C35.2439 10.8368 35.3641 10.7143 35.4937 10.6024C35.6221 10.4893 35.7599 10.3868 35.906 10.2926C36.052 10.1972 36.204 10.1147 36.3618 10.0429C36.5197 9.97218 36.6846 9.91211 36.8554 9.86499C37.0262 9.81787 37.2029 9.78253 37.3855 9.75897C37.5681 9.73541 37.7577 9.72363 37.9532 9.72363C38.2831 9.72363 38.5929 9.7519 38.8815 9.80845C39.1701 9.86499 39.4387 9.9498 39.686 10.0629C39.9334 10.176 40.1596 10.3173 40.3657 10.4869C40.5718 10.6566 40.7568 10.8545 40.9217 11.0806C41.0854 11.3068 41.2291 11.5589 41.3517 11.8369C41.4742 12.1149 41.5766 12.42 41.6591 12.7498C41.7416 13.0808 41.8028 13.4366 41.844 13.8194C41.8853 14.2022 41.9053 14.611 41.9053 15.0456V17.4169V19.7881V22.1593V24.5306H41.0312H40.1572H39.2832H38.4044V24.5294Z" fill="black"/>
<path d="M45.8232 6.9248H47.0247H48.2262H49.4278H50.6293C50.8743 6.9248 51.1134 6.92952 51.3455 6.94012C51.5775 6.95072 51.8037 6.96603 52.0228 6.98724C52.2419 7.00844 52.4551 7.03436 52.6613 7.06616C52.8674 7.09796 53.0676 7.13448 53.262 7.17689C53.4564 7.21929 53.6425 7.26877 53.8215 7.32413C54.0006 7.3795 54.1726 7.44311 54.3375 7.51378C54.5024 7.58328 54.6591 7.66103 54.8098 7.74466C54.9606 7.8283 55.1032 7.919 55.2398 8.01677C55.3753 8.11454 55.5025 8.22056 55.6226 8.33364C55.7428 8.44673 55.8535 8.5657 55.9572 8.69292C56.0608 8.82014 56.1563 8.95442 56.2434 9.09578C56.3306 9.23713 56.4107 9.38556 56.4814 9.54223C56.552 9.69772 56.6145 9.86263 56.6675 10.0358C56.7205 10.2089 56.7653 10.3915 56.8006 10.5835C56.8359 10.7744 56.863 10.9746 56.8807 11.1843C56.8984 11.394 56.9078 11.6119 56.9078 11.8381C56.9078 12.2704 56.8736 12.6756 56.8041 13.0525C56.7346 13.4295 56.6321 13.7793 56.4931 14.1009C56.3541 14.4225 56.1822 14.717 55.976 14.9832C55.7699 15.2494 55.5272 15.4886 55.2504 15.7006C54.9736 15.9126 54.6708 16.0976 54.3398 16.2554C54.0088 16.4144 53.6519 16.5464 53.2667 16.6524C52.8815 16.7584 52.4692 16.8373 52.0299 16.8903C51.5905 16.9433 51.1228 16.9692 50.6293 16.9692H49.734H48.8388H47.9435H47.0483V18.8599V20.7505V22.6411V24.5317H46.7408H46.4334H46.1295H45.8232V20.1309V15.73V11.3257V6.9248ZM50.336 15.9268C50.7859 15.9268 51.2065 15.9067 51.5987 15.8667C51.991 15.8266 52.3538 15.7666 52.6872 15.6864C53.0205 15.6063 53.3256 15.5062 53.6024 15.3861C53.8793 15.2659 54.1255 15.1257 54.3446 14.9655C54.5625 14.8053 54.7533 14.6204 54.917 14.4095C55.0808 14.1987 55.2174 13.9643 55.3258 13.7028C55.4353 13.4424 55.5166 13.1562 55.5708 12.8452C55.625 12.5342 55.6521 12.1985 55.6521 11.8369C55.6521 11.6496 55.645 11.4717 55.6309 11.3009C55.6167 11.1301 55.5955 10.9676 55.5684 10.8132C55.5402 10.6589 55.506 10.5117 55.4636 10.3739C55.4224 10.2349 55.3729 10.1041 55.3175 9.9816C55.2622 9.8591 55.1998 9.74248 55.1303 9.63175C55.0608 9.52102 54.9854 9.41618 54.9029 9.31724C54.8204 9.21829 54.7321 9.12523 54.6367 9.03806C54.5413 8.95089 54.4388 8.86843 54.3304 8.79304C54.2209 8.71766 54.1042 8.64816 53.9806 8.58337C53.8569 8.51858 53.7261 8.45968 53.5883 8.40668C53.4505 8.35367 53.3056 8.30537 53.1525 8.26296C53.0005 8.22056 52.8403 8.18404 52.6742 8.15224C52.5069 8.12161 52.3326 8.09334 52.1524 8.07096C51.9721 8.04858 51.7837 8.02855 51.5881 8.01324C51.3938 7.99792 51.1912 7.98614 50.9827 7.9779C50.7742 7.96965 50.5586 7.96612 50.336 7.96612H49.5149H48.6939H47.8729H47.0518V9.95687V11.9476V13.9384V15.9291H47.8729H48.6939H49.5149H50.336V15.9268Z" fill="black"/>
<path d="M58.8867 18.1447C58.8867 17.8821 58.8962 17.6264 58.9162 17.3767C58.9362 17.127 58.9645 16.8843 59.0045 16.6487C59.0434 16.4131 59.0929 16.1834 59.1506 15.9608C59.2095 15.7382 59.2767 15.5226 59.3556 15.3129C59.4333 15.1033 59.5181 14.903 59.6088 14.7098C59.6995 14.5166 59.7985 14.3317 59.9033 14.155C60.0082 13.9783 60.1189 13.8087 60.2379 13.6485C60.3557 13.4871 60.4805 13.3351 60.6125 13.1903C60.7444 13.0454 60.8799 12.9099 61.02 12.7815C61.1602 12.6531 61.3051 12.5341 61.4547 12.4234C61.6043 12.3127 61.7574 12.209 61.9153 12.1148C62.0731 12.0205 62.2357 11.9346 62.403 11.8568C62.5702 11.7791 62.7375 11.7107 62.9071 11.6518C63.0767 11.5929 63.2475 11.5447 63.4207 11.5058C63.5927 11.4669 63.767 11.4375 63.9425 11.4186C64.1181 11.3998 64.2948 11.3892 64.4738 11.3892C64.8566 11.3892 65.2194 11.421 65.5611 11.4858C65.9027 11.5505 66.2242 11.6471 66.5246 11.7767C66.825 11.9063 67.1054 12.0677 67.3645 12.2608C67.6237 12.454 67.8628 12.6802 68.0807 12.9382C68.2986 13.1973 68.4895 13.4824 68.6532 13.7934C68.8169 14.1055 68.9536 14.4436 69.0631 14.8088C69.1727 15.1739 69.2539 15.565 69.3093 15.9844C69.3635 16.4025 69.3918 16.8478 69.3918 17.3202C69.3918 17.3602 69.3918 17.4003 69.3918 17.4403C69.3918 17.4804 69.3918 17.5204 69.3918 17.5605C69.3918 17.6005 69.3918 17.6406 69.3918 17.6806C69.3918 17.7207 69.3918 17.7607 69.3918 17.8008C69.3918 17.8408 69.3906 17.8809 69.3882 17.9209C69.3859 17.961 69.3823 18.001 69.3776 18.0411C69.3729 18.0811 69.367 18.1212 69.3611 18.1612C69.3541 18.2013 69.347 18.2413 69.3376 18.2814H67.0264H64.7153H62.4041H60.093C60.0977 18.4816 60.1083 18.6784 60.126 18.8715C60.1436 19.0647 60.1684 19.2544 60.199 19.4405C60.2296 19.6266 60.2673 19.8092 60.3121 19.9871C60.3568 20.1649 60.4075 20.3405 60.4652 20.5113C60.5229 20.6832 60.5865 20.8482 60.656 21.0072C60.7255 21.1662 60.8009 21.3193 60.8822 21.4666C60.9635 21.6138 61.0507 21.7552 61.1437 21.8895C61.2368 22.0238 61.3357 22.1533 61.4406 22.2758C61.5454 22.3983 61.6549 22.5138 61.7692 22.6233C61.8846 22.7329 62.0048 22.8342 62.1308 22.9308C62.2569 23.0262 62.3876 23.1157 62.5243 23.1982C62.6609 23.2806 62.8023 23.356 62.9495 23.4255C63.0968 23.495 63.2475 23.5551 63.403 23.6069C63.5585 23.6588 63.7187 23.7012 63.8836 23.7365C64.0486 23.7707 64.217 23.7966 64.3913 23.8143C64.5645 23.8319 64.7436 23.8402 64.9261 23.8402C65.1005 23.8402 65.2689 23.8343 65.435 23.8213C65.5999 23.8084 65.7613 23.7895 65.9191 23.7636C66.0758 23.7377 66.229 23.7059 66.3774 23.667C66.5258 23.6281 66.6707 23.5834 66.8109 23.5327C66.951 23.4821 67.0889 23.4267 67.2243 23.3654C67.3598 23.3042 67.4929 23.2394 67.6225 23.1699C67.7521 23.1004 67.8805 23.025 68.0065 22.9449C68.1314 22.8648 68.255 22.7812 68.3752 22.6917L68.4953 22.919L68.6155 23.1463L68.7356 23.3737L68.8558 23.601C68.7262 23.6764 68.5943 23.7518 68.4588 23.8249C68.3234 23.8979 68.1855 23.9709 68.0442 24.0428C67.9028 24.1146 67.7579 24.1841 67.6107 24.2536C67.4635 24.3231 67.3127 24.3903 67.1584 24.4574C67.0052 24.5246 66.8415 24.5823 66.6672 24.6329C66.4928 24.6824 66.3091 24.7248 66.1135 24.7578C65.918 24.7908 65.7142 24.8167 65.4986 24.8332C65.2831 24.8497 65.0569 24.8579 64.8213 24.8579C64.6163 24.8579 64.4149 24.8485 64.2158 24.8296C64.0168 24.8108 63.8212 24.7825 63.6292 24.7448C63.4372 24.7071 63.2475 24.66 63.0614 24.6023C62.8753 24.5458 62.6916 24.4786 62.5113 24.4032C62.3311 24.3278 62.1568 24.243 61.9883 24.1511C61.8199 24.0581 61.6573 23.9568 61.4995 23.8461C61.3428 23.7353 61.1908 23.6175 61.0459 23.4891C60.9011 23.3619 60.7609 23.2253 60.6278 23.0816C60.4947 22.9367 60.3686 22.7835 60.2485 22.6233C60.1283 22.4631 60.0164 22.2947 59.9104 22.1192C59.8044 21.9437 59.7054 21.7599 59.6135 21.5679C59.5217 21.3759 59.4369 21.1768 59.3591 20.9695C59.2814 20.7622 59.213 20.549 59.1541 20.3275C59.0952 20.1072 59.047 19.8787 59.0081 19.6443C58.9692 19.4099 58.9398 19.1672 58.9197 18.9187C58.8997 18.6701 58.8867 18.4074 58.8867 18.1447ZM68.2645 17.3696C68.2645 16.955 68.2433 16.5675 68.2009 16.2046C68.1585 15.8418 68.0948 15.5061 68.0112 15.1951C67.9264 14.8842 67.8216 14.6003 67.6943 14.3411C67.5671 14.082 67.4199 13.8499 67.2502 13.6426C67.0806 13.4353 66.8957 13.255 66.6966 13.0996C66.4975 12.9441 66.2831 12.8145 66.0534 12.7108C65.8237 12.6072 65.5799 12.5294 65.3207 12.4776C65.0616 12.4258 64.7871 12.3998 64.4974 12.3998C64.3595 12.3998 64.2229 12.4069 64.0886 12.4222C63.9543 12.4375 63.8212 12.4587 63.6893 12.4882C63.5573 12.5176 63.4278 12.5542 63.3006 12.5966C63.1722 12.6402 63.0461 12.6908 62.9213 12.7485C62.7964 12.8062 62.6751 12.8699 62.5573 12.9405C62.4383 13.01 62.3228 13.0866 62.2109 13.1691C62.0979 13.2515 61.9895 13.3399 61.8823 13.4341C61.7763 13.5283 61.6726 13.6296 61.5725 13.7357C61.4724 13.8428 61.3769 13.9559 61.2851 14.0737C61.1932 14.1915 61.1072 14.3164 61.0247 14.4471C60.9423 14.5779 60.8645 14.7134 60.7915 14.8559C60.7185 14.9972 60.649 15.1457 60.5854 15.2988C60.5206 15.4531 60.4617 15.611 60.4087 15.7735C60.3557 15.9361 60.3085 16.1045 60.2673 16.2765C60.2261 16.4485 60.1907 16.6264 60.1613 16.8078C60.1319 16.9892 60.1083 17.1765 60.0906 17.3685H62.1344H64.1781H66.2219H68.2645V17.3696Z" fill="black"/>
<path d="M72.8597 11.7061H73.1141H73.3686H73.623H73.8774L73.9045 12.301L73.9316 12.8958L73.9587 13.4907L73.9858 14.0856H74.0058H74.0258H74.0459H74.0659C74.1731 13.8853 74.285 13.6945 74.404 13.5131C74.5229 13.3317 74.6466 13.1597 74.7774 12.9972C74.9081 12.8346 75.0436 12.6815 75.1861 12.5377C75.3287 12.394 75.4759 12.2597 75.6302 12.1349C75.7834 12.01 75.9412 11.9017 76.1049 11.8086C76.2687 11.7155 76.436 11.6378 76.6079 11.5754C76.7811 11.5129 76.9578 11.4658 77.1404 11.4352C77.3229 11.4046 77.5091 11.3881 77.7011 11.3881C77.7635 11.3881 77.8236 11.3892 77.8825 11.3916C77.9414 11.394 77.9991 11.3975 78.0545 11.401C78.1098 11.4057 78.164 11.4104 78.217 11.4175C78.2688 11.4246 78.3195 11.4316 78.369 11.4411C78.4184 11.4505 78.4679 11.4623 78.5174 11.4752C78.568 11.4882 78.6187 11.5047 78.6694 11.5223C78.7212 11.54 78.773 11.56 78.8248 11.5824C78.8767 11.6048 78.9297 11.6284 78.9839 11.6555L78.9167 11.9229L78.8496 12.1902L78.7824 12.4576L78.7153 12.725C78.6623 12.7027 78.6105 12.6826 78.561 12.665C78.5115 12.6473 78.462 12.6308 78.4161 12.6155C78.369 12.6014 78.3242 12.5884 78.2806 12.5778C78.237 12.5672 78.1958 12.5578 78.1558 12.5507C78.1157 12.5436 78.0733 12.5389 78.0274 12.533C77.9814 12.5283 77.9331 12.5236 77.8825 12.5213C77.8318 12.5177 77.7776 12.5154 77.7211 12.5142C77.6646 12.513 77.6057 12.5118 77.5432 12.5118C77.4007 12.5118 77.2558 12.5271 77.1097 12.5578C76.9637 12.5884 76.8152 12.6343 76.6645 12.6956C76.5137 12.7568 76.3617 12.8334 76.2074 12.9253C76.0531 13.0172 75.8976 13.1244 75.7398 13.2469C75.5819 13.3694 75.4276 13.5143 75.278 13.6815C75.1284 13.8488 74.9824 14.0396 74.841 14.2517C74.6996 14.4637 74.5618 14.6993 74.4299 14.9573C74.2968 15.2152 74.1684 15.4956 74.0435 15.7983V17.9823V20.1662V22.3501V24.5341H73.749H73.4545H73.16H72.8656V21.3288V18.1236V14.9125V11.7061H72.8597Z" fill="black"/>
<path d="M86.2436 6.38999C86.1765 6.35465 86.1093 6.32167 86.0434 6.29104C85.9774 6.26041 85.9114 6.23332 85.8455 6.20976C85.7795 6.18385 85.7147 6.16264 85.6499 6.1438C85.5851 6.12495 85.5203 6.10846 85.4556 6.0955C85.3908 6.08254 85.326 6.07076 85.2624 6.06016C85.1988 6.04956 85.134 6.04131 85.0715 6.03542C85.0079 6.02836 84.9443 6.02364 84.8819 6.02011C84.8195 6.01658 84.7559 6.0154 84.6934 6.0154C84.5238 6.0154 84.366 6.03071 84.2187 6.06252C84.0715 6.09432 83.9348 6.14144 83.8088 6.20505C83.6827 6.26866 83.5685 6.34758 83.4636 6.443C83.36 6.53841 83.2657 6.64914 83.1833 6.77636C83.1008 6.90358 83.029 7.04258 82.9665 7.19571C82.9053 7.34885 82.8535 7.51494 82.8122 7.69399C82.771 7.87304 82.7404 8.06504 82.7203 8.27119C82.7003 8.47615 82.6897 8.69525 82.6897 8.92613V9.62113V10.3161V11.0111V11.7061H83.4307H84.1716H84.9125H85.6535V11.9594V12.2126V12.4659V12.7192H84.9125H84.1716H83.4307H82.6897V15.6711V18.6231V21.575V24.527H82.3952H82.1007H81.8062H81.5118V21.575V18.6231V15.6711V12.7192H81.0712H80.6306H80.1901H79.7495V12.493V12.2668V12.0395V11.8121L80.1901 11.785L80.6306 11.7579L81.0712 11.7308L81.5118 11.7038V10.9911V10.2772V9.56223V8.84721C81.5118 8.5268 81.5294 8.22642 81.5636 7.94607C81.5977 7.66572 81.6496 7.40539 81.7191 7.16508C81.7886 6.92478 81.8746 6.7045 81.9782 6.50307C82.0819 6.30282 82.2032 6.12142 82.341 5.96121C82.4789 5.80101 82.6308 5.66083 82.7981 5.54068C82.9654 5.42053 83.1468 5.3204 83.3423 5.2403C83.5378 5.1602 83.7487 5.10013 83.9737 5.06008C84.1987 5.02003 84.4378 5 84.6922 5C84.8477 5 85.0044 5.00942 85.1599 5.02709C85.3154 5.04476 85.4721 5.07186 85.6275 5.10719C85.783 5.14253 85.9397 5.1873 86.0952 5.24148C86.2507 5.29567 86.4074 5.35692 86.5628 5.42878L86.4827 5.66908L86.4038 5.9082L86.3237 6.14851L86.2436 6.38999Z" fill="black"/>
<path d="M87.0152 18.1449C87.0152 17.8775 87.0246 17.6171 87.0446 17.3639C87.0646 17.1106 87.0929 16.8644 87.133 16.6253C87.1718 16.3862 87.2213 16.1541 87.279 15.9279C87.3379 15.703 87.4051 15.4839 87.484 15.273C87.5617 15.061 87.6466 14.8584 87.7373 14.664C87.828 14.4696 87.9269 14.2835 88.0317 14.1068C88.1366 13.9301 88.2473 13.7617 88.3663 13.6015C88.4841 13.4413 88.6089 13.2905 88.7409 13.148C88.8728 13.0054 89.0094 12.8711 89.1508 12.7451C89.2922 12.6191 89.4394 12.5013 89.5925 12.3929C89.7445 12.2833 89.9023 12.1832 90.0661 12.0902C90.2298 11.9971 90.3971 11.9135 90.5714 11.8381C90.7458 11.7627 90.9213 11.6967 91.0991 11.6402C91.277 11.5836 91.4572 11.5365 91.6398 11.4988C91.8224 11.4611 92.0073 11.4329 92.1946 11.414C92.3819 11.3952 92.5704 11.3857 92.7624 11.3857C92.9544 11.3857 93.1429 11.3952 93.3314 11.414C93.5187 11.4329 93.7048 11.4611 93.8885 11.4988C94.0723 11.5365 94.2537 11.5836 94.4328 11.6402C94.6118 11.6967 94.7897 11.7627 94.9652 11.8381C95.1407 11.9135 95.3115 11.9983 95.4764 12.0902C95.6413 12.182 95.8004 12.2833 95.9547 12.3929C96.109 12.5024 96.2562 12.6191 96.3988 12.7451C96.5413 12.8711 96.6779 13.0054 96.8099 13.148C96.9406 13.2905 97.0655 13.4413 97.1833 13.6015C97.3011 13.7617 97.4118 13.9301 97.5167 14.1068C97.6215 14.2835 97.7193 14.4696 97.81 14.664C97.9007 14.8584 97.9855 15.061 98.0632 15.273C98.141 15.485 98.2093 15.703 98.2682 15.9279C98.3271 16.1529 98.3754 16.385 98.4143 16.6253C98.4531 16.8644 98.4826 17.1106 98.5014 17.3639C98.5203 17.6171 98.5309 17.8775 98.5309 18.1449C98.5309 18.4123 98.5215 18.6714 98.5014 18.9235C98.4814 19.1756 98.4531 19.4206 98.4143 19.6574C98.3754 19.8941 98.3271 20.1238 98.2682 20.3453C98.2093 20.5667 98.141 20.7811 98.0632 20.9884C97.9855 21.1958 97.9007 21.3948 97.81 21.5857C97.7193 21.7765 97.6203 21.9591 97.5167 22.1346C97.413 22.3101 97.3011 22.4762 97.1833 22.6352C97.0655 22.7943 96.9406 22.945 96.8099 23.0876C96.6779 23.2301 96.5413 23.3644 96.3988 23.4904C96.2562 23.6165 96.1078 23.7331 95.9547 23.8426C95.8004 23.9522 95.6413 24.0523 95.4764 24.1442C95.3115 24.2361 95.1407 24.3209 94.9652 24.3963C94.7897 24.4717 94.6118 24.5388 94.4328 24.5954C94.2537 24.6519 94.0711 24.699 93.8885 24.7379C93.706 24.7768 93.5198 24.8039 93.3314 24.8227C93.1441 24.8415 92.9544 24.851 92.7624 24.851C92.5704 24.851 92.3819 24.8415 92.1946 24.8227C92.0073 24.8039 91.8224 24.7756 91.6398 24.7379C91.4572 24.7002 91.277 24.6531 91.0991 24.5954C90.9213 24.5388 90.7446 24.4717 90.5714 24.3963C90.3971 24.3209 90.2286 24.2373 90.0661 24.1442C89.9035 24.0511 89.7457 23.951 89.5925 23.8426C89.4406 23.7331 89.2933 23.6165 89.1508 23.4904C89.0094 23.3644 88.8728 23.2301 88.7409 23.0876C88.6089 22.945 88.4853 22.7943 88.3663 22.6352C88.2485 22.4762 88.1366 22.3101 88.0317 22.1346C87.9269 21.9591 87.8291 21.7765 87.7373 21.5857C87.6466 21.3948 87.5617 21.1958 87.484 20.9884C87.4062 20.7811 87.3379 20.5667 87.279 20.3453C87.2201 20.1238 87.1718 19.8941 87.133 19.6574C87.0941 19.4206 87.0646 19.1756 87.0446 18.9235C87.0246 18.6714 87.0152 18.4123 87.0152 18.1449ZM88.245 18.1449C88.245 18.3545 88.252 18.5583 88.2662 18.7586C88.2803 18.9588 88.3027 19.1544 88.3309 19.3464C88.3604 19.5384 88.3957 19.7245 88.4393 19.9071C88.4829 20.0897 88.5336 20.2675 88.5913 20.4419C88.649 20.615 88.7126 20.7823 88.7809 20.9437C88.8492 21.1051 88.9235 21.2606 89.0024 21.409C89.0813 21.5574 89.1661 21.7011 89.2556 21.8378C89.3452 21.9744 89.4406 22.1052 89.5407 22.23C89.6408 22.3549 89.7457 22.4727 89.8552 22.5834C89.9648 22.6941 90.079 22.7978 90.198 22.8956C90.317 22.9922 90.4407 23.0829 90.5691 23.1653C90.6975 23.2478 90.8306 23.3243 90.9684 23.3927C91.1062 23.4622 91.2476 23.5222 91.3913 23.5741C91.535 23.6259 91.6811 23.6683 91.8307 23.7036C91.9803 23.7378 92.1322 23.7637 92.2865 23.7814C92.4408 23.7991 92.5987 23.8073 92.7589 23.8073C92.9191 23.8073 93.0769 23.7991 93.2324 23.7814C93.3879 23.7637 93.5399 23.7378 93.6906 23.7036C93.8403 23.6695 93.9887 23.6259 94.1336 23.5741C94.2784 23.5222 94.421 23.4622 94.5612 23.3927C94.7013 23.3232 94.8368 23.2478 94.9664 23.1653C95.0971 23.0829 95.222 22.9922 95.3421 22.8956C95.4623 22.799 95.5777 22.6953 95.6885 22.5834C95.7992 22.4727 95.904 22.3549 96.0053 22.23C96.1055 22.1052 96.2009 21.9744 96.2892 21.8378C96.3776 21.7011 96.4624 21.5574 96.5413 21.409C96.6202 21.2606 96.6933 21.1039 96.7616 20.9437C96.8299 20.7823 96.8923 20.615 96.9512 20.4419C97.009 20.2675 97.0608 20.0897 97.1044 19.9071C97.1479 19.7245 97.1845 19.5372 97.2127 19.3464C97.241 19.1555 97.2634 18.9588 97.2775 18.7586C97.2917 18.5583 97.2987 18.3534 97.2987 18.1449C97.2987 17.9305 97.2917 17.722 97.2775 17.5182C97.2634 17.3144 97.241 17.1153 97.2127 16.9221C97.1845 16.729 97.1479 16.5393 97.1044 16.3555C97.0608 16.1718 97.0101 15.9927 96.9512 15.8196C96.8935 15.6464 96.8299 15.4791 96.7616 15.3166C96.6933 15.154 96.6202 14.9985 96.5413 14.8489C96.4624 14.6982 96.3787 14.5544 96.2892 14.4154C96.1997 14.2764 96.1055 14.1445 96.0053 14.0173C95.9052 13.8901 95.7992 13.7699 95.6885 13.658C95.5777 13.5449 95.4623 13.4401 95.3421 13.3423C95.222 13.2446 95.0971 13.1539 94.9664 13.0702C94.8356 12.9866 94.7013 12.9112 94.5612 12.8417C94.421 12.7722 94.2784 12.7121 94.1336 12.6603C93.9887 12.6085 93.8403 12.5661 93.6906 12.5307C93.541 12.4966 93.3879 12.4706 93.2324 12.453C93.0769 12.4353 92.9191 12.4271 92.7589 12.4271C92.5987 12.4271 92.4408 12.4353 92.2865 12.453C92.1322 12.4706 91.9791 12.4966 91.8307 12.5307C91.6811 12.5649 91.535 12.6085 91.3913 12.6603C91.2476 12.7121 91.1062 12.7722 90.9684 12.8417C90.8306 12.9112 90.6975 12.9866 90.5691 13.0702C90.4407 13.1539 90.317 13.2446 90.198 13.3423C90.079 13.4401 89.9648 13.5449 89.8552 13.658C89.7457 13.7711 89.6408 13.8901 89.5407 14.0173C89.4406 14.1445 89.3452 14.2764 89.2556 14.4154C89.1661 14.5544 89.0813 14.6982 89.0024 14.8489C88.9235 14.9997 88.8492 15.1552 88.7809 15.3166C88.7126 15.478 88.649 15.6464 88.5913 15.8196C88.5336 15.9939 88.4829 16.1718 88.4393 16.3555C88.3957 16.5393 88.3604 16.7278 88.3309 16.9221C88.3015 17.1165 88.2803 17.3144 88.2662 17.5182C88.252 17.722 88.245 17.9316 88.245 18.1449Z" fill="black"/>
<path d="M102.378 11.7061H102.633H102.887H103.141H103.396L103.423 12.301L103.45 12.8958L103.477 13.4907L103.504 14.0856H103.524H103.544H103.564H103.584C103.691 13.8853 103.803 13.6945 103.922 13.5131C104.041 13.3317 104.165 13.1597 104.296 12.9972C104.427 12.8346 104.562 12.6815 104.705 12.5377C104.847 12.394 104.994 12.2597 105.149 12.1349C105.302 12.01 105.46 11.9017 105.623 11.8086C105.786 11.7155 105.954 11.6378 106.126 11.5754C106.298 11.5129 106.476 11.4658 106.659 11.4352C106.841 11.4046 107.027 11.3881 107.219 11.3881C107.282 11.3881 107.342 11.3892 107.401 11.3916C107.46 11.394 107.518 11.3975 107.573 11.401C107.628 11.4057 107.682 11.4104 107.735 11.4175C107.787 11.4246 107.838 11.4316 107.887 11.4411C107.937 11.4505 107.986 11.4623 108.036 11.4752C108.086 11.4882 108.137 11.5047 108.188 11.5223C108.238 11.54 108.291 11.56 108.343 11.5824C108.395 11.6048 108.448 11.6284 108.502 11.6555L108.435 11.9229L108.368 12.1902L108.301 12.4576L108.234 12.725C108.181 12.7027 108.129 12.6826 108.079 12.665C108.03 12.6473 107.98 12.6308 107.935 12.6155C107.887 12.6014 107.843 12.5884 107.799 12.5778C107.755 12.5672 107.714 12.5578 107.674 12.5507C107.634 12.5436 107.592 12.5389 107.546 12.533C107.5 12.5283 107.452 12.5236 107.401 12.5213C107.35 12.5177 107.296 12.5154 107.24 12.5142C107.183 12.513 107.124 12.5118 107.062 12.5118C106.919 12.5118 106.774 12.5271 106.628 12.5578C106.482 12.5884 106.334 12.6343 106.183 12.6956C106.032 12.7568 105.88 12.8334 105.726 12.9253C105.572 13.0172 105.416 13.1244 105.258 13.2469C105.1 13.3694 104.946 13.5143 104.796 13.6815C104.647 13.8488 104.501 14.0396 104.359 14.2517C104.218 14.4637 104.08 14.6993 103.948 14.9573C103.815 15.2152 103.687 15.4956 103.562 15.7983V17.9823V20.1662V22.3501V24.5341H103.267H102.973H102.678H102.384V21.3288V18.1236V14.9125V11.7061H102.378Z" fill="black"/>
<path d="M110.846 11.7061H111.101H111.355H111.61H111.864L111.891 12.2008L111.918 12.6956L111.945 13.1903L111.973 13.685H111.993H112.013H112.033H112.053C112.195 13.5201 112.342 13.3623 112.493 13.2115C112.644 13.0607 112.798 12.917 112.958 12.7792C113.118 12.6425 113.281 12.5118 113.449 12.3893C113.616 12.2668 113.788 12.1502 113.964 12.0418C114.14 11.9322 114.317 11.8368 114.492 11.7555C114.669 11.6743 114.846 11.6059 115.022 11.5506C115.199 11.4964 115.377 11.4552 115.555 11.4281C115.733 11.401 115.91 11.3868 116.089 11.3868C116.347 11.3868 116.59 11.401 116.819 11.4304C117.047 11.4599 117.26 11.5035 117.458 11.5624C117.656 11.6213 117.84 11.6955 118.007 11.7838C118.176 11.8722 118.329 11.9758 118.467 12.0936C118.604 12.2114 118.733 12.3398 118.851 12.4788C118.968 12.6178 119.077 12.7662 119.175 12.9253C119.272 13.0843 119.361 13.2539 119.438 13.4341C119.516 13.6144 119.584 13.804 119.642 14.0043C119.83 13.804 120.016 13.6144 120.199 13.4341C120.383 13.2539 120.567 13.0843 120.748 12.9253C120.93 12.7662 121.11 12.6166 121.289 12.4788C121.468 12.3398 121.645 12.2114 121.821 12.0936C121.997 11.9758 122.174 11.8722 122.353 11.7838C122.532 11.6955 122.711 11.6213 122.893 11.5624C123.076 11.5035 123.257 11.4587 123.442 11.4304C123.626 11.401 123.812 11.3868 123.998 11.3868C124.639 11.3868 125.201 11.4893 125.682 11.6943C126.162 11.8993 126.564 12.2067 126.884 12.6154C127.205 13.0242 127.446 13.5366 127.606 14.1515C127.767 14.7664 127.847 15.4826 127.847 16.3025V18.3592V20.4159V22.4726V24.5293H127.545H127.245H126.943H126.642V22.5126V20.496V18.4793V16.4627C126.642 16.1199 126.627 15.7995 126.598 15.5014C126.569 15.2034 126.526 14.9278 126.468 14.6757C126.411 14.4224 126.339 14.1927 126.252 13.9842C126.165 13.7769 126.064 13.5908 125.949 13.4282C125.834 13.2657 125.7 13.1243 125.553 13.0018C125.405 12.8805 125.241 12.778 125.061 12.6967C124.881 12.6154 124.684 12.5542 124.472 12.5141C124.26 12.4741 124.031 12.4529 123.786 12.4529C123.496 12.4529 123.198 12.5035 122.893 12.6037C122.588 12.7038 122.275 12.8546 121.955 13.0548C121.634 13.2551 121.305 13.506 120.97 13.8064C120.634 14.1067 120.29 14.4578 119.938 14.8583V17.2766V19.695V22.1133V24.5317H119.643H119.349H119.054H118.76V22.515V20.496V18.4793V16.4627C118.76 16.1199 118.746 15.7995 118.716 15.5014C118.687 15.2034 118.644 14.9278 118.587 14.6757C118.529 14.4224 118.457 14.1927 118.37 13.9842C118.283 13.7769 118.183 13.5908 118.067 13.4282C117.952 13.2657 117.819 13.1243 117.669 13.0018C117.52 12.8805 117.353 12.778 117.171 12.6967C116.988 12.6154 116.789 12.5542 116.572 12.5141C116.357 12.4729 116.124 12.4529 115.875 12.4529C115.585 12.4529 115.288 12.5035 114.983 12.6037C114.678 12.7038 114.366 12.8546 114.046 13.0548C113.725 13.2551 113.397 13.506 113.061 13.8064C112.725 14.1067 112.381 14.4578 112.029 14.8583V17.2766V19.695V22.1133V24.5317H111.735H111.44H111.146H110.851V21.3264V18.1212V14.9125V11.7061H110.846Z" fill="black"/>
</svg>
