<svg width="30" height="30" viewBox="0 0 30 30" fill="none" xmlns="http://www.w3.org/2000/svg">
<rect width="30" height="30" fill="white"/>
<path d="M30 30H22.5H15H7.5H0V22.5003V15.0005V7.49975V0H7.5H15H22.5H30V7.49975V14.9995V22.4992V30ZM0.252287 29.7477H7.62614H15H22.3739H29.7477V22.3741V15.0005V7.62589V0.252279H22.3739H15H7.62614H0.252287V7.62589V14.9995V22.3731V29.7477Z" fill="#4D4D4D"/>
<path d="M7.06 19.163H7.123H7.186H7.249H7.312L7.313 19.154L7.314 19.145L7.315 19.136L7.316 19.127C7.366 18.488 7.492 17.866 7.686 17.274C7.88 16.682 8.143 16.119 8.468 15.597C8.793 15.075 9.178 14.594 9.618 14.165C10.058 13.736 10.552 13.36 11.093 13.048C11.385 12.879 11.688 12.73 11.999 12.602C12.31 12.474 12.628 12.366 12.952 12.279C13.276 12.192 13.606 12.126 13.939 12.082C14.272 12.038 14.608 12.016 14.946 12.016C15.284 12.016 15.62 12.038 15.953 12.082C16.286 12.126 16.616 12.192 16.94 12.279C17.264 12.366 17.582 12.474 17.893 12.602C18.203 12.73 18.506 12.879 18.799 13.048C19.34 13.36 19.834 13.737 20.274 14.165C20.714 14.594 21.099 15.075 21.424 15.597C21.749 16.119 22.011 16.682 22.206 17.274C22.4 17.866 22.526 18.488 22.576 19.127L22.577 19.136L22.578 19.145L22.579 19.154L22.58 19.163H22.643H22.706H22.769H22.832C22.785 18.512 22.659 17.875 22.461 17.265C22.263 16.655 21.992 16.072 21.656 15.53C21.32 14.988 20.918 14.485 20.458 14.036C19.998 13.587 19.479 13.191 18.909 12.862C18.609 12.688 18.298 12.535 17.978 12.403C17.658 12.271 17.332 12.16 16.999 12.071C16.666 11.982 16.327 11.914 15.985 11.869C15.643 11.824 15.297 11.801 14.949 11.801C14.601 11.801 14.256 11.824 13.913 11.869C13.57 11.914 13.232 11.982 12.899 12.071C12.566 12.16 12.239 12.271 11.92 12.403C11.601 12.535 11.29 12.688 10.989 12.862C10.419 13.191 9.901 13.587 9.44 14.036C8.98 14.485 8.578 14.987 8.242 15.53C7.906 16.073 7.635 16.655 7.437 17.265C7.233 17.875 7.107 18.512 7.06 19.163Z" fill="#4D4D4D"/>
<path d="M14.942 6.221C14.932 6.221 14.924 6.222 14.916 6.224C14.908 6.226 14.901 6.229 14.895 6.232C14.889 6.235 14.883 6.239 14.878 6.242C14.873 6.245 14.869 6.25 14.865 6.254C14.861 6.258 14.858 6.262 14.854 6.267C14.85 6.272 14.847 6.278 14.844 6.284C14.841 6.29 14.839 6.297 14.837 6.305C14.835 6.313 14.835 6.321 14.835 6.331V6.887V7.443V7.999V8.555C14.835 8.566 14.836 8.576 14.838 8.584C14.84 8.592 14.842 8.6 14.845 8.607C14.848 8.614 14.851 8.62 14.855 8.625C14.859 8.63 14.862 8.634 14.866 8.638C14.87 8.642 14.874 8.646 14.879 8.649C14.884 8.652 14.889 8.656 14.896 8.659C14.903 8.662 14.909 8.665 14.917 8.667C14.925 8.669 14.933 8.67 14.942 8.67C14.957 8.67 14.971 8.667 14.984 8.662C14.997 8.657 15.009 8.649 15.019 8.639C15.029 8.629 15.037 8.618 15.042 8.605C15.047 8.592 15.051 8.578 15.051 8.564V8.008V7.452V6.896V6.34C15.051 6.323 15.048 6.308 15.043 6.294C15.038 6.28 15.03 6.268 15.02 6.257C15.01 6.246 14.999 6.238 14.986 6.233C14.973 6.228 14.959 6.224 14.944 6.224V6.168V6.112V6.056V6V6.056V6.112V6.168L14.942 6.221Z" fill="#4D4D4D"/>
<path d="M23.31 9.01203C23.303 9.01203 23.296 9.01303 23.289 9.01503C23.282 9.01703 23.276 9.01903 23.27 9.02103C23.264 9.02303 23.258 9.02703 23.252 9.03103C23.246 9.03503 23.241 9.03903 23.236 9.04503L22.819 9.46203L22.402 9.87903L21.985 10.295L21.568 10.712C21.56 10.72 21.553 10.728 21.548 10.736C21.543 10.744 21.539 10.751 21.536 10.758C21.533 10.765 21.531 10.772 21.53 10.778C21.529 10.784 21.528 10.79 21.528 10.795C21.528 10.8 21.528 10.806 21.529 10.812C21.53 10.818 21.531 10.825 21.533 10.831C21.535 10.837 21.538 10.845 21.542 10.851C21.546 10.857 21.551 10.865 21.558 10.871C21.565 10.878 21.571 10.883 21.578 10.888C21.585 10.892 21.592 10.896 21.599 10.898C21.606 10.9 21.612 10.902 21.619 10.903C21.625 10.904 21.631 10.904 21.636 10.904C21.641 10.904 21.646 10.904 21.652 10.903C21.658 10.902 21.664 10.901 21.671 10.898C21.678 10.895 21.684 10.893 21.691 10.889C21.698 10.885 21.704 10.88 21.711 10.874L22.129 10.456L22.547 10.038L22.965 9.62003L23.383 9.20203C23.395 9.19103 23.404 9.17803 23.41 9.16403C23.416 9.15003 23.419 9.13603 23.42 9.12203C23.421 9.10803 23.418 9.09403 23.413 9.08103C23.408 9.06803 23.4 9.05603 23.39 9.04503C23.385 9.04003 23.379 9.03503 23.373 9.03103C23.367 9.02703 23.361 9.02403 23.354 9.02103C23.347 9.01803 23.341 9.01603 23.333 9.01503C23.326 9.01403 23.319 9.01303 23.312 9.01303V8.95803V8.90303V8.84803V8.79303V8.84803V8.90303V8.95803L23.31 9.01203Z" fill="#4D4D4D"/>
<path d="M5.90601 9.11899C5.90601 9.12599 5.90701 9.13399 5.90801 9.14099C5.90901 9.14799 5.91201 9.15499 5.91401 9.16199C5.91601 9.16899 5.92001 9.17499 5.92401 9.18099C5.92801 9.18699 5.93301 9.19299 5.93801 9.19799L6.35501 9.61499L6.77201 10.032L7.18901 10.449L7.60601 10.866C7.61401 10.875 7.62201 10.881 7.63001 10.887C7.63801 10.893 7.64501 10.896 7.65301 10.899C7.66101 10.902 7.66701 10.904 7.67301 10.905C7.67901 10.906 7.68501 10.906 7.69001 10.906C7.69501 10.906 7.70001 10.906 7.70601 10.905C7.71201 10.904 7.71801 10.903 7.72501 10.9C7.73201 10.897 7.73801 10.895 7.74501 10.891C7.75201 10.887 7.75801 10.882 7.76501 10.876C7.77601 10.866 7.78401 10.854 7.78901 10.841C7.79401 10.828 7.79701 10.814 7.79801 10.8C7.79901 10.786 7.79601 10.772 7.79101 10.759C7.78601 10.746 7.77801 10.734 7.76801 10.723L7.35001 10.305L6.93201 9.88699L6.51501 9.46699L6.09701 9.04899C6.09101 9.04199 6.08401 9.03699 6.07701 9.03199C6.07001 9.02699 6.06301 9.02299 6.05701 9.01999C6.05101 9.01699 6.04301 9.01499 6.03601 9.01299C6.02901 9.01099 6.02201 9.01099 6.01401 9.01099C5.99901 9.01099 5.98501 9.01399 5.97201 9.01899C5.95901 9.02399 5.94701 9.03199 5.93801 9.04199C5.92901 9.05199 5.92001 9.06299 5.91501 9.07599C5.91001 9.08899 5.90601 9.10399 5.90601 9.11899Z" fill="#4D4D4D"/>
<path d="M26.106 19.613H20.527H14.948H9.36899H3.78999H3.78799H3.78599H3.78399H3.78199C3.76699 19.613 3.75299 19.616 3.74099 19.621C3.72799 19.626 3.71699 19.634 3.70699 19.644C3.69699 19.654 3.68899 19.665 3.68399 19.678C3.67799 19.691 3.67499 19.705 3.67499 19.719C3.67499 19.734 3.67799 19.748 3.68299 19.761C3.68799 19.774 3.69599 19.786 3.70599 19.796C3.71599 19.806 3.72699 19.814 3.73999 19.82C3.75299 19.826 3.76699 19.829 3.78199 19.829H9.36099H14.94H20.519H26.098C26.115 19.829 26.13 19.826 26.145 19.821C26.159 19.816 26.171 19.808 26.182 19.798C26.193 19.788 26.201 19.777 26.206 19.764C26.212 19.751 26.215 19.737 26.215 19.723C26.215 19.708 26.212 19.694 26.207 19.681C26.202 19.668 26.194 19.656 26.184 19.646C26.174 19.636 26.163 19.628 26.15 19.622C26.135 19.617 26.121 19.614 26.106 19.613Z" fill="#4D4D4D"/>
<path d="M14.941 14.592C14.934 14.592 14.927 14.593 14.921 14.594C14.914 14.595 14.908 14.597 14.902 14.6C14.896 14.603 14.89 14.606 14.884 14.61C14.878 14.614 14.873 14.618 14.868 14.623L14.312 15.179L13.756 15.735L13.2 16.291L12.644 16.847C12.636 16.855 12.629 16.863 12.624 16.87C12.619 16.877 12.615 16.885 12.612 16.892C12.609 16.899 12.607 16.906 12.606 16.912C12.605 16.918 12.604 16.924 12.604 16.929C12.604 16.934 12.604 16.94 12.605 16.946C12.606 16.952 12.607 16.959 12.609 16.965C12.611 16.971 12.614 16.979 12.618 16.985C12.622 16.991 12.627 16.999 12.633 17.005C12.64 17.012 12.646 17.017 12.653 17.022C12.66 17.026 12.667 17.03 12.674 17.032C12.681 17.034 12.687 17.036 12.694 17.037C12.7 17.038 12.706 17.038 12.711 17.038C12.716 17.038 12.721 17.038 12.727 17.037C12.733 17.036 12.739 17.035 12.746 17.033C12.753 17.031 12.759 17.028 12.766 17.024C12.773 17.02 12.779 17.015 12.786 17.009L13.246 16.549L13.706 16.089L14.166 15.629L14.626 15.169L14.706 15.089L14.786 15.009L14.866 14.929L14.946 14.849L15.026 14.929L15.106 15.009L15.186 15.089L15.266 15.169L15.724 15.627L16.182 16.085L16.64 16.543L17.098 17.001C17.106 17.01 17.114 17.016 17.122 17.022C17.13 17.027 17.137 17.031 17.144 17.034C17.151 17.037 17.158 17.039 17.164 17.04C17.17 17.041 17.176 17.041 17.181 17.041C17.186 17.041 17.191 17.041 17.197 17.04C17.203 17.039 17.209 17.038 17.216 17.035C17.223 17.032 17.229 17.03 17.236 17.026C17.243 17.022 17.249 17.017 17.256 17.011C17.267 17.001 17.275 16.989 17.28 16.976C17.285 16.963 17.288 16.949 17.289 16.936C17.29 16.923 17.287 16.908 17.282 16.895C17.277 16.882 17.269 16.87 17.259 16.859L16.7 16.3L16.141 15.741L15.582 15.182L15.023 14.623C15.018 14.618 15.012 14.613 15.007 14.61C15.002 14.607 14.995 14.603 14.988 14.6C14.981 14.597 14.975 14.595 14.968 14.594C14.961 14.593 14.954 14.592 14.947 14.592V14.536V14.48V14.424V14.368V14.424V14.48V14.536L14.941 14.592Z" fill="#4D4D4D"/>
<path d="M27.78 16.265H27.223H26.666H26.109H25.552H25.55H25.548H25.546H25.544C25.529 16.265 25.515 16.268 25.503 16.273C25.49 16.278 25.479 16.286 25.469 16.296C25.459 16.306 25.451 16.317 25.446 16.33C25.44 16.343 25.437 16.357 25.437 16.371C25.437 16.386 25.44 16.4 25.445 16.413C25.45 16.426 25.458 16.438 25.468 16.448C25.478 16.458 25.489 16.466 25.502 16.472C25.515 16.478 25.529 16.481 25.544 16.481H26.101H26.658H27.215H27.772C27.789 16.481 27.804 16.478 27.819 16.473C27.833 16.468 27.845 16.46 27.856 16.45C27.867 16.44 27.875 16.429 27.88 16.416C27.886 16.403 27.889 16.389 27.889 16.375C27.889 16.36 27.886 16.346 27.881 16.333C27.876 16.32 27.868 16.308 27.858 16.298C27.848 16.288 27.837 16.28 27.824 16.274C27.809 16.268 27.795 16.265 27.78 16.265Z" fill="#4D4D4D"/>
<path d="M4.333 16.481C4.35 16.481 4.366 16.478 4.38 16.473C4.394 16.468 4.406 16.46 4.417 16.45C4.428 16.44 4.436 16.429 4.441 16.416C4.447 16.403 4.45 16.389 4.45 16.375C4.45 16.36 4.447 16.346 4.442 16.333C4.437 16.32 4.429 16.308 4.419 16.298C4.409 16.288 4.398 16.28 4.385 16.274C4.372 16.268 4.358 16.265 4.343 16.265H3.786H3.229H2.672H2.115H2.113H2.111H2.109H2.107C2.092 16.265 2.078 16.268 2.066 16.273C2.053 16.278 2.042 16.286 2.032 16.296C2.022 16.306 2.014 16.317 2.009 16.33C2.003 16.343 2 16.357 2 16.371C2 16.386 2.003 16.4 2.008 16.413C2.013 16.426 2.021 16.438 2.031 16.448C2.041 16.458 2.052 16.466 2.065 16.472C2.078 16.478 2.092 16.481 2.107 16.481H2.664H3.221H3.778H4.333Z" fill="#4D4D4D"/>
</svg>
