<svg width="30" height="30" viewBox="0 0 30 30" fill="none" xmlns="http://www.w3.org/2000/svg">
<rect width="30" height="30" fill="white"/>
<path d="M30 30H22.5H15H7.5H0V22.5003V15.0005V7.49975V0H7.5H15H22.5H30V7.49975V14.9995V22.4992V30ZM0.252287 29.7477H7.62614H15H22.3739H29.7477V22.3741V15.0005V7.62589V0.252279H22.3739H15H7.62614H0.252287V7.62589V14.9995V22.3731V29.7477Z" fill="#4D4D4D"/>
<path d="M21.67 26.375H18.443H15.216H11.989H8.763C8.747 26.375 8.731 26.378 8.717 26.384C8.703 26.39 8.69 26.399 8.68 26.409C8.67 26.419 8.661 26.432 8.655 26.446C8.649 26.46 8.646 26.476 8.646 26.492C8.646 26.508 8.649 26.524 8.655 26.538C8.661 26.552 8.67 26.565 8.68 26.575C8.69 26.585 8.703 26.594 8.717 26.6C8.731 26.606 8.747 26.609 8.763 26.609H11.99H15.217H18.444H21.671C21.687 26.609 21.703 26.606 21.717 26.6C21.731 26.594 21.744 26.585 21.754 26.575C21.764 26.565 21.773 26.552 21.779 26.538C21.785 26.524 21.788 26.508 21.788 26.492C21.788 26.476 21.785 26.46 21.779 26.446C21.773 26.432 21.765 26.419 21.754 26.409C21.743 26.399 21.731 26.39 21.717 26.384C21.703 26.378 21.686 26.375 21.67 26.375Z" fill="#4D4D4D"/>
<path d="M23.284 24.257H19.25H15.216H11.182H7.14901C7.13301 24.257 7.11701 24.26 7.10301 24.266C7.08901 24.272 7.07601 24.281 7.06601 24.291C7.05601 24.301 7.04701 24.314 7.04101 24.328C7.03501 24.342 7.03201 24.358 7.03201 24.374C7.03201 24.39 7.03501 24.406 7.04101 24.42C7.04701 24.434 7.05501 24.448 7.06601 24.458C7.07701 24.468 7.08901 24.477 7.10301 24.483C7.11701 24.489 7.13301 24.492 7.14901 24.492H11.182H15.215H19.248H23.281C23.297 24.492 23.313 24.489 23.327 24.483C23.341 24.477 23.354 24.468 23.364 24.458C23.374 24.448 23.383 24.435 23.389 24.421C23.395 24.407 23.398 24.391 23.398 24.375C23.398 24.359 23.395 24.343 23.389 24.329C23.383 24.315 23.375 24.302 23.364 24.292C23.353 24.282 23.341 24.273 23.327 24.267C23.315 24.261 23.3 24.257 23.284 24.257Z" fill="#4D4D4D"/>
<path d="M25.301 22.374C25.317 22.374 25.333 22.371 25.347 22.365C25.361 22.359 25.374 22.35 25.384 22.34C25.394 22.33 25.403 22.317 25.409 22.303C25.415 22.289 25.418 22.273 25.418 22.257C25.418 22.241 25.415 22.225 25.409 22.211C25.403 22.197 25.394 22.184 25.383 22.174C25.372 22.164 25.359 22.155 25.345 22.149C25.331 22.143 25.315 22.14 25.299 22.14H20.257H15.215H10.175H5.13299C5.11699 22.14 5.10099 22.143 5.08699 22.149C5.07299 22.155 5.05999 22.164 5.04999 22.174C5.03999 22.184 5.03099 22.197 5.02499 22.211C5.01899 22.225 5.01599 22.241 5.01599 22.257C5.01599 22.273 5.01899 22.289 5.02499 22.303C5.03099 22.317 5.03999 22.33 5.04999 22.34C5.05999 22.35 5.07299 22.359 5.08699 22.365C5.10099 22.371 5.11699 22.374 5.13299 22.374H10.175H15.217H20.259H25.301Z" fill="#4D4D4D"/>
<path d="M27.317 19.922H26.219H25.121H24.023H22.925H22.823H22.721H22.619H22.517L22.548 19.825L22.579 19.728L22.61 19.631L22.641 19.534C22.701 19.344 22.753 19.152 22.798 18.96C22.843 18.768 22.881 18.575 22.911 18.381C22.941 18.187 22.964 17.994 22.979 17.8C22.994 17.606 23.002 17.412 23.002 17.218C23.002 16.145 22.784 15.123 22.39 14.192C21.996 13.261 21.425 12.423 20.721 11.718C20.017 11.013 19.178 10.443 18.247 10.049C17.316 9.65501 16.294 9.43701 15.221 9.43701C14.148 9.43701 13.126 9.65501 12.195 10.049C11.264 10.443 10.426 11.014 9.72099 11.718C9.01599 12.422 8.44599 13.261 8.05199 14.192C7.65799 15.123 7.43999 16.145 7.43999 17.218C7.43999 17.412 7.44799 17.606 7.46299 17.8C7.47799 17.994 7.50099 18.188 7.53099 18.381C7.56099 18.574 7.59899 18.768 7.64399 18.96C7.68899 19.152 7.74099 19.344 7.80099 19.534L7.83199 19.631L7.86299 19.728L7.89399 19.825L7.92499 19.922H7.81699H7.71499H7.61199H7.50999H6.41699H5.32299H4.22999H3.13699C3.12099 19.922 3.10499 19.925 3.09099 19.931C3.07699 19.937 3.06399 19.946 3.05399 19.956C3.04399 19.966 3.03499 19.979 3.02899 19.993C3.02299 20.007 3.01999 20.023 3.01999 20.039C3.01999 20.055 3.02299 20.071 3.02899 20.085C3.03499 20.099 3.04399 20.112 3.05399 20.122C3.06399 20.132 3.07699 20.141 3.09099 20.147C3.10499 20.153 3.11999 20.158 3.13699 20.158H4.37199H5.60799H6.84399H8.07999H12.889H17.698H22.507H27.316C27.332 20.158 27.348 20.155 27.362 20.149C27.376 20.143 27.389 20.134 27.399 20.124C27.409 20.114 27.418 20.101 27.424 20.087C27.43 20.073 27.433 20.057 27.433 20.041C27.433 20.025 27.43 20.009 27.424 19.995C27.418 19.981 27.41 19.968 27.399 19.958C27.388 19.948 27.376 19.939 27.362 19.933C27.348 19.927 27.333 19.922 27.317 19.922ZM22.256 19.923H22.203H22.15H22.097H22.044H18.631H15.218H11.805H8.39199H8.33899H8.28599H8.23299H8.17999L8.16199 19.873L8.14399 19.823L8.12599 19.773L8.10799 19.723C8.03499 19.518 7.97199 19.312 7.91699 19.105C7.86199 18.898 7.81699 18.689 7.77999 18.48C7.74299 18.271 7.71599 18.06 7.69799 17.85C7.67999 17.64 7.67199 17.428 7.67199 17.217C7.67199 16.177 7.88399 15.185 8.26599 14.283C8.64799 13.381 9.20199 12.567 9.88499 11.884C10.568 11.201 11.381 10.648 12.284 10.265C13.187 9.88201 14.178 9.67101 15.218 9.67101C16.258 9.67101 17.25 9.88301 18.152 10.265C19.054 10.647 19.868 11.201 20.551 11.884C21.234 12.567 21.787 13.38 22.17 14.283C22.552 15.185 22.764 16.177 22.764 17.217C22.764 17.427 22.755 17.638 22.737 17.848C22.719 18.058 22.691 18.268 22.655 18.478C22.619 18.688 22.573 18.896 22.518 19.104C22.463 19.312 22.4 19.518 22.327 19.724L22.309 19.774L22.291 19.824L22.273 19.874L22.256 19.923Z" fill="#4D4D4D"/>
<path d="M3.117 17.334H3.924H4.731H5.538H6.345C6.361 17.334 6.377 17.331 6.391 17.325C6.405 17.319 6.418 17.31 6.428 17.3C6.438 17.29 6.447 17.277 6.453 17.263C6.459 17.249 6.462 17.233 6.462 17.217C6.462 17.201 6.459 17.185 6.453 17.171C6.447 17.157 6.438 17.144 6.428 17.134C6.418 17.124 6.405 17.115 6.391 17.109C6.377 17.103 6.361 17.1 6.345 17.1H5.536H4.73H3.923H3.117C3.101 17.1 3.085 17.103 3.071 17.109C3.057 17.115 3.044 17.124 3.034 17.134C3.024 17.144 3.015 17.157 3.009 17.171C3.003 17.185 3 17.201 3 17.217C3 17.233 3.003 17.249 3.009 17.263C3.015 17.277 3.024 17.29 3.034 17.3C3.044 17.31 3.057 17.319 3.071 17.325C3.085 17.331 3.1 17.334 3.117 17.334Z" fill="#4D4D4D"/>
<path d="M5.078 13.244L5.545 13.432L6.012 13.62L6.479 13.808L6.946 13.996C6.949 13.996 6.952 13.997 6.955 13.997C6.958 13.997 6.961 13.997 6.964 13.998C6.967 13.999 6.97 13.998 6.972 13.998C6.974 13.998 6.977 13.998 6.98 13.998C6.995 13.998 7.009 13.997 7.021 13.994C7.033 13.991 7.045 13.987 7.055 13.982C7.065 13.977 7.073 13.97 7.081 13.961C7.089 13.952 7.094 13.943 7.099 13.931C7.103 13.921 7.105 13.912 7.107 13.903C7.109 13.894 7.108 13.886 7.108 13.878C7.108 13.87 7.106 13.863 7.104 13.857C7.102 13.851 7.1 13.846 7.099 13.841C7.097 13.837 7.095 13.832 7.091 13.826C7.087 13.82 7.083 13.815 7.078 13.809C7.073 13.803 7.067 13.797 7.059 13.792C7.051 13.787 7.043 13.782 7.033 13.778L6.566 13.59L6.099 13.402L5.632 13.214L5.165 13.026L5.154 13.024L5.143 13.022L5.132 13.019L5.122 13.017C5.113 13.017 5.103 13.018 5.092 13.021C5.081 13.024 5.071 13.028 5.061 13.034C5.051 13.04 5.041 13.047 5.033 13.057C5.025 13.067 5.017 13.078 5.011 13.092C5.005 13.107 5.002 13.122 5.003 13.137C5.004 13.152 5.007 13.167 5.013 13.181C5.019 13.195 5.028 13.207 5.039 13.218C5.05 13.229 5.062 13.238 5.078 13.244Z" fill="#4D4D4D"/>
<path d="M8.862 11.023C8.87 11.031 8.877 11.037 8.885 11.042C8.893 11.047 8.9 11.05 8.908 11.053C8.916 11.056 8.922 11.057 8.928 11.058C8.934 11.059 8.94 11.058 8.944 11.058C8.95 11.058 8.956 11.058 8.962 11.057C8.968 11.056 8.976 11.054 8.983 11.052C8.99 11.05 8.998 11.046 9.005 11.042C9.012 11.038 9.02 11.032 9.027 11.025C9.035 11.016 9.041 11.008 9.046 11.001C9.051 10.994 9.054 10.986 9.056 10.978C9.058 10.97 9.06 10.964 9.061 10.957C9.062 10.95 9.062 10.945 9.062 10.941C9.062 10.936 9.062 10.931 9.061 10.925C9.06 10.919 9.059 10.911 9.056 10.904C9.053 10.897 9.05 10.888 9.046 10.881C9.042 10.874 9.035 10.865 9.028 10.858L8.307 10.137L7.586 9.41503L6.866 8.69403L6.145 7.97303C6.138 7.96603 6.13 7.96003 6.122 7.95503C6.114 7.95003 6.106 7.94703 6.099 7.94503C6.092 7.94303 6.085 7.94103 6.078 7.94003C6.071 7.93903 6.066 7.93903 6.062 7.93903C6.057 7.93903 6.052 7.93903 6.045 7.94003C6.038 7.94103 6.032 7.94203 6.024 7.94503C6.016 7.94803 6.009 7.95103 6.001 7.95503C5.993 7.95903 5.985 7.96503 5.978 7.97303C5.971 7.98103 5.965 7.98803 5.96 7.99603C5.955 8.00403 5.952 8.01203 5.95 8.01903C5.948 8.02603 5.946 8.03303 5.945 8.04003C5.944 8.04703 5.944 8.05203 5.944 8.05603C5.944 8.06103 5.944 8.06603 5.945 8.07203C5.946 8.07803 5.947 8.08503 5.95 8.09303C5.953 8.10103 5.956 8.10803 5.96 8.11603C5.964 8.12403 5.97 8.13203 5.978 8.13903L6.699 8.86003L7.42 9.58103L8.141 10.302L8.862 11.023Z" fill="#4D4D4D"/>
<path d="M10.854 7.23999L11.051 7.70399L11.248 8.16799L11.445 8.63199L11.642 9.09599C11.648 9.10899 11.655 9.11999 11.663 9.12899C11.671 9.13799 11.681 9.14499 11.691 9.15099C11.701 9.15699 11.711 9.16099 11.721 9.16299C11.731 9.16499 11.741 9.16699 11.75 9.16699C11.776 9.15799 11.798 9.14699 11.815 9.13499C11.832 9.12299 11.845 9.10899 11.853 9.09399C11.861 9.07899 11.866 9.06399 11.867 9.04899C11.868 9.03399 11.865 9.01799 11.858 9.00299L11.661 8.53899L11.464 8.07499L11.267 7.61099L11.07 7.14699C11.064 7.13399 11.057 7.12299 11.049 7.11399C11.041 7.10499 11.031 7.09799 11.021 7.09199C11.011 7.08599 11.001 7.08199 10.99 7.07999C10.979 7.07799 10.97 7.07599 10.961 7.07599C10.957 7.07599 10.953 7.07599 10.949 7.07699C10.945 7.07799 10.942 7.07699 10.938 7.07799C10.934 7.07899 10.93 7.07999 10.927 7.08099C10.924 7.08199 10.919 7.08399 10.916 7.08499C10.901 7.09099 10.889 7.09999 10.878 7.11099C10.867 7.12199 10.859 7.13499 10.854 7.14899C10.849 7.16299 10.846 7.17799 10.846 7.19399C10.846 7.20999 10.848 7.22499 10.854 7.23999Z" fill="#4D4D4D"/>
<path d="M15.217 8.462C15.233 8.462 15.249 8.459 15.263 8.453C15.277 8.447 15.29 8.438 15.3 8.428C15.31 8.418 15.319 8.405 15.325 8.391C15.331 8.377 15.334 8.361 15.334 8.345V7.537V6.73V5.923V5.117C15.334 5.101 15.331 5.085 15.325 5.071C15.319 5.057 15.31 5.044 15.3 5.034C15.29 5.024 15.277 5.015 15.263 5.009C15.249 5.003 15.233 5 15.217 5C15.201 5 15.185 5.003 15.171 5.009C15.157 5.015 15.144 5.024 15.134 5.034C15.124 5.044 15.115 5.057 15.109 5.071C15.103 5.085 15.1 5.101 15.1 5.117V5.924V6.731V7.538V8.345C15.1 8.361 15.103 8.377 15.109 8.391C15.115 8.405 15.124 8.418 15.134 8.428C15.144 8.438 15.157 8.447 15.171 8.453C15.185 8.459 15.201 8.462 15.217 8.462Z" fill="#4D4D4D"/>
<path d="M18.431 8.945C18.425 8.96 18.422 8.976 18.423 8.991C18.423 9.006 18.427 9.021 18.433 9.035C18.439 9.049 18.448 9.062 18.459 9.073C18.47 9.084 18.483 9.093 18.498 9.099C18.501 9.099 18.504 9.1 18.506 9.1C18.509 9.1 18.511 9.1 18.514 9.101C18.517 9.102 18.519 9.101 18.522 9.101C18.525 9.101 18.527 9.101 18.53 9.101C18.546 9.101 18.56 9.1 18.573 9.097C18.586 9.094 18.597 9.09 18.607 9.084C18.617 9.078 18.625 9.072 18.632 9.063C18.639 9.055 18.645 9.045 18.649 9.034L18.838 8.566L19.027 8.098L19.216 7.63L19.405 7.162C19.411 7.147 19.414 7.131 19.413 7.116C19.413 7.101 19.409 7.086 19.403 7.072C19.397 7.058 19.388 7.045 19.377 7.034C19.366 7.023 19.353 7.014 19.338 7.008L19.327 7.006L19.316 7.004L19.305 7.002L19.294 7C19.285 7 19.275 7.001 19.265 7.004C19.255 7.007 19.245 7.011 19.235 7.016C19.225 7.021 19.216 7.029 19.207 7.039C19.198 7.049 19.192 7.06 19.186 7.073L18.997 7.541L18.808 8.009L18.619 8.477L18.431 8.945Z" fill="#4D4D4D"/>
<path d="M21.491 11.061C21.497 11.061 21.503 11.061 21.509 11.06C21.515 11.059 21.523 11.057 21.53 11.055C21.537 11.053 21.545 11.049 21.552 11.045C21.559 11.041 21.567 11.035 21.574 11.028L22.295 10.307L23.016 9.58597L23.737 8.86497L24.458 8.14397C24.465 8.13697 24.471 8.12897 24.476 8.12097C24.481 8.11297 24.484 8.10597 24.486 8.09797C24.488 8.08997 24.49 8.08397 24.491 8.07697C24.492 8.07097 24.492 8.06497 24.492 8.06097C24.492 8.05697 24.492 8.05097 24.491 8.04497C24.49 8.03897 24.489 8.03197 24.486 8.02397C24.483 8.01597 24.48 8.00897 24.476 8.00097C24.471 7.99297 24.466 7.98497 24.458 7.97797C24.451 7.97097 24.443 7.96497 24.435 7.95997C24.427 7.95497 24.419 7.95197 24.412 7.94997C24.405 7.94797 24.398 7.94597 24.391 7.94497C24.385 7.94397 24.379 7.94397 24.375 7.94397C24.37 7.94397 24.365 7.94397 24.358 7.94497C24.352 7.94597 24.344 7.94697 24.337 7.94997C24.33 7.95297 24.322 7.95597 24.314 7.96097C24.306 7.96597 24.298 7.97197 24.29 7.97897L23.569 8.69997L22.848 9.42097L22.127 10.142L21.406 10.863C21.395 10.874 21.386 10.888 21.38 10.902C21.374 10.916 21.371 10.931 21.371 10.946C21.371 10.961 21.374 10.976 21.38 10.99C21.386 11.004 21.394 11.017 21.406 11.029C21.413 11.036 21.421 11.042 21.429 11.047C21.437 11.052 21.445 11.055 21.452 11.057C21.459 11.059 21.466 11.061 21.473 11.062C21.48 11.063 21.487 11.061 21.491 11.061Z" fill="#4D4D4D"/>
<path d="M23.275 13.703C23.273 13.707 23.271 13.713 23.27 13.719C23.269 13.725 23.267 13.732 23.267 13.74C23.267 13.748 23.267 13.756 23.268 13.766C23.269 13.776 23.272 13.785 23.276 13.795C23.281 13.807 23.288 13.818 23.296 13.827C23.304 13.836 23.313 13.843 23.323 13.849C23.333 13.855 23.343 13.859 23.353 13.862C23.363 13.865 23.374 13.866 23.383 13.866L23.858 13.667L24.333 13.468L24.808 13.269L25.283 13.07C25.298 13.064 25.311 13.055 25.321 13.044C25.332 13.033 25.34 13.02 25.346 13.006C25.352 12.992 25.355 12.977 25.355 12.962C25.355 12.947 25.352 12.931 25.346 12.916C25.341 12.905 25.335 12.895 25.328 12.886C25.321 12.877 25.312 12.87 25.303 12.863C25.294 12.856 25.283 12.852 25.272 12.849C25.261 12.846 25.25 12.844 25.238 12.844C25.234 12.844 25.23 12.844 25.226 12.845C25.222 12.846 25.218 12.846 25.215 12.847C25.212 12.848 25.207 12.849 25.204 12.85C25.201 12.851 25.196 12.853 25.193 12.854L24.729 13.051L24.265 13.248L23.801 13.445L23.337 13.642C23.327 13.646 23.319 13.651 23.312 13.656C23.305 13.661 23.299 13.667 23.294 13.673C23.289 13.679 23.285 13.685 23.282 13.69C23.279 13.695 23.277 13.699 23.275 13.703Z" fill="#4D4D4D"/>
<path d="M23.972 17.217C23.972 17.233 23.975 17.249 23.981 17.263C23.987 17.277 23.996 17.29 24.006 17.3C24.016 17.31 24.029 17.319 24.043 17.325C24.057 17.331 24.073 17.334 24.089 17.334H24.896H25.703H26.51H27.317C27.333 17.334 27.349 17.331 27.363 17.325C27.377 17.319 27.39 17.31 27.4 17.3C27.41 17.29 27.419 17.277 27.425 17.263C27.431 17.249 27.434 17.233 27.434 17.217C27.434 17.201 27.431 17.185 27.425 17.171C27.419 17.157 27.41 17.144 27.4 17.134C27.39 17.124 27.377 17.115 27.363 17.109C27.349 17.103 27.333 17.1 27.317 17.1H26.51H25.703H24.896H24.089C24.073 17.1 24.057 17.103 24.043 17.109C24.029 17.115 24.016 17.124 24.006 17.134C23.996 17.144 23.987 17.157 23.981 17.171C23.975 17.185 23.972 17.201 23.972 17.217Z" fill="#4D4D4D"/>
<path d="M17.272 15.857C17.266 15.857 17.261 15.857 17.256 15.858C17.251 15.859 17.245 15.86 17.24 15.861C17.235 15.862 17.23 15.864 17.225 15.867C17.22 15.87 17.215 15.872 17.211 15.875L16.857 16.101L16.503 16.327L16.149 16.553L15.795 16.779L15.68 16.853L15.565 16.927L15.45 17.001L15.335 17.075V16.938V16.801V16.664V16.527V15.735V14.943V14.151V13.359C15.335 13.343 15.332 13.327 15.326 13.313C15.32 13.299 15.311 13.286 15.301 13.276C15.291 13.266 15.278 13.257 15.264 13.251C15.25 13.245 15.234 13.242 15.218 13.242C15.202 13.242 15.186 13.245 15.172 13.251C15.158 13.257 15.145 13.266 15.135 13.276C15.125 13.286 15.116 13.299 15.11 13.313C15.104 13.327 15.101 13.343 15.101 13.359V14.151V14.943V15.735V16.527V16.664V16.801V16.938V17.075L14.986 17.001L14.871 16.927L14.756 16.853L14.641 16.779L14.288 16.554L13.935 16.329L13.582 16.104L13.229 15.879C13.224 15.876 13.219 15.873 13.214 15.87C13.209 15.867 13.204 15.866 13.198 15.864C13.192 15.862 13.183 15.859 13.178 15.858C13.173 15.857 13.167 15.857 13.162 15.857C13.152 15.857 13.142 15.858 13.133 15.861C13.124 15.864 13.115 15.867 13.106 15.872C13.097 15.877 13.09 15.882 13.083 15.889C13.076 15.896 13.07 15.903 13.064 15.912C13.058 15.921 13.054 15.93 13.051 15.938C13.048 15.946 13.046 15.954 13.045 15.962C13.044 15.97 13.044 15.977 13.044 15.983C13.044 15.989 13.045 15.996 13.046 16.001C13.047 16.005 13.048 16.011 13.051 16.017C13.054 16.023 13.056 16.03 13.06 16.036C13.064 16.042 13.069 16.05 13.075 16.056C13.081 16.062 13.089 16.069 13.098 16.075L13.603 16.397L14.108 16.719L14.613 17.041L15.118 17.363L15.122 17.364L15.126 17.365L15.13 17.366L15.134 17.367C15.149 17.375 15.162 17.381 15.172 17.386C15.182 17.391 15.19 17.394 15.196 17.397C15.202 17.4 15.207 17.401 15.21 17.401C15.213 17.401 15.216 17.402 15.217 17.402C15.22 17.402 15.223 17.402 15.227 17.401C15.231 17.4 15.235 17.399 15.239 17.397C15.243 17.395 15.248 17.393 15.253 17.391C15.258 17.389 15.263 17.386 15.269 17.383L15.281 17.376L15.293 17.369L15.305 17.362L15.317 17.355H15.32H15.323H15.326H15.329L15.832 17.034L16.335 16.713L16.838 16.392L17.341 16.071C17.355 16.062 17.366 16.051 17.375 16.038C17.384 16.025 17.39 16.011 17.393 15.997C17.396 15.983 17.397 15.967 17.394 15.952C17.391 15.937 17.386 15.922 17.377 15.908C17.372 15.9 17.365 15.892 17.358 15.885C17.351 15.878 17.343 15.873 17.334 15.868C17.325 15.863 17.316 15.86 17.307 15.857C17.298 15.854 17.283 15.857 17.272 15.857Z" fill="#4D4D4D"/>
</svg>
