<svg width="60" height="60" viewBox="0 0 60 60" fill="none" xmlns="http://www.w3.org/2000/svg">
<rect width="60" height="60" fill="white"/>
<path d="M31.6017 17.5054C31.6017 17.963 30.9153 18.1155 30.0763 17.8867C28.7797 17.5816 28.5508 17.8867 28.5508 19.7935C28.5508 22.6918 25.9576 28.8698 23.6695 31.3867C22.4492 32.6833 21.7627 34.5901 21.4576 37.4884L21 41.6833L24.9661 42.98C27.7119 43.8189 29.2373 43.9715 29.8475 43.4376C30.3814 42.98 32.5932 42.4461 34.8051 42.141L38.8475 41.6833L38.7712 36.7257C38.6949 33.98 38.5424 28.4884 38.3898 24.5223L38.0847 17.2766L34.8814 17.0478C33.0508 16.8952 31.6017 17.124 31.6017 17.5054ZM37.7034 19.1833C37.7034 19.5647 37.3983 20.0986 36.9407 20.3274C36.5593 20.5562 36.178 20.1749 36.178 19.4122C36.178 18.4206 35.9492 18.2681 35.5678 19.0308C35.1102 19.641 34.3475 19.7935 33.4322 19.4122C32.1356 18.9545 32.1356 18.802 33.8898 18.4206C36.0254 17.8867 37.7034 18.2681 37.7034 19.1833ZM35.0339 21.7766H37.322V26.963C37.322 32.302 36.7119 33.4461 35.339 30.3952C34.6525 28.7935 34.6525 28.7935 34.8814 30.7003C35.1102 32.302 34.6525 32.8359 32.2119 34.0562C29.5424 35.3528 29.2373 35.3528 27.9407 34.2088C27.178 33.4461 25.9576 32.9122 25.2712 32.9122C24.2034 32.9122 24.3559 32.4545 25.9576 30.0901C27.0254 28.4884 28.2458 25.7427 28.7797 23.9884C29.5424 21.1664 29.8475 20.785 31.2203 21.2427C32.0593 21.5478 33.8136 21.7766 35.0339 21.7766ZM38.3136 36.3444C38.6186 39.7766 37.1695 41.302 33.661 41.302C32.5169 41.302 30.7627 41.6833 29.9237 42.141C28.5508 42.9037 28.3983 42.8274 28.7797 41.6833C29.0847 40.9969 29.3136 39.4715 29.3136 38.4037C29.3136 36.7257 29.9237 36.0393 32.9746 34.6664C34.9576 33.6749 36.9407 33.0647 37.322 33.2172C37.7797 33.2935 38.161 34.7427 38.3136 36.3444ZM27.178 34.9715C28.5508 36.1918 28.8559 38.0986 28.0932 40.9969C27.7119 42.5223 27.4068 42.5986 25.0424 41.8359C22.7542 41.1494 22.4492 40.6918 22.4492 38.5562C22.4492 33.6749 24.2797 32.302 27.178 34.9715Z" fill="#9BBC5A"/>
</svg>
