<svg width="60" height="60" viewBox="0 0 60 60" fill="none" xmlns="http://www.w3.org/2000/svg">
<rect width="60" height="60" fill="white"/>
<path d="M44.1258 28.1032C43.9834 24.5362 44.0956 20.8194 42.6444 17.488C42.6367 17.4699 42.6275 17.4542 42.6193 17.437C42.8385 17.3429 43.0573 17.248 43.2748 17.1492C44.5341 16.5775 43.4414 14.7277 42.1896 15.2924C38.2884 17.0529 34.0279 17.9303 29.7525 17.9674C27.6458 17.9858 25.5423 17.7994 23.4764 17.3839C22.4672 17.1806 21.4685 16.9288 20.4847 16.6261C19.4485 16.3071 18.4267 15.8156 17.3592 15.6283C16.4364 15.4665 16.0064 16.5454 16.7397 17.0978C16.7747 17.1241 16.8123 17.1483 16.8478 17.1741C16.2539 18.5145 16.1257 19.9732 15.9304 21.4326C15.7112 23.068 15.5361 24.7085 15.4002 26.3529C15.1175 29.7729 15.0504 33.2135 15.0468 36.6439C15.0434 39.8945 14.8657 43.2691 15.2259 46.5025C15.5378 49.3021 17.1513 51.0435 19.6505 52.1913C24.9409 54.6207 31.1463 55.0302 36.7391 53.4397C39.0868 52.7719 42.425 51.8612 43.2258 49.2497C43.6258 47.9455 43.7026 46.4811 43.8501 45.1276C44.0469 43.3268 44.1678 41.5183 44.2357 39.7083C44.3803 35.8407 44.2801 31.9689 44.1258 28.1032Z" fill="#ECF7FE"/>
<path d="M30.3183 17.7852C30.324 17.7852 30.324 17.7763 30.3183 17.7763V17.7852Z" fill="#706F6F"/>
<path d="M40.2535 49.163C40.1627 49.1973 40.0727 49.2328 39.9814 49.2659C39.9928 49.1838 39.9988 49.1007 39.9978 49.017C40.0833 49.0679 40.1685 49.1167 40.2535 49.163ZM40.0591 45.8656C36.4462 44.6027 32.2456 44.2039 28.4415 44.3758C24.0417 44.5747 19.648 45.6288 16.0819 48.3026C15.3656 48.8393 15.4458 49.7292 15.9228 50.1937C16.0351 50.4259 16.2183 50.6273 16.4928 50.7576C23.7339 54.2009 32.187 54.8648 39.8356 52.3643C41.3066 51.8832 43.8326 51.3424 43.8568 49.4008C43.8804 47.4919 41.5893 46.4004 40.0591 45.8656Z" fill="#DBE7EE"/>
<path d="M40.0591 40.0871C36.4462 38.8242 32.2456 38.4254 28.4415 38.5973C24.0417 38.7962 20.0915 39.6991 16.5254 42.3729C15.8091 42.9096 16.5254 42.649 16.5254 43.517C16.5254 44.7023 16.2509 48.7257 16.5254 48.856C23.7665 52.2993 34.4277 51.3564 42.0763 48.856C43.5473 48.3748 43.1962 45.4585 43.2203 43.517C43.244 41.608 41.5893 40.6219 40.0591 40.0871Z" fill="#DBE7EE"/>
<path d="M16.3738 42.4997L16.3738 42.4997C15.7714 42.9464 15.8382 43.6783 16.2358 44.0615L16.257 44.0819L16.2699 44.1083C16.3632 44.2994 16.5143 44.4641 16.7441 44.5721L16.7441 44.5721C23.7323 47.8607 31.8893 48.4941 39.2677 46.1069C39.4285 46.0549 39.5998 46.0027 39.7774 45.9486C40.4052 45.7575 41.1124 45.5421 41.718 45.2214C42.4905 44.8122 43.0429 44.2597 43.0535 43.4182C43.064 42.578 42.5618 41.902 41.8432 41.3616C41.1254 40.8219 40.2177 40.4383 39.4814 40.1836L39.5359 40.0261L39.4814 40.1836C36.0015 38.9798 31.9485 38.5979 28.2725 38.7622C24.0233 38.9524 19.7974 39.9594 16.3738 42.4997Z" stroke="#D3DBEE" stroke-width="0.25"/>
<path d="M43.3673 16.1076C38.8029 17.2829 34.1286 17.9244 29.4138 17.9753C25.0831 18.0222 20.4441 17.9323 16.6061 15.7095C16.1342 15.4362 15.5678 16.112 16.0062 16.4872C19.2978 19.3044 24.6512 19.2201 28.7335 19.2402C33.7848 19.265 38.8239 18.6219 43.7193 17.3843C44.5444 17.1757 44.1944 15.8947 43.3673 16.1076Z" fill="#D6E7EF"/>
<path d="M42.0862 6.79248C39.3905 5.35359 36.2534 5.14162 33.2582 5.0448C29.7498 4.93157 26.2342 5.03273 22.7383 5.34996C20.0865 5.59043 17.215 5.95619 15.5902 8.31733C15.4234 8.56021 15.4511 8.82795 15.5818 9.04185C15.3589 10.381 15.5707 11.8832 15.6655 13.2023C15.7413 14.2552 15.652 15.5611 16.9651 15.7441C17.0149 15.7511 17.0673 15.7557 17.1201 15.7586C18.2133 16.5869 19.7558 17.0304 20.9554 17.3561C23.2248 17.9722 25.6077 18.1397 27.9503 18.0514C30.4377 17.9577 32.907 17.5683 35.3671 17.2122C36.5795 17.0369 37.792 16.8614 39.0042 16.6861C40.3016 16.4983 41.7118 16.4575 42.908 15.9058C43.1567 15.7912 43.3243 15.5821 43.4196 15.3361C43.5944 15.198 43.7221 14.9978 43.7627 14.7282C44.0036 13.1248 44.3832 11.3745 44.3677 9.75382C44.3537 8.28667 43.2864 7.43299 42.0862 6.79248Z" fill="white"/>
<path d="M43.4719 15.3532C43.3002 15.4628 43.1228 15.5613 42.9424 15.6545C43.0709 13.8728 43.1122 12.0783 43.1414 10.2924C43.1421 10.2492 43.1242 10.2188 43.0984 10.1988C43.3183 10.0073 43.504 9.78448 43.6411 9.5235C43.5011 11.4595 43.4403 13.4271 43.4719 15.3532ZM43.173 16.4679C43.1542 16.5063 42.977 16.7967 42.8944 16.9169C42.8121 16.937 42.7295 16.9541 42.6474 16.9737C42.6073 16.9522 42.5521 16.9556 42.5175 17.0034C38.2602 18.0094 33.9389 18.619 29.5588 18.6871C27.4574 18.7196 25.3485 18.6489 23.2566 18.442C22.688 18.3858 15.4624 17.3273 16.5956 15.8076C18.0705 16.9551 20.2788 17.3319 22.026 17.6492C24.5214 18.1018 27.0677 18.2283 29.5996 18.1395C32.0865 18.0526 34.5628 17.7677 37.0222 17.3964C39.1202 17.0799 41.4519 16.8998 43.3333 15.8315C43.3072 16.0509 43.2756 16.2583 43.173 16.4679ZM42.6964 18.357C43.6332 19.724 43.4514 21.1684 43.4308 22.7568C43.392 25.7734 43.3471 28.7898 43.3019 31.8064C43.258 34.7433 43.2061 37.6805 43.1643 40.6177C43.1438 42.0465 43.1235 43.4755 43.1032 44.9042C43.0919 45.698 43.0805 46.4921 43.0692 47.2857C43.0629 47.7219 43.1254 48.3062 43.0984 48.8496C42.1433 47.0942 39.6619 46.481 37.8906 45.9636C35.0275 45.1271 32.0259 44.721 29.044 44.7565C26.2693 44.7896 23.3703 45.1478 20.766 46.1469C19.6856 46.5614 18.6516 47.1041 17.7441 47.8265C17.3832 48.1135 16.8648 48.486 16.5896 48.9336C16.535 43.1285 16.4727 37.3235 16.4136 31.5184C16.3837 28.5802 16.3366 25.6416 16.3296 22.7032C16.3279 21.9883 16.3238 21.2737 16.318 20.5591C16.311 19.702 16.4621 19.2039 16.8776 18.4734C17.1289 18.0316 17.3141 17.6465 17.1137 17.2366C17.6808 17.526 18.3416 17.7267 18.6168 17.8121C21.1067 18.5852 23.7585 18.8124 26.3509 18.9154C31.7149 19.1286 37.1328 18.6057 42.3519 17.3368C42.2566 17.6917 42.447 17.9932 42.6964 18.357ZM29.7253 53.4925C27.3939 53.4553 25.0697 53.1328 22.8174 52.5289C21.7515 52.2433 20.6989 51.8986 19.674 51.4886C18.4684 51.0063 17.2248 50.5686 16.6253 49.345C17.0278 48.4406 18.4553 47.6336 19.1704 47.2277C20.1518 46.6707 21.2143 46.263 22.3 45.961C24.623 45.3147 27.0733 45.0831 29.4788 45.093C31.9281 45.1032 34.3745 45.4119 36.7465 46.024C38.7737 46.5471 42.2508 47.2282 42.9929 49.5032C42.9941 49.5073 42.9972 49.5094 42.9987 49.5135C42.9654 49.6289 42.9253 49.739 42.8705 49.837C39.6359 52.9382 33.994 53.561 29.7253 53.4925ZM16.395 15.3815C16.394 15.3788 16.3943 15.3764 16.3933 15.3737C15.9969 14.4877 16.2424 12.9771 16.2166 12.0121C16.1927 11.1164 16.1796 10.22 16.1468 9.32431C16.2714 9.57322 16.4554 9.79123 16.6782 9.98534C16.6557 11.8904 16.7463 13.7844 16.8964 15.6825C16.7265 15.5874 16.5584 15.4884 16.395 15.3815ZM17.7716 16.1197C17.5198 16.008 17.2721 15.8877 17.0302 15.7574C16.9488 13.8989 16.9293 12.0375 16.9218 10.1775C17.1596 10.3465 17.4278 10.4952 17.7163 10.6244C17.7064 12.4566 17.7303 14.288 17.7716 16.1197ZM18.7134 16.4944C18.4365 16.3983 18.1654 16.2897 17.8974 16.1748C17.9387 14.3576 17.9621 12.5403 17.9534 10.7227C18.119 10.7893 18.2873 10.8523 18.4594 10.9088C18.4548 10.9228 18.4524 10.9387 18.4544 10.9571C18.6284 12.8018 18.6707 14.6439 18.7134 16.4944ZM18.6989 10.9829C18.8769 11.0363 19.0558 11.0838 19.2334 11.1285C19.3614 12.9628 19.4008 14.7938 19.3479 16.632C19.3452 16.7216 19.4795 16.7197 19.486 16.632C19.6212 14.8163 19.6173 13.0027 19.477 11.1879C19.6975 11.2396 19.9131 11.2849 20.12 11.326C20.1183 11.3335 20.1151 11.3395 20.1149 11.3479C20.0454 13.1968 20.148 15.0722 20.2795 16.9164C20.2808 16.9317 20.2894 16.9406 20.2967 16.9507C19.8129 16.8351 19.3332 16.7021 18.8636 16.5449C18.978 14.6902 18.8793 12.8303 18.6989 10.9829ZM20.3484 11.3702C20.6521 11.4276 20.9302 11.4754 21.1636 11.5174C21.2071 11.5252 21.251 11.5309 21.2945 11.5384C21.3293 13.423 21.3715 15.3088 21.4401 17.1926C21.09 17.126 20.7395 17.0541 20.3906 16.9722C20.4087 16.9616 20.423 16.9452 20.4222 16.9164C20.3819 15.0686 20.4036 13.2171 20.3484 11.3702ZM21.5639 11.5819C21.9208 11.6386 22.2786 11.6898 22.638 11.7313C22.5415 13.6273 22.5813 15.5236 22.7344 17.4157C22.3524 17.3558 21.9661 17.2914 21.5791 17.2197C21.5803 17.2141 21.5852 17.2117 21.5854 17.2052C21.5982 15.3308 21.5847 13.4561 21.5639 11.5819ZM23.5533 17.5294C23.3275 17.5012 23.1023 17.47 22.8773 17.4362C22.8218 15.5432 22.8389 13.6545 22.9031 11.762C23.0808 11.7811 23.2587 11.7989 23.4369 11.8151C23.3157 13.6973 23.4495 15.6465 23.5533 17.5294ZM23.6494 11.8354C23.9463 11.8603 24.244 11.8817 24.5419 11.8994C24.5108 13.79 24.3811 15.7704 24.6035 17.6443C24.3017 17.6171 24.0002 17.5854 23.6991 17.5492C23.7474 15.6654 23.8237 13.7132 23.6494 11.8354ZM24.7638 11.9112C24.9412 11.9209 25.1184 11.9324 25.2961 11.9397C25.2858 13.8549 25.3142 15.7704 25.3304 17.6856C25.3304 17.6924 25.3331 17.6972 25.334 17.7032C25.123 17.6888 24.912 17.6723 24.7013 17.6538C24.9246 15.7808 24.7957 13.8018 24.7638 11.9112ZM25.5458 11.9493C25.7155 11.9554 25.885 11.9612 26.0545 11.9653C26.0467 11.981 26.0419 11.9991 26.0414 12.0206C26.0057 13.9271 26.0651 15.8455 26.1561 17.7508C25.9393 17.7407 25.7225 17.7271 25.5057 17.7131C25.5083 17.7047 25.5115 17.6962 25.5115 17.6856C25.5277 15.7738 25.5562 13.8614 25.5458 11.9493ZM26.2903 12.0206C26.2896 12.0012 26.285 11.9846 26.2783 11.9701C26.462 11.974 26.6459 11.9776 26.8297 11.9798C26.7553 13.9044 26.8475 15.8551 26.8719 17.7807C26.6877 17.7754 26.5035 17.7655 26.3195 17.7576C26.3628 15.8489 26.3741 13.9273 26.2903 12.0206ZM30.2273 12.0218C30.2261 11.9979 30.2191 11.9781 30.2092 11.9607C30.5575 11.9549 30.9059 11.9467 31.2543 11.9373C31.242 13.8544 31.2693 15.7711 31.2495 17.6883C30.9832 17.7059 30.7171 17.7279 30.4506 17.7416C30.4105 15.8344 30.32 13.9271 30.2273 12.0218ZM28.2155 12.021C28.215 12.0073 28.2104 11.9962 28.2068 11.9848C28.474 11.9834 28.741 11.9815 29.0078 11.9783C29.1377 13.9114 29.2326 15.8503 29.2983 17.7865C29.0085 17.7945 28.7188 17.7993 28.4289 17.802C28.3772 15.8742 28.2971 13.9476 28.2155 12.021ZM27.0416 11.9819C27.1529 11.9829 27.2642 11.9846 27.3753 11.9851C27.4332 13.9179 27.4475 15.8759 27.6558 17.7998C27.447 17.7979 27.2384 17.7897 27.0296 17.7846L27.0303 17.7817C27.1006 15.865 27.1817 13.8981 27.0416 11.9819ZM27.6117 11.9856C27.7319 11.9856 27.8521 11.9865 27.9721 11.986C27.9694 11.9971 27.9661 12.0078 27.9665 12.021C28.051 13.9486 28.1368 15.8759 28.2509 17.802C28.0856 17.8027 27.9202 17.8015 27.7548 17.8003C27.8234 15.8679 27.6945 13.9158 27.6117 11.9856ZM29.2179 11.9757C29.4685 11.9723 29.7193 11.9691 29.9692 11.9653C29.9627 11.9815 29.9593 12.0003 29.9602 12.0218C30.0438 13.9317 30.13 15.8433 30.2664 17.7503C30.1186 17.7573 29.9711 17.7655 29.8231 17.7713C29.6783 17.7769 29.5329 17.7798 29.3881 17.7839C29.4108 15.8419 29.3526 13.9136 29.2179 11.9757ZM32.4134 17.5963C32.0804 17.625 31.7478 17.6542 31.4146 17.6774C31.5131 15.7651 31.5631 13.8448 31.4762 11.9312C31.804 11.9218 32.1314 11.9061 32.459 11.8938C32.4467 13.7921 32.4426 15.6898 32.4119 17.5883C32.4119 17.5912 32.4131 17.5934 32.4134 17.5963ZM32.7243 11.8834C33.0247 11.8714 33.325 11.8547 33.6253 11.84C33.5587 13.6985 33.7096 15.6036 33.7946 17.4625C33.3899 17.5058 32.9851 17.5466 32.5797 17.5828C32.7091 15.6888 32.7683 13.782 32.7243 11.8834ZM35.7945 17.2175C35.1847 17.2993 34.5741 17.3764 33.9626 17.4435C34.0044 15.5949 34.0459 13.6661 33.8161 11.8308C34.0896 11.817 34.3626 11.7999 34.6357 11.7842C34.6697 13.5925 34.7267 15.3991 34.7996 17.2066C34.804 17.3138 34.9677 17.3148 34.9672 17.2066C34.9582 15.3935 34.9339 13.5821 34.8858 11.77C35.1405 11.7545 35.3947 11.7369 35.6492 11.7197C35.649 11.7255 35.647 11.7301 35.6475 11.7364C35.8341 13.5563 35.86 15.3769 35.7924 17.204C35.7921 17.2093 35.7941 17.2129 35.7945 17.2175ZM35.8626 11.7364C35.8614 11.7251 35.8568 11.7159 35.853 11.7065C36.1185 11.6881 36.3836 11.6645 36.649 11.6442C36.5741 13.4529 36.5864 15.2805 36.7484 17.0847C36.48 17.1233 36.2112 17.1603 35.9423 17.197C36.1181 15.3711 36.0695 13.5577 35.8626 11.7364ZM36.8735 11.6266C37.0862 11.6097 37.2986 11.5903 37.5111 11.5725C37.4297 13.3607 37.464 15.1844 37.5367 16.9729C37.3324 17.0012 37.1294 17.0297 36.9292 17.0594C36.9053 17.063 36.8812 17.0659 36.8573 17.0695C36.8822 15.2593 36.867 13.4469 36.8754 11.6365C36.8754 11.6326 36.874 11.6302 36.8735 11.6266ZM39.5753 16.6762C38.9468 16.7834 38.3145 16.8665 37.6965 16.951C37.7687 15.1634 37.8027 13.3414 37.7206 11.5548C37.977 11.5326 38.2332 11.5095 38.4893 11.4856C38.4785 11.5008 38.4703 11.5184 38.4703 11.5404C38.4674 13.276 38.59 14.9845 38.5062 16.7257C38.5014 16.8223 38.6424 16.8175 38.6533 16.7257C38.8527 15.0444 38.9654 13.1881 38.6748 11.5126C38.6716 11.4947 38.6641 11.4815 38.6547 11.4704C38.927 11.4443 39.1991 11.4165 39.471 11.3871C39.6173 13.1364 39.6354 14.8766 39.5618 16.6301C39.5608 16.6497 39.5668 16.6642 39.5753 16.6762ZM40.9553 11.2567C40.9594 11.2135 40.9454 11.1821 40.9222 11.1616C40.9869 11.1473 41.0516 11.1324 41.1161 11.1167C41.3075 12.826 41.3749 14.5251 41.3633 16.2448C41.3633 16.2561 41.3659 16.2653 41.3688 16.2742C41.1518 16.3377 40.9326 16.3959 40.7109 16.4483C40.7172 14.7098 40.7928 12.9884 40.9553 11.2567ZM40.5506 16.4833C40.2735 16.5456 39.9944 16.6019 39.7136 16.6516C39.7163 16.6446 39.7194 16.6383 39.7201 16.6301C39.9036 14.8742 39.8966 13.1137 39.7361 11.3566C40.0497 11.3187 40.3802 11.2697 40.7119 11.2048C40.7037 11.2198 40.6974 11.2369 40.695 11.2567C40.4845 12.9882 40.4316 14.7426 40.5506 16.4833ZM41.3869 11.0619C41.3862 11.0563 41.3833 11.0524 41.3821 11.0471C41.6214 10.9805 41.8555 10.9023 42.0793 10.8098C42.1571 12.4935 42.2389 14.1784 42.3567 15.86C42.3584 15.8834 42.3681 15.9008 42.3809 15.9148C42.104 16.0306 41.8213 16.1349 41.532 16.2248C41.6506 14.5039 41.5868 12.7743 41.3869 11.0619ZM42.8331 15.669C42.8333 15.6832 42.8398 15.6926 42.8468 15.7011C42.7435 15.7525 42.6409 15.8054 42.5354 15.852C42.4982 14.1584 42.4243 12.4648 42.3468 10.7724C42.3456 10.7424 42.3343 10.7195 42.32 10.6997C42.5233 10.6022 42.7148 10.4904 42.8903 10.3637C42.8343 12.129 42.7903 13.903 42.8331 15.669ZM22.7525 6.36782C25.1445 6.16695 27.5472 6.08679 29.9474 6.09089C32.2898 6.09476 34.6306 6.18288 36.9659 6.36612C38.133 6.45787 39.2993 6.5694 40.462 6.70798C41.6177 6.84559 43.1015 6.99842 43.6356 8.20048C43.6211 8.22196 43.61 8.24707 43.6088 8.27967C43.5047 11.2859 39.0997 11.0891 36.9792 11.2678C36.2516 11.3289 35.5232 11.3798 34.7943 11.4252C34.7627 11.4155 34.7282 11.4177 34.6985 11.4308C33.0643 11.5314 31.4281 11.5956 29.791 11.6176C27.5706 11.6473 25.3338 11.6485 23.1216 11.4329C21.9294 11.3168 20.7469 11.127 19.5888 10.8187C18.5096 10.5314 16.7728 10.1819 16.2733 9.03267C15.5355 7.07084 21.8162 6.44652 22.7525 6.36782ZM43.9922 8.23113C43.2961 6.21957 40.3092 6.3456 38.5989 6.18361C35.2583 5.86709 31.8977 5.73456 28.5423 5.80167C25.5405 5.86178 22.3932 5.89052 19.4507 6.55299C18.7868 6.70243 16.0978 7.4156 15.938 8.49502C15.922 8.51143 15.9107 8.53364 15.9102 8.56383C15.8892 10.0191 15.9336 11.4764 15.9488 12.9317C15.9568 13.6927 15.6657 14.9165 16.1958 15.5261C16.2301 15.5652 16.2697 15.5727 16.3054 15.5628C16.3527 15.6062 16.4034 15.6458 16.4527 15.6873C15.8856 16.2235 16.2192 16.6897 16.7878 17.0514C16.7883 17.0644 16.7909 17.0775 16.7982 17.0905C17.2035 17.822 16.4356 18.3568 16.1775 18.9512C16.0331 19.2834 15.9971 19.6291 15.9797 19.9862C15.917 21.2824 16.0152 22.5972 16.0295 23.8944C16.0604 26.7533 16.091 29.6123 16.1207 32.4713C16.1792 38.1098 16.234 43.7485 16.2975 49.3868C16.2982 49.4397 16.3228 49.4756 16.3556 49.4991C16.3706 49.5456 16.3887 49.592 16.4092 49.6379C16.4117 49.6608 16.4121 49.6833 16.4162 49.7062C16.4216 49.7344 16.4409 49.7431 16.4614 49.7429C16.5094 49.8305 16.5667 49.9138 16.633 49.9891C17.2707 51.3353 19.7858 51.9594 20.9341 52.352C23.4961 53.2276 26.1935 53.7189 28.8972 53.8375C31.5341 53.9531 34.1879 53.7059 36.7559 53.0944C39.0521 52.5478 41.5134 51.794 43.1653 50.0138C43.2128 49.9623 43.2179 49.9039 43.2008 49.8532C43.251 49.7595 43.2882 49.6591 43.3188 49.5555C43.3415 49.5258 43.3509 49.4877 43.3459 49.4433C43.489 48.833 43.376 48.1041 43.384 47.5239C43.4048 46.0158 43.4258 44.5073 43.4465 42.9991C43.4893 39.9033 43.5265 36.8073 43.5651 33.7115C43.6027 30.6949 43.6409 27.6785 43.6853 24.6619C43.7066 23.2343 43.8273 21.7698 43.7392 20.3444C43.7085 19.8469 43.6394 19.3375 43.4123 18.8872C43.1846 18.436 42.4782 17.8363 42.6143 17.2723C42.7331 17.2428 42.8524 17.2151 42.9712 17.1849C43.0535 17.1639 43.0788 17.0929 43.0656 17.0287C43.4642 16.8317 43.6491 16.1062 43.6163 15.6996C43.6744 15.6948 43.7305 15.6564 43.7418 15.583C43.8256 15.5138 43.8162 15.4049 43.7604 15.3358C43.933 13.0502 43.9803 10.6983 43.9139 8.40569C43.9774 8.37841 44.0221 8.31756 43.9922 8.23113Z" fill="#706F6F"/>
<path d="M23.0719 49.0353C21.8778 47.6495 21.8824 46.0716 21.8551 44.3106C21.817 41.8379 21.7907 39.365 21.7868 36.8921C21.7827 34.4191 21.8025 31.946 21.8462 29.4733C21.8687 28.1971 21.8974 26.9212 21.9326 25.6452C21.9652 24.4622 22.2207 23.2327 21.6057 22.175C21.1347 21.365 20.0427 21.4509 19.5536 22.175C18.8248 23.2539 19.0669 24.8669 19.0341 26.1237C18.9962 27.559 18.9662 28.9948 18.9445 30.4305C18.9013 33.3021 18.8897 36.1741 18.9102 39.0461C18.9286 41.5762 18.8095 44.1971 19.1437 46.7092C19.3786 48.4745 20.338 50.6596 22.4037 50.6485C23.2665 50.6437 23.5927 49.6394 23.0719 49.0353Z" fill="#EFF8FD"/>
<path d="M23.7556 41.9818C23.7556 41.9818 24.3293 39.6455 22.6271 35.5986C22.6271 35.5986 24.715 37.527 24.7089 41.8214C24.7088 41.8214 24.3514 42.2476 23.7556 41.9818Z" fill="#9BBC5A"/>
<path d="M26.0749 41.9466C26.0749 41.9466 25.5012 39.6102 27.2034 35.5634C27.2034 35.5634 25.1155 37.4918 25.1216 41.7861C25.1217 41.7861 25.4791 42.2123 26.0749 41.9466Z" fill="#9BBC5A"/>
<path d="M26.1295 41.6901C26.1295 41.6901 24.6592 38.2843 26.2117 31.6949C26.2117 31.6949 23.5304 35.1617 24.6389 41.6901C24.6389 41.6901 25.2915 42.2466 26.1295 41.6901Z" fill="#9BBC5A"/>
<path d="M29.8177 39.6115C29.8177 39.6115 31.1318 35.8745 29.1693 28.644C29.1693 28.644 32.4987 33.031 31.7019 39.6115C31.702 39.6115 30.877 40.2224 29.8177 39.6115Z" fill="#9BBC5A"/>
<path d="M30.7457 38.2103C30.7457 38.2103 32.3155 33.3313 31.899 30.7972C31.899 30.7972 33.0509 35.1233 32.1545 37.9406C32.1544 37.9407 29.5505 40.5699 30.7457 38.2103Z" fill="#9BBC5A"/>
<path d="M30.6089 38.6493C30.6089 38.6493 29.1579 33.6522 29.6351 31.1531C29.6351 31.1531 28.38 35.3852 29.2079 38.2698C29.208 38.27 31.7462 41.0999 30.6089 38.6493Z" fill="#9BBC5A"/>
<path d="M30.1103 30.3373C30.1103 30.3373 30.7104 27.8869 27.1801 27.184C27.1801 27.184 27.5272 30.545 30.1103 30.3373Z" fill="#9BBC5A"/>
<path d="M38.7451 41.8207C38.7451 41.8207 37.2375 38.5428 39.489 32.2008C39.489 32.2008 35.6693 36.0488 36.5835 41.8207C36.5835 41.8207 37.3454 43.0275 38.7451 41.8207Z" fill="#9BBC5A"/>
<path d="M38.012 34.4554C38.012 34.4554 37.2129 31.1925 41.9138 30.2565C41.9138 30.2565 41.4516 34.7319 38.012 34.4554Z" fill="#9BBC5A"/>
<path d="M35.2376 42.1632C35.2376 42.1632 36.0097 39.0565 34.0678 33.3065C34.0678 33.3065 36.8771 36.6714 36.6746 42.0541C36.6747 42.054 36.0831 42.5972 35.2376 42.1632Z" fill="#9BBC5A"/>
<path d="M37.2098 42.1361C37.2098 42.1361 36.7073 39.0968 37.4578 33.2163C37.4578 33.2163 36.1845 36.7842 36.4893 42.1361C36.4892 42.1361 36.8047 42.6329 37.2098 42.1361Z" fill="#C0D68B"/>
</svg>
