<svg width="60" height="60" viewBox="0 0 60 60" fill="none" xmlns="http://www.w3.org/2000/svg">
<rect width="60" height="60" fill="white"/>
<path d="M25.4574 10.1431C25.4059 10.8134 25.6637 12.8758 26.0246 14.7836L26.5918 18.2897L24.7356 21.2287C23.6528 22.8271 22.8278 24.4255 22.8278 24.7349C22.8278 26.127 21.7966 24.9927 21.2294 23.0334C20.4044 19.8366 17.2077 10.9681 17.2077 11.6899C17.1561 12.2055 19.0639 18.6507 20.1466 21.5896C20.3013 22.1568 19.992 22.0537 19.1154 21.2287C17.8264 20.0944 16.1249 19.6819 16.1249 20.61C16.1249 20.8678 16.4342 20.9709 16.8467 20.8162C17.8264 20.4553 20.6623 23.549 21.3325 25.7661C22.0028 27.9832 22.57 40.8219 22.106 43.9156L21.745 46.2358L18.8061 46.7514C15.3515 47.4217 12 48.7623 12 49.4842C12 49.7935 12.5156 49.6904 13.1859 49.2264C15.5062 47.7311 19.8373 47.2155 29.6854 47.3186C34.9962 47.3702 40.2039 47.628 41.2867 47.8858C42.3179 48.1436 44.0194 48.3498 44.9991 48.3498C47.6287 48.3498 45.5662 47.5764 41.8538 47.1639C40.0492 46.9577 38.9664 46.5968 38.9664 46.1843C38.9664 45.8233 38.5024 44.8437 37.8836 44.0187C37.1102 42.9359 36.7493 41.6469 36.6977 39.3782C36.5431 35.8205 36.9555 34.8408 38.3477 35.2018C38.9149 35.3564 39.3274 35.3049 39.3274 35.0471C39.3274 34.3768 37.368 34.119 36.8009 34.6862C35.9759 35.5111 36.079 34.3768 37.0071 32.0565C37.4712 31.0253 38.8117 29.1691 39.9976 27.9317C41.132 26.7458 41.8538 25.7661 41.4929 25.7661C40.6164 25.7661 37.368 28.7566 37.0071 29.9425C36.6977 30.8706 36.4399 30.6644 35.2025 28.6535C34.3775 27.416 33.2431 26.127 32.676 25.8177C31.2838 25.0442 30.7167 25.0958 31.6963 25.8692C32.1088 26.2301 33.0885 27.5707 33.8103 28.8598C35.0478 31.0769 35.0993 31.4894 34.9447 38.2954C34.8415 42.2141 34.6353 45.5655 34.4806 45.7202C34.3259 45.8749 33.501 45.7202 32.5729 45.4109C31.6448 45.1015 30.0464 44.8437 29.0151 44.8437C27.9324 44.8437 26.798 44.5343 26.4887 44.1218C26.1793 43.7093 25.2512 43.1422 24.4262 42.7812L22.9309 42.2141L22.9825 37.2126C23.0341 34.4799 22.9309 30.8191 22.8278 29.066C22.6216 26.127 22.7247 25.7145 24.8387 22.2599C26.0762 20.1975 27.1589 18.5475 27.2621 18.5475C27.4168 18.5475 27.2621 19.0116 26.9527 19.5272C26.1277 21.1256 26.334 23.1365 27.9839 30.7675C29.5308 37.6767 31.2838 43.5547 32.2119 44.5343C32.9853 45.4109 32.6244 43.6578 31.5932 41.3891C31.0776 40.2032 29.7886 35.408 28.7573 30.7675C27.0558 23.2912 26.9011 22.1053 27.4683 20.1459C28.1902 17.3616 30.0464 15.4539 31.9541 15.4539C33.965 15.4539 34.6869 16.0211 36.4915 19.1663C37.8836 21.5381 38.3993 22.0021 40.4101 22.5177C43.1944 23.2396 47.0615 23.3427 47.0615 22.724C47.0615 22.4662 46.5975 21.6928 46.0303 21.0225C45.5147 20.4037 43.8647 18.3929 42.421 16.5882C40.9257 14.7836 39.1211 13.0821 38.3993 12.8243C35.5634 11.6899 29.9948 13.6492 28.1902 16.3304L27.2621 17.7741L26.3855 13.3914C25.8699 10.9681 25.4574 9.52436 25.4574 10.1431ZM38.6571 13.7524C39.5336 14.268 41.6992 16.5367 43.4522 18.7538L46.7006 22.8271L43.4007 22.4662C39.3274 22.0021 38.5539 21.5896 37.3165 19.1663C35.8728 16.382 33.965 14.7836 32.0572 14.7836C30.7167 14.7836 30.6135 14.6805 31.387 14.268C32.3666 13.7008 34.8931 13.0305 36.2337 12.9274C36.6462 12.8758 37.729 13.2883 38.6571 13.7524ZM36.1821 40.7704C36.2337 41.9563 36.7493 43.6062 37.368 44.4312C38.5539 46.1327 38.3477 46.6483 36.6462 46.2358C35.5634 45.9265 35.4603 45.6687 35.4603 42.0594C35.4603 37.9861 35.9243 37.1095 36.1821 40.7704ZM25.6637 44.4312C26.5918 45.153 27.9839 45.6171 29.4792 45.6687C30.7682 45.7718 32.5729 46.0296 33.3978 46.2874C34.5322 46.6483 33.1916 46.7514 28.8089 46.5968C25.4059 46.4421 22.57 46.3389 22.5185 46.2358C22.4669 46.1843 22.5185 45.514 22.6731 44.689C22.9825 42.9875 23.7559 42.9359 25.6637 44.4312Z" fill="#9BBC5A"/>
</svg>
