<svg width="60" height="60" viewBox="0 0 60 60" fill="none" xmlns="http://www.w3.org/2000/svg">
<rect width="60" height="60" fill="white"/>
<path d="M17.0508 46.5593C17.0508 46.5593 20.9628 43.4388 26.2034 42.9758C31.4439 42.5127 33.0464 42.7992 36.3777 43.3873C41.2492 44.2474 44.5085 46.5593 44.5085 46.5593H17.0508Z" fill="#6B411E"/>
<path d="M32.3686 43.1203C32.3686 43.1203 30.9666 34.382 37.8083 19.0754C37.8083 19.0754 29.1212 27.6032 28.3725 42.4512C28.3725 42.4512 29.2712 45.7322 32.3686 43.1203Z" fill="#ACBC66"/>
<path d="M36.3475 20.845C36.3475 20.845 35.1853 16.3891 44.9757 13.115C44.9757 13.115 43.3702 19.8577 36.3475 20.845Z" fill="#ACBC66"/>
<path d="M26.483 25.3765C26.483 25.3765 28.5241 17.0412 16.5154 14.6501C16.5154 14.6501 17.696 26.083 26.483 25.3765Z" fill="#9BBC5A"/>
<path d="M26.9827 43.9244C26.9827 43.9244 28.9551 35.988 23.9943 21.2992C23.9943 21.2992 31.1709 29.8951 30.6536 43.6456C30.6538 43.6456 29.1426 45.0332 26.9827 43.9244Z" fill="#9BBC5A"/>
<path d="M30.8098 44.0676C30.8098 44.0676 29.526 36.3033 31.4432 21.2811C31.4432 21.2811 28.1906 30.3957 28.9691 44.0676C28.9689 44.0676 29.7749 45.3367 30.8098 44.0676Z" fill="#C0D68B"/>
<path d="M27.0196 42.8251C27.0196 42.8251 27.4668 38.4495 26.5643 36.5225L26.8185 36.4154C26.8185 36.4154 28.2776 38.4717 28.2776 42.8251C28.2776 43.0358 27.0196 43.0358 27.0196 42.8251Z" fill="#C0D68B"/>
<path d="M26.8499 36.593C26.8499 36.593 25.649 37.1889 24.851 35.577C24.851 35.577 26.6083 35.3357 26.8499 36.593Z" fill="#C0D68B"/>
<path d="M32.6767 45.1092C32.6767 45.1092 32.2295 40.7337 33.132 38.8066L32.8779 38.6996C32.8779 38.6996 31.4187 40.7559 31.4187 45.1092C31.4187 45.32 32.6767 45.32 32.6767 45.1092Z" fill="#C0D68B"/>
<path d="M32.8465 38.8777C32.8465 38.8777 34.0473 39.4736 34.8453 37.8617C34.8453 37.8617 33.0881 37.6204 32.8465 38.8777Z" fill="#C0D68B"/>
<path d="M30.9748 23.9982C30.1181 18.7155 33.6876 15.4316 38.6847 15.5744C36.8286 16.8594 35.5436 17.4305 34.4014 19.5722C33.5448 21.571 33.2592 22.9988 31.1176 23.9982" fill="#9BBC5A"/>
</svg>
