<svg width="60" height="60" viewBox="0 0 60 60" fill="none" xmlns="http://www.w3.org/2000/svg">
<rect width="60" height="60" fill="white"/>
<path d="M44.1258 28.1032C43.9834 24.5362 44.0956 20.8194 42.6444 17.488C42.6367 17.4699 42.6275 17.4542 42.6193 17.437C42.8385 17.3429 43.0573 17.248 43.2748 17.1492C44.5341 16.5775 43.4414 14.7277 42.1896 15.2924C38.2884 17.0529 34.0279 17.9303 29.7525 17.9674C27.6458 17.9858 25.5423 17.7994 23.4764 17.3839C22.4672 17.1806 21.4685 16.9288 20.4847 16.6261C19.4485 16.3071 18.4267 15.8156 17.3592 15.6283C16.4364 15.4665 16.0064 16.5454 16.7397 17.0978C16.7747 17.1241 16.8123 17.1483 16.8478 17.1741C16.2539 18.5145 16.1257 19.9732 15.9304 21.4326C15.7112 23.068 15.5361 24.7085 15.4002 26.3529C15.1175 29.7729 15.0504 33.2135 15.0468 36.6439C15.0434 39.8945 14.8657 43.2691 15.2259 46.5025C15.5378 49.3021 17.1513 51.0435 19.6505 52.1913C24.9409 54.6207 31.1463 55.0302 36.7391 53.4397C39.0868 52.7719 42.425 51.8612 43.2258 49.2497C43.6258 47.9455 43.7026 46.4811 43.8501 45.1276C44.0469 43.3268 44.1678 41.5183 44.2357 39.7083C44.3803 35.8407 44.2801 31.9689 44.1258 28.1032Z" fill="#ECF7FE"/>
<path d="M30.3183 17.7852C30.324 17.7852 30.324 17.7763 30.3183 17.7763V17.7852Z" fill="#706F6F"/>
<path d="M40.2535 49.163C40.1627 49.1973 40.0727 49.2328 39.9814 49.2659C39.9928 49.1838 39.9988 49.1007 39.9978 49.017C40.0833 49.0679 40.1685 49.1167 40.2535 49.163ZM40.0592 45.8656C36.4462 44.6027 32.2456 44.2039 28.4415 44.3758C24.0417 44.5747 19.648 45.6288 16.0819 48.3026C15.3656 48.8393 15.4458 49.7292 15.9228 50.1937C16.0351 50.4259 16.2183 50.6273 16.4928 50.7576C23.7339 54.2009 32.187 54.8648 39.8356 52.3643C41.3066 51.8832 43.8326 51.3424 43.8568 49.4008C43.8804 47.4919 41.5893 46.4004 40.0592 45.8656Z" fill="#DBE7EE"/>
<path d="M40.0592 40.0871C36.4462 38.8242 32.2456 38.4254 28.4415 38.5973C24.0417 38.7962 20.0915 39.6991 16.5254 42.3729C15.8091 42.9096 16.5254 42.649 16.5254 43.517C16.5254 44.7023 16.2509 48.7257 16.5254 48.856C23.7665 52.2993 34.4277 51.3564 42.0763 48.856C43.5473 48.3748 43.1962 45.4585 43.2203 43.517C43.244 41.608 41.5893 40.6219 40.0592 40.0871Z" fill="#DBE7EE"/>
<path d="M16.3738 42.4997L16.3738 42.4997C15.7714 42.9464 15.8382 43.6783 16.2358 44.0615L16.257 44.0819L16.2699 44.1083C16.3632 44.2994 16.5143 44.4641 16.7441 44.5721L16.7441 44.5721C23.7323 47.8607 31.8893 48.4941 39.2677 46.1069C39.4285 46.0549 39.5998 46.0027 39.7774 45.9486C40.4052 45.7575 41.1124 45.5421 41.718 45.2214C42.4905 44.8122 43.0429 44.2597 43.0535 43.4182C43.064 42.578 42.5618 41.902 41.8432 41.3616C41.1254 40.8219 40.2177 40.4383 39.4814 40.1836L39.5359 40.0261L39.4814 40.1836C36.0015 38.9798 31.9485 38.5979 28.2725 38.7622C24.0233 38.9524 19.7974 39.9594 16.3738 42.4997Z" stroke="#D3DBEE" stroke-width="0.25"/>
<path d="M43.3673 16.1076C38.8029 17.2829 34.1286 17.9244 29.4138 17.9753C25.0831 18.0222 20.4441 17.9323 16.6062 15.7095C16.1342 15.4362 15.5678 16.112 16.0062 16.4872C19.2978 19.3044 24.6512 19.2201 28.7335 19.2402C33.7848 19.265 38.8239 18.6219 43.7193 17.3843C44.5445 17.1757 44.1944 15.8947 43.3673 16.1076Z" fill="#D6E7EF"/>
<path d="M42.0862 6.79248C39.3905 5.35359 36.2534 5.14162 33.2583 5.0448C29.7499 4.93157 26.2342 5.03273 22.7384 5.34996C20.0865 5.59043 17.215 5.95619 15.5902 8.31733C15.4234 8.56021 15.4512 8.82795 15.5818 9.04185C15.3589 10.381 15.5707 11.8832 15.6655 13.2023C15.7413 14.2552 15.652 15.5611 16.9651 15.7441C17.0149 15.7511 17.0673 15.7557 17.1201 15.7586C18.2133 16.5869 19.7558 17.0304 20.9554 17.3561C23.2248 17.9722 25.6077 18.1397 27.9503 18.0514C30.4377 17.9577 32.907 17.5683 35.3671 17.2122C36.5796 17.0369 37.792 16.8614 39.0042 16.6861C40.3016 16.4983 41.7118 16.4575 42.9081 15.9058C43.1567 15.7912 43.3243 15.5821 43.4196 15.3361C43.5944 15.198 43.7221 14.9978 43.7627 14.7282C44.0036 13.1248 44.3832 11.3745 44.3677 9.75382C44.3537 8.28667 43.2864 7.43299 42.0862 6.79248Z" fill="white"/>
<path d="M43.4719 15.3532C43.3002 15.4628 43.1228 15.5613 42.9424 15.6545C43.0709 13.8728 43.1122 12.0783 43.1414 10.2924C43.1421 10.2492 43.1242 10.2188 43.0984 10.1988C43.3183 10.0073 43.504 9.78448 43.6411 9.5235C43.5011 11.4595 43.4403 13.4271 43.4719 15.3532ZM43.173 16.4679C43.1542 16.5063 42.977 16.7967 42.8944 16.9169C42.8121 16.937 42.7295 16.9541 42.6474 16.9737C42.6073 16.9522 42.5521 16.9556 42.5175 17.0034C38.2602 18.0094 33.9389 18.619 29.5588 18.6871C27.4574 18.7196 25.3485 18.6489 23.2566 18.442C22.688 18.3858 15.4624 17.3273 16.5956 15.8076C18.0705 16.9551 20.2788 17.3319 22.026 17.6492C24.5214 18.1018 27.0677 18.2283 29.5996 18.1395C32.0865 18.0526 34.5628 17.7677 37.0222 17.3964C39.1202 17.0799 41.4519 16.8998 43.3333 15.8315C43.3072 16.0509 43.2756 16.2583 43.173 16.4679ZM42.6964 18.357C43.6332 19.724 43.4514 21.1684 43.4309 22.7568C43.392 25.7734 43.3471 28.7898 43.3019 31.8064C43.258 34.7433 43.2061 37.6805 43.1643 40.6177C43.1438 42.0465 43.1235 43.4755 43.1032 44.9042C43.0919 45.698 43.0805 46.4921 43.0692 47.2857C43.0629 47.7219 43.1254 48.3062 43.0984 48.8496C42.1433 47.0942 39.662 46.481 37.8906 45.9636C35.0275 45.1271 32.0259 44.721 29.044 44.7565C26.2693 44.7896 23.3703 45.1478 20.766 46.1469C19.6856 46.5614 18.6516 47.1041 17.7441 47.8265C17.3832 48.1135 16.8648 48.486 16.5896 48.9336C16.535 43.1285 16.4727 37.3235 16.4136 31.5184C16.3837 28.5802 16.3366 25.6416 16.3296 22.7032C16.3279 21.9883 16.3238 21.2737 16.318 20.5591C16.311 19.702 16.4621 19.2039 16.8776 18.4734C17.1289 18.0316 17.3141 17.6465 17.1137 17.2366C17.6808 17.526 18.3416 17.7267 18.6168 17.8121C21.1067 18.5852 23.7585 18.8124 26.3509 18.9154C31.7149 19.1286 37.1328 18.6057 42.3519 17.3368C42.2566 17.6917 42.447 17.9932 42.6964 18.357ZM29.7253 53.4925C27.3939 53.4553 25.0697 53.1328 22.8174 52.5289C21.7515 52.2433 20.6989 51.8986 19.6741 51.4886C18.4684 51.0063 17.2248 50.5686 16.6253 49.345C17.0278 48.4406 18.4553 47.6336 19.1704 47.2277C20.1518 46.6707 21.2143 46.263 22.3 45.961C24.623 45.3147 27.0733 45.0831 29.4788 45.093C31.9281 45.1032 34.3745 45.4119 36.7465 46.024C38.7737 46.5471 42.2508 47.2282 42.9929 49.5032C42.9941 49.5073 42.9973 49.5094 42.9987 49.5135C42.9654 49.6289 42.9253 49.739 42.8705 49.837C39.6359 52.9382 33.994 53.561 29.7253 53.4925ZM16.395 15.3815C16.394 15.3788 16.3943 15.3764 16.3933 15.3737C15.9969 14.4877 16.2424 12.9771 16.2166 12.0121C16.1927 11.1164 16.1797 10.22 16.1468 9.32431C16.2714 9.57322 16.4554 9.79123 16.6782 9.98534C16.6557 11.8904 16.7463 13.7844 16.8964 15.6825C16.7265 15.5874 16.5584 15.4884 16.395 15.3815ZM17.7716 16.1197C17.5198 16.008 17.2721 15.8877 17.0302 15.7574C16.9488 13.8989 16.9293 12.0375 16.9218 10.1775C17.1596 10.3465 17.4278 10.4952 17.7163 10.6244C17.7064 12.4566 17.7303 14.288 17.7716 16.1197ZM18.7134 16.4944C18.4365 16.3983 18.1654 16.2897 17.8974 16.1748C17.9387 14.3576 17.9621 12.5403 17.9534 10.7227C18.119 10.7893 18.2873 10.8523 18.4594 10.9088C18.4549 10.9228 18.4524 10.9387 18.4544 10.9571C18.6284 12.8018 18.6707 14.6439 18.7134 16.4944ZM18.6989 10.9829C18.8769 11.0363 19.0558 11.0838 19.2334 11.1285C19.3614 12.9628 19.4008 14.7938 19.3479 16.632C19.3452 16.7216 19.4795 16.7197 19.486 16.632C19.6212 14.8163 19.6173 13.0027 19.477 11.1879C19.6975 11.2396 19.9131 11.2849 20.12 11.326C20.1183 11.3335 20.1151 11.3395 20.1149 11.3479C20.0454 13.1968 20.148 15.0722 20.2795 16.9164C20.2808 16.9317 20.2894 16.9406 20.2967 16.9507C19.8129 16.8351 19.3332 16.7021 18.8636 16.5449C18.978 14.6902 18.8793 12.8303 18.6989 10.9829ZM20.3484 11.3702C20.6521 11.4276 20.9302 11.4754 21.1636 11.5174C21.2071 11.5252 21.251 11.5309 21.2945 11.5384C21.3293 13.423 21.3715 15.3088 21.4401 17.1926C21.09 17.126 20.7395 17.0541 20.3906 16.9722C20.4087 16.9616 20.423 16.9452 20.4222 16.9164C20.3819 15.0686 20.4036 13.2171 20.3484 11.3702ZM21.5639 11.5819C21.9208 11.6386 22.2786 11.6898 22.638 11.7313C22.5415 13.6273 22.5813 15.5236 22.7344 17.4157C22.3524 17.3558 21.9662 17.2914 21.5791 17.2197C21.5804 17.2141 21.5852 17.2117 21.5854 17.2052C21.5982 15.3308 21.5847 13.4561 21.5639 11.5819ZM23.5533 17.5294C23.3276 17.5012 23.1023 17.47 22.8773 17.4362C22.8218 15.5432 22.8389 13.6545 22.9031 11.762C23.0808 11.7811 23.2587 11.7989 23.4369 11.8151C23.3157 13.6973 23.4495 15.6465 23.5533 17.5294ZM23.6494 11.8354C23.9463 11.8603 24.244 11.8817 24.5419 11.8994C24.5108 13.79 24.3811 15.7704 24.6035 17.6443C24.3017 17.6171 24.0002 17.5854 23.6991 17.5492C23.7474 15.6654 23.8237 13.7132 23.6494 11.8354ZM24.7638 11.9112C24.9412 11.9209 25.1184 11.9324 25.2961 11.9397C25.2858 13.8549 25.3142 15.7704 25.3304 17.6856C25.3304 17.6924 25.3331 17.6972 25.334 17.7032C25.123 17.6888 24.912 17.6723 24.7013 17.6538C24.9246 15.7808 24.7957 13.8018 24.7638 11.9112ZM25.5458 11.9493C25.7155 11.9554 25.885 11.9612 26.0545 11.9653C26.0467 11.981 26.0419 11.9991 26.0414 12.0206C26.0057 13.9271 26.0651 15.8455 26.1561 17.7508C25.9393 17.7407 25.7225 17.7271 25.5057 17.7131C25.5084 17.7047 25.5115 17.6962 25.5115 17.6856C25.5277 15.7738 25.5562 13.8614 25.5458 11.9493ZM26.2903 12.0206C26.2896 12.0012 26.285 11.9846 26.2783 11.9701C26.462 11.974 26.646 11.9776 26.8297 11.9798C26.7553 13.9044 26.8475 15.8551 26.8719 17.7807C26.6877 17.7754 26.5035 17.7655 26.3195 17.7576C26.3628 15.8489 26.3741 13.9273 26.2903 12.0206ZM30.2273 12.0218C30.2261 11.9979 30.2191 11.9781 30.2092 11.9607C30.5575 11.9549 30.9059 11.9467 31.2543 11.9373C31.242 13.8544 31.2693 15.7711 31.2495 17.6883C30.9832 17.7059 30.7171 17.7279 30.4506 17.7416C30.4105 15.8344 30.32 13.9271 30.2273 12.0218ZM28.2155 12.021C28.215 12.0073 28.2104 11.9962 28.2068 11.9848C28.474 11.9834 28.741 11.9815 29.0078 11.9783C29.1377 13.9114 29.2326 15.8503 29.2983 17.7865C29.0085 17.7945 28.7188 17.7993 28.4289 17.802C28.3772 15.8742 28.2971 13.9476 28.2155 12.021ZM27.0416 11.9819C27.1529 11.9829 27.2642 11.9846 27.3753 11.9851C27.4332 13.9179 27.4475 15.8759 27.6558 17.7998C27.447 17.7979 27.2384 17.7897 27.0296 17.7846L27.0303 17.7817C27.1006 15.865 27.1817 13.8981 27.0416 11.9819ZM27.6117 11.9856C27.7319 11.9856 27.8521 11.9865 27.9721 11.986C27.9694 11.9971 27.9661 12.0078 27.9666 12.021C28.0511 13.9486 28.1368 15.8759 28.251 17.802C28.0856 17.8027 27.9202 17.8015 27.7548 17.8003C27.8234 15.8679 27.6945 13.9158 27.6117 11.9856ZM29.2179 11.9757C29.4685 11.9723 29.7193 11.9691 29.9692 11.9653C29.9627 11.9815 29.9593 12.0003 29.9602 12.0218C30.0438 13.9317 30.13 15.8433 30.2664 17.7503C30.1186 17.7573 29.9711 17.7655 29.8231 17.7713C29.6783 17.7769 29.5329 17.7798 29.3881 17.7839C29.4108 15.8419 29.3526 13.9136 29.2179 11.9757ZM32.4134 17.5963C32.0804 17.625 31.7478 17.6542 31.4146 17.6774C31.5131 15.7651 31.5631 13.8448 31.4762 11.9312C31.804 11.9218 32.1314 11.9061 32.459 11.8938C32.4467 13.7921 32.4426 15.6898 32.4119 17.5883C32.4119 17.5912 32.4131 17.5934 32.4134 17.5963ZM32.7243 11.8834C33.0247 11.8714 33.325 11.8547 33.6253 11.84C33.5587 13.6985 33.7096 15.6036 33.7946 17.4625C33.3899 17.5058 32.9851 17.5466 32.5797 17.5828C32.7091 15.6888 32.7683 13.782 32.7243 11.8834ZM35.7945 17.2175C35.1847 17.2993 34.5741 17.3764 33.9626 17.4435C34.0044 15.5949 34.0459 13.6661 33.8161 11.8308C34.0896 11.817 34.3627 11.7999 34.6357 11.7842C34.6697 13.5925 34.7267 15.3991 34.7996 17.2066C34.804 17.3138 34.9677 17.3148 34.9672 17.2066C34.9582 15.3935 34.9339 13.5821 34.8858 11.77C35.1405 11.7545 35.3947 11.7369 35.6492 11.7197C35.649 11.7255 35.647 11.7301 35.6475 11.7364C35.8341 13.5563 35.86 15.3769 35.7924 17.204C35.7921 17.2093 35.7941 17.2129 35.7945 17.2175ZM35.8626 11.7364C35.8614 11.7251 35.8568 11.7159 35.853 11.7065C36.1185 11.6881 36.3836 11.6645 36.649 11.6442C36.5741 13.4529 36.5864 15.2805 36.7484 17.0847C36.48 17.1233 36.2113 17.1603 35.9423 17.197C36.1181 15.3711 36.0695 13.5577 35.8626 11.7364ZM36.8735 11.6266C37.0862 11.6097 37.2986 11.5903 37.5111 11.5725C37.4297 13.3607 37.464 15.1844 37.5367 16.9729C37.3324 17.0012 37.1294 17.0297 36.9293 17.0594C36.9053 17.063 36.8812 17.0659 36.8573 17.0695C36.8822 15.2593 36.867 13.4469 36.8754 11.6365C36.8754 11.6326 36.874 11.6302 36.8735 11.6266ZM39.5753 16.6762C38.9468 16.7834 38.3146 16.8665 37.6965 16.951C37.7687 15.1634 37.8027 13.3414 37.7206 11.5548C37.977 11.5326 38.2332 11.5095 38.4893 11.4856C38.4785 11.5008 38.4703 11.5184 38.4703 11.5404C38.4674 13.276 38.59 14.9845 38.5062 16.7257C38.5014 16.8223 38.6424 16.8175 38.6533 16.7257C38.8527 15.0444 38.9654 13.1881 38.6748 11.5126C38.6716 11.4947 38.6641 11.4815 38.6547 11.4704C38.9271 11.4443 39.1991 11.4165 39.471 11.3871C39.6173 13.1364 39.6354 14.8766 39.5618 16.6301C39.5608 16.6497 39.5668 16.6642 39.5753 16.6762ZM40.9553 11.2567C40.9594 11.2135 40.9454 11.1821 40.9222 11.1616C40.9869 11.1473 41.0516 11.1324 41.1161 11.1167C41.3075 12.826 41.3749 14.5251 41.3633 16.2448C41.3633 16.2561 41.3659 16.2653 41.3688 16.2742C41.1518 16.3377 40.9326 16.3959 40.7109 16.4483C40.7172 14.7098 40.7928 12.9884 40.9553 11.2567ZM40.5506 16.4833C40.2735 16.5456 39.9944 16.6019 39.7136 16.6516C39.7163 16.6446 39.7194 16.6383 39.7201 16.6301C39.9036 14.8742 39.8966 13.1137 39.7361 11.3566C40.0497 11.3187 40.3802 11.2697 40.7119 11.2048C40.7037 11.2198 40.6974 11.2369 40.695 11.2567C40.4845 12.9882 40.4316 14.7426 40.5506 16.4833ZM41.3869 11.0619C41.3862 11.0563 41.3833 11.0524 41.3821 11.0471C41.6214 10.9805 41.8555 10.9023 42.0794 10.8098C42.1571 12.4935 42.2389 14.1784 42.3568 15.86C42.3584 15.8834 42.3681 15.9008 42.3809 15.9148C42.104 16.0306 41.8213 16.1349 41.532 16.2248C41.6506 14.5039 41.5868 12.7743 41.3869 11.0619ZM42.8331 15.669C42.8333 15.6832 42.8398 15.6926 42.8468 15.7011C42.7435 15.7525 42.6409 15.8054 42.5354 15.852C42.4982 14.1584 42.4243 12.4648 42.3468 10.7724C42.3456 10.7424 42.3343 10.7195 42.3201 10.6997C42.5233 10.6022 42.7148 10.4904 42.8903 10.3637C42.8343 12.129 42.7904 13.903 42.8331 15.669ZM22.7525 6.36782C25.1445 6.16695 27.5472 6.08679 29.9475 6.09089C32.2898 6.09476 34.6306 6.18288 36.9659 6.36612C38.133 6.45787 39.2993 6.5694 40.462 6.70798C41.6177 6.84559 43.1015 6.99842 43.6356 8.20048C43.6211 8.22196 43.61 8.24707 43.6088 8.27967C43.5047 11.2859 39.0997 11.0891 36.9792 11.2678C36.2516 11.3289 35.5232 11.3798 34.7943 11.4252C34.7627 11.4155 34.7282 11.4177 34.6985 11.4308C33.0643 11.5314 31.4281 11.5956 29.791 11.6176C27.5706 11.6473 25.3338 11.6485 23.1216 11.4329C21.9295 11.3168 20.7469 11.127 19.5888 10.8187C18.5097 10.5314 16.7728 10.1819 16.2733 9.03267C15.5355 7.07084 21.8162 6.44652 22.7525 6.36782ZM43.9922 8.23113C43.2961 6.21957 40.3092 6.3456 38.599 6.18361C35.2583 5.86709 31.8977 5.73456 28.5424 5.80167C25.5405 5.86178 22.3932 5.89052 19.4507 6.55299C18.7868 6.70243 16.0978 7.4156 15.938 8.49502C15.9221 8.51143 15.9107 8.53364 15.9102 8.56383C15.8892 10.0191 15.9336 11.4764 15.9488 12.9317C15.9568 13.6927 15.6657 14.9165 16.1958 15.5261C16.2301 15.5652 16.2697 15.5727 16.3054 15.5628C16.3528 15.6062 16.4035 15.6458 16.4527 15.6873C15.8856 16.2235 16.2192 16.6897 16.7878 17.0514C16.7883 17.0644 16.7909 17.0775 16.7982 17.0905C17.2035 17.822 16.4356 18.3568 16.1775 18.9512C16.0331 19.2834 15.9971 19.6291 15.9798 19.9862C15.917 21.2824 16.0152 22.5972 16.0295 23.8944C16.0604 26.7533 16.091 29.6123 16.1207 32.4713C16.1792 38.1098 16.234 43.7485 16.2975 49.3868C16.2982 49.4397 16.3228 49.4756 16.3557 49.4991C16.3706 49.5456 16.3887 49.592 16.4092 49.6379C16.4117 49.6608 16.4121 49.6833 16.4162 49.7062C16.4216 49.7344 16.4409 49.7431 16.4614 49.7429C16.5094 49.8305 16.5667 49.9138 16.633 49.9891C17.2707 51.3353 19.7858 51.9594 20.9341 52.352C23.4961 53.2276 26.1935 53.7189 28.8972 53.8375C31.5341 53.9531 34.1879 53.7059 36.7559 53.0944C39.0521 52.5478 41.5134 51.794 43.1653 50.0138C43.2128 49.9623 43.2179 49.9039 43.2008 49.8532C43.251 49.7595 43.2882 49.6591 43.3188 49.5555C43.3415 49.5258 43.3509 49.4877 43.3459 49.4433C43.489 48.833 43.376 48.1041 43.384 47.5239C43.4048 46.0158 43.4258 44.5073 43.4465 42.9991C43.4893 39.9033 43.5265 36.8073 43.5651 33.7115C43.6027 30.6949 43.6409 27.6785 43.6853 24.6619C43.7066 23.2343 43.8273 21.7698 43.7392 20.3444C43.7085 19.8469 43.6394 19.3375 43.4123 18.8872C43.1846 18.436 42.4782 17.8363 42.6143 17.2723C42.7331 17.2428 42.8524 17.2151 42.9712 17.1849C43.0535 17.1639 43.0789 17.0929 43.0656 17.0287C43.4642 16.8317 43.6491 16.1062 43.6163 15.6996C43.6745 15.6948 43.7305 15.6564 43.7418 15.583C43.8256 15.5138 43.8162 15.4049 43.7604 15.3358C43.933 13.0502 43.9803 10.6983 43.9139 8.40569C43.9774 8.37841 44.0221 8.31756 43.9922 8.23113Z" fill="#706F6F"/>
<path d="M23.0719 49.0353C21.8778 47.6495 21.8824 46.0716 21.8551 44.3106C21.817 41.8379 21.7907 39.365 21.7868 36.8921C21.7827 34.4191 21.8025 31.946 21.8462 29.4733C21.8687 28.1971 21.8974 26.9212 21.9326 25.6452C21.9652 24.4622 22.2207 23.2327 21.6057 22.175C21.1347 21.365 20.0428 21.4509 19.5536 22.175C18.8248 23.2539 19.0669 24.8669 19.0341 26.1237C18.9962 27.559 18.9662 28.9948 18.9445 30.4305C18.9013 33.3021 18.8897 36.1741 18.9102 39.0461C18.9286 41.5762 18.8096 44.1971 19.1437 46.7092C19.3786 48.4745 20.338 50.6596 22.4037 50.6485C23.2665 50.6437 23.5927 49.6394 23.0719 49.0353Z" fill="#EFF8FD"/>
<path d="M36.7669 39.7121C36.7669 39.7121 36.1807 36.0586 39.0413 29.6588C39.0413 29.6588 35.4092 33.2243 35.0962 39.4323C35.0962 39.4323 35.4719 40.8041 36.7669 39.7121Z" fill="#9BBC5A"/>
<path d="M38.4305 30.3987C38.4305 30.3987 37.9446 28.5356 42.038 27.1668C42.038 27.1668 41.3668 29.9859 38.4305 30.3987Z" fill="#9BBC5A"/>
<path d="M34.3061 32.2933C34.3061 32.2933 35.1595 28.8083 30.1387 27.8085C30.1387 27.8085 30.6323 32.5887 34.3061 32.2933Z" fill="#9BBC5A"/>
<path d="M34.5151 40.0482C34.5151 40.0482 35.3398 36.73 33.2656 30.5886C33.2656 30.5886 36.2662 34.1825 36.0499 39.9317C36.05 39.9316 35.4181 40.5118 34.5151 40.0482Z" fill="#9BBC5A"/>
<path d="M36.1152 40.1081C36.1152 40.1081 35.5784 36.8619 36.38 30.5811C36.38 30.5811 35.0201 34.3919 35.3456 40.1081C35.3455 40.1081 35.6825 40.6388 36.1152 40.1081Z" fill="#C0D68B"/>
<path d="M34.5305 39.5886C34.5305 39.5886 34.7175 37.7591 34.3402 36.9535L34.4464 36.9087C34.4464 36.9087 35.0565 37.7684 35.0565 39.5886C35.0565 39.6767 34.5305 39.6767 34.5305 39.5886Z" fill="#C0D68B"/>
<path d="M34.4595 36.983C34.4595 36.983 33.9575 37.2321 33.6238 36.5582C33.6238 36.5582 34.3585 36.4573 34.4595 36.983Z" fill="#C0D68B"/>
<path d="M36.8958 40.5437C36.8958 40.5437 36.7088 38.7142 37.0861 37.9085L36.9799 37.8638C36.9799 37.8638 36.3698 38.7235 36.3698 40.5437C36.3698 40.6318 36.8958 40.6318 36.8958 40.5437Z" fill="#C0D68B"/>
<path d="M36.9667 37.9382C36.9667 37.9382 37.4688 38.1873 37.8025 37.5134C37.8025 37.5134 37.0678 37.4125 36.9667 37.9382Z" fill="#C0D68B"/>
<path d="M41.013 39.2729C40.9088 39.3335 40.7989 39.382 40.6892 39.4261C40.4645 39.5142 40.229 39.5703 39.9933 39.6033C39.5164 39.6694 39.0396 39.6474 38.5737 39.5482C38.327 39.4987 38.0747 39.4708 37.8226 39.4708C37.5704 39.4708 37.3129 39.5028 37.0607 39.5689C36.8141 39.635 36.5729 39.7355 36.3481 39.8512C36.2385 39.9062 36.1341 39.9613 36.0299 40.0164C35.7504 39.8622 35.334 39.5586 35.334 39.5586C35.334 39.5586 34.4181 39.1366 33.8977 39.3606C33.8361 39.3872 33.7937 39.4106 33.7444 39.4381C33.4977 39.5758 33.295 39.7355 33.0922 39.8512C32.9935 39.9062 32.8893 39.9544 32.7851 39.982C32.681 40.0095 32.5714 40.0215 32.4562 40.0215C32.3411 40.0215 32.2258 39.9988 32.1107 39.9768C32.0558 39.9658 31.9901 39.9503 31.9244 39.9338C31.8641 39.9172 31.7984 39.9 31.7381 39.889C31.4859 39.8284 31.2284 39.7792 30.9762 39.7462C30.7186 39.7131 30.4608 39.6859 30.1977 39.6859C29.9401 39.6859 29.6769 39.708 29.4247 39.7685C29.1726 39.8291 28.9316 39.9338 28.7288 40.099C28.9426 39.9558 29.1892 39.8777 29.4358 39.8391C29.6825 39.8006 29.9403 39.8016 30.187 39.8236C30.4282 39.8457 30.669 39.889 30.9047 39.9441C30.9595 39.9606 31.0146 39.9716 31.1407 39.9992C31.3161 40.0432 31.4915 40.099 31.6614 40.1541C31.7217 40.1706 31.7818 40.1923 31.8421 40.2143C31.9024 40.2363 31.9572 40.2525 32.0284 40.2745C32.1161 40.3021 32.2041 40.3234 32.2918 40.3399C32.1602 40.4281 32.0285 40.5162 31.897 40.5878C31.7544 40.6649 31.6012 40.7317 31.4477 40.7702C31.2888 40.8143 31.1295 40.837 30.9595 40.8425H30.8336L30.6966 40.8477C30.6144 40.8422 30.5265 40.836 30.4388 40.8305C30.2634 40.8194 30.0935 40.826 29.918 40.8425C29.7426 40.859 29.5729 40.8921 29.4084 40.9527C29.244 41.0132 29.0906 41.1014 28.9755 41.228C29.1016 41.1124 29.2606 41.0346 29.4196 40.9905C29.584 40.9465 29.7536 40.9251 29.918 40.9251C30.088 40.9251 30.2581 40.9358 30.4225 40.9578C30.5047 40.9688 30.587 40.9847 30.6748 40.9957L30.7844 41.0129C30.8392 41.0239 30.9269 41.0284 31.0311 41.0284C31.1791 41.0284 31.3271 41.0232 31.4751 40.9957C31.6505 40.9626 31.8259 40.9072 31.9903 40.8356C32.2918 40.7034 32.5602 40.5341 32.8288 40.3744C32.8398 40.3744 32.8453 40.373 32.8562 40.3675C33.0042 40.3455 33.1413 40.2973 33.2673 40.2367C33.3934 40.1761 33.514 40.1097 33.6236 40.0491C33.7333 39.9885 33.8428 39.9334 33.947 39.8839C34.0073 39.8563 34.0679 39.8336 34.1337 39.8116C34.1611 39.8501 34.1885 39.8832 34.2159 39.9217C34.2488 39.9603 34.2815 39.9985 34.3144 40.037C34.1828 40.1362 34.0515 40.225 33.9144 40.3021C33.7664 40.3847 33.6129 40.4504 33.4485 40.5C33.4101 40.511 33.366 40.5217 33.3222 40.5327L33.2618 40.5448L33.1907 40.5602C33.0975 40.5823 33.0042 40.6098 32.911 40.6429C32.7302 40.7089 32.5656 40.8036 32.4121 40.9027C32.2532 40.9964 32.1053 41.0948 31.9518 41.1884C31.7983 41.2766 31.634 41.3588 31.4696 41.4139C31.2996 41.469 31.1242 41.5075 30.9433 41.5241C31.1242 41.5241 31.305 41.5075 31.4858 41.469C31.6667 41.4249 31.8367 41.365 32.0066 41.2934C32.341 41.1447 32.6588 40.9582 32.9877 40.87C33.0699 40.848 33.1521 40.8308 33.2344 40.8253L33.2947 40.8201L33.3663 40.815C33.4046 40.8095 33.4427 40.8033 33.4866 40.7978C33.673 40.7592 33.8376 40.7096 33.9088 40.6876C33.9637 40.6711 34.0128 40.6494 34.0622 40.6274C34.2595 40.5392 34.4461 40.4398 34.627 40.3296C34.6544 40.3516 34.6818 40.3682 34.7092 40.3847C34.8901 40.5059 35.0708 40.5936 35.2463 40.6652C35.3011 40.6873 35.3502 40.7089 35.3996 40.7255C35.3557 40.7695 35.312 40.8091 35.2737 40.8477C35.1531 40.9633 35.0326 41.0566 34.9011 41.1007C34.8353 41.1227 34.7637 41.1337 34.687 41.1282C34.6486 41.1282 34.6106 41.1234 34.5722 41.1179L34.5118 41.1058L34.4459 41.0903C34.0841 41.0077 33.7058 40.9681 33.344 41.0232C32.9767 41.0728 32.637 41.2115 32.3136 41.3657C32.6535 41.2556 33.0043 41.1664 33.3551 41.1609C33.7059 41.1554 34.0458 41.2325 34.3692 41.3537L34.4296 41.376L34.5007 41.3984C34.55 41.4094 34.5996 41.4256 34.6544 41.4311C34.7366 41.4421 34.8297 41.4473 34.9174 41.4363C34.9831 41.4253 35.1037 41.4098 35.1914 41.3657C35.2243 41.3547 35.2518 41.3375 35.2792 41.321C35.3724 41.2714 35.4547 41.216 35.5315 41.1609C35.674 41.0563 35.8 40.9578 35.9096 40.9027C36.1563 40.9909 36.3754 41.0903 36.5618 41.228C36.5892 41.2501 36.6166 41.2714 36.644 41.2934L36.7044 41.3433C36.7099 41.3488 36.7151 41.3482 36.7151 41.3537C36.7754 41.4032 36.9344 41.5034 36.9892 41.5309C37.0002 41.5364 37.0168 41.5406 37.0277 41.5516C37.2086 41.6397 37.3951 41.7006 37.5815 41.7392C37.9542 41.8163 38.3158 41.8173 38.6666 41.7788C39.0174 41.7402 39.363 41.6617 39.6918 41.5516C39.8563 41.4965 40.0206 41.4308 40.174 41.3537C40.2508 41.3151 40.3276 41.2721 40.3989 41.228C40.4701 41.1785 40.5415 41.1289 40.5963 41.0628C40.5305 41.1179 40.4538 41.1554 40.377 41.1884C40.3003 41.2215 40.2178 41.2487 40.1411 41.2762C39.9821 41.3258 39.8177 41.3588 39.6477 41.3864C39.3188 41.4359 38.9793 41.4528 38.6559 41.4363C38.327 41.4142 38.0091 41.3592 37.7241 41.2435C37.5815 41.1884 37.45 41.1179 37.3404 41.0353C37.3349 41.0298 37.3236 41.0236 37.3181 41.0181C37.2633 40.9685 37.2251 40.9358 37.1922 40.9027C38.146 41.0514 39.8835 40.1472 40.6126 40.2023C39.8342 39.9049 37.3678 40.9141 36.6826 40.4294C36.6442 40.4019 36.6002 40.3689 36.5618 40.3468C36.5234 40.3193 36.485 40.2966 36.4466 40.2745C36.474 40.258 36.5014 40.2412 36.5288 40.2246C36.7317 40.1035 36.9347 39.9988 37.1485 39.9217C37.2198 39.8942 37.2965 39.8728 37.3678 39.8563C37.4335 39.8398 37.6691 39.7947 37.7403 39.7892C37.7677 39.7837 37.7951 39.784 37.817 39.784C38.0472 39.7675 38.2832 39.7737 38.5189 39.8012C38.8861 39.8508 39.2586 39.8505 39.6259 39.8064C39.7629 39.7899 39.8837 39.7679 39.9385 39.7513C39.955 39.7458 39.9769 39.7465 39.9933 39.741C40.2345 39.6859 40.47 39.6081 40.6948 39.5035C40.8044 39.4484 40.9143 39.3872 41.013 39.3211C41.1116 39.2495 41.21 39.1679 41.2648 39.0577C41.2155 39.1404 41.1116 39.2123 41.013 39.2729Z" fill="#F9F3EB"/>
<path d="M36.1842 31.717C35.826 29.5083 37.3184 28.1353 39.4077 28.195C38.6317 28.7322 38.0944 28.971 37.6169 29.8664C37.2587 30.7022 37.1393 31.2991 36.2439 31.717" fill="#9BBC5A"/>
<path d="M24.5635 41.2375C24.5635 41.2375 23.9774 37.584 26.8379 31.1842C26.8379 31.1842 23.2058 34.7497 22.8928 40.9577C22.8928 40.9577 23.2685 42.3295 24.5635 41.2375Z" fill="#9BBC5A"/>
<path d="M26.2271 31.9241C26.2271 31.9241 25.7412 30.061 29.8346 28.6921C29.8346 28.6921 29.1634 31.5113 26.2271 31.9241Z" fill="#9BBC5A"/>
<path d="M22.1028 33.8188C22.1028 33.8188 22.9562 30.3338 17.9353 29.3341C17.9353 29.3341 18.4289 34.1142 22.1028 33.8188Z" fill="#9BBC5A"/>
<path d="M22.3117 41.5736C22.3117 41.5736 23.1364 38.2554 21.0623 32.114C21.0623 32.114 24.0628 35.7079 23.8465 41.457C23.8466 41.457 23.2148 42.0372 22.3117 41.5736Z" fill="#9BBC5A"/>
<path d="M23.9118 41.6335C23.9118 41.6335 23.375 38.3873 24.1767 32.1064C24.1767 32.1064 22.8167 35.9173 23.1422 41.6335C23.1421 41.6335 23.4791 42.1642 23.9118 41.6335Z" fill="#C0D68B"/>
<path d="M22.3271 41.114C22.3271 41.114 22.5141 39.2845 22.1368 38.4788L22.243 38.4341C22.243 38.4341 22.8531 39.2938 22.8531 41.114C22.8531 41.2021 22.3271 41.2021 22.3271 41.114Z" fill="#C0D68B"/>
<path d="M22.2562 38.5083C22.2562 38.5083 21.7541 38.7575 21.4204 38.0836C21.4204 38.0836 22.1551 37.9827 22.2562 38.5083Z" fill="#C0D68B"/>
<path d="M24.6924 42.0691C24.6924 42.0691 24.5054 40.2396 24.8827 39.4339L24.7765 39.3892C24.7765 39.3892 24.1664 40.2489 24.1664 42.0691C24.1664 42.1572 24.6924 42.1572 24.6924 42.0691Z" fill="#C0D68B"/>
<path d="M24.7634 39.4637C24.7634 39.4637 25.2654 39.7128 25.5991 39.0389C25.5991 39.0389 24.8644 38.938 24.7634 39.4637Z" fill="#C0D68B"/>
<path d="M28.8096 40.7983C28.7054 40.8588 28.5955 40.9074 28.4858 40.9514C28.2611 41.0396 28.0256 41.0957 27.7899 41.1287C27.3131 41.1948 26.8362 41.1728 26.3703 41.0736C26.1236 41.0241 25.8713 40.9962 25.6192 40.9962C25.367 40.9962 25.1095 41.0282 24.8573 41.0943C24.6107 41.1604 24.3695 41.2609 24.1447 41.3765C24.0351 41.4316 23.9307 41.4867 23.8266 41.5418C23.547 41.3876 23.1307 41.084 23.1307 41.084C23.1307 41.084 22.2147 40.662 21.6943 40.886C21.6327 40.9126 21.5903 40.936 21.541 40.9635C21.2943 41.1012 21.0916 41.2609 20.8888 41.3765C20.7901 41.4316 20.6859 41.4798 20.5818 41.5074C20.4776 41.5349 20.368 41.5469 20.2529 41.5469C20.1377 41.5469 20.0224 41.5242 19.9073 41.5022C19.8525 41.4912 19.7868 41.4757 19.721 41.4592C19.6607 41.4426 19.595 41.4254 19.5347 41.4144C19.2825 41.3538 19.025 41.3046 18.7729 41.2716C18.5152 41.2385 18.2574 41.2113 17.9943 41.2113C17.7367 41.2113 17.4735 41.2334 17.2213 41.2939C16.9692 41.3545 16.7282 41.4592 16.5254 41.6244C16.7392 41.4812 16.9858 41.4031 17.2325 41.3645C17.4791 41.3259 17.7369 41.327 17.9836 41.349C18.2248 41.371 18.4656 41.4144 18.7013 41.4695C18.7561 41.486 18.8112 41.497 18.9373 41.5246C19.1127 41.5686 19.2881 41.6244 19.458 41.6795C19.5183 41.696 19.5785 41.7177 19.6388 41.7397C19.6991 41.7617 19.7538 41.7779 19.825 41.7999C19.9127 41.8275 20.0007 41.8488 20.0884 41.8653C19.9569 41.9535 19.8251 42.0416 19.6936 42.1132C19.5511 42.1903 19.3978 42.2571 19.2443 42.2956C19.0854 42.3397 18.9261 42.3624 18.7561 42.3679H18.6302L18.4932 42.3731C18.411 42.3675 18.3231 42.3614 18.2354 42.3558C18.06 42.3448 17.8901 42.3514 17.7147 42.3679C17.5393 42.3844 17.3695 42.4175 17.2051 42.478C17.0406 42.5386 16.8872 42.6267 16.7721 42.7534C16.8982 42.6378 17.0572 42.56 17.2162 42.5159C17.3806 42.4718 17.5502 42.4505 17.7147 42.4505C17.8846 42.4505 18.0547 42.4612 18.2191 42.4832C18.3014 42.4942 18.3837 42.5101 18.4714 42.5211L18.581 42.5383C18.6358 42.5493 18.7235 42.5538 18.8277 42.5538C18.9757 42.5538 19.1238 42.5486 19.2718 42.5211C19.4472 42.488 19.6225 42.4326 19.7869 42.361C20.0884 42.2288 20.3568 42.0595 20.6254 41.8998C20.6364 41.8998 20.6419 41.8984 20.6528 41.8929C20.8008 41.8708 20.9379 41.8227 21.064 41.7621C21.19 41.7015 21.3106 41.6351 21.4203 41.5745C21.5299 41.5139 21.6394 41.4588 21.7436 41.4092C21.8039 41.3817 21.8645 41.359 21.9303 41.337C21.9577 41.3755 21.9851 41.4086 22.0125 41.4471C22.0454 41.4857 22.0781 41.5239 22.111 41.5624C21.9795 41.6616 21.8481 41.7504 21.711 41.8275C21.563 41.9101 21.4095 41.9758 21.2451 42.0254C21.2067 42.0364 21.1626 42.0471 21.1188 42.0581L21.0584 42.0701L20.9873 42.0856C20.8941 42.1077 20.8008 42.1352 20.7077 42.1682C20.5268 42.2343 20.3622 42.329 20.2088 42.4281C20.0498 42.5218 19.9019 42.6202 19.7484 42.7138C19.5949 42.8019 19.4306 42.8842 19.2662 42.9393C19.0963 42.9944 18.9208 43.0329 18.7399 43.0494C18.9208 43.0494 19.1016 43.0329 19.2825 42.9944C19.4633 42.9503 19.6333 42.8904 19.8032 42.8188C20.1376 42.6701 20.4554 42.4835 20.7843 42.3954C20.8665 42.3734 20.9488 42.3562 21.031 42.3507L21.0914 42.3455L21.1629 42.3404C21.2012 42.3348 21.2394 42.3287 21.2832 42.3231C21.4696 42.2846 21.6342 42.235 21.7055 42.213C21.7603 42.1965 21.8094 42.1748 21.8588 42.1528C22.0561 42.0646 22.2427 41.9652 22.4236 41.855C22.451 41.877 22.4784 41.8936 22.5058 41.9101C22.6867 42.0312 22.8675 42.119 23.0429 42.1906C23.0977 42.2127 23.1468 42.2343 23.1962 42.2509C23.1523 42.2949 23.1086 42.3345 23.0703 42.3731C22.9497 42.4887 22.8293 42.582 22.6977 42.6261C22.6319 42.6481 22.5603 42.6591 22.4836 42.6536C22.4452 42.6536 22.4072 42.6488 22.3688 42.6433L22.3084 42.6312L22.2425 42.6157C21.8807 42.5331 21.5024 42.4935 21.1406 42.5486C20.7733 42.5982 20.4337 42.7369 20.1103 42.8911C20.4501 42.781 20.8009 42.6918 21.1517 42.6863C21.5026 42.6808 21.8424 42.7579 22.1658 42.8791L22.2262 42.9014L22.2973 42.9238C22.3466 42.9348 22.3962 42.951 22.451 42.9565C22.5333 42.9675 22.6263 42.9727 22.714 42.9617C22.7798 42.9507 22.9003 42.9352 22.988 42.8911C23.0209 42.8801 23.0484 42.8629 23.0758 42.8464C23.169 42.7968 23.2513 42.7414 23.3281 42.6863C23.4706 42.5817 23.5966 42.4832 23.7062 42.4281C23.9529 42.5163 24.1721 42.6157 24.3584 42.7534C24.3858 42.7754 24.4132 42.7968 24.4407 42.8188L24.501 42.8687C24.5065 42.8742 24.5117 42.8735 24.5117 42.8791C24.572 42.9286 24.731 43.0288 24.7858 43.0563C24.7968 43.0618 24.8134 43.066 24.8244 43.077C25.0052 43.1651 25.1917 43.226 25.3781 43.2646C25.7508 43.3417 26.1124 43.3427 26.4632 43.3042C26.8141 43.2656 27.1596 43.1871 27.4885 43.077C27.6529 43.0219 27.8172 42.9562 27.9707 42.8791C28.0474 42.8405 28.1242 42.7975 28.1955 42.7534C28.2667 42.7038 28.3381 42.6543 28.3929 42.5882C28.3271 42.6433 28.2504 42.6808 28.1736 42.7138C28.0969 42.7469 28.0144 42.7741 27.9377 42.8016C27.7787 42.8512 27.6143 42.8842 27.4444 42.9118C27.1155 42.9613 26.7759 42.9782 26.4525 42.9617C26.1236 42.9396 25.8057 42.8846 25.5207 42.7689C25.3782 42.7138 25.2466 42.6433 25.137 42.5607C25.1315 42.5551 25.1202 42.549 25.1147 42.5434C25.0599 42.4939 25.0217 42.4612 24.9888 42.4281C25.9426 42.5768 27.6801 41.6726 28.4092 41.7277C27.6308 41.4302 25.1644 42.4395 24.4792 41.9548C24.4408 41.9273 24.3968 41.8943 24.3584 41.8722C24.3201 41.8447 24.2816 41.822 24.2432 41.7999C24.2706 41.7834 24.298 41.7665 24.3255 41.75C24.5283 41.6289 24.7313 41.5242 24.9451 41.4471C25.0164 41.4196 25.0931 41.3982 25.1644 41.3817C25.2302 41.3652 25.4657 41.3201 25.537 41.3146C25.5644 41.3091 25.5917 41.3094 25.6136 41.3094C25.8438 41.2929 26.0798 41.2991 26.3155 41.3266C26.6828 41.3762 27.0552 41.3759 27.4225 41.3318C27.5595 41.3153 27.6803 41.2932 27.7351 41.2767C27.7516 41.2712 27.7735 41.2719 27.7899 41.2664C28.0311 41.2113 28.2667 41.1335 28.4914 41.0289C28.601 40.9738 28.7109 40.9125 28.8096 40.8465C28.9083 40.7749 29.0066 40.6933 29.0614 40.5831C29.0121 40.6657 28.9083 40.7377 28.8096 40.7983Z" fill="#F9F3EB"/>
<path d="M23.9808 33.2425C23.6226 31.0338 25.115 29.6608 27.2043 29.7205C26.4283 30.2578 25.891 30.4965 25.4135 31.392C25.0553 32.2277 24.9359 32.8246 24.0405 33.2425" fill="#9BBC5A"/>
<path d="M31.428 46.5764C31.428 46.5764 30.8418 42.9229 33.7023 36.5232C33.7023 36.5232 30.0702 40.0887 29.7572 46.2967C29.7572 46.2967 30.1329 47.6685 31.428 46.5764Z" fill="#ACBC66"/>
<path d="M33.0915 37.2631C33.0915 37.2631 32.6056 35.4 36.699 34.0311C36.699 34.0311 36.0278 36.8503 33.0915 37.2631Z" fill="#ACBC66"/>
<path d="M28.9672 39.1578C28.9672 39.1578 29.8206 35.6728 24.7997 34.673C24.7997 34.673 25.2933 39.4532 28.9672 39.1578Z" fill="#9BBC5A"/>
<path d="M29.1761 46.9126C29.1761 46.9126 30.0008 43.5944 27.9267 37.4529C27.9267 37.4529 30.9272 41.0469 30.7109 46.796C30.711 46.796 30.0792 47.3762 29.1761 46.9126Z" fill="#9BBC5A"/>
<path d="M30.7762 46.9725C30.7762 46.9725 30.2395 43.7263 31.0411 37.4454C31.0411 37.4454 29.6812 41.2563 30.0066 46.9725C30.0066 46.9725 30.3435 47.5031 30.7762 46.9725Z" fill="#C0D68B"/>
<path d="M29.1915 46.453C29.1915 46.453 29.3785 44.6235 29.0012 43.8178L29.1074 43.7731C29.1074 43.7731 29.7175 44.6328 29.7175 46.453C29.7175 46.5411 29.1915 46.5411 29.1915 46.453Z" fill="#C0D68B"/>
<path d="M29.1206 43.8473C29.1206 43.8473 28.6185 44.0965 28.2848 43.4226C28.2848 43.4226 29.0195 43.3217 29.1206 43.8473Z" fill="#C0D68B"/>
<path d="M31.5568 47.408C31.5568 47.408 31.3698 45.5786 31.7471 44.7729L31.6409 44.7281C31.6409 44.7281 31.0308 45.5879 31.0308 47.408C31.0308 47.4961 31.5568 47.4961 31.5568 47.408Z" fill="#C0D68B"/>
<path d="M31.6278 44.8027C31.6278 44.8027 32.1298 45.0518 32.4635 44.3779C32.4635 44.3779 31.7288 44.277 31.6278 44.8027Z" fill="#C0D68B"/>
<path d="M35.674 46.1373C35.5698 46.1978 35.4599 46.2464 35.3502 46.2904C35.1255 46.3786 34.8901 46.4347 34.6543 46.4677C34.1775 46.5338 33.7006 46.5118 33.2347 46.4126C32.9881 46.3631 32.7357 46.3352 32.4836 46.3352C32.2314 46.3352 31.9739 46.3672 31.7217 46.4333C31.4751 46.4994 31.2339 46.5999 31.0091 46.7155C30.8995 46.7706 30.7951 46.8257 30.691 46.8808C30.4114 46.7266 29.9951 46.423 29.9951 46.423C29.9951 46.423 29.0791 46.001 28.5587 46.225C28.4971 46.2516 28.4548 46.2749 28.4054 46.3025C28.1588 46.4402 27.956 46.5999 27.7532 46.7155C27.6545 46.7706 27.5503 46.8188 27.4462 46.8463C27.342 46.8739 27.2324 46.8859 27.1173 46.8859C27.0022 46.8859 26.8868 46.8632 26.7717 46.8412C26.7169 46.8302 26.6512 46.8147 26.5854 46.7982C26.5251 46.7816 26.4594 46.7644 26.3991 46.7534C26.1469 46.6928 25.8894 46.6436 25.6373 46.6106C25.3796 46.5775 25.1218 46.5503 24.8587 46.5503C24.6011 46.5503 24.3379 46.5723 24.0857 46.6329C23.8336 46.6935 23.5926 46.7982 23.3898 46.9634C23.6036 46.8202 23.8502 46.742 24.0969 46.7035C24.3435 46.6649 24.6013 46.666 24.848 46.688C25.0892 46.71 25.33 46.7534 25.5657 46.8085C25.6206 46.825 25.6756 46.836 25.8017 46.8636C25.9771 46.9076 26.1525 46.9634 26.3224 47.0184C26.3827 47.035 26.4429 47.0567 26.5032 47.0787C26.5635 47.1007 26.6182 47.1169 26.6894 47.1389C26.7772 47.1665 26.8651 47.1878 26.9528 47.2043C26.8213 47.2924 26.6895 47.3806 26.558 47.4522C26.4155 47.5293 26.2622 47.596 26.1087 47.6346C25.9498 47.6787 25.7905 47.7014 25.6206 47.7069H25.4946L25.3576 47.712C25.2754 47.7065 25.1875 47.7003 25.0998 47.6948C24.9244 47.6838 24.7545 47.6904 24.5791 47.7069C24.4037 47.7234 24.2339 47.7564 24.0695 47.817C23.905 47.8776 23.7516 47.9657 23.6365 48.0924C23.7626 47.9767 23.9216 47.899 24.0806 47.8549C24.245 47.8108 24.4146 47.7895 24.5791 47.7895C24.749 47.7895 24.9191 47.8002 25.0835 47.8222C25.1658 47.8332 25.2481 47.849 25.3358 47.8601L25.4454 47.8773C25.5002 47.8883 25.5879 47.8928 25.6921 47.8928C25.8401 47.8928 25.9882 47.8876 26.1362 47.8601C26.3116 47.827 26.4869 47.7716 26.6513 47.7C26.9528 47.5678 27.2212 47.3985 27.4898 47.2387C27.5008 47.2387 27.5063 47.2374 27.5172 47.2319C27.6652 47.2098 27.8023 47.1616 27.9284 47.1011C28.0544 47.0405 28.175 46.974 28.2847 46.9135C28.3943 46.8529 28.5038 46.7978 28.608 46.7482C28.6683 46.7207 28.7289 46.698 28.7947 46.676C28.8221 46.7145 28.8495 46.7476 28.8769 46.7861C28.9098 46.8247 28.9425 46.8629 28.9754 46.9014C28.8439 47.0005 28.7125 47.0894 28.5754 47.1665C28.4274 47.2491 28.2739 47.3148 28.1095 47.3644C28.0711 47.3754 28.027 47.3861 27.9832 47.3971L27.9228 47.4091L27.8517 47.4246C27.7585 47.4467 27.6652 47.4742 27.5721 47.5072C27.3912 47.5733 27.2266 47.668 27.0732 47.7671C26.9142 47.8607 26.7663 47.9592 26.6128 48.0528C26.4593 48.1409 26.295 48.2232 26.1306 48.2783C25.9607 48.3334 25.7852 48.3719 25.6043 48.3884C25.7852 48.3884 25.966 48.3719 26.1469 48.3334C26.3278 48.2893 26.4977 48.2294 26.6676 48.1578C27.002 48.0091 27.3198 47.8225 27.6487 47.7344C27.7309 47.7124 27.8132 47.6952 27.8954 47.6897L27.9558 47.6845L28.0273 47.6793C28.0656 47.6738 28.1038 47.6676 28.1476 47.6621C28.334 47.6236 28.4986 47.574 28.5699 47.552C28.6247 47.5355 28.6738 47.5138 28.7232 47.4917C28.9205 47.4036 29.1071 47.3041 29.288 47.194C29.3154 47.216 29.3428 47.2326 29.3703 47.2491C29.5511 47.3702 29.7319 47.458 29.9073 47.5296C29.9621 47.5516 30.0112 47.5733 30.0606 47.5898C30.0167 47.6339 29.973 47.6735 29.9347 47.712C29.8141 47.8277 29.6937 47.921 29.5621 47.965C29.4963 47.9871 29.4247 47.9981 29.348 47.9926C29.3096 47.9926 29.2716 47.9878 29.2332 47.9823L29.1728 47.9702L29.1069 47.9547C28.7451 47.8721 28.3668 47.8325 28.005 47.8876C27.6377 47.9372 27.2981 48.0759 26.9747 48.2301C27.3145 48.1199 27.6653 48.0308 28.0161 48.0253C28.367 48.0198 28.7068 48.0969 29.0302 48.218L29.0906 48.2404L29.1617 48.2628C29.211 48.2738 29.2606 48.29 29.3154 48.2955C29.3977 48.3065 29.4907 48.3117 29.5784 48.3007C29.6442 48.2896 29.7647 48.2742 29.8525 48.2301C29.8853 48.2191 29.9128 48.2019 29.9402 48.1853C30.0334 48.1358 30.1157 48.0804 30.1925 48.0253C30.335 47.9206 30.461 47.8222 30.5706 47.7671C30.8173 47.8552 31.0365 47.9547 31.2228 48.0924C31.2502 48.1144 31.2776 48.1358 31.3051 48.1578L31.3654 48.2077C31.3709 48.2132 31.3761 48.2125 31.3761 48.218C31.4364 48.2676 31.5954 48.3678 31.6502 48.3953C31.6612 48.4008 31.6778 48.405 31.6888 48.416C31.8696 48.5041 32.0561 48.565 32.2425 48.6036C32.6152 48.6807 32.9768 48.6817 33.3276 48.6432C33.6785 48.6046 34.024 48.5261 34.3529 48.416C34.5173 48.3609 34.6816 48.2951 34.8351 48.218C34.9118 48.1795 34.9886 48.1365 35.0599 48.0924C35.1312 48.0428 35.2025 47.9933 35.2573 47.9272C35.1915 47.9823 35.1148 48.0198 35.0381 48.0528C34.9613 48.0859 34.8788 48.1131 34.8021 48.1406C34.6431 48.1902 34.4787 48.2232 34.3088 48.2507C33.9799 48.3003 33.6404 48.3172 33.3169 48.3007C32.9881 48.2786 32.6701 48.2236 32.3851 48.1079C32.2426 48.0528 32.111 47.9823 32.0014 47.8996C31.9959 47.8941 31.9846 47.8879 31.9791 47.8824C31.9243 47.8329 31.8861 47.8002 31.8532 47.7671C32.807 47.9158 34.5445 47.0116 35.2736 47.0666C34.4952 46.7692 32.0288 47.7785 31.3436 47.2938C31.3052 47.2663 31.2612 47.2332 31.2228 47.2112C31.1845 47.1837 31.146 47.161 31.1076 47.1389C31.135 47.1224 31.1624 47.1055 31.1899 47.089C31.3927 46.9678 31.5957 46.8632 31.8095 46.7861C31.8808 46.7586 31.9575 46.7372 32.0288 46.7207C32.0946 46.7042 32.3301 46.6591 32.4014 46.6536C32.4288 46.6481 32.4561 46.6484 32.478 46.6484C32.7082 46.6319 32.9442 46.6381 33.1799 46.6656C33.5472 46.7152 33.9197 46.7148 34.2869 46.6708C34.424 46.6543 34.5447 46.6322 34.5995 46.6157C34.616 46.6102 34.6379 46.6109 34.6543 46.6054C34.8955 46.5503 35.1311 46.4725 35.3558 46.3679C35.4654 46.3128 35.5753 46.2515 35.674 46.1854C35.7727 46.1138 35.871 46.0323 35.9258 45.9221C35.8765 46.0047 35.7727 46.0767 35.674 46.1373Z" fill="#F9F3EB"/>
<path d="M30.8452 38.5815C30.487 36.3728 31.9794 34.9998 34.0687 35.0595C33.2927 35.5967 32.7555 35.8355 32.2779 36.731C31.9197 37.5667 31.8003 38.1636 30.9049 38.5815" fill="#9BBC5A"/>
</svg>
