<svg width="30" height="30" viewBox="0 0 30 30" fill="none" xmlns="http://www.w3.org/2000/svg">
<rect width="30" height="30" fill="white"/>
<path d="M30 30H22.5H15H7.5H0V22.5003V15.0005V7.49975V0H7.5H15H22.5H30V7.49975V14.9995V22.4992V30ZM0.252287 29.7477H7.62614H15H22.3739H29.7477V22.3741V15.0005V7.62589V0.252279H22.3739H15H7.62614H0.252287V7.62589V14.9995V22.3731V29.7477Z" fill="#4D4D4D"/>
<path d="M22.8969 6.55511H21.9074H20.9179H19.9284H18.9389H18.8963H18.8537H18.8111H18.7685V6.5125V6.46989V6.42727V6.38466V6.24744V6.11023V5.97216V5.83494C18.7685 5.81705 18.7668 5.8017 18.7625 5.78892C18.7582 5.77614 18.7523 5.76506 18.7429 5.75653C18.7335 5.74801 18.7224 5.74119 18.7088 5.73693C18.696 5.73267 18.6798 5.73097 18.6628 5.73097H18.2707H17.8787H17.4866H17.0946H17.052H17.0094H16.9668H16.9241V5.68835V5.64574V5.60313V5.56051V5.52642V5.49233V5.45824V5.42415C16.9241 5.22812 16.8841 5.04063 16.8116 4.87017C16.7392 4.69972 16.6352 4.54631 16.5065 4.41761C16.3778 4.28892 16.2244 4.18409 16.054 4.1125C15.8835 4.04091 15.6969 4 15.5 4C15.304 4 15.1165 4.04006 14.946 4.1125C14.7756 4.18494 14.6222 4.28892 14.4935 4.41761C14.3648 4.54631 14.2599 4.69972 14.1884 4.87017C14.1168 5.04063 14.0759 5.22727 14.0759 5.42415V5.45824V5.49233V5.52642V5.56051V5.60313V5.64574V5.68835V5.73097H14.0332H13.9906H13.948H13.9054H13.5134H13.1213H12.7293H12.3372C12.3193 5.73097 12.304 5.73267 12.2912 5.73693C12.2784 5.74119 12.2673 5.74716 12.2588 5.75653C12.2503 5.76591 12.2452 5.77528 12.2409 5.78892C12.2366 5.80256 12.2349 5.8179 12.2349 5.83494V5.97216V6.10938V6.24659V6.38381V6.42642V6.46903V6.51165V6.55426H12.1923H12.1497H12.1071H12.0645H11.0741H10.0847H9.09432H8.10483C8.08693 6.55426 8.07159 6.55597 8.05881 6.56023C8.04602 6.56449 8.03409 6.57216 8.02557 6.58068C8.01705 6.5892 8.01108 6.60028 8.00682 6.61307C8.00256 6.62585 8 6.64205 8 6.65994V11.3824V16.1048V20.8273V25.5497C8 25.5676 8.0017 25.583 8.00597 25.5957C8.01023 25.6085 8.01619 25.6196 8.02557 25.6281C8.03494 25.6367 8.04517 25.6435 8.05795 25.6477C8.07074 25.652 8.08693 25.6537 8.10398 25.6537H11.802H15.5H19.198H22.896C22.9139 25.6537 22.9293 25.652 22.942 25.6477C22.9548 25.6435 22.9659 25.6375 22.9744 25.6281C22.983 25.6188 22.9898 25.6085 22.994 25.5957C22.9983 25.583 23 25.5668 23 25.5497V20.8264V16.104V11.3815V6.65994C23 6.64205 22.9957 6.6267 22.9898 6.61392C22.9838 6.60114 22.9744 6.59006 22.9634 6.58153C22.9523 6.57301 22.9412 6.56619 22.9293 6.56193C22.9173 6.55767 22.9071 6.55511 22.8969 6.55511ZM12.4438 7.45682V7.12017V6.78352V6.44688V6.11023V6.06761V6.025V5.98239V5.93977H12.4864H12.529H12.5716H12.6142H13.0062H13.3983H13.7903H14.1824C14.2003 5.93977 14.2156 5.93807 14.2284 5.93381C14.2412 5.92955 14.2523 5.92358 14.2608 5.9142C14.2693 5.90483 14.2761 5.8946 14.2804 5.88182C14.2847 5.86903 14.2864 5.85284 14.2864 5.8358V5.73182V5.62869V5.52557V5.42244C14.2864 5.25455 14.3205 5.09517 14.3818 4.95028C14.4432 4.8054 14.5327 4.67415 14.6426 4.5642C14.7526 4.45426 14.8838 4.36477 15.0287 4.30341C15.1736 4.24205 15.333 4.2071 15.5009 4.2071C15.6688 4.2071 15.8281 4.24119 15.973 4.30256C16.1179 4.36392 16.2491 4.45341 16.3591 4.56335C16.469 4.6733 16.5585 4.80455 16.6199 4.94943C16.6813 5.09432 16.7153 5.25455 16.7153 5.42159V5.52472V5.62784V5.73097V5.83494C16.7153 5.85284 16.717 5.86818 16.7213 5.88097C16.7256 5.89375 16.7315 5.90483 16.7409 5.91335C16.7503 5.92188 16.7605 5.92869 16.7733 5.93295C16.7861 5.93722 16.8023 5.93892 16.8193 5.93892H17.2114H17.6034H17.9955H18.3875H18.4301H18.4727H18.5153H18.558V5.98153V6.02415V6.06676V6.10938V6.44602V6.78267V7.11932V7.45597V7.49858V7.54119V7.58381V7.62642H18.5153H18.4727H18.4301H18.3875H16.9438H15.5009H14.0571H12.6134H12.5707H12.5281H12.4855H12.4429V7.58381V7.54119V7.49858V7.45682H12.4438ZM10.0514 23.4582V19.3273V15.1963V11.0653V6.93438V6.89176V6.84915V6.80653V6.76392H10.094H10.1366H10.1793H10.2219H10.6753H11.1287H11.5821H12.0355H12.0781H12.1207H12.1634H12.206V6.80653V6.84915V6.89176V6.93438V7.13381V7.33324V7.53267V7.7321C12.2111 7.75852 12.2196 7.77813 12.2307 7.79261C12.2418 7.8071 12.2554 7.81733 12.269 7.8233C12.2827 7.82926 12.2963 7.83267 12.3082 7.83438C12.3202 7.83608 12.3313 7.83608 12.3381 7.83608H13.9259H15.5136H17.1014H18.6892C18.7071 7.83608 18.7224 7.83438 18.7352 7.83011C18.748 7.82585 18.7591 7.81989 18.7676 7.81051C18.7761 7.80114 18.783 7.79091 18.7872 7.77813C18.7915 7.76534 18.7932 7.74915 18.7932 7.7321V7.53267V7.33324V7.13381V6.93438V6.89176V6.84915V6.80653V6.76392H18.8358H18.8784H18.921H18.9636H19.417H19.8705H20.3239H20.7773H20.8199H20.8625H20.9051H20.9477V6.80653V6.84915V6.89176V6.93438V11.0653V15.1963V19.3273V23.4582V23.5009V23.5435V23.5861V23.6287H20.9051H20.8625H20.8199H20.7773H18.1378H15.5009H12.8614H10.2219H10.1793H10.1366H10.094H10.0514V23.5861V23.5435V23.5009V23.4582ZM22.7648 6.93438V11.5188V16.1031V20.6875V25.2719H22.7435H22.7222H22.7009H22.6795V25.2932V25.3145V25.3358V25.3571H22.6634H22.6472H22.631H22.6148L22.6165 25.3784L22.6182 25.3997L22.6199 25.421L22.6216 25.4423H19.0608H15.5009H11.9401H8.38011H8.3375H8.29489H8.25227H8.20966V25.3997V25.3571V25.3145V25.2719V20.6875V16.1031V11.5196V6.93438V6.89176V6.84915V6.80653V6.76392H8.25227H8.29489H8.3375H8.38011H8.70312H9.02614H9.34915H9.67216H9.71477H9.75739H9.8H9.84261V6.80653V6.84915V6.89176V6.93438V11.1344V15.3344V19.5344V23.7344C9.84261 23.7523 9.84432 23.7676 9.84858 23.7804C9.85284 23.7932 9.85881 23.8043 9.86818 23.8128C9.87756 23.8213 9.88778 23.8281 9.90057 23.8324C9.91335 23.8367 9.92955 23.8384 9.94659 23.8384H12.7165H15.4864H18.2563H21.0261C21.044 23.8384 21.0594 23.8367 21.0722 23.8324C21.0849 23.8281 21.096 23.8222 21.1045 23.8128C21.1131 23.8034 21.1199 23.7932 21.1241 23.7804C21.1284 23.7676 21.1301 23.7514 21.1301 23.7344V19.5344V15.3344V11.1344V6.93438V6.89176V6.84915V6.80653V6.76392H21.1727H21.2153H21.258H21.3006H21.6236H21.9466H22.2696H22.5926H22.6352H22.6778H22.7205H22.7631V6.80653V6.84915V6.89176V6.93438H22.7648Z" fill="#4D4D4D"/>
<path d="M15.5009 5.18042C15.4753 5.18042 15.4506 5.18553 15.4284 5.19491C15.4063 5.20428 15.3858 5.21792 15.3688 5.23497C15.3517 5.25201 15.3381 5.27247 15.3287 5.29462C15.3193 5.31678 15.3134 5.3415 15.3134 5.36792C15.3134 5.39349 15.3185 5.4182 15.3278 5.44036C15.3372 5.46252 15.3509 5.48298 15.3679 5.50002C15.3849 5.51707 15.4045 5.5307 15.4276 5.54008C15.4506 5.54945 15.4744 5.55457 15.5 5.55457C15.5256 5.55457 15.5503 5.54945 15.5724 5.54008C15.5946 5.5307 15.6151 5.51707 15.6321 5.50002C15.6491 5.48298 15.6628 5.46252 15.6722 5.44036C15.6815 5.4182 15.6866 5.39349 15.6866 5.36792C15.6866 5.34235 15.6815 5.31764 15.6722 5.29548C15.6628 5.27332 15.6491 5.25286 15.6321 5.23582C15.6151 5.21877 15.5955 5.20514 15.5724 5.19576C15.5494 5.18639 15.5264 5.18042 15.5009 5.18042Z" fill="#4D4D4D"/>
<path d="M19.2952 18.9003H19.048H18.8009H18.5537H18.3065H18.2648H18.223H18.1813H18.1395L18.1386 18.8585L18.1378 18.8167L18.1369 18.775L18.1361 18.7332C18.1293 18.3778 18.0577 18.0386 17.9307 17.7275C17.8037 17.4165 17.6222 17.1327 17.398 16.8898C17.1739 16.6469 16.9063 16.444 16.6063 16.294C16.3063 16.144 15.9756 16.046 15.6244 16.0136L15.5861 16.0102L15.5477 16.0068L15.5094 16.0034L15.471 16V15.9608V15.9216V15.8824V15.8432V15.5133V15.1835V14.8537V14.5238V14.4838V14.4437V14.4037V14.3636L15.5111 14.3619L15.5511 14.3602L15.5912 14.3585L15.6313 14.3568C15.8759 14.344 16.1051 14.3176 16.319 14.2775C16.533 14.2375 16.7324 14.1838 16.9156 14.1165C17.0989 14.0491 17.2676 13.969 17.4193 13.8753C17.5719 13.7815 17.7082 13.6741 17.8284 13.554C18.0151 13.3622 18.1565 13.1415 18.2631 12.9113C18.3696 12.6812 18.4429 12.4409 18.4906 12.2091C18.5384 11.9773 18.5639 11.7548 18.5741 11.5588C18.5852 11.3636 18.5827 11.1949 18.5767 11.0721C18.5767 11.0517 18.5741 11.0346 18.5699 11.0202C18.5656 11.0057 18.5605 10.9937 18.5528 10.9844C18.5452 10.975 18.5375 10.9682 18.5281 10.9639C18.5188 10.9596 18.5085 10.9571 18.4974 10.9571C18.4855 10.9571 18.4727 10.9562 18.4599 10.9554C18.4472 10.9545 18.4335 10.9545 18.4182 10.9545C18.4028 10.9545 18.3884 10.9537 18.3713 10.9537C18.3543 10.9537 18.3372 10.9537 18.3185 10.9537C18.2034 10.9537 18.0457 10.9588 17.8625 10.9775C17.6793 10.9963 17.4713 11.0287 17.2548 11.0841C17.0384 11.1395 16.8151 11.217 16.6011 11.327C16.3872 11.4369 16.1835 11.5775 16.0071 11.7591C15.956 11.8102 15.9074 11.8656 15.8614 11.9244C15.8153 11.9832 15.7719 12.0454 15.7318 12.1119C15.6918 12.1784 15.6534 12.2474 15.6193 12.3207C15.5852 12.394 15.5528 12.4707 15.523 12.5508L15.4872 12.6488L15.4514 12.7469L15.4156 12.8449L15.3798 12.9429L15.3364 12.8483L15.2929 12.7537L15.2494 12.6591L15.206 12.5645C15.1744 12.4946 15.1403 12.4221 15.1045 12.3497C15.0688 12.2773 15.0287 12.204 14.9852 12.1332C14.9418 12.0625 14.8949 11.9926 14.8429 11.9261C14.7909 11.8596 14.7338 11.7974 14.6707 11.7403C14.5003 11.575 14.3085 11.4446 14.1074 11.3423C13.9063 11.24 13.6974 11.1659 13.492 11.1122C13.2866 11.0585 13.0855 11.0253 12.9006 11.0057C12.7156 10.9861 12.5486 10.9801 12.4105 10.9801C12.3841 10.9801 12.3585 10.9801 12.3355 10.9809C12.3125 10.9818 12.2912 10.9818 12.2724 10.9827C12.2537 10.9835 12.2366 10.9835 12.2213 10.9844C12.206 10.9852 12.194 10.9852 12.1838 10.9861C12.1651 10.992 12.148 10.9988 12.1318 11.0082C12.1156 11.0176 12.1011 11.0287 12.0884 11.0415C12.0756 11.0542 12.0645 11.0679 12.056 11.0832C12.0474 11.0986 12.0398 11.1156 12.0355 11.1335C12.033 11.2247 12.0321 11.3738 12.044 11.5596C12.056 11.7454 12.0824 11.967 12.1335 12.2014C12.1847 12.4358 12.2614 12.6838 12.3756 12.9216C12.4898 13.1594 12.6406 13.3869 12.8418 13.5821C13.0045 13.7449 13.1903 13.8736 13.3864 13.9741C13.5824 14.0747 13.7878 14.148 13.9898 14.2008C14.1918 14.2537 14.3912 14.2861 14.5736 14.3057C14.756 14.3253 14.923 14.3312 15.0602 14.3312H15.1028H15.1455H15.1881H15.2307V14.3738V14.4165V14.4591V14.5017V14.8383V15.175V15.5116V15.8483V15.8875V15.9267V15.9659V16.0051L15.1923 16.0085L15.154 16.0119L15.1156 16.0153L15.0773 16.0187C14.7253 16.0511 14.392 16.15 14.0903 16.3025C13.7886 16.4551 13.5185 16.6596 13.2926 16.9042C13.0668 17.1488 12.8844 17.4327 12.7591 17.742C12.6338 18.0514 12.5648 18.3881 12.5648 18.7358V18.7784V18.821V18.8636V18.9062H12.5222H12.4795H12.4369H12.3943H12.119H11.8438H11.5693H11.294C11.2761 18.9062 11.2608 18.9079 11.248 18.9122C11.2352 18.9165 11.2233 18.9173 11.2148 18.9258C11.2063 18.9344 11.1994 18.9454 11.1952 18.9582C11.1909 18.971 11.1892 18.9872 11.1892 19.0042C11.1892 19.0221 11.1909 19.0375 11.1952 19.0503C11.1994 19.063 11.2054 19.0741 11.2148 19.0827C11.2241 19.0912 11.2344 19.098 11.2472 19.1023C11.2599 19.1065 11.2761 19.1082 11.2932 19.1082H13.2935H15.2938H17.294H19.2943C19.3122 19.1082 19.3276 19.1065 19.3403 19.1023C19.3531 19.098 19.3642 19.092 19.3727 19.0827C19.3813 19.0733 19.3881 19.063 19.3923 19.0503C19.3966 19.0375 19.3983 19.0213 19.3983 19.0042C19.3983 18.9863 19.3966 18.971 19.3923 18.9582C19.3881 18.9454 19.3821 18.9344 19.3727 18.9258C19.3634 18.9173 19.3531 18.9105 19.3403 18.9062C19.3276 18.902 19.3131 18.9003 19.2952 18.9003ZM15.4676 14.0005V13.9528V13.9051V13.8574V13.8096C15.4676 13.7398 15.471 13.6264 15.4855 13.4866C15.5 13.3469 15.5256 13.1798 15.5716 13.0017C15.6176 12.8236 15.6824 12.6352 15.7761 12.4511C15.8699 12.267 15.9918 12.088 16.1494 11.9295C16.3165 11.754 16.5142 11.6202 16.7196 11.5187C16.925 11.4173 17.1389 11.3466 17.3384 11.298C17.5378 11.2494 17.7244 11.223 17.8744 11.2094C18.0244 11.1949 18.1386 11.1932 18.1949 11.1932H18.2375H18.2801H18.3227H18.3653V11.2358V11.2784V11.321V11.3636C18.3653 11.4659 18.3611 11.6057 18.3457 11.7684C18.3304 11.9312 18.3023 12.117 18.2563 12.3096C18.2102 12.5023 18.1438 12.7034 18.0517 12.8952C17.9597 13.0869 17.8403 13.2719 17.6869 13.4329C17.519 13.6094 17.3213 13.7432 17.1151 13.8454C16.9088 13.9477 16.6949 14.0184 16.4955 14.067C16.296 14.1156 16.1094 14.142 15.9594 14.1565C15.8094 14.171 15.6952 14.1727 15.6389 14.1727H15.5963H15.5537H15.5111H15.4685V14.1301V14.0875V14.0449V14.0005H15.4676ZM15.0611 14.1165C14.9588 14.1165 14.819 14.1122 14.6563 14.0969C14.4935 14.0815 14.3077 14.0534 14.1151 14.0074C13.9224 13.9613 13.7213 13.8949 13.5295 13.8028C13.3378 13.7108 13.1528 13.5915 12.9918 13.438C12.8153 13.2702 12.6815 13.0724 12.5793 12.8662C12.477 12.6599 12.4063 12.446 12.3577 12.2466C12.3091 12.0471 12.2827 11.8605 12.2682 11.7105C12.2537 11.5605 12.252 11.4463 12.252 11.39V11.3474V11.3048V11.2622V11.2196H12.2946H12.3372H12.3798H12.4224C12.65 11.2196 12.8648 11.2341 13.0676 11.263C13.2705 11.292 13.4588 11.3355 13.6327 11.3926C13.8065 11.4497 13.9668 11.5213 14.1108 11.6065C14.2548 11.6917 14.3835 11.7898 14.4952 11.9014C14.6707 12.0684 14.8045 12.2653 14.906 12.4716C15.0074 12.6778 15.0781 12.8909 15.1267 13.0903C15.1753 13.2898 15.2017 13.4764 15.2153 13.6264C15.229 13.7764 15.2315 13.8906 15.2315 13.9469V13.9895V14.0321V14.0747V14.1173H15.1889H15.1463H15.1037H15.0611V14.1165ZM17.7551 18.9275H16.5526H15.35H14.1474H12.944H12.9006H12.8571H12.8136H12.7702L12.771 18.8841L12.7719 18.8406L12.7727 18.7971L12.7736 18.7537C12.7813 18.4051 12.858 18.0719 12.9918 17.7693C13.1256 17.4667 13.3148 17.194 13.5466 16.9648C13.7784 16.7355 14.0528 16.5497 14.3554 16.4219C14.658 16.2932 14.9895 16.2224 15.3355 16.2224C15.6849 16.2224 16.0199 16.2932 16.3267 16.4219C16.6327 16.5505 16.9105 16.7355 17.1449 16.9648C17.3793 17.194 17.571 17.4667 17.7057 17.7693C17.8403 18.0719 17.9188 18.4051 17.9256 18.7537L17.9264 18.7971L17.9273 18.8406L17.9281 18.8841L17.929 18.9275H17.8855H17.842H17.7986H17.7551Z" fill="#4D4D4D"/>
</svg>
