<svg width="30" height="30" viewBox="0 0 30 30" fill="none" xmlns="http://www.w3.org/2000/svg">
<rect width="30" height="30" fill="white"/>
<path d="M30 30H22.5H15H7.5H0V22.5003V15.0005V7.49975V0H7.5H15H22.5H30V7.49975V14.9995V22.4992V30ZM0.252287 29.7477H7.62614H15H22.3739H29.7477V22.3741V15.0005V7.62589V0.252279H22.3739H15H7.62614H0.252287V7.62589V14.9995V22.3731V29.7477Z" fill="#4D4D4D"/>
<path d="M21.097 9.70038L21.0221 9.65839L20.9464 9.6164L20.8715 9.57441L20.7967 9.53241L20.8733 9.49407L20.95 9.45573L21.0267 9.41739L21.1034 9.37905C21.2221 9.31972 21.3298 9.24395 21.4247 9.1554C21.5196 9.06685 21.6027 8.96461 21.6703 8.85415C21.7378 8.74369 21.7908 8.62228 21.8273 8.49539C21.8638 8.3685 21.8821 8.23614 21.8821 8.10194V7.68659V7.27305V6.85952V6.44599C21.8821 6.24333 21.8428 6.05163 21.7698 5.87818C21.6967 5.70474 21.5927 5.54955 21.4631 5.41901C21.3334 5.28847 21.1773 5.1844 21.0039 5.11228C20.8304 5.04017 20.6387 5 20.4361 5H17.8545H15.2729H12.6913H10.1124C9.90973 5 9.71803 5.03925 9.54458 5.11228C9.37114 5.18531 9.21595 5.28938 9.08632 5.41901C8.95669 5.54864 8.85171 5.70474 8.77959 5.87818C8.70748 6.05163 8.66731 6.24333 8.66731 6.44599V6.85952V7.27305V7.68659V8.10012C8.66731 8.2334 8.68648 8.36485 8.72208 8.48991C8.75768 8.61498 8.81063 8.73456 8.87818 8.84502C8.94574 8.95548 9.02881 9.05772 9.12466 9.14718C9.22051 9.23664 9.33006 9.31606 9.45056 9.37905L9.5245 9.41831L9.59844 9.45756L9.6733 9.49681L9.74724 9.53607L9.67421 9.57715L9.60118 9.61822L9.52815 9.6593L9.45512 9.70038C9.28898 9.7935 9.11553 9.90578 8.94756 10.04C8.77959 10.1742 8.61893 10.3312 8.47835 10.5128C8.33776 10.6945 8.21818 10.8999 8.13419 11.1327C8.05021 11.3655 8 11.6256 8 11.915V14.9038V17.8925V20.8813V23.87C8 23.8791 8 23.9412 8.01004 24.038C8.02008 24.1347 8.03834 24.2662 8.07577 24.415C8.1132 24.5638 8.16797 24.729 8.25013 24.8942C8.33229 25.0595 8.44183 25.2229 8.58698 25.368C8.67826 25.4657 8.78051 25.5515 8.89279 25.6245C9.00507 25.6976 9.12649 25.7587 9.25794 25.808C9.38939 25.8573 9.5318 25.8938 9.68242 25.9185C9.83396 25.9431 9.99463 25.955 10.1653 25.955H12.7205H15.2756H17.8307H20.3859C20.5529 25.955 20.7099 25.9431 20.8587 25.9185C21.0075 25.8948 21.1463 25.8582 21.2777 25.8089C21.4092 25.7596 21.5315 25.6994 21.6456 25.6255C21.7597 25.5515 21.8665 25.4657 21.9651 25.3671C22.1103 25.2156 22.2198 25.0494 22.302 24.8833C22.3841 24.7171 22.4398 24.5519 22.4763 24.4049C22.5129 24.258 22.532 24.1283 22.5421 24.0334C22.5521 23.9385 22.5521 23.8782 22.5521 23.8691V20.8813V17.8925V14.9038V11.915C22.5521 11.6101 22.4955 11.3381 22.4015 11.0971C22.3075 10.8561 22.1769 10.6452 22.029 10.4635C21.8811 10.2819 21.7168 10.1285 21.5543 10.0016C21.3918 9.87474 21.233 9.77615 21.097 9.70038ZM8.83619 8.07364V7.66011V7.24567V6.83214V6.4186C8.83619 6.23968 8.87088 6.0708 8.93478 5.91744C8.99868 5.76407 9.09088 5.62714 9.2059 5.51212C9.32093 5.3971 9.45786 5.3049 9.61122 5.241C9.76458 5.1771 9.93346 5.14241 10.1124 5.14241H12.694H15.2756H17.8572H20.4388C20.6177 5.14241 20.7866 5.1771 20.94 5.241C21.0933 5.3049 21.2303 5.3971 21.3453 5.51212C21.4603 5.62714 21.5525 5.76407 21.6164 5.91744C21.6803 6.0708 21.715 6.23968 21.715 6.4186V6.83214V7.24567V7.6592V8.07364C21.715 8.25257 21.6803 8.42145 21.6164 8.57481C21.5525 8.72817 21.4603 8.8651 21.3453 8.98013C21.2303 9.09515 21.0943 9.18735 20.9409 9.25125C20.7875 9.31515 20.6186 9.34984 20.4397 9.34984H17.8581H15.2765H12.6949H10.1124C9.93346 9.34984 9.76458 9.31515 9.61122 9.25125C9.45786 9.18735 9.32093 9.09515 9.2059 8.98013C9.09088 8.8651 8.99868 8.72817 8.93478 8.57481C8.87088 8.42145 8.83619 8.25257 8.83619 8.07364ZM22.3832 11.9159V14.9047V17.8934V20.8813V23.87C22.3832 23.8782 22.3832 23.9339 22.3741 24.0215C22.365 24.1092 22.3485 24.2288 22.3148 24.3648C22.281 24.5008 22.2317 24.6523 22.1568 24.8057C22.0829 24.9581 21.9834 25.1115 21.8528 25.2503C21.7625 25.3406 21.6648 25.4201 21.5607 25.4876C21.4567 25.5552 21.3444 25.6108 21.2248 25.6556C21.1052 25.7003 20.9783 25.7332 20.8432 25.7551C20.7081 25.777 20.5648 25.7879 20.4132 25.7879H17.8517H15.2902H12.7287H10.1662C10.0111 25.7879 9.86409 25.7761 9.72533 25.7533C9.58657 25.7304 9.45603 25.6957 9.33462 25.6501C9.21321 25.6045 9.10092 25.5479 8.9996 25.4812C8.89735 25.4137 8.80607 25.3361 8.72482 25.2484C8.58789 25.1115 8.48474 24.9591 8.40623 24.8066C8.32863 24.6542 8.2766 24.5026 8.241 24.3666C8.2054 24.2306 8.18805 24.111 8.17892 24.0234C8.16979 23.9357 8.16979 23.8791 8.16979 23.8709V20.8813V17.8925V14.9038V11.915C8.16979 11.4659 8.2976 11.0925 8.48839 10.784C8.67918 10.4754 8.93569 10.2335 9.1913 10.0473C9.4469 9.86105 9.70433 9.73051 9.89786 9.64652C10.0914 9.56254 10.2238 9.52511 10.2283 9.5242L12.7479 9.52329L15.2674 9.52237L17.7869 9.52146L20.3064 9.52055H20.3137H20.321H20.3284H20.3357L20.343 9.52329L20.3503 9.52602L20.3576 9.52876L20.3649 9.5315C20.4488 9.5598 20.6177 9.62096 20.8231 9.72229C21.0285 9.82362 21.2704 9.96603 21.5014 10.155C21.7323 10.344 21.9533 10.5813 22.1167 10.8734C22.2773 11.1619 22.3832 11.5079 22.3832 11.9159Z" fill="#4D4D4D"/>
<path d="M20.3019 6.20495V6.74537V7.28579V7.82622V8.36664C20.3019 8.38124 20.3046 8.39311 20.3101 8.40406C20.3156 8.41502 20.3229 8.42323 20.3311 8.43054C20.3393 8.43784 20.3493 8.4424 20.3585 8.44606C20.3676 8.44971 20.3776 8.45153 20.3859 8.45153C20.4005 8.45153 20.4132 8.44971 20.4242 8.44697C20.4352 8.44423 20.4434 8.43875 20.4507 8.43145C20.458 8.42415 20.4625 8.41593 20.4662 8.40498C20.4698 8.39402 20.4708 8.38124 20.4708 8.36664V7.82622V7.28579V6.74537V6.20495C20.4708 6.19035 20.4689 6.17757 20.4662 6.16661C20.4635 6.15566 20.458 6.14744 20.4507 6.14014C20.4434 6.13284 20.4352 6.12827 20.4242 6.12462C20.4132 6.12097 20.4005 6.12006 20.3859 6.12006C20.3713 6.12006 20.3585 6.12188 20.3475 6.12462C20.3366 6.12736 20.3283 6.13284 20.321 6.14014C20.3137 6.14744 20.3092 6.15566 20.3055 6.16661C20.3019 6.17757 20.3019 6.19035 20.3019 6.20495Z" fill="#4D4D4D"/>
<path d="M19.1809 6.20495V6.74537V7.28579V7.82622V8.36664C19.1809 8.38124 19.1827 8.39402 19.1854 8.40498C19.1882 8.41593 19.1936 8.42415 19.201 8.43145C19.2083 8.43875 19.2165 8.44332 19.2274 8.44697C19.2384 8.45062 19.2512 8.45153 19.2658 8.45153C19.2804 8.45153 19.2932 8.44971 19.3041 8.44697C19.3151 8.44423 19.3233 8.43875 19.3306 8.43145C19.3379 8.42415 19.3424 8.41593 19.3461 8.40498C19.3498 8.39402 19.3507 8.38124 19.3507 8.36664V7.82622V7.28579V6.74537V6.20495C19.3507 6.19035 19.3488 6.17757 19.3461 6.16661C19.3434 6.15566 19.3379 6.14744 19.3306 6.14014C19.3233 6.13284 19.3151 6.12827 19.3041 6.12462C19.2932 6.12097 19.2804 6.12006 19.2658 6.12006C19.2512 6.12006 19.2384 6.12188 19.2274 6.12462C19.2165 6.12736 19.2083 6.13284 19.201 6.14014C19.1936 6.14744 19.1891 6.15657 19.1854 6.16753C19.1818 6.17848 19.1809 6.19035 19.1809 6.20495Z" fill="#4D4D4D"/>
<path d="M18.0334 6.20495V6.74537V7.28579V7.82622V8.36664C18.0334 8.38124 18.0352 8.39402 18.0379 8.40498C18.0407 8.41593 18.0462 8.42415 18.0535 8.43145C18.0608 8.43875 18.069 8.44332 18.0799 8.44697C18.0909 8.45062 18.1037 8.45153 18.1183 8.45153C18.1329 8.45153 18.1457 8.44971 18.1566 8.44697C18.1676 8.44423 18.1758 8.43875 18.1831 8.43145C18.1904 8.42415 18.195 8.41593 18.1986 8.40498C18.2023 8.39402 18.2032 8.38124 18.2032 8.36664V7.82622V7.28579V6.74537V6.20495C18.2032 6.19035 18.2014 6.17757 18.1986 6.16661C18.1959 6.15566 18.1904 6.14744 18.1831 6.14014C18.1758 6.13284 18.1676 6.12827 18.1566 6.12462C18.1457 6.12097 18.1329 6.12006 18.1183 6.12006C18.1037 6.12006 18.0909 6.12188 18.0799 6.12462C18.069 6.12736 18.0608 6.13284 18.0535 6.14014C18.0462 6.14744 18.0416 6.15566 18.0379 6.16661C18.0343 6.17757 18.0334 6.19035 18.0334 6.20495Z" fill="#4D4D4D"/>
<path d="M16.8859 6.20495V6.74537V7.28579V7.82622V8.36664C16.8859 8.38124 16.8886 8.39311 16.8941 8.40406C16.8996 8.41502 16.9069 8.42323 16.9151 8.43054C16.9233 8.43784 16.9334 8.4424 16.9425 8.44606C16.9516 8.44971 16.9617 8.45153 16.9699 8.45153C16.9845 8.45153 16.9973 8.44971 17.0082 8.44697C17.0192 8.44423 17.0274 8.43875 17.0347 8.43145C17.042 8.42415 17.0466 8.41593 17.0502 8.40498C17.0539 8.39402 17.0548 8.38124 17.0548 8.36664V7.82622V7.28579V6.74537V6.20495C17.0548 6.19035 17.053 6.17757 17.0502 6.16661C17.0475 6.15566 17.042 6.14744 17.0347 6.14014C17.0274 6.13284 17.0192 6.12827 17.0082 6.12462C16.9973 6.12097 16.9845 6.12006 16.9699 6.12006C16.9553 6.12006 16.9425 6.12188 16.9316 6.12462C16.9206 6.12736 16.9124 6.13284 16.9051 6.14014C16.8978 6.14744 16.8941 6.15657 16.8914 6.16753C16.8886 6.17848 16.8859 6.19035 16.8859 6.20495Z" fill="#4D4D4D"/>
<path d="M15.7658 6.20495V6.74537V7.28579V7.82622V8.36664C15.7658 8.38124 15.7676 8.39402 15.7704 8.40498C15.7731 8.41593 15.7786 8.42415 15.7859 8.43145C15.7932 8.43875 15.8014 8.44332 15.8124 8.44697C15.8233 8.45062 15.8361 8.45153 15.8507 8.45153C15.8653 8.45153 15.8781 8.44971 15.889 8.44697C15.9 8.44423 15.9082 8.43875 15.9155 8.43145C15.9228 8.42415 15.9274 8.41593 15.931 8.40498C15.9347 8.39402 15.9356 8.38124 15.9356 8.36664V7.82622V7.28579V6.74537V6.20495C15.9356 6.19035 15.9338 6.17757 15.931 6.16661C15.9283 6.15566 15.9228 6.14744 15.9155 6.14014C15.9082 6.13284 15.9 6.12827 15.889 6.12462C15.8781 6.12097 15.8653 6.12006 15.8507 6.12006C15.8361 6.12006 15.8233 6.12188 15.8124 6.12462C15.8014 6.12736 15.7932 6.13284 15.7859 6.14014C15.7786 6.14744 15.774 6.15566 15.7704 6.16661C15.7667 6.17757 15.7658 6.19035 15.7658 6.20495Z" fill="#4D4D4D"/>
<path d="M14.6183 6.20495V6.74537V7.28579V7.82622V8.36664C14.6183 8.38124 14.6211 8.39311 14.6265 8.40406C14.632 8.41502 14.6393 8.42323 14.6475 8.43054C14.6558 8.43784 14.6658 8.4424 14.6749 8.44606C14.6841 8.44971 14.6941 8.45153 14.7023 8.45153C14.7169 8.45153 14.7297 8.44971 14.7407 8.44697C14.7516 8.44423 14.7598 8.43875 14.7671 8.43145C14.7744 8.42415 14.779 8.41593 14.7826 8.40498C14.7863 8.39402 14.7872 8.38124 14.7872 8.36664V7.82622V7.28579V6.74537V6.20495C14.7872 6.19035 14.7854 6.17757 14.7826 6.16661C14.7799 6.15566 14.7744 6.14744 14.7671 6.14014C14.7598 6.13284 14.7516 6.12827 14.7407 6.12462C14.7297 6.12097 14.7169 6.12006 14.7023 6.12006C14.6877 6.12006 14.6749 6.12188 14.664 6.12462C14.653 6.12736 14.6448 6.13284 14.6375 6.14014C14.6302 6.14744 14.6256 6.15566 14.622 6.16661C14.6183 6.17757 14.6183 6.19035 14.6183 6.20495Z" fill="#4D4D4D"/>
<path d="M13.4973 6.20495V6.74537V7.28579V7.82622V8.36664C13.4973 8.38124 13.4991 8.39402 13.5019 8.40498C13.5046 8.41593 13.5101 8.42415 13.5174 8.43145C13.5247 8.43875 13.5329 8.44332 13.5439 8.44697C13.5548 8.45062 13.5676 8.45153 13.5822 8.45153C13.5968 8.45153 13.6096 8.44971 13.6206 8.44697C13.6315 8.44423 13.6397 8.43875 13.647 8.43145C13.6543 8.42415 13.6589 8.41593 13.6626 8.40498C13.6662 8.39402 13.6671 8.38124 13.6671 8.36664V7.82622V7.28579V6.74537V6.20495C13.6671 6.19035 13.6653 6.17757 13.6626 6.16661C13.6598 6.15566 13.6543 6.14744 13.647 6.14014C13.6397 6.13284 13.6315 6.12827 13.6206 6.12462C13.6096 6.12097 13.5968 6.12006 13.5822 6.12006C13.5676 6.12006 13.5548 6.12188 13.5439 6.12462C13.5329 6.12736 13.5247 6.13284 13.5174 6.14014C13.5101 6.14744 13.5055 6.15566 13.5019 6.16661C13.4982 6.17757 13.4973 6.19035 13.4973 6.20495Z" fill="#4D4D4D"/>
<path d="M12.3498 6.20495V6.74537V7.28579V7.82622V8.36664C12.3498 8.38124 12.3526 8.39311 12.3581 8.40406C12.3635 8.41502 12.3708 8.42323 12.379 8.43054C12.3873 8.43784 12.3973 8.4424 12.4064 8.44606C12.4156 8.44971 12.4256 8.45153 12.4338 8.45153C12.4484 8.45153 12.4612 8.44971 12.4722 8.44697C12.4831 8.44423 12.4913 8.43875 12.4986 8.43145C12.5059 8.42415 12.5105 8.41593 12.5142 8.40498C12.5178 8.39402 12.5187 8.38124 12.5187 8.36664V7.82622V7.28579V6.74537V6.20495C12.5187 6.19035 12.5169 6.17757 12.5142 6.16661C12.5114 6.15566 12.5059 6.14744 12.4986 6.14014C12.4913 6.13284 12.4831 6.12827 12.4722 6.12462C12.4612 6.12097 12.4484 6.12006 12.4338 6.12006C12.4192 6.12006 12.4064 6.12188 12.3955 6.12462C12.3845 6.12736 12.3763 6.13284 12.369 6.14014C12.3617 6.14744 12.3571 6.15566 12.3535 6.16661C12.3498 6.17757 12.3498 6.19035 12.3498 6.20495Z" fill="#4D4D4D"/>
<path d="M11.2288 6.20496V6.74538V7.2858V7.82622V8.36664C11.2288 8.38125 11.2307 8.39403 11.2334 8.40498C11.2361 8.41593 11.2416 8.42415 11.2489 8.43145C11.2562 8.43876 11.2644 8.44332 11.2754 8.44697C11.2863 8.45062 11.2991 8.45154 11.3137 8.45154C11.3283 8.45154 11.3411 8.44971 11.3521 8.44697C11.363 8.44423 11.3712 8.43876 11.3785 8.43145C11.3858 8.42415 11.3904 8.41593 11.3941 8.40498C11.3977 8.39403 11.3986 8.38125 11.3986 8.36664V7.82622V7.2858V6.74538V6.20496C11.3986 6.19035 11.3968 6.17757 11.3941 6.16662C11.3913 6.15566 11.3858 6.14745 11.3785 6.14014C11.3712 6.13284 11.3621 6.12919 11.3512 6.12554C11.3402 6.12188 11.3274 6.12097 11.3128 6.12097C11.2982 6.12097 11.2854 6.1228 11.2745 6.12554C11.2635 6.12827 11.2553 6.13375 11.248 6.14106C11.2407 6.14836 11.2371 6.15657 11.2343 6.16753C11.2316 6.17848 11.2288 6.19035 11.2288 6.20496Z" fill="#4D4D4D"/>
<path d="M10.0823 6.20496V6.74538V7.2858V7.82622V8.36664C10.0823 8.38125 10.0841 8.39403 10.0868 8.40498C10.0896 8.41593 10.095 8.42415 10.1023 8.43145C10.1096 8.43876 10.1179 8.44332 10.1288 8.44697C10.1398 8.45062 10.1516 8.45062 10.1662 8.45062C10.1809 8.45062 10.1936 8.4488 10.2046 8.44606C10.2155 8.44332 10.2238 8.43784 10.2301 8.43145C10.2365 8.42506 10.242 8.41593 10.2457 8.40498C10.2493 8.39403 10.2502 8.38125 10.2502 8.36664V7.82622V7.2858V6.74538V6.20496C10.2502 6.19035 10.2484 6.17757 10.2457 6.16662C10.2429 6.15566 10.2374 6.14836 10.2301 6.14106C10.2228 6.13375 10.2146 6.12919 10.2037 6.12554C10.1927 6.12188 10.1809 6.12097 10.1662 6.12097C10.1516 6.12097 10.1389 6.1228 10.1279 6.12554C10.1169 6.12827 10.1087 6.13467 10.1014 6.14106C10.0941 6.14745 10.0896 6.15657 10.0868 6.16753C10.0841 6.17848 10.0823 6.19035 10.0823 6.20496Z" fill="#4D4D4D"/>
<path d="M10.6729 19.5959C10.6583 19.5959 10.6455 19.5977 10.6346 19.6005C10.6236 19.6041 10.6154 19.6087 10.6081 19.616C10.6008 19.6233 10.5962 19.6315 10.5926 19.6424C10.5889 19.6534 10.588 19.6662 10.588 19.6808V20.4348V21.1889V21.9429V22.6969C10.588 22.7024 10.5907 22.7088 10.5953 22.7152C10.5999 22.7216 10.6063 22.728 10.6145 22.7343C10.6227 22.7407 10.6318 22.7453 10.6419 22.749C10.6519 22.7526 10.6619 22.7553 10.6729 22.7553H12.9679H15.2628H17.5578H19.8527C19.8674 22.7553 19.8801 22.7535 19.8911 22.7508C19.902 22.748 19.9103 22.7426 19.9176 22.7353C19.9249 22.728 19.9294 22.7197 19.9331 22.7088C19.9367 22.6978 19.9376 22.685 19.9376 22.6704V21.9219V21.1752V20.4284V19.6817C19.9376 19.6671 19.9358 19.6543 19.9331 19.6434C19.9303 19.6324 19.9249 19.6242 19.9176 19.6169C19.9103 19.6096 19.902 19.605 19.8911 19.6014C19.8801 19.5977 19.8674 19.5968 19.8527 19.5968H17.5578H15.2628H12.9679H10.6729V19.5959ZM19.7678 19.9473V20.5681V21.1889V21.8096V22.4304V22.476V22.5216V22.5673V22.6129H19.7222H19.6766H19.6309H19.5853H17.4236H15.2619H13.1002H10.9404H10.8947H10.8491H10.8034H10.7578V22.5673V22.5216V22.476V22.4304V21.8096V21.1889V20.5681V19.9473V19.9017V19.8561V19.8104V19.7648H10.8034H10.8491H10.8947H10.9404H13.1021H15.2637H17.4254H19.5871H19.6327H19.6784H19.724H19.7697V19.8104V19.8561V19.9017V19.9473H19.7678Z" fill="#4D4D4D"/>
<path d="M17.8773 17.9956H17.8335H17.7896H17.7458H17.702L17.7002 17.9518L17.6984 17.908L17.6965 17.8642L17.6947 17.8204C17.6819 17.5365 17.6199 17.2662 17.5158 17.0189C17.4117 16.7715 17.2647 16.5469 17.0849 16.3534C16.9051 16.1598 16.6915 15.9992 16.4532 15.8778C16.2149 15.7564 15.9502 15.676 15.669 15.645L15.6289 15.6404L15.5887 15.6359L15.5485 15.6313L15.5084 15.6267V15.5857V15.5446V15.5035V15.4624V15.2086V14.9549V14.7011V14.4473V14.4044V14.3615V14.3186V14.2757L15.5513 14.2729L15.5942 14.2702L15.6371 14.2675L15.68 14.2647C15.8754 14.2529 16.0598 14.2309 16.2314 14.1972C16.403 14.1634 16.5637 14.1187 16.7125 14.063C16.8613 14.0073 16.9973 13.9407 17.1214 13.8631C17.2456 13.7855 17.3569 13.6969 17.4565 13.5974C17.6135 13.4349 17.7312 13.2469 17.8189 13.0497C17.9074 12.8534 17.9658 12.6489 18.0042 12.4545C18.0425 12.2601 18.0608 12.0775 18.069 11.9232C18.0772 11.7689 18.0745 11.643 18.0708 11.5654C18.0708 11.5508 18.069 11.538 18.0662 11.527C18.0635 11.5161 18.0589 11.5078 18.0535 11.5005C18.048 11.4932 18.0425 11.4887 18.0352 11.4859C18.0279 11.4832 18.0206 11.4814 18.0124 11.4814L17.9814 11.4805L17.9503 11.4795L17.9193 11.4786L17.8882 11.4777C17.7933 11.4777 17.6637 11.4814 17.5121 11.4969C17.3615 11.5124 17.1899 11.5389 17.011 11.5854C16.832 11.632 16.6486 11.6959 16.4724 11.7863C16.2962 11.8766 16.1282 11.9935 15.9822 12.1441C15.942 12.1843 15.9037 12.2272 15.8681 12.2701C15.8324 12.313 15.7996 12.3586 15.7695 12.4052C15.7393 12.4518 15.712 12.4992 15.6873 12.5476C15.6627 12.596 15.6407 12.6453 15.6225 12.6946L15.5832 12.7986L15.544 12.9027L15.5047 13.0068L15.4655 13.1109L15.4198 13.0086L15.3742 12.9064L15.3285 12.8041L15.2829 12.7019C15.2555 12.6389 15.2263 12.5814 15.1962 12.5275C15.1661 12.4737 15.135 12.4225 15.1012 12.376C15.0675 12.3294 15.0328 12.2847 14.9953 12.2436C14.9579 12.2025 14.9178 12.1633 14.8758 12.1259C14.7288 11.9844 14.5617 11.8739 14.3874 11.789C14.213 11.7041 14.0323 11.643 13.8579 11.6C13.6835 11.5571 13.5156 11.5316 13.3695 11.517C13.2235 11.5024 13.0966 11.4987 13.0044 11.4987C12.9843 11.4987 12.9651 11.4987 12.9478 11.4987C12.9304 11.4987 12.9149 11.4996 12.9003 11.4996C12.8857 11.4996 12.8738 11.5005 12.8629 11.5005C12.8519 11.5005 12.8428 11.5015 12.8364 11.5015C12.8218 11.5015 12.809 11.5033 12.7981 11.506C12.7871 11.5088 12.7789 11.5133 12.7716 11.5188C12.7643 11.5243 12.7597 11.5298 12.757 11.5371C12.7542 11.5444 12.7524 11.5517 12.7524 11.5599C12.7497 11.643 12.7488 11.7708 12.7597 11.9278C12.7707 12.0848 12.7926 12.2683 12.8346 12.4618C12.8766 12.6553 12.9405 12.858 13.0345 13.0524C13.1285 13.2469 13.2527 13.4322 13.417 13.591C13.5667 13.7334 13.7365 13.8439 13.9118 13.9279C14.087 14.0119 14.2669 14.0712 14.4376 14.1132C14.6083 14.1552 14.7671 14.178 14.9013 14.1908C15.0355 14.2036 15.1441 14.2063 15.2117 14.2063H15.2573H15.303H15.3486H15.3943V14.2519V14.2976V14.3432V14.3889V14.649V14.9092V15.1694V15.4295V15.4706V15.5117V15.5528V15.5939L15.3514 15.6057L15.3112 15.6103L15.271 15.6149L15.2309 15.6194C14.9497 15.6505 14.6859 15.7308 14.4467 15.8522C14.2075 15.9736 13.9948 16.1352 13.815 16.3278C13.6352 16.5213 13.4891 16.7459 13.3841 16.9933C13.2791 17.2407 13.2171 17.5109 13.2052 17.7948L13.2034 17.8386L13.2015 17.8824L13.1997 17.9263L13.1979 17.9701H13.1541H13.1103H13.0664H13.0226H12.4557H11.8888H11.3219H10.7532C10.7386 17.9701 10.7258 17.9719 10.7149 17.9746C10.7039 17.9774 10.6957 17.9819 10.6884 17.9883C10.6811 17.9947 10.6765 18.0039 10.6729 18.0148C10.6692 18.0258 10.6683 18.0385 10.6683 18.0531C10.6683 18.0723 10.6692 18.0887 10.6711 18.1034C10.6729 18.118 10.6747 18.1298 10.6775 18.1399C10.6802 18.1499 10.682 18.1572 10.6848 18.1627C10.6875 18.1682 10.6893 18.1718 10.6902 18.1736L12.9806 18.1709L15.271 18.1682L17.5614 18.1654L19.8518 18.1627C19.8664 18.1627 19.8792 18.1609 19.8902 18.1581C19.9011 18.1554 19.9093 18.1499 19.9166 18.1426C19.9239 18.1353 19.9285 18.1271 19.9322 18.1161C19.9358 18.1052 19.9367 18.0924 19.9367 18.0778C19.9367 18.0632 19.9349 18.0504 19.9322 18.0395C19.9294 18.0285 19.9239 18.0203 19.9166 18.013C19.9093 18.0057 19.9011 18.0011 19.8902 17.9975C19.8792 17.9938 19.8664 17.9929 19.8518 17.9929H19.3589H18.865H18.3711H17.8773V17.9956ZM15.5066 13.9169V13.8904V13.864V13.8375V13.811C15.5066 13.7535 15.5093 13.6604 15.5212 13.5454C15.533 13.4304 15.554 13.2934 15.5924 13.1474C15.6307 13.0013 15.6837 12.8461 15.7603 12.6955C15.837 12.5449 15.9374 12.397 16.0671 12.2674C16.1921 12.1341 16.34 12.0309 16.4943 11.9497C16.6495 11.8684 16.812 11.8109 16.9681 11.7689C17.1242 11.7269 17.273 11.7005 17.3999 11.684C17.5277 11.6676 17.6335 11.6594 17.7038 11.6548L17.7531 11.6512L17.8024 11.6475L17.8517 11.6439L17.901 11.6402V11.6895V11.7388V11.7881V11.8374C17.901 11.9168 17.8974 12.0254 17.8846 12.1532C17.8718 12.2811 17.849 12.4262 17.8106 12.5796C17.7723 12.7329 17.7184 12.8918 17.6427 13.046C17.5669 13.2003 17.4692 13.35 17.3442 13.4842C17.2182 13.6184 17.0703 13.7225 16.9142 13.8037C16.7581 13.885 16.5956 13.9434 16.4395 13.9863C16.2834 14.0292 16.1346 14.0548 16.0068 14.0721C15.879 14.0895 15.7731 14.0968 15.7028 14.1013L15.6535 14.105L15.6042 14.1086L15.5549 14.1123L15.5056 14.1159V14.0666V14.0173V13.968V13.9169H15.5066ZM15.1295 14.0465C15.0282 14.0465 14.9041 14.042 14.769 14.0274C14.6338 14.0128 14.485 13.989 14.3353 13.9489C14.1856 13.9087 14.0323 13.8548 13.8862 13.7791C13.7401 13.7033 13.6014 13.6075 13.48 13.486C13.3467 13.361 13.2435 13.2131 13.1623 13.0588C13.0811 12.9045 13.0235 12.7411 12.9815 12.585C12.9396 12.4289 12.9131 12.2801 12.8967 12.1532C12.8802 12.0264 12.872 11.9196 12.8674 11.8493L12.8638 11.8L12.8601 11.7507L12.8565 11.7014L12.8528 11.6521H12.9021H12.9514H13.0007H13.05C13.1294 11.6521 13.2381 11.6557 13.3659 11.6685C13.4937 11.6813 13.6388 11.7041 13.7922 11.7425C13.9455 11.7808 14.1044 11.8347 14.2587 11.9104C14.4129 11.9862 14.5626 12.0839 14.6968 12.2089C14.831 12.3349 14.9351 12.4828 15.0163 12.6389C15.0976 12.795 15.156 12.9575 15.1989 13.1136C15.2418 13.2697 15.2674 13.4185 15.2847 13.5463C15.3021 13.6741 15.3094 13.78 15.3139 13.8503L15.3176 13.8996L15.3212 13.9489L15.3249 13.9982L15.3285 14.0475H15.2792H15.23H15.1779H15.1295V14.0465ZM17.3442 17.9956H16.3765H15.4089H14.4412H13.4736H13.4252H13.3768H13.3284H13.2801L13.2828 17.9473L13.2855 17.8989L13.2883 17.8505L13.291 17.8021C13.3056 17.52 13.3759 17.2526 13.4891 17.0106C13.6032 16.7687 13.7611 16.5524 13.9528 16.3716C14.1445 16.1909 14.37 16.0448 14.6183 15.9444C14.8666 15.844 15.1378 15.7883 15.4217 15.7883C15.7065 15.7883 15.9767 15.8422 16.2232 15.9417C16.4696 16.0412 16.6915 16.1845 16.8786 16.3652C17.0667 16.5451 17.2209 16.7614 17.3314 17.0043C17.4418 17.2471 17.5094 17.5164 17.5249 17.803L17.5277 17.8514L17.5304 17.8998L17.5331 17.9482L17.5359 17.9965H17.4875H17.4391H17.3907H17.3442V17.9956Z" fill="#4D4D4D"/>
</svg>
