<svg width="30" height="30" viewBox="0 0 30 30" fill="none" xmlns="http://www.w3.org/2000/svg">
<rect width="30" height="30" fill="white"/>
<path d="M30 30H22.5H15H7.5H0V22.5003V15.0005V7.49975V0H7.5H15H22.5H30V7.49975V14.9995V22.4992V30ZM0.252287 29.7477H7.62614H15H22.3739H29.7477V22.3741V15.0005V7.62589V0.252279H22.3739H15H7.62614H0.252287V7.62589V14.9995V22.3731V29.7477Z" fill="#4D4D4D"/>
<path d="M20.9891 9.66144L20.9143 9.61948L20.8395 9.57752L20.7647 9.53555L20.6899 9.49359L20.7665 9.45528L20.8431 9.41697L20.9198 9.37865L20.9964 9.34034C21.1141 9.28196 21.2208 9.20624 21.3148 9.11867C21.4096 9.0311 21.4908 8.92984 21.5583 8.81946C21.6258 8.70908 21.6778 8.58958 21.7143 8.46461C21.7499 8.33963 21.769 8.20827 21.769 8.07418V7.66368V7.25318V6.84268V6.43218C21.769 6.2315 21.7298 6.04175 21.6577 5.86934C21.5857 5.69694 21.4826 5.54368 21.354 5.41506C21.2254 5.28644 21.0712 5.18244 20.8997 5.11129C20.7282 5.04014 20.5375 5 20.3369 5H17.7763H15.2157H12.6551H10.0945C9.89377 5 9.70403 5.03923 9.53162 5.11129C9.36012 5.18153 9.20595 5.28552 9.07733 5.41415C8.94871 5.54277 8.84471 5.69694 8.77265 5.86934C8.70058 6.04175 8.66227 6.23058 8.66227 6.43127V6.84177V7.25227V7.66277V8.07327C8.66227 8.20554 8.68052 8.33507 8.71609 8.45913C8.75167 8.5832 8.80367 8.70178 8.87026 8.81125C8.93685 8.92072 9.01895 9.02197 9.11473 9.11137C9.21051 9.20077 9.31816 9.27831 9.43766 9.34125L9.51155 9.38048L9.58726 9.41879L9.66115 9.45801L9.73504 9.49724L9.66206 9.53829L9.58909 9.57934L9.51611 9.62039L9.44313 9.66144C9.27893 9.75357 9.10652 9.86486 8.9405 9.99896C8.77447 10.1331 8.61484 10.2881 8.47527 10.4678C8.3357 10.6475 8.21711 10.851 8.13318 11.0818C8.04926 11.3126 8 11.5707 8 11.8572V14.8219V17.7866V20.7513V23.716C8 23.7251 8 23.7872 8.01003 23.8829C8.02007 23.9787 8.03831 24.1092 8.0748 24.2569C8.11129 24.4047 8.16602 24.5689 8.24812 24.7322C8.33022 24.8955 8.43787 25.0579 8.582 25.202C8.67322 25.2987 8.77356 25.3835 8.88485 25.4565C8.99614 25.5295 9.11656 25.5897 9.247 25.638C9.37745 25.6864 9.51793 25.7229 9.66845 25.7475C9.81805 25.7721 9.97769 25.784 10.1474 25.784H12.6815H15.2157H17.7498H20.2839C20.4491 25.784 20.605 25.7721 20.7528 25.7484C20.8997 25.7247 21.0383 25.6882 21.1679 25.6399C21.2974 25.5915 21.4187 25.5313 21.5328 25.4583C21.6459 25.3854 21.7517 25.3005 21.8493 25.202C21.9934 25.0524 22.1011 24.8864 22.1832 24.7222C22.2644 24.558 22.3191 24.3938 22.3565 24.2478C22.3939 24.1019 22.4121 23.9732 22.4213 23.8793C22.4313 23.7853 22.4313 23.7251 22.4313 23.716V20.7513V17.7866V14.8219V11.8572C22.4313 11.5552 22.3747 11.2852 22.2817 11.0462C22.1887 10.8072 22.0591 10.5983 21.9123 10.4186C21.7654 10.2389 21.6021 10.0865 21.4415 9.96065C21.2819 9.83567 21.1241 9.73624 20.9891 9.66144ZM8.82647 8.0459V7.6354V7.2249V6.8144V6.40391C8.82647 6.22602 8.86113 6.05817 8.92499 5.90583C8.98885 5.75349 9.08007 5.61757 9.19409 5.50354C9.30812 5.38952 9.44404 5.29738 9.59638 5.23444C9.74872 5.1715 9.91657 5.13774 10.0945 5.13774H12.6551H15.2157H17.7763H20.3369C20.5147 5.13774 20.6826 5.17241 20.8349 5.23626C20.9873 5.29921 21.1232 5.39134 21.2372 5.50537C21.3512 5.6194 21.4434 5.75532 21.5063 5.90766C21.5693 6.06 21.6048 6.22785 21.6048 6.40573V6.81623V7.22673V7.63723V8.04772C21.6048 8.22561 21.5702 8.39346 21.5063 8.5458C21.4434 8.69814 21.3512 8.83406 21.2372 8.94808C21.1232 9.06211 20.9873 9.15425 20.8349 9.21719C20.6826 9.28013 20.5147 9.31571 20.3369 9.31571H17.7763H15.2157H12.6551H10.0945C9.91657 9.31571 9.74872 9.28104 9.59638 9.21719C9.44404 9.15333 9.30812 9.06211 9.19409 8.94808C9.08007 8.83406 8.98793 8.69631 8.92499 8.54397C8.86113 8.39163 8.82647 8.22378 8.82647 8.0459ZM22.2671 11.8572V14.8219V17.7866V20.7513V23.716C22.2671 23.7242 22.2671 23.7799 22.258 23.8665C22.2489 23.9532 22.2324 24.0718 22.1987 24.2068C22.1649 24.3418 22.1157 24.4923 22.0418 24.6437C21.9679 24.7952 21.8703 24.9475 21.7398 25.0852C21.6495 25.1756 21.5528 25.254 21.4498 25.3206C21.3458 25.3872 21.2354 25.4428 21.1168 25.4866C20.9982 25.5304 20.8723 25.5642 20.7382 25.5851C20.6041 25.607 20.4618 25.618 20.3113 25.618H17.7708H15.2302H12.6897H10.1474C9.9932 25.618 9.84724 25.6061 9.7095 25.5833C9.57175 25.5605 9.44222 25.5268 9.32181 25.4811C9.20139 25.4355 9.0901 25.3799 8.98885 25.3133C8.88759 25.2467 8.79637 25.1692 8.71609 25.0816C8.58017 24.9457 8.47709 24.7942 8.40046 24.6428C8.32384 24.4914 8.27184 24.3409 8.23627 24.2059C8.20069 24.0709 8.18336 23.9523 8.17423 23.8647C8.16511 23.7771 8.16511 23.7215 8.16511 23.7133V20.7486V17.7838V14.8191V11.8544C8.16511 11.4083 8.29191 11.038 8.48165 10.7324C8.67139 10.4268 8.92499 10.186 9.1795 10.0008C9.43401 9.8156 9.68852 9.68607 9.881 9.60306C10.0735 9.52005 10.2039 9.48173 10.2094 9.48082L12.7089 9.47991L15.2084 9.479L17.7078 9.47808L20.2073 9.47717H20.2146H20.2219H20.2292H20.2365L20.2438 9.47991L20.2511 9.48264L20.2584 9.48538L20.2657 9.48812C20.3496 9.5164 20.5166 9.5766 20.72 9.67786C20.9234 9.77912 21.1633 9.9196 21.3932 10.1075C21.6231 10.2954 21.842 10.5308 22.0035 10.82C22.1622 11.1091 22.2671 11.4521 22.2671 11.8572Z" fill="#4D4D4D"/>
<path d="M20.2849 6.11108C20.2703 6.11108 20.2575 6.11291 20.2474 6.11565C20.2374 6.11838 20.2283 6.12386 20.2219 6.13024C20.2155 6.13663 20.21 6.14575 20.2073 6.15578C20.2046 6.16582 20.2028 6.17859 20.2028 6.19318V6.72957V7.26595V7.80234V8.33872C20.2028 8.35241 20.2055 8.36518 20.211 8.37521C20.2164 8.38525 20.2228 8.39437 20.231 8.40075C20.2392 8.40714 20.2484 8.41261 20.2575 8.41626C20.2666 8.41991 20.2757 8.42082 20.2839 8.42082C20.2985 8.42082 20.3113 8.419 20.3213 8.41626C20.3314 8.41353 20.3405 8.40805 20.3469 8.40167C20.3533 8.39528 20.3587 8.38616 20.3615 8.37612C20.3642 8.36609 20.366 8.35332 20.366 8.33872V7.80143V7.26504V6.72957V6.19318C20.366 6.17859 20.3642 6.16582 20.3615 6.15578C20.3587 6.14575 20.3533 6.13663 20.3469 6.13024C20.3405 6.12386 20.3314 6.11838 20.3213 6.11565C20.3113 6.11291 20.2994 6.11108 20.2849 6.11108Z" fill="#4D4D4D"/>
<path d="M19.1729 6.11108C19.1583 6.11108 19.1455 6.11291 19.1355 6.11565C19.1254 6.11838 19.1163 6.12386 19.1099 6.13024C19.1035 6.13663 19.0981 6.14575 19.0953 6.15578C19.0926 6.16582 19.0908 6.17859 19.0908 6.19318V6.72957V7.26595V7.80234V8.33872C19.0908 8.35332 19.0926 8.36609 19.0953 8.37612C19.0981 8.38616 19.1035 8.39528 19.1099 8.40167C19.1163 8.40805 19.1254 8.4117 19.1355 8.41535C19.1455 8.41809 19.1583 8.41991 19.1729 8.41991C19.1875 8.41991 19.2002 8.41809 19.2103 8.41535C19.2203 8.41261 19.2294 8.40714 19.2358 8.40075C19.2422 8.39437 19.2477 8.38525 19.2504 8.37521C19.2531 8.36518 19.255 8.35241 19.255 8.33781V7.80143V7.26504V6.72957V6.19318C19.255 6.17859 19.2531 6.16582 19.2504 6.15578C19.2477 6.14575 19.2422 6.13663 19.2358 6.13024C19.2294 6.12386 19.2203 6.11838 19.2103 6.11565C19.2002 6.11291 19.1875 6.11108 19.1729 6.11108Z" fill="#4D4D4D"/>
<path d="M18.0344 6.11108C18.0198 6.11108 18.007 6.11291 17.997 6.11565C17.987 6.11838 17.9779 6.12386 17.9715 6.13024C17.9651 6.13663 17.9596 6.14575 17.9569 6.15578C17.9541 6.16582 17.9523 6.17859 17.9523 6.19318V6.72957V7.26595V7.80234V8.33872C17.9523 8.35332 17.9541 8.36609 17.9569 8.37612C17.9596 8.38616 17.9651 8.39528 17.9715 8.40167C17.9779 8.40805 17.987 8.41353 17.997 8.41626C18.007 8.419 18.0198 8.42082 18.0344 8.42082C18.049 8.42082 18.0618 8.419 18.0718 8.41626C18.0818 8.41353 18.091 8.40805 18.0974 8.40167C18.1037 8.39528 18.1092 8.38616 18.1119 8.37612C18.1147 8.36609 18.1165 8.35332 18.1165 8.33872V7.80143V7.26504V6.72957V6.19318C18.1165 6.17859 18.1147 6.16582 18.1119 6.15578C18.1092 6.14575 18.1037 6.13663 18.0974 6.13024C18.091 6.12386 18.0818 6.11838 18.0718 6.11565C18.0618 6.11291 18.049 6.11108 18.0344 6.11108Z" fill="#4D4D4D"/>
<path d="M16.8969 6.11108C16.8823 6.11108 16.8695 6.11291 16.8595 6.11565C16.8494 6.11838 16.8403 6.12386 16.8339 6.13024C16.8275 6.13663 16.8221 6.14575 16.8193 6.15578C16.8166 6.16582 16.8148 6.17859 16.8148 6.19318V6.72957V7.26595V7.80234V8.33872C16.8148 8.35241 16.8175 8.36518 16.823 8.37521C16.8284 8.38525 16.8348 8.39437 16.843 8.40075C16.8513 8.40714 16.8604 8.41261 16.8695 8.41626C16.8786 8.41991 16.8877 8.42082 16.896 8.42082C16.9105 8.42082 16.9233 8.419 16.9334 8.41626C16.9434 8.41353 16.9525 8.40805 16.9589 8.40167C16.9653 8.39528 16.9708 8.38616 16.9735 8.37612C16.9762 8.36609 16.9781 8.35332 16.9781 8.33872V7.80143V7.26504V6.72957V6.19318C16.9781 6.17859 16.9762 6.16582 16.9735 6.15578C16.9708 6.14575 16.9653 6.13663 16.9589 6.13024C16.9525 6.12386 16.9434 6.11838 16.9334 6.11565C16.9233 6.11291 16.9115 6.11108 16.8969 6.11108Z" fill="#4D4D4D"/>
<path d="M15.7849 6.11108C15.7703 6.11108 15.7575 6.11291 15.7475 6.11565C15.7374 6.11838 15.7283 6.12386 15.7219 6.13024C15.7155 6.13663 15.7101 6.14575 15.7073 6.15578C15.7046 6.16582 15.7028 6.17859 15.7028 6.19318V6.72957V7.26595V7.80234V8.33872C15.7028 8.35332 15.7046 8.36609 15.7073 8.37612C15.7101 8.38616 15.7155 8.39528 15.7219 8.40167C15.7283 8.40805 15.7374 8.41353 15.7475 8.41626C15.7575 8.419 15.7703 8.42082 15.7849 8.42082C15.7995 8.42082 15.8122 8.419 15.8223 8.41626C15.8323 8.41353 15.8414 8.40805 15.8478 8.40167C15.8542 8.39528 15.8597 8.38616 15.8624 8.37612C15.8651 8.36609 15.867 8.35332 15.867 8.33872V7.80143V7.26504V6.72957V6.19318C15.867 6.17859 15.8651 6.16582 15.8624 6.15578C15.8597 6.14575 15.8542 6.13663 15.8478 6.13024C15.8414 6.12386 15.8323 6.11838 15.8223 6.11565C15.8122 6.11291 15.7995 6.11108 15.7849 6.11108Z" fill="#4D4D4D"/>
<path d="M14.6473 6.11108C14.6327 6.11108 14.62 6.11291 14.6099 6.11565C14.5999 6.11838 14.5908 6.12386 14.5844 6.13024C14.578 6.13663 14.5725 6.14575 14.5698 6.15578C14.5671 6.16582 14.5643 6.17859 14.5643 6.19318V6.72957V7.26595V7.80234V8.33872C14.5643 8.35241 14.5671 8.36518 14.5725 8.37521C14.578 8.38525 14.5844 8.39437 14.5926 8.40075C14.6008 8.40714 14.6099 8.41261 14.6191 8.41626C14.6282 8.41991 14.6373 8.42082 14.6455 8.42082C14.6601 8.42082 14.6729 8.419 14.6829 8.41626C14.693 8.41353 14.7021 8.40805 14.7085 8.40167C14.7148 8.39528 14.7203 8.38616 14.7231 8.37612C14.7258 8.36609 14.7276 8.35332 14.7276 8.33872V7.80143V7.26504V6.72957V6.19318C14.7276 6.17859 14.7258 6.16582 14.7231 6.15578C14.7203 6.14575 14.7167 6.13663 14.7103 6.13024C14.7039 6.12386 14.6948 6.11838 14.6847 6.11565C14.6747 6.11291 14.6619 6.11108 14.6473 6.11108Z" fill="#4D4D4D"/>
<path d="M13.5353 6.11108C13.5208 6.11108 13.508 6.11291 13.4979 6.11565C13.4879 6.11838 13.4788 6.12386 13.4724 6.13024C13.466 6.13663 13.4605 6.14575 13.4578 6.15578C13.4551 6.16582 13.4532 6.17859 13.4532 6.19318V6.72957V7.26595V7.80234V8.33872C13.4532 8.35332 13.4551 8.36609 13.4578 8.37612C13.4605 8.38616 13.466 8.39528 13.4724 8.40167C13.4788 8.40805 13.4879 8.41353 13.4979 8.41626C13.508 8.419 13.5208 8.42082 13.5353 8.42082C13.5499 8.42082 13.5627 8.419 13.5727 8.41626C13.5828 8.41353 13.5919 8.40805 13.5983 8.40167C13.6047 8.39528 13.6101 8.38616 13.6129 8.37612C13.6156 8.36609 13.6174 8.35332 13.6174 8.33872V7.80143V7.26504V6.72957V6.19318C13.6174 6.17859 13.6156 6.16582 13.6129 6.15578C13.6101 6.14575 13.6047 6.13663 13.5983 6.13024C13.5919 6.12386 13.5828 6.11838 13.5727 6.11565C13.5627 6.11291 13.5499 6.11108 13.5353 6.11108Z" fill="#4D4D4D"/>
<path d="M12.3969 6.11108C12.3823 6.11108 12.3695 6.11291 12.3595 6.11565C12.3495 6.11838 12.3403 6.12386 12.3339 6.13024C12.3276 6.13663 12.3221 6.14575 12.3194 6.15578C12.3166 6.16582 12.3148 6.17859 12.3148 6.19318V6.72957V7.26595V7.80234V8.33872C12.3148 8.35241 12.3175 8.36518 12.323 8.37521C12.3285 8.38525 12.3349 8.39437 12.3431 8.40075C12.3513 8.40714 12.3604 8.41261 12.3695 8.41626C12.3786 8.41991 12.3878 8.42082 12.396 8.42082C12.4106 8.42082 12.4233 8.419 12.4334 8.41626C12.4434 8.41353 12.4525 8.40805 12.4589 8.40167C12.4653 8.39528 12.4708 8.38616 12.4735 8.37612C12.4763 8.36609 12.4781 8.35332 12.4781 8.33872V7.80143V7.26504V6.72957V6.19318C12.4781 6.17859 12.4763 6.16582 12.4735 6.15578C12.4708 6.14575 12.4653 6.13663 12.4589 6.13024C12.4525 6.12386 12.4434 6.11838 12.4334 6.11565C12.4233 6.11291 12.4115 6.11108 12.3969 6.11108Z" fill="#4D4D4D"/>
<path d="M11.2858 6.11108C11.2712 6.11108 11.2584 6.11291 11.2484 6.11565C11.2384 6.11838 11.2292 6.12386 11.2229 6.13024C11.2165 6.13663 11.211 6.14575 11.2083 6.15578C11.2055 6.16582 11.2037 6.17859 11.2037 6.19318V6.72957V7.26595V7.80234V8.33872C11.2037 8.35332 11.2055 8.36609 11.2083 8.37612C11.211 8.38616 11.2165 8.39528 11.2229 8.40167C11.2292 8.40805 11.2384 8.41353 11.2484 8.41626C11.2584 8.419 11.2712 8.42082 11.2858 8.42082C11.3004 8.42082 11.3132 8.419 11.3232 8.41626C11.3332 8.41353 11.3424 8.40805 11.3487 8.40167C11.3551 8.39528 11.3606 8.38616 11.3633 8.37612C11.3661 8.36609 11.3679 8.35332 11.3679 8.33872V7.80143V7.26504V6.72957V6.19318C11.3679 6.17859 11.3661 6.16582 11.3633 6.15578C11.3606 6.14575 11.3551 6.13663 11.3487 6.13024C11.3424 6.12386 11.3332 6.11838 11.3232 6.11565C11.3132 6.11291 11.3004 6.11108 11.2858 6.11108Z" fill="#4D4D4D"/>
<path d="M10.1474 6.11108C10.1328 6.11108 10.12 6.11291 10.11 6.11565C10.0999 6.11838 10.0908 6.12386 10.0844 6.13024C10.078 6.13663 10.0726 6.14575 10.0698 6.15578C10.0671 6.16582 10.0653 6.17859 10.0653 6.19318V6.72957V7.26595V7.80234V8.33872C10.0653 8.35332 10.0671 8.36609 10.0698 8.37612C10.0726 8.38616 10.078 8.39528 10.0844 8.40167C10.0908 8.40805 10.099 8.4117 10.11 8.41535C10.1209 8.419 10.1328 8.41991 10.1474 8.41991C10.162 8.41991 10.1747 8.41809 10.1848 8.41535C10.1948 8.41261 10.2039 8.40714 10.2103 8.40075C10.2167 8.39437 10.2222 8.38525 10.2249 8.37521C10.2276 8.36518 10.2295 8.35149 10.2295 8.3369V7.80143V7.26504V6.72957V6.19318C10.2295 6.17859 10.2276 6.16582 10.2249 6.15578C10.2222 6.14575 10.2167 6.13663 10.2103 6.13024C10.2039 6.12386 10.1957 6.11929 10.1848 6.11565C10.1738 6.112 10.162 6.11108 10.1474 6.11108Z" fill="#4D4D4D"/>
<path d="M16.2072 16.5314C16.1233 16.5314 16.0421 16.5487 15.9691 16.5797C15.8962 16.6107 15.8305 16.6554 15.7748 16.7111C15.7192 16.7667 15.6745 16.8324 15.6435 16.9054C15.6125 16.9784 15.5951 17.0586 15.5951 17.1435C15.5951 17.2283 15.6125 17.3086 15.6435 17.3816C15.6745 17.4545 15.7192 17.5202 15.7748 17.5759C15.8305 17.6315 15.8962 17.6762 15.9691 17.7072C16.0421 17.7382 16.1224 17.7556 16.2072 17.7556C16.2921 17.7556 16.3723 17.7382 16.4453 17.7072C16.5183 17.6762 16.584 17.6315 16.6396 17.5759C16.6953 17.5202 16.74 17.4545 16.771 17.3816C16.802 17.3086 16.8193 17.2283 16.8193 17.1435C16.8193 17.0595 16.802 16.9793 16.771 16.9063C16.74 16.8333 16.6953 16.7676 16.6396 16.712C16.584 16.6563 16.5183 16.6116 16.4453 16.5806C16.3723 16.5496 16.2921 16.5314 16.2072 16.5314Z" fill="#4D4D4D"/>
<path d="M16.5256 14.6786C16.1498 14.6796 15.7913 14.7562 15.4656 14.8948C15.1399 15.0335 14.8453 15.2333 14.5981 15.4805C14.3509 15.7277 14.1511 16.0214 14.0124 16.348C13.8738 16.6746 13.7971 17.0322 13.7962 17.408C13.7962 17.419 13.799 17.4299 13.8026 17.4399C13.8072 17.45 13.8127 17.4582 13.82 17.4664C13.8272 17.4746 13.8364 17.4801 13.8464 17.4837C13.8564 17.4883 13.8674 17.4901 13.8783 17.4901C13.8893 17.4901 13.9002 17.4874 13.9103 17.4837C13.9203 17.4792 13.9285 17.4737 13.9367 17.4664C13.9449 17.4591 13.9504 17.45 13.954 17.4399C13.9586 17.4299 13.9604 17.419 13.9604 17.408C13.9604 17.055 14.0334 16.7184 14.1629 16.4119C14.2934 16.1054 14.4813 15.829 14.713 15.5973C14.9447 15.3656 15.2211 15.1767 15.5276 15.0472C15.8341 14.9177 16.1707 14.8447 16.5238 14.8447C16.5347 14.8447 16.5457 14.8419 16.5557 14.8383C16.5657 14.8337 16.5749 14.8283 16.5822 14.821C16.5894 14.8137 16.5958 14.8045 16.5995 14.7945C16.604 14.7845 16.6059 14.7735 16.6059 14.7626C16.6059 14.7516 16.6031 14.7407 16.5995 14.7306C16.5958 14.7206 16.5894 14.7124 16.5822 14.7042C16.5749 14.696 16.5657 14.6905 16.5557 14.6869C16.5457 14.6832 16.5365 14.6786 16.5256 14.6786Z" fill="#4D4D4D"/>
<path d="M16.5256 12.5614C15.8578 12.5623 15.222 12.6982 14.6428 12.9445C14.0635 13.1908 13.5417 13.5457 13.1029 13.9845C12.6642 14.4232 12.3084 14.945 12.063 15.5243C11.8167 16.1035 11.6808 16.7403 11.6799 17.4071C11.6799 17.4181 11.6826 17.429 11.6863 17.439C11.6908 17.4491 11.6963 17.4573 11.7036 17.4655C11.7109 17.4737 11.72 17.4792 11.7301 17.4828C11.7401 17.4874 11.751 17.4892 11.762 17.4892C11.7729 17.4892 11.7839 17.4865 11.7939 17.4828C11.8039 17.4783 11.8122 17.4728 11.8204 17.4655C11.8286 17.4582 11.8341 17.4491 11.8377 17.439C11.8423 17.429 11.8441 17.4181 11.8441 17.4071C11.845 16.7622 11.9764 16.1473 12.2144 15.5881C12.4516 15.029 12.7955 14.5245 13.2197 14.1003C13.6439 13.6761 14.1484 13.3331 14.7075 13.095C15.2667 12.857 15.8816 12.7256 16.5265 12.7247C16.5375 12.7247 16.5484 12.722 16.5584 12.7183C16.5685 12.7147 16.5776 12.7083 16.5849 12.701C16.5922 12.6937 16.5986 12.6846 16.6022 12.6745C16.6059 12.6645 16.6086 12.6535 16.6086 12.6426C16.6086 12.6316 16.6059 12.6207 16.6022 12.6107C16.5986 12.6006 16.5922 12.5924 16.5849 12.5842C16.5776 12.576 16.5685 12.5705 16.5584 12.5669C16.5484 12.5632 16.5365 12.5614 16.5256 12.5614Z" fill="#4D4D4D"/>
<path d="M16.5247 10.4442C15.5659 10.4451 14.651 10.6412 13.819 10.9951C12.9871 11.3491 12.2363 11.859 11.606 12.4903C10.9757 13.1215 10.4648 13.8714 10.1109 14.7033C9.75693 15.5352 9.56172 16.4502 9.55989 17.4089C9.55989 17.4199 9.56263 17.4308 9.56628 17.4409C9.57084 17.4509 9.57631 17.4591 9.58361 17.4673C9.59091 17.4755 9.60185 17.4792 9.61097 17.4837C9.62101 17.4883 9.63196 17.4901 9.6429 17.4901C9.65385 17.4901 9.6648 17.4874 9.67483 17.4837C9.68487 17.4792 9.69307 17.4737 9.70128 17.4664C9.70949 17.4591 9.71497 17.45 9.71862 17.44C9.72318 17.4299 9.725 17.419 9.725 17.408C9.72591 16.4721 9.91748 15.579 10.2623 14.7662C10.6071 13.9535 11.1061 13.2209 11.7218 12.6052C12.3376 11.9895 13.0701 11.4905 13.8829 11.1456C14.6957 10.8008 15.5887 10.6093 16.5247 10.6084C16.5356 10.6084 16.5466 10.6056 16.5566 10.602C16.5666 10.5983 16.5758 10.5919 16.5831 10.5846C16.5904 10.5773 16.5967 10.5682 16.6004 10.5582C16.604 10.5481 16.6068 10.5372 16.6068 10.5263C16.6068 10.5153 16.604 10.5044 16.6004 10.4943C16.5967 10.4843 16.5904 10.4761 16.5831 10.4679C16.5758 10.4597 16.5666 10.4542 16.5566 10.4505C16.5466 10.4469 16.5365 10.4442 16.5247 10.4442Z" fill="#4D4D4D"/>
<path d="M13.3447 25.0114L13.3575 24.9794L13.3702 24.9475L13.383 24.9156L13.3958 24.8837C13.4706 24.7058 13.591 24.4713 13.7333 24.2159C13.8756 23.9605 14.0398 23.6832 14.1994 23.4205C14.3591 23.1577 14.5151 22.9087 14.6419 22.7089C14.7687 22.5091 14.8663 22.3577 14.9101 22.2911C14.8909 22.2537 14.8626 22.1908 14.8398 22.1014C14.817 22.012 14.7979 21.8943 14.7951 21.7474C14.7924 21.6006 14.807 21.4245 14.8498 21.2165C14.8927 21.0085 14.9639 20.7686 15.077 20.495C15.1928 20.214 15.347 19.9577 15.5395 19.7269C15.732 19.4961 15.96 19.2899 16.2246 19.1111C16.4891 18.9323 16.7892 18.78 17.1222 18.6559C17.4551 18.5319 17.8228 18.4361 18.2214 18.3686C18.5206 18.3184 18.8116 18.2892 19.0816 18.2728C19.3517 18.2564 19.598 18.2546 19.8078 18.2591C20.0176 18.2637 20.19 18.2737 20.3113 18.2828C20.4326 18.292 20.501 18.3011 20.5038 18.3011L20.6224 18.3157L20.741 18.3303L20.8595 18.3449L20.9781 18.3595L20.8605 18.3786L20.7428 18.3978L20.6251 18.4169L20.5074 18.4361C20.2839 18.4717 20.0997 18.5428 19.9419 18.6459C19.784 18.749 19.6527 18.884 19.5359 19.0473C19.4192 19.2106 19.317 19.404 19.2185 19.6229C19.1199 19.8418 19.0233 20.0854 18.9183 20.3527C18.8837 20.4411 18.8481 20.5333 18.8098 20.6272C18.7715 20.7212 18.7332 20.8179 18.6921 20.9173C18.6511 21.0168 18.6082 21.118 18.5635 21.2211C18.5188 21.3242 18.4714 21.4291 18.4212 21.5358C18.2187 21.9682 17.9368 22.2638 17.6276 22.4635C17.3183 22.6633 16.9808 22.7691 16.6688 22.8202C16.3568 22.8713 16.0686 22.8686 15.8579 22.8521C15.6471 22.8357 15.513 22.8074 15.5076 22.8056L15.4857 22.8011L15.4638 22.7965L15.4419 22.7919L15.42 22.7874L15.43 22.7673L15.4401 22.7472L15.4501 22.7272L15.4601 22.7071C15.534 22.5648 15.6517 22.3796 15.7949 22.1698C15.9381 21.96 16.1069 21.7265 16.2839 21.4893C16.4608 21.2521 16.646 21.0104 16.8221 20.7841C16.9981 20.5579 17.1641 20.3481 17.3028 20.1748C16.8467 20.5734 16.4006 21.0633 15.9874 21.5759C15.5742 22.0886 15.1947 22.6223 14.8717 23.1085C14.5488 23.5947 14.2815 24.0307 14.0945 24.3482C13.9075 24.6656 13.7999 24.8636 13.7953 24.8727L13.7917 24.8791L13.788 24.8855L13.7844 24.8919L13.7807 24.8982L13.6713 24.9256L13.5618 24.953L13.4523 24.9803L13.3447 25.0114ZM19.6271 18.395C19.5295 18.395 19.4265 18.3969 19.3179 18.4005C19.2093 18.4042 19.0962 18.4096 18.9795 18.4178C18.8627 18.4261 18.7423 18.437 18.6191 18.4516C18.496 18.4662 18.3701 18.4835 18.2433 18.5045C17.9742 18.5501 17.6841 18.6149 17.3931 18.7088C17.1021 18.8028 16.8084 18.925 16.5302 19.0838C16.2519 19.2425 15.9919 19.4386 15.7648 19.6794C15.5377 19.9203 15.3452 20.2067 15.2056 20.547C15.0825 20.8462 15.0104 21.1025 14.9721 21.3187C14.9338 21.5349 14.9292 21.71 14.9411 21.8487C14.9529 21.9874 14.9785 22.0877 15.0031 22.1552C15.0277 22.2227 15.0487 22.2546 15.0496 22.2555L15.056 22.2647L15.0624 22.2738L15.0688 22.2829L15.0752 22.292L15.0688 22.3021L15.0624 22.3121L15.056 22.3221L15.0496 22.3322C15.0469 22.3367 14.9776 22.4426 14.869 22.6131C14.7605 22.7837 14.6127 23.0163 14.453 23.2745C14.2934 23.5327 14.1228 23.8154 13.9686 24.0845C13.8145 24.3537 13.6758 24.6091 13.58 24.8116L13.6074 24.8043L13.6348 24.797L13.6621 24.7897L13.6895 24.7824C13.736 24.6985 13.8884 24.4239 14.1219 24.0371C14.3554 23.6503 14.6692 23.1523 15.0387 22.6223C15.4081 22.0923 15.8314 21.5294 16.2839 21.0131C16.7363 20.4968 17.2171 20.0288 17.7014 19.6867L17.8045 19.6138L17.9076 19.5408L18.0107 19.4678L18.1138 19.3948L18.0335 19.4924L17.9532 19.59L17.8729 19.6877L17.7927 19.7853C17.7881 19.7907 17.6805 19.923 17.5135 20.131C17.3466 20.339 17.1213 20.6227 16.8805 20.9328C16.6396 21.243 16.386 21.5778 16.1616 21.887C15.9372 22.1963 15.7438 22.4818 15.6243 22.6907C15.7238 22.7062 15.8989 22.7272 16.116 22.7281C16.3331 22.729 16.5913 22.7089 16.8586 22.6423C17.1258 22.5757 17.4013 22.4635 17.6513 22.2784C17.9012 22.0932 18.1275 21.835 18.2944 21.4793C18.3436 21.3734 18.3911 21.2694 18.4358 21.1673C18.4805 21.0651 18.5234 20.9638 18.5635 20.8662C18.6036 20.7686 18.6429 20.6719 18.6803 20.578C18.7177 20.484 18.7532 20.3937 18.7879 20.3052C18.8782 20.0763 18.963 19.8601 19.0497 19.6612C19.1364 19.4623 19.2258 19.2799 19.3252 19.1175C19.4246 18.9551 19.5341 18.8128 19.6609 18.6933C19.7877 18.5738 19.9327 18.478 20.1024 18.4078C20.0696 18.406 20.034 18.4042 19.9975 18.4032C19.961 18.4023 19.9227 18.4005 19.8826 18.3996C19.8424 18.3987 19.8005 18.3978 19.7576 18.3969C19.7147 18.396 19.6728 18.395 19.6271 18.395Z" fill="#231F20"/>
</svg>
