<svg width="30" height="30" viewBox="0 0 30 30" fill="none" xmlns="http://www.w3.org/2000/svg">
<rect width="30" height="30" fill="white"/>
<path d="M30 30H22.5H15H7.5H0V22.5003V15.0005V7.49975V0H7.5H15H22.5H30V7.49975V14.9995V22.4992V30ZM0.252287 29.7477H7.62614H15H22.3739H29.7477V22.3741V15.0005V7.62589V0.252279H22.3739H15H7.62614H0.252287V7.62589V14.9995V22.3731V29.7477Z" fill="#4D4D4D"/>
<path fill-rule="evenodd" clip-rule="evenodd" d="M15 27C21.6274 27 27 21.6274 27 15C27 8.37259 21.6274 3 15 3C8.37259 3 3 8.37259 3 15C3 21.6274 8.37259 27 15 27Z" fill="url(#paint0_linear)"/>
<defs>
<linearGradient id="paint0_linear" x1="3" y1="15" x2="27" y2="15" gradientUnits="userSpaceOnUse">
<stop stop-color="#FDED94"/>
<stop offset="0.512" stop-color="white"/>
<stop offset="1" stop-color="#F2FDFF"/>
</linearGradient>
</defs>
</svg>
