<svg width="30" height="30" viewBox="0 0 30 30" fill="none" xmlns="http://www.w3.org/2000/svg">
<rect width="30" height="30" fill="white"/>
<path d="M30 30H22.5H15H7.5H0V22.5003V15.0005V7.49975V0H7.5H15H22.5H30V7.49975V14.9995V22.4992V30ZM0.252287 29.7477H7.62614H15H22.3739H29.7477V22.3741V15.0005V7.62589V0.252279H22.3739H15H7.62614H0.252287V7.62589V14.9995V22.3731V29.7477Z" fill="#4D4D4D"/>
<path d="M30 22V21.9421V21.8843V21.8264V21.7685C28.8439 21.3235 27.6602 20.9279 26.4529 20.5844C25.2446 20.241 24.0117 19.9507 22.7583 19.7163C21.5049 19.482 20.2279 19.3027 18.9345 19.1822C17.6401 19.0617 16.3282 19 15 19C13.6718 19 12.3589 19.0617 11.0655 19.1822C9.77111 19.3027 8.49515 19.482 7.24173 19.7163C5.98832 19.9507 4.7554 20.2419 3.54708 20.5844C2.33875 20.9279 1.15605 21.3235 0 21.7685V21.8264V21.8843V21.9421V22C1.15503 21.5522 2.33773 21.1546 3.54605 20.8093C4.75335 20.4639 5.98627 20.1717 7.24071 19.9364C8.49515 19.7011 9.77111 19.5199 11.0655 19.3994C12.3599 19.278 13.6728 19.2163 15.002 19.2163C16.3303 19.2163 17.6431 19.278 18.9376 19.3994C20.232 19.5209 21.5079 19.7011 22.7624 19.9364C24.0168 20.1717 25.2487 20.4649 26.457 20.8093C27.6612 21.1546 28.845 21.5522 30 22Z" fill="#4D4D4D"/>
<path d="M12.9216 6.7C12.9216 6.89667 12.895 7.07833 12.8416 7.245C12.7916 7.40833 12.7133 7.55167 12.6066 7.675C12.5033 7.79833 12.3733 7.895 12.2166 7.965C12.06 8.03167 11.875 8.065 11.6616 8.065C11.4483 8.065 11.2633 8.03167 11.1066 7.965C10.95 7.895 10.82 7.79833 10.7166 7.675C10.6133 7.55167 10.535 7.40833 10.4816 7.245C10.4316 7.07833 10.4066 6.89667 10.4066 6.7V4.455H10.6666V6.705C10.6666 6.85833 10.685 7.00333 10.7216 7.14C10.7616 7.27333 10.8216 7.39 10.9016 7.49C10.985 7.59 11.0883 7.67 11.2116 7.73C11.3383 7.78667 11.4883 7.815 11.6616 7.815C11.835 7.815 11.985 7.78667 12.1116 7.73C12.2383 7.67 12.3416 7.59 12.4216 7.49C12.505 7.39 12.565 7.27333 12.6016 7.14C12.6416 7.00333 12.6616 6.85833 12.6616 6.705V4.455H12.9216V6.7ZM16.1834 8L16.1284 7.455C16.0818 7.55167 16.0218 7.63833 15.9484 7.715C15.8751 7.78833 15.7918 7.85167 15.6984 7.905C15.6084 7.955 15.5118 7.99333 15.4084 8.02C15.3051 8.05 15.2001 8.065 15.0934 8.065C14.9034 8.065 14.7268 8.03 14.5634 7.96C14.4034 7.89 14.2684 7.8 14.1584 7.69C14.0618 7.59667 13.9834 7.49167 13.9234 7.375C13.8668 7.25833 13.8218 7.13667 13.7884 7.01C13.7584 6.88333 13.7368 6.75333 13.7234 6.62C13.7134 6.48667 13.7084 6.35667 13.7084 6.23C13.7084 6.10333 13.7134 5.975 13.7234 5.845C13.7334 5.71167 13.7551 5.58167 13.7884 5.455C13.8218 5.32833 13.8668 5.20833 13.9234 5.095C13.9834 4.97833 14.0618 4.87167 14.1584 4.775C14.2718 4.665 14.4084 4.57333 14.5684 4.5C14.7284 4.42667 14.9034 4.39 15.0934 4.39C15.2768 4.39 15.4434 4.41667 15.5934 4.47C15.7468 4.52333 15.8784 4.59667 15.9884 4.69C16.0984 4.78333 16.1868 4.895 16.2534 5.025C16.3201 5.15167 16.3601 5.29167 16.3734 5.445H16.1084C16.0984 5.32833 16.0734 5.23 16.0334 5.15C15.9934 5.06667 15.9401 4.98833 15.8734 4.915C15.7801 4.815 15.6651 4.745 15.5284 4.705C15.3951 4.665 15.2518 4.645 15.0984 4.645C14.9451 4.645 14.8068 4.67167 14.6834 4.725C14.5634 4.775 14.4568 4.845 14.3634 4.935C14.2801 5.015 14.2134 5.10833 14.1634 5.215C14.1134 5.31833 14.0734 5.42833 14.0434 5.545C14.0168 5.65833 13.9984 5.77333 13.9884 5.89C13.9818 6.00667 13.9784 6.12 13.9784 6.23C13.9784 6.33667 13.9834 6.45 13.9934 6.57C14.0034 6.69 14.0218 6.80833 14.0484 6.925C14.0751 7.04167 14.1134 7.15333 14.1634 7.26C14.2168 7.36333 14.2851 7.455 14.3684 7.535C14.5618 7.71833 14.8034 7.81 15.0934 7.81C15.2368 7.81 15.3701 7.785 15.4934 7.735C15.6201 7.685 15.7234 7.61667 15.8034 7.53C15.8734 7.45667 15.9284 7.375 15.9684 7.285C16.0118 7.195 16.0434 7.10333 16.0634 7.01C16.0868 6.91333 16.1001 6.815 16.1034 6.715C16.1101 6.615 16.1134 6.51667 16.1134 6.42H15.0684V6.165H16.3784V8H16.1834ZM19.5471 5.475C19.5471 5.22167 19.4654 5.03 19.3021 4.9C19.1421 4.76667 18.9154 4.7 18.6221 4.7H17.5871V6.25H18.6221C18.9154 6.25 19.1421 6.185 19.3021 6.055C19.4654 5.92167 19.5471 5.72833 19.5471 5.475ZM19.8171 5.475C19.8171 5.70833 19.7504 5.91 19.6171 6.08C19.4838 6.25 19.3054 6.365 19.0821 6.425L19.8021 8H19.5171L18.8221 6.49H17.5871V8H17.3271V4.455H18.6221C18.8154 4.455 18.9854 4.48 19.1321 4.53C19.2821 4.57667 19.4071 4.645 19.5071 4.735C19.6104 4.825 19.6871 4.93333 19.7371 5.06C19.7904 5.18333 19.8171 5.32167 19.8171 5.475ZM13.0889 11.125L11.8189 12.39L13.0889 13.66L12.7439 14L11.1339 12.385L12.7389 10.775L13.0889 11.125ZM14.658 14V11.265L13.893 11.82V11.14L14.748 10.525H15.283V14H14.658ZM18.7746 12.2C18.7746 12.3267 18.7712 12.46 18.7646 12.6C18.7579 12.7367 18.7412 12.8717 18.7146 13.005C18.6879 13.1383 18.6496 13.2667 18.5996 13.39C18.5496 13.5133 18.4796 13.6217 18.3896 13.715C18.2929 13.815 18.1796 13.8983 18.0496 13.965C17.9196 14.0317 17.7496 14.065 17.5396 14.065C17.3596 14.065 17.2046 14.04 17.0746 13.99C16.9446 13.9367 16.8346 13.8667 16.7446 13.78C16.6479 13.6867 16.5746 13.5833 16.5246 13.47C16.4746 13.3533 16.4496 13.2433 16.4496 13.14H17.0796C17.0896 13.2467 17.1296 13.335 17.1996 13.405C17.2796 13.4883 17.4029 13.53 17.5696 13.53C17.6529 13.53 17.7196 13.5167 17.7696 13.49C17.8229 13.4633 17.8712 13.43 17.9146 13.39C18.0079 13.3033 18.0712 13.1883 18.1046 13.045C18.1379 12.8983 18.1546 12.7483 18.1546 12.595C18.1146 12.6417 18.0679 12.6817 18.0146 12.715C17.9612 12.745 17.9046 12.77 17.8446 12.79C17.7846 12.81 17.7246 12.825 17.6646 12.835C17.6046 12.845 17.5479 12.85 17.4946 12.85C17.3079 12.85 17.1429 12.8217 16.9996 12.765C16.8562 12.7083 16.7362 12.6283 16.6396 12.525C16.5429 12.4183 16.4696 12.2933 16.4196 12.15C16.3729 12.0033 16.3496 11.8417 16.3496 11.665C16.3496 11.495 16.3746 11.3367 16.4246 11.19C16.4746 11.0433 16.5496 10.915 16.6496 10.805C16.7496 10.695 16.8746 10.61 17.0246 10.55C17.1746 10.4867 17.3479 10.455 17.5446 10.455C17.7079 10.455 17.8562 10.4833 17.9896 10.54C18.1229 10.5933 18.2396 10.67 18.3396 10.77C18.4396 10.8667 18.5212 10.9817 18.5846 11.115C18.6479 11.2483 18.6929 11.3933 18.7196 11.55C18.7396 11.6633 18.7529 11.7733 18.7596 11.88C18.7696 11.9833 18.7746 12.09 18.7746 12.2ZM18.0946 11.69C18.0946 11.5 18.0496 11.34 17.9596 11.21C17.8696 11.08 17.7312 11.015 17.5446 11.015C17.3546 11.015 17.2129 11.0767 17.1196 11.2C17.0296 11.3233 16.9846 11.4867 16.9846 11.69C16.9846 11.87 17.0312 12.0233 17.1246 12.15C17.2179 12.2767 17.3612 12.34 17.5546 12.34C17.7246 12.34 17.8562 12.2783 17.9496 12.155C18.0462 12.0283 18.0946 11.8733 18.0946 11.69Z" fill="#4D4D4D"/>
</svg>
