<svg width="30" height="30" viewBox="0 0 30 30" fill="none" xmlns="http://www.w3.org/2000/svg">
<rect width="30" height="30" fill="white"/>
<path d="M30 30H22.5H15H7.5H0V22.5003V15.0005V7.49975V0H7.5H15H22.5H30V7.49975V14.9995V22.4992V30ZM0.252287 29.7477H7.62614H15H22.3739H29.7477V22.3741V15.0005V7.62589V0.252279H22.3739H15H7.62614H0.252287V7.62589V14.9995V22.3731V29.7477Z" fill="#4D4D4D"/>
<path d="M30 22V21.9421V21.8843V21.8264V21.7685C28.8439 21.3235 27.6602 20.9279 26.4529 20.5844C25.2446 20.241 24.0117 19.9507 22.7583 19.7163C21.5049 19.482 20.2279 19.3027 18.9345 19.1822C17.6401 19.0617 16.3282 19 15 19C13.6718 19 12.3589 19.0617 11.0655 19.1822C9.77111 19.3027 8.49515 19.482 7.24173 19.7163C5.98832 19.9507 4.7554 20.2419 3.54708 20.5844C2.33875 20.9279 1.15605 21.3235 0 21.7685V21.8264V21.8843V21.9421V22C1.15503 21.5522 2.33773 21.1546 3.54605 20.8093C4.75335 20.4639 5.98627 20.1717 7.24071 19.9364C8.49515 19.7011 9.77111 19.5199 11.0655 19.3994C12.3599 19.278 13.6728 19.2163 15.002 19.2163C16.3303 19.2163 17.6431 19.278 18.9376 19.3994C20.232 19.5209 21.5079 19.7011 22.7624 19.9364C24.0168 20.1717 25.2487 20.4649 26.457 20.8093C27.6612 21.1546 28.845 21.5522 30 22Z" fill="#4D4D4D"/>
<path d="M12.9216 6.7C12.9216 6.89667 12.895 7.07833 12.8416 7.245C12.7916 7.40833 12.7133 7.55167 12.6066 7.675C12.5033 7.79833 12.3733 7.895 12.2166 7.965C12.06 8.03167 11.875 8.065 11.6616 8.065C11.4483 8.065 11.2633 8.03167 11.1066 7.965C10.95 7.895 10.82 7.79833 10.7166 7.675C10.6133 7.55167 10.535 7.40833 10.4816 7.245C10.4316 7.07833 10.4066 6.89667 10.4066 6.7V4.455H10.6666V6.705C10.6666 6.85833 10.685 7.00333 10.7216 7.14C10.7616 7.27333 10.8216 7.39 10.9016 7.49C10.985 7.59 11.0883 7.67 11.2116 7.73C11.3383 7.78667 11.4883 7.815 11.6616 7.815C11.835 7.815 11.985 7.78667 12.1116 7.73C12.2383 7.67 12.3416 7.59 12.4216 7.49C12.505 7.39 12.565 7.27333 12.6016 7.14C12.6416 7.00333 12.6616 6.85833 12.6616 6.705V4.455H12.9216V6.7ZM16.1834 8L16.1284 7.455C16.0818 7.55167 16.0218 7.63833 15.9484 7.715C15.8751 7.78833 15.7918 7.85167 15.6984 7.905C15.6084 7.955 15.5118 7.99333 15.4084 8.02C15.3051 8.05 15.2001 8.065 15.0934 8.065C14.9034 8.065 14.7268 8.03 14.5634 7.96C14.4034 7.89 14.2684 7.8 14.1584 7.69C14.0618 7.59667 13.9834 7.49167 13.9234 7.375C13.8668 7.25833 13.8218 7.13667 13.7884 7.01C13.7584 6.88333 13.7368 6.75333 13.7234 6.62C13.7134 6.48667 13.7084 6.35667 13.7084 6.23C13.7084 6.10333 13.7134 5.975 13.7234 5.845C13.7334 5.71167 13.7551 5.58167 13.7884 5.455C13.8218 5.32833 13.8668 5.20833 13.9234 5.095C13.9834 4.97833 14.0618 4.87167 14.1584 4.775C14.2718 4.665 14.4084 4.57333 14.5684 4.5C14.7284 4.42667 14.9034 4.39 15.0934 4.39C15.2768 4.39 15.4434 4.41667 15.5934 4.47C15.7468 4.52333 15.8784 4.59667 15.9884 4.69C16.0984 4.78333 16.1868 4.895 16.2534 5.025C16.3201 5.15167 16.3601 5.29167 16.3734 5.445H16.1084C16.0984 5.32833 16.0734 5.23 16.0334 5.15C15.9934 5.06667 15.9401 4.98833 15.8734 4.915C15.7801 4.815 15.6651 4.745 15.5284 4.705C15.3951 4.665 15.2518 4.645 15.0984 4.645C14.9451 4.645 14.8068 4.67167 14.6834 4.725C14.5634 4.775 14.4568 4.845 14.3634 4.935C14.2801 5.015 14.2134 5.10833 14.1634 5.215C14.1134 5.31833 14.0734 5.42833 14.0434 5.545C14.0168 5.65833 13.9984 5.77333 13.9884 5.89C13.9818 6.00667 13.9784 6.12 13.9784 6.23C13.9784 6.33667 13.9834 6.45 13.9934 6.57C14.0034 6.69 14.0218 6.80833 14.0484 6.925C14.0751 7.04167 14.1134 7.15333 14.1634 7.26C14.2168 7.36333 14.2851 7.455 14.3684 7.535C14.5618 7.71833 14.8034 7.81 15.0934 7.81C15.2368 7.81 15.3701 7.785 15.4934 7.735C15.6201 7.685 15.7234 7.61667 15.8034 7.53C15.8734 7.45667 15.9284 7.375 15.9684 7.285C16.0118 7.195 16.0434 7.10333 16.0634 7.01C16.0868 6.91333 16.1001 6.815 16.1034 6.715C16.1101 6.615 16.1134 6.51667 16.1134 6.42H15.0684V6.165H16.3784V8H16.1834ZM19.5471 5.475C19.5471 5.22167 19.4654 5.03 19.3021 4.9C19.1421 4.76667 18.9154 4.7 18.6221 4.7H17.5871V6.25H18.6221C18.9154 6.25 19.1421 6.185 19.3021 6.055C19.4654 5.92167 19.5471 5.72833 19.5471 5.475ZM19.8171 5.475C19.8171 5.70833 19.7504 5.91 19.6171 6.08C19.4838 6.25 19.3054 6.365 19.0821 6.425L19.8021 8H19.5171L18.8221 6.49H17.5871V8H17.3271V4.455H18.6221C18.8154 4.455 18.9854 4.48 19.1321 4.53C19.2821 4.57667 19.4071 4.645 19.5071 4.735C19.6104 4.825 19.6871 4.93333 19.7371 5.06C19.7904 5.18333 19.8171 5.32167 19.8171 5.475ZM13.0889 11.125L11.8189 12.39L13.0889 13.66L12.7439 14L11.1339 12.385L12.7389 10.775L13.0889 11.125ZM14.658 14V11.265L13.893 11.82V11.14L14.748 10.525H15.283V14H14.658ZM18.8396 12.855C18.8396 13.025 18.8146 13.1833 18.7646 13.33C18.7146 13.4767 18.6396 13.605 18.5396 13.715C18.4396 13.825 18.3146 13.9117 18.1646 13.975C18.0146 14.035 17.8412 14.065 17.6446 14.065C17.4779 14.065 17.3279 14.0383 17.1946 13.985C17.0646 13.9283 16.9496 13.8517 16.8496 13.755C16.7496 13.655 16.6679 13.5383 16.6046 13.405C16.5412 13.2717 16.4962 13.1267 16.4696 12.97C16.4496 12.8567 16.4346 12.7483 16.4246 12.645C16.4179 12.5383 16.4146 12.43 16.4146 12.32C16.4146 12.1933 16.4179 12.0617 16.4246 11.925C16.4312 11.785 16.4479 11.6483 16.4746 11.515C16.5012 11.3817 16.5396 11.255 16.5896 11.135C16.6396 11.0117 16.7096 10.9017 16.7996 10.805C16.8962 10.705 17.0096 10.6217 17.1396 10.555C17.2696 10.4883 17.4396 10.455 17.6496 10.455C17.8296 10.455 17.9846 10.4817 18.1146 10.535C18.2446 10.585 18.3546 10.6533 18.4446 10.74C18.5412 10.8333 18.6146 10.9383 18.6646 11.055C18.7146 11.1683 18.7396 11.2767 18.7396 11.38H18.1096C18.0996 11.2733 18.0596 11.185 17.9896 11.115C17.9096 11.0317 17.7862 10.99 17.6196 10.99C17.5362 10.99 17.4679 11.0033 17.4146 11.03C17.3646 11.0567 17.3179 11.09 17.2746 11.13C17.2279 11.1733 17.1879 11.225 17.1546 11.285C17.1246 11.345 17.0996 11.41 17.0796 11.48C17.0629 11.55 17.0512 11.6233 17.0446 11.7C17.0379 11.7733 17.0346 11.8483 17.0346 11.925C17.0746 11.8783 17.1212 11.84 17.1746 11.81C17.2279 11.7767 17.2846 11.75 17.3446 11.73C17.4046 11.71 17.4646 11.695 17.5246 11.685C17.5846 11.675 17.6412 11.67 17.6946 11.67C17.8812 11.67 18.0462 11.6983 18.1896 11.755C18.3329 11.8117 18.4529 11.8933 18.5496 12C18.6462 12.1033 18.7179 12.2283 18.7646 12.375C18.8146 12.5183 18.8396 12.6783 18.8396 12.855ZM18.2046 12.83C18.2046 12.65 18.1579 12.4967 18.0646 12.37C17.9712 12.2433 17.8279 12.18 17.6346 12.18C17.4646 12.18 17.3312 12.2433 17.2346 12.37C17.1412 12.4933 17.0946 12.6467 17.0946 12.83C17.0946 13.02 17.1396 13.18 17.2296 13.31C17.3196 13.44 17.4579 13.505 17.6446 13.505C17.8346 13.505 17.9746 13.4433 18.0646 13.32C18.1579 13.1967 18.2046 13.0333 18.2046 12.83Z" fill="#4D4D4D"/>
</svg>
