<svg width="30" height="30" viewBox="0 0 30 30" fill="none" xmlns="http://www.w3.org/2000/svg">
<rect width="30" height="30" fill="white"/>
<path d="M30 30H22.5H15H7.5H0V22.5003V15.0005V7.49975V0H7.5H15H22.5H30V7.49975V14.9995V22.4992V30ZM0.252287 29.7477H7.62614H15H22.3739H29.7477V22.3741V15.0005V7.62589V0.252279H22.3739H15H7.62614H0.252287V7.62589V14.9995V22.3731V29.7477Z" fill="#4D4D4D"/>
<path d="M30 22V21.9421V21.8843V21.8264V21.7685C28.8439 21.3235 27.6602 20.9279 26.4529 20.5844C25.2446 20.241 24.0117 19.9507 22.7583 19.7163C21.5049 19.482 20.2279 19.3027 18.9345 19.1822C17.6401 19.0617 16.3282 19 15 19C13.6718 19 12.3589 19.0617 11.0655 19.1822C9.77111 19.3027 8.49515 19.482 7.24173 19.7163C5.98832 19.9507 4.7554 20.2419 3.54708 20.5844C2.33875 20.9279 1.15605 21.3235 0 21.7685V21.8264V21.8843V21.9421V22C1.15503 21.5522 2.33773 21.1546 3.54605 20.8093C4.75335 20.4639 5.98627 20.1717 7.24071 19.9364C8.49515 19.7011 9.77111 19.5199 11.0655 19.3994C12.3599 19.278 13.6728 19.2163 15.002 19.2163C16.3303 19.2163 17.6431 19.278 18.9376 19.3994C20.232 19.5209 21.5079 19.7011 22.7624 19.9364C24.0168 20.1717 25.2487 20.4649 26.457 20.8093C27.6612 21.1546 28.845 21.5522 30 22Z" fill="#4D4D4D"/>
<path d="M12.9216 6.7C12.9216 6.89667 12.895 7.07833 12.8416 7.245C12.7916 7.40833 12.7133 7.55167 12.6066 7.675C12.5033 7.79833 12.3733 7.895 12.2166 7.965C12.06 8.03167 11.875 8.065 11.6616 8.065C11.4483 8.065 11.2633 8.03167 11.1066 7.965C10.95 7.895 10.82 7.79833 10.7166 7.675C10.6133 7.55167 10.535 7.40833 10.4816 7.245C10.4316 7.07833 10.4066 6.89667 10.4066 6.7V4.455H10.6666V6.705C10.6666 6.85833 10.685 7.00333 10.7216 7.14C10.7616 7.27333 10.8216 7.39 10.9016 7.49C10.985 7.59 11.0883 7.67 11.2116 7.73C11.3383 7.78667 11.4883 7.815 11.6616 7.815C11.835 7.815 11.985 7.78667 12.1116 7.73C12.2383 7.67 12.3416 7.59 12.4216 7.49C12.505 7.39 12.565 7.27333 12.6016 7.14C12.6416 7.00333 12.6616 6.85833 12.6616 6.705V4.455H12.9216V6.7ZM16.1834 8L16.1284 7.455C16.0818 7.55167 16.0218 7.63833 15.9484 7.715C15.8751 7.78833 15.7918 7.85167 15.6984 7.905C15.6084 7.955 15.5118 7.99333 15.4084 8.02C15.3051 8.05 15.2001 8.065 15.0934 8.065C14.9034 8.065 14.7268 8.03 14.5634 7.96C14.4034 7.89 14.2684 7.8 14.1584 7.69C14.0618 7.59667 13.9834 7.49167 13.9234 7.375C13.8668 7.25833 13.8218 7.13667 13.7884 7.01C13.7584 6.88333 13.7368 6.75333 13.7234 6.62C13.7134 6.48667 13.7084 6.35667 13.7084 6.23C13.7084 6.10333 13.7134 5.975 13.7234 5.845C13.7334 5.71167 13.7551 5.58167 13.7884 5.455C13.8218 5.32833 13.8668 5.20833 13.9234 5.095C13.9834 4.97833 14.0618 4.87167 14.1584 4.775C14.2718 4.665 14.4084 4.57333 14.5684 4.5C14.7284 4.42667 14.9034 4.39 15.0934 4.39C15.2768 4.39 15.4434 4.41667 15.5934 4.47C15.7468 4.52333 15.8784 4.59667 15.9884 4.69C16.0984 4.78333 16.1868 4.895 16.2534 5.025C16.3201 5.15167 16.3601 5.29167 16.3734 5.445H16.1084C16.0984 5.32833 16.0734 5.23 16.0334 5.15C15.9934 5.06667 15.9401 4.98833 15.8734 4.915C15.7801 4.815 15.6651 4.745 15.5284 4.705C15.3951 4.665 15.2518 4.645 15.0984 4.645C14.9451 4.645 14.8068 4.67167 14.6834 4.725C14.5634 4.775 14.4568 4.845 14.3634 4.935C14.2801 5.015 14.2134 5.10833 14.1634 5.215C14.1134 5.31833 14.0734 5.42833 14.0434 5.545C14.0168 5.65833 13.9984 5.77333 13.9884 5.89C13.9818 6.00667 13.9784 6.12 13.9784 6.23C13.9784 6.33667 13.9834 6.45 13.9934 6.57C14.0034 6.69 14.0218 6.80833 14.0484 6.925C14.0751 7.04167 14.1134 7.15333 14.1634 7.26C14.2168 7.36333 14.2851 7.455 14.3684 7.535C14.5618 7.71833 14.8034 7.81 15.0934 7.81C15.2368 7.81 15.3701 7.785 15.4934 7.735C15.6201 7.685 15.7234 7.61667 15.8034 7.53C15.8734 7.45667 15.9284 7.375 15.9684 7.285C16.0118 7.195 16.0434 7.10333 16.0634 7.01C16.0868 6.91333 16.1001 6.815 16.1034 6.715C16.1101 6.615 16.1134 6.51667 16.1134 6.42H15.0684V6.165H16.3784V8H16.1834ZM19.5471 5.475C19.5471 5.22167 19.4654 5.03 19.3021 4.9C19.1421 4.76667 18.9154 4.7 18.6221 4.7H17.5871V6.25H18.6221C18.9154 6.25 19.1421 6.185 19.3021 6.055C19.4654 5.92167 19.5471 5.72833 19.5471 5.475ZM19.8171 5.475C19.8171 5.70833 19.7504 5.91 19.6171 6.08C19.4838 6.25 19.3054 6.365 19.0821 6.425L19.8021 8H19.5171L18.8221 6.49H17.5871V8H17.3271V4.455H18.6221C18.8154 4.455 18.9854 4.48 19.1321 4.53C19.2821 4.57667 19.4071 4.645 19.5071 4.735C19.6104 4.825 19.6871 4.93333 19.7371 5.06C19.7904 5.18333 19.8171 5.32167 19.8171 5.475ZM13.0889 11.125L11.8189 12.39L13.0889 13.66L12.7439 14L11.1339 12.385L12.7389 10.775L13.0889 11.125ZM13.623 14V13.5L14.978 11.885C15.038 11.815 15.083 11.7417 15.113 11.665C15.143 11.585 15.158 11.51 15.158 11.44C15.158 11.3167 15.1197 11.2133 15.043 11.13C14.9697 11.0467 14.8613 11.005 14.718 11.005C14.568 11.005 14.453 11.0533 14.373 11.15C14.293 11.2467 14.253 11.365 14.253 11.505H13.613C13.613 11.3517 13.638 11.2117 13.688 11.085C13.738 10.955 13.8097 10.8433 13.903 10.75C13.9963 10.6567 14.1113 10.585 14.248 10.535C14.3847 10.4817 14.543 10.455 14.723 10.455C14.873 10.455 15.013 10.4783 15.143 10.525C15.273 10.5683 15.3863 10.6333 15.483 10.72C15.5797 10.8033 15.6547 10.905 15.708 11.025C15.7647 11.145 15.793 11.2817 15.793 11.435C15.793 11.5117 15.7813 11.5883 15.758 11.665C15.738 11.7417 15.7097 11.8167 15.673 11.89C15.6397 11.96 15.5997 12.0283 15.553 12.095C15.5097 12.1617 15.463 12.225 15.413 12.285L14.453 13.435H15.843V14H13.623ZM16.4746 14V13.5L17.8296 11.885C17.8896 11.815 17.9346 11.7417 17.9646 11.665C17.9946 11.585 18.0096 11.51 18.0096 11.44C18.0096 11.3167 17.9712 11.2133 17.8946 11.13C17.8212 11.0467 17.7129 11.005 17.5696 11.005C17.4196 11.005 17.3046 11.0533 17.2246 11.15C17.1446 11.2467 17.1046 11.365 17.1046 11.505H16.4646C16.4646 11.3517 16.4896 11.2117 16.5396 11.085C16.5896 10.955 16.6612 10.8433 16.7546 10.75C16.8479 10.6567 16.9629 10.585 17.0996 10.535C17.2362 10.4817 17.3946 10.455 17.5746 10.455C17.7246 10.455 17.8646 10.4783 17.9946 10.525C18.1246 10.5683 18.2379 10.6333 18.3346 10.72C18.4312 10.8033 18.5062 10.905 18.5596 11.025C18.6162 11.145 18.6446 11.2817 18.6446 11.435C18.6446 11.5117 18.6329 11.5883 18.6096 11.665C18.5896 11.7417 18.5612 11.8167 18.5246 11.89C18.4912 11.96 18.4512 12.0283 18.4046 12.095C18.3612 12.1617 18.3146 12.225 18.2646 12.285L17.3046 13.435H18.6946V14H16.4746Z" fill="#4D4D4D"/>
</svg>
