<svg width="30" height="30" viewBox="0 0 30 30" fill="none" xmlns="http://www.w3.org/2000/svg">
<rect width="30" height="30" fill="white"/>
<path d="M30 30H22.5H15H7.5H0V22.5003V15.0005V7.49975V0H7.5H15H22.5H30V7.49975V14.9995V22.4992V30ZM0.252287 29.7477H7.62614H15H22.3739H29.7477V22.3741V15.0005V7.62589V0.252279H22.3739H15H7.62614H0.252287V7.62589V14.9995V22.3731V29.7477Z" fill="#4D4D4D"/>
<path d="M25 14.9444C25.0024 14.3957 24.9119 13.8658 24.7416 13.373C24.5705 12.8802 24.3196 12.4228 24.002 12.0189C23.6845 11.6149 23.2986 11.2636 22.8601 10.9823C22.4208 10.7009 21.928 10.4887 21.3949 10.3628L21.3217 10.3455L21.2493 10.3282L21.1769 10.311L21.1045 10.2937L21.0765 10.2254L21.0485 10.1571L21.0205 10.0888L20.9934 10.0205C20.7425 9.4101 20.4076 8.85313 20.0045 8.36197C19.6014 7.87082 19.1308 7.44466 18.6092 7.09419C18.0876 6.74372 17.5142 6.47058 16.907 6.28465C16.2999 6.09872 15.6574 6 14.9976 6C14.7869 6 14.5772 6.00987 14.3682 6.03044C14.1592 6.05101 13.9527 6.08145 13.7479 6.12176C13.543 6.16207 13.339 6.21308 13.1374 6.27396C12.9359 6.33484 12.7368 6.40559 12.5401 6.48622C12.142 6.64993 11.7635 6.85232 11.4089 7.09008C11.0543 7.32784 10.7228 7.60098 10.4217 7.90208C10.1206 8.20319 9.84826 8.53392 9.61133 8.8885C9.37439 9.24309 9.17036 9.62235 9.00746 10.0205L8.97949 10.0888L8.9507 10.1571L8.92273 10.2254L8.89475 10.2945L8.82318 10.311L8.75078 10.3282L8.67838 10.3455L8.60681 10.362C8.07288 10.4878 7.58008 10.7001 7.14158 10.9815C6.70308 11.2628 6.31723 11.6141 5.99885 12.0181C5.68046 12.422 5.42954 12.8786 5.25841 13.3714C5.08729 13.8642 4.9968 14.3932 5.00009 14.9411C5.00009 15.591 5.13254 16.2114 5.37112 16.7749C5.60971 17.3385 5.95524 17.8469 6.38222 18.2739C6.80921 18.7009 7.31681 19.0464 7.88036 19.285C8.44391 19.5236 9.06341 19.656 9.71252 19.656H10.216H10.7203H11.2246H11.729C11.7471 19.656 11.7635 19.6527 11.7791 19.6461C11.7948 19.6396 11.8088 19.6305 11.8203 19.6182C11.8318 19.6058 11.8417 19.5927 11.8483 19.577C11.8548 19.5614 11.8581 19.545 11.8581 19.5269C11.8581 19.5088 11.8548 19.4923 11.8483 19.4767C11.8417 19.461 11.8326 19.447 11.8203 19.4355C11.8079 19.424 11.7948 19.4141 11.7791 19.4076C11.7635 19.401 11.7471 19.3977 11.729 19.3977H11.2246H10.7195H10.216H9.7117C9.09796 19.3969 8.51384 19.2718 7.98073 19.0456C7.44762 18.8193 6.96881 18.4927 6.56569 18.0896C6.16256 17.6865 5.83595 17.2068 5.60971 16.6745C5.38347 16.1423 5.25841 15.5573 5.25759 14.9444C5.25512 14.3998 5.35385 13.8732 5.53731 13.3846C5.72077 12.8959 5.98897 12.4442 6.32546 12.051C6.66194 11.6577 7.06507 11.3221 7.5192 11.0637C7.97333 10.8054 8.47847 10.6252 9.01734 10.543L9.03626 10.5397L9.05518 10.5364L9.0741 10.5347L9.09302 10.5314L9.09961 10.5133L9.10536 10.4952L9.11112 10.4771L9.11771 10.459C9.33325 9.83132 9.64259 9.25461 10.0268 8.74371C10.411 8.23281 10.8701 7.78608 11.3859 7.41834C11.9017 7.05059 12.4727 6.761 13.0815 6.56355C13.6903 6.3661 14.3361 6.2608 15 6.2608C15.6639 6.2608 16.3098 6.3661 16.9186 6.56355C17.5274 6.761 18.0983 7.05059 18.6141 7.41834C19.13 7.78608 19.5882 8.23281 19.9724 8.74371C20.3566 9.25461 20.666 9.83132 20.8815 10.459L20.8873 10.4771L20.8938 10.4952L20.9004 10.5133L20.907 10.5314L20.9259 10.5347L20.9449 10.538L20.9638 10.5413L20.9827 10.5446C21.5207 10.6269 22.0259 10.8079 22.48 11.0654C22.9341 11.3237 23.3373 11.6594 23.6738 12.0526C24.0102 12.4459 24.2776 12.8975 24.4619 13.3862C24.6454 13.8757 24.7449 14.4022 24.7416 14.9477C24.7416 15.5606 24.6166 16.1455 24.3912 16.6778C24.1657 17.2101 23.8391 17.6898 23.436 18.0929C23.0329 18.496 22.5524 18.8226 22.0201 19.048C21.4878 19.2735 20.9021 19.3985 20.2883 19.3985H19.7528H19.2164H18.6808H18.1452C18.1271 19.3985 18.1107 19.4018 18.095 19.4084C18.0794 19.415 18.0654 19.424 18.0539 19.4364C18.0424 19.4487 18.0325 19.4619 18.0259 19.4775C18.0193 19.4931 18.016 19.5096 18.016 19.5277C18.016 19.5458 18.0193 19.5622 18.0259 19.5779C18.0325 19.5935 18.0415 19.6075 18.0539 19.619C18.0662 19.6305 18.0794 19.6404 18.095 19.647C18.1107 19.6535 18.1271 19.6568 18.1452 19.6568H18.6808H19.2164H19.7519H20.2875C20.9375 19.6568 21.5561 19.5244 22.1197 19.2858C22.6832 19.0472 23.1908 18.7017 23.6178 18.2747C24.0448 17.8477 24.3895 17.3401 24.6289 16.7766C24.8683 16.213 25 15.5935 25 14.9444Z" fill="#4D4D4D"/>
<path d="M18.5648 15.9301L17.6944 15.2176L16.8239 14.5052L15.9535 13.7927L15.0831 13.0802C15.0757 13.0745 15.0683 13.0696 15.0609 13.0654C15.0535 13.0613 15.0461 13.0589 15.0387 13.0564C15.0313 13.0539 15.0247 13.0531 15.0181 13.0523C15.0115 13.0515 15.0058 13.0515 15.0008 13.0515C14.9959 13.0515 14.9893 13.0515 14.9836 13.0523C14.9778 13.0531 14.9704 13.0547 14.963 13.0564C14.9556 13.058 14.9482 13.0613 14.9408 13.0654C14.9334 13.0696 14.926 13.0745 14.9186 13.0802L14.0424 13.7976L13.1662 14.515L12.29 15.2324L11.4139 15.9498C11.4007 15.9613 11.39 15.9745 11.3818 15.9893C11.3744 16.0041 11.3694 16.0206 11.3678 16.037C11.3661 16.0535 11.3678 16.0708 11.3727 16.0864C11.3777 16.1029 11.3859 16.1177 11.3966 16.1316C11.4023 16.1391 11.4097 16.1456 11.4172 16.1514C11.4246 16.1571 11.4328 16.1621 11.441 16.1662C11.4492 16.1703 11.4583 16.1736 11.4682 16.1752C11.4772 16.1777 11.4871 16.1785 11.497 16.1785C11.5035 16.1785 11.5109 16.1777 11.5175 16.1769C11.5241 16.1761 11.5315 16.1736 11.5381 16.1711C11.5447 16.1687 11.5513 16.1654 11.557 16.1621C11.5628 16.1588 11.5694 16.1547 11.5743 16.1497L12.1633 15.6676L12.7524 15.1855L13.3414 14.7034L13.9305 14.2213L14.1658 14.0288L14.4011 13.8363L14.6364 13.6438L14.8717 13.4513V13.7549V14.0584V14.362V14.6656V17.0259V19.3863V21.7466V24.1069C14.8717 24.125 14.875 24.1415 14.8815 24.1571C14.8881 24.1727 14.8972 24.1867 14.9095 24.1982C14.9219 24.2097 14.935 24.2196 14.9507 24.2262C14.9663 24.2328 14.9827 24.2361 15.0008 24.2361C15.0189 24.2361 15.0354 24.2328 15.051 24.2262C15.0667 24.2196 15.0806 24.2106 15.0922 24.1982C15.1037 24.1859 15.1135 24.1727 15.1201 24.1571C15.1267 24.1415 15.13 24.125 15.13 24.1069V21.7466V19.3863V17.0259V14.6656V14.362V14.0584V13.7549V13.4513L15.3653 13.6438L15.6006 13.8363L15.8359 14.0288L16.0712 14.2213L16.6536 14.6985L17.2361 15.1757L17.8186 15.6528L18.4011 16.13C18.4068 16.1349 18.4134 16.1391 18.4192 16.1432C18.4257 16.1465 18.4323 16.1497 18.4389 16.1522C18.4455 16.1547 18.4529 16.1563 18.4603 16.158C18.4677 16.1588 18.4751 16.1596 18.4825 16.1596C18.4883 16.1596 18.4957 16.1596 18.5031 16.158C18.5113 16.1571 18.5195 16.1547 18.5286 16.1514C18.5376 16.1481 18.5467 16.1432 18.5557 16.1374C18.5648 16.1308 18.5738 16.1226 18.5821 16.1127C18.5936 16.0987 18.601 16.0831 18.6059 16.0675C18.6108 16.0518 18.6125 16.0346 18.6108 16.0181C18.6092 16.0017 18.6043 15.9852 18.5969 15.9704C18.5895 15.9556 18.5779 15.9416 18.5648 15.9301Z" fill="#4D4D4D"/>
</svg>
