<svg width="30" height="30" viewBox="0 0 30 30" fill="none" xmlns="http://www.w3.org/2000/svg">
<rect width="30" height="30" fill="white"/>
<path d="M30 30H22.5H15H7.5H0V22.5003V15.0005V7.49975V0H7.5H15H22.5H30V7.49975V14.9995V22.4992V30ZM0.252287 29.7477H7.62614H15H22.3739H29.7477V22.3741V15.0005V7.62589V0.252279H22.3739H15H7.62614H0.252287V7.62589V14.9995V22.3731V29.7477Z" fill="#4D4D4D"/>
<path d="M14.528 15.162C13.897 15.162 13.295 15.034 12.747 14.801C12.199 14.568 11.706 14.233 11.291 13.818C10.876 13.403 10.541 12.91 10.308 12.362C10.075 11.814 9.94699 11.212 9.94699 10.581C9.94699 9.95 10.075 9.348 10.308 8.8C10.541 8.252 10.876 7.759 11.291 7.344C11.706 6.929 12.199 6.594 12.747 6.361C13.295 6.128 13.897 6 14.528 6C15.159 6 15.761 6.128 16.309 6.361C16.857 6.594 17.35 6.929 17.765 7.344C18.18 7.759 18.515 8.252 18.748 8.8C18.981 9.348 19.109 9.95 19.109 10.581C19.109 11.212 18.981 11.814 18.748 12.362C18.515 12.91 18.18 13.403 17.765 13.818C17.35 14.233 16.857 14.568 16.309 14.801C15.761 15.034 15.159 15.162 14.528 15.162ZM14.528 6.301C13.938 6.301 13.376 6.421 12.864 6.638C12.352 6.855 11.891 7.169 11.503 7.556C11.115 7.943 10.802 8.405 10.585 8.917C10.368 9.429 10.248 9.991 10.248 10.581C10.248 11.171 10.368 11.733 10.585 12.245C10.802 12.757 11.116 13.218 11.503 13.606C11.89 13.994 12.352 14.307 12.864 14.524C13.376 14.741 13.938 14.861 14.528 14.861C15.118 14.861 15.681 14.741 16.193 14.524C16.705 14.307 17.166 13.993 17.554 13.606C17.942 13.219 18.255 12.757 18.472 12.245C18.689 11.733 18.809 11.171 18.809 10.581C18.809 9.991 18.689 9.429 18.472 8.917C18.255 8.405 17.941 7.944 17.553 7.557C17.165 7.17 16.704 6.856 16.192 6.639C15.68 6.422 15.118 6.301 14.528 6.301Z" fill="#4D4D4D"/>
<path d="M14.528 24.677C13.739 24.677 12.936 24.66 12.176 24.581C11.416 24.502 10.699 24.364 10.08 24.121C9.461 23.878 8.942 23.531 8.576 23.037C8.21 22.543 8 21.902 8 21.07C8 20.291 8.183 19.548 8.514 18.872C8.845 18.196 9.323 17.587 9.914 17.075C10.505 16.563 11.208 16.149 11.989 15.862C12.77 15.575 13.627 15.417 14.527 15.417C15.427 15.417 16.285 15.575 17.065 15.862C17.845 16.149 18.549 16.563 19.14 17.075C19.731 17.587 20.209 18.196 20.54 18.872C20.871 19.548 21.054 20.291 21.054 21.07C21.054 21.902 20.843 22.543 20.478 23.037C20.113 23.531 19.593 23.878 18.974 24.121C18.355 24.364 17.638 24.503 16.878 24.581C16.118 24.659 15.317 24.677 14.528 24.677ZM14.528 15.717C13.67 15.717 12.851 15.867 12.106 16.138C11.361 16.409 10.69 16.802 10.126 17.286C9.562 17.77 9.106 18.348 8.79 18.988C8.474 19.628 8.3 20.332 8.3 21.07C8.3 21.758 8.449 22.309 8.732 22.748C9.015 23.187 9.433 23.514 9.972 23.756C10.511 23.998 11.168 24.152 11.932 24.247C12.696 24.342 13.566 24.376 14.527 24.376C15.488 24.376 16.358 24.341 17.122 24.247C17.886 24.153 18.544 23.997 19.082 23.756C19.62 23.515 20.038 23.187 20.322 22.748C20.606 22.309 20.754 21.758 20.754 21.07C20.754 20.332 20.579 19.629 20.264 18.988C19.949 18.347 19.492 17.771 18.928 17.286C18.364 16.801 17.693 16.409 16.948 16.138C16.203 15.867 15.387 15.717 14.528 15.717Z" fill="#4D4D4D"/>
</svg>
