<svg width="30" height="30" viewBox="0 0 30 30" fill="none" xmlns="http://www.w3.org/2000/svg">
<rect width="30" height="30" fill="white"/>
<path d="M30 30H22.5H15H7.5H0V22.5003V15.0005V7.49975V0H7.5H15H22.5H30V7.49975V14.9995V22.4992V30ZM0.252287 29.7477H7.62614H15H22.3739H29.7477V22.3741V15.0005V7.62589V0.252279H22.3739H15H7.62614H0.252287V7.62589V14.9995V22.3731V29.7477Z" fill="#4D4D4D"/>
<path d="M30 22V21.9421V21.8843V21.8264V21.7685C28.8439 21.3235 27.6602 20.9279 26.4529 20.5844C25.2446 20.241 24.0117 19.9507 22.7583 19.7163C21.5049 19.482 20.2279 19.3027 18.9345 19.1822C17.6401 19.0617 16.3282 19 15 19C13.6718 19 12.3589 19.0617 11.0655 19.1822C9.77111 19.3027 8.49515 19.482 7.24173 19.7163C5.98832 19.9507 4.7554 20.2419 3.54708 20.5844C2.33875 20.9279 1.15605 21.3235 0 21.7685V21.8264V21.8843V21.9421V22C1.15503 21.5522 2.33773 21.1546 3.54605 20.8093C4.75335 20.4639 5.98627 20.1717 7.24071 19.9364C8.49515 19.7011 9.77111 19.5199 11.0655 19.3994C12.3599 19.278 13.6728 19.2163 15.002 19.2163C16.3303 19.2163 17.6431 19.278 18.9376 19.3994C20.232 19.5209 21.5079 19.7011 22.7624 19.9364C24.0168 20.1717 25.2487 20.4649 26.457 20.8093C27.6612 21.1546 28.845 21.5522 30 22Z" fill="#4D4D4D"/>
<path d="M9.12399 8.403L9.12499 8.404C9.13199 8.397 9.13999 8.391 9.14699 8.385C9.15399 8.379 9.16199 8.373 9.16999 8.368C9.17799 8.363 9.18499 8.356 9.19299 8.35C9.20099 8.344 9.20799 8.337 9.21499 8.33C9.22099 8.324 9.22699 8.317 9.23299 8.309C9.23899 8.302 9.24499 8.295 9.25099 8.287C9.25699 8.279 9.26199 8.272 9.26799 8.264C9.27399 8.257 9.27999 8.249 9.28599 8.242C9.27199 8.256 9.25899 8.269 9.24599 8.283C9.23299 8.297 9.21999 8.31 9.20599 8.324C9.19199 8.338 9.17899 8.351 9.16599 8.364C9.15299 8.377 9.13799 8.39 9.12399 8.403Z" fill="#4D4D4D"/>
<path d="M20.541 19.571L20.52 19.55L20.5 19.53L20.479 19.509L20.458 19.488L17.629 16.679L14.799 13.87L11.97 11.06L9.14099 8.251L9.17999 8.211L9.21999 8.171L9.25899 8.13L9.29799 8.09L12.107 10.878L14.915 13.667L17.724 16.455L20.532 19.243L22.21 17.38L23.888 15.517L25.566 13.653L27.244 11.79L27.285 11.828L27.327 11.867L27.369 11.905L27.41 11.943L25.693 13.85L23.976 15.757L22.258 17.664L20.541 19.571Z" fill="#4D4D4D"/>
<path d="M15.0009 19L13.3874 16.4915L11.7747 13.984L10.1612 11.4755L8.54858 8.96794L8.59362 8.93824L8.63961 8.90949L8.6856 8.88075L8.73159 8.852L10.3059 11.2973L11.8792 13.7435L13.4535 16.1887L15.0277 18.6349L16.7754 16.6094L18.5222 14.5838L20.2699 12.5582L22.0176 10.5336L22.0588 10.569L22.1 10.6045L22.1412 10.64L22.1824 10.6754L20.3868 12.7566L18.5912 14.8377L16.7956 16.9189L15.0009 19Z" fill="#4D4D4D"/>
<path d="M7 20L7.05927 17.25L7.11754 14.5L7.17581 11.75L7.23408 9L7.29134 9.00195L7.3486 9.00293L7.40587 9.00391L7.46213 9.00489L7.40687 11.6132L7.35162 14.2215L7.29636 16.8298L7.2401 19.4371L9.63914 16.9656L12.0382 14.4941L14.4372 12.0227L16.7305 9.7046V9.77987H16.7991L16.8774 9.83203L14.5005 12.2787L12 14.8528L9.5005 17.4269L7 20Z" fill="#4D4D4D"/>
<path d="M28.075 12.694L27.628 12.25L27.181 11.806L26.734 11.362L26.287 10.918L26.941 10.712L27.595 10.506L28.249 10.3L28.903 10.094L28.696 10.744L28.489 11.394L28.282 12.044L28.075 12.694ZM26.758 11.033L27.059 11.332L27.36 11.631L27.661 11.93L27.962 12.229L28.101 11.791L28.24 11.353L28.379 10.915L28.518 10.477L28.078 10.616L27.638 10.755L27.198 10.894L26.758 11.033ZM23.099 11.606L22.652 11.162L22.205 10.718L21.758 10.274L21.311 9.83L21.965 9.624L22.619 9.418L23.273 9.212L23.927 9.006L23.72 9.656L23.513 10.306L23.306 10.956L23.099 11.606ZM21.782 9.945L22.083 10.244L22.384 10.543L22.685 10.842L22.986 11.141L23.125 10.703L23.264 10.265L23.403 9.827L23.542 9.389L23.102 9.528L22.662 9.667L22.222 9.806L21.782 9.945ZM17.568 10.828L17.121 10.384L16.674 9.94L16.227 9.496L15.78 9.052L16.434 8.846L17.088 8.64L17.742 8.434L18.396 8.228L18.189 8.878L17.982 9.528L17.775 10.178L17.568 10.828ZM16.252 9.167L16.553 9.466L16.854 9.765L17.155 10.064L17.456 10.363L17.596 9.925L17.736 9.487L17.876 9.049L18.016 8.611L17.576 8.75L17.136 8.889L16.696 9.028L16.252 9.167Z" fill="#4D4D4D"/>
<path d="M7.15499 9.21C6.73399 9.21 6.33299 9.124 5.96799 8.97C5.60299 8.816 5.27299 8.591 4.99699 8.314C4.72099 8.037 4.49699 7.708 4.34199 7.343C4.18699 6.978 4.10199 6.576 4.10199 6.155C4.10199 5.734 4.18799 5.332 4.34199 4.967C4.49699 4.602 4.72099 4.273 4.99699 3.996C5.27299 3.719 5.60199 3.496 5.96799 3.341C6.33399 3.186 6.73399 3.101 7.15499 3.101C7.57599 3.101 7.97799 3.187 8.34299 3.341C8.70799 3.495 9.03799 3.72 9.31399 3.996C9.58999 4.272 9.81499 4.602 9.96899 4.967C10.123 5.332 10.209 5.734 10.209 6.155C10.209 6.576 10.123 6.977 9.96899 7.343C9.81499 7.708 9.59099 8.038 9.31399 8.314C9.03699 8.59 8.70799 8.814 8.34299 8.969C7.97799 9.124 7.57599 9.21 7.15499 9.21ZM7.15499 3.351C6.76899 3.351 6.39999 3.43 6.06499 3.572C5.72999 3.714 5.42699 3.919 5.17399 4.173C4.92099 4.427 4.71399 4.729 4.57199 5.065C4.42999 5.4 4.35199 5.769 4.35199 6.155C4.35199 6.541 4.43099 6.91 4.57299 7.246C4.71499 7.581 4.92099 7.884 5.17399 8.137C5.42699 8.39 5.72999 8.596 6.06499 8.739C6.39999 8.882 6.76899 8.96 7.15499 8.96C7.54199 8.96 7.90999 8.881 8.24599 8.739C8.58199 8.597 8.88399 8.391 9.13799 8.137C9.39199 7.883 9.59799 7.581 9.73999 7.246C9.88199 6.911 9.95999 6.542 9.95999 6.155C9.95999 5.768 9.88199 5.4 9.73899 5.065C9.59599 4.73 9.39199 4.427 9.13799 4.173C8.88399 3.919 8.58199 3.713 8.24599 3.571C7.90999 3.429 7.54199 3.351 7.15499 3.351Z" fill="#4D4D4D"/>
<path d="M7.27 3.226V2.669V2.113V1.556V1H7.213H7.156H7.1H7.043V1.557V2.114V2.671V3.228C7.053 3.228 7.062 3.227 7.072 3.226C7.082 3.225 7.091 3.224 7.1 3.222C7.109 3.22 7.119 3.219 7.128 3.218C7.137 3.217 7.147 3.215 7.157 3.215C7.167 3.215 7.176 3.216 7.185 3.217C7.194 3.218 7.204 3.219 7.213 3.221C7.222 3.223 7.232 3.224 7.241 3.225C7.25 3.226 7.26 3.225 7.27 3.226Z" fill="#4D4D4D"/>
<path d="M10.096 6.155C10.096 6.162 10.096 6.169 10.095 6.176C10.094 6.183 10.093 6.19 10.092 6.196C10.091 6.202 10.09 6.209 10.089 6.216C10.088 6.223 10.088 6.229 10.087 6.236C10.087 6.239 10.086 6.241 10.086 6.244C10.086 6.247 10.087 6.25 10.087 6.253C10.087 6.256 10.086 6.258 10.086 6.26C10.086 6.262 10.086 6.265 10.086 6.268H10.643H11.2H11.757H12.314V6.212V6.155V6.099V6.042H11.757H11.2H10.643H10.085C10.085 6.045 10.085 6.047 10.085 6.05C10.085 6.053 10.085 6.055 10.086 6.058C10.087 6.061 10.087 6.063 10.088 6.066C10.089 6.069 10.089 6.072 10.089 6.074C10.089 6.081 10.09 6.088 10.091 6.095C10.092 6.102 10.093 6.108 10.094 6.115C10.095 6.122 10.096 6.128 10.097 6.135C10.098 6.142 10.096 6.148 10.096 6.155Z" fill="#4D4D4D"/>
<path d="M2.012 6.042C2.012 6.049 2.012 6.056 2.011 6.063C2.01 6.07 2.009 6.077 2.008 6.083C2.007 6.089 2.006 6.096 2.005 6.103C2.004 6.11 2.004 6.116 2.003 6.123C2.003 6.126 2.002 6.128 2.002 6.131C2.002 6.134 2.002 6.137 2.002 6.14C2.002 6.143 2.001 6.145 2.001 6.147C2.001 6.149 2.001 6.152 2.001 6.155H2.557H3.114H3.671H4.227V6.099V6.042V5.986V5.929H3.67H3.114H2.557H2C2 5.932 2 5.934 2 5.937C2 5.94 2 5.942 2.001 5.945C2.002 5.948 2.002 5.95 2.002 5.953C2.002 5.956 2.003 5.959 2.003 5.961C2.003 5.968 2.004 5.975 2.005 5.982C2.006 5.989 2.007 5.995 2.008 6.002C2.009 6.009 2.01 6.015 2.011 6.022C2.012 6.029 2.012 6.035 2.012 6.042Z" fill="#4D4D4D"/>
<path d="M9.37899 4.093L9.77199 3.7L10.165 3.307L10.558 2.914L10.951 2.521L10.911 2.481L10.871 2.441L10.831 2.401L10.791 2.361L10.398 2.752L10.004 3.145L9.61099 3.539L9.21799 3.932C9.22499 3.939 9.23199 3.945 9.23999 3.951C9.24799 3.957 9.25499 3.963 9.26299 3.968C9.27099 3.973 9.27799 3.979 9.28499 3.985C9.29199 3.991 9.29999 3.998 9.30699 4.005C9.31399 4.012 9.31999 4.019 9.32599 4.026C9.33199 4.033 9.33799 4.041 9.34299 4.048C9.34799 4.055 9.35399 4.063 9.35999 4.071C9.36599 4.078 9.37199 4.086 9.37899 4.093Z" fill="#4D4D4D"/>
<path d="M3.52001 9.952L3.91301 9.559L4.30701 9.165L4.70001 8.772L5.09301 8.379L5.05301 8.339L5.01301 8.299L4.97301 8.259L4.93301 8.219L4.53901 8.611L4.14601 9.004L3.75201 9.398L3.35901 9.791C3.36601 9.798 3.37301 9.804 3.38101 9.81C3.38901 9.816 3.39601 9.822 3.40401 9.827C3.41201 9.832 3.41901 9.838 3.42701 9.844C3.43501 9.85 3.44201 9.856 3.44901 9.863C3.45601 9.87 3.46201 9.877 3.46801 9.884C3.47401 9.891 3.48001 9.899 3.48501 9.906C3.49001 9.913 3.49601 9.921 3.50201 9.929C3.50801 9.937 3.51401 9.945 3.52001 9.952Z" fill="#4D4D4D"/>
<path d="M5.174 3.932L4.78 3.539L4.387 3.145L3.993 2.752L3.6 2.358L3.56 2.398L3.52 2.438L3.48 2.478L3.44 2.518L3.833 2.912L4.226 3.306L4.619 3.7L5.012 4.094C5.019 4.087 5.025 4.079 5.03 4.072C5.035 4.065 5.042 4.057 5.047 4.049C5.052 4.041 5.059 4.034 5.065 4.027C5.071 4.02 5.078 4.012 5.085 4.005C5.093 3.997 5.1 3.991 5.107 3.985C5.114 3.979 5.122 3.973 5.129 3.968C5.136 3.963 5.144 3.957 5.152 3.951C5.16 3.945 5.167 3.939 5.174 3.932Z" fill="#4D4D4D"/>
</svg>
