<svg width="30" height="30" viewBox="0 0 30 30" fill="none" xmlns="http://www.w3.org/2000/svg">
<rect width="30" height="30" fill="white"/>
<path d="M30 30H22.5H15H7.5H0V22.5003V15.0005V7.49975V0H7.5H15H22.5H30V7.49975V14.9995V22.4992V30ZM0.252287 29.7477H7.62614H15H22.3739H29.7477V22.3741V15.0005V7.62589V0.252279H22.3739H15H7.62614H0.252287V7.62589V14.9995V22.3731V29.7477Z" fill="#4D4D4D"/>
<path d="M30 22V21.9421V21.8843V21.8264V21.7685C28.8439 21.3235 27.6602 20.9279 26.4529 20.5844C25.2446 20.241 24.0117 19.9507 22.7583 19.7163C21.5049 19.482 20.2279 19.3027 18.9345 19.1822C17.6401 19.0617 16.3282 19 15 19C13.6718 19 12.3589 19.0617 11.0655 19.1822C9.77111 19.3027 8.49515 19.482 7.24173 19.7163C5.98832 19.9507 4.7554 20.2419 3.54708 20.5844C2.33875 20.9279 1.15605 21.3235 0 21.7685V21.8264V21.8843V21.9421V22C1.15503 21.5522 2.33773 21.1546 3.54605 20.8093C4.75335 20.4639 5.98627 20.1717 7.24071 19.9364C8.49515 19.7011 9.77111 19.5199 11.0655 19.3994C12.3599 19.278 13.6728 19.2163 15.002 19.2163C16.3303 19.2163 17.6431 19.278 18.9376 19.3994C20.232 19.5209 21.5079 19.7011 22.7624 19.9364C24.0168 20.1717 25.2487 20.4649 26.457 20.8093C27.6612 21.1546 28.845 21.5522 30 22Z" fill="#4D4D4D"/>
<path d="M15 14C14.3105 14 13.6535 13.8602 13.0554 13.6062C12.4574 13.3523 11.9182 12.9862 11.4663 12.5338C11.0144 12.0814 10.6468 11.5427 10.394 10.9443C10.1411 10.3459 10 9.68888 10 9C10 8.31113 10.1401 7.65412 10.394 7.05573C10.6478 6.45733 11.0134 5.91857 11.4663 5.46617C11.9192 5.01378 12.4584 4.64672 13.0554 4.39379C13.6525 4.14086 14.3105 4 15 4C15.6895 4 16.3465 4.13983 16.9446 4.39379C17.5426 4.64775 18.0818 5.01378 18.5337 5.46617C18.9856 5.91857 19.3532 6.45733 19.606 7.05573C19.8589 7.65412 20 8.31113 20 9C20 9.68888 19.8599 10.3459 19.606 10.9443C19.3522 11.5427 18.9866 12.0814 18.5337 12.5338C18.0808 12.9862 17.5426 13.3533 16.9446 13.6062C16.3465 13.8591 15.6895 14 15 14ZM15 4.2591C14.3461 4.2591 13.7216 4.39173 13.1539 4.63233C12.5863 4.87292 12.0745 5.22044 11.645 5.64919C11.2155 6.07794 10.8672 6.58997 10.6265 7.15649C10.3859 7.72301 10.2528 8.34711 10.2528 9.00103C10.2528 9.65495 10.3859 10.278 10.6265 10.8456C10.8672 11.4131 11.2145 11.9241 11.645 12.3529C12.0755 12.7816 12.5863 13.1302 13.1539 13.3697C13.7216 13.6093 14.345 13.743 15 13.743C15.6539 13.743 16.2784 13.6103 16.8461 13.3697C17.4137 13.1291 17.9255 12.7816 18.355 12.3529C18.7845 11.9241 19.1328 11.4121 19.3735 10.8456C19.6141 10.279 19.7472 9.65495 19.7472 9.00103C19.7472 8.34711 19.6141 7.72404 19.3735 7.15649C19.1328 6.58894 18.7855 6.07794 18.355 5.64919C17.9245 5.22044 17.4137 4.87189 16.8461 4.63233C16.2784 4.39276 15.6539 4.2591 15 4.2591Z" fill="#4D4D4D"/>
<path d="M11.3142 25.535C11.2508 25.6983 11.1642 25.8233 11.0542 25.91C10.9475 26 10.8092 26.045 10.6392 26.045C10.5892 26.045 10.5442 26.0433 10.5042 26.04C10.4642 26.0367 10.4308 26.0317 10.4042 26.025C10.3708 26.0183 10.3442 26.01 10.3242 26V25.79C10.3575 25.7967 10.3925 25.8017 10.4292 25.805C10.4892 25.815 10.5558 25.82 10.6292 25.82C10.7492 25.82 10.8442 25.785 10.9142 25.715C10.9842 25.645 11.0408 25.5567 11.0842 25.45L11.2442 25.04L10.2192 22.5H10.4892L11.3642 24.72L12.2042 22.5H12.4742L11.3142 25.535ZM14.8985 23.81H12.9885C12.9918 23.9567 13.0152 24.095 13.0585 24.225C13.1052 24.3517 13.1685 24.4633 13.2485 24.56C13.3185 24.6433 13.4018 24.7083 13.4985 24.755C13.5985 24.8017 13.7168 24.825 13.8535 24.825C14.0768 24.825 14.2585 24.7517 14.3985 24.605C14.4452 24.5583 14.4835 24.5067 14.5135 24.45C14.5468 24.3933 14.5718 24.3267 14.5885 24.25H14.8485C14.8318 24.3567 14.7985 24.455 14.7485 24.545C14.6985 24.6317 14.6385 24.7083 14.5685 24.775C14.4785 24.865 14.3718 24.9367 14.2485 24.99C14.1285 25.04 13.9968 25.065 13.8535 25.065C13.6735 25.065 13.5185 25.0317 13.3885 24.965C13.2585 24.8983 13.1485 24.8133 13.0585 24.71C12.9552 24.59 12.8752 24.45 12.8185 24.29C12.7652 24.1267 12.7385 23.95 12.7385 23.76C12.7385 23.6 12.7552 23.445 12.7885 23.295C12.8218 23.145 12.8868 23.0033 12.9835 22.87C13.1968 22.58 13.4802 22.435 13.8335 22.435C14.0035 22.435 14.1535 22.4683 14.2835 22.535C14.4168 22.6017 14.5285 22.6917 14.6185 22.805C14.7118 22.915 14.7818 23.0433 14.8285 23.19C14.8785 23.3367 14.9035 23.4883 14.9035 23.645L14.8985 23.81ZM14.6485 23.58C14.6452 23.46 14.6252 23.3467 14.5885 23.24C14.5518 23.13 14.4985 23.0333 14.4285 22.95C14.3585 22.8633 14.2735 22.795 14.1735 22.745C14.0735 22.695 13.9602 22.67 13.8335 22.67C13.7035 22.67 13.5868 22.695 13.4835 22.745C13.3802 22.7917 13.2918 22.8567 13.2185 22.94C13.1485 23.0233 13.0935 23.12 13.0535 23.23C13.0135 23.34 12.9935 23.4567 12.9935 23.58H14.6485ZM17.7188 25C17.6888 25.0067 17.6688 25.01 17.6588 25.01C17.6488 25.0133 17.6288 25.015 17.5988 25.015C17.5221 25.015 17.4571 25.0017 17.4038 24.975C17.3538 24.9483 17.3138 24.9133 17.2838 24.87C17.2538 24.8233 17.2321 24.7717 17.2188 24.715C17.2088 24.655 17.2038 24.5917 17.2038 24.525C17.1705 24.615 17.1221 24.6933 17.0588 24.76C16.9988 24.8267 16.9288 24.8833 16.8488 24.93C16.7688 24.9733 16.6821 25.0067 16.5888 25.03C16.4955 25.0533 16.4005 25.065 16.3038 25.065C16.1838 25.065 16.0705 25.0467 15.9638 25.01C15.8605 24.9767 15.7688 24.9267 15.6888 24.86C15.6121 24.7933 15.5521 24.7133 15.5088 24.62C15.4655 24.5233 15.4438 24.415 15.4438 24.295C15.4438 24.0717 15.5205 23.8967 15.6738 23.77C15.8305 23.64 16.0338 23.5667 16.2838 23.55L17.2038 23.485V23.24C17.2038 23.0333 17.1405 22.8867 17.0138 22.8C16.8905 22.7133 16.7338 22.67 16.5438 22.67C16.3438 22.67 16.1771 22.715 16.0438 22.805C15.9105 22.895 15.8371 23.0333 15.8238 23.22H15.5738C15.5838 23.0933 15.6138 22.9817 15.6638 22.885C15.7171 22.7883 15.7855 22.7067 15.8688 22.64C15.9555 22.5733 16.0555 22.5233 16.1688 22.49C16.2821 22.4533 16.4071 22.435 16.5438 22.435C16.6271 22.435 16.7121 22.4433 16.7988 22.46C16.8855 22.4733 16.9671 22.4983 17.0438 22.535C17.1205 22.5717 17.1888 22.62 17.2488 22.68C17.3088 22.7367 17.3555 22.8083 17.3888 22.895C17.4188 22.9717 17.4371 23.05 17.4438 23.13C17.4505 23.21 17.4538 23.2917 17.4538 23.375V24.515C17.4538 24.6017 17.4638 24.6683 17.4838 24.715C17.5071 24.7617 17.5621 24.785 17.6488 24.785C17.6788 24.785 17.7021 24.7833 17.7188 24.78V25ZM17.2038 23.715L16.3088 23.77C16.1221 23.7833 15.9738 23.8367 15.8638 23.93C15.7538 24.02 15.6988 24.1417 15.6988 24.295C15.6988 24.475 15.7571 24.61 15.8738 24.7C15.9938 24.79 16.1438 24.835 16.3238 24.835C16.4805 24.835 16.6138 24.8067 16.7238 24.75C16.8371 24.69 16.9288 24.6133 16.9988 24.52C17.0688 24.4267 17.1205 24.3217 17.1538 24.205C17.1871 24.085 17.2038 23.965 17.2038 23.845V23.715ZM19.7415 22.74C19.7015 22.73 19.6599 22.7233 19.6165 22.72C19.5765 22.7167 19.5365 22.715 19.4965 22.715C19.3399 22.715 19.2099 22.7467 19.1065 22.81C19.0065 22.8733 18.9265 22.9567 18.8665 23.06C18.8065 23.1633 18.7632 23.28 18.7365 23.41C18.7132 23.54 18.7015 23.67 18.7015 23.8V25H18.4515V22.5H18.6715L18.7015 23.005C18.7582 22.8317 18.8599 22.7 19.0065 22.61C19.1565 22.52 19.3199 22.475 19.4965 22.475C19.5365 22.475 19.5765 22.4767 19.6165 22.48C19.6599 22.48 19.7015 22.4833 19.7415 22.49V22.74Z" fill="#4D4D4D"/>
<path d="M16.0611 10.16V11H15.3111V10.16H13.4511V9.452L14.9811 6.83H15.7971L14.2431 9.482H15.3111V8.504H16.0611V9.482H16.5891V10.16H16.0611Z" fill="#4D4D4D"/>
</svg>
