<svg width="30" height="30" viewBox="0 0 30 30" fill="none" xmlns="http://www.w3.org/2000/svg">
<rect width="30" height="30" fill="white"/>
<path d="M30 30H22.5H15H7.5H0V22.5003V15.0005V7.49975V0H7.5H15H22.5H30V7.49975V14.9995V22.4992V30ZM0.252287 29.7477H7.62614H15H22.3739H29.7477V22.3741V15.0005V7.62589V0.252279H22.3739H15H7.62614H0.252287V7.62589V14.9995V22.3731V29.7477Z" fill="#4D4D4D"/>
<path d="M23.141 7H19.1539H15.1669H11.1808H7.19379C6.89092 7 6.60315 7.06128 6.34026 7.17231C6.07736 7.28333 5.8411 7.44409 5.64304 7.64304C5.44498 7.84199 5.28333 8.07913 5.17231 8.34114C5.06128 8.60316 5 8.89181 5 9.19468V9.6814V10.1681V10.6548V11.1416V13.529V15.9164V18.3038V20.6912C5 20.9941 5.06128 21.2818 5.17231 21.5447C5.28333 21.8068 5.44409 22.0439 5.64304 22.242C5.84199 22.44 6.07824 22.6017 6.34026 22.7127C6.60227 22.8237 6.89092 22.885 7.19379 22.885H11.1808H15.1678H19.1548H23.1419C23.4447 22.885 23.7325 22.8237 23.9954 22.7127C24.2574 22.6017 24.4945 22.4409 24.6926 22.242C24.8907 22.043 25.0523 21.8068 25.1633 21.5447C25.2744 21.2827 25.3356 20.9941 25.3356 20.6912V18.3038V15.9164V13.529V11.1416V10.6548V10.1681V9.6814V9.19468C25.3356 8.89181 25.2744 8.60404 25.1633 8.34114C25.0523 8.07913 24.8916 7.84199 24.6926 7.64393C24.4937 7.44586 24.2574 7.28422 23.9954 7.17319C23.7325 7.06217 23.4438 7 23.141 7ZM25.1189 11.1416V13.529V15.9164V18.3038V20.6912C25.1189 20.9683 25.0647 21.2303 24.9662 21.4684C24.8676 21.7055 24.7246 21.9187 24.5461 22.0963C24.3675 22.2739 24.1553 22.4178 23.9181 22.5164C23.681 22.615 23.4181 22.6692 23.141 22.6692H19.1539H15.1669H11.1808H7.19379C6.91668 22.6692 6.65467 22.615 6.41664 22.5164C6.1795 22.4178 5.96633 22.2748 5.7887 22.0963C5.61106 21.9178 5.46718 21.7055 5.36859 21.4684C5.27 21.2312 5.21583 20.9683 5.21583 20.6912V18.3038V15.9164V13.529V11.1416V11.0527V10.9639V10.8751V10.7863H5.30464H5.39346H5.48228H5.5711H10.369H15.1669H19.9649H24.7628H24.8516H24.9404H25.0292H25.118V10.8751V10.9639V11.0527V11.1416H25.1189ZM25.1189 10.2143V10.3031V10.3919V10.4808V10.5696H25.0301H24.9413H24.8525H24.7637H19.9657H15.1678H10.3699H5.57198H5.48317H5.39435H5.30553H5.21671V10.4808V10.3919V10.3031V10.2143V9.9594V9.70449V9.44959V9.19468C5.21671 8.91757 5.27089 8.65556 5.36948 8.41753C5.46807 8.1795 5.61106 7.96811 5.78959 7.78959C5.96811 7.61106 6.18038 7.46807 6.41753 7.36948C6.65467 7.27089 6.91757 7.21671 7.19468 7.21671H11.1817H15.1687H19.1557H23.1427C23.4198 7.21671 23.6819 7.27089 23.9199 7.36948C24.157 7.46807 24.3702 7.61106 24.5478 7.78959C24.7255 7.96811 24.8694 8.18038 24.9679 8.41753C25.0665 8.65467 25.1207 8.91757 25.1207 9.19468V9.44959V9.70449V9.9594V10.2143H25.1189Z" fill="#4D4D4D"/>
<path d="M6.98595 8.48413C6.92644 8.48413 6.8696 8.49657 6.8172 8.51788C6.76479 8.5392 6.71861 8.57117 6.67953 8.61114C6.64045 8.65111 6.60848 8.6964 6.58716 8.74792C6.56584 8.79943 6.55252 8.85716 6.55252 8.91667C6.55252 8.97618 6.56496 9.03302 6.58627 9.08454C6.60759 9.13605 6.63956 9.18312 6.67953 9.2222C6.7195 9.26128 6.76568 9.29326 6.8172 9.31546C6.86871 9.33767 6.92555 9.34921 6.98595 9.34921C7.04546 9.34921 7.1023 9.33678 7.15381 9.31546C7.20533 9.29415 7.2524 9.26217 7.29148 9.2222C7.33056 9.18224 7.36254 9.13605 7.38474 9.08454C7.40694 9.03302 7.41849 8.97618 7.41849 8.91667C7.41849 8.85716 7.40606 8.80032 7.38474 8.74792C7.36342 8.69552 7.33145 8.64933 7.29148 8.61025C7.25151 8.57117 7.20533 8.5392 7.15381 8.51699C7.1023 8.49479 7.04546 8.48413 6.98595 8.48413Z" fill="#4D4D4D"/>
<path d="M9.37337 8.48413C9.31386 8.48413 9.25702 8.49657 9.20551 8.51788C9.15399 8.5392 9.10603 8.57117 9.06695 8.61025C9.02787 8.64933 8.9959 8.6964 8.97458 8.74792C8.95326 8.79943 8.93994 8.85716 8.93994 8.91667C8.93994 8.97618 8.95238 9.03302 8.97369 9.08454C8.99501 9.13605 9.02698 9.18312 9.06695 9.2222C9.10692 9.26128 9.1531 9.29326 9.20462 9.31546C9.25613 9.33767 9.31297 9.34921 9.37248 9.34921C9.43199 9.34921 9.48883 9.33678 9.54124 9.31546C9.59364 9.29415 9.63982 9.26217 9.6789 9.2222C9.71798 9.18224 9.74996 9.13605 9.77216 9.08454C9.79437 9.03302 9.80591 8.97618 9.80591 8.91667C9.80591 8.85716 9.79348 8.80032 9.77216 8.74792C9.75084 8.69552 9.71887 8.64933 9.6789 8.61025C9.63893 8.57117 9.59275 8.5392 9.54124 8.51699C9.48972 8.49479 9.43288 8.48413 9.37337 8.48413Z" fill="#4D4D4D"/>
<path d="M12.2164 8.91667C12.2164 8.85716 12.204 8.80032 12.1827 8.74881C12.1613 8.69729 12.1294 8.65022 12.0894 8.61114C12.0494 8.57206 12.0032 8.54009 11.9517 8.51788C11.9002 8.49568 11.8434 8.48413 11.7839 8.48413C11.7244 8.48413 11.6675 8.49657 11.6151 8.51788C11.5627 8.5392 11.5165 8.57117 11.4774 8.61114C11.4384 8.65111 11.4064 8.69729 11.3842 8.74881C11.362 8.80032 11.3504 8.85716 11.3504 8.91667C11.3504 8.97618 11.3629 9.03302 11.3842 9.08454C11.4055 9.13605 11.4375 9.18312 11.4774 9.2222C11.5174 9.26128 11.5636 9.29326 11.6151 9.31546C11.6666 9.33767 11.7235 9.34921 11.7839 9.34921C11.8434 9.34921 11.9002 9.33678 11.9517 9.31546C12.0032 9.29415 12.0503 9.26217 12.0894 9.2222C12.1285 9.18224 12.1604 9.13605 12.1827 9.08454C12.2049 9.03302 12.2164 8.97618 12.2164 8.91667Z" fill="#4D4D4D"/>
<path d="M18.5518 19.7338C18.558 19.7338 18.5642 19.7329 18.5704 19.7311C18.5766 19.7294 18.5828 19.7276 18.5891 19.724C18.5953 19.7205 18.6015 19.7178 18.6077 19.7134C18.6139 19.7089 18.6193 19.7036 18.6255 19.6983L19.3671 18.9566L20.1087 18.215L20.8504 17.4734L21.592 16.7318C21.5973 16.7264 21.6026 16.7202 21.6071 16.714C21.6115 16.7078 21.6151 16.7016 21.6177 16.6953C21.6204 16.6891 21.6231 16.6829 21.6248 16.6767C21.6266 16.6705 21.6275 16.6643 21.6275 16.658C21.6275 16.6518 21.6266 16.6456 21.6248 16.6394C21.6231 16.6332 21.6213 16.627 21.6177 16.6207C21.6142 16.6145 21.6115 16.6083 21.6071 16.6021C21.6026 16.5959 21.5973 16.5905 21.592 16.5843L20.8504 15.8365L20.1087 15.0886L19.3671 14.3408L18.6255 13.593C18.6201 13.5876 18.6139 13.5823 18.6086 13.5787C18.6024 13.5743 18.5971 13.5708 18.5908 13.5681C18.5846 13.5654 18.5784 13.5628 18.5722 13.5619C18.566 13.5601 18.5598 13.5592 18.5535 13.5592C18.5473 13.5592 18.5411 13.5601 18.5349 13.5619C18.5287 13.5636 18.5224 13.5654 18.5162 13.569C18.51 13.5725 18.5038 13.5752 18.4976 13.5796C18.4914 13.5841 18.486 13.5894 18.4798 13.5947C18.4736 13.6001 18.4692 13.6063 18.4647 13.6125C18.4603 13.6187 18.4567 13.6249 18.4541 13.6311C18.4514 13.6374 18.4487 13.6436 18.447 13.6498C18.4452 13.656 18.4443 13.6622 18.4443 13.6684C18.4443 13.6747 18.4452 13.6809 18.447 13.6871C18.4487 13.6933 18.4505 13.6995 18.4541 13.7058C18.4576 13.712 18.4603 13.7182 18.4647 13.7244C18.4692 13.7306 18.4745 13.736 18.4798 13.7422L19.1406 14.403L19.8014 15.0638L20.4622 15.7246L21.123 16.3854L21.1861 16.4484L21.2491 16.5115L21.3122 16.5746L21.3753 16.6376L21.3122 16.7007L21.2491 16.7637L21.1861 16.8268L21.123 16.8899L20.4622 17.5507L19.8014 18.2115L19.1388 18.8678L18.478 19.5286C18.47 19.5366 18.4647 19.5446 18.4594 19.5517C18.4541 19.5588 18.4514 19.5677 18.4487 19.5748C18.4461 19.5819 18.4452 19.5899 18.4434 19.5961C18.4416 19.6023 18.4425 19.6086 18.4425 19.613C18.4425 19.6174 18.4425 19.6237 18.4434 19.6299C18.4443 19.6361 18.4461 19.6432 18.4487 19.6512C18.4514 19.6592 18.4549 19.6663 18.4594 19.6743C18.4638 19.6823 18.47 19.6903 18.478 19.6974C18.4834 19.7027 18.4896 19.708 18.4958 19.7125C18.502 19.7169 18.5082 19.7205 18.5145 19.7231C18.5207 19.7258 18.5269 19.7285 18.5331 19.7302C18.5393 19.7329 18.5455 19.7338 18.5518 19.7338Z" fill="#4D4D4D"/>
<path d="M8.74366 16.7086L9.48528 17.4565L10.2269 18.2043L10.9685 18.9522L11.7102 19.7C11.7155 19.7053 11.7217 19.7107 11.727 19.7142C11.7324 19.7178 11.7386 19.7222 11.7448 19.7249C11.751 19.7275 11.7572 19.7302 11.7635 19.7311C11.7697 19.732 11.7759 19.7338 11.7821 19.7338C11.7883 19.7338 11.7945 19.7329 11.8008 19.7311C11.807 19.7293 11.8132 19.7275 11.8194 19.724C11.8256 19.7204 11.8318 19.7178 11.8381 19.7133C11.8443 19.7089 11.8496 19.7036 11.8558 19.6982C11.8674 19.6867 11.8762 19.6743 11.8816 19.6627C11.8878 19.6503 11.8905 19.6378 11.8905 19.6254C11.8905 19.613 11.8878 19.6005 11.8816 19.5881C11.8754 19.5757 11.8674 19.5641 11.8549 19.5517L11.1941 18.8847L10.5333 18.2177L9.87253 17.5506L9.2135 16.8854L9.15133 16.8223L9.08916 16.7593L9.02698 16.6962L8.96481 16.6331L9.02787 16.571L9.09093 16.5088L9.15399 16.4466L9.21705 16.3845L9.87786 15.7299L10.5387 15.0753L11.1995 14.4207L11.8603 13.7661C11.8718 13.7546 11.8798 13.743 11.886 13.7306C11.8922 13.7182 11.8949 13.7057 11.894 13.6933C11.8931 13.6809 11.8913 13.6684 11.8851 13.656C11.8789 13.6436 11.8709 13.632 11.8585 13.6196C11.8532 13.6142 11.8469 13.6089 11.8407 13.6045C11.8345 13.6 11.8283 13.5965 11.8221 13.5938C11.8159 13.5912 11.8096 13.5885 11.8034 13.5867C11.7972 13.5849 11.791 13.584 11.7848 13.584C11.7785 13.584 11.7723 13.5849 11.7661 13.5867C11.7599 13.5885 11.7537 13.5903 11.7475 13.5938C11.7412 13.5974 11.735 13.6 11.7288 13.6045C11.7226 13.6089 11.7173 13.6142 11.711 13.6196L10.9694 14.3559L10.2278 15.0922L9.48439 15.8267L8.74277 16.563C8.73122 16.5745 8.72323 16.5861 8.71701 16.5985C8.71079 16.6109 8.70813 16.6234 8.70813 16.6358C8.70813 16.6482 8.71079 16.6607 8.71701 16.6731C8.72323 16.6856 8.73211 16.6971 8.74366 16.7086Z" fill="#4D4D4D"/>
<path d="M13.467 19.644C13.4687 19.6502 13.4714 19.6556 13.4741 19.6609C13.4767 19.6662 13.4812 19.6716 13.4856 19.676C13.4901 19.6804 13.4945 19.6858 13.5007 19.6893C13.5069 19.6929 13.5123 19.6973 13.5185 19.7009C13.522 19.7026 13.5265 19.7044 13.53 19.7053C13.5336 19.7062 13.5371 19.7071 13.5407 19.708C13.5442 19.7089 13.5478 19.7089 13.5505 19.7089C13.5531 19.7089 13.5567 19.7089 13.5602 19.7089C13.5611 19.7089 13.562 19.7089 13.562 19.7089H13.5638H13.5656H13.5673C13.5744 19.7089 13.5833 19.708 13.5922 19.7053C13.6011 19.7026 13.6109 19.6982 13.6206 19.692C13.6304 19.6858 13.6402 19.6787 13.649 19.6689C13.6579 19.6591 13.6677 19.6476 13.6757 19.6334L14.4742 18.1519L15.2726 16.6704L16.0711 15.1889L16.8696 13.7075C16.874 13.6986 16.8776 13.6879 16.8802 13.6755C16.8829 13.6631 16.8838 13.6497 16.8829 13.6364C16.882 13.6231 16.8776 13.6098 16.8705 13.5982C16.8633 13.5867 16.8527 13.576 16.8385 13.5689C16.8332 13.5662 16.8269 13.5636 16.8207 13.5609C16.8145 13.5583 16.8092 13.5565 16.803 13.5556C16.7967 13.5547 16.7914 13.5529 16.7852 13.552C16.779 13.5511 16.7736 13.5511 16.7674 13.5511C16.7577 13.5511 16.7497 13.552 16.7408 13.5538C16.7328 13.5556 16.7257 13.5583 16.7186 13.5618C16.7115 13.5654 16.7061 13.5698 16.7008 13.576C16.6955 13.5813 16.691 13.5876 16.6875 13.5956L15.8864 15.0868L15.0852 16.578L14.2841 18.0693L13.483 19.5605C13.4776 19.5703 13.4732 19.5792 13.4696 19.5863C13.4661 19.5943 13.4634 19.6014 13.4625 19.6076C13.4616 19.6138 13.4608 19.62 13.4608 19.6263C13.4643 19.6334 13.4661 19.6387 13.467 19.644Z" fill="#4D4D4D"/>
</svg>
