<svg width="30" height="30" viewBox="0 0 30 30" fill="none" xmlns="http://www.w3.org/2000/svg">
<rect width="30" height="30" fill="white"/>
<path d="M30 30H22.5H15H7.5H0V22.5003V15.0005V7.49975V0H7.5H15H22.5H30V7.49975V14.9995V22.4992V30ZM0.252287 29.7477H7.62614H15H22.3739H29.7477V22.3741V15.0005V7.62589V0.252279H22.3739H15H7.62614H0.252287V7.62589V14.9995V22.3731V29.7477Z" fill="#4D4D4D"/>
<path d="M30 22V21.9421V21.8843V21.8264V21.7685C28.8439 21.3235 27.6602 20.9279 26.4529 20.5844C25.2446 20.241 24.0117 19.9507 22.7583 19.7163C21.5049 19.482 20.2279 19.3027 18.9345 19.1822C17.6401 19.0617 16.3282 19 15 19C13.6718 19 12.3589 19.0617 11.0655 19.1822C9.77111 19.3027 8.49515 19.482 7.24173 19.7163C5.98832 19.9507 4.7554 20.2419 3.54708 20.5844C2.33875 20.9279 1.15605 21.3235 0 21.7685V21.8264V21.8843V21.9421V22C1.15503 21.5522 2.33773 21.1546 3.54605 20.8093C4.75335 20.4639 5.98627 20.1717 7.24071 19.9364C8.49515 19.7011 9.77111 19.5199 11.0655 19.3994C12.3599 19.278 13.6728 19.2163 15.002 19.2163C16.3303 19.2163 17.6431 19.278 18.9376 19.3994C20.232 19.5209 21.5079 19.7011 22.7624 19.9364C24.0168 20.1717 25.2487 20.4649 26.457 20.8093C27.6612 21.1546 28.845 21.5522 30 22Z" fill="#4D4D4D"/>
<path d="M14.659 5.434C15.444 5.434 16.218 5.51 16.973 5.66C17.728 5.809 18.463 6.031 19.17 6.323C19.877 6.615 20.557 6.976 21.199 7.403C21.842 7.83 22.448 8.324 23.01 8.88L23.086 8.804L23.162 8.728L23.238 8.652L23.314 8.576C22.736 7.998 22.111 7.486 21.446 7.042C20.782 6.598 20.078 6.224 19.345 5.921C18.612 5.618 17.849 5.388 17.064 5.234C16.28 5.079 15.474 5 14.657 5C13.839 5 13.034 5.079 12.25 5.234C11.466 5.389 10.703 5.619 9.969 5.921C9.235 6.223 8.533 6.598 7.868 7.042C7.204 7.486 6.578 7.998 6 8.576L6.076 8.652L6.152 8.728L6.228 8.804L6.304 8.88C6.865 8.324 7.472 7.831 8.115 7.403C8.758 6.976 9.437 6.615 10.144 6.323C10.851 6.031 11.586 5.809 12.341 5.66C13.1 5.51 13.874 5.434 14.659 5.434Z" fill="#4D4D4D"/>
<path d="M17.625 14.243C17.423 14.047 17.207 13.872 16.978 13.721C16.749 13.57 16.508 13.442 16.257 13.338C16.006 13.234 15.746 13.155 15.479 13.102C15.212 13.049 14.938 13.022 14.66 13.022C14.382 13.022 14.107 13.049 13.838 13.102C13.569 13.155 13.307 13.234 13.055 13.338C12.803 13.442 12.561 13.57 12.333 13.721C12.105 13.872 11.891 14.047 11.695 14.243L11.771 14.319L11.847 14.395L11.923 14.471L11.999 14.547C12.179 14.373 12.372 14.217 12.577 14.082C12.782 13.947 12.998 13.833 13.223 13.74C13.448 13.647 13.682 13.576 13.922 13.529C14.162 13.481 14.409 13.457 14.66 13.457C14.911 13.457 15.157 13.482 15.398 13.529C15.638 13.577 15.872 13.648 16.097 13.74C16.322 13.833 16.538 13.947 16.743 14.082C16.948 14.217 17.141 14.372 17.321 14.547L17.397 14.471L17.473 14.395L17.549 14.319L17.625 14.243Z" fill="#4D4D4D"/>
<path d="M14.398 16.685L14.414 16.794L14.43 16.903L14.446 17.012L14.462 17.121C14.495 17.116 14.527 17.111 14.56 17.109C14.593 17.106 14.625 17.105 14.658 17.105C14.691 17.105 14.723 17.106 14.756 17.109C14.789 17.112 14.821 17.116 14.854 17.121L14.87 17.012L14.886 16.903L14.902 16.794L14.918 16.685C14.874 16.68 14.831 16.675 14.787 16.673C14.743 16.67 14.7 16.669 14.656 16.669C14.612 16.669 14.569 16.67 14.525 16.673C14.485 16.675 14.441 16.679 14.398 16.685Z" fill="#4D4D4D"/>
<path d="M20.481 11.408C20.094 11.021 19.674 10.678 19.228 10.38C18.782 10.083 18.309 9.83097 17.816 9.62797C17.323 9.42497 16.809 9.26997 16.281 9.16597C15.753 9.06197 15.211 9.00897 14.66 9.00897C14.109 9.00897 13.568 9.06197 13.042 9.16597C12.516 9.26997 12.004 9.42497 11.512 9.62797C11.02 9.83097 10.548 10.082 10.101 10.38C9.65399 10.677 9.23099 11.021 8.83899 11.408L8.91499 11.484L8.99099 11.56L9.06699 11.636L9.14299 11.713C9.51399 11.348 9.91299 11.023 10.336 10.742C10.759 10.461 11.206 10.223 11.672 10.031C12.138 9.83897 12.623 9.69197 13.123 9.59397C13.623 9.49597 14.136 9.44497 14.659 9.44497C15.182 9.44497 15.696 9.49497 16.195 9.59397C16.694 9.69197 17.18 9.83897 17.646 10.031C18.112 10.223 18.559 10.461 18.982 10.742C19.405 11.023 19.804 11.347 20.175 11.713L20.251 11.637L20.327 11.561L20.403 11.485L20.481 11.408Z" fill="#4D4D4D"/>
</svg>
