<svg width="30" height="30" viewBox="0 0 30 30" fill="none" xmlns="http://www.w3.org/2000/svg">
<rect width="30" height="30" fill="white"/>
<path d="M30 30H22.5H15H7.5H0V22.5003V15.0005V7.49975V0H7.5H15H22.5H30V7.49975V14.9995V22.4992V30ZM0.252287 29.7477H7.62614H15H22.3739H29.7477V22.3741V15.0005V7.62589V0.252279H22.3739H15H7.62614H0.252287V7.62589V14.9995V22.3731V29.7477Z" fill="#4D4D4D"/>
<path d="M9.2586 18.3342V17.7835H21.0362C21.8887 17.7835 22.5875 18.4823 22.5875 19.3348C22.5875 20.1873 21.8886 20.8862 21.0361 20.8862C20.2342 20.8862 19.5683 20.2677 19.492 19.4848H20.0444C20.0722 19.7118 20.1639 19.9095 20.3127 20.0583C20.4935 20.2391 20.7463 20.3355 21.0362 20.3355C21.326 20.3355 21.5789 20.2391 21.7597 20.0583C21.9404 19.8776 22.0369 19.6247 22.0369 19.3349C22.0369 19.045 21.9404 18.7922 21.7597 18.6114C21.5789 18.4306 21.326 18.3342 21.0362 18.3342H9.2586Z" fill="black" stroke="white" stroke-width="0.3"/>
<path d="M16.7739 10.1138C18.1386 10.1138 19.1804 11.1557 19.1804 12.5204C19.1804 13.8854 18.1426 14.9269 16.7783 14.9269H6.70659V14.3717H16.7739C17.7921 14.3717 18.6253 13.5385 18.6253 12.5204C18.6253 11.5022 17.7921 10.669 16.7739 10.669C15.8062 10.669 15.0056 11.4216 14.9285 12.3704H14.3716C14.4448 11.0801 15.4597 10.1138 16.7739 10.1138Z" fill="black" stroke="white" stroke-width="0.3"/>
<path d="M20.8856 13.221H20.3345C20.4135 11.4978 21.8463 10.1138 23.5883 10.1138C25.3808 10.1138 26.85 11.579 26.85 13.371C26.85 15.1633 25.385 16.6283 23.5928 16.6283H4.15V16.0776H23.5883C25.1187 16.0776 26.2948 14.9014 26.2948 13.371C26.2948 11.8407 25.1187 10.6645 23.5883 10.6645C22.1084 10.6645 20.9597 11.7645 20.8856 13.221Z" fill="black" stroke="white" stroke-width="0.3"/>
</svg>
